<?xml version="1.0" encoding="utf-8"?>
<!-- Generator: Adobe Illustrator 17.0.0, SVG Export Plug-In . SVG Version: 6.00 Build 0)  -->
<svg xmlns="http://www.w3.org/2000/svg" xmlns:xlink="http://www.w3.org/1999/xlink" version="1.1" id="Capa_1" x="0px" y="0px" width="32px" height="32px" viewBox="0 0 32 32" style="enable-background:new 0 0 32 32;" xml:space="preserve">

<path class="st0" d="M24.469,30c-2.785,0-5.188-1.639-6.315-4H20v-2c2.206,0,4-1.794,4-4V4c0-2.206-1.794-4-4-4H9  C8.448,0,8,0.448,8,1v1H5C4.448,2,4,2.448,4,3v1H1C0.448,4,0,4.448,0,5s0.448,1,1,1h3v2H1C0.448,8,0,8.448,0,9s0.448,1,1,1h3v1  c0,0.552,0.448,1,1,1h3v11c0,0.553,0.448,1,1,1h5v2h1.994c1.239,3.49,4.565,6,8.475,6H32v-2H24.469z M6,10V4h2v6H6z M10,22V11V3V2  h10c1.103,0,2,0.897,2,2v16c0,1.103-0.897,2-2,2H10z" style="fill:#010002;;"/>
</svg>
