<?xml version="1.0" encoding="utf-8"?>
<!-- Generator: Adobe Illustrator 17.0.0, SVG Export Plug-In . SVG Version: 6.00 Build 0)  -->
<svg xmlns="http://www.w3.org/2000/svg" xmlns:xlink="http://www.w3.org/1999/xlink" version="1.1" id="Capa_1" x="0px" y="0px" width="32px" height="32px" viewBox="0 0 32 32" style="enable-background:new 0 0 32 32;" xml:space="preserve">
<path d="M25.971,11.664C25.795,9.575,24.087,8,22,8H10c-2.087,0-3.794,1.575-3.967,3.623C4,27.703,4,27.919,4,28  c0,2.206,1.794,4,4,4h16c2.206,0,4-1.794,4-4C28,27.919,28,27.703,25.971,11.664z M24,30H8c-1.103,0-2-0.897-2.002-1.936  c0.04-0.472,1.229-9.941,2.024-16.232C8.11,10.788,8.96,10,10,10h12c1.039,0,1.89,0.788,1.982,1.874  C24.772,18.123,25.963,27.593,26,28C26,29.103,25.103,30,24,30z M10,12h12v2H10V12z M10,16h12v2H10V16z M16,22c-1.654,0-3,1.346-3,3  s1.346,3,3,3s3-1.346,3-3S17.654,22,16,22z M16,26c-0.551,0-1-0.448-1-1s0.449-1,1-1s1,0.448,1,1S16.551,26,16,26z M8,4h2v2H8V4z   M12,4h2v2h-2V4z M20,6h-2V4h2V6z M22,4h2v2h-2V4z M8,2H6V0h2V2z M12,2h-2V0h2V2z M22,2h-2V0h2V2z M26,2h-2V0h2V2z"/>
</svg>
