<?xml version="1.0" encoding="utf-8"?>
<!-- Generator: Adobe Illustrator 17.0.0, SVG Export Plug-In . SVG Version: 6.00 Build 0)  -->
<svg xmlns="http://www.w3.org/2000/svg" xmlns:xlink="http://www.w3.org/1999/xlink" version="1.1" id="Capa_1" x="0px" y="0px" width="32px" height="32px" viewBox="0 0 32 32" style="enable-background:new 0 0 32 32;" xml:space="preserve">

<path class="st0" d="M32,18c0-2.727-0.772-5.046-2-6.476V5c0-0.552-0.447-1-1-1H19c-0.553,0-1,0.448-1,1v5H9V7.722  C9.595,7.375,10,6.737,10,6c0-1.103-0.897-2-2-2S6,4.897,6,6c0,0.737,0.405,1.375,1,1.722V10H5c-1.503,0-5,0.779-5,8s3.497,8,5,8h1  v4h2v-4h8.35c0.826,2.327,3.043,4,5.65,4c2.626,0,4.858-1.698,5.669-4.052C29.347,25.691,32,24.291,32,18z M20,6h8v4.149  c-0.161-0.048-0.326-0.086-0.493-0.111C27.339,10.013,27.17,10,27,10h-7V6z M22,28c-2.206,0-4-1.794-4-4s1.794-4,4-4s4,1.794,4,4  S24.206,28,22,28z M27.989,23.775C27.869,20.571,25.233,18,22,18c-3.309,0-6,2.691-6,6H5c-2.61,0-3-3.759-3-6c0-3.813,1.093-6,3-6  h14h8c0.167,0,0.336,0.04,0.504,0.102c0.023,0.008,0.045,0.015,0.068,0.025c0.163,0.069,0.324,0.166,0.481,0.29  c0.023,0.018,0.046,0.039,0.068,0.059C29.15,13.342,30,15.345,30,18C30,19.919,29.71,22.943,27.989,23.775z" style="fill:#030104;;"/>
</svg>
