<?xml version="1.0" encoding="utf-8"?>
<!-- Generator: Adobe Illustrator 17.0.0, SVG Export Plug-In . SVG Version: 6.00 Build 0)  -->
<svg xmlns="http://www.w3.org/2000/svg" xmlns:xlink="http://www.w3.org/1999/xlink" version="1.1" id="Capa_1" x="0px" y="0px" width="32px" height="32px" viewBox="0 0 32 32" style="enable-background:new 0 0 32 32;" xml:space="preserve">

<path class="st0" d="M0,4v12c0,2.206,1.794,4,4,4h24c2.206,0,4-1.794,4-4V4H0z M6,18v-2h20v2H6z M30,16c0,1.103-0.897,2-2,2v-4H4v4  c-1.103,0-2-0.897-2-2V6h28V16z M28,10h-4V8h4V10z M8,22h2v2c0,1.414-0.747,2.161-1.293,2.707C8.217,27.197,8,27.438,8,28v2H6v-2  c0-1.414,0.747-2.161,1.293-2.707C7.783,24.803,8,24.563,8,24V22z M16,22h2v2c0,1.414-0.747,2.161-1.293,2.707  C16.217,27.197,16,27.438,16,28v2h-2v-2c0-1.414,0.747-2.161,1.293-2.707C15.783,24.803,16,24.563,16,24V22z M24,22h2v2  c0,1.414-0.747,2.161-1.293,2.707C24.217,27.197,24,27.438,24,28v2h-2v-2c0-1.414,0.747-2.161,1.293-2.707  C23.783,24.803,24,24.563,24,24V22z" style="fill:#010002;;"/>
</svg>
