<?xml version="1.0" encoding="utf-8"?>
<!-- Generator: Adobe Illustrator 17.0.0, SVG Export Plug-In . SVG Version: 6.00 Build 0)  -->
<svg xmlns="http://www.w3.org/2000/svg" xmlns:xlink="http://www.w3.org/1999/xlink" version="1.1" id="Capa_1" x="0px" y="0px" width="32px" height="32px" viewBox="0 0 32 32" style="enable-background:new 0 0 32 32;" xml:space="preserve">

<path class="st0" d="M25,0H7C5.346,0,4,1.346,4,3v26c0,1.654,1.346,3,3,3h18c1.654,0,3-1.346,3-3V3C28,1.346,26.654,0,25,0z M26,29  c0,0.552-0.448,1-1,1H7c-0.551,0-1-0.448-1-1V3c0-0.551,0.449-1,1-1h18c0.552,0,1,0.449,1,1V29z M8,4h16v2H8V4z M8,8h16v2H8V8z   M8,12h16v2H8V12z M12,23h8v-6h-8V23z M14,19h4v2h-4V19z M8,26h2v2H8V26z M12,26h2v2h-2V26z M18,26h2v2h-2V26z M22,26h2v2h-2V26z" style="fill:#010002;;"/>
</svg>
