<?xml version="1.0" encoding="utf-8"?>
<!-- Generator: Adobe Illustrator 17.0.0, SVG Export Plug-In . SVG Version: 6.00 Build 0)  -->
<svg xmlns="http://www.w3.org/2000/svg" xmlns:xlink="http://www.w3.org/1999/xlink" version="1.1" id="Capa_1" x="0px" y="0px" width="32px" height="32px" viewBox="0 0 32 32" style="enable-background:new 0 0 32 32;" xml:space="preserve">

<path class="st0" d="M22,10V8h2V6h-4v4h-4V4c0-2.206-1.794-4-4-4S8,1.794,8,4h2c0-1.103,0.897-2,2-2s2,0.897,2,2v6h-4V6H6v2h2v2H0v1  c0,3.86,3.14,7,7,7h4.847l-2,14h10.306l-2-14H23c3.859,0,7-3.14,7-7v-1H22z M17.847,30h-5.694l1.714-12h2.266L17.847,30z M23,16H7  c-2.415,0-4.536-1.721-5-4h26C27.535,14.279,25.415,16,23,16z" style="fill:#030104;;"/>
</svg>
