<?xml version="1.0" encoding="utf-8"?>
<!-- Generator: Adobe Illustrator 17.0.0, SVG Export Plug-In . SVG Version: 6.00 Build 0)  -->
<svg xmlns="http://www.w3.org/2000/svg" xmlns:xlink="http://www.w3.org/1999/xlink" version="1.1" id="Capa_1" x="0px" y="0px" width="32px" height="32px" viewBox="0 0 32 32" style="enable-background:new 0 0 32 32;" xml:space="preserve">

<path class="st0" d="M4,0v32h22V0H4z M24,2v4H6V2H24z M24,8v18H6V8H24z M6,30v-2h18v2H6z M14,24V12h-2v-2h-2v2H8v12H14z M10,14h2v8  h-2V14z M22,12h-2v-2h-2v2h-2v12h6V12z M20,22h-2v-8h2V22z" style="fill:#030104;;"/>
</svg>
