<?xml version="1.0" encoding="utf-8"?>
<!-- Generator: Adobe Illustrator 17.0.0, SVG Export Plug-In . SVG Version: 6.00 Build 0)  -->
<svg xmlns="http://www.w3.org/2000/svg" xmlns:xlink="http://www.w3.org/1999/xlink" version="1.1" id="Capa_1" x="0px" y="0px" width="32px" height="32px" viewBox="0 0 32 32" style="enable-background:new 0 0 32 32;" xml:space="preserve">

<path class="st0" d="M24,6h-0.327l0.444-4H18V0h-4v2H7.883l2.065,18.585C8.786,21.285,8,22.547,8,24v8h16v-8  c0-1.453-0.786-2.714-1.947-3.415L22.34,18H23c2.172,0,3.981-1.569,4.406-3.856l0.583-4L28,10C28,7.794,26.206,6,24,6z M22,30H10v-6  c0-1.103,0.897-2,2-2h8c1.103,0,2,0.897,2,2V30z M12,20h-0.105L10.117,4h11.766l-1.778,16H20H12z M25.434,13.817  C25.194,15.102,24.193,16,23,16h-0.438l0.889-8H24c1.081,0,1.965,0.862,1.999,1.935L25.434,13.817z M18,26c0,1.103-0.897,2-2,2  c-1.103,0-2-0.897-2-2s0.897-2,2-2C17.103,24,18,24.897,18,26z" style="fill:#030104;;"/>
</svg>
