<?xml version="1.0" encoding="utf-8"?>
<!-- Generator: Adobe Illustrator 17.0.0, SVG Export Plug-In . SVG Version: 6.00 Build 0)  -->
<svg xmlns="http://www.w3.org/2000/svg" xmlns:xlink="http://www.w3.org/1999/xlink" version="1.1" id="Capa_1" x="0px" y="0px" width="32px" height="32px" viewBox="0 0 32 32" style="enable-background:new 0 0 32 32;" xml:space="preserve">

<path class="st0" d="M28,12c0-2.206-1.794-4-4-4V5.829C25.164,5.416,26,4.304,26,3c0-1.654-1.346-3-3-3H9C7.346,0,6,1.346,6,3  c0,1.304,0.836,2.416,2,2.829V8c-2.206,0-4,1.794-4,4v18h2v2h2v-2h16v2h2v-2h2V12z M9,4C8.449,4,8,3.551,8,3s0.449-1,1-1h14  c0.552,0,1,0.449,1,1s-0.448,1-1,1h-1v4H10V4H9z M8,10h16c1.103,0,2,0.897,2,2v2H6v-2C6,10.897,6.897,10,8,10z M6,28V16h20v12H6z   M12,26h8v-6h-8V26z M14,22h4v2h-4V22z" style="fill:#030104;;"/>
</svg>
