<?xml version="1.0" encoding="utf-8"?>
<!-- Generator: Adobe Illustrator 17.0.0, SVG Export Plug-In . SVG Version: 6.00 Build 0)  -->
<svg xmlns="http://www.w3.org/2000/svg" xmlns:xlink="http://www.w3.org/1999/xlink" version="1.1" id="Capa_1" x="0px" y="0px" width="32px" height="32px" viewBox="0 0 32 32" style="enable-background:new 0 0 32 32;" xml:space="preserve">

<path class="st0" d="M20,15H10V9h10V15z M12,13h6v-2h-6V13z M12,17h-2v2h2V17z M16,17h-2v2h2V17z M12,21h-2v2h2V21z M16,21h-2v2h2  V21z M20,17h-2v2h2V17z M20,21h-2v2h2V21z M21,27H9c-1.654,0-3-1.346-3-3V8c0-1.654,1.346-3,3-3h12c1.654,0,3,1.346,3,3v16  C24,25.654,22.654,27,21,27z M9,7C8.449,7,8,7.449,8,8v16c0,0.552,0.449,1,1,1h12c0.552,0,1-0.448,1-1V8c0-0.551-0.448-1-1-1H9z   M4.979,20.52C4.33,19.081,4,17.56,4,16c0-1.56,0.33-3.081,0.979-4.52l-1.822-0.823C2.389,12.356,2,14.154,2,16  s0.389,3.644,1.157,5.344L4.979,20.52z M28,16c0-1.847-0.39-3.645-1.157-5.344l-1.822,0.824C25.671,12.918,26,14.439,26,16  c0,1.562-0.329,3.082-0.979,4.52l1.822,0.824C27.61,19.645,28,17.847,28,16z" style="fill:#010002;;"/>
</svg>
