<?xml version="1.0" encoding="utf-8"?>
<!-- Generator: Adobe Illustrator 17.0.0, SVG Export Plug-In . SVG Version: 6.00 Build 0)  -->
<svg xmlns="http://www.w3.org/2000/svg" xmlns:xlink="http://www.w3.org/1999/xlink" version="1.1" id="Capa_1" x="0px" y="0px" width="32px" height="32px" viewBox="0 0 32 32" style="enable-background:new 0 0 32 32;" xml:space="preserve">

<path class="st0" d="M16,16v4h-2v-4.726c1.241-1.41,2-3.253,2-5.274c0-4.411-3.589-8-8-8s-8,3.589-8,8c0,2.021,0.759,3.864,2,5.274  V30h12v-6h2v4h16V16H16z M8,4c3.309,0,6,2.691,6,6s-2.691,6-6,6s-6-2.691-6-6S4.691,4,8,4z M12,28H4V16.93  c0.034,0.02,0.072,0.033,0.107,0.052c0.265,0.148,0.538,0.284,0.821,0.402c0.011,0.004,0.022,0.008,0.033,0.012  C5.899,17.783,6.924,18,8,18s2.101-0.217,3.039-0.603c0.011-0.004,0.022-0.008,0.033-0.012c0.283-0.118,0.556-0.254,0.821-0.402  c0.035-0.019,0.072-0.032,0.107-0.052V28z M30,26H18v-8h12V26z M6,24h2v2H6V24z M8,13.986c2.198,0,3.986-1.788,3.986-3.986  S10.198,6.014,8,6.014S4.014,7.802,4.014,10S5.802,13.986,8,13.986z M8,8.014c1.095,0,1.986,0.891,1.986,1.986  S9.095,11.986,8,11.986S6.014,11.095,6.014,10S6.905,8.014,8,8.014z M28,22h-6v-2h6V22z" style="fill:#010002;;"/>
</svg>
