<?xml version="1.0" encoding="utf-8"?>
<!-- Generator: Adobe Illustrator 17.0.0, SVG Export Plug-In . SVG Version: 6.00 Build 0)  -->
<svg xmlns="http://www.w3.org/2000/svg" xmlns:xlink="http://www.w3.org/1999/xlink" version="1.1" id="Capa_1" x="0px" y="0px" width="32px" height="32px" viewBox="0 0 32 32" style="enable-background:new 0 0 32 32;" xml:space="preserve">

<path class="st0" d="M21,0H9C7.346,0,6,1.346,6,3v26c0,1.654,1.346,3,3,3h12c1.654,0,3-1.346,3-3V3C24,1.346,22.654,0,21,0z M9,2h12  c0.552,0,1,0.449,1,1v1H8V3C8,2.449,8.449,2,9,2z M22,6v16H8V6H22z M21,30H9c-0.551,0-1-0.448-1-1v-5h14v5  C22,29.552,21.552,30,21,30z M17,27c0,1.103-0.897,2-2,2s-2-0.897-2-2s0.897-2,2-2S17,25.897,17,27z" style="fill:#030104;;"/>
</svg>
