<?xml version="1.0" encoding="utf-8"?>
<!-- Generator: Adobe Illustrator 17.0.0, SVG Export Plug-In . SVG Version: 6.00 Build 0)  -->
<svg xmlns="http://www.w3.org/2000/svg" xmlns:xlink="http://www.w3.org/1999/xlink" version="1.1" id="Capa_1" x="0px" y="0px" width="32px" height="32px" viewBox="0 0 32 32" style="enable-background:new 0 0 32 32;" xml:space="preserve">

<path class="st0" d="M4,12h2v6H4V12z M8,18h2v-6H8V18z M12,14h2v-2h-2V14z M12,18h2v-2h-2V18z M23,12h5v6h-5V12z M25,16h1v-2h-1V16z   M16,12h5v6h-5V12z M18,16h1v-2h-1V16z M32,11v8c0,1.654-1.346,3-3,3v2h-2v-2H5v2H3v-2c-1.654,0-3-1.346-3-3v-8c0-1.654,1.346-3,3-3  h26C30.654,8,32,9.346,32,11z M30,11c0-0.551-0.448-1-1-1H3c-0.551,0-1,0.449-1,1v8c0,0.552,0.449,1,1,1h26c0.552,0,1-0.448,1-1V11z  " style="fill:#010002;;"/>
</svg>
