<?xml version="1.0" encoding="utf-8"?>
<!-- Generator: Adobe Illustrator 17.0.0, SVG Export Plug-In . SVG Version: 6.00 Build 0)  -->
<svg xmlns="http://www.w3.org/2000/svg" xmlns:xlink="http://www.w3.org/1999/xlink" version="1.1" id="Capa_1" x="0px" y="0px" width="32px" height="32px" viewBox="0 0 32 32" style="enable-background:new 0 0 32 32;" xml:space="preserve">

<path class="st0" d="M15,0C6.729,0,0,6.729,0,15c0,8.271,6.729,15,15,15c8.271,0,15-6.729,15-15C30,6.729,23.271,0,15,0z M16,27.949  V26h-2v1.949C7.63,27.461,2.539,22.37,2.051,16H4v-2H2.051C2.539,7.63,7.63,2.539,14,2.051V4h2V2.051  C22.37,2.539,27.461,7.63,27.949,14H26v2h1.949C27.461,22.37,22.37,27.461,16,27.949z M23,15c0,0.552-0.447,1-1,1h-7  c-0.552,0-1-0.448-1-1V7c0-0.552,0.448-1,1-1s1,0.448,1,1v7h6C22.553,14,23,14.448,23,15z" style="fill:#010002;;"/>
</svg>
