<?xml version="1.0" encoding="utf-8"?>
<!-- Generator: Adobe Illustrator 17.0.0, SVG Export Plug-In . SVG Version: 6.00 Build 0)  -->
<svg xmlns="http://www.w3.org/2000/svg" xmlns:xlink="http://www.w3.org/1999/xlink" version="1.1" id="Capa_1" x="0px" y="0px" width="32px" height="32px" viewBox="0 0 32 32" style="enable-background:new 0 0 32 32;" xml:space="preserve">

<path class="st0" d="M24,0H2.031v8h6.586l2,2h4.797l2-2H22v18h-0.016c-0.13-5.935-1.385-8.47-1.984-9.341V12H6.031v4H2v5h2v-3h1.328  c-0.584,1.425-1.209,3.904-1.285,8H2.031v6H30V6C30,2.691,27.309,0,24,0z M8.031,14H18v2H8.031V14z M7.542,18H18.48  c0.432,0.751,1.394,2.973,1.509,8H6.039C6.136,20.94,7.119,18.724,7.542,18z M28,30H4v-2h20V6H4V2h20c2.206,0,4,1.794,4,4V30z" style="fill:#010002;;"/>
</svg>
