<?xml version="1.0" encoding="utf-8"?>
<!-- Generator: Adobe Illustrator 17.0.0, SVG Export Plug-In . SVG Version: 6.00 Build 0)  -->
<svg xmlns="http://www.w3.org/2000/svg" xmlns:xlink="http://www.w3.org/1999/xlink" version="1.1" id="Capa_1" x="0px" y="0px" width="32px" height="32px" viewBox="0 0 32 32" style="enable-background:new 0 0 32 32;" xml:space="preserve">

<path class="st0" d="M22,16V2h2V0H0v2h2v14H0v2h2v14h2V22h16v10h12V16H22z M28,20v-2h2v4h-8v-4h2v2H28z M4,2h16v14h-6v-2h5V4H5v10h5  v2H4V2z M7,12V6h10v6H7z M4,20v-2h16v2H4z M22,30v-6h2v2h4v-2h2v6H22z" style="fill:#010002;;"/>
</svg>
