<?xml version="1.0" encoding="utf-8"?>
<!-- Generator: Adobe Illustrator 17.0.0, SVG Export Plug-In . SVG Version: 6.00 Build 0)  -->
<svg xmlns="http://www.w3.org/2000/svg" xmlns:xlink="http://www.w3.org/1999/xlink" version="1.1" id="Capa_1" x="0px" y="0px" width="32px" height="32px" viewBox="0 0 32 32" style="enable-background:new 0 0 32 32;" xml:space="preserve">

<path class="st0" d="M30,15.008C30,13.349,28.654,12,27,12c-0.352,0-0.686,0.072-1,0.185v-1.154C26,9.36,24.654,8,23,8H7  c-1.654,0-3,1.36-3,3.031v1.154C3.686,12.072,3.352,12,3,12c-1.654,0-3,1.349-3,3.008V22h2v2h2v-2h22v2h2v-2h2V15.008z M24,11.031  V16h-8v-6h7C23.542,10,24,10.472,24,11.031z M6,11.031C6,10.472,6.458,10,7,10h7v6H6V11.031z M4,20H2v-4.992C2,14.452,2.449,14,3,14  s1,0.452,1,1.008V20z M24,20H6v-2h18V20z M28,20h-2v-4.992C26,14.452,26.448,14,27,14s1,0.452,1,1.008V20z" style="fill:#010002;;"/>
</svg>
