<?xml version="1.0" encoding="utf-8"?>
<!-- Generator: Adobe Illustrator 17.0.0, SVG Export Plug-In . SVG Version: 6.00 Build 0)  -->
<svg xmlns="http://www.w3.org/2000/svg" xmlns:xlink="http://www.w3.org/1999/xlink" version="1.1" id="Capa_1" x="0px" y="0px" width="32px" height="32px" viewBox="0 0 32 32" style="enable-background:new 0 0 32 32;" xml:space="preserve">

<path class="st0" d="M32,6V4H4v2h2v6H0v2h2v11c0,1.654,1.346,3,3,3h20c1.654,0,3-1.346,3-3V14h2v-2h-6V6H32z M25,26H5  c-0.551,0-1-0.448-1-1v-6.886c0.573,0.143,0.979,0.407,1.445,0.718C6.226,19.353,7.197,20,9,20s2.774-0.647,3.555-1.168  C13.252,18.367,13.803,18,15,18s1.748,0.367,2.445,0.832C18.226,19.353,19.197,20,21,20s2.774-0.647,3.555-1.168  c0.467-0.311,0.872-0.576,1.445-0.718V25C26,25.552,25.552,26,25,26z M26,14v2.08c-1.185,0.185-1.934,0.674-2.555,1.088  C22.748,17.633,22.197,18,21,18s-1.748-0.367-2.445-0.832C17.774,16.647,16.803,16,15,16s-2.774,0.647-3.555,1.168  C10.748,17.633,10.197,18,9,18s-1.748-0.367-2.445-0.832C5.934,16.754,5.185,16.265,4,16.08V14H26z M20,12v-2h-2v2h-2v-2h-2v2h-2v-2  h-2v2H8v-2h2V8H8V6h2v2h2V6h2v2h2V6h2v2h2V6h2v2h-2v2h2v2H20z M18,8v2h-2V8H18z M14,8v2h-2V8H14z" style="fill:#010002;;"/>
</svg>
