<?xml version="1.0" encoding="utf-8"?>
<!-- Generator: Adobe Illustrator 17.0.0, SVG Export Plug-In . SVG Version: 6.00 Build 0)  -->
<svg xmlns="http://www.w3.org/2000/svg" xmlns:xlink="http://www.w3.org/1999/xlink" version="1.1" id="Capa_1" x="0px" y="0px" width="32px" height="32px" viewBox="0 0 32 32" style="enable-background:new 0 0 32 32;" xml:space="preserve">

<path class="st0" d="M4,0v26c0,2.206,1.794,4,4,4v2h2v-2h12v2h2v-2c2.206,0,4-1.794,4-4V0H4z M26,26c0,1.103-0.897,2-2,2H8  c-1.103,0-2-0.897-2-2V2h20V26z M24,6H8V4h16V6z M24,10H8V8h16V10z M24,14H8v-2h16V14z M16.823,21.432  C17.359,22.209,18,23.285,18,24c0,1.103-0.897,2-2,2c-1.103,0-2-0.897-2-2c0-0.715,0.64-1.791,1.177-2.568L16,20.241L16.823,21.432z  " style="fill:#010002;;"/>
</svg>
