<?xml version="1.0" encoding="utf-8"?>
<!-- Generator: Adobe Illustrator 17.0.0, SVG Export Plug-In . SVG Version: 6.00 Build 0)  -->
<svg xmlns="http://www.w3.org/2000/svg" xmlns:xlink="http://www.w3.org/1999/xlink" version="1.1" id="Capa_1" x="0px" y="0px" width="32px" height="32px" viewBox="0 0 32 32" style="enable-background:new 0 0 32 32;" xml:space="preserve">

<path class="st0" d="M29,8h-3.504l-1.943-2.561C23.008,4.55,22.036,4,21,4h-6c-1.036,0-2.007,0.55-2.552,1.439L10.503,8H8V6H4v2H3  c-1.654,0-3,1.346-3,3v14c0,1.654,1.346,3,3,3h26c1.654,0,3-1.346,3-3V11C32,9.346,30.654,8,29,8z M2,25V11c0-0.551,0.449-1,1-1h3  v16H3C2.449,26,2,25.552,2,25z M30,25c0,0.552-0.448,1-1,1H8V10h3.497l2.577-3.396l0.068-0.101C14.325,6.188,14.646,6,15,6h6  c0.354,0,0.675,0.188,0.858,0.503L24.504,10H29c0.552,0,1,0.449,1,1V25z M18,12.917c-2.251,0-4.083,1.832-4.083,4.083  c0,2.251,1.832,4.083,4.083,4.083c2.251,0,4.083-1.832,4.083-4.083C22.083,14.749,20.251,12.917,18,12.917z M18,19.083  c-1.149,0-2.083-0.935-2.083-2.083c0-1.149,0.935-2.083,2.083-2.083c1.148,0,2.083,0.935,2.083,2.083  C20.083,18.148,19.148,19.083,18,19.083z M18,8.875c-4.48,0-8.125,3.645-8.125,8.125c0,4.48,3.645,8.125,8.125,8.125  c4.48,0,8.125-3.645,8.125-8.125C26.125,12.52,22.48,8.875,18,8.875z M18,23.125c-3.377,0-6.125-2.748-6.125-6.125  c0-3.377,2.748-6.125,6.125-6.125c3.377,0,6.125,2.748,6.125,6.125C24.125,20.377,21.377,23.125,18,23.125z M26,22h2v2h-2V22z" style="fill:#010002;;"/>
</svg>
