<?xml version="1.0" encoding="utf-8"?>
<!-- Generator: Adobe Illustrator 17.0.0, SVG Export Plug-In . SVG Version: 6.00 Build 0)  -->
<svg xmlns="http://www.w3.org/2000/svg" xmlns:xlink="http://www.w3.org/1999/xlink" version="1.1" id="Capa_1" x="0px" y="0px" width="32px" height="32px" viewBox="0 0 32 32" style="enable-background:new 0 0 32 32;" xml:space="preserve">

<path class="st0" d="M12,14v-2h8v2H12z M20,4h-8v2h8V4z M12,24h8v-2h-8V24z M28,3v26v1v2h-2v-2H6v2H4v-2v-1V3c0-1.654,1.346-3,3-3  h18C26.654,0,28,1.346,28,3z M26,10H6v8h20V10z M6,3v5h20V3c0-0.551-0.448-1-1-1H7C6.449,2,6,2.449,6,3z M6,28h20v-8H6V28z" style="fill:#010002;;"/>
</svg>
