<?xml version="1.0" encoding="utf-8"?>
<!-- Generator: Adobe Illustrator 17.0.0, SVG Export Plug-In . SVG Version: 6.00 Build 0)  -->
<svg xmlns="http://www.w3.org/2000/svg" xmlns:xlink="http://www.w3.org/1999/xlink" version="1.1" id="Capa_1" x="0px" y="0px" width="32px" height="32px" viewBox="0 0 32 32" style="enable-background:new 0 0 32 32;" xml:space="preserve">

<path class="st0" d="M24,6h-4V4h4V6z M18,4h-2v2h2V4z M28,0v32H4V0H28z M6,2v6h20V2H6z M26,30V10H6v20H26z M24,20  c0,4.411-3.589,8-8,8s-8-3.589-8-8s3.589-8,8-8S24,15.589,24,20z M21.91,21H20v-2h1.91c-0.478-2.833-2.942-5-5.91-5  c-3.309,0-6,2.691-6,6s2.691,6,6,6C18.967,26,21.431,23.833,21.91,21z" style="fill:#010002;;"/>
</svg>
