<?xml version="1.0" encoding="utf-8"?>
<!-- Generator: Adobe Illustrator 17.0.0, SVG Export Plug-In . SVG Version: 6.00 Build 0)  -->
<svg xmlns="http://www.w3.org/2000/svg" xmlns:xlink="http://www.w3.org/1999/xlink" version="1.1" id="Capa_1" x="0px" y="0px" width="32px" height="32px" viewBox="0 0 32 32" style="enable-background:new 0 0 32 32;" xml:space="preserve">

<path class="st0" d="M31.974,23.451c-0.242-2.601-2.525-4.273-3.479-4.861l-8.565-5.508c-0.698-0.385-1.5-0.556-2.3-0.479  c-0.306,0.029-0.6,0.1-0.885,0.194L7.189,3.204C6.182,2.246,3.563,1.016,0.866,3.227L0.013,3.925l14.429,14.462  c0.111,0.218,0.235,0.43,0.386,0.624l6.633,8.907c1.146,1.329,2.801,2.091,4.537,2.091c0.001,0,0.001,0,0.001,0  c0.185,0,0.371-0.008,0.559-0.025C29.852,29.675,32.281,26.745,31.974,23.451z M5.792,4.634l9.245,9.284  c-0.036,0.041-0.08,0.072-0.115,0.114c-0.322,0.388-0.556,0.827-0.711,1.291L3.1,4.188C4.581,3.594,5.671,4.525,5.792,4.634z   M29.078,26.562c-0.682,0.823-1.643,1.331-2.706,1.43c-1.309,0.121-2.554-0.402-3.353-1.323l-6.598-8.865  c-0.235-0.305-0.378-0.661-0.413-1.031c-0.049-0.532,0.111-1.051,0.452-1.462c0.341-0.412,0.821-0.665,1.354-0.715  c0.063-0.006,0.126-0.009,0.188-0.009c0.334,0,0.666,0.086,0.902,0.213l8.523,5.483c0.558,0.344,2.391,1.602,2.553,3.354  C30.081,24.7,29.761,25.739,29.078,26.562z M27.988,23.821c0.051,0.535-0.108,1.053-0.447,1.461  c-0.347,0.418-0.815,0.666-1.358,0.717c-0.06,0.006-0.119,0.009-0.179,0.009c-0.539,0-1.083-0.231-1.435-0.605l-4.912-6.593  c-0.065-0.085-0.11-0.187-0.11-0.302c0-0.28,0.227-0.508,0.508-0.508c0.104,0,0.196,0.039,0.277,0.093l6.054,3.895l0.061,0.034  C27.276,22.542,27.941,23.3,27.988,23.821z" style="fill:#010002;;"/>
</svg>
