<?xml version="1.0" encoding="utf-8"?>
<!-- Generator: Adobe Illustrator 17.0.0, SVG Export Plug-In . SVG Version: 6.00 Build 0)  -->
<svg xmlns="http://www.w3.org/2000/svg" xmlns:xlink="http://www.w3.org/1999/xlink" version="1.1" id="Capa_1" x="0px" y="0px" width="32px" height="32px" viewBox="0 0 32 32" style="enable-background:new 0 0 32 32;" xml:space="preserve">

<path class="st0" d="M23.737,6C22.845,2.555,19.719,0,16,0c-4.411,0-8,3.589-8,8v24h16V8h2V6H23.737z M10,30v-2h12v2H10z M22,26H10  V8c0-3.309,2.691-6,6-6c2.607,0,4.824,1.673,5.65,4H12v2h2h8V26z M14,8c1.103,0,2,0.897,2,2s-0.897,2-2,2s-2-0.897-2-2  S12.897,8,14,8z M12,18h8v2h-8V18z" style="fill:#010002;;"/>
</svg>
