<?xml version="1.0" encoding="utf-8"?>
<!-- Generator: Adobe Illustrator 17.0.0, SVG Export Plug-In . SVG Version: 6.00 Build 0)  -->
<svg xmlns="http://www.w3.org/2000/svg" xmlns:xlink="http://www.w3.org/1999/xlink" version="1.1" id="Capa_1" x="0px" y="0px" width="32px" height="32px" viewBox="0 0 32 32" style="enable-background:new 0 0 32 32;" xml:space="preserve">

<path class="st0" d="M31.988,27.649L28.349,3.65C28.081,1.569,26.297,0,24.199,0H10v2H8v2H0v6h8v2h2v18H8v2h20  c1.164,0,2.28-0.51,3.063-1.399C31.797,29.766,32.127,28.726,31.988,27.649z M12,6h6.586l1,1l-1,1H12V6z M2,6h2v2H2V6z M6,8V6h2v2H6  z M12,14h8v12h-8V14z M29.562,29.279C29.164,29.73,28.58,30,28,30H12v-2h7.958C21.084,28,22,27.084,22,25.958V14.042  C22,12.916,21.084,12,19.958,12H12v-2h7.414l3-3l-3-3H12V2h12.199c1.095,0,2.025,0.819,2.169,1.928l3.64,23.999  C30.069,28.402,29.91,28.883,29.562,29.279z" style="fill:#010002;;"/>
</svg>
