<?xml version="1.0" encoding="utf-8"?>
<!-- Generator: Adobe Illustrator 21.0.0, SVG Export Plug-In . SVG Version: 6.00 Build 0)  -->
<svg xmlns="http://www.w3.org/2000/svg" xmlns:xlink="http://www.w3.org/1999/xlink" version="1.1" x="0px" y="0px" viewBox="0 0 32 32" style="enable-background:new 0 0 32 32;" xml:space="preserve">
<g id="Capa_1">
	<path style="fill:none;stroke:#0B050C;stroke-width:2;stroke-miterlimit:10;" d="M17.1,15.8C16,17,16.1,18.8,17.3,20l8.7,8.8   c1,1,2.7,1,3.8,0l0.5-0.5c1-1,1-2.7,0-3.8l-8.8-8.9C20.2,14.4,18.2,14.5,17.1,15.8z"/>
	<polyline style="fill:none;stroke:#0B050C;stroke-width:2;stroke-linejoin:round;stroke-miterlimit:10;" points="17.9,14.9 5,2    3.6,3.4 16.5,16.3  "/>
	<line style="fill:none;stroke:#0B050C;stroke-width:2;stroke-miterlimit:10;" x1="1.8" y1="3.8" x2="7.4" y2="9.5"/>
	<line style="fill:none;stroke:#0B050C;stroke-width:2;stroke-miterlimit:10;" x1="3.6" y1="7.7" x2="5" y2="9.1"/>
	<line style="fill:none;stroke:#0B050C;stroke-width:2;stroke-miterlimit:10;" x1="5.7" y1="8.4" x2="7.1" y2="9.8"/>
	<line style="fill:none;stroke:#0B050C;stroke-width:2;stroke-miterlimit:10;" x1="0.8" y1="6.2" x2="3.6" y2="3.4"/>
	<line style="fill:none;stroke:#0B050C;stroke-width:2;stroke-miterlimit:10;" x1="2.9" y1="5.5" x2="4.3" y2="6.9"/>
</g>
<g id="lineas_guia">
</g>
</svg>
