<?xml version="1.0" encoding="utf-8"?>
<!-- Generator: Adobe Illustrator 17.0.0, SVG Export Plug-In . SVG Version: 6.00 Build 0)  -->
<svg xmlns="http://www.w3.org/2000/svg" xmlns:xlink="http://www.w3.org/1999/xlink" version="1.1" id="Capa_1" x="0px" y="0px" width="32px" height="32px" viewBox="0 0 32 32" style="enable-background:new 0 0 32 32;" xml:space="preserve">

<path class="st0" d="M30,16v-3c0-0.552-0.447-1-1-1s-1,0.448-1,1v3h-2v-3c0-0.552-0.447-1-1-1s-1,0.448-1,1v3h-2v3  c0,2.414,1.721,4.434,4,4.899V26c0,1.103-0.897,2-2,2h-4V3.5c0-1.758-1.308-3.204-3-3.449V0H4.063C1.822,0,0,1.822,0,4.063V32h15v-2  h9c2.206,0,4-1.794,4-4v-2.101c2.279-0.465,4-2.484,4-4.899v-3H30z M2,30V4.063C2,2.925,2.925,2,4.063,2h9.289  C13.133,2.456,13,2.961,13,3.5V30H2z M18,28h-3V3.5C15,2.673,15.673,2,16.5,2S18,2.673,18,3.5V28z M30,19c0,1.654-1.346,3-3,3  s-3-1.346-3-3v-1h6V19z" style="fill:#010002;;"/>
</svg>
