<?xml version="1.0" encoding="utf-8"?>
<!-- Generator: Adobe Illustrator 17.0.0, SVG Export Plug-In . SVG Version: 6.00 Build 0)  -->
<svg xmlns="http://www.w3.org/2000/svg" xmlns:xlink="http://www.w3.org/1999/xlink" version="1.1" id="Capa_1" x="0px" y="0px" width="32px" height="32px" viewBox="0 0 32 32" style="enable-background:new 0 0 32 32;" xml:space="preserve">

<path class="st0" d="M31.121,25.465L20.242,14.586c-0.755-0.755-1.76-1.172-2.828-1.172c-0.35,0-0.69,0.061-1.022,0.15l-8.54-8.541  C7.939,4.692,8,4.352,8,4c0-1.068-0.416-2.073-1.172-2.828c-1.511-1.512-4.146-1.512-5.656,0C0.416,1.927,0,2.932,0,4  s0.416,2.073,1.172,2.828C1.927,7.584,2.932,8,4,8c0.352,0,0.692-0.061,1.023-0.148l8.554,8.554  c-0.334,1.355,0.04,2.869,1.129,3.957l10.758,10.759C26.03,31.688,26.784,32,27.586,32c0.801,0,1.555-0.313,2.121-0.879l1.414-1.414  C31.688,29.141,32,28.387,32,27.586C32,26.784,31.688,26.03,31.121,25.465z M2.586,5.414C2.208,5.036,2,4.534,2,4  s0.208-1.036,0.586-1.414S3.466,2,4,2s1.036,0.208,1.414,0.586S6,3.466,6,4S5.792,5.036,5.414,5.414  C4.658,6.17,3.342,6.17,2.586,5.414z M29.707,28.293l-1.414,1.414c-0.379,0.378-1.035,0.38-1.414,0L16.12,18.948  c-0.806-0.807-0.894-2.093-0.195-2.869c0.386-0.429,0.915-0.665,1.489-0.665c0.534,0,1.036,0.208,1.414,0.586l10.879,10.88  C29.896,27.068,30,27.318,30,27.586C30,27.853,29.896,28.104,29.707,28.293z" style="fill:#010002;;"/>
</svg>
