<?xml version="1.0" encoding="utf-8"?>
<!-- Generator: Adobe Illustrator 17.0.0, SVG Export Plug-In . SVG Version: 6.00 Build 0)  -->
<svg xmlns="http://www.w3.org/2000/svg" xmlns:xlink="http://www.w3.org/1999/xlink" version="1.1" id="Capa_1" x="0px" y="0px" width="32px" height="32px" viewBox="0 0 32 32" style="enable-background:new 0 0 32 32;" xml:space="preserve">

<path class="st0" d="M21,4h-7.101C13.434,1.721,11.414,0,9,0H4v2H1C0.448,2,0,2.448,0,3s0.448,1,1,1h3v2H1C0.448,6,0,6.448,0,7  s0.448,1,1,1h3v2h5c2.414,0,4.434-1.721,4.899-4H21c2.991,0,5.638,1.472,7.276,3.724C26.791,8.645,24.972,8,23,8  c-4.963,0-9,4.038-9,9c0,4.625,3.507,8.442,8,8.941C21.671,25.978,21.338,26,21,26H10v-4H0v10h10v-4h11c6.065,0,11-4.935,11-11v-2  C32,8.935,27.065,4,21,4z M9,8H6V2h3c1.654,0,3,1.346,3,3S10.654,8,9,8z M8,30H2v-6h6V30z M29.964,17.715  C29.605,21.24,26.618,24,23,24c-3.859,0-7-3.141-7-7c0-3.86,3.141-7,7-7s7,3.14,7,7C30,17.241,29.983,17.478,29.964,17.715z" style="fill:#010002;;"/>
</svg>
