<?xml version="1.0" encoding="utf-8"?>
<!-- Generator: Adobe Illustrator 17.0.0, SVG Export Plug-In . SVG Version: 6.00 Build 0)  -->
<svg xmlns="http://www.w3.org/2000/svg" xmlns:xlink="http://www.w3.org/1999/xlink" version="1.1" id="Capa_1" x="0px" y="0px" width="32px" height="32px" viewBox="0 0 32 32" style="enable-background:new 0 0 32 32;" xml:space="preserve">

<path class="st0" d="M28,13c0-7.168-5.832-13-13-13C7.832,0,2,5.832,2,13c0,6.134,4.276,11.277,10,12.637V30H8v2h14v-2h-4v-4.363  C23.724,24.277,28,19.134,28,13z M4,13C4,6.935,8.935,2,15,2s11,4.935,11,11s-4.935,11-11,11S4,19.065,4,13z M16,30h-2v-4.051  C14.331,25.975,14.662,26,15,26s0.669-0.025,1-0.051V30z M20,19c0-1.801-1.089-3.248-2.25-4.287  c0.075-0.121,0.145-0.245,0.204-0.376c0.715,0.213,1.491,0.37,2.282,0.37c0.904,0,1.818-0.196,2.649-0.719  c1.707-1.077,1.665-2.983-0.127-5.829c-1.134-1.8-2.206-2.793-3.278-3.035c-0.953-0.214-1.617,0.206-1.925,0.402  c-1.536,0.967-2.181,2.675-2.438,4.236C15.078,9.76,15.04,9.75,15,9.75c-0.011,0-0.021,0.003-0.032,0.003  c-0.258-1.554-0.906-3.263-2.461-4.242c-0.284-0.18-0.947-0.603-1.9-0.387C9.534,5.366,8.462,6.359,7.329,8.159  c-1.792,2.847-1.833,4.753-0.125,5.83c0.83,0.522,1.744,0.718,2.648,0.718c0.765,0,1.515-0.146,2.207-0.346  c0.057,0.122,0.121,0.24,0.192,0.353C11.089,15.753,10,17.205,10,19.03c-0.001,0.335-0.003,1.122,0.686,1.813  C11.462,21.622,12.873,22,15,22C18.364,22,20,21.019,20,19z M13.75,13c0-0.689,0.561-1.25,1.25-1.25  c0.684,0,1.238,0.552,1.247,1.234l-0.004,0.054C16.221,13.709,15.676,14.25,15,14.25C14.311,14.25,13.75,13.689,13.75,13z   M18.651,7.2c0.198-0.125,0.264-0.154,0.389-0.124c0.184,0.042,0.873,0.319,2.026,2.149c1.061,1.685,1.313,2.718,0.753,3.072  c-1.083,0.679-2.59,0.377-3.646,0.016c-0.159-0.736-0.575-1.37-1.141-1.828C17.165,9.385,17.546,7.896,18.651,7.2z M8.269,12.296  c-0.562-0.354-0.309-1.387,0.752-3.072c1.152-1.83,1.842-2.107,2.025-2.149c0.125-0.027,0.192,0,0.419,0.143  c1.061,0.668,1.444,2.117,1.581,3.201c-0.617,0.468-1.07,1.142-1.231,1.927C10.782,12.686,9.321,12.961,8.269,12.296z M12,19  c0-1.223,0.978-2.297,1.799-2.986c0.372,0.149,0.776,0.236,1.201,0.236s0.829-0.087,1.201-0.236C17.022,16.703,18,17.777,18,19  c0,0.663-1.009,1-3,1c-2.163,0-2.765-0.436-2.898-0.568C12.011,19.34,12,19.269,12,19z" style="fill:#010002;;"/>
</svg>
