<?xml version="1.0" encoding="utf-8"?>
<!-- Generator: Adobe Illustrator 17.0.0, SVG Export Plug-In . SVG Version: 6.00 Build 0)  -->
<svg xmlns="http://www.w3.org/2000/svg" xmlns:xlink="http://www.w3.org/1999/xlink" version="1.1" id="Capa_1" x="0px" y="0px" width="32px" height="32px" viewBox="0 0 32 32" style="enable-background:new 0 0 32 32;" xml:space="preserve">
<path d="M29,6h-1V0H12v6H3C1.346,6,0,7.346,0,9v14c0,1.654,1.346,3,3,3h9v6h16v-6h1c1.654,0,3-1.346,3-3V9C32,7.346,30.654,6,29,6z   M14,2h12v4H14V2z M2,23V9c0-0.551,0.449-1,1-1h5v4H6v8h2v4H3C2.449,24,2,23.552,2,23z M26,30H14v-6h12V30z M30,23  c0,0.552-0.448,1-1,1h-1v-2H12v2h-2V8h19c0.552,0,1,0.449,1,1V23z M12,10h16v2H12V10z M12,14h4v2h-4V14z M18,14h4v2h-4V14z M24,14h4  v2h-4V14z M12,18h4v2h-4V18z M18,18h4v2h-4V18z M24,18h4v2h-4V18z"/>
</svg>
