<?xml version="1.0" encoding="utf-8"?>
<!-- Generator: Adobe Illustrator 17.0.0, SVG Export Plug-In . SVG Version: 6.00 Build 0)  -->
<svg xmlns="http://www.w3.org/2000/svg" xmlns:xlink="http://www.w3.org/1999/xlink" version="1.1" id="Capa_1" x="0px" y="0px" width="32px" height="32px" viewBox="0 0 32 32" style="enable-background:new 0 0 32 32;" xml:space="preserve">

<path class="st0" d="M18,18h4v2h-4V18z M29.958,10h-5.193L26,15v9h-4v2h4v6H2v-6h4v-2H2l0.029-9.238L4.178,6H20V2h-4V0h10v2h-4v4  h1.776l0.494,2h5.688V10z M5.746,8l-1.471,6h19.444l-1.503-6H18v4h-2V8h-2v4h-2V8h-2v4H8V8H5.746z M4,28v2h20v-2H4z M20,24H8v2h12  V24z M24,22v-6H4v6H24z" style="fill:#010002;;"/>
</svg>
