<?xml version="1.0" encoding="utf-8"?>
<!-- Generator: Adobe Illustrator 17.0.0, SVG Export Plug-In . SVG Version: 6.00 Build 0)  -->
<svg xmlns="http://www.w3.org/2000/svg" xmlns:xlink="http://www.w3.org/1999/xlink" version="1.1" id="Capa_1" x="0px" y="0px" width="32px" height="32px" viewBox="0 0 32 32" style="enable-background:new 0 0 32 32;" xml:space="preserve">

<path class="st0" d="M14,18h2v4h-2V18z M24,0v4v1c0,3.113-1.59,5.862-4,7.478V32H10V12.478C7.59,10.861,6,8.113,6,5V4V0H24z   M18,13.475C17.06,13.809,16.053,14,15,14c-1.053,0-2.06-0.191-3-0.525V30h6V13.475z M21.929,6H8.071c0.487,3.388,3.408,6,6.929,6  S21.442,9.388,21.929,6z M22,4V2H8v2H22z" style="fill:#010002;;"/>
</svg>
