<?xml version="1.0" encoding="utf-8"?>
<!-- Generator: Adobe Illustrator 17.0.0, SVG Export Plug-In . SVG Version: 6.00 Build 0)  -->
<svg xmlns="http://www.w3.org/2000/svg" xmlns:xlink="http://www.w3.org/1999/xlink" version="1.1" id="Capa_1" x="0px" y="0px" width="32px" height="32px" viewBox="0 0 32 32" style="enable-background:new 0 0 32 32;" xml:space="preserve">

<path class="st0" d="M32,2V0h-7v2h2.036L16.854,16H8v3H4.279l-2.036,6.109C0.956,25.446,0,26.609,0,28v3v1h2v-1h2v1h2v-1h2v1h2v-1h2  v1h2v-0.556C14.591,31.788,15.268,32,16,32c2.206,0,4-1.794,4-4c0-1.859-1.279-3.411-3-3.858V21h3v-5h-0.673L29.509,2H32z   M10.279,21l1.333,4H4.387l0.333-1H7v-2H5.387l0.333-1H10.279z M2,29v-1c0-0.552,0.449-1,1-1h9v2H2z M18,28c0,1.103-0.897,2-2,2  c-1.103,0-2-0.897-2-2c0-0.366,0.106-0.705,0.278-1h0.109l-0.041-0.123C14.707,26.348,15.313,26,16,26C17.103,26,18,26.897,18,28z   M18,19h-3v5.142c-0.495,0.129-0.951,0.345-1.352,0.639L11.721,19H10v-1h8V19z" style="fill:#010002;;"/>
</svg>
