<?xml version="1.0" encoding="utf-8"?>
<!-- Generator: Adobe Illustrator 17.0.0, SVG Export Plug-In . SVG Version: 6.00 Build 0)  -->
<svg xmlns="http://www.w3.org/2000/svg" xmlns:xlink="http://www.w3.org/1999/xlink" version="1.1" id="Capa_1" x="0px" y="0px" width="32px" height="32px" viewBox="0 0 32 32" style="enable-background:new 0 0 32 32;" xml:space="preserve">

<path class="st0" d="M27.618,30l-4.993-9.986c2.93-1.934,4.965-5.122,5.318-8.879l0.103-1.094H22.19l3.282-3.692l0.748,0.665  l3.275-3.686l-2.99-2.657l-3.275,3.686l0.747,0.664l-4.463,5.02h-7.028L8.024,5.021l0.747-0.664L5.495,0.671L2.505,3.329  l3.276,3.686L6.528,6.35l3.281,3.692H3.955l0.103,1.094c0.353,3.757,2.387,6.945,5.318,8.879L4.382,30H0v2h32v-2H27.618z   M6.211,12.042h19.578C24.846,16.648,20.814,20,16,20C11.185,20,7.154,16.648,6.211,12.042z M12,30v-2h8v2H12z M20,24v2h-2v-2h-4v2  h-2v-2h-2v6H6.618l4.515-9.03C12.623,21.627,14.266,22,16,22c1.734,0,3.377-0.373,4.867-1.03L25.382,30H22v-6H20z M20,22v2h-2v-2H20  z M14,22v2h-2v-2H14z" style="fill:#010002;;"/>
</svg>
