<?xml version="1.0" encoding="utf-8"?>
<!-- Generator: Adobe Illustrator 17.0.0, SVG Export Plug-In . SVG Version: 6.00 Build 0)  -->
<svg xmlns="http://www.w3.org/2000/svg" xmlns:xlink="http://www.w3.org/1999/xlink" version="1.1" id="Capa_1" x="0px" y="0px" width="32px" height="32px" viewBox="0 0 32 32" style="enable-background:new 0 0 32 32;" xml:space="preserve">

<path class="st0" d="M25,16h-1V4h-4V0H10v4H6v12H5c-0.552,0-1,0.448-1,1v12c0,0.553,0.448,1,1,1h1v2h2v-2h14v2h2v-2h1  c0.553,0,1-0.447,1-1V17C26,16.448,25.553,16,25,16z M12,2h6v2h-6V2z M14,6h2v2h-2V6z M8,6h2h2v4h6V6h2h2v10H8V6z M24,28H6V18h18V28  z M15,26c1.654,0,3-1.346,3-3s-1.346-3-3-3s-3,1.346-3,3S13.346,26,15,26z M15,22c0.551,0,1,0.448,1,1s-0.449,1-1,1s-1-0.448-1-1  S14.449,22,15,22z M14,12h2v2h-2V12z M10,12h2v2h-2V12z M18,12h2v2h-2V12z" style="fill:#010002;;"/>
</svg>
