<?xml version="1.0" encoding="utf-8"?>
<!-- Generator: Adobe Illustrator 17.0.0, SVG Export Plug-In . SVG Version: 6.00 Build 0)  -->
<svg xmlns="http://www.w3.org/2000/svg" xmlns:xlink="http://www.w3.org/1999/xlink" version="1.1" id="Capa_1" x="0px" y="0px" width="32px" height="32px" viewBox="0 0 32 32" style="enable-background:new 0 0 32 32;" xml:space="preserve">

<path class="st0" d="M4,26h24V10H4V26z M6,12h20v12H6V12z M31,8.066c-0.588,0-1.065-0.478-1.065-1.066V6H20.48l-3.785-3.785  c-0.391-0.391-1.023-0.391-1.414,0L11.496,6h-9.43v1c0,0.588-0.478,1.066-1.066,1.066H0v19.869h1c0.588,0,1.066,0.478,1.066,1.065v1  h27.869v-1c0-0.588,0.478-1.065,1.065-1.065h1V8.066H31z M15.988,4.336L17.652,6h-3.328L15.988,4.336z M30,26.102  c-0.888,0.308-1.591,1.011-1.898,1.898H3.898C3.591,27.112,2.888,26.409,2,26.102V9.898C2.888,9.591,3.591,8.888,3.898,8h24.203  C28.409,8.888,29.112,9.591,30,9.898V26.102z" style="fill:#010002;;"/>
</svg>
