<?xml version="1.0" encoding="utf-8"?>
<!-- Generator: Adobe Illustrator 17.0.0, SVG Export Plug-In . SVG Version: 6.00 Build 0)  -->
<svg xmlns="http://www.w3.org/2000/svg" xmlns:xlink="http://www.w3.org/1999/xlink" version="1.1" id="Capa_1" x="0px" y="0px" width="32px" height="32px" viewBox="0 0 32 32" style="enable-background:new 0 0 32 32;" xml:space="preserve">

<path class="st0" d="M32,4H0v2h2v19c0,0.553,0.448,1,1,1h1v2h2v-2h20v2h2v-2h1c0.553,0,1-0.447,1-1V6h2V4z M28,24H4v-2h24V24z M8,16  h16v4H8V16z M24,14H8v-4h16V14z M28,20h-2V8H6v12H4V6h24V20z" style="fill:#010002;;"/>
</svg>
