<?xml version="1.0" encoding="utf-8"?>
<!-- Generator: Adobe Illustrator 17.0.0, SVG Export Plug-In . SVG Version: 6.00 Build 0)  -->
<svg xmlns="http://www.w3.org/2000/svg" xmlns:xlink="http://www.w3.org/1999/xlink" version="1.1" id="Capa_1" x="0px" y="0px" width="32px" height="32px" viewBox="0 0 32 32" style="enable-background:new 0 0 32 32;" xml:space="preserve">

<path class="st0" d="M6,7c0-0.552,0.448-1,1-1h18c0.553,0,1,0.448,1,1s-0.447,1-1,1H7C6.448,8,6,7.552,6,7z M32,28h-4v2h-2v-2H6v2H4  v-2H0V2h32V28z M2,4v6h28V4H2z M30,26V12H2v14H30z M4,24h2v-2H4V24z M8,24h2v-2H8V24z" style="fill:#010002;;"/>
</svg>
