<?xml version="1.0" encoding="utf-8"?>
<!-- Generator: Adobe Illustrator 17.0.0, SVG Export Plug-In . SVG Version: 6.00 Build 0)  -->
<svg xmlns="http://www.w3.org/2000/svg" xmlns:xlink="http://www.w3.org/1999/xlink" version="1.1" id="Capa_1" x="0px" y="0px" width="32px" height="32px" viewBox="0 0 32 32" style="enable-background:new 0 0 32 32;" xml:space="preserve">

<path class="st0" d="M28,18v-2h-2v2h-2v-2h-2v2h-2v-2h-2v2h-2v-2h-2v2h-2v-2h-2v2H8v-2H6v2H4v-2H2v2H0v10h30V18H28z M18,23  c0,1.654-1.346,3-3,3s-3-1.346-3-3s1.346-3,3-3S18,21.346,18,23z M2,20h9.026C10.391,20.838,10,21.87,10,23s0.391,2.162,1.026,3H2  V20z M28,26h-9.026C19.609,25.162,20,24.13,20,23s-0.391-2.162-1.026-3H28V26z M26,24h-2v-2h2V24z M4,22h2v2H4V22z" style="fill:#010002;;"/>
</svg>
