<?xml version="1.0" encoding="utf-8"?>
<!-- Generator: Adobe Illustrator 17.0.0, SVG Export Plug-In . SVG Version: 6.00 Build 0)  -->
<svg xmlns="http://www.w3.org/2000/svg" xmlns:xlink="http://www.w3.org/1999/xlink" version="1.1" id="Capa_1" x="0px" y="0px" width="32px" height="32px" viewBox="0 0 32 32" style="enable-background:new 0 0 32 32;" xml:space="preserve">

<path class="st0" d="M4,27c0-0.553,0.448-1,1-1h20c0.553,0,1,0.447,1,1s-0.447,1-1,1H5C4.448,28,4,27.553,4,27z M4,20h2V10H4V20z   M8,20h2V10H8V20z M12,20h2V10h-2V20z M16,20h2V10h-2V20z M20,20h2V10h-2V20z M24,20h2V10h-2V20z M30,6v23c0,1.654-1.346,3-3,3H3  c-1.654,0-3-1.346-3-3V6h1h3V3c0-1.654,1.346-3,3-3h16c1.654,0,3,1.346,3,3v3h3H30z M6,6h18V3c0-0.551-0.448-1-1-1H7  C6.449,2,6,2.449,6,3V6z M28,24H2v5c0,0.552,0.449,1,1,1h24c0.552,0,1-0.448,1-1V24z M28,22V8h-2H4H2v14H28z" style="fill:#010002;;"/>
</svg>
