<?xml version="1.0" encoding="utf-8"?>
<!-- Generator: Adobe Illustrator 17.0.0, SVG Export Plug-In . SVG Version: 6.00 Build 0)  -->
<svg xmlns="http://www.w3.org/2000/svg" xmlns:xlink="http://www.w3.org/1999/xlink" version="1.1" id="Capa_1" x="0px" y="0px" width="32px" height="32px" viewBox="0 0 32 32" style="enable-background:new 0 0 32 32;" xml:space="preserve">

<path class="st0" d="M31.819,5.401c0-1.395-0.543-2.706-1.529-3.691c-2.035-2.035-5.348-2.035-7.383,0  c-0.001,0.001-0.002,0.003-0.003,0.004c-0.001,0.001-0.002,0.001-0.003,0.002L5.415,19.515c-0.019,0.02-0.026,0.046-0.043,0.067  C4.527,20.477,4,21.675,4,23c0,1.017,0.309,1.962,0.833,2.753l-4.54,4.54l1.414,1.414l4.54-4.54C7.038,27.691,7.983,28,9,28  c1.451,0,2.748-0.631,3.662-1.622c0.012-0.01,0.027-0.014,0.038-0.025L30.283,9.1c0.001-0.001,0.002-0.003,0.003-0.004  c0.001-0.001,0.003-0.002,0.004-0.003C31.276,8.107,31.819,6.796,31.819,5.401z M13.167,20.247L29.461,3.953  c0.226,0.445,0.359,0.934,0.359,1.448c0,0.86-0.335,1.668-0.943,2.277L13.933,22.341C13.831,21.577,13.575,20.862,13.167,20.247z   M28.045,2.541L11.753,18.833c-0.619-0.411-1.34-0.668-2.11-0.768L24.32,3.125c0,0,0.001,0,0.001,0  C25.328,2.116,26.837,1.931,28.045,2.541z M6,23c0-1.654,1.346-3,3-3s3,1.346,3,3s-1.346,3-3,3S6,24.654,6,23z" style="fill:#010002;;"/>
</svg>
