<?xml version="1.0" encoding="utf-8"?>
<!-- Generator: Adobe Illustrator 17.0.0, SVG Export Plug-In . SVG Version: 6.00 Build 0)  -->
<svg xmlns="http://www.w3.org/2000/svg" xmlns:xlink="http://www.w3.org/1999/xlink" version="1.1" id="Capa_1" x="0px" y="0px" width="32px" height="32px" viewBox="0 0 32 32" style="enable-background:new 0 0 32 32;" xml:space="preserve">

<path class="st0" d="M31.707,30.293l-4.008-4.008C27.887,25.894,28,25.462,28,25c0-1.095-0.847-2.081-1.126-2.325l-7.061-7.074  l1.894-1.894l-1.414-1.414l-1.301,1.301L14.938,2.652c-0.192-0.519-0.768-0.781-1.285-0.59c-0.518,0.192-0.782,0.767-0.59,1.285  l3.236,8.732L5.152,0.914C4.581,0.324,3.816,0,3,0C1.346,0,0,1.346,0,3c0,0.784,0.303,1.526,0.862,2.1l13.322,13.302l-1.891,1.891  l1.414,1.414l1.892-1.892l7.053,7.042C23.228,27.584,24.079,28,25,28c0.462,0,0.894-0.113,1.285-0.301l4.008,4.008L31.707,30.293z   M2.285,3.695C2.101,3.506,2,3.26,2,3c0-0.551,0.449-1,1-1c0.271,0,0.525,0.109,0.727,0.316l13.26,13.283l-1.393,1.393L2.285,3.695z   M24.204,25.594l-7.195-7.189l1.391-1.391l7.104,7.116C25.672,24.279,26,24.766,26,25c0,0.552-0.448,1-1,1  C24.688,26,24.397,25.852,24.204,25.594z" style="fill:#010002;;"/>
</svg>
