<?xml version="1.0" encoding="utf-8"?>
<!-- Generator: Adobe Illustrator 17.0.0, SVG Export Plug-In . SVG Version: 6.00 Build 0)  -->
<svg xmlns="http://www.w3.org/2000/svg" xmlns:xlink="http://www.w3.org/1999/xlink" version="1.1" id="Capa_1" x="0px" y="0px" width="32px" height="32px" viewBox="0 0 32 32" style="enable-background:new 0 0 32 32;" xml:space="preserve">

<path class="st0" d="M24,0H13C5.224,0,0,7.756,0,15c0,0.552,0.448,1,1,1h1v2h2v4H3c-1.654,0-3,1.346-3,3v4c0,1.654,1.346,3,3,3h4  c1.654,0,3-1.346,3-3v-4c0-1.654-1.346-3-3-3H6v-4h2v-2h23c0.553,0,1-0.448,1-1C32,7.969,32,0,24,0z M2,29v-4c0-0.552,0.449-1,1-1h1  v6H3C2.449,30,2,29.552,2,29z M7,24c0.551,0,1,0.448,1,1v4c0,0.552-0.449,1-1,1H6v-6H7z M2.039,14C2.493,8.132,6.867,2,13,2h11  c5.342,0,5.954,4.713,5.997,12H2.039z M23,4h-8c-1.654,0-3,1.346-3,3s1.346,3,3,3h8c1.654,0,3-1.346,3-3S24.654,4,23,4z M23,8h-8  c-0.551,0-1-0.449-1-1s0.449-1,1-1h8c0.552,0,1,0.449,1,1S23.552,8,23,8z" style="fill:#010002;;"/>
</svg>
