<?xml version="1.0" encoding="utf-8"?>
<!-- Generator: Adobe Illustrator 17.0.0, SVG Export Plug-In . SVG Version: 6.00 Build 0)  -->
<svg xmlns="http://www.w3.org/2000/svg" xmlns:xlink="http://www.w3.org/1999/xlink" version="1.1" id="Capa_1" x="0px" y="0px" width="32px" height="32px" viewBox="0 0 32 32" style="enable-background:new 0 0 32 32;" xml:space="preserve">

<path class="st0" d="M6,0v32h18V0H6z M22,2v14h-6v1c0,0.552-0.449,1-1,1s-1-0.448-1-1v-1H8V2H22z M8,30V18h4.171  c0.413,1.164,1.525,2,2.829,2s2.416-0.836,2.829-2H22v12H8z M20,6h-2V4h2V6z M16,6h-2V4h2V6z M12,6h-2V4h2V6z M20,10h-2V8h2V10z   M16,10h-2V8h2V10z M12,10h-2V8h2V10z M20,14h-2v-2h2V14z M16,14h-2v-2h2V14z M12,14h-2v-2h2V14z" style="fill:#010002;;"/>
</svg>
