<?xml version="1.0" encoding="utf-8"?>
<!-- Generator: Adobe Illustrator 17.0.0, SVG Export Plug-In . SVG Version: 6.00 Build 0)  -->
<svg xmlns="http://www.w3.org/2000/svg" xmlns:xlink="http://www.w3.org/1999/xlink" version="1.1" id="Capa_1" x="0px" y="0px" width="32px" height="32px" viewBox="0 0 32 32" style="enable-background:new 0 0 32 32;" xml:space="preserve">

<path class="st0" d="M7,14c1.654,0,3-1.346,3-3S8.654,8,7,8s-3,1.346-3,3S5.346,14,7,14z M7,10c0.551,0,1,0.449,1,1s-0.449,1-1,1  s-1-0.449-1-1S6.449,10,7,10z M7,22c1.654,0,3-1.346,3-3s-1.346-3-3-3s-3,1.346-3,3S5.346,22,7,22z M7,18c0.551,0,1,0.448,1,1  s-0.449,1-1,1s-1-0.448-1-1S6.449,18,7,18z M32,4H0v22h2v2h2v-2h24v2h2v-2h2V4z M30,24H2V6h28V24z M26,21V9c0-0.552,0.447-1,1-1  s1,0.448,1,1v12c0,0.553-0.447,1-1,1S26,21.553,26,21z M22,21V9c0-0.552,0.447-1,1-1s1,0.448,1,1v12c0,0.553-0.447,1-1,1  S22,21.553,22,21z M18,21V9c0-0.552,0.447-1,1-1s1,0.448,1,1v12c0,0.553-0.447,1-1,1S18,21.553,18,21z M14,21V9c0-0.552,0.448-1,1-1  s1,0.448,1,1v12c0,0.553-0.448,1-1,1S14,21.553,14,21z" style="fill:#010002;;"/>
</svg>
