<?xml version="1.0" encoding="utf-8"?>
<!-- Generator: Adobe Illustrator 17.0.0, SVG Export Plug-In . SVG Version: 6.00 Build 0)  -->
<svg xmlns="http://www.w3.org/2000/svg" xmlns:xlink="http://www.w3.org/1999/xlink" version="1.1" id="Capa_1" x="0px" y="0px" width="32px" height="32px" viewBox="0 0 32 32" style="enable-background:new 0 0 32 32;" xml:space="preserve">

<path class="st0" d="M32,2H22v8H11c-0.352,0-0.686,0.072-1,0.184V2H0v24h8v6h16v-6h8V2z M11,12h10c0.538,0.023,1,0.466,1,1v9H10v-9  C10,12.449,10.449,12,11,12z M2,24V4h6v9v9v2H2z M22,30H10v-4v-2h12v2V30z M30,24h-6v-2V4h6V24z M6.25,19  c0,0.69-0.56,1.25-1.25,1.25S3.75,19.69,3.75,19S4.31,17.75,5,17.75S6.25,18.31,6.25,19z M6.25,9c0,0.69-0.56,1.25-1.25,1.25  S3.75,9.69,3.75,9S4.31,7.75,5,7.75S6.25,8.31,6.25,9z M25.75,19c0-0.69,0.56-1.25,1.25-1.25s1.25,0.56,1.25,1.25  s-0.56,1.25-1.25,1.25S25.75,19.69,25.75,19z M25.75,9c0-0.69,0.56-1.25,1.25-1.25S28.25,8.31,28.25,9s-0.56,1.25-1.25,1.25  S25.75,9.69,25.75,9z M18,26h2v2h-2V26z M12,26h4v2h-4V26z M16,20c1.654,0,3-1.346,3-3s-1.346-3-3-3s-3,1.346-3,3S14.346,20,16,20z   M16,16c0.551,0,1,0.449,1,1c0,0.552-0.449,1-1,1s-1-0.448-1-1C15,16.449,15.449,16,16,16z" style="fill:#010002;;"/>
</svg>
