<?xml version="1.0" encoding="utf-8"?>
<!-- Generator: Adobe Illustrator 17.0.0, SVG Export Plug-In . SVG Version: 6.00 Build 0)  -->
<svg xmlns="http://www.w3.org/2000/svg" xmlns:xlink="http://www.w3.org/1999/xlink" version="1.1" id="Capa_1" x="0px" y="0px" width="32px" height="32px" viewBox="0 0 32 32" style="enable-background:new 0 0 32 32;" xml:space="preserve">

<path class="st0" d="M31.984,24c-0.037-1.689-0.163-3.184-0.341-4.479c0.027-0.19-0.005-0.374-0.082-0.545  c-0.629-4.07-1.719-6.069-1.774-6.166C29.151,11.604,28.067,10,26,10H8V8H6v2c-2.079,0-3.052,1.478-3.791,2.845  c-0.064,0.113-1.146,2.082-1.772,6.128c-0.078,0.172-0.109,0.357-0.082,0.548C0.178,20.814,0.053,22.308,0.016,24H0v1v1v3  c0,1.654,1.346,3,3,3h26c1.654,0,3-1.346,3-3v-3v-1v-1H31.984z M3.958,13.814C4.71,12.424,5.188,12,6,12h20  c0.781,0,1.366,0.505,2.029,1.763c0.014,0.025,0.966,1.804,1.541,5.448C29.196,19.697,28.629,20,28,20c-1.103,0-2-0.897-2-2  c0-0.553-0.447-1-1-1s-1,0.447-1,1c0,1.103-0.897,2-2,2s-2-0.897-2-2c0-0.553-0.447-1-1-1s-1,0.447-1,1c0,1.103-0.897,2-2,2  c-1.103,0-2-0.897-2-2c0-0.553-0.448-1-1-1s-1,0.447-1,1c0,1.103-0.897,2-2,2s-2-0.897-2-2c0-0.553-0.448-1-1-1s-1,0.447-1,1  c0,1.103-0.897,2-2,2c-0.63,0-1.198-0.303-1.572-0.791C2.998,15.596,3.939,13.849,3.958,13.814z M2.144,21.536  C2.707,21.831,3.338,22,4,22c1.2,0,2.266-0.542,3-1.382C7.734,21.458,8.8,22,10,22s2.266-0.542,3-1.382C13.734,21.458,14.8,22,16,22  c1.201,0,2.266-0.542,3-1.382C19.734,21.458,20.799,22,22,22s2.266-0.542,3-1.382C25.734,21.458,26.799,22,28,22  c0.662,0,1.292-0.169,1.854-0.464C29.921,22.3,29.968,23.12,29.988,24H2.011C2.031,23.119,2.079,22.299,2.144,21.536z M18,28  c0,1.103-0.897,2-2,2c-1.103,0-2-0.897-2-2s0.897-2,2-2C17.103,26,18,26.897,18,28z M2,29v-3h10.556C12.212,26.591,12,27.268,12,28  s0.212,1.409,0.556,2H3C2.449,30,2,29.552,2,29z M30,29c0,0.552-0.448,1-1,1h-9.556C19.788,29.409,20,28.732,20,28  s-0.212-1.409-0.556-2H30V29z M2,4h2v2H2V4z M6,4h2v2H6V4z M2,2H0V0h2V2z M6,2H4V0h2V2z M10,4h2v2h-2V4z M10,2H8V0h2V2z M14,2h-2V0  h2V2z" style="fill:#010002;;"/>
</svg>
