<?xml version="1.0" encoding="utf-8"?>
<!-- Generator: Adobe Illustrator 17.0.0, SVG Export Plug-In . SVG Version: 6.00 Build 0)  -->
<svg xmlns="http://www.w3.org/2000/svg" xmlns:xlink="http://www.w3.org/1999/xlink" version="1.1" id="Capa_1" x="0px" y="0px" width="32px" height="32px" viewBox="0 0 32 32" style="enable-background:new 0 0 32 32;" xml:space="preserve">

<path class="st0" d="M30,8V4h2V2h-6v2h2v2h-8v4h-7c-1.654,0-3,1.346-3,3v17h2v2h2v-2h14v2h2v-2h2V13c0-1.654-1.346-3-3-3h-7V8H30z   M12,28V16.034c1.657,0.109,2.622,0.49,3.626,0.893C16.942,17.454,18.304,18,21,18s4.058-0.546,5.374-1.074  c1.004-0.403,1.969-0.784,3.626-0.893V28H12z M30,13v1.027c-2.051,0.114-3.229,0.585-4.37,1.043C24.437,15.548,23.311,16,21,16  s-3.437-0.452-4.629-0.93c-1.142-0.458-2.319-0.929-4.371-1.043V13c0-0.551,0.449-1,1-1h16C29.552,12,30,12.449,30,13z M4,10  c-2.206,0-4,1.794-4,4c0,0.044,0.02,0.082,0.025,0.125c0.004,0.034-0.008,0.067,0,0.1l3,13C3.13,27.679,3.534,28,4,28  s0.87-0.321,0.975-0.775l3-13c0.008-0.033-0.004-0.067,0-0.1C7.98,14.082,8,14.044,8,14C8,11.794,6.206,10,4,10z M4,12  c0.739,0,1.385,0.403,1.731,1H2.269C2.615,12.403,3.261,12,4,12z M4,22.553L2.257,15h3.486L4,22.553z M21,20c-1.654,0-3,1.346-3,3  s1.346,3,3,3s3-1.346,3-3S22.654,20,21,20z M21,24c-0.552,0-1-0.448-1-1s0.448-1,1-1s1,0.448,1,1S21.552,24,21,24z" style="fill:#010002;;"/>
</svg>
