<?xml version="1.0" encoding="utf-8"?>
<!-- Generator: Adobe Illustrator 17.0.0, SVG Export Plug-In . SVG Version: 6.00 Build 0)  -->
<svg xmlns="http://www.w3.org/2000/svg" xmlns:xlink="http://www.w3.org/1999/xlink" version="1.1" id="Capa_1" x="0px" y="0px" width="32px" height="32px" viewBox="0 0 32 32" style="enable-background:new 0 0 32 32;" xml:space="preserve">

<path class="st0" d="M24,4H8v8h16V4z M22,10H10V6h12V10z M4,0v32h24V0H4z M26,30H6V2h20V30z M10,16H8v-2h2V16z M10,20H8v-2h2V20z   M10,24H8v-2h2V24z M12,18h12v2H12V18z M12,22h12v2H12V22z M10,28H8v-2h2V28z M12,26h12v2H12V26z M12,14h12v2H12V14z" style="fill:#010002;;"/>
</svg>
