<?xml version="1.0" encoding="utf-8"?>
<!-- Generator: Adobe Illustrator 17.0.0, SVG Export Plug-In . SVG Version: 6.00 Build 0)  -->
<svg xmlns="http://www.w3.org/2000/svg" xmlns:xlink="http://www.w3.org/1999/xlink" version="1.1" id="Capa_1" x="0px" y="0px" width="32px" height="32px" viewBox="0 0 32 32" style="enable-background:new 0 0 32 32;" xml:space="preserve">

<path class="st0" d="M25,32H7c-1.654,0-3-1.346-3-3V3c0-1.654,1.346-3,3-3h18c1.654,0,3,1.346,3,3v26C28,30.654,26.654,32,25,32z   M7,2C6.449,2,6,2.449,6,3v26c0,0.552,0.449,1,1,1h18c0.552,0,1-0.448,1-1V3c0-0.551-0.448-1-1-1H7z M16,28c-3.309,0-6-2.691-6-6  s2.691-6,6-6s6,2.691,6,6S19.309,28,16,28z M16,18c-2.206,0-4,1.794-4,4s1.794,4,4,4c2.206,0,4-1.794,4-4S18.206,18,16,18z M18,22  c0-1.103-0.897-2-2-2c-1.103,0-2,0.897-2,2s0.897,2,2,2C17.103,24,18,23.103,18,22z M24,14H8V4h16V14z M10,12h12V6H10V12z" style="fill:#010002;;"/>
</svg>
