<?xml version="1.0" encoding="utf-8"?>
<!-- Generator: Adobe Illustrator 17.0.0, SVG Export Plug-In . SVG Version: 6.00 Build 0)  -->
<svg xmlns="http://www.w3.org/2000/svg" xmlns:xlink="http://www.w3.org/1999/xlink" version="1.1" id="Capa_1" x="0px" y="0px" width="32px" height="32px" viewBox="0 0 32 32" style="enable-background:new 0 0 32 32;" xml:space="preserve">

<path class="st0" d="M26,13c0,0.552-0.447,1-1,1H15c-0.552,0-1-0.448-1-1s0.448-1,1-1h10C25.553,12,26,12.448,26,13z M26,24.002  L26,24.002C25.476,24.002,0,24,0,24l0,2c0,0,24.753,0.001,26.001,0C26.553,26,27,25.554,27,25.001  C27,24.449,26.552,24.002,26,24.002z M31.812,15.584C31.623,15.846,31.321,16,31,16c-2.949,0-4,2.583-4,5c0,0.553-0.447,1-1,1H1  c-0.552,0-1-0.447-1-1C0,13.58,7.06,8.496,14,8.044V7.5C14,5.57,15.57,4,17.5,4H27c0.553,0,1,0.448,1,1v3h1  c0.431,0,0.813,0.275,0.948,0.684l2,6C32.051,14.989,31.999,15.324,31.812,15.584z M16,7.5V8h10V6h-8.5C16.673,6,16,6.673,16,7.5z   M29.659,14.14L28.279,10H15C9.172,10,2.714,14.058,2.055,20h22.993C25.353,16.886,27.091,14.699,29.659,14.14z" style="fill:#010002;;"/>
</svg>
