<?xml version="1.0" encoding="utf-8"?>
<!-- Generator: Adobe Illustrator 17.0.0, SVG Export Plug-In . SVG Version: 6.00 Build 0)  -->
<svg xmlns="http://www.w3.org/2000/svg" xmlns:xlink="http://www.w3.org/1999/xlink" version="1.1" id="Capa_1" x="0px" y="0px" width="32px" height="32px" viewBox="0 0 32 32" style="enable-background:new 0 0 32 32;" xml:space="preserve">

<path class="st0" d="M16,18h4v2h-4V18z M16,16h4v-2h-4V16z M26,24v2h4v6H0v-6h4V11.414L0.293,7.707  c-0.286-0.286-0.372-0.716-0.217-1.09C0.231,6.244,0.596,6,1,6h9.078c0.566-3.927,4.31-5.814,4.482-5.898  c0.277-0.136,0.603-0.136,0.88,0C15.612,0.186,19.356,2.073,19.922,6H25c0.553,0,1,0.448,1,1v3h6v14H26z M26,12v10h4V12H26z   M12.102,6h5.796c-0.43-2.051-2.096-3.334-2.899-3.847C14.19,2.664,12.528,3.94,12.102,6z M5.414,10H24V8H3.414L5.414,10z M28,28H2  v2h26V28z M24,26V12H6v14H24z M16,24h4v-2h-4V24z" style="fill:#010002;;"/>
</svg>
