<?xml version="1.0" encoding="utf-8"?>
<!-- Generator: Adobe Illustrator 17.0.0, SVG Export Plug-In . SVG Version: 6.00 Build 0)  -->
<svg xmlns="http://www.w3.org/2000/svg" xmlns:xlink="http://www.w3.org/1999/xlink" version="1.1" id="Capa_1" x="0px" y="0px" width="32px" height="32px" viewBox="0 0 32 32" style="enable-background:new 0 0 32 32;" xml:space="preserve">

<path class="st0" d="M29,8h-5.491C22.917,6.201,22.355,5.208,22,4.706V0h-8c-2.206,0-4,1.794-4,4H5C4.596,4,4.231,4.244,4.076,4.617  c-0.155,0.374-0.069,0.804,0.217,1.09l3.475,3.475C6.891,11.064,5,16.773,5,31c0,0.552,0.446,0.999,0.998,1H25  c0,0,0.958,0.019,0.958-0.998c0.003-1.785-0.022-3.442-0.067-5.002H29c0.553,0,1-0.447,1-1V9C30,8.448,29.553,8,29,8z M14,2h6v2h-8  C12,2.897,12.897,2,14,2z M8.367,14c0.169-0.787,0.338-1.449,0.498-2H14v-2H9.588C9.717,9.727,9.797,9.604,9.8,9.6  c0.299-0.398,0.259-0.955-0.093-1.307L7.414,6h3.064h9.973c0.719,1.159,3.014,5.933,3.438,20H7.087c0.025-0.695,0.055-1.359,0.09-2  H12v-2H7.304c0.052-0.703,0.11-1.369,0.172-2H14v-2H7.7c0.095-0.744,0.196-1.372,0.3-2h4v-2H8.367z M7,30.002  C7.004,29.31,6.987,28.648,7,28h17c0.011,0.655-0.003,1.321,0,2.013C23.305,30.017,9.396,30.007,7,30.002z M28,24h-2.181  c-0.288-6.571-0.988-11.019-1.737-14H28V24z" style="fill:#010002;;"/>
</svg>
