<?xml version="1.0" encoding="utf-8"?>
<!-- Generator: Adobe Illustrator 17.0.0, SVG Export Plug-In . SVG Version: 6.00 Build 0)  -->
<svg xmlns="http://www.w3.org/2000/svg" xmlns:xlink="http://www.w3.org/1999/xlink" version="1.1" id="Capa_1" x="0px" y="0px" width="32px" height="32px" viewBox="0 0 32 32" style="enable-background:new 0 0 32 32;" xml:space="preserve">

<path class="st0" d="M30,14h-8v-2h2v-2h-6v2h2v2h-4V6c0-2.206-1.794-4-4-4S8,3.794,8,6h2c0-1.103,0.897-2,2-2s2,0.897,2,2v8h-4v-2h2  v-2H6v2h2v2H0v6h2.465l4,6H12v4h6v-4h5.535l4-6H30V14z M2,16h26v2H2V16z M16,28h-2v-2h2V28z M22.465,24H7.535l-2.667-4h20.263  L22.465,24z" style="fill:#010002;;"/>
</svg>
