<?xml version="1.0" encoding="utf-8"?>
<!-- Generator: Adobe Illustrator 17.0.0, SVG Export Plug-In . SVG Version: 6.00 Build 0)  -->
<svg xmlns="http://www.w3.org/2000/svg" xmlns:xlink="http://www.w3.org/1999/xlink" version="1.1" id="Capa_1" x="0px" y="0px" width="32px" height="32px" viewBox="0 0 32 32" style="enable-background:new 0 0 32 32;" xml:space="preserve">

<path class="st0" d="M25.123,20l0.8,2H6.077l0.8-2H25.123z M31.828,27.561C31.642,27.835,31.332,28,31,28H1  c-0.332,0-0.642-0.165-0.828-0.439s-0.224-0.624-0.101-0.932L4,16.807V3c0-0.552,0.448-1,1-1h22c0.553,0,1,0.448,1,1v13.807  l3.929,9.822C32.052,26.937,32.014,27.286,31.828,27.561z M6,16h20V4H6V16z M29.523,26l-3.2-8H5.677l-3.2,8h10.141l1-2h4.764l1,2  H29.523z" style="fill:#010002;;"/>
</svg>
