<?xml version="1.0" encoding="utf-8"?>
<!-- Generator: Adobe Illustrator 17.0.0, SVG Export Plug-In . SVG Version: 6.00 Build 0)  -->
<svg xmlns="http://www.w3.org/2000/svg" xmlns:xlink="http://www.w3.org/1999/xlink" version="1.1" id="Capa_1" x="0px" y="0px" width="32px" height="32px" viewBox="0 0 32 32" style="enable-background:new 0 0 32 32;" xml:space="preserve">

<path class="st0" d="M28,24h-2.089c-0.382-2.289-2.017-4.307-3.911-4.853V17c0-1.206-0.799-3-3-3h-4c-1.206,0-3,0.799-3,3v2v1v0  L3.667,0H0v2h2.333l8.48,20.353C10.25,22.132,9.641,22,9,22c-2.757,0-5,2.243-5,5s2.243,5,5,5c1.627,0,3.061-0.793,3.974-2h11.582  c0.694,1.19,1.97,2,3.444,2c2.206,0,4-1.794,4-4S30.206,24,28,24z M23.877,24H14v-3h7C22.109,21,23.468,22.324,23.877,24z M14,17  c0-0.805,0.55-0.988,1-1h4c0.806,0,0.988,0.55,1,1v2h-6V17z M9,30c-1.654,0-3-1.346-3-3s1.346-3,3-3s3,1.346,3,3S10.654,30,9,30z   M13.899,28C13.965,27.677,14,27.342,14,27s-0.035-0.677-0.101-1h10.638c-0.077,0.133-0.145,0.272-0.206,0.415  c-0.006,0.013-0.013,0.024-0.018,0.037c-0.089,0.211-0.154,0.433-0.205,0.661c-0.013,0.057-0.024,0.113-0.035,0.17  C24.03,27.516,24,27.754,24,28H13.899z M28,30c-0.81,0-1.505-0.486-1.819-1.18l-0.055-0.154c-0.042-0.117-0.072-0.229-0.093-0.337  C26.015,28.221,26,28.113,26,28c0-1.103,0.897-2,2-2s2,0.897,2,2S29.103,30,28,30z" style="fill:#010002;;"/>
</svg>
