<?xml version="1.0" encoding="utf-8"?>
<!-- Generator: Adobe Illustrator 17.0.0, SVG Export Plug-In . SVG Version: 6.00 Build 0)  -->
<svg xmlns="http://www.w3.org/2000/svg" xmlns:xlink="http://www.w3.org/1999/xlink" version="1.1" id="Capa_1" x="0px" y="0px" width="32px" height="32px" viewBox="0 0 32 32" style="enable-background:new 0 0 32 32;" xml:space="preserve">

<path class="st0" d="M28,6H8c-4.411,0-8,3.589-8,8v1v5c0,2.206,1.794,4,4,4c0.727,0,1.4-0.209,1.988-0.55  C6.595,23.805,7.286,24,8,24c0.714,0,1.405-0.195,2.012-0.55C10.6,23.79,11.273,24,12,24c2.206,0,4-1.794,4-4v-4.988  C16.012,14.55,16.195,14,17,14h11c2.206,0,4-1.794,4-4S30.206,6,28,6z M14,18H9.184H6.816H2v-2h12V18z M2,20h4c0,1.103-0.897,2-2,2  S2,21.103,2,20z M7.491,21.914C7.805,21.343,8,20.697,8,20c0,0.697,0.195,1.343,0.509,1.914C8.176,21.997,7.824,21.997,7.491,21.914  z M12,22c-1.103,0-2-0.897-2-2h4C14,21.103,13.103,22,12,22z M28,12H17c-1.639,0-2.5,0.994-2.833,2H2c0-3.309,2.691-6,6-6h20  c1.103,0,2,0.897,2,2S29.103,12,28,12z" style="fill:#010002;;"/>
</svg>
