<?xml version="1.0" encoding="utf-8"?>
<!-- Generator: Adobe Illustrator 17.0.0, SVG Export Plug-In . SVG Version: 6.00 Build 0)  -->
<svg xmlns="http://www.w3.org/2000/svg" xmlns:xlink="http://www.w3.org/1999/xlink" version="1.1" id="Capa_1" x="0px" y="0px" width="32px" height="32px" viewBox="0 0 32 32" style="enable-background:new 0 0 32 32;" xml:space="preserve">

<path class="st0" d="M26,15h-2c0,4.625-3.507,8.442-8,8.941V21.92c3.386-0.488,6-3.401,6-6.92V7c0-3.86-3.141-7-7-7  c-3.86,0-7,3.14-7,7v8c0,3.519,2.613,6.432,6,6.92v2.021C9.507,23.442,6,19.625,6,15H4c0,5.728,4.402,10.442,10,10.949V29H8v3h14v-3  h-6v-3.051C21.598,25.442,26,20.728,26,15z M10.101,16H14v-2h-4v-2h4v-2h-4V8h4V6h-3.899C10.566,3.721,12.586,2,15,2  s4.434,1.721,4.899,4H16v2h4v2h-4v2h4v2h-4v2h4c-0.465,2.279-2.586,4-5,4S10.566,18.279,10.101,16z" style="fill:#010002;;"/>
</svg>
