<?xml version="1.0" encoding="utf-8"?>
<!-- Generator: Adobe Illustrator 17.0.0, SVG Export Plug-In . SVG Version: 6.00 Build 0)  -->
<svg xmlns="http://www.w3.org/2000/svg" xmlns:xlink="http://www.w3.org/1999/xlink" version="1.1" id="Capa_1" x="0px" y="0px" width="32px" height="32px" viewBox="0 0 32 32" style="enable-background:new 0 0 32 32;" xml:space="preserve">

<path class="st0" d="M20,6v2h-8V6H0v18h32V6H20z M20,10v4h-8v-4H20z M10,22H2V8h8V22z M12,22v-6h8v6H12z M30,22h-8V8h8V22z M14,18h4  v2h-4V18z M4,12c0-1.103,0.897-2,2-2s2,0.897,2,2s-0.897,2-2,2S4,13.103,4,12z M24,12c0-1.103,0.897-2,2-2s2,0.897,2,2s-0.897,2-2,2  S24,13.103,24,12z M4,18c0-1.103,0.897-2,2-2s2,0.897,2,2c0,1.103-0.897,2-2,2S4,19.103,4,18z M24,18c0-1.103,0.897-2,2-2  s2,0.897,2,2c0,1.103-0.897,2-2,2S24,19.103,24,18z" style="fill:#010002;;"/>
</svg>
