<?xml version="1.0" encoding="utf-8"?>
<!-- Generator: Adobe Illustrator 17.0.0, SVG Export Plug-In . SVG Version: 6.00 Build 0)  -->
<svg xmlns="http://www.w3.org/2000/svg" xmlns:xlink="http://www.w3.org/1999/xlink" version="1.1" id="Capa_1" x="0px" y="0px" width="32px" height="32px" viewBox="0 0 32 32" style="enable-background:new 0 0 32 32;" xml:space="preserve">

<path class="st0" d="M15,26c6.065,0,11-5.832,11-13c0-7.168-4.935-13-11-13S4,5.832,4,13C4,20.168,8.935,26,15,26z M15,2  c4.963,0,9,4.935,9,11s-4.037,11-9,11c-4.962,0-9-4.935-9-11S10.038,2,15,2z M11.707,17.707l-1.414-1.414l8-8l1.414,1.414  L11.707,17.707z M19.293,13.293l1.414,1.414l-4,4l-1.414-1.414L19.293,13.293z M28,12v20h-2v-2H4v2H2V12h2v1v15h22V13v-1H28z" style="fill:#010002;;"/>
</svg>
