<?xml version="1.0" encoding="utf-8"?>
<!-- Generator: Adobe Illustrator 17.0.0, SVG Export Plug-In . SVG Version: 6.00 Build 0)  -->
<svg xmlns="http://www.w3.org/2000/svg" xmlns:xlink="http://www.w3.org/1999/xlink" version="1.1" id="Capa_1" x="0px" y="0px" width="32px" height="32px" viewBox="0 0 32 32" style="enable-background:new 0 0 32 32;" xml:space="preserve">

<path class="st0" d="M32,6V0H0v6h2v16H1c-0.552,0-1,0.447-1,1v6c0,0.553,0.448,1,1,1h1v2h2v-2h24v2h2v-2h1c0.553,0,1-0.447,1-1v-6  c0-0.553-0.447-1-1-1h-1V6H32z M2,2h28v2H2V2z M20,12v1c0,0.551-0.448,1-1,1h-6c-0.551,0-1-0.449-1-1v-1H20z M14,10V6h4v4H14z M2,24  h10.556C12.212,24.591,12,25.268,12,26s0.212,1.409,0.556,2H2V24z M18,26c0,1.103-0.897,2-2,2c-1.103,0-2-0.897-2-2s0.897-2,2-2  C17.103,24,18,24.897,18,26z M30,28H19.444C19.788,27.409,20,26.732,20,26s-0.212-1.409-0.556-2H30V28z M28,22h-5.952v-2h-2.096v2  h-7.904v-2H9.952v2H4V6h8v4h-2v3c0,1.654,1.346,3,3,3h6c1.654,0,3-1.346,3-3v-3h-2V6h8V22z M10.448,8.966l-1.481,1.481L7.552,9.034  l1.481-1.481L10.448,8.966z M8.048,14H5.952v-2h2.096V14z M7.034,15.552l1.414,1.414l-1.481,1.482l-1.414-1.414L7.034,15.552z   M15.033,17.552l1.415,1.414l-1.481,1.482l-1.415-1.414L15.033,17.552z M24.966,12.448l-1.414-1.415l1.482-1.481l1.414,1.415  L24.966,12.448z M23.952,14h2.096v2h-2.096V14z M24.966,20.448l-1.414-1.414l1.482-1.482l1.414,1.414L24.966,20.448z" style="fill:#010002;;"/>
</svg>
