<?xml version="1.0" encoding="utf-8"?>
<!-- Generator: Adobe Illustrator 17.0.0, SVG Export Plug-In . SVG Version: 6.00 Build 0)  -->
<svg xmlns="http://www.w3.org/2000/svg" xmlns:xlink="http://www.w3.org/1999/xlink" version="1.1" id="Capa_1" x="0px" y="0px" width="32px" height="32px" viewBox="0 0 32 32" style="enable-background:new 0 0 32 32;" xml:space="preserve">

<path class="st0" d="M22,4V0h-8v4h-3.303L4,8.465V14h6v15c0,0.553,0.448,1,1,1h1v2h2v-2h8v2h2v-2h1c0.553,0,1-0.447,1-1V4H22z M16,2  h4v2h-4V2z M6,9.535L11.303,6H24v6h-2v-2h-2v2h-4.566l0.966-0.966l-1.481-1.481l-1.414,1.414L14.538,12H11H8.613l0.966-0.966  L8.098,9.552l-1.414,1.414L7.718,12H6V9.535z M24,28H12V14h12V28z M20,27h-3.938v-2H20V27z M18.09,10.448l-1.414-1.415l1.482-1.481  l1.414,1.415L18.09,10.448z M13,10h-2V8h2V10z M7.099,19.552l1.481,1.482l-1.415,1.414l-1.481-1.482L7.099,19.552z M2.099,21.552  l1.481,1.482l-1.415,1.414l-1.481-1.482L2.099,21.552z M5.099,25.552l1.481,1.482l-1.415,1.414l-1.481-1.482L5.099,25.552z   M5.166,18.448l-1.481-1.482l1.414-1.414l1.481,1.482L5.166,18.448z" style="fill:#010002;;"/>
</svg>
