<?xml version="1.0" encoding="utf-8"?>
<!-- Generator: Adobe Illustrator 17.0.0, SVG Export Plug-In . SVG Version: 6.00 Build 0)  -->
<svg xmlns="http://www.w3.org/2000/svg" xmlns:xlink="http://www.w3.org/1999/xlink" version="1.1" id="Capa_1" x="0px" y="0px" width="32px" height="32px" viewBox="0 0 32 32" style="enable-background:new 0 0 32 32;" xml:space="preserve">

<path class="st0" d="M0,6v20h32V6H0z M30,24H2V8h28V24z M5,22h6c0.552,0,1-0.447,1-1v-5c0-0.265-0.105-0.52-0.293-0.707l-1-1  C10.52,14.105,10.265,14,10,14H6c-0.265,0-0.52,0.105-0.707,0.293l-1,1C4.105,15.48,4,15.735,4,16v5C4,21.553,4.448,22,5,22z   M6,16.414L6.414,16h3.172L10,16.414V20H6V16.414z M15.793,22.207c0.195,0.195,0.451,0.293,0.707,0.293s0.512-0.098,0.707-0.293  l1.322-1.322C19.51,21.584,20.706,22,22,22s2.49-0.416,3.471-1.115l1.322,1.322c0.195,0.195,0.451,0.293,0.707,0.293  s0.512-0.098,0.707-0.293c0.391-0.391,0.391-1.023,0-1.414l-1.322-1.322C27.584,18.49,28,17.294,28,16s-0.416-2.49-1.115-3.471  l1.322-1.322c0.391-0.391,0.391-1.023,0-1.414s-1.023-0.391-1.414,0l-1.322,1.322C24.49,10.416,23.294,10,22,10  s-2.49,0.416-3.471,1.115l-1.322-1.322c-0.391-0.391-1.023-0.391-1.414,0s-0.391,1.023,0,1.414l1.322,1.322  C16.416,13.51,16,14.706,16,16s0.416,2.49,1.115,3.471l-1.322,1.322C15.402,21.184,15.402,21.816,15.793,22.207z M22,20  c-0.74,0-1.424-0.215-2.019-0.567L22,17.414l2.019,2.019C23.424,19.785,22.74,20,22,20z M26,16c0,0.74-0.215,1.424-0.567,2.019  L23.414,16l2.019-2.019C25.785,14.576,26,15.26,26,16z M22,12c0.74,0,1.424,0.215,2.019,0.567L22,14.586l-2.019-2.019  C20.576,12.215,21.26,12,22,12z M18,16c0-0.74,0.215-1.424,0.567-2.019L20.586,16l-2.019,2.019C18.215,17.424,18,16.74,18,16z M6,12  H4v-2h2V12z M12,12H8v-2h4V12z" style="fill:#010002;;"/>
</svg>
