<?xml version="1.0" encoding="utf-8"?>
<!-- Generator: Adobe Illustrator 17.0.0, SVG Export Plug-In . SVG Version: 6.00 Build 0)  -->
<svg xmlns="http://www.w3.org/2000/svg" xmlns:xlink="http://www.w3.org/1999/xlink" version="1.1" id="Capa_1" x="0px" y="0px" width="32px" height="32px" viewBox="0 0 32 32" style="enable-background:new 0 0 32 32;" xml:space="preserve">

<path class="st0" d="M32,13c0-1.654-1.346-3-3-3h-3V0H6v10H3c-1.654,0-3,1.346-3,3v11h6v8h20v-8h6V13z M8,2h16v8H8V2z M24,30H8V20  h16V30z M30,22h-4v-2h2v-2H4v2h2v2H2v-9c0-0.551,0.449-1,1-1h26c0.552,0,1,0.449,1,1V22z M4,14h2v2H4V14z M22,28H10v-2h12V28z   M22,24H10v-2h12V24z" style="fill:#010002;;"/>
</svg>
