<?xml version="1.0" encoding="utf-8"?>
<!-- Generator: Adobe Illustrator 17.0.0, SVG Export Plug-In . SVG Version: 6.00 Build 0)  -->
<svg xmlns="http://www.w3.org/2000/svg" xmlns:xlink="http://www.w3.org/1999/xlink" version="1.1" id="Capa_1" x="0px" y="0px" width="32px" height="32px" viewBox="0 0 32 32" style="enable-background:new 0 0 32 32;" xml:space="preserve">

<path class="st0" d="M27.421,19.958H32V12h-4.59c-0.645-2.157-1.798-4.093-3.318-5.678l2.615-2.615c0.391-0.391,0.391-1.023,0-1.414  s-1.023-0.391-1.414,0L22.606,4.98C20.229,3.12,17.245,2,14,2S7.771,3.12,5.394,4.98L2.707,2.293c-0.391-0.391-1.023-0.391-1.414,0  s-0.391,1.023,0,1.414l2.615,2.615C1.494,8.839,0,12.245,0,16c0,7.72,6.28,14,14,14c3.092,0,5.943-1.019,8.262-2.723l1.97,2.364  C24.43,29.878,24.714,30,25.001,30c0.226,0,0.452-0.076,0.64-0.231c0.424-0.354,0.481-0.984,0.128-1.409l-1.976-2.371  C25.473,24.34,26.737,22.273,27.421,19.958z M27.849,14H30v3.958h-2.145c0.01-0.068,0.013-0.135,0.022-0.203  c0.024-0.187,0.046-0.374,0.062-0.564C27.976,16.792,28,16.393,28,16c0-0.392-0.024-0.791-0.06-1.191  c-0.017-0.203-0.042-0.403-0.068-0.603C27.863,14.137,27.859,14.069,27.849,14z M20.769,22.359  c-0.031-0.037-0.073-0.055-0.108-0.087c0.63-0.659,1.194-1.384,1.664-2.178c0.149-0.251,0.181-0.555,0.086-0.831  c-0.094-0.276-0.304-0.498-0.575-0.606l-6.463-2.585c-0.322-0.129-0.69-0.082-0.969,0.126c-0.279,0.208-0.43,0.546-0.398,0.893  l0.669,7.359c0.028,0.308,0.197,0.585,0.457,0.751c0.163,0.104,0.351,0.158,0.54,0.158c0.112,0,0.226-0.019,0.334-0.058  c1.154-0.409,2.225-1,3.192-1.728c0.015,0.021,0.019,0.047,0.036,0.067l1.75,2.1C19.012,27.156,16.605,28,14,28  C7.383,28,2,22.617,2,16c0-3.203,1.269-6.11,3.322-8.264l1.971,1.971c0.008,0.008,0.02,0.011,0.028,0.019  c-0.783,0.821-1.453,1.754-1.984,2.783c-0.136,0.264-0.148,0.576-0.032,0.849c0.116,0.274,0.348,0.482,0.633,0.567l6.774,2.032  C12.807,15.986,12.904,16,13,16c0.229,0,0.455-0.079,0.636-0.229c0.257-0.212,0.392-0.539,0.359-0.871l-0.733-7.336  c-0.031-0.307-0.201-0.582-0.462-0.747c-0.26-0.164-0.583-0.199-0.873-0.094c-1.137,0.411-2.187,0.989-3.133,1.7  C8.763,8.381,8.746,8.332,8.707,8.293L6.821,6.407C8.826,4.903,11.307,4,14,4c2.694,0,5.174,0.903,7.179,2.407l-1.886,1.886  c-0.039,0.039-0.056,0.088-0.087,0.131c-0.946-0.711-1.996-1.289-3.133-1.7c-0.289-0.104-0.611-0.069-0.873,0.094  c-0.261,0.165-0.431,0.44-0.462,0.747L14.005,14.9c-0.033,0.332,0.102,0.659,0.359,0.871C14.545,15.921,14.771,16,15,16  c0.096,0,0.193-0.014,0.287-0.042l6.774-2.032c0.285-0.085,0.518-0.293,0.634-0.567c0.116-0.273,0.104-0.585-0.032-0.849  c-0.531-1.029-1.202-1.963-1.984-2.783c0.009-0.008,0.02-0.01,0.028-0.019l1.971-1.971c1.443,1.514,2.491,3.402,2.988,5.504  c0.11,0.467,0.193,0.932,0.249,1.391c0,0.001,0,0.001,0,0.002C25.972,15.095,26,15.552,26,16c0,0.889-0.109,1.807-0.325,2.728  c-0.514,2.199-1.625,4.17-3.165,5.721L20.769,22.359z M16.54,22.897l-0.396-4.363l3.8,1.521  C19.035,21.245,17.87,22.218,16.54,22.897z M11.408,9.127l0.449,4.485l-4.118-1.235C8.674,11.004,9.932,9.89,11.408,9.127z   M20.262,12.377l-4.118,1.235l0.449-4.485C18.068,9.89,19.326,11.004,20.262,12.377z" style="fill:#010002;;"/>
</svg>
