<?xml version="1.0" encoding="utf-8"?>
<!-- Generator: Adobe Illustrator 17.0.0, SVG Export Plug-In . SVG Version: 6.00 Build 0)  -->
<svg xmlns="http://www.w3.org/2000/svg" xmlns:xlink="http://www.w3.org/1999/xlink" version="1.1" id="Capa_1" x="0px" y="0px" width="32px" height="32px" viewBox="0 0 32 32" style="enable-background:new 0 0 32 32;" xml:space="preserve">

<path class="st0" d="M30,6V5c0-0.552-0.447-1-1-1H16V1c0-0.552-0.448-1-1-1s-1,0.448-1,1v3H1C0.448,4,0,4.448,0,5v20  c0,0.553,0.448,1,1,1h7v3c0,0.553,0.448,1,1,1s1-0.447,1-1v-3h10v3c0,0.553,0.447,1,1,1s1-0.447,1-1v-3h7c0.553,0,1-0.447,1-1v-1h2  V6H30z M28,24h-6v-2h3c0.347,0,0.668-0.18,0.851-0.475s0.199-0.663,0.044-0.973l-4-8c-0.34-0.678-1.449-0.678-1.789,0l-4,8  c-0.155,0.31-0.138,0.678,0.044,0.973S16.653,22,17,22h3v2H10v-2h3c0.347,0,0.668-0.18,0.851-0.475s0.199-0.663,0.044-0.973l-4-8  c-0.339-0.678-1.45-0.678-1.789,0l-4,8c-0.155,0.31-0.138,0.678,0.044,0.973S4.653,22,5,22h3v2H2V6h12v2h-3  c-0.347,0-0.668,0.18-0.851,0.474c-0.182,0.295-0.199,0.663-0.044,0.973l4,8C14.275,17.786,14.621,18,15,18s0.725-0.214,0.895-0.553  l4-8c0.155-0.31,0.139-0.678-0.044-0.973C19.668,8.18,19.347,8,19,8h-3V6h12V24z M18.618,20L21,15.236L23.382,20H18.618z M6.618,20  L9,15.236L11.382,20H6.618z M17.382,10L15,14.764L12.618,10H17.382z" style="fill:#010002;;"/>
</svg>
