<?xml version="1.0" encoding="utf-8"?>
<!-- Generator: Adobe Illustrator 17.0.0, SVG Export Plug-In . SVG Version: 6.00 Build 0)  -->
<svg xmlns="http://www.w3.org/2000/svg" xmlns:xlink="http://www.w3.org/1999/xlink" version="1.1" id="Capa_1" x="0px" y="0px" width="32px" height="32px" viewBox="0 0 32 32" style="enable-background:new 0 0 32 32;" xml:space="preserve">

<path class="st0" d="M29,0H3C2.448,0,2,0.448,2,1v28c0,0.553,0.448,1,1,1h1v2h2v-2h20v2h2v-2h1c0.553,0,1-0.447,1-1V1  C30,0.448,29.553,0,29,0z M28,24H18V2h10V24z M16,2v22H4V2H16z M4,28v-2h24v2H4z M19,18v-6h2v6H19z M15,18h-2v-6h2V18z M7,22h4  c0.552,0,1-0.447,1-1v-4c0-0.552-0.448-1-1-1H7c-0.552,0-1,0.448-1,1v4C6,21.553,6.448,22,7,22z M8,18h2v2H8V18z" style="fill:#010002;;"/>
</svg>
