<?xml version="1.0" encoding="utf-8"?>
<!-- Generator: Adobe Illustrator 17.0.0, SVG Export Plug-In . SVG Version: 6.00 Build 0)  -->
<svg xmlns="http://www.w3.org/2000/svg" xmlns:xlink="http://www.w3.org/1999/xlink" version="1.1" id="Capa_1" x="0px" y="0px" width="32px" height="32px" viewBox="0 0 32 32" style="enable-background:new 0 0 32 32;" xml:space="preserve">

<path class="st0" d="M25,32H9c-0.552,0-1-0.447-1-1V1c0-0.552,0.448-1,1-1h16c0.553,0,1,0.448,1,1v30C26,31.553,25.553,32,25,32z   M10,30h14V2H10V30z M14,4h-2v2h2V4z M22,4h-2v2h2V4z M14,8h-2v2h2V8z M18,8h-2v2h2V8z M14,12h-2v2h2V12z M18,12h-2v2h2V12z M14,16  h-2v2h2V16z M18,16h-2v2h2V16z M22,8h-2v2h2V8z M22,12h-2v2h2V12z M22,16h-2v2h2V16z M18,20v2c0.552,0,1,0.448,1,1h2  C21,21.346,19.654,20,18,20z M16,22v-2c-1.654,0-3,1.346-3,3h2C15,22.448,15.449,22,16,22z M16,25c-0.551,0-1-0.448-1-1h-2  c0,1.654,1.346,3,3,3V25z M21,24h-2c0,0.552-0.448,1-1,1v2C19.654,27,21,25.654,21,24z" style="fill:#010002;;"/>
</svg>
