<?xml version="1.0" encoding="utf-8"?>
<!-- Generator: Adobe Illustrator 17.0.0, SVG Export Plug-In . SVG Version: 6.00 Build 0)  -->
<svg xmlns="http://www.w3.org/2000/svg" xmlns:xlink="http://www.w3.org/1999/xlink" version="1.1" id="Capa_1" x="0px" y="0px" width="32px" height="32px" viewBox="0 0 32 32" style="enable-background:new 0 0 32 32;" xml:space="preserve">

<path class="st0" d="M30,6V4H20V0h-8v4H2v2H30z M14,2h4v2h-4V2z M32,10h-2V8H2v2H0v2h2v14c0,2.206,1.794,4,4,4v2h2v-2h16v2h2v-2  c2.206,0,4-1.794,4-4V12h2V10z M14,28v-4h4v4H14z M28,26c0,1.103-0.897,2-2,2h-6v-6h-8v6H6c-1.103,0-2-0.897-2-2V10h24V26z" style="fill:#010002;;"/>
</svg>
