<?xml version="1.0" encoding="utf-8"?>
<!-- Generator: Adobe Illustrator 17.0.0, SVG Export Plug-In . SVG Version: 6.00 Build 0)  -->
<svg xmlns="http://www.w3.org/2000/svg" xmlns:xlink="http://www.w3.org/1999/xlink" version="1.1" id="Capa_1" x="0px" y="0px" width="32px" height="32px" viewBox="0 0 32 32" style="enable-background:new 0 0 32 32;" xml:space="preserve">

<path class="st0" d="M26.885,27.076L22,6.88V5c0-2.757-2.243-5-5-5h-3l-0.251,0.032C11.577,0.595,10,2.684,10,5v1.858L4.183,26.852  C4.06,27.259,4,27.635,4,28c0,2.206,1.794,4,4,4h15c2.206,0,4-1.794,4-4C27,27.704,26.963,27.402,26.885,27.076z M22.588,17.82  c-0.135-0.053-0.261-0.102-0.4-0.157C20.226,16.884,18.002,16,16,16c-2.353,0-4.947,0.95-7.092,1.769L11.75,8h8.462L22.588,17.82z   M12,5c0-1.355,0.911-2.623,2.138-3H17c1.654,0,3,1.346,3,3v1h-8V5z M23,30H8c-1.103,0-2-0.897-2-2c0-0.169,0.031-0.35,0.1-0.58  l2.11-7.251c0.349-0.128,0.711-0.265,1.097-0.412C11.354,18.974,13.901,18,16,18c1.619,0,3.654,0.809,5.45,1.522  c0.604,0.24,1.17,0.456,1.706,0.644l1.784,7.376C24.98,27.712,25,27.861,25,28C25,29.103,24.103,30,23,30z" style="fill:#010002;;"/>
</svg>
