<?xml version="1.0" encoding="utf-8"?>
<!-- Generator: Adobe Illustrator 17.0.0, SVG Export Plug-In . SVG Version: 6.00 Build 0)  -->
<svg xmlns="http://www.w3.org/2000/svg" xmlns:xlink="http://www.w3.org/1999/xlink" version="1.1" id="Capa_1" x="0px" y="0px" width="32px" height="32px" viewBox="0 0 32 32" style="enable-background:new 0 0 32 32;" xml:space="preserve">

<path class="st0" d="M8,25H4v-2h4V25z M12,23h-2v2h2V23z M32,18v10h-2v2H2v-2H0v-8h28v-1.241c-0.007,0-0.014,0.002-0.021,0.002  c-0.191,0-0.386-0.055-0.557-0.17L2.474,1.83C2.015,1.522,1.893,0.901,2.201,0.442C2.51-0.016,3.131-0.137,3.589,0.17l24.949,16.762  c0.355,0.238,0.501,0.675,0.409,1.068H32z M30,22H2v4h28V22z" style="fill:#010002;;"/>
</svg>
