<?xml version="1.0" encoding="utf-8"?>
<!-- Generator: Adobe Illustrator 17.0.0, SVG Export Plug-In . SVG Version: 6.00 Build 0)  -->
<svg xmlns="http://www.w3.org/2000/svg" xmlns:xlink="http://www.w3.org/1999/xlink" version="1.1" id="Capa_1" x="0px" y="0px" width="32px" height="32px" viewBox="0 0 32 32" style="enable-background:new 0 0 32 32;" xml:space="preserve">

<path class="st0" d="M24,8.061c-1.654,0-3,1.346-3,3s1.346,3,3,3s3-1.346,3-3S25.654,8.061,24,8.061z M24,12.061  c-0.552,0-1-0.449-1-1c0-0.552,0.448-1,1-1s1,0.449,1,1C25,11.612,24.552,12.061,24,12.061z M24,16c-1.654,0-3,1.346-3,3  s1.346,3,3,3s3-1.346,3-3S25.654,16,24,16z M24,20c-0.552,0-1-0.448-1-1s0.448-1,1-1s1,0.448,1,1S24.552,20,24,20z M30,8V7  c0-1.682-1.317-3-3-3h-1V2h-2v2h-2V2h-2v2H6V2H4v2C1.794,4,0,5.794,0,8v8h4v4h2v-4h4v-4h6c1.103,0,2,0.897,2,2v8H0v8h30V14h2V8H30z   M28,28H2v-4h18V14c0-2.206-1.794-4-4-4H8v4H2V8c0-1.103,0.897-2,2-2v4h2V6h21c0.579,0,1,0.42,1,1V28z" style="fill:#010002;;"/>
</svg>
