<?xml version="1.0" encoding="utf-8"?>
<!-- Generator: Adobe Illustrator 17.0.0, SVG Export Plug-In . SVG Version: 6.00 Build 0)  -->
<svg xmlns="http://www.w3.org/2000/svg" xmlns:xlink="http://www.w3.org/1999/xlink" version="1.1" id="Capa_1" x="0px" y="0px" width="32px" height="32px" viewBox="0 0 32 32" style="enable-background:new 0 0 32 32;" xml:space="preserve">

<path class="st0" d="M20,0c-3.309,0-6,2.691-6,6v2h-2v2c-2.206,0-4,1.794-4,4v4H6v2h18v-2h-2v-4c0-2.206-1.794-4-4-4V8h-2V6  c0-2.206,1.794-4,4-4h12V0H20z M20,14v4H10v-4c0-1.103,0.897-2,2-2h6C19.103,12,20,12.897,20,14z M8,24H6v-2h2V24z M6,28H4v-2h2V28z   M2,30h2v2H2V30z M12,24h-2v-2h2V24z M10,28H8v-2h2V28z M6,30h2v2H6V30z M16,24h-2v-2h2V24z M20,24h-2v-2h2V24z M24,24h-2v-2h2V24z   M18,28h-2v-2h2V28z M14,28h-2v-2h2V28z M26,28h-2v-2h2V28z M22,28h-2v-2h2V28z M18,30h2v2h-2V30z M14,30h2v2h-2V30z M26,30h2v2h-2  V30z M22,30h2v2h-2V30z M10,30h2v2h-2V30z" style="fill:#010002;;"/>
</svg>
