<?xml version="1.0" encoding="utf-8"?>
<!-- Generator: Adobe Illustrator 17.0.0, SVG Export Plug-In . SVG Version: 6.00 Build 0)  -->
<svg xmlns="http://www.w3.org/2000/svg" xmlns:xlink="http://www.w3.org/1999/xlink" version="1.1" id="Capa_1" x="0px" y="0px" width="32px" height="32px" viewBox="0 0 32 32" style="enable-background:new 0 0 32 32;" xml:space="preserve">

<path class="st0" d="M24,16c2.206,0,4-1.794,4-4s-1.794-4-4-4s-4,1.794-4,4S21.794,16,24,16z M24,10c1.103,0,2,0.897,2,2  s-0.897,2-2,2s-2-0.897-2-2S22.897,10,24,10z M8,16c2.206,0,4-1.794,4-4s-1.794-4-4-4s-4,1.794-4,4S5.794,16,8,16z M8,10  c1.103,0,2,0.897,2,2s-0.897,2-2,2s-2-0.897-2-2S6.897,10,8,10z M10,22c0,1.103-0.897,2-2,2s-2-0.897-2-2s0.897-2,2-2  S10,20.897,10,22z M26,22c0,1.103-0.897,2-2,2s-2-0.897-2-2s0.897-2,2-2S26,20.897,26,22z M16,4H0v24h16h16V4H16z M14,26H2V6h12V26z   M30,26H18V6h12V26z" style="fill:#010002;;"/>
</svg>
