<?xml version="1.0" encoding="utf-8"?>
<!-- Generator: Adobe Illustrator 17.0.0, SVG Export Plug-In . SVG Version: 6.00 Build 0)  -->
<svg xmlns="http://www.w3.org/2000/svg" xmlns:xlink="http://www.w3.org/1999/xlink" version="1.1" id="Capa_1" x="0px" y="0px" width="32px" height="32px" viewBox="0 0 32 32" style="enable-background:new 0 0 32 32;" xml:space="preserve">

<path class="st0" d="M28,0H4C1.794,0,0,1.794,0,4v22c0,2.206,1.794,4,4,4v2h2v-2h20v2h2v-2c2.206,0,4-1.794,4-4V4  C32,1.794,30.206,0,28,0z M4,2h24c1.103,0,2,0.897,2,2v16H2V4C2,2.897,2.897,2,4,2z M28,28H4c-1.103,0-2-0.897-2-2v-4h28v4  C30,27.103,29.103,28,28,28z M26,6H6V4h20V6z M6,24h2v2H6V24z M12,24h2v2h-2V24z M18,24h2v2h-2V24z M24,24h2v2h-2V24z M28,8H4v10h24  V8z M26,16H6v-6h20V16z" style="fill:#010002;;"/>
</svg>
