<?xml version="1.0" encoding="utf-8"?>
<!-- Generator: Adobe Illustrator 17.0.0, SVG Export Plug-In . SVG Version: 6.00 Build 0)  -->
<svg xmlns="http://www.w3.org/2000/svg" xmlns:xlink="http://www.w3.org/1999/xlink" version="1.1" id="Capa_1" x="0px" y="0px" width="32px" height="32px" viewBox="0 0 32 32" style="enable-background:new 0 0 32 32;" xml:space="preserve">

<path class="st0" d="M29.993,21.036C29.993,21.023,30,21.013,30,21V5c0-2.757-2.243-5-5-5H9C6.243,0,4,2.243,4,5v16  c0,0.014,0.007,0.025,0.008,0.039c0.004,0.104,0.025,0.206,0.062,0.305c0.008,0.022,0.013,0.045,0.023,0.066  c0.005,0.012,0.007,0.025,0.013,0.037L6,25.236V32h22v-6.764l1.895-3.789c0.006-0.012,0.008-0.025,0.013-0.037  c0.01-0.021,0.015-0.044,0.023-0.066C29.968,21.244,29.989,21.141,29.993,21.036z M6,5c0-1.654,1.346-3,3-3h16c1.654,0,3,1.346,3,3  v15H18v-8h2v5c0,0.553,0.447,1,1,1h4c0.553,0,1-0.447,1-1V9c0-1.302-0.839-2.402-2-2.816V4h-2v2.184C20.839,6.598,20,7.698,20,9v1  h-6V9c0-1.302-0.839-2.402-2-2.816V4h-2v2.184C8.839,6.598,8,7.698,8,9v8c0,0.553,0.448,1,1,1h4c0.552,0,1-0.447,1-1v-5h2v8H6V5z   M26.382,24h-6.566c-0.414-1.161-1.514-2-2.816-2s-2.402,0.839-2.816,2H7.618l-1-2H17h10.382L26.382,24z M23,8c0.552,0,1,0.449,1,1  v1h-2V9C22,8.449,22.448,8,23,8z M24,12v4h-2v-4H24z M10,12h2v4h-2V12z M10,10V9c0-0.551,0.449-1,1-1s1,0.449,1,1v1H10z M26,30h-2  v-2h-2v2H12v-2h-2v2H8v-4h6.184c0.414,1.161,1.514,2,2.816,2s2.402-0.839,2.816-2H26V30z" style="fill:#010002;;"/>
</svg>
