<?xml version="1.0" encoding="utf-8"?>
<!-- Generator: Adobe Illustrator 17.0.0, SVG Export Plug-In . SVG Version: 6.00 Build 0)  -->
<svg xmlns="http://www.w3.org/2000/svg" xmlns:xlink="http://www.w3.org/1999/xlink" version="1.1" id="Capa_1" x="0px" y="0px" width="32px" height="32px" viewBox="0 0 32 32" style="enable-background:new 0 0 32 32;" xml:space="preserve">

<path class="st0" d="M32,6H0v20h2v2h2v-2h24v2h2v-2h2V6z M30,24H2V8h28V24z M28,12h-4v-2h4V12z M28,16h-4v-2h4V16z M28,20h-4v-2h4  V20z M22,10H4v12h18V10z M20,20H6v-8h14V20z M8,17v-3h2v3c0,0.553-0.448,1-1,1S8,17.553,8,17z M12,17v-3h2v3c0,0.553-0.448,1-1,1  S12,17.553,12,17z M16,17v-3h2v3c0,0.553-0.447,1-1,1C16.448,18,16,17.553,16,17z" style="fill:#010002;;"/>
</svg>
