<?xml version="1.0" encoding="utf-8"?>
<!-- Generator: Adobe Illustrator 17.0.0, SVG Export Plug-In . SVG Version: 6.00 Build 0)  -->
<svg xmlns="http://www.w3.org/2000/svg" xmlns:xlink="http://www.w3.org/1999/xlink" version="1.1" id="Capa_1" x="0px" y="0px" width="32px" height="32px" viewBox="0 0 32 32" style="enable-background:new 0 0 32 32;" xml:space="preserve">

<path class="st0" d="M0,0v32h32V0H0z M30,30H2V2h28V30z M4,26c0-1.103,0.897-2,2-2s2,0.897,2,2s-0.897,2-2,2S4,27.103,4,26z M14,26  c0,1.103-0.897,2-2,2s-2-0.897-2-2s0.897-2,2-2S14,24.897,14,26z M18,26c0-1.103,0.897-2,2-2s2,0.897,2,2s-0.897,2-2,2  S18,27.103,18,26z M26,24c1.103,0,2,0.897,2,2s-0.897,2-2,2s-2-0.897-2-2S24.897,24,26,24z M10,22c2.206,0,4-1.794,4-4  c0-2.206-1.794-4-4-4s-4,1.794-4,4C6,20.206,7.794,22,10,22z M10,16c1.103,0,2,0.897,2,2c0,1.103-0.897,2-2,2s-2-0.897-2-2  C8,16.897,8.897,16,10,16z M10,12c2.206,0,4-1.794,4-4s-1.794-4-4-4S6,5.794,6,8S7.794,12,10,12z M10,6c1.103,0,2,0.897,2,2  s-0.897,2-2,2S8,9.103,8,8S8.897,6,10,6z M22,22c2.206,0,4-1.794,4-4c0-2.206-1.794-4-4-4s-4,1.794-4,4C18,20.206,19.794,22,22,22z   M22,16c1.103,0,2,0.897,2,2c0,1.103-0.897,2-2,2s-2-0.897-2-2C20,16.897,20.897,16,22,16z M22,12c2.206,0,4-1.794,4-4s-1.794-4-4-4  s-4,1.794-4,4S19.794,12,22,12z M22,6c1.103,0,2,0.897,2,2s-0.897,2-2,2s-2-0.897-2-2S20.897,6,22,6z" style="fill:#010002;;"/>
</svg>
