<?xml version="1.0" encoding="utf-8"?>
<!-- Generator: Adobe Illustrator 17.0.0, SVG Export Plug-In . SVG Version: 6.00 Build 0)  -->
<svg xmlns="http://www.w3.org/2000/svg" xmlns:xlink="http://www.w3.org/1999/xlink" version="1.1" id="Capa_1" x="0px" y="0px" width="32px" height="32px" viewBox="0 0 32 32" style="enable-background:new 0 0 32 32;" xml:space="preserve">

<path class="st0" d="M0,0v32h32V0H0z M30,2v8H2V2H30z M2,30V12h28v18H2z M28,15c0,0.552-0.447,1-1,1H5c-0.552,0-1-0.448-1-1  s0.448-1,1-1h22C27.553,14,28,14.448,28,15z M4,6c0-1.103,0.897-2,2-2s2,0.897,2,2S7.103,8,6,8S4,7.103,4,6z M10,6  c0-1.103,0.897-2,2-2s2,0.897,2,2s-0.897,2-2,2S10,7.103,10,6z M18,6c0-1.103,0.897-2,2-2s2,0.897,2,2s-0.897,2-2,2S18,7.103,18,6z   M24,6c0-1.103,0.897-2,2-2s2,0.897,2,2s-0.897,2-2,2S24,7.103,24,6z" style="fill:#010002;;"/>
</svg>
