<?xml version="1.0" encoding="utf-8"?>
<!-- Generator: Adobe Illustrator 17.0.0, SVG Export Plug-In . SVG Version: 6.00 Build 0)  -->
<svg xmlns="http://www.w3.org/2000/svg" xmlns:xlink="http://www.w3.org/1999/xlink" version="1.1" id="Capa_1" x="0px" y="0px" width="32px" height="32px" viewBox="0 0 32 32" style="enable-background:new 0 0 32 32;" xml:space="preserve">

<g>
	<path class="st0" d="M29,8h-1V5c0-1.654-1.346-3-3-3H7C5.346,2,4,3.346,4,5v3H3c-1.654,0-3,1.346-3,3v16c0,1.654,1.346,3,3,3h26   c1.654,0,3-1.346,3-3V11C32,9.346,30.654,8,29,8z M6,5c0-0.551,0.449-1,1-1h18c0.552,0,1,0.449,1,1v3h-2V6h-4v2H10V6H8v2H6V5z    M30,27c0,0.552-0.448,1-1,1H3c-0.551,0-1-0.448-1-1V11c0-0.551,0.449-1,1-1h26c0.552,0,1,0.449,1,1V27z" style="fill:#010002;;"/>
	<path class="st0" d="M5,14h22c0.553,0,1-0.448,1-1s-0.447-1-1-1H5c-0.552,0-1,0.448-1,1S4.448,14,5,14z" style="fill:#010002;;"/>
	<path class="st0" d="M13,16c-0.552,0-1,0.448-1,1c0,0.553,0.448,1,1,1h6c0.553,0,1-0.447,1-1c0-0.552-0.447-1-1-1H13z" style="fill:#010002;;"/>
	<path class="st0" d="M18,20h-4c-0.552,0-1,0.447-1,1s0.448,1,1,1h4c0.553,0,1-0.447,1-1S18.553,20,18,20z" style="fill:#010002;;"/>
	<rect x="11" y="24" class="st0" width="2" height="2" style="fill:#010002;;"/>
	<rect x="15" y="24" class="st0" width="2" height="2" style="fill:#010002;;"/>
	<rect x="19" y="24" class="st0" width="2" height="2" style="fill:#010002;;"/>
	<path class="st0" d="M25,16c-2.206,0-4,1.794-4,4s1.794,4,4,4s4-1.794,4-4S27.206,16,25,16z M25,22c-1.103,0-2-0.897-2-2   s0.897-2,2-2s2,0.897,2,2S26.103,22,25,22z" style="fill:#010002;;"/>
	<path class="st0" d="M7,16c-2.206,0-4,1.794-4,4s1.794,4,4,4s4-1.794,4-4S9.206,16,7,16z M7,22c-1.103,0-2-0.897-2-2s0.897-2,2-2   s2,0.897,2,2S8.103,22,7,22z" style="fill:#010002;;"/>
</g>
</svg>
