<?xml version="1.0" encoding="utf-8"?>
<!-- Generator: Adobe Illustrator 17.0.0, SVG Export Plug-In . SVG Version: 6.00 Build 0)  -->
<svg xmlns="http://www.w3.org/2000/svg" xmlns:xlink="http://www.w3.org/1999/xlink" version="1.1" id="Capa_1" x="0px" y="0px" width="32px" height="32px" viewBox="0 0 32 32" style="enable-background:new 0 0 32 32;" xml:space="preserve">

<path class="st0" d="M12,24h-2v-2h2V24z M16,22h-2v2h2V22z M14,16h2v-2h-2V16z M14,10h2V8h-2V10z M18,24h2v-2h-2V24z M12,28h2v-2h-2  V28z M16,28h2v-2h-2V28z M10,4h10v16H10V4z M12,18h6V6h-6V18z M24,6v2h2v2h-2v2h2v2h-2v2h2v2h-2v11c0,1.654-1.346,3-3,3H9  c-1.654,0-3-1.346-3-3V3c0-1.654,1.346-3,3-3h12c1.654,0,3,1.346,3,3v1h2v2H24z M22,3c0-0.551-0.448-1-1-1H9C8.449,2,8,2.449,8,3v26  c0,0.552,0.449,1,1,1h12c0.552,0,1-0.448,1-1V3z" style="fill:#010002;;"/>
</svg>
