<?xml version="1.0" encoding="utf-8"?>
<!-- Generator: Adobe Illustrator 17.0.0, SVG Export Plug-In . SVG Version: 6.00 Build 0)  -->
<svg xmlns="http://www.w3.org/2000/svg" xmlns:xlink="http://www.w3.org/1999/xlink" version="1.1" id="Capa_1" x="0px" y="0px" width="32px" height="32px" viewBox="0 0 32 32" style="enable-background:new 0 0 32 32;" xml:space="preserve">

<path class="st0" d="M29,6H16V5c0-1.654-1.346-3-3-3H7C5.346,2,4,3.346,4,5v1H3C1.346,6,0,7.346,0,9v18c0,1.654,1.346,3,3,3h26  c1.654,0,3-1.346,3-3V9C32,7.346,30.654,6,29,6z M6,5c0-0.551,0.449-1,1-1h6c0.551,0,1,0.449,1,1v18c0,0.552-0.449,1-1,1H7  c-0.551,0-1-0.448-1-1V5z M30,27c0,0.552-0.448,1-1,1H3c-0.551,0-1-0.448-1-1V9c0-0.551,0.449-1,1-1h1v15c0,1.654,1.346,3,3,3h6  c1.654,0,3-1.346,3-3V8h13c0.552,0,1,0.449,1,1V27z M18,10h10v2H18V10z M18,16h2v2h-2V16z M18,20h2v2h-2V20z M18,24h2v2h-2V24z   M22,16h2v2h-2V16z M22,20h2v2h-2V20z M22,24h2v2h-2V24z M26,16h2v2h-2V16z M26,20h2v2h-2V20z M26,24h2v2h-2V24z" style="fill:#010002;;"/>
</svg>
