<?xml version="1.0" encoding="utf-8"?>
<!-- Generator: Adobe Illustrator 17.0.0, SVG Export Plug-In . SVG Version: 6.00 Build 0)  -->
<svg xmlns="http://www.w3.org/2000/svg" xmlns:xlink="http://www.w3.org/1999/xlink" version="1.1" id="Capa_1" x="0px" y="0px" width="32px" height="32px" viewBox="0 0 32 32" style="enable-background:new 0 0 32 32;" xml:space="preserve">

<path class="st0" d="M31.207,5.793l-5-5c-0.391-0.391-1.023-0.391-1.414,0l-18.5,18.5C6.105,19.48,6,19.734,6,20v3.586l-2.707,2.707  c-0.317,0.317-0.363,0.788-0.165,1.165l-2.835,2.835c-0.391,0.391-0.391,1.023,0,1.414C0.488,31.902,0.744,32,1,32  s0.512-0.098,0.707-0.293l2.835-2.835C4.687,28.948,4.84,29,5,29c0.256,0,0.512-0.098,0.707-0.293L8.414,26H12  c0.265,0,0.52-0.105,0.707-0.293l18.5-18.5C31.598,6.816,31.598,6.184,31.207,5.793z M11.586,24H8v-3.586l2.5-2.5l1.793,1.793  C12.488,19.902,12.744,20,13,20s0.512-0.098,0.707-0.293c0.391-0.391,0.391-1.023,0-1.414L11.914,16.5l2.586-2.586l1.793,1.793  C16.488,15.902,16.744,16,17,16s0.512-0.098,0.707-0.293c0.391-0.391,0.391-1.023,0-1.414L15.914,12.5L18.5,9.914l1.793,1.793  C20.488,11.902,20.744,12,21,12s0.512-0.098,0.707-0.293c0.391-0.391,0.391-1.023,0-1.414L19.914,8.5L22.5,5.914l1.793,1.793  C24.488,7.902,24.744,8,25,8s0.512-0.098,0.707-0.293c0.391-0.391,0.391-1.023,0-1.414L23.914,4.5L25.5,2.914L29.086,6.5L11.586,24z  " style="fill:#010002;;"/>
</svg>
