<?xml version="1.0" encoding="utf-8"?>
<!-- Generator: Adobe Illustrator 17.0.0, SVG Export Plug-In . SVG Version: 6.00 Build 0)  -->
<svg xmlns="http://www.w3.org/2000/svg" xmlns:xlink="http://www.w3.org/1999/xlink" version="1.1" id="Capa_1" x="0px" y="0px" width="32px" height="32px" viewBox="0 0 32 32" style="enable-background:new 0 0 32 32;" xml:space="preserve">

<path class="st0" d="M32,22h-4v-6c0-2.206-1.794-4-4-4h-2V9.451C23.22,8.745,24,7.435,24,6c0-2.206-1.794-4-4-4H8  C5.794,2,4,3.794,4,6c0,1.435,0.78,2.746,2,3.451V12H4c-2.206,0-4,1.794-4,4v12h2v2h2v-2h20v2h2v-2h2v-4h4V22z M7.335,7.874  C6.537,7.59,6,6.837,6,6c0-1.103,0.897-2,2-2h12c1.103,0,2,0.897,2,2c0,0.837-0.536,1.59-1.335,1.875L20,8.111V12H8V8.111  L7.335,7.874z M26,26H2V16c0-1.103,0.897-2,2-2h20c1.103,0,2,0.897,2,2V26z" style="fill:#010002;;"/>
</svg>
