<?xml version="1.0" encoding="utf-8"?>
<!-- Generator: Adobe Illustrator 17.0.0, SVG Export Plug-In . SVG Version: 6.00 Build 0)  -->
<svg xmlns="http://www.w3.org/2000/svg" xmlns:xlink="http://www.w3.org/1999/xlink" version="1.1" id="Capa_1" x="0px" y="0px" width="32px" height="32px" viewBox="0 0 32 32" style="enable-background:new 0 0 32 32;" xml:space="preserve">

<path class="st0" d="M24.153,14L25.99,1.142c0.041-0.287-0.045-0.578-0.234-0.797C25.565,0.126,25.29,0,25,0H7  C6.71,0,6.435,0.126,6.245,0.345c-0.19,0.219-0.275,0.51-0.234,0.797L7.847,14H6v1c0,3.805,2.245,6.841,5.707,8.209L9.753,32h12.494  l-1.954-8.791C23.755,21.841,26,18.805,26,15v-1H24.153z M8.153,2h15.694l-1.714,12H9.867L8.153,2z M19.753,30h-7.506l1.385-6.232  C14.385,23.915,15.174,24,16,24c0.826,0,1.614-0.085,2.368-0.232L19.753,30z M16,22c-4.319,0-7.444-2.42-7.933-6h15.866  C23.444,19.58,20.319,22,16,22z M14,4v2h-4V4H14z" style="fill:#010002;;"/>
</svg>
