<?xml version="1.0" encoding="utf-8"?>
<!-- Generator: Adobe Illustrator 17.0.0, SVG Export Plug-In . SVG Version: 6.00 Build 0)  -->
<svg xmlns="http://www.w3.org/2000/svg" xmlns:xlink="http://www.w3.org/1999/xlink" version="1.1" id="Capa_1" x="0px" y="0px" width="32px" height="32px" viewBox="0 0 32 32" style="enable-background:new 0 0 32 32;" xml:space="preserve">

<path class="st0" d="M12,0v8H0v2h2v20h10v2h20V0H12z M30,2v4H14V2H30z M4,28V10h8v18H4z M14,30V8h16v22H14z M24,11h5v2H15v-2h5v-1h4  V11z M16,25c0,1.654,1.346,3,3,3h6c1.654,0,3-1.346,3-3V14H16V25z M18,16h1v8h2v-8h2v8h2v-8h1v9c0,0.552-0.448,1-1,1h-6  c-0.552,0-1-0.448-1-1V16z" style="fill:#010002;;"/>
</svg>
