<?xml version="1.0" encoding="utf-8"?>
<!-- Generator: Adobe Illustrator 17.0.0, SVG Export Plug-In . SVG Version: 6.00 Build 0)  -->
<svg xmlns="http://www.w3.org/2000/svg" xmlns:xlink="http://www.w3.org/1999/xlink" version="1.1" id="Capa_1" x="0px" y="0px" width="32px" height="32px" viewBox="0 0 32 32" style="enable-background:new 0 0 32 32;" xml:space="preserve">

<path class="st0" d="M4,0v32h2v-2h18v2h2V0H4z M20,2v18H10V2H20z M6,2h2v20h14V2h2v26H6V2z M16,6h-2V4h2V6z M16,10h-2V8h2V10z   M15,18c1.654,0,3-1.346,3-3s-1.346-3-3-3s-3,1.346-3,3S13.346,18,15,18z M15,14c0.551,0,1,0.449,1,1s-0.449,1-1,1s-1-0.449-1-1  S14.449,14,15,14z" style="fill:#010002;;"/>
</svg>
