<?xml version="1.0" encoding="utf-8"?>
<!-- Generator: Adobe Illustrator 17.0.0, SVG Export Plug-In . SVG Version: 6.00 Build 0)  -->
<svg xmlns="http://www.w3.org/2000/svg" xmlns:xlink="http://www.w3.org/1999/xlink" version="1.1" id="Capa_1" x="0px" y="0px" width="32px" height="32px" viewBox="0 0 32 32" style="enable-background:new 0 0 32 32;" xml:space="preserve">

<path class="st0" d="M26,8.08V7c0-3.86-3.141-7-7-7c-3.86,0-7,3.14-7,7v20c0,1.654-1.346,3-3,3s-3-1.346-3-3V6h3  c0.552,0,1-0.448,1-1V0H0v5c0,0.552,0.448,1,1,1h3v21c0,2.757,2.243,5,5,5s5-2.243,5-5V7c0-2.757,2.243-5,5-5s5,2.243,5,5v1.08  c-3.386,0.488-6,3.401-6,6.92v3h-2v2h2v10h2v2h2v-2h2.556c0.694,1.19,1.97,2,3.444,2c2.206,0,4-1.794,4-4V15  C32,11.481,29.386,8.568,26,8.08z M2,2h6v2H2V2z M24.942,10.006h0.116c2.388,0.028,4.38,1.734,4.841,3.994h-9.798  C20.562,11.739,22.554,10.034,24.942,10.006z M20,28V16h10v8.556C29.409,24.212,28.732,24,28,24c-2.206,0-4,1.794-4,4H20z M28,30  c-1.103,0-2-0.897-2-2s0.897-2,2-2s2,0.897,2,2S29.103,30,28,30z" style="fill:#010002;;"/>
</svg>
