<?xml version="1.0" encoding="utf-8"?>
<!-- Generator: Adobe Illustrator 17.0.0, SVG Export Plug-In . SVG Version: 6.00 Build 0)  -->
<svg xmlns="http://www.w3.org/2000/svg" xmlns:xlink="http://www.w3.org/1999/xlink" version="1.1" id="Capa_1" x="0px" y="0px" width="32px" height="32px" viewBox="0 0 32 32" style="enable-background:new 0 0 32 32;" xml:space="preserve">

<path class="st0" d="M24.353,24C26.664,21.603,28,18.403,28,15c0-6.134-4.276-11.277-10-12.637V0h-6v2.363C6.276,3.723,2,8.866,2,15  c0,3.403,1.337,6.603,3.647,9H0v3c0,1.654,1.346,3,3,3h1v2h2v-2h18v2h2v-2h1c1.654,0,3-1.346,3-3v-3H24.353z M10,20h4v4h-4V20z   M16,10V4.051c1.43,0.13,2.779,0.537,4,1.164V10H16z M20,12v6h-4v-6H20z M14,10h-4V5.214c1.221-0.626,2.57-1.034,4-1.164V10z M14,12  v6h-4v-6H14z M16,20h4v4h-4V20z M22,23.458V20h2.794C24.119,21.32,23.167,22.492,22,23.458z M25.567,18H22v-6h3.574  C25.845,12.955,26,13.959,26,15C26,16.031,25.841,17.035,25.567,18z M24.786,10H22V6.521C23.151,7.474,24.098,8.66,24.786,10z   M8,6.521V10H5.214C5.902,8.66,6.849,7.474,8,6.521z M4.426,12H8v6H4.433C4.159,17.035,4,16.031,4,15  C4,13.959,4.155,12.955,4.426,12z M5.206,20H8v3.457C6.833,22.492,5.881,21.32,5.206,20z M28,27c0,0.552-0.448,1-1,1H3  c-0.551,0-1-0.448-1-1v-1h6.07H21.93H28V27z" style="fill:#010002;;"/>
</svg>
