<?xml version="1.0" encoding="utf-8"?>
<!-- Generator: Adobe Illustrator 17.0.0, SVG Export Plug-In . SVG Version: 6.00 Build 0)  -->
<svg xmlns="http://www.w3.org/2000/svg" xmlns:xlink="http://www.w3.org/1999/xlink" version="1.1" id="Capa_1" x="0px" y="0px" width="32px" height="32px" viewBox="0 0 32 32" style="enable-background:new 0 0 32 32;" xml:space="preserve">

<path class="st0" d="M6,22H4v-2h2V22z M10,20H8v2h2V20z M32,26h-2v2h-2v-2H4v2H2v-2H0V16h32V26z M30,18H2v6h28V18z M8,10  c0-0.562,0.217-0.803,0.707-1.293C9.253,8.162,10,7.414,10,6V4H8v2c0,0.562-0.217,0.803-0.707,1.293C6.747,7.838,6,8.586,6,10v2h2  V10z M16,10c0-0.562,0.217-0.803,0.707-1.293C17.253,8.162,18,7.414,18,6V4h-2v2c0,0.562-0.217,0.803-0.707,1.293  C14.747,7.838,14,8.586,14,10v2h2V10z M24,10c0-0.562,0.217-0.803,0.707-1.293C25.253,8.162,26,7.414,26,6V4h-2v2  c0,0.562-0.217,0.803-0.707,1.293C22.747,7.838,22,8.586,22,10v2h2V10z" style="fill:#010002;;"/>
</svg>
