<?xml version="1.0" encoding="utf-8"?>
<!-- Generator: Adobe Illustrator 17.0.0, SVG Export Plug-In . SVG Version: 6.00 Build 0)  -->
<svg xmlns="http://www.w3.org/2000/svg" xmlns:xlink="http://www.w3.org/1999/xlink" version="1.1" id="Capa_1" x="0px" y="0px" width="32px" height="32px" viewBox="0 0 32 32" style="enable-background:new 0 0 32 32;" xml:space="preserve">

<path class="st0" d="M4,0v32h24V0H4z M26,2v6H6V2H26z M6,30V10h20v20H6z M24,6h-4V4h4V6z M18,6h-2V4h2V6z M16,12  c-4.411,0-8,3.589-8,8s3.589,8,8,8s8-3.589,8-8S20.411,12,16,12z M16,14c2.76,0,5.084,1.875,5.781,4.416  C21.12,18.156,20.351,18,19.5,18c-1.495,0-2.971,0.815-4.266,2.356l-0.129,0.155C14.385,21.376,13.864,22,12.5,22  c-1.286,0-2.194-0.355-2.399-0.927C10.038,20.724,10,20.367,10,20C10,16.691,12.691,14,16,14z M16,26  c-1.807,0-3.427-0.807-4.528-2.075C11.799,23.969,12.138,24,12.5,24c2.301,0,3.321-1.225,4.141-2.208l0.125-0.148  C17.396,20.894,18.381,20,19.5,20c1.453,0,2.354,0.601,2.416,0.96C21.454,23.813,18.981,26,16,26z" style="fill:#010002;;"/>
</svg>
