<?xml version="1.0" encoding="utf-8"?>
<!-- Generator: Adobe Illustrator 17.0.0, SVG Export Plug-In . SVG Version: 6.00 Build 0)  -->
<svg xmlns="http://www.w3.org/2000/svg" xmlns:xlink="http://www.w3.org/1999/xlink" version="1.1" id="Capa_1" x="0px" y="0px" width="32px" height="32px" viewBox="0 0 32 32" style="enable-background:new 0 0 32 32;" xml:space="preserve">

<path class="st0" d="M26,6c-2.206,0-4,1.794-4,4v18h-1.382L20,26.764V6c0-3.309-2.691-6-6-6S8,2.691,8,6v19.586L4.914,22.5  l1.793-1.793l-1.414-1.414l-5,5l1.414,1.414L3.5,23.914l3.95,3.95L5.382,32h17.236l-1-2H24V10c0-1.103,0.897-2,2-2s2,0.897,2,2h2  C30,7.794,28.206,6,26,6z M10,14.021c2.187,0.097,3.13,0.518,4.12,0.96c0.965,0.431,1.964,0.873,3.88,0.988V26h-8V14.021z   M18,13.963c-1.466-0.103-2.223-0.433-3.064-0.808c-1.083-0.484-2.305-1.021-4.936-1.132V8h8V13.963z M14,2c2.206,0,4,1.794,4,4h-8  C10,3.794,11.794,2,14,2z M8.618,30l1-2h8.764l1,2H8.618z M14.823,19.432C15.36,20.209,16,21.285,16,22c0,1.103-0.897,2-2,2  s-2-0.897-2-2c0-0.715,0.64-1.791,1.177-2.568L14,18.241L14.823,19.432z" style="fill:#010002;;"/>
</svg>
