<?xml version="1.0" encoding="utf-8"?>
<!-- Generator: Adobe Illustrator 17.0.0, SVG Export Plug-In . SVG Version: 6.00 Build 0)  -->
<svg xmlns="http://www.w3.org/2000/svg" xmlns:xlink="http://www.w3.org/1999/xlink" version="1.1" id="Capa_1" x="0px" y="0px" width="32px" height="32px" viewBox="0 0 32 32" style="enable-background:new 0 0 32 32;" xml:space="preserve">

<path class="st0" d="M28,13c0-7.168-5.832-13-13-13C7.832,0,2,5.832,2,13c0,6.134,4.276,11.277,10,12.637V30H6v2h18v-2h-6v-4.363  C23.724,24.277,28,19.134,28,13z M15,2c5.728,0,10.442,4.402,10.949,10H21.92C21.432,8.613,18.519,6,15,6  c-3.519,0-6.432,2.613-6.92,6H4.051C4.558,6.402,9.272,2,15,2z M20,13c0,2.757-2.243,5-5,5s-5-2.243-5-5s2.243-5,5-5  S20,10.243,20,13z M4.051,14H8.08c0.488,3.387,3.401,6,6.92,6c3.519,0,6.432-2.613,6.92-6h4.029C25.442,19.598,20.728,24,15,24  S4.558,19.598,4.051,14z M14,30v-4.051C14.331,25.975,14.662,26,15,26s0.669-0.025,1-0.051V30H14z M12,13c0,1.654,1.346,3,3,3  s3-1.346,3-3s-1.346-3-3-3S12,11.346,12,13z M16,13c0,0.551-0.449,1-1,1s-1-0.449-1-1s0.449-1,1-1S16,12.449,16,13z" style="fill:#010002;;"/>
</svg>
