<?xml version="1.0" encoding="utf-8"?>
<!-- Generator: Adobe Illustrator 17.0.0, SVG Export Plug-In . SVG Version: 6.00 Build 0)  -->
<svg xmlns="http://www.w3.org/2000/svg" xmlns:xlink="http://www.w3.org/1999/xlink" version="1.1" id="Capa_1" x="0px" y="0px" width="32px" height="32px" viewBox="0 0 32 32" style="enable-background:new 0 0 32 32;" xml:space="preserve">

<path class="st0" d="M4,0v32h22V0H4z M24,2v8h-5h-8H6V2H24z M10,30v-9c0-0.552,0.449-1,1-1s1,0.448,1,1v9H10z M18,30v-9  c0-0.552,0.448-1,1-1s1,0.448,1,1v9H18z M22,30v-9c0-1.302-0.839-2.402-2-2.816V14h-2v4.184c-1.161,0.414-2,1.514-2,2.816v9h-2v-9  c0-1.302-0.839-2.402-2-2.816V14h-2v4.184C8.839,18.598,8,19.698,8,21v9H6V12h18v18H22z M14,7c0-1.654-1.346-3-3-3S8,5.346,8,7  s1.346,3,3,3S14,8.654,14,7z M11,8c-0.551,0-1-0.449-1-1s0.449-1,1-1s1,0.449,1,1S11.551,8,11,8z M22,7c0-1.654-1.346-3-3-3  s-3,1.346-3,3s1.346,3,3,3S22,8.654,22,7z M19,8c-0.552,0-1-0.449-1-1s0.448-1,1-1s1,0.449,1,1S19.552,8,19,8z" style="fill:#010002;;"/>
</svg>
