<?xml version="1.0" encoding="utf-8"?>
<!-- Generator: Adobe Illustrator 16.0.0, SVG Export Plug-In . SVG Version: 6.00 Build 0)  -->
<svg xmlns="http://www.w3.org/2000/svg" xmlns:xlink="http://www.w3.org/1999/xlink" version="1.1" id="2572889743_Capa_1_grid" x="0px" y="0px" width="32px" height="32px" viewBox="0 0 32 32" enable-background="new 0 0 32 32" xml:space="preserve">
<path d="M9,20H5c-2,0-2,2-2,2c0,2,2,2,2,2h4c0,0,2,0,2-2S9,20,9,20L9,20z M25,20h-4c-2,0-2,2-2,2c0,2,2,2,2,2h4c0,0,2,0,2-2  S25,20,25,20L25,20z M23.859,6.49C23.67,6.17,23.34,6,22.96,6c-0.36,0.01-0.69,0.23-0.851,0.55l-2,4c-0.25,0.5-0.051,1.1,0.439,1.34  c0.5,0.25,1.102,0.05,1.34-0.44l1.19-2.37L27.23,16H2.77l4.15-6.92l1.19,2.37c0.24,0.49,0.84,0.69,1.34,0.44  c0.49-0.24,0.69-0.84,0.44-1.34l-2-4C7.73,6.23,7.4,6.01,7.04,6c-0.39-0.02-0.71,0.17-0.9,0.49L0,16.721V23c0,1.73,1.04,5,5,5h4  c1.73,0,5-1.04,5-4.99c0.01-0.46,0.19-1.01,1-1.01s0.99,0.55,1,1c0,3.96,3.27,5,5,5h4c3.96,0,5-3.27,5-5v-6.32L23.859,6.49z   M28,22.99C27.99,23.5,27.82,26,25,26h-3.99C20.5,25.99,18,25.82,18,23c0-1.21-0.8-3-3-3s-3,1.79-3,3c0,2.82-2.5,2.99-3,3H5  c-2.82,0-2.99-2.5-3-3v-5h26V22.99z"/>
</svg>
