<?xml version="1.0" encoding="utf-8"?>
<!-- Generator: Adobe Illustrator 16.0.0, SVG Export Plug-In . SVG Version: 6.00 Build 0)  -->
<svg xmlns="http://www.w3.org/2000/svg" xmlns:xlink="http://www.w3.org/1999/xlink" version="1.1" id="2572889747_Capa_1_grid" x="0px" y="0px" width="32px" height="32px" viewBox="0 0 32 32" enable-background="new 0 0 32 32" xml:space="preserve">
<path d="M28,18v2H4v-2H2v8h28v-8H28z M28,24H4v-2h24V24z M0,6v10h2v-4h2v4h2V6H0z M4,10H2V8h2V10z M32,6h-6v10h6v-3.42L30.41,11  L32,9.41V6z M30,14h-2v-2.59l2,2V14z M30,8.58l-2,2V8h2V8.58z"/>
</svg>
