<?xml version="1.0" encoding="utf-8"?>
<!-- Generator: Adobe Illustrator 16.0.0, SVG Export Plug-In . SVG Version: 6.00 Build 0)  -->
<svg xmlns="http://www.w3.org/2000/svg" xmlns:xlink="http://www.w3.org/1999/xlink" version="1.1" id="2572889745_Capa_1_grid" x="0px" y="0px" width="32px" height="32px" viewBox="0 0 32 32" enable-background="new 0 0 32 32" xml:space="preserve">
<path d="M15,32C0.171,32,0,19.13,0,19V1c0-0.404,0.244-0.769,0.617-0.924c0.374-0.156,0.803-0.07,1.09,0.217  C1.741,0.326,5.612,4,15,4c9.389,0,13.259-3.674,13.297-3.711c0.288-0.28,0.721-0.365,1.09-0.208C29.757,0.237,30,0.598,30,1v18  C30,19.13,29.828,32,15,32z M2,2.961V19c0.002,0.447,0.201,11,13,11c12.854,0,13-10.551,13-11V2.961C25.896,4.23,21.75,6,15,6  S4.104,4.23,2,2.961z M9,12c1.533,0,2.284,0.991,2.651,2H6.348C6.713,12.997,7.463,12,9,12 M9,10c-5,0-5,6-5,6h10C14,16,14,10,9,10  L9,10z M21,12c1.533,0,2.284,0.991,2.65,2h-5.303C18.714,12.997,19.464,12,21,12 M21,10c-5,0-5,6-5,6h10C26,16,26,10,21,10L21,10z   M21.641,20c-0.609,1.756-2.248,4-6.641,4c-4.382,0-6.026-2.223-6.639-4H21.641 M24,18H6c0,0,0,8,9,8S24,18,24,18L24,18z"/>
</svg>
