<?xml version="1.0" encoding="utf-8"?>
<!-- Generator: Adobe Illustrator 16.0.0, SVG Export Plug-In . SVG Version: 6.00 Build 0)  -->
<svg xmlns="http://www.w3.org/2000/svg" xmlns:xlink="http://www.w3.org/1999/xlink" version="1.1" id="2572889746_Capa_1_grid" x="0px" y="0px" width="32px" height="32px" viewBox="0 0 32 32" enable-background="new 0 0 32 32" xml:space="preserve">
<path d="M30,4H2C0.9,4,0,4.9,0,6v22c0,1.1,0.9,2,2,2h28c1.1,0,2-0.9,2-2V6C32,4.9,31.1,4,30,4z M6,10h20v14h-2.38l-2-4H10.38l-2,4H6  V10z M21.38,24H10.62l1-2h8.76L21.38,24z M4,28H2V6h2V28z M30,28H6v-2h22V8H6V6h24V28z M21,12H11c-1.66,0-3,1.34-3,3s1.34,3,3,3h10  c1.66,0,3-1.34,3-3S22.66,12,21,12z M11,16c-0.55,0-1-0.45-1-1s0.45-1,1-1s1,0.45,1,1S11.55,16,11,16z M18.18,16h-4.36  c0.12-0.31,0.18-0.65,0.18-1s-0.06-0.69-0.18-1h4.36C18.061,14.31,18,14.65,18,15S18.061,15.69,18.18,16z M21,16c-0.55,0-1-0.45-1-1  s0.45-1,1-1s1,0.45,1,1S21.55,16,21,16z"/>
</svg>
