<?xml version="1.0" encoding="utf-8"?>
<!-- Generator: Adobe Illustrator 16.0.0, SVG Export Plug-In . SVG Version: 6.00 Build 0)  -->
<svg xmlns="http://www.w3.org/2000/svg" xmlns:xlink="http://www.w3.org/1999/xlink" version="1.1" id="2572889749_Capa_1_grid" x="0px" y="0px" width="32px" height="32px" viewBox="0 0 32 32" enable-background="new 0 0 32 32" xml:space="preserve">
<path d="M32,2v2h-5c-0.5,0.01-3,0.18-3,3c0,3.96-2.62,5-4,5s-4-1.04-4-5c0-4.94-4.8-5-5-5c-0.51,0.01-5,0.22-5,6H4  c0-7.91,6.93-8,7-8c2.42,0,7,1.46,7,7c0,2.97,1.92,3,2,3c0.32-0.01,2-0.2,2-3c0-3.96,3.27-5,5-5H32z M32,26v2h-5c-1.73,0-5-1.04-5-5  c0-2.971-1.92-3-2-3c-0.32,0.01-2,0.2-2,3c0,5.54-4.58,7-7,7c-0.07,0-7-0.09-7-8h2c0,5.93,4.8,6,5,6c0.51,0,5-0.18,5-5  c0-3.96,2.62-5,4-5s4,1.04,4,5c0,2.82,2.5,2.99,3.01,3H32z M0,6v18l12-9L0,6z M2,10l6.67,5L2,20V10z"/>
</svg>
