<?xml version="1.0" encoding="utf-8"?>
<!-- Generator: Adobe Illustrator 16.0.0, SVG Export Plug-In . SVG Version: 6.00 Build 0)  -->
<svg xmlns="http://www.w3.org/2000/svg" xmlns:xlink="http://www.w3.org/1999/xlink" version="1.1" id="2572889751_Capa_1_grid" x="0px" y="0px" width="32px" height="32px" viewBox="0 0 32 32" enable-background="new 0 0 32 32" xml:space="preserve">
<path d="M30,26H2v-2H0v4h32v-4h-2V26z M0,6v4h2V8h28v2h2V6H0z M19,12h-3v10h3c1.21,0,3-0.8,3-3v-4C22,13.79,21.2,12,19,12z M20,19  c0,0.8-0.55,0.99-1.01,1H18v-6h1c0.811,0,0.99,0.55,1,1V19z M12,12h2v10h-2V12z M10,12v10H8v-0.67l-2-2.66l-2,2.66V22H2V12h2v6  l2-2.67L8,18v-6H10z M26,14v2h4v2h-4v2h4v2h-6V12h6v2H26z"/>
</svg>
