<?xml version="1.0" encoding="utf-8"?>
<!-- Generator: Adobe Illustrator 16.0.0, SVG Export Plug-In . SVG Version: 6.00 Build 0)  -->
<svg xmlns="http://www.w3.org/2000/svg" xmlns:xlink="http://www.w3.org/1999/xlink" version="1.1" id="2572889753_Capa_1_grid" x="0px" y="0px" width="32px" height="32px" viewBox="0 0 32 32" enable-background="new 0 0 32 32" xml:space="preserve">
<path d="M0,6v22h30V6H0z M28,26H2V8h26V26z M16,14h2v2h-2V14z M16,18h2v2h-2V18z M4,12h2v10H4V12z M14,14v-2H8v10h6v-6h-4v-2H14z   M12,18v2h-2v-2H12z M20,12v6h4v2h-4v2h6V12H20z M24,16h-2v-2h2V16z"/>
</svg>
