<?xml version="1.0" encoding="utf-8"?>
<!-- Generator: Adobe Illustrator 16.0.0, SVG Export Plug-In . SVG Version: 6.00 Build 0)  -->
<svg xmlns="http://www.w3.org/2000/svg" xmlns:xlink="http://www.w3.org/1999/xlink" version="1.1" id="2572889765_Capa_1_grid" x="0px" y="0px" width="32px" height="32px" viewBox="0 0 32 32" enable-background="new 0 0 32 32" xml:space="preserve">
<path d="M17.45,12.11c-0.312-0.16-0.681-0.14-0.98,0.04C16.18,12.33,16,12.65,16,13v7.54C15.41,20.2,14.73,20,14,20  c-2.21,0-4,1.79-4,4s1.79,4,4,4s4-1.79,4-4v-9.38l2.55,1.27l0.9-1.78L17.45,12.11z M14,26c-1.1,0-2-0.9-2-2s0.9-2,2-2s2,0.9,2,2  S15.1,26,14,26z M28,2V0H9C5.04,0,4,3.27,4,5v22c0,1.73,1.04,5,5,5h19V8h-2V2H28z M6,5c0.01-0.52,0.19-3,3-3h15v6H9  C6.18,8,6.01,5.5,6,5.01V5z M26,30H9c-2.82,0-2.99-2.5-3-3V9.12C6.73,9.65,7.71,10,9,10h17V30z"/>
</svg>
