<?xml version="1.0" encoding="utf-8"?>
<!-- Generator: Adobe Illustrator 16.0.0, SVG Export Plug-In . SVG Version: 6.00 Build 0)  -->
<svg xmlns="http://www.w3.org/2000/svg" xmlns:xlink="http://www.w3.org/1999/xlink" version="1.1" id="2572889757_Capa_1_grid" x="0px" y="0px" width="32px" height="32px" viewBox="0 0 32 32" enable-background="new 0 0 32 32" xml:space="preserve">
<path d="M32.01,8L32,6c-0.08,0-7.51,0.12-7.98,10H7.98C7.51,6.12,0.08,6,0,6v2c0.24,0,5.56,0.09,5.97,8H0v2h6.03  c0.46,7.859,6.41,10,9.97,10c3.561,0,9.51-2.141,9.971-10H32v-2h-5.971C26.439,8.17,31.77,8,32.01,8z M16,26  c-0.79,0-7.44-0.23-7.96-8h15.92C23.439,25.77,16.79,26,16,26z"/>
</svg>
