<?xml version="1.0" encoding="utf-8"?>
<!-- Generator: Adobe Illustrator 16.0.0, SVG Export Plug-In . SVG Version: 6.00 Build 0)  -->
<svg xmlns="http://www.w3.org/2000/svg" xmlns:xlink="http://www.w3.org/1999/xlink" version="1.1" id="2572889756_Capa_1_grid" x="0px" y="0px" width="32px" height="32px" viewBox="0 0 32 32" enable-background="new 0 0 32 32" xml:space="preserve">
<path d="M32,16h-6.029C25.51,8.14,19.561,6,16,6c-3.56,0-9.51,2.14-9.97,10H0v2h5.97C5.56,25.83,0.23,26,0,26v2  c0.08,0,7.51-0.12,7.98-10h16.04c0.472,9.88,7.9,10,7.98,10v-2c-0.24,0-5.561-0.09-5.971-8H32V16z M8.04,16C8.56,8.23,15.21,8,16,8  s7.439,0.23,7.96,8H8.04z"/>
</svg>
