<?xml version="1.0" encoding="utf-8"?>
<!-- Generator: Adobe Illustrator 16.0.0, SVG Export Plug-In . SVG Version: 6.00 Build 0)  -->
<svg xmlns="http://www.w3.org/2000/svg" xmlns:xlink="http://www.w3.org/1999/xlink" version="1.1" id="2572889755_Capa_1_grid" x="0px" y="0px" width="32px" height="32px" viewBox="0 0 32 32" enable-background="new 0 0 32 32" xml:space="preserve">
<path d="M12,8v10h-2c-2.21,0-4,1.79-4,4s1.79,4,4,4s4-1.79,4-4v-8.13l8-1.72V16h-2c-2.21,0-4,1.79-4,4s1.79,4,4,4s4-1.79,4-4V6L12,8  z M12,22c0,1.1-0.9,2-2,2s-2-0.9-2-2s0.9-2,2-2h2V22z M22,20c0,1.1-0.9,2-2,2s-2-0.9-2-2s0.9-2,2-2h2V20z M22,10.13l-8,1.72V9.87  l8-1.72V10.13z M8,5c0,0.55-0.45,1-1,1H6v1c0,0.55-0.45,1-1,1S4,7.55,4,7V6H3C2.45,6,2,5.55,2,5s0.45-1,1-1h1V3c0-0.55,0.45-1,1-1  s1,0.45,1,1v1h1C7.55,4,8,4.45,8,5z M30,27c0,0.55-0.45,1-1,1h-1v1c0,0.55-0.45,1-1,1s-1-0.45-1-1v-1h-1c-0.55,0-1-0.45-1-1  s0.45-1,1-1h1v-1c0-0.55,0.45-1,1-1s1,0.45,1,1v1h1C29.55,26,30,26.45,30,27z M32,3c0,0.55-0.45,1-1,1h-1v1c0,0.55-0.45,1-1,1  s-1-0.45-1-1V4h-1c-0.55,0-1-0.45-1-1s0.45-1,1-1h1V1c0-0.55,0.45-1,1-1s1,0.45,1,1v1h1C31.55,2,32,2.45,32,3z M6,29  c0,0.55-0.45,1-1,1H4v1c0,0.55-0.45,1-1,1s-1-0.45-1-1v-1H1c-0.55,0-1-0.45-1-1s0.45-1,1-1h1v-1c0-0.55,0.45-1,1-1s1,0.45,1,1v1h1  C5.55,28,6,28.45,6,29z"/>
</svg>
