<?xml version="1.0" encoding="utf-8"?>
<!-- Generator: Adobe Illustrator 16.0.0, SVG Export Plug-In . SVG Version: 6.00 Build 0)  -->
<svg xmlns="http://www.w3.org/2000/svg" xmlns:xlink="http://www.w3.org/1999/xlink" version="1.1" id="2572889763_Capa_1_grid" x="0px" y="0px" width="32px" height="32px" viewBox="0 0 32 32" enable-background="new 0 0 32 32" xml:space="preserve">
<path d="M30.41,27l-4.7,4.71l-1.42-1.42l2.3-2.29H5.41l2.3,2.29l-1.42,1.42L1.59,27l4.7-4.71l1.42,1.42L5.41,26h21.18l-2.3-2.29  l1.42-1.42L30.41,27z M28.41,17l-4.7,4.71l-1.42-1.42l2.3-2.29H7.41l2.3,2.29l-1.42,1.42L3.59,17l4.7-4.71l1.42,1.42L7.41,16h17.18  l-2.3-2.29l1.42-1.42L28.41,17z M26.41,7l-4.7,4.71l-1.42-1.42L22.59,8H9.41l2.3,2.29l-1.42,1.42L5.59,7l4.7-4.71l1.42,1.42L9.41,6  h13.18l-2.3-2.29l1.42-1.42L26.41,7z"/>
</svg>
