<?xml version="1.0" encoding="utf-8"?>
<!-- Generator: Adobe Illustrator 16.0.0, SVG Export Plug-In . SVG Version: 6.00 Build 0)  -->
<svg xmlns="http://www.w3.org/2000/svg" xmlns:xlink="http://www.w3.org/1999/xlink" version="1.1" id="2572889774_Capa_1_grid" x="0px" y="0px" width="32px" height="32px" viewBox="0 0 32 32" enable-background="new 0 0 32 32" xml:space="preserve">
<path d="M5,30.41l-4.71-4.7l1.42-1.42L4,26.59V7.41l-2.29,2.3L0.29,8.29L5,3.59l4.71,4.7L8.29,9.71L6,7.41v19.18l2.29-2.3l1.42,1.42  L5,30.41z M24,20h2l6,2V12l-6,2h-2v-4H10v14h14V20z M30,19.23l-2-0.67V15.44l2-0.67V19.23z M26,18h-2v-2h2V18z M12,22V12h10v10H12z"/>
</svg>
