<?xml version="1.0" encoding="utf-8"?>
<!-- Generator: Adobe Illustrator 16.0.0, SVG Export Plug-In . SVG Version: 6.00 Build 0)  -->
<svg xmlns="http://www.w3.org/2000/svg" xmlns:xlink="http://www.w3.org/1999/xlink" version="1.1" id="2572889775_Capa_1_grid" x="0px" y="0px" width="32px" height="32px" viewBox="0 0 32 32" enable-background="new 0 0 32 32" xml:space="preserve">
<path d="M24,2c-6.061,0-7.53,4.07-7.89,6H3c-2.2,0-3,1.79-3,3v10c0,0.12,0.02,0.77,0.35,1.45C0.86,23.45,1.79,24,3,24h13v6h16V9  C32,8.93,31.91,2,24,2z M16,22H3c-0.81,0-0.99-0.55-1-1v-9.99C2.01,10.55,2.19,10,3,10h13V22z M30,28H18v-2h12V28z M30,24H18V9  c0-0.2,0.07-5,6-5c5.779,0,6,4.49,6,5V24z M24,6c-2.21,0-4,1.79-4,4s1.79,4,4,4s4-1.79,4-4S26.21,6,24,6z M24,12c-1.1,0-2-0.9-2-2  s0.9-2,2-2s2,0.9,2,2S25.1,12,24,12z M4,12v8h10v-8H4z M12,18H6v-4h6V18z"/>
</svg>
