<?xml version="1.0" encoding="utf-8"?>
<!-- Generator: Adobe Illustrator 16.0.0, SVG Export Plug-In . SVG Version: 6.00 Build 0)  -->
<svg xmlns="http://www.w3.org/2000/svg" xmlns:xlink="http://www.w3.org/1999/xlink" version="1.1" id="2572889777_Capa_1_grid" x="0px" y="0px" width="32px" height="32px" viewBox="0 0 32 32" enable-background="new 0 0 32 32" xml:space="preserve">
<path d="M6,8v18h22V8H6z M26,24H8v-1.88l4-2l3.55,1.771C15.69,21.96,15.85,22,16,22c0.22,0,0.44-0.07,0.62-0.221l4.43-3.539  L26,21.529V24z M26,19.141l-4.45-2.971c-0.358-0.24-0.829-0.22-1.17,0.05l-4.5,3.6l-3.43-1.711c-0.28-0.149-0.62-0.149-0.9,0  L8,19.891V10h18V19.141z M30,4H4C2.9,4,2,4.9,2,6v6H0v2h2v6H0v2h2v6c0,1.1,0.9,2,2,2h26c1.1,0,2-0.9,2-2V6C32,4.9,31.1,4,30,4z   M30,28H4V6h26V28z M14,14c0,1.1-0.9,2-2,2s-2-0.9-2-2s0.9-2,2-2S14,12.9,14,14z"/>
</svg>
