<?xml version="1.0" encoding="utf-8"?>
<!-- Generator: Adobe Illustrator 16.0.0, SVG Export Plug-In . SVG Version: 6.00 Build 0)  -->
<svg xmlns="http://www.w3.org/2000/svg" xmlns:xlink="http://www.w3.org/1999/xlink" version="1.1" id="2572889776_Capa_1_grid" x="0px" y="0px" width="32px" height="32px" viewBox="0 0 32 32" enable-background="new 0 0 32 32" xml:space="preserve">
<path d="M30,6H10V4H4v2H2C0,6,0,8,0,8v18c0,2,2,2,2,2h28c2,0,2-2,2-2V8C32,6,30,6,30,6z M30,25.96c0,0.011,0,0.021-0.01,0.04H2.04  C2.03,26,2.02,26,2,25.99V8.04C2,8.03,2,8.02,2.01,8h27.95C29.971,8,29.98,8,30,8.01V25.96z M17,12c2.757,0,5,2.243,5,5  s-2.243,5-5,5s-5-2.243-5-5S14.243,12,17,12L17,12z M17,10c-3.866,0-7,3.134-7,7s3.134,7,7,7s7-3.134,7-7S20.866,10,17,10L17,10z   M24,10h4v2h-4V10z"/>
</svg>
