<?xml version="1.0" encoding="utf-8"?>
<!-- Generator: Adobe Illustrator 16.0.0, SVG Export Plug-In . SVG Version: 6.00 Build 0)  -->
<svg xmlns="http://www.w3.org/2000/svg" xmlns:xlink="http://www.w3.org/1999/xlink" version="1.1" id="2572889778_Capa_1_grid" x="0px" y="0px" width="32px" height="32px" viewBox="0 0 32 32" enable-background="new 0 0 32 32" xml:space="preserve">
<path d="M0,14v18h24V14H0z M22,30H2v-8h20V30z M22,20H2v-4h20V20z M32,2v18h-6v-2h4v-2h-4v-2h4V4H10v8H8V2H32z M25,6H15  c-1.66,0-3,1.34-3,3s1.34,3,3,3h10c1.66,0,3-1.34,3-3S26.66,6,25,6z M15,10c-0.55,0-1-0.45-1-1s0.45-1,1-1s1,0.45,1,1  S15.55,10,15,10z M22.18,10H17.82C17.939,9.69,18,9.35,18,9s-0.061-0.69-0.18-1h4.359C22.061,8.31,22,8.65,22,9  S22.061,9.69,22.18,10z M25,10c-0.55,0-1-0.45-1-1s0.45-1,1-1s1,0.45,1,1S25.55,10,25,10z"/>
</svg>
