<?xml version="1.0" encoding="utf-8"?>
<!-- Generator: Adobe Illustrator 16.0.0, SVG Export Plug-In . SVG Version: 6.00 Build 0)  -->
<svg xmlns="http://www.w3.org/2000/svg" xmlns:xlink="http://www.w3.org/1999/xlink" version="1.1" id="2572889779_Capa_1_grid" x="0px" y="0px" width="32px" height="32px" viewBox="0 0 32 32" enable-background="new 0 0 32 32" xml:space="preserve">
<path d="M0,2v30h32V2H0z M8.03,30c0.36-4.98,3.31-7.07,4.65-7.76L16,26.67l3.32-4.43c1.33,0.699,4.289,2.81,4.64,7.76H8.03z M30,30  h-4.029c-0.471-7.8-6.391-9.859-6.65-9.95l-0.689-0.229L16,23.33l-2.63-3.51l-0.69,0.229C12.42,20.141,6.5,22.2,6.03,30H2V4h28V30z   M16,6c-3.31,0-6,3.13-6,7s2.69,7,6,7c3.311,0,6-3.13,6-7S19.311,6,16,6z M16,18c-2.21,0-4-2.24-4-5s1.79-5,4-5s4,2.24,4,5  S18.21,18,16,18z"/>
</svg>
