<?xml version="1.0" encoding="utf-8"?>
<!-- Generator: Adobe Illustrator 16.0.0, SVG Export Plug-In . SVG Version: 6.00 Build 0)  -->
<svg xmlns="http://www.w3.org/2000/svg" xmlns:xlink="http://www.w3.org/1999/xlink" version="1.1" id="2572889782_Capa_1_grid" x="0px" y="0px" width="32px" height="32px" viewBox="0 0 32 32" enable-background="new 0 0 32 32" xml:space="preserve">
<path d="M15,2C6.72,2,0,8.72,0,17c0,8.279,6.72,15,15,15c8.279,0,15-6.721,15-15C30,8.72,23.279,2,15,2z M24.87,8.55  c1.75,2.04,2.88,4.62,3.09,7.45h-2.01c-0.2-2.29-1.101-4.37-2.49-6.04L24.87,8.55z M19.18,19.76c0.34-0.529,0.59-1.119,0.721-1.76  h4.041c-0.19,1.73-0.871,3.32-1.91,4.609L19.18,19.76z M20.609,24.029C19.32,25.07,17.73,25.75,16,25.939V21.9  c0.641-0.131,1.23-0.381,1.76-0.721L20.609,24.029z M19.9,16c-0.131-0.64-0.381-1.23-0.721-1.76l2.85-2.85  c1.041,1.29,1.721,2.88,1.91,4.61H19.9z M16,4.05c2.83,0.2,5.41,1.33,7.45,3.08l-1.41,1.41C20.37,7.15,18.29,6.25,16,6.05V4.05z   M16,8.06c1.73,0.19,3.32,0.87,4.609,1.91l-2.851,2.85c-0.528-0.34-1.12-0.59-1.76-0.72L16,8.06L16,8.06z M14,4.05v2  c-2.29,0.2-4.37,1.1-6.04,2.49L6.55,7.13C8.59,5.38,11.17,4.25,14,4.05z M10.1,16H6.06c0.19-1.73,0.87-3.32,1.91-4.61l2.85,2.85  C10.48,14.77,10.23,15.36,10.1,16z M10.82,19.76l-2.85,2.85C6.93,21.32,6.25,19.73,6.06,18h4.04  C10.23,18.641,10.48,19.23,10.82,19.76z M9.39,9.97c1.29-1.04,2.88-1.72,4.61-1.91v4.04c-0.64,0.13-1.23,0.38-1.76,0.72L9.39,9.97z   M5.13,8.55l1.41,1.41C5.15,11.63,4.25,13.71,4.05,16h-2C2.25,13.17,3.38,10.59,5.13,8.55z M5.13,25.45  C3.38,23.41,2.25,20.83,2.05,18h2c0.2,2.29,1.1,4.37,2.49,6.04L5.13,25.45z M14,29.96c-2.83-0.21-5.41-1.34-7.45-3.09l1.41-1.41  c1.67,1.39,3.75,2.29,6.04,2.49V29.96z M14,25.939c-1.73-0.189-3.32-0.869-4.61-1.91l2.85-2.85c0.53,0.34,1.12,0.59,1.76,0.721  V25.939z M12,17c0-1.65,1.35-3,3-3c1.65,0,3,1.35,3,3c0,1.65-1.35,3-3,3C13.35,20,12,18.65,12,17z M16,29.96v-2.01  c2.29-0.2,4.37-1.101,6.04-2.49l1.41,1.41C21.41,28.62,18.83,29.75,16,29.96z M24.87,25.45l-1.41-1.41  c1.39-1.67,2.29-3.75,2.49-6.04h2.01C27.75,20.83,26.62,23.41,24.87,25.45z"/>
</svg>
