<?xml version="1.0" encoding="utf-8"?>
<!-- Generator: Adobe Illustrator 16.0.0, SVG Export Plug-In . SVG Version: 6.00 Build 0)  -->
<svg xmlns="http://www.w3.org/2000/svg" xmlns:xlink="http://www.w3.org/1999/xlink" version="1.1" id="2572889780_Capa_1_grid" x="0px" y="0px" width="32px" height="32px" viewBox="0 0 32 32" enable-background="new 0 0 32 32" xml:space="preserve">
<path d="M2,2C0,2,0,4,0,4v23c0,2.2,1.92,3,3.21,3H29c2.2,0,3-1.79,3-3V2H2z M22.38,4l1,2h-3.76l-1-2H22.38z M19.62,8h3.76l-1,2  h-3.76L19.62,8z M16.38,4l1,2H10.5L9,4H16.38z M17.38,8l-1,2H13.5L12,8H17.38z M2,4.04C2,4.03,2,4.02,2.01,4H6.5l4.5,6H2V4.04z   M30,26.99C29.99,27.45,29.811,28,29,28H3.21C3.01,28,2,27.95,2,27V12h28V26.99z M30,10h-5.38l1-2H30V10z M30,6h-4.38l-1-2H30V6z   M5,6c0.552,0,1,0.448,1,1S5.552,8,5,8S4,7.552,4,7S4.448,6,5,6z M4,14v8h24v-8H4z M26,20H6v-4h20V20z M4,24h24v2H4V24z"/>
</svg>
