<?xml version="1.0" encoding="utf-8"?>
<!-- Generator: Adobe Illustrator 16.0.0, SVG Export Plug-In . SVG Version: 6.00 Build 0)  -->
<svg xmlns="http://www.w3.org/2000/svg" xmlns:xlink="http://www.w3.org/1999/xlink" version="1.1" id="2572889783_Capa_1_grid" x="0px" y="0px" width="32px" height="32px" viewBox="0 0 32 32" enable-background="new 0 0 32 32" xml:space="preserve">
<path d="M15,2C6.72,2,0,8.72,0,17c0,8.279,6.72,15,15,15c8.279,0,15-6.721,15-15C30,8.72,23.279,2,15,2z M26,10.08  c0.391,0.61,0.721,1.25,1,1.92h-1V10.08z M15,4c3.68,0,7.01,1.54,9.37,4H5.63C7.99,5.54,11.32,4,15,4z M24,10v2h-2v-2H24z M20,10v2  h-2v-2H20z M16,10v2h-2v-2H16z M12,10v2h-2v-2H12z M8,10v2H6v-2H8z M4,10.08V12H3C3.28,11.33,3.61,10.69,4,10.08z M4,23.92  C3.61,23.311,3.28,22.67,3,22h1V23.92z M15,30c-3.68,0-7.01-1.54-9.37-4h18.74C22.01,28.46,18.68,30,15,30z M6,24v-2h2v2H6z M10,24  v-2h2v2H10z M14,24v-2h2v2H14z M18,24v-2h2v2H18z M22,24v-2h2v2H22z M26,23.92V22h1C26.721,22.67,26.391,23.311,26,23.92z M2.35,20  C2.12,19.04,2,18.029,2,17c0-1.03,0.12-2.04,0.35-3h25.3C27.88,14.96,28,15.97,28,17c0,1.029-0.12,2.04-0.35,3H2.35z"/>
</svg>
