<?xml version="1.0" encoding="utf-8"?>
<!-- Generator: Adobe Illustrator 16.0.0, SVG Export Plug-In . SVG Version: 6.00 Build 0)  -->
<svg xmlns="http://www.w3.org/2000/svg" xmlns:xlink="http://www.w3.org/1999/xlink" version="1.1" id="2572889784_Capa_1_grid" x="0px" y="0px" width="32px" height="32px" viewBox="0 0 32 32" enable-background="new 0 0 32 32" xml:space="preserve">
<path d="M24,6c0.668,0,4,0.193,4,4v12c0,0.668-0.191,4-4,4H6c-0.668,0-4-0.191-4-4V10c0-0.668,0.193-4,4-4H24 M24,4H6c-6,0-6,6-6,6  v12c0,6,6,6,6,6s12,0,18,0s6-6,6-6s0-6,0-12S24,4,24,4L24,4z M11,22c-2.201,0-3-1.794-3-3v-6c0-1.206,0.799-3,3-3s3,1.794,3,3v1h-2  v-1c-0.012-0.45-0.195-1-1-1s-0.988,0.55-1,1.012V19c0.012,0.45,0.195,1,1,1s0.988-0.55,1-1.012V18h2v1C14,20.206,13.201,22,11,22z   M19,22c-2.201,0-3-1.794-3-3v-6c0-1.206,0.799-3,3-3s3,1.794,3,3v1h-2v-1c-0.012-0.45-0.193-1-1-1s-0.988,0.55-1,1.012V19  c0.012,0.45,0.193,1,1,1s0.988-0.55,1-1.012V18h2v1C22,20.206,21.201,22,19,22z"/>
</svg>
