<?xml version="1.0" encoding="utf-8"?>
<!-- Generator: Adobe Illustrator 16.0.0, SVG Export Plug-In . SVG Version: 6.00 Build 0)  -->
<svg xmlns="http://www.w3.org/2000/svg" xmlns:xlink="http://www.w3.org/1999/xlink" version="1.1" id="2572889788_Capa_1_grid" x="0px" y="0px" width="32px" height="32px" viewBox="0 0 32 32" enable-background="new 0 0 32 32" xml:space="preserve">
<path d="M0,2v10h2v-2h4v2h2V4h16v16h-6v2h14V2H0z M6,8H2V4h4V8z M26,4h4v4h-4V4z M30,20h-4v-4h4V20z M30,14h-4v-4h4V14z M14,16v12H2  V16H14L14,16z M16,14H0v16h16V14L16,14z M8,18c2.206,0,4,1.794,4,4s-1.794,4-4,4s-4-1.794-4-4S5.794,18,8,18L8,18z M8,16  c-3.313,0-6,2.688-6,6s2.687,6,6,6s6-2.688,6-6S11.313,16,8,16L8,16z"/>
</svg>
