<?xml version="1.0" encoding="utf-8"?>
<!-- Generator: Adobe Illustrator 16.0.0, SVG Export Plug-In . SVG Version: 6.00 Build 0)  -->
<svg xmlns="http://www.w3.org/2000/svg" xmlns:xlink="http://www.w3.org/1999/xlink" version="1.1" id="2572889787_Capa_1_grid" x="0px" y="0px" width="32px" height="32px" viewBox="0 0 32 32" enable-background="new 0 0 32 32" xml:space="preserve">
<path d="M31.971,30.77C31.9,28.75,30.859,14,16.98,14c-14.831,0-15,16.83-15,17c0,0.55,0.45,1,1,1h8c0.55,0,1-0.45,1-1  c0-0.279,0.08-7,5-7c4.92,0,5,6.721,5,7c0,0.55,0.449,1,1,1h8c0.01,0,0.01,0,0.02,0c0.551,0,1-0.45,1-1  C32,30.92,31.99,30.85,31.971,30.77z M23.932,30c-0.281-3.221-1.961-8-6.951-8c-4.989,0-6.669,4.779-6.95,8h-2  c0.24-2.721,1.56-10,8.95-10c7.371,0,8.711,7.279,8.951,10H23.932z M27.939,30c-0.31-4.65-2.869-12-10.959-12  C8.89,18,6.33,25.35,6.02,30H4.03c0.25-3.38,1.93-14,12.951-14C27.99,16,29.68,26.62,29.93,30H27.939z M7,14.414L2.293,9.707  l1.414-1.414L7,11.586L18.293,0.293l1.414,1.414L7,14.414z"/>
</svg>
