<?xml version="1.0" encoding="utf-8"?>
<!-- Generator: Adobe Illustrator 16.0.0, SVG Export Plug-In . SVG Version: 6.00 Build 0)  -->
<svg xmlns="http://www.w3.org/2000/svg" xmlns:xlink="http://www.w3.org/1999/xlink" version="1.1" id="2572889786_Capa_1_grid" x="0px" y="0px" width="32px" height="32px" viewBox="0 0 32 32" enable-background="new 0 0 32 32" xml:space="preserve">
<path d="M30,22v6h-2v-2H2v2H0v-6h2v2h26v-2H30z M12,30H6l3-4L12,30z M18,20l-3,4l-3-4H18z M15,0c-4.96,0-9,4.04-9,9s4.04,9,9,9  s9-4.04,9-9S19.96,0,15,0z M15,16c-3.86,0-7-3.14-7-7s3.14-7,7-7c3.859,0,7,3.14,7,7S18.859,16,15,16z"/>
</svg>
