<?xml version="1.0" encoding="utf-8"?>
<!-- Generator: Adobe Illustrator 16.0.0, SVG Export Plug-In . SVG Version: 6.00 Build 0)  -->
<svg xmlns="http://www.w3.org/2000/svg" xmlns:xlink="http://www.w3.org/1999/xlink" version="1.1" id="2572889785_Capa_1_grid" x="0px" y="0px" width="32px" height="32px" viewBox="0 0 32 32" enable-background="new 0 0 32 32" xml:space="preserve">
<path d="M29.99,18.77C29.92,16.75,28.88,2,15,2C0.17,2,0,18.83,0,19c0,0.55,0.45,1,1,1h8c0.55,0,1-0.45,1-1c0-0.279,0.08-7,5-7  s5,6.721,5,7c0,0.55,0.45,1,1,1h8c0.01,0,0.01,0,0.02,0c0.551,0,1-0.45,1-1C30.02,18.92,30.01,18.85,29.99,18.77z M21.95,18  c-0.28-3.22-1.96-8-6.95-8s-6.67,4.78-6.95,8h-2C6.29,15.28,7.61,8,15,8c7.37,0,8.71,7.28,8.95,10H21.95z M25.96,18  C25.65,13.35,23.09,6,15,6S4.35,13.35,4.04,18H2.05C2.3,14.62,3.98,4,15,4c11.01,0,12.7,10.62,12.95,14H25.96z M30,22v6h-2v-2H2v2H0  v-6h2v2h26v-2H30z M12,30H6l3-4L12,30z M18,20l-3,4l-3-4H18z"/>
</svg>
