<?xml version="1.0" encoding="utf-8"?>
<!-- Generator: Adobe Illustrator 16.0.0, SVG Export Plug-In . SVG Version: 6.00 Build 0)  -->
<svg xmlns="http://www.w3.org/2000/svg" xmlns:xlink="http://www.w3.org/1999/xlink" version="1.1" id="2572889790_Capa_1_grid" x="0px" y="0px" width="32px" height="32px" viewBox="0 0 32 32" enable-background="new 0 0 32 32" xml:space="preserve">
<path d="M31.113,12.2c-0.391-0.39-1.021-0.39-1.409,0l-3.95,3.95l-4.24-4.23l4.2-4.21c0.39-0.39,0.39-1.03,0-1.42s-1.03-0.39-1.42,0  l-4.2,4.21l-4.24-4.25l3.951-3.95c0.391-0.39,0.391-1.02,0-1.41c-0.391-0.39-1.021-0.39-1.421,0l-3.94,3.95l-2.83-2.83l-6.48,6.48  l-3.23,6.44l1.22,1.22l-2.83,2.831l1.42,1.41l2.83-2.82l1.21,1.211l3.62-1.811l-1.81,3.62l1.22,1.22l-8.49,8.48l1.42,1.42  l8.49-8.479l1.21,1.209l3.61-1.801l-1.8,3.61l1.22,1.22l-2.83,2.82l1.41,1.42l2.83-2.83l1.22,1.221l6.439-3.229l6.479-6.479  l-2.82-2.819l3.94-3.95C31.504,13.22,31.504,12.59,31.113,12.2z M17.264,10.49l4.25,4.25l-1.42,1.41l-4.24-4.24L17.264,10.49z   M11.614,4.84l4.24,4.24l-1.41,1.41l-4.25-4.24L11.614,4.84z M6.154,16.35l-1.81-1.81l2.43-4.87l2.01-2l4.24,4.24l-2.01,2  L6.154,16.35z M11.804,22.01l-1.8-1.81l2.43-4.87l2.01-2.01l4.24,4.241v0.01l-2.01,2L11.804,22.01z M22.334,25.23l-4.87,2.43  l-1.81-1.811l2.44-4.859l2-2.01l4.24,4.238L22.334,25.23z M25.754,21.811l-4.24-4.24l1.41-1.419l2.12,2.121l2.12,2.119  L25.754,21.811z"/>
</svg>
