<?xml version="1.0" encoding="utf-8"?>
<!-- Generator: Adobe Illustrator 16.0.0, SVG Export Plug-In . SVG Version: 6.00 Build 0)  -->
<svg xmlns="http://www.w3.org/2000/svg" xmlns:xlink="http://www.w3.org/1999/xlink" version="1.1" id="2572889791_Capa_1_grid" x="0px" y="0px" width="32px" height="32px" viewBox="0 0 32 32" enable-background="new 0 0 32 32" xml:space="preserve">
<path d="M29.71,2.29c-1.53-1.53-3.46-0.86-4.42,0l-6.04,6.04L16.5,5.58l-6.43,6.45l-6.37,9.08L6.59,24l-6.3,6.29l1.42,1.42l6.3-6.29  l2.88,2.88l8.95-6.26l6.58-6.54l-2.75-2.75l6.08-6.08C30.57,5.74,31.23,3.82,29.71,2.29z M18.62,20.45l-7.51,5.25l-4.81-4.81  l5.25-7.511l2.2-2.21l7.08,7.08L18.62,20.45z M22.25,16.83l-7.08-7.08l1.33-1.33l7.08,7.08L22.25,16.83z M28.29,5.29l-6.04,6.04  l-1.58-1.58l6-6c0.141-0.14,0.91-0.75,1.62-0.04C28.95,4.37,28.48,5.07,28.29,5.29z"/>
</svg>
