<?xml version="1.0" encoding="utf-8"?>
<!-- Generator: Adobe Illustrator 16.0.0, SVG Export Plug-In . SVG Version: 6.00 Build 0)  -->
<svg xmlns="http://www.w3.org/2000/svg" xmlns:xlink="http://www.w3.org/1999/xlink" version="1.1" id="2572889792_Capa_1_grid" x="0px" y="0px" width="32px" height="32px" viewBox="0 0 32 32" enable-background="new 0 0 32 32" xml:space="preserve">
<path d="M18.01,10V3c0-1.21-0.8-3-3-3c-2.2,0-3,1.79-3,3v7H8v9l1.97,8.93h4.04V32h2v-4.07h4.051l1.931-8.709L22.02,10H18.01z   M14.01,3.01C14.02,2.55,14.2,2,15.01,2c0.81,0,0.99,0.55,1,1v7h-2V3.01z M20.01,18.891l-1.56,7.039h-6.88L10,18.891V16h10.01  V18.891z M20.01,14H10v-2h10.02L20.01,14z"/>
</svg>
