<?xml version="1.0" encoding="utf-8"?>
<!-- Generator: Adobe Illustrator 16.0.0, SVG Export Plug-In . SVG Version: 6.00 Build 0)  -->
<svg xmlns="http://www.w3.org/2000/svg" xmlns:xlink="http://www.w3.org/1999/xlink" version="1.1" id="2572889789_Capa_1_grid" x="0px" y="0px" width="32px" height="32px" viewBox="0 0 32 32" enable-background="new 0 0 32 32" xml:space="preserve">
<path d="M24,10V3c0-0.55-0.45-1-1-1s-1,0.45-1,1v7h-6V3c0-0.55-0.45-1-1-1s-1,0.45-1,1v7H8V3c0-0.55-0.45-1-1-1S6,2.45,6,3v7H2  v11.16L4.28,28H6v4h2v-4h1.72L11,24.16L12.28,28H14v4h2v-4h1.721L19,24.16L20.279,28H22v4h2v-4h1.721L28,21.16V10H24z M10,20.84  L8.28,26H5.72L4,20.84V16h6V20.84z M10,14H4v-2h6V14z M18,20.84L16.28,26h-2.56L12,20.84V16h6V20.84z M18,14h-6v-2h6V14z M26,20.84  L24.279,26h-2.559L20,20.84V16h6V20.84z M26,14h-6v-2h6V14z"/>
</svg>
