<?xml version="1.0" encoding="utf-8"?>
<!-- Generator: Adobe Illustrator 16.0.0, SVG Export Plug-In . SVG Version: 6.00 Build 0)  -->
<svg xmlns="http://www.w3.org/2000/svg" xmlns:xlink="http://www.w3.org/1999/xlink" version="1.1" id="2572889802_Capa_1_grid" x="0px" y="0px" width="32px" height="32px" viewBox="0 0 32 32" enable-background="new 0 0 32 32" xml:space="preserve">
<path d="M18,8V6l2-6H10l2,6v2H8v14h14V8H18z M17.23,2l-0.67,2H13.44l-0.67-2H17.23z M16,6v2h-2V6H16z M20,20H10V10h10V20z M28.41,27  l-4.7,4.71l-1.42-1.42l2.3-2.29H5.41l2.3,2.29l-1.42,1.42L1.59,27l4.7-4.71l1.42,1.42L5.41,26h19.18l-2.3-2.29l1.42-1.42L28.41,27z"/>
</svg>
