<?xml version="1.0" encoding="utf-8"?>
<!-- Generator: Adobe Illustrator 16.0.0, SVG Export Plug-In . SVG Version: 6.00 Build 0)  -->
<svg xmlns="http://www.w3.org/2000/svg" xmlns:xlink="http://www.w3.org/1999/xlink" version="1.1" id="2572889803_Capa_1_grid" x="0px" y="0px" width="32px" height="32px" viewBox="0 0 32 32" enable-background="new 0 0 32 32" xml:space="preserve">
<path d="M28,6v20H2V6H28 M30,4H0v24h30V4L30,4z M10,8h10v2H10V8z M10,14h4v2h-4V14z M8,22h6v2H8V22z M16,22h6v2h-6V22z M16,14h8v2  h-8V14z M8,18h6v2H8V18z M16,18h4v2h-4V18z"/>
</svg>
