<?xml version="1.0" encoding="utf-8"?>
<!-- Generator: Adobe Illustrator 16.0.0, SVG Export Plug-In . SVG Version: 6.00 Build 0)  -->
<svg xmlns="http://www.w3.org/2000/svg" xmlns:xlink="http://www.w3.org/1999/xlink" version="1.1" id="2572889804_Capa_1_grid" x="0px" y="0px" width="32px" height="32px" viewBox="0 0 32 32" enable-background="new 0 0 32 32" xml:space="preserve">
<path d="M32,10V8c-4.42,0-6.45,4.13-8.16,8H10.16C8.45,12.13,6.42,8,2,8V2H0v30h2V18h6.84c1.71,3.87,3.74,8,8.16,8s6.45-4.13,8.16-8  H32v-2h-5.96C27.5,12.75,29.07,10,32,10z M2,16v-6c2.93,0,4.5,2.75,5.96,6H2z M17,24c-2.93,0-4.5-2.75-5.96-6h11.92  C21.5,21.25,19.93,24,17,24z"/>
</svg>
