<?xml version="1.0" encoding="utf-8"?>
<!-- Generator: Adobe Illustrator 16.0.0, SVG Export Plug-In . SVG Version: 6.00 Build 0)  -->
<svg xmlns="http://www.w3.org/2000/svg" xmlns:xlink="http://www.w3.org/1999/xlink" version="1.1" id="2572889805_Capa_1_grid" x="0px" y="0px" width="32px" height="32px" viewBox="0 0 32 32" enable-background="new 0 0 32 32" xml:space="preserve">
<path d="M0,2v14h32V2H0z M2,4h4v4H2V4z M6,14H2v-4h4V14z M24,14H8V4h16V14z M30,14h-4v-4h4V14z M30,8h-4V4h4V8z M0,18v14h32V18H0z   M6,30H2v-4h4V30z M6,24H2v-4h4V24z M24,30H8V20h16V30z M30,30h-4v-4h4V30z M30,24h-4v-4h4V24z"/>
</svg>
