<?xml version="1.0" encoding="utf-8"?>
<!-- Generator: Adobe Illustrator 16.0.0, SVG Export Plug-In . SVG Version: 6.00 Build 0)  -->
<svg xmlns="http://www.w3.org/2000/svg" xmlns:xlink="http://www.w3.org/1999/xlink" version="1.1" id="2572889806_Capa_1_grid" x="0px" y="0px" width="32px" height="32px" viewBox="0 0 32 32" enable-background="new 0 0 32 32" xml:space="preserve">
<path d="M2,6v15.141L7,17.8l6.55,4.37l-1.1,1.66L7,20.2l-5,3.329V28h12v2H0V4h14v2H2z M7,8c-1.66,0-3,1.34-3,3s1.34,3,3,3  s3-1.34,3-3S8.66,8,7,8z M7,12c-0.55,0-1-0.45-1-1s0.45-1,1-1s1,0.45,1,1S7.55,12,7,12z M16,4h14v2H16V4z M16,8h14v2H16V8z M16,12  h14v2H16V12z M16,16h14v2H16V16z M16,20h14v2H16V20z M16,24h14v2H16V24z M16,28h14v2H16V28z"/>
</svg>
