<?xml version="1.0" encoding="utf-8"?>
<!-- Generator: Adobe Illustrator 16.0.0, SVG Export Plug-In . SVG Version: 6.00 Build 0)  -->
<svg xmlns="http://www.w3.org/2000/svg" xmlns:xlink="http://www.w3.org/1999/xlink" version="1.1" id="2572889807_Capa_1_grid" x="0px" y="0px" width="32px" height="32px" viewBox="0 0 32 32" enable-background="new 0 0 32 32" xml:space="preserve">
<path d="M5,20c0.552,0,1,0.447,1,1s-0.448,1-1,1s-1-0.447-1-1S4.448,20,5,20z M19.83,10C19.4,8.54,17.96,6,13,6s-6.4,2.54-6.83,4H0  v16h4v2h4v-2h16v2h4v-2h4V10H19.83z M30,24H14v-2.1c1.96-0.4,3.5-1.94,3.9-3.9H20v-2h-2.1c-0.4-1.96-1.94-3.5-3.9-3.9V10h-2v2.1  c-1.96,0.4-3.5,1.94-3.9,3.9H6v2h2.1c0.4,1.96,1.94,3.5,3.9,3.9V24H2V12h5l0.97-0.01L8,11.01C8.01,10.7,8.22,8,13,8  c4.779,0,4.99,2.7,5,3v1h12V24z M13,20c-1.65,0-3-1.35-3-3c0-1.65,1.35-3,3-3s3,1.35,3,3C16,18.65,14.65,20,13,20z M22,20h6v2h-6V20  z M22,16h6v2h-6V16z"/>
</svg>
