<?xml version="1.0" encoding="utf-8"?>
<!-- Generator: Adobe Illustrator 16.0.0, SVG Export Plug-In . SVG Version: 6.00 Build 0)  -->
<svg xmlns="http://www.w3.org/2000/svg" xmlns:xlink="http://www.w3.org/1999/xlink" version="1.1" id="2572889808_Capa_1_grid" x="0px" y="0px" width="32px" height="32px" viewBox="0 0 32 32" enable-background="new 0 0 32 32" xml:space="preserve">
<path d="M12,22v-8l4,4L12,22z M6,22v-8l4,4L6,22z M22,18l-4-4v8L22,18z M28,18l-4-4v8L28,18z M12.43,24C10.79,25.891,8.4,25.99,8,26  c-0.28,0-6-0.1-6-7C2,14.58,6.24,8.79,8,6.57c0.89,1.12,2.4,3.14,3.68,5.43h2.27c-2.08-4.06-5.01-7.44-5.2-7.66  c-0.38-0.43-1.12-0.43-1.5,0C6.95,4.68,0,12.7,0,19c0,8.9,7.92,9,8,9c0.06,0,4.65-0.061,6.85-4H12.43z M17.15,24  c2.199,3.939,6.789,4,6.85,4c0.08,0,8-0.1,8-9c0-6.3-6.95-14.32-7.25-14.66c-0.38-0.43-1.12-0.43-1.5,0  c-0.189,0.22-3.12,3.6-5.2,7.66h2.271C21.6,9.71,23.109,7.69,24,6.57c1.76,2.22,6,8.01,6,12.43c0,6.9-5.721,7-6,7  c-0.4-0.01-2.79-0.109-4.43-2H17.15z"/>
</svg>
