<?xml version="1.0" encoding="utf-8"?>
<!-- Generator: Adobe Illustrator 16.0.0, SVG Export Plug-In . SVG Version: 6.00 Build 0)  -->
<svg xmlns="http://www.w3.org/2000/svg" xmlns:xlink="http://www.w3.org/1999/xlink" version="1.1" id="2572889809_Capa_1_grid" x="0px" y="0px" width="32px" height="32px" viewBox="0 0 32 32" enable-background="new 0 0 32 32" xml:space="preserve">
<path d="M4,12H0v10h4c1.61,0,4-1.07,4-4v-2C8,14.39,6.93,12,4,12z M6,18c0,1.83-1.54,1.99-2,2H2v-6h2c1.83,0,1.99,1.54,2,2V18z   M10,12h2v10h-2V12z M28.42,17l3.29,3.29l-1.42,1.42L27,18.42l0.02-0.02H26.98L23,14.41l-7.29,7.3C15.52,21.9,15.26,22,15,22  c-0.13,0-0.26-0.02-0.38-0.08C14.24,21.77,14,21.4,14,21v-9h2v6.59l6.29-6.3c0.39-0.39,1.03-0.39,1.42,0L27,15.58l3.29-3.29  l1.42,1.42L28.42,17z M27.02,18.4L27,18.42l-0.02-0.02H27.02z M27,18.42l-3.29,3.29l-1.42-1.42l1.89-1.89h2.801L27,18.42z   M27.02,18.4L27,18.42l-0.02-0.02H27.02z"/>
</svg>
