<?xml version="1.0" encoding="utf-8"?>
<!-- Generator: Adobe Illustrator 16.0.0, SVG Export Plug-In . SVG Version: 6.00 Build 0)  -->
<svg xmlns="http://www.w3.org/2000/svg" xmlns:xlink="http://www.w3.org/1999/xlink" version="1.1" id="2572889810_Capa_1_grid" x="0px" y="0px" width="32px" height="32px" viewBox="0 0 32 32" enable-background="new 0 0 32 32" xml:space="preserve">
<path d="M28.41,25l-4.7,4.71l-1.42-1.42l2.3-2.29H5.41l2.3,2.29l-1.42,1.42L1.59,25l4.7-4.71l1.42,1.42L5.41,24h19.18l-2.3-2.29  l1.42-1.42L28.41,25z M22,8h-2V4H4v14h16v-4h2l6,2V6L22,8z M18,16H6V6h12V16z M22,12h-2v-2h2V12z M26,13.23l-2-0.67V9.44l2-0.67  V13.23z"/>
</svg>
