<?xml version="1.0" encoding="utf-8"?>
<!-- Generator: Adobe Illustrator 16.0.0, SVG Export Plug-In . SVG Version: 6.00 Build 0)  -->
<svg xmlns="http://www.w3.org/2000/svg" xmlns:xlink="http://www.w3.org/1999/xlink" version="1.1" id="2572889811_Capa_1_grid" x="0px" y="0px" width="32px" height="32px" viewBox="0 0 32 32" enable-background="new 0 0 32 32" xml:space="preserve">
<path d="M0,14v18h24V14H0z M4,30H2v-2h2V30z M4,26H2v-2h2V26z M4,22H2v-2h2V22z M4,18H2v-2h2V18z M18,30H6V16h12V30z M20,22v-2h2v2  H20z M22,24v2h-2v-2H22z M22,30h-2v-2h2V30z M20,18v-2h2v2H20z M8,4v8h2v-2h2v2h2V6h12v16h6V4H8z M12,8h-2V6h2V8z M30,20h-2v-2h2V20  z M30,16h-2v-2h2V16z M30,12h-2v-2h2V12z M30,8h-2V6h2V8z"/>
</svg>
