<?xml version="1.0" encoding="utf-8"?>
<!-- Generator: Adobe Illustrator 16.0.0, SVG Export Plug-In . SVG Version: 6.00 Build 0)  -->
<svg xmlns="http://www.w3.org/2000/svg" xmlns:xlink="http://www.w3.org/1999/xlink" version="1.1" id="2572889812_Capa_1_grid" x="0px" y="0px" width="32px" height="32px" viewBox="0 0 32 32" enable-background="new 0 0 32 32" xml:space="preserve">
<path d="M32,14v14H0v-7h2v5h28V16H20v-2H32z M28,18v2h-2v4H12v-3h2v1h10v-2h-8v-2H28z M4,22h2v2H4V22z M8,22h2v2H8V22z M9,4  c3.86,0,7,3.14,7,7s-3.14,7-7,7s-7-3.14-7-7S5.14,4,9,4L9,4z M9,2c-4.971,0-9,4.029-9,9s4.029,9,9,9s9-4.029,9-9S13.971,2,9,2L9,2z   M9,10c0.551,0,1,0.449,1,1s-0.449,1-1,1s-1-0.449-1-1S8.449,10,9,10L9,10z M9,8c-1.657,0-3,1.343-3,3s1.343,3,3,3s3-1.343,3-3  S10.657,8,9,8L9,8z"/>
</svg>
