<?xml version="1.0" encoding="utf-8"?>
<!-- Generator: Adobe Illustrator 16.0.0, SVG Export Plug-In . SVG Version: 6.00 Build 0)  -->
<svg xmlns="http://www.w3.org/2000/svg" xmlns:xlink="http://www.w3.org/1999/xlink" version="1.1" id="2572889813_Capa_1_grid" x="0px" y="0px" width="32px" height="32px" viewBox="0 0 32 32" enable-background="new 0 0 32 32" xml:space="preserve">
<path d="M2,0H0v2h2c1.96,0,2,2.88,2,3c0,2.76-1.63,2.98-2,3V4H0v6h2c1.38,0,4-1.04,4-5C6,3.27,5.16,0,2,0z M22,2.86V5  c3.93,1.64,6.88,5.15,7.75,9.42C26.061,10.06,19.09,10,19,10c-0.46,0-0.87,0.32-0.971,0.77c-0.109,0.45,0.109,0.92,0.521,1.12  c1.591,0.8,1.87,2.95,1.45,4.73C19.62,18.25,18.52,20,17,20c-2.82,0-2.99-2.5-3-3c0-0.37-0.2-0.71-0.53-0.88  c-0.32-0.18-0.72-0.16-1.02,0.05c-3.94,2.62-5.47,6.03-6.07,8.32C4.88,22.37,4,19.779,4,17c0-1.77,0.36-3.46,1-5H2.86  C2.3,13.57,2,15.25,2,17c0,8.279,6.72,15,15,15c8.279,0,15-6.721,15-15C32,10.47,27.82,4.91,22,2.86z M17,30  c-3.47,0-6.63-1.37-8.96-3.59c0.17-1.36,0.91-4.82,4.27-7.641C12.85,20.35,14.19,22,17,22c2.62,0,4.37-2.471,4.95-4.92  c0.37-1.56,0.31-3.35-0.392-4.79c2.91,0.55,7.36,2.15,8.271,6.819C28.82,25.279,23.45,30,17,30z M16,0h-2v2h2c1.96,0,2,2.88,2,3  c0,2.76-1.63,2.98-2,3V4h-2v6h2c1.38,0,4-1.04,4-5C20,3.27,19.16,0,16,0z M13.271,0L10.97,10H9.03L6.72,0h2.06L10,5l1.22-5H13.271z"/>
</svg>
