<?xml version="1.0" encoding="utf-8"?>
<!-- Generator: Adobe Illustrator 16.0.0, SVG Export Plug-In . SVG Version: 6.00 Build 0)  -->
<svg xmlns="http://www.w3.org/2000/svg" xmlns:xlink="http://www.w3.org/1999/xlink" version="1.1" id="2572889814_Capa_1_grid" x="0px" y="0px" width="32px" height="32px" viewBox="0 0 32 32" enable-background="new 0 0 32 32" xml:space="preserve">
<path d="M16,8l2,6h6l-5,3.789L21,24l-5-4l-5,4l2-6.211L8,14h6L16,8 M16,1.675L12.559,12H2.049l8.612,6.525L7.059,29.714L16,22.563  l8.941,7.151l-3.604-11.188L29.95,12H19.441L16,1.675L16,1.675z M9,10c-0.256,0-0.512-0.098-0.707-0.293l-4-4  c-0.391-0.391-0.391-1.023,0-1.414s1.023-0.391,1.414,0l4,4c0.391,0.391,0.391,1.023,0,1.414C9.512,9.902,9.256,10,9,10z M23,10  c-0.256,0-0.512-0.098-0.707-0.293c-0.391-0.391-0.391-1.023,0-1.414l4-4c0.391-0.391,1.023-0.391,1.414,0s0.391,1.023,0,1.414l-4,4  C23.512,9.902,23.256,10,23,10z M3,26c-0.256,0-0.512-0.098-0.707-0.293c-0.391-0.391-0.391-1.023,0-1.414l4-4  c0.391-0.391,1.023-0.391,1.414,0s0.391,1.023,0,1.414l-4,4C3.512,25.902,3.256,26,3,26z M29,26c-0.256,0-0.512-0.098-0.707-0.293  l-4-4c-0.391-0.391-0.391-1.023,0-1.414s1.023-0.391,1.414,0l4,4c0.391,0.391,0.391,1.023,0,1.414C29.512,25.902,29.256,26,29,26z"/>
</svg>
