<?xml version="1.0" encoding="utf-8"?>
<!-- Generator: Adobe Illustrator 16.0.0, SVG Export Plug-In . SVG Version: 6.00 Build 0)  -->
<svg xmlns="http://www.w3.org/2000/svg" xmlns:xlink="http://www.w3.org/1999/xlink" version="1.1" id="2572889823_Capa_1_grid" x="0px" y="0px" width="32px" height="32px" viewBox="0 0 32 32" enable-background="new 0 0 32 32" xml:space="preserve">
<path d="M26,14h-4v-4H12V8h2V2H3C1.79,2,0,2.8,0,5s1.79,3,3,3h3v2H0v18h22v-4h4l6,4V10L26,14z M10,4h2v2h-2V4z M3.01,6  C2.55,5.99,2,5.81,2,5s0.55-0.99,1-1h5v2H3.01z M10,8v2H8V8H10z M20,26H2v-4h5.41l4-4H20V26z M20,16h-9.41l-4,4H2v-8h18V16z M26,22  h-4v-6h4V22z M30,24.26l-2-1.33v-7.86l2-1.33V24.26z"/>
</svg>
