<?xml version="1.0" encoding="utf-8"?>
<!-- Generator: Adobe Illustrator 16.0.0, SVG Export Plug-In . SVG Version: 6.00 Build 0)  -->
<svg xmlns="http://www.w3.org/2000/svg" xmlns:xlink="http://www.w3.org/1999/xlink" version="1.1" id="2572889825_Capa_1_grid" x="0px" y="0px" width="32px" height="32px" viewBox="0 0 32 32" enable-background="new 0 0 32 32" xml:space="preserve">
<path d="M26,16h-2v-4H12v2h10v10H8v-6H6v8h7.38l-3,6h2.24l2.39-4.779L17.43,32h2.23l-3.04-6H24v-4h2l6,4V12L26,16z M26,20h-2v-2h2  V20z M30,22.26l-2-1.33V17.07l2-1.33V22.26z M15,0c-2.76,0-5,2.24-5,5s2.24,5,5,5s5-2.24,5-5S17.76,0,15,0z M15,8  c-1.65,0-3-1.35-3-3s1.35-3,3-3c1.65,0,3,1.35,3,3S16.65,8,15,8z M5,6c-2.76,0-5,2.24-5,5s2.24,5,5,5s5-2.24,5-5S7.76,6,5,6z M5,14  c-1.65,0-3-1.35-3-3s1.35-3,3-3s3,1.35,3,3S6.65,14,5,14z"/>
</svg>
