<?xml version="1.0" encoding="utf-8"?>
<!-- Generator: Adobe Illustrator 16.0.0, SVG Export Plug-In . SVG Version: 6.00 Build 0)  -->
<svg xmlns="http://www.w3.org/2000/svg" xmlns:xlink="http://www.w3.org/1999/xlink" version="1.1" id="2572889819_Capa_1_grid" x="0px" y="0px" width="32px" height="32px" viewBox="0 0 32 32" enable-background="new 0 0 32 32" xml:space="preserve">
<path d="M2,2v30h26V2H2z M16,4h4v4h-4V4z M10,4h4v4h-4V4z M4,4h4v4H4V4z M8,30H4v-4h4V30z M14,30h-4v-4h4V30z M20,30h-4v-4h4V30z   M26,30h-4v-4h4V30z M26,24H4V10h22V24z M26,8h-4V4h4V8z M18,20h2v2h-2V20z M10,12v10h6V12H10z M14,20h-2v-2h2V20z M14,16h-2v-2h2  V16z"/>
</svg>
