<?xml version="1.0" encoding="utf-8"?>
<!-- Generator: Adobe Illustrator 16.0.0, SVG Export Plug-In . SVG Version: 6.00 Build 0)  -->
<svg xmlns="http://www.w3.org/2000/svg" xmlns:xlink="http://www.w3.org/1999/xlink" version="1.1" id="2572889827_Capa_1_grid" x="0px" y="0px" width="32px" height="32px" viewBox="0 0 32 32" enable-background="new 0 0 32 32" xml:space="preserve">
<path d="M2,10H0V4h6v2H2V10z M30,10h-2V6h-4V4h6V10z M6,30H0v-6h2v4h4V30z M30,30h-6v-2h4v-4h2V30z M10.1,18H8.08  c0.43,3.07,2.85,5.49,5.92,5.92V21.9C12.04,21.5,10.5,19.96,10.1,18z M8.08,16h2.02c0.4-1.96,1.94-3.5,3.9-3.9v-2.02  C10.93,10.51,8.51,12.93,8.08,16z M19.9,16h2.02c-0.43-3.07-2.85-5.49-5.92-5.92v2.02C17.96,12.5,19.5,14.04,19.9,16z M16,21.9v2.02  c3.07-0.43,5.49-2.85,5.92-5.92H19.9C19.5,19.96,17.96,21.5,16,21.9z"/>
</svg>
