<?xml version="1.0" encoding="utf-8"?>
<!-- Generator: Adobe Illustrator 16.0.0, SVG Export Plug-In . SVG Version: 6.00 Build 0)  -->
<svg xmlns="http://www.w3.org/2000/svg" xmlns:xlink="http://www.w3.org/1999/xlink" version="1.1" id="2572889828_Capa_1_grid" x="0px" y="0px" width="32px" height="32px" viewBox="0 0 32 32" enable-background="new 0 0 32 32" xml:space="preserve">
<path d="M11,2C4.93,2,0,6.04,0,11c0,2.29,1.03,4.44,2.88,6.08l-0.77,2.279c-0.28,0.811-0.01,1.701,0.67,2.229  C3.14,21.859,3.57,22,4,22c0.39,0,0.77-0.109,1.11-0.33L8,19.75v-2.42L4,20l1.23-3.63C3.26,15.09,2,13.16,2,11c0-3.87,4.03-7,9-7  c4.53,0,8.359,2.61,8.98,6H22C21.391,5.5,16.66,2,11,2z M29.12,27.08C30.971,25.439,32,23.29,32,21c0-4.96-4.93-9-11-9  c-6.07,0-11,4.04-11,9s4.93,9,11,9c0.99,0,1.971-0.109,2.91-0.32l2.979,1.99C27.23,31.891,27.62,32,28,32  c0.43,0,0.859-0.141,1.221-0.41c0.68-0.529,0.949-1.42,0.67-2.229L29.12,27.08z M28,30l-3.73-2.48C23.26,27.83,22.15,28,21,28  c-4.97,0-9-3.13-9-7s4.03-7,9-7c4.971,0,9,3.13,9,7c0,2.16-1.26,4.09-3.23,5.37L28,30z M26,22h-2.58l2.29,2.29l-1.42,1.42L22,23.42  V26h-2v-2.58l-2.29,2.29l-1.42-1.42L18.58,22H16v-2h2.58l-2.29-2.29l1.42-1.42L20,18.58V16h2v2.58l2.29-2.29l1.42,1.42L23.42,20H26  V22z"/>
</svg>
