<?xml version="1.0" encoding="utf-8"?>
<!-- Generator: Adobe Illustrator 16.0.0, SVG Export Plug-In . SVG Version: 6.00 Build 0)  -->
<svg xmlns="http://www.w3.org/2000/svg" xmlns:xlink="http://www.w3.org/1999/xlink" version="1.1" id="2572889831_Capa_1_grid" x="0px" y="0px" width="32px" height="32px" viewBox="0 0 32 32" enable-background="new 0 0 32 32" xml:space="preserve">
<path d="M9,14c-4.96,0-9,4.04-9,9s4.04,9,9,9s9-4.04,9-9S13.96,14,9,14z M9,30c-3.87,0-7-3.13-7-7s3.13-7,7-7s7,3.13,7,7  S12.87,30,9,30z M6,0v12h2V8h6v4h2V8h6v16h-2v2h12V0H6z M14,6H8V2h6V6z M22,6h-6V2h6V6z M30,24h-6V8h6V24z M30,6h-6V2h6V6z M12,22v2  H8v-6h2v4H12z"/>
</svg>
