<?xml version="1.0" encoding="utf-8"?>
<!-- Generator: Adobe Illustrator 16.0.0, SVG Export Plug-In . SVG Version: 6.00 Build 0)  -->
<svg xmlns="http://www.w3.org/2000/svg" xmlns:xlink="http://www.w3.org/1999/xlink" version="1.1" id="2572889832_Capa_1_grid" x="0px" y="0px" width="32px" height="32px" viewBox="0 0 32 32" enable-background="new 0 0 32 32" xml:space="preserve">
<path d="M30.71,2.71l-1.42-1.42l-2.37,2.37c-2.25-1.54-9.16-4.83-18.63,4.63c-9.46,9.47-6.17,16.38-4.63,18.63l-2.37,2.37l1.42,1.42  l2.36-2.36c1.07,0.721,3.14,1.82,6.01,1.82c3.28,0,7.6-1.43,12.63-6.46c9.46-9.47,6.17-16.38,4.63-18.63L30.71,2.71z M9.71,9.71  c8.149-8.15,13.771-5.92,15.78-4.62l-20.4,20.4C3.79,23.48,1.56,17.859,9.71,9.71z M22.29,22.29c-8.14,8.14-13.78,5.931-15.79,4.63  L26.91,6.51C28.21,8.52,30.439,14.14,22.29,22.29z"/>
</svg>
