<?xml version="1.0" encoding="utf-8"?>
<!-- Generator: Adobe Illustrator 16.0.0, SVG Export Plug-In . SVG Version: 6.00 Build 0)  -->
<svg xmlns="http://www.w3.org/2000/svg" xmlns:xlink="http://www.w3.org/1999/xlink" version="1.1" id="2572889833_Capa_1_grid" x="0px" y="0px" width="32px" height="32px" viewBox="0 0 32 32" enable-background="new 0 0 32 32" xml:space="preserve">
<path d="M0,0v26h4v-2H2V10h28v14h-4v2h6V0H0z M30,8H2V2h28V8z M26,4h2v2h-2V4z M22,4h2v2h-2V4z M18,4h2v2h-2V4z M25.71,18.29  c-0.39-0.39-1.03-0.39-1.42,0l-3.79,3.8l-4.58-4.58l3.79-3.8c0.39-0.39,0.39-1.03,0-1.42s-1.03-0.39-1.42,0l-3.79,3.8l-1.5-1.5  l-4.71,4.7c-2.76,2.771-1.23,6.04,0,7.42l0.79,0.79l-2.79,2.79l1.42,1.42l2.79-2.79l0.79,0.79c1.03,1.03,2.22,1.55,3.52,1.55  c2.14,0,3.79-1.449,3.9-1.55l4.7-4.71l-1.49-1.49l3.79-3.8C26.1,19.32,26.1,18.68,25.71,18.29z M17.34,28.25  c-0.01,0.01-1.17,1.01-2.53,1.01c-0.77,0-1.45-0.318-2.1-0.97l-2.96-2.95c-0.22-0.26-2.12-2.55-0.04-4.63l0.79-0.79l7.59,7.59  L17.34,28.25z M19.51,26.09l-7.59-7.59L13,17.41L20.59,25L19.51,26.09z"/>
</svg>
