<?xml version="1.0" encoding="utf-8"?>
<!-- Generator: Adobe Illustrator 16.0.0, SVG Export Plug-In . SVG Version: 6.00 Build 0)  -->
<svg xmlns="http://www.w3.org/2000/svg" xmlns:xlink="http://www.w3.org/1999/xlink" version="1.1" id="2572889834_Capa_1_grid" x="0px" y="0px" width="32px" height="32px" viewBox="0 0 32 32" enable-background="new 0 0 32 32" xml:space="preserve">
<path d="M29.359,2.64C27.609,0.88,25.3,0,23,0s-4.609,0.88-6.359,2.64C15.26,4.02,14.43,5.72,14.12,7.5L1.66,23.07L4.59,26  l-4.3,4.29l1.42,1.42l4.3-4.29l2.92,2.92L24.5,17.88c1.779-0.31,3.49-1.14,4.859-2.52C32.88,11.85,32.88,6.15,29.359,2.64z   M9.07,27.66l-4.73-4.73l1.41-1.76l5.08,5.08L9.07,27.66z M12.41,24.99l-5.4-5.4l7.14-8.93c0.33,1.72,1.15,3.36,2.491,4.7  c1.33,1.34,2.979,2.16,4.699,2.49L12.41,24.99z M23,16c-1.87,0-3.63-0.73-4.95-2.05C16.73,12.63,16,10.87,16,9  c0-1.53,0.49-2.99,1.391-4.19l9.801,9.8C25.99,15.51,24.529,16,23,16z M28.609,13.19l-9.801-9.8C20.01,2.49,21.471,2,23,2  c1.87,0,3.63,0.73,4.95,2.05C29.27,5.37,30,7.13,30,9C30,10.53,29.51,11.99,28.609,13.19z"/>
</svg>
