<?xml version="1.0" encoding="utf-8"?>
<!-- Generator: Adobe Illustrator 16.0.0, SVG Export Plug-In . SVG Version: 6.00 Build 0)  -->
<svg xmlns="http://www.w3.org/2000/svg" xmlns:xlink="http://www.w3.org/1999/xlink" version="1.1" id="2572889837_Capa_1_grid" x="0px" y="0px" width="32px" height="32px" viewBox="0 0 32 32" enable-background="new 0 0 32 32" xml:space="preserve">
<path d="M20,15v4c0,2.2-1.79,3-3,3h-5v-6h2v4h3c0.45-0.01,1-0.189,1-1v-4c-0.01-0.45-0.189-1-1-1h-5v-2h5C19.2,12,20,13.79,20,15z   M7,16v2H4v4H2V12h2v4H7z M8,12h2v10H8V12z M28.91,12l-3.76,10H23.76L20,12h2.141l2.31,6.15L26.76,12H28.91z"/>
</svg>
