<?xml version="1.0" encoding="utf-8"?>
<!-- Generator: Adobe Illustrator 16.0.0, SVG Export Plug-In . SVG Version: 6.00 Build 0)  -->
<svg xmlns="http://www.w3.org/2000/svg" xmlns:xlink="http://www.w3.org/1999/xlink" version="1.1" id="2572889836_Capa_1_grid" x="0px" y="0px" width="32px" height="32px" viewBox="0 0 32 32" enable-background="new 0 0 32 32" xml:space="preserve">
<path d="M23,4H7c-5.54,0-7,4.58-7,7v12c0,5.54,4.58,7,7,7h16c5.54,0,7-4.58,7-7V11C30,5.46,25.42,4,23,4z M28,23c0,0.2-0.061,5-5,5  H7c-0.2,0-5-0.061-5-5V11c0-0.2,0.06-5,5-5h16c0.2,0,5,0.06,5,5V23z M19,12h-3v10h3c2.2,0,3-1.79,3-3v-4C22,12.8,20.21,12,19,12z   M20,18.99C19.99,19.45,19.811,20,19,20h-1v-6h0.99c0.46,0.01,1.01,0.19,1.01,1V18.99z M14,12v10h-2v-4h-2v4H8V12h2v4h2v-4H14z"/>
</svg>
