<?xml version="1.0" encoding="utf-8"?>
<!-- Generator: Adobe Illustrator 16.0.0, SVG Export Plug-In . SVG Version: 6.00 Build 0)  -->
<svg xmlns="http://www.w3.org/2000/svg" xmlns:xlink="http://www.w3.org/1999/xlink" version="1.1" id="2572889838_Capa_1_grid" x="0px" y="0px" width="32px" height="32px" viewBox="0 0 32 32" enable-background="new 0 0 32 32" xml:space="preserve">
<path d="M28,16v2H4v-2H2v8h28v-8H28z M28,22H4v-2h24V22z M3,4C1.34,4,0,5.34,0,7c0,1.31,0.83,2.42,2,2.82V14h2V9.82  C5.17,9.42,6,8.31,6,7C6,5.34,4.66,4,3,4z M3,8C2.45,8,2,7.55,2,7s0.45-1,1-1s1,0.45,1,1S3.55,8,3,8z"/>
</svg>
