<?xml version="1.0" encoding="utf-8"?>
<!-- Generator: Adobe Illustrator 16.0.0, SVG Export Plug-In . SVG Version: 6.00 Build 0)  -->
<svg xmlns="http://www.w3.org/2000/svg" xmlns:xlink="http://www.w3.org/1999/xlink" version="1.1" id="2572889839_Capa_1_grid" x="0px" y="0px" width="32px" height="32px" viewBox="0 0 32 32" enable-background="new 0 0 32 32" xml:space="preserve">
<path d="M28,22v2H4v-2H2v8h28v-8H28z M28,28H4v-2h24V28z M20,18l-4,4l-4-4H20z M4,2v14h24V2H4z M8,14H6v-2h2V14z M8,10H6V8h2V10z   M8,6H6V4h2V6z M22,14H10V4h12V14z M26,14h-2v-2h2V14z M26,10h-2V8h2V10z M26,6h-2V4h2V6z"/>
</svg>
