<?xml version="1.0" encoding="utf-8"?>
<!-- Generator: Adobe Illustrator 16.0.0, SVG Export Plug-In . SVG Version: 6.00 Build 0)  -->
<svg xmlns="http://www.w3.org/2000/svg" xmlns:xlink="http://www.w3.org/1999/xlink" version="1.1" id="2572889840_Capa_1_grid" x="0px" y="0px" width="32px" height="32px" viewBox="0 0 32 32" enable-background="new 0 0 32 32" xml:space="preserve">
<path d="M28,22v2H4v-2H2v8h28v-8H28z M28,28H4v-2h24V28z M20,18l-4,4l-4-4H20z M12,2v8.18C11.69,10.06,11.35,10,11,10  c-1.66,0-3,1.34-3,3s1.34,3,3,3s3-1.34,3-3V8h6v2.18C19.689,10.06,19.35,10,19,10c-1.66,0-3,1.34-3,3s1.34,3,3,3s3-1.34,3-3V2H12z   M11,14c-0.55,0-1-0.45-1-1s0.45-1,1-1s1,0.45,1,1S11.55,14,11,14z M19,14c-0.55,0-1-0.45-1-1s0.45-1,1-1s1,0.45,1,1S19.55,14,19,14  z M20,6h-6V4h6V6z"/>
</svg>
