<?xml version="1.0" encoding="utf-8"?>
<!-- Generator: Adobe Illustrator 16.0.0, SVG Export Plug-In . SVG Version: 6.00 Build 0)  -->
<svg xmlns="http://www.w3.org/2000/svg" xmlns:xlink="http://www.w3.org/1999/xlink" version="1.1" id="2572889841_Capa_1_grid" x="0px" y="0px" width="32px" height="32px" viewBox="0 0 32 32" enable-background="new 0 0 32 32" xml:space="preserve">
<path d="M16.85,12h-5.7L14,10L16.85,12z M32,0v20h-6v-2h4v-2.58l-5-5.01L23.41,12h-2.82L25,7.59l5,4.99V2H10v10H8V0H32z M14,4  c1.104,0,2,0.896,2,2s-0.896,2-2,2s-2-0.896-2-2S12.896,4,14,4z M0,14v18h24V14H0z M6,16c1.1,0,2,0.9,2,2s-0.9,2-2,2s-2-0.9-2-2  S4.9,16,6,16z M22,30H2v-2.52l4-3.201l5.07,4.061L17,22.41l5,5.01V30z"/>
</svg>
