<?xml version="1.0" encoding="utf-8"?>
<!-- Generator: Adobe Illustrator 16.0.0, SVG Export Plug-In . SVG Version: 6.00 Build 0)  -->
<svg xmlns="http://www.w3.org/2000/svg" xmlns:xlink="http://www.w3.org/1999/xlink" version="1.1" id="2572889844_Capa_1_grid" x="0px" y="0px" width="32px" height="32px" viewBox="0 0 32 32" enable-background="new 0 0 32 32" xml:space="preserve">
<path d="M5,10c0.552,0,1,0.448,1,1s-0.448,1-1,1s-1-0.448-1-1S4.448,10,5,10z M12,18v10H6v-2h4v-2H6v-2h4v-2H6v-2H12z M26,18v10h-2  v-8h-2v-2H26z M16,24v2h4v2h-6v-6h4v-2h-4v-2h6v6H16z M32,6l-2-6L6,6H2C0,6,0,8,0,8v21c0,2.2,1.92,3,3.21,3H29c2.2,0,3-1.79,3-3V10  H16L32,6z M28.689,2.39l0.729,2.19l-4.01,1l-1.06-2.11L28.689,2.39z M22.37,3.97l1.05,2.11l-3.79,0.95l-1.05-2.11L22.37,3.97z   M16.59,5.42l1.061,2.1L14.3,8.36l-1.06-2.11L16.59,5.42z M11.26,6.75l1.05,2.11l-2.24,0.56L8.59,7.44L8.58,7.42L11.26,6.75z   M2,8.04C2,8.03,2,8.02,2.01,8H6.5l4.5,6H2V8.04z M30,28.99C29.99,29.45,29.811,30,29,30H3.21C3.01,30,2,29.95,2,29V16h28V28.99z   M25.62,12H30v2h-5.38L25.62,12z M19.62,12h3.76l-1,2h-3.76L19.62,12z M17.38,12l-1,2H13.5L12,12H17.38z"/>
</svg>
