<?xml version="1.0" encoding="utf-8"?>
<!-- Generator: Adobe Illustrator 16.0.0, SVG Export Plug-In . SVG Version: 6.00 Build 0)  -->
<svg xmlns="http://www.w3.org/2000/svg" xmlns:xlink="http://www.w3.org/1999/xlink" version="1.1" id="2572889845_Capa_1_grid" x="0px" y="0px" width="32px" height="32px" viewBox="0 0 32 32" style="enable-background:new 0 0 32 32;" xml:space="preserve">
<path d="M0,4v26h32V4H0z M6,28H2v-4h4V28z M6,22H2v-4h4V22z M6,16H2v-4h4V16z M6,10H2V6h4V10z M24,28H8V6h16V28z M30,28h-4v-4h4V28z   M30,22h-4v-4h4V22z M30,16h-4v-4h4V16z M30,10h-4V6h4V10z M16,11c-2.21,0-4,1.79-4,4c0,1.86,1.27,3.43,3,3.87V23c0,0.55,0.45,1,1,1  s1-0.45,1-1v-4.13c1.73-0.44,3-2.01,3-3.87C20,12.79,18.21,11,16,11z M16,17c-1.1,0-2-0.9-2-2s0.9-2,2-2c1.1,0,2,0.9,2,2  S17.1,17,16,17z"/>
</svg>
