<?xml version="1.0" encoding="utf-8"?>
<!-- Generator: Adobe Illustrator 16.0.0, SVG Export Plug-In . SVG Version: 6.00 Build 0)  -->
<svg xmlns="http://www.w3.org/2000/svg" xmlns:xlink="http://www.w3.org/1999/xlink" version="1.1" id="2572889847_Capa_1_grid" x="0px" y="0px" width="32px" height="32px" viewBox="0 0 32 32" enable-background="new 0 0 32 32" xml:space="preserve">
<path d="M24,0v12h2v6.99C25.99,19.5,25.82,22,23,22h-4c-1.73,0-5,1.04-5,5c0,2.82-2.5,2.99-2.99,3C10.5,29.99,8,29.82,8,27v-5h3  c1.21,0,3-0.8,3-3s-1.79-3-3-3h-1v-2.68C12.37,12.2,14,9.8,14,7c0-3.87-3.13-7-7-7S0,3.13,0,7c0,2.8,1.63,5.2,4,6.32V16H2v6h4v5  c0,3.96,3.27,5,5,5s5-1.04,5-5c0-2.82,2.5-2.99,3-3h4c3.96,0,5-3.27,5-5v-7h2V0H24z M2,7c0-2.76,2.24-5,5-5s5,2.24,5,5s-2.24,5-5,5  S2,9.76,2,7z M8,13.92V16H6v-2.08C6.32,13.98,6.66,14,7,14S7.68,13.98,8,13.92z M4,20v-2h6.99c0.46,0.01,1.01,0.189,1.01,1  c0,0.8-0.55,0.99-1.01,1H4z M26,2h2v2h-2V2z M28,10h-2V6h2V10z"/>
</svg>
