<?xml version="1.0" encoding="utf-8"?>
<!-- Generator: Adobe Illustrator 16.0.0, SVG Export Plug-In . SVG Version: 6.00 Build 0)  -->
<svg xmlns="http://www.w3.org/2000/svg" xmlns:xlink="http://www.w3.org/1999/xlink" version="1.1" id="2572889851_Capa_1_grid" x="0px" y="0px" width="32px" height="32px" viewBox="0 0 32 32" enable-background="new 0 0 32 32" xml:space="preserve">
<path d="M32,3.38l-6.76,3.38L28.62,0H3.38l3.38,6.76L0,3.38v25.24l6.76-3.38L3.38,32h25.24l-3.38-6.76L32,28.62V3.38z M6,23.38l-4,2  V6.62l4,2V23.38z M25.38,30H6.62l2-4h14.76L25.38,30z M8,24V8h16v16H8z M23.38,6H8.62l-2-4h18.76L23.38,6z M30,25.38l-4-2V8.62l4-2  V25.38z M16,10c-3.31,0-6,2.69-6,6c0,3.311,2.69,6,6,6c3.311,0,6-2.689,6-6C22,12.69,19.311,10,16,10z M16,20c-2.21,0-4-1.79-4-4  s1.79-4,4-4s4,1.79,4,4S18.21,20,16,20z"/>
</svg>
