<?xml version="1.0" encoding="utf-8"?>
<!-- Generator: Adobe Illustrator 16.0.0, SVG Export Plug-In . SVG Version: 6.00 Build 0)  -->
<svg xmlns="http://www.w3.org/2000/svg" xmlns:xlink="http://www.w3.org/1999/xlink" version="1.1" id="2572889850_Capa_1_grid" x="0px" y="0px" width="32px" height="32px" viewBox="0 0 32 32" enable-background="new 0 0 32 32" xml:space="preserve">
<path d="M12,18l6,2V2l-6,2H4C2,4,2,6,2,6v10c0,2,2,2,2,2h4v12H5v2h8v-2h-3V18H12z M14,5.44l2-0.67v12.46l-2-0.67V5.44z M4.04,16  C4.03,16,4.02,16,4,15.99V6.04C4,6.03,4,6.02,4.01,6H12v10H4.04z M24,10h6v2h-6V10z M28.62,3.78l-5,4l-1.24-1.56l5-4L28.62,3.78z   M28.62,18.221l-1.24,1.559l-5-4l1.24-1.56L28.62,18.221z"/>
</svg>
