<?xml version="1.0" encoding="utf-8"?>
<!-- Generator: Adobe Illustrator 16.0.0, SVG Export Plug-In . SVG Version: 6.00 Build 0)  -->
<svg xmlns="http://www.w3.org/2000/svg" xmlns:xlink="http://www.w3.org/1999/xlink" version="1.1" id="2572889852_Capa_1_grid" x="0px" y="0px" width="32px" height="32px" viewBox="0 0 32 32" enable-background="new 0 0 32 32" xml:space="preserve">
<path d="M20,10.59V8c0-2-2-2-2-2h-2V0h-2v6h-2c-2,0-2,2-2,2v2.59L2.59,18H9c0,2.41,1.6,6,6,6c4.4,0,6-3.59,6-6h6.41L20,10.59z   M12,8.04c0-0.01,0-0.02,0.01-0.04h5.95C17.971,8,17.98,8,18,8.01V10h-6V8.04z M15,22c-4,0-4-4-4-4h8C19,18,19,22,15,22z M7.41,16  l4-4h7.18l4,4H7.41z M14,26h2v4h-2V26z M8.293,24.293l1.414,1.414l-3,3l-1.414-1.414L8.293,24.293z M21.707,24.293l3,3l-1.414,1.414  l-3-3L21.707,24.293z"/>
</svg>
