<?xml version="1.0" encoding="utf-8"?>
<!-- Generator: Adobe Illustrator 16.0.0, SVG Export Plug-In . SVG Version: 6.00 Build 0)  -->
<svg xmlns="http://www.w3.org/2000/svg" xmlns:xlink="http://www.w3.org/1999/xlink" version="1.1" id="2572889854_Capa_1_grid" x="0px" y="0px" width="32px" height="32px" viewBox="0 0 32 32" enable-background="new 0 0 32 32" xml:space="preserve">
<path d="M15,0c-4.97,0-9,4.03-9,9c0,4.63,3.5,8.45,8,8.939V31c0,0.55,0.45,1,1,1s1-0.45,1-1V17.939c4.5-0.489,8-4.311,8-8.939  C24,4.03,19.971,0,15,0z M15,16c-3.86,0-7-3.14-7-7s3.14-7,7-7c3.859,0,7,3.14,7,7S18.859,16,15,16z"/>
</svg>
