<?xml version="1.0" encoding="utf-8"?>
<!-- Generator: Adobe Illustrator 16.0.0, SVG Export Plug-In . SVG Version: 6.00 Build 0)  -->
<svg xmlns="http://www.w3.org/2000/svg" xmlns:xlink="http://www.w3.org/1999/xlink" version="1.1" id="2572889856_Capa_1_grid" x="0px" y="0px" width="32px" height="32px" viewBox="0 0 32 32" enable-background="new 0 0 32 32" xml:space="preserve">
<path d="M30,6v20H2V6H30 M32,4H0v24h32V4L32,4z M16,10c3.309,0,6,2.691,6,6c0,3.309-2.691,6-6,6c-3.309,0-6-2.691-6-6  C10,12.691,12.691,10,16,10 M16,8c-4.418,0-8,3.582-8,8s3.582,8,8,8s8-3.582,8-8S20.418,8,16,8L16,8z"/>
</svg>
