<?xml version="1.0" encoding="utf-8"?>
<!-- Generator: Adobe Illustrator 16.0.0, SVG Export Plug-In . SVG Version: 6.00 Build 0)  -->
<svg xmlns="http://www.w3.org/2000/svg" xmlns:xlink="http://www.w3.org/1999/xlink" version="1.1" id="2572889858_Capa_1_grid" x="0px" y="0px" width="32px" height="32px" viewBox="0 0 32 32" enable-background="new 0 0 32 32" xml:space="preserve">
<path d="M12.5,18.67l1.25,1.66L9.5,26H2v-2h6.5L12.5,18.67z M30.41,9l-4.7,4.71l-1.42-1.42l2.3-2.29H21.5l-4,5.33l-1.25-1.66L20.5,8  h6.09l-2.3-2.29l1.42-1.42L30.41,9z M30.41,25l-4.7,4.71l-1.42-1.42l2.3-2.29H20.5l-12-16H2V8h7.5l12,16h5.09l-2.3-2.29l1.42-1.42  L30.41,25z"/>
</svg>
