<?xml version="1.0" encoding="utf-8"?>
<!-- Generator: Adobe Illustrator 16.0.0, SVG Export Plug-In . SVG Version: 6.00 Build 0)  -->
<svg xmlns="http://www.w3.org/2000/svg" xmlns:xlink="http://www.w3.org/1999/xlink" version="1.1" id="2572889857_Capa_1_grid" x="0px" y="0px" width="32px" height="32px" viewBox="0 0 32 32" enable-background="new 0 0 32 32" xml:space="preserve">
<path d="M30.41,5.007l-4.7,4.71l-1.42-1.42l2.3-2.29H21.5l-4,5.33l-1.25-1.66l4.25-5.67h6.09l-2.3-2.29l1.42-1.42L30.41,5.007z   M30.41,21.007l-4.7,4.71l-1.42-1.42l2.3-2.29L20.5,22L8.5,6H2V4.007h7.5L21.5,20l5.09,0.007l-2.3-2.29l1.42-1.42L30.41,21.007z   M6,20v-2h6v-2H4v10.18C3.69,26.061,3.35,26,3,26c-1.66,0-3,1.34-3,3s1.34,3,3,3s3-1.34,3-3v-7h8v4.18C13.69,26.061,13.35,26,13,26  c-1.66,0-3,1.34-3,3s1.34,3,3,3s3-1.34,3-3v-9H6z M3,30c-0.55,0-1-0.45-1-1s0.45-1,1-1s1,0.45,1,1S3.55,30,3,30z M13,30  c-0.55,0-1-0.45-1-1s0.45-1,1-1s1,0.45,1,1S13.55,30,13,30z"/>
</svg>
