<?xml version="1.0" encoding="utf-8"?>
<!-- Generator: Adobe Illustrator 16.0.0, SVG Export Plug-In . SVG Version: 6.00 Build 0)  -->
<svg xmlns="http://www.w3.org/2000/svg" xmlns:xlink="http://www.w3.org/1999/xlink" version="1.1" id="2572889860_Capa_1_grid" x="0px" y="0px" width="32px" height="32px" viewBox="0 0 32 32" enable-background="new 0 0 32 32" xml:space="preserve">
<path d="M0,2v30h30V2H0z M14,30H2V18h12V30z M14,16H2V4h12V16z M28,30H16V18h12V30z M28,16H16V4h12V16z M4,6v8h8V6H4z M10,12H6V8h4  V12z M18,6v8h8V6H18z M24,12h-4V8h4V12z M4,20v8h8v-8H4z M10,26H6v-4h4V26z M18,20v8h8v-8H18z M24,26h-4v-4h4V26z"/>
</svg>
