<?xml version="1.0" encoding="utf-8"?>
<!-- Generator: Adobe Illustrator 16.0.0, SVG Export Plug-In . SVG Version: 6.00 Build 0)  -->
<svg xmlns="http://www.w3.org/2000/svg" xmlns:xlink="http://www.w3.org/1999/xlink" version="1.1" id="2572889862_Capa_1_grid" x="0px" y="0px" width="32px" height="32px" viewBox="0 0 32 32" enable-background="new 0 0 32 32" xml:space="preserve">
<path d="M20,6v2h4v22H8V18H0v14h32V6H20z M6,30H2v-4h4V30z M6,24H2v-4h4V24z M30,30h-4v-4h4V30z M30,24h-4v-4h4V24z M30,18h-4v-4h4  V18z M30,12h-4V8h4V12z M9.41,2l-2-2H0v16h18V2H9.41z M16,14H2V8h14V14z M16,6H2V2h4.59l2,2H16V6z"/>
</svg>
