<?xml version="1.0" encoding="utf-8"?>
<!-- Generator: Adobe Illustrator 16.0.0, SVG Export Plug-In . SVG Version: 6.00 Build 0)  -->
<svg xmlns="http://www.w3.org/2000/svg" xmlns:xlink="http://www.w3.org/1999/xlink" version="1.1" id="2572889863_Capa_1_grid" x="0px" y="0px" width="32px" height="32px" viewBox="0 0 32 32" enable-background="new 0 0 32 32" xml:space="preserve">
<path d="M8,6V4H0v24h8v-2H6v-2h2v-2H2V10h6V8H6V6H8z M4,24v2H2v-2H4z M4,8H2V6h2V8z M22,4v2h2v2h-2v2h6v12h-6v2h2v2h-2v2h8V4H22z   M28,26h-2v-2h2V26z M28,8h-2V6h2V8z M20,24v-2H10v2h2v2h-2v2h10v-2h-2v-2H20z M16,26h-2v-2h2V26z M20,6V4H10v2h2v2h-2v2h10V8h-2V6  H20z M16,8h-2V6h2V8z"/>
</svg>
