<?xml version="1.0" encoding="utf-8"?>
<!-- Generator: Adobe Illustrator 16.0.0, SVG Export Plug-In . SVG Version: 6.00 Build 0)  -->
<svg xmlns="http://www.w3.org/2000/svg" xmlns:xlink="http://www.w3.org/1999/xlink" version="1.1" id="2572889868_Capa_1_grid" x="0px" y="0px" width="32px" height="32px" viewBox="0 0 32 32" enable-background="new 0 0 32 32" xml:space="preserve">
<path d="M4,16v10.18C3.689,26.061,3.35,26,3,26c-1.66,0-3,1.34-3,3s1.34,3,3,3s3-1.34,3-3v-7h8v4.18C13.689,26.061,13.35,26,13,26  c-1.66,0-3,1.34-3,3s1.34,3,3,3s3-1.34,3-3V16H4z M3,30c-0.55,0-1-0.45-1-1s0.45-1,1-1s1,0.45,1,1S3.55,30,3,30z M13,30  c-0.55,0-1-0.45-1-1s0.45-1,1-1s1,0.45,1,1S13.55,30,13,30z M14,20H6v-2h8V20z M18,20.221L28,13L10,0v14h2V3.91L24.58,13L18,17.75  V20.221z M30,0h2v26h-2V0z"/>
</svg>
