<?xml version="1.0" encoding="utf-8"?>
<!-- Generator: Adobe Illustrator 16.0.0, SVG Export Plug-In . SVG Version: 6.00 Build 0)  -->
<svg xmlns="http://www.w3.org/2000/svg" xmlns:xlink="http://www.w3.org/1999/xlink" version="1.1" id="2572889869_Capa_1_grid" x="0px" y="0px" width="32px" height="32px" viewBox="0 0 32 32" enable-background="new 0 0 32 32" xml:space="preserve">
<path d="M4,12v2H2v4H0v-6H4z M8,8v4H6v-2H2V6h2v2H8z M8,14v4H4v-2h2v-2H8z M10,12h4v2h-4V12z M18,6v6h-2V8h-4v2h-2V6H18z M6,24v2H2  v-6h2v4H6z M12,16v6H6v-2h4v-4H12z M18,14v4h-4v-2h2v-2H18z M22,16v6h-4v4h-2v-4h-2v-2h6v-4H22z M20,12h8v2h-8V12z M24,16h2v4h-2V16  z M32,8v5h-2v-3h-2V8H32z M26,8v2h-4V8h-2V6h4v2H26z M26,22v4h-6v-2h4v-2H26z M32,20v6h-4v-2h2v-4H32z M28,16h4v2h-4V16z M8,24h4v2  H8V24z"/>
</svg>
