<?xml version="1.0" encoding="utf-8"?>
<!-- Generator: Adobe Illustrator 16.0.0, SVG Export Plug-In . SVG Version: 6.00 Build 0)  -->
<svg xmlns="http://www.w3.org/2000/svg" xmlns:xlink="http://www.w3.org/1999/xlink" version="1.1" id="2572889870_Capa_1_grid" x="0px" y="0px" width="32px" height="32px" viewBox="0 0 32 32" enable-background="new 0 0 32 32" xml:space="preserve">
<path d="M14,6v6h-2V8H4V6H14z M10,10v2H0V6h2v4H10z M30,6v6h-2V8h-8V6H30z M26,10v2H16V6h2v4H26z M14,14v6h-2v-4H4v-2H14z M10,18v2  H0v-6h2v4H10z M30,14v6h-2v-4h-8v-2H30z M26,18v2H16v-6h2v4H26z M14,22v6h-2v-4H4v-2H14z M10,26v2H0v-6h2v4H10z M30,22v6h-2v-4h-8  v-2H30z M26,26v2H16v-6h2v4H26z"/>
</svg>
