<?xml version="1.0" encoding="utf-8"?>
<!-- Generator: Adobe Illustrator 16.0.0, SVG Export Plug-In . SVG Version: 6.00 Build 0)  -->
<svg xmlns="http://www.w3.org/2000/svg" xmlns:xlink="http://www.w3.org/1999/xlink" version="1.1" id="2572889871_Capa_1_grid" x="0px" y="0px" width="32px" height="32px" viewBox="0 0 32 32" enable-background="new 0 0 32 32" xml:space="preserve">
<path d="M0,2v28h32V2H0z M20,4h4v16h-4V4z M20,22h4v2h-4V22z M14,4h4v16h-4V4z M8,4h4v16H8V4z M2,4h4v16H2V4z M2,22h4v2H2V22z M8,28  H2v-2h6V28z M8,22h4v2H8V22z M14,28h-4v-2h4V28z M14,22h4v2h-4V22z M16,28v-2h8v2H16z M30,28h-4v-2h4V28z M30,24h-4v-2h4V24z M30,20  h-4V4h4V20z"/>
</svg>
