<?xml version="1.0" encoding="utf-8"?>
<!-- Generator: Adobe Illustrator 16.0.0, SVG Export Plug-In . SVG Version: 6.00 Build 0)  -->
<svg xmlns="http://www.w3.org/2000/svg" xmlns:xlink="http://www.w3.org/1999/xlink" version="1.1" id="2572889873_Capa_1_grid" x="0px" y="0px" width="32px" height="32px" viewBox="0 0 32 32" enable-background="new 0 0 32 32" xml:space="preserve">
<path d="M15,0C6.72,0,0,6.72,0,15c0,1.75,0.3,3.43,0.86,5H3c-0.52-1.25-0.85-2.6-0.95-4h3.99c0.05,0.9,0.18,2.311,0.49,4h2.05  c-0.34-1.68-0.48-3.109-0.54-4H14v4h2v-4h5.96c-0.06,0.891-0.2,2.32-0.54,4h2.061c0.311-1.689,0.439-3.109,0.49-4h3.989  c-0.11,1.4-0.44,2.75-0.96,4h2.141C29.7,18.43,30,16.75,30,15C30,6.72,23.279,0,15,0z M6.04,14H2.05c0.16-2.19,0.87-4.24,2-6h2.91  C6.32,10.55,6.11,12.77,6.04,14z M7.53,6h-1.9c0.8-0.84,1.72-1.57,2.72-2.16C8.03,4.56,7.76,5.29,7.53,6z M14,14H8.04  c0.08-1.23,0.32-3.48,1-6H14V14z M14,6H9.66c0.4-1.15,0.91-2.32,1.55-3.43C12.1,2.29,13.04,2.11,14,2.05V6z M16,2.05  c0.96,0.06,1.891,0.24,2.779,0.52c0.65,1.11,1.16,2.28,1.551,3.43H16V2.05z M16,14V8h4.96c0.681,2.52,0.92,4.77,1,6H16z M21.66,3.84  c1,0.6,1.91,1.32,2.71,2.16h-1.899C22.24,5.29,21.971,4.56,21.66,3.84z M23.971,14c-0.07-1.22-0.291-3.45-0.921-6h2.9  c1.13,1.76,1.84,3.81,2.01,6H23.971z M26,24v6h4v2h-6V22h6v2H26z M6,22v10H4v-0.77l-2-4V32H0V22h2v0.77l2,4V22H6z M18,24v2h4v6h-6  v-2h4v-2h-4v-6h6v2H18z M14,22v2h-2v8h-2v-8H8v-2H14z"/>
</svg>
