<?xml version="1.0" encoding="utf-8"?>
<!-- Generator: Adobe Illustrator 16.0.0, SVG Export Plug-In . SVG Version: 6.00 Build 0)  -->
<svg xmlns="http://www.w3.org/2000/svg" xmlns:xlink="http://www.w3.org/1999/xlink" version="1.1" id="2572889872_Capa_1_grid" x="0px" y="0px" width="32px" height="32px" viewBox="0 0 32 32" enable-background="new 0 0 32 32" xml:space="preserve">
<path d="M18,14v0.17C17.65,14.05,17.311,14,17,14h-2c-1.21,0-3,0.8-3,3c0,1.21,0.8,3,3,3h2c0.311,0,0.65-0.05,1-0.17v1.16  C17.99,21.45,17.811,22,17,22h-4v2h4c2.2,0,3-1.79,3-3v-7H18z M16.99,18H15c-0.81,0-0.99-0.55-1-1c0-0.81,0.55-0.99,1-1h1.99  c0.46,0.01,1.01,0.19,1.01,1C18,17.8,17.45,17.99,16.99,18z M2,22h8v2H2V22z M28,14v0.17C27.65,14.05,27.311,14,27,14h-2  c-1.21,0-3,0.8-3,3c0,1.21,0.8,3,3,3h2c0.311,0,0.65-0.05,1-0.17v1.16C27.99,21.45,27.811,22,27,22h-4v2h4c2.2,0,3-1.79,3-3v-7H28z   M26.99,18H25c-0.811,0-0.99-0.55-1-1c0-0.81,0.55-0.99,1-1h1.99c0.46,0.01,1.01,0.19,1.01,1C28,17.8,27.45,17.99,26.99,18z M7,20H5  c-2.201,0-3-1.794-3-3v-6c0-2.201,1.794-3,3-3h2c2.201,0,3,1.794,3,3v6C10,19.201,8.206,20,7,20z M5,10c-0.45,0.012-1,0.195-1,1v6  c0.012,0.45,0.195,1,1,1h1.992C7.453,17.986,8,17.803,8,17v-6c-0.012-0.45-0.195-1-1-1H5z"/>
</svg>
