<?xml version="1.0" encoding="utf-8"?>
<!-- Generator: Adobe Illustrator 16.0.0, SVG Export Plug-In . SVG Version: 6.00 Build 0)  -->
<svg xmlns="http://www.w3.org/2000/svg" xmlns:xlink="http://www.w3.org/1999/xlink" version="1.1" id="2572889874_Capa_1_grid" x="0px" y="0px" width="32px" height="32px" viewBox="0 0 32 32" enable-background="new 0 0 32 32" xml:space="preserve">
<path d="M31,30h-4c-12.63,0-17.06-2.49-18.47-3.721c0.54-0.199,0.88-0.369,0.92-0.391C9.55,25.84,12,24.59,12,22  c0-2.471-0.44-4.74-5.91-9.39c1.16-0.92,2.51-1.86,3.98-2.69C10.51,13.35,13.44,16,17,16c3.87,0,7-3.13,7-7  c0-0.98-0.2-1.91-0.561-2.75c3.141,0.31,5.631,0.87,7.119,1.59C30.7,7.91,30.85,7.95,31,7.95c0.37,0,0.73-0.21,0.9-0.56  c0.238-0.5,0.039-1.1-0.461-1.34C29.65,5.17,27.08,4.67,24.71,4.38C25.68,3.37,27.63,2,31,2c0.55,0,1-0.45,1-1s-0.45-1-1-1  c-5.46,0-7.93,3.04-8.65,4.15c-0.09-0.01-0.188-0.01-0.279-0.02H22.02C20.75,2.81,18.971,2,17,2c-3.39,0-6.21,2.4-6.86,5.59  C5.31,10.14,0,14.64,0,17c0,1.7,2.24,3.1,4.29,4.02c-0.77,0.371-1.53,0.812-2,1.271C1.6,22.99,1.42,24.02,1.82,25  c0.5,1.21,1.75,2,3.18,2c0.46,0,0.92-0.05,1.36-0.12C7.38,28.32,11.5,32,27,32h4c0.55,0,1-0.45,1-1S31.55,30,31,30z M17,4  c2.76,0,5,2.24,5,5s-2.24,5-5,5s-5-2.24-5-5S14.24,4,17,4z M5,25c-0.75,0-1.19-0.42-1.33-0.77C3.61,24.1,3.55,23.87,3.71,23.71  c0.6-0.61,2.53-1.399,3.61-1.76C7.72,21.811,8,21.43,8,21s-0.28-0.811-0.68-0.95C4.37,19.07,2,17.58,2,17.01  c0.04-0.5,0.99-1.69,2.54-3.09C10,18.51,10,20.359,10,22c0,1.34-1.44,2.1-1.45,2.1C8.54,24.109,6.73,25,5,25z M31.83,19.55l-4,6  C27.65,25.83,27.33,26,27,26h-4c-0.55,0-1-0.45-1-1s0.45-1,1-1h3.46l2.67-4H23c-0.55,0-1-0.45-1-1s0.45-1,1-1h8  c0.37,0,0.71,0.2,0.88,0.529C32.061,18.85,32.04,19.25,31.83,19.55z M20,9c0,1.66-1.34,3-3,3s-3-1.34-3-3s1.34-3,3-3S20,7.34,20,9z   M27,10c0.553,0,1,0.448,1,1s-0.447,1-1,1s-1-0.448-1-1S26.447,10,27,10z M27,14c0.553,0,1,0.448,1,1s-0.447,1-1,1s-1-0.448-1-1  S26.447,14,27,14z M31,12c0.553,0,1,0.448,1,1s-0.447,1-1,1s-1-0.448-1-1S30.447,12,31,12z"/>
</svg>
