<?xml version="1.0" encoding="utf-8"?>
<!-- Generator: Adobe Illustrator 16.0.0, SVG Export Plug-In . SVG Version: 6.00 Build 0)  -->
<svg xmlns="http://www.w3.org/2000/svg" xmlns:xlink="http://www.w3.org/1999/xlink" version="1.1" id="2572889875_Capa_1_grid" x="0px" y="0px" width="32px" height="32px" viewBox="0 0 32 32" enable-background="new 0 0 32 32" xml:space="preserve">
<path d="M12,12c0,0,0,2,2,2h13c0,0,5,0,5-6s-5-6-5-6H14c0,0-2,0-2,2H3C1.79,4,0,4.8,0,7v2c0,1.21,0.8,3,3,3h1v4H0v16h32V16H12V12z   M14,4.01C14.02,4,14.03,4,14.04,4h12.94C27.7,4.02,30,4.38,30,8c0,3.63-2.32,3.98-3,4H14.01C14,11.98,14,11.97,14,11.96V4.01z   M10,6h2v4h-2V6z M3,10c-0.81,0-0.99-0.55-1-1V7c0-0.81,0.55-0.99,1-1h5v4H3z M10,12v10H6V12H10z M30,30H2v-2h28V30z M20,18h10v8H20  V18z M18,18v8H2v-8h2v6h8v-6H18z"/>
</svg>
