<?xml version="1.0" encoding="utf-8"?>
<!-- Generator: Adobe Illustrator 16.0.0, SVG Export Plug-In . SVG Version: 6.00 Build 0)  -->
<svg xmlns="http://www.w3.org/2000/svg" xmlns:xlink="http://www.w3.org/1999/xlink" version="1.1" id="2572889876_Capa_1_grid" x="0px" y="0px" width="32px" height="32px" viewBox="0 0 32 32" enable-background="new 0 0 32 32" xml:space="preserve">
<path d="M28,16v2H4v-2H2v8h28v-8H28z M28,22H4v-2h24V22z M29,4c-1.66,0-3,1.34-3,3c0,1.31,0.83,2.42,2,2.82V14h2V9.82  c1.17-0.4,2-1.51,2-2.82C32,5.34,30.66,4,29,4z M29,8c-0.55,0-1-0.45-1-1s0.45-1,1-1s1,0.45,1,1S29.55,8,29,8z"/>
</svg>
