<?xml version="1.0" encoding="utf-8"?>
<!-- Generator: Adobe Illustrator 16.0.0, SVG Export Plug-In . SVG Version: 6.00 Build 0)  -->
<svg xmlns="http://www.w3.org/2000/svg" xmlns:xlink="http://www.w3.org/1999/xlink" version="1.1" id="2572889880_Capa_1_grid" x="0px" y="0px" width="32px" height="32px" viewBox="0 0 32 32" enable-background="new 0 0 32 32" xml:space="preserve">
<path d="M0,16v14h20V16H0z M4,28H2v-2h2V28z M4,24H2v-2h2V24z M4,20H2v-2h2V20z M14,28H6V18h8V28z M18,28h-2v-2h2V28z M18,24h-2v-2  h2V24z M18,20h-2v-2h2V20z M24,12v16h-2V14H2v-2H24z M28,8v16h-2V10H6V8H28z M32,4v16h-2V6H10V4H32z"/>
</svg>
