<?xml version="1.0" encoding="utf-8"?>
<!-- Generator: Adobe Illustrator 16.0.0, SVG Export Plug-In . SVG Version: 6.00 Build 0)  -->
<svg xmlns="http://www.w3.org/2000/svg" xmlns:xlink="http://www.w3.org/1999/xlink" version="1.1" id="2572889879_Capa_1_grid" x="0px" y="0px" width="32px" height="32px" viewBox="0 0 32 32" enable-background="new 0 0 32 32" xml:space="preserve">
<path d="M0,16v14h20V16H0z M16,18h2v2h-2V18z M4,28H2v-2h2V28z M4,24H2v-2h2V24z M4,20H2v-2h2V20z M14,28H6V18h8V28z M18,28h-2v-2h2  V28z M18,24h-2v-2h2V24z M32,4v20H22v-2h8V6H4v8H2V4H32z"/>
</svg>
