<?xml version="1.0" encoding="utf-8"?>
<!-- Generator: Adobe Illustrator 16.0.0, SVG Export Plug-In . SVG Version: 6.00 Build 0)  -->
<svg xmlns="http://www.w3.org/2000/svg" xmlns:xlink="http://www.w3.org/1999/xlink" version="1.1" id="2572889877_Capa_1_grid" x="0px" y="0px" width="32px" height="32px" viewBox="0 0 32 32" enable-background="new 0 0 32 32" xml:space="preserve">
<path d="M32,24H18v-2h12V6H4v6H2V4h30V24z M4,14v10.18C3.69,24.061,3.35,24,3,24c-1.66,0-3,1.34-3,3s1.34,3,3,3s3-1.34,3-3v-7h8  v4.18C13.69,24.061,13.35,24,13,24c-1.66,0-3,1.34-3,3s1.34,3,3,3s3-1.34,3-3V14H4z M3,28c-0.55,0-1-0.45-1-1s0.45-1,1-1s1,0.45,1,1  S3.55,28,3,28z M13,28c-0.55,0-1-0.45-1-1s0.45-1,1-1s1,0.45,1,1S13.55,28,13,28z M14,18H6v-2h8V18z"/>
</svg>
