<?xml version="1.0" encoding="utf-8"?>
<!-- Generator: Adobe Illustrator 16.0.0, SVG Export Plug-In . SVG Version: 6.00 Build 0)  -->
<svg xmlns="http://www.w3.org/2000/svg" xmlns:xlink="http://www.w3.org/1999/xlink" version="1.1" id="2572889878_Capa_1_grid" x="0px" y="0px" width="32px" height="32px" viewBox="0 0 32 32" enable-background="new 0 0 32 32" xml:space="preserve">
<path d="M22,24h-2V12H8v-2h14V24z M26,20h-2V8H10V6h16V20z M30,16h-2V4H12V2h18V16z M6,14v10.18C5.689,24.061,5.35,24,5,24  c-1.66,0-3,1.34-3,3s1.34,3,3,3s3-1.34,3-3v-7h8v4.18C15.689,24.061,15.35,24,15,24c-1.66,0-3,1.34-3,3s1.34,3,3,3s3-1.34,3-3V14H6z   M5,28c-0.55,0-1-0.45-1-1s0.45-1,1-1s1,0.45,1,1S5.55,28,5,28z M15,28c-0.55,0-1-0.45-1-1s0.45-1,1-1s1,0.45,1,1S15.55,28,15,28z   M16,18H8v-2h8V18z"/>
</svg>
