<?xml version="1.0" encoding="utf-8"?>
<!-- Generator: Adobe Illustrator 16.0.0, SVG Export Plug-In . SVG Version: 6.00 Build 0)  -->
<svg xmlns="http://www.w3.org/2000/svg" xmlns:xlink="http://www.w3.org/1999/xlink" version="1.1" id="2572889881_Capa_1_grid" x="0px" y="0px" width="32px" height="32px" viewBox="0 0 32 32" enable-background="new 0 0 32 32" xml:space="preserve">
<path d="M24,6c0,0-12,0-18,0s-6,6-6,6s0,4,0,10s6,6,6,6s12,0,18,0s6-6,6-6s0-4,0-10S24,6,24,6z M28,22c0,0.67-0.189,4-4,4H6  c-0.67,0-4-0.189-4-4V12c0-0.67,0.19-4,4-4h18c0.67,0,4,0.19,4,4V22z M12,12v10h2v-4h2v4h2V12H12z M16,16h-2v-2h2V16z M26,20v2h-6  V12h2v8H26z M4,12v10h2v-4h4v-6H4z M8,16H6v-2h2V16z"/>
</svg>
