<?xml version="1.0" encoding="utf-8"?>
<!-- Generator: Adobe Illustrator 16.0.0, SVG Export Plug-In . SVG Version: 6.00 Build 0)  -->
<svg xmlns="http://www.w3.org/2000/svg" xmlns:xlink="http://www.w3.org/1999/xlink" version="1.1" id="2572889882_Capa_1_grid" x="0px" y="0px" width="32px" height="32px" viewBox="0 0 32 32" enable-background="new 0 0 32 32" xml:space="preserve">
<path d="M18,16v-2l2-6H10l2,6v2H8v16h14V16H18z M17.23,10l-0.67,2H13.44l-0.67-2H17.23z M16,14v2h-2v-2H16z M20,30H10V18h10V30z   M29.71,9.71L25,14.41l-4.71-4.7l1.42-1.42l2.29,2.3V10c0-0.32-0.15-8-9-8c-8.9,0-9,7.67-9,8v0.59l2.29-2.3l1.42,1.42L5,14.41  l-4.71-4.7l1.42-1.42L4,10.59V10C4,9.9,4.13,0,15,0s11,9.9,11,10v0.59l2.29-2.3L29.71,9.71z"/>
</svg>
