<?xml version="1.0" encoding="utf-8"?>
<!-- Generator: Adobe Illustrator 16.0.0, SVG Export Plug-In . SVG Version: 6.00 Build 0)  -->
<svg xmlns="http://www.w3.org/2000/svg" xmlns:xlink="http://www.w3.org/1999/xlink" version="1.1" id="2572889883_Capa_1_grid" x="0px" y="0px" width="32px" height="32px" viewBox="0 0 32 32" enable-background="new 0 0 32 32" xml:space="preserve">
<path d="M31.471,2.12c-0.32-0.17-0.721-0.16-1.021,0.05C30.391,2.21,24.561,6,16,6C7.44,6,1.61,2.21,1.55,2.17  c-0.3-0.21-0.7-0.22-1.02-0.05C0.2,2.29,0,2.63,0,3v26c0,0.37,0.2,0.71,0.53,0.88c0.32,0.17,0.72,0.16,1.02-0.05  C1.61,29.79,7.44,26,16,26c8.561,0,14.391,3.79,14.45,3.83C30.609,29.939,30.811,30,31,30c0.16,0,0.32-0.04,0.471-0.12  C31.8,29.71,32,29.37,32,29V3C32,2.63,31.8,2.29,31.471,2.12z M30,27.279C27.6,26.061,22.6,24,16,24c-6.6,0-11.6,2.061-14,3.279  V23.62l7.08-3.54l6,2L23,18.12l7,3.5V27.279z M30,19.38l-7-3.5l-8.08,4.04l-6-2L2,21.38V4.72C4.4,5.94,9.4,8,16,8  c6.6,0,11.6-2.06,14-3.28V19.38z M7,10c-1.66,0-3,1.34-3,3s1.34,3,3,3s3-1.34,3-3S8.66,10,7,10z M7,14c-0.55,0-1-0.45-1-1  s0.45-1,1-1s1,0.45,1,1S7.55,14,7,14z"/>
</svg>
