<?xml version="1.0" encoding="utf-8"?>
<!-- Generator: Adobe Illustrator 16.0.0, SVG Export Plug-In . SVG Version: 6.00 Build 0)  -->
<svg xmlns="http://www.w3.org/2000/svg" xmlns:xlink="http://www.w3.org/1999/xlink" version="1.1" id="2572889890_Capa_1_grid" x="0px" y="0px" width="32px" height="32px" viewBox="0 0 32 32" enable-background="new 0 0 32 32" xml:space="preserve">
<path d="M16,10v14h-2c-2.21,0-4,1.79-4,4s1.79,4,4,4s4-1.79,4-4V15.87l12-1.72V22h-2c-2.21,0-4,1.79-4,4s1.79,4,4,4s4-1.79,4-4V8  L16,10z M16,28c0,1.1-0.9,2-2,2s-2-0.9-2-2s0.9-2,2-2h2V28z M30,26c0,1.1-0.9,2-2,2s-2-0.9-2-2s0.9-2,2-2h2V26z M30,12.13l-12,1.72  v-1.98l12-1.72V12.13z M0,0v20l16-10L0,0z M2,3.61L12.23,10L2,16.39V3.61z"/>
</svg>
