<?xml version="1.0" encoding="utf-8"?>
<!-- Generator: Adobe Illustrator 16.0.0, SVG Export Plug-In . SVG Version: 6.00 Build 0)  -->
<svg xmlns="http://www.w3.org/2000/svg" xmlns:xlink="http://www.w3.org/1999/xlink" version="1.1" id="2572889889_Capa_1_grid" x="0px" y="0px" width="32px" height="32px" viewBox="0 0 32 32" enable-background="new 0 0 32 32" xml:space="preserve">
<path d="M0,0v12h2V4.95c1.75,2.75,4.72,6.35,8.95,8.06c-0.85,0.34-1.69,0.77-2.5,1.3l1.09,1.68C11.58,14.67,13.75,14,16,14  c7.24,0,11.77,6.96,13.4,10H18v2h14V0H0z M2.6,2h26.8C27.779,5.03,23.26,12,16,12C8.76,12,4.23,5.04,2.6,2z M30,21.04  c-1.76-2.74-4.721-6.33-8.93-8.04c4.22-1.71,7.18-5.31,8.93-8.05V21.04z M4,17.663L12.301,23L4,28.337V17.663 M2,14v18l14-9L2,14  L2,14z"/>
</svg>
