<?xml version="1.0" encoding="utf-8"?>
<!-- Generator: Adobe Illustrator 16.0.0, SVG Export Plug-In . SVG Version: 6.00 Build 0)  -->
<svg xmlns="http://www.w3.org/2000/svg" xmlns:xlink="http://www.w3.org/1999/xlink" version="1.1" id="2572889892_Capa_1_grid" x="0px" y="0px" width="32px" height="32px" viewBox="0 0 32 32" enable-background="new 0 0 32 32" xml:space="preserve">
<path d="M17,0C7.72,0,4.18,6.59,2.84,11.57l1.7,1.22c0.29-1.3,0.75-2.75,1.47-4.17l2.54,1.27l0.9-1.78L7.03,6.9  C8.79,4.38,11.58,2.3,16,2.03V4h2V2.03c4.42,0.27,7.21,2.35,8.971,4.87L24.55,8.11l0.9,1.78l2.54-1.27  c1.439,2.84,1.84,5.85,1.96,7.38H22c0,0,0-3.45-4-3.94V10h-2v2.06C12,12.55,12,16,12,16v2h20v-1C32,16.83,31.83,0,17,0z M14,16  c0,0,0-2,3-2s3,2,3,2H14z M2,15.886L10.559,22L2,28.113V15.886L2,15.886z M0,12v20l14-10L0,12L0,12z M16,20h16v2H16V20z"/>
</svg>
