<?xml version="1.0" encoding="utf-8"?>
<!-- Generator: Adobe Illustrator 16.0.0, SVG Export Plug-In . SVG Version: 6.00 Build 0)  -->
<svg xmlns="http://www.w3.org/2000/svg" xmlns:xlink="http://www.w3.org/1999/xlink" version="1.1" id="2572889891_Capa_1_grid" x="0px" y="0px" width="32px" height="32px" viewBox="0 0 32 32" enable-background="new 0 0 32 32" xml:space="preserve">
<path d="M0,0v12h2V8h4v6h2V2h16v22h-6v2h14V0H0z M6,6H2V2h4V6z M30,24h-4v-4h4V24z M30,18h-4v-4h4V18z M30,12h-4V8h4V12z M30,6h-4V2  h4V6z M4,17.663L12.301,23L4,28.337V17.663 M2,14v18l14-9L2,14L2,14z"/>
</svg>
