<?xml version="1.0" encoding="utf-8"?>
<!-- Generator: Adobe Illustrator 16.0.0, SVG Export Plug-In . SVG Version: 6.00 Build 0)  -->
<svg xmlns="http://www.w3.org/2000/svg" xmlns:xlink="http://www.w3.org/1999/xlink" version="1.1" id="2572889895_Capa_1_grid" x="0px" y="0px" width="32px" height="32px" viewBox="0 0 32 32" enable-background="new 0 0 32 32" xml:space="preserve">
<path d="M16,12c-2.21,0-4,1.79-4,4s1.79,4,4,4s4-1.79,4-4S18.21,12,16,12z M16,18c-1.1,0-2-0.9-2-2c0-1.1,0.9-2,2-2c1.1,0,2,0.9,2,2  C18,17.1,17.1,18,16,18z M17,20h-2c-1.21,0-3,0.8-3,3c0,2.1,1.84,7.689,2.05,8.32L14.28,32h3.441l0.229-0.68  C18.16,30.689,20,25.1,20,23C20,20.8,18.21,20,17,20z M16.27,30h-0.54C15.1,28.029,14,24.33,14,23c0-0.811,0.55-0.99,1-1h1.99  c0.46,0.01,1.01,0.189,1.01,1C18,24.33,16.9,28.029,16.27,30z M23.93,16c0,2.12-0.818,4.109-2.318,5.609l-1.32-1.319  c1.15-1.149,1.779-2.67,1.779-4.29c0-3.35-2.729-6.07-6.069-6.07c-3.35,0-6.07,2.72-6.07,6.07c0,1.62,0.63,3.141,1.78,4.29  l-1.32,1.319c-1.5-1.5-2.32-3.489-2.32-5.609c0-4.37,3.56-7.93,7.93-7.93S23.93,11.63,23.93,16z M28,16c0,3.21-1.25,6.221-3.52,8.48  l-1.41-1.41C24.96,21.18,26,18.67,26,16c0-5.51-4.49-10-10-10S6,10.49,6,16c0,2.67,1.04,5.18,2.93,7.07l-1.42,1.41  C5.25,22.21,4,19.2,4,16C4,9.38,9.38,4,16,4S28,9.38,28,16z M32,16c0,4.27-1.67,8.29-4.689,11.311L25.9,25.9  c2.64-2.65,4.1-6.16,4.1-9.9c0-7.72-6.279-14-14-14C8.28,2,2,8.28,2,16c0,3.74,1.46,7.25,4.1,9.9l-1.42,1.41  C1.66,24.29,0,20.27,0,16C0,7.18,7.18,0,16,0C24.82,0,32,7.18,32,16z"/>
</svg>
