<?xml version="1.0" encoding="utf-8"?>
<!-- Generator: Adobe Illustrator 16.0.0, SVG Export Plug-In . SVG Version: 6.00 Build 0)  -->
<svg xmlns="http://www.w3.org/2000/svg" xmlns:xlink="http://www.w3.org/1999/xlink" version="1.1" id="2572889893_Capa_1_grid" x="0px" y="0px" width="32px" height="32px" viewBox="0 0 32 32" enable-background="new 0 0 32 32" xml:space="preserve">
<path d="M18,10V4H0v26h18v-6H2V10H18z M14,6h2v2h-2V6z M10,6h2v2h-2V6z M6,6h2v2H6V6z M2,6h2v2H2V6z M14,26h2v2h-2V26z M10,26h2v2  h-2V26z M6,26h2v2H6V26z M4,26v2H2v-2H4z M30.41,17l-4.7,4.71l-1.42-1.42l2.3-2.29H14v-2h12.59l-2.3-2.29l1.42-1.42L30.41,17z"/>
</svg>
