<?xml version="1.0" encoding="utf-8"?>
<!-- Generator: Adobe Illustrator 16.0.0, SVG Export Plug-In . SVG Version: 6.00 Build 0)  -->
<svg xmlns="http://www.w3.org/2000/svg" xmlns:xlink="http://www.w3.org/1999/xlink" version="1.1" id="2572889896_Capa_1_grid" x="0px" y="0px" width="32px" height="32px" viewBox="0 0 32 32" enable-background="new 0 0 32 32" xml:space="preserve">
<path d="M14,4v6h16v14H14v6h18V4H14z M18,28h-2v-2h2V28z M22,28h-2v-2h2V28z M26,28h-2v-2h2V28z M30,28h-2v-2h2V28z M18,8h-2V6h2V8z   M22,8h-2V6h2V8z M26,8h-2V6h2V8z M30,8h-2V6h2V8z M16.41,17l-4.7,4.71l-1.42-1.42l2.3-2.29H0v-2h12.59l-2.3-2.29l1.42-1.42  L16.41,17z"/>
</svg>
