<?xml version="1.0" encoding="utf-8"?>
<!-- Generator: Adobe Illustrator 16.0.0, SVG Export Plug-In . SVG Version: 6.00 Build 0)  -->
<svg xmlns="http://www.w3.org/2000/svg" xmlns:xlink="http://www.w3.org/1999/xlink" version="1.1" id="2572889900_Capa_1_grid" x="0px" y="0px" width="32px" height="32px" viewBox="0 0 32 32" enable-background="new 0 0 32 32" xml:space="preserve">
<path d="M2,4v6h26V4H2z M6,8H4V6h2V8z M10,8H8V6h2V8z M14,8h-2V6h2V8z M18,8h-2V6h2V8z M22,8h-2V6h2V8z M26,8h-2V6h2V8z M2,24v6h26  v-6H2z M6,28H4v-2h2V28z M10,28H8v-2h2V28z M14,28h-2v-2h2V28z M18,28h-2v-2h2V28z M22,28h-2v-2h2V28z M26,28h-2v-2h2V28z M28.41,17  l-4.7,4.71l-1.42-1.42l2.3-2.29H2v-2h22.59l-2.3-2.29l1.42-1.42L28.41,17z"/>
</svg>
