<?xml version="1.0" encoding="utf-8"?>
<!-- Generator: Adobe Illustrator 16.0.0, SVG Export Plug-In . SVG Version: 6.00 Build 0)  -->
<svg xmlns="http://www.w3.org/2000/svg" xmlns:xlink="http://www.w3.org/1999/xlink" version="1.1" id="2572889902_Capa_1_grid" x="0px" y="0px" width="32px" height="32px" viewBox="0 0 32 32" enable-background="new 0 0 32 32" xml:space="preserve">
<path d="M0,0v14h2V8h4v4h2V2h16v22h-4v2h12V0H0z M6,6H2V2h4V6z M30,24h-4v-4h4V24z M30,18h-4v-4h4V18z M30,12h-4V8h4V12z M30,6h-4V2  h4V6z M9,14c-4.97,0-9,4.029-9,9s4.03,9,9,9s9-4.029,9-9S13.97,14,9,14z M9,30c-3.86,0-7-3.141-7-7s3.14-7,7-7s7,3.141,7,7  S12.86,30,9,30z M12,22v2H8v-6h2v4H12z"/>
</svg>
