<?xml version="1.0" encoding="utf-8"?>
<!-- Generator: Adobe Illustrator 16.0.0, SVG Export Plug-In . SVG Version: 6.00 Build 0)  -->
<svg xmlns="http://www.w3.org/2000/svg" xmlns:xlink="http://www.w3.org/1999/xlink" version="1.1" id="2572889901_Capa_1_grid" x="0px" y="0px" width="32px" height="32px" viewBox="0 0 32 32" enable-background="new 0 0 32 32" xml:space="preserve">
<path d="M0,0v20h30V0H0z M6,18H2v-4h4V18z M6,12H2V8h4V12z M6,6H2V2h4V6z M8,18V2h14v16H8z M28,18h-4v-4h4V18z M28,12h-4V8h4V12z   M28,6h-4V2h4V6z M0,22v10h30V22H0z M14,24h2v2h-2V24z M4,30H2v-2h2V30z M4,26H2v-2h2V26z M12,30H6v-6h6V30z M14,30v-2h2v2H14z   M24,30h-6v-6h6V30z M28,30h-2v-2h2V30z M28,26h-2v-2h2V26z"/>
</svg>
