<?xml version="1.0" encoding="utf-8"?>
<!-- Generator: Adobe Illustrator 16.0.0, SVG Export Plug-In . SVG Version: 6.00 Build 0)  -->
<svg xmlns="http://www.w3.org/2000/svg" xmlns:xlink="http://www.w3.org/1999/xlink" version="1.1" id="2572889903_Capa_1_grid" x="0px" y="0px" width="32px" height="32px" viewBox="0 0 32 32" enable-background="new 0 0 32 32" xml:space="preserve">
<path d="M0,9c0-4.96,4.04-9,9-9s9,4.04,9,9c0,2.93-1.41,5.53-3.58,7.18l-1.43-1.43C14.81,13.48,16,11.38,16,9c0-3.86-3.14-7-7-7  S2,5.14,2,9c0,3.71,2.9,6.76,6.56,6.98l-2.27-2.27l1.42-1.42l4.7,4.71l-4.7,4.71l-1.42-1.42l2.31-2.3C3.82,17.779,0,13.83,0,9z   M22,4c0,0-0.82,0.73-2,2v3l2-2.2c2.58,2.69,8,9.06,8,15.2c0,7.71-7.189,7.99-8,8c-0.33,0-8-0.09-8-8c0-0.66,0.06-1.33,0.19-2h-2.03  c-0.1,0.641-0.16,1.359-0.16,2c0,10,10,10,10,10s10,0,10-10C32,13,22,4,22,4z"/>
</svg>
