<?xml version="1.0" encoding="utf-8"?>
<!-- Generator: Adobe Illustrator 16.0.0, SVG Export Plug-In . SVG Version: 6.00 Build 0)  -->
<svg xmlns="http://www.w3.org/2000/svg" xmlns:xlink="http://www.w3.org/1999/xlink" version="1.1" id="2572889904_Capa_1_grid" x="0px" y="0px" width="32px" height="32px" viewBox="0 0 32 32" enable-background="new 0 0 32 32" xml:space="preserve">
<path d="M0,2v20h32V2H0z M6,20H2v-4h4V20z M6,14H2v-4h4V14z M6,8H2V4h4V8z M24,20H8V4h16V20z M30,20h-4v-4h4V20z M30,14h-4v-4h4V14z   M30,8h-4V4h4V8z M32,28H0v-4h2v2h28v-2h2V28z M18,32h-4l2-4L18,32z"/>
</svg>
