<?xml version="1.0" encoding="utf-8"?>
<!-- Generator: Adobe Illustrator 16.0.0, SVG Export Plug-In . SVG Version: 6.00 Build 0)  -->
<svg xmlns="http://www.w3.org/2000/svg" xmlns:xlink="http://www.w3.org/1999/xlink" version="1.1" id="2572889905_Capa_1_grid" x="0px" y="0px" width="32px" height="32px" viewBox="0 0 32 32" enable-background="new 0 0 32 32" xml:space="preserve">
<path d="M26,7.42l1.29,1.29l1.42-1.42l-4-4l-1.42,1.42L24.58,6l-1.13,1.13C21.18,5.18,18.23,4,15,4C7.82,4,2,9.82,2,17  c0,7.18,5.82,13,13,13c7.18,0,13-5.82,13-13c0-3.23-1.18-6.18-3.13-8.45L26,7.42z M25.95,16H24v2h1.95  c-0.47,5.27-4.681,9.48-9.95,9.95V26h-2v1.95C8.73,27.48,4.52,23.27,4.05,18H6v-2H4.05C4.52,10.73,8.73,6.52,14,6.05V8h2V6.05  C21.27,6.52,25.48,10.73,25.95,16z M19,18h-4c-0.552,0-1-0.447-1-1v-6c0-0.552,0.448-1,1-1s1,0.448,1,1v5h3c0.553,0,1,0.448,1,1  C20,17.553,19.553,18,19,18z"/>
</svg>
