<?xml version="1.0" encoding="utf-8"?>
<!-- Generator: Adobe Illustrator 16.0.0, SVG Export Plug-In . SVG Version: 6.00 Build 0)  -->
<svg xmlns="http://www.w3.org/2000/svg" xmlns:xlink="http://www.w3.org/1999/xlink" version="1.1" id="2572889909_Capa_1_grid" x="0px" y="0px" width="32px" height="32px" viewBox="0 0 32 32" enable-background="new 0 0 32 32" xml:space="preserve">
<path d="M32,15v6c0,3.96-3.27,5-5,5H5c-3.96,0-5-3.27-5-5v-6c0-3.96,3.27-5,5-5h7.59l-4.3-4.29l1.42-1.42l6.7,6.71l-6.7,6.71  l-1.42-1.42l4.3-4.29H5c-0.5,0.01-3,0.181-3,3v6c0.01,0.5,0.18,3,3,3h22c0.5-0.01,3-0.18,3-3v-6c-0.01-0.5-0.18-3-3-3h-7v-2h7  C30.96,10,32,13.271,32,15z"/>
</svg>
