<?xml version="1.0" encoding="utf-8"?>
<!-- Generator: Adobe Illustrator 16.0.0, SVG Export Plug-In . SVG Version: 6.00 Build 0)  -->
<svg xmlns="http://www.w3.org/2000/svg" xmlns:xlink="http://www.w3.org/1999/xlink" version="1.1" id="2572889910_Capa_1_grid" x="0px" y="0px" width="32px" height="32px" viewBox="0 0 32 32" enable-background="new 0 0 32 32" xml:space="preserve">
<path d="M4,16v10.18C3.689,26.061,3.35,26,3,26c-1.66,0-3,1.34-3,3s1.34,3,3,3s3-1.34,3-3v-7h8v4.18C13.689,26.061,13.35,26,13,26  c-1.66,0-3,1.34-3,3s1.34,3,3,3s3-1.34,3-3V16H4z M3,30c-0.55,0-1-0.45-1-1s0.45-1,1-1s1,0.45,1,1S3.55,30,3,30z M13,30  c-0.55,0-1-0.45-1-1s0.45-1,1-1s1,0.45,1,1S13.55,30,13,30z M14,20H6v-2h8V20z M20.41,5l-4.7,4.71l-1.42-1.42L16.59,6H11  c-0.51,0-5,0.18-5,5c0,1.32,0.34,2.29,0.85,3H4.56C4.21,13.17,4,12.18,4,11c0-5.54,4.58-7,7-7h5.59l-2.3-2.29l1.42-1.42L20.41,5z   M32,11c0,6.92-4.95,7-5,7h-9v-2h9c0.3-0.01,3-0.22,3-5s-2.7-4.99-3.01-5H24V4h3C27.05,4,32,4.08,32,11z"/>
</svg>
