<?xml version="1.0" encoding="utf-8"?>
<!-- Generator: Adobe Illustrator 16.0.0, SVG Export Plug-In . SVG Version: 6.00 Build 0)  -->
<svg xmlns="http://www.w3.org/2000/svg" xmlns:xlink="http://www.w3.org/1999/xlink" version="1.1" id="2572889913_Capa_1_grid" x="0px" y="0px" width="32px" height="32px" viewBox="0 0 32 32" enable-background="new 0 0 32 32" xml:space="preserve">
<path d="M0,0v20h2v-6h4v2h2V2h16v22h-6v2h14V0H0z M6,12H2V8h4V12z M6,6H2V2h4V6z M30,24h-4v-4h4V24z M30,18h-4v-4h4V18z M30,12h-4V8  h4V12z M30,6h-4V2h4V6z M14,17.663v10.674L5.699,23L14,17.663L14,17.663z M16,14L2,23l14,9V14L16,14z"/>
</svg>
