<?xml version="1.0" encoding="utf-8"?>
<!-- Generator: Adobe Illustrator 16.0.0, SVG Export Plug-In . SVG Version: 6.00 Build 0)  -->
<svg xmlns="http://www.w3.org/2000/svg" xmlns:xlink="http://www.w3.org/1999/xlink" version="1.1" id="2572889915_Capa_1_grid" x="0px" y="0px" width="32px" height="32px" viewBox="0 0 32 32" enable-background="new 0 0 32 32" xml:space="preserve">
<path d="M21,0H6C4,0,4,2,4,2v28c0,2,2,2,2,2h20c2,0,2-2,2-2V7L21,0z M26,29.96c0,0.011,0,0.021-0.01,0.04H6.04  C6.03,30,6.02,30,6,29.99V2.04C6,2.03,6,2.02,6.01,2H18v5c0,1.21,0.8,3,3,3h5V29.96z M26,8h-5c-0.811,0-0.99-0.55-1-1V2h0.17  L26,7.83V8z M10.41,19l3.3,3.29l-1.42,1.42L7.59,19l4.7-4.71l1.42,1.42L10.41,19z M24.41,19l-4.7,4.71l-1.42-1.42l3.3-3.29  l-3.3-3.29l1.42-1.42L24.41,19z"/>
</svg>
