<?xml version="1.0" encoding="utf-8"?>
<!-- Generator: Adobe Illustrator 16.0.0, SVG Export Plug-In . SVG Version: 6.00 Build 0)  -->
<svg xmlns="http://www.w3.org/2000/svg" xmlns:xlink="http://www.w3.org/1999/xlink" version="1.1" id="2572889917_Capa_1_grid" x="0px" y="0px" width="32px" height="32px" viewBox="0 0 32 32" enable-background="new 0 0 32 32" xml:space="preserve">
<path d="M22,6v2h2v22H8v-8H6v2H2v-2H0v10h32V6H22z M6,30H2v-4h4V30z M30,30h-4v-4h4V30z M30,24h-4v-4h4V24z M30,18h-4v-4h4V18z   M30,12h-4V8h4V12z M16,6c-1.2,0-2.28,0.53-3.01,1.37L7.91,4.84C7.97,4.57,8,4.29,8,4c0-2.21-1.79-4-4-4S0,1.79,0,4s1.79,4,4,4  c1.2,0,2.28-0.53,3.01-1.37l5.08,2.53C12.03,9.43,12,9.71,12,10s0.03,0.57,0.09,0.84l-5.07,2.54C6.29,12.53,5.21,12,4,12  c-2.21,0-4,1.79-4,4s1.79,4,4,4s4-1.79,4-4c0-0.29-0.03-0.56-0.09-0.83l5.07-2.55C13.71,13.47,14.79,14,16,14c2.21,0,4-1.79,4-4  S18.21,6,16,6z M4,6C2.9,6,2,5.1,2,4s0.9-2,2-2s2,0.9,2,2S5.1,6,4,6z M4,18c-1.1,0-2-0.9-2-2c0-1.1,0.9-2,2-2s2,0.9,2,2  C6,17.1,5.1,18,4,18z M16,12c-1.1,0-2-0.9-2-2s0.9-2,2-2c1.1,0,2,0.9,2,2S17.1,12,16,12z"/>
</svg>
