<?xml version="1.0" encoding="utf-8"?>
<!-- Generator: Adobe Illustrator 16.0.0, SVG Export Plug-In . SVG Version: 6.00 Build 0)  -->
<svg xmlns="http://www.w3.org/2000/svg" xmlns:xlink="http://www.w3.org/1999/xlink" version="1.1" id="2572889918_Capa_1_grid" x="0px" y="0px" width="32px" height="32px" viewBox="0 0 32 32" enable-background="new 0 0 32 32" xml:space="preserve">
<path d="M28,22H9.01C8.55,21.99,8,21.811,8,21v-1h4v-2h5c1.21,0,3-0.8,3-3v-3h6c0,0,6,0,6-6s-6-6-6-6S12,0,8,0S4,4,4,4H3  C1.79,4,0,4.8,0,7v10c0,1.21,0.8,3,3,3h3v1c0,2.2,1.79,3,3,3h19c0.33,0,2,0.1,2,2c0,1.83-1.54,1.99-2,2H12v-2H5v2H1c-1,0-1,1-1,1  c0,1,1,1,1,1h4v2h7v-2h16c1.609,0,4-1.07,4-4S29.609,22,28,22z M18,15c0,0.81-0.55,0.99-1,1h-5v-4h6V15z M6,4.02  C6.02,3.1,6.39,2,8,2h18c0.67,0,4,0.19,4,4c0,3.65-3.07,3.99-4,4H8.02C7.1,9.98,6,9.61,6,8V4.02z M3,18c-0.81,0-0.99-0.55-1-1V7  c0-0.81,0.55-0.99,1-1h1v2c0,4,4,4,4,4h2v6H3z M10,30H7v-2h3V30z"/>
</svg>
