<?xml version="1.0" encoding="utf-8"?>
<!-- Generator: Adobe Illustrator 16.0.0, SVG Export Plug-In . SVG Version: 6.00 Build 0)  -->
<svg xmlns="http://www.w3.org/2000/svg" xmlns:xlink="http://www.w3.org/1999/xlink" version="1.1" id="2572889919_Capa_1_grid" x="0px" y="0px" width="32px" height="32px" viewBox="0 0 32 32" enable-background="new 0 0 32 32" xml:space="preserve">
<path d="M10,10c0,1.1-0.9,2-2,2s-2-0.9-2-2s0.9-2,2-2S10,8.9,10,10z M2,10H0V4h6v2H2V10z M32,10h-2V6h-4V4h6V10z M6,28H0v-6h2v4h4  V28z M32,28h-6v-2h4v-4h2V28z M12,20c-0.221,0-0.442-0.072-0.625-0.219l-4.429-3.543l-5.392,3.594l-1.109-1.664l6-4  c0.362-0.241,0.839-0.221,1.179,0.051l4.341,3.473l8.37-7.439c0.362-0.323,0.907-0.339,1.289-0.033l10,8l-1.25,1.563l-9.341-7.474  l-8.37,7.439C12.476,19.915,12.238,20,12,20z"/>
</svg>
