<?xml version="1.0" encoding="utf-8"?>
<!-- Generator: Adobe Illustrator 16.0.0, SVG Export Plug-In . SVG Version: 6.00 Build 0)  -->
<svg xmlns="http://www.w3.org/2000/svg" xmlns:xlink="http://www.w3.org/1999/xlink" version="1.1" id="2572889920_Capa_1_grid" x="0px" y="0px" width="32px" height="32px" viewBox="0 0 32 32" enable-background="new 0 0 32 32" xml:space="preserve">
<path d="M15,4.829L18.172,8H24v5.829L27.172,17L24,20.172V26h-5.828L15,29.172L11.829,26H6v-5.828L2.829,17L6,13.829V8h5.829  L15,4.829 M15,2l-4,4H4v7l-4,4l4,4v7h7l4,4l4-4h7v-7l4-4l-4-4V6h-7L15,2L15,2z M15,12c2.757,0,5,2.243,5,5s-2.243,5-5,5  s-5-2.243-5-5S12.243,12,15,12 M15,10c-3.866,0-7,3.134-7,7s3.134,7,7,7s7-3.134,7-7S18.866,10,15,10L15,10z"/>
</svg>
