<?xml version="1.0" encoding="utf-8"?>
<!-- Generator: Adobe Illustrator 16.0.0, SVG Export Plug-In . SVG Version: 6.00 Build 0)  -->
<svg xmlns="http://www.w3.org/2000/svg" xmlns:xlink="http://www.w3.org/1999/xlink" version="1.1" id="2572889922_Capa_1_grid" x="0px" y="0px" width="32px" height="32px" viewBox="0 0 32 32" enable-background="new 0 0 32 32" xml:space="preserve">
<path d="M0,0v20h28v4H6v-2H4v4h24v4H10v-2H8v4h22V0H0z M22,2h2v2h-2V2z M18,2h2v2h-2V2z M14,2h2v2h-2V2z M10,2h2v2h-2V2z M6,2h2v2H6  V2z M2,2h2v2H2V2z M4,18H2v-2h2V18z M8,18H6v-2h2V18z M12,18h-2v-2h2V18z M16,18h-2v-2h2V18z M20,18h-2v-2h2V18z M24,18h-2v-2h2V18z   M28,18h-2v-2h2V18z M28,14H2V6h26V14z M28,4h-2V2h2V4z"/>
</svg>
