<?xml version="1.0" encoding="utf-8"?>
<!-- Generator: Adobe Illustrator 16.0.0, SVG Export Plug-In . SVG Version: 6.00 Build 0)  -->
<svg xmlns="http://www.w3.org/2000/svg" xmlns:xlink="http://www.w3.org/1999/xlink" version="1.1" id="2572889921_Capa_1_grid" x="0px" y="0px" width="32px" height="32px" viewBox="0 0 32 32" enable-background="new 0 0 32 32" xml:space="preserve">
<path d="M0,4v8h1.999V6H30v20H18v2h14V4H0z M4,12v10.18C3.689,22.061,3.35,22,3,22c-1.66,0-3,1.34-3,3s1.34,3,3,3s3-1.34,3-3v-7h8  v4.18C13.689,22.061,13.35,22,13,22c-1.66,0-3,1.34-3,3s1.34,3,3,3s3-1.34,3-3V12H4z M3,26c-0.55,0-1-0.45-1-1s0.45-1,1-1  s1,0.45,1,1S3.55,26,3,26z M13,26c-0.55,0-1-0.45-1-1s0.45-1,1-1s1,0.45,1,1S13.55,26,13,26z M14,16H6v-2h8V16z"/>
</svg>
