<?xml version="1.0" encoding="utf-8"?>
<!-- Generator: Adobe Illustrator 16.0.0, SVG Export Plug-In . SVG Version: 6.00 Build 0)  -->
<svg xmlns="http://www.w3.org/2000/svg" xmlns:xlink="http://www.w3.org/1999/xlink" version="1.1" id="2572889924_Capa_1_grid" x="0px" y="0px" width="32px" height="32px" viewBox="0 0 32 32" enable-background="new 0 0 32 32" xml:space="preserve">
<path d="M16,6v2h12v8h-1c-1.38,0-1.64-0.51-2.11-1.45C24.36,13.48,23.62,12,21,12c-2.78,0-3.44,2.64-3.97,4.76  c-0.34,1.351-0.61,2.26-1.03,2.76v2.341c1.95-0.551,2.51-2.78,2.97-4.62C19.52,15.04,19.9,14,21,14c1.38,0,1.64,0.51,2.11,1.45  C23.64,16.52,24.38,18,27.01,18H28v8H16v2h14V6H16z M0,28h14v-2H2v-8h1c2.62,0,3.36-1.48,3.89-2.55C7.36,14.51,7.62,14,9,14  c1.1,0,1.48,1.04,2.03,3.24c0.46,1.84,1.02,4.069,2.97,4.62V19.52c-0.42-0.5-0.69-1.409-1.03-2.76C12.44,14.64,11.78,12,9,12  c-2.62,0-3.36,1.48-3.89,2.55C4.64,15.49,4.38,16,3.01,16H2V8h12V6H0V28z"/>
</svg>
