<?xml version="1.0" encoding="utf-8"?>
<!-- Generator: Adobe Illustrator 16.0.0, SVG Export Plug-In . SVG Version: 6.00 Build 0)  -->
<svg xmlns="http://www.w3.org/2000/svg" xmlns:xlink="http://www.w3.org/1999/xlink" version="1.1" id="2572889923_Capa_1_grid" x="0px" y="0px" width="32px" height="32px" viewBox="0 0 32 32" enable-background="new 0 0 32 32" xml:space="preserve">
<path d="M2,6v15.141L7,17.8l5.97,3.979L14,21.01v2.48l-0.97,0.73L7,20.2l-5,3.329V28h12v2H0V4h14v2H2z M7,8c-1.66,0-3,1.34-3,3  s1.34,3,3,3s3-1.34,3-3S8.66,8,7,8z M7,12c-0.55,0-1-0.45-1-1s0.45-1,1-1s1,0.45,1,1S7.55,12,7,12z M30,4v26H16v-2h12v-4.5l-7-5.25  L16,22v-2.5l5-3.75L28,21V6H16V4H30z"/>
</svg>
