<?xml version="1.0" encoding="utf-8"?>
<!-- Generator: Adobe Illustrator 16.0.0, SVG Export Plug-In . SVG Version: 6.00 Build 0)  -->
<svg xmlns="http://www.w3.org/2000/svg" xmlns:xlink="http://www.w3.org/1999/xlink" version="1.1" id="2572889925_Capa_1_grid" x="0px" y="0px" width="32px" height="32px" viewBox="0 0 32 32" enable-background="new 0 0 32 32" xml:space="preserve">
<path d="M29,0H3C0.8,0,0,1.79,0,3v29h32V3C32,0.8,30.21,0,29,0z M2,8h9.95c-0.63,6.49-7.36,7.72-9.95,7.95V8z M18.04,8  c0.319,4.09,2.64,6.63,5.399,8.12C22.49,18.4,20.8,22.75,20.21,26h-8.42c-0.59-3.25-2.28-7.6-3.23-9.88  c2.76-1.49,5.08-4.03,5.4-8.12H18.04z M2,17.96c1.42-0.09,3.1-0.399,4.74-1.021h0.01C7.63,19.09,9.17,23.07,9.76,26H2V17.96z M30,30  H2v-2h28V30z M30,26h-7.76c0.59-2.93,2.13-6.9,3.02-9.05c1.641,0.608,3.32,0.92,4.74,1.01V26z M30,15.95  c-2.59-0.23-9.33-1.44-9.95-7.95H30V15.95z M30,6H2V3.01C2.01,2.55,2.19,2,3,2h25.99C29.45,2.01,30,2.19,30,3V6z"/>
</svg>
