<?xml version="1.0" encoding="utf-8"?>
<!-- Generator: Adobe Illustrator 16.0.0, SVG Export Plug-In . SVG Version: 6.00 Build 0)  -->
<svg xmlns="http://www.w3.org/2000/svg" xmlns:xlink="http://www.w3.org/1999/xlink" version="1.1" id="2572889928_Capa_1_grid" x="0px" y="0px" width="32px" height="32px" viewBox="0 0 32 32" enable-background="new 0 0 32 32" xml:space="preserve">
<path d="M8,20.811L4.07,30.63l1.859,0.74L9,23.689l3.07,7.681l1.859-0.74L10,20.811V16h3.17C13.06,16.32,13,16.65,13,17  c0,1.38,0.94,2.55,2.22,2.891C15.08,20.23,15,20.609,15,21c0,1.38,0.94,2.55,2.221,2.891C17.08,24.23,17,24.609,17,25  c0,1.65,1.35,3,3,3h12v-2H20c0,0-1,0-1-1s1-1,1-1h3v-2h-5c0,0-1,0-1-1s1-1,1-1h5v-2h-7c0,0-1,0-1-1c0,0,0-1,1-1h7v-2h-5c0,0-1,0-1-1  s1-1,1-1h10c0.05,0,0.109,0,0.16-0.01c0.439-0.07,0.811-0.4,0.939-0.85c0.26-0.86-0.229-1.97-3.431-4.88  c-1.55-1.41-0.979-2.49-0.84-2.7c0.01,0,0.319-0.39,0.851-0.46c0.609-0.07,1.26,0.33,1.689,0.68c0.908,0.73,2.76,2.21,4.63,3.71  V4.92c-1.399-1.12-2.67-2.14-3.37-2.7c-1.102-0.88-2.189-1.24-3.25-1.1c-1.37,0.19-2.109,1.19-2.189,1.3  c-0.641,0.9-1.229,3.17,1.141,5.32c1.15,1.05,1.84,1.78,2.25,2.26H18c-1.65,0-3,1.35-3,3c0,0.35,0.06,0.69,0.18,1H10v-2.1  c2.28-0.46,4-2.48,4-4.9c0-2.76-2.24-5-5-5S4,4.24,4,7c0,2.42,1.72,4.44,4,4.9V14H5.41l-3.7-3.71l-1.42,1.42L4.59,16H8V20.811z   M9,10c-1.65,0-3-1.35-3-3s1.35-3,3-3s3,1.35,3,3S10.65,10,9,10z"/>
</svg>
