<?xml version="1.0" encoding="utf-8"?>
<!-- Generator: Adobe Illustrator 16.0.0, SVG Export Plug-In . SVG Version: 6.00 Build 0)  -->
<svg xmlns="http://www.w3.org/2000/svg" xmlns:xlink="http://www.w3.org/1999/xlink" version="1.1" id="2572889929_Capa_1_grid" x="0px" y="0px" width="32px" height="32px" viewBox="0 0 32 32" enable-background="new 0 0 32 32" xml:space="preserve">
<path d="M0,4v26h32V4H0z M30,28H2v-6h28V28z M30,20H2V6h28V20z M4,24h12v2H4V24z M11,10c1.654,0,3,1.346,3,3s-1.346,3-3,3  s-3-1.346-3-3S9.346,10,11,10 M11,8c-2.761,0-5,2.239-5,5s2.239,5,5,5s5-2.239,5-5S13.761,8,11,8L11,8z M22,12c1.104,0,2,0.897,2,2  s-0.896,2-2,2s-2-0.897-2-2S20.896,12,22,12 M22,10c-2.209,0-4,1.791-4,4s1.791,4,4,4s4-1.791,4-4S24.209,10,22,10L22,10z"/>
</svg>
