<?xml version="1.0" encoding="utf-8"?>
<!-- Generator: Adobe Illustrator 16.0.0, SVG Export Plug-In . SVG Version: 6.00 Build 0)  -->
<svg xmlns="http://www.w3.org/2000/svg" xmlns:xlink="http://www.w3.org/1999/xlink" version="1.1" id="2572889931_Capa_1_grid" x="0px" y="0px" width="32px" height="32px" viewBox="0 0 32 32" enable-background="new 0 0 32 32" xml:space="preserve">
<path d="M16,7.38V18h-2c-2.21,0-4,1.79-4,4s1.79,4,4,4s4-1.79,4-4v-7.38l4,2v-6.24L16,7.38z M16,22c0,1.1-0.9,2-2,2s-2-0.9-2-2  s0.9-2,2-2h2V22z M20,13.38l-2-1v-1.76l2,1V13.38z M9,28c-0.104,0-0.211-0.018-0.316-0.052C8.411,27.857,2,25.622,2,17  S8.411,6.142,8.684,6.051c0.525-0.176,1.09,0.109,1.265,0.633c0.175,0.524-0.108,1.09-0.632,1.265C9.104,8.022,4,9.862,4,17  c0,7.195,5.263,9.033,5.316,9.052c0.524,0.175,0.807,0.74,0.632,1.265C9.809,27.734,9.419,28,9,28z M23,28  c-0.419,0-0.809-0.266-0.948-0.684c-0.175-0.522,0.106-1.088,0.628-1.265C22.912,25.973,28,24.127,28,17  c0-7.196-5.264-9.034-5.316-9.051c-0.522-0.175-0.807-0.741-0.632-1.265c0.175-0.523,0.735-0.808,1.265-0.632  C23.589,6.142,30,8.378,30,17s-6.411,10.857-6.684,10.948C23.211,27.982,23.104,28,23,28z"/>
</svg>
