<?xml version="1.0" encoding="utf-8"?>
<!-- Generator: Adobe Illustrator 16.0.0, SVG Export Plug-In . SVG Version: 6.00 Build 0)  -->
<svg xmlns="http://www.w3.org/2000/svg" xmlns:xlink="http://www.w3.org/1999/xlink" version="1.1" id="2572889932_Capa_1_grid" x="0px" y="0px" width="32px" height="32px" viewBox="0 0 32 32" enable-background="new 0 0 32 32" xml:space="preserve">
<path d="M32,6H10C4.48,6,0,10.48,0,16c0,5.52,4.48,10,10,10h22v-6H19.16C19.7,18.779,20,17.42,20,16s-0.3-2.78-0.84-4H32V6z M28,22  h2v2h-2V22z M24,22h2v2h-2V22z M20,22h2v2h-2V22z M18,24h-2.01c0.76-0.561,1.439-1.24,2.01-2V24z M10,24c-4.41,0-8-3.59-8-8  s3.59-8,8-8s8,3.59,8,8S14.41,24,10,24z M18,10c-0.57-0.76-1.25-1.44-2.01-2H18V10z M22,10h-2V8h2V10z M26,10h-2V8h2V10z M30,10h-2  V8h2V10z M8,13.532L12.113,16L8,18.468V13.532L8,13.532z M6,10v12l10-6L6,10L6,10z"/>
</svg>
