<?xml version="1.0" encoding="utf-8"?>
<!-- Generator: Adobe Illustrator 16.0.0, SVG Export Plug-In . SVG Version: 6.00 Build 0)  -->
<svg xmlns="http://www.w3.org/2000/svg" xmlns:xlink="http://www.w3.org/1999/xlink" version="1.1" id="2572889933_Capa_1_grid" x="0px" y="0px" width="32px" height="32px" viewBox="0 0 32 32" enable-background="new 0 0 32 32" xml:space="preserve">
<path d="M16,10H0v14h16v-4h2l6,2V12l-6,2h-2V10z M22,19.23l-2-0.67V15.44l2-0.67V19.23z M18,18h-2v-2h2V18z M14,12v10H2V12H14z   M22.29,2.29L17.59,7l4.7,4.71l1.42-1.42L21.41,8H22c0.32,0,8,0.15,8,9c0,8.9-7.67,9-8,9h-0.59l2.3-2.29l-1.42-1.42L17.59,27  l4.7,4.71l1.42-1.42L21.41,28H22c0.1,0,10-0.13,10-11S22.1,6,22,6h-0.59l2.3-2.29L22.29,2.29z"/>
</svg>
