<?xml version="1.0" encoding="utf-8"?>
<!-- Generator: Adobe Illustrator 16.0.0, SVG Export Plug-In . SVG Version: 6.00 Build 0)  -->
<svg xmlns="http://www.w3.org/2000/svg" xmlns:xlink="http://www.w3.org/1999/xlink" version="1.1" id="2572889935_Capa_1_grid" x="0px" y="0px" width="32px" height="32px" viewBox="0 0 32 32" enable-background="new 0 0 32 32" xml:space="preserve">
<path d="M28,2V0H9C5.04,0,4,3.27,4,5v22c0,1.73,1.04,5,5,5h19V8h-2V2H28z M6,5c0.01-0.52,0.19-3,3-3h15v6H9C6.18,8,6.01,5.5,6,5.01  V5z M26,30H9c-2.82,0-2.99-2.5-3-3v-1h20V30z M26,24H6v-8h20V24z M26,14H6V9.12C6.73,9.65,7.71,10,9,10h17V14z M24,20v2H8v-4h2v2H24  z"/>
</svg>
