<?xml version="1.0" encoding="utf-8"?>
<!-- Generator: Adobe Illustrator 16.0.0, SVG Export Plug-In . SVG Version: 6.00 Build 0)  -->
<svg xmlns="http://www.w3.org/2000/svg" xmlns:xlink="http://www.w3.org/1999/xlink" version="1.1" id="2572889938_Capa_1_grid" x="0px" y="0px" width="32px" height="32px" viewBox="0 0 32 32" enable-background="new 0 0 32 32" xml:space="preserve">
<path d="M0,4v26h32V4H0z M29.4,6C27.779,9.03,23.26,16,16,16C8.76,16,4.23,9.04,2.6,6H29.4z M2,8.95c1.75,2.74,4.71,6.33,8.92,8.05  C6.71,18.721,3.75,22.311,2,25.05V8.95z M2.6,28C4.22,24.971,8.74,18,16,18c7.24,0,11.77,6.96,13.4,10H2.6z M30,25.05  c-1.75-2.739-4.71-6.34-8.93-8.05c4.22-1.71,7.188-5.32,8.93-8.06V25.05z"/>
</svg>
