<?xml version="1.0" encoding="utf-8"?>
<!-- Generator: Adobe Illustrator 16.0.0, SVG Export Plug-In . SVG Version: 6.00 Build 0)  -->
<svg xmlns="http://www.w3.org/2000/svg" xmlns:xlink="http://www.w3.org/1999/xlink" version="1.1" id="2572889937_Capa_1_grid" x="0px" y="0px" width="32px" height="32px" viewBox="0 0 32 32" enable-background="new 0 0 32 32" xml:space="preserve">
<path d="M0,12v18h24V12H0z M22,28H2v-2h20V28z M22,24H2V14h20V24z M10,2v8h20v8h-4v2h6V2H10z M30,8H12V4h18V8z M17,16H7  c-1.66,0-3,1.34-3,3s1.34,3,3,3h10c1.66,0,3-1.34,3-3S18.66,16,17,16z M7,20c-0.55,0-1-0.45-1-1s0.45-1,1-1s1,0.45,1,1S7.55,20,7,20  z M14.18,20H9.82C9.94,19.689,10,19.35,10,19s-0.06-0.689-0.18-1h4.36C14.06,18.311,14,18.65,14,19S14.06,19.689,14.18,20z M17,20  c-0.55,0-1-0.45-1-1s0.45-1,1-1s1,0.45,1,1S17.55,20,17,20z"/>
</svg>
