<?xml version="1.0" encoding="utf-8"?>
<!-- Generator: Adobe Illustrator 16.0.0, SVG Export Plug-In . SVG Version: 6.00 Build 0)  -->
<svg xmlns="http://www.w3.org/2000/svg" xmlns:xlink="http://www.w3.org/1999/xlink" version="1.1" id="2572889936_Capa_1_grid" x="0px" y="0px" width="32px" height="32px" viewBox="0 0 32 32" enable-background="new 0 0 32 32" xml:space="preserve">
<path d="M14,30v2H4V19.41l-2.29,2.3l-1.42-1.42L5,15.59l4.71,4.7l-1.42,1.42L6,19.41V30H14z M31.71,11.71L27,16.41l-4.71-4.7  l1.42-1.42l2.29,2.3V2h-8V0h10v12.59l2.29-2.3L31.71,11.71z M0,0v14h16V0H0z M14,12H2V2h12V12z M16,18v14h16V18H16z M30,30H18V20h12  V30z"/>
</svg>
