<?xml version="1.0" encoding="utf-8"?>
<!-- Generator: Adobe Illustrator 16.0.0, SVG Export Plug-In . SVG Version: 6.00 Build 0)  -->
<svg xmlns="http://www.w3.org/2000/svg" xmlns:xlink="http://www.w3.org/1999/xlink" version="1.1" id="2572889939_Capa_1_grid" x="0px" y="0px" width="32px" height="32px" viewBox="0 0 32 32" enable-background="new 0 0 32 32" xml:space="preserve">
<path d="M0,6v20h32V6H0z M30,24H2v-2h28V24z M30,20H2V8h28V20z M24,10c-2.21,0-4,1.79-4,4s1.79,4,4,4s4-1.79,4-4S26.21,10,24,10z   M24,16c-1.1,0-2-0.9-2-2s0.9-2,2-2s2,0.9,2,2S25.1,16,24,16z M4,12v2h2v4h10v-4h2v-2H4z M14,16H8v-2h6V16z"/>
</svg>
