<?xml version="1.0" encoding="utf-8"?>
<!-- Generator: Adobe Illustrator 16.0.0, SVG Export Plug-In . SVG Version: 6.00 Build 0)  -->
<svg xmlns="http://www.w3.org/2000/svg" xmlns:xlink="http://www.w3.org/1999/xlink" version="1.1" id="2572889940_Capa_1_grid" x="0px" y="0px" width="32px" height="32px" viewBox="0 0 32 32" enable-background="new 0 0 32 32" xml:space="preserve">
<path d="M29,6H4V2H0v2h2v28h2v-4h25c3,0,3-3,3-3V9C32,6,29,6,29,6z M30,25c0,1-1,1-1,1H4V8h25c0,0,1,0,1,1V25z M21,10H6v14h15  c3.87,0,7-3.13,7-7S24.87,10,21,10z M8,22V12h8.11c-1.3,1.26-2.11,3.04-2.11,5s0.81,3.74,2.11,5H8z M21,22c-2.76,0-5-2.24-5-5  s2.24-5,5-5s5,2.24,5,5S23.76,22,21,22z"/>
</svg>
