<?xml version="1.0" encoding="utf-8"?>
<!-- Generator: Adobe Illustrator 16.0.0, SVG Export Plug-In . SVG Version: 6.00 Build 0)  -->
<svg xmlns="http://www.w3.org/2000/svg" xmlns:xlink="http://www.w3.org/1999/xlink" version="1.1" id="2572889947_Capa_1_grid" x="0px" y="0px" width="32px" height="32px" viewBox="0 0 32 32" enable-background="new 0 0 32 32" xml:space="preserve">
<path d="M0,4v24h30V4H0z M2,6h2v2H2V6z M4,26H2v-2h2V26z M8,26H6v-2h2V26z M8,22H2V10h6V22z M8,8H6V6h2V8z M14,6h2v2h-2V6z M10,6h2  v2h-2V6z M12,26h-2v-2h2V26z M16,26h-2v-2h2V26z M20,26h-2v-2h2V26z M20,22H10V10h10V22z M20,8h-2V6h2V8z M22,6h2v2h-2V6z M24,26h-2  v-2h2V26z M28,26h-2v-2h2V26z M28,22h-6V10h6V22z M28,8h-2V6h2V8z"/>
</svg>
