<?xml version="1.0" encoding="utf-8"?>
<!-- Generator: Adobe Illustrator 16.0.0, SVG Export Plug-In . SVG Version: 6.00 Build 0)  -->
<svg xmlns="http://www.w3.org/2000/svg" xmlns:xlink="http://www.w3.org/1999/xlink" version="1.1" id="2572889943_Capa_1_grid" x="0px" y="0px" width="32px" height="32px" viewBox="0 0 32 32" enable-background="new 0 0 32 32" xml:space="preserve">
<path d="M0,4v26h32V4H0z M6,28H2v-4h4V28z M6,22H2v-4h4V22z M6,16H2v-4h4V16z M6,10H2V6h4V10z M24,28H8V6h16V28z M30,28h-4v-4h4V28z   M30,22h-4v-4h4V22z M30,16h-4v-4h4V16z M30,10h-4V6h4V10z"/>
</svg>
