<?xml version="1.0" encoding="utf-8"?>
<!-- Generator: Adobe Illustrator 16.0.0, SVG Export Plug-In . SVG Version: 6.00 Build 0)  -->
<svg xmlns="http://www.w3.org/2000/svg" xmlns:xlink="http://www.w3.org/1999/xlink" version="1.1" id="2572889945_Capa_1_grid" x="0px" y="0px" width="32px" height="32px" viewBox="0 0 32 32" enable-background="new 0 0 32 32" xml:space="preserve">
<path d="M28,2V0H9C5.04,0,4,3.27,4,5v22c0,1.73,1.04,5,5,5h19v-4h-2v2H9c-2.82,0-2.99-2.5-3-3V9.12C6.73,9.65,7.71,10,9,10h19V8h-2  V2H28z M24,8H9C6.18,8,6.01,5.5,6,5.01V5c0.01-0.52,0.19-3,3-3h15V8z M10,12v14h20V12H10z M14,24h-2v-2h2V24z M14,20h-2v-2h2V20z   M14,16h-2v-2h2V16z M24,24h-8V14h8V24z M28,24h-2v-2h2V24z M28,20h-2v-2h2V20z M28,16h-2v-2h2V16z"/>
</svg>
