<?xml version="1.0" encoding="utf-8"?>
<!-- Generator: Adobe Illustrator 16.0.0, SVG Export Plug-In . SVG Version: 6.00 Build 0)  -->
<svg xmlns="http://www.w3.org/2000/svg" xmlns:xlink="http://www.w3.org/1999/xlink" version="1.1" id="2572889946_Capa_1_grid" x="0px" y="0px" width="32px" height="32px" viewBox="0 0 32 32" enable-background="new 0 0 32 32" xml:space="preserve">
<path d="M2,24h2v2H2V24z M16,24h2v2l-2,0.001V24z M2,20h2v2H2V20z M16,20h2v2h-2V20z M2,16h2v2l-2,0.001V16z M6,16h8v10H6V16z   M16,16h2v2h-2V16z M0,28h20V14H0V28z M0,4v8h1.999V6H30v20h-8v2h10V4H0z"/>
</svg>
