<?xml version="1.0" encoding="utf-8"?>
<!-- Generator: Adobe Illustrator 16.0.0, SVG Export Plug-In . SVG Version: 6.00 Build 0)  -->
<svg xmlns="http://www.w3.org/2000/svg" xmlns:xlink="http://www.w3.org/1999/xlink" version="1.1" id="2572889941_Capa_1_grid" x="0px" y="0px" width="32px" height="32px" viewBox="0 0 32 32" enable-background="new 0 0 32 32" xml:space="preserve">
<path d="M24,6v24H8V14H6v4H2v-4H0v18h32V6H24z M6,30H2v-4h4V30z M6,24H2v-4h4V24z M30,30h-4v-4h4V30z M30,24h-4v-4h4V24z M30,18h-4  v-4h4V18z M30,12h-4V8h4V12z M21.41,7l-4.7,4.71l-1.42-1.42L17.59,8H5.41l2.3,2.29l-1.42,1.42L1.59,7l4.7-4.71l1.42,1.42L5.41,6  h12.18l-2.3-2.29l1.42-1.42L21.41,7z"/>
</svg>
