<?xml version="1.0" encoding="utf-8"?>
<!-- Generator: Adobe Illustrator 16.0.0, SVG Export Plug-In . SVG Version: 6.00 Build 0)  -->
<svg xmlns="http://www.w3.org/2000/svg" xmlns:xlink="http://www.w3.org/1999/xlink" version="1.1" id="2572889944_Capa_1_grid" x="0px" y="0px" width="32px" height="32px" viewBox="0 0 32 32" enable-background="new 0 0 32 32" xml:space="preserve">
<path d="M23.529,14.15c-0.299-0.18-0.67-0.2-0.979-0.04L20,15.39V15c0-0.55-0.45-1-1-1h-8c-2.2,0-3,1.79-3,3v6c0,2.2,1.79,3,3,3h8  c0.55,0,1-0.45,1-1v-0.38l2.55,1.271C22.689,25.96,22.85,26,23,26c0.18,0,0.37-0.05,0.529-0.15C23.82,25.67,24,25.35,24,25V15  C24,14.65,23.82,14.33,23.529,14.15z M18,24h-6.99C10.55,23.99,10,23.811,10,23v-5.99c0.01-0.46,0.19-1.01,1-1.01h7V24z M22,23.38  l-2-1v-4.76l2-1V23.38z M28,2V0H9C5.04,0,4,3.27,4,5v22c0,1.73,1.04,5,5,5h19V8h-2V2H28z M6,5c0.01-0.52,0.19-3,3-3h15v6H9  C6.18,8,6.01,5.5,6,5.01V5z M26,30H9c-2.82,0-2.99-2.5-3-3V9.12C6.73,9.65,7.71,10,9,10h17V30z"/>
</svg>
