<?xml version="1.0" encoding="utf-8"?>
<!-- Generator: Adobe Illustrator 16.0.0, SVG Export Plug-In . SVG Version: 6.00 Build 0)  -->
<svg xmlns="http://www.w3.org/2000/svg" xmlns:xlink="http://www.w3.org/1999/xlink" version="1.1" id="2572889949_Capa_1_grid" x="0px" y="0px" width="32px" height="32px" viewBox="0 0 32 32" enable-background="new 0 0 32 32" xml:space="preserve">
<path d="M26,10v11c0,1.73-1.04,5-5,5h-5v4h2v2h-6v-2h2v-4H9c-3.96,0-5-3.27-5-5V10h2v11c0.01,0.5,0.18,3,3,3h12  c2.82,0,2.99-2.5,3-3.01V10H26z M20,0H10C8,0,8,2,8,2v18c0,2,2,2,2,2h10c2,0,2-2,2-2V2C22,0,20,0,20,0z M20,6h-4v2h4v2h-4v2h4v2h-4  v2h4v3.96c0,0.011,0,0.021-0.01,0.04h-9.95c-0.01,0-0.02,0-0.04-0.01V16h4v-2h-4v-2h4v-2h-4V8h4V6h-4V2.04c0-0.01,0-0.02,0.01-0.04  h9.95C19.971,2,19.98,2,20,2.01V6z"/>
</svg>
