<?xml version="1.0" encoding="utf-8"?>
<!-- Generator: Adobe Illustrator 16.0.0, SVG Export Plug-In . SVG Version: 6.00 Build 0)  -->
<svg xmlns="http://www.w3.org/2000/svg" xmlns:xlink="http://www.w3.org/1999/xlink" version="1.1" id="2572889951_Capa_1_grid" x="0px" y="0px" width="32px" height="32px" viewBox="0 0 32 32" enable-background="new 0 0 32 32" xml:space="preserve">
<path d="M8,18v2H6v12H4V20H2v-2H8z M14,22v10h-2v-0.15C11.711,31.95,11.371,32,11,32c-2.199,0-3-1.789-3-3v-7h2v7  c0.01,0.449,0.189,1,1,1s0.99-0.551,1-1.01V22H14z M12.641,0L10,6.24V12H8V6.24L5.359,0H7.59L9,3.779L10.41,0H12.641z M15,2  c-2.199,0-3,1.79-3,3v4c0,1.21,0.801,3,3,3s3-1.79,3-3V5C18,3.79,17.199,2,15,2z M16,8.99C15.99,9.45,15.811,10,15,10  s-0.99-0.55-1-1V5.01C14.01,4.55,14.189,4,15,4s0.99,0.55,1,1V8.99z M19,22c-0.371,0-0.711,0.051-1,0.15V20h-2v12h2v-0.15  C18.289,31.95,18.629,32,19,32c2.199,0,3-1.789,3-3v-4C22,23.789,21.199,22,19,22z M20,28.99C19.99,29.449,19.809,30,19,30  s-0.99-0.551-1-1v-3.99c0.01-0.459,0.191-1.01,1-1.01s0.99,0.551,1,1V28.99z M30,28v-3c0-2.199-1.789-3-3-3s-3,0.801-3,3v4  c0,1.211,0.801,3,3,3s3-1.789,3-3l-2-0.01C27.99,29.449,27.809,30,27,30s-0.99-0.551-1-1v-1H30z M26,25c0-0.809,0.551-0.99,0.99-1  c0.459,0.01,1.01,0.191,1.01,1v1h-2V25z M2,14h28v2H2V14z M26,2v10h-2v-0.15c-0.289,0.1-0.629,0.15-1,0.15c-2.199,0-3-1.79-3-3V2h2  v7c0.01,0.45,0.191,1,1,1s0.99-0.55,1-1.01V2H26z"/>
</svg>
