<?xml version="1.0" encoding="utf-8"?>
<!-- Generator: Adobe Illustrator 16.0.0, SVG Export Plug-In . SVG Version: 6.00 Build 0)  -->
<svg xmlns="http://www.w3.org/2000/svg" xmlns:xlink="http://www.w3.org/1999/xlink" version="1.1" id="2572889950_Capa_1_grid" x="0px" y="0px" width="32px" height="32px" viewBox="0 0 32 32" enable-background="new 0 0 32 32" xml:space="preserve">
<path d="M23.992,6C25.004,6.012,30,6.361,30,12v8c0,5.646-5.007,5.988-6,6H8c-5.646,0-5.989-5.007-6-6v-7.989  C2.011,11.007,2.354,6,8,6H23.992 M24,4H8c-8,0-8,8-8,8v8c0,0,0,8,8,8h16c0,0,8,0,8-8v-8C32,4,24,4,24,4L24,4z M14,13.532L18.111,16  L14,18.468V13.532 M12,10v12l10-6L12,10L12,10z"/>
</svg>
