<?xml version="1.0" encoding="utf-8"?>
<!-- Generator: Adobe Illustrator 16.0.0, SVG Export Plug-In . SVG Version: 6.00 Build 0)  -->
<svg xmlns="http://www.w3.org/2000/svg" xmlns:xlink="http://www.w3.org/1999/xlink" version="1.1" id="Layer_1" x="0px" y="0px" width="48px" height="48px" viewBox="0 0 48 48" enable-background="new 0 0 48 48" xml:space="preserve">
<g>
	<circle cx="24" cy="24" r="4"/>
	<path d="M17.691,17.503c-0.425-0.352-1.055-0.291-1.408,0.134C14.811,19.422,14,21.681,14,24c0,2.308,0.804,4.56,2.264,6.339   c0.198,0.241,0.485,0.366,0.774,0.366c0.223,0,0.448-0.074,0.634-0.227c0.427-0.351,0.489-0.98,0.139-1.407   C16.643,27.647,16,25.847,16,24c0-1.855,0.648-3.663,1.826-5.089C18.177,18.485,18.117,17.855,17.691,17.503z"/>
	<path d="M12,24c0-2.707,0.877-5.261,2.538-7.386c0.34-0.435,0.263-1.063-0.172-1.404c-0.435-0.34-1.064-0.263-1.404,0.172   C11.024,17.862,10,20.842,10,24c0,3.228,1.123,6.377,3.163,8.867c0.197,0.241,0.484,0.366,0.774,0.366   c0.223,0,0.447-0.074,0.633-0.227c0.427-0.35,0.49-0.979,0.14-1.407C12.962,29.466,12,26.768,12,24z"/>
	<path d="M8,24c0-3.711,1.297-7.326,3.651-10.18c0.352-0.426,0.291-1.056-0.135-1.408c-0.424-0.351-1.056-0.291-1.408,0.135   C7.459,15.758,6,19.826,6,24c0,4.15,1.444,8.199,4.067,11.4c0.198,0.241,0.485,0.366,0.774,0.366c0.223,0,0.447-0.074,0.633-0.227   c0.427-0.35,0.49-0.98,0.14-1.407C9.284,31.288,8,27.689,8,24z"/>
	<path d="M37.934,12.6c-0.35-0.426-0.98-0.491-1.407-0.14c-0.427,0.35-0.49,0.98-0.14,1.407C38.717,16.712,40,20.311,40,24   c0,3.711-1.296,7.326-3.65,10.18c-0.352,0.427-0.291,1.057,0.135,1.408c0.187,0.153,0.412,0.229,0.636,0.229   c0.289,0,0.574-0.124,0.772-0.363C40.541,32.241,42,28.174,42,24C42,19.85,40.556,15.801,37.934,12.6z"/>
	<path d="M31.74,17.667c-0.349-0.427-0.98-0.491-1.407-0.14c-0.427,0.35-0.49,0.98-0.14,1.407C31.358,20.356,32,22.155,32,24   c0,1.855-0.648,3.663-1.826,5.089c-0.352,0.426-0.291,1.057,0.135,1.408c0.187,0.153,0.412,0.229,0.636,0.229   c0.288,0,0.574-0.124,0.772-0.363C33.189,28.578,34,26.319,34,24C34,21.694,33.197,19.445,31.74,17.667z"/>
	<path d="M35.038,15.383c-0.341-0.436-0.966-0.513-1.404-0.172c-0.435,0.34-0.512,0.969-0.172,1.404C35.122,18.739,36,21.292,36,24   c0,2.707-0.878,5.262-2.539,7.386c-0.34,0.436-0.263,1.063,0.172,1.404c0.184,0.143,0.4,0.212,0.615,0.212   c0.298,0,0.592-0.132,0.789-0.384C36.976,30.138,38,27.158,38,24S36.976,17.862,35.038,15.383z"/>
</g>
</svg>
