<?xml version="1.0" encoding="utf-8"?>
<!-- Generator: Adobe Illustrator 16.0.0, SVG Export Plug-In . SVG Version: 6.00 Build 0)  -->
<svg xmlns="http://www.w3.org/2000/svg" xmlns:xlink="http://www.w3.org/1999/xlink" version="1.1" id="Layer_1" x="0px" y="0px" width="48px" height="48px" viewBox="0 0 48 48" enable-background="new 0 0 48 48" xml:space="preserve">
<path d="M39.75,32.625c-2.25-2.25-9-2.807-10.125-3.853c-0.705-0.653-0.968-1.627-1.066-3.093c0.462-0.293,0.84-0.608,1.066-0.93  c0.729-1.036,1.219-2.682,1.553-4.522c0.037,0.006,0.071,0.022,0.109,0.022c0.789,0,1.564-1.26,1.733-2.813  c0.165-1.553-0.335-2.813-1.12-2.813c-0.044,0-0.087,0.018-0.13,0.025c0.095-1.853,0.104-3.504,0.104-4.525  c0-4.5-3.938-7.945-8.367-7.945s-4.641,3.023-4.641,3.023c-1.477,0.422-2.742,1.336-2.742,4.922c0,1.021,0.01,2.673,0.105,4.525  c-0.043-0.007-0.085-0.025-0.128-0.025c-0.788,0-1.29,1.26-1.121,2.813c0.167,1.553,0.944,2.813,1.729,2.813  c0.039,0,0.074-0.017,0.112-0.023c0.333,1.84,0.823,3.487,1.553,4.523c0.227,0.321,0.605,0.638,1.066,0.93  c-0.099,1.466-0.361,2.439-1.066,3.093C17.25,29.818,10.5,30.375,8.25,32.625S6,40.5,6,41.625c0,1.032,3.789,3.012,14.843,3.331  c0.797,0.022,1.391-0.45,1.44-1.268c0.218-3.642,1.064-10.292,1.064-10.688c0-0.547-0.974-1.883-0.974-2.452S23.557,28,24,28  s1.626,1.979,1.626,2.548S24.652,32.453,24.652,33c0,0.396,0.847,7.047,1.064,10.688c0.049,0.817,0.643,1.29,1.439,1.268  C38.211,44.637,42,42.657,42,41.625C42,40.5,42,34.875,39.75,32.625z"/>
</svg>
