<?xml version="1.0" encoding="utf-8"?>
<!-- Generator: Adobe Illustrator 16.0.0, SVG Export Plug-In . SVG Version: 6.00 Build 0)  -->
<svg xmlns="http://www.w3.org/2000/svg" xmlns:xlink="http://www.w3.org/1999/xlink" version="1.1" id="Capa_1" x="0px" y="0px" width="48px" height="48px" viewBox="0 0 48 48" enable-background="new 0 0 48 48" xml:space="preserve">
<g>
	<path d="M29,22l-3,0v-3c0-1.104-0.896-2-2-2c-1.104,0-2,0.895-2,2v3l-3,0c-1.105,0-2,0.895-2,2c-0.001,1.104,0.896,2.001,2,2h3v3   c0,0.553,0.224,1.053,0.586,1.414C22.948,30.776,23.448,31,24,31c1.104,0,2-0.896,2-2v-3h3c1.104,0,2-0.896,2-2   C31,22.895,30.104,22,29,22z"/>
	<path d="M24,4C12.972,4,4,12.972,4,24c0,11.028,8.972,20,20,20c11.028,0,20-8.972,20-20C44,12.972,35.028,4,24,4z M26,39.861v-2.86   c0-1.104-0.896-2-2-2s-2,0.896-2,2v2.86C14.777,38.954,9.045,33.223,8.139,26H11c1.104,0,2-0.896,2-2s-0.896-2-2-2H8.139   C9.045,14.777,14.777,9.045,22,8.139V11c0,1.104,0.896,2,2,2s2-0.896,2-2V8.139C33.223,9.045,38.954,14.777,39.861,22H37   c-1.104,0-2,0.896-2,2s0.896,2,2,2h2.861C38.954,33.223,33.223,38.954,26,39.861z"/>
</g>
</svg>
