<?xml version="1.0" encoding="utf-8"?>
<!-- Generator: Adobe Illustrator 16.0.0, SVG Export Plug-In . SVG Version: 6.00 Build 0)  -->
<svg xmlns="http://www.w3.org/2000/svg" xmlns:xlink="http://www.w3.org/1999/xlink" version="1.1" id="Layer_1" x="0px" y="0px" width="48px" height="48px" viewBox="0 0 48 48" enable-background="new 0 0 48 48" xml:space="preserve">
<path d="M39.75,32.625c-1.343-1.343-4.304-2.086-6.695-2.686c-1.598-0.4-2.978-0.747-3.43-1.167  c-0.641-0.593-0.944-1.457-1.059-3.086c0.473-0.297,0.827-0.61,1.06-0.938c0.668-0.948,1.188-2.462,1.559-4.52  c0.034,0.005,0.066,0.021,0.103,0.021c0.789,0,1.564-1.26,1.733-2.813c0.165-1.553-0.335-2.813-1.12-2.813  c-0.045,0-0.089,0.018-0.133,0.026c0.07-1.386,0.107-2.89,0.107-4.526c0-4.381-3.754-7.945-8.367-7.945  c-4.198,0-4.606,2.696-4.639,3.005l-0.002,0.018c-1.424,0.407-2.742,1.285-2.742,4.922c0,1.635,0.037,3.139,0.107,4.525  c-0.043-0.007-0.086-0.025-0.13-0.025c-0.788,0-1.29,1.26-1.121,2.813c0.167,1.553,0.944,2.813,1.729,2.813  c0.037,0,0.07-0.016,0.105-0.021c0.372,2.059,0.891,3.573,1.56,4.522c0.262,0.37,0.663,0.687,1.058,0.935  c-0.114,1.629-0.418,2.493-1.059,3.087c-0.451,0.42-1.831,0.767-3.44,1.169c-2.38,0.598-5.341,1.341-6.685,2.684  C6.319,34.556,6.012,38.992,6,41.464c-0.002,0.553,0.443,1.002,0.996,1.005c0.001,0,0.003,0,0.004,0c0.55,0,0.998-0.444,1-0.995  c0.02-4.274,0.872-6.643,1.664-7.435c0.952-0.952,3.844-1.678,5.768-2.16c2.285-0.572,3.514-0.906,4.304-1.641  c1.316-1.221,1.643-2.913,1.729-5.079c0.016-0.393-0.199-0.758-0.55-0.934c-0.565-0.284-0.835-0.529-0.905-0.627  c-0.704-1-1.885-4.079-1.885-13.473c0-2.63,0.657-2.817,1.315-3.006l0.651-0.204c0.381-0.119,0.655-0.454,0.696-0.851l0.07-0.667  c0.016-0.125,0.227-1.218,2.65-1.218c3.511,0,6.367,2.667,6.367,5.945c0,9.396-1.181,12.473-1.883,13.47  c-0.07,0.1-0.342,0.346-0.908,0.632c-0.35,0.176-0.564,0.541-0.549,0.932c0.086,2.167,0.413,3.86,1.729,5.08  c0.791,0.735,2.02,1.068,4.316,1.644c1.912,0.48,4.803,1.206,5.755,2.157c0.791,0.791,1.644,3.16,1.664,7.435  c0.003,0.551,0.45,0.995,1,0.995c0.002,0,0.003,0,0.005,0c0.552-0.003,0.998-0.452,0.995-1.005  C41.988,38.991,41.681,34.556,39.75,32.625z"/>
</svg>
