<?xml version="1.0" encoding="utf-8"?>
<!-- Generator: Adobe Illustrator 16.0.0, SVG Export Plug-In . SVG Version: 6.00 Build 0)  -->
<svg xmlns="http://www.w3.org/2000/svg" xmlns:xlink="http://www.w3.org/1999/xlink" version="1.1" id="Capa_1" x="0px" y="0px" width="48px" height="48px" viewBox="0 0 48 48" enable-background="new 0 0 48 48" xml:space="preserve">
<g>
	<path d="M34.54,8.785c-0.365-0.416-0.997-0.458-1.411-0.094c-0.416,0.363-0.458,0.995-0.095,1.411   C34.947,12.288,36,15.093,36,18.001c0,2.909-1.054,5.715-2.968,7.901c-0.363,0.415-0.321,1.047,0.095,1.411   c0.189,0.166,0.424,0.247,0.658,0.247c0.278,0,0.555-0.115,0.753-0.342C36.771,24.668,38,21.395,38,18.001   C38,14.608,36.771,11.335,34.54,8.785z"/>
	<path d="M14.872,8.693c-0.416-0.364-1.047-0.321-1.411,0.094c-2.231,2.55-3.46,5.822-3.46,9.214c0,3.388,1.227,6.659,3.454,9.21   c0.198,0.226,0.475,0.342,0.754,0.342c0.233,0,0.468-0.081,0.657-0.247c0.416-0.363,0.459-0.995,0.096-1.411   C13.051,23.709,12,20.905,12,18.001c0-2.907,1.053-5.712,2.965-7.897C15.329,9.688,15.287,9.057,14.872,8.693z"/>
	<path d="M18.728,23.605c0.233,0,0.468-0.082,0.658-0.247c0.416-0.364,0.458-0.995,0.095-1.411C18.526,20.855,18,19.454,18,18.001   s0.526-2.854,1.48-3.946c0.363-0.416,0.321-1.047-0.095-1.411c-0.415-0.362-1.048-0.319-1.411,0.095   C16.701,14.195,16,16.064,16,18.001s0.701,3.806,1.975,5.263C18.172,23.49,18.449,23.605,18.728,23.605z"/>
	<path d="M28.61,12.641c-0.415,0.364-0.457,0.996-0.093,1.411C29.474,15.144,30,16.546,30,18.001s-0.527,2.858-1.484,3.95   c-0.364,0.416-0.322,1.047,0.093,1.411c0.189,0.167,0.425,0.248,0.659,0.248c0.277,0,0.555-0.115,0.752-0.341   c1.277-1.458,1.98-3.329,1.98-5.269s-0.702-3.81-1.979-5.267C29.658,12.318,29.026,12.278,28.61,12.641z"/>
	<path d="M26.98,34.79l-1.99-16.91C24.93,17.38,24.51,17,24,17s-0.93,0.38-0.99,0.88l-1.99,16.91C18.73,35.65,16,37.14,16,39   c0,1.21,0.8,3,3,3h10c1.21,0,3-0.8,3-3C32,37.14,29.27,35.65,26.98,34.79z"/>
</g>
</svg>
