<?xml version="1.0" encoding="utf-8"?>
<!-- Generator: Adobe Illustrator 16.0.0, SVG Export Plug-In . SVG Version: 6.00 Build 0)  -->
<svg xmlns="http://www.w3.org/2000/svg" xmlns:xlink="http://www.w3.org/1999/xlink" version="1.1" id="Capa_1" x="0px" y="0px" width="48px" height="48px" viewBox="0 0 48 48" enable-background="new 0 0 48 48" xml:space="preserve">
<path d="M37.887,41.333L27.031,10.58C27.627,9.881,28,8.988,28,8c0-2.206-1.794-4-4-4c-2.206,0-4,1.794-4,4  c0,0.988,0.373,1.881,0.969,2.58L10.114,41.333c-0.368,1.042,0.179,2.185,1.22,2.552c1.044,0.37,2.184-0.179,2.551-1.22L15.532,38  h16.937l1.646,4.665C34.405,43.486,35.177,44,36.001,44c0.221,0,0.445-0.037,0.666-0.115C37.708,43.518,38.255,42.375,37.887,41.333  z M24,14.009l2.647,7.501l-8.188,8.197L24,14.009z M19.825,34l8.299-8.308L31.057,34H19.825z"/>
</svg>
