<?xml version="1.0" encoding="utf-8"?>
<!-- Generator: Adobe Illustrator 16.0.0, SVG Export Plug-In . SVG Version: 6.00 Build 0)  -->
<svg xmlns="http://www.w3.org/2000/svg" xmlns:xlink="http://www.w3.org/1999/xlink" version="1.1" id="Capa_1" x="0px" y="0px" width="48px" height="48px" viewBox="0 0 48 48" enable-background="new 0 0 48 48" xml:space="preserve">
<path d="M43.845,23.229c-0.092-0.222-0.227-0.432-0.404-0.616v0c-0.01-0.01-0.02-0.021-0.03-0.031l-9.995-9.996  c-0.781-0.781-2.047-0.781-2.828,0c-0.781,0.78-0.781,2.048,0,2.828L37.171,22H10.822l6.585-6.585c0.781-0.78,0.781-2.048,0-2.828  c-0.781-0.781-2.047-0.781-2.828,0l-9.996,9.996c-0.011,0.01-0.021,0.021-0.03,0.031v0c-0.178,0.184-0.313,0.394-0.404,0.616  c-0.199,0.475-0.199,1.066,0,1.541c0.092,0.222,0.227,0.432,0.404,0.615v0.001c0.01,0.01,0.02,0.021,0.03,0.03l9.996,9.995  c0.781,0.781,2.047,0.781,2.828,0s0.781-2.047,0-2.828L10.822,26h26.349l-6.584,6.584c-0.781,0.781-0.781,2.047,0,2.828  s2.047,0.781,2.828,0l9.995-9.995c0.011-0.01,0.021-0.021,0.03-0.03v-0.001c0.178-0.184,0.313-0.394,0.404-0.615  C44.044,24.296,44.044,23.704,43.845,23.229z"/>
</svg>
