<?xml version="1.0" encoding="utf-8"?>
<!-- Generator: Adobe Illustrator 16.0.0, SVG Export Plug-In . SVG Version: 6.00 Build 0)  -->
<svg xmlns="http://www.w3.org/2000/svg" xmlns:xlink="http://www.w3.org/1999/xlink" version="1.1" id="Capa_1" x="0px" y="0px" width="48px" height="48px" viewBox="0 0 48 48" enable-background="new 0 0 48 48" xml:space="preserve">
<path d="M24,6C14.075,6,6,14.075,6,24c0,9.925,8.075,18,18,18c9.925,0,18-8.075,18-18C42,14.075,33.925,6,24,6z M30.711,25.293  c-0.391-0.391-1.023-0.391-1.414,0l-5.001,5c-0.188,0.188-0.293,0.441-0.293,0.707s0.105,0.52,0.293,0.707l5.001,5  C29.492,36.902,29.748,37,30.004,37s0.512-0.098,0.707-0.293c0.391-0.391,0.391-1.023,0-1.414l-3.294-3.291L37.835,32  c-2.771,4.774-7.929,8-13.835,8c-8.822,0-16-7.178-16-16c0-1.026,0.106-2.027,0.292-3h14.879l-2.585,2.586  c-0.781,0.781-0.781,2.047,0,2.828C20.976,26.805,21.488,27,22,27s1.024-0.195,1.414-0.586l6-6c0.781-0.781,0.781-2.047,0-2.828  l-6-6c-0.78-0.781-2.047-0.781-2.828,0c-0.781,0.781-0.781,2.047,0,2.828L23.171,17H9.635C12.238,11.681,17.69,8,24,8  c8.822,0,16,7.178,16,16c0,2.122-0.424,4.146-1.178,6H27.417l3.294-3.293C31.102,26.316,31.102,25.684,30.711,25.293z"/>
</svg>
