<?xml version="1.0" encoding="utf-8"?>
<!-- Generator: Adobe Illustrator 16.0.0, SVG Export Plug-In . SVG Version: 6.00 Build 0)  -->
<svg xmlns="http://www.w3.org/2000/svg" xmlns:xlink="http://www.w3.org/1999/xlink" version="1.1" id="Capa_1" x="0px" y="0px" width="48px" height="48px" viewBox="0 0 48 48" enable-background="new 0 0 48 48" xml:space="preserve">
<g>
	<path d="M4,41c0,2.2,1.79,3,3,3h34c2.2,0,3-1.79,3-3v-9H4V41z M35,36h4c0.55,0,1,0.45,1,1s-0.45,1-1,1h-4c-0.55,0-1-0.45-1-1   S34.45,36,35,36z M23,36h8c0.55,0,1,0.45,1,1s-0.45,1-1,1h-8c-0.55,0-1-0.45-1-1S22.45,36,23,36z"/>
	<path d="M41,18h-4.169c0.102-0.653,0.17-1.318,0.17-2c0-7.168-5.832-13-13-13S11,8.832,11,16c0,0.682,0.068,1.346,0.17,2H7   c-2.2,0-3,1.79-3,3v9h40v-9C44,18.8,42.21,18,41,18z M24,27.001c-6.076,0-11-4.925-11-11S17.925,5,24,5s11,4.924,11,11   S30.076,27.001,24,27.001z"/>
	<path d="M29.876,14.703C29.268,11.459,26.419,8.995,23,8.995c-3.86,0-7,3.14-7,7c0,3.858,3.14,6.998,7,6.998c0.552,0,1-0.448,1-1   s-0.448-1-1-1c-2.757,0-5-2.242-5-4.998c0-2.757,2.243-5,5-5c2.534,0,4.612,1.902,4.935,4.35l-2.487-1.244   c-0.495-0.247-1.094-0.047-1.342,0.447c-0.247,0.494-0.047,1.094,0.447,1.342l3.998,2c0.142,0.071,0.295,0.105,0.447,0.105   c0.259,0,0.516-0.101,0.707-0.293l2.999-3c0.391-0.391,0.391-1.024,0-1.414c-0.391-0.391-1.023-0.391-1.414,0L29.876,14.703z"/>
</g>
</svg>
