<?xml version="1.0" encoding="utf-8"?>
<!-- Generator: Adobe Illustrator 16.0.0, SVG Export Plug-In . SVG Version: 6.00 Build 0)  -->
<svg xmlns="http://www.w3.org/2000/svg" xmlns:xlink="http://www.w3.org/1999/xlink" version="1.1" id="Capa_1" x="0px" y="0px" width="48px" height="48px" viewBox="0 0 48 48" enable-background="new 0 0 48 48" xml:space="preserve">
<g>
	<path d="M27.003,29.992c0.553,0,1-0.447,1-1s-0.447-1-1-1c-2.757,0-5.001-2.242-5.001-4.999c0-2.756,2.244-4.998,5.001-4.998   c2.534,0,4.611,1.901,4.935,4.348L29.45,21.1c-0.494-0.247-1.094-0.047-1.342,0.447c-0.247,0.494-0.047,1.095,0.447,1.342l3.998,2   c0.142,0.071,0.295,0.105,0.447,0.105c0.259,0,0.515-0.101,0.707-0.293l2.999-2.999c0.391-0.39,0.391-1.023,0-1.414   s-1.023-0.391-1.414,0l-1.414,1.414c-0.608-3.243-3.458-5.707-6.876-5.707c-3.86,0-7.001,3.139-7.001,6.998   C20.002,26.853,23.143,29.992,27.003,29.992z"/>
	<path d="M36,4H14c-3.96,0-5,3.27-5,5v30c0,3.96,3.27,5,5,5h22c3.96,0,5-3.27,5-5V9C41,5.04,37.73,4,36,4z M39,32H19   c-0.3,0-1-0.1-1-1.01V15.01c0.01-0.46,0.19-1.01,1-1.01h20V32z"/>
</g>
</svg>
