<?xml version="1.0" encoding="utf-8"?>
<!-- Generator: Adobe Illustrator 16.0.0, SVG Export Plug-In . SVG Version: 6.00 Build 0)  -->
<svg xmlns="http://www.w3.org/2000/svg" xmlns:xlink="http://www.w3.org/1999/xlink" version="1.1" id="Capa_1" x="0px" y="0px" width="48px" height="48px" viewBox="0 0 48 48" enable-background="new 0 0 48 48" xml:space="preserve">
<path d="M39.97,30.167l-6.168-6.168l6.168-6.168c1.311-1.3,2.03-3.05,2.03-4.9c0-1.85-0.72-3.59-2.03-4.9  C38.66,6.72,36.92,6,35.07,6c-1.851,0-3.59,0.72-4.9,2.03l-6.168,6.168l-6.167-6.167C16.525,6.722,14.784,6,12.933,6  C11.081,6,9.34,6.722,8.031,8.031c-2.702,2.703-2.702,7.1,0,9.803l6.167,6.167L8.03,30.17c-2.7,2.7-2.7,7.1,0,9.8  C9.34,41.28,11.08,42,12.93,42c1.85,0,3.6-0.72,4.9-2.03l6.168-6.168l6.169,6.169c1.31,1.309,3.05,2.029,4.901,2.029  s3.592-0.721,4.901-2.029s2.031-3.05,2.031-4.901C42.001,33.217,41.279,31.476,39.97,30.167z M37,10c0.55,0,1,0.45,1,1s-0.45,1-1,1  s-1-0.45-1-1S36.45,10,37,10z M37,14c0.55,0,1,0.45,1,1s-0.45,1-1,1s-1-0.45-1-1S36.45,14,37,14z M11,38c-0.55,0-1-0.45-1-1  s0.45-1,1-1s1,0.45,1,1S11.55,38,11,38z M11,34c-0.55,0-1-0.45-1-1s0.45-1,1-1s1,0.45,1,1S11.55,34,11,34z M33,10c0.55,0,1,0.45,1,1  s-0.45,1-1,1s-1-0.45-1-1S32.45,10,33,10z M33,14c0.55,0,1,0.45,1,1s-0.45,1-1,1s-1-0.45-1-1S32.45,14,33,14z M15,38  c-0.55,0-1-0.45-1-1s0.45-1,1-1s1,0.45,1,1S15.55,38,15,38z M15,34c-0.55,0-1-0.45-1-1s0.45-1,1-1s1,0.45,1,1S15.55,34,15,34z   M15.612,22.587L9.445,16.42c-1.922-1.923-1.922-5.052,0-6.975C10.376,8.513,11.615,8,12.933,8c1.317,0,2.556,0.513,3.488,1.445  l6.167,6.167L15.612,22.587z M24,25.42l-1.29,1.29C22.51,26.9,22.26,27,22,27s-0.51-0.1-0.71-0.29c-0.39-0.39-0.39-1.03,0-1.42  L22.58,24l-1.29-1.29c-0.39-0.39-0.39-1.03,0-1.42s1.03-0.39,1.42,0L24,22.58l1.29-1.29c0.39-0.39,1.03-0.39,1.42,0  s0.39,1.03,0,1.42L25.42,24l1.29,1.29c0.39,0.39,0.39,1.03,0,1.42C26.51,26.9,26.26,27,26,27s-0.51-0.1-0.71-0.29L24,25.42z   M38.556,38.557C37.624,39.487,36.386,40,35.068,40s-2.556-0.513-3.487-1.443l-6.169-6.169l6.976-6.976l6.168,6.169  c0.932,0.932,1.445,2.17,1.445,3.488C40.001,36.387,39.487,37.625,38.556,38.557z"/>
</svg>
