<?xml version="1.0" encoding="utf-8"?>
<!-- Generator: Adobe Illustrator 16.0.0, SVG Export Plug-In . SVG Version: 6.00 Build 0)  -->
<svg xmlns="http://www.w3.org/2000/svg" xmlns:xlink="http://www.w3.org/1999/xlink" version="1.1" id="Capa_1" x="0px" y="0px" width="48px" height="48px" viewBox="0 0 48 48" enable-background="new 0 0 48 48" xml:space="preserve">
<g>
	<path d="M15,6c-4.962,0-9,4.038-9,9v18c0,4.963,4.038,9,9,9s9-4.037,9-9V15C24,10.038,19.962,6,15,6z M20,33c0,2.757-2.243,5-5,5   s-5-2.243-5-5v-0.248l10-11.429V33z M20,15.249L10,26.677V15c0-2.757,2.243-5,5-5s5,2.243,5,5V15.249z"/>
	<path d="M39.001,38H36V8c0-1.104-0.896-2-2-2s-2,0.896-2,2v2.001h-3.001c-1.104,0-2,0.896-2,2s0.896,2,2,2H32V38h-3.001   c-1.104,0-2,0.896-2,2s0.896,2,2,2h10.002c1.104,0,2-0.896,2-2S40.105,38,39.001,38z"/>
</g>
</svg>
