<?xml version="1.0" encoding="utf-8"?>
<!-- Generator: Adobe Illustrator 16.0.0, SVG Export Plug-In . SVG Version: 6.00 Build 0)  -->
<svg xmlns="http://www.w3.org/2000/svg" xmlns:xlink="http://www.w3.org/1999/xlink" version="1.1" id="Capa_1" x="0px" y="0px" width="48px" height="48px" viewBox="0 0 48 48" enable-background="new 0 0 48 48" xml:space="preserve">
<path d="M40,7c0-0.55-0.45-1-1-1s-1,0.45-1,1c0,2.16-1.58,4.07-3.44,5.57c-0.319-0.3-0.649-0.59-0.989-0.86  c-0.25-0.22-0.521-0.42-0.79-0.59C30.01,9.16,26.64,8,23,8C13.63,8,6,15.63,6,25s7.63,17,17,17s17-7.63,17-17  c0-4.19-1.53-8.02-4.05-10.98C38.13,12.21,40,9.83,40,7z M29,22c-2.76,0-5-2.24-5-5s2.24-5,5-5c1,0,1.92,0.3,2.7,0.81  c0.12,0.08,0.229,0.16,0.34,0.25c0.29,0.22,0.56,0.48,0.79,0.77c-2.14,1.4-4.16,2.22-4.2,2.24c-0.51,0.21-0.76,0.79-0.56,1.3  C28.23,17.76,28.6,18,29,18c0.12,0,0.25-0.02,0.37-0.07c0.189-0.08,2.189-0.89,4.41-2.32C33.91,16.05,34,16.51,34,17  C34,19.76,31.76,22,29,22z"/>
</svg>
