<?xml version="1.0" encoding="utf-8"?>
<!-- Generator: Adobe Illustrator 16.0.0, SVG Export Plug-In . SVG Version: 6.00 Build 0)  -->
<svg xmlns="http://www.w3.org/2000/svg" xmlns:xlink="http://www.w3.org/1999/xlink" version="1.1" id="Capa_1" x="0px" y="0px" width="48px" height="48px" viewBox="0 0 48 48" enable-background="new 0 0 48 48" xml:space="preserve">
<g>
	<path d="M19.28,38.57l1.85,3.699C22.06,42.09,23.02,42,24,42s1.94,0.09,2.87,0.27l1.85-3.699C27.21,38.19,25.63,38,24,38   S20.79,38.19,19.28,38.57z"/>
	<path d="M15.64,31.27l1.82,3.65C19.54,34.32,21.73,34,24,34c2.27,0,4.46,0.32,6.54,0.92l1.82-3.65C29.72,30.45,26.91,30,24,30   S18.28,30.45,15.64,31.27z"/>
	<path d="M8.43,16.85l1.79,3.59C14.52,18.86,19.16,18,24,18s9.48,0.86,13.78,2.44l1.79-3.59C34.73,15.01,29.48,14,24,14   C18.52,14,13.27,15.01,8.43,16.85z"/>
	<path d="M24,6C17.23,6,10.76,7.3,4.83,9.66l1.79,3.59C12.01,11.15,17.87,10,24,10s11.99,1.15,17.38,3.25l1.79-3.59   C37.24,7.3,30.77,6,24,6z"/>
	<path d="M12.03,24.05l1.8,3.61C17.03,26.58,20.45,26,24,26s6.97,0.58,10.17,1.66l1.8-3.61C32.22,22.72,28.19,22,24,22   C19.81,22,15.78,22.72,12.03,24.05z"/>
</g>
</svg>
