<?xml version="1.0" encoding="utf-8"?>
<!-- Generator: Adobe Illustrator 16.0.0, SVG Export Plug-In . SVG Version: 6.00 Build 0)  -->
<svg xmlns="http://www.w3.org/2000/svg" xmlns:xlink="http://www.w3.org/1999/xlink" version="1.1" id="Capa_1" x="0px" y="0px" width="48px" height="48px" viewBox="0 0 48 48" enable-background="new 0 0 48 48" xml:space="preserve">
<g>
	<path d="M19,31c1.654,0,3-1.346,3-3v-5.586l-5.962,5.962C16.226,29.852,17.475,31,19,31z"/>
	<path d="M19,17c-1.654,0-3,1.346-3,3v5.585l5.962-5.962C21.774,18.149,20.525,17,19,17z"/>
	<path d="M24,6C14.059,6,6,14.059,6,24c0,9.941,8.059,18,18,18c9.941,0,18-8.059,18-18C42,14.059,33.941,6,24,6z M24,28   c0,2.757-2.243,5-5,5s-5-2.243-5-5v-8c0-2.757,2.243-5,5-5s5,2.243,5,5V28z M31.5,32.999h-5c-0.553,0-1-0.447-1-1s0.447-1,1-1H28   V19h-1.5c-0.553,0-1-0.448-1-1s0.447-1,1-1H28v-1c0-0.552,0.447-1,1-1s1,0.448,1,1v14.999h1.5c0.553,0,1,0.447,1,1   S32.053,32.999,31.5,32.999z"/>
</g>
</svg>
