<?xml version="1.0" encoding="utf-8"?>
<!-- Generator: Adobe Illustrator 16.0.0, SVG Export Plug-In . SVG Version: 6.00 Build 0)  -->
<svg xmlns="http://www.w3.org/2000/svg" xmlns:xlink="http://www.w3.org/1999/xlink" version="1.1" id="Capa_1" x="0px" y="0px" width="48px" height="48px" viewBox="0 0 48 48" enable-background="new 0 0 48 48" xml:space="preserve">
<g>
	<path d="M39,10H9c-2.2,0-3,1.8-3,3v22c0,2.2,1.79,3,3,3h13.07C22,38.56,22,38.83,22,39c0,3.25,2.58,5,5,5c1.32,0,2.28-0.64,3-1.28   C30.72,43.36,31.68,44,33,44c2.42,0,5-1.75,5-5c0-0.23-0.01-0.54-0.07-1H39c2.2,0,3-1.8,3-3V13C42,10.8,40.2,10,39,10z M21,30H11   c-0.55,0-1-0.45-1-1s0.45-1,1-1h10c0.55,0,1,0.45,1,1S21.55,30,21,30z M21,24H11c-0.55,0-1-0.45-1-1s0.45-1,1-1h10   c0.55,0,1,0.45,1,1S21.55,24,21,24z M36,39c0,2.201-1.794,3-3,3c-0.914,0-1.602-0.687-2.207-1.293   c-0.247-0.247-0.662-0.661-0.835-0.711c-0.089,0.05-0.504,0.464-0.751,0.711C28.602,41.313,27.914,42,27,42c-1.206,0-3-0.799-3-3   c0-1.266,0.682-4.508,1.316-7.26C24.495,30.714,24,29.414,24,28c0-3.309,2.691-6,6-6s6,2.691,6,6c0,1.415-0.495,2.715-1.318,3.742   C35.553,35.52,36,37.972,36,39z M37,18H11c-0.55,0-1-0.45-1-1s0.45-1,1-1h26c0.55,0,1,0.45,1,1S37.55,18,37,18z"/>
	<path d="M30,34c-1.079,0-2.09-0.29-2.966-0.791C26.374,36.154,26,38.232,26,39c0,0.806,0.55,0.988,1.012,1   c0.119-0.046,0.534-0.46,0.781-0.707C28.398,38.687,29.086,38,30,38s1.602,0.687,2.207,1.293c0.247,0.247,0.662,0.661,0.835,0.711   C33.45,39.988,34,39.806,34,39c0-0.76-0.374-2.838-1.035-5.79C32.089,33.71,31.079,34,30,34z"/>
	<path d="M30,24c-2.206,0-4,1.794-4,4s1.794,4,4,4s4-1.794,4-4S32.206,24,30,24z"/>
</g>
</svg>
