<?xml version="1.0" encoding="utf-8"?>
<!-- Generator: Adobe Illustrator 16.0.0, SVG Export Plug-In . SVG Version: 6.00 Build 0)  -->
<svg xmlns="http://www.w3.org/2000/svg" xmlns:xlink="http://www.w3.org/1999/xlink" version="1.1" id="Layer_1" x="0px" y="0px" width="48px" height="48px" viewBox="0 0 48 48" enable-background="new 0 0 48 48" xml:space="preserve">
<g>
	<path d="M43,8H5c-1.657,0-3,1.343-3,3v26c0,1.657,1.343,3,3,3h38c1.657,0,3-1.343,3-3V11C46,9.343,44.657,8,43,8z M17,10.5   c0.828,0,1.5,0.672,1.5,1.5s-0.672,1.5-1.5,1.5s-1.5-0.672-1.5-1.5S16.172,10.5,17,10.5z M12,10.5c0.828,0,1.5,0.672,1.5,1.5   s-0.672,1.5-1.5,1.5s-1.5-0.672-1.5-1.5S11.172,10.5,12,10.5z M7,10.5c0.828,0,1.5,0.672,1.5,1.5S7.828,13.5,7,13.5   S5.5,12.828,5.5,12S6.172,10.5,7,10.5z M44,37c0,0.553-0.447,1-1,1H5c-0.552,0-1-0.447-1-1V16h40V37z"/>
	<path d="M24,34c6.543,0,8.801-4.366,8.894-4.552c0.247-0.494,0.047-1.095-0.447-1.342c-0.494-0.245-1.096-0.047-1.342,0.447   C31.087,28.588,29.32,32,24,32c-5.242,0-7.024-3.29-7.107-3.451c-0.249-0.491-0.847-0.688-1.339-0.442   c-0.494,0.247-0.694,0.848-0.447,1.342C15.199,29.634,17.457,34,24,34z"/>
	<path d="M29,25c1.102-0.001,2-1.343,2-3.008C31,20.343,30.103,19,29.001,19c-1.103,0-2,1.343-2.001,2.993   C27.001,23.657,27.897,25,29,25z"/>
	<path d="M19,25c1.102-0.001,2-1.343,2-3.008C21,20.343,20.103,19,19.001,19c-1.102,0-2,1.343-2.001,2.993   C17.001,23.657,17.897,25,19,25z"/>
</g>
</svg>
