<?xml version="1.0" encoding="utf-8"?>
<!-- Generator: Adobe Illustrator 16.0.0, SVG Export Plug-In . SVG Version: 6.00 Build 0)  -->
<svg xmlns="http://www.w3.org/2000/svg" xmlns:xlink="http://www.w3.org/1999/xlink" version="1.1" id="Layer_1" x="0px" y="0px" width="48px" height="48px" viewBox="0 0 48 48" enable-background="new 0 0 48 48" xml:space="preserve">
<path d="M38.972,22.065C38.98,21.876,39,21.69,39,21.5C39,15.148,33.851,10,27.5,10c-4.484,0-8.359,2.572-10.256,6.316  C16.217,15.495,14.917,15,13.499,15c-3.211,0-5.826,2.527-5.984,5.7C4.275,22.063,2,25.266,2,29.001C2,33.969,6.03,38,11,38h27  h0.001C42.417,38,46,34.417,46,30.001C46,25.911,42.93,22.545,38.972,22.065z"/>
</svg>
