<?xml version="1.0" encoding="utf-8"?>
<!-- Generator: Adobe Illustrator 16.0.0, SVG Export Plug-In . SVG Version: 6.00 Build 0)  -->
<svg xmlns="http://www.w3.org/2000/svg" xmlns:xlink="http://www.w3.org/1999/xlink" version="1.1" id="Capa_1" x="0px" y="0px" width="48px" height="48px" viewBox="0 0 48 48" enable-background="new 0 0 48 48" xml:space="preserve">
<path d="M24,6C14.08,6,6,14.08,6,24s8.08,18,18,18s18-8.08,18-18S33.92,6,24,6z M13.997,18.002c0-1.104,0.896-2,2-2s2,0.896,2,2  s-0.896,2-2,2S13.997,19.106,13.997,18.002z M17.998,34.014c-1.104,0-2-0.896-2-2.001s0.896-2.001,2-2.001s2,0.896,2,2.001  S19.102,34.014,17.998,34.014z M23,15c-1.104,0-2-0.896-2-2s0.896-2,2-2s2,0.896,2,2S24.104,15,23,15z M26.002,36.016  c-1.104,0-2-0.896-2-2.001s0.896-2.001,2-2.001s2.001,0.896,2.001,2.001S27.106,36.016,26.002,36.016z M28.004,30.01  c-1.104,0-2.001-0.896-2.001-2.001s0.896-2.001,2.001-2.001s2.001,0.896,2.001,2.001S29.108,30.01,28.004,30.01z M34.01,26.006  c-1.104,0-2.001-0.896-2.001-2c0-1.104,0.896-2,2.001-2s2.001,0.896,2.001,2C36.011,25.109,35.114,26.006,34.01,26.006z"/>
</svg>
