<?xml version="1.0" encoding="utf-8"?>
<!-- Generator: Adobe Illustrator 16.0.0, SVG Export Plug-In . SVG Version: 6.00 Build 0)  -->
<svg xmlns="http://www.w3.org/2000/svg" xmlns:xlink="http://www.w3.org/1999/xlink" version="1.1" id="Capa_1" x="0px" y="0px" width="48px" height="48px" viewBox="0 0 48 48" enable-background="new 0 0 48 48" xml:space="preserve">
<g>
	<path d="M22.99,20.99c0.55,0,1-0.45,1-1c0-0.55-0.45-1-1-1h-7v-2c0-1.2-0.8-3-3-3c-2.61,0-9,3.51-9,10c0,6.5,6.39,10,9,10   c2.2,0,3-1.79,3-3v-2h7c0.55,0,1-0.45,1-1s-0.45-1-1-1h-7v-6H22.99z"/>
	<path d="M35.014,13.991c-2.201,0-3,1.794-3,3v14c0,1.206,0.799,3,3,3c2.61,0,8.996-3.504,8.996-10   C44.01,17.496,37.624,13.991,35.014,13.991z M35.014,31.991c-0.806,0-0.988-0.55-1-1V17.003c0.012-0.461,0.194-1.012,1-1.012   c1.385,0,6.996,2.573,6.996,8C42.01,29.418,36.398,31.991,35.014,31.991z"/>
</g>
</svg>
