<?xml version="1.0" encoding="utf-8"?>
<!-- Generator: Adobe Illustrator 16.0.0, SVG Export Plug-In . SVG Version: 6.00 Build 0)  -->
<svg xmlns="http://www.w3.org/2000/svg" xmlns:xlink="http://www.w3.org/1999/xlink" version="1.1" id="Layer_1" x="0px" y="0px" width="48px" height="48px" viewBox="0 0 48 48" enable-background="new 0 0 48 48" xml:space="preserve">
<path d="M24,6C14.07,6,6,14.07,6,24c0,9.92,8.07,18,18,18c9.92,0,18-8.08,18-18C42,14.07,33.92,6,24,6z M15,18c1.66,0,3,1.57,3,3.5  c0,0.54-0.11,1.05-0.3,1.5h-5.4c-0.19-0.45-0.3-0.96-0.3-1.5C12,19.57,13.34,18,15,18z M35.95,29.32C35.86,29.59,33.61,36,24.01,36  H24c-9.61,0-11.86-6.41-11.95-6.68c-0.17-0.53,0.11-1.09,0.63-1.271c0.07-0.02,0.14-0.04,0.21-0.04C12.92,28,12.96,28,13,28h22  c0.05,0,0.1,0,0.13,0.02c0.061,0,0.12,0.021,0.19,0.04C35.84,28.24,36.12,28.8,35.95,29.32z M35.72,23h-5.41  c-0.189-0.45-0.3-0.96-0.3-1.5c0-1.93,1.351-3.5,3-3.5c1.66,0,3,1.57,3,3.5C36.01,22.04,35.91,22.55,35.72,23z"/>
</svg>
