<?xml version="1.0" encoding="utf-8"?>
<!-- Generator: Adobe Illustrator 16.0.0, SVG Export Plug-In . SVG Version: 6.00 Build 0)  -->
<svg xmlns="http://www.w3.org/2000/svg" xmlns:xlink="http://www.w3.org/1999/xlink" version="1.1" id="Layer_1" x="0px" y="0px" width="48px" height="48px" viewBox="0 0 48 48" enable-background="new 0 0 48 48" xml:space="preserve">
<path d="M24,6C14.07,6,6,14.07,6,24c0,9.92,8.07,18,18,18c9.92,0,18-8.08,18-18C42,14.07,33.92,6,24,6z M12,21.5  c0-0.54,0.11-1.05,0.3-1.5h5.4c0.19,0.45,0.3,0.96,0.3,1.5c0,1.93-1.34,3.5-3,3.5S12,23.43,12,21.5z M33,32H15c-0.55,0-1-0.45-1-1  s0.45-1,1-1h18c0.55,0,1,0.45,1,1S33.55,32,33,32z M33.01,25c-1.649,0-3-1.57-3-3.5c0-0.54,0.11-1.05,0.3-1.5h5.41  c0.19,0.45,0.29,0.96,0.29,1.5C36.01,23.43,34.67,25,33.01,25z"/>
</svg>
