<?xml version="1.0" encoding="utf-8"?>
<!-- Generator: Adobe Illustrator 16.0.0, SVG Export Plug-In . SVG Version: 6.00 Build 0)  -->
<svg xmlns="http://www.w3.org/2000/svg" xmlns:xlink="http://www.w3.org/1999/xlink" version="1.1" id="Capa_1" x="0px" y="0px" width="48px" height="48px" viewBox="0 0 48 48" enable-background="new 0 0 48 48" xml:space="preserve">
<path d="M24,6C14.07,6,6,14.07,6,24c0,9.92,8.07,18,18,18c9.92,0,18-8.08,18-18C42,14.07,33.92,6,24,6z M33.45,33.9  C33.3,33.97,33.15,34,33,34c-0.37,0-0.72-0.2-0.9-0.55C32.03,33.32,30.22,30,24,30c-6.22,0-8.03,3.32-8.11,3.46  c-0.25,0.48-0.85,0.68-1.34,0.43c-0.49-0.25-0.69-0.84-0.44-1.34C14.2,32.37,16.47,28,24,28c7.53,0,9.8,4.37,9.89,4.55  C34.14,33.05,33.94,33.65,33.45,33.9z M37.479,17.878c-0.54,0.295-1.346,0.73-2.291,1.23c0.507,0.626,0.827,1.463,0.827,2.393  c0,1.933-1.345,3.5-3.002,3.5c-1.593,0-2.883-1.452-2.982-3.28c-2.596,1.245-5.048,2.28-6.03,2.28c-0.981,0-3.428-1.033-6.02-2.275  c-0.101,1.826-1.39,3.275-2.98,3.275c-1.656,0-3-1.567-3-3.5c0-0.928,0.32-1.76,0.826-2.386c-0.951-0.502-1.762-0.941-2.305-1.237  c-0.485-0.265-0.664-0.872-0.399-1.357c0.265-0.483,0.871-0.663,1.357-0.399c5.183,2.827,11.443,5.879,12.521,5.879  c1.078,0,7.339-3.052,12.521-5.879c0.481-0.265,1.092-0.086,1.356,0.399S37.964,17.613,37.479,17.878z"/>
</svg>
