<?xml version="1.0" encoding="utf-8"?>
<!-- Generator: Adobe Illustrator 16.0.0, SVG Export Plug-In . SVG Version: 6.00 Build 0)  -->
<svg xmlns="http://www.w3.org/2000/svg" xmlns:xlink="http://www.w3.org/1999/xlink" version="1.1" id="Capa_1" x="0px" y="0px" width="48px" height="48px" viewBox="0 0 48 48" enable-background="new 0 0 48 48" xml:space="preserve">
<path d="M24,6C14.07,6,6,14.07,6,24c0,9.92,8.07,18,18,18c9.92,0,18-8.08,18-18C42,14.07,33.92,6,24,6z M13,23.5c0,0.55-0.45,1-1,1  s-1-0.45-1-1c0-2.48,1.79-4.5,4-4.5s4,2.02,4,4.5c0,0.55-0.45,1-1,1s-1-0.45-1-1c0-1.38-0.9-2.5-2-2.5S13,22.12,13,23.5z   M33.89,29.45C33.8,29.63,31.53,34,24,34c-7.53,0-9.8-4.37-9.89-4.55c-0.25-0.49-0.05-1.101,0.44-1.34  c0.5-0.25,1.09-0.051,1.34,0.439C15.98,28.71,17.79,32,24,32c6.22,0,8.03-3.31,8.11-3.45c0.25-0.49,0.85-0.68,1.34-0.43  S34.14,28.96,33.89,29.45z M35.71,24h-5.4c-0.189-0.45-0.3-0.96-0.3-1.5c0-1.93,1.351-3.5,3-3.5c1.66,0,3,1.57,3,3.5  C36.01,23.041,35.9,23.55,35.71,24z"/>
</svg>
