<?xml version="1.0" encoding="utf-8"?>
<!-- Generator: Adobe Illustrator 16.0.0, SVG Export Plug-In . SVG Version: 6.00 Build 0)  -->
<svg xmlns="http://www.w3.org/2000/svg" xmlns:xlink="http://www.w3.org/1999/xlink" version="1.1" id="Layer_1" x="0px" y="0px" width="48px" height="48px" viewBox="0 0 48 48" enable-background="new 0 0 48 48" xml:space="preserve">
<path d="M24,6C14.07,6,6,14.07,6,24c0,9.92,8.07,18,18,18c9.92,0,18-8.08,18-18C42,14.07,33.92,6,24,6z M15,26c-2.2,0-4-2.02-4-4.5  c0-0.55,0.45-1,1-1s1,0.45,1,1c0,1.38,0.9,2.5,2,2.5c1.11,0,2-1.12,2-2.5c0-0.55,0.45-1,1-1c0.56,0,1,0.45,1,1  C19,23.98,17.21,26,15,26z M24,36c-2.21,0-4-1.79-4-4c0-2.2,1.79-4,4-4s4,1.8,4,4C28,34.21,26.21,36,24,36z M33.01,26  c-2.2,0-4-2.02-4-4.5c0-0.55,0.45-1,1-1c0.561,0,1,0.45,1,1c0,1.38,0.9,2.5,2,2.5c1.11,0,2-1.12,2-2.5c0-0.55,0.45-1,1-1  c0.561,0,1,0.45,1,1C37.01,23.98,35.22,26,33.01,26z"/>
</svg>
