<?xml version="1.0" encoding="utf-8"?>
<!-- Generator: Adobe Illustrator 16.0.0, SVG Export Plug-In . SVG Version: 6.00 Build 0)  -->
<svg xmlns="http://www.w3.org/2000/svg" xmlns:xlink="http://www.w3.org/1999/xlink" version="1.1" id="Capa_1" x="0px" y="0px" width="48px" height="48px" viewBox="0 0 48 48" enable-background="new 0 0 48 48" xml:space="preserve">
<path d="M24,6C14.07,6,6,14.07,6,24c0,9.92,8.07,18,18,18c9.92,0,18-8.08,18-18C42,14.07,33.92,6,24,6z M12,21.5  c0-0.54,0.11-1.05,0.3-1.5h5.4c0.19,0.45,0.3,0.96,0.3,1.5c0,1.93-1.34,3.5-3,3.5S12,23.43,12,21.5z M33.45,33.9  C33.3,33.97,33.15,34,33,34c-0.37,0-0.72-0.2-0.9-0.55C32.03,33.32,30.22,30,24,30c-6.22,0-8.03,3.32-8.11,3.46  c-0.25,0.48-0.85,0.68-1.34,0.43c-0.49-0.25-0.69-0.84-0.44-1.34C14.2,32.37,16.47,28,24,28c7.53,0,9.8,4.37,9.89,4.55  C34.14,33.05,33.94,33.65,33.45,33.9z M33.01,25c-1.649,0-3-1.57-3-3.5c0-0.54,0.11-1.05,0.3-1.5h5.41c0.19,0.45,0.29,0.96,0.29,1.5  C36.01,23.43,34.67,25,33.01,25z"/>
</svg>
