<?xml version="1.0" encoding="utf-8"?>
<!-- Generator: Adobe Illustrator 16.0.0, SVG Export Plug-In . SVG Version: 6.00 Build 0)  -->
<svg xmlns="http://www.w3.org/2000/svg" xmlns:xlink="http://www.w3.org/1999/xlink" version="1.1" id="Capa_1" x="0px" y="0px" width="48px" height="48px" viewBox="0 0 48 48" enable-background="new 0 0 48 48" xml:space="preserve">
<path d="M38,20h-2v-4c0-6.62-5.38-12-12-12S12,9.38,12,16v4h-2c-1.1,0-2,0.9-2,2v8h20.59l-3.3-3.29c-0.39-0.39-0.39-1.03,0-1.42  c0.39-0.39,1.03-0.39,1.42,0l5,5C31.9,30.49,32,30.74,32,31s-0.1,0.51-0.29,0.71l-5,5c-0.39,0.39-1.03,0.39-1.42,0  c-0.39-0.39-0.39-1.03,0-1.42l3.3-3.29H8v8c0,1.1,0.9,2,2,2h28c1.1,0,2-0.9,2-2V22C40,20.9,39.1,20,38,20z M32,20H16v-4  c0-4.41,3.59-8,8-8s8,3.59,8,8V20z"/>
</svg>
