<?xml version="1.0" encoding="utf-8"?>
<!-- Generator: Adobe Illustrator 16.0.0, SVG Export Plug-In . SVG Version: 6.00 Build 0)  -->
<svg xmlns="http://www.w3.org/2000/svg" xmlns:xlink="http://www.w3.org/1999/xlink" version="1.1" id="Layer_1" x="0px" y="0px" width="48px" height="48px" viewBox="0 0 48 48" enable-background="new 0 0 48 48" xml:space="preserve">
<g>
	<path d="M39,16h-3v-6c0-1.1-0.9-2-2-2H18c-1.1,0-2,0.9-2,2v6h-4v18h4v6c0,1.1,0.9,2,2,2h16c1.1,0,2-0.9,2-2v-6h6c1.1,0,2-0.9,2-2   V21C44,18.98,42.67,16,39,16z M34,40H18V30h16V40z M34,16H18v-6h16V16z M39,23c-1.1,0-2-0.9-2-2s0.9-2,2-2s2,0.9,2,2S40.1,23,39,23   z"/>
	<path d="M4,21v11c0,1.1,0.9,2,2,2h4V16H9C5.33,16,4,18.98,4,21z"/>
	<path d="M21,34h10c0.55,0,1-0.45,1-1s-0.45-1-1-1H21c-0.55,0-1,0.45-1,1S20.45,34,21,34z"/>
	<path d="M21,38h10c0.55,0,1-0.45,1-1s-0.45-1-1-1H21c-0.55,0-1,0.45-1,1S20.45,38,21,38z"/>
</g>
</svg>
