<?xml version="1.0" encoding="utf-8"?>
<!-- Generator: Adobe Illustrator 16.0.0, SVG Export Plug-In . SVG Version: 6.00 Build 0)  -->
<svg xmlns="http://www.w3.org/2000/svg" xmlns:xlink="http://www.w3.org/1999/xlink" version="1.1" id="Capa_1" x="0px" y="0px" width="48px" height="48px" viewBox="0 0 48 48" enable-background="new 0 0 48 48" xml:space="preserve">
<path d="M43.775,25.377l-4.002-5c-0.344-0.43-0.973-0.501-1.405-0.156c-0.431,0.345-0.501,0.975-0.155,1.406l2.708,3.384h-8.929V7  c0-1.657-1.343-3-3-3H6.998c-1.657,0-3,1.343-3,3v34c0,1.657,1.343,3,3,3h21.994c1.657,0,3-1.343,3-3V27.011h8.914l-2.693,3.364  c-0.346,0.431-0.275,1.061,0.155,1.405c0.185,0.148,0.405,0.22,0.624,0.22c0.294,0,0.584-0.128,0.781-0.375l4.002-4.998  C44.068,26.262,44.068,25.742,43.775,25.377z M30,25l-13.013,0.011c-0.552,0-1,0.447-1,1S16.448,27,17,27h13v14  c0,0.553-0.455,1-1.008,1H6.998c-0.552,0-1-0.447-1-1V10H30V25z"/>
</svg>
