<?xml version="1.0" encoding="utf-8"?>
<!-- Generator: Adobe Illustrator 16.0.0, SVG Export Plug-In . SVG Version: 6.00 Build 0)  -->
<svg xmlns="http://www.w3.org/2000/svg" xmlns:xlink="http://www.w3.org/1999/xlink" version="1.1" id="Capa_1" x="0px" y="0px" width="48px" height="48px" viewBox="0 0 48 48" enable-background="new 0 0 48 48" xml:space="preserve">
<g>
	<path d="M32,9c0-2.2-1.8-3-3-3H19c-2.2,0-3,1.79-3,3v12h16V9z"/>
	<path d="M16,39.02c0,1.2,0.8,3,3,3h10c1.2,0,3-0.8,3-3V27H16V39.02z"/>
	<path d="M43.78,23.35l-6-7c-0.36-0.42-0.99-0.47-1.41-0.11c-0.42,0.36-0.47,0.99-0.11,1.41L40.85,23H7.17l4.59-5.35   c0.36-0.42,0.31-1.05-0.11-1.41c-0.42-0.36-1.05-0.31-1.41,0.11l-6,7c-0.32,0.37-0.32,0.93,0,1.3l6,7C10.44,31.88,10.72,32,11,32   c0.23,0,0.46-0.08,0.65-0.24c0.42-0.359,0.47-0.99,0.11-1.41L7.17,25h33.68l-4.59,5.35c-0.359,0.42-0.31,1.051,0.11,1.41   C36.56,31.92,36.79,32,37.02,32c0.28,0,0.561-0.12,0.761-0.35l6-7C44.1,24.28,44.1,23.72,43.78,23.35z"/>
</g>
</svg>
