<?xml version="1.0" encoding="utf-8"?>
<!-- Generator: Adobe Illustrator 16.0.0, SVG Export Plug-In . SVG Version: 6.00 Build 0)  -->
<svg xmlns="http://www.w3.org/2000/svg" xmlns:xlink="http://www.w3.org/1999/xlink" version="1.1" id="Capa_1" x="0px" y="0px" width="48px" height="48px" viewBox="0 0 48 48" enable-background="new 0 0 48 48" xml:space="preserve">
<path d="M24,6.001c-9.925,0-18,8.075-18,18v7.001c0,2.201,1.794,3,3,3h1V38c0,2.209,1.791,4,4,4s4-1.791,4-4v-9.996  c0-2.211-1.791-4.002-4-4.002s-4,1.791-4,4.002v3.998H9.012C8.55,31.99,8,31.808,8,31.002v-7.001c0-8.822,7.178-16,16-16  s16,7.178,16,16v7.001c0,0.806-0.55,0.988-1,1h-0.983v-3.998c0-2.211-1.792-4.002-4.002-4.002c-2.211,0-4.002,1.791-4.002,4.002V38  c0,2.209,1.791,4,4.002,4c2.21,0,4.002-1.791,4.002-4v-3.998H39c1.206,0,3-0.799,3-3v-7.001C42,14.076,33.925,6.001,24,6.001z"/>
</svg>
