<?xml version="1.0" encoding="utf-8"?>
<!-- Generator: Adobe Illustrator 16.0.0, SVG Export Plug-In . SVG Version: 6.00 Build 0)  -->
<svg xmlns="http://www.w3.org/2000/svg" xmlns:xlink="http://www.w3.org/1999/xlink" version="1.1" id="Capa_1" x="0px" y="0px" width="48px" height="48px" viewBox="0 0 48 48" enable-background="new 0 0 48 48" xml:space="preserve">
<g>
	<path d="M5,18c-0.64,1.54-1,3.23-1,5s0.36,3.46,1,5h4.52C8.56,26.57,8,24.85,8,23s0.56-3.57,1.52-5H5z"/>
	<path d="M17,16c-3.866,0-7,3.134-7,7c0,2.791,1.637,5.193,4,6.317V44h6V29.317c2.363-1.124,4-3.526,4-6.317   C24,19.134,20.866,16,17,16z"/>
	<path d="M42.995,7.995h-4.522c0.961,1.43,1.521,3.15,1.521,5s-0.561,3.57-1.521,4.999h4.522c0.641-1.54,1.001-3.229,1.001-4.999   S43.636,9.535,42.995,7.995z"/>
	<path d="M30.989,5.995c-3.868,0-7.002,3.134-7.002,7c0,2.791,1.638,5.192,4.001,6.316V44h6.003V19.311   c2.364-1.124,4.002-3.525,4.002-6.315C37.993,9.129,34.857,5.995,30.989,5.995z"/>
</g>
</svg>
