<?xml version="1.0" encoding="utf-8"?>
<!-- Generator: Adobe Illustrator 16.0.0, SVG Export Plug-In . SVG Version: 6.00 Build 0)  -->
<svg xmlns="http://www.w3.org/2000/svg" xmlns:xlink="http://www.w3.org/1999/xlink" version="1.1" id="Layer_1" x="0px" y="0px" width="48px" height="48px" viewBox="0 0 48 48" enable-background="new 0 0 48 48" xml:space="preserve">
<g>
	<path d="M24,4C12.972,4,4,12.972,4,24c0,11.028,8.972,20,20,20c11.028,0,20-8.972,20-20C44,12.972,35.028,4,24,4z M24,42   c-9.925,0-18-8.075-18-18c0-9.925,8.075-18,18-18c9.925,0,18,8.075,18,18C42,33.925,33.925,42,24,42z"/>
	<ellipse cx="24" cy="35.665" rx="3" ry="2.5"/>
	<path d="M24,10c-4.636,0-8,2.944-8,7c0,1.104,0.896,2,2,2s2-0.896,2-2c0-1.822,1.57-3,4-3s4,1.178,4,3   c0,1.458-0.726,2.264-2.116,3.679C24.154,22.439,22,24.63,22,29c0,1.104,0.896,2,2,2s2-0.896,2-2c0-2.732,1.208-3.962,2.737-5.518   C30.19,22.003,32,20.162,32,17C32,12.944,28.636,10,24,10z"/>
</g>
</svg>
