<?xml version="1.0" encoding="utf-8"?>
<!-- Generator: Adobe Illustrator 16.0.0, SVG Export Plug-In . SVG Version: 6.00 Build 0)  -->
<svg xmlns="http://www.w3.org/2000/svg" xmlns:xlink="http://www.w3.org/1999/xlink" version="1.1" id="Capa_1" x="0px" y="0px" width="48px" height="48px" viewBox="0 0 48 48" enable-background="new 0 0 48 48" xml:space="preserve">
<path d="M39.017,26h-4.002v-6H39c2.201,0,3-1.794,3-3V9c0-2.201-1.794-3-3-3H9C6.799,6,6,7.794,6,9v8c0,2.201,1.794,3,3,3h4v6H9  c-2.201,0-3,1.794-3,3v6c0,2.201,1.794,3,3,3h4v2h-2c-0.552,0-1,0.447-1,1s0.448,1,1,1h6c0.552,0,1-0.447,1-1s-0.448-1-1-1h-2v-2h4  c2.201,0,3-1.794,3-3v-6c0-2.201-1.794-3-3-3h-4v-6h18.015v6h-4.003c-2.202,0-3.001,1.794-3.001,3v6c0,2.201,1.795,3,3.001,3h4.003  v2h-2.002c-0.553,0-1,0.447-1,1s0.447,1,1,1h6.003c0.553,0,1-0.447,1-1s-0.447-1-1-1h-2.001v-2h4.002c2.202,0,3.001-1.794,3.001-3  v-6C42.018,26.799,40.223,26,39.017,26z M18.988,28C19.45,28.012,20,28.194,20,29v5.988C19.988,35.45,19.805,36,19,36H9.012  C8.55,35.988,8,35.806,8,35v-5.988C8.012,28.55,8.195,28,9,28H18.988z M15,18v-4h2c0.552,0,1-0.448,1-1s-0.448-1-1-1h-6  c-0.552,0-1,0.448-1,1s0.448,1,1,1h2v4H9.012C8.55,17.988,8,17.805,8,17V9.012C8.012,8.55,8.195,8,9,8h29.988  C39.45,8.012,40,8.195,40,9v7.988C39.988,17.45,39.806,18,39,18h-3.985v-4h2.001c0.553,0,1-0.448,1-1s-0.447-1-1-1h-6.003  c-0.553,0-1,0.448-1,1s0.447,1,1,1h2.002v4H15z M40.018,35c0,0.301-0.098,1-1.001,1H29.012c-0.301,0-1.001-0.098-1.001-1v-6  c0-0.301,0.098-1,1.001-1h10.005c0.301,0,1.001,0.098,1.001,1V35z"/>
</svg>
