<?xml version="1.0" encoding="utf-8"?>
<!-- Generator: Adobe Illustrator 16.0.0, SVG Export Plug-In . SVG Version: 6.00 Build 0)  -->
<svg xmlns="http://www.w3.org/2000/svg" xmlns:xlink="http://www.w3.org/1999/xlink" version="1.1" id="Layer_1" x="0px" y="0px" width="48px" height="48px" viewBox="0 0 48 48" enable-background="new 0 0 48 48" xml:space="preserve">
<path d="M43,10H5c-1.657,0-3,1.343-3,3v22c0,1.657,1.343,3,3,3h38c1.657,0,3-1.343,3-3V13C46,11.343,44.657,10,43,10z M20,29.526  c-0.004-0.005-0.007-0.011-0.012-0.016c-1.002-0.995-3.99-1.248-4.49-1.713c-0.314-0.289-0.432-0.721-0.476-1.371  c0.207-0.131,0.375-0.272,0.476-0.417c0.324-0.46,0.542-1.192,0.69-2.011c0.018,0.003,0.032,0.021,0.051,0.021  c0.347,0,0.687-0.562,0.761-1.253c0.074-0.688-0.148-1.248-0.496-1.248c-0.018,0-0.035,0.017-0.052,0.02  c0.043-0.824,0.048-1.56,0.048-2.014c0-1.998-1.749-3.525-3.716-3.525s-2.06,1.341-2.06,1.341c-0.659,0.187-1.216,0.595-1.216,2.185  c0,0.455,0.004,1.191,0.046,2.016c-0.019-0.003-0.037-0.022-0.056-0.022c-0.351,0-0.574,0.56-0.5,1.248  c0.074,0.691,0.417,1.253,0.77,1.253c0.018,0,0.03-0.017,0.047-0.02c0.147,0.817,0.364,1.549,0.688,2.009  c0.101,0.144,0.269,0.284,0.473,0.414c-0.043,0.651-0.16,1.085-0.473,1.374c-0.497,0.465-3.491,0.718-4.492,1.713  C6.007,29.516,6.004,29.521,6,29.526V14h14V29.526z M37,34H25c-0.553,0-1-0.447-1-1s0.447-1,1-1h12c0.553,0,1,0.447,1,1  S37.553,34,37,34z M41,28H25c-0.553,0-1-0.447-1-1s0.447-1,1-1h16c0.553,0,1,0.447,1,1S41.553,28,41,28z M41,16H25  c-0.553,0-1-0.448-1-1s0.447-1,1-1h16c0.553,0,1,0.448,1,1S41.553,16,41,16z"/>
</svg>
