<?xml version="1.0" encoding="utf-8"?>
<!-- Generator: Adobe Illustrator 16.0.0, SVG Export Plug-In . SVG Version: 6.00 Build 0)  -->
<svg xmlns="http://www.w3.org/2000/svg" xmlns:xlink="http://www.w3.org/1999/xlink" version="1.1" id="Layer_1" x="0px" y="0px" width="48px" height="48px" viewBox="0 0 48 48" enable-background="new 0 0 48 48" xml:space="preserve">
<g>
	<path d="M45.63,21.22L39,15.86V10c0-0.55-0.45-1-1-1h-2c-0.55,0-1,0.45-1,1v2.62l-10.37-8.4c-0.37-0.29-0.89-0.29-1.26,0l-21,17   c-0.33,0.27-0.45,0.71-0.31,1.11S2.58,23,3,23h4v17c0,1.65,1.35,3,3,3h28c1.65,0,3-1.35,3-3V23h4c0.42,0,0.8-0.27,0.94-0.67   C46.08,21.93,45.96,21.49,45.63,21.22z M39,40c0,0.55-0.45,1-1,1H10c-0.55,0-1-0.45-1-1V18.43L24,6.29l15,12.14V40z"/>
	<path d="M16,17c-2.76,0-5,2.24-5,5s2.24,5,5,5c0.67,0,1.3-0.14,1.88-0.38l2.21,3.32C19.42,30.79,19,31.84,19,33.01   c0,2.76,2.25,5,5,5c2.76,0,5-2.24,5-5c0-1.17-0.41-2.22-1.08-3.069l2.21-3.32c0.58,0.24,1.21,0.38,1.88,0.38c2.76,0,5-2.24,5-5   s-2.24-5-5-5c-2.41,0-4.43,1.72-4.899,4H20.9C20.43,18.72,18.41,17,16,17z M28.46,25.52l-2.08,3.12c-0.71-0.39-1.51-0.63-2.38-0.63   c-0.86,0-1.66,0.24-2.37,0.63l-2.08-3.12c0.67-0.68,1.15-1.549,1.35-2.52h6.21C27.31,23.97,27.79,24.84,28.46,25.52z"/>
</g>
</svg>
