<?xml version="1.0" encoding="utf-8"?>
<!-- Generator: Adobe Illustrator 16.0.0, SVG Export Plug-In . SVG Version: 6.00 Build 0)  -->
<svg xmlns="http://www.w3.org/2000/svg" xmlns:xlink="http://www.w3.org/1999/xlink" version="1.1" id="Capa_1" x="0px" y="0px" width="48px" height="48px" viewBox="0 0 48 48" enable-background="new 0 0 48 48" xml:space="preserve">
<g>
	<path d="M12,6c-1.104,0-2,0.896-2,2v32c0,1.104,0.896,2,2,2s2-0.896,2-2V8C14,6.896,13.104,6,12,6z"/>
	<path d="M28,6h-6c-2.598,0-4,2.061-4,4v30c0,1.104,0.895,2,2,2s2-0.896,2-2V30h6c6.617,0,12.001-5.382,12.001-12S34.617,6,28,6z    M28.001,26.001L22,26c0,0-0.004-15.98,0-16h6c4.412,0,8.001,3.589,8.001,8S32.412,26.001,28.001,26.001z"/>
</g>
</svg>
