<?xml version="1.0" encoding="utf-8"?>
<!-- Generator: Adobe Illustrator 16.0.0, SVG Export Plug-In . SVG Version: 6.00 Build 0)  -->
<svg xmlns="http://www.w3.org/2000/svg" xmlns:xlink="http://www.w3.org/1999/xlink" version="1.1" id="Capa_1" x="0px" y="0px" width="48px" height="48px" viewBox="0 0 48 48" enable-background="new 0 0 48 48" xml:space="preserve">
<path d="M32.1,25c0.46,2.28,2.48,4,4.9,4c2.76,0,5-2.24,5-5s-2.24-5-5-5c-2.42,0-4.44,1.72-4.9,4H22v-5h7  c1.22,0,3.24-1.42,5.08-2.96C34.9,15.64,35.91,16,37,16c2.76,0,5-2.24,5-5s-2.24-5-5-5s-5,2.24-5,5c0,0.94,0.28,1.81,0.73,2.56  C30.97,15.02,29.52,16,29,16h-7v-1c0-2.2-1.79-3-3-3H9c-2.2,0-3,1.79-3,3v18c0,2.2,1.79,3,3,3h10c2.2,0,3-1.79,3-3v-0.99  c0.9,0,2.28,0.01,3.62,0.01c1.34,0,2.64-0.01,3.39-0.01c0.26,0,0.75,0.25,1.4,0.67c0.64,0.431,1.439,1.04,2.31,1.761  C32.27,35.19,32,36.06,32,37c0,2.76,2.24,5,5,5s5-2.24,5-5s-2.24-5-5-5c-1.1,0-2.1,0.36-2.93,0.96c-1.83-1.53-3.851-2.95-5.07-2.95  c0,0,0,0-0.01,0c-0.74,0-2.04,0.01-3.38,0.01c-1.34,0-2.71-0.01-3.61-0.01V25H32.1z M37,21.006c1.657,0,3,1.343,3,3  s-1.343,3.001-3,3.001s-3-1.345-3-3.001S35.343,21.006,37,21.006z M37,8c1.657,0,3,1.343,3,3s-1.343,3-3,3s-3-1.343-3-3  S35.343,8,37,8z M20,33c0,0.3-0.1,1-1,1H9c-0.3,0-1-0.1-1-1V15c0-0.3,0.1-1,1-1h10c0.3,0,1,0.1,1,1V33z M37,34.018  c1.657,0,3,1.344,3,3.001s-1.343,3.002-3,3.002s-3-1.345-3-3.002S35.343,34.018,37,34.018z"/>
</svg>
