<?xml version="1.0" encoding="utf-8"?>
<!-- Generator: Adobe Illustrator 16.0.0, SVG Export Plug-In . SVG Version: 6.00 Build 0)  -->
<svg xmlns="http://www.w3.org/2000/svg" xmlns:xlink="http://www.w3.org/1999/xlink" version="1.1" id="Layer_1" x="0px" y="0px" width="48px" height="48px" viewBox="0 0 48 48" enable-background="new 0 0 48 48" xml:space="preserve">
<g>
	<path d="M32,33c0-0.81-0.55-0.99-1.01-1H15c-0.81,0-0.99,0.55-1,1.01V36h18V33z"/>
	<path d="M38.97,20.06C38.98,19.88,39,19.69,39,19.5C39,13.15,33.85,8,27.5,8c-4.48,0-8.36,2.57-10.26,6.32   C16.22,13.49,14.92,13,13.5,13c-3.21,0-5.83,2.53-5.98,5.7C4.28,20.06,2,23.271,2,27c0,4.97,4.03,9,9,9h1v-3c0-1.21,0.8-3,3-3h16   c1.21,0,3,0.79,3,3v3h4c2.21,0,4.21-0.9,5.66-2.34C45.1,32.21,46,30.21,46,28C46,23.91,42.93,20.54,38.97,20.06z"/>
	<path d="M32,38.98C31.99,39.45,31.81,40,31,40H15.01C14.55,39.98,14,39.8,14,39v-3h-2v3c0,2.2,1.79,3,3,3h16c2.2,0,3-1.8,3-3v-3h-2   V38.98z"/>
</g>
</svg>
