<?xml version="1.0" encoding="utf-8"?>
<!-- Generator: Adobe Illustrator 16.0.0, SVG Export Plug-In . SVG Version: 6.00 Build 0)  -->
<svg xmlns="http://www.w3.org/2000/svg" xmlns:xlink="http://www.w3.org/1999/xlink" version="1.1" id="Capa_1" x="0px" y="0px" width="48px" height="48px" viewBox="0 0 48 48" enable-background="new 0 0 48 48" xml:space="preserve">
<path d="M31,4c-6.62,0-12,5.38-12,12c0,1.78,0.39,3.46,1.08,4.98C8,35.74,8,35.894,8,37.5V41c0,1.21,0.8,3,3,3h2c1.21,0,3-0.8,3-3  v-3h4c0.97,0,2-0.7,2-2v-4h4c0.97,0,2-0.7,2-2v-2.38c0.96,0.25,1.97,0.38,3,0.38c6.62,0,12-5.38,12-12S37.62,4,31,4z M35.24,20.24  c-0.19,0.2-0.45,0.3-0.71,0.3c-0.25,0-0.511-0.1-0.7-0.3l-7.07-7.07c-0.189-0.19-0.3-0.44-0.3-0.71c0-0.26,0.11-0.51,0.3-0.7  C27.89,10.63,29.4,10,31,10s3.11,0.63,4.24,1.76C36.37,12.89,37,14.4,37,16S36.37,19.11,35.24,20.24z"/>
</svg>
