<?xml version="1.0" encoding="utf-8"?>
<!-- Generator: Adobe Illustrator 16.0.0, SVG Export Plug-In . SVG Version: 6.00 Build 0)  -->
<svg xmlns="http://www.w3.org/2000/svg" xmlns:xlink="http://www.w3.org/1999/xlink" version="1.1" id="Layer_1" x="0px" y="0px" width="48px" height="48px" viewBox="0 0 48 48" enable-background="new 0 0 48 48" xml:space="preserve">
<path d="M39,16h-3v-1c0-1.21-0.8-3-3-3h-1v-1c0-1.21-0.8-3-3-3H19c-2.2,0-3,1.79-3,3v1h-1c-2.2,0-3,1.79-3,3v1H9c-2.2,0-3,1.79-3,3  v18c0,2.2,1.79,3,3,3h5V29c0-0.55,0.45-1,1-1s1,0.45,1,1v11h4V29c0-0.55,0.45-1,1-1s1,0.45,1,1v11h4V29c0-0.55,0.45-1,1-1  s1,0.45,1,1v11h4V29c0-0.55,0.45-1,1-1s1,0.45,1,1v11h5c2.2,0,3-1.79,3-3V19C42,16.8,40.21,16,39,16z"/>
</svg>
