<?xml version="1.0" encoding="utf-8"?>
<!-- Generator: Adobe Illustrator 16.0.0, SVG Export Plug-In . SVG Version: 6.00 Build 0)  -->
<svg xmlns="http://www.w3.org/2000/svg" xmlns:xlink="http://www.w3.org/1999/xlink" version="1.1" id="Capa_1" x="0px" y="0px" width="48px" height="48px" viewBox="0 0 48 48" enable-background="new 0 0 48 48" xml:space="preserve">
<g>
	<path d="M32.999,15h-4.998c-1.104,0-2,0.896-2,2s0.896,2,2,2h4.998c2.757,0,5,2.243,5,5s-2.243,5-5,5h-4.998c-1.104,0-2,0.896-2,2   s0.896,2,2,2h4.998c4.963,0,9-4.037,9-9C41.999,19.038,37.962,15,32.999,15z"/>
	<path d="M20,29h-5c-2.757,0-5-2.243-5-5s2.243-5,5-5h5c1.104,0,2-0.896,2-2s-0.896-2-2-2h-5c-4.962,0-9,4.038-9,9   c0,4.963,4.038,9,9,9h5c1.104,0,2-0.896,2-2S21.104,29,20,29z"/>
	<path d="M14,24c0,1.104,0.896,2,2,2h16c1.104,0,2-0.896,2-2s-0.896-2-2-2H16C14.896,22,14,22.896,14,24z"/>
</g>
</svg>
