<?xml version="1.0" encoding="utf-8"?>
<!-- Generator: Adobe Illustrator 16.0.0, SVG Export Plug-In . SVG Version: 6.00 Build 0)  -->
<svg xmlns="http://www.w3.org/2000/svg" xmlns:xlink="http://www.w3.org/1999/xlink" version="1.1" id="Layer_1" x="0px" y="0px" width="48px" height="48px" viewBox="0 0 48 48" enable-background="new 0 0 48 48" xml:space="preserve">
<g>
	<path d="M24,28h15c0.553,0,1-0.447,1-1s-0.447-1-1-1H24c-0.552,0-1,0.447-1,1S23.448,28,24,28z"/>
	<path d="M39.1,42H24c-9.925,0-18-8.075-18-18c0-9.925,8.075-18,18-18c9.583,0,17.479,7.49,17.975,17.051   c0.029,0.552,0.504,0.973,1.051,0.947c0.552-0.028,0.976-0.499,0.947-1.05C43.421,12.323,34.648,4,24,4C12.972,4,4,12.972,4,24   c0,11.028,8.972,20,20,20h15.1c0.553,0,1-0.447,1-1S39.652,42,39.1,42z"/>
	<path d="M24,9c-0.552,0-1,0.448-1,1v14h10c0.553,0,1-0.448,1-1s-0.447-1-1-1h-8V10C25,9.448,24.552,9,24,9z"/>
	<path d="M24,32h17c0.553,0,1-0.447,1-1s-0.447-1-1-1H24c-0.552,0-1,0.447-1,1S23.448,32,24,32z"/>
	<path d="M37,40c0.553,0,1-0.447,1-1s-0.447-1-1-1H24c-0.552,0-1,0.447-1,1s0.448,1,1,1H37z"/>
	<path d="M43,34H24c-0.552,0-1,0.447-1,1s0.448,1,1,1h19c0.553,0,1-0.447,1-1S43.553,34,43,34z"/>
</g>
</svg>
