<?xml version="1.0" encoding="utf-8"?>
<!-- Generator: Adobe Illustrator 16.0.0, SVG Export Plug-In . SVG Version: 6.00 Build 0)  -->
<!DOCTYPE svg PUBLIC "-//W3C//DTD SVG 1.1//EN" "http://www.w3.org/Graphics/SVG/1.1/DTD/svg11.dtd">
<svg version="1.1" id="Layer_1" xmlns="http://www.w3.org/2000/svg" xmlns:xlink="http://www.w3.org/1999/xlink" x="0px" y="0px"
	 width="48px" height="48px" viewBox="0 0 48 48" style="enable-background:new 0 0 48 48;" xml:space="preserve">
<path d="M8,16h16v11.001H8V16z M46,13v22c0,1.657-1.343,3-3,3H5c-1.657,0-3-1.343-3-3V13c0-1.657,1.343-3,3-3h38
	C44.657,10,46,11.343,46,13z M26,15c0-0.552-0.447-1-1-1H7c-0.552,0-1,0.448-1,1v13.001c0,0.553,0.448,1,1,1h8V32h-4
	c-0.552,0-1,0.447-1,1s0.448,1,1,1h10c0.552,0,1-0.447,1-1s-0.448-1-1-1h-4v-2.999h8c0.553,0,1-0.447,1-1V15z M42,33
	c0-0.553-0.447-1-1-1H31c-0.553,0-1,0.447-1,1s0.447,1,1,1h10C41.553,34,42,33.553,42,33z M42,27c0-0.553-0.447-1-1-1H31
	c-0.553,0-1,0.447-1,1s0.447,1,1,1h10C41.553,28,42,27.553,42,27z M42,15c0-0.552-0.447-1-1-1H31c-0.553,0-1,0.448-1,1s0.447,1,1,1
	h10C41.553,16,42,15.552,42,15z"/>
</svg>
