<?xml version="1.0" encoding="utf-8"?>
<!-- Generator: Adobe Illustrator 16.0.0, SVG Export Plug-In . SVG Version: 6.00 Build 0)  -->
<svg xmlns="http://www.w3.org/2000/svg" xmlns:xlink="http://www.w3.org/1999/xlink" version="1.1" id="Layer_1" x="0px" y="0px" width="48px" height="48px" viewBox="0 0 48 48" enable-background="new 0 0 48 48" xml:space="preserve">
<path d="M38.238,9.754C36.614,8.13,34.751,8,32.426,8L15.574,8c-2.326,0-4.19,0.132-5.817,1.758C8.131,11.384,8,13.247,8,15.574  l0,16.852c0,2.327,0.133,4.193,1.76,5.819C11.385,39.87,13.249,40,15.573,40h16.853c2.326,0,4.19-0.132,5.816-1.758  S40,34.752,40,32.426V15.574C40,13.246,39.867,11.38,38.238,9.754z M33.62,28.816C32.45,31.632,28.754,34,25,34  c-0.552,0-1-0.447-1-1s0.448-1,1-1c2.323,0,4.738-1.199,6.036-2.733C31.013,29.181,31,29.092,31,29v-8c0-0.552,0.447-1,1-1  c0.178,0,0.345,0.046,0.489,0.127C31.349,16.229,28.352,14,24,14s-7.349,2.229-8.489,6.127C15.656,20.046,15.822,20,16,20  c0.552,0,1,0.448,1,1v8c0,0.351-0.184,0.676-0.485,0.857c-0.301,0.18-0.675,0.189-0.984,0.025C15.428,29.828,13,28.487,13,24  c0-7.29,4.318-12,11-12c6.683,0,11,4.71,11,12C35,26.429,34.289,27.936,33.62,28.816z"/>
</svg>
