<?xml version="1.0" encoding="utf-8"?>
<!-- Generator: Adobe Illustrator 16.0.0, SVG Export Plug-In . SVG Version: 6.00 Build 0)  -->
<svg xmlns="http://www.w3.org/2000/svg" xmlns:xlink="http://www.w3.org/1999/xlink" version="1.1" id="Layer_1" x="0px" y="0px" width="48px" height="48px" viewBox="0 0 48 48" enable-background="new 0 0 48 48" xml:space="preserve">
<path d="M32,2H16c-2.209,0-4,1.791-4,4v36c0,2.209,1.791,4,4,4h16c2.209,0,4-1.791,4-4V6C36,3.791,34.209,2,32,2z M21,4  c0.299,0,5.7,0,6,0c0.553,0,1,0.448,1,1s-0.447,1-1,1c-0.3,0-5.701,0-6,0c-0.552,0-1-0.448-1-1S20.448,4,21,4z M24,45  c-1.104,0-2-0.896-2-2s0.896-2,2-2s2,0.896,2,2S25.104,45,24,45z M34,40H14V8h20V40z"/>
</svg>
