<?xml version="1.0" encoding="utf-8"?>
<!-- Generator: Adobe Illustrator 16.0.0, SVG Export Plug-In . SVG Version: 6.00 Build 0)  -->
<svg xmlns="http://www.w3.org/2000/svg" xmlns:xlink="http://www.w3.org/1999/xlink" version="1.1" id="Layer_1" x="0px" y="0px" width="48px" height="48px" viewBox="0 0 48 48" enable-background="new 0 0 48 48" xml:space="preserve">
<g>
	<path d="M3,22c-0.552,0-1,0.448-1,1v8c0,0.553,0.448,1,1,1s1-0.447,1-1v-8C4,22.448,3.552,22,3,22z"/>
	<path d="M26,22c0.74,0,1.426,0.215,2.021,0.566l6.545-6.546C34.215,15.425,34,14.74,34,14H18c0,0.74-0.215,1.425-0.566,2.02   l6.546,6.546C24.575,22.215,25.26,22,26,22z"/>
	<path d="M22,26c0-0.74,0.215-1.425,0.566-2.02l-6.546-6.546C15.425,17.785,14.74,18,14,18c-2.209,0-4-1.791-4-4H8V7   c0-1.654-1.346-3-3-3H3C2.448,4,2,4.448,2,5s0.448,1,1,1h2c0.551,0,1,0.449,1,1v34c0,0.553,0.448,1,1,1s1-0.447,1-1v-3h2   c0-2.209,1.791-4,4-4c0.74,0,1.425,0.215,2.02,0.565l6.546-6.545C22.215,27.426,22,26.74,22,26z"/>
	<path d="M43,14h-1c0,2.209-1.791,4-4,4c-0.74,0-1.426-0.215-2.021-0.566l-6.545,6.546C29.785,24.575,30,25.26,30,26   s-0.215,1.426-0.565,2.021l6.545,6.545C36.574,34.215,37.26,34,38,34c2.209,0,4,1.791,4,4h1c1.657,0,3-1.343,3-3V17   C46,15.343,44.657,14,43,14z"/>
	<path d="M26,30c-0.74,0-1.425-0.215-2.02-0.565l-6.546,6.545C17.785,36.574,18,37.26,18,38h16c0-0.74,0.215-1.426,0.565-2.021   l-6.545-6.545C27.426,29.785,26.74,30,26,30z"/>
</g>
</svg>
