<?xml version="1.0" encoding="utf-8"?>
<!-- Generator: Adobe Illustrator 16.0.0, SVG Export Plug-In . SVG Version: 6.00 Build 0)  -->
<svg xmlns="http://www.w3.org/2000/svg" xmlns:xlink="http://www.w3.org/1999/xlink" version="1.1" id="Layer_1" x="0px" y="0px" width="48px" height="48px" viewBox="0 0 48 48" enable-background="new 0 0 48 48" xml:space="preserve">
<g>
	<path d="M38.238,9.754C36.614,8.13,34.751,8,32.426,8L15.574,8c-2.326,0-4.19,0.132-5.817,1.758C8.131,11.384,8,13.247,8,15.574   l0,16.852c0,2.327,0.133,4.193,1.76,5.819C11.385,39.87,13.249,40,15.573,40h16.853c2.326,0,4.19-0.132,5.816-1.758   S40,34.752,40,32.426V15.574C40,13.246,39.867,11.38,38.238,9.754z M33,33c-1.305,0-2.407-0.836-2.818-2H17.819   c-0.411,1.164-1.514,2-2.819,2c-1.657,0-3-1.344-3-3s1.343-3,3-3c0.205,0,0.402,0.025,0.595,0.065l6.104-10.174   C21.27,16.376,21,15.724,21,15c0-1.657,1.343-3,3-3c1.657,0,3,1.343,3,3c0,0.724-0.27,1.375-0.699,1.892l6.105,10.174   C32.598,27.024,32.796,27,33,27c1.657,0,3,1.344,3,3S34.657,33,33,33z"/>
	<path d="M24,18c-0.205,0-0.402-0.025-0.594-0.065l-6.1,10.166c0.22,0.266,0.395,0.568,0.513,0.899h12.363   c0.118-0.331,0.293-0.634,0.513-0.898l-6.1-10.167C24.402,17.975,24.205,18,24,18z"/>
</g>
</svg>
