<?xml version="1.0" encoding="utf-8"?>
<!-- Generator: Adobe Illustrator 16.0.0, SVG Export Plug-In . SVG Version: 6.00 Build 0)  -->
<svg xmlns="http://www.w3.org/2000/svg" xmlns:xlink="http://www.w3.org/1999/xlink" version="1.1" id="Layer_1" x="0px" y="0px" width="48px" height="48px" viewBox="0 0 48 48" enable-background="new 0 0 48 48" xml:space="preserve">
<path d="M40,20c-1.861,0-3.412,1.278-3.858,3h-8.283C27.496,21.599,26.4,20.504,25,20.142v-8.283c1.722-0.446,3-1.997,3-3.858  c0-2.209-1.791-4-4-4s-4,1.791-4,4c0,0.74,0.215,1.425,0.566,2.02L10.02,20.566C9.425,20.215,8.74,20,8,20c-2.209,0-4,1.791-4,4  s1.791,4,4,4c1.861,0,3.412-1.278,3.858-3h8.283c0.363,1.4,1.458,2.496,2.858,2.858v8.283c-1.722,0.446-3,1.997-3,3.858  c0,2.209,1.791,4,4,4s4-1.791,4-4c0-0.74-0.215-1.426-0.565-2.021l10.545-10.545C38.574,27.785,39.26,28,40,28c2.209,0,4-1.791,4-4  S42.209,20,40,20z M23,20.142c-1.401,0.363-2.496,1.458-2.858,2.858h-8.283c-0.094-0.364-0.238-0.705-0.424-1.02L21.98,11.434  c0.315,0.186,0.656,0.33,1.02,0.424V20.142z M26.021,36.565c-0.316-0.186-0.657-0.33-1.021-0.424v-8.283  c1.4-0.362,2.496-1.458,2.858-2.858h8.283c0.094,0.363,0.238,0.704,0.424,1.021L26.021,36.565z"/>
</svg>
