<?xml version="1.0" encoding="utf-8"?>
<!-- Generator: Adobe Illustrator 16.0.0, SVG Export Plug-In . SVG Version: 6.00 Build 0)  -->
<svg xmlns="http://www.w3.org/2000/svg" xmlns:xlink="http://www.w3.org/1999/xlink" version="1.1" id="Layer_1" x="0px" y="0px" width="48px" height="48px" viewBox="0 0 48 48" enable-background="new 0 0 48 48" xml:space="preserve">
<path d="M43,10H5c-1.654,0-3,1.346-3,3v20c0,1.654,1.346,3,3,3h17v2.5c0,0.231-0.151,0.45-0.331,0.478l-6.819,1.034  c-0.517,0.078-0.887,0.542-0.847,1.063C14.042,41.597,14.477,42,15,42h18c0.523,0,0.958-0.403,0.997-0.925s-0.33-0.985-0.847-1.063  l-6.82-1.034C26.151,38.95,26,38.731,26,38.5V36h17c1.654,0,3-1.346,3-3V13C46,11.346,44.654,10,43,10z M44,31c0,0.552-0.448,1-1,1  H5c-0.551,0-1-0.448-1-1v-8h13.279l0.772,2.316c0.133,0.397,0.5,0.671,0.919,0.684c0.407,0.003,0.802-0.239,0.958-0.629l3.019-7.546  l4.111,11.511c0.138,0.388,0.499,0.65,0.91,0.664c0.011,0,0.021,0,0.031,0c0.399,0,0.762-0.237,0.919-0.606L31.659,23H44V31z M44,21  H31c-0.4,0-0.762,0.238-0.919,0.606l-1.996,4.658l-4.143-11.6c-0.14-0.392-0.507-0.656-0.923-0.664  c-0.408,0-0.792,0.243-0.947,0.628l-2.986,7.465l-0.137-0.41C18.813,21.275,18.431,21,18,21H4v-8c0-0.551,0.449-1,1-1h38  c0.552,0,1,0.449,1,1V21z"/>
</svg>
