<?xml version="1.0" encoding="utf-8"?>
<!-- Generator: Adobe Illustrator 16.0.0, SVG Export Plug-In . SVG Version: 6.00 Build 0)  -->
<svg xmlns="http://www.w3.org/2000/svg" xmlns:xlink="http://www.w3.org/1999/xlink" version="1.1" id="Layer_1" x="0px" y="0px" width="48px" height="48px" viewBox="0 0 48 48" enable-background="new 0 0 48 48" xml:space="preserve">
<g>
	<path d="M24,8c0.553,0,1-0.448,1-1V5c0-0.552-0.447-1-1-1c-0.552,0-1,0.448-1,1v2C23,7.552,23.448,8,24,8z"/>
	<path d="M7,23H5c-0.552,0-1,0.448-1,1c0,0.553,0.448,1,1,1h2c0.552,0,1-0.447,1-1C8,23.448,7.552,23,7,23z"/>
	<path d="M37,23h-7.09c-0.422-2.511-2.399-4.488-4.91-4.91V11c0-0.552-0.447-1-1-1c-0.552,0-1,0.448-1,1v7.09   c-2.511,0.422-4.488,2.399-4.91,4.91H11c-0.552,0-1,0.448-1,1c0,0.553,0.448,1,1,1h7.09c0.422,2.511,2.399,4.488,4.91,4.91V37   c0,0.553,0.448,1,1,1c0.553,0,1-0.447,1-1v-7.09c2.511-0.422,4.488-2.399,4.91-4.91H37c0.553,0,1-0.447,1-1   C38,23.448,37.553,23,37,23z"/>
	<path d="M43,23h-2c-0.553,0-1,0.448-1,1c0,0.553,0.447,1,1,1h2c0.553,0,1-0.447,1-1C44,23.448,43.553,23,43,23z"/>
	<path d="M24,40c-0.552,0-1,0.447-1,1v2c0,0.553,0.448,1,1,1c0.553,0,1-0.447,1-1v-2C25,40.447,24.553,40,24,40z"/>
</g>
</svg>
