<?xml version="1.0" encoding="utf-8"?>
<!-- Generator: Adobe Illustrator 16.0.0, SVG Export Plug-In . SVG Version: 6.00 Build 0)  -->
<svg xmlns="http://www.w3.org/2000/svg" xmlns:xlink="http://www.w3.org/1999/xlink" version="1.1" id="Layer_1" x="0px" y="0px" width="48px" height="48px" viewBox="0 0 48 48" enable-background="new 0 0 48 48" xml:space="preserve">
<path d="M37.5,33.75c-2.25-2.25-7.844-2.807-8.787-3.853c-0.367-0.406-0.589-0.94-0.727-1.635c3.51-0.499,6.139-1.558,6.139-2.388  c0-0.592-0.623-3.077-1.214-4.57c-0.531-1.345-1.036-2.639-1.036-4.146v-3.784c0-1.115-0.104-2.226-0.327-3.267l2.293-3.567  c0.216-0.334,0.212-0.764-0.009-1.095C33.738,5.305,31.449,2,24,2c-7.45,0-9.738,3.305-9.832,3.445  c-0.221,0.331-0.224,0.761-0.009,1.095l2.275,3.54c-0.201,0.937-0.309,2.031-0.309,3.295v3.784c0,1.506-0.504,2.801-1.036,4.146  c-0.591,1.494-1.214,3.979-1.214,4.57c0,0.83,2.629,1.889,6.138,2.388c-0.137,0.694-0.359,1.229-0.726,1.635  C18.344,30.943,12.75,31.5,10.5,33.75s-2.25,6.75-2.25,7.875S10.5,45,24,45s15.75-2.25,15.75-3.375S39.75,36,37.5,33.75z M27.399,14  H25v2.401C25,16.732,24.732,17,24.402,17h-0.802C23.269,17,23,16.732,23,16.401V14h-2.401C20.268,14,20,13.731,20,13.399v-0.799  C20,12.269,20.268,12,20.599,12H23V9.599C23,9.268,23.269,9,23.601,9h0.802C24.732,9,25,9.268,25,9.599V12h2.399  C27.733,12,28,12.269,28,12.601v0.799C28,13.731,27.733,14,27.399,14z"/>
</svg>
