<?xml version="1.0" encoding="utf-8"?>
<!-- Generator: Adobe Illustrator 16.0.0, SVG Export Plug-In . SVG Version: 6.00 Build 0)  -->
<svg xmlns="http://www.w3.org/2000/svg" xmlns:xlink="http://www.w3.org/1999/xlink" version="1.1" id="Layer_1" x="0px" y="0px" width="48px" height="48px" viewBox="0 0 48 48" enable-background="new 0 0 48 48" xml:space="preserve">
<path d="M41,4H23c-1.654,0-3,1.346-3,3v1h-1c-1.654,0-3,1.346-3,3v1h-1c-1.654,0-3,1.346-3,3v1h-1c-1.654,0-3,1.346-3,3v1H7  c-1.654,0-3,1.346-3,3v18c0,1.654,1.346,3,3,3h18c1.654,0,3-1.346,3-3v-1h1c1.654,0,3-1.346,3-3v-1h1c1.654,0,3-1.346,3-3v-1h1  c1.654,0,3-1.346,3-3v-1h1c1.654,0,3-1.346,3-3V7C44,5.346,42.654,4,41,4z M26,41c0,0.552-0.448,1-1,1H7c-0.551,0-1-0.448-1-1V23  c0-0.551,0.449-1,1-1h18c0.552,0,1,0.449,1,1V41z M30,37c0,0.552-0.448,1-1,1h-1V23c0-1.654-1.346-3-3-3H10v-1c0-0.551,0.449-1,1-1  h18c0.552,0,1,0.449,1,1V37z M34,33c0,0.552-0.448,1-1,1h-1V19c0-1.654-1.346-3-3-3H14v-1c0-0.551,0.449-1,1-1h18  c0.552,0,1,0.449,1,1V33z M38,29c0,0.552-0.448,1-1,1h-1V15c0-1.654-1.346-3-3-3H18v-1c0-0.551,0.449-1,1-1h18c0.552,0,1,0.449,1,1  V29z M42,25c0,0.552-0.448,1-1,1h-1V11c0-1.654-1.346-3-3-3H22V7c0-0.551,0.449-1,1-1h18c0.552,0,1,0.449,1,1V25z"/>
</svg>
