<?xml version="1.0" encoding="utf-8"?>
<!-- Generator: Adobe Illustrator 16.0.0, SVG Export Plug-In . SVG Version: 6.00 Build 0)  -->
<svg xmlns="http://www.w3.org/2000/svg" xmlns:xlink="http://www.w3.org/1999/xlink" version="1.1" id="Layer_1" x="0px" y="0px" width="48px" height="48px" viewBox="0 0 48 48" enable-background="new 0 0 48 48" xml:space="preserve">
<path d="M37,4H11C9.346,4,8,5.346,8,7v29.253c0.648-0.536,1.318-1.072,2-1.607V7c0-0.551,0.449-1,1-1h26c0.552,0,1,0.449,1,1v12.943  c-6.076-2.719-9.841-3.542-14.073-3.879C23.477,13.199,20.99,11,18,11c-3.309,0-6,2.691-6,6s2.691,6,6,6  c2.944,0,5.399-2.131,5.905-4.932c3.845,0.315,7.181,1.039,12.496,3.353C23.548,26.565,10.916,35.67,4.293,42.293  c-0.391,0.391-0.391,1.023,0,1.414C4.488,43.902,4.744,44,5,44s0.512-0.098,0.707-0.293C12.336,37.078,25.123,27.921,38,22.955V41  c0,0.552-0.448,1-1,1H11c-0.145,0-0.281-0.034-0.405-0.09c-0.528,0.456-1.036,0.91-1.531,1.362C9.588,43.72,10.259,44,11,44h26  c1.654,0,3-1.346,3-3V7C40,5.346,38.654,4,37,4z"/>
</svg>
