<?xml version="1.0" encoding="utf-8"?>
<!-- Generator: Adobe Illustrator 16.0.0, SVG Export Plug-In . SVG Version: 6.00 Build 0)  -->
<svg xmlns="http://www.w3.org/2000/svg" xmlns:xlink="http://www.w3.org/1999/xlink" version="1.1" id="Layer_1" x="0px" y="0px" width="48px" height="48px" viewBox="0 0 48 48" enable-background="new 0 0 48 48" xml:space="preserve">
<g>
	<path d="M22,24v-1.978c0-0.015,0-0.029,0-0.044V21c0-0.552-0.448-1-1-1c-0.432,0-0.799,0.273-0.939,0.656   C19.042,20.354,17.701,20,16.995,20c-0.002,0-0.004,0-0.007,0c-0.815,0-2.707,0.003-3.785,1.191   c-0.387,0.427-0.824,1.189-0.706,2.398C12.767,26.352,14.45,28,17,28C19.485,28,22,26.626,22,24z"/>
	<path d="M40,17.43C40,9.271,33.72,4,24,4S8,9.271,8,17.43c0,2.167,1.173,7.79,1.436,9.023c-0.732,2.973-0.025,4.729,0.709,5.686   c0.922,1.2,2.393,1.861,4.142,1.861c0.317,0,0.686-0.049,1.069-0.127l-0.354,5.058c-0.013,0.178,0.023,0.356,0.103,0.517   C15.319,39.873,16.749,42,24,42s8.682-2.127,8.895-2.553c0.076-0.152,0.112-0.322,0.104-0.493l-0.23-5.057   C33.107,33.961,33.431,34,33.713,34c1.749,0,3.22-0.661,4.142-1.861c0.735-0.956,1.442-2.713,0.71-5.686   C38.827,25.22,40,19.597,40,17.43z M36.269,30.92C35.547,31.859,34.357,32,33.713,32c-0.764,0-2.452-0.568-3.337-0.927   c-0.513-0.207-1.096,0.039-1.303,0.551s0.039,1.095,0.551,1.303c0.106,0.043,0.542,0.217,1.117,0.413l0.241,5.3   c-0.228,0.185-0.731,0.504-1.725,0.787l-0.263-2.53c-0.058-0.549-0.548-0.942-1.099-0.892c-0.549,0.058-0.948,0.549-0.892,1.099   l0.282,2.711c-0.652,0.083-1.409,0.145-2.287,0.171V37c0-0.553-0.448-1-1-1s-1,0.447-1,1v2.985   c-0.878-0.026-1.635-0.088-2.287-0.171l0.282-2.711c0.057-0.55-0.342-1.041-0.891-1.099c-0.559-0.051-1.042,0.343-1.098,0.892   l-0.264,2.534c-1.006-0.283-1.504-0.6-1.716-0.765l0.375-5.375c0.504-0.176,0.877-0.325,0.975-0.364   c0.512-0.208,0.758-0.791,0.551-1.303s-0.791-0.758-1.303-0.551C16.741,31.432,15.054,32,14.287,32   c-0.645,0-1.834-0.141-2.556-1.08c-0.689-0.896-0.793-2.345-0.302-4.188c0.041-0.153,0.044-0.314,0.011-0.47   C11.426,26.195,10,19.605,10,17.43c0-0.823,0.077-1.61,0.227-2.36l15.259,4.599c-0.625,2.46-0.292,4.75,0.97,6.535   C27.714,27.98,29.734,29,32,29c1.95,0,3.704-0.58,4.816-1.057C36.982,29.215,36.799,30.23,36.269,30.92z M37.54,21.212L10.8,13.154   C12.615,8.701,17.402,6,24,6c8.505,0,14,4.487,14,11.43C38,18.255,37.795,19.714,37.54,21.212z"/>
	<path d="M24.929,26.629C24.776,26.249,24.409,26,24,26s-0.776,0.249-0.929,0.629l-2,5c-0.205,0.513,0.044,1.095,0.557,1.3   c0.515,0.207,1.095-0.044,1.3-0.558L24,29.692l1.071,2.679C25.228,32.763,25.604,33,26,33c0.124,0,0.25-0.022,0.371-0.071   c0.513-0.205,0.763-0.787,0.558-1.3L24.929,26.629z"/>
</g>
</svg>
