<?xml version="1.0" encoding="utf-8"?>
<!-- Generator: Adobe Illustrator 16.0.0, SVG Export Plug-In . SVG Version: 6.00 Build 0)  -->
<svg xmlns="http://www.w3.org/2000/svg" xmlns:xlink="http://www.w3.org/1999/xlink" version="1.1" id="Layer_1" x="0px" y="0px" width="48px" height="48px" viewBox="0 0 48 48" enable-background="new 0 0 48 48" xml:space="preserve">
<path d="M43.027,18c-0.553,0-1,0.448-1,1v4h-4.029V11.001c0-3.96-3.27-5-5-5H15.001c-3.96,0-5,3.27-5,5V23c0,0,0,0-0.001,0H6v-4.001  c0-0.552-0.448-1-1-1s-1,0.448-1,1V29c0,0.553,0.448,1,1,1s1-0.447,1-1v-4h4c0,0,0,0,0,0l0,11.998c0,3.96,3.27,5,5,5h17.997  c3.96,0,5-3.27,5-5V25h4.029v4c0,0.553,0.447,1,1,1s1-0.447,1-1V19C44.027,18.448,43.58,18,43.027,18z M35.998,18H22.999  c-0.56,0-1,0.45-1,1s0.44,1,1,1h12.999v2H22.999c-0.56,0-1,0.45-1,1s0.44,1,1,1h12.999v2H22.999c-0.56,0-1,0.45-1,1s0.44,1,1,1  h12.999v4H20.999c-0.3,0-1-0.1-1-1.01V15.01c0.01-0.46,0.19-1.01,1-1.01h14.999V18z M35.998,12H20.999c-1.729,0-2.962,1.22-3,3.01  v15.98c0,1.744,1.262,3.01,3,3.01h14.999v2.998c0,0.501-0.145,3-3,3H15.001c-0.501,0-3-0.145-3-3V11.001c0-0.501,0.145-3,3-3h17.997  c0.501,0,3,0.145,3,3V12z"/>
</svg>
