<?xml version="1.0" encoding="utf-8"?>
<!-- Generator: Adobe Illustrator 16.0.0, SVG Export Plug-In . SVG Version: 6.00 Build 0)  -->
<svg xmlns="http://www.w3.org/2000/svg" xmlns:xlink="http://www.w3.org/1999/xlink" version="1.1" id="Layer_1" x="0px" y="0px" width="48px" height="48px" viewBox="0 0 48 48" enable-background="new 0 0 48 48" xml:space="preserve">
<g>
	<path d="M17.283,33.711c0.179,0.133,0.387,0.196,0.593,0.196c0.307,0,0.609-0.141,0.805-0.405c0.328-0.444,0.234-1.07-0.21-1.398   c-2.032-1.503-3.381-3.792-3.703-6.282c-0.071-0.549-0.575-0.94-1.12-0.864c-0.548,0.071-0.935,0.572-0.864,1.12   C13.176,29.104,14.815,31.888,17.283,33.711z"/>
	<path d="M18.957,15.572c0.164,0.375,0.531,0.6,0.917,0.6c0.134,0,0.27-0.027,0.4-0.084c2.316-1.014,5.017-1.03,7.349-0.044   c0.508,0.215,1.096-0.023,1.311-0.531c0.215-0.509-0.022-1.096-0.531-1.311c-2.835-1.198-6.11-1.179-8.93,0.054   C18.966,14.477,18.735,15.066,18.957,15.572z"/>
	<path d="M37.553,17.778c-0.246-0.142-0.503-0.276-0.783-0.41c0.024-0.31,0.036-0.6,0.036-0.884c0-5.275-3.319-10.082-8.26-11.96   c-0.493-0.187-1.041,0.038-1.263,0.513c-0.221,0.476-0.036,1.042,0.422,1.296c2.438,1.352,3.951,3.918,3.951,6.697   c0,4.126-3.345,7.553-7.464,7.654c-0.127-0.006-0.257-0.006-0.384,0c-4.119-0.102-7.465-3.528-7.465-7.654   c0-2.779,1.514-5.346,3.952-6.697c0.459-0.254,0.643-0.82,0.422-1.296s-0.772-0.7-1.262-0.513c-4.94,1.879-8.26,6.686-8.26,11.96   c0,0.283,0.012,0.57,0.036,0.877c-4.391,2.141-7.188,6.58-7.187,11.508c0,0.644,0.06,1.321,0.182,2.07   c0.084,0.519,0.554,0.885,1.078,0.835c0.523-0.048,0.92-0.492,0.909-1.017c-0.058-2.795,1.407-5.396,3.823-6.791   c1.164-0.672,2.485-1.027,3.819-1.027c2.664,0,5.17,1.411,6.548,3.684c0.052,0.099,0.108,0.196,0.168,0.29   c1.988,3.621,0.699,8.239-2.883,10.309c-2.405,1.389-5.502,1.329-7.851-0.12c-0.449-0.279-1.031-0.16-1.337,0.267   c-0.307,0.427-0.231,1.018,0.173,1.354c2.293,1.904,5.197,2.953,8.178,2.953c2.568,0,5.023-0.756,7.145-2.192   c0.257,0.178,0.504,0.333,0.751,0.477c1.941,1.12,4.146,1.713,6.374,1.713c2.964,0,5.856-1.035,8.146-2.913   c0.405-0.333,0.484-0.923,0.182-1.352c-0.304-0.428-0.888-0.551-1.335-0.276c-2.343,1.421-5.414,1.468-7.802,0.09   c-3.586-2.071-4.873-6.694-2.877-10.317c0.055-0.088,0.106-0.178,0.155-0.27c1.376-2.279,3.885-3.694,6.556-3.694   c1.335,0,2.655,0.355,3.819,1.027c2.418,1.395,3.883,3.999,3.823,6.794c-0.011,0.525,0.386,0.969,0.908,1.018   c0.53,0.052,0.994-0.316,1.078-0.834C44.634,25.715,42.133,20.424,37.553,17.778z M25.841,25.664l-0.121,0.21   c-0.383,0.581-1.023,0.928-1.719,0.928c-0.692,0-1.332-0.344-1.715-0.921l-0.13-0.226c-0.141-0.285-0.213-0.593-0.213-0.915   c0-1.082,0.836-1.979,1.909-2.055L24,22.687l0.149-0.001c1.072,0.077,1.908,0.974,1.908,2.055   C26.058,25.066,25.984,25.377,25.841,25.664z"/>
	<path d="M33.226,25.821c-0.321,2.494-1.671,4.785-3.704,6.286c-0.444,0.328-0.539,0.954-0.211,1.398   c0.196,0.266,0.499,0.406,0.806,0.406c0.206,0,0.414-0.063,0.593-0.195c2.47-1.823,4.11-4.607,4.501-7.64   c0.07-0.548-0.316-1.049-0.864-1.12C33.786,24.883,33.297,25.274,33.226,25.821z"/>
</g>
</svg>
