<?xml version="1.0" encoding="utf-8"?>
<!-- Generator: Adobe Illustrator 16.0.0, SVG Export Plug-In . SVG Version: 6.00 Build 0)  -->
<svg xmlns="http://www.w3.org/2000/svg" xmlns:xlink="http://www.w3.org/1999/xlink" version="1.1" id="Layer_1" x="0px" y="0px" width="48px" height="48px" viewBox="0 0 48 48" enable-background="new 0 0 48 48" xml:space="preserve">
<g>
	<path d="M24,17c1.879,0,2.923-0.737,3.002-1.017C26.923,15.737,25.879,15,24,15c-1.879,0-2.923,0.737-3.002,1.017   C21.077,16.263,22.121,17,24,17z"/>
	<path d="M31,2H17c-1.654,0-3,1.346-3,3v38c0,1.654,1.346,3,3,3h14c1.654,0,3-1.346,3-3V5C34,3.346,32.654,2,31,2z M24,12   c3.421,0,6,1.72,6,4s-2.579,4-6,4c-3.42,0-6-1.72-6-4S20.58,12,24,12z M18.5,37h-1c-0.829,0-1.5-0.672-1.5-1.5s0.671-1.5,1.5-1.5h1   c0.829,0,1.5,0.672,1.5,1.5S19.329,37,18.5,37z M18.5,33h-1c-0.829,0-1.5-0.672-1.5-1.5s0.671-1.5,1.5-1.5h1   c0.829,0,1.5,0.672,1.5,1.5S19.329,33,18.5,33z M18.5,29h-1c-0.829,0-1.5-0.672-1.5-1.5s0.671-1.5,1.5-1.5h1   c0.829,0,1.5,0.672,1.5,1.5S19.329,29,18.5,29z M18.5,25h-1c-0.829,0-1.5-0.671-1.5-1.5s0.671-1.5,1.5-1.5h1   c0.829,0,1.5,0.671,1.5,1.5S19.329,25,18.5,25z M24.5,37h-1c-0.829,0-1.5-0.672-1.5-1.5s0.671-1.5,1.5-1.5h1   c0.828,0,1.5,0.672,1.5,1.5S25.328,37,24.5,37z M24.5,33h-1c-0.829,0-1.5-0.672-1.5-1.5s0.671-1.5,1.5-1.5h1   c0.828,0,1.5,0.672,1.5,1.5S25.328,33,24.5,33z M24.5,29h-1c-0.829,0-1.5-0.672-1.5-1.5s0.671-1.5,1.5-1.5h1   c0.828,0,1.5,0.672,1.5,1.5S25.328,29,24.5,29z M24.5,25h-1c-0.829,0-1.5-0.671-1.5-1.5s0.671-1.5,1.5-1.5h1   c0.828,0,1.5,0.671,1.5,1.5S25.328,25,24.5,25z M30.5,37h-1c-0.828,0-1.5-0.672-1.5-1.5s0.672-1.5,1.5-1.5h1   c0.828,0,1.5,0.672,1.5,1.5S31.328,37,30.5,37z M30.5,33h-1c-0.828,0-1.5-0.672-1.5-1.5s0.672-1.5,1.5-1.5h1   c0.828,0,1.5,0.672,1.5,1.5S31.328,33,30.5,33z M30.5,29h-1c-0.828,0-1.5-0.672-1.5-1.5s0.672-1.5,1.5-1.5h1   c0.828,0,1.5,0.672,1.5,1.5S31.328,29,30.5,29z M30.5,25h-1c-0.828,0-1.5-0.671-1.5-1.5s0.672-1.5,1.5-1.5h1   c0.828,0,1.5,0.671,1.5,1.5S31.328,25,30.5,25z M30.5,7h-1C28.672,7,28,6.329,28,5.5S28.672,4,29.5,4h1C31.328,4,32,4.671,32,5.5   S31.328,7,30.5,7z"/>
</g>
</svg>
