<?xml version="1.0" encoding="utf-8"?>
<!-- Generator: Adobe Illustrator 16.0.0, SVG Export Plug-In . SVG Version: 6.00 Build 0)  -->
<svg xmlns="http://www.w3.org/2000/svg" xmlns:xlink="http://www.w3.org/1999/xlink" version="1.1" id="Layer_1" x="0px" y="0px" width="48px" height="48px" viewBox="0 0 48 48" enable-background="new 0 0 48 48" xml:space="preserve">
<g>
	<path d="M29.293,13.707C29.488,13.902,29.744,14,30,14s0.512-0.098,0.707-0.293l3-3c0.391-0.391,0.391-1.023,0-1.414l-3-3   c-0.391-0.391-1.023-0.391-1.414,0s-0.391,1.023,0,1.414L31.586,10l-2.293,2.293C28.902,12.684,28.902,13.316,29.293,13.707z"/>
	<path d="M38.293,13.707C38.488,13.902,38.744,14,39,14s0.512-0.098,0.707-0.293l3-3c0.391-0.391,0.391-1.023,0-1.414l-3-3   c-0.391-0.391-1.023-0.391-1.414,0s-0.391,1.023,0,1.414L40.586,10l-2.293,2.293C37.902,12.684,37.902,13.316,38.293,13.707z"/>
	<path d="M5.293,13.707C5.488,13.902,5.744,14,6,14s0.512-0.098,0.707-0.293l3-3c0.391-0.391,0.391-1.023,0-1.414l-3-3   c-0.391-0.391-1.023-0.391-1.414,0s-0.391,1.023,0,1.414L7.586,10l-2.293,2.293C4.902,12.684,4.902,13.316,5.293,13.707z"/>
	<path d="M41,20H16V8c0-0.552-0.447-1-1-1s-1,0.448-1,1v12H7c-1.654,0-3,1.346-3,3v10c0,1.654,1.346,3,3,3h34c1.654,0,3-1.346,3-3   V23C44,21.346,42.654,20,41,20z M11,32H9c-0.552,0-1-0.447-1-1s0.448-1,1-1h2c0.553,0,1,0.447,1,1S11.553,32,11,32z M27,32h-2   c-0.552,0-1-0.447-1-1s0.448-1,1-1h2c0.553,0,1,0.447,1,1S27.553,32,27,32z M33,32h-2c-0.553,0-1-0.447-1-1s0.447-1,1-1h2   c0.553,0,1,0.447,1,1S33.553,32,33,32z M39,32h-2c-0.553,0-1-0.447-1-1s0.447-1,1-1h2c0.553,0,1,0.447,1,1S39.553,32,39,32z"/>
	<path d="M20.293,13.707C20.488,13.902,20.744,14,21,14s0.512-0.098,0.707-0.293l3-3c0.391-0.391,0.391-1.023,0-1.414l-3-3   c-0.391-0.391-1.023-0.391-1.414,0s-0.391,1.023,0,1.414L22.586,10l-2.293,2.293C19.902,12.684,19.902,13.316,20.293,13.707z"/>
</g>
</svg>
