<?xml version="1.0" encoding="utf-8"?>
<!-- Generator: Adobe Illustrator 16.0.0, SVG Export Plug-In . SVG Version: 6.00 Build 0)  -->
<svg xmlns="http://www.w3.org/2000/svg" xmlns:xlink="http://www.w3.org/1999/xlink" version="1.1" id="Layer_1" x="0px" y="0px" width="48px" height="48px" viewBox="0 0 48 48" enable-background="new 0 0 48 48" xml:space="preserve">
<path d="M41,20h-1V8c0-0.552-0.447-1-1-1s-1,0.448-1,1v12H7c-1.654,0-3,1.346-3,3v10c0,1.654,1.346,3,3,3h34c1.654,0,3-1.346,3-3V23  C44,21.346,42.654,20,41,20z M27,32h-2c-0.552,0-1-0.447-1-1s0.448-1,1-1h2c0.553,0,1,0.447,1,1S27.553,32,27,32z M33,32h-2  c-0.553,0-1-0.447-1-1s0.447-1,1-1h2c0.553,0,1,0.447,1,1S33.553,32,33,32z M39,32h-2c-0.553,0-1-0.447-1-1s0.447-1,1-1h2  c0.553,0,1,0.447,1,1S39.553,32,39,32z"/>
</svg>
