<?xml version="1.0" encoding="utf-8"?>
<!-- Generator: Adobe Illustrator 16.0.0, SVG Export Plug-In . SVG Version: 6.00 Build 0)  -->
<svg xmlns="http://www.w3.org/2000/svg" xmlns:xlink="http://www.w3.org/1999/xlink" version="1.1" id="Layer_1" x="0px" y="0px" width="48px" height="48px" viewBox="0 0 48 48" enable-background="new 0 0 48 48" xml:space="preserve">
<g>
	<path d="M17,22c0.256,0,0.512-0.098,0.707-0.293l5-5C22.895,16.52,23,16.265,23,16s-0.105-0.52-0.293-0.707l-11-11   c-0.391-0.391-1.023-0.391-1.414,0l-5,5c-0.391,0.391-0.391,1.023,0,1.414l11,11C16.488,21.902,16.744,22,17,22z M11,6.414   L20.586,16L17,19.586L7.414,10L11,6.414z"/>
	<path d="M43.71,36.295l-10.923-11C32.6,25.106,32.345,25,32.079,25c-0.281,0-0.521,0.104-0.709,0.293l-5.077,5.077   C26.104,30.558,26,30.813,26,31.079s0.106,0.521,0.295,0.708l11,10.923C37.49,42.903,37.745,43,38,43   c0.256,0,0.512-0.098,0.707-0.293l5-5C44.097,37.317,44.098,36.687,43.71,36.295z M37.997,40.588l-9.58-9.514l3.657-3.657   l9.514,9.58L37.997,40.588z"/>
	<path d="M19.473,32c1.348,0,3.421-0.505,4.828-1.927l10.548-10.644c0.387-0.39,0.387-1.018,0.001-1.408l-1.72-1.737l4.577-4.577   c0.391-0.391,0.391-1.023,0-1.414s-1.023-0.391-1.414,0l-4.569,4.57l-1.76-1.778c-0.188-0.189-0.443-0.296-0.711-0.296   c-0.267,0-0.522,0.106-0.71,0.296L17.991,23.729C16.616,25.12,16,27.142,16,28.528c0,1.314,0.292,2.415,0.305,2.461   c0.012,0.045,0.027,0.088,0.044,0.13C14.074,28.993,11.052,28,6.88,28c-0.404,0-0.769,0.243-0.924,0.617s-0.069,0.804,0.217,1.09   l5.353,5.354l-3.233,3.232c-0.391,0.391-0.391,1.023,0,1.414s1.023,0.391,1.414,0l3.233-3.232l5.353,5.354   c0.191,0.191,0.447,0.293,0.707,0.293c0.129,0,0.259-0.024,0.383-0.076C19.756,41.891,20,41.525,20,41.121   c0-4.172-0.993-7.193-3.119-9.471c0.042,0.018,0.085,0.033,0.13,0.045C17.057,31.708,18.159,32,19.473,32z"/>
</g>
</svg>
