<?xml version="1.0" encoding="utf-8"?>
<!-- Generator: Adobe Illustrator 16.0.0, SVG Export Plug-In . SVG Version: 6.00 Build 0)  -->
<svg xmlns="http://www.w3.org/2000/svg" xmlns:xlink="http://www.w3.org/1999/xlink" version="1.1" id="Layer_1" x="0px" y="0px" width="48px" height="48px" viewBox="0 0 48 48" enable-background="new 0 0 48 48" xml:space="preserve">
<g>
	<path d="M7,14c3.86,0,7-3.14,7-7c0-0.552-0.448-1-1-1s-1,0.448-1,1c0,2.757-2.243,5-5,5c-0.552,0-1,0.448-1,1S6.448,14,7,14z"/>
	<path d="M7,19.962c7.147,0,12.962-5.815,12.962-12.962c0-0.552-0.448-1-1-1s-1,0.448-1,1c0,6.045-4.917,10.962-10.962,10.962   c-0.552,0-1,0.448-1,1S6.448,19.962,7,19.962z"/>
	<path d="M41.127,10.758c-0.087-0.35-0.355-0.625-0.703-0.721c-0.348-0.097-0.719,0.002-0.974,0.257L25.579,24.165l-4.477-4.477   C24.136,16.32,26,11.879,26,7c0-0.552-0.447-1-1-1c-0.552,0-1,0.448-1,1c0,4.33-1.641,8.274-4.315,11.278   c-0.392-0.371-1.008-0.37-1.392,0.015s-0.386,1-0.015,1.392C15.274,22.359,11.33,24,7,24c-0.552,0-1,0.448-1,1c0,0.553,0.448,1,1,1   c4.879,0,9.32-1.864,12.688-4.898l4.477,4.477L10.292,39.453c-0.255,0.255-0.353,0.627-0.257,0.974   c0.096,0.348,0.372,0.616,0.721,0.703c2.308,0.577,4.671,0.87,7.024,0.87c0,0,0.001,0,0.001,0c6.822,0,13.192-2.456,17.475-6.738   C41.091,29.443,43.396,19.825,41.127,10.758z"/>
</g>
</svg>
