<?xml version="1.0" encoding="utf-8"?>
<!-- Generator: Adobe Illustrator 16.0.0, SVG Export Plug-In . SVG Version: 6.00 Build 0)  -->
<svg xmlns="http://www.w3.org/2000/svg" xmlns:xlink="http://www.w3.org/1999/xlink" version="1.1" id="Layer_1" x="0px" y="0px" width="48px" height="48px" viewBox="0 0 48 48" enable-background="new 0 0 48 48" xml:space="preserve">
<g>
	<path d="M17.707,23.293c-0.391-0.391-1.023-0.391-1.414,0s-0.391,1.023,0,1.414l5,5C21.48,29.895,21.735,30,22,30   c0.007,0,0.015,0,0.021,0c0.273-0.006,0.531-0.123,0.716-0.324l11-12c0.373-0.407,0.346-1.04-0.062-1.413   c-0.408-0.373-1.04-0.344-1.413,0.062l-10.294,11.23L17.707,23.293z"/>
	<path d="M39.401,10.084c-0.245-0.107-6.124-2.656-15.247-4.072c-0.102-0.016-0.205-0.016-0.307,0   C14.724,7.428,8.844,9.977,8.599,10.084C8.228,10.247,7.991,10.617,8,11.022c0.009,0.402,0.236,9.931,1.624,16.247   c1.474,6.708,2.765,10.451,13.956,15.638C23.713,42.969,23.856,43,24,43s0.287-0.031,0.42-0.093   c11.193-5.188,12.483-8.93,13.957-15.638c1.388-6.317,1.614-15.845,1.623-16.248C40.009,10.617,39.772,10.247,39.401,10.084z    M36.424,26.84C35.132,32.72,34.413,35.994,24,40.896c-10.411-4.902-11.13-8.176-12.423-14.057   c-1.136-5.173-1.477-12.856-1.557-15.176c1.714-0.672,6.864-2.532,13.98-3.652c7.115,1.12,12.265,2.979,13.979,3.652   C37.9,13.983,37.561,21.664,36.424,26.84z"/>
</g>
</svg>
