<?xml version="1.0" encoding="utf-8"?>
<!-- Generator: Adobe Illustrator 16.0.0, SVG Export Plug-In . SVG Version: 6.00 Build 0)  -->
<svg xmlns="http://www.w3.org/2000/svg" xmlns:xlink="http://www.w3.org/1999/xlink" version="1.1" id="Capa_1" x="0px" y="0px" width="48px" height="48px" viewBox="0 0 48 48" enable-background="new 0 0 48 48" xml:space="preserve">
<path d="M35,4H13C9.04,4,8,7.27,8,9v30c0,3.96,3.27,5,5,5h22c3.96,0,5-3.27,5-5V9C40,5.04,36.73,4,35,4z M38,18H25  c-0.56,0-1,0.45-1,1s0.44,1,1,1h13v2H25c-0.56,0-1,0.45-1,1s0.44,1,1,1h13v2H25c-0.56,0-1,0.45-1,1s0.44,1,1,1h13v4H23  c-0.3,0-1-0.1-1-1.01V15.01c0.01-0.46,0.19-1.01,1-1.01h15V18z"/>
</svg>
