<?xml version="1.0" encoding="utf-8"?>
<!-- Generator: Adobe Illustrator 16.0.0, SVG Export Plug-In . SVG Version: 6.00 Build 0)  -->
<svg xmlns="http://www.w3.org/2000/svg" xmlns:xlink="http://www.w3.org/1999/xlink" version="1.1" id="Layer_1" x="0px" y="0px" width="48px" height="48px" viewBox="0 0 48 48" enable-background="new 0 0 48 48" xml:space="preserve">
<path d="M37.422,13H36V6c0-2.209-1.791-4-4-4H16c-2.209,0-4,1.791-4,4v7h-1.422C9.157,13,8,14.157,8,15.578v16.844  C8,33.844,9.157,35,10.578,35H12v7c0,2.209,1.791,4,4,4h16c2.209,0,4-1.791,4-4v-7h1.422C38.844,35,40,33.844,40,32.422V15.578  C40,14.157,38.844,13,37.422,13z M21,4c0.299,0,5.7,0,6,0c0.553,0,1,0.448,1,1s-0.447,1-1,1c-0.3,0-5.701,0-6,0  c-0.552,0-1-0.448-1-1S20.448,4,21,4z M14,8h20v5H14V8z M36.803,15L24,25.66L11.197,15H36.803z M10,31.546v-14.94l8.973,7.472  L10,31.546z M24,45c-1.104,0-2-0.896-2-2s0.896-2,2-2s2,0.896,2,2S25.104,45,24,45z M34,40H14v-5h20V40z M11.379,33l9.157-7.622  L24,28.262l3.465-2.885L36.62,33H11.379z M38,31.546l-8.973-7.47L38,16.605V31.546z"/>
</svg>
