<?xml version="1.0" encoding="utf-8"?>
<!-- Generator: Adobe Illustrator 16.0.0, SVG Export Plug-In . SVG Version: 6.00 Build 0)  -->
<svg xmlns="http://www.w3.org/2000/svg" xmlns:xlink="http://www.w3.org/1999/xlink" version="1.1" id="Layer_1" x="0px" y="0px" width="48px" height="48px" viewBox="0 0 48 48" enable-background="new 0 0 48 48" xml:space="preserve">
<path d="M43.994,24.89c-0.026-0.237-0.699-5.797-6.225-10.265C36.426,12.275,29.238,3,27,3c-0.388,0-0.746,0.169-1.009,0.475  C25.07,4.547,25.358,8.485,25.844,12H24c-3.865,0-5.109,0.692-6.594,4H7.375C5.419,16,4,17.367,4,19.25  c0,2.125,2.052,8.716,11.17,11.041l6.168,1.572l6.541,11.627c0.149,0.268,0.414,0.451,0.718,0.498C28.647,43.996,28.699,44,28.75,44  c0.251,0,0.495-0.095,0.682-0.269C43.189,30.914,44,29.576,44,25C44,24.963,43.998,24.927,43.994,24.89z M9.683,20.386  c-0.342,0.436-1.299,0.855-2.864,1.504C6.094,20.405,6,19.277,6,19.25C6,18.467,6.514,18,7.375,18H10  C9.996,19.375,9.962,20.031,9.683,20.386z"/>
</svg>
