<?xml version="1.0" encoding="utf-8"?>
<!-- Generator: Adobe Illustrator 16.0.0, SVG Export Plug-In . SVG Version: 6.00 Build 0)  -->
<svg xmlns="http://www.w3.org/2000/svg" xmlns:xlink="http://www.w3.org/1999/xlink" version="1.1" id="Layer_1" x="0px" y="0px" width="48px" height="48px" viewBox="0 0 48 48" enable-background="new 0 0 48 48" xml:space="preserve">
<path d="M37,32c-1.019,0-1.964,0.309-2.755,0.831L14.821,13.407C15.31,12.656,15.6,11.763,15.6,10.8c0-2.651-2.148-4.8-4.8-4.8  S6,8.148,6,10.8s2.148,4.8,4.8,4.8c0.963,0,1.856-0.29,2.607-0.778l19.424,19.424C32.309,35.036,32,35.981,32,37  c0,2.762,2.238,5,5,5s5-2.238,5-5S39.762,32,37,32z"/>
</svg>
