<?xml version="1.0" encoding="utf-8"?>
<!-- Generator: Adobe Illustrator 16.0.0, SVG Export Plug-In . SVG Version: 6.00 Build 0)  -->
<svg xmlns="http://www.w3.org/2000/svg" xmlns:xlink="http://www.w3.org/1999/xlink" version="1.1" id="Layer_1" x="0px" y="0px" width="48px" height="48px" viewBox="0 0 48 48" enable-background="new 0 0 48 48" xml:space="preserve">
<g>
	<circle cx="24" cy="24" r="3"/>
	<path d="M38.238,9.754C36.614,8.13,34.751,8,32.426,8L15.574,8c-2.326,0-4.19,0.132-5.817,1.758C8.131,11.384,8,13.247,8,15.574   l0,16.852c0,2.327,0.133,4.193,1.76,5.819C11.385,39.87,13.249,40,15.573,40h16.853c2.326,0,4.19-0.132,5.816-1.758   S40,34.752,40,32.426V15.574C40,13.246,39.867,11.38,38.238,9.754z M24,36c-6.627,0-12-5.373-12-12c0-6.627,5.373-12,12-12   c6.627,0,12,5.373,12,12C36,30.627,30.627,36,24,36z"/>
</g>
</svg>
