<?xml version="1.0" encoding="utf-8"?>
<!-- Generator: Adobe Illustrator 16.0.0, SVG Export Plug-In . SVG Version: 6.00 Build 0)  -->
<svg xmlns="http://www.w3.org/2000/svg" xmlns:xlink="http://www.w3.org/1999/xlink" version="1.1" id="Layer_1" x="0px" y="0px" width="48px" height="48px" viewBox="0 0 48 48" enable-background="new 0 0 48 48" xml:space="preserve">
<path d="M39.75,32.625c-1.339-1.339-4.269-2.077-6.661-2.677c0.425-1.451,0.734-2.768,0.898-3.79  c0.051-0.316-0.054-0.639-0.28-0.865c-0.077-0.077-1.187-1.155-3.316-2.057c0.331-0.874,0.59-1.904,0.789-3.008  c0.036,0.006,0.07,0.022,0.107,0.022c0.789,0,1.564-1.26,1.733-2.813c0.165-1.553-0.335-2.813-1.12-2.813  c-0.043,0-0.086,0.018-0.129,0.025c0.024-0.479,0.041-0.935,0.056-1.377c3.188-0.57,5.341-1.274,5.489-1.324  c0.523-0.175,0.807-0.741,0.632-1.265c-0.175-0.523-0.74-0.808-1.264-0.633c-0.033,0.011-1.908,0.626-4.742,1.162  c-0.358-2.827-2.478-6.01-3.323-7.567C27.695,1.942,27.726,2,26.747,2S25,3,24,3s-1.769-1-2.747-1s-0.949-0.058-1.873,1.646  c-0.844,1.557-2.964,4.74-3.323,7.567c-2.834-0.536-4.709-1.151-4.742-1.162c-0.525-0.174-1.09,0.108-1.265,0.633  c-0.174,0.524,0.109,1.09,0.632,1.265c0.148,0.049,2.301,0.753,5.489,1.323c0.014,0.443,0.031,0.899,0.056,1.377  c-0.042-0.007-0.084-0.024-0.126-0.024c-0.788,0-1.29,1.26-1.121,2.813c0.167,1.553,0.944,2.813,1.729,2.813  c0.038,0,0.072-0.017,0.109-0.022c0.2,1.104,0.458,2.135,0.79,3.009c-2.13,0.902-3.239,1.979-3.316,2.057  c-0.227,0.227-0.331,0.549-0.28,0.865c0.164,1.022,0.474,2.339,0.898,3.79c-2.393,0.6-5.322,1.338-6.661,2.677  C6,34.875,6,40.5,6,41.625S10.5,45,24,45s18-2.25,18-3.375S42,34.875,39.75,32.625z M27.685,17.5c-1.967,0-2.827-1.313-3.095-2.288  c-0.082,0.011-0.17,0.017-0.264,0.017h-0.652c-0.094,0-0.182-0.006-0.264-0.017c-0.268,0.975-1.128,2.288-3.095,2.288  c-0.875,0-1.571-0.267-2.067-0.794c-0.812-0.861-0.75-2.093-0.747-2.145c0.005-0.097,0.039-0.19,0.097-0.268  c0.098-0.132,0.682-0.793,2.581-0.793c1.708,0,2.386,0.316,2.881,0.547c0.251,0.117,0.389,0.182,0.614,0.182h0.652  c0.225,0,0.363-0.064,0.614-0.182c0.495-0.231,1.172-0.547,2.881-0.547c1.899,0,2.483,0.661,2.581,0.793  c0.058,0.078,0.091,0.171,0.097,0.268c0.003,0.052,0.065,1.284-0.746,2.145C29.256,17.233,28.56,17.5,27.685,17.5z"/>
</svg>
