<?xml version="1.0" encoding="utf-8"?>
<!-- Generator: Adobe Illustrator 16.0.0, SVG Export Plug-In . SVG Version: 6.00 Build 0)  -->
<svg xmlns="http://www.w3.org/2000/svg" xmlns:xlink="http://www.w3.org/1999/xlink" version="1.1" id="Layer_1" x="0px" y="0px" width="48px" height="48px" viewBox="0 0 48 48" enable-background="new 0 0 48 48" xml:space="preserve">
<path d="M46,26.001c0-4.09-3.07-7.456-7.028-7.936C38.98,17.876,39,17.69,39,17.5C39,11.148,33.851,6,27.5,6  c-4.484,0-8.359,2.572-10.256,6.316C16.217,11.495,14.917,11,13.499,11c-3.211,0-5.826,2.527-5.984,5.7  C4.275,18.063,2,21.266,2,25.001C2,29.969,6.03,34,11,34h5.016c0.168,3.336,2.926,6,6.301,6h15.953C41.43,40,44,37.43,44,34.271  c0-0.864-0.208-1.681-0.557-2.421C45.013,30.39,46,28.313,46,26.001z M38.271,38H22.317C19.937,38,18,36.062,18,33.68  c0-1.741,1.038-3.303,2.643-3.977c0.354-0.148,0.592-0.487,0.611-0.87c0.07-1.358,1.187-2.423,2.542-2.423  c0.58,0,1.129,0.193,1.587,0.558c0.235,0.188,0.546,0.259,0.836,0.194c0.294-0.063,0.543-0.257,0.679-0.524  c0.996-1.965,2.978-3.186,5.172-3.186c3.195,0,5.795,2.601,5.789,5.884c-0.006,0.081-0.012,0.163-0.012,0.25  c0,0.506,0.377,0.932,0.879,0.992C40.593,30.807,42,32.394,42,34.271C42,36.327,40.327,38,38.271,38z"/>
</svg>
