<?xml version="1.0" encoding="utf-8"?>
<!-- Generator: Adobe Illustrator 16.0.0, SVG Export Plug-In . SVG Version: 6.00 Build 0)  -->
<svg xmlns="http://www.w3.org/2000/svg" xmlns:xlink="http://www.w3.org/1999/xlink" version="1.1" id="Layer_1" x="0px" y="0px" width="48px" height="48px" viewBox="0 0 48 48" enable-background="new 0 0 48 48" xml:space="preserve">
<g>
	<path d="M30,11h4.586l-3.293,3.293c-0.391,0.391-0.391,1.023,0,1.414C31.488,15.902,31.744,16,32,16s0.512-0.098,0.707-0.293l5-5   c0.097-0.096,0.169-0.208,0.218-0.326C37.973,10.265,38,10.137,38,10.003c0-0.002,0-0.004,0-0.006c0-0.134-0.027-0.262-0.075-0.378   c-0.049-0.119-0.121-0.23-0.218-0.326l-5-5c-0.391-0.391-1.023-0.391-1.414,0s-0.391,1.023,0,1.414L34.586,9H30   c-0.553,0-1,0.448-1,1S29.447,11,30,11z"/>
	<path d="M41,20H25v-8c0-1.654-1.346-3-3-3h-8.586l3.293-3.293c0.391-0.391,0.391-1.023,0-1.414s-1.023-0.391-1.414,0l-5,5   c-0.391,0.391-0.391,1.023,0,1.414l5,5c0.391,0.391,1.023,0.391,1.414,0s0.391-1.023,0-1.414L13.414,11H22c0.551,0,1,0.449,1,1v8H7   c-1.654,0-3,1.346-3,3v10c0,1.654,1.346,3,3,3h34c1.654,0,3-1.346,3-3V23C44,21.346,42.654,20,41,20z M11,32H9   c-0.552,0-1-0.447-1-1s0.448-1,1-1h2c0.553,0,1,0.447,1,1S11.553,32,11,32z M17,32h-2c-0.552,0-1-0.447-1-1s0.448-1,1-1h2   c0.553,0,1,0.447,1,1S17.553,32,17,32z M33,32h-2c-0.553,0-1-0.447-1-1s0.447-1,1-1h2c0.553,0,1,0.447,1,1S33.553,32,33,32z M39,32   h-2c-0.553,0-1-0.447-1-1s0.447-1,1-1h2c0.553,0,1,0.447,1,1S39.553,32,39,32z"/>
</g>
</svg>
