<?xml version="1.0" encoding="utf-8"?>
<!-- Generator: Adobe Illustrator 16.0.0, SVG Export Plug-In . SVG Version: 6.00 Build 0)  -->
<svg xmlns="http://www.w3.org/2000/svg" xmlns:xlink="http://www.w3.org/1999/xlink" version="1.1" id="Capa_1" x="0px" y="0px" width="48px" height="48px" viewBox="0 0 48 48" enable-background="new 0 0 48 48" xml:space="preserve">
<path d="M24,6C14.07,6,6,14.07,6,24c0,9.92,8.07,18,18,18c9.92,0,18-8.08,18-18C42,14.07,33.92,6,24,6z M28.708,25.29  c-0.39-0.39-1.02-0.39-1.41,0l-4.999,5c-0.19,0.19-0.3,0.44-0.3,0.71s0.11,0.52,0.3,0.71l4.999,5c0.19,0.19,0.45,0.29,0.7,0.29  c0.26,0,0.52-0.1,0.71-0.29c0.39-0.39,0.39-1.03,0-1.42L25.418,32h12.416c-2.772,4.773-7.929,8-13.834,8c-8.82,0-16-7.18-16-16  c0-2.122,0.424-4.145,1.179-6h13.402l-3.29,3.29c-0.39,0.39-0.39,1.03,0,1.42s1.02,0.39,1.41,0l5-5c0.19-0.19,0.301-0.44,0.301-0.71  s-0.11-0.52-0.301-0.71l-5-5c-0.19-0.19-0.45-0.29-0.7-0.29c-0.26,0-0.52,0.1-0.71,0.29c-0.39,0.39-0.39,1.03,0,1.42l3.29,3.29  H10.166c2.772-4.773,7.93-8,13.834-8c8.82,0,16,7.18,16,16c0,2.122-0.425,4.145-1.179,6H25.418l3.29-3.29  C29.098,26.32,29.098,25.68,28.708,25.29z"/>
</svg>
