<?xml version="1.0" encoding="utf-8"?>
<!-- Generator: Adobe Illustrator 16.0.0, SVG Export Plug-In . SVG Version: 6.00 Build 0)  -->
<svg xmlns="http://www.w3.org/2000/svg" xmlns:xlink="http://www.w3.org/1999/xlink" version="1.1" id="Layer_1" x="0px" y="0px" width="48px" height="48px" viewBox="0 0 48 48" enable-background="new 0 0 48 48" xml:space="preserve">
<path d="M21.058,6C13.703,6,8.374,8.066,7.449,8.578C6.966,8.845,6.791,9.453,7.058,9.937L9.305,14H3  c-0.299,0-0.582,0.134-0.772,0.364c-0.19,0.231-0.267,0.535-0.209,0.828C2.555,17.93,4.761,19.664,8,19.956v12.481  C8,35.608,10.239,38,13.208,38c1.122,0,2.582-0.58,2.744-0.646c0.263-0.106,0.467-0.319,0.564-0.586l3.167-8.72  c1.182,0.17,2.317,0.81,2.317,2.202c0,1.245-0.503,2.67-2.621,8.666l-1.322,3.752c-0.107,0.306-0.06,0.645,0.127,0.909  S18.676,44,19,44h6c0.373,0,0.715-0.208,0.887-0.539C28.257,38.904,33.371,34,39,34c0.553,0,1-0.447,1-1  c0-12.364-7.789-21-18.942-21c-4.833,0-8.135,1.083-9.632,1.704l-2.084-3.77C11.202,9.239,15.499,8,21.058,8  C32.801,8,42,18.981,42,33c0,0.553,0.447,1,1,1s1-0.447,1-1C44,17.86,33.923,6,21.058,6z M13,20.5c0.828,0,1.5,0.672,1.5,1.5  s-0.672,1.5-1.5,1.5s-1.5-0.672-1.5-1.5S12.172,20.5,13,20.5z"/>
</svg>
