<?xml version="1.0" encoding="utf-8"?>
<!-- Generator: Adobe Illustrator 16.0.0, SVG Export Plug-In . SVG Version: 6.00 Build 0)  -->
<svg xmlns="http://www.w3.org/2000/svg" xmlns:xlink="http://www.w3.org/1999/xlink" version="1.1" id="Layer_1" x="0px" y="0px" width="48px" height="48px" viewBox="0 0 48 48" enable-background="new 0 0 48 48" xml:space="preserve">
<path d="M43.523,34.301c-5.665-5.793-5.665-7.887-5.665-14.101C37.858,9.602,32.631,4,22.742,4C15.234,4,9.46,7.251,9.218,7.39  c-0.245,0.14-0.419,0.377-0.48,0.653C8.677,8.318,8.735,8.606,8.898,8.836l6.078,8.563c-1.045,1.255-1.818,2.822-2.288,4.701  l-0.486,1.943c-0.004,0.015-0.008,0.031-0.012,0.046c-0.001,0.005-0.002,0.01-0.003,0.015l-1.164,4.654  c-0.134,0.535,0.192,1.078,0.728,1.212c0.534,0.134,1.079-0.19,1.213-0.728l1.178-4.71c0.564-2.208,1.135-2.561,3.799-2.561  c0.25,0,1.746-0.012,2,0c-0.293,2.359-1.921,4.296-3.805,4.867c-0.34,0.1-0.603,0.373-0.689,0.718l-3.3,13.201  c-0.075,0.299-0.007,0.615,0.182,0.857C12.519,41.858,12.81,42,13.118,42c5.743,0,10.221-3.038,12.453-8.386  C28.419,35.198,32.209,36,36.858,36c0.361,0,0.695-0.195,0.872-0.511s0.17-0.702-0.019-1.011l-4.196-6.873v-4.148  c0-5.703-3.983-9.686-9.687-9.686c-3.028,0-5.511,0.756-7.4,2.218l-5.226-7.363C13.095,7.745,17.499,6,22.742,6  c8.703,0,13.116,4.777,13.116,14.2c0,6.453,0,9.123,6.235,15.5c0.195,0.2,0.455,0.301,0.715,0.301c0.252,0,0.505-0.095,0.699-0.285  C43.902,35.329,43.91,34.695,43.523,34.301z"/>
</svg>
