<?xml version="1.0" encoding="utf-8"?>
<!-- Generator: Adobe Illustrator 16.0.0, SVG Export Plug-In . SVG Version: 6.00 Build 0)  -->
<svg xmlns="http://www.w3.org/2000/svg" xmlns:xlink="http://www.w3.org/1999/xlink" version="1.1" id="Layer_1" x="0px" y="0px" width="48px" height="48px" viewBox="0 0 48 48" enable-background="new 0 0 48 48" xml:space="preserve">
<path d="M31,30h7V7c0-1.654-1.346-3-3-3H13c-1.654,0-3,1.346-3,3v23h7c0.552,0,1,0.447,1,1s-0.448,1-1,1h-7v2h7c0.552,0,1,0.447,1,1  s-0.448,1-1,1h-7v2h7c0.552,0,1,0.447,1,1s-0.448,1-1,1h-7v1c0,1.654,1.346,3,3,3h22c1.654,0,3-1.346,3-3v-1h-7  c-0.553,0-1-0.447-1-1s0.447-1,1-1h7v-2h-7c-0.553,0-1-0.447-1-1s0.447-1,1-1h7v-2h-7c-0.553,0-1-0.447-1-1S30.447,30,31,30z   M29.879,14.897l-7.701,8.929C22.081,23.94,21.941,24,21.799,24c-0.086,0-0.173-0.022-0.252-0.068  c-0.208-0.122-0.3-0.375-0.218-0.602l1.958-5.4H18.5c-0.195,0-0.373-0.114-0.455-0.292c-0.082-0.178-0.052-0.386,0.076-0.535  l7.7-8.929c0.157-0.183,0.424-0.226,0.632-0.105c0.208,0.122,0.3,0.375,0.217,0.602l-1.957,5.4H29.5  c0.195,0,0.373,0.114,0.454,0.292C30.036,14.541,30.007,14.749,29.879,14.897z"/>
</svg>
