<?xml version="1.0" encoding="utf-8"?>
<!-- Generator: Adobe Illustrator 16.0.0, SVG Export Plug-In . SVG Version: 6.00 Build 0)  -->
<svg xmlns="http://www.w3.org/2000/svg" xmlns:xlink="http://www.w3.org/1999/xlink" version="1.1" id="Layer_1" x="0px" y="0px" width="48px" height="48px" viewBox="0 0 48 48" enable-background="new 0 0 48 48" xml:space="preserve">
<path d="M39,34c-1.018,0-1.963,0.309-2.753,0.833l-10.03-10.03l4-8L26.414,13l1.293-1.293c0.391-0.391,0.391-1.023,0-1.414l-4-4  c-0.391-0.391-1.023-0.391-1.414,0l-4,4c-0.391,0.391-0.391,1.023,0,1.414l4,4C22.488,15.902,22.744,16,23,16  s0.512-0.098,0.707-0.293L25,14.414l2.783,2.783l-3.058,6.115L13.414,12l2.293-2.293c0.238-0.238,0.34-0.579,0.272-0.908  c-0.067-0.329-0.296-0.603-0.608-0.728l-10-4C5,3.924,4.576,4.01,4.293,4.293C4.01,4.576,3.923,5,4.071,5.372l4,10  c0.125,0.312,0.398,0.541,0.728,0.608C8.866,15.993,8.933,16,9,16c0.263,0,0.518-0.104,0.707-0.293L12,13.414l18.249,18.249  l-5.021,2.151l-3.795-3.796C21.785,29.424,22,28.739,22,28c0-2.205-1.794-4-4-4s-4,1.795-4,4c0,2.206,1.794,4,4,4  c0.74,0,1.424-0.216,2.02-0.566l4.752,4.752l7-3l3.062,3.062C34.309,37.037,34,37.982,34,39c0,2.757,2.243,5,5,5s5-2.243,5-5  S41.757,34,39,34z"/>
</svg>
