<?xml version="1.0" encoding="utf-8"?>
<!-- Generator: Adobe Illustrator 16.0.0, SVG Export Plug-In . SVG Version: 6.00 Build 0)  -->
<svg xmlns="http://www.w3.org/2000/svg" xmlns:xlink="http://www.w3.org/1999/xlink" version="1.1" id="Layer_1" x="0px" y="0px" width="48px" height="48px" viewBox="0 0 48 48" enable-background="new 0 0 48 48" xml:space="preserve">
<path d="M39.5,14.474l-15-8.661c-0.135-0.078-0.284-0.122-0.434-0.132h0h-0.001c-0.001,0-0.003,0-0.004,0h0l-0.001,0c0,0,0,0,0,0  c-0.001,0-0.001,0-0.002,0s-0.001,0-0.002,0c-0.002,0-0.002,0-0.002,0l-0.001,0h0h-0.001h0h-0.001h-0.001c0,0-0.001,0-0.001,0  c0,0-0.001,0-0.002,0c0,0-0.001,0-0.002,0c0,0,0,0-0.002,0c0,0,0,0-0.002,0c-0.001,0-0.001,0-0.002,0H24.03  c-0.001,0-0.002,0-0.002,0c-0.001,0-0.002,0-0.004,0h0c0,0-0.001,0-0.001,0c0,0-0.001,0-0.002,0h0h-0.001h-0.001c0,0,0,0-0.001,0  h-0.001c-0.001,0-0.002,0-0.002,0c-0.001,0-0.001,0-0.002,0c-0.002,0-0.002,0-0.002,0c-0.001,0-0.002,0-0.002,0c0,0-0.001,0-0.001,0  h0c0,0-0.001,0-0.001,0h0c-0.001,0-0.003,0-0.004,0h0c0,0-0.001,0-0.001,0h0c0,0-0.001,0-0.001,0c0,0-0.001,0-0.002,0  c0,0,0,0-0.002,0c-0.001,0-0.001,0-0.002,0c0,0-0.001,0-0.002,0h-0.001c-0.001,0-0.002,0-0.002,0h0H23.98h0  c-0.001,0.001-0.002,0-0.002,0c0,0-0.001,0-0.001,0h0c-0.001,0-0.002,0-0.004,0c0,0-0.001,0-0.002,0h-0.001  c-0.001,0-0.001,0-0.002,0c-0.002,0-0.002,0-0.002,0c-0.001,0-0.002,0-0.002,0c-0.001,0-0.002,0-0.002,0c-0.001,0-0.002,0-0.002,0  c0,0-0.002,0-0.002,0h0h-0.001h0h-0.001h0l-0.001,0c0,0,0,0-0.002,0h-0.001c-0.001,0-0.001,0-0.002,0s-0.001,0-0.002,0l-0.001,0h0  c-0.001,0-0.003,0-0.004,0h-0.001h0c-0.15,0.01-0.299,0.054-0.434,0.132l-15,8.661C8.19,14.652,8,14.982,8,15.34v17.319  c0,0.009,0,0.018,0,0.026c0,0.001,0,0.001,0,0.001v0.001v0.001c0.004,0.146,0.04,0.287,0.103,0.415  c0.001,0.002,0.002,0.005,0.004,0.007c0,0.001,0,0.001,0,0.002c0.001,0.002,0.002,0.004,0.003,0.006c0,0,0.001,0.001,0.001,0.001  c0,0.001,0,0.001,0,0.002c0.001,0.002,0.002,0.004,0.003,0.006h0l0,0.001c0.001,0.003,0.002,0.005,0.004,0.008  c0.011,0.02,0.022,0.04,0.035,0.06c0,0,0.001,0.001,0.001,0.001c0.001,0.002,0.003,0.005,0.004,0.007s0.002,0.004,0.003,0.006  c0.08,0.122,0.187,0.227,0.314,0.305h0c0.001,0.002,0.001,0,0.002,0.002h0c0.007,0.004,0.014,0.009,0.021,0.013L23.5,42.187  c0.155,0.089,0.327,0.134,0.5,0.134s0.345-0.045,0.5-0.134l14.998-8.658c0.008-0.004,0.015-0.009,0.021-0.013  c-0.001,0,0-0.001,0.002-0.001c0.001-0.001,0.001-0.001,0.001-0.001c0.128-0.078,0.234-0.183,0.314-0.305  c0.001-0.002,0.002-0.004,0.003-0.006c0.002-0.002,0.003-0.005,0.005-0.007l0.001-0.001c0.013-0.02,0.023-0.04,0.035-0.06  c0.001-0.003,0.002-0.005,0.003-0.008c0,0,0,0,0.001,0v-0.001c0.001-0.002,0.002-0.004,0.003-0.006  c0.001-0.001,0.001-0.001,0.001-0.002l0.001-0.001c0.001-0.002,0.002-0.004,0.003-0.006c0-0.001,0-0.001,0.001-0.002  c0.001-0.002,0.002-0.005,0.003-0.007c0.063-0.128,0.099-0.269,0.104-0.415v-0.001v-0.001c0,0,0,0,0-0.001c0-0.009,0-0.018,0-0.026  V15.34C40,14.982,39.81,14.652,39.5,14.474z M37,15.34l-2.454,1.417l-5.46-5.986L37,15.34z M24,8.163l8.084,8.861H15.916L24,8.163z   M18.915,10.77l-5.461,5.986L11,15.34L18.915,10.77z M10,17.072l2.454,1.417L10,26.211V17.072z M13.917,20.487l8.083,14  l-11.716-2.568L13.917,20.487z M23,39.588l-7.917-4.569L23,36.754V39.588z M24,33.949l-8.618-14.925h17.235L24,33.949z M25,39.588  v-2.834l7.916-1.735L25,39.588z M25.999,34.487l8.084-14l3.632,11.432L25.999,34.487z M38,26.211l-2.454-7.723L38,17.072V26.211z"/>
</svg>
