<?xml version="1.0" encoding="utf-8"?>
<!-- Generator: Adobe Illustrator 16.0.0, SVG Export Plug-In . SVG Version: 6.00 Build 0)  -->
<svg xmlns="http://www.w3.org/2000/svg" xmlns:xlink="http://www.w3.org/1999/xlink" version="1.1" id="Layer_1" x="0px" y="0px" width="48px" height="48px" viewBox="0 0 48 48" enable-background="new 0 0 48 48" xml:space="preserve">
<path d="M38.001,34C42.417,34,46,30.417,46,26.001c0-4.09-3.07-7.456-7.028-7.936C38.98,17.876,39,17.69,39,17.5  C39,11.148,33.851,6,27.5,6c-4.484,0-8.359,2.572-10.256,6.316C16.217,11.495,14.917,11,13.499,11c-3.211,0-5.826,2.527-5.984,5.7  C4.275,18.063,2,21.266,2,25.001C2,29.969,6.03,34,11,34h5.827c0.708,0.893,1.507,1.805,2.436,2.733  c6.55,6.558,12.438,7.266,14.666,7.266c1.838,0,3.63-0.965,4.795-2.581c0.633-0.884,1.275-1.94,1.275-3.106  c0-1.907-1.419-2.795-1.885-3.086L36.1,34H38.001L38.001,34z M37.053,36.921c0.732,0.458,0.945,0.844,0.945,1.391  c0,0.516-0.336,1.151-0.898,1.938c-0.574,0.797-1.688,1.75-3.172,1.75c-1.469,0-6.984-0.406-13.251-6.68  c-6.261-6.264-6.679-11.77-6.679-13.245c0-1.477,0.958-2.602,1.743-3.17c0.792-0.573,1.441-0.906,1.946-0.906  c0.538,0,0.931,0.213,1.383,0.959l2.505,4.091c0.447,0.744,0.646,1.159,0.291,1.849c-0.361,0.682-1.453,1.348-1.453,2.543  c0,1.194,1.061,2.919,3.142,5.013c2.076,2.071,3.809,3.141,5.014,3.141c1.188,0,1.844-1.109,2.531-1.453  c0.25-0.13,0.464-0.188,0.67-0.188c0.363,0,0.702,0.181,1.174,0.47L37.053,36.921z"/>
</svg>
