<?xml version="1.0" encoding="utf-8"?>
<!-- Generator: Adobe Illustrator 16.0.0, SVG Export Plug-In . SVG Version: 6.00 Build 0)  -->
<svg xmlns="http://www.w3.org/2000/svg" xmlns:xlink="http://www.w3.org/1999/xlink" version="1.1" id="Layer_1" x="0px" y="0px" width="48px" height="48px" viewBox="0 0 48 48" enable-background="new 0 0 48 48" xml:space="preserve">
<path d="M44,10c-2.209,0-4,1.791-4,4c0,1.301,0.631,2.446,1.594,3.176l-7.034,16.88C34.375,34.03,34.191,34,34,34  s-0.375,0.03-0.56,0.057l-7.034-16.88C27.369,16.446,28,15.301,28,14c0-2.209-1.791-4-4-4s-4,1.791-4,4  c0,1.301,0.631,2.446,1.593,3.176l-7.033,16.88C14.375,34.03,14.192,34,14,34s-0.375,0.03-0.56,0.057l-7.033-16.88  C7.369,16.446,8,15.301,8,14c0-2.209-1.791-4-4-4s-4,1.791-4,4s1.791,4,4,4c0.192,0,0.375-0.03,0.56-0.057l7.033,16.88  C10.631,35.554,10,36.699,10,38c0,2.209,1.791,4,4,4s4-1.791,4-4c0-1.301-0.631-2.445-1.593-3.177l7.034-16.88  C23.625,17.97,23.808,18,24,18c0.191,0,0.375-0.03,0.56-0.057l7.034,16.88C30.631,35.555,30,36.699,30,38c0,2.209,1.791,4,4,4  s4-1.791,4-4c0-1.301-0.631-2.446-1.594-3.177l7.034-16.88C43.625,17.97,43.809,18,44,18c2.209,0,4-1.791,4-4S46.209,10,44,10z"/>
</svg>
