<?xml version="1.0" encoding="utf-8"?>
<!-- Generator: Adobe Illustrator 16.0.0, SVG Export Plug-In . SVG Version: 6.00 Build 0)  -->
<svg xmlns="http://www.w3.org/2000/svg" xmlns:xlink="http://www.w3.org/1999/xlink" version="1.1" id="Layer_1" x="0px" y="0px" width="48px" height="48px" viewBox="0 0 48 48" enable-background="new 0 0 48 48" xml:space="preserve">
<path d="M39.851,22.772c-0.162-2.665-1.672-4.965-3.851-6.245V6c0-2.209-1.791-4-4-4H16c-2.209,0-4,1.791-4,4v36  c0,2.209,1.791,4,4,4h16c2.209,0,4-1.791,4-4v-8h2.271C41.43,34,44,31.43,44,28.271C44,25.688,42.27,23.463,39.851,22.772z M21,4  c0.299,0,5.7,0,6,0c0.553,0,1,0.448,1,1s-0.447,1-1,1c-0.3,0-5.701,0-6,0c-0.552,0-1-0.448-1-1S20.448,4,21,4z M24,45  c-1.104,0-2-0.896-2-2s0.896-2,2-2s2,0.896,2,2S25.104,45,24,45z M34,40H14V8h20v7.703c-0.618-0.159-1.263-0.251-1.93-0.251  c-2.591,0-4.961,1.264-6.407,3.358c-0.581-0.264-1.212-0.4-1.866-0.4c-2.212,0-4.068,1.584-4.467,3.705  C17.289,23.207,16,25.331,16,27.68c0,3.485,2.834,6.32,6.317,6.32H34V40z M38.271,32H22.317C19.937,32,18,30.062,18,27.68  c0-1.741,1.038-3.303,2.643-3.977c0.354-0.148,0.592-0.487,0.611-0.871c0.07-1.358,1.187-2.422,2.542-2.422  c0.58,0,1.129,0.193,1.587,0.558c0.235,0.188,0.546,0.257,0.836,0.195c0.294-0.064,0.543-0.257,0.679-0.525  c0.996-1.965,2.978-3.186,5.172-3.186c3.195,0,5.795,2.601,5.789,5.884c-0.006,0.081-0.012,0.164-0.012,0.25  c0,0.506,0.377,0.932,0.879,0.992C40.593,24.807,42,26.394,42,28.271C42,30.327,40.327,32,38.271,32z"/>
</svg>
