<?xml version="1.0" encoding="utf-8"?>
<!-- Generator: Adobe Illustrator 16.0.0, SVG Export Plug-In . SVG Version: 6.00 Build 0)  -->
<svg xmlns="http://www.w3.org/2000/svg" xmlns:xlink="http://www.w3.org/1999/xlink" version="1.1" id="Layer_1" x="0px" y="0px" width="48px" height="48px" viewBox="0 0 48 48" enable-background="new 0 0 48 48" xml:space="preserve">
<g>
	<path d="M15.519,33.519L24,42l8.481-8.481C30.309,31.346,27.309,30,24,30S17.691,31.346,15.519,33.519z"/>
	<path d="M7.744,25.744l4.947,4.947C15.589,27.795,19.589,26,24,26s8.411,1.795,11.309,4.691l4.947-4.947   C36.092,21.58,30.342,19,24,19C17.659,19,11.909,21.58,7.744,25.744z"/>
	<path d="M-0.042,17.958l4.958,4.958C9.806,18.028,16.556,15,24,15c7.444,0,14.194,3.028,19.083,7.917l4.959-4.959   C34.764,4.681,13.236,4.681-0.042,17.958z"/>
</g>
</svg>
