<?xml version="1.0" encoding="utf-8"?>
<!-- Generator: Adobe Illustrator 16.0.0, SVG Export Plug-In . SVG Version: 6.00 Build 0)  -->
<svg xmlns="http://www.w3.org/2000/svg" xmlns:xlink="http://www.w3.org/1999/xlink" version="1.1" id="Capa_1" x="0px" y="0px" width="38px" height="38px" viewBox="0 0 38 38" style="enable-background:new 0 0 38 38;" xml:space="preserve">
<path style="fill:#231F20;" d="M33.001,34H5c-1.654,0-3-1.346-3-3V14h2v4h2.171C6.584,16.836,7.696,16,9,16s2.416,0.836,2.829,2  h2.343c0.413-1.164,1.525-2,2.829-2s2.416,0.836,2.829,2h2.342c0.413-1.164,1.525-2,2.829-2s2.416,0.836,2.829,2h6.172v-6h-2.172  c-0.413,1.164-1.525,2-2.829,2s-2.416-0.836-2.829-2h-6.342c-0.413,1.164-1.525,2-2.829,2s-2.416-0.836-2.829-2h-2.343  c-0.413,1.164-1.525,2-2.829,2c-1.272,0-2.362-0.88-2.797-2H2V7c0-1.654,1.346-3,3-3h28.001C34.655,4,36,5.346,36,7v24  C36,32.654,34.655,34,33.001,34z M4,28v3c0,0.552,0.449,1,1,1h28.001c0.552,0,1-0.448,1-1v-3h-6.172c-0.413,1.164-1.525,2-2.829,2  s-2.416-0.836-2.829-2h-2.342c-0.413,1.164-1.525,2-2.829,2s-2.416-0.836-2.829-2h-2.343c-0.413,1.164-1.525,2-2.829,2  s-2.416-0.836-2.829-2H4z M25,26c-0.552,0-1,0.448-1,1s0.448,1,1,1s1-0.448,1-1S25.552,26,25,26z M17,26c-0.551,0-1,0.448-1,1  s0.449,1,1,1s1-0.448,1-1S17.551,26,17,26z M9,26c-0.551,0-1,0.448-1,1s0.449,1,1,1s1-0.448,1-1S9.551,26,9,26z M27.829,26h6.172v-6  h-6.172c-0.413,1.164-1.525,2-2.829,2s-2.416-0.836-2.829-2h-2.342c-0.413,1.164-1.525,2-2.829,2s-2.416-0.836-2.829-2h-2.343  c-0.413,1.164-1.525,2-2.829,2s-2.416-0.836-2.829-2H4v6h2.171C6.584,24.836,7.696,24,9,24s2.416,0.836,2.829,2h2.343  c0.413-1.164,1.525-2,2.829-2s2.416,0.836,2.829,2h2.342c0.413-1.164,1.525-2,2.829-2S27.416,24.836,27.829,26z M25,18  c-0.552,0-1,0.449-1,1s0.448,1,1,1s1-0.449,1-1S25.552,18,25,18z M17,18c-0.551,0-1,0.449-1,1s0.449,1,1,1s1-0.449,1-1  S17.551,18,17,18z M9,18c-0.551,0-1,0.449-1,1s0.449,1,1,1s1-0.449,1-1S9.551,18,9,18z M29,10c-0.552,0-1,0.449-1,1s0.448,1,1,1  s1-0.449,1-1S29.552,10,29,10z M17,10c-0.551,0-1,0.449-1,1s0.449,1,1,1s1-0.449,1-1S17.551,10,17,10z M9,10c-0.551,0-1,0.449-1,1  s0.449,1,1,1s1-0.449,1-1S9.551,10,9,10z M4,10.084h2.143C6.531,8.876,7.665,8,9,8c1.304,0,2.416,0.836,2.829,2h2.343  C14.584,8.836,15.696,8,17,8s2.416,0.836,2.829,2h6.342C26.584,8.836,27.696,8,29,8s2.416,0.836,2.829,2h2.172V7  c0-0.551-0.448-1-1-1H5C4.449,6,4,6.449,4,7V10.084z"/>
</svg>
