<?xml version="1.0" encoding="utf-8"?>
<!-- Generator: Adobe Illustrator 15.0.0, SVG Export Plug-In . SVG Version: 6.00 Build 0)  -->
<svg xmlns="http://www.w3.org/2000/svg" xmlns:xlink="http://www.w3.org/1999/xlink" version="1.1" id="262185820_Capa_1_grid" x="0px" y="0px" width="38px" height="38px" viewBox="0 0 38 38" enable-background="new 0 0 38 38" xml:space="preserve">
<path fill="#231F20" d="M17,36c-4.962,0-9-4.037-9-9c0-3.092,1.567-5.824,3.948-7.445l-1.315-4.207C10.405,14.617,9.657,14,9,14H6  v-2h3c1.529,0,3.052,1.183,3.542,2.751l1.206,3.856C14.757,18.215,15.854,18,17,18c2.083,0,4.112,0.728,5.715,2.049  C24.803,21.765,26,24.299,26,27C26,31.963,21.963,36,17,36z M17,20c-3.86,0-7,3.141-7,7s3.14,7,7,7c3.859,0,7-3.141,7-7  c0-2.101-0.932-4.071-2.555-5.406l-0.002-0.001C20.198,20.565,18.62,20,17,20z M26.587,33.979l-0.404-1.959l5.679-1.174L28.277,20  H25c-3.749,0-5.437-2.52-7.068-4.957c-1.332-1.989-2.709-4.046-5.313-5.118L12,9.669V4c0-2.206,1.794-4,4-4s4,1.794,4,4v6h-2V4  c0-1.103-0.897-2-2-2s-2,0.897-2,2v4.354c2.764,1.35,4.262,3.587,5.594,5.577C21.116,16.204,22.318,18,25,18h4.723l4.11,12.439  l2.027-0.419l0.404,1.959L26.587,33.979z"/>
</svg>
