<?xml version="1.0" encoding="utf-8"?>
<!-- Generator: Adobe Illustrator 15.0.0, SVG Export Plug-In . SVG Version: 6.00 Build 0)  -->
<svg xmlns="http://www.w3.org/2000/svg" xmlns:xlink="http://www.w3.org/1999/xlink" version="1.1" id="262144267_Layer_1_grid" x="0px" y="0px" width="38px" height="38px" viewBox="0 0 38 38" enable-background="new 0 0 38 38" xml:space="preserve">
<path fill="#231F20" d="M32,34V8H8V6h26v30H7.5C5.57,36,4,34.206,4,32V6c0-2.206,1.57-4,3.5-4H34v2H7.5C6.687,4,6,4.916,6,6v26  c0,1.084,0.687,2,1.5,2H32z M23.745,18.333C23.66,18.238,21.627,16,19,16c-2.757,0-5,2.243-5,5s2.243,5,5,5h4c2.417,0,5-1.313,5-5  c0-4.962-4.037-9-9-9c-4.962,0-9,4.038-9,9c0,4.963,4.038,9,9,9c2.137,0,4.1-0.752,5.645-2H19c-3.86,0-7-3.141-7-7s3.14-7,7-7  c3.859,0,7,3.141,7,7c0,1.887-0.945,2.64-2,2.892v-5.273L23.745,18.333z M22,24h-3c-1.654,0-3-1.346-3-3s1.346-3,3-3  c1.308,0,2.496,0.95,3,1.416V24z"/>
</svg>
