<?xml version="1.0" encoding="utf-8"?>
<!-- Generator: Adobe Illustrator 15.0.0, SVG Export Plug-In . SVG Version: 6.00 Build 0)  -->
<svg xmlns="http://www.w3.org/2000/svg" xmlns:xlink="http://www.w3.org/1999/xlink" version="1.1" id="262144268_Layer_1_grid" x="0px" y="0px" width="38px" height="38px" viewBox="0 0 38 38" enable-background="new 0 0 38 38" xml:space="preserve">
<path fill="#231F20" d="M19,19c1.294,0,2.218-0.729,2.674-1.663l1.786,0.893C22.687,19.775,21.121,21,19,21s-3.687-1.225-4.46-2.771  l1.786-0.893C16.782,18.271,17.706,19,19,19z M15,10.85c-0.607,0-1.1,0.38-1.1,1.65c0,1.271,0.493,1.65,1.1,1.65s1.1-0.379,1.1-1.65  C16.1,11.23,15.607,10.85,15,10.85z M24.1,12.5c0-1.27-0.491-1.65-1.1-1.65s-1.1,0.38-1.1,1.65c0,1.271,0.491,1.65,1.1,1.65  S24.1,13.771,24.1,12.5z M36.153,38H1.847l0.163-1.142c0.924-6.473,3.327-7.461,6.652-8.828c0.594-0.244,1.233-0.507,1.919-0.823  c2.681-1.236,3.284-1.765,3.396-2.736C11.45,22.742,10,19.803,10,17l0.033-11.106C10.568,3.855,12.965,0,18.208,0  c1.845,0,3.175,0.319,4.349,0.602C23.448,0.815,24.218,1,25.053,1c1.12,0,2.283-0.391,2.947-0.656v2.128  C27.186,2.74,26.121,3,25.053,3c-1.072,0-1.99-0.221-2.963-0.454C20.973,2.278,19.816,2,18.208,2C13.613,2,12.227,5.592,12,6.294V17  c0,3.44,2.618,7,7,7s7-3.56,7-7V6.936C25.685,6.975,25.374,7,25.053,7c-1.689,0-2.836-0.292-3.848-0.549  C20.294,6.219,19.433,6,18.208,6c-0.902,0-1.71,0.395-2.218,1.083l-1.609-1.188C15.27,4.691,16.665,4,18.208,4  c1.475,0,2.499,0.261,3.49,0.513C22.684,4.763,23.614,5,25.053,5c0.527,0,1.046-0.095,1.765-0.226l1.18-0.215L28,17  c0,2.803-1.45,5.742-3.977,7.471c0.111,0.972,0.715,1.5,3.396,2.736c0.687,0.317,1.325,0.579,1.919,0.824  c3.325,1.367,5.728,2.354,6.652,8.827L36.153,38z M33.823,36c-0.81-4.295-2.284-4.901-5.246-6.119  c-0.617-0.255-1.282-0.528-1.996-0.857c-2.285-1.055-3.84-1.888-4.368-3.608C21.242,25.783,20.171,26,19,26  s-2.242-0.217-3.213-0.585c-0.528,1.721-2.083,2.554-4.368,3.608c-0.713,0.329-1.378,0.603-1.996,0.856  C6.461,31.099,4.986,31.704,4.177,36H18v-8h2v8H33.823z M20,17h-2v-4h2V17z"/>
</svg>
