<?xml version="1.0" encoding="utf-8"?>
<!-- Generator: Adobe Illustrator 15.0.0, SVG Export Plug-In . SVG Version: 6.00 Build 0)  -->
<svg xmlns="http://www.w3.org/2000/svg" xmlns:xlink="http://www.w3.org/1999/xlink" version="1.1" id="262185819_Capa_1_grid" x="0px" y="0px" width="38px" height="38px" viewBox="0 0 38 38" enable-background="new 0 0 38 38" xml:space="preserve">
<path fill="#231F20" d="M5.6,9.8L4.4,8.2l8-6l1.2,1.6L5.6,9.8z M33.6,8.2l-8-6L24.4,3.8l8,6L33.6,8.2z M34,21c0-8.27-6.73-15-15-15  C10.73,6,4,12.73,4,21c0,4.86,2.32,9.19,5.92,11.93l-1.81,3.62l1.78,0.9l1.71-3.41C13.78,35.29,16.31,36,19,36  c1.98,0,3.87-0.39,5.6-1.09l-0.89-1.79C22.25,33.69,20.66,34,19,34c-7.17,0-13-5.83-13-13S11.83,8,19,8s13,5.83,13,13  c0,4.8-2.61,9-6.49,11.25l2.601,5.2l1.779-0.9l-1.81-3.62C31.68,30.19,34,25.86,34,21z M23,26v-2h-4.504l4.386-8H15v2h4.504  l-4.387,8H23z"/>
</svg>
