<?xml version="1.0" encoding="utf-8"?>
<!-- Generator: Adobe Illustrator 15.0.0, SVG Export Plug-In . SVG Version: 6.00 Build 0)  -->
<svg xmlns="http://www.w3.org/2000/svg" xmlns:xlink="http://www.w3.org/1999/xlink" version="1.1" id="262185821_Capa_1_grid" x="0px" y="0px" width="38px" height="38px" viewBox="0 0 38 38" enable-background="new 0 0 38 38" xml:space="preserve">
<path fill="#231F20" d="M28.08,32.93l1.81,3.62l-1.779,0.9l-2.601-5.2C29.39,30,32,25.8,32,21c0-7.17-5.83-13-13-13S6,13.83,6,21  s5.83,13,13,13c1.66,0,3.25-0.31,4.71-0.88l0.89,1.79C22.87,35.61,20.98,36,19,36c-2.69,0-5.22-0.71-7.4-1.96l-1.71,3.41l-1.78-0.9  l1.81-3.62C6.32,30.19,4,25.86,4,21c0-8.27,6.73-15,15-15c8.27,0,15,6.73,15,15C34,25.86,31.68,30.19,28.08,32.93z M20,20.59V12h-2  v9.41l4.29,4.3l1.42-1.42L20,20.59z M12.4,2.2l-8,6l1.2,1.6l8-6L12.4,2.2z M25.6,2.2L24.4,3.8l8,6L33.6,8.2L25.6,2.2z"/>
</svg>
