<?xml version="1.0" encoding="utf-8"?>
<!-- Generator: Adobe Illustrator 15.0.0, SVG Export Plug-In . SVG Version: 6.00 Build 0)  -->
<svg xmlns="http://www.w3.org/2000/svg" xmlns:xlink="http://www.w3.org/1999/xlink" version="1.1" id="262144269_Layer_1_grid" x="0px" y="0px" width="38px" height="38px" viewBox="0 0 38 38" enable-background="new 0 0 38 38" xml:space="preserve">
<path fill="#231F20" d="M2,19C2,9.626,9.626,2,19,2h1v18.657l4.177-4.177l1.414,1.414L19,24.485l-6.591-6.591l1.414-1.414L18,20.657  V4.033C10.194,4.55,4,11.064,4,19c0,8.271,6.729,15,15,15c8.271,0,15-6.729,15-15c0-7.203-5.129-13.285-12-14.684V2.275  C29.989,3.7,36,10.696,36,19c0,9.374-7.626,17-17,17S2,28.374,2,19z"/>
</svg>
