<?xml version="1.0" encoding="utf-8"?>
<!-- Generator: Adobe Illustrator 15.0.0, SVG Export Plug-In . SVG Version: 6.00 Build 0)  -->
<svg xmlns="http://www.w3.org/2000/svg" xmlns:xlink="http://www.w3.org/1999/xlink" version="1.1" id="262144274_Layer_1_grid" x="0px" y="0px" width="38px" height="38px" viewBox="0 0 38 38" enable-background="new 0 0 38 38" xml:space="preserve">
<path fill="#231F20" d="M19,2C9.63,2,2,9.63,2,19c0,5.75,2.87,10.84,7.26,13.92l1.63-1.31C6.75,28.94,4,24.28,4,19  c0-8.27,6.73-15,15-15c8.27,0,15,6.73,15,15c0,8.27-6.73,15-15,15c-2.22,0-4.32-0.48-6.21-1.35l-1.72,1.369  C13.44,35.29,16.14,36,19,36c9.37,0,17-7.63,17-17S28.37,2,19,2z M15.625,27.781l-1.249-1.563L23.399,19l-9.024-7.219l1.249-1.562  L26.601,19L15.625,27.781z"/>
</svg>
