<?xml version="1.0" encoding="utf-8"?>
<!-- Generator: Adobe Illustrator 15.0.0, SVG Export Plug-In . SVG Version: 6.00 Build 0)  -->
<svg xmlns="http://www.w3.org/2000/svg" xmlns:xlink="http://www.w3.org/1999/xlink" version="1.1" id="262144270_Layer_1_grid" x="0px" y="0px" width="38px" height="38px" viewBox="0 0 38 38" enable-background="new 0 0 38 38" xml:space="preserve">
<path fill="#231F20" d="M35.999,19c0.001,9.37-7.63,17.001-17,17c-9.37,0.001-17-7.63-17-16.999c0-2.861,0.71-5.561,1.98-7.93  l1.369,1.719C4.48,14.681,4,16.78,4,19.001c0,8.27,6.73,14.999,15,14.999c8.271,0,15.001-6.729,15-15  C33.998,10.731,27.27,4,19,4.001c-5.28-0.002-9.941,2.749-12.611,6.89L5.079,9.26C8.16,4.87,13.25,1.999,19,2.001  C28.369,1.999,36,9.63,35.999,19z M27.781,15.625l-1.563-1.249L19,23.399l-7.218-9.023l-1.563,1.25L19,26.601L27.781,15.625z"/>
</svg>
