<?xml version="1.0" encoding="utf-8"?>
<!-- Generator: Adobe Illustrator 15.0.0, SVG Export Plug-In . SVG Version: 6.00 Build 0)  -->
<svg xmlns="http://www.w3.org/2000/svg" xmlns:xlink="http://www.w3.org/1999/xlink" version="1.1" id="262144276_Layer_1_grid" x="0px" y="0px" width="38px" height="38px" viewBox="0 0 38 38" enable-background="new 0 0 38 38" xml:space="preserve">
<path fill="#231F20" d="M18.999,2c-9.37-0.001-17,7.63-17,16.999c0,2.861,0.71,5.561,1.98,7.93l1.369-1.719  C4.48,23.319,4,21.22,4,18.999C4,10.729,10.729,4,18.999,4c8.271,0,15.001,6.729,15,15c-0.001,8.269-6.729,15-15,14.999  c-5.28,0.002-9.941-2.749-12.611-6.89l-1.31,1.631c3.081,4.39,8.17,7.261,13.92,7.259c9.37,0.002,17-7.629,17-16.999  C36,9.63,28.369,1.999,18.999,2z M19,11.399l8.782,10.976l-1.563,1.249L19,14.601l-7.218,9.023l-1.563-1.25L19,11.399z"/>
</svg>
