<?xml version="1.0" encoding="utf-8"?>
<!-- Generator: Adobe Illustrator 15.0.0, SVG Export Plug-In . SVG Version: 6.00 Build 0)  -->
<svg xmlns="http://www.w3.org/2000/svg" xmlns:xlink="http://www.w3.org/1999/xlink" version="1.1" id="262144275_Layer_1_grid" x="0px" y="0px" width="38px" height="38px" viewBox="0 0 38 38" enable-background="new 0 0 38 38" xml:space="preserve">
<path fill="#231F20" d="M19,2c9.374,0,17,7.626,17,17c0,8.304-6.011,15.3-14,16.725v-2.041c6.871-1.398,12-7.48,12-14.684  c0-8.271-6.729-15-15-15C10.729,4,4,10.729,4,19c0,7.936,6.194,14.45,14,14.967V17.343l-4.177,4.177l-1.414-1.414L19,13.515  l6.591,6.591l-1.414,1.414L20,17.343V36h-1C9.626,36,2,28.374,2,19S9.626,2,19,2z"/>
</svg>
