<?xml version="1.0" encoding="utf-8"?>
<!-- Generator: Adobe Illustrator 15.0.0, SVG Export Plug-In . SVG Version: 6.00 Build 0)  -->
<svg xmlns="http://www.w3.org/2000/svg" xmlns:xlink="http://www.w3.org/1999/xlink" version="1.1" id="262144271_Layer_1_grid" x="0px" y="0px" width="38px" height="38px" viewBox="0 0 38 38" enable-background="new 0 0 38 38" xml:space="preserve">
<path fill="#231F20" d="M19,2c9.374,0,17,7.626,17,17v1H17.343l4.177,4.177l-1.414,1.414L13.515,19l6.591-6.591l1.414,1.414  L17.343,18h16.624C33.45,10.194,26.936,4,19,4C10.729,4,4,10.729,4,19c0,8.271,6.729,15,15,15c7.203,0,13.285-5.129,14.684-12h2.041  C34.3,29.989,27.304,36,19,36C9.626,36,2,28.374,2,19S9.626,2,19,2z"/>
</svg>
