<?xml version="1.0" encoding="utf-8"?>
<!-- Generator: Adobe Illustrator 15.0.0, SVG Export Plug-In . SVG Version: 6.00 Build 0)  -->
<svg xmlns="http://www.w3.org/2000/svg" xmlns:xlink="http://www.w3.org/1999/xlink" version="1.1" id="262144273_Layer_1_grid" x="0px" y="0px" width="38px" height="38px" viewBox="0 0 38 38" enable-background="new 0 0 38 38" xml:space="preserve">
<path fill="#231F20" d="M36,19c0,9.374-7.626,17-17,17c-8.303,0-15.299-6.011-16.724-14h2.041C5.715,28.871,11.797,34,19,34  c8.271,0,15-6.729,15-15c0-8.271-6.729-15-15-15C11.065,4,4.55,10.194,4.033,18h16.624l-4.177-4.177l1.414-1.414L24.485,19  l-6.591,6.591l-1.414-1.414L20.657,20H2v-1C2,9.626,9.626,2,19,2S36,9.626,36,19z"/>
</svg>
