<?xml version="1.0" encoding="utf-8"?>
<!-- Generator: Adobe Illustrator 15.0.0, SVG Export Plug-In . SVG Version: 6.00 Build 0)  -->
<svg xmlns="http://www.w3.org/2000/svg" xmlns:xlink="http://www.w3.org/1999/xlink" version="1.1" id="262144272_Layer_1_grid" x="0px" y="0px" width="38px" height="38px" viewBox="0 0 38 38" enable-background="new 0 0 38 38" xml:space="preserve">
<path fill="#231F20" d="M2,19c0,9.37,7.63,17,17,17c2.859,0,5.561-0.71,7.93-1.98l-1.72-1.369C23.32,33.52,21.221,34,19,34  c-8.27,0-15-6.73-15-15c0-8.27,6.73-15,15-15s15,6.73,15,15c0,5.28-2.75,9.94-6.891,12.61l1.631,1.31C33.13,29.84,36,24.75,36,19  c0-9.37-7.63-17-17-17S2,9.63,2,19z M11.399,19l10.976-8.781l1.25,1.562L14.601,19l9.024,7.219l-1.25,1.563L11.399,19z"/>
</svg>
