<?xml version="1.0" encoding="utf-8"?>
<!-- Generator: Adobe Illustrator 15.0.0, SVG Export Plug-In . SVG Version: 6.00 Build 0)  -->
<svg xmlns="http://www.w3.org/2000/svg" xmlns:xlink="http://www.w3.org/1999/xlink" version="1.1" id="262144277_Layer_1_grid" x="0px" y="0px" width="38px" height="38px" viewBox="0 0 38 38" enable-background="new 0 0 38 38" xml:space="preserve">
<path fill="#231F20" d="M32,36H6V16c-2.206,0-4-1.794-4-4s1.794-4,4-4h7c1.654,0,3,1.346,3,3s-1.346,3-3,3H8v-2h5  c0.551,0,1-0.449,1-1s-0.449-1-1-1H6c-1.103,0-2,0.897-2,2s0.897,2,2,2h2v20h22V4H8v2H6V2h26V36z"/>
</svg>
