<?xml version="1.0" encoding="utf-8"?>
<!-- Generator: Adobe Illustrator 15.0.0, SVG Export Plug-In . SVG Version: 6.00 Build 0)  -->
<svg xmlns="http://www.w3.org/2000/svg" xmlns:xlink="http://www.w3.org/1999/xlink" version="1.1" id="262144280_Layer_1_grid" x="0px" y="0px" width="38px" height="38px" viewBox="0 0 38 38" enable-background="new 0 0 38 38" xml:space="preserve">
<path fill="#231F20" d="M25.67,4.84l-1.33,1.49C27.94,9.55,30,14.17,30,19s-2.06,9.45-5.66,12.67l1.33,1.49  C29.69,29.56,32,24.4,32,19C32,13.6,29.69,8.44,25.67,4.84z M22,37.414L12.586,28H4c-1.103,0-2-0.897-2-2V12c0-1.103,0.897-2,2-2h6  v2H4v14h8V10.586l10-10v9.033c2.548,2.446,4,5.84,4,9.381s-1.452,6.935-4,9.381V37.414z M14,26.586l6,6V5.414l-6,6V26.586z   M22,12.678v12.646c1.289-1.837,2-4.044,2-6.323C24,16.721,23.289,14.514,22,12.678z"/>
</svg>
