<?xml version="1.0" encoding="utf-8"?>
<!-- Generator: Adobe Illustrator 15.0.0, SVG Export Plug-In . SVG Version: 6.00 Build 0)  -->
<svg xmlns="http://www.w3.org/2000/svg" xmlns:xlink="http://www.w3.org/1999/xlink" version="1.1" id="262144281_Layer_1_grid" x="0px" y="0px" width="38px" height="38px" viewBox="0 0 38 38" enable-background="new 0 0 38 38" xml:space="preserve">
<path fill="#231F20" d="M12,26H4V12h6v-2H4c-1.103,0-2,0.897-2,2v14c0,1.103,0.897,2,2,2h8.586L22,37.414V0.586l-10,10V26z   M14,11.414l6-6v27.172l-6-6V11.414z M31.302,19l4.467,5.359l-1.537,1.281L30,20.563l-4.231,5.078l-1.537-1.281L28.698,19  l-4.467-5.36l1.537-1.28L30,17.438l4.231-5.078l1.537,1.28L31.302,19z"/>
</svg>
