<?xml version="1.0" encoding="utf-8"?>
<!-- Generator: Adobe Illustrator 16.0.0, SVG Export Plug-In . SVG Version: 6.00 Build 0)  -->
<svg xmlns="http://www.w3.org/2000/svg" xmlns:xlink="http://www.w3.org/1999/xlink" version="1.1" id="262144282_Layer_1_grid" x="0px" y="0px" width="38px" height="38px" viewBox="0 0 38 38" style="enable-background:new 0 0 38 38;" xml:space="preserve">
<path style="fill:#231F20;" d="M22,37.414L12.586,28H4c-1.103,0-2-0.897-2-2V12c0-1.103,0.897-2,2-2h6v2H4v14h8V10.586l10-10v9.033  c2.548,2.446,4,5.84,4,9.381s-1.452,6.935-4,9.381V37.414z M14,26.586l6,6V5.414l-6,6V26.586z M22,12.678v12.646  c1.289-1.837,2-4.044,2-6.323C24,16.721,23.289,14.514,22,12.678z"/>
</svg>
