<?xml version="1.0" encoding="utf-8"?>
<!-- Generator: Adobe Illustrator 15.0.0, SVG Export Plug-In . SVG Version: 6.00 Build 0)  -->
<svg xmlns="http://www.w3.org/2000/svg" xmlns:xlink="http://www.w3.org/1999/xlink" version="1.1" id="262144284_Layer_1_grid" x="0px" y="0px" width="38px" height="38px" viewBox="0 0 38 38" enable-background="new 0 0 38 38" xml:space="preserve">
<path fill="#231F20" d="M36,24c0,3.31-2.69,6-6,6s-6-2.69-6-6s2.69-6,6-6c2.61,0,4.82,1.67,5.65,4h2.09  c-0.681-3.86-2.521-11.25-2.79-12.32C34.9,9.53,33.67,6,29,6s-5.9,3.53-5.95,3.69l-1.33,4.09C20.9,13.91,20,14,19,14  c-0.98,0-1.88-0.09-2.69-0.22l-1.36-4.1C14.9,9.53,13.67,6,9,6S3.1,9.53,3.03,9.76c-0.25,1-2.09,8.38-2.77,12.24h2.09  c0.83-2.33,3.04-4,5.65-4c3.31,0,6,2.69,6,6s-2.69,6-6,6s-6-2.69-6-6H0c0,4.41,3.59,8,8,8c2.4,0,4.55-1.07,6.02-2.75  c0.57-0.17,1.08-0.36,1.51-0.52C16.61,28.32,17.46,28,19,28s2.39,0.32,3.47,0.73c0.431,0.159,0.94,0.35,1.511,0.52  C25.45,30.93,27.6,32,30,32c4.41,0,8-3.59,8-8H36z M19,26c-1.5,0-2.51,0.26-3.44,0.59C15.84,25.77,16,24.91,16,24  c0-0.69-0.1-1.36-0.26-2h6.52C22.1,22.64,22,23.31,22,24c0,0.91,0.16,1.77,0.44,2.59C21.51,26.26,20.5,26,19,26z M23.08,20h-8.16  c-1.39-2.39-3.97-4-6.92-4c-1.8,0-3.45,0.6-4.79,1.6c0.56-2.459,1.21-5.16,1.74-7.28C4.96,10.29,5.76,8,9,8  c3.19,0,4.02,2.23,4.05,2.32l0.97,2.93c-1.57-0.51-2.45-1.07-2.47-1.08l-1.1,1.66C10.58,13.92,13.76,16,19,16s8.42-2.08,8.55-2.17  l-1.1-1.66c-0.021,0.01-0.891,0.57-2.45,1.07l0.95-2.92C24.96,10.29,25.76,8,29,8c3.19,0,4.02,2.23,4.03,2.24  c0.54,2.16,1.2,4.89,1.76,7.359c-1.34-1-3-1.6-4.79-1.6C27.05,16,24.47,17.61,23.08,20z"/>
</svg>
