<?xml version="1.0" encoding="utf-8"?>
<!-- Generator: Adobe Illustrator 15.0.0, SVG Export Plug-In . SVG Version: 6.00 Build 0)  -->
<svg xmlns="http://www.w3.org/2000/svg" xmlns:xlink="http://www.w3.org/1999/xlink" version="1.1" id="262144283_Layer_1_grid" x="0px" y="0px" width="38px" height="38px" viewBox="0 0 38 38" enable-background="new 0 0 38 38" xml:space="preserve">
<path fill="#231F20" d="M35,34H25c-1.654,0-3-1.346-3-3v-5h-4v-2h4V14h2v12h11.842c-0.563-8.598-2.614-15.33-5.914-19.245  C29.464,6.205,29.035,6,28.35,6H25c-0.552,0-1,0.449-1,1v5H14V7c0-0.551-0.449-1-1-1H9.65C8.964,6,8.537,6.205,8.073,6.755  C4.772,10.67,2.722,17.402,2.158,26H14V14h2v17c0,1.654-1.346,3-3,3H3c-1.654,0-3-1.346-3-3C0,19.54,2.324,10.472,6.543,5.466  C7.387,4.466,8.374,4,9.65,4H13c1.654,0,3,1.346,3,3v3h6V7c0-1.654,1.346-3,3-3h3.35c1.276,0,2.263,0.466,3.107,1.465  C35.677,10.471,38,19.54,38,31C38,32.654,36.654,34,35,34z M24,28v3c0,0.552,0.448,1,1,1h10c0.552,0,1-0.448,1-1  c0-1.021-0.019-2.021-0.056-3H24z M2.056,28C2.019,28.979,2,29.979,2,31c0,0.552,0.449,1,1,1h10c0.551,0,1-0.448,1-1v-3H2.056z"/>
</svg>
