<?xml version="1.0" encoding="utf-8"?>
<!-- Generator: Adobe Illustrator 15.0.0, SVG Export Plug-In . SVG Version: 6.00 Build 0)  -->
<svg xmlns="http://www.w3.org/2000/svg" xmlns:xlink="http://www.w3.org/1999/xlink" version="1.1" id="262144287_Layer_1_grid" x="0px" y="0px" width="38px" height="38px" viewBox="0 0 38 38" enable-background="new 0 0 38 38" xml:space="preserve">
<path fill="#231F20" d="M35,34H3c-1.654,0-3-1.346-3-3V11c0-1.654,1.346-3,3-3h5V6h2v2h2c0-2.393,1.607-4,4-4h6c2.393,0,4,1.607,4,4  v2H3c-0.551,0-1,0.449-1,1v20c0,0.552,0.449,1,1,1h32c0.552,0,1-0.448,1-1V11c0-0.551-0.448-1-1-1h-7V6h2v2h5c1.654,0,3,1.346,3,3  v20C38,32.654,36.654,34,35,34z M14,8h10c0-1.805-1.398-2-2-2h-6C15.398,6,14,6.195,14,8z"/>
</svg>
