<?xml version="1.0" encoding="utf-8"?>
<!-- Generator: Adobe Illustrator 15.0.0, SVG Export Plug-In . SVG Version: 6.00 Build 0)  -->
<svg xmlns="http://www.w3.org/2000/svg" xmlns:xlink="http://www.w3.org/1999/xlink" version="1.1" id="262144288_Layer_1_grid" x="0px" y="0px" width="38px" height="38px" viewBox="0 0 38 38" enable-background="new 0 0 38 38" xml:space="preserve">
<path fill="#231F20" d="M29,38H10v-2h19c0.806,0,0.988-0.55,1-1.012V3c0-0.805-0.55-0.988-1.012-1H9C8.195,2,8.012,2.55,8,3.012V38  H6V3c0-1.206,0.799-3,3-3h20c1.206,0,3,0.799,3,3v32C32,36.206,31.201,38,29,38 M26,10h-2v2H14V8h12V6H12v8h14V10z M14,18h-2v2h2V18  z M14,24h-2v2h2V24z M14,30h-2v2h2V30z M20,18h-2v2h2V18z M20,24h-2v2h2V24z M20,30h-2v2h2V30z M26,18h-2v2h2V18z M26,24h-2v2h2V24z   M26,30h-2v2h2V30z"/>
</svg>
