<?xml version="1.0" encoding="utf-8"?>
<!-- Generator: Adobe Illustrator 15.0.0, SVG Export Plug-In . SVG Version: 6.00 Build 0)  -->
<svg xmlns="http://www.w3.org/2000/svg" xmlns:xlink="http://www.w3.org/1999/xlink" version="1.1" id="262144290_Layer_1_grid" x="0px" y="0px" width="38px" height="38px" viewBox="0 0 38 38" enable-background="new 0 0 38 38" xml:space="preserve">
<path fill="#231F20" d="M34.453,13.671c-1.16-0.506-5.043-2.287-6.341-2.883l-0.549-2.046C27.344,7.921,26.83,6,24.063,6H13.938  c-2.767,0-3.227,1.716-3.502,2.741L9.619,11.79l1.932,0.518l0.817-3.049C12.62,8.317,12.705,8,13.938,8h10.125  c1.178,0,1.348,0.432,1.569,1.259l0.791,2.953c0,0,5.819,2.676,7.231,3.292C34.913,16.053,36,16.527,36,19v11H19H2v-4h9.522  c1.616,2.41,4.365,4,7.478,4s5.861-1.59,7.479-4H34v-2h-6.525C27.809,23.06,28,22.053,28,21c0-4.962-4.037-9-9-9  c-4.962,0-9,4.038-9,9c0,1.053,0.191,2.06,0.525,3H2v-5c0-2.472,1.232-3.01,2.536-3.579C6.263,14.667,8,13.822,8,13.822V10H6v2.565  c-0.496,0.232-1.29,0.598-2.264,1.023C2.339,14.198,0,15.219,0,19v13h38V19C38,15.217,35.866,14.287,34.453,13.671z M19,14  c3.859,0,7,3.141,7,7s-3.141,7-7,7c-3.86,0-7-3.141-7-7S15.14,14,19,14z"/>
</svg>
