<?xml version="1.0" encoding="utf-8"?>
<!-- Generator: Adobe Illustrator 15.0.0, SVG Export Plug-In . SVG Version: 6.00 Build 0)  -->
<svg xmlns="http://www.w3.org/2000/svg" xmlns:xlink="http://www.w3.org/1999/xlink" version="1.1" id="262144291_Layer_1_grid" x="0px" y="0px" width="38px" height="38px" viewBox="0 0 38 38" enable-background="new 0 0 38 38" xml:space="preserve">
<path fill="#231F20" d="M13.343,23.243l9.899-9.9l1.415,1.415l-9.9,9.9L13.343,23.243z M19,2C9.611,2,2,9.611,2,19  c0,5.055,2.218,9.58,5.72,12.694l1.414-1.414C5.993,27.53,4,23.502,4,19c0-8.284,6.716-15,15-15s15,6.716,15,15s-6.716,15-15,15  c-3.057,0-5.897-0.92-8.268-2.49l-1.437,1.438C12.048,34.866,15.39,36,19,36c9.389,0,17-7.611,17-17S28.389,2,19,2z"/>
</svg>
