<?xml version="1.0" encoding="utf-8"?>
<!-- Generator: Adobe Illustrator 15.0.0, SVG Export Plug-In . SVG Version: 6.00 Build 0)  -->
<svg xmlns="http://www.w3.org/2000/svg" xmlns:xlink="http://www.w3.org/1999/xlink" version="1.1" id="262144293_Layer_1_grid" x="0px" y="0px" width="38px" height="38px" viewBox="0 0 38 38" enable-background="new 0 0 38 38" xml:space="preserve">
<path fill="#231F20" d="M19,2C8.52,2,0,8.73,0,17c0,5.37,3.61,10.07,9,12.72V27.48C4.77,25.12,2,21.31,2,17C2,9.83,9.63,4,19,4  s17,5.83,17,13s-7.63,13-17,13c-0.9,0-1.79-0.07-2.65-0.17L13,33.17v-4.02c-0.69-0.2-1.36-0.44-2-0.71V38l6.08-6.08  C17.71,31.97,18.35,32,19,32c10.48,0,19-6.73,19-15C38,8.73,29.48,2,19,2z M20,20h-2V10h2V20z M20,24h-2v-2h2V24z"/>
</svg>
