<?xml version="1.0" encoding="utf-8"?>
<!-- Generator: Adobe Illustrator 15.0.0, SVG Export Plug-In . SVG Version: 6.00 Build 0)  -->
<svg xmlns="http://www.w3.org/2000/svg" xmlns:xlink="http://www.w3.org/1999/xlink" version="1.1" id="262144297_Layer_1_grid" x="0px" y="0px" width="38px" height="38px" viewBox="0 0 38 38" enable-background="new 0 0 38 38" xml:space="preserve">
<path fill="#231F20" d="M36,36H2V2h30v2H4v30h30V2h2V36z M30,19c0-6.065-4.935-11-11-11S8,12.935,8,19s4.935,11,11,11  S30,25.065,30,19z M28,19c0,4.963-4.037,9-9,9c-4.962,0-9-4.037-9-9c0-4.962,4.038-9,9-9C23.963,10,28,14.038,28,19z"/>
</svg>
