<?xml version="1.0" encoding="utf-8"?>
<!-- Generator: Adobe Illustrator 15.0.0, SVG Export Plug-In . SVG Version: 6.00 Build 0)  -->
<svg xmlns="http://www.w3.org/2000/svg" xmlns:xlink="http://www.w3.org/1999/xlink" version="1.1" id="262144299_Layer_1_grid" x="0px" y="0px" width="38px" height="38px" viewBox="0 0 38 38" enable-background="new 0 0 38 38" xml:space="preserve">
<path fill="#231F20" d="M30.794,36.073c-1.845,0-3.69-0.702-5.096-2.107c-1.324-1.324-6.376-6.07-10.833-10.259  c-3.77-3.542-7.025-6.601-7.761-7.337c-2.002-2.004-2.002-5.263,0-7.265c2.003-2.002,5.262-2.003,7.266,0  c1.582,1.583,16.146,15.157,16.292,15.294l-1.363,1.463c-0.602-0.56-14.736-13.735-16.343-15.342c-1.224-1.223-3.214-1.224-4.438,0  c-1.223,1.223-1.223,3.213,0,4.437c0.713,0.714,4.115,3.91,7.716,7.293c4.468,4.198,9.532,8.957,10.878,10.303  c2.032,2.029,5.335,2.027,7.363,0C35.459,31.568,36,30.261,36,28.871c0-1.391-0.542-2.697-1.525-3.681  c-1.12-1.12-4.869-4.652-8.838-8.391c-4.663-4.392-9.484-8.934-11.219-10.668C13.043,4.757,11.217,4,9.274,4S5.504,4.757,4.13,6.131  C2.757,7.505,2,9.332,2,11.275s0.757,3.77,2.13,5.143c3.182,3.184,17.61,16.623,17.755,16.759l-1.363,1.463  c-0.595-0.554-14.6-13.599-17.807-16.808C0.965,16.081,0,13.752,0,11.275s0.965-4.807,2.716-6.558C4.468,2.965,6.796,2,9.274,2  s4.806,0.965,6.558,2.717c1.714,1.713,6.524,6.245,11.176,10.627c3.98,3.749,7.74,7.291,8.881,8.433  C37.25,25.137,38,26.946,38,28.871c0,1.924-0.749,3.733-2.11,5.095C34.485,35.37,32.64,36.073,30.794,36.073z"/>
</svg>
