<?xml version="1.0" encoding="utf-8"?>
<!-- Generator: Adobe Illustrator 15.0.0, SVG Export Plug-In . SVG Version: 6.00 Build 0)  -->
<svg xmlns="http://www.w3.org/2000/svg" xmlns:xlink="http://www.w3.org/1999/xlink" version="1.1" id="262144300_Layer_1_grid" x="0px" y="0px" width="38px" height="38px" viewBox="0 0 38 38" enable-background="new 0 0 38 38" xml:space="preserve">
<path fill="#231F20" d="M32,38H6c-1.103,0-2-0.897-2-2V12h2v24h26V10H12v20h14V12h2v20H10V10H4V6c0-1.103,0.897-2,2-2h6.465  l0.28-0.419C13.857,1.914,15.572,0,19,0c3.429,0,5.145,1.914,6.256,3.581L25.535,4H32c1.103,0,2,0.897,2,2v30  C34,37.103,33.103,38,32,38z M6,8h26V6h-7.537l-0.871-1.31C22.515,3.075,21.322,2,19,2c-2.321,0-3.514,1.075-4.591,2.69  c-0.539,0.808-0.583,0.874-0.583,0.874L13.528,6L6,6V8z"/>
</svg>
