<?xml version="1.0" encoding="utf-8"?>
<!-- Generator: Adobe Illustrator 15.0.0, SVG Export Plug-In . SVG Version: 6.00 Build 0)  -->
<svg xmlns="http://www.w3.org/2000/svg" xmlns:xlink="http://www.w3.org/1999/xlink" version="1.1" id="262144301_Layer_1_grid" x="0px" y="0px" width="38px" height="38px" viewBox="0 0 38 38" enable-background="new 0 0 38 38" xml:space="preserve">
<path fill="#231F20" d="M28.831,32.844l2.267,3.626l-1.695,1.061l-2.259-3.613c0,0,0,0-0.001,0l-1.062-1.699  C30.79,29.685,34,24.712,34,19c0-8.271-6.729-15-15-15C10.729,4,4,10.729,4,19c0,8.271,6.729,15,15,15  c1.843,0,3.603-0.351,5.235-0.961l1.087,1.738C23.366,35.564,21.234,36,19,36c-2.949,0-5.724-0.757-8.144-2.083L8.598,37.53  L6.902,36.47l2.267-3.626C4.838,29.759,2,24.71,2,19C2,9.626,9.626,2,19,2s17,7.626,17,17C36,24.71,33.161,29.76,28.831,32.844z   M18,8v11.469l6.359,5.3l1.281-1.537L20,18.531V8H18z"/>
</svg>
