<?xml version="1.0" encoding="utf-8"?>
<!-- Generator: Adobe Illustrator 15.0.0, SVG Export Plug-In . SVG Version: 6.00 Build 0)  -->
<svg xmlns="http://www.w3.org/2000/svg" xmlns:xlink="http://www.w3.org/1999/xlink" version="1.1" id="262144302_Layer_1_grid" x="0px" y="0px" width="38px" height="38px" viewBox="0 0 38 38" enable-background="new 0 0 38 38" xml:space="preserve">
<path fill="#231F20" d="M14.757,13.343L19,17.586l4.242-4.243l1.415,1.415L20.414,19l4.243,4.242l-1.415,1.414L19,20.414  l-4.243,4.242l-1.414-1.414L17.586,19l-4.243-4.243L14.757,13.343z M19,2C9.611,2,2,9.611,2,19c0,5.055,2.218,9.58,5.72,12.694  l1.414-1.414C5.993,27.53,4,23.502,4,19c0-8.284,6.716-15,15-15s15,6.716,15,15s-6.716,15-15,15c-3.057,0-5.897-0.92-8.269-2.49  l-1.437,1.438C12.048,34.866,15.39,36,19,36c9.389,0,17-7.611,17-17S28.389,2,19,2z"/>
</svg>
