<?xml version="1.0" encoding="utf-8"?>
<!-- Generator: Adobe Illustrator 15.0.0, SVG Export Plug-In . SVG Version: 6.00 Build 0)  -->
<svg xmlns="http://www.w3.org/2000/svg" xmlns:xlink="http://www.w3.org/1999/xlink" version="1.1" id="262144305_Layer_1_grid" x="0px" y="0px" width="38px" height="38px" viewBox="0 0 38 38" enable-background="new 0 0 38 38" xml:space="preserve">
<path fill="#231F20" d="M24.67,19l9.12-11.85l-3.96-3.04L28.61,5.7l2.37,1.82L22.15,19l8.83,11.48L27.02,33.52L19,23.09l-8.02,10.43  L7.02,30.48L15.85,19L7.02,7.52l3.96-3.04L19,14.91L28.25,2.9l-0.01-0.01l-1.59-1.21L19,11.63l-7.65-9.95L4.21,7.15L13.33,19  L4.21,30.85l7.14,5.471L19,26.37l7.65,9.95l7.14-5.471L24.67,19z"/>
</svg>
