<?xml version="1.0" encoding="utf-8"?>
<!-- Generator: Adobe Illustrator 15.0.0, SVG Export Plug-In . SVG Version: 6.00 Build 0)  -->
<svg xmlns="http://www.w3.org/2000/svg" xmlns:xlink="http://www.w3.org/1999/xlink" version="1.1" id="262185824_Capa_1_grid" x="0px" y="0px" width="38px" height="38px" viewBox="0 0 38 38" enable-background="new 0 0 38 38" xml:space="preserve">
<path fill="#231F20" d="M19.998,35l-1.066-2.001C17.861,32.963,17,32.08,17,31c0-0.389,0.111-0.751,0.304-1.059l-4.358-8.181  l1.766-0.939l4.357,8.18C20.14,29.037,21,29.92,21,31c0,0.388-0.111,0.751-0.303,1.058l1.066,2.003L19.998,35z M11.449,30.132  L-0.013,18.029l0.497-0.673C4.808,11.498,11.729,8,19,8s14.192,3.498,18.516,9.355l0.497,0.673L26.552,30.132l-1.453-1.375  l10.299-10.875c-1.589-1.981-3.514-3.639-5.659-4.915l-1.394,2.616l-1.766-0.94l1.395-2.616c-2.48-1.174-5.189-1.868-7.974-2.002V13  h-2v-2.976c-2.784,0.135-5.493,0.828-7.973,2.002l1.394,2.616l-1.765,0.94l-1.395-2.617c-2.145,1.276-4.07,2.934-5.659,4.916  l10.299,10.875L11.449,30.132z"/>
</svg>
