<?xml version="1.0" encoding="utf-8"?>
<!-- Generator: Adobe Illustrator 15.0.0, SVG Export Plug-In . SVG Version: 6.00 Build 0)  -->
<svg xmlns="http://www.w3.org/2000/svg" xmlns:xlink="http://www.w3.org/1999/xlink" version="1.1" id="262144307_Layer_1_grid" x="0px" y="0px" width="38px" height="38px" viewBox="0 0 38 38" enable-background="new 0 0 38 38" xml:space="preserve">
<path fill="#231F20" d="M6,6v26c0,1.084,0.687,2,1.5,2H10V10h2v24h20V8H8V6h26v30H7.5C5.57,36,4,34.206,4,32V6c0-2.206,1.57-4,3.5-4  H34v2H7.5C6.687,4,6,4.916,6,6z M24,26v-2.185c-1.161-0.414-2-1.514-2-2.815c0-1.654,1.346-3,3-3s3,1.346,3,3  c0,1.302-0.839,2.401-2,2.815V26H24z M24,21c0,0.552,0.448,1,1,1s1-0.448,1-1s-0.448-1-1-1S24,20.448,24,21z"/>
</svg>
