<?xml version="1.0"?>
<svg xmlns="http://www.w3.org/2000/svg" id="262197682_Layer_1_grid" data-name="Layer 1" viewBox="0 0 38 38"><title>dish_glyph</title><path d="M26.87,18.94A7.84,7.84,0,1,0,19,26.78,7.84,7.84,0,0,0,26.87,18.94Zm-13.68,0A5.84,5.84,0,1,1,19,24.78,5.85,5.85,0,0,1,13.19,18.94Z" fill="#231f20"/><path d="M36.63,6.3C35.3,5,32.81,4.93,32.51,4.93h-1l0,6.82A14.38,14.38,0,0,0,19,4.56a14.19,14.19,0,0,0-6.8,1.72V8.61a12.22,12.22,0,0,1,6.8-2A12.38,12.38,0,1,1,6.66,18.94a13.77,13.77,0,0,1,.11-1.71,9.32,9.32,0,0,1,.17-.92,3.45,3.45,0,0,0,3.29-3.46V5.12h-2v7.73a1.45,1.45,0,0,1-1.38,1.46H6.52V5.13h-2v9.18H4.31a1.45,1.45,0,0,1-1.39-1.46V5.13h-2v7.72a3.44,3.44,0,0,0,3.31,3.46h.29v16h2V26h0a14.36,14.36,0,0,0,24.89.25l0,6.19h2l.07-14.09L33.5,7c.86.15,2,.48,2,1.27v15a3.38,3.38,0,0,0,2-3.11V8.3A2.77,2.77,0,0,0,36.63,6.3Z" fill="#231f20"/></svg>
