<?xml version="1.0" encoding="utf-8"?>
<!-- Generator: Adobe Illustrator 15.0.0, SVG Export Plug-In . SVG Version: 6.00 Build 0)  -->
<svg xmlns="http://www.w3.org/2000/svg" xmlns:xlink="http://www.w3.org/1999/xlink" version="1.1" id="262144309_Layer_1_grid" x="0px" y="0px" width="38px" height="38px" viewBox="0 0 38 38" enable-background="new 0 0 38 38" xml:space="preserve">
<path fill="#231F20" d="M30,14v20H8V4h15c0.461,0,1,0.262,1,1v5H12v2h19.992c0,0-6.087-8.175-6.627-8.868  C24.825,2.439,23.987,2,23,2H6v34h26V14H30z M26,7.306L28.008,10H26V7.306z M26,18H12v-2h14V18z M26,24H12v-2h14V24z M26,30H12v-2  h14V30z"/>
</svg>
