<?xml version="1.0" encoding="utf-8"?>
<!-- Generator: Adobe Illustrator 15.0.0, SVG Export Plug-In . SVG Version: 6.00 Build 0)  -->
<svg xmlns="http://www.w3.org/2000/svg" xmlns:xlink="http://www.w3.org/1999/xlink" version="1.1" id="262144310_Layer_1_grid" x="0px" y="0px" width="38px" height="38px" viewBox="0 0 38 38" enable-background="new 0 0 38 38" xml:space="preserve">
<path fill="#231F20" d="M34,36H4v-2h2V7c0-2.757,2.243-5,5-5h16c2.757,0,5,2.243,5,5v27h2V36z M8,34h22V7c0-1.654-1.346-3-3-3H11  C9.346,4,8,5.346,8,7v6h2v2H8v11h2v2H8V34z M28,24h-2v-4h-2v-2h4V24z"/>
</svg>
