<?xml version="1.0" encoding="utf-8"?>
<!-- Generator: Adobe Illustrator 15.0.0, SVG Export Plug-In . SVG Version: 6.00 Build 0)  -->
<svg xmlns="http://www.w3.org/2000/svg" xmlns:xlink="http://www.w3.org/1999/xlink" version="1.1" id="262144312_Layer_1_grid" x="0px" y="0px" width="38px" height="38px" viewBox="0 0 38 38" enable-background="new 0 0 38 38" xml:space="preserve">
<path fill="#231F20" d="M32,16h-0.07c-0.439-3.08-2.89-5.51-5.979-5.94C25.48,5.54,21.65,2,17,2c-4.96,0-9,4.04-9,9v0.37  C2.9,12.18,0,15.29,0,20c0,4.41,3.59,8,8,8h8v-2H8c-3.31,0-6-2.69-6-6c0-2.75,1.23-6.16,7.1-6.75c0.51-0.06,0.9-0.49,0.9-1V11  c0-3.86,3.14-7,7-7c3.86,0,7,3.14,7,7c0,0.55,0.45,1,1,1c2.76,0,5,2.24,5,5c0,0.55,0.45,1,1,1h1c2.21,0,4,1.79,4,4s-1.79,4-4,4H20  v-8h-2v16.17l-4.18-4.18l-1.41,1.41L19,38l6.59-6.6l-1.41-1.41L20,34.17V28h12c3.31,0,6-2.69,6-6C38,18.689,35.31,16,32,16z"/>
</svg>
