<?xml version="1.0" encoding="utf-8"?>
<!-- Generator: Adobe Illustrator 15.0.0, SVG Export Plug-In . SVG Version: 6.00 Build 0)  -->
<svg xmlns="http://www.w3.org/2000/svg" xmlns:xlink="http://www.w3.org/1999/xlink" version="1.1" id="262144313_Layer_1_grid" x="0px" y="0px" width="38px" height="38px" viewBox="0 0 38 38" enable-background="new 0 0 38 38" xml:space="preserve">
<path fill="#231F20" d="M22,2.282v20.304l-3,3l-3-3V2.28C8.05,3.69,2,10.65,2,19c0,9.032,7.096,16.427,16,16.949v-2  C10.196,33.431,4,26.932,4,19C4,12.486,8.182,6.933,14,4.869v15.717l-2.293-2.293l-1.414,1.414L19,28.414l8.707-8.707l-1.414-1.414  L24,20.586V4.87C29.82,6.931,34,12.486,34,19c0,7.932-6.197,14.431-14,14.949v2C28.904,35.427,36,28.032,36,19  C36,10.655,29.943,3.706,22,2.282z"/>
</svg>
