<?xml version="1.0" encoding="utf-8"?>
<!-- Generator: Adobe Illustrator 15.0.0, SVG Export Plug-In . SVG Version: 6.00 Build 0)  -->
<svg xmlns="http://www.w3.org/2000/svg" xmlns:xlink="http://www.w3.org/1999/xlink" version="1.1" id="262144311_Layer_1_grid" x="0px" y="0px" width="38px" height="38px" viewBox="0 0 38 38" enable-background="new 0 0 38 38" xml:space="preserve">
<path fill="#231F20" d="M11.1,30c0,0.608-0.493,1.1-1.1,1.1S8.9,30.608,8.9,30s0.493-1.1,1.1-1.1S11.1,29.392,11.1,30z M34,22v8  c0,3.309-2.691,6-6,6H10c-3.309,0-6-2.691-6-6s2.691-6,6-6h18c1.579,0,2.961,0.521,4,1.414V22c0-2.206-1.794-4-4-4H10  c-2.206,0-4,1.794-4,4v2H4v-2c0-3.309,2.691-6,6-6h7l-4.591-4.591l1.414-1.414L18,14.172V0h2v14.172l4.177-4.177l1.414,1.414L21,16  h7C31.309,16,34,18.691,34,22z M32,30c0-2.355-1.645-4-4-4H10c-2.206,0-4,1.794-4,4s1.794,4,4,4h18C30.206,34,32,32.206,32,30z"/>
</svg>
