<?xml version="1.0" encoding="utf-8"?>
<!-- Generator: Adobe Illustrator 15.0.0, SVG Export Plug-In . SVG Version: 6.00 Build 0)  -->
<svg xmlns="http://www.w3.org/2000/svg" xmlns:xlink="http://www.w3.org/1999/xlink" version="1.1" id="262144314_Layer_1_grid" x="0px" y="0px" width="38px" height="38px" viewBox="0 0 38 38" enable-background="new 0 0 38 38" xml:space="preserve">
<path fill="#231F20" d="M38,19c0-0.802-0.313-1.555-0.878-2.121c-1.133-1.133-3.11-1.134-4.243-0.001l-14.641,14.64  c-0.66,0.66-1.284,1.429-1.707,2.481H8V4h15c0.461,0,1,0.262,1,1v5H12v2h19.992c0,0-6.087-8.175-6.627-8.868  C24.825,2.439,23.987,2,23,2H6v34h10.048C16.017,36.313,16,36.646,16,37v1h1c2.652,0,4.104-0.934,5.229-2H32v-9.758l5.121-5.121  C37.688,20.555,38,19.801,38,19z M26,7.306L28.008,10H26V7.306z M30,34h-5.758L30,28.242V34z M35.706,19.707l-14.64,14.641  c-0.821,0.821-1.653,1.392-2.996,1.582c0.19-1.343,0.761-2.175,1.582-2.997l14.641-14.64c0.379-0.379,1.035-0.379,1.414,0  C35.896,18.482,36,18.732,36,19C36,19.267,35.896,19.518,35.706,19.707z M12,28h6.929l-2,2H12V28z M22.929,24H12v-2h12.929  L22.929,24z M26,18H12v-2h14V18z"/>
</svg>
