<?xml version="1.0" encoding="utf-8"?>
<!-- Generator: Adobe Illustrator 15.0.0, SVG Export Plug-In . SVG Version: 6.00 Build 0)  -->
<svg xmlns="http://www.w3.org/2000/svg" xmlns:xlink="http://www.w3.org/1999/xlink" version="1.1" id="262185826_Layer_1_grid" x="0px" y="0px" width="38px" height="38px" viewBox="0 0 38 38" enable-background="new 0 0 38 38" xml:space="preserve">
<path fill="#231F20" d="M36,19c0,9.374-7.626,17-17,17c-8.303,0-15.299-6.011-16.724-14h2.025C5.691,28.847,11.743,34,19,34  c8.284,0,15-6.716,15-15S27.284,4,19,4S4,10.716,4,19c0,0.338,0.028,0.668,0.05,1H2v-1C2,9.626,9.626,2,19,2S36,9.626,36,19z M12,14  v2h14v-2H12z M12,22v2h14v-2H12z"/>
</svg>
