<?xml version="1.0" encoding="utf-8"?>
<!-- Generator: Adobe Illustrator 15.0.0, SVG Export Plug-In . SVG Version: 6.00 Build 0)  -->
<svg xmlns="http://www.w3.org/2000/svg" xmlns:xlink="http://www.w3.org/1999/xlink" version="1.1" id="262144316_Layer_1_grid" x="0px" y="0px" width="38px" height="38px" viewBox="0 0 38 38" enable-background="new 0 0 38 38" xml:space="preserve">
<path fill="#231F20" d="M36,20V10c0-1.1-0.9-2-2-2H22.29c-1.75,0-2.24-0.36-3.75-2.02C17.26,4.57,16,4,14.19,4H4C2.9,4,2,4.9,2,6v24  c0,1.1,0.9,2,2,2h30c1.1,0,2-0.9,2-2v-8h-4v-7c0-2.2-1.79-3-3-3H9c-2.2,0-3,1.79-3,3v9h28v6H4V6c0,0,9.16,0,10.19,0  c1.1,0,1.87,0.23,2.87,1.33C18.71,9.14,19.69,10,22.29,10C24.28,10,34,10,34,10v10H36z M30,22H8v-6.99C8.01,14.55,8.19,14,9,14  h19.99c0.46,0.01,1.01,0.19,1.01,1V22z"/>
</svg>
