<?xml version="1.0" encoding="utf-8"?>
<!-- Generator: Adobe Illustrator 15.0.0, SVG Export Plug-In . SVG Version: 6.00 Build 0)  -->
<svg xmlns="http://www.w3.org/2000/svg" xmlns:xlink="http://www.w3.org/1999/xlink" version="1.1" id="262185828_Capa_1_grid" x="0px" y="0px" width="38px" height="38px" viewBox="0 0 38 38" enable-background="new 0 0 38 38" xml:space="preserve">
<path fill="#231F20" d="M13.417,35.089l-1.848-0.766l1.836-4.434l1.848,0.766L13.417,35.089z M24.581,35.089l-1.836-4.434  l1.848-0.766l1.836,4.434L24.581,35.089z M3.676,26.43L2.91,24.582l4.434-1.837l0.766,1.848L3.676,26.43z M34.322,26.429  l-4.433-1.835l0.766-1.848l4.433,1.835L34.322,26.429z M30.655,15.255l-0.766-1.848l4.433-1.837l0.766,1.848L30.655,15.255z   M7.344,15.254L2.91,13.418l0.766-1.848l4.434,1.836L7.344,15.254z M13.407,8.11L11.57,3.677l1.848-0.766l1.836,4.434L13.407,8.11z   M24.593,8.11l-1.848-0.766l1.836-4.434l1.848,0.766L24.593,8.11z M19.978,10h-1.955l-5.958,16h2.134l1.49-4h6.625l1.49,4h2.135  L19.978,10z M16.433,20L19,13.106L21.567,20H16.433z"/>
</svg>
