<?xml version="1.0" encoding="utf-8"?>
<!-- Generator: Adobe Illustrator 15.0.0, SVG Export Plug-In . SVG Version: 6.00 Build 0)  -->
<svg xmlns="http://www.w3.org/2000/svg" xmlns:xlink="http://www.w3.org/1999/xlink" version="1.1" id="262185829_Capa_1_grid" x="0px" y="0px" width="38px" height="38px" viewBox="0 0 38 38" enable-background="new 0 0 38 38" xml:space="preserve">
<path fill="#231F20" d="M15.339,20h-2.165l4.839-11.687l1.848,0.765L15.339,20z M18.139,28.922l1.847,0.766L24.825,18h-2.164  L18.139,28.922z M35,19c0-8.822-7.178-16-16-16S3,10.178,3,19s7.178,16,16,16S35,27.822,35,19z M25.266,6.482  C29.848,8.785,33,13.531,33,19c0,7.72-6.28,14-14,14c-1.543,0-3.029-0.251-4.418-0.714L25.266,6.482z M23.418,5.714L12.735,31.519  C8.152,29.216,5,24.469,5,19c0-7.72,6.28-14,14-14C20.543,5,22.029,5.251,23.418,5.714z"/>
</svg>
