<?xml version="1.0" encoding="utf-8"?>
<!-- Generator: Adobe Illustrator 15.0.0, SVG Export Plug-In . SVG Version: 6.00 Build 0)  -->
<svg xmlns="http://www.w3.org/2000/svg" xmlns:xlink="http://www.w3.org/1999/xlink" version="1.1" id="262185830_Capa_1_grid" x="0px" y="0px" width="38px" height="38px" viewBox="0 0 38 38" enable-background="new 0 0 38 38" xml:space="preserve">
<path fill="#231F20" d="M13.417,35.089l-1.848-0.766l1.836-4.434l1.848,0.766L13.417,35.089z M24.581,35.089l-1.836-4.434  l1.848-0.766l1.836,4.434L24.581,35.089z M3.676,26.43L2.91,24.582l4.434-1.837l0.766,1.848L3.676,26.43z M34.322,26.429  l-4.433-1.835l0.766-1.848l4.433,1.835L34.322,26.429z M30.655,15.255l-0.766-1.848l4.433-1.837l0.766,1.848L30.655,15.255z   M7.344,15.254L2.91,13.418l0.766-1.848l4.434,1.836L7.344,15.254z M13.407,8.11L11.57,3.677l1.848-0.766l1.836,4.434L13.407,8.11z   M24.593,8.11l-1.848-0.766l1.836-4.434l1.848,0.766L24.593,8.11z M29.648,18.472C28.145,16.055,24.763,12,19,12  c-6.417,0-9.786,4.975-10.666,6.5L8.046,19l0.288,0.5c0.19,0.329,0.503,0.823,0.931,1.39l0.802-1.39  c0.08-0.138,0.182-0.308,0.308-0.5c0.654-1.001,1.949-2.651,3.953-3.78C14.116,15.773,14,16.374,14,17c0,2.757,2.243,5,5,5  s5-2.243,5-5c0-0.614-0.111-1.203-0.314-1.747c1.804,1.039,3.093,2.537,3.92,3.747c-1.419,2.076-4.2,5-8.605,5  c-3.433,0-5.829-1.735-7.305-3.32l-1.037,1.797C12.436,24.229,15.172,26,19,26c5.763,0,9.145-4.055,10.648-6.472L29.977,19  L29.648,18.472z M19,20c-1.654,0-3-1.346-3-3s1.346-3,3-3s3,1.346,3,3S20.654,20,19,20z"/>
</svg>
