<?xml version="1.0" encoding="utf-8"?>
<!-- Generator: Adobe Illustrator 15.0.0, SVG Export Plug-In . SVG Version: 6.00 Build 0)  -->
<svg xmlns="http://www.w3.org/2000/svg" xmlns:xlink="http://www.w3.org/1999/xlink" version="1.1" id="262144318_Layer_1_grid" x="0px" y="0px" width="38px" height="38px" viewBox="0 0 38 38" enable-background="new 0 0 38 38" xml:space="preserve">
<path fill="#231F20" d="M37.597,14.795C37.219,14.294,36.628,14,36,14H10c-0.893,0-1.678,0.592-1.923,1.451l-4,14  C4.025,29.632,4.008,29.816,4.008,30H4L2,6c0,0,8.083,0,9,0c0.969,0,1.368,0.229,2.25,1.328C14.707,9.142,15.851,10,18.151,10  c1.75,0,10.333,0,10.333,0l0.151,2h2.006l-0.163-2.151C30.399,8.806,29.53,8,28.484,8H18.151c-1.46,0-2.085-0.36-3.342-1.925  C13.729,4.729,12.801,4,11,4H2C1.441,4,0.907,4.234,0.528,4.646C0.149,5.057-0.04,5.609,0.007,6.166l2,24C2.093,31.203,2.96,32,4,32  h2h26c0.893,0,1.678-0.592,1.923-1.45l4-14C38.096,15.946,37.975,15.297,37.597,14.795z M32,30H6l4-14h26L32,30z"/>
</svg>
