<?xml version="1.0" encoding="utf-8"?>
<!-- Generator: Adobe Illustrator 15.0.0, SVG Export Plug-In . SVG Version: 6.00 Build 0)  -->
<svg xmlns="http://www.w3.org/2000/svg" xmlns:xlink="http://www.w3.org/1999/xlink" version="1.1" id="262144317_Layer_1_grid" x="0px" y="0px" width="38px" height="38px" viewBox="0 0 38 38" enable-background="new 0 0 38 38" xml:space="preserve">
<path fill="#231F20" d="M4,14V6c0,0,9.156,0,10.195,0c1.097,0,1.869,0.229,2.868,1.328C18.713,9.142,19.689,10,22.295,10  C24.277,10,34,10,34,10v2h2v-2c0-1.104-0.896-2-2-2H22.295c-1.752,0-2.242-0.356-3.753-2.018C17.262,4.574,16.002,4,14.195,4H4  C2.896,4,2,4.896,2,6v24c0,1.104,0.896,2,2,2h30c1.104,0,2-0.896,2-2V14H4z M34,30H4V16h30V30z"/>
</svg>
