<?xml version="1.0" encoding="utf-8"?>
<!-- Generator: Adobe Illustrator 15.0.0, SVG Export Plug-In . SVG Version: 6.00 Build 0)  -->
<svg xmlns="http://www.w3.org/2000/svg" xmlns:xlink="http://www.w3.org/1999/xlink" version="1.1" id="262144322_Layer_1_grid" x="0px" y="0px" width="38px" height="38px" viewBox="0 0 38 38" enable-background="new 0 0 38 38" xml:space="preserve">
<path fill="#231F20" d="M24.121,8.568c-1.294-1.375-2.76-2.934-4.377-4.736L19,3.003l-0.744,0.829  c-1.618,1.803-3.084,3.362-4.377,4.737C8.798,13.971,6,16.947,6,22.063C6,26.662,9.154,30,13.5,30c0.935,0,1.763-0.149,2.5-0.394  v-2.153C15.214,27.826,14.402,28,13.5,28C10.262,28,8,25.559,8,22.063c0-4.323,2.451-6.93,7.335-12.123  c1.1-1.17,2.325-2.472,3.665-3.947c1.339,1.474,2.563,2.776,3.664,3.946C27.548,15.132,30,17.739,30,22.063  C30,25.559,27.738,28,24.5,28c-1.783,0-3.217-0.673-4.793-2.249L18,24.044V32h-4v2h10v-2h-4v-3.391C21.148,29.392,22.604,30,24.5,30  c4.346,0,7.5-3.338,7.5-7.938C32,16.946,29.201,13.97,24.121,8.568z"/>
</svg>
