<?xml version="1.0" encoding="utf-8"?>
<!-- Generator: Adobe Illustrator 15.0.0, SVG Export Plug-In . SVG Version: 6.00 Build 0)  -->
<svg xmlns="http://www.w3.org/2000/svg" xmlns:xlink="http://www.w3.org/1999/xlink" version="1.1" id="262144319_Layer_1_grid" x="0px" y="0px" width="38px" height="38px" viewBox="0 0 38 38" enable-background="new 0 0 38 38" xml:space="preserve">
<path fill="#231F20" d="M31.846,21.81c-0.383-1.767-1.43-3.276-2.946-4.252c-1.234-0.793-2.689-1.286-4.341-1.473l0.364-0.685  C25.638,14.058,26,12.577,26,11c0-3.86-3.141-7-7-7c-3.86,0-7,3.14-7,7c0,1.577,0.363,3.057,1.078,4.401l0.364,0.684  c-1.652,0.187-3.107,0.68-4.341,1.473c-1.517,0.976-2.563,2.485-2.947,4.252S6.098,25.384,7.073,26.9  c1.25,1.941,3.378,3.1,5.693,3.1c1.138,0,2.241-0.302,3.233-0.846V26.77c-0.214,0.17-0.437,0.328-0.666,0.476  C14.54,27.756,13.648,28,12.767,28c-1.567,0-3.103-0.771-4.011-2.182c-1.42-2.207-0.78-5.159,1.427-6.578  C11.53,18.374,13.188,18,14.999,18c0.488,0,1.081,0,1.728,0c-0.772-1.452-1.464-2.751-1.883-3.539C14.251,13.349,14,12.185,14,11  c0-2.757,2.243-5,5-5s5,2.243,5,5c0,1.185-0.251,2.349-0.843,3.461c-0.42,0.788-1.11,2.087-1.883,3.539c0.646,0,1.239,0,1.728,0  c1.811,0,3.468,0.374,4.815,1.24c2.207,1.419,2.848,4.371,1.428,6.578C28.337,27.229,26.8,28,25.233,28  c-0.882,0-1.772-0.243-2.567-0.755c-0.926-0.596-1.743-1.357-2.291-2.388c-0.364-0.684-0.844-1.587-1.375-2.584  c-0.365,0.687-0.704,1.322-1,1.879V32h-4v2h10v-2h-4v-4.344c0.459,0.459,0.981,0.883,1.584,1.271C22.675,29.629,23.938,30,25.233,30  c2.315,0,4.443-1.158,5.693-3.099C31.903,25.384,32.229,23.576,31.846,21.81z"/>
</svg>
