<?xml version="1.0" encoding="utf-8"?>
<!-- Generator: Adobe Illustrator 15.0.0, SVG Export Plug-In . SVG Version: 6.00 Build 0)  -->
<svg xmlns="http://www.w3.org/2000/svg" xmlns:xlink="http://www.w3.org/1999/xlink" version="1.1" id="262144323_Layer_1_grid" x="0px" y="0px" width="38px" height="38px" viewBox="0 0 38 38" enable-background="new 0 0 38 38" xml:space="preserve">
<path fill="#231F20" d="M38,23c0,8.9-6.93,9-7,9c-3.27,0-4.8-1.39-6.14-2.62C23.52,28.16,22.25,27,19,27s-4.52,1.16-5.86,2.38  C11.8,30.61,10.27,32,7,32c-0.07,0-7-0.1-7-9c0-0.12,0.14-9.77,10-13.53v2.15C2.11,15,2,22.59,2,23c0,6.92,4.8,7,5,7  c2.5,0,3.51-0.92,4.79-2.09C13.29,26.54,14.98,25,19,25c4.02,0,5.71,1.54,7.21,2.91C27.49,29.08,28.5,30,31,30c0.51-0.01,5-0.26,5-7  c0-0.53-0.26-13-17-13c-2.76,0-5.07,0.34-7,0.9V8.83C13.98,8.31,16.3,8,19,8C37.78,8,38,22.85,38,23z M12,18v-2h-2v2H8v2h2v2h2v-2h2  v-2H12z M28,17c0,1.65-1.35,3-3,3s-3-1.35-3-3c0-1.65,1.35-3,3-3S28,15.35,28,17z M26,17c0-0.55-0.45-1-1-1s-1,0.45-1,1s0.45,1,1,1  S26,17.55,26,17z M34,21c0,1.65-1.35,3-3,3s-3-1.35-3-3s1.35-3,3-3S34,19.35,34,21z M32,21c0-0.55-0.45-1-1-1s-1,0.45-1,1  s0.45,1,1,1S32,21.55,32,21z"/>
</svg>
