<?xml version="1.0" encoding="utf-8"?>
<!-- Generator: Adobe Illustrator 15.0.0, SVG Export Plug-In . SVG Version: 6.00 Build 0)  -->
<svg xmlns="http://www.w3.org/2000/svg" xmlns:xlink="http://www.w3.org/1999/xlink" version="1.1" id="262144321_Layer_1_grid" x="0px" y="0px" width="38px" height="38px" viewBox="0 0 38 38" enable-background="new 0 0 38 38" xml:space="preserve">
<path fill="#231F20" d="M25.418,6c-3.466,0-5.727,1.86-7.125,3.259L17.562,9.99c0.242,0.21,0.485,0.436,0.731,0.682L19,11.381  l0.708-0.708C21.578,8.799,23.286,8,25.418,8C29.293,8,32,10.917,32,15.094c0,6.015-4.788,10.121-12.035,16.339L19,32.262  l-0.963-0.828C10.789,25.216,6,21.108,6,15.094C6,10.917,8.708,8,12.584,8c1.205,0,2.272,0.267,3.313,0.827l0.982-0.982  c0.154-0.154,0.326-0.315,0.498-0.476C15.884,6.437,14.337,6,12.584,6C7.61,6,4,9.825,4,15.094c0,6.935,5.342,11.517,12.735,17.858  L19,34.9l2.268-1.95C28.659,26.609,34,22.027,34,15.094C34,9.825,30.391,6,25.418,6z"/>
</svg>
