<?xml version="1.0" encoding="utf-8"?>
<!-- Generator: Adobe Illustrator 15.0.0, SVG Export Plug-In . SVG Version: 6.00 Build 0)  -->
<svg xmlns="http://www.w3.org/2000/svg" xmlns:xlink="http://www.w3.org/1999/xlink" version="1.1" id="262144324_Layer_1_grid" x="0px" y="0px" width="38px" height="38px" viewBox="0 0 38 38" enable-background="new 0 0 38 38" xml:space="preserve">
<path fill="#231F20" d="M19,24c-2.757,0-5-2.243-5-5s2.243-5,5-5s5,2.243,5,5S21.757,24,19,24z M19,16c-1.654,0-3,1.346-3,3  s1.346,3,3,3s3-1.346,3-3S20.654,16,19,16z M32,19c0-1.408-0.232-2.763-0.648-4.034l3.737-1.548l-0.766-1.848l-3.743,1.551  c-1.25-2.452-3.251-4.452-5.702-5.701l1.551-3.744l-1.848-0.765l-1.548,3.737C21.762,6.232,20.409,6,19,6  c-1.409,0-2.756,0.248-4.026,0.668l-1.556-3.756L11.57,3.677l2.316,5.592C15.416,8.462,17.154,8,19,8c6.065,0,11,4.935,11,11  s-4.935,11-11,11S8,25.065,8,19c0-3.031,1.232-5.779,3.222-7.771L9.808,9.816c-0.962,0.963-1.764,2.082-2.388,3.306l-3.744-1.551  l-0.765,1.847l3.738,1.548C6.232,16.238,6,17.592,6,19c0,1.409,0.232,2.763,0.648,4.034l-3.737,1.548l0.766,1.848l3.744-1.551  c1.25,2.451,3.25,4.451,5.701,5.7l-1.551,3.744l1.848,0.766l1.548-3.737C16.237,31.768,17.591,32,19,32s2.762-0.232,4.033-0.648  l1.549,3.737l1.848-0.766l-1.552-3.743c2.451-1.25,4.451-3.25,5.701-5.701l3.744,1.551l0.765-1.848l-3.736-1.548  C31.768,21.763,32,20.409,32,19z"/>
</svg>
