<?xml version="1.0" encoding="utf-8"?>
<!-- Generator: Adobe Illustrator 15.0.0, SVG Export Plug-In . SVG Version: 6.00 Build 0)  -->
<svg xmlns="http://www.w3.org/2000/svg" xmlns:xlink="http://www.w3.org/1999/xlink" version="1.1" id="262144325_Layer_1_grid" x="0px" y="0px" width="38px" height="38px" viewBox="0 0 38 38" enable-background="new 0 0 38 38" xml:space="preserve">
<path fill="#231F20" d="M24.153,36H1.847l0.163-1.142c0.758-5.308,2.359-6.693,7.11-8.416c0.556-0.201,0.762-0.778,0.837-1.139  C7.618,24.17,6,21.771,6,19v-5h2v5c0,2.757,2.243,5,5,5s5-2.243,5-5v-4c0-2.757-2.243-5-5-5c-1.484,0-2.393,0.463-3.354,0.953  C8.681,11.443,7.589,12,6,12v-2c1.109,0,1.828-0.366,2.738-0.83C9.814,8.622,11.036,8,13,8c1.957,0,3.729,0.807,5,2.105V9  c0-3.86,3.141-7,7-7c1.965,0,3.186,0.622,4.263,1.17C30.173,3.634,30.892,4,32,4v2c-1.589,0-2.682-0.557-3.646-1.047  C27.393,4.463,26.484,4,25,4c-2.757,0-5,2.243-5,5v4c0,2.757,2.243,5,5,5s5-2.243,5-5V8h2v5c0,2.767-1.614,5.164-3.95,6.3  c0.082,0.313,0.297,0.791,0.855,1.011c4.738,1.868,6.334,3.291,7.085,8.548L36.153,30H24v-2h9.822  c-0.669-3.509-1.871-4.339-5.65-5.828c-1.204-0.476-1.787-1.449-2.028-2.266c-0.737,0.123-1.53,0.124-2.27,0.003  c-0.231,0.89-0.82,1.96-2.072,2.414c-0.52,0.188-0.997,0.342-1.437,0.483c-1.001,0.323-1.731,0.559-2.256,0.974  c-0.584,0.625-1.282,1.142-2.059,1.52c0.082,0.313,0.296,0.791,0.855,1.011c4.738,1.868,6.333,3.291,7.085,8.548L24.153,36z   M4.179,34h17.643c-0.669-3.509-1.871-4.339-5.65-5.828c-1.205-0.475-1.788-1.449-2.028-2.266c-0.738,0.123-1.53,0.124-2.27,0.003  c-0.231,0.89-0.82,1.96-2.072,2.414C6.104,29.663,4.856,30.498,4.179,34z M20,17.895V19c0,0.661-0.092,1.302-0.265,1.908  c0.006-0.001,0.011-0.003,0.017-0.005c0.419-0.135,0.874-0.281,1.368-0.461c0.557-0.201,0.763-0.778,0.838-1.139  C21.226,18.949,20.563,18.47,20,17.895z"/>
</svg>
