<?xml version="1.0" encoding="utf-8"?>
<!-- Generator: Adobe Illustrator 15.0.0, SVG Export Plug-In . SVG Version: 6.00 Build 0)  -->
<svg xmlns="http://www.w3.org/2000/svg" xmlns:xlink="http://www.w3.org/1999/xlink" version="1.1" id="262144326_Layer_1_grid" x="0px" y="0px" width="38px" height="38px" viewBox="0 0 38 38" enable-background="new 0 0 38 38" xml:space="preserve">
<path fill="#231F20" d="M24,38h-8c-1.103,0-2-0.897-2-2c0-0.509,0.379-4.718,1.004-11.591c0.465-5.111,0.992-10.905,0.996-11.41  C16,10,14.852,10,14.166,10c-0.874,0-3.25,1.169-4.658,1.999L8,11.138V0.862l1.508-0.861C10.917,0.831,13.294,2,14.166,2  c0.717,0,0.937-0.124,1.845-1.539l0.295-0.46L21,0c5.079,0,9.355,2.756,12.366,7.97l3,5.196l0,0l-1.732,1L34.63,14.16  C34.06,13.175,31.692,10,25,10h-1V8h1c2.573,0,4.905,0.464,6.835,1.318L31.634,8.97C29.001,4.41,25.324,2,21,2l-3.606,0.001  C16.549,3.255,15.795,4,14.166,4C13.055,4,11.289,3.213,10,2.552v6.896C11.289,8.787,13.055,8,14.166,8c1.598,0,3.476,0.724,3.789,4  H24v1c0.005,0.504,0.531,6.298,0.996,11.409C25.621,31.282,26,35.491,26,36C26,37.103,25.103,38,24,38z M17.936,14  c-0.133,1.695-0.466,5.376-0.939,10.591c-0.465,5.111-0.992,10.904-0.996,11.41L24,36c-0.005-0.505-0.531-6.298-0.996-11.409  C22.53,19.376,22.197,15.695,22.064,14H17.936z"/>
</svg>
