<?xml version="1.0" encoding="utf-8"?>
<!-- Generator: Adobe Illustrator 15.0.0, SVG Export Plug-In . SVG Version: 6.00 Build 0)  -->
<svg xmlns="http://www.w3.org/2000/svg" xmlns:xlink="http://www.w3.org/1999/xlink" version="1.1" id="262185831_Layer_1_grid" x="0px" y="0px" width="38px" height="38px" viewBox="0 0 38 38" enable-background="new 0 0 38 38" xml:space="preserve">
<path fill="#231F20" d="M35.791,10.102c-0.197,0.497-3.292,8.486-3.791,9.772V25c0,3.351-0.694,5.211-1.253,6.706  C30.33,32.824,30,33.707,30,35v3H18v-3c0-1.278-0.959-1.899-3.323-3.303c-0.674-0.4-1.419-0.843-2.221-1.363  c-1.697-1.101-2.693-2.24-3.571-3.245c-1.373-1.57-2.558-2.927-6.204-4.152L2,22.707V21c0-1.654,1.346-3,3-3  c2.791,0,4.709,0.872,6.417,2.031l0.255,2.667C9.708,21.156,7.972,20,5,20c-0.551,0-1,0.448-1,1v0.281  c3.645,1.35,5.04,2.945,6.391,4.491c0.87,0.995,1.691,1.935,3.154,2.884c0.777,0.504,1.5,0.933,2.153,1.321  C18.102,31.404,20,32.532,20,35v1h8v-1c0-1.653,0.425-2.79,0.874-3.994C29.401,29.592,30,27.989,30,25v-5.499l0.067-0.175  c0,0,3.649-9.419,3.863-9.96c0.098-0.247,0.093-0.519-0.014-0.764c-0.106-0.245-0.302-0.434-0.55-0.532  c-0.251-0.097-0.52-0.092-0.766,0.013c-0.245,0.106-0.434,0.302-0.531,0.55c-0.361,0.915-2.592,6.246-3.155,7.59  c-0.223,0.53-0.786,0.826-1.329,0.634c-0.469-0.166-0.736-0.633-0.688-1.108l1.086-10.648c0.057-0.548-0.345-1.041-0.894-1.097  c-0.56-0.055-1.039,0.345-1.096,0.894c-0.06,0.575-0.59,5.271-1.091,9.686c-0.09,0.796-0.649,1.451-1.451,1.451  c-0.803,0-1.453-0.651-1.453-1.453V3c0-0.551-0.448-1-1-1c-0.551,0-1,0.449-1,1v11.582c0,0.802-0.651,1.453-1.453,1.453  s-1.358-0.657-1.453-1.453c-0.005-0.04-0.015-0.063-0.024-0.087c-0.497-4.66-1.017-9.026-1.074-9.594  c-0.026-0.266-0.155-0.506-0.362-0.675c-0.207-0.169-0.47-0.251-0.732-0.221c-0.266,0.026-0.506,0.155-0.675,0.362  c-0.169,0.207-0.248,0.467-0.221,0.732c0.11,1.1,1.99,20.806,1.99,20.806l-1.991,0.189c0,0-1.927-20.172-1.989-20.795  c-0.08-0.798,0.155-1.579,0.663-2.199c0.507-0.621,1.226-1.006,2.023-1.086c0.801-0.079,1.578,0.156,2.198,0.663  c0.621,0.507,1.006,1.226,1.086,2.023c0.003,0.033,0.008,0.08,0.015,0.141V3c0-1.654,1.346-3,3-3s3,1.346,3,3v1.745  c0.002-0.02,0.004-0.036,0.005-0.05c0.169-1.646,1.646-2.849,3.289-2.68c1.646,0.168,2.849,1.644,2.681,3.289l-0.431,4.216  c0.318-0.769,0.567-1.373,0.665-1.622c0.294-0.745,0.861-1.332,1.596-1.651c0.736-0.32,1.552-0.334,2.296-0.039  c0.745,0.293,1.331,0.86,1.65,1.595C36.07,8.541,36.085,9.356,35.791,10.102z"/>
</svg>
