<?xml version="1.0" encoding="utf-8"?>
<!-- Generator: Adobe Illustrator 15.0.0, SVG Export Plug-In . SVG Version: 6.00 Build 0)  -->
<svg xmlns="http://www.w3.org/2000/svg" xmlns:xlink="http://www.w3.org/1999/xlink" version="1.1" id="262144327_Layer_1_grid" x="0px" y="0px" width="38px" height="38px" viewBox="0 0 38 38" enable-background="new 0 0 38 38" xml:space="preserve">
<path fill="#231F20" d="M32,17v8c0,3.351-0.694,5.211-1.253,6.706C30.33,32.824,30,33.707,30,35v3H18v-3  c0-1.279-0.959-1.899-3.324-3.304c-0.674-0.399-1.418-0.842-2.22-1.362C9.583,28.471,8,27.443,8,23v-3c0-2.355,1.645-4,4-4v2  c-1.233,0-2,0.767-2,2v3c0,3.357,0.822,3.891,3.544,5.656c0.777,0.504,1.5,0.933,2.153,1.32C18.101,31.404,20,32.531,20,35v1h8v-1  c0-1.653,0.425-2.79,0.874-3.994C29.401,29.592,30,27.989,30,25v-8c0-2.117-0.169-2.814-2-3.428v4.434l-2-0.489V13.03l-2-0.5v4.497  l-2-0.488v-4.508l-2-0.5v4.519l-2-0.489V3c0-0.551-0.449-1-1-1s-1,0.449-1,1v21h-2V3c0-1.654,1.346-3,3-3s3,1.346,3,3v6.47  l7.242,1.81C30.978,12.213,32,13.443,32,17z"/>
</svg>
