<?xml version="1.0" encoding="utf-8"?>
<!-- Generator: Adobe Illustrator 15.0.0, SVG Export Plug-In . SVG Version: 6.00 Build 0)  -->
<svg xmlns="http://www.w3.org/2000/svg" xmlns:xlink="http://www.w3.org/1999/xlink" version="1.1" id="262185832_Layer_1_grid" x="0px" y="0px" width="38px" height="38px" viewBox="0 0 38 38" enable-background="new 0 0 38 38" xml:space="preserve">
<path fill="#231F20" d="M32,7v18c0,3.351-0.694,5.211-1.253,6.706C30.33,32.824,30,33.707,30,35v3H18v-3  c0-1.278-0.959-1.899-3.323-3.303c-0.674-0.4-1.419-0.843-2.221-1.363c-1.697-1.101-2.693-2.24-3.571-3.245  c-1.373-1.57-2.558-2.927-6.204-4.152L2,22.707V21c0-1.654,1.346-3,3-3c3.111,0,5.142,1.078,7,2.438v2.52  C9.896,21.288,8.136,20,5,20c-0.551,0-1,0.448-1,1v0.281c3.645,1.35,5.04,2.945,6.391,4.491c0.87,0.995,1.691,1.935,3.154,2.884  c0.777,0.504,1.5,0.933,2.153,1.321C18.102,31.404,20,32.532,20,35v1h8v-1c0-1.653,0.425-2.79,0.874-3.994  C29.401,29.592,30,27.989,30,25V7c0-0.551-0.448-1-1-1s-1,0.449-1,1v9h-2V5c0-0.551-0.448-1-1-1s-1,0.449-1,1v11h-2V3  c0-0.551-0.448-1-1-1c-0.551,0-1,0.449-1,1v13h-2V5c0-0.551-0.449-1-1-1s-1,0.449-1,1v21h-2V5c0-1.654,1.346-3,3-3  c0.39,0,0.763,0.075,1.105,0.211C18.453,0.938,19.619,0,21,0c1.381,0,2.548,0.938,2.895,2.211C24.237,2.075,24.61,2,25,2  c1.381,0,2.548,0.938,2.895,2.211C28.237,4.075,28.61,4,29,4C30.654,4,32,5.346,32,7z"/>
</svg>
