<?xml version="1.0" encoding="utf-8"?>
<!-- Generator: Adobe Illustrator 15.0.0, SVG Export Plug-In . SVG Version: 6.00 Build 0)  -->
<svg xmlns="http://www.w3.org/2000/svg" xmlns:xlink="http://www.w3.org/1999/xlink" version="1.1" id="262144329_Layer_1_grid" x="0px" y="0px" width="38px" height="38px" viewBox="0 0 38 38" enable-background="new 0 0 38 38" xml:space="preserve">
<path fill="#231F20" d="M10.66,28.97L9.5,30.59c-1.37-1.12-2.54-2.47-3.44-4.01l1.8-0.89C8.6,26.93,9.56,28.04,10.66,28.97z   M6.05,20H4.04c0.11,1.7,0.5,3.31,1.13,4.8l1.79-0.89C6.46,22.68,6.14,21.37,6.05,20z M4.86,14c-0.45,1.26-0.73,2.6-0.82,4h2.01  c0.1-1.4,0.43-2.75,0.95-4H4.86z M19,4c-4.34,0-8.26,1.86-11,4.82V4H6v8h8v-2H9.63c2.36-2.46,5.69-4,9.37-4c7.17,0,13,5.83,13,13  s-5.83,13-13,13c-2.45,0-4.76-0.69-6.72-1.88l-1.17,1.64C13.4,33.18,16.1,34,19,34c8.27,0,15-6.73,15-15C34,10.73,27.27,4,19,4z   M20,18v-8h-2v10h8v-2H20z"/>
</svg>
