<?xml version="1.0" encoding="utf-8"?>
<!-- Generator: Adobe Illustrator 15.0.0, SVG Export Plug-In . SVG Version: 6.00 Build 0)  -->
<svg xmlns="http://www.w3.org/2000/svg" xmlns:xlink="http://www.w3.org/1999/xlink" version="1.1" id="262144331_Layer_1_grid" x="0px" y="0px" width="38px" height="38px" viewBox="0 0 38 38" enable-background="new 0 0 38 38" xml:space="preserve">
<path fill="#231F20" d="M30,4V0H8v2h20v2H8c0,7.527,4.258,10.914,9.189,14.834L17.397,19l-0.206,0.165C12.259,23.086,8,26.472,8,34  v4h22v-4c0-7.528-4.259-10.914-9.191-14.835L20.603,19l0.208-0.166C25.741,14.914,30,11.527,30,4z M28,34v2H10v-2  c0-6.563,3.538-9.376,8.436-13.27L19,20.279l0.564,0.451C24.462,24.624,28,27.437,28,34z M19.566,17.269L19,17.721l-0.566-0.452  C14.068,13.797,10.79,11.177,10.129,6H27.87C27.21,11.177,23.932,13.797,19.566,17.269z"/>
</svg>
