<?xml version="1.0" encoding="utf-8"?>
<!-- Generator: Adobe Illustrator 15.0.0, SVG Export Plug-In . SVG Version: 6.00 Build 0)  -->
<svg xmlns="http://www.w3.org/2000/svg" xmlns:xlink="http://www.w3.org/1999/xlink" version="1.1" id="262144332_Layer_1_grid" x="0px" y="0px" width="38px" height="38px" viewBox="0 0 38 38" enable-background="new 0 0 38 38" xml:space="preserve">
<path fill="#231F20" d="M19,2c9.374,0,17,7.626,17,17c0,8.304-6.011,15.3-14,16.725v-2.025C28.847,32.309,34,26.257,34,19  c0-8.284-6.716-15-15-15S4,10.716,4,19s6.716,15,15,15c0.338,0,0.668-0.028,1-0.05V36h-1C9.626,36,2,28.374,2,19S9.626,2,19,2z   M18,28h2V16h-4v2h2V28z M18,12h2v-2h-2V12z"/>
</svg>
