<?xml version="1.0" encoding="utf-8"?>
<!-- Generator: Adobe Illustrator 15.0.0, SVG Export Plug-In . SVG Version: 6.00 Build 0)  -->
<svg xmlns="http://www.w3.org/2000/svg" xmlns:xlink="http://www.w3.org/1999/xlink" version="1.1" id="262144334_Layer_1_grid" x="0px" y="0px" width="38px" height="38px" viewBox="0 0 38 38" enable-background="new 0 0 38 38" xml:space="preserve">
<path fill="#231F20" d="M30,6v28H8V4h24V2H6v34h26V6H30z M26,12H16v-2h10V12z M26,18H16v-2h10V18z M26,24H16v-2h10V24z M26,30H16v-2  h10V30z M14,12h-2v-2h2V12z M14,18h-2v-2h2V18z M14,24h-2v-2h2V24z M14,30h-2v-2h2V30z"/>
</svg>
