<?xml version="1.0" encoding="utf-8"?>
<!-- Generator: Adobe Illustrator 15.0.0, SVG Export Plug-In . SVG Version: 6.00 Build 0)  -->
<svg xmlns="http://www.w3.org/2000/svg" xmlns:xlink="http://www.w3.org/1999/xlink" version="1.1" id="262144336_Layer_1_grid" x="0px" y="0px" width="38px" height="38px" viewBox="0 0 38 38" enable-background="new 0 0 38 38" xml:space="preserve">
<path fill="#231F20" d="M34,16v22H4V16h6V9c0-4.962,4.038-9,9-9c4.963,0,9,4.038,9,9v1h-2V9c0-3.86-3.141-7-7-7c-3.86,0-7,3.14-7,7  v9H6v18h26V18H14v-2H34z M20,22.101v2.083c1.162,0.413,2,1.512,2,2.816c0,1.657-1.343,3-3,3s-3-1.343-3-3  c0-1.305,0.837-2.403,2-2.816v-2.083c-2.282,0.464-4,2.48-4,4.899c0,2.762,2.239,5,5,5c2.762,0,5-2.238,5-5  C24,24.581,22.282,22.564,20,22.101z"/>
</svg>
