<?xml version="1.0" encoding="utf-8"?>
<!-- Generator: Adobe Illustrator 15.0.0, SVG Export Plug-In . SVG Version: 6.00 Build 0)  -->
<svg xmlns="http://www.w3.org/2000/svg" xmlns:xlink="http://www.w3.org/1999/xlink" version="1.1" id="262144335_Layer_1_grid" x="0px" y="0px" width="38px" height="38px" viewBox="0 0 38 38" enable-background="new 0 0 38 38" xml:space="preserve">
<path fill="#231F20" d="M34,36H4V14h6v-3c0-4.962,4.038-9,9-9c4.963,0,9,4.038,9,9v3h6V36z M6,34h26V16H14v-2h12v-3  c0-3.86-3.141-7-7-7c-3.86,0-7,3.14-7,7v5H6V34z M21.829,29.242L19,26.414l-2.829,2.828l-1.414-1.414L17.586,25l-2.828-2.828  l1.414-1.414L19,23.586l2.829-2.828l1.414,1.414L20.415,25l2.828,2.828L21.829,29.242z"/>
</svg>
