<?xml version="1.0" encoding="utf-8"?>
<!-- Generator: Adobe Illustrator 15.0.0, SVG Export Plug-In . SVG Version: 6.00 Build 0)  -->
<svg xmlns="http://www.w3.org/2000/svg" xmlns:xlink="http://www.w3.org/1999/xlink" version="1.1" id="262144338_Layer_1_grid" x="0px" y="0px" width="38px" height="38px" viewBox="0 0 38 38" enable-background="new 0 0 38 38" xml:space="preserve">
<path fill="#231F20" d="M34.941,8.235l-15-8C19.647,0.079,19.324,0,19,0s-0.647,0.079-0.941,0.235l-15,8C2.407,8.583,2,9.261,2,10  v2.962L10.798,20L6,23.839V26.4l6.75-5.4h12.501L32,26.399v-2.562L27.203,20L34,14.562V30H4V17.123l-2-1.6V30c0,1.104,0.896,2,2,2  h30c1.104,0,2-0.896,2-2V10C36,9.261,35.593,8.583,34.941,8.235z M34,12l-8.749,7H12.75L4,12v-2l15-8l15,8V12z"/>
</svg>
