<?xml version="1.0" encoding="utf-8"?>
<!-- Generator: Adobe Illustrator 15.0.0, SVG Export Plug-In . SVG Version: 6.00 Build 0)  -->
<svg xmlns="http://www.w3.org/2000/svg" xmlns:xlink="http://www.w3.org/1999/xlink" version="1.1" id="262144337_Layer_1_grid" x="0px" y="0px" width="38px" height="38px" viewBox="0 0 38 38" enable-background="new 0 0 38 38" xml:space="preserve">
<path fill="#231F20" d="M34,8H4c-1.104,0-2,0.896-2,2v2.962L10.798,20L6,23.839v2.561l6.399-5.119l5.354,4.283  C18.106,25.845,18.549,26,19,26s0.894-0.155,1.249-0.438l5.353-4.281L32,26.4v-2.563L27.203,20L34,14.562V30H4V17.123l-2-1.6V30  c0,1.104,0.896,2,2,2h30c1.104,0,2-0.896,2-2V10C36,8.896,35.104,8,34,8z M34,12L19,24L4,12v-2h30V12z"/>
</svg>
