<?xml version="1.0" encoding="utf-8"?>
<!-- Generator: Adobe Illustrator 15.0.0, SVG Export Plug-In . SVG Version: 6.00 Build 0)  -->
<svg xmlns="http://www.w3.org/2000/svg" xmlns:xlink="http://www.w3.org/1999/xlink" version="1.1" id="262144340_Layer_1_grid" x="0px" y="0px" width="38px" height="38px" viewBox="0 0 38 38" enable-background="new 0 0 38 38" xml:space="preserve">
<path fill="#231F20" d="M27,2c-4.963,0-9,4.038-9,9c0,0.415,0.035,0.839,0.109,1.334l0.048,0.326l6.205,6.206L9.616,32.003  c-1.691,0.027-3.068,0.237-4.344,0.726c0.488-1.276,0.699-2.653,0.726-4.345l11.804-13.25l-1.416-1.417L4,27.619V28  c0,3.6-0.797,5.383-3.707,8.293l1.414,1.414C4.617,34.797,6.4,34,10,34h0.381l15.769-14.047C26.451,19.985,26.729,20,27,20  c4.963,0,9-4.038,9-9S31.963,2,27,2z M32.604,15.19l-7.538-7.539l-1.414,1.414l7.538,7.539C30.021,17.48,28.57,18,27,18  c-0.224,0-0.457-0.015-0.72-0.044l-6.236-6.237C20.014,11.459,20,11.225,20,11c0-3.86,3.141-7,7-7s7,3.14,7,7  C34,12.57,33.48,14.021,32.604,15.19z"/>
</svg>
