<?xml version="1.0" encoding="utf-8"?>
<!-- Generator: Adobe Illustrator 15.0.0, SVG Export Plug-In . SVG Version: 6.00 Build 0)  -->
<svg xmlns="http://www.w3.org/2000/svg" xmlns:xlink="http://www.w3.org/1999/xlink" version="1.1" id="262144341_Layer_1_grid" x="0px" y="0px" width="38px" height="38px" viewBox="0 0 38 38" enable-background="new 0 0 38 38" xml:space="preserve">
<path fill="#231F20" d="M30,34H8v-2h10v-4h17c0.552,0,1-0.448,1-1V7c0-0.551-0.448-1-1-1H3C2.449,6,2,6.449,2,7v20  c0,0.552,0.449,1,1,1h13v2H3c-1.654,0-3-1.346-3-3V7c0-1.654,1.346-3,3-3h32c1.654,0,3,1.346,3,3v20c0,1.654-1.346,3-3,3H20v2h10V34  z"/>
</svg>
