<?xml version="1.0" encoding="utf-8"?>
<!-- Generator: Adobe Illustrator 15.0.0, SVG Export Plug-In . SVG Version: 6.00 Build 0)  -->
<svg xmlns="http://www.w3.org/2000/svg" xmlns:xlink="http://www.w3.org/1999/xlink" version="1.1" id="262144343_Layer_1_grid" x="0px" y="0px" width="38px" height="38px" viewBox="0 0 38 38" enable-background="new 0 0 38 38" xml:space="preserve">
<path fill="#231F20" d="M19,14c-2.76,0-5,2.24-5,5s2.24,5,5,5s5-2.24,5-5S21.76,14,19,14z M19,22c-1.65,0-3-1.35-3-3s1.35-3,3-3  s3,1.35,3,3S20.65,22,19,22z M19,26c-2.76,0-5,2.24-5,5s2.24,5,5,5s5-2.24,5-5S21.76,26,19,26z M19,34c-1.65,0-3-1.35-3-3  s1.35-3,3-3s3,1.35,3,3S20.65,34,19,34z M19,2c-2.76,0-5,2.24-5,5s2.24,5,5,5s5-2.24,5-5S21.76,2,19,2z M19,10c-1.65,0-3-1.35-3-3  s1.35-3,3-3s3,1.35,3,3S20.65,10,19,10z"/>
</svg>
