<?xml version="1.0" encoding="utf-8"?>
<!-- Generator: Adobe Illustrator 15.0.0, SVG Export Plug-In . SVG Version: 6.00 Build 0)  -->
<svg xmlns="http://www.w3.org/2000/svg" xmlns:xlink="http://www.w3.org/1999/xlink" version="1.1" id="262144344_Layer_1_grid" x="0px" y="0px" width="38px" height="38px" viewBox="0 0 38 38" enable-background="new 0 0 38 38" xml:space="preserve">
<path fill="#231F20" d="M12,2v23.179C10.961,24.434,9.579,24,8,24c-3.477,0-6,2.103-6,5s2.523,5,6,5s6-2.103,6-5V4.562l14,3.5v4.124  l-12-3v2.062l12,3v14.932C26.961,28.434,25.579,28,24,28c-3.477,0-6,2.103-6,5s2.523,5,6,5s6-2.103,6-5V6.5L12,2z M8,32  c-2.355,0-4-1.233-4-3s1.645-3,4-3s4,1.233,4,3S10.355,32,8,32z M24,36c-2.355,0-4-1.233-4-3s1.645-3,4-3s4,1.233,4,3  S26.355,36,24,36z"/>
</svg>
