<?xml version="1.0" encoding="utf-8"?>
<!-- Generator: Adobe Illustrator 15.0.0, SVG Export Plug-In . SVG Version: 6.00 Build 0)  -->
<svg xmlns="http://www.w3.org/2000/svg" xmlns:xlink="http://www.w3.org/1999/xlink" version="1.1" id="262144346_Layer_1_grid" x="0px" y="0px" width="38px" height="38px" viewBox="0 0 38 38" enable-background="new 0 0 38 38" xml:space="preserve">
<path fill="#231F20" d="M20,10v14.73C19.18,24.27,18.15,24,17,24c-2.9,0-5,1.68-5,4s2.1,4,5,4s5-1.68,5-4V13.24l4.04,2.02v-2.24  L20,10z M17,30c-1.74,0-3-0.84-3-2s1.26-2,3-2s3,0.84,3,2S18.74,30,17,30z M7.5,4H34V2H7.5C5.57,2,4,3.79,4,6v26  c0,2.21,1.57,4,3.5,4H34V6H8v2h24v26H7.5C6.69,34,6,33.08,6,32V6C6,4.92,6.69,4,7.5,4z"/>
</svg>
