<?xml version="1.0" encoding="utf-8"?>
<!-- Generator: Adobe Illustrator 15.0.0, SVG Export Plug-In . SVG Version: 6.00 Build 0)  -->
<svg xmlns="http://www.w3.org/2000/svg" xmlns:xlink="http://www.w3.org/1999/xlink" version="1.1" id="262144345_Layer_1_grid" x="0px" y="0px" width="38px" height="38px" viewBox="0 0 38 38" enable-background="new 0 0 38 38" xml:space="preserve">
<path fill="#231F20" d="M20,2v23.677C18.758,24.623,17.017,24,15,24c-4.056,0-7,2.521-7,5.994C8,33.475,10.944,36,15,36  s7-2.525,7-6.006V5.236l7.998,3.999v2.236L24,8.472v2.236l7.998,3.999V7.999L20,2z M15,34c-2.944,0-5-1.647-5-4.006  C10,27.643,12.056,26,15,26s5,1.643,5,3.994C20,32.353,17.944,34,15,34z"/>
</svg>
