<?xml version="1.0" encoding="utf-8"?>
<!-- Generator: Adobe Illustrator 15.0.0, SVG Export Plug-In . SVG Version: 6.00 Build 0)  -->
<svg xmlns="http://www.w3.org/2000/svg" xmlns:xlink="http://www.w3.org/1999/xlink" version="1.1" id="262144347_Capa_1_grid" x="0px" y="0px" width="38px" height="38px" viewBox="0 0 38 38" enable-background="new 0 0 38 38" xml:space="preserve">
<path fill="#231F20" d="M31,26c-2.33,0-4.29,1.6-4.84,3.76L11.93,26.2c-0.09-0.62-0.3-1.19-0.61-1.71l16.72-9.46  C28.87,15.64,29.89,16,31,16c2.76,0,5-2.24,5-5s-2.24-5-5-5c-2.33,0-4.29,1.6-4.84,3.76L11.93,6.2C11.55,3.82,9.49,2,7,2  C4.24,2,2,4.24,2,7s2.24,5,5,5c2.33,0,4.29-1.6,4.84-3.76l14.23,3.56c0.09,0.61,0.3,1.19,0.6,1.7L9.95,22.97C9.12,22.36,8.1,22,7,22  c-2.76,0-5,2.24-5,5s2.24,5,5,5c2.33,0,4.29-1.6,4.84-3.76l14.23,3.56C26.45,34.18,28.51,36,31,36c2.76,0,5-2.24,5-5S33.76,26,31,26  z M31,8c1.65,0,3,1.35,3,3s-1.35,3-3,3s-3-1.35-3-3S29.35,8,31,8z M7,10c-1.65,0-3-1.35-3-3s1.35-3,3-3s3,1.35,3,3S8.65,10,7,10z   M7,30c-1.65,0-3-1.35-3-3s1.35-3,3-3s3,1.35,3,3S8.65,30,7,30z M31,34c-1.65,0-3-1.35-3-3s1.35-3,3-3s3,1.35,3,3S32.65,34,31,34z"/>
</svg>
