<?xml version="1.0" encoding="utf-8"?>
<!-- Generator: Adobe Illustrator 15.0.0, SVG Export Plug-In . SVG Version: 6.00 Build 0)  -->
<svg xmlns="http://www.w3.org/2000/svg" xmlns:xlink="http://www.w3.org/1999/xlink" version="1.1" id="262144348_Layer_1_grid" x="0px" y="0px" width="38px" height="38px" viewBox="0 0 38 38" enable-background="new 0 0 38 38" xml:space="preserve">
<path fill="#231F20" d="M10,26v2h18v-2H10z M10,20v2h18v-2H10z M10,14v2h18v-2H10z M8,12v20h22V7c-0.012-0.45-0.194-1-1-1h-3v2h-2V6  h-4v2h-2V6h-4v2h-2V6H9C8.195,6,8.012,6.55,8,7.012V10H6V7c0-1.206,0.799-3,3-3h3V2h2v2h4V2h2v2h4V2h2v2h3c2.201,0,3,1.794,3,3v27H6  V12H8z"/>
</svg>
