<?xml version="1.0" encoding="utf-8"?>
<!-- Generator: Adobe Illustrator 15.0.0, SVG Export Plug-In . SVG Version: 6.00 Build 0)  -->
<svg xmlns="http://www.w3.org/2000/svg" xmlns:xlink="http://www.w3.org/1999/xlink" version="1.1" id="262144350_Layer_1_grid" x="0px" y="0px" width="38px" height="38px" viewBox="0 0 38 38" enable-background="new 0 0 38 38" xml:space="preserve">
<path fill="#231F20" d="M30,14V6c0-1.1-0.9-2-2-2h-4.46l-0.28-0.42C22.14,1.91,20.43,0,17,0s-5.14,1.91-6.25,3.58L10.47,4H6  C4.9,4,4,4.9,4,6v4h24v6h6v18H16V16h10v-2H14v16H6V12H4v18c0,1.1,0.9,2,2,2h8v4h22V14H30z M28,8H6V6h5.53l0.3-0.44  c0,0,0.04-0.06,0.58-0.87C13.49,3.08,14.68,2,17,2s3.51,1.08,4.59,2.69L22.46,6H28V8z M32,22H18v-2h14V22z M32,26H18v-2h14V26z   M32,30H18v-2h14V30z"/>
</svg>
