<?xml version="1.0"?>
<svg xmlns="http://www.w3.org/2000/svg" id="262197685_Layer_1_grid" data-name="Layer 1" viewBox="0 0 38 38"><title>ohone_vintage_glyph</title><path d="M38,16c0-5.93-3.3-13-19-13S0,10.07,0,16v1H4.25A11.64,11.64,0,0,0,3,22.22V35.51H35V22.22A11.56,11.56,0,0,0,33.76,17H38ZM33,33.51H5V22.22A9.47,9.47,0,0,1,6.54,17H12V13H24V11H12V7.65a19.62,19.62,0,0,0-2,.55V15H5.66l-.09-.08L5.51,15H2C2.55,8.36,8.25,5,19,5a35.62,35.62,0,0,1,7,.61V17h5.47A9.57,9.57,0,0,1,33,22.22ZM28,15V6.1c5,1.48,7.62,4.46,8,8.9Zm-9,2.46a6.92,6.92,0,0,0-4.94,11.78l1.42-1.42a4.84,4.84,0,0,1-1.41-3.43A4.94,4.94,0,1,1,17.16,29l-1.5,1.5a6.86,6.86,0,0,0,3.34.86,6.93,6.93,0,1,0,0-13.85Z" fill="#231f20"/></svg>
