<?xml version="1.0" encoding="utf-8"?>
<!-- Generator: Adobe Illustrator 15.0.0, SVG Export Plug-In . SVG Version: 6.00 Build 0)  -->
<svg xmlns="http://www.w3.org/2000/svg" xmlns:xlink="http://www.w3.org/1999/xlink" version="1.1" id="262144352_Layer_1_grid" x="0px" y="0px" width="38px" height="38px" viewBox="0 0 38 38" enable-background="new 0 0 38 38" xml:space="preserve">
<path fill="#231F20" d="M7.5,4H34V2H7.5C5.57,2,4,3.79,4,6v26c0,2.21,1.57,4,3.5,4H34V6H8v2h24v26H7.5C6.69,34,6,33.08,6,32V6  C6,4.92,6.69,4,7.5,4z M22,18v-8h-1c-4.65,0-7,3.7-7,11s2.35,11,7,11h1v-8h-5.84c-0.1-0.87-0.16-1.86-0.16-3s0.06-2.13,0.16-3H22z   M20,12.08V16h-3.47C17.27,13.22,18.66,12.33,20,12.08z M20,26v3.92c-1.34-0.25-2.73-1.14-3.47-3.92H20z"/>
</svg>
