<?xml version="1.0" encoding="utf-8"?>
<!-- Generator: Adobe Illustrator 15.0.0, SVG Export Plug-In . SVG Version: 6.00 Build 0)  -->
<svg xmlns="http://www.w3.org/2000/svg" xmlns:xlink="http://www.w3.org/1999/xlink" version="1.1" id="262144353_Layer_1_grid" x="0px" y="0px" width="38px" height="38px" viewBox="0 0 38 38" enable-background="new 0 0 38 38" xml:space="preserve">
<path fill="#231F20" d="M30.03,24.62c0.62-0.78,1.109-1.66,1.46-2.62c0.33-0.94,0.51-1.95,0.51-3c0-4.96-4.04-9-9-9s-9,4.04-9,9  c0,1.05,0.18,2.06,0.52,3c1.23,3.49,4.57,6,8.48,6c2.12,0,4.07-0.74,5.62-1.97L30,27.41V34H8V4h22v6h2V2H6v34h26v-6.59l2.79,2.8  l1.42-1.42L30.03,24.62z M23,26c-2.79,0-5.2-1.64-6.32-4C16.24,21.09,16,20.07,16,19c0-3.86,3.14-7,7-7c3.86,0,7,3.14,7,7  c0,1.07-0.24,2.09-0.68,3C28.2,24.36,25.79,26,23,26z"/>
</svg>
