<?xml version="1.0" encoding="utf-8"?>
<!-- Generator: Adobe Illustrator 15.0.0, SVG Export Plug-In . SVG Version: 6.00 Build 0)  -->
<svg xmlns="http://www.w3.org/2000/svg" xmlns:xlink="http://www.w3.org/1999/xlink" version="1.1" id="262144355_Layer_1_grid" x="0px" y="0px" width="38px" height="38px" viewBox="0 0 38 38" enable-background="new 0 0 38 38" xml:space="preserve">
<path fill="#231F20" d="M31,10h-3V2H10v6h2V4h14v6H7c-2.76,0-5,2.24-5,5v13h5.21l0.36-2H4V15c0-1.65,1.35-3,3-3h24  c1.65,0,3,1.35,3,3v11h-5.6l-0.36-2H30v-2H8v2h1.96L7.8,36h22.4l-1.44-8H36V15C36,12.24,33.76,10,31,10z M27.8,34H10.2L12,24h14  l0.72,4L27.8,34z"/>
</svg>
