<?xml version="1.0" encoding="utf-8"?>
<!-- Generator: Adobe Illustrator 15.0.0, SVG Export Plug-In . SVG Version: 6.00 Build 0)  -->
<svg xmlns="http://www.w3.org/2000/svg" xmlns:xlink="http://www.w3.org/1999/xlink" version="1.1" id="262144354_Layer_1_grid" x="0px" y="0px" width="38px" height="38px" viewBox="0 0 38 38" enable-background="new 0 0 38 38" xml:space="preserve">
<path fill="#231F20" d="M36,15c0-2.757-2.243-5-5-5h-3V2H10v6h2V4h14v6H7c-2.757,0-5,2.243-5,5v13h5.211l0.36-2H4V15  c0-1.654,1.346-3,3-3h24c1.654,0,3,1.346,3,3v11h-5.604l-0.359-2H30v-2H8v2h1.963L7.804,36h22.392l-1.439-8H36V15z M24.333,26  H13.667l-0.36,2h11.385L24.333,26z M12.948,30l-0.36,2h12.824l-0.359-2H12.948z M10.196,34l1.799-10h14.01l1.799,10H10.196z"/>
</svg>
