<?xml version="1.0" encoding="utf-8"?>
<!-- Generator: Adobe Illustrator 15.0.0, SVG Export Plug-In . SVG Version: 6.00 Build 0)  -->
<svg xmlns="http://www.w3.org/2000/svg" xmlns:xlink="http://www.w3.org/1999/xlink" version="1.1" id="262144356_Layer_1_grid" x="0px" y="0px" width="38px" height="38px" viewBox="0 0 38 38" enable-background="new 0 0 38 38" xml:space="preserve">
<path fill="#231F20" d="M35.87,32.5L35.58,32H4.72l4.57-8h19.42l3.43,6h2.301L19.87,4.5c-0.36-0.62-1.38-0.62-1.74,0l-16,28  c-0.17,0.31-0.17,0.69,0.01,1C2.31,33.81,2.64,34,3,34h32c0.36,0,0.69-0.19,0.87-0.5C36.04,33.19,36.04,32.81,35.87,32.5z M19,7.02  L22.99,14h-7.98L19,7.02z M13.88,15.98c0.04,0,0.08,0.02,0.12,0.02h10c0.04,0,0.08-0.02,0.12-0.02L27.56,22H10.44L13.88,15.98z"/>
</svg>
