<?xml version="1.0" encoding="utf-8"?>
<!-- Generator: Adobe Illustrator 15.0.0, SVG Export Plug-In . SVG Version: 6.00 Build 0)  -->
<svg xmlns="http://www.w3.org/2000/svg" xmlns:xlink="http://www.w3.org/1999/xlink" version="1.1" id="262144358_Layer_1_grid" x="0px" y="0px" width="38px" height="38px" viewBox="0 0 38 38" enable-background="new 0 0 38 38" xml:space="preserve">
<path fill="#231F20" d="M19,2C9.63,2,2,9.63,2,19c0,4.32,1.63,8.28,4.3,11.28l1.42-1.42C5.4,26.22,4,22.78,4,19  c0-8.27,6.73-15,15-15c8.27,0,15,6.73,15,15c0,8.27-6.73,15-15,15c-3.78,0-7.22-1.4-9.86-3.72L7.72,31.7c3,2.67,6.96,4.3,11.28,4.3  c9.37,0,17-7.63,17-17S28.37,2,19,2z"/>
</svg>
