<?xml version="1.0" encoding="utf-8"?>
<!-- Generator: Adobe Illustrator 15.0.0, SVG Export Plug-In . SVG Version: 6.00 Build 0)  -->
<svg xmlns="http://www.w3.org/2000/svg" xmlns:xlink="http://www.w3.org/1999/xlink" version="1.1" id="262144359_Layer_1_grid" x="0px" y="0px" width="38px" height="38px" viewBox="0 0 38 38" enable-background="new 0 0 38 38" xml:space="preserve">
<path fill="#231F20" d="M34,19c0,8.271-6.729,15-15,15c-4.348,0-8.261-1.866-11-4.834V36H6V26h10v2H9.651  c2.365,2.459,5.676,4,9.349,4c7.168,0,13-5.832,13-13c0-1.771-0.358-3.46-1.003-5h2.128C33.682,15.566,34,17.245,34,19z M6,19  c0-7.168,5.832-13,13-13c3.673,0,6.984,1.541,9.349,4H22v2h10V2h-2v6.834C27.261,5.866,23.349,4,19,4C10.729,4,4,10.729,4,19  c0,1.755,0.319,3.434,0.875,5h2.128C6.358,22.46,6,20.771,6,19z"/>
</svg>
