<?xml version="1.0" encoding="utf-8"?>
<!-- Generator: Adobe Illustrator 15.0.0, SVG Export Plug-In . SVG Version: 6.00 Build 0)  -->
<svg xmlns="http://www.w3.org/2000/svg" xmlns:xlink="http://www.w3.org/1999/xlink" version="1.1" id="262144361_Layer_1_grid" x="0px" y="0px" width="38px" height="38px" viewBox="0 0 38 38" enable-background="new 0 0 38 38" xml:space="preserve">
<path fill="#231F20" d="M31.7,7.72l-1.42,1.42C32.6,11.78,34,15.22,34,19c0,8.27-6.73,15-15,15c-8.27,0-15-6.73-15-15  c0-8.27,6.73-15,15-15c3.04,0,5.852,0.917,8.213,2.479l-2.855,2.918C22.771,8.51,20.946,8,19,8C12.925,8,8,12.925,8,19  s4.925,11,11,11s11-4.925,11-11c0-3.4-1.544-6.438-3.967-8.456L30.28,6.3C27.28,3.63,23.32,2,19,2C9.63,2,2,9.63,2,19  c0,9.37,7.63,17,17,17c9.37,0,17-7.63,17-17C36,14.68,34.37,10.72,31.7,7.72z M28,19c0,4.971-4.029,9-9,9s-9-4.029-9-9s4.029-9,9-9  S28,14.029,28,19z"/>
</svg>
