<?xml version="1.0" encoding="utf-8"?>
<!-- Generator: Adobe Illustrator 15.0.0, SVG Export Plug-In . SVG Version: 6.00 Build 0)  -->
<svg xmlns="http://www.w3.org/2000/svg" xmlns:xlink="http://www.w3.org/1999/xlink" version="1.1" id="262144362_Layer_1_grid" x="0px" y="0px" width="38px" height="38px" viewBox="0 0 38 38" enable-background="new 0 0 38 38" xml:space="preserve">
<path fill="#231F20" d="M31.22,0.32C30.73,0.11,30.21,0,29.67,0c-2.09,0-4.11,1.61-5.15,4.09L21.21,12h-4.42l-3.31-7.91  C12.44,1.61,10.42,0,8.33,0C7.79,0,7.27,0.11,6.78,0.32C4.33,1.36,3.31,4.76,4.51,7.88C5.45,10.34,7.52,12,9.65,12  c0.55,0,1.07-0.11,1.57-0.32c1.03-0.44,1.8-1.31,2.27-2.38c0,0,4.27,10.23,4.43,10.63c-0.09,0.221-0.18,0.44-0.27,0.65  c-1.6,3.86-3.12,7.53-5.18,12.38c-0.28-0.94-0.45-1.9-0.47-2.979c-0.08-4.04,1.42-7.78,3.06-11.7l-1.08-2.61  c-0.22,0.53-0.42,1.02-0.57,1.37C11.61,21.34,9.9,25.4,10,30.02c0.05,2.41,0.76,4.32,1.51,6.011l0.93,2.1c0,0,4.9-11.57,6.56-15.59  c0.1,0.25,5.63,13.39,6.23,14.82c0.13,0.29,0.22,0.51,0.27,0.64c0.04,0.08,0.06,0.13,0.06,0.13l0.931-2.1  C27.844,33.328,28,30.62,28,30.02c0-5.379-2.34-10.39-2.45-10.649c-0.31-0.771-2.295-5.637-2.58-6.37c0.86-2.07,1.54-3.7,1.54-3.7  c0.471,1.07,1.24,1.94,2.271,2.38C27.28,11.89,27.8,12,28.35,12c2.131,0,4.2-1.66,5.141-4.12C34.69,4.76,33.67,1.36,31.22,0.32z   M10.43,9.84c-1.42,0.61-3.28-0.66-4.05-2.68c-0.81-2.09-0.26-4.38,1.19-5C7.81,2.05,8.07,2,8.33,2c1.24,0,2.6,1.18,3.31,2.86  C12.48,6.88,11.92,9.21,10.43,9.84z M26,29.98c-0.02,1.079-0.19,2.039-0.47,2.979C23.47,28.11,18.62,16.4,17.62,14h3.57  c0.5,1.31,1.029,2.58,1.55,3.82C24.46,21.91,26.09,25.78,26,29.98z M31.62,7.16c-0.771,2.02-2.63,3.29-4.05,2.68  c-1.49-0.63-2.051-2.96-1.21-4.98C27.07,3.18,28.43,2,29.67,2c0.26,0,0.521,0.05,0.76,0.16C31.88,2.78,32.43,5.07,31.62,7.16z"/>
</svg>
