<?xml version="1.0" encoding="utf-8"?>
<!-- Generator: Adobe Illustrator 15.0.0, SVG Export Plug-In . SVG Version: 6.00 Build 0)  -->
<svg xmlns="http://www.w3.org/2000/svg" xmlns:xlink="http://www.w3.org/1999/xlink" version="1.1" id="262144363_Layer_1_grid" x="0px" y="0px" width="38px" height="38px" viewBox="0 0 38 38" enable-background="new 0 0 38 38" xml:space="preserve">
<path fill="#231F20" d="M36,28.18c-0.12-1.31-0.7-2.779-2.16-4.229c-4.26-4.271-10.63-7.82-12.99-8.61l-0.59-0.19L18.41,17  l-7.07-7.07l2.39-2.4L6.19,3.76L3.76,6.19l3.77,7.55l2.4-2.4L17,18.41l-1.86,1.85l0.2,0.59c0.36,1.07,1.28,2.96,2.59,5.11l6.58-6.58  c2.55,1.521,5.59,3.65,7.92,5.98c3.41,3.409,0.36,6.71,0,7.069c-0.01,0.011-0.18,0.181-0.479,0.4c-0.16,0.12-0.36,0.26-0.59,0.39  c-0.66,0.4-1.591,0.8-2.62,0.8c-1.19,0-2.32-0.529-3.38-1.59c-1.82-1.819-3.511-4.069-4.89-6.18l-1.44,1.44  c1.4,2.119,3.1,4.34,4.92,6.159c1.439,1.44,3.05,2.17,4.79,2.17c1.7,0,3.13-0.72,4.04-1.329c0.22-0.15,0.41-0.29,0.569-0.421  c0.301-0.229,0.471-0.399,0.49-0.409V33.85c0.05-0.05,1.24-1.25,1.84-3.05c0.15-0.45,0.271-0.96,0.32-1.51  C36.03,28.94,36.04,28.56,36,28.18z M8.08,10.36L6.19,6.59l0.16-0.16l0.24-0.24l3.77,1.89L8.08,10.36z M18.37,22.69  c-0.39-0.73-0.7-1.391-0.92-1.91l3.33-3.33c0.52,0.22,1.18,0.53,1.911,0.92L18.37,22.69z"/>
</svg>
