<?xml version="1.0" encoding="utf-8"?>
<!-- Generator: Adobe Illustrator 15.0.0, SVG Export Plug-In . SVG Version: 6.00 Build 0)  -->
<svg xmlns="http://www.w3.org/2000/svg" xmlns:xlink="http://www.w3.org/1999/xlink" version="1.1" id="262144364_Layer_1_grid" x="0px" y="0px" width="38px" height="38px" viewBox="0 0 38 38" enable-background="new 0 0 38 38" xml:space="preserve">
<path fill="#231F20" d="M33.45,18.11L33.23,18L5.45,4.11c-0.4-0.2-0.87-0.12-1.18,0.2c-0.3,0.32-0.36,0.8-0.14,1.19L11.28,18l0.57,1  L4.13,32.5c-0.22,0.39-0.16,0.87,0.14,1.19C4.47,33.89,4.73,34,5,34c0.15,0,0.31-0.03,0.45-0.11l28-14C33.79,19.72,34,19.38,34,19  S33.79,18.28,33.45,18.11z M7.51,30.63L13.58,20h15.18L7.51,30.63z M13.58,18L7.51,7.37L28.76,18H13.58z"/>
</svg>
