<?xml version="1.0" encoding="utf-8"?>
<!-- Generator: Adobe Illustrator 15.0.0, SVG Export Plug-In . SVG Version: 6.00 Build 0)  -->
<svg xmlns="http://www.w3.org/2000/svg" xmlns:xlink="http://www.w3.org/1999/xlink" version="1.1" id="262144365_Layer_1_grid" x="0px" y="0px" width="38px" height="38px" viewBox="0 0 38 38" enable-background="new 0 0 38 38" xml:space="preserve">
<path fill="#231F20" d="M29,12c-2.38,0-4.48,1.19-5.74,3.01l-7.62-3.81C15.87,10.51,16,9.77,16,9c0-3.86-3.14-7-7-7S2,5.14,2,9  s3.14,7,7,7c2.38,0,4.48-1.19,5.74-3.01l7.62,3.81C22.13,17.49,22,18.23,22,19s0.13,1.51,0.36,2.2l-9.43,4.71  C13.6,26.76,14,27.83,14,29c0,2.76-2.24,5-5,5s-5-2.24-5-5s2.24-5,5-5c0.8,0,1.55,0.19,2.22,0.52l2.08-1.029  C12.12,22.55,10.62,22,9,22c-3.86,0-7,3.14-7,7s3.14,7,7,7s7-3.14,7-7c0-0.77-0.13-1.51-0.36-2.2l7.62-3.81  C24.52,24.81,26.62,26,29,26c3.86,0,7-3.14,7-7C36,15.14,32.86,12,29,12z M9,14c-2.76,0-5-2.24-5-5s2.24-5,5-5s5,2.24,5,5  S11.76,14,9,14z M29,24c-2.76,0-5-2.24-5-5s2.24-5,5-5s5,2.24,5,5S31.76,24,29,24z"/>
</svg>
