<?xml version="1.0"?>
<svg xmlns="http://www.w3.org/2000/svg" id="262197686_Layer_1_grid" data-name="Layer 1" viewBox="0 0 38 38"><title>social_care_glyph</title><path d="M18,12.5c0,1.27-.49,1.65-1.1,1.65s-1.1-.38-1.1-1.65.49-1.65,1.1-1.65S18,11.23,18,12.5Zm2.9,6.5a2.9,2.9,0,0,1-2.67-1.66l-1.79.89a5,5,0,0,0,8.92,0l-1.79-.89A2.9,2.9,0,0,1,20.85,19ZM26,12.5c0-1.27-.49-1.65-1.1-1.65s-1.1.38-1.1,1.65.49,1.65,1.1,1.65S26,13.77,26,12.5ZM3.86,36.86a21.3,21.3,0,0,1,.55-2.7H0V26.7H2V32H5.73l.84,0,.84.27c2.58.83,10.36,3.25,13.21,3.25,3.25,0,5.93-1.34,9.64-3.19l.62-.31A1.65,1.65,0,0,0,32,30.54a1.85,1.85,0,0,0,0-.23,1.06,1.06,0,0,0-.83-.88,4,4,0,0,0-1.19.24c-.62.19-1.33.49-2.07.8-2.3,1-5.07,2.06-7.37,1.29S16.67,30.5,15.89,28a2.37,2.37,0,0,1-.09-.36,1.2,1.2,0,0,1,.19-1,1.79,1.79,0,0,1,1.35-.6,18.91,18.91,0,0,1,2-.06h.12c2.55,0,3.58,0,4-.43a1.05,1.05,0,0,0,.25-.85c0-.48-.49-.77-1.2-1a19.41,19.41,0,0,0-4.22-.31h-.06a12.51,12.51,0,0,1-3.65-.8l-.83-.26A8.7,8.7,0,0,0,11.12,22,4.3,4.3,0,0,0,8,23.36c-1,1-1.51,1.32-2.23,1.33H0V22.51H5.23c.36,0,.49,0,1.18-.69a6.45,6.45,0,0,1,4.71-2h.28l1,.13A8.72,8.72,0,0,1,11.85,17l0-11.11A8.3,8.3,0,0,1,20.06,0a17.36,17.36,0,0,1,4.35.6A10.24,10.24,0,0,0,26.9,1a8.36,8.36,0,0,0,3-.66V2.47a9.64,9.64,0,0,1-3,.53,12.37,12.37,0,0,1-3-.45A15.18,15.18,0,0,0,20.06,2a6.27,6.27,0,0,0-6.21,4.29V17a7.1,7.1,0,0,0,.93,3.49l.43.14a10.36,10.36,0,0,0,3,.69c2.1,0,5.23,0,6.74,1.37A7.11,7.11,0,0,0,27.85,17V6.94a7.57,7.57,0,0,1-1,.06,14,14,0,0,1-3.84-.55,11.28,11.28,0,0,0-3-.45,2.72,2.72,0,0,0-2.22,1.08L16.23,5.9A4.7,4.7,0,0,1,20.06,4a13,13,0,0,1,3.49.51A12.13,12.13,0,0,0,26.9,5a9.24,9.24,0,0,0,1.77-.23l1.18-.21V17a9.24,9.24,0,0,1-4,7.47,1.8,1.8,0,0,0,.76,1.29,13.8,13.8,0,0,0,2.64,1.45l.48.22a5.36,5.36,0,0,1,1.35-.19,2.82,2.82,0,0,1,1.58.51A3.23,3.23,0,0,1,34,29.34c1.89,1.17,3.25,3,3.89,7.52L38,38H3.7Zm23.27-8.47a10,10,0,0,1-1.43-.85,5.44,5.44,0,0,1-.57-.46c-1.06,1.16-3.19,1.16-5.69,1.16h-1.1c.41.62,1.06.86,2.81,1.45,1.57.51,4-.47,5.84-1.25l.12-.05ZM27.67,36h8a7.71,7.71,0,0,0-1.76-4.15A3.94,3.94,0,0,1,31.85,34l-.59.3C30,34.92,28.81,35.5,27.67,36ZM6,36h6.15c-2.43-.69-4.65-1.4-5.73-1.74Q6.23,35,6,36Z" fill="#231f20"/></svg>
