<?xml version="1.0" encoding="utf-8"?>
<!-- Generator: Adobe Illustrator 16.0.0, SVG Export Plug-In . SVG Version: 6.00 Build 0)  -->
<svg xmlns="http://www.w3.org/2000/svg" xmlns:xlink="http://www.w3.org/1999/xlink" version="1.1" id="262144366_Layer_1_grid" x="0px" y="0px" width="38px" height="38px" viewBox="0 0 38 38" style="enable-background:new 0 0 38 38;" xml:space="preserve">
<path style="fill:#231F20;" d="M29.67,0.37l-1.33,1.49C33.21,6.22,36,12.46,36,19s-2.79,12.78-7.66,17.14l1.33,1.49  C34.96,32.89,38,26.1,38,19C38,11.9,34.96,5.11,29.67,0.37z M25.67,4.84l-1.33,1.49C27.94,9.55,30,14.17,30,19  s-2.06,9.45-5.66,12.67l1.33,1.49C29.69,29.56,32,24.4,32,19C32,13.6,29.69,8.44,25.67,4.84z M22,9.62V0.59l-10,10V26H4V12h6v-2H4  c-1.1,0-2,0.9-2,2v14c0,1.1,0.9,2,2,2h8.59L22,37.41v-9.03c2.55-2.45,4-5.84,4-9.38S24.55,12.07,22,9.62z M20,32.59l-6-6V11.41l6-6  V32.59z M22,12.68c1.29,1.83,2,4.04,2,6.32c0,2.28-0.71,4.49-2,6.32V12.68z"/>
</svg>
