<?xml version="1.0" encoding="utf-8"?>
<!-- Generator: Adobe Illustrator 15.0.0, SVG Export Plug-In . SVG Version: 6.00 Build 0)  -->
<svg xmlns="http://www.w3.org/2000/svg" xmlns:xlink="http://www.w3.org/1999/xlink" version="1.1" id="262144368_Layer_1_grid" x="0px" y="0px" width="38px" height="38px" viewBox="0 0 38 38" enable-background="new 0 0 38 38" xml:space="preserve">
<path fill="#231F20" d="M19,2c-0.337,0-0.667,0.031-1,0.051v21.938C9.922,23.793,4,21.268,4,19C4,11.758,9.165,5.714,16,4.318V2.281  C8.054,3.705,2,10.651,2,19c0,9.374,7.626,17,17,17s17-7.626,17-17S28.374,2,19,2z M18,33.967  c-6.525-0.432-11.923-5.054-13.52-11.194c2.996,1.988,8.286,3.091,13.52,3.216V33.967z M20,4.033C27.807,4.55,34,11.065,34,19  c0,2.268-5.922,4.793-14,4.988V4.033z M20,33.967v-7.979c5.233-0.125,10.523-1.228,13.52-3.216  C31.923,28.913,26.525,33.535,20,33.967z"/>
</svg>
