<?xml version="1.0" encoding="utf-8"?>
<!-- Generator: Adobe Illustrator 15.0.0, SVG Export Plug-In . SVG Version: 6.00 Build 0)  -->
<svg xmlns="http://www.w3.org/2000/svg" xmlns:xlink="http://www.w3.org/1999/xlink" version="1.1" id="262144369_Layer_1_grid" x="0px" y="0px" width="38px" height="38px" viewBox="0 0 38 38" enable-background="new 0 0 38 38" xml:space="preserve">
<path fill="#231F20" d="M35.951,14.691C35.817,14.279,35.434,14,35,14H23.504L19.951,3.066C19.817,2.654,19.433,2.375,19,2.375  s-0.817,0.279-0.951,0.691L14.496,14H3c-0.433,0-0.817,0.279-0.951,0.691s0.013,0.863,0.363,1.118l9.301,6.758L8.16,33.5  c-0.134,0.411,0.013,0.863,0.363,1.117c0.175,0.128,0.382,0.191,0.588,0.191s0.413-0.063,0.588-0.191L19,27.861l9.3,6.756  c0.352,0.256,0.824,0.256,1.176,0c0.351-0.254,0.497-0.705,0.363-1.117l-3.551-10.933l9.3-6.758  C35.938,15.554,36.085,15.103,35.951,14.691z M23.937,21.804l3.05,9.388L19,25.389l-7.986,5.802l3.051-9.387L6.077,16h9.872  L19,6.611L22.051,16h9.872L23.937,21.804z"/>
</svg>
