<?xml version="1.0"?>
<svg xmlns="http://www.w3.org/2000/svg" id="262197687_Layer_1_grid" data-name="Layer 1" viewBox="0 0 38 38"><title>support_glyph</title><path d="M36,36.86c-.92-6.47-3.33-7.46-6.65-8.83L28,27.47l-.58-.26a13.8,13.8,0,0,1-2.64-1.45A1.8,1.8,0,0,1,24,24.47,9.22,9.22,0,0,0,27,21H30a3.31,3.31,0,0,0,2.21-.88A3,3,0,0,0,33,18V13H30V11H28V4.56l-1.18.21A9.24,9.24,0,0,1,25.05,5a12.13,12.13,0,0,1-3.35-.49A13,13,0,0,0,18.21,4a4.7,4.7,0,0,0-3.83,1.9L16,7.08A2.72,2.72,0,0,1,18.21,6a11.28,11.28,0,0,1,3,.45A14,14,0,0,0,25.05,7,7.57,7.57,0,0,0,26,6.94V17a7,7,0,0,1-.31,2H23V18H19v4.08h4V21h1.77A6.77,6.77,0,0,1,19,24a6.93,6.93,0,0,1-7-7V6.29A6.27,6.27,0,0,1,18.21,2a15.18,15.18,0,0,1,3.88.55,12.37,12.37,0,0,0,3,.45A9.64,9.64,0,0,0,28,2.47V.34A8.36,8.36,0,0,1,25.05,1,10.24,10.24,0,0,1,22.56.6,17.36,17.36,0,0,0,18.21,0,8.3,8.3,0,0,0,10,5.89L10,17a9.24,9.24,0,0,0,4,7.47,1.8,1.8,0,0,1-.76,1.29,13.8,13.8,0,0,1-2.64,1.45l-.58.26L8.66,28C5.34,29.4,2.93,30.39,2,36.86L1.85,38h34.3ZM28,17h2V15h1v3a1,1,0,0,1-1,1H27.75A8.81,8.81,0,0,0,28,17ZM4.18,36c.81-4.3,2.28-4.9,5.24-6.12.62-.25,1.29-.53,2-.86a15.81,15.81,0,0,0,2.73-1.48,4,4,0,0,0,1.64-2.12,9.17,9.17,0,0,0,6.42,0,4,4,0,0,0,1.64,2.12A15.81,15.81,0,0,0,26.58,29c.71.33,1.38.61,2,.86,3,1.22,4.43,1.83,5.24,6.12ZM23,14.15c-.61,0-1.1-.38-1.1-1.65s.49-1.65,1.1-1.65,1.1.38,1.1,1.65S23.61,14.15,23,14.15ZM13.9,12.5c0-1.27.49-1.65,1.1-1.65s1.1.38,1.1,1.65-.49,1.65-1.1,1.65S13.9,13.77,13.9,12.5Z" fill="#231f20"/></svg>
