<?xml version="1.0" encoding="utf-8"?>
<!-- Generator: Adobe Illustrator 15.0.0, SVG Export Plug-In . SVG Version: 6.00 Build 0)  -->
<svg xmlns="http://www.w3.org/2000/svg" xmlns:xlink="http://www.w3.org/1999/xlink" version="1.1" id="262144371_Layer_1_grid" x="0px" y="0px" width="38px" height="38px" viewBox="0 0 38 38" enable-background="new 0 0 38 38" xml:space="preserve">
<path fill="#231F20" d="M30,14v20H8V4h15c0.46,0,1,0.26,1,1v7h7.99c0,0-6.08-8.17-6.62-8.87C24.83,2.44,23.99,2,23,2H6v34h26V14H30z   M26,7.31L28.01,10H26V7.31z M26,22v-2h-2.1c-0.131-0.641-0.391-1.23-0.73-1.75l1.49-1.49l-1.42-1.42l-1.49,1.49  c-0.52-0.34-1.11-0.6-1.75-0.73V14h-2v2.1c-0.64,0.13-1.23,0.39-1.75,0.73l-1.49-1.49l-1.42,1.42l1.49,1.49  c-0.34,0.52-0.6,1.109-0.73,1.75H12v2h2.1c0.13,0.64,0.39,1.23,0.73,1.75l-1.49,1.49l1.42,1.42l1.49-1.49  c0.52,0.34,1.11,0.6,1.75,0.73V28h2v-2.1c0.64-0.131,1.23-0.391,1.75-0.73l1.49,1.49l1.42-1.42l-1.49-1.49  c0.34-0.52,0.6-1.11,0.73-1.75H26z M19,24c-1.66,0-3-1.34-3-3s1.34-3,3-3s3,1.34,3,3S20.66,24,19,24z"/>
</svg>
