<?xml version="1.0" encoding="utf-8"?>
<!-- Generator: Adobe Illustrator 15.0.0, SVG Export Plug-In . SVG Version: 6.00 Build 0)  -->
<svg xmlns="http://www.w3.org/2000/svg" xmlns:xlink="http://www.w3.org/1999/xlink" version="1.1" id="262185836_Layer_1_grid" x="0px" y="0px" width="38px" height="38px" viewBox="0 0 38 38" enable-background="new 0 0 38 38" xml:space="preserve">
<path fill="#231F20" d="M11.222,11.222c0.24-0.24,0.488-0.459,0.743-0.672l7.743,7.743c0.389,0.389,0.389,1.025,0,1.414  s-1.025,0.389-1.414,0l-6.322-6.321c-2.829,3.521-2.602,8.711,0.665,11.979c3.507,3.507,9.22,3.507,12.728,0  c3.507-3.508,3.507-9.221,0-12.728c-0.98-0.98-2.137-1.672-3.364-2.104V8.423c1.75,0.494,3.402,1.423,4.778,2.798  c4.292,4.292,4.292,11.265,0,15.557c-4.293,4.292-11.264,4.292-15.557,0C6.93,22.486,6.93,15.514,11.222,11.222z M19,2  C9.63,2,2,9.63,2,19s7.63,17,17,17c0.34,0,0.67-0.01,1-0.03v-2.01C19.67,33.99,19.34,34,19,34c-8.27,0-15-6.73-15-15  c0-8.27,6.73-15,15-15c8.27,0,15,6.73,15,15c0,7.24-5.16,13.31-12,14.7v2.03C29.95,34.31,36,27.35,36,19C36,9.63,28.37,2,19,2z   M17.875,9c0,0.622,0.504,1.125,1.125,1.125c0.622,0,1.126-0.504,1.126-1.125S19.622,7.875,19,7.875  C18.378,7.875,17.875,8.378,17.875,9z"/>
</svg>
