<?xml version="1.0" encoding="utf-8"?>
<!-- Generator: Adobe Illustrator 15.0.0, SVG Export Plug-In . SVG Version: 6.00 Build 0)  -->
<svg xmlns="http://www.w3.org/2000/svg" xmlns:xlink="http://www.w3.org/1999/xlink" version="1.1" id="262144372_Layer_1_grid" x="0px" y="0px" width="38px" height="38px" viewBox="0 0 38 38" enable-background="new 0 0 38 38" xml:space="preserve">
<path fill="#231F20" d="M29,12H9c-3.86,0-7,3.14-7,7c0,3.86,3.14,7,7,7c2.79,0,5.2-1.64,6.32-4c0.44-0.91,0.68-1.93,0.68-3  s-0.24-2.09-0.69-3c-0.35-0.75-0.83-1.43-1.42-2H29c2.76,0,5,2.24,5,5s-2.24,5-5,5H16.48c-0.51,0.76-1.13,1.43-1.84,2H29  c3.86,0,7-3.14,7-7C36,15.14,32.86,12,29,12z M14,19c0,1.13-0.37,2.17-1,3c-0.91,1.21-2.37,2-4,2c-2.76,0-5-2.24-5-5s2.24-5,5-5  c1.63,0,3.09,0.79,4,2C13.63,16.83,14,17.87,14,19z"/>
</svg>
