<?xml version="1.0" encoding="utf-8"?>
<!-- Generator: Adobe Illustrator 15.0.0, SVG Export Plug-In . SVG Version: 6.00 Build 0)  -->
<svg xmlns="http://www.w3.org/2000/svg" xmlns:xlink="http://www.w3.org/1999/xlink" version="1.1" id="262144373_Layer_1_grid" x="0px" y="0px" width="38px" height="38px" viewBox="0 0 38 38" enable-background="new 0 0 38 38" xml:space="preserve">
<path fill="#231F20" d="M27,10c-2.14,0-4.1,0.75-5.64,2H9c-3.86,0-7,3.14-7,7c0,3.86,3.14,7,7,7h9.51c-0.51-0.62-0.95-1.29-1.31-2H9  c-2.76,0-5-2.24-5-5s2.24-5,5-5h10.52c-0.41,0.62-0.75,1.29-1,2C18.18,16.94,18,17.95,18,19s0.18,2.06,0.52,3  c1.23,3.49,4.57,6,8.48,6c4.96,0,9-4.04,9-9S31.96,10,27,10z M27,26c-2.79,0-5.2-1.64-6.32-4C20.24,21.09,20,20.07,20,19  s0.24-2.09,0.68-3c1.12-2.36,3.53-4,6.32-4c3.86,0,7,3.14,7,7C34,22.86,30.86,26,27,26z"/>
</svg>
