<?xml version="1.0"?>
<svg xmlns="http://www.w3.org/2000/svg" id="262197683_Layer_1_grid" data-name="Layer 1" viewBox="0 0 38 38"><title>tools_equipement_glyph</title><path d="M30.69,27.11l6.21,6.2a9,9,0,0,0-10.18-13l-2.55-2.54h0l-1.42-1.42-4.44,4.44,2.29,2.3-1.09,1.09-1-1L6.62,35A2.55,2.55,0,1,1,3,31.38L14.88,19.52l-1-1,1.1-1.09,2.29,2.29,9.86-9.86V6.29L33.9,2.51,35.49,4.1l-3.78,6.81H28.18l-4,4,1.41,1.41L29,12.91h3.88L38,3.76,34.24,0,25.09,5.12V9l-7.86,7.86-2.29-2.29-2,2L11.82,15.4A7,7,0,0,1,2,9c0-.19,0-.38,0-.56l4.67,4.67,5.13-1.29,1.29-5.13L8.44,2,9,2a7,7,0,0,1,6.4,9.82l1.48,1.48h0l.56.56,1.39-1.38-1.15-1.15A8.51,8.51,0,0,0,18,9,9,9,0,0,0,4.69,1.1l6.2,6.21-.71,2.87-2.87.71L1.1,4.69a9,9,0,0,0,10.18,13l.26.26-.53.52,1,1L1.61,30A4.5,4.5,0,0,0,.27,33.18,4.54,4.54,0,0,0,8,36.39L18.48,26l1,1,.53-.53.25.26a9,9,0,0,0,13,10.18l-6.2-6.21.71-2.87ZM29.56,36,29,36a7,7,0,0,1-6.4-9.82L21.47,25l2-2-2.29-2.3,1.61-1.6,1.93,1.93,1.49,1.5A7,7,0,0,1,36,29c0,.19,0,.38,0,.56l-4.67-4.67-5.13,1.29-1.29,5.13Z" fill="#231f20"/></svg>
