<?xml version="1.0" encoding="utf-8"?>
<!-- Generator: Adobe Illustrator 15.0.0, SVG Export Plug-In . SVG Version: 6.00 Build 0)  -->
<svg xmlns="http://www.w3.org/2000/svg" xmlns:xlink="http://www.w3.org/1999/xlink" version="1.1" id="262144374_Layer_1_grid" x="0px" y="0px" width="38px" height="38px" viewBox="0 0 38 38" enable-background="new 0 0 38 38" xml:space="preserve">
<path fill="#231F20" d="M12,0v30h6v8h2V28h-6V2h10v26h-2v2h4V0H12z M19,20c-1.65,0-3,1.35-3,3s1.35,3,3,3s3-1.35,3-3S20.65,20,19,20  z M19,24.5c-0.83,0-1.5-0.67-1.5-1.5s0.67-1.5,1.5-1.5s1.5,0.67,1.5,1.5S19.83,24.5,19,24.5z M19,12c-1.65,0-3,1.35-3,3s1.35,3,3,3  s3-1.35,3-3S20.65,12,19,12z M19,16.5c-0.83,0-1.5-0.67-1.5-1.5s0.67-1.5,1.5-1.5s1.5,0.67,1.5,1.5S19.83,16.5,19,16.5z M19,4  c-1.65,0-3,1.35-3,3s1.35,3,3,3s3-1.35,3-3S20.65,4,19,4z M19,8.5c-0.83,0-1.5-0.67-1.5-1.5s0.67-1.5,1.5-1.5s1.5,0.67,1.5,1.5  S19.83,8.5,19,8.5z"/>
</svg>
