<?xml version="1.0" encoding="utf-8"?>
<!-- Generator: Adobe Illustrator 15.0.0, SVG Export Plug-In . SVG Version: 6.00 Build 0)  -->
<svg xmlns="http://www.w3.org/2000/svg" xmlns:xlink="http://www.w3.org/1999/xlink" version="1.1" id="262144375_Layer_1_grid" x="0px" y="0px" width="38px" height="38px" viewBox="0 0 38 38" enable-background="new 0 0 38 38" xml:space="preserve">
<path fill="#231F20" d="M14,25c0,2.75,2.25,5,5,5c2.751,0,5-2.25,5-5c0-1.639-0.809-3.087-2.036-4C23.191,20.087,24,18.639,24,17  c0-1.638-0.809-3.086-2.036-4C23.191,12.086,24,10.638,24,9c0-2.75-2.249-5-5-5c-2.75,0-5,2.25-5,5c0,1.638,0.81,3.086,2.037,4  C14.81,13.914,14,15.362,14,17c0,1.639,0.809,3.087,2.037,4C14.809,21.913,14,23.361,14,25z M15.8,9c0-1.771,1.429-3.2,3.2-3.2  s3.2,1.429,3.2,3.2s-1.429,3.2-3.2,3.2S15.8,10.771,15.8,9z M15.8,17c0-1.771,1.429-3.2,3.2-3.2s3.2,1.429,3.2,3.2  c0,1.771-1.429,3.2-3.2,3.2S15.8,18.771,15.8,17z M19,21.8c1.771,0,3.2,1.43,3.2,3.2s-1.429,3.2-3.2,3.2s-3.2-1.43-3.2-3.2  S17.229,21.8,19,21.8z M26,32V2H12v30h8v6h-2v-4h-6c-1.104,0-2-0.896-2-2V22H8v-2h2v-6H8v-2h2V6H8V4h2V2c0-1.104,0.896-2,2-2h14  c1.104,0,2,0.896,2,2v2h2v2h-2v6h2v2h-2v6h2v2h-2v10c0,1.104-0.896,2-2,2h-4v-2H26z"/>
</svg>
