<?xml version="1.0" encoding="utf-8"?>
<!-- Generator: Adobe Illustrator 15.0.0, SVG Export Plug-In . SVG Version: 6.00 Build 0)  -->
<svg xmlns="http://www.w3.org/2000/svg" xmlns:xlink="http://www.w3.org/1999/xlink" version="1.1" id="262144376_Layer_1_grid" x="0px" y="0px" width="38px" height="38px" viewBox="0 0 38 38" enable-background="new 0 0 38 38" xml:space="preserve">
<path fill="#231F20" d="M31,6h-5V5c0-1.65-1.35-3-3-3h-8c-1.65,0-3,1.35-3,3v1H7C5.35,6,4,7.35,4,9v3h25.91l-1.83,22H9.92L8.25,14  h-2l1.83,22h21.84l2-24H34V9C34,7.35,32.65,6,31,6z M14,5c0-0.55,0.45-1,1-1h8c0.55,0,1,0.45,1,1v1H14V5z M32,10H6V9  c0-0.55,0.45-1,1-1h24c0.55,0,1,0.45,1,1V10z"/>
</svg>
