<?xml version="1.0" encoding="utf-8"?>
<!-- Generator: Adobe Illustrator 15.0.0, SVG Export Plug-In . SVG Version: 6.00 Build 0)  -->
<svg xmlns="http://www.w3.org/2000/svg" xmlns:xlink="http://www.w3.org/1999/xlink" version="1.1" id="262185837_Layer_1_grid" x="0px" y="0px" width="38px" height="38px" viewBox="0 0 38 38" enable-background="new 0 0 38 38" xml:space="preserve">
<path fill="#231F20" d="M16,35.719V15.414l3-3l3,3v20.307C29.95,34.311,36,27.35,36,19c0-9.032-7.096-16.427-16-16.949v2  C27.804,4.569,34,11.068,34,19c0,6.514-4.182,12.067-10,14.131V17.414l2.293,2.293l1.414-1.414L19,9.586l-8.707,8.707l1.414,1.414  L14,17.414v15.717C8.18,31.068,4,25.514,4,19c0-7.932,6.197-14.431,14-14.949v-2C9.096,2.573,2,9.968,2,19  C2,27.346,8.057,34.295,16,35.719z"/>
</svg>
