<?xml version="1.0" encoding="utf-8"?>
<!-- Generator: Adobe Illustrator 15.0.0, SVG Export Plug-In . SVG Version: 6.00 Build 0)  -->
<svg xmlns="http://www.w3.org/2000/svg" xmlns:xlink="http://www.w3.org/1999/xlink" version="1.1" id="262144381_Layer_1_grid" x="0px" y="0px" width="38px" height="38px" viewBox="0 0 38 38" enable-background="new 0 0 38 38" xml:space="preserve">
<path fill="#231F20" d="M19.21,4c3.58,0,4.83,0.86,7,3.62c0.65,0.82,1.85,1.64,2.85,1.94C30.19,9.91,32.19,10,33.08,10h1.5l0.38-2  h-1.88c-0.95,0-2.65-0.11-3.44-0.35c-0.609-0.19-1.46-0.77-1.85-1.27C25.39,3.35,23.59,2,19.21,2C13.1,2,10,5.08,10,11.15V17  c0,2.81,1.45,5.77,4,7.5c-0.04,1.1-0.3,1.59-2.47,2.73c-0.33,0.18-0.65,0.34-0.95,0.479c-0.25,0.12-0.49,0.23-0.72,0.34  c-3.22,1.521-5.08,2.67-5.85,8.83L3.87,38h30.26l-0.14-1.12c-0.771-6.16-2.63-7.31-5.851-8.83c-0.229-0.109-0.47-0.22-0.72-0.34  c-0.3-0.14-0.62-0.3-0.95-0.479C24.3,26.09,24.04,25.6,24,24.5c1-0.68,1.83-1.54,2.47-2.51c5.061-0.271,6.511-4.21,7.21-7.34  C33.87,13.82,34.19,12,34.19,12H32c-5.28,0-10.39-0.76-12.04-6.29l-1.92,0.58c1.35,4.51,4.71,6.38,7.96,7.16V17c0,3.44-2.62,7-7,7  s-7-3.56-7-7v-5.85C12,6.2,14.22,4,19.21,4z M28,17v-3.19c1.45,0.18,2.78,0.19,3.77,0.19c-0.63,2.87-1.579,5.19-4.25,5.83  C27.84,18.9,28,17.94,28,17z M15.88,25.46c1.89,0.69,4.35,0.69,6.24,0c0.3,1.51,1.229,2.39,3.41,3.54c0.38,0.2,0.75,0.38,1.1,0.55  c0.23,0.11,0.45,0.21,0.66,0.311c2.57,1.21,3.85,1.81,4.56,6.14H20v-2h-2v2H6.15c0.71-4.33,1.99-4.93,4.56-6.14  c0.21-0.101,0.43-0.2,0.66-0.311c0.35-0.16,0.71-0.35,1.1-0.55C14.65,27.85,15.58,26.97,15.88,25.46z M23,12.85  c-0.61,0-1.1,0.38-1.1,1.65s0.489,1.65,1.1,1.65s1.1-0.38,1.1-1.65S23.61,12.85,23,12.85z M15,12.85c-0.61,0-1.1,0.38-1.1,1.65  s0.49,1.65,1.1,1.65s1.1-0.38,1.1-1.65S15.61,12.85,15,12.85z M21.67,18.34C21.22,19.27,20.29,20,19,20s-2.22-0.73-2.67-1.66  l-1.79,0.891C15.31,20.78,16.88,22,19,22s3.69-1.22,4.46-2.77L21.67,18.34z M18,14v4h2v-4H18z"/>
</svg>
