<?xml version="1.0" encoding="utf-8"?>
<!-- Generator: Adobe Illustrator 15.0.0, SVG Export Plug-In . SVG Version: 6.00 Build 0)  -->
<svg xmlns="http://www.w3.org/2000/svg" xmlns:xlink="http://www.w3.org/1999/xlink" version="1.1" id="262144379_Layer_1_grid" x="0px" y="0px" width="38px" height="38px" viewBox="0 0 38 38" enable-background="new 0 0 38 38" xml:space="preserve">
<path fill="#231F20" d="M35.99,36.858c-0.925-6.473-3.327-7.46-6.652-8.827c-0.594-0.245-1.232-0.507-1.919-0.824  c-0.555-0.256-0.992-0.469-1.358-0.659C27.312,24.926,28,22.93,28,21l-0.003-10.441l-1.18,0.215C26.099,10.905,25.58,11,25.053,11  c-1.438,0-2.369-0.237-3.354-0.487C20.708,10.261,19.684,10,18.208,10c-1.543,0-2.938,0.691-3.827,1.895l1.609,1.188  C16.498,12.395,17.307,12,18.208,12c1.225,0,2.085,0.219,2.997,0.451C22.217,12.708,23.363,13,25.053,13  c0.321,0,0.632-0.025,0.947-0.064V21c0,3.44-2.618,7-7,7s-7-3.56-7-7V10.294C12.227,9.592,13.613,6,18.208,6  c1.608,0,2.764,0.278,3.881,0.546C23.063,6.779,23.98,7,25.053,7C26.121,7,27.186,6.74,28,6.472V4.344  C27.336,4.609,26.173,5,25.053,5c-0.835,0-1.604-0.185-2.495-0.398C21.384,4.319,20.053,4,18.208,4  c-5.243,0-7.641,3.855-8.176,5.894L10,21c0,1.93,0.688,3.926,1.939,5.548c-0.366,0.19-0.804,0.403-1.358,0.659  c-0.686,0.316-1.325,0.579-1.919,0.823c-3.325,1.367-5.728,2.355-6.652,8.828L1.847,38h34.306L35.99,36.858z M4.177,36  c0.809-4.296,2.284-4.901,5.246-6.12c0.618-0.254,1.283-0.527,1.996-0.856c0.86-0.396,1.475-0.707,1.972-0.991  C14.858,29.229,16.752,30,19,30c2.247,0,4.141-0.771,5.608-1.967c0.606,0.347,1.297,0.678,1.973,0.99  c0.714,0.329,1.379,0.603,1.996,0.857c2.962,1.218,4.437,1.824,5.246,6.119H4.177z M15.261,20.06c-1.034,0-2.421-0.309-2.48-0.322  l0.438-1.951c0.34,0.076,1.37,0.273,2.042,0.273c0.888,0,1.652-0.056,1.666-0.057l0.147,1.994C17.04,20,16.222,20.06,15.261,20.06z   M22.739,20.06c-0.961,0-1.779-0.06-1.813-0.063l0.147-1.994c0.014,0.001,0.779,0.057,1.666,0.057c0.676,0,1.703-0.197,2.042-0.273  l0.438,1.951C25.16,19.751,23.772,20.06,22.739,20.06z M18,20v4h2v-4H18z"/>
</svg>
