<?xml version="1.0" encoding="utf-8"?>
<!-- Generator: Adobe Illustrator 15.0.0, SVG Export Plug-In . SVG Version: 6.00 Build 0)  -->
<svg xmlns="http://www.w3.org/2000/svg" xmlns:xlink="http://www.w3.org/1999/xlink" version="1.1" id="262185839_Capa_1_grid" x="0px" y="0px" width="38px" height="38px" viewBox="0 0 38 38" enable-background="new 0 0 38 38" xml:space="preserve">
<path fill="#231F20" d="M11,22H5c-0.552,0-1-0.447-1-1v-6c0-0.553,0.448-1,1-1h6c0.552,0,1,0.447,1,1v6C12,21.553,11.552,22,11,22z   M6,20h4v-4H6V20z M11,32H5c-0.552,0-1-0.447-1-1v-6c0-0.553,0.448-1,1-1h6c0.552,0,1,0.447,1,1v6C12,31.553,11.552,32,11,32z M6,30  h4v-4H6V30z M11,12H5c-0.552,0-1-0.448-1-1V5c0-0.552,0.448-1,1-1h6c0.552,0,1,0.448,1,1v6C12,11.552,11.552,12,11,12z M6,10h4V6H6  V10z M34,6H16v2h18V6z M34,10H16v2h18V10z M34,16H16v2h18V16z M34,20H16v2h18V20z M34,26H16v2h18V26z M34,30H16v2h18V30z"/>
</svg>
