<?xml version="1.0" encoding="utf-8"?>
<!-- Generator: Adobe Illustrator 15.0.0, SVG Export Plug-In . SVG Version: 6.00 Build 0)  -->
<svg xmlns="http://www.w3.org/2000/svg" xmlns:xlink="http://www.w3.org/1999/xlink" version="1.1" id="262185842_Capa_1_grid" x="0px" y="0px" width="38px" height="38px" viewBox="0 0 38 38" enable-background="new 0 0 38 38" xml:space="preserve">
<path fill="#231F20" d="M33,34H21c-0.553,0-1-0.447-1-1V21c0-0.553,0.447-1,1-1h12c0.553,0,1,0.447,1,1v12  C34,33.553,33.553,34,33,34z M22,32h10V22H22V32z M17,34H5c-0.552,0-1-0.447-1-1V21c0-0.553,0.448-1,1-1h12c0.552,0,1,0.447,1,1v12  C18,33.553,17.552,34,17,34z M6,32h10V22H6V32z M33,18H21c-0.553,0-1-0.448-1-1V5c0-0.552,0.447-1,1-1h12c0.553,0,1,0.448,1,1v12  C34,17.552,33.553,18,33,18z M22,16h10V6H22V16z M17,18H5c-0.552,0-1-0.448-1-1V5c0-0.552,0.448-1,1-1h12c0.552,0,1,0.448,1,1v12  C18,17.552,17.552,18,17,18z M6,16h10V6H6V16z"/>
</svg>
