<?xml version="1.0" encoding="utf-8"?>
<!-- Generator: Adobe Illustrator 15.0.0, SVG Export Plug-In . SVG Version: 6.00 Build 0)  -->
<svg xmlns="http://www.w3.org/2000/svg" xmlns:xlink="http://www.w3.org/1999/xlink" version="1.1" id="262185840_Capa_1_grid" x="0px" y="0px" width="38px" height="38px" viewBox="0 0 38 38" enable-background="new 0 0 38 38" xml:space="preserve">
<path fill="#231F20" d="M11,22H5c-0.552,0-1-0.447-1-1v-6c0-0.553,0.448-1,1-1h6c0.552,0,1,0.447,1,1v6C12,21.553,11.552,22,11,22z   M6,20h4v-4H6V20z M11,32H5c-0.552,0-1-0.447-1-1v-6c0-0.553,0.448-1,1-1h6c0.552,0,1,0.447,1,1v6C12,31.553,11.552,32,11,32z M6,30  h4v-4H6V30z M11,12H5c-0.552,0-1-0.448-1-1V5c0-0.552,0.448-1,1-1h6c0.552,0,1,0.448,1,1v6C12,11.552,11.552,12,11,12z M6,10h4V6H6  V10z M21,22h-6c-0.552,0-1-0.447-1-1v-6c0-0.553,0.448-1,1-1h6c0.553,0,1,0.447,1,1v6C22,21.553,21.553,22,21,22z M16,20h4v-4h-4V20  z M21,32h-6c-0.552,0-1-0.447-1-1v-6c0-0.553,0.448-1,1-1h6c0.553,0,1,0.447,1,1v6C22,31.553,21.553,32,21,32z M16,30h4v-4h-4V30z   M21,12h-6c-0.552,0-1-0.448-1-1V5c0-0.552,0.448-1,1-1h6c0.553,0,1,0.448,1,1v6C22,11.552,21.553,12,21,12z M16,10h4V6h-4V10z   M31,22h-6c-0.553,0-1-0.447-1-1v-6c0-0.553,0.447-1,1-1h6c0.553,0,1,0.447,1,1v6C32,21.553,31.553,22,31,22z M26,20h4v-4h-4V20z   M31,32h-6c-0.553,0-1-0.447-1-1v-6c0-0.553,0.447-1,1-1h6c0.553,0,1,0.447,1,1v6C32,31.553,31.553,32,31,32z M26,30h4v-4h-4V30z   M31,12h-6c-0.553,0-1-0.448-1-1V5c0-0.552,0.447-1,1-1h6c0.553,0,1,0.448,1,1v6C32,11.552,31.553,12,31,12z M26,10h4V6h-4V10z"/>
</svg>
