<?xml version="1.0" encoding="utf-8"?>
<!-- Generator: Adobe Illustrator 15.0.0, SVG Export Plug-In . SVG Version: 6.00 Build 0)  -->
<svg xmlns="http://www.w3.org/2000/svg" xmlns:xlink="http://www.w3.org/1999/xlink" version="1.1" id="262185838_Capa_1_grid" x="0px" y="0px" width="38px" height="38px" viewBox="0 0 38 38" enable-background="new 0 0 38 38" xml:space="preserve">
<path fill="#231F20" d="M17,34H5c-0.552,0-1-0.447-1-1V21c0-0.553,0.448-1,1-1h12c0.552,0,1,0.447,1,1v12C18,33.553,17.552,34,17,34  z M6,32h10V22H6V32z M17,18H5c-0.552,0-1-0.448-1-1V5c0-0.552,0.448-1,1-1h12c0.552,0,1,0.448,1,1v12C18,17.552,17.552,18,17,18z   M6,16h10V6H6V16z M34,6H20v2h14V6z M34,10H20v2h14V10z M34,14H20v2h14V14z M34,22H20v2h14V22z M34,26H20v2h14V26z M34,30H20v2h14  V30z"/>
</svg>
