<?xml version="1.0" encoding="utf-8"?>
<!-- Generator: Adobe Illustrator 15.0.0, SVG Export Plug-In . SVG Version: 6.00 Build 0)  -->
<svg xmlns="http://www.w3.org/2000/svg" xmlns:xlink="http://www.w3.org/1999/xlink" version="1.1" id="262144384_Layer_1_grid" x="0px" y="0px" width="38px" height="38px" viewBox="0 0 38 38" enable-background="new 0 0 38 38" xml:space="preserve">
<path fill="#231F20" d="M36,10V7c0-0.551-0.448-1-1-1H11c-0.551,0-1,0.449-1,1v3h22v2h-2.185C29.928,12.314,30,12.647,30,13v5h-4v-2  h2v-3c0-0.551-0.448-1-1-1H3c-0.551,0-1,0.449-1,1v3h14v2H2v13c0,0.552,0.449,1,1,1h24c0.552,0,1-0.448,1-1V20h2v6h5  c0.552,0,1-0.448,1-1V14h2v11c0,1.654-1.346,3-3,3h-5v3c0,1.654-1.346,3-3,3H3c-1.654,0-3-1.346-3-3V13c0-1.654,1.346-3,3-3h5V7  c0-1.654,1.346-3,3-3h24c1.654,0,3,1.346,3,3v5h-4v-2H36z M24,18v-2h-2v2H24z M20,18v-2h-2v2H20z"/>
</svg>
