<?xml version="1.0" encoding="utf-8"?>
<!-- Generator: Adobe Illustrator 15.0.0, SVG Export Plug-In . SVG Version: 6.00 Build 0)  -->
<svg xmlns="http://www.w3.org/2000/svg" xmlns:xlink="http://www.w3.org/1999/xlink" version="1.1" id="262144383_Layer_1_grid" x="0px" y="0px" width="38px" height="38px" viewBox="0 0 38 38" enable-background="new 0 0 38 38" xml:space="preserve">
<path fill="#231F20" d="M35,32H3c-1.654,0-3-1.346-3-3V9c0-1.654,1.346-3,3-3h32c1.654,0,3,1.346,3,3v5h-4v-2h2V9  c0-0.551-0.448-1-1-1H3C2.449,8,2,8.449,2,9v3h22v2H2v15c0,0.552,0.449,1,1,1h32c0.552,0,1-0.448,1-1V16h2v13  C38,30.654,36.654,32,35,32z M32,14h-2v-2h2V14z M28,14h-2v-2h2V14z"/>
</svg>
