<?xml version="1.0" encoding="utf-8"?>
<!-- Generator: Adobe Illustrator 15.0.0, SVG Export Plug-In . SVG Version: 6.00 Build 0)  -->
<svg xmlns="http://www.w3.org/2000/svg" xmlns:xlink="http://www.w3.org/1999/xlink" version="1.1" id="262144385_Layer_1_grid" x="0px" y="0px" width="38px" height="38px" viewBox="0 0 38 38" enable-background="new 0 0 38 38" xml:space="preserve">
<path fill="#231F20" d="M17.46,16.04l5.7-0.9c0.42-0.07,0.76-0.4,0.83-0.83c0.069-0.43-0.15-0.85-0.54-1.05l-6.24-3.18l1.1-6.92  c0.06-0.43-0.15-0.85-0.54-1.05c-0.38-0.2-0.85-0.12-1.16,0.18l-4.95,4.96L5.41,4.07c-0.38-0.2-0.85-0.12-1.16,0.18  c-0.3,0.31-0.38,0.78-0.18,1.16l3.18,6.25l-4.96,4.95c-0.3,0.31-0.38,0.78-0.18,1.16c0.2,0.391,0.62,0.61,1.05,0.54l6.92-1.1  l3.18,6.25c0.2,0.38,0.62,0.6,1.05,0.53c0.43-0.07,0.76-0.41,0.83-0.83l0.9-5.7l19.28,19.28l1.42-1.42L17.46,16.04z M14.49,14.49  l-0.85,5.31l-2.44-4.79l-5.32,0.84l3.81-3.81L7.25,7.25l4.79,2.44l3.81-3.81l-0.84,5.32l4.79,2.45L14.49,14.49z"/>
</svg>
