<?xml version="1.0" encoding="utf-8"?>
<!-- Generator: Adobe Illustrator 15.0.0, SVG Export Plug-In . SVG Version: 6.00 Build 0)  -->
<svg xmlns="http://www.w3.org/2000/svg" xmlns:xlink="http://www.w3.org/1999/xlink" version="1.1" id="262144386_Layer_1_grid" x="0px" y="0px" width="38px" height="38px" viewBox="0 0 38 38" enable-background="new 0 0 38 38" xml:space="preserve">
<path fill="#231F20" d="M19,2C13.82,2,9.183,4.335,6.062,8h2.765c1.46-1.352,3.184-2.425,5.092-3.114  C12.871,6.219,11.986,7.96,11.324,10h-6.72c-1.131,1.804-1.934,3.828-2.323,6h2.037c0.289-1.414,0.761-2.761,1.417-4h5.034  c-0.429,1.84-0.692,3.861-0.755,6H2.051C2.031,18.333,2,18.662,2,19c0,1.739,0.265,3.418,0.753,5h2.125  c-0.45-1.267-0.752-2.604-0.845-4h5.981c0.063,2.139,0.326,4.159,0.755,6H3.526C6.2,31.888,12.123,36,19,36c9.374,0,17-7.626,17-17  S28.374,2,19,2z M7.007,28h4.317c0.662,2.039,1.546,3.781,2.594,5.114C11.145,32.112,8.749,30.315,7.007,28z M18,33.84  c-1.833-0.59-3.46-2.77-4.556-5.84H18V33.84z M18,26h-5.162c-0.462-1.822-0.752-3.857-0.822-6H18V26z M18,18h-5.984  c0.07-2.142,0.36-4.178,0.822-6H18V18z M18,10h-4.556C14.54,6.93,16.167,4.75,18,4.16V10z M32.265,12c0.96,1.813,1.56,3.845,1.702,6  h-5.981c-0.063-2.139-0.325-4.16-0.755-6H32.265z M30.993,10h-4.317c-0.662-2.04-1.546-3.781-2.594-5.114  C26.854,5.888,29.251,7.685,30.993,10z M20,4.16c1.833,0.59,3.46,2.77,4.556,5.84H20V4.16z M20,12h5.162  c0.462,1.822,0.752,3.858,0.821,6H20V12z M20,20h5.983c-0.069,2.143-0.359,4.178-0.821,6H20V20z M20,33.84V28h4.556  C23.46,31.07,21.833,33.25,20,33.84z M24.082,33.114c1.048-1.333,1.932-3.075,2.594-5.114h4.317  C29.251,30.315,26.854,32.112,24.082,33.114z M32.265,26H27.23c0.43-1.841,0.692-3.861,0.755-6h5.981  C33.824,22.155,33.225,24.188,32.265,26z"/>
</svg>
