<?xml version="1.0" encoding="utf-8"?>
<!-- Generator: Adobe Illustrator 15.0.0, SVG Export Plug-In . SVG Version: 6.00 Build 0)  -->
<svg xmlns="http://www.w3.org/2000/svg" xmlns:xlink="http://www.w3.org/1999/xlink" version="1.1" id="262185845_Layer_1_grid" x="0px" y="0px" width="38px" height="38px" viewBox="0 0 38 38" enable-background="new 0 0 38 38" xml:space="preserve">
<path fill="#231F20" d="M22,2.281V3c0,3.467-4.038,7-8,7v2c4.381,0,8.687-3.36,9.748-7.217c5.301,1.775,9.278,6.429,10.085,12.101  c-0.781-0.443-1.733-0.821-2.761-0.821c-2.102,0-3.195,0.817-4.516,2.985C25.309,18.174,24,16.917,24,16h-2  c0,2.072,2.282,3.918,3.577,4.799c-0.364,0.691-0.759,1.47-1.202,2.344c-2.254,4.441-3,4.795-3.742,4.795  c-0.782,0-1.652-0.379-2.935-4.904c-0.079-0.279-0.275-0.51-0.538-0.633c-2.681-1.256-3.224-1.901-3.224-3.838  c0-1.443,1.445-2.563,2.688-2.563H22v-2h-5.375c-2.217,0-4.688,1.874-4.688,4.563c0,2.937,1.227,4.12,3.963,5.452  c1.103,3.759,2.27,5.923,4.733,5.923c1.992,0,3.179-1.267,5.525-5.891c2.78-5.481,3.194-5.984,4.914-5.984  c1.113,0,2.29,0.818,2.906,1.354C33.756,27.494,27.131,34,19,34c-8.271,0-15-6.729-15-15c0-8.271,6.729-15,15-15  c0.272,0,0.537,0.03,0.805,0.045C19.927,3.697,20,3.347,20,3V2.051C19.667,2.031,19.337,2,19,2C9.626,2,2,9.626,2,19s7.626,17,17,17  s17-7.626,17-17C36,10.651,29.945,3.705,22,2.281z"/>
</svg>
