<?xml version="1.0" encoding="utf-8"?>
<!-- Generator: Adobe Illustrator 15.0.0, SVG Export Plug-In . SVG Version: 6.00 Build 0)  -->
<svg xmlns="http://www.w3.org/2000/svg" xmlns:xlink="http://www.w3.org/1999/xlink" version="1.1" id="262185844_Layer_1_grid" x="0px" y="0px" width="38px" height="38px" viewBox="0 0 38 38" enable-background="new 0 0 38 38" xml:space="preserve">
<path fill="#231F20" d="M36,19c0-9.374-7.626-17-17-17S2,9.626,2,19c0,1.177,0.121,2.325,0.349,3.435l1.98-1.987  c1.623-1.638,2.365-2.385,4.045-2.385c1.036,0,2.872,2.078,3.787,3.482c0.178,0.273,0.479,0.443,0.805,0.454  c0.322,0.029,0.637-0.138,0.833-0.399l2.053-2.736C17.117,20.831,20.072,24,26,24v-2c-1.939,0-3.493-0.396-4.729-0.973  C22.981,18.929,24,17.458,24,13.981c0-3.004,1.014-4.476,4.614-6.481C31.902,10.254,34,14.385,34,19  c0,2.188-0.481,4.262-1.327,6.138C31.839,24.542,30.64,24,29.018,24C25.918,24,24,26.157,24,28.156c0,0.73,0.14,1.231,0.426,1.533  C24.614,29.888,24.876,30,25.15,30h4.014c-2.676,2.475-6.241,4-10.164,4c-6.87,0-12.66-4.649-14.428-10.963L2.98,24.636  C5.313,31.244,11.604,36,19,36c6.607,0,12.332-3.797,15.145-9.315l0.018-0.011c-0.001-0.002-0.006-0.009-0.007-0.012  C35.325,24.356,36,21.758,36,19z M22,13.981c0,2.9-0.722,3.882-2.454,5.996c-1.883-1.461-2.561-3.197-2.606-3.32  c-0.125-0.345-0.43-0.593-0.793-0.646c-0.363-0.056-0.727,0.096-0.946,0.389l-2.183,2.91c-1.043-1.337-2.848-3.247-4.643-3.247  c-1.926,0-3.104,0.736-4.32,1.855C4.613,10.152,11.094,4,19,4c2.87,0,5.545,0.825,7.827,2.229C23.214,8.417,22,10.455,22,13.981z   M30.972,28h-4.959c0.115-0.758,1.041-2,3.005-2c1.273,0,2.147,0.474,2.697,0.92C31.482,27.292,31.234,27.651,30.972,28z"/>
</svg>
