<?xml version="1.0" encoding="utf-8"?>
<!-- Generator: Adobe Illustrator 15.0.0, SVG Export Plug-In . SVG Version: 6.00 Build 0)  -->
<svg xmlns="http://www.w3.org/2000/svg" xmlns:xlink="http://www.w3.org/1999/xlink" version="1.1" id="262185843_Layer_1_grid" x="0px" y="0px" width="38px" height="38px" viewBox="0 0 38 38" enable-background="new 0 0 38 38" xml:space="preserve">
<path fill="#231F20" d="M19,2c-4.692,0-8.946,1.911-12.025,4.995v0.299c0,4.667,1.913,6.27,4.561,8.488  c1.221,1.023,2.605,2.182,4.213,3.901c2.46,2.63,4.171,5.79,6.312,11.659C22.204,31.737,22.58,32,23,32c0.004,0,0.009,0,0.014,0  c0.425-0.006,0.8-0.279,0.935-0.683c0.603-1.803,1.453-3.225,2.203-4.479C27.144,25.178,28,23.744,28,22c0-3.028-3.468-6-7-6  c-1.984,0-3.568,0.937-4.459,1.62c-0.916-0.932-1.766-1.702-2.534-2.366c-0.682-0.728-0.482-1.457-0.363-1.74  c0.197-0.467,0.688-0.967,1.477-0.967c1.91,0,3.179,1.167,3.187,1.174c0.354,0.34,0.902,0.374,1.293,0.079  c0.171-0.128,4.01-3.088,4.365-8.938C29.8,6.918,34,12.471,34,19c0,8.271-6.729,15-15,15c-8.271,0-15-6.729-15-15  c0-2.542,0.644-4.932,1.767-7.029c-0.314-0.787-0.55-1.674-0.678-2.712C3.149,12.021,2,15.376,2,19c0,9.374,7.626,17,17,17  s17-7.626,17-17S28.374,2,19,2z M21,18c2.575,0,5,2.254,5,4c0,1.192-0.69,2.349-1.565,3.812c-0.45,0.754-0.935,1.563-1.391,2.483  c-1.666-4.201-3.184-6.91-5.137-9.198C18.58,18.61,19.686,18,21,18z M18.947,11.708c-0.772-0.505-2.107-1.16-3.827-1.16  c-1.456,0-2.759,0.86-3.32,2.19c-0.069,0.164-0.125,0.331-0.168,0.499c-1.698-1.501-2.534-2.685-2.636-5.381  C11.653,5.467,15.154,4,19,4c1.021,0,2.018,0.104,2.981,0.3C21.883,8.262,19.932,10.724,18.947,11.708z"/>
</svg>
