<?xml version="1.0" encoding="utf-8"?>
<!-- Generator: Adobe Illustrator 15.0.0, SVG Export Plug-In . SVG Version: 6.00 Build 0)  -->
<svg xmlns="http://www.w3.org/2000/svg" xmlns:xlink="http://www.w3.org/1999/xlink" version="1.1" id="262144389_Layer_1_grid" x="0px" y="0px" width="38px" height="38px" viewBox="0 0 38 38" enable-background="new 0 0 38 38" xml:space="preserve">
<path fill="#231F20" d="M38,36.586L36.586,38L25.447,26.861C28.229,24.476,30,20.943,30,17c0-7.168-5.832-13-13-13  C9.832,4,4,9.832,4,17c0,7.168,5.832,13,13,13c2.499,0,4.826-0.721,6.811-1.947l1.438,1.438C22.88,31.065,20.052,32,17,32  C8.729,32,2,25.271,2,17C2,8.729,8.729,2,17,2c8.271,0,15,6.729,15,15c0,3.776-1.413,7.222-3.725,9.861L38,36.586z M24,16h-6v-6h-2  v6h-6v2h6v6h2v-6h6V16z"/>
</svg>
