<?xml version="1.0" encoding="utf-8"?>
<!-- Generator: Adobe Illustrator 16.0.0, SVG Export Plug-In . SVG Version: 6.00 Build 0)  -->
<!DOCTYPE svg PUBLIC "-//W3C//DTD SVG 1.1//EN" "http://www.w3.org/Graphics/SVG/1.1/DTD/svg11.dtd">
<svg version="1.1" id="Capa_1" xmlns="http://www.w3.org/2000/svg" xmlns:xlink="http://www.w3.org/1999/xlink" x="0px" y="0px"
	 width="48px" height="48px" viewBox="0 0 48 48" enable-background="new 0 0 48 48" xml:space="preserve">
<g>
	<path d="M24,36c-2.21,0-4-1.79-4-4h-4v6h16.01v-6H28C28,34.21,26.21,36,24,36z"/>
	<path d="M41,4H7C4.8,4,4,5.79,4,7v34c0,2.2,1.79,3,3,3h34c2.2,0,3-1.79,3-3V7C44,4.8,42.21,4,41,4z M14,9c0,0,0-1,1-1h17.99
		c0,0,1.01,0,1.01,1v14c0,0-0.01,1-1.01,1H15c0,0-1,0-1-1S14,9,14,9z M10.001,8c1.104,0,2,0.896,2,2s-0.896,2-2,2s-2-0.896-2-2
		S8.896,8,10.001,8z M10.001,14c1.104,0,2,0.896,2,2s-0.896,2-2,2s-2-0.896-2-2S8.896,14,10.001,14z M10.001,24
		c-1.104,0-2-0.896-2-2s0.896-2,2-2s2,0.896,2,2S11.105,24,10.001,24z M35.01,31.998h-1.001v6.004c0,1.299-1.03,2-2,2H16
		c-1.299,0-2-1.03-2-2v-6.004h-1c-0.552,0-1-0.447-1-1s0.448-1,1-1h22.01c0.553,0,1,0.447,1,1S35.563,31.998,35.01,31.998z
		 M37.998,24c-1.104,0-2-0.896-2-2s0.896-2,2-2s2,0.896,2,2S39.103,24,37.998,24z M37.998,18c-1.104,0-2-0.896-2-2s0.896-2,2-2
		s2,0.896,2,2S39.103,18,37.998,18z M37.998,12c-1.104,0-2-0.896-2-2s0.896-2,2-2s2,0.896,2,2S39.103,12,37.998,12z"/>
</g>
</svg>
