<?xml version="1.0" encoding="utf-8"?>
<!-- Generator: Adobe Illustrator 16.0.0, SVG Export Plug-In . SVG Version: 6.00 Build 0)  -->
<!DOCTYPE svg PUBLIC "-//W3C//DTD SVG 1.1//EN" "http://www.w3.org/Graphics/SVG/1.1/DTD/svg11.dtd">
<svg version="1.1" id="Capa_1" xmlns="http://www.w3.org/2000/svg" xmlns:xlink="http://www.w3.org/1999/xlink" x="0px" y="0px"
	 width="48px" height="48px" viewBox="0 0 48 48" enable-background="new 0 0 48 48" xml:space="preserve">
<path d="M44.56,37.37C44.29,36.55,43.53,36,42.67,36H42V20h2.04c0.86,0,1.62-0.55,1.89-1.36c0.28-0.81,0-1.71-0.68-2.23L25.16,4.37
	c-0.67-0.48-1.65-0.48-2.32,0l-20,11.98l-0.09,0.06c-0.68,0.52-0.96,1.42-0.68,2.23C2.34,19.45,3.1,20,3.96,20H6v16H5.33
	c-0.86,0-1.62,0.55-1.89,1.37l-1.34,4c-0.2,0.6-0.1,1.28,0.28,1.8C2.75,43.69,3.36,44,4,44h40c0.64,0,1.25-0.31,1.62-0.83
	c0.38-0.52,0.479-1.2,0.28-1.8L44.56,37.37z M16,36h-4V20h4V36z M26,36h-4V20h4V36z M36,36h-4V20h4V36z"/>
</svg>
