<?xml version="1.0" encoding="utf-8"?>
<!-- Generator: Adobe Illustrator 16.0.0, SVG Export Plug-In . SVG Version: 6.00 Build 0)  -->
<!DOCTYPE svg PUBLIC "-//W3C//DTD SVG 1.1//EN" "http://www.w3.org/Graphics/SVG/1.1/DTD/svg11.dtd">
<svg version="1.1" id="Capa_1" xmlns="http://www.w3.org/2000/svg" xmlns:xlink="http://www.w3.org/1999/xlink" x="0px" y="0px"
	 width="48px" height="48px" viewBox="0 0 48 48" enable-background="new 0 0 48 48" xml:space="preserve">
<g>
	<path d="M4,32.11c-0.32-0.07-0.66-0.101-1-0.101H2V35c0,2.21,1.79,3,3,3h3v-0.98C8,36.67,7.96,36.33,7.9,36
		C7.49,34.05,5.95,32.51,4,32.11z"/>
	<path d="M44,32.12c-1.94,0.399-3.47,1.939-3.88,3.88c-0.061,0.33-0.101,0.67-0.101,1.02V38H43c2.2,0,3-1.79,3-3v-2.99h-0.97
		C44.68,32.01,44.33,32.05,44,32.12z"/>
	<path d="M4,15.9c1.96-0.4,3.5-1.94,3.9-3.9C7.97,11.68,8,11.34,8,11v-1H5c-2.2,0-3,1.79-3,3v3h1C3.34,16,3.68,15.97,4,15.9z"/>
	<path d="M24,16c-3.31,0-6,3.59-6,8s2.69,8,6,8c3.31,0,6-3.59,6-8S27.31,16,24,16z"/>
	<path d="M43,10h-2.98v1c0,0.34,0.03,0.68,0.101,1c0.399,1.95,1.93,3.49,3.88,3.9c0.33,0.06,0.68,0.1,1.03,0.1H46v-3
		C46,10.79,44.21,10,43,10z"/>
	<path d="M44,17.91c-3.05-0.44-5.47-2.86-5.9-5.91c-0.06-0.33-0.08-0.66-0.08-1v-1H10v1c0,0.34-0.02,0.67-0.08,1
		C9.49,15.06,7.06,17.49,4,17.92C3.67,17.98,3.34,18,3,18H2v12.01h1c0.34,0,0.67,0.021,1,0.08C7.05,30.52,9.48,32.94,9.92,36
		C9.97,36.33,10,36.67,10,37.02V38h28.02v-0.98c0-0.35,0.03-0.689,0.08-1.02c0.44-3.05,2.86-5.46,5.9-5.9
		c0.33-0.06,0.68-0.09,1.03-0.09H46V18h-0.97C44.68,18,44.33,17.97,44,17.91z M24,34c-4.41,0-8-4.49-8-10s3.59-10,8-10s8,4.49,8,10
		S28.41,34,24,34z"/>
</g>
</svg>
