<?xml version="1.0" encoding="utf-8"?>
<!-- Generator: Adobe Illustrator 16.0.0, SVG Export Plug-In . SVG Version: 6.00 Build 0)  -->
<!DOCTYPE svg PUBLIC "-//W3C//DTD SVG 1.1//EN" "http://www.w3.org/Graphics/SVG/1.1/DTD/svg11.dtd">
<svg version="1.1" id="Capa_1" xmlns="http://www.w3.org/2000/svg" xmlns:xlink="http://www.w3.org/1999/xlink" x="0px" y="0px"
	 width="48px" height="48px" viewBox="0 0 48 48" enable-background="new 0 0 48 48" xml:space="preserve">
<g>
	<path d="M39,12H22.094c-1.641,0-2.873-0.603-3.875-1.897C17.077,8.629,15.874,8,14.195,8H9c-1.657,0-3,1.343-3,3v24
		c0,1.656,1.343,3,3,3h30c1.656,0,3-1.344,3-3V15C42,13.343,40.656,12,39,12z M40,35c0,0.553-0.448,1-1,1H9c-0.552,0-1-0.447-1-1V20
		c0-1.104,0.896-2,2-2h28c1.104,0,2,0.896,2,2V35z"/>
	<path d="M28.207,22.794c-0.391-0.391-1.023-0.391-1.414,0L24,25.588l-2.793-2.793c-0.39-0.391-1.024-0.391-1.414,0
		c-0.391,0.391-0.391,1.023,0,1.414l2.793,2.794l-2.793,2.793c-0.391,0.391-0.391,1.023,0,1.414c0.39,0.391,1.024,0.391,1.414,0
		L24,28.417l2.793,2.793c0.195,0.195,0.451,0.293,0.707,0.293s0.512-0.098,0.707-0.293c0.391-0.391,0.391-1.023,0-1.414
		l-2.793-2.793l2.793-2.794C28.598,23.818,28.598,23.185,28.207,22.794z"/>
</g>
</svg>
