<?xml version="1.0" encoding="utf-8"?>
<!-- Generator: Adobe Illustrator 16.0.0, SVG Export Plug-In . SVG Version: 6.00 Build 0)  -->
<!DOCTYPE svg PUBLIC "-//W3C//DTD SVG 1.1//EN" "http://www.w3.org/Graphics/SVG/1.1/DTD/svg11.dtd">
<svg version="1.1" id="Capa_1" xmlns="http://www.w3.org/2000/svg" xmlns:xlink="http://www.w3.org/1999/xlink" x="0px" y="0px"
	 width="48px" height="48px" viewBox="0 0 48 48" enable-background="new 0 0 48 48" xml:space="preserve">
<path d="M35,10H7c-3.96,0-5,3.27-5,5v18c0,2.2,1.79,3,3,3h1.1c0.46,2.28,2.48,4,4.9,4s4.44-1.72,4.9-4h14.22
	c0.46,2.28,2.479,4,4.899,4c2.421,0,4.44-1.72,4.9-4H43c2.2,0,3-1.79,3-3V21C46,14.93,41.07,10,35,10z M11,38c-1.65,0-3-1.34-3-3
	c0-1.65,1.35-3,3-3s3,1.35,3,3C14,36.66,12.65,38,11,38z M15,23c0,0,0,1-1,1H9.01C8.55,23.99,8,23.81,8,23v-8c0,0,0-1,1-1h5
	c1,0,1,1,1,1V23z M24,23c0,0,0,1-1,1h-4.99C17.55,23.99,17,23.81,17,23v-8c0,0,0-1,1-1h5c1,0,1,1,1,1V23z M35.02,38
	c-1.659,0-3-1.34-3-3c0-1.65,1.341-3,3-3c1.65,0,3,1.35,3,3C38.02,36.66,36.67,38,35.02,38z M42,24H31c-1,0-1-1-1-1v-8c0-1,1-1,1-1
	h4c3.86,0,7,3.14,7,7V24z"/>
</svg>
