<?xml version="1.0" encoding="utf-8"?>
<!-- Generator: Adobe Illustrator 16.0.0, SVG Export Plug-In . SVG Version: 6.00 Build 0)  -->
<!DOCTYPE svg PUBLIC "-//W3C//DTD SVG 1.1//EN" "http://www.w3.org/Graphics/SVG/1.1/DTD/svg11.dtd">
<svg version="1.1" id="Capa_1" xmlns="http://www.w3.org/2000/svg" xmlns:xlink="http://www.w3.org/1999/xlink" x="0px" y="0px"
	 width="48px" height="48px" viewBox="0 0 48 48" enable-background="new 0 0 48 48" xml:space="preserve">
<g>
	<circle cx="17" cy="22.999" r="3"/>
	<circle cx="31" cy="22.999" r="3"/>
	<path d="M43,6.003H5c-2.201,0-3,1.794-3,3v27.995c0,2.201,1.794,3,3,3h38c2.201,0,3-1.794,3-3V9.003
		C46,6.802,44.206,6.003,43,6.003z M23,35c0,1-1,1-1,1v0.004H7v-0.006c-1,0-1-1-1-1V11c0,0,0-1,1-1h15c0,0,1,0,1,1V35z M42,34.998
		c0,1-1,1-1,1v0.006H26V36c-1,0-1-1-1-1V11c0,0,0-1,1-1h15c0,0,1,0,1,1V34.998z"/>
</g>
</svg>
