<?xml version="1.0" encoding="utf-8"?>
<!-- Generator: Adobe Illustrator 16.0.0, SVG Export Plug-In . SVG Version: 6.00 Build 0)  -->
<!DOCTYPE svg PUBLIC "-//W3C//DTD SVG 1.1//EN" "http://www.w3.org/Graphics/SVG/1.1/DTD/svg11.dtd">
<svg version="1.1" id="Layer_1" xmlns="http://www.w3.org/2000/svg" xmlns:xlink="http://www.w3.org/1999/xlink" x="0px" y="0px"
	 width="48px" height="48px" viewBox="0 0 48 48" enable-background="new 0 0 48 48" xml:space="preserve">
<g>
	<rect x="25" y="21" width="5" height="5"/>
	<rect x="18" y="21" width="5" height="5"/>
	<rect x="25" y="28" width="5" height="5"/>
	<rect x="32" y="21" width="5" height="5"/>
	<rect x="11" y="28" width="5" height="5"/>
	<rect x="18" y="28" width="5" height="5"/>
	<path d="M39,8H9c-1.657,0-3,1.343-3,3v26c0,1.657,1.343,3,3,3h30c1.657,0,3-1.343,3-3V11C42,9.343,40.657,8,39,8z M40,37
		c0,0.553-0.447,1-1,1H9c-0.552,0-1-0.447-1-1V16h32V37z"/>
	<rect x="11" y="21" width="5" height="5"/>
</g>
</svg>
