<?xml version="1.0" encoding="utf-8"?>
<!-- Generator: Adobe Illustrator 16.0.0, SVG Export Plug-In . SVG Version: 6.00 Build 0)  -->
<!DOCTYPE svg PUBLIC "-//W3C//DTD SVG 1.1//EN" "http://www.w3.org/Graphics/SVG/1.1/DTD/svg11.dtd">
<svg version="1.1" id="Layer_1" xmlns="http://www.w3.org/2000/svg" xmlns:xlink="http://www.w3.org/1999/xlink" x="0px" y="0px"
	 width="48px" height="48px" viewBox="0 0 48 48" enable-background="new 0 0 48 48" xml:space="preserve">
<g>
	<path d="M19.85,32.012c-0.517,0.078-0.887,0.542-0.847,1.063C19.042,33.597,19.477,34,20,34h8c0.523,0,0.958-0.403,0.997-0.925
		s-0.33-0.985-0.848-1.063L26,31.686V20c0-0.36-0.193-0.693-0.507-0.87c-0.314-0.178-0.698-0.173-1.008,0.013l-5,3
		c-0.474,0.284-0.627,0.898-0.343,1.372s0.898,0.627,1.372,0.343L22,22.966v8.719L19.85,32.012z"/>
	<path d="M39,8H9c-1.657,0-3,1.343-3,3v26c0,1.657,1.343,3,3,3h30c1.657,0,3-1.343,3-3V11C42,9.343,40.657,8,39,8z M40,37
		c0,0.553-0.447,1-1,1H9c-0.552,0-1-0.447-1-1V16h32V37z"/>
</g>
</svg>
