<?xml version="1.0" encoding="utf-8"?>
<!-- Generator: Adobe Illustrator 16.0.0, SVG Export Plug-In . SVG Version: 6.00 Build 0)  -->
<!DOCTYPE svg PUBLIC "-//W3C//DTD SVG 1.1//EN" "http://www.w3.org/Graphics/SVG/1.1/DTD/svg11.dtd">
<svg version="1.1" id="Capa_1" xmlns="http://www.w3.org/2000/svg" xmlns:xlink="http://www.w3.org/1999/xlink" x="0px" y="0px"
	 width="48px" height="48px" viewBox="0 0 48 48" enable-background="new 0 0 48 48" xml:space="preserve">
<g>
	<path d="M32,34h1c0.81,0,0.99-0.55,1-1.01V32C32.9,32,32,32.9,32,34z"/>
	<path d="M16,22h-1c-0.81,0-0.99,0.55-1,1.01V24C15.1,24,16,23.1,16,22z"/>
	<path d="M14,32v1c0,0.81,0.55,0.99,1.01,1H16C16,32.9,15.1,32,14,32z"/>
	<path d="M32.99,22H32c0,1.1,0.9,2,2,2v-1C34,22.19,33.45,22.01,32.99,22z"/>
	<path d="M24,26c-1.1,0-2,0.9-2,2s0.9,2,2,2c1.1,0,2-0.9,2-2S25.1,26,24,26z"/>
	<path d="M35,12h-1V9c0-2.2-1.79-3-3-3H17c-2.2,0-3,1.79-3,3v3h-1c-5.54,0-7,4.58-7,7v20.01c0,2.2,1.79,3,3,3h30c2.21,0,3-1.79,3-3
		V19C42,13.46,37.42,12,35,12z M16,9.01C16.01,8.55,16.19,8,17,8h13.99C31.45,8.01,32,8.19,32,9v3H16V9.01z M36,33c0,1.21-0.8,3-3,3
		H15c-1.21,0-3-0.8-3-3V23c0-1.21,0.8-3,3-3h18c1.21,0,3,0.8,3,3V33z"/>
	<path d="M30,22H18c0,2.21-1.79,4-4,4v4c2.21,0,4,1.79,4,4h12c0-2.21,1.79-4,4-4v-4C31.79,26,30,24.21,30,22z M24,32
		c-2.21,0-4-1.79-4-4s1.79-4,4-4s4,1.79,4,4S26.21,32,24,32z"/>
</g>
</svg>
