<?xml version="1.0" encoding="utf-8"?>
<!-- Generator: Adobe Illustrator 16.0.0, SVG Export Plug-In . SVG Version: 6.00 Build 0)  -->
<!DOCTYPE svg PUBLIC "-//W3C//DTD SVG 1.1//EN" "http://www.w3.org/Graphics/SVG/1.1/DTD/svg11.dtd">
<svg version="1.1" id="Capa_1" xmlns="http://www.w3.org/2000/svg" xmlns:xlink="http://www.w3.org/1999/xlink" x="0px" y="0px"
	 width="48px" height="48px" viewBox="0 0 48 48" enable-background="new 0 0 48 48" xml:space="preserve">
<path d="M43,10H5c-2.2,0-3,1.79-3,3v22c0,2.21,1.79,3,3,3h38c2.2,0,3-1.79,3-3V13C46,10.79,44.2,10,43,10z M34,14c1.1,0,2,0.9,2,2
	s-0.9,2-2,2s-2-0.9-2-2S32.9,14,34,14z M28,14c1.1,0,2,0.9,2,2s-0.9,2-2,2s-2-0.9-2-2S26.9,14,28,14z M7,14h12c0.55,0,1,0.45,1,1
	s-0.45,1-1,1H7c-0.55,0-1-0.45-1-1S6.45,14,7,14z M7,22h30c0.55,0,1,0.45,1,1s-0.45,1-1,1H7c-0.55,0-1-0.45-1-1S6.45,22,7,22z
	 M19,34H7c-0.55,0-1-0.45-1-1s0.45-1,1-1h12c0.55,0,1,0.45,1,1S19.55,34,19,34z M25,28H7c-0.55,0-1-0.45-1-1s0.45-1,1-1h18
	c0.55,0,1,0.45,1,1S25.55,28,25,28z M41,34H27c-0.55,0-1-0.45-1-1s0.45-1,1-1h14c0.55,0,1,0.45,1,1S41.55,34,41,34z M40,18
	c-1.1,0-2-0.9-2-2s0.9-2,2-2s2,0.9,2,2S41.1,18,40,18z"/>
</svg>
