<?xml version="1.0" encoding="utf-8"?>
<!-- Generator: Adobe Illustrator 16.0.0, SVG Export Plug-In . SVG Version: 6.00 Build 0)  -->
<!DOCTYPE svg PUBLIC "-//W3C//DTD SVG 1.1//EN" "http://www.w3.org/Graphics/SVG/1.1/DTD/svg11.dtd">
<svg version="1.1" id="Capa_1" xmlns="http://www.w3.org/2000/svg" xmlns:xlink="http://www.w3.org/1999/xlink" x="0px" y="0px"
	 width="48px" height="48px" viewBox="0 0 48 48" enable-background="new 0 0 48 48" xml:space="preserve">
<g>
	<path d="M24,4C12.97,4,4,12.97,4,24c0,11.03,8.97,20,20,20c11.03,0,20-8.97,20-20C44,12.97,35.03,4,24,4z M31,29.082
		c0,3.48-2.613,6.361-6,6.844V38c0,0.553-0.448,1-1,1s-1-0.447-1-1v-2.074c-3.387-0.482-6-3.363-6-6.844c0-0.553,0.448-1,1-1
		s1,0.447,1,1c0,2.378,1.721,4.366,4,4.823v-9.242c-3.046-1.301-6-2.738-6-5.737c0-3.48,2.613-6.359,6-6.842V10c0-0.552,0.448-1,1-1
		s1,0.448,1,1v2.084c3.387,0.482,6,3.362,6,6.842c0,0.552-0.447,1-1,1s-1-0.448-1-1c0-2.376-1.721-4.364-4-4.821v9.235
		C27.932,24.593,31,26.088,31,29.082z"/>
	<path d="M25,33.905c2.279-0.457,4-2.445,4-4.823c0-1.559-1.803-2.587-4-3.562V33.905z"/>
	<path d="M19,18.926c0,1.555,1.804,2.582,4,3.557v-8.378C20.721,14.562,19,16.549,19,18.926z"/>
</g>
</svg>
