<?xml version="1.0" encoding="utf-8"?>
<!-- Generator: Adobe Illustrator 16.0.0, SVG Export Plug-In . SVG Version: 6.00 Build 0)  -->
<!DOCTYPE svg PUBLIC "-//W3C//DTD SVG 1.1//EN" "http://www.w3.org/Graphics/SVG/1.1/DTD/svg11.dtd">
<svg version="1.1" id="Capa_1" xmlns="http://www.w3.org/2000/svg" xmlns:xlink="http://www.w3.org/1999/xlink" x="0px" y="0px"
	 width="48px" height="48px" viewBox="0 0 48 48" enable-background="new 0 0 48 48" xml:space="preserve">
<path d="M24,4C12.97,4,4,12.97,4,24c0,11.03,8.97,20,20,20c11.03,0,20-8.97,20-20C44,12.97,35.03,4,24,4z M29.921,18H33
	c0.553,0,1,0.451,1,1.003s-0.447,1-1,1h-3.08C29.431,23.388,26.518,26,23,26h-5.586l10.293,10.293c0.391,0.391,0.391,1.023,0,1.414
	C27.512,37.902,27.256,38,27,38s-0.512-0.098-0.707-0.293l-12-12c-0.286-0.286-0.372-0.716-0.217-1.09
	C14.231,24.244,14.596,24,15,24h8c2.413,0,4.433-1.719,4.898-3.997H15c-0.552,0-1-0.448-1-1S14.448,18,15,18h12.899
	c-0.464-2.281-2.484-4-4.899-4h-8c-0.552,0-1-0.448-1-1s0.448-1,1-1h18c0.553,0,1,0.448,1,1s-0.447,1-1,1h-5.11
	C28.964,15.051,29.697,16.442,29.921,18z"/>
</svg>
