<?xml version="1.0" encoding="utf-8"?>
<!-- Generator: Adobe Illustrator 16.0.0, SVG Export Plug-In . SVG Version: 6.00 Build 0)  -->
<!DOCTYPE svg PUBLIC "-//W3C//DTD SVG 1.1//EN" "http://www.w3.org/Graphics/SVG/1.1/DTD/svg11.dtd">
<svg version="1.1" id="Capa_1" xmlns="http://www.w3.org/2000/svg" xmlns:xlink="http://www.w3.org/1999/xlink" x="0px" y="0px"
	 width="48px" height="48px" viewBox="0 0 48 48" enable-background="new 0 0 48 48" xml:space="preserve">
<path d="M24,4C12.97,4,4,12.97,4,24c0,11.03,8.97,20,20,20c11.03,0,20-8.97,20-20C44,12.97,35.03,4,24,4z M17,12h12
	c0.553,0,1,0.448,1,1s-0.447,1-1,1H17c-0.552,0-1-0.448-1-1S16.448,12,17,12z M30,36c-2.206,0-4-1.794-4-4V20h-6v7
	c0,5.047-2.636,9-6,9c-0.552,0-1-0.447-1-1s0.448-1,1-1c2.168,0,4-3.206,4-7v-7h-3c-0.552,0-1-0.448-1-1s0.448-1,1-1h16
	c0.553,0,1,0.448,1,1s-0.447,1-1,1h-3v12c0,1.103,0.897,2,2,2s2-0.897,2-2c0-0.553,0.447-1,1-1s1,0.447,1,1
	C34,34.206,32.206,36,30,36z"/>
</svg>
