<?xml version="1.0" encoding="utf-8"?>
<!-- Generator: Adobe Illustrator 16.0.0, SVG Export Plug-In . SVG Version: 6.00 Build 0)  -->
<!DOCTYPE svg PUBLIC "-//W3C//DTD SVG 1.1//EN" "http://www.w3.org/Graphics/SVG/1.1/DTD/svg11.dtd">
<svg version="1.1" id="Capa_1" xmlns="http://www.w3.org/2000/svg" xmlns:xlink="http://www.w3.org/1999/xlink" x="0px" y="0px"
	 width="48px" height="48px" viewBox="0 0 48 48" enable-background="new 0 0 48 48" xml:space="preserve">
<path d="M24,4C12.97,4,4,12.97,4,24c0,11.03,8.97,20,20,20c11.03,0,20-8.97,20-20C44,12.97,35.03,4,24,4z M31,30
	c0.553,0,1,0.447,1,1s-0.447,1-1,1h-6v5c0,0.553-0.448,1-1,1s-1-0.447-1-1v-5h-6c-0.552,0-1-0.447-1-1s0.448-1,1-1h6v-2h-6
	c-0.552,0-1-0.447-1-1s0.448-1,1-1h6v-1.708l-6.843-10.755c-0.296-0.466-0.159-1.084,0.307-1.38c0.465-0.297,1.084-0.159,1.38,0.307
	L24,22.137l6.154-9.674c0.297-0.466,0.913-0.604,1.381-0.307c0.466,0.296,0.604,0.915,0.307,1.38L25,24.292V26h6
	c0.553,0,1,0.447,1,1s-0.447,1-1,1h-6v2H31z"/>
</svg>
