<?xml version="1.0" encoding="utf-8"?>
<!-- Generator: Adobe Illustrator 16.0.0, SVG Export Plug-In . SVG Version: 6.00 Build 0)  -->
<!DOCTYPE svg PUBLIC "-//W3C//DTD SVG 1.1//EN" "http://www.w3.org/Graphics/SVG/1.1/DTD/svg11.dtd">
<svg version="1.1" id="Capa_1" xmlns="http://www.w3.org/2000/svg" xmlns:xlink="http://www.w3.org/1999/xlink" x="0px" y="0px"
	 width="48px" height="48px" viewBox="0 0 48 48" enable-background="new 0 0 48 48" xml:space="preserve">
<g>
	<path d="M20,28h5c2.37,0,4.47-1.19,5.74-3H20V28z"/>
	<path d="M24,4C12.97,4,4,12.97,4,24c0,11.03,8.97,20,20,20c11.03,0,20-8.97,20-20C44,12.97,35.03,4,24,4z M34,21
		c0,0.69-0.08,1.36-0.22,2H36c0.55,0,1,0.45,1,1s-0.45,1-1,1h-2.94c-1.47,2.96-4.529,5-8.06,5h-5v7c0,0.55-0.45,1-1,1s-1-0.45-1-1
		V25h-3c-0.55,0-1-0.45-1-1s0.45-1,1-1h3v-4h-3c-0.55,0-1-0.45-1-1s0.45-1,1-1h3v-2c0-2.2,1.8-3,3-3h4c3.53,0,6.59,2.04,8.06,5H36
		c0.55,0,1,0.45,1,1s-0.45,1-1,1h-2.22C33.92,19.64,34,20.31,34,21z"/>
	<path d="M25,14h-4c-0.45,0.01-1,0.19-1,1v2h10.74C29.47,15.19,27.37,14,25,14z"/>
	<path d="M20,19v4h11.71C31.9,22.37,32,21.69,32,21s-0.1-1.37-0.29-2H20z"/>
</g>
</svg>
