<?xml version="1.0" encoding="utf-8"?>
<!-- Generator: Adobe Illustrator 16.0.0, SVG Export Plug-In . SVG Version: 6.00 Build 0)  -->
<!DOCTYPE svg PUBLIC "-//W3C//DTD SVG 1.1//EN" "http://www.w3.org/Graphics/SVG/1.1/DTD/svg11.dtd">
<svg version="1.1" id="Capa_1" xmlns="http://www.w3.org/2000/svg" xmlns:xlink="http://www.w3.org/1999/xlink" x="0px" y="0px"
	 width="48px" height="48px" viewBox="0 0 48 48" enable-background="new 0 0 48 48" xml:space="preserve">
<g>
	<path d="M16,15.011V24h7V13.999h-6C16.195,13.999,16.012,14.549,16,15.011z"/>
	<path d="M30.988,13.999H25V24h7v-9.001C32,14.194,31.45,14.011,30.988,13.999z"/>
	<path d="M24,4C12.97,4,4,12.97,4,24c0,11.03,8.97,20,20,20c11.03,0,20-8.97,20-20C44,12.97,35.03,4,24,4z M34,29.002
		c0,3.859-3.141,7-7,7c-0.553,0-1-0.447-1-1s0.447-1,1-1c2.757,0,5-2.243,5-5V26H16v9.002c0,0.553-0.448,1-1,1s-1-0.447-1-1V14.999
		c0-1.206,0.799-3,3-3h14c1.206,0,3,0.799,3,3V29.002z"/>
</g>
</svg>
