<?xml version="1.0" encoding="utf-8"?>
<!-- Generator: Adobe Illustrator 16.0.0, SVG Export Plug-In . SVG Version: 6.00 Build 0)  -->
<!DOCTYPE svg PUBLIC "-//W3C//DTD SVG 1.1//EN" "http://www.w3.org/Graphics/SVG/1.1/DTD/svg11.dtd">
<svg version="1.1" id="Capa_1" xmlns="http://www.w3.org/2000/svg" xmlns:xlink="http://www.w3.org/1999/xlink" x="0px" y="0px"
	 width="48px" height="48px" viewBox="0 0 48 48" enable-background="new 0 0 48 48" xml:space="preserve">
<path d="M24,4C12.97,4,4,12.97,4,24c0,11.03,8.97,20,20,20c11.03,0,20-8.97,20-20C44,12.97,35.03,4,24,4z M27,22c0.55,0,1,0.45,1,1
	s-0.45,1-1,1h-7.34c-0.36,3.47-0.96,6.4-1.34,8.27C18.16,33.03,18.01,33.81,18,34h15c0.55,0,1,0.45,1,1s-0.45,1-1,1H18
	c-0.97,0-2-0.7-2-2c0-0.35,0.1-0.87,0.36-2.12c0.36-1.8,0.93-4.59,1.29-7.88H15c-0.55,0-1-0.45-1-1s0.45-1,1-1h2.84
	c0.1-1.28,0.16-2.63,0.16-4c0-4.41,3.59-8,8-8s8,3.59,8,8c0,0.55-0.45,1-1,1s-1-0.45-1-1c0-3.31-2.69-6-6-6c-3.31,0-6,2.69-6,6
	c0,1.37-0.06,2.71-0.15,4H27z"/>
</svg>
