<?xml version="1.0" encoding="utf-8"?>
<!-- Generator: Adobe Illustrator 16.0.0, SVG Export Plug-In . SVG Version: 6.00 Build 0)  -->
<!DOCTYPE svg PUBLIC "-//W3C//DTD SVG 1.1//EN" "http://www.w3.org/Graphics/SVG/1.1/DTD/svg11.dtd">
<svg version="1.1" id="Capa_1" xmlns="http://www.w3.org/2000/svg" xmlns:xlink="http://www.w3.org/1999/xlink" x="0px" y="0px"
	 width="48px" height="48px" viewBox="0 0 48 48" enable-background="new 0 0 48 48" xml:space="preserve">
<g>
	<path d="M30,18c0-2.21-1.79-4-4-4h-5c-0.45,0.01-1,0.19-1,1v7h6C28.21,22,30,20.21,30,18z"/>
	<path d="M24,4C12.97,4,4,12.97,4,24c0,11.03,8.97,20,20,20c11.03,0,20-8.97,20-20C44,12.97,35.03,4,24,4z M28,35.92V38
		c0,0.55-0.45,1-1,1s-1-0.45-1-1v-2h-4v2c0,0.55-0.45,1-1,1s-1-0.45-1-1v-2h-3c-0.55,0-1-0.45-1-1s0.45-1,1-1h1V14h-1
		c-0.55,0-1-0.45-1-1s0.45-1,1-1h3v-2c0-0.55,0.45-1,1-1s1,0.45,1,1v2h4v-2c0-0.55,0.45-1,1-1s1,0.45,1,1v2.35
		c2.33,0.82,4,3.04,4,5.65c0,1.85-0.84,3.51-2.16,4.61C32.29,23.7,34,26.15,34,29C34,32.52,31.39,35.43,28,35.92z"/>
	<path d="M27,24h-7v9c0,0.81,0.55,0.99,1.01,1H27c2.76,0,5-2.24,5-5S29.76,24,27,24z"/>
</g>
</svg>
