<?xml version="1.0" encoding="utf-8"?>
<!-- Generator: Adobe Illustrator 16.0.0, SVG Export Plug-In . SVG Version: 6.00 Build 0)  -->
<!DOCTYPE svg PUBLIC "-//W3C//DTD SVG 1.1//EN" "http://www.w3.org/Graphics/SVG/1.1/DTD/svg11.dtd">
<svg version="1.1" id="Capa_1" xmlns="http://www.w3.org/2000/svg" xmlns:xlink="http://www.w3.org/1999/xlink" x="0px" y="0px"
	 width="48px" height="48px" viewBox="0 0 48 48" enable-background="new 0 0 48 48" xml:space="preserve">
<path d="M24,4C12.97,4,4,12.97,4,24c0,11.03,8.97,20,20,20c11.03,0,20-8.97,20-20C44,12.97,35.03,4,24,4z M24,13
	c0-0.552,0.448-1,1-1c0.553,0,1,0.448,1,1v6c0,1.654,1.346,3,3,3s3-1.346,3-3c0-0.552,0.447-1,1-1s1,0.448,1,1c0,2.757-2.243,5-5,5
	s-5-2.243-5-5V13z M30.5,27c0,0.829-0.671,1.5-1.5,1.5s-1.5-0.671-1.5-1.5s0.671-1.5,1.5-1.5S30.5,26.171,30.5,27z M22,29
	c0,2.757-2.243,5-5,5s-5-2.243-5-5v-2c0-0.553,0.448-1,1-1s1,0.447,1,1v2c0,1.654,1.346,3,3,3s3-1.346,3-3V13c0-0.552,0.448-1,1-1
	s1,0.448,1,1V29z M23.5,27c0-0.829,0.672-1.5,1.5-1.5c0.829,0,1.5,0.671,1.5,1.5s-0.671,1.5-1.5,1.5
	C24.172,28.5,23.5,27.829,23.5,27z M36,31c0,2.757-2.243,5-5,5s-5-2.243-5-5c0-0.553,0.447-1,1-1s1,0.447,1,1c0,1.654,1.346,3,3,3
	s3-1.346,3-3v-6c0-0.552,0.447-1,1-1s1,0.448,1,1V31z"/>
</svg>
