<?xml version="1.0" encoding="utf-8"?>
<!-- Generator: Adobe Illustrator 16.0.0, SVG Export Plug-In . SVG Version: 6.00 Build 0)  -->
<!DOCTYPE svg PUBLIC "-//W3C//DTD SVG 1.1//EN" "http://www.w3.org/Graphics/SVG/1.1/DTD/svg11.dtd">
<svg version="1.1" id="Capa_1" xmlns="http://www.w3.org/2000/svg" xmlns:xlink="http://www.w3.org/1999/xlink" x="0px" y="0px"
	 width="48px" height="48px" viewBox="0 0 48 48" enable-background="new 0 0 48 48" xml:space="preserve">
<g>
	<path d="M17,16c2.72,0,5.27,0.73,7.47,2H39c1.66,0,3-1.34,3-3c0-0.83-0.34-1.58-0.88-2.12S39.83,12,39,12H19c-1.66,0-3,1.34-3,3
		c0,0.36,0.06,0.7,0.19,1.02C16.46,16.01,16.73,16,17,16z"/>
	<path d="M21,10h20c1.657,0,3-1.344,3-3s-1.343-3-3-3H21c-1.657,0-3,1.343-3,3C18,8.656,19.343,10,21,10z"/>
	<path d="M17,18C9.83,18,4,23.83,4,31s5.83,13,13,13s13-5.83,13-13S24.17,18,17,18z M20,35c0,1.65-1.35,3-3,3s-3-1.35-3-3v-8
		c0-1.65,1.35-3,3-3s3,1.35,3,3V35z"/>
	<path d="M41,20H27.18c1.771,1.63,3.141,3.69,3.96,6H41c1.66,0,3-1.34,3-3c0-0.83-0.34-1.58-0.88-2.12S41.83,20,41,20z"/>
	<path d="M41,28h-9.3c0.2,0.97,0.3,1.97,0.3,3s-0.1,2.03-0.3,3H41c1.66,0,3-1.34,3-3c0-0.83-0.34-1.58-0.88-2.12S41.83,28,41,28z"/>
	<path d="M41,36h-9.86c-0.819,2.31-2.189,4.37-3.96,6H41c1.66,0,3-1.34,3-3c0-0.83-0.34-1.58-0.88-2.12S41.83,36,41,36z"/>
</g>
</svg>
