<?xml version="1.0" encoding="utf-8"?>
<!-- Generator: Adobe Illustrator 16.0.0, SVG Export Plug-In . SVG Version: 6.00 Build 0)  -->
<!DOCTYPE svg PUBLIC "-//W3C//DTD SVG 1.1//EN" "http://www.w3.org/Graphics/SVG/1.1/DTD/svg11.dtd">
<svg version="1.1" id="Capa_1" xmlns="http://www.w3.org/2000/svg" xmlns:xlink="http://www.w3.org/1999/xlink" x="0px" y="0px"
	 width="48px" height="48px" viewBox="0 0 48 48" enable-background="new 0 0 48 48" xml:space="preserve">
<g>
	<path d="M27.002,32.994c1.206-0.9,1.998-2.311,1.998-3.912c0-1.042-0.808-1.847-1.998-2.558V32.994z"/>
	<path d="M22.999,24.663v9.243c0.324,0.065,0.658,0.1,1.001,0.1c0.343,0,0.678-0.034,1.002-0.1v-8.384
		c-0.453-0.201-0.921-0.4-1.395-0.601C23.405,24.835,23.202,24.749,22.999,24.663z"/>
	<path d="M19,18.926c0,1.04,0.808,1.844,1.999,2.554v-6.464C19.792,15.914,19,17.325,19,18.926z"/>
	<path d="M22.999,14.104v8.377c0.45,0.2,0.916,0.397,1.388,0.597c0.204,0.086,0.409,0.173,0.615,0.262v-9.236
		c-0.324-0.065-0.659-0.1-1.002-0.1C23.657,14.005,23.323,14.04,22.999,14.104z"/>
	<path d="M24,4C12.97,4,4,12.97,4,24c0,11.03,8.97,20,20,20c11.03,0,20-8.97,20-20C44,12.97,35.03,4,24,4z M31,29.082
		c0,2.754-1.639,5.13-3.998,6.244V38c0,0.553-0.447,1-1,1s-1-0.447-1-1v-2.074c-0.328,0.047-0.661,0.079-1.002,0.079
		s-0.673-0.032-1.001-0.079V38c0,0.553-0.448,1-1,1s-1-0.447-1-1v-2.673C18.639,34.213,17,31.836,17,29.082c0-0.553,0.448-1,1-1
		s1,0.447,1,1c0,1.602,0.792,3.013,1.999,3.912V23.75C18.78,22.638,17,21.252,17,18.926c0-2.753,1.639-5.129,3.999-6.243V10
		c0-0.552,0.448-1,1-1s1,0.448,1,1v2.084c0.328-0.047,0.66-0.079,1.001-0.079s0.674,0.032,1.002,0.079V10c0-0.552,0.447-1,1-1
		s1,0.448,1,1v2.683C29.361,13.797,31,16.173,31,18.926c0,0.552-0.447,1-1,1s-1-0.448-1-1c0-1.601-0.792-3.011-1.998-3.91v9.244
		C29.178,25.361,31,26.776,31,29.082z"/>
</g>
</svg>
