<?xml version="1.0" encoding="utf-8"?>
<!-- Generator: Adobe Illustrator 16.0.0, SVG Export Plug-In . SVG Version: 6.00 Build 0)  -->
<!DOCTYPE svg PUBLIC "-//W3C//DTD SVG 1.1//EN" "http://www.w3.org/Graphics/SVG/1.1/DTD/svg11.dtd">
<svg version="1.1" id="Capa_1" xmlns="http://www.w3.org/2000/svg" xmlns:xlink="http://www.w3.org/1999/xlink" x="0px" y="0px"
	 width="48px" height="48px" viewBox="0 0 48 48" enable-background="new 0 0 48 48" xml:space="preserve">
<g>
	<path d="M24,4C12.97,4,4,12.97,4,24c0,11.03,8.97,20,20,20c11.03,0,20-8.97,20-20C44,12.97,35.03,4,24,4z M35,35H19
		c-4.51,0-7-5.32-7-9c0-0.55,0.45-1,1-1s1,0.45,1,1c0,2.41,1.56,5,5,5h14.9c-0.58-10.07-4.19-16-9.9-16h-1c-1.1,0-2-0.9-2-2
		s0.9-2,2-2h1c8.3,0,12,7.09,12,23C36,34.55,35.55,35,35,35z"/>
</g>
</svg>
