<?xml version="1.0" encoding="utf-8"?>
<!-- Generator: Adobe Illustrator 16.0.0, SVG Export Plug-In . SVG Version: 6.00 Build 0)  -->
<!DOCTYPE svg PUBLIC "-//W3C//DTD SVG 1.1//EN" "http://www.w3.org/Graphics/SVG/1.1/DTD/svg11.dtd">
<svg version="1.1" id="Capa_1" xmlns="http://www.w3.org/2000/svg" xmlns:xlink="http://www.w3.org/1999/xlink" x="0px" y="0px"
	 width="48px" height="48px" viewBox="0 0 48 48" enable-background="new 0 0 48 48" xml:space="preserve">
<g>
	<path d="M14,24c0,5.176,3.954,9.445,9,9.949V14.051C17.954,14.554,14,18.823,14,24z"/>
	<path d="M24,4C12.97,4,4,12.97,4,24c0,11.03,8.97,20,20,20c11.03,0,20-8.97,20-20C44,12.97,35.03,4,24,4z M32.138,29.813
		c0.321-0.449,0.944-0.553,1.396-0.231c0.449,0.321,0.553,0.946,0.231,1.396c-2.055,2.872-5.278,4.669-8.765,4.963V39
		c0,0.553-0.448,1-1,1s-1-0.447-1-1v-3.051C16.851,35.438,12,30.279,12,24s4.851-11.438,11-11.949V9c0-0.552,0.448-1,1-1
		s1,0.448,1,1v3.061c3.485,0.294,6.71,2.091,8.765,4.963c0.321,0.449,0.218,1.074-0.231,1.396c-0.451,0.32-1.074,0.218-1.396-0.231
		c-1.68-2.348-4.297-3.839-7.138-4.127v19.879C27.841,33.651,30.458,32.161,32.138,29.813z"/>
</g>
</svg>
