<?xml version="1.0" encoding="utf-8"?>
<!-- Generator: Adobe Illustrator 16.0.0, SVG Export Plug-In . SVG Version: 6.00 Build 0)  -->
<!DOCTYPE svg PUBLIC "-//W3C//DTD SVG 1.1//EN" "http://www.w3.org/Graphics/SVG/1.1/DTD/svg11.dtd">
<svg version="1.1" id="Capa_1" xmlns="http://www.w3.org/2000/svg" xmlns:xlink="http://www.w3.org/1999/xlink" x="0px" y="0px"
	 width="48px" height="48px" viewBox="0 0 48 48" enable-background="new 0 0 48 48" xml:space="preserve">
<path d="M24,4C12.97,4,4,12.97,4,24c0,11.03,8.97,20,20,20c11.03,0,20-8.97,20-20C44,12.97,35.03,4,24,4z M27,20
	c0.553,0,1,0.448,1,1s-0.447,1-1,1H14.202C14.07,22.646,14,23.315,14,24c0,0.686,0.07,1.354,0.202,2.002h10.796c0.553,0,1,0.447,1,1
	s-0.447,1-1,1H14.842C16.389,31.528,19.909,34,24,34c2.975,0,5.775-1.312,7.684-3.599c0.352-0.424,0.984-0.481,1.408-0.127
	c0.424,0.354,0.481,0.984,0.127,1.408C30.93,34.427,27.569,36,24,36c-5.212,0-9.646-3.346-11.299-7.998H11c-0.552,0-1-0.447-1-1
	s0.448-1,1-1h1.181C12.071,25.35,12,24.684,12,24c0-0.683,0.07-1.348,0.181-2H11c-0.552,0-1-0.448-1-1s0.448-1,1-1h1.7
	c1.652-4.653,6.087-8,11.3-8c3.57,0,6.931,1.574,9.219,4.318c0.354,0.424,0.297,1.055-0.127,1.409
	c-0.426,0.354-1.057,0.295-1.408-0.127C29.775,15.312,26.975,14,24,14c-4.092,0-7.613,2.473-9.159,6H27z"/>
</svg>
