<?xml version="1.0" encoding="utf-8"?>
<!-- Generator: Adobe Illustrator 16.0.0, SVG Export Plug-In . SVG Version: 6.00 Build 0)  -->
<!DOCTYPE svg PUBLIC "-//W3C//DTD SVG 1.1//EN" "http://www.w3.org/Graphics/SVG/1.1/DTD/svg11.dtd">
<svg version="1.1" id="Capa_1" xmlns="http://www.w3.org/2000/svg" xmlns:xlink="http://www.w3.org/1999/xlink" x="0px" y="0px"
	 width="48px" height="48px" viewBox="0 0 48 48" enable-background="new 0 0 48 48" xml:space="preserve">
<g>
	<path d="M17.999,15v7H23v-8h-4.001C18.549,14.012,17.999,14.195,17.999,15z"/>
	<path d="M17.999,33c0,0.806,0.55,0.988,1.012,1H23V24h-5.001V33z"/>
	<path d="M30.002,18c0-2.206-1.794-4-4-4H25v8h1.002C28.208,22,30.002,20.206,30.002,18z"/>
	<path d="M27.002,24h-1H25v10h2.002c2.757,0,5-2.243,5-5S29.759,24,27.002,24z"/>
	<path d="M24,4C12.97,4,4,12.97,4,24c0,11.03,8.97,20,20,20c11.03,0,20-8.97,20-20C44,12.97,35.03,4,24,4z M27.002,36H25v2.001
		c0,0.553-0.448,1-1,1s-1-0.447-1-1V36h-4.001c-1.206,0-3-0.799-3-3V15c0-2.201,1.794-3,3-3H23v-2c0-0.552,0.448-1,1-1s1,0.448,1,1
		v2h1.002c3.309,0,6,2.691,6,6c0,1.85-0.842,3.505-2.162,4.607c2.448,1.091,4.162,3.544,4.162,6.393
		C34.002,32.859,30.861,36,27.002,36z"/>
</g>
</svg>
