<?xml version="1.0" encoding="utf-8"?>
<!-- Generator: Adobe Illustrator 16.0.0, SVG Export Plug-In . SVG Version: 6.00 Build 0)  -->
<!DOCTYPE svg PUBLIC "-//W3C//DTD SVG 1.1//EN" "http://www.w3.org/Graphics/SVG/1.1/DTD/svg11.dtd">
<svg version="1.1" id="Capa_1" xmlns="http://www.w3.org/2000/svg" xmlns:xlink="http://www.w3.org/1999/xlink" x="0px" y="0px"
	 width="48px" height="48px" viewBox="0 0 48 48" enable-background="new 0 0 48 48" xml:space="preserve">
<g>
	<path d="M17.689,27h11.313V11h-8.001C21.001,19.088,18.911,24.515,17.689,27z"/>
	<path d="M24,4C12.97,4,4,12.97,4,24c0,11.03,8.97,20,20,20c11.03,0,20-8.97,20-20C44,12.97,35.03,4,24,4z M33,36
		c0,0.553-0.447,1-1,1s-1-0.447-1-1v-7h-0.988c-0.004,0-0.006,0.002-0.01,0.002S29.996,29,29.992,29H15l0.001,7c0,0.552-0.448,1-1,1
		s-1-0.447-1-1L13,29c0-0.97,0.701-2,2-2h0.429c0.856-1.53,3.572-7.085,3.572-16c0-0.97,0.701-2,2-2h8.001c0.97,0,2,0.701,2,2v16
		C32.3,27.001,33,28.031,33,29V36z"/>
</g>
</svg>
