<?xml version="1.0" encoding="utf-8"?>
<!-- Generator: Adobe Illustrator 16.0.0, SVG Export Plug-In . SVG Version: 6.00 Build 0)  -->
<!DOCTYPE svg PUBLIC "-//W3C//DTD SVG 1.1//EN" "http://www.w3.org/Graphics/SVG/1.1/DTD/svg11.dtd">
<svg version="1.1" id="Capa_1" xmlns="http://www.w3.org/2000/svg" xmlns:xlink="http://www.w3.org/1999/xlink" x="0px" y="0px"
	 width="48px" height="48px" viewBox="0 0 48 48" enable-background="new 0 0 48 48" xml:space="preserve">
<g>
	<path d="M24,4C12.97,4,4,12.97,4,24c0,11.03,8.97,20,20,20c11.03,0,20-8.97,20-20C44,12.97,35.03,4,24,4z M35.73,20.81l-6.62,4.81
		l2.529,7.77c0.091,0.271-0.01,0.57-0.239,0.74c-0.12,0.09-0.261,0.13-0.391,0.13c-0.14,0-0.279-0.04-0.399-0.13L24,29.33l-6.61,4.8
		c-0.23,0.17-0.55,0.17-0.79,0c-0.23-0.17-0.33-0.47-0.24-0.75l2.53-7.76l-6.62-4.81c-0.23-0.17-0.33-0.47-0.24-0.74
		c0.09-0.28,0.35-0.47,0.64-0.47h8.17l2.53-7.77c0.09-0.27,0.34-0.46,0.63-0.46s0.54,0.19,0.63,0.46l2.53,7.77h8.17
		c0.29,0,0.55,0.19,0.64,0.47C36.06,20.34,35.96,20.64,35.73,20.81z"/>
</g>
</svg>
