<?xml version="1.0" encoding="utf-8"?>
<!-- Generator: Adobe Illustrator 16.0.0, SVG Export Plug-In . SVG Version: 6.00 Build 0)  -->
<!DOCTYPE svg PUBLIC "-//W3C//DTD SVG 1.1//EN" "http://www.w3.org/Graphics/SVG/1.1/DTD/svg11.dtd">
<svg version="1.1" id="Capa_1" xmlns="http://www.w3.org/2000/svg" xmlns:xlink="http://www.w3.org/1999/xlink" x="0px" y="0px"
	 width="48px" height="48px" viewBox="0 0 48 48" enable-background="new 0 0 48 48" xml:space="preserve">
<g>
	<path d="M26.01,26c3.304-0.006,5.99-2.695,5.99-6c0-3.309-2.691-6-6-6h-4.998c-0.45,0.012-1,0.195-1,1v10.998h6.001
		C26.006,25.998,26.008,26,26.01,26z"/>
	<path d="M24,4C12.97,4,4,12.97,4,24c0,11.03,8.97,20,20,20c11.03,0,20-8.97,20-20C44,12.97,35.03,4,24,4z M30.996,30.009
		c0.553,0,1,0.447,1,1s-0.447,1-1,1H20.002v4.993c0,0.553-0.448,1-1,1s-1-0.447-1-1v-4.993H15c-0.552,0-1-0.447-1-1s0.448-1,1-1
		h3.002v-2.011H15c-0.552,0-1-0.447-1-1s0.448-1,1-1h3.002V15c0-2.201,1.794-3,3-3h5.001h0.001C30.413,12.002,34,15.59,34,20
		c0,4.411-3.589,8-8,8c-0.004,0-0.006-0.002-0.01-0.002h-5.988v2.011H30.996z"/>
</g>
</svg>
