<?xml version="1.0" encoding="utf-8"?>
<!-- Generator: Adobe Illustrator 16.0.0, SVG Export Plug-In . SVG Version: 6.00 Build 0)  -->
<!DOCTYPE svg PUBLIC "-//W3C//DTD SVG 1.1//EN" "http://www.w3.org/Graphics/SVG/1.1/DTD/svg11.dtd">
<svg version="1.1" id="Capa_1" xmlns="http://www.w3.org/2000/svg" xmlns:xlink="http://www.w3.org/1999/xlink" x="0px" y="0px"
	 width="48px" height="48px" viewBox="0 0 48 48" enable-background="new 0 0 48 48" xml:space="preserve">
<g>
	<path d="M34,4H14c-2.21,0-4,1.79-4,4v36h8v-6.98c0-1.21,0.8-3,3-3h6c1.21,0,3,0.78,3,2.98v7h8V8C38,5.79,36.21,4,34,4z M21,27.999
		c0,2-2,2-2,2h-2c-2,0-2-2-2-2v-2c0-2,2-2,2-2h2c2,0,2,2,2,2V27.999z M21,19.99c0,2-2,2-2,2h-2c-2,0-2-2-2-2v-2C15,16,17,16,17,16h2
		c2,0,2,1.99,2,1.99V19.99z M21,11.99c0,2-2,2-2,2h-2c-2,0-2-2-2-2v-2c0-2,2-2,2-2h2c2,0,2,2,2,2V11.99z M33.01,27.999c0,2-2,2-2,2
		h-2c-2,0-2-2-2-2v-2c0-2,2-2,2-2h2c2,0,2,2,2,2V27.999z M33.01,19.99c0,2-2,2-2,2h-2c-2,0-2-2-2-2v-2c0-1.99,2-1.99,2-1.99h2
		c2,0,2,1.99,2,1.99V19.99z M33.01,11.99c0,2-2,2-2,2h-2c-2,0-2-2-2-2v-2c0-2,2-2,2-2h2c2,0,2,2,2,2V11.99z"/>
	<path d="M27,36l-6,0.02c-0.8,0-0.99,0.521-1,0.98v7h8v-7C28,36.19,27.46,36.01,27,36z"/>
</g>
</svg>
