<?xml version="1.0" encoding="utf-8"?>
<!-- Generator: Adobe Illustrator 16.0.0, SVG Export Plug-In . SVG Version: 6.00 Build 0)  -->
<!DOCTYPE svg PUBLIC "-//W3C//DTD SVG 1.1//EN" "http://www.w3.org/Graphics/SVG/1.1/DTD/svg11.dtd">
<svg version="1.1" id="Capa_1" xmlns="http://www.w3.org/2000/svg" xmlns:xlink="http://www.w3.org/1999/xlink" x="0px" y="0px"
	 width="48px" height="48px" viewBox="0 0 48 48" enable-background="new 0 0 48 48" xml:space="preserve">
<g>
	<path d="M43,10H5c-2.2,0-3,1.79-3,3v3h44v-3C46,10.79,44.2,10,43,10z"/>
	<path d="M2,35c0,2.21,1.79,3,3,3h38c2.2,0,3-1.79,3-3V20H2V35z M29,30h12c0.55,0,1,0.45,1,1s-0.45,1-1,1H29c-0.55,0-1-0.45-1-1
		S28.45,30,29,30z M19,30h6c0.55,0,1,0.45,1,1s-0.45,1-1,1h-6c-0.55,0-1-0.45-1-1S18.45,30,19,30z"/>
</g>
</svg>
