<?xml version="1.0" encoding="utf-8"?>
<!-- Generator: Adobe Illustrator 16.0.0, SVG Export Plug-In . SVG Version: 6.00 Build 0)  -->
<!DOCTYPE svg PUBLIC "-//W3C//DTD SVG 1.1//EN" "http://www.w3.org/Graphics/SVG/1.1/DTD/svg11.dtd">
<svg version="1.1" id="Capa_1" xmlns="http://www.w3.org/2000/svg" xmlns:xlink="http://www.w3.org/1999/xlink" x="0px" y="0px"
	 width="48px" height="48px" viewBox="0 0 48 48" enable-background="new 0 0 48 48" xml:space="preserve">
<path d="M36.623,33.795C38.731,31.085,40,27.691,40,24s-1.269-7.085-3.377-9.795l4.791-4.791c0.781-0.781,0.781-2.047,0-2.828
	c-0.781-0.781-2.047-0.781-2.828,0l-4.791,4.791C31.085,9.269,27.691,8,24,8s-7.085,1.269-9.795,3.376L9.414,6.586
	c-0.78-0.781-2.048-0.781-2.828,0c-0.781,0.781-0.781,2.047,0,2.828l4.791,4.791C9.269,16.915,8,20.309,8,24
	s1.269,7.085,3.376,9.795l-4.791,4.791c-0.781,0.781-0.781,2.047,0,2.828C6.976,41.805,7.488,42,8,42s1.024-0.195,1.414-0.586
	l4.791-4.791C16.915,38.731,20.309,40,24,40s7.085-1.269,9.795-3.377l4.791,4.791C38.977,41.805,39.488,42,40,42
	s1.023-0.195,1.414-0.586c0.781-0.781,0.781-2.047,0-2.828L36.623,33.795z M24,36c-6.617,0-12-5.383-12-12c0-6.617,5.383-12,12-12
	c6.617,0,12,5.383,12,12C36,30.617,30.617,36,24,36z"/>
</svg>
