<?xml version="1.0" encoding="utf-8"?>
<!-- Generator: Adobe Illustrator 16.0.0, SVG Export Plug-In . SVG Version: 6.00 Build 0)  -->
<!DOCTYPE svg PUBLIC "-//W3C//DTD SVG 1.1//EN" "http://www.w3.org/Graphics/SVG/1.1/DTD/svg11.dtd">
<svg version="1.1" id="Capa_1" xmlns="http://www.w3.org/2000/svg" xmlns:xlink="http://www.w3.org/1999/xlink" x="0px" y="0px"
	 width="48px" height="48px" viewBox="0 0 48 48" enable-background="new 0 0 48 48" xml:space="preserve">
<path d="M35,29.963V8c0-2.598-2.061-4-4-4H21c-1.949,0-3,1.546-3,3c0,11.604-3.022,20.056-4.259,23h-0.279
	C11.264,30,10,31.668,10,33.309V42c0,1.104,0.896,2,2,2s2-0.896,2-2v-8h20l0.001,8c0,1.104,0.896,2,2,2S38,43.104,38,42v-8.691
	C38,31.77,36.944,30.158,35,29.963z M31,30H18c1.499-3.968,3.852-11.749,3.993-22c0,0,8.986-0.004,9.007,0V30z"/>
</svg>
