<?xml version="1.0" encoding="utf-8"?>
<!-- Generator: Adobe Illustrator 16.0.0, SVG Export Plug-In . SVG Version: 6.00 Build 0)  -->
<!DOCTYPE svg PUBLIC "-//W3C//DTD SVG 1.1//EN" "http://www.w3.org/Graphics/SVG/1.1/DTD/svg11.dtd">
<svg version="1.1" id="Capa_1" xmlns="http://www.w3.org/2000/svg" xmlns:xlink="http://www.w3.org/1999/xlink" x="0px" y="0px"
	 width="48px" height="48px" viewBox="0 0 48 48" enable-background="new 0 0 48 48" xml:space="preserve">
<path d="M36,13h-2.691c-0.346-1.875-1.16-3.586-2.329-5H36c1.104,0,2-0.896,2-2s-0.896-2-2-2H9.999c-1.104,0-2,0.896-2,2
	s0.896,2,2,2H22.51c3.16,0.004,5.834,2.115,6.695,5H9.999c-1.104,0-2,0.896-2,2s0.896,2,2,2h19.206c-0.863,2.888-3.541,5-6.705,5
	h-12c-0.819,0-1.555,0.499-1.858,1.26s-0.112,1.629,0.482,2.192l19.001,18c0.387,0.366,0.881,0.548,1.375,0.548
	c0.529,0,1.059-0.209,1.452-0.625c0.76-0.802,0.726-2.067-0.077-2.827L15.52,26h6.98c5.382,0,9.864-3.888,10.809-9H36
	c1.104,0,2-0.896,2-2S37.104,13,36,13z"/>
</svg>
