<?xml version="1.0" encoding="utf-8"?>
<!-- Generator: Adobe Illustrator 16.0.0, SVG Export Plug-In . SVG Version: 6.00 Build 0)  -->
<!DOCTYPE svg PUBLIC "-//W3C//DTD SVG 1.1//EN" "http://www.w3.org/Graphics/SVG/1.1/DTD/svg11.dtd">
<svg version="1.1" id="Capa_1" xmlns="http://www.w3.org/2000/svg" xmlns:xlink="http://www.w3.org/1999/xlink" x="0px" y="0px"
	 width="48px" height="48px" viewBox="0 0 48 48" enable-background="new 0 0 48 48" xml:space="preserve">
<path d="M26,23.054V11.15c1.904,0.789,3.25,2.663,3.25,4.849c0,0.966,0.783,1.75,1.75,1.75s1.75-0.784,1.75-1.75
	c0-4.135-2.888-7.602-6.75-8.51V6c0-1.104-0.896-2-2-2s-2,0.896-2,2v1.49c-3.862,0.908-6.75,4.375-6.75,8.51v0v0
	c0,4.957,3.484,7.253,6.75,8.949v11.916c-1.905-0.789-3.25-2.666-3.25-4.854c0-0.967-0.784-1.75-1.75-1.75s-1.75,0.783-1.75,1.75
	c0,4.138,2.888,7.606,6.75,8.515V42c0,1.104,0.896,2,2,2s2-0.896,2-2v-1.475c3.862-0.908,6.75-4.377,6.75-8.515
	C32.75,27.049,29.267,24.751,26,23.054z M22,20.931c-2.052-1.26-3.25-2.593-3.25-4.93v0v0c0-2.186,1.345-4.061,3.25-4.849V20.931z
	 M26,36.865v-9.792c2.052,1.261,3.25,2.597,3.25,4.938C29.25,34.199,27.904,36.075,26,36.865z"/>
</svg>
