<?xml version="1.0" encoding="utf-8"?>
<!-- Generator: Adobe Illustrator 16.0.0, SVG Export Plug-In . SVG Version: 6.00 Build 0)  -->
<!DOCTYPE svg PUBLIC "-//W3C//DTD SVG 1.1//EN" "http://www.w3.org/Graphics/SVG/1.1/DTD/svg11.dtd">
<svg version="1.1" id="Capa_1" xmlns="http://www.w3.org/2000/svg" xmlns:xlink="http://www.w3.org/1999/xlink" x="0px" y="0px"
	 width="48px" height="48px" viewBox="0 0 48 48" enable-background="new 0 0 48 48" xml:space="preserve">
<path d="M37,40H15.076c0.089-0.502,0.242-1.251,0.391-1.985c0.559-2.745,1.42-6.984,1.98-12.015H28c1.104,0,2-0.896,2-2
	s-0.896-2-2-2H17.805C17.926,20.224,18,18.385,18,16.5c0-4.687,3.813-8.5,8.5-8.5c4.687,0,8.5,3.813,8.5,8.5c0,1.104,0.896,2,2,2
	s2-0.896,2-2C39,9.607,33.393,4,26.5,4S14,9.607,14,16.5c0,1.883-0.079,3.723-0.206,5.5H10c-1.104,0-2,0.896-2,2s0.896,2,2,2h3.42
	c-0.543,4.673-1.347,8.63-1.873,11.217C11.158,39.13,11,39.93,11,40.5c0,2.273,1.803,3.5,3.5,3.5h22.497c1.104,0,2-0.896,2-2
	S38.104,40,37,40z"/>
</svg>
