<?xml version="1.0" encoding="utf-8"?>
<!-- Generator: Adobe Illustrator 16.0.0, SVG Export Plug-In . SVG Version: 6.00 Build 0)  -->
<!DOCTYPE svg PUBLIC "-//W3C//DTD SVG 1.1//EN" "http://www.w3.org/Graphics/SVG/1.1/DTD/svg11.dtd">
<svg version="1.1" id="Capa_1" xmlns="http://www.w3.org/2000/svg" xmlns:xlink="http://www.w3.org/1999/xlink" x="0px" y="0px"
	 width="48px" height="48px" viewBox="0 0 48 48" enable-background="new 0 0 48 48" xml:space="preserve">
<path d="M37.032,29.503c-0.946-0.569-2.176-0.266-2.745,0.681c-1.844,3.058-4.856,5.063-8.287,5.632V12.188
	c3.231,0.545,6.129,2.375,7.987,5.156c0.613,0.918,1.854,1.165,2.774,0.552c0.918-0.614,1.165-1.855,0.552-2.774
	C34.709,11.224,30.577,8.698,26,8.125V6c0-1.104-0.896-2-2-2s-2,0.896-2,2v2.139C14.12,9.128,8,15.856,8,24s6.12,14.872,14,15.861
	V42c0,1.104,0.896,2,2,2s2-0.896,2-2v-2.125c4.853-0.597,9.136-3.352,11.713-7.627C38.283,31.302,37.979,30.073,37.032,29.503z
	 M22,35.819C16.334,34.862,12,29.935,12,24c0-5.934,4.334-10.863,10-11.819V35.819z"/>
</svg>
