<?xml version="1.0" encoding="utf-8"?>
<!-- Generator: Adobe Illustrator 16.0.0, SVG Export Plug-In . SVG Version: 6.00 Build 0)  -->
<!DOCTYPE svg PUBLIC "-//W3C//DTD SVG 1.1//EN" "http://www.w3.org/Graphics/SVG/1.1/DTD/svg11.dtd">
<svg version="1.1" id="Capa_1" xmlns="http://www.w3.org/2000/svg" xmlns:xlink="http://www.w3.org/1999/xlink" x="0px" y="0px"
	 width="48px" height="48px" viewBox="0 0 48 48" enable-background="new 0 0 48 48" xml:space="preserve">
<g>
	<path d="M23.5,6l-1.984,0.007c-1.93,0-3.5,1.57-3.5,3.5s1.57,3.5,3.5,3.5L23.5,13c8.161,0,13.5,8,14.319,22H17c-4.81,0-7-3.629-7-7
		c0-1.103-0.897-2-2-2s-2,0.897-2,2c0,5.722,3.917,14,11,14h23c1.103,0,2-0.897,2-2C42,17,36.294,6,23.5,6z"/>
</g>
</svg>
