<?xml version="1.0" encoding="utf-8"?>
<!-- Generator: Adobe Illustrator 16.0.0, SVG Export Plug-In . SVG Version: 6.00 Build 0)  -->
<!DOCTYPE svg PUBLIC "-//W3C//DTD SVG 1.1//EN" "http://www.w3.org/Graphics/SVG/1.1/DTD/svg11.dtd">
<svg version="1.1" id="Capa_1" xmlns="http://www.w3.org/2000/svg" xmlns:xlink="http://www.w3.org/1999/xlink" x="0px" y="0px"
	 width="48px" height="48px" viewBox="0 0 48 48" enable-background="new 0 0 48 48" xml:space="preserve">
<path d="M39.998,8c0-2.598-2.061-4-4-4H12C9.402,4,8,6.062,8,8v34c0,1.104,0.896,2,2,2s2-0.896,2-2V26h24v7.499
	c0,3.584-2.916,6.5-6.5,6.5c-1.104,0-2,0.896-2,2s0.896,2,2,2c5.79,0,10.5-4.71,10.5-10.5L39.998,8z M22,22H12V8
	c0.001-0.017,10,0,10,0V22z M36,22H26V8c0,0,9.979-0.004,10,0V22z"/>
</svg>
