<?xml version="1.0" encoding="utf-8"?>
<!-- Generator: Adobe Illustrator 16.0.0, SVG Export Plug-In . SVG Version: 6.00 Build 0)  -->
<!DOCTYPE svg PUBLIC "-//W3C//DTD SVG 1.1//EN" "http://www.w3.org/Graphics/SVG/1.1/DTD/svg11.dtd">
<svg version="1.1" id="Capa_1" xmlns="http://www.w3.org/2000/svg" xmlns:xlink="http://www.w3.org/1999/xlink" x="0px" y="0px"
	 width="48px" height="48px" viewBox="0 0 48 48" enable-background="new 0 0 48 48" xml:space="preserve">
<path d="M40,20h-2.16c0.095-0.655,0.16-1.319,0.16-2s-0.065-1.345-0.16-2H40c1.104,0,1.999-0.895,1.999-2s-0.896-2-2-2H36.63
	C34.378,7.279,29.571,4,24,4h-8c-2.598,0-4,2.061-4,4v4H8c-1.104,0-2,0.896-2,2s0.896,2,2,2h4v4H8c-1.104,0-2,0.896-2,2s0.896,2,2,2
	h4v18c0,1.104,0.896,2,2,2s2-0.896,2-2V32h8c5.57,0,10.377-3.278,12.63-8H40c1.104,0,2-0.896,2-2S41.104,20,40,20z M16,8
	C16,8,16,8,16,8l8,0c3.262,0,6.154,1.577,7.981,4H16V8z M24.001,28H16v-4h15.981C30.155,26.424,27.263,28,24.001,28z M33.799,20H16
	v-4h17.799C33.93,16.646,34,17.315,34,18S33.93,19.354,33.799,20z"/>
</svg>
