<?xml version="1.0" encoding="utf-8"?>
<!-- Generator: Adobe Illustrator 16.0.0, SVG Export Plug-In . SVG Version: 6.00 Build 0)  -->
<!DOCTYPE svg PUBLIC "-//W3C//DTD SVG 1.1//EN" "http://www.w3.org/Graphics/SVG/1.1/DTD/svg11.dtd">
<svg version="1.1" id="Capa_1" xmlns="http://www.w3.org/2000/svg" xmlns:xlink="http://www.w3.org/1999/xlink" x="0px" y="0px"
	 width="48px" height="48px" viewBox="0 0 48 48" enable-background="new 0 0 48 48" xml:space="preserve">
<g>
	<path d="M14,8h18c1.104,0,2-0.896,2-2s-0.896-2-2-2H14c-1.104,0-2,0.896-2,2S12.896,8,14,8z"/>
	<path d="M40,35c-1.104,0-2,0.896-2,2c0,1.654-1.346,3-3,3s-3-1.346-3-3V18h4.002c1.104-0.001,1.999-0.897,1.998-2.002
		C37.999,14.894,37.104,14,36,14c-0.001,0-0.001,0-0.002,0H10c-1.105,0.001-2.001,0.897-2,2.002C8.001,17.106,8.896,18,10,18
		c0,0,4,0,4,0v11c0,5.908-2.89,11-6.183,11c-1.104,0-2,0.896-2,2s0.896,2,2,2C13.527,44,18,37.462,18,29V18h10v19
		c0.048,3.818,3.17,7,7,7c3.859,0,7-3.141,7-7C42,35.896,41.104,35,40,35z"/>
</g>
</svg>
