<?xml version="1.0" encoding="utf-8"?>
<!-- Generator: Adobe Illustrator 16.0.0, SVG Export Plug-In . SVG Version: 6.00 Build 0)  -->
<!DOCTYPE svg PUBLIC "-//W3C//DTD SVG 1.1//EN" "http://www.w3.org/Graphics/SVG/1.1/DTD/svg11.dtd">
<svg version="1.1" id="Capa_1" xmlns="http://www.w3.org/2000/svg" xmlns:xlink="http://www.w3.org/1999/xlink" x="0px" y="0px"
	 width="48px" height="48px" viewBox="0 0 48 48" enable-background="new 0 0 48 48" xml:space="preserve">
<g>
	<path d="M34,22c4.411,0,8-3.589,8-8c0-1.104-0.896-2-2-2s-2,0.896-2,2c0,2.206-1.794,4-4,4s-4-1.794-4-4V6c0-1.104-0.896-2-2-2
		s-2,0.896-2,2v8C26,18.411,29.589,22,34,22z"/>
	<circle cx="34" cy="26.999" r="2.5"/>
	<circle cx="26" cy="26.999" r="2.5"/>
	<path d="M40,24c-1.104,0-2,0.896-2,2v8c0,2.206-1.794,4-4,4s-4-1.794-4-4c0-1.104-0.896-2-2-2s-2,0.896-2,2c0,4.411,3.589,8,8,8
		s8-3.589,8-8v-8C42,24.896,41.104,24,40,24z"/>
	<path d="M20,4c-1.104,0-2,0.896-2,2v24c0,2.206-1.794,4-4,4s-4-1.794-4-4v-4c0-1.104-0.896-2-2-2s-2,0.896-2,2v4
		c0,4.411,3.589,8,8,8s8-3.589,8-8V6C22,4.896,21.104,4,20,4z"/>
</g>
</svg>
