<?xml version="1.0" encoding="utf-8"?>
<!-- Generator: Adobe Illustrator 16.0.0, SVG Export Plug-In . SVG Version: 6.00 Build 0)  -->
<!DOCTYPE svg PUBLIC "-//W3C//DTD SVG 1.1//EN" "http://www.w3.org/Graphics/SVG/1.1/DTD/svg11.dtd">
<svg version="1.1" id="Capa_1" xmlns="http://www.w3.org/2000/svg" xmlns:xlink="http://www.w3.org/1999/xlink" x="0px" y="0px"
	 width="48px" height="48px" viewBox="0 0 48 48" enable-background="new 0 0 48 48" xml:space="preserve">
<path d="M31.59,21.712C33.074,20.259,34,18.236,34,16c0-3.348-2.069-6.217-4.994-7.409V6c0-1.104-0.896-2-2-2s-2,0.896-2,2v2H20V6
	c0-1.104-0.896-2-2-2s-2,0.896-2,2v2h-4c-1.104,0-2,0.896-2,2s0.896,2,2,2h2v24h-2c-1.104,0-2,0.896-2,2s0.896,2,2,2h4v1.994
	c0,1.104,0.896,2,2,2s2-0.896,2-2V40h5.006v1.994c0,1.104,0.896,2,2,2s2-0.896,2-2v-2.458C33.055,38.257,36,34.467,36,30
	C36,26.555,34.249,23.511,31.59,21.712z M18,12h8c2.206,0,4,1.794,4,4s-1.794,4-4,4c-0.002,0-0.003,0-0.005,0H18V12z M26,36
	c-0.03,0-0.059,0.008-0.088,0.009C25.883,36.008,25.854,36,25.824,36H18V24h8c3.309,0,6,2.691,6,6S29.309,36,26,36z"/>
</svg>
