<?xml version="1.0" encoding="utf-8"?>
<!-- Generator: Adobe Illustrator 16.0.0, SVG Export Plug-In . SVG Version: 6.00 Build 0)  -->
<!DOCTYPE svg PUBLIC "-//W3C//DTD SVG 1.1//EN" "http://www.w3.org/Graphics/SVG/1.1/DTD/svg11.dtd">
<svg version="1.1" id="Capa_1" xmlns="http://www.w3.org/2000/svg" xmlns:xlink="http://www.w3.org/1999/xlink" x="0px" y="0px"
	 width="48px" height="48px" viewBox="0 0 48 48" enable-background="new 0 0 48 48" xml:space="preserve">
<g>
	<path d="M16,14c1.103,0,2,0.897,2,2c0,0.552,0.448,1,1,1s1-0.448,1-1c0-1.858-1.28-3.411-3-3.858V11c0-0.552-0.448-1-1-1
		s-1,0.448-1,1v1.142c-1.72,0.447-3,2-3,3.858c0,2.118,1.971,3.106,3.554,3.9C17.075,20.664,18,21.186,18,22.006
		c0,1.103-0.897,2-2,2s-2-0.897-2-2c0-0.552-0.448-1-1-1s-1,0.448-1,1c0,1.858,1.28,3.411,3,3.858v1.148c0,0.553,0.448,1,1,1
		s1-0.447,1-1v-1.148c1.72-0.447,3-2,3-3.858c0-2.114-1.968-3.101-3.549-3.894C14.925,17.348,14,16.824,14,16
		C14,14.897,14.896,14,16,14z"/>
	<path d="M24,4C12.95,4,4,12.95,4,24s8.95,20,20,20s20-8.95,20-20S35.05,4,24,4z M6,24c0-9.93,8.07-18,18-18
		c3.1,0,6.03,0.79,8.58,2.18L14.56,39.31C9.42,36.14,6,30.46,6,24z M37.66,34.21C36.38,35.36,34.72,36,32.99,36
		c-2.79,0-5.2-1.64-6.311-4H24.99c-0.55,0-1-0.45-1-1c0-0.56,0.45-1,1-1h1.08c-0.061-0.33-0.08-0.66-0.08-1h-1c-0.55,0-1-0.45-1-1
		c0-0.56,0.45-1,1-1h1.3c0.85-2.89,3.53-5,6.7-5c1.64,0,3.229,0.57,4.479,1.62c0.42,0.35,0.48,0.98,0.13,1.399
		c-0.35,0.431-0.979,0.49-1.409,0.131c-0.9-0.74-2.03-1.15-3.2-1.15c-2.04,0-3.811,1.24-4.59,3h4.59c0.56,0,1,0.44,1,1
		c0,0.55-0.44,1-1,1h-5c0,0.34,0.029,0.67,0.1,1h3.9c0.56,0,1,0.44,1,1c0,0.55-0.44,1-1,1h-2.98c0.91,1.22,2.36,2,3.98,2
		c1.24,0,2.42-0.46,3.34-1.28c0.41-0.37,1.04-0.33,1.41,0.08S38.07,33.84,37.66,34.21z"/>
</g>
</svg>
