<?xml version="1.0" encoding="utf-8"?>
<!-- Generator: Adobe Illustrator 16.0.0, SVG Export Plug-In . SVG Version: 6.00 Build 0)  -->
<!DOCTYPE svg PUBLIC "-//W3C//DTD SVG 1.1//EN" "http://www.w3.org/Graphics/SVG/1.1/DTD/svg11.dtd">
<svg version="1.1" id="Capa_1" xmlns="http://www.w3.org/2000/svg" xmlns:xlink="http://www.w3.org/1999/xlink" x="0px" y="0px"
	 width="48px" height="48px" viewBox="0 0 48 48" enable-background="new 0 0 48 48" xml:space="preserve">
<path d="M39.093,33.52c-0.354-0.295-0.805-0.458-1.269-0.458c-0.594,0-1.157,0.26-1.552,0.719
	c-2.752,3.316-6.811,5.219-11.135,5.219c-5.489,0-10.492-3.115-12.952-8h14.452c1.103,0,2-0.897,2-2S27.74,27,26.638,27H10.854
	c-0.145-0.834-0.216-1.657-0.216-2.5c0-0.832,0.073-1.671,0.216-2.5h18.784c1.103,0,2-0.897,2-2s-0.897-2-2-2H12.186
	c2.46-4.885,7.463-8,12.952-8c4.325,0,8.384,1.902,11.141,5.226c0.388,0.452,0.951,0.711,1.544,0.711
	c0.465,0,0.916-0.163,1.271-0.459c0.846-0.709,0.962-1.974,0.258-2.818C35.827,8.427,30.646,6,25.138,6
	c-7.685,0-14.591,4.808-17.299,12H5.638c-1.103,0-2,0.896-2,2s0.897,2,2,2h1.186c-0.125,0.875-0.186,1.698-0.186,2.5
	c0,0.801,0.061,1.624,0.186,2.5H5.638c-1.103,0-2,0.897-2,2s0.897,2,2,2h2.201c2.707,7.192,9.614,12,17.299,12
	c5.508,0,10.688-2.428,14.214-6.66C40.056,35.495,39.94,34.23,39.093,33.52z"/>
</svg>
