<?xml version="1.0" encoding="utf-8"?>
<!-- Generator: Adobe Illustrator 16.0.0, SVG Export Plug-In . SVG Version: 6.00 Build 0)  -->
<!DOCTYPE svg PUBLIC "-//W3C//DTD SVG 1.1//EN" "http://www.w3.org/Graphics/SVG/1.1/DTD/svg11.dtd">
<svg version="1.1" id="Capa_1" xmlns="http://www.w3.org/2000/svg" xmlns:xlink="http://www.w3.org/1999/xlink" x="0px" y="0px"
	 width="48px" height="48px" viewBox="0 0 48 48" enable-background="new 0 0 48 48" xml:space="preserve">
<path d="M24.78,22.435c-3.739-1.871-6.03-3.182-6.03-6.435v0v0c0-2.895,2.355-5.25,5.25-5.25c2.895,0,5.25,2.355,5.25,5.25
	c0,0.966,0.783,1.75,1.75,1.75s1.75-0.784,1.75-1.75c0-2.5-1.06-4.751-2.746-6.348V6c0-1.104-0.896-2-2-2s-2,0.896-2,2v1.491
	C25.359,7.339,24.69,7.25,24,7.25c-0.689,0-1.357,0.088-2.001,0.24V6c0-1.104-0.896-2-2-2s-2,0.896-2,2v3.65
	c-1.688,1.596-2.748,3.849-2.748,6.35v0v0c0,5.58,4.416,7.79,7.964,9.565c3.742,1.872,6.036,3.185,6.036,6.445
	c0,2.897-2.355,5.255-5.25,5.255c-2.895,0-5.25-2.357-5.25-5.255c0-0.967-0.784-1.75-1.75-1.75s-1.75,0.783-1.75,1.75
	c0,2.502,1.061,4.757,2.748,6.354V42c0,1.104,0.896,2,2,2s2-0.896,2-2v-1.475c0.644,0.151,1.312,0.24,2.001,0.24
	c0.69,0,1.36-0.089,2.004-0.241V42c0,1.104,0.896,2,2,2s2-0.896,2-2v-3.638c1.687-1.597,2.746-3.851,2.746-6.352
	C32.75,26.423,28.331,24.211,24.78,22.435z"/>
</svg>
