<?xml version="1.0" encoding="utf-8"?>
<!-- Generator: Adobe Illustrator 16.0.0, SVG Export Plug-In . SVG Version: 6.00 Build 0)  -->
<!DOCTYPE svg PUBLIC "-//W3C//DTD SVG 1.1//EN" "http://www.w3.org/Graphics/SVG/1.1/DTD/svg11.dtd">
<svg version="1.1" id="Capa_1" xmlns="http://www.w3.org/2000/svg" xmlns:xlink="http://www.w3.org/1999/xlink" x="0px" y="0px"
	 width="48px" height="48px" viewBox="0 0 48 48" enable-background="new 0 0 48 48" xml:space="preserve">
<path d="M26,30c7.168,0,13-5.832,13-13S33.168,4,26,4h-8c-2.598,0-4,2.061-4,4v18h-4c-1.104,0-2,0.896-2,2s0.896,2,2,2h4v2h-4
	c-1.104,0-2,0.896-2,2s0.896,2,2,2h4v6c0,1.104,0.896,2,2,2s2-0.896,2-2v-6h14c1.104,0,2-0.896,2-2s-0.896-2-2-2H18v-2H26z
	 M17.999,8.057C18,8.04,18.003,8.02,18.007,8H26c4.963,0,9,4.038,9,9s-4.037,9-9,9h-8L17.999,8.057z"/>
</svg>
