<?xml version="1.0" encoding="utf-8"?>
<!-- Generator: Adobe Illustrator 16.0.0, SVG Export Plug-In . SVG Version: 6.00 Build 0)  -->
<!DOCTYPE svg PUBLIC "-//W3C//DTD SVG 1.1//EN" "http://www.w3.org/Graphics/SVG/1.1/DTD/svg11.dtd">
<svg version="1.1" id="Capa_1" xmlns="http://www.w3.org/2000/svg" xmlns:xlink="http://www.w3.org/1999/xlink" x="0px" y="0px"
	 width="48px" height="48px" viewBox="0 0 48 48" enable-background="new 0 0 48 48" xml:space="preserve">
<g>
	<path d="M33,12H7c-1.21,0-3,0.8-3,3v26c0,1.2,0.8,3,3,3h26c1.2,0,3-0.8,3-3V15C36,13.8,35.2,12,33,12z"/>
	<path d="M43,42h-1V14h1c0.553,0,1-0.448,1-1s-0.447-1-1-1h-4c-0.553,0-1,0.448-1,1s0.447,1,1,1h1v28h-1c-0.553,0-1,0.447-1,1
		s0.447,1,1,1h4c0.553,0,1-0.447,1-1S43.553,42,43,42z"/>
	<path d="M35,4c-0.553,0-1,0.448-1,1v1H6V5c0-0.552-0.448-1-1-1S4,4.448,4,5v4c0,0.552,0.448,1,1,1s1-0.448,1-1V8h28v1
		c0,0.552,0.447,1,1,1s1-0.448,1-1V5C36,4.448,35.553,4,35,4z"/>
</g>
</svg>
