<?xml version="1.0" encoding="utf-8"?>
<!-- Generator: Adobe Illustrator 16.0.0, SVG Export Plug-In . SVG Version: 6.00 Build 0)  -->
<!DOCTYPE svg PUBLIC "-//W3C//DTD SVG 1.1//EN" "http://www.w3.org/Graphics/SVG/1.1/DTD/svg11.dtd">
<svg version="1.1" id="Capa_1" xmlns="http://www.w3.org/2000/svg" xmlns:xlink="http://www.w3.org/1999/xlink" x="0px" y="0px"
	 width="48px" height="48px" viewBox="0 0 48 48" enable-background="new 0 0 48 48" xml:space="preserve">
<path d="M40,37.75V23c0-0.36-0.19-0.69-0.5-0.87l-3.52-2.01c0-0.04,0.02-0.08,0.02-0.12v-8c0-1.3-1.03-2-2-2h-4c-1.3,0-2,1.03-2,2
	v3.56l-2.5-1.43c-0.31-0.18-0.69-0.17-1,0.01C24.19,14.31,24,14.64,24,15v4.33l-4.04-2.15C19.98,17.12,20,17.07,20,17V8
	c0-1.3-1.03-2-2-2h-4c-1.3,0-2,1.03-2,2v4.93l-1.53-0.81C10.33,12.04,10.16,12,10,12c-1.3,0-2,1.03-2,2v23.75c-1.05,0.87-2,2-2,3.25
	c0,1.21,0.8,3,3,3h30c1.2,0,3-0.8,3-3C42,39.75,41.05,38.62,40,37.75z M18,35.006c0,0,0,1-1,1h-2c0,0-1,0-1-1v-2c0,0,0-1,1-1h2
	c0,0,1,0,1,1V35.006z M18,29c0,0,0,1-1,1h-2c0,0-1,0-1-1v-2c0,0,0-1,1-1h2c0,0,1,0,1,1V29z M18,16.13L14,14V8h4V16.13z M26,35.006
	c0,0,0,1-1,1h-2c0,0-1,0-1-1v-2c0,0,0-1,1-1h2c0,0,1,0,1,1V35.006z M26,29c0,0,0,1-1,1h-2c0,0-1,0-1-1v-2c0,0,0-1,1-1h2c0,0,1,0,1,1
	V29z M34,35.006c0,0,0,1-1,1h-2c0,0-1,0-1-1v-2c0,0,0-1,1-1h2c0,0,1,0,1,1V35.006z M34,29c0,0,0,1-1,1h-2c0,0-1,0-1-1v-2
	c0,0,0-1,1-1h2c0,0,1,0,1,1V29z M34,18.99l-4-2.28V12h4V18.99z"/>
</svg>
