<?xml version="1.0" encoding="utf-8"?>
<!-- Generator: Adobe Illustrator 16.0.0, SVG Export Plug-In . SVG Version: 6.00 Build 0)  -->
<!DOCTYPE svg PUBLIC "-//W3C//DTD SVG 1.1//EN" "http://www.w3.org/Graphics/SVG/1.1/DTD/svg11.dtd">
<svg version="1.1" id="Capa_1" xmlns="http://www.w3.org/2000/svg" xmlns:xlink="http://www.w3.org/1999/xlink" x="0px" y="0px"
	 width="48px" height="48px" viewBox="0 0 48 48" enable-background="new 0 0 48 48" xml:space="preserve">
<path d="M41,8h-7.21C31.27,5.53,27.81,4,24,4c-3.81,0-7.26,1.53-9.79,4H7c-1.21,0-3,0.8-3,3v24c0,1.21,0.8,3,3,3h3v6h28v-6h3
	c1.21,0,3-0.8,3-3V11C44,9.79,43.2,8,41,8z M10,18v18H7c-0.81,0-0.99-0.55-1-1V11c0-0.8,0.55-0.99,1-1h5.52
	c0.08-0.12,0.18-0.23,0.27-0.35C11.05,11.98,10,14.87,10,18z M34,25c0,3.86-3.14,7-7,7c-3.86,0-7-3.14-7-7v-7c0-2.21,1.79-4,4-4
	s4,1.79,4,4v7c0,0.55-0.45,1-1,1s-1-0.45-1-1v-7c0-1.1-0.9-2-2-2c-1.1,0-2,0.9-2,2v7c0,2.76,2.24,5,5,5s5-2.24,5-5v-7
	c0-4.41-3.59-8-8-8s-8,3.59-8,8v9c0,4.96,4.04,9,9,9c0.55,0,1,0.45,1,1s-0.45,1-1,1c-6.07,0-11-4.93-11-11v-9c0-5.51,4.49-10,10-10
	s10,4.49,10,10V25z M42,35c0,0.8-0.55,0.99-1.01,1H38V18c0-2.97-0.94-5.73-2.54-8H41c0.81,0,0.99,0.55,1,1V35z"/>
</svg>
