<?xml version="1.0" encoding="utf-8"?>
<!-- Generator: Adobe Illustrator 16.0.0, SVG Export Plug-In . SVG Version: 6.00 Build 0)  -->
<!DOCTYPE svg PUBLIC "-//W3C//DTD SVG 1.1//EN" "http://www.w3.org/Graphics/SVG/1.1/DTD/svg11.dtd">
<svg version="1.1" id="Capa_1" xmlns="http://www.w3.org/2000/svg" xmlns:xlink="http://www.w3.org/1999/xlink" x="0px" y="0px"
	 width="48px" height="48px" viewBox="0 0 48 48" enable-background="new 0 0 48 48" xml:space="preserve">
<path d="M24,4c-7.72,0-14,6.28-14,14v26h28V18C38,10.28,31.72,4,24,4z M34,25c0,3.86-3.14,7-7,7c-3.86,0-7-3.14-7-7v-7
	c0-2.21,1.79-4,4-4s4,1.79,4,4v7c0,0.55-0.45,1-1,1s-1-0.45-1-1v-7c0-1.1-0.9-2-2-2c-1.1,0-2,0.9-2,2v7c0,2.76,2.24,5,5,5
	s5-2.24,5-5v-7c0-4.41-3.59-8-8-8s-8,3.59-8,8v9c0,4.96,4.04,9,9,9c0.55,0,1,0.45,1,1s-0.45,1-1,1c-6.07,0-11-4.93-11-11v-9
	c0-5.51,4.49-10,10-10s10,4.49,10,10V25z"/>
</svg>
