<?xml version="1.0" encoding="utf-8"?>
<!-- Generator: Adobe Illustrator 16.0.0, SVG Export Plug-In . SVG Version: 6.00 Build 0)  -->
<!DOCTYPE svg PUBLIC "-//W3C//DTD SVG 1.1//EN" "http://www.w3.org/Graphics/SVG/1.1/DTD/svg11.dtd">
<svg version="1.1" id="Capa_1" xmlns="http://www.w3.org/2000/svg" xmlns:xlink="http://www.w3.org/1999/xlink" x="0px" y="0px"
	 width="48px" height="48px" viewBox="0 0 48 48" enable-background="new 0 0 48 48" xml:space="preserve">
<g>
	<path d="M24,8c-5.514,0-10,4.486-10,10v9c0,6.065,4.935,11,11,11c0.553,0,1-0.447,1-1s-0.447-1-1-1c-4.962,0-9-4.037-9-9v-9
		c0-4.411,3.589-8,8-8s8,3.589,8,8v7c0,2.757-2.243,5-5,5s-5-2.243-5-5v-7c0-1.103,0.897-2,2-2c1.103,0,2,0.897,2,2v7
		c0,0.553,0.447,1,1,1s1-0.447,1-1v-7c0-2.206-1.794-4-4-4c-2.206,0-4,1.794-4,4v7c0,3.859,3.14,7,7,7c3.859,0,7-3.141,7-7v-7
		C34,12.486,29.514,8,24,8z"/>
	<path d="M24,4c-7.72,0-14,6.28-14,14v26h28V18C38,10.28,31.72,4,24,4z M36,42H12V18c0-6.617,5.383-12,12-12c6.617,0,12,5.383,12,12
		V42z"/>
</g>
</svg>
