<?xml version="1.0" encoding="utf-8"?>
<!-- Generator: Adobe Illustrator 16.0.0, SVG Export Plug-In . SVG Version: 6.00 Build 0)  -->
<!DOCTYPE svg PUBLIC "-//W3C//DTD SVG 1.1//EN" "http://www.w3.org/Graphics/SVG/1.1/DTD/svg11.dtd">
<svg version="1.1" id="Capa_1" xmlns="http://www.w3.org/2000/svg" xmlns:xlink="http://www.w3.org/1999/xlink" x="0px" y="0px"
	 width="48px" height="48px" viewBox="0 0 48 48" enable-background="new 0 0 48 48" xml:space="preserve">
<g>
	<path d="M24,4c-7.72,0-14,6.28-14,14v26h28V18C38,10.28,31.72,4,24,4z M33,32H15c-0.55,0-1-0.45-1-1s0.45-1,1-1h18
		c0.55,0,1,0.45,1,1S33.55,32,33,32z M34,25c0,2.21-1.79,3-3,3H17c-2.2,0-3-1.79-3-3v-7c0-5.51,4.49-10,10-10s10,4.49,10,10V25z"/>
	<path d="M24,10c-4.41,0-8,3.59-8,8v7c0.01,0.45,0.19,1,1,1h13.99c0.46-0.01,1.01-0.19,1.01-1v-7C32,13.59,28.41,10,24,10z"/>
</g>
</svg>
