<?xml version="1.0" encoding="utf-8"?>
<!-- Generator: Adobe Illustrator 16.0.0, SVG Export Plug-In . SVG Version: 6.00 Build 0)  -->
<!DOCTYPE svg PUBLIC "-//W3C//DTD SVG 1.1//EN" "http://www.w3.org/Graphics/SVG/1.1/DTD/svg11.dtd">
<svg version="1.1" id="Capa_1" xmlns="http://www.w3.org/2000/svg" xmlns:xlink="http://www.w3.org/1999/xlink" x="0px" y="0px"
	 width="48px" height="48px" viewBox="0 0 48 48" enable-background="new 0 0 48 48" xml:space="preserve">
<path d="M39,34h-3v-3c0-0.55-0.45-1-1-1H25v-2.36l10.41-4.729C35.77,22.75,36,22.39,36,22s-0.23-0.75-0.59-0.91L25,16.36V14h6
	c2.2,0,3-1.79,3-3V7c0-2.2-1.79-3-3-3H17c-2.2,0-3,1.79-3,3v4c0,2.2,1.79,3,3,3h6v2.36l-10.41,4.73C12.23,21.25,12,21.61,12,22
	s0.23,0.75,0.59,0.91L23,27.64V30H13c-0.55,0-1,0.45-1,1v3H9c-1.21,0-3,0.8-3,3v4c0,1.21,0.8,3,3,3h8c1.21,0,3-0.8,3-3v-4
	c0-1.21-0.8-3-3-3h-3v-2h20v2h-3c-1.21,0-3,0.8-3,3v4c0,1.21,0.8,3,3,3h8c1.21,0,3-0.8,3-3v-4C42,35.79,41.2,34,39,34z"/>
</svg>
