<?xml version="1.0" encoding="utf-8"?>
<!-- Generator: Adobe Illustrator 16.0.0, SVG Export Plug-In . SVG Version: 6.00 Build 0)  -->
<!DOCTYPE svg PUBLIC "-//W3C//DTD SVG 1.1//EN" "http://www.w3.org/Graphics/SVG/1.1/DTD/svg11.dtd">
<svg version="1.1" id="Capa_1" xmlns="http://www.w3.org/2000/svg" xmlns:xlink="http://www.w3.org/1999/xlink" x="0px" y="0px"
	 width="48px" height="48px" viewBox="0 0 48 48" enable-background="new 0 0 48 48" xml:space="preserve">
<g>
	<path d="M35,14H13c-2.93,0-9,10.93-9,15c0,1.73,1.04,5,5,5h30c1.73,0,5-1.04,5-5C44,24.93,37.93,14,35,14z M23.37,29.93
		C23.25,29.98,23.12,30,23,30c-0.4,0-0.77-0.24-0.93-0.63l-0.95-2.38C21.08,27,21.04,27,21,27h-4c-0.04,0-0.08,0-0.12-0.01
		l-0.95,2.38c-0.21,0.51-0.79,0.76-1.3,0.56c-0.51-0.21-0.76-0.79-0.56-1.3l4-10C18.22,18.25,18.59,18,19,18s0.78,0.25,0.93,0.63
		l4,10C24.13,29.14,23.88,29.72,23.37,29.93z M34,26c0,2.21-1.79,4-4,4s-4-1.79-4-4v-5c0-0.55,0.45-1,1-1s1,0.45,1,1v5
		c0,1.1,0.9,2,2,2s2-0.9,2-2v-5c0-0.55,0.45-1,1-1s1,0.45,1,1V26z"/>
	<polygon points="17.68,25 20.32,25 19,21.69 	"/>
</g>
</svg>
