<?xml version="1.0" encoding="utf-8"?>
<!-- Generator: Adobe Illustrator 16.0.0, SVG Export Plug-In . SVG Version: 6.00 Build 0)  -->
<!DOCTYPE svg PUBLIC "-//W3C//DTD SVG 1.1//EN" "http://www.w3.org/Graphics/SVG/1.1/DTD/svg11.dtd">
<svg version="1.1" id="Capa_1" xmlns="http://www.w3.org/2000/svg" xmlns:xlink="http://www.w3.org/1999/xlink" x="0px" y="0px"
	 width="48px" height="48px" viewBox="0 0 48 48" enable-background="new 0 0 48 48" xml:space="preserve">
<g>
	<path d="M33,8H7c-1.21,0-3,0.8-3,3v26c0,1.2,0.8,3,3,3h26c1.2,0,3-0.8,3-3V11C36,9.8,35.2,8,33,8z"/>
	<path d="M43,38h-1V10h1c0.553,0,1-0.448,1-1s-0.447-1-1-1h-4c-0.553,0-1,0.448-1,1s0.447,1,1,1h1v28h-1c-0.553,0-1,0.447-1,1
		s0.447,1,1,1h4c0.553,0,1-0.447,1-1S43.553,38,43,38z"/>
</g>
</svg>
