<?xml version="1.0" encoding="utf-8"?>
<!-- Generator: Adobe Illustrator 16.0.0, SVG Export Plug-In . SVG Version: 6.00 Build 0)  -->
<!DOCTYPE svg PUBLIC "-//W3C//DTD SVG 1.1//EN" "http://www.w3.org/Graphics/SVG/1.1/DTD/svg11.dtd">
<svg version="1.1" id="Capa_1" xmlns="http://www.w3.org/2000/svg" xmlns:xlink="http://www.w3.org/1999/xlink" x="0px" y="0px"
	 width="48px" height="48px" viewBox="0 0 48 48" enable-background="new 0 0 48 48" xml:space="preserve">
<path d="M45.02,26h-1.31l-5.27-14.05C39.26,11.77,40,11.1,40,10c0-0.89-0.01-1.73-12.3-3.5C27.11,5.04,25.68,4,24,4
	c-1.68,0-3.11,1.04-3.7,2.5C8.01,8.27,8,9.11,8,10c0,0.81,0.5,1.66,1.42,1.92L4.38,22H3c-0.55,0-1,0.45-1,1s0.45,1,1,1h1.14
	c0.63,2.31,3.42,4,6.86,4s6.23-1.69,6.86-4H19c0.55,0,1-0.45,1-1s-0.45-1-1-1h-1.38l-5-10h9.99l-2.45,25.29
	C17.29,38.62,14,40.69,14,42c0,1.3,1.03,2,2,2h16c0.97,0,2-0.7,2-2c0-1.31-3.29-3.38-6.16-4.71L25.39,12h10.19l-5.26,14H29.01
	c-0.55,0-1,0.45-1,1s0.45,1,1,1h1.141c0.63,2.31,3.42,4,6.869,4c3.44,0,6.23-1.69,6.87-4h1.13c0.561,0,1-0.45,1-1S45.58,26,45.02,26
	z M11,26c-2.13,0-3.98-0.85-4.68-2h9.36C14.98,25.15,13.13,26,11,26z M15.38,22H6.62L11,13.24L15.38,22z M24,10c-1.1,0-2-0.9-2-2
	s0.9-2,2-2c1.1,0,2,0.9,2,2S25.1,10,24,10z M37.02,13.85L41.58,26h-9.12L37.02,13.85z M37.02,30c-2.13,0-3.979-0.85-4.689-2h9.37
	C41,29.15,39.15,30,37.02,30z"/>
</svg>
