<?xml version="1.0" encoding="utf-8"?>
<!-- Generator: Adobe Illustrator 16.0.0, SVG Export Plug-In . SVG Version: 6.00 Build 0)  -->
<!DOCTYPE svg PUBLIC "-//W3C//DTD SVG 1.1//EN" "http://www.w3.org/Graphics/SVG/1.1/DTD/svg11.dtd">
<svg version="1.1" id="Capa_1" xmlns="http://www.w3.org/2000/svg" xmlns:xlink="http://www.w3.org/1999/xlink" x="0px" y="0px"
	 width="48px" height="48px" viewBox="0 0 48 48" enable-background="new 0 0 48 48" xml:space="preserve">
<g>
	<path d="M34.003,40H14V16h-4v24c0,2.206,1.794,4,4,4h20c2.206,0,4-1.794,4-4V16h-4L34.003,40z"/>
	<path d="M34,8h-5.445l-0.64-2.824C27.533,3.364,25.923,2,24,2s-3.534,1.364-3.915,3.175L19.445,8H14c-2.206,0-4,1.794-4,4v2h4h20h4
		v-2C38,9.794,36.206,8,34,8z M24,7.5c-0.828,0-1.5-0.672-1.5-1.5s0.672-1.5,1.5-1.5s1.5,0.672,1.5,1.5S24.828,7.5,24,7.5z"/>
	<path d="M29,38c1.206,0,3-0.799,3-3V19c0-1.206-0.799-3-3-3H19c-1.206,0-3,0.799-3,3v16c0,1.206,0.799,3,3,3H29z M30,19.802V35
		c0,0.803-0.547,0.987-1.008,1h-9.791L30,19.802z M18,19c0-0.805,0.55-0.988,1-1h9.798L18,34.197V19z"/>
</g>
</svg>
