<?xml version="1.0" encoding="utf-8"?>
<!-- Generator: Adobe Illustrator 16.0.0, SVG Export Plug-In . SVG Version: 6.00 Build 0)  -->
<!DOCTYPE svg PUBLIC "-//W3C//DTD SVG 1.1//EN" "http://www.w3.org/Graphics/SVG/1.1/DTD/svg11.dtd">
<svg version="1.1" id="Capa_1" xmlns="http://www.w3.org/2000/svg" xmlns:xlink="http://www.w3.org/1999/xlink" x="0px" y="0px"
	 width="48px" height="48px" viewBox="0 0 48 48" enable-background="new 0 0 48 48" xml:space="preserve">
<g>
	<path d="M32,26.002h3.999c0,0,2,0,2-2.001c0-2-2-2-2-2H32c-2,0-2,2-2,2C30,26.002,32,26.002,32,26.002z"/>
	<path d="M22.001,26.002H26c0,0,2,0,2-2.001c0-2-2-2-2-2h-3.999c-2,0-2,2-2,2C20.001,26.002,22.001,26.002,22.001,26.002z"/>
	<path d="M12,26.002h4c0,0,2,0,2-2.001c0-2-2-2-2-2h-4c-2,0-2,2-2,2C10,26.002,12,26.002,12,26.002z"/>
	<path d="M39,12H22.094c-1.641,0-2.873-0.603-3.875-1.897C17.077,8.629,15.874,8,14.195,8H9c-1.657,0-3,1.343-3,3v24
		c0,1.656,1.343,3,3,3h30c1.656,0,3-1.344,3-3V15C42,13.343,40.656,12,39,12z M40,35c0,0.553-0.448,1-1,1H9c-0.552,0-1-0.447-1-1V20
		c0-1.104,0.896-2,2-2h28c1.104,0,2,0.896,2,2V35z"/>
	<path d="M36,28.002H12c-2,0-2,2-2,2c0,2,2,2,2,2h24c0,0,2,0,2-2S36,28.002,36,28.002z"/>
</g>
</svg>
