<?xml version="1.0" encoding="utf-8"?>
<!-- Generator: Adobe Illustrator 16.0.0, SVG Export Plug-In . SVG Version: 6.00 Build 0)  -->
<!DOCTYPE svg PUBLIC "-//W3C//DTD SVG 1.1//EN" "http://www.w3.org/Graphics/SVG/1.1/DTD/svg11.dtd">
<svg version="1.1" id="Capa_1" xmlns="http://www.w3.org/2000/svg" xmlns:xlink="http://www.w3.org/1999/xlink" x="0px" y="0px"
	 width="48px" height="48px" viewBox="0 0 48 48" enable-background="new 0 0 48 48" xml:space="preserve">
<g>
	<path d="M18,20h2.994c0,0,1.999,0,1.999-2s-1.999-2-1.999-2S20,16,18,16s-2,2-2,2C16,20,18,20,18,20z"/>
	<path d="M29.994,20c0,0,1.999,0,1.999-2s-1.999-2-1.999-2s-0.993,0-2.993,0s-2,2-2,2c0,2,2,2,2,2H29.994z"/>
	<path d="M18,26h12c0,0,2,0,2-2s-2-2-2-2s-10,0-12,0s-2,2-2,2C16,26,18,26,18,26z"/>
	<path d="M34.003,40H14V16h-4v24c0,2.206,1.794,4,4,4h20c2.206,0,4-1.794,4-4V16h-4L34.003,40z"/>
	<path d="M18,38h12c0,0,2,0,2-2s-2-2-2-2s-10,0-12,0s-2,2-2,2C16,38,18,38,18,38z"/>
	<path d="M34,8h-5.445l-0.64-2.824C27.533,3.364,25.923,2,24,2s-3.534,1.364-3.915,3.175L19.445,8H14c-2.206,0-4,1.794-4,4v2h4h20h4
		v-2C38,9.794,36.206,8,34,8z M24,7.5c-0.828,0-1.5-0.672-1.5-1.5s0.672-1.5,1.5-1.5s1.5,0.672,1.5,1.5S24.828,7.5,24,7.5z"/>
	<path d="M18,32.01h2.994c0,0,1.999,0,1.999-2.001s-1.999-2.001-1.999-2.001s-0.994,0-2.994,0s-2,2.001-2,2.001
		C16,32.01,18,32.01,18,32.01z"/>
	<path d="M29.994,28.008c0,0-0.993,0-2.993,0s-2,2.001-2,2.001c0,2.001,2,2.001,2,2.001h2.993c0,0,1.999,0,1.999-2.001
		S29.994,28.008,29.994,28.008z"/>
</g>
</svg>
