<?xml version="1.0" encoding="utf-8"?>
<!-- Generator: Adobe Illustrator 16.0.0, SVG Export Plug-In . SVG Version: 6.00 Build 0)  -->
<!DOCTYPE svg PUBLIC "-//W3C//DTD SVG 1.1//EN" "http://www.w3.org/Graphics/SVG/1.1/DTD/svg11.dtd">
<svg version="1.1" id="Capa_1" xmlns="http://www.w3.org/2000/svg" xmlns:xlink="http://www.w3.org/1999/xlink" x="0px" y="0px"
	 width="48px" height="48px" viewBox="0 0 48 48" enable-background="new 0 0 48 48" xml:space="preserve">
<g>
	<path d="M20,40.12c-0.33-0.061-0.67-0.101-1.02-0.101H18V43c0,2.2,1.79,3,3,3h2.99v-0.97c0-0.351-0.04-0.7-0.11-1.03
		C23.48,42.06,21.94,40.53,20,40.12z"/>
	<path d="M20,7.899c1.95-0.41,3.49-1.949,3.89-3.9c0.07-0.319,0.101-0.66,0.101-1L24,2h-3c-2.21,0-3,1.79-3,2.999v3h0.98
		C19.33,7.999,19.67,7.96,20,7.899z"/>
	<path d="M44.001,40.12c-1.95,0.399-3.49,1.93-3.9,3.88c-0.06,0.33-0.1,0.68-0.1,1.03V46h3C45.211,46,46,44.21,46,43v-3h-1
		C44.66,40,44.321,40.05,44.001,40.12z"/>
	<path d="M43,2h-3l0.001,0.999c0,0.34,0.029,0.681,0.1,1c0.4,1.961,1.94,3.5,3.9,3.9c0.32,0.07,0.66,0.1,1,0.1L46,8V5
		C46,2.801,44.21,2,43,2z"/>
	<path d="M32,18c-4.411,0-8,2.689-8,5.999C24,27.31,27.589,30,32,30c4.41,0,8-2.689,8-6C40,20.69,36.41,18,32,18z"/>
	<path d="M44.001,9.919c-3.061-0.43-5.49-2.859-5.92-5.92C38.021,3.669,38,3.34,38,3V2H26v1c0,0.34-0.03,0.669-0.09,0.999
		C25.48,7.05,23.06,9.479,20,9.919C19.67,9.97,19.35,10,19,10h-1v28h1c0.35,0,0.67,0.05,1,0.1c3.05,0.44,5.46,2.86,5.9,5.9
		c0.06,0.33,0.1,0.649,0.1,1v1h12v-1c0-0.351,0.03-0.67,0.091-1c0.439-3.05,2.86-5.47,5.91-5.9C44.331,38.04,44.66,38,45,38h1V10h-1
		C44.66,10,44.331,9.979,44.001,9.919z M32,32c-5.511,0-10-3.589-10-8c0-4.41,4.489-8,10-8c5.51,0,10,3.59,10,8
		C42,28.411,37.51,32,32,32z"/>
	<path d="M6.219,20.625C6.417,20.872,6.707,21,7,21c0.219,0,0.44-0.072,0.624-0.219c0.432-0.345,0.501-0.974,0.156-1.405L5.081,16
		H15c0.552,0,1-0.448,1-1s-0.448-1-1-1H5.081l2.7-3.375c0.345-0.431,0.275-1.061-0.156-1.405c-0.43-0.344-1.061-0.275-1.405,0.156
		l-4,5c-0.292,0.365-0.292,0.884,0,1.249L6.219,20.625z"/>
	<path d="M11.781,29.375c-0.345-0.432-0.975-0.501-1.405-0.156c-0.432,0.346-0.501,0.975-0.156,1.406l2.708,3.385L3.001,34
		c0,0,0,0-0.001,0c-0.552,0-1,0.447-1,0.999c0,0.553,0.447,1,0.999,1.001l9.913,0.01l-2.692,3.365
		c-0.345,0.432-0.275,1.061,0.156,1.406C10.56,40.929,10.78,41,11,41c0.293,0,0.584-0.129,0.781-0.375l4-5
		c0.292-0.365,0.292-0.885,0-1.25L11.781,29.375z"/>
</g>
</svg>
