<?xml version="1.0" encoding="utf-8"?>
<!-- Generator: Adobe Illustrator 16.0.0, SVG Export Plug-In . SVG Version: 6.00 Build 0)  -->
<!DOCTYPE svg PUBLIC "-//W3C//DTD SVG 1.1//EN" "http://www.w3.org/Graphics/SVG/1.1/DTD/svg11.dtd">
<svg version="1.1" id="Capa_1" xmlns="http://www.w3.org/2000/svg" xmlns:xlink="http://www.w3.org/1999/xlink" x="0px" y="0px"
	 width="48px" height="48px" viewBox="0 0 48 48" enable-background="new 0 0 48 48" xml:space="preserve">
<g>
	<path d="M18,24c0-4,1.68-7.61,4.38-10.16c0.5-0.49,1.05-0.93,1.62-1.32C21.73,10.93,18.97,10,16,10C8.28,10,2,16.28,2,24
		c0,7.72,6.28,14,14,14c2.97,0,5.73-0.93,8-2.52c-0.57-0.391-1.12-0.83-1.62-1.32C19.68,31.61,18,28,18,24z"/>
	<path d="M32,10c-2.97,0-5.73,0.93-8,2.52c0.57,0.39,1.12,0.83,1.62,1.32C28.32,16.39,30,20,30,24s-1.68,7.61-4.38,10.16
		c-0.5,0.49-1.05,0.93-1.62,1.32c2.27,1.59,5.03,2.52,8,2.52c7.72,0,14-6.28,14-14C46,16.28,39.72,10,32,10z"/>
	<path d="M24,15.07c-2.46,2.19-4,5.38-4,8.93s1.54,6.74,4,8.93c2.46-2.189,4-5.38,4-8.93S26.46,17.26,24,15.07z"/>
</g>
</svg>
