<?xml version="1.0" encoding="utf-8"?>
<!-- Generator: Adobe Illustrator 16.0.0, SVG Export Plug-In . SVG Version: 6.00 Build 0)  -->
<!DOCTYPE svg PUBLIC "-//W3C//DTD SVG 1.1//EN" "http://www.w3.org/Graphics/SVG/1.1/DTD/svg11.dtd">
<svg version="1.1" id="Capa_1" xmlns="http://www.w3.org/2000/svg" xmlns:xlink="http://www.w3.org/1999/xlink" x="0px" y="0px"
	 width="48px" height="48px" viewBox="0 0 48 48" enable-background="new 0 0 48 48" xml:space="preserve">
<g>
	<path d="M37.62,36.98C37.86,36.1,38,35.12,38,34c0-6.27-4.49-17.56-11-20.36c2.43-1.78,5-4.9,5-6.64c0-2.2-1.79-3-3-3H19
		c-1.21,0-3,0.8-3,3c0,1.74,2.57,4.86,5,6.64C14.49,16.44,10,27.73,10,34c0,1.12,0.14,2.11,0.38,2.99C9.36,37.88,8,39.37,8,41
		c0,2.2,1.79,3,3,3h26.02c1.2,0,3-0.8,3-3C40.02,39.36,38.65,37.87,37.62,36.98z M29.002,36H19c-0.332,0-0.642-0.165-0.828-0.439
		s-0.224-0.623-0.101-0.932c0.012-0.03,0.784-1.991,1.348-4.629H18c-0.552,0-1-0.447-1-1s0.448-1,1-1h1.772
		C19.91,27.026,20,26.012,20,25c0-2.206,2.243-4,5-4s5,1.794,5,4c0,0.553-0.447,1-1,1s-1-0.447-1-1c0-1.084-1.374-2-3-2
		s-3,0.916-3,2c0,1.018-0.083,2.027-0.209,3H25c0.553,0,1,0.447,1,1s-0.447,1-1,1h-3.536c-0.324,1.626-0.732,3.034-1.048,4h8.586
		c0.553,0,1,0.447,1,1S29.555,36,29.002,36z"/>
</g>
</svg>
