<?xml version="1.0" encoding="utf-8"?>
<!-- Generator: Adobe Illustrator 16.0.0, SVG Export Plug-In . SVG Version: 6.00 Build 0)  -->
<!DOCTYPE svg PUBLIC "-//W3C//DTD SVG 1.1//EN" "http://www.w3.org/Graphics/SVG/1.1/DTD/svg11.dtd">
<svg version="1.1" id="Capa_1" xmlns="http://www.w3.org/2000/svg" xmlns:xlink="http://www.w3.org/1999/xlink" x="0px" y="0px"
	 width="48px" height="48px" viewBox="0 0 48 48" enable-background="new 0 0 48 48" xml:space="preserve">
<g>
	<path d="M37.62,36.98C37.86,36.1,38,35.12,38,34c0-6.27-4.49-17.56-11-20.36c2.43-1.78,5-4.9,5-6.64c0-2.2-1.79-3-3-3H19
		c-1.21,0-3,0.8-3,3c0,1.74,2.57,4.86,5,6.64C14.49,16.44,10,27.73,10,34c0,1.12,0.14,2.11,0.38,2.99C9.36,37.88,8,39.37,8,41
		c0,2.2,1.79,3,3,3h26.02c1.2,0,3-0.8,3-3C40.02,39.36,38.65,37.87,37.62,36.98z M29.77,22.64L25,28.363V30h2c0.553,0,1,0.447,1,1
		s-0.447,1-1,1h-2v1.003h2c0.553,0,1,0.447,1,1s-0.447,1-1,1h-2V37c0,0.553-0.448,1-1,1s-1-0.447-1-1v-1.997h-2
		c-0.552,0-1-0.447-1-1s0.448-1,1-1h2V32h-2c-0.552,0-1-0.447-1-1s0.448-1,1-1h2v-1.637l-4.769-5.723
		c-0.354-0.424-0.296-1.055,0.128-1.408c0.424-0.354,1.054-0.296,1.408,0.128L24,26.438l4.232-5.079
		c0.354-0.424,0.983-0.481,1.409-0.128C30.065,21.585,30.123,22.216,29.77,22.64z"/>
</g>
</svg>
