<?xml version="1.0" encoding="utf-8"?>
<!-- Generator: Adobe Illustrator 16.0.0, SVG Export Plug-In . SVG Version: 6.00 Build 0)  -->
<!DOCTYPE svg PUBLIC "-//W3C//DTD SVG 1.1//EN" "http://www.w3.org/Graphics/SVG/1.1/DTD/svg11.dtd">
<svg version="1.1" id="Capa_1" xmlns="http://www.w3.org/2000/svg" xmlns:xlink="http://www.w3.org/1999/xlink" x="0px" y="0px"
	 width="48px" height="48px" viewBox="0 0 48 48" enable-background="new 0 0 48 48" xml:space="preserve">
<path d="M37.62,36.98C37.86,36.1,38,35.12,38,34c0-6.27-4.49-17.56-11-20.36c2.43-1.78,5-4.9,5-6.64c0-2.2-1.79-3-3-3H19
	c-1.21,0-3,0.8-3,3c0,1.74,2.57,4.86,5,6.64C14.49,16.44,10,27.73,10,34c0,1.12,0.14,2.11,0.38,2.99C9.36,37.88,8,39.37,8,41
	c0,2.2,1.79,3,3,3h26.02c1.2,0,3-0.8,3-3C40.02,39.36,38.65,37.87,37.62,36.98z M24.451,28.112C26.032,28.905,28,29.893,28,32.006
	c0,1.858-1.279,3.411-3,3.858v1.148c0,0.553-0.448,1-1,1s-1-0.447-1-1v-1.148c-1.72-0.447-3-2-3-3.858c0-0.553,0.448-1,1-1
	s1,0.447,1,1c0,1.103,0.897,2,2,2c1.103,0,2-0.897,2-2c0-0.82-0.924-1.343-2.446-2.105C21.971,29.106,20,28.118,20,26
	c0-1.858,1.28-3.411,3-3.858V21c0-0.552,0.448-1,1-1s1,0.448,1,1v1.142c1.721,0.447,3,2,3,3.858c0,0.553-0.447,1-1,1s-1-0.447-1-1
	c0-1.103-0.897-2-2-2c-1.103,0-2,0.897-2,2C22,26.824,22.926,27.348,24.451,28.112z"/>
</svg>
