<?xml version="1.0" encoding="utf-8"?>
<!-- Generator: Adobe Illustrator 16.0.0, SVG Export Plug-In . SVG Version: 6.00 Build 0)  -->
<!DOCTYPE svg PUBLIC "-//W3C//DTD SVG 1.1//EN" "http://www.w3.org/Graphics/SVG/1.1/DTD/svg11.dtd">
<svg version="1.1" id="Capa_1" xmlns="http://www.w3.org/2000/svg" xmlns:xlink="http://www.w3.org/1999/xlink" x="0px" y="0px"
	 width="48px" height="48px" viewBox="0 0 48 48" enable-background="new 0 0 48 48" xml:space="preserve">
<path d="M41,34h-1V23c0-5.84-4.58-10.62-10.34-10.96C28.85,9.69,26.62,8,24,8s-4.85,1.69-5.66,4.04C12.58,12.38,8,17.16,8,23v11H7
	c-1.1,0-2,0.9-2,2c0,1.11,0.9,2,2,2h34c1.1,0,2-0.89,2-2C43,34.9,42.1,34,41,34z M28,32c0,2-2,2-2,2h-4c-2,0-2-2-2-2V14
	c0-2.2,1.79-4,4-4s4,1.8,4,4V32z"/>
</svg>
