<?xml version="1.0" encoding="utf-8"?>
<!-- Generator: Adobe Illustrator 16.0.0, SVG Export Plug-In . SVG Version: 6.00 Build 0)  -->
<!DOCTYPE svg PUBLIC "-//W3C//DTD SVG 1.1//EN" "http://www.w3.org/Graphics/SVG/1.1/DTD/svg11.dtd">
<svg version="1.1" id="Capa_1" xmlns="http://www.w3.org/2000/svg" xmlns:xlink="http://www.w3.org/1999/xlink" x="0px" y="0px"
	 width="48px" height="48px" viewBox="0 0 48 48" enable-background="new 0 0 48 48" xml:space="preserve">
<path fill="none" d="M24,45c13.5,0,18-2.25,18-3.38c0-1.12,0-6.74-2.25-9c-2.25-2.24-9-2.8-10.13-3.851
	c-0.7-0.649-0.96-1.619-1.061-3.09c0.46-0.29,0.841-0.609,1.061-0.93c0.5-0.71,0.89-1.71,1.189-2.86c-1.06,0.61-2.46,1.04-4.31,1.1
	h-0.09C26.22,23.58,25.66,24,25,24c-0.83,0-1.5-0.67-1.5-1.5S24.17,21,25,21c0.65,0,1.2,0.41,1.4,0.99
	c1.439-0.06,5.069-0.67,5.359-6.59c-0.04,1.14-0.21,3.33-0.58,4.83c-0.109,0.58-0.229,1.14-0.37,1.66C33.51,20.36,34,17.7,34,17
	c0-1,0-2,0-2c0-1-1-1-1-1h-1.2c0.07-1.59,0.08-2.97,0.08-3.88c0-4.5-3.939-7.94-8.37-7.94c-4.43,0-4.64,3.02-4.64,3.02
	c-1.48,0.42-2.75,1.34-2.75,4.92c0,1.03,0.02,2.68,0.11,4.53c-0.04-0.01-0.08-0.03-0.13-0.03c-0.79,0-1.29,1.26-1.12,2.82
	c0.17,1.55,0.95,2.81,1.73,2.81c0.04,0,0.07-0.02,0.11-0.02c0.34,1.84,0.83,3.48,1.56,4.52c0.22,0.32,0.6,0.64,1.06,0.93
	c-0.1,1.471-0.36,2.44-1.06,3.09c-1.13,1.051-7.88,1.61-10.13,3.851C6,34.88,6,40.5,6,41.62C6,42.75,10.5,45,24,45z"/>
</svg>
