<?xml version="1.0" encoding="utf-8"?>
<!-- Generator: Adobe Illustrator 16.0.0, SVG Export Plug-In . SVG Version: 6.00 Build 0)  -->
<!DOCTYPE svg PUBLIC "-//W3C//DTD SVG 1.1//EN" "http://www.w3.org/Graphics/SVG/1.1/DTD/svg11.dtd">
<svg version="1.1" id="Capa_1" xmlns="http://www.w3.org/2000/svg" xmlns:xlink="http://www.w3.org/1999/xlink" x="0px" y="0px"
	 width="48px" height="48px" viewBox="0 0 48 48" enable-background="new 0 0 48 48" xml:space="preserve">
<g>
	<path d="M33.997,40.101c-1.95,0.399-3.49,1.93-3.9,3.88c-0.06,0.33-0.1,0.68-0.1,1.03v0.97h3c2.21,0,3-1.79,3-3V40h-1
		C34.657,40,34.316,40.03,33.997,40.101z"/>
	<path d="M10,40.12C9.67,40.06,9.33,40.02,8.98,40.02H8V44H6c-1.61,0-1.98-1.1-2-2V6c0-1.61,1.1-1.98,2-2h2v4h0.98
		C9.33,8,9.67,7.96,10,7.9c1.95-0.41,3.49-1.95,3.88-3.9c0.08-0.32,0.11-0.66,0.11-1V2H6c0,0-3.99,0-3.99,4v36c0,0-0.01,4,3.99,4
		h7.99v-0.97c0-0.351-0.04-0.7-0.11-1.03C13.48,42.06,11.94,40.53,10,40.12z"/>
	<path d="M33.997,7.9c0.319,0.07,0.66,0.1,1,0.1h1V5c0-2.2-1.79-3-3-3h-3v1c0,0.34,0.029,0.68,0.1,1
		C30.497,5.96,32.037,7.5,33.997,7.9z"/>
	<path d="M43.784,23.375l-4.004-5c-0.344-0.43-0.973-0.501-1.405-0.156c-0.432,0.345-0.501,0.975-0.155,1.406L41.723,24
		l-3.503,4.375c-0.346,0.431-0.276,1.061,0.155,1.405C38.56,29.929,38.78,30,38.999,30c0.294,0,0.584-0.128,0.781-0.375l4.004-5
		C44.077,24.26,44.077,23.74,43.784,23.375z"/>
	<path d="M22,18c-4.42,0-8,2.69-8,6c0,3.31,3.58,6,8,6c4.41,0,8-2.69,8-6C30,20.69,26.41,18,22,18z"/>
	<path d="M34,9.92C30.939,9.49,28.51,7.06,28.08,4C28.02,3.67,28,3.34,28,3V2H15.99v1c0,0.34-0.03,0.67-0.08,1
		C15.48,7.05,13.05,9.48,10,9.92C9.67,9.97,9.33,10,8.98,10H8v28.02h0.98c0.35,0,0.689,0.03,1.02,0.08c3.04,0.44,5.46,2.86,5.9,5.9
		c0.06,0.33,0.09,0.68,0.09,1.03V46H28v-0.97c0-0.351,0.029-0.7,0.09-1.03c0.439-3.05,2.86-5.47,5.91-5.9
		c0.33-0.06,0.66-0.08,1-0.08h1V10h-1C34.66,10,34.33,9.98,34,9.92z M21.99,32c-5.5,0-9.99-3.59-9.99-8s4.49-8,9.99-8
		C27.51,16,32,19.59,32,24S27.51,32,21.99,32z"/>
</g>
</svg>
