<?xml version="1.0" encoding="utf-8"?>
<!-- Generator: Adobe Illustrator 16.0.0, SVG Export Plug-In . SVG Version: 6.00 Build 0)  -->
<!DOCTYPE svg PUBLIC "-//W3C//DTD SVG 1.1//EN" "http://www.w3.org/Graphics/SVG/1.1/DTD/svg11.dtd">
<svg version="1.1" id="Capa_1" xmlns="http://www.w3.org/2000/svg" xmlns:xlink="http://www.w3.org/1999/xlink" x="0px" y="0px"
	 width="48px" height="48px" viewBox="0 0 48 48" enable-background="new 0 0 48 48" xml:space="preserve">
<g>
	<path d="M6,11.9C7.96,11.5,9.5,9.96,9.9,8C9.97,7.68,10,7.34,10,7V6H7C4.8,6,4,7.79,4,9v3h1C5.34,12,5.68,11.97,6,11.9z"/>
	<path d="M41.98,11.9c0.329,0.06,0.68,0.1,1.029,0.1h0.971V9c0-2.21-1.79-3-3-3H38v1c0,0.34,0.03,0.68,0.1,1
		C38.5,9.95,40.03,11.49,41.98,11.9z"/>
	<path d="M43.8,14.4c-0.01-0.02-0.03-0.04-0.05-0.05C43.56,14.12,43.29,14,43.01,14H43c-0.35,0-0.69-0.03-1.02-0.09
		c-3.051-0.44-5.471-2.86-5.9-5.91C36.02,7.67,36,7.34,36,7V6H12v1c0,0.34-0.02,0.67-0.08,1c-0.43,3.06-2.86,5.49-5.92,5.92
		C5.67,13.98,5.34,14,5,14c-0.14,0-0.28,0.03-0.41,0.09c-0.13,0.06-0.25,0.15-0.34,0.25C4.09,14.52,4,14.75,4,15v24
		c0,1.21,0.8,3,3,3h34c1.21,0,3-0.8,3-3c0,0,0-23.52,0-23.99C44,14.8,43.94,14.58,43.8,14.4z M24,10c4.41,0,8,4.49,8,10
		c0,1.5-0.26,2.92-0.74,4.19l-2.761,2.471l-0.633-0.563C29.168,24.636,30,22.445,30,20c0-4.41-2.69-8-6-8c-3.31,0-6,3.59-6,8
		c0,2.445,0.832,4.636,2.134,6.099l-0.632,0.562c-0.609-0.547-1.588-1.425-2.762-2.48C16.26,22.91,16,21.49,16,20
		C16,14.49,19.59,10,24,10z M6,38.662V17.22c1.12,1.02,2.86,2.58,5.58,5.02L18,27.996L6,38.662z M7.504,40L24,25.339L40.495,40
		H7.504z M42,38.662L30,27.996L42,17.24V38.662z"/>
</g>
</svg>
