<?xml version="1.0" encoding="utf-8"?>
<!-- Generator: Adobe Illustrator 16.0.0, SVG Export Plug-In . SVG Version: 6.00 Build 0)  -->
<!DOCTYPE svg PUBLIC "-//W3C//DTD SVG 1.1//EN" "http://www.w3.org/Graphics/SVG/1.1/DTD/svg11.dtd">
<svg version="1.1" id="Capa_1" xmlns="http://www.w3.org/2000/svg" xmlns:xlink="http://www.w3.org/1999/xlink" x="0px" y="0px"
	 width="48px" height="48px" viewBox="0 0 48 48" enable-background="new 0 0 48 48" xml:space="preserve">
<path d="M41.86,21.13C40.85,14.39,34.33,10,25,10c-8.59,0-14.39,2.92-16.31,8H7c-1.21,0-3,0.8-3,3v5c0,1.85,3.11,4.47,6,6.12
	c1.06,0.6,2.35,1.25,3.86,1.83l-0.36,1.97c-0.34,1.89,0.92,3.72,2.82,4.061c0.21,0.039,0.42,0.06,0.63,0.06
	c0.71,0,1.4-0.21,1.99-0.62c0.77-0.54,1.28-1.34,1.45-2.25l0.26-1.47c1.36,0.189,2.8,0.3,4.34,0.3C25,36,25,36,25,36
	c1.28,0,2.48-0.05,3.6-0.15l0.24,1.32c0.3,1.68,1.78,2.87,3.44,2.87c0.21,0,0.42-0.021,0.63-0.06c0.92-0.16,1.72-0.681,2.25-1.45
	c0.53-0.771,0.729-1.7,0.57-2.61l-0.29-1.61c3.34-1.46,5.35-3.88,6.149-7.369C42.96,26.67,44,25.46,44,24
	C44,22.65,43.09,21.5,41.86,21.13z M13.999,24.001c-1.104,0-2-0.896-2-2s0.896-2,2-2s2,0.896,2,2S15.103,24.001,13.999,24.001z
	 M23.969,15.243C23.92,15.437,22.737,20,18.999,20c-3.737,0-4.921-4.563-4.97-4.757c-0.134-0.536,0.192-1.079,0.728-1.213
	c0.536-0.133,1.078,0.191,1.212,0.726C15.983,14.812,16.833,18,18.999,18c2.176,0,3.022-3.212,3.03-3.245
	c0.137-0.535,0.679-0.859,1.214-0.723C23.778,14.167,24.103,14.708,23.969,15.243z M28.458,22.101
	c1.582,0.792,3.552,1.779,3.552,3.893c0,1.858-1.28,3.411-3.002,3.858V31c0,0.553-0.447,1-1,1s-1-0.447-1-1v-1.148
	c-1.721-0.447-3.001-2-3.001-3.858c0-0.553,0.448-1,1-1c0.553,0,1,0.447,1,1c0,1.103,0.897,2,2.001,2s2.002-0.897,2.002-2
	c0-0.819-0.925-1.342-2.447-2.104c-1.584-0.793-3.556-1.781-3.556-3.898c0-1.857,1.28-3.41,3.001-3.856v-1.141c0-0.552,0.447-1,1-1
	s1,0.448,1,1v1.141c1.722,0.447,3.002,2,3.002,3.857c0,0.552-0.447,1-1,1s-1-0.448-1-1c0-1.102-0.898-1.999-2.002-1.999
	s-2.001,0.896-2.001,1.999C26.007,20.813,26.933,21.336,28.458,22.101z"/>
</svg>
