<?xml version="1.0" encoding="utf-8"?>
<!-- Generator: Adobe Illustrator 16.0.0, SVG Export Plug-In . SVG Version: 6.00 Build 0)  -->
<!DOCTYPE svg PUBLIC "-//W3C//DTD SVG 1.1//EN" "http://www.w3.org/Graphics/SVG/1.1/DTD/svg11.dtd">
<svg version="1.1" id="Capa_1" xmlns="http://www.w3.org/2000/svg" xmlns:xlink="http://www.w3.org/1999/xlink" x="0px" y="0px"
	 width="48px" height="48px" viewBox="0 0 48 48" enable-background="new 0 0 48 48" xml:space="preserve">
<path d="M39.546,26.123L28,17v-9c0-2.209-1.791-4-4-4s-4,1.791-4,4v9L8.454,26.123C8.171,26.308,8,26.623,8,26.961V30.9
	c0,0.337,0.17,0.651,0.452,0.836C8.617,31.845,8.808,31.9,9,31.9c0.135,0,0.271-0.027,0.399-0.083L20.5,25.999l0.947,11.286
	l-3.028,2.163C18.156,39.636,18,39.938,18,40.262v2.641c0,0.332,0.165,0.642,0.439,0.828c0.168,0.113,0.363,0.172,0.561,0.172
	c0.125,0,0.251-0.023,0.372-0.071L24,41.979l4.629,1.852c0.119,0.048,0.245,0.071,0.371,0.071c0.197,0,0.393-0.059,0.561-0.172
	C29.835,43.544,30,43.234,30,42.902v-2.641c0-0.323-0.156-0.626-0.419-0.813l-3.028-2.163L27.5,25.999l11.102,5.818
	C38.729,31.873,38.864,31.9,39,31.9c0.192,0,0.383-0.056,0.548-0.164C39.83,31.552,40,31.237,40,30.9v-3.939
	C40,26.623,39.829,26.308,39.546,26.123z"/>
</svg>
