<?xml version="1.0" encoding="utf-8"?>
<!-- Generator: Adobe Illustrator 16.0.0, SVG Export Plug-In . SVG Version: 6.00 Build 0)  -->
<!DOCTYPE svg PUBLIC "-//W3C//DTD SVG 1.1//EN" "http://www.w3.org/Graphics/SVG/1.1/DTD/svg11.dtd">
<svg version="1.1" id="Capa_1" xmlns="http://www.w3.org/2000/svg" xmlns:xlink="http://www.w3.org/1999/xlink" x="0px" y="0px"
	 width="48px" height="48px" viewBox="0 0 48 48" enable-background="new 0 0 48 48" xml:space="preserve">
<g>
	<path d="M27,18h-6c-2,0-3-4-5-4H8v24c0,3.31,2.69,6,6,6h20c3.31,0,6-2.69,6-6V14h-8C30,14,29,18,27,18z M33.7,28.29
		c0.39,0.39,0.39,1.03,0,1.42l-2.99,3C30.51,32.9,30.26,33,30,33c-0.15,0-0.31-0.03-0.45-0.1l-4-2
		c-0.49-0.25-0.69-0.851-0.439-1.351c0.239-0.49,0.84-0.689,1.34-0.439l2.479,1.239C28.61,27.9,26.53,26,24,26c-2.76,0-5,2.24-5,5
		s2.24,5,5,5c0.55,0,1,0.45,1,1s-0.45,1-1,1c-3.86,0-7-3.14-7-7s3.14-7,7-7c3.42,0,6.27,2.46,6.88,5.71l1.41-1.42
		C32.68,27.9,33.31,27.9,33.7,28.29z"/>
	<path d="M34,4H14c-3.31,0-6,2.69-6,6v2h32v-2C40,6.69,37.31,4,34,4z"/>
</g>
</svg>
