<?xml version="1.0" encoding="utf-8"?>
<!-- Generator: Adobe Illustrator 16.0.0, SVG Export Plug-In . SVG Version: 6.00 Build 0)  -->
<!DOCTYPE svg PUBLIC "-//W3C//DTD SVG 1.1//EN" "http://www.w3.org/Graphics/SVG/1.1/DTD/svg11.dtd">
<svg version="1.1" id="Capa_1" xmlns="http://www.w3.org/2000/svg" xmlns:xlink="http://www.w3.org/1999/xlink" x="0px" y="0px"
	 width="48px" height="48px" viewBox="0 0 48 48" enable-background="new 0 0 48 48" xml:space="preserve">
<g>
	<path d="M43.67,20.9C43.31,20.34,42.68,20,42,20h-4.28L33.95,8.68C33.81,8.27,33.43,8,33,8H15c-0.43,0-0.81,0.27-0.95,0.68
		L10.28,20H6c-0.68,0-1.3,0.34-1.67,0.9c-0.37,0.57-0.43,1.28-0.16,1.9l7,16C11.49,39.53,12.21,40,13,40h22
		c0.79,0,1.51-0.47,1.83-1.2l7-16C44.1,22.18,44.04,21.47,43.67,20.9z M15.72,10h16.56l3.33,10H12.39L15.72,10z M38.33,25.4
		l-4.38,10C33.79,35.76,33.43,36,33.04,36H14.96c-0.39,0-0.75-0.24-0.91-0.6l-4.38-10c-0.13-0.311-0.1-0.67,0.08-0.95
		c0.19-0.28,0.5-0.45,0.84-0.45h26.82c0.34,0,0.649,0.17,0.84,0.45C38.43,24.73,38.46,25.09,38.33,25.4z"/>
	<path d="M12.81,26.45c-0.19,0.29-0.22,0.64-0.08,0.95l2.63,6c0.16,0.359,0.52,0.6,0.91,0.6H17v-8h-3.35
		C13.31,26,12.99,26.17,12.81,26.45z"/>
	<rect x="19" y="26" width="4" height="8"/>
	<rect x="25" y="26" width="4" height="8"/>
	<path d="M34.35,26H31v8h0.73c0.39,0,0.75-0.24,0.909-0.6l2.63-6c0.141-0.311,0.11-0.66-0.079-0.95C35.01,26.17,34.69,26,34.35,26z"
		/>
</g>
</svg>
