<?xml version="1.0" encoding="utf-8"?>
<!-- Generator: Adobe Illustrator 16.0.0, SVG Export Plug-In . SVG Version: 6.00 Build 0)  -->
<!DOCTYPE svg PUBLIC "-//W3C//DTD SVG 1.1//EN" "http://www.w3.org/Graphics/SVG/1.1/DTD/svg11.dtd">
<svg version="1.1" id="Capa_1" xmlns="http://www.w3.org/2000/svg" xmlns:xlink="http://www.w3.org/1999/xlink" x="0px" y="0px"
	 width="48px" height="48px" viewBox="0 0 48 48" enable-background="new 0 0 48 48" xml:space="preserve">
<g>
	<path d="M27,24h-6c-0.55,0-1,0.45-1,1s0.45,1,1,1h6c0.55,0,1-0.45,1-1S27.55,24,27,24z"/>
	<path d="M36.01,18.2C35.63,11.38,30.39,5.96,24,5.96c-6.39,0-11.63,5.42-12.01,12.24C7.3,20.08,6,34.88,6,37c0,3.96,3.27,5,5,5h26
		c1.73,0,5-1.04,5-5C42,34.88,40.7,20.08,36.01,18.2z M24,29.96c-4.71,0-8.82-3.69-9.76-8.78c-0.06-0.29,0.02-0.59,0.21-0.82
		c0.19-0.23,0.47-0.36,0.77-0.36h17.56c0.3,0,0.58,0.13,0.77,0.36c0.19,0.23,0.271,0.53,0.21,0.82C32.82,26.27,28.71,29.96,24,29.96
		z M14.08,18c0.46-5.57,4.74-9.95,9.92-9.95c5.18,0,9.46,4.38,9.92,9.95H14.08z"/>
</g>
</svg>
