<?xml version="1.0" encoding="utf-8"?>
<!-- Generator: Adobe Illustrator 16.0.0, SVG Export Plug-In . SVG Version: 6.00 Build 0)  -->
<!DOCTYPE svg PUBLIC "-//W3C//DTD SVG 1.1//EN" "http://www.w3.org/Graphics/SVG/1.1/DTD/svg11.dtd">
<svg version="1.1" id="Layer_1" xmlns="http://www.w3.org/2000/svg" xmlns:xlink="http://www.w3.org/1999/xlink" x="0px" y="0px"
	 width="48px" height="48px" viewBox="0 0 48 48" enable-background="new 0 0 48 48" xml:space="preserve">
<path d="M40,24c0-2.6-0.5-5.07-1.39-7.31c1.26-1.51,3.409-4.55,3.409-7.71c0-1.2-0.8-3-3.01-3c-0.83,0-2.08,0.27-3.81,0.63
	c-1.38,0.29-3.021,0.64-4.78,0.91C28.45,6.55,26.28,6,24,6c-2.28,0-4.45,0.55-6.41,1.52c-1.76-0.27-3.4-0.62-4.78-0.91
	C11.09,6.25,9.84,5.98,9,5.98c-2.2,0-3,1.8-3,3c0,3.15,2.14,6.18,3.4,7.7C8.51,18.92,8,21.39,8,24c0,2.6,0.5,5.07,1.39,7.3
	C8.13,32.83,6,35.86,6,39c0,1.2,0.8,3,3,3c0.84,0,2.09-0.27,3.81-0.63c1.38-0.29,3-0.63,4.75-0.91C19.53,41.45,21.71,42,24,42
	s4.47-0.56,6.44-1.54c1.75,0.271,3.38,0.62,4.76,0.91C36.93,41.73,38.18,42,39.01,42c2.21,0,3.01-1.8,3.01-3
	c0-3.15-2.14-6.19-3.399-7.71C39.5,29.06,40,26.6,40,24z M31,31.001H17c-0.552,0-1-0.447-1-1s0.448-1,1-1h14c0.553,0,1,0.447,1,1
	S31.553,31.001,31,31.001z M31,27.001H17c-0.552,0-1-0.447-1-1s0.448-1,1-1h14c0.553,0,1,0.447,1,1S31.553,27.001,31,27.001z M31,23
	H17c-0.552,0-1-0.448-1-1s0.448-1,1-1h14c0.553,0,1,0.448,1,1S31.553,23,31,23z M31,19H17c-0.552,0-1-0.448-1-1s0.448-1,1-1h14
	c0.553,0,1,0.448,1,1S31.553,19,31,19z"/>
</svg>
