<?xml version="1.0" encoding="utf-8"?>
<!-- Generator: Adobe Illustrator 16.0.0, SVG Export Plug-In . SVG Version: 6.00 Build 0)  -->
<!DOCTYPE svg PUBLIC "-//W3C//DTD SVG 1.1//EN" "http://www.w3.org/Graphics/SVG/1.1/DTD/svg11.dtd">
<svg version="1.1" id="Capa_1" xmlns="http://www.w3.org/2000/svg" xmlns:xlink="http://www.w3.org/1999/xlink" x="0px" y="0px"
	 width="48px" height="48px" viewBox="0 0 48 48" enable-background="new 0 0 48 48" xml:space="preserve">
<g>
	<path d="M14.003,7.9c1.95-0.41,3.49-1.949,3.89-3.9c0.07-0.319,0.101-0.66,0.101-1V2h-2.99c-2.21,0-3,1.791-3,3v3h0.98
		C13.333,8,13.673,7.961,14.003,7.9z"/>
	<path d="M14.003,40.121c-0.33-0.061-0.67-0.101-1.02-0.101h-0.98v2.98c0,2.2,1.79,3,3,3h2.99v-0.97c0-0.351-0.04-0.7-0.11-1.03
		C17.483,42.061,15.943,40.531,14.003,40.121z"/>
	<path d="M38.004,7.9c0.32,0.07,0.66,0.1,1,0.1h1V5c0-2.199-1.79-3-3-3h-3v1c0,0.34,0.029,0.681,0.1,1
		C34.504,5.961,36.044,7.5,38.004,7.9z"/>
	<path d="M26.004,18c-4.411,0-8.001,2.69-8.001,6c0,3.311,3.59,6.001,8.001,6.001c4.41,0,8-2.69,8-6.001
		C34.004,20.69,30.414,18,26.004,18z"/>
	<path d="M38.004,40.121c-1.95,0.399-3.49,1.93-3.9,3.88c-0.06,0.33-0.1,0.68-0.1,1.03v0.97h3c2.21,0,3-1.79,3-3v-2.98h-1
		C38.664,40.021,38.324,40.051,38.004,40.121z"/>
	<path d="M40.004,15.216V10h-1c-0.34,0-0.67-0.02-1-0.08c-3.061-0.43-5.49-2.859-5.92-5.92c-0.061-0.33-0.08-0.66-0.08-1V2H19.993v1
		c0,0.34-0.021,0.67-0.08,1c-0.43,3.051-2.851,5.48-5.91,5.92c-0.33,0.051-0.67,0.08-1.02,0.08h-0.98v4H5.054l2.705-3.379
		c0.345-0.431,0.275-1.061-0.156-1.406c-0.431-0.344-1.06-0.276-1.406,0.156l-4.002,5c-0.292,0.365-0.292,0.885,0,1.25l4.002,4.999
		c0.198,0.247,0.488,0.375,0.781,0.375c0.219,0,0.44-0.072,0.625-0.219c0.431-0.345,0.501-0.975,0.156-1.406L5.061,16h6.942v18.011
		H3c-0.552,0-1,0.447-1,1s0.448,1,1,1h9.003v2.01h0.98c0.35,0,0.689,0.03,1.02,0.08c3.05,0.44,5.46,2.86,5.9,5.9
		c0.06,0.33,0.09,0.68,0.09,1.03v0.97h12.011v-0.97c0-0.351,0.029-0.7,0.09-1.03c0.439-3.05,2.86-5.47,5.91-5.9
		c0.33-0.06,0.66-0.08,1-0.08h1v-3.236C43.558,32.959,46,29.263,46,25S43.558,17.042,40.004,15.216z M26.004,32.001
		c-5.511,0-10.001-3.59-10.001-8.001c0-4.41,4.49-8,10.001-8c5.51,0,10,3.59,10,8C36.004,28.411,31.514,32.001,26.004,32.001z
		 M40.004,32.476V17.524C42.412,19.141,44,21.888,44,25C44,28.112,42.412,30.859,40.004,32.476z"/>
</g>
</svg>
