<?xml version="1.0" encoding="utf-8"?>
<!-- Generator: Adobe Illustrator 16.0.0, SVG Export Plug-In . SVG Version: 6.00 Build 0)  -->
<!DOCTYPE svg PUBLIC "-//W3C//DTD SVG 1.1//EN" "http://www.w3.org/Graphics/SVG/1.1/DTD/svg11.dtd">
<svg version="1.1" id="Capa_1" xmlns="http://www.w3.org/2000/svg" xmlns:xlink="http://www.w3.org/1999/xlink" x="0px" y="0px"
	 width="48px" height="48px" viewBox="0 0 48 48" enable-background="new 0 0 48 48" xml:space="preserve">
<g>
	<path d="M29,18H19c-0.5,0.01-3,0.18-3,3v1.92c1-0.68,2.18-0.92,3-0.92h10c1.29,0,2.27,0.35,3,0.88V21C31.99,20.5,31.82,18,29,18z"
		/>
	<path d="M29,30H19c-0.5,0.01-3,0.18-3,3v1h16v-0.99c0,0,0,0,0-0.01C31.99,32.48,31.81,30,29,30z"/>
	<path d="M29,24H19c-0.5,0.01-3,0.18-3,3v1.92c1-0.68,2.18-0.92,3-0.92h10c1.29,0,2.27,0.35,3,0.88v-1.87c0,0,0,0,0-0.01
		C31.99,26.48,31.81,24,29,24z"/>
	<path d="M37,10H11c-0.45,0.02-1,0.2-1,1v22c0.01,0.45,0.2,1,1,1h3V21c0-3.96,3.27-5,5-5h10c3.95,0,5,3.27,5,5v13h2.99
		c0.46-0.02,1.01-0.2,1.01-1V11C37.98,10.55,37.8,10,37,10z"/>
	<path d="M41,4H7C5.79,4,4,4.8,4,7v32c0,1.21,0.8,3,3,3h3.54c0.69,1.2,1.98,2,3.46,2s2.77-0.8,3.46-2h13.09c0.7,1.2,1.99,2,3.47,2
		c1.471,0,2.761-0.8,3.45-2H41c1.21,0,3-0.8,3-3V7C44,5.79,43.2,4,41,4z M40,33c0,2.2-1.8,3-3,3H11c-2.2,0-3-1.8-3-3V11
		c0-2.2,1.8-3,3-3h26c2.2,0,3,1.8,3,3V33z"/>
</g>
</svg>
