<?xml version="1.0" encoding="utf-8"?>
<!-- Generator: Adobe Illustrator 16.0.0, SVG Export Plug-In . SVG Version: 6.00 Build 0)  -->
<!DOCTYPE svg PUBLIC "-//W3C//DTD SVG 1.1//EN" "http://www.w3.org/Graphics/SVG/1.1/DTD/svg11.dtd">
<svg version="1.1" id="Capa_1" xmlns="http://www.w3.org/2000/svg" xmlns:xlink="http://www.w3.org/1999/xlink" x="0px" y="0px"
	 width="48px" height="48px" viewBox="0 0 48 48" enable-background="new 0 0 48 48" xml:space="preserve">
<g>
	<path d="M44,26.117c-1.94,0.398-3.47,1.939-3.88,3.879c-0.061,0.33-0.101,0.67-0.101,1.02v0.98H44V33c0,2.822-2.504,2.994-3,3H7
		c-2.823,0-2.994-2.504-3-3.006v-0.998h4v-0.98c0-0.35-0.04-0.689-0.1-1.02c-0.41-1.949-1.95-3.49-3.9-3.889
		c-0.32-0.07-0.66-0.102-1-0.102H2V40c0,0,0,4,4,4h36c0,0,4,0,4-4V26.006h-0.97C44.68,26.006,44.33,26.047,44,26.117z M44,40
		c0,1.611-1.1,1.98-2,2H6c-1.61,0-1.98-1.1-2-2v-2.879C4.735,37.648,5.711,38,7,38h34c0.824,0,1.996-0.244,3-0.92V40z"/>
	<path d="M4,9.9C5.96,9.5,7.5,7.96,7.9,6C7.97,5.68,8,5.34,8,5V4H5C2.8,4,2,5.79,2,7v3h1C3.34,10,3.68,9.97,4,9.9z"/>
	<path d="M43.98,9.9c0.33,0.06,0.68,0.1,1.03,0.1h0.97V7c0-2.21-1.79-3-3-3H40v1c0,0.34,0.03,0.68,0.101,1
		C40.5,7.95,42.03,9.49,43.98,9.9z"/>
	<path d="M45.03,12c-0.351,0-0.7-0.03-1.03-0.09c-3.05-0.44-5.47-2.86-5.9-5.91c-0.06-0.33-0.08-0.66-0.08-1V4H10v1
		c0,0.34-0.02,0.67-0.08,1C9.49,9.06,7.06,11.49,4,11.92C3.67,11.98,3.34,12,3,12H2v12.007h1c0.34,0,0.67,0.021,1,0.08
		c3.05,0.43,5.48,2.85,5.92,5.909c0.05,0.33,0.08,0.67,0.08,1.02v0.98h28.02v-0.98c0-0.35,0.03-0.689,0.08-1.02
		c0.44-3.049,2.86-5.458,5.9-5.899c0.33-0.06,0.68-0.09,1.03-0.09H46V12H45.03z M24,27.996c-4.41,0-8-4.488-8-9.996
		c0-5.51,3.59-10,8-10s8,4.49,8,10C32,23.508,28.41,27.996,24,27.996z"/>
	<path d="M24,10c-3.31,0-6,3.59-6,8c0,4.409,2.69,7.997,6,7.997c3.31,0,6-3.588,6-7.997C30,13.589,27.31,10,24,10z"/>
</g>
</svg>
