<?xml version="1.0" encoding="utf-8"?>
<!-- Generator: Adobe Illustrator 16.0.0, SVG Export Plug-In . SVG Version: 6.00 Build 0)  -->
<!DOCTYPE svg PUBLIC "-//W3C//DTD SVG 1.1//EN" "http://www.w3.org/Graphics/SVG/1.1/DTD/svg11.dtd">
<svg version="1.1" id="Capa_1" xmlns="http://www.w3.org/2000/svg" xmlns:xlink="http://www.w3.org/1999/xlink" x="0px" y="0px"
	 width="48px" height="48px" viewBox="0 0 48 48" enable-background="new 0 0 48 48" xml:space="preserve">
<path d="M40,14h-9.998v-3c0-0.12-0.02-0.77-0.36-1.45c-0.5-1-1.43-1.55-2.64-1.55H5c-2.2,0-3,1.79-3,3v22c0,2.2,1.79,3,3,3h1.1
	c0.46,2.28,2.48,4,4.9,4c1.64,0,3.085-0.807,3.998-2.033C15.91,39.193,17.357,40,19,40c2.415,0,4.434-1.721,4.899-4h6.221
	c0.46,2.28,2.479,4,4.899,4c2.41,0,4.431-1.72,4.9-4H43c2.2,0,3-1.79,3-3V19C46,15.04,42.08,14,40,14z M11,38c-1.65,0-3-1.34-3-3
	c0-1.65,1.35-3,3-3s3,1.35,3,3C14,36.66,12.65,38,11,38z M19,38c-1.657,0-3-1.343-3-3s1.343-3,3-3s3,1.343,3,3S20.657,38,19,38z
	 M28.002,33c0,1-1,1-1,1h-3.103c-0.465-2.279-2.484-4-4.899-4c-1.643,0-3.09,0.807-4.002,2.033C14.085,30.807,12.64,30,11,30
	c-2.41,0-4.43,1.72-4.9,4H5.01C4.55,33.99,4,33.81,4,33V11.01C4.01,10.55,4.19,10,5,10h22.002c0.81,0,0.99,0.55,1,1V33z M35.02,38
	c-1.659,0-3-1.34-3-3c0-1.65,1.341-3,3-3c1.65,0,3,1.35,3,3C38.02,36.66,36.67,38,35.02,38z M44,24h-8.99
	C34.55,23.99,34,23.81,34,23v-7h6c0.16,0,4,0.03,4,3V24z"/>
</svg>
