<?xml version="1.0" encoding="utf-8"?>
<!-- Generator: Adobe Illustrator 16.0.0, SVG Export Plug-In . SVG Version: 6.00 Build 0)  -->
<!DOCTYPE svg PUBLIC "-//W3C//DTD SVG 1.1//EN" "http://www.w3.org/Graphics/SVG/1.1/DTD/svg11.dtd">
<svg version="1.1" id="Capa_1" xmlns="http://www.w3.org/2000/svg" xmlns:xlink="http://www.w3.org/1999/xlink" x="0px" y="0px"
	 width="48px" height="48px" viewBox="0 0 48 48" enable-background="new 0 0 48 48" xml:space="preserve">
<path d="M42,10c-2,0-2,2-2,2H8c0-2-2-2-2-2c-2,0-2,2-2,2v24c0,0,0,2,2,2s2-2,2-2h32c0,0,0,2,2,2s2-2,2-2V12C44,12,44,10,42,10z
	 M14,30c0,1.1-0.9,2-2,2s-2-0.9-2-2V18c0-1.1,0.9-2,2-2s2,0.9,2,2V30z M22,30c0,1.1-0.9,2-2,2s-2-0.9-2-2V18c0-1.1,0.9-2,2-2
	s2,0.9,2,2V30z M30,30c0,1.1-0.9,2-2,2s-2-0.9-2-2V18c0-1.1,0.9-2,2-2s2,0.9,2,2V30z M38,30c0,1.1-0.9,2-2,2s-2-0.9-2-2V18
	c0-1.1,0.9-2,2-2s2,0.9,2,2V30z"/>
</svg>
