<?xml version="1.0" encoding="utf-8"?>
<!-- Generator: Adobe Illustrator 16.0.0, SVG Export Plug-In . SVG Version: 6.00 Build 0)  -->
<!DOCTYPE svg PUBLIC "-//W3C//DTD SVG 1.1//EN" "http://www.w3.org/Graphics/SVG/1.1/DTD/svg11.dtd">
<svg version="1.1" id="Capa_1" xmlns="http://www.w3.org/2000/svg" xmlns:xlink="http://www.w3.org/1999/xlink" x="0px" y="0px"
	 width="48px" height="48px" viewBox="0 0 48 48" enable-background="new 0 0 48 48" xml:space="preserve">
<path d="M39,6H9C7.79,6,6,6.8,6,9v30c0,1.21,0.8,3,3,3h30c1.21,0,3-0.8,3-3V9C42,7.79,41.2,6,39,6z M12,13c0,0,0.01-0.29,0.14-0.55
	C12.25,12.23,12.44,12,13,12h17.35l-4,4H12V13z M12,18h12.35l-4.01,4H12V18z M12,24h6.34L12,30.35V24z M36,34.99
	C35.99,35.45,35.81,36,35,36H17.66l4-4H36V34.99z M36,30H23.66l4-4.01H36V30z M36,23.99h-6.34L36,17.66V23.99z M36,14.83L14.83,36
	H13c-0.81,0-0.99-0.55-1-1v-1.83L33.17,12H35c0.81,0,0.99,0.55,1,1V14.83z"/>
</svg>
