<?xml version="1.0" encoding="utf-8"?>
<!-- Generator: Adobe Illustrator 16.0.0, SVG Export Plug-In . SVG Version: 6.00 Build 0)  -->
<!DOCTYPE svg PUBLIC "-//W3C//DTD SVG 1.1//EN" "http://www.w3.org/Graphics/SVG/1.1/DTD/svg11.dtd">
<svg version="1.1" id="Capa_1" xmlns="http://www.w3.org/2000/svg" xmlns:xlink="http://www.w3.org/1999/xlink" x="0px" y="0px"
	 width="48px" height="48px" viewBox="0 0 48 48" enable-background="new 0 0 48 48" xml:space="preserve">
<path d="M39.89,14.55C39.46,13.68,35.49,6,31,6H17c-4.49,0-8.46,7.68-8.89,8.55C8.04,14.69,8,14.84,8,15v22c0,1.73,1.05,5,5,5h22
	c1.73,0,5-1.05,5-5V15C40,14.84,39.96,14.69,39.89,14.55z M31,22H17c-2.07,0-4.68-3.25-6.31-6h26.62C35.68,18.75,33.07,22,31,22z"/>
</svg>
