<?xml version="1.0" encoding="utf-8"?>
<!-- Generator: Adobe Illustrator 16.0.0, SVG Export Plug-In . SVG Version: 6.00 Build 0)  -->
<!DOCTYPE svg PUBLIC "-//W3C//DTD SVG 1.1//EN" "http://www.w3.org/Graphics/SVG/1.1/DTD/svg11.dtd">
<svg version="1.1" id="Capa_1" xmlns="http://www.w3.org/2000/svg" xmlns:xlink="http://www.w3.org/1999/xlink" x="0px" y="0px"
	 width="48px" height="48px" viewBox="0 0 48 48" enable-background="new 0 0 48 48" xml:space="preserve">
<g>
	<path d="M10.1,30H4v7c0,2.2,1.79,3,3,3h7v-6.1C12.04,33.5,10.5,31.96,10.1,30z"/>
	<path d="M14,24.1V8H7c-2.2,0-3,1.79-3,3v17h6.1C10.5,26.04,12.04,24.5,14,24.1z"/>
	<path d="M18,29c0-1.65-1.34-3-3-3c-1.65,0-3,1.35-3,3s1.35,3,3,3C16.66,32,18,30.65,18,29z"/>
	<path d="M41,8H16v16.1c1.96,0.4,3.5,1.94,3.9,3.9H44V11C44,8.8,42.2,8,41,8z M38,22c0,0.97-0.7,2-2,2H26c-1.3,0-2-1.03-2-2v-6
		c0-0.97,0.7-2,2-2h10c1.3,0,2,1.03,2,2V22z"/>
	<rect x="26" y="16" width="10" height="6"/>
	<path d="M16,33.9V40h25c2.2,0,3-1.79,3-3v-7H19.9C19.5,31.96,17.96,33.5,16,33.9z"/>
</g>
</svg>
