<?xml version="1.0" encoding="utf-8"?>
<!-- Generator: Adobe Illustrator 16.0.0, SVG Export Plug-In . SVG Version: 6.00 Build 0)  -->
<!DOCTYPE svg PUBLIC "-//W3C//DTD SVG 1.1//EN" "http://www.w3.org/Graphics/SVG/1.1/DTD/svg11.dtd">
<svg version="1.1" id="Layer_1" xmlns="http://www.w3.org/2000/svg" xmlns:xlink="http://www.w3.org/1999/xlink" x="0px" y="0px"
	 width="48px" height="48px" viewBox="0 0 48 48" enable-background="new 0 0 48 48" xml:space="preserve">
<g>
	<path d="M4.234,29.627c0.198,0.237,0.482,0.359,0.769,0.359c0.226,0,0.453-0.076,0.64-0.231l6.001-5.001
		c0.228-0.19,0.36-0.471,0.36-0.768s-0.132-0.578-0.36-0.768l-6.001-5c-0.425-0.353-1.055-0.296-1.408,0.128
		c-0.354,0.424-0.296,1.055,0.128,1.408l5.079,4.231l-5.079,4.232C3.938,28.571,3.881,29.202,4.234,29.627z"/>
	<path d="M41,10H7c-1.3,0-2.41,0.84-2.82,2l13.9,12L4.18,36.01C4.6,37.17,5.71,38,7,38h34c1.65,0,3-1.35,3-3V13
		C44,11.35,42.65,10,41,10z M7.24,12h33.52L24,26.46L7.24,12z M7.24,36l12.37-10.68L24,29.11l4.39-3.79L40.76,36H7.24z M42,34.43
		L29.92,24L42,13.57V34.43z"/>
</g>
</svg>
