<?xml version="1.0" encoding="utf-8"?>
<!-- Generator: Adobe Illustrator 16.0.0, SVG Export Plug-In . SVG Version: 6.00 Build 0)  -->
<!DOCTYPE svg PUBLIC "-//W3C//DTD SVG 1.1//EN" "http://www.w3.org/Graphics/SVG/1.1/DTD/svg11.dtd">
<svg version="1.1" id="Capa_1" xmlns="http://www.w3.org/2000/svg" xmlns:xlink="http://www.w3.org/1999/xlink" x="0px" y="0px"
	 width="48px" height="48px" viewBox="0 0 48 48" enable-background="new 0 0 48 48" xml:space="preserve">
<g>
	<path d="M20,20c-0.8,0-0.99,0.55-1,1.01V27c0.01,0.45,0.2,1,1,1c0.81,0,0.99-0.55,1-1.01V21C20.99,20.55,20.81,20,20,20z"/>
	<path d="M28,20c-0.8,0-0.99,0.55-1,1.01V27c0.01,0.45,0.2,1,1,1c0.81,0,0.99-0.55,1-1.01V21C28.99,20.55,28.81,20,28,20z"/>
	<path d="M41,12H7c-2.2,0-3,1.79-3,3v18c0,2.2,1.79,3,3,3h34c2.2,0,3-1.79,3-3V15C44,12.8,42.21,12,41,12z M14,30h-3
		c-1.3,0-2-1.03-2-2v-9c0-0.55,0.45-1,1-1s1,0.45,1,1v9h3c0.55,0,1,0.45,1,1S14.55,30,14,30z M23,27c0,1.21-0.8,3-3,3s-3-1.79-3-3
		v-6c0-1.21,0.8-3,3-3s3,1.79,3,3V27z M31,27c0,1.21-0.8,3-3,3s-3-1.79-3-3v-6c0-1.21,0.8-3,3-3s3,1.79,3,3V27z M38,30h-4
		c-0.55,0-1-0.45-1-1s0.45-1,1-1h1v-6.59l-0.29,0.3c-0.39,0.39-1.03,0.39-1.42,0s-0.39-1.03,0-1.42l2-2
		c0.29-0.28,0.72-0.37,1.09-0.21C36.76,18.23,37,18.6,37,19v9h1c0.55,0,1,0.45,1,1S38.55,30,38,30z"/>
</g>
</svg>
