<?xml version="1.0" encoding="utf-8"?>
<!-- Generator: Adobe Illustrator 16.0.0, SVG Export Plug-In . SVG Version: 6.00 Build 0)  -->
<!DOCTYPE svg PUBLIC "-//W3C//DTD SVG 1.1//EN" "http://www.w3.org/Graphics/SVG/1.1/DTD/svg11.dtd">
<svg version="1.1" id="Capa_1" xmlns="http://www.w3.org/2000/svg" xmlns:xlink="http://www.w3.org/1999/xlink" x="0px" y="0px"
	 width="48px" height="48px" viewBox="0 0 48 48" enable-background="new 0 0 48 48" xml:space="preserve">
<g>
	<path d="M45,40H5c-0.552,0-1,0.445-1,0.998s0.448,1,1,1h40c0.553,0,1-0.447,1-1S45.553,40,45,40z"/>
	<path d="M34,10v2h-7c-2.2,0-3,1.79-3,3v1h-9c-2.2,0-3,1.79-3,3v1H7c-2.2,0-3,1.79-3,3c0,1.8,3.52,9.2,5.39,13H5c-0.55,0-1,0.45-1,1
		s0.45,1,1,1h41V10H34z M26,15.01c0.01-0.46,0.19-1.01,1-1.01h7v6h-8V15.01z M14,19.01c0.01-0.46,0.19-1.01,1-1.01h9v2H14V19.01z
		 M17,32c-1.66,0-3-1.35-3-3c0-1.66,1.34-3,3-3c1.65,0,3,1.34,3,3C20,30.65,18.65,32,17,32z M27,32c-1.65,0-3-1.35-3-3
		c0-1.66,1.35-3,3-3s3,1.34,3,3C30,30.65,28.65,32,27,32z M37,32c-1.65,0-3-1.35-3-3c0-1.66,1.35-3,3-3c1.66,0,3,1.34,3,3
		C40,30.65,38.66,32,37,32z M44,20h-8v-8h8V20z"/>
</g>
</svg>
