<?xml version="1.0" encoding="utf-8"?>
<!-- Generator: Adobe Illustrator 16.0.0, SVG Export Plug-In . SVG Version: 6.00 Build 0)  -->
<!DOCTYPE svg PUBLIC "-//W3C//DTD SVG 1.1//EN" "http://www.w3.org/Graphics/SVG/1.1/DTD/svg11.dtd">
<svg version="1.1" id="Capa_1" xmlns="http://www.w3.org/2000/svg" xmlns:xlink="http://www.w3.org/1999/xlink" x="0px" y="0px"
	 width="48px" height="48px" viewBox="0 0 48 48" enable-background="new 0 0 48 48" xml:space="preserve">
<g>
	<path d="M37,36H13.01C12.55,35.99,12,35.81,12,35c0-1.29,1.23-2.81,1.71-3.29V31.7c0.45,0.2,0.92,0.29,1.34,0.29
		c2.39-0.13,7.53-0.431,12.311-0.811c4.77-0.38,9.17-0.84,10.09-1.29C40.13,28.56,44,14.57,44,13c0-2.21-1.79-3-3-3H11.62L9.89,6.55
		C9.72,6.21,9.38,6,9,6H4C3.45,6,3,6.45,3,7s0.45,1,1,1h4.38l1.64,3.28L12,29.06c0,0.49,0.11,0.9,0.27,1.261
		C11.99,30.61,10,32.69,10,35c0,2.2,1.79,3,3,3h3.185C16.073,38.314,16,38.648,16,39.001c0,1.656,1.343,3,3,3s3-1.344,3-3
		c0-0.353-0.072-0.687-0.184-1.001h6.376c-0.112,0.314-0.185,0.648-0.185,1.001c0,1.656,1.344,3,3.002,3
		c1.657,0,3.001-1.344,3.001-3c0-0.353-0.072-0.687-0.185-1.001H37c0.55,0,1-0.45,1-1S37.55,36,37,36z"/>
</g>
</svg>
