<?xml version="1.0" encoding="utf-8"?>
<!-- Generator: Adobe Illustrator 16.0.0, SVG Export Plug-In . SVG Version: 6.00 Build 0)  -->
<!DOCTYPE svg PUBLIC "-//W3C//DTD SVG 1.1//EN" "http://www.w3.org/Graphics/SVG/1.1/DTD/svg11.dtd">
<svg version="1.1" id="Capa_1" xmlns="http://www.w3.org/2000/svg" xmlns:xlink="http://www.w3.org/1999/xlink" x="0px" y="0px"
	 width="48px" height="48px" viewBox="0 0 48 48" enable-background="new 0 0 48 48" xml:space="preserve">
<path d="M43.67,20.9C43.31,20.34,42.68,20,42,20h-4.279L33.948,8.683C33.813,8.274,33.431,8,33,8H15
	c-0.431,0-0.813,0.274-0.949,0.683L10.279,20H6c-0.68,0-1.3,0.34-1.67,0.9c-0.37,0.57-0.43,1.28-0.16,1.9l7,16
	C11.49,39.53,12.21,40,13,40h22c0.79,0,1.51-0.47,1.83-1.2l7-16C44.1,22.18,44.04,21.47,43.67,20.9z M15.721,9.999h16.559L35.613,20
	H12.388L15.721,9.999z M38.33,25.4l-4.38,10C33.79,35.76,33.43,36,33.04,36H14.96c-0.39,0-0.75-0.24-0.91-0.6l-4.38-10
	c-0.13-0.311-0.1-0.67,0.08-0.95c0.19-0.28,0.5-0.45,0.84-0.45h26.82c0.34,0,0.649,0.17,0.84,0.45
	C38.43,24.73,38.46,25.09,38.33,25.4z"/>
</svg>
