<?xml version="1.0" encoding="utf-8"?>
<!-- Generator: Adobe Illustrator 16.0.0, SVG Export Plug-In . SVG Version: 6.00 Build 0)  -->
<!DOCTYPE svg PUBLIC "-//W3C//DTD SVG 1.1//EN" "http://www.w3.org/Graphics/SVG/1.1/DTD/svg11.dtd">
<svg version="1.1" id="Capa_1" xmlns="http://www.w3.org/2000/svg" xmlns:xlink="http://www.w3.org/1999/xlink" x="0px" y="0px"
	 width="48px" height="48px" viewBox="0 0 48 48" enable-background="new 0 0 48 48" xml:space="preserve">
<g>
	<path d="M37,16h-3v3.001c0,0,0,1-1,1s-1-1-1-1V16H16v3.001c0,0,0,1-1,1s-1-1-1-1V16h-3c-1.21,0-3,0.8-3,3v16c0,2.42,1.46,7,7,7h18
		c2.42,0,7-1.46,7-7V19C40,17.79,39.2,16,37,16z"/>
	<path d="M24,8c4.41,0,8,3.59,8,8h2c0-5.51-4.49-10-10-10s-10,4.49-10,10h2C16,11.59,19.59,8,24,8z"/>
</g>
</svg>
