<?xml version="1.0" encoding="utf-8"?>
<!-- Generator: Adobe Illustrator 16.0.0, SVG Export Plug-In . SVG Version: 6.00 Build 0)  -->
<!DOCTYPE svg PUBLIC "-//W3C//DTD SVG 1.1//EN" "http://www.w3.org/Graphics/SVG/1.1/DTD/svg11.dtd">
<svg version="1.1" id="Capa_1" xmlns="http://www.w3.org/2000/svg" xmlns:xlink="http://www.w3.org/1999/xlink" x="0px" y="0px"
	 width="48px" height="48px" viewBox="0 0 48 48" enable-background="new 0 0 48 48" xml:space="preserve">
<path d="M37,36H13.01C12.55,35.99,12,35.81,12,35c0-1.29,1.23-2.81,1.71-3.29V31.7c0.45,0.2,0.92,0.29,1.34,0.29
	c2.39-0.13,7.53-0.431,12.311-0.811c4.77-0.38,9.17-0.84,10.09-1.29C40.13,28.56,44,14.57,44,13c0-2.21-1.79-3-3-3H11.62L9.89,6.55
	C9.72,6.21,9.38,6,9,6H4C3.45,6,3,6.45,3,7s0.45,1,1,1h4.38l1.64,3.28L12,29.06c0,0.49,0.11,0.9,0.27,1.261
	C11.99,30.61,10,32.69,10,35c0,2.2,1.79,3,3,3h3.18C16.07,38.31,16,38.65,16,39c0,1.66,1.34,3,3,3s3-1.34,3-3
	c0-0.35-0.07-0.69-0.18-1h6.371c-0.11,0.31-0.181,0.65-0.181,1c0,1.66,1.34,3,3,3s3-1.34,3-3c0-0.35-0.069-0.69-0.18-1H37
	c0.55,0,1-0.45,1-1S37.55,36,37,36z M14.72,14.33c0.19-0.21,0.46-0.33,0.74-0.33h23.1c0.311,0,0.601,0.15,0.79,0.39
	c0.19,0.25,0.25,0.57,0.17,0.87c-0.859,3.18-2.75,8.63-3.81,10.63c-0.15,0.29-0.43,0.48-0.74,0.53c-2.189,0.32-8.8,0.92-18.13,1.47
	h-0.06c-0.5,0-0.93-0.38-0.99-0.89l-1.32-11.89C14.44,14.83,14.53,14.54,14.72,14.33z"/>
</svg>
