<?xml version="1.0" encoding="utf-8"?>
<!-- Generator: Adobe Illustrator 16.0.0, SVG Export Plug-In . SVG Version: 6.00 Build 0)  -->
<!DOCTYPE svg PUBLIC "-//W3C//DTD SVG 1.1//EN" "http://www.w3.org/Graphics/SVG/1.1/DTD/svg11.dtd">
<svg version="1.1" id="Capa_1" xmlns="http://www.w3.org/2000/svg" xmlns:xlink="http://www.w3.org/1999/xlink" x="0px" y="0px"
	 width="48px" height="48px" viewBox="0 0 48 48" enable-background="new 0 0 48 48" xml:space="preserve">
<g>
	<path d="M36,2H12C8,2,8,6,8,6v36c0,0,0,4,4,4h24c4,0,4-4,4-4V6C40,6,40,2,36,2z M13,6h13.99c0.55,0,1,0.45,1,1s-0.45,1-1,1H13
		c-0.55,0-1-0.45-1-1S12.45,6,13,6z M12,23c0-0.55,0.45-1,1-1h10c0.55,0,1,0.45,1,1s-0.45,1-1,1H13C12.45,24,12,23.55,12,23z M12,19
		c0-0.55,0.45-1,1-1h18c0.55,0,1,0.45,1,1s-0.45,1-1,1H13C12.45,20,12,19.55,12,19z M29,42c-3.87,0-7-3.13-7-7s3.13-7,7-7
		s7,3.13,7,7S32.87,42,29,42z M35,16H13c-0.55,0-1-0.45-1-1s0.45-1,1-1h22c0.55,0,1,0.45,1,1S35.55,16,35,16z"/>
	<path d="M29,30c-2.76,0-5,2.24-5,5s2.24,5,5,5s5-2.24,5-5S31.76,30,29,30z M31,36h-4c-0.55,0-1-0.45-1-1s0.45-1,1-1h4
		c0.55,0,1,0.45,1,1S31.55,36,31,36z"/>
</g>
</svg>
