<?xml version="1.0" encoding="utf-8"?>
<!-- Generator: Adobe Illustrator 16.0.0, SVG Export Plug-In . SVG Version: 6.00 Build 0)  -->
<!DOCTYPE svg PUBLIC "-//W3C//DTD SVG 1.1//EN" "http://www.w3.org/Graphics/SVG/1.1/DTD/svg11.dtd">
<svg version="1.1" id="Capa_1" xmlns="http://www.w3.org/2000/svg" xmlns:xlink="http://www.w3.org/1999/xlink" x="0px" y="0px"
	 width="48px" height="48px" viewBox="0 0 48 48" enable-background="new 0 0 48 48" xml:space="preserve">
<path d="M37,30h-9v-5c0-2.02,0.75-3.31,1.61-4.81C30.73,18.25,32,16.06,32,12c0-4.41-3.59-8-8-8s-8,3.59-8,8
	c0,4.06,1.27,6.25,2.39,8.19C19.25,21.68,20,22.98,20,25v5h-9c-2.2,0-3,1.79-3,3v4c0,2.2,1.79,3,3,3v2c0,0.97,0.7,2,2,2h22
	c0.97,0,2-0.7,2-2v-2c2.2,0,3-1.79,3-3v-4C40,30.8,38.21,30,37,30z M35,42H13v-2h22V42z"/>
</svg>
