<?xml version="1.0" encoding="utf-8"?>
<!-- Generator: Adobe Illustrator 16.0.0, SVG Export Plug-In . SVG Version: 6.00 Build 0)  -->
<!DOCTYPE svg PUBLIC "-//W3C//DTD SVG 1.1//EN" "http://www.w3.org/Graphics/SVG/1.1/DTD/svg11.dtd">
<svg version="1.1" id="Capa_1" xmlns="http://www.w3.org/2000/svg" xmlns:xlink="http://www.w3.org/1999/xlink" x="0px" y="0px"
	 width="48px" height="48px" viewBox="0 0 48 48" enable-background="new 0 0 48 48" xml:space="preserve">
<path d="M42,34h-3.99l0.01-4.38c1.04,0.229,1.74,0.38,1.99,0.43c0.25,0.061,0.5,0.08,0.73,0.08c1.83,0,2.622-1.423,2.83-2.38
	c1.101-5.07-12.98-14.22-28.061-17.45c-1-0.21-1.96-0.32-2.85-0.32c-4.97,0-6.99,3.44-7.37,5.26l-0.84,3.91
	c-0.25,1.18,0.09,2.21,0.97,2.91c0.59,0.47,1.22,0.63,1.33,0.65c0.02,0,0.12,0.03,0.26,0.06v3.55c0,0.85,0.59,2.58,2.89,2.989
	l17.49,2.051L26.33,34H8.001c-1.1,0-2,0.9-2,2s0.9,2,2,2H42c1.1,0,2-0.9,2-2S43.1,34,42,34z M28.17,29.44l-17.98-2.11
	c-1.05-0.19-1.17-0.84-1.18-1.01v-3.11c4.04,0.89,12.72,2.81,19.9,4.4L28.17,29.44z"/>
</svg>
