<?xml version="1.0" encoding="utf-8"?>
<!-- Generator: Adobe Illustrator 16.0.0, SVG Export Plug-In . SVG Version: 6.00 Build 0)  -->
<!DOCTYPE svg PUBLIC "-//W3C//DTD SVG 1.1//EN" "http://www.w3.org/Graphics/SVG/1.1/DTD/svg11.dtd">
<svg version="1.1" id="Capa_1" xmlns="http://www.w3.org/2000/svg" xmlns:xlink="http://www.w3.org/1999/xlink" x="0px" y="0px"
	 width="48px" height="48px" viewBox="0 0 48 48" enable-background="new 0 0 48 48" xml:space="preserve">
<g>
	<path d="M7.004,11.997c0.219,0,0.44-0.072,0.624-0.219l4.376-3.5l4.375,3.5c0.43,0.344,1.061,0.275,1.405-0.156
		c0.345-0.431,0.275-1.061-0.156-1.405l-5-4c-0.365-0.292-0.884-0.292-1.249,0l-5,4c-0.432,0.345-0.501,0.974-0.156,1.405
		C6.42,11.869,6.71,11.997,7.004,11.997z"/>
	<path d="M4,38.11c-0.32-0.07-0.66-0.101-1-0.101H2V41c0,2.21,1.79,3,3,3h3v-0.98C8,42.67,7.96,42.33,7.9,42
		C7.49,40.05,5.95,38.51,4,38.11z"/>
	<path d="M31.617,11.778l4.375-3.5l4.375,3.5c0.185,0.147,0.405,0.219,0.624,0.219c0.294,0,0.584-0.128,0.782-0.375
		c0.345-0.431,0.274-1.061-0.156-1.405l-5-4c-0.365-0.292-0.885-0.292-1.25,0l-5,4c-0.431,0.345-0.501,0.974-0.156,1.405
		C30.557,12.052,31.185,12.123,31.617,11.778z"/>
	<path d="M4,21.9c1.96-0.4,3.5-1.94,3.9-3.9c0.07-0.32,0.1-0.66,0.1-1v-1H5c-2.2,0-3,1.79-3,3v3h1C3.34,22,3.68,21.97,4,21.9z"/>
	<path d="M44,38.12c-1.94,0.399-3.47,1.939-3.88,3.88c-0.061,0.33-0.101,0.67-0.101,1.02V44H43c2.2,0,3-1.79,3-3v-2.99h-0.97
		C44.68,38.01,44.33,38.05,44,38.12z"/>
	<path d="M44,23.91c-3.05-0.44-5.47-2.86-5.9-5.91c-0.06-0.33-0.08-0.66-0.08-1v-1H10v1c0,0.34-0.02,0.67-0.08,1
		C9.49,21.06,7.061,23.49,4,23.92C3.67,23.98,3.34,24,3,24H2v12.01h1c0.34,0,0.67,0.021,1,0.08C7.05,36.52,9.48,38.94,9.92,42
		C9.971,42.33,10,42.67,10,43.02V44h28.02v-0.98c0-0.35,0.03-0.689,0.08-1.02c0.44-3.05,2.86-5.46,5.9-5.9
		c0.33-0.06,0.68-0.09,1.03-0.09H46V24h-0.97C44.68,24,44.33,23.97,44,23.91z M24,40c-4.41,0-8-4.49-8-10s3.59-10,8-10s8,4.49,8,10
		S28.41,40,24,40z"/>
	<path d="M43,16h-2.98v1c0,0.34,0.03,0.68,0.101,1c0.399,1.95,1.93,3.49,3.88,3.9c0.33,0.06,0.68,0.1,1.03,0.1H46v-3
		C46,16.79,44.21,16,43,16z"/>
	<path d="M24,22c-3.311,0-6,3.59-6,8s2.689,8,6,8c3.31,0,6-3.59,6-8S27.31,22,24,22z"/>
</g>
</svg>
