<?xml version="1.0" encoding="utf-8"?>
<!-- Generator: Adobe Illustrator 16.0.0, SVG Export Plug-In . SVG Version: 6.00 Build 0)  -->
<!DOCTYPE svg PUBLIC "-//W3C//DTD SVG 1.1//EN" "http://www.w3.org/Graphics/SVG/1.1/DTD/svg11.dtd">
<svg version="1.1" id="Capa_1" xmlns="http://www.w3.org/2000/svg" xmlns:xlink="http://www.w3.org/1999/xlink" x="0px" y="0px"
	 width="48px" height="48px" viewBox="0 0 48 48" enable-background="new 0 0 48 48" xml:space="preserve">
<g>
	<path d="M21.88,26.12C22.44,26.69,23.2,27,24,27s1.55-0.31,2.12-0.88c1.17-1.17,1.17-3.07,0-4.24c-0.8-0.8-9.22-6.85-10.9-8.06
		c-0.4-0.28-0.95-0.24-1.29,0.11c-0.35,0.34-0.39,0.89-0.11,1.29C15.03,16.9,21.08,25.32,21.88,26.12z"/>
	<path d="M24,4c-1.104,0-2,0.896-2,2v6c0,1.104,0.896,2,2,2s2-0.896,2-2V8.125C33.882,9.112,40,15.855,40,24c0,8.822-7.178,16-16,16
		S8,32.822,8,24c0-4.345,1.712-8.41,4.821-11.446c0.79-0.771,0.805-2.038,0.033-2.828c-0.771-0.791-2.037-0.805-2.828-0.033
		C6.14,13.488,4,18.569,4,24c0,11.028,8.972,20,20,20c11.028,0,20-8.972,20-20C44,12.972,35.028,4,24,4z"/>
</g>
</svg>
