<?xml version="1.0" encoding="utf-8"?>
<!-- Generator: Adobe Illustrator 16.0.0, SVG Export Plug-In . SVG Version: 6.00 Build 0)  -->
<!DOCTYPE svg PUBLIC "-//W3C//DTD SVG 1.1//EN" "http://www.w3.org/Graphics/SVG/1.1/DTD/svg11.dtd">
<svg version="1.1" id="Capa_1" xmlns="http://www.w3.org/2000/svg" xmlns:xlink="http://www.w3.org/1999/xlink" x="0px" y="0px"
	 width="48px" height="48px" viewBox="0 0 48 48" enable-background="new 0 0 48 48" xml:space="preserve">
<g>
	<path d="M44,24v-5c0-6.07-4.93-11-11-11H15C8.93,8,4,12.93,4,19v5h12v2H4v11c0,1.21,0.8,3,3,3h34c1.21,0,3-0.8,3-3V26H32v-2H44z
		 M30,29c0,1.65-1.35,3-3,3h-6c-1.65,0-3-1.35-3-3v-8c0-1.65,1.35-3,3-3h6c1.65,0,3,1.35,3,3V29z"/>
	<path d="M24,21c-1.657,0-3,1.343-3,3c0,1.305,0.837,2.403,2,2.816V29c0,0.553,0.448,1,1,1s1-0.447,1-1v-2.184
		c1.163-0.413,2-1.512,2-2.816C27,22.343,25.657,21,24,21z"/>
</g>
</svg>
