<?xml version="1.0" encoding="utf-8"?>
<!-- Generator: Adobe Illustrator 16.0.0, SVG Export Plug-In . SVG Version: 6.00 Build 0)  -->
<!DOCTYPE svg PUBLIC "-//W3C//DTD SVG 1.1//EN" "http://www.w3.org/Graphics/SVG/1.1/DTD/svg11.dtd">
<svg version="1.1" id="Capa_1" xmlns="http://www.w3.org/2000/svg" xmlns:xlink="http://www.w3.org/1999/xlink" x="0px" y="0px"
	 width="48px" height="48px" viewBox="0 0 48 48" enable-background="new 0 0 48 48" xml:space="preserve">
<path d="M43.45,22.1c-0.66-0.33-1.811-2.06-2.74-3.46C39.06,16.15,37.64,14,36,14h-7c-0.38,0-0.7,0.07-1,0.16V11
	c0-0.12-0.02-0.77-0.36-1.45C27.14,8.55,26.21,8,25,8H5c-2.2,0-3,1.79-3,3v22c0,2.2,1.79,3,3,3h1.1c0.46,2.28,2.48,4,4.9,4
	c2.41,0,4.43-1.72,4.9-4h14.22c0.46,2.28,2.479,4,4.899,4c2.41,0,4.431-1.72,4.9-4H43c2.2,0,3-1.79,3-3v-7
	C46,25.89,45.97,23.37,43.45,22.1z M11,38c-1.65,0-3-1.34-3-3c0-1.65,1.35-3,3-3s3,1.35,3,3C14,36.66,12.65,38,11,38z M26,33
	c0,1-1,1-1,1h-9.1c-0.47-2.28-2.49-4-4.9-4s-4.43,1.72-4.9,4H5.01C4.55,33.99,4,33.81,4,33V11.01C4.01,10.55,4.19,10,5,10h20
	c0.81,0,0.99,0.55,1,1V33z M35.02,38c-1.659,0-3-1.34-3-3c0-1.65,1.341-3,3-3c1.65,0,3,1.35,3,3C38.02,36.66,36.67,38,35.02,38z
	 M33,22c-1,0-1-1-1-1v-4c0-1,1-1,1-1h2.99c0.64,0.1,2.21,2.47,3.05,3.74c0.55,0.83,1.06,1.6,1.56,2.26H33z"/>
</svg>
