<?xml version="1.0" encoding="utf-8"?>
<!-- Generator: Adobe Illustrator 16.0.0, SVG Export Plug-In . SVG Version: 6.00 Build 0)  -->
<!DOCTYPE svg PUBLIC "-//W3C//DTD SVG 1.1//EN" "http://www.w3.org/Graphics/SVG/1.1/DTD/svg11.dtd">
<svg version="1.1" id="Capa_1" xmlns="http://www.w3.org/2000/svg" xmlns:xlink="http://www.w3.org/1999/xlink" x="0px" y="0px"
	 width="48px" height="48px" viewBox="0 0 48 48" enable-background="new 0 0 48 48" xml:space="preserve">
<path d="M45.629,21.223l-21-17c-0.367-0.297-0.892-0.297-1.259,0l-21,17c-0.329,0.267-0.455,0.712-0.313,1.111
	C2.199,22.733,2.576,23,3,23h4v18c0,1.654,1.346,3,3,3h28c1.654,0,3-1.346,3-3V23h4c0.424,0,0.802-0.267,0.942-0.667
	C46.084,21.935,45.958,21.489,45.629,21.223z M32,42H16v-2h16V42z M32,38H16v-2h16V38z M32,34H16v-2h16V34z M32,30H16v-0.988
	C16.012,28.55,16.195,28,17,28h13.988C31.45,28.012,32,28.194,32,29V30z M39,41c0,0.552-0.448,1-1,1h-4V29c0-2.201-1.794-3-3-3H17
	c-2.201,0-3,1.794-3,3v13h-4c-0.551,0-1-0.448-1-1V18.43L24,6.287l15,12.143V41z"/>
</svg>
