<?xml version="1.0" encoding="utf-8"?>
<!-- Generator: Adobe Illustrator 16.0.0, SVG Export Plug-In . SVG Version: 6.00 Build 0)  -->
<!DOCTYPE svg PUBLIC "-//W3C//DTD SVG 1.1//EN" "http://www.w3.org/Graphics/SVG/1.1/DTD/svg11.dtd">
<svg version="1.1" id="Capa_1" xmlns="http://www.w3.org/2000/svg" xmlns:xlink="http://www.w3.org/1999/xlink" x="0px" y="0px"
	 width="48px" height="48px" viewBox="0 0 48 48" enable-background="new 0 0 48 48" xml:space="preserve">
<path d="M39.01,14H9c-2.2,0-3,1.79-3,3c0,7,1.51,10.37,2.01,11.29C8.35,32.36,15.82,36,24,36c8.17,0,15.63-3.63,15.99-7.7
	c0.49-0.899,2.02-4.26,2.02-11.3C42.01,15.79,41.21,14,39.01,14z M19.75,20.5h3.07l0.94-2.91c0.04-0.1,0.13-0.17,0.24-0.17
	s0.2,0.07,0.24,0.17l0.939,2.91h3.07c0.11,0,0.2,0.07,0.24,0.18c0.029,0.1-0.01,0.21-0.09,0.28l-2.48,1.8l0.95,2.91
	c0.03,0.1-0.01,0.22-0.101,0.28C26.73,25.98,26.68,26,26.63,26s-0.11-0.02-0.149-0.05L24,24.15l-2.48,1.8
	c-0.09,0.06-0.21,0.06-0.29,0c-0.09-0.061-0.13-0.181-0.09-0.28l0.94-2.91l-2.48-1.8c-0.08-0.07-0.12-0.18-0.09-0.28
	C19.55,20.57,19.64,20.5,19.75,20.5z M24,34c-8.06,0-13.92-3.53-14-5.95c2.47,0.9,6.88,1.95,14,1.95s11.53-1.05,14-1.95
	C37.92,30.47,32.06,34,24,34z"/>
</svg>
