<?xml version="1.0" encoding="utf-8"?>
<!-- Generator: Adobe Illustrator 16.0.0, SVG Export Plug-In . SVG Version: 6.00 Build 0)  -->
<!DOCTYPE svg PUBLIC "-//W3C//DTD SVG 1.1//EN" "http://www.w3.org/Graphics/SVG/1.1/DTD/svg11.dtd">
<svg version="1.1" id="Capa_1" xmlns="http://www.w3.org/2000/svg" xmlns:xlink="http://www.w3.org/1999/xlink" x="0px" y="0px"
	 width="48px" height="48px" viewBox="0 0 48 48" enable-background="new 0 0 48 48" xml:space="preserve">
<path d="M40.9,39.92l-8.471-22C31.98,16.77,30.86,16,29.63,16H26v-3c0-0.7,0.39-1.28,0.83-1.95C27.38,10.23,28,9.3,28,8
	c0-2.21-1.79-4-4-4s-4,1.79-4,4c0,1.3,0.62,2.23,1.17,3.05C21.61,11.72,22,12.3,22,13v3h-3.63c-1.23,0-2.35,0.77-2.8,1.92l-8.46,22
	c-0.35,0.93-0.23,1.96,0.33,2.78C8,43.51,8.92,44,9.91,44H38.1c0.99,0,1.91-0.49,2.471-1.3C41.13,41.88,41.25,40.84,40.9,39.92z
	 M31.646,33.763l-6.999,5.998c-0.042,0.036-0.094,0.054-0.14,0.082c-0.05,0.03-0.095,0.065-0.15,0.087
	c-0.092,0.036-0.188,0.051-0.286,0.059c-0.026,0.002-0.048,0.015-0.074,0.015c-0.027,0-0.049-0.013-0.075-0.016
	c-0.097-0.007-0.193-0.021-0.285-0.057c-0.058-0.022-0.105-0.061-0.158-0.093c-0.044-0.027-0.093-0.043-0.133-0.078l-6.997-5.998
	c-0.419-0.359-0.468-0.99-0.108-1.409c0.36-0.421,0.992-0.469,1.41-0.108l5.346,4.582V23.005c0-0.552,0.448-1,1-1s1,0.448,1,1
	v13.821l5.349-4.583c0.419-0.357,1.05-0.311,1.41,0.109C32.114,32.771,32.065,33.403,31.646,33.763z"/>
</svg>
