<?xml version="1.0" encoding="utf-8"?>
<!-- Generator: Adobe Illustrator 16.0.0, SVG Export Plug-In . SVG Version: 6.00 Build 0)  -->
<!DOCTYPE svg PUBLIC "-//W3C//DTD SVG 1.1//EN" "http://www.w3.org/Graphics/SVG/1.1/DTD/svg11.dtd">
<svg version="1.1" id="Capa_1" xmlns="http://www.w3.org/2000/svg" xmlns:xlink="http://www.w3.org/1999/xlink" x="0px" y="0px"
	 width="48px" height="48px" viewBox="0 0 48 48" enable-background="new 0 0 48 48" xml:space="preserve">
<path d="M33,16h-7v-3c0-0.7,0.39-1.28,0.83-1.95C27.38,10.23,28,9.3,28,8c0-2.21-1.79-4-4-4s-4,1.79-4,4c0,1.3,0.62,2.23,1.17,3.05
	C21.61,11.72,22,12.3,22,13v3h-7c-2.2,0-3,1.79-3,3v22c0,2.2,1.79,3,3,3h18c2.2,0,3-1.79,3-3V19C36,16.8,34.21,16,33,16z"/>
</svg>
