<?xml version="1.0" encoding="utf-8"?>
<!-- Generator: Adobe Illustrator 16.0.0, SVG Export Plug-In . SVG Version: 6.00 Build 0)  -->
<!DOCTYPE svg PUBLIC "-//W3C//DTD SVG 1.1//EN" "http://www.w3.org/Graphics/SVG/1.1/DTD/svg11.dtd">
<svg version="1.1" id="Capa_1" xmlns="http://www.w3.org/2000/svg" xmlns:xlink="http://www.w3.org/1999/xlink" x="0px" y="0px"
	 width="48px" height="48px" viewBox="0 0 48 48" enable-background="new 0 0 48 48" xml:space="preserve">
<g>
	<path d="M45.786,23.375l-4.004-5c-0.345-0.43-0.973-0.501-1.405-0.156c-0.432,0.345-0.501,0.975-0.155,1.406L42.924,23H36v2h6.924
		l-2.702,3.375c-0.346,0.431-0.276,1.061,0.155,1.405c0.185,0.148,0.405,0.22,0.624,0.22c0.294,0,0.584-0.128,0.781-0.375l4.004-5
		C46.079,24.26,46.079,23.74,45.786,23.375z"/>
	<path d="M10,40.12C9.67,40.06,9.33,40.02,8.98,40.02H8V43c0,2.2,1.79,3,3,3h2.99v-0.97c0-0.351-0.04-0.7-0.11-1.03
		C13.48,42.06,11.94,40.53,10,40.12z"/>
	<path d="M10,7.9c1.95-0.41,3.49-1.95,3.89-3.9c0.07-0.32,0.1-0.66,0.1-1V2H11C8.79,2,8,3.79,8,5v3h0.98C9.33,8,9.67,7.96,10,7.9z"
		/>
	<path d="M34,7.9C34.32,7.97,34.66,8,35,8h1V5c0-2.2-1.79-3-3-3h-3v1c0,0.34,0.03,0.68,0.1,1C30.5,5.96,32.04,7.5,34,7.9z"/>
	<path d="M34,40.12c-1.95,0.399-3.49,1.93-3.9,3.88c-0.06,0.33-0.1,0.68-0.1,1.03V46h3c2.21,0,3-1.79,3-3v-2.98h-1
		C34.66,40.02,34.32,40.05,34,40.12z"/>
	<path d="M22,32c-5.09,0-9.3-3.06-9.92-7H8v13.02h0.98c0.35,0,0.69,0.03,1.02,0.08c3.05,0.44,5.46,2.86,5.9,5.9
		c0.06,0.33,0.09,0.68,0.09,1.03V46H28v-0.97c0-0.351,0.03-0.7,0.09-1.03c0.44-3.05,2.86-5.47,5.91-5.9c0.33-0.06,0.66-0.08,1-0.08
		h1V25h-4.08C31.3,28.94,27.09,32,22,32z"/>
	<path d="M22,18c-4.41,0-8,2.69-8,6c0,3.31,3.59,6,8,6s8-2.69,8-6C30,20.69,26.41,18,22,18z"/>
	<path d="M22,16c5.09,0,9.3,3.06,9.92,7H36V10h-1c-0.34,0-0.67-0.02-1-0.08C30.94,9.49,28.51,7.06,28.08,4C28.02,3.67,28,3.34,28,3
		V2H15.99v1c0,0.34-0.02,0.67-0.08,1C15.48,7.05,13.06,9.48,10,9.92C9.67,9.97,9.33,10,8.98,10H8v13h4.08C12.7,19.06,16.91,16,22,16
		z"/>
	<path d="M3,23c-0.55,0-1,0.45-1,1s0.45,1,1,1h5v-2H3z"/>
</g>
</svg>
