<?xml version="1.0" encoding="utf-8"?>
<!-- Generator: Adobe Illustrator 16.0.0, SVG Export Plug-In . SVG Version: 6.00 Build 0)  -->
<!DOCTYPE svg PUBLIC "-//W3C//DTD SVG 1.1//EN" "http://www.w3.org/Graphics/SVG/1.1/DTD/svg11.dtd">
<svg version="1.1" id="Capa_1" xmlns="http://www.w3.org/2000/svg" xmlns:xlink="http://www.w3.org/1999/xlink" x="0px" y="0px"
	 width="48px" height="48px" viewBox="0 0 48 48" enable-background="new 0 0 48 48" xml:space="preserve">
<g>
	<path d="M36,17.881c0.33,0.06,0.67,0.1,1.02,0.1H38v-2.98c0-2.2-1.79-3-3-3h-2.99v0.97c0,0.35,0.04,0.7,0.11,1.03
		C32.52,15.941,34.06,17.471,36,17.881z"/>
	<path d="M12,17.881c1.95-0.4,3.49-1.93,3.9-3.88c0.06-0.33,0.1-0.68,0.1-1.03v-0.97h-3c-2.21,0-3,1.79-3,3v2.98h1
		C11.34,17.981,11.68,17.951,12,17.881z"/>
	<path d="M24,28.002c-4.41,0-8,2.69-8,6.003c0,3.31,3.59,6,8,6s8-2.69,8-6C32,30.692,28.41,28.002,24,28.002z"/>
	<path d="M41.002,38H38V19.981h-0.98c-0.35,0-0.689-0.03-1.02-0.08c-3.05-0.44-5.46-2.86-5.9-5.9c-0.06-0.33-0.09-0.68-0.09-1.03
		v-0.97H18v0.97c0,0.35-0.03,0.7-0.09,1.03c-0.44,3.05-2.86,5.47-5.91,5.9c-0.33,0.06-0.66,0.08-1,0.08h-1V38H7
		c-1.206,0-3,0.799-3,3s1.794,3,3,3h3v0.003h28V44h3.002c1.206,0,3-0.799,3-3S42.208,38,41.002,38z M10,42H7.012
		C6.55,41.988,6,41.806,6,41s0.55-0.988,1-1h3V42z M24.12,42h-0.24C18.426,41.947,14,38.383,14,34.005c0-4.413,4.49-8.003,10-8.003
		s10,3.59,10,8.003C34,38.383,29.574,41.947,24.12,42z M41.002,42H38v-2h2.99c0.462,0.012,1.012,0.194,1.012,1
		S41.452,41.988,41.002,42z"/>
	<path d="M19.625,9.781L24,6.281l4.375,3.5C28.56,9.928,28.78,10,28.999,10c0.294,0,0.584-0.128,0.782-0.375
		c0.345-0.431,0.274-1.061-0.156-1.405l-5-4c-0.365-0.292-0.884-0.292-1.249,0l-5,4c-0.432,0.345-0.501,0.974-0.156,1.405
		C18.563,10.057,19.194,10.126,19.625,9.781z"/>
</g>
</svg>
