<?xml version="1.0" encoding="utf-8"?>
<!-- Generator: Adobe Illustrator 16.0.0, SVG Export Plug-In . SVG Version: 6.00 Build 0)  -->
<!DOCTYPE svg PUBLIC "-//W3C//DTD SVG 1.1//EN" "http://www.w3.org/Graphics/SVG/1.1/DTD/svg11.dtd">
<svg xmlns="http://www.w3.org/2000/svg" xmlns:xlink="http://www.w3.org/1999/xlink" version="1.1" id="Capa_1" x="0px" y="0px" width="32px" height="32px" viewBox="0 0 32 32" enable-background="new 0 0 32 32" xml:space="preserve">
<g>
	<path d="M28,13V8h-2V6h4V0h-6v4h-6v2h-4V4H8V0H2v6h4v2H4v5H0v11h6v-2h2v2h2v2H6v6h6v-4h8v4h6v-6h-4v-2h2v-2h2v2h6V13H28z M26,2h2v2   h-2V2z M10,30H8v-2h2V30z M4,4V2h2v2H4z M24,28v2h-2v-2H24z M30,22h-2v-2h-6v2h-2v4h-8v-4h-2v-2H4v2H2v-7h4v-5h2V6h4v2h8V6h4v4h2v5   h4V22z"/>
</g>
<g>
	<path d="M8,12v6h6v-6H8z M12,16h-2v-2h2V16z"/>
</g>
<g>
	<path d="M18,12v6h6v-6H18z M22,16h-2v-2h2V16z"/>
</g>
</svg>
