<?xml version="1.0" encoding="utf-8"?>
<!-- Generator: Adobe Illustrator 16.0.0, SVG Export Plug-In . SVG Version: 6.00 Build 0)  -->
<!DOCTYPE svg PUBLIC "-//W3C//DTD SVG 1.1//EN" "http://www.w3.org/Graphics/SVG/1.1/DTD/svg11.dtd">
<svg xmlns="http://www.w3.org/2000/svg" xmlns:xlink="http://www.w3.org/1999/xlink" version="1.1" id="Capa_1" x="0px" y="0px" width="32px" height="32px" viewBox="0 0 32 32" enable-background="new 0 0 32 32" xml:space="preserve">
<g>
	<path d="M15,2c6.278,0,13,4.822,13,12c0,6.838-6.427,16-13,16C8.427,30,2,20.838,2,14C2,6.822,8.722,2,15,2 M15,0C7.268,0,0,6,0,14   s7.268,18,15,18c7.732,0,15-10,15-18S22.732,0,15,0L15,0z"/>
</g>
<g>
	<path d="M8,16c0.888,0,1.972,0.892,2.761,2.271c0.958,1.674,0.957,3.074,0.825,3.314c-0.136,0.136-0.647,0.351-1.445,0.351   C9.972,21.937,6,21.892,6,18.023C6.023,17.101,6.389,16,8,16 M8,14c-4,0-4,4-4,4c0,4.184,3.403,5.937,6.141,5.937   c1.189,0,2.253-0.331,2.859-0.937C15,21,12,14,8,14L8,14z"/>
</g>
<g>
	<path d="M21.637,16c1.61,0,1.977,1.101,2,2c0,3.892-3.973,3.937-4.142,3.937c-0.797,0-1.309-0.215-1.415-0.315   c-0.161-0.275-0.162-1.676,0.795-3.35C19.665,16.892,20.749,16,21.637,16 M21.637,14c-4,0-7,7-5,9   c0.605,0.605,1.67,0.937,2.858,0.937c2.739,0,6.142-1.753,6.142-5.937C25.637,18,25.637,14,21.637,14L21.637,14z"/>
</g>
</svg>
