<?xml version="1.0" encoding="utf-8"?>
<!-- Generator: Adobe Illustrator 16.0.0, SVG Export Plug-In . SVG Version: 6.00 Build 0)  -->
<!DOCTYPE svg PUBLIC "-//W3C//DTD SVG 1.1//EN" "http://www.w3.org/Graphics/SVG/1.1/DTD/svg11.dtd">
<svg xmlns="http://www.w3.org/2000/svg" xmlns:xlink="http://www.w3.org/1999/xlink" version="1.1" id="Capa_1" x="0px" y="0px" width="32px" height="32px" viewBox="0 0 32 32" enable-background="new 0 0 32 32" xml:space="preserve">
<g>
	<path d="M30,22V8h-4V2H4v6H0v14h4v2H0v6h6v-4h2v6h6v-3h2v3h6v-6h2v4h6v-6h-4v-2H30z M4,28H2v-2h2V28z M12,4h6v4h-6V4z M28,26v2h-2   v-2H28z M24,20v4h-4v6h-2v-3h-6v3h-2v-6H6v-4H2V10h4V4h4v6h10V4h4v6h4v10H24z"/>
</g>
<g>
	<path d="M4,12v6h4v4h6V12H4z M12,20h-2v-4H6v-2h6V20z"/>
</g>
<g>
	<path d="M16,12v10h6v-4h4v-6H16z M24,16h-4v4h-2v-6h6V16z"/>
</g>
</svg>
