<?xml version="1.0" encoding="utf-8"?>
<!-- Generator: Adobe Illustrator 16.0.0, SVG Export Plug-In . SVG Version: 6.00 Build 0)  -->
<!DOCTYPE svg PUBLIC "-//W3C//DTD SVG 1.1//EN" "http://www.w3.org/Graphics/SVG/1.1/DTD/svg11.dtd">
<svg xmlns="http://www.w3.org/2000/svg" xmlns:xlink="http://www.w3.org/1999/xlink" version="1.1" id="Capa_1" x="0px" y="0px" width="32px" height="32px" viewBox="0 0 32 32" enable-background="new 0 0 32 32" xml:space="preserve">
<g>
	<path d="M29,4H3C0.8,4,0,5.79,0,7v20c0,2.2,1.79,3,3,3h26c2.2,0,3-1.79,3-3V7C32,4.8,30.21,4,29,4z M30,26.99   C29.99,27.45,29.81,28,29,28H3.01C2.55,27.99,2,27.81,2,27V7.01C2.01,6.55,2.19,6,3,6h25.99C29.45,6.01,30,6.19,30,7V26.99z"/>
</g>
<g>
	<path d="M24,18c-2.21,0-4,1.79-4,4s1.79,4,4,4s4-1.79,4-4S26.21,18,24,18z M24,24c-1.1,0-2-0.9-2-2s0.9-2,2-2s2,0.9,2,2   S25.1,24,24,24z"/>
</g>
<g>
	<rect x="4" y="22" width="6" height="2"/>
</g>
<g>
	<rect x="12" y="22" width="6" height="2"/>
</g>
<g>
	<rect x="4" y="18" width="6" height="2"/>
</g>
<g>
	<rect x="12" y="18" width="6" height="2"/>
</g>
<g>
	<polygon points="10,10 10,12 8,12 8,16 6,16 6,12 4,12 4,10 6,10 6,8 8,8 8,10  "/>
</g>
<g>
	<polygon points="18,12 18,14 16,14 16,16 14,16 14,14 12,14 12,12 14,12 14,8 16,8 16,12  "/>
</g>
<g>
	<polygon points="26,10 26,12 24,12 24,16 22,16 22,12 20,12 20,10 22,10 22,8 24,8 24,10  "/>
</g>
</svg>
