<?xml version="1.0" encoding="utf-8"?>
<!-- Generator: Adobe Illustrator 16.0.0, SVG Export Plug-In . SVG Version: 6.00 Build 0)  -->
<!DOCTYPE svg PUBLIC "-//W3C//DTD SVG 1.1//EN" "http://www.w3.org/Graphics/SVG/1.1/DTD/svg11.dtd">
<svg xmlns="http://www.w3.org/2000/svg" xmlns:xlink="http://www.w3.org/1999/xlink" version="1.1" id="Capa_1" x="0px" y="0px" width="32px" height="32px" viewBox="0 0 32 32" enable-background="new 0 0 32 32" xml:space="preserve">
<g>
	<path d="M10,10.18v10C9.69,20.06,9.35,20,9,20c-1.66,0-3,1.34-3,3s1.34,3,3,3s3-1.34,3-3v-7.18l8-1.6v3.959   C19.69,18.06,19.35,18,19,18c-1.66,0-3,1.34-3,3s1.34,3,3,3s3-1.34,3-3V7.78L10,10.18z M9,24c-0.55,0-1-0.45-1-1s0.45-1,1-1   s1,0.45,1,1S9.55,24,9,24z M12,13.78v-1.96l8-1.6v1.96L12,13.78z M19,22c-0.55,0-1-0.45-1-1s0.45-1,1-1s1,0.45,1,1S19.55,22,19,22z   "/>
</g>
<g>
	<path d="M6,0l10,8l10-8H6z M11.7,2h8.6L16,5.44L11.7,2z"/>
</g>
<g>
	<path d="M16,24L6,32h20L16,24z M16,26.56L20.3,30h-8.6L16,26.56z"/>
</g>
</svg>
