<?xml version="1.0" encoding="utf-8"?>
<!-- Generator: Adobe Illustrator 16.0.0, SVG Export Plug-In . SVG Version: 6.00 Build 0)  -->
<!DOCTYPE svg PUBLIC "-//W3C//DTD SVG 1.1//EN" "http://www.w3.org/Graphics/SVG/1.1/DTD/svg11.dtd">
<svg xmlns="http://www.w3.org/2000/svg" xmlns:xlink="http://www.w3.org/1999/xlink" version="1.1" id="Capa_1" x="0px" y="0px" width="32px" height="32px" viewBox="0 0 32 32" enable-background="new 0 0 32 32" xml:space="preserve">
<g>
	<path d="M15,2C6.72,2,0,8.72,0,17c0,8.28,6.72,15,15,15c8.28,0,15-6.72,15-15C30,8.72,23.28,2,15,2z M16,4.05   C22.37,4.52,27.48,9.63,27.96,16h-2.01c-0.47-5.28-4.67-9.48-9.95-9.95V4.05z M20.61,9.97l-4.32,4.32l1.42,1.42l4.32-4.32   C23.26,12.93,24,14.88,24,17c0,4.96-4.04,9-9,9s-9-4.04-9-9s4.04-9,9-9C17.12,8,19.07,8.74,20.61,9.97z M14,4.05v2   C8.72,6.52,4.52,10.72,4.05,16h-2C2.52,9.63,7.63,4.52,14,4.05z M15,30C8.17,30,2.55,24.7,2.05,18h2C4.55,23.61,9.26,28,15,28   s10.45-4.39,10.95-10h2.01C27.45,24.7,21.83,30,15,30z"/>
</g>
</svg>
