<?xml version="1.0" encoding="utf-8"?>
<!-- Generator: Adobe Illustrator 16.0.0, SVG Export Plug-In . SVG Version: 6.00 Build 0)  -->
<!DOCTYPE svg PUBLIC "-//W3C//DTD SVG 1.1//EN" "http://www.w3.org/Graphics/SVG/1.1/DTD/svg11.dtd">
<svg xmlns="http://www.w3.org/2000/svg" xmlns:xlink="http://www.w3.org/1999/xlink" version="1.1" id="Capa_1" x="0px" y="0px" width="32px" height="32px" viewBox="0 0 32 32" enable-background="new 0 0 32 32" xml:space="preserve">
<g>
	<path d="M0,4v24h32V4H0z M2,6h28v8h-3c-0.43,0-0.81,0.279-0.95,0.68l-1.13,3.41l-2.99-7.46c-0.149-0.37-0.5-0.61-0.89-0.63   c-0.42-0.01-0.76,0.2-0.93,0.55l-2.92,5.841l-1.24-3.71c-0.13-0.38-0.479-0.65-0.88-0.68c-0.4-0.02-0.78,0.19-0.961,0.55   l-3.01,6.01l-3.17-7.93c-0.15-0.37-0.49-0.61-0.89-0.63s-0.761,0.2-0.931,0.55L4.38,14H2V6z M30,26H2V16h3   c0.38,0,0.73-0.21,0.891-0.55l1.01-2.01l3.17,7.93c0.15,0.37,0.49,0.61,0.89,0.63H11c0.38,0,0.721-0.21,0.891-0.55l2.92-5.841   l1.239,3.711c0.13,0.38,0.479,0.649,0.88,0.68c0.41,0.03,0.78-0.19,0.96-0.55l3.011-6.01l3.17,7.93c0.16,0.39,0.54,0.62,0.96,0.63   c0.42-0.01,0.79-0.29,0.92-0.68L27.72,16H30V26z"/>
</g>
</svg>
