<?xml version="1.0" encoding="utf-8"?>
<!-- Generator: Adobe Illustrator 16.0.0, SVG Export Plug-In . SVG Version: 6.00 Build 0)  -->
<!DOCTYPE svg PUBLIC "-//W3C//DTD SVG 1.1//EN" "http://www.w3.org/Graphics/SVG/1.1/DTD/svg11.dtd">
<svg xmlns="http://www.w3.org/2000/svg" xmlns:xlink="http://www.w3.org/1999/xlink" version="1.1" id="Capa_1" x="0px" y="0px" width="32px" height="32px" viewBox="0 0 32 32" enable-background="new 0 0 32 32" xml:space="preserve">
<g>
	<path d="M18,17V2h-2v14.1c-0.32-0.07-0.66-0.1-1-0.1s-0.68,0.03-1,0.1V2h-2v15c-1.21,0.91-2,2.37-2,4s0.79,3.09,2,4v5h2v-4.1   c0.32,0.069,0.66,0.1,1,0.1s0.68-0.03,1-0.1V30h2v-5c1.21-0.91,2-2.37,2-4S19.21,17.91,18,17z M15,24c-1.66,0-3-1.34-3-3   s1.34-3,3-3s3,1.34,3,3S16.66,24,15,24z"/>
</g>
<g>
	<path d="M28,7V2h-2v4.1C25.68,6.03,25.34,6,25,6s-0.68,0.03-1,0.1V2h-2v5c-1.21,0.91-2,2.37-2,4s0.79,3.09,2,4v15h2V15.9   c0.32,0.07,0.66,0.1,1,0.1s0.68-0.03,1-0.1V30h2V15c1.21-0.91,2-2.37,2-4S29.21,7.91,28,7z M25,14c-1.66,0-3-1.34-3-3s1.34-3,3-3   s3,1.34,3,3S26.66,14,25,14z"/>
</g>
<g>
	<path d="M8,5V2H6v2.1C5.68,4.03,5.34,4,5,4S4.32,4.03,4,4.1V2H2v3C0.79,5.91,0,7.37,0,9s0.79,3.09,2,4v17h2V13.9   C4.32,13.97,4.66,14,5,14s0.68-0.03,1-0.1V30h2V13c1.21-0.91,2-2.37,2-4S9.21,5.91,8,5z M5,12c-1.66,0-3-1.34-3-3s1.34-3,3-3   s3,1.34,3,3S6.66,12,5,12z"/>
</g>
</svg>
