<?xml version="1.0" encoding="utf-8"?>
<!-- Generator: Adobe Illustrator 16.0.0, SVG Export Plug-In . SVG Version: 6.00 Build 0)  -->
<!DOCTYPE svg PUBLIC "-//W3C//DTD SVG 1.1//EN" "http://www.w3.org/Graphics/SVG/1.1/DTD/svg11.dtd">
<svg xmlns="http://www.w3.org/2000/svg" xmlns:xlink="http://www.w3.org/1999/xlink" version="1.1" id="Capa_1" x="0px" y="0px" width="32px" height="32px" viewBox="0 0 32 32" enable-background="new 0 0 32 32" xml:space="preserve">
<g>
	<path d="M29,2H3C0.8,2,0,3.79,0,5v22c0,2.2,1.79,3,3,3h26c2.2,0,3-1.79,3-3V5C32,2.8,30.21,2,29,2z M30,26.99   C29.99,27.45,29.81,28,29,28H3.01C2.55,27.99,2,27.81,2,27V5.01C2.01,4.55,2.19,4,3,4h25.99C29.45,4.01,30,4.19,30,5V26.99z"/>
</g>
<g>
	<path d="M24,9.33V6h-2v5L4,26h24V6L24,9.33z M22,24H9.52L22,13.6V24z M26,24h-2V11.94l2-1.67V24z"/>
</g>
</svg>
