<?xml version="1.0" encoding="utf-8"?>
<!-- Generator: Adobe Illustrator 16.0.0, SVG Export Plug-In . SVG Version: 6.00 Build 0)  -->
<!DOCTYPE svg PUBLIC "-//W3C//DTD SVG 1.1//EN" "http://www.w3.org/Graphics/SVG/1.1/DTD/svg11.dtd">
<svg xmlns="http://www.w3.org/2000/svg" xmlns:xlink="http://www.w3.org/1999/xlink" version="1.1" id="Capa_1" x="0px" y="0px" width="32px" height="32px" viewBox="0 0 32 32" enable-background="new 0 0 32 32" xml:space="preserve">
<g>
	<path d="M15,4c7.168,0,13,5.832,13,13c0,7.168-5.832,13-13,13C7.832,30,2,24.168,2,17C2,9.832,7.832,4,15,4 M15,2   C6.716,2,0,8.716,0,17s6.716,15,15,15s15-6.716,15-15S23.284,2,15,2L15,2z"/>
</g>
<g>
	<g>
		<path d="M12,14c-1.08,0-2.1,0.19-2.97,0.52l0.93-3.25c0.15-0.53-0.15-1.08-0.69-1.23c-0.52-0.15-1.08,0.15-1.23,0.69l-1.7,5.95    c0,0.01,0,0.01,0,0.01L6,18c0,2,2.79,4,6,4c3.31,0,6-1.79,6-4S15.31,14,12,14z M12,20c-2.21,0-4-0.9-4-2c0-1.1,1.79-2,4-2    s4,0.9,4,2C16,19.1,14.21,20,12,20z"/>
	</g>
</g>
<g>
	<path d="M15,26h-5c-0.552,0-1-0.447-1-1s0.448-1,1-1h5c0.284-0.001,7-0.097,7-6c0-5.932-4.796-6-5-6h-2c-0.552,0-1-0.448-1-1   s0.448-1,1-1h2c0.07,0,7,0.091,7,8C24,24.328,18.113,26,15,26z"/>
</g>
</svg>
