<?xml version="1.0" encoding="utf-8"?>
<!-- Generator: Adobe Illustrator 16.0.0, SVG Export Plug-In . SVG Version: 6.00 Build 0)  -->
<!DOCTYPE svg PUBLIC "-//W3C//DTD SVG 1.1//EN" "http://www.w3.org/Graphics/SVG/1.1/DTD/svg11.dtd">
<svg xmlns="http://www.w3.org/2000/svg" xmlns:xlink="http://www.w3.org/1999/xlink" version="1.1" id="Capa_1" x="0px" y="0px" width="32px" height="32px" viewBox="0 0 32 32" enable-background="new 0 0 32 32" xml:space="preserve">
<g>
	<path d="M15,2C6.72,2,0,8.72,0,17c0,8.28,6.72,15,15,15c8.28,0,15-6.72,15-15C30,8.72,23.28,2,15,2z M4.38,24.49   C2.88,22.37,2,19.78,2,17C2,9.83,7.83,4,15,4c6.29,0,11.54,4.48,12.75,10.42C24.06,10.06,17.09,10,17,10   c-0.46,0-0.87,0.32-0.97,0.77c-0.11,0.45,0.11,0.92,0.52,1.12c1.59,0.8,1.87,2.95,1.45,4.73C17.62,18.25,16.52,20,15,20   c-2.82,0-2.99-2.5-3-3c0-0.37-0.2-0.71-0.53-0.88c-0.32-0.18-0.72-0.16-1.02,0.05C6.51,18.79,4.98,22.2,4.38,24.49z M15,30   c-3.47,0-6.63-1.37-8.96-3.59c0.17-1.36,0.91-4.82,4.27-7.641C10.85,20.35,12.19,22,15,22c2.62,0,4.37-2.47,4.95-4.92   c0.37-1.56,0.31-3.35-0.391-4.79c2.91,0.55,7.36,2.15,8.271,6.82C26.82,25.28,21.45,30,15,30z"/>
</g>
</svg>
