<?xml version="1.0" encoding="utf-8"?>
<!-- Generator: Adobe Illustrator 16.0.0, SVG Export Plug-In . SVG Version: 6.00 Build 0)  -->
<!DOCTYPE svg PUBLIC "-//W3C//DTD SVG 1.1//EN" "http://www.w3.org/Graphics/SVG/1.1/DTD/svg11.dtd">
<svg xmlns="http://www.w3.org/2000/svg" xmlns:xlink="http://www.w3.org/1999/xlink" version="1.1" id="Capa_1" x="0px" y="0px" width="32px" height="32px" viewBox="0 0 32 32" enable-background="new 0 0 32 32" xml:space="preserve">
<g>
	<path d="M28,2V0H8C4.04,0,4,4,4,4v23c0,1.73,1.04,5,5,5h19V6h-2V2H28z M8,2h16v4H8c0,0-2,0-2-2C6,4,6,2,8,2z M26,30H9   c-2.82,0-2.99-2.5-3-3V7.12C6.73,7.65,7.71,8,9,8h17V30z"/>
</g>
<path d="M16,10c-4.42,0-8,3.58-8,8s3.58,8,8,8s8-3.58,8-8S20.42,10,16,10z M16,24c-3.31,0-6-2.69-6-6c0-3.31,2.69-6,6-6  c3.31,0,6,2.69,6,6C22,21.31,19.31,24,16,24z"/>
<path d="M18,18c0,1.1-0.9,2-2,2c-1.1,0-2-0.9-2-2c0-1.1,0.9-2,2-2C17.1,16,18,16.9,18,18z"/>
</svg>
