<?xml version="1.0" encoding="utf-8"?>
<!-- Generator: Adobe Illustrator 16.0.0, SVG Export Plug-In . SVG Version: 6.00 Build 0)  -->
<!DOCTYPE svg PUBLIC "-//W3C//DTD SVG 1.1//EN" "http://www.w3.org/Graphics/SVG/1.1/DTD/svg11.dtd">
<svg xmlns="http://www.w3.org/2000/svg" xmlns:xlink="http://www.w3.org/1999/xlink" version="1.1" id="Capa_1" x="0px" y="0px" width="32px" height="32px" viewBox="0 0 32 32" enable-background="new 0 0 32 32" xml:space="preserve">
<g>
	<path d="M0,0v32h32V0H0z M8.02,30c0.29-6.52,3.32-8.98,4.67-9.75L16,24.67l3.31-4.42C20.65,21.03,23.69,23.5,23.98,30H8.02z M30,30   h-4.02c-0.391-9.74-6.4-11.86-6.66-11.95l-0.69-0.229L16,21.33l-2.63-3.51l-0.69,0.229C12.42,18.14,6.41,20.26,6.02,30H2V2h28V30z"/>
	<path d="M16,4c-3.31,0-6,3.13-6,7s2.69,7,6,7c3.31,0,6-3.13,6-7S19.31,4,16,4z M16,16c-2.21,0-4-2.24-4-5s1.79-5,4-5s4,2.24,4,5   S18.21,16,16,16z"/>
</g>
</svg>
