<?xml version="1.0" encoding="utf-8"?>
<!-- Generator: Adobe Illustrator 16.0.0, SVG Export Plug-In . SVG Version: 6.00 Build 0)  -->
<!DOCTYPE svg PUBLIC "-//W3C//DTD SVG 1.1//EN" "http://www.w3.org/Graphics/SVG/1.1/DTD/svg11.dtd">
<svg xmlns="http://www.w3.org/2000/svg" xmlns:xlink="http://www.w3.org/1999/xlink" version="1.1" id="Capa_1" x="0px" y="0px" width="32px" height="32px" viewBox="0 0 32 32" enable-background="new 0 0 32 32" xml:space="preserve">
<g>
	<rect y="26" width="30" height="2"/>
</g>
<g>
	<path d="M15,6C0.17,6,0,22.83,0,23v1h30v-1C30,22.83,29.83,6,15,6z M12.16,22c0.26-0.89,0.96-2,2.84-2s2.58,1.11,2.84,2H12.16z    M19.9,22c-0.341-1.76-1.62-4-4.9-4c-0.83,0-1.53,0.14-2.12,0.39l-3.33-2.22l-1.1,1.66l2.72,1.82c-0.59,0.729-0.92,1.58-1.07,2.35   H2.05c0.12-1.53,0.52-4.54,1.96-7.38l2.54,1.27l0.9-1.78L5.03,12.9C6.79,10.38,9.58,8.3,14,8.03V10h2V8.03   c4.42,0.27,7.21,2.35,8.97,4.87l-2.42,1.21l0.9,1.78l2.54-1.27c1.439,2.84,1.84,5.85,1.96,7.38H19.9z"/>
</g>
</svg>
