<?xml version="1.0" encoding="utf-8"?>
<!-- Generator: Adobe Illustrator 16.0.0, SVG Export Plug-In . SVG Version: 6.00 Build 0)  -->
<!DOCTYPE svg PUBLIC "-//W3C//DTD SVG 1.1//EN" "http://www.w3.org/Graphics/SVG/1.1/DTD/svg11.dtd">
<svg xmlns="http://www.w3.org/2000/svg" xmlns:xlink="http://www.w3.org/1999/xlink" version="1.1" id="Capa_1" x="0px" y="0px" width="32px" height="32px" viewBox="0 0 32 32" enable-background="new 0 0 32 32" xml:space="preserve">
<g>
	<g>
		<path d="M21,0H6C4,0,4,2,4,2v28c0,2,2,2,2,2h20c2,0,2-2,2-2V7L21,0z M26,29.96c0,0.01,0,0.021-0.01,0.04H6.04    C6.03,30,6.02,30,6,29.99V2.04C6,2.03,6,2.02,6.01,2H18v5c0,1.21,0.8,3,3,3h5V29.96z M26,8h-5c-0.81,0-0.99-0.55-1-1V2h0.17    L26,7.83V8z"/>
	</g>
</g>
<g>
	<path d="M17.55,10.17c-0.3-0.21-0.7-0.23-1.02-0.05C16.2,10.29,16,10.63,16,11v9.54C15.41,20.2,14.73,20,14,20c-2.21,0-4,1.79-4,4   s1.79,4,4,4s4-1.79,4-4V12.87l4.45,2.96l1.1-1.66L17.55,10.17z M14,26c-1.1,0-2-0.9-2-2s0.9-2,2-2s2,0.9,2,2S15.1,26,14,26z"/>
</g>
</svg>
