<?xml version="1.0" encoding="utf-8"?>
<!-- Generator: Adobe Illustrator 16.0.0, SVG Export Plug-In . SVG Version: 6.00 Build 0)  -->
<!DOCTYPE svg PUBLIC "-//W3C//DTD SVG 1.1//EN" "http://www.w3.org/Graphics/SVG/1.1/DTD/svg11.dtd">
<svg xmlns="http://www.w3.org/2000/svg" xmlns:xlink="http://www.w3.org/1999/xlink" version="1.1" id="Capa_1" x="0px" y="0px" width="32px" height="32px" viewBox="0 0 32 32" enable-background="new 0 0 32 32" xml:space="preserve">
<g>
	<g>
		<path d="M21,0H6C4,0,4,2,4,2v28c0,2,2,2,2,2h20c2,0,2-2,2-2V7L21,0z M26,29.96c0,0.01,0,0.021-0.01,0.04H6.04    C6.03,30,6.02,30,6,29.99V2.04C6,2.03,6,2.02,6.01,2H18v5c0,1.21,0.8,3,3,3h5V29.96z M26,8h-5c-0.81,0-0.99-0.55-1-1V2h0.17    L26,7.83V8z"/>
	</g>
</g>
<g>
	<path d="M23.53,14.15c-0.3-0.18-0.67-0.2-0.98-0.04L20,15.39V15c0-0.55-0.45-1-1-1h-8c-2.2,0-3,1.79-3,3v6c0,2.2,1.79,3,3,3h8   c0.55,0,1-0.45,1-1v-0.38l2.55,1.27C22.69,25.96,22.85,26,23,26c0.18,0,0.37-0.05,0.53-0.15C23.82,25.67,24,25.35,24,25V15   C24,14.65,23.82,14.33,23.53,14.15z M18,24h-6.99C10.55,23.99,10,23.81,10,23v-5.99c0.01-0.46,0.19-1.01,1-1.01h7V24z M22,23.38   l-2-1v-4.76l2-1V23.38z"/>
</g>
</svg>
