<?xml version="1.0" encoding="utf-8"?>
<!-- Generator: Adobe Illustrator 16.0.0, SVG Export Plug-In . SVG Version: 6.00 Build 0)  -->
<!DOCTYPE svg PUBLIC "-//W3C//DTD SVG 1.1//EN" "http://www.w3.org/Graphics/SVG/1.1/DTD/svg11.dtd">
<svg xmlns="http://www.w3.org/2000/svg" xmlns:xlink="http://www.w3.org/1999/xlink" version="1.1" id="Capa_1" x="0px" y="0px" width="32px" height="32px" viewBox="0 0 32 32" enable-background="new 0 0 32 32" xml:space="preserve">
<g>
	<path d="M15,2C6.72,2,0,8.72,0,17c0,3.38,1.12,6.5,3,9c2.74,3.64,7.1,6,12,6c4.9,0,9.26-2.36,12-6c1.88-2.5,3-5.62,3-9   C30,8.72,23.28,2,15,2z M26,10.08c0.81,1.28,1.4,2.71,1.72,4.23L26,12.59V10.08z M24,7.63v4.76l-2.92,1.46L16,10.46V7.53l3.88-2.58   C21.42,5.58,22.82,6.49,24,7.63z M19.81,15.41L18.28,20h-6.56l-1.53-4.59L15,12.2L19.81,15.41z M15,4c0.81,0,1.6,0.07,2.37,0.22   L15,5.8l-2.37-1.58C13.4,4.07,14.19,4,15,4z M6,7.63c1.18-1.14,2.58-2.05,4.12-2.68L14,7.53v2.93l-5.08,3.39L6,12.39V7.63z    M4,10.08v2.51l-1.72,1.72C2.6,12.79,3.19,11.36,4,10.08z M4.05,24c-1.23-1.92-1.97-4.17-2.04-6.59l3.19-3.2l2.98,1.5l1.74,5.22   L8.39,24H4.05z M5.63,26h2.83l2.17,3.24C8.72,28.56,7.01,27.44,5.63,26z M15,30c-0.52,0-1.03-0.03-1.53-0.09l-3.32-4.99L11.62,22   h6.77l1.46,2.92l-3.32,4.99C16.03,29.97,15.52,30,15,30z M19.37,29.24L21.54,26h2.83C22.99,27.44,21.28,28.56,19.37,29.24z    M25.95,24h-4.33l-1.54-3.07l1.74-5.22V15.7l2.979-1.49l3.19,3.2C27.92,19.83,27.18,22.08,25.95,24z"/>
</g>
</svg>
