<?xml version="1.0" encoding="utf-8"?>
<!-- Generator: Adobe Illustrator 16.0.0, SVG Export Plug-In . SVG Version: 6.00 Build 0)  -->
<!DOCTYPE svg PUBLIC "-//W3C//DTD SVG 1.1//EN" "http://www.w3.org/Graphics/SVG/1.1/DTD/svg11.dtd">
<svg xmlns="http://www.w3.org/2000/svg" xmlns:xlink="http://www.w3.org/1999/xlink" version="1.1" id="Capa_1" x="0px" y="0px" width="32px" height="32px" viewBox="0 0 32 32" enable-background="new 0 0 32 32" xml:space="preserve">
<g>
	<path fill-rule="evenodd" clip-rule="evenodd" fill="none" stroke="#DD19D3" stroke-width="2" stroke-miterlimit="10" d="M15,22"/>
</g>
<g>
	<path d="M15,0C15,0,4,9,4,22c0,10,11,10,11,10s11,0,11-10C26,9,15,0,15,0z M15,30c-0.37,0-9-0.09-9-8c0-9.31,6.26-16.55,9-19.28   c2.75,2.72,9,9.94,9,19.28C24,29.72,15.92,29.99,15,30z"/>
	<path d="M15,12l-7,5v6.54l7,4.66l7-4.66V17L15,12z M14,25.13l-4-2.67v-4.03l4,2.86V25.13z M11.44,17L15,14.46L18.56,17L15,19.54   L11.44,17z M20,22.46l-4,2.67v-3.84l4-2.86V22.46z"/>
</g>
</svg>
