<?xml version="1.0" encoding="utf-8"?>
<!-- Generator: Adobe Illustrator 16.0.0, SVG Export Plug-In . SVG Version: 6.00 Build 0)  -->
<!DOCTYPE svg PUBLIC "-//W3C//DTD SVG 1.1//EN" "http://www.w3.org/Graphics/SVG/1.1/DTD/svg11.dtd">
<svg xmlns="http://www.w3.org/2000/svg" xmlns:xlink="http://www.w3.org/1999/xlink" version="1.1" id="Capa_1" x="0px" y="0px" width="32px" height="32px" viewBox="0 0 32 32" enable-background="new 0 0 32 32" xml:space="preserve">
<g>
	<path d="M27,6H3C0.8,6,0,7.79,0,9v14c0,2.2,1.79,3,3,3h24c2.2,0,3-1.79,3-3V9C30,6.8,28.21,6,27,6z M28,22.99   C27.99,23.45,27.81,24,27,24H3.01C2.55,23.99,2,23.81,2,23V9.01C2.01,8.55,2.19,8,3,8h23.99C27.45,8.01,28,8.19,28,9V22.99z"/>
</g>
<g>
	<path d="M4,10v12h22V10H4z M24,20H6v-8h2v4h2v-4h2v4h2v-4h2v4h2v-4h2v4h2v-4h2V20z"/>
</g>
</svg>
