<?xml version="1.0" encoding="utf-8"?>
<!-- Generator: Adobe Illustrator 16.0.0, SVG Export Plug-In . SVG Version: 6.00 Build 0)  -->
<!DOCTYPE svg PUBLIC "-//W3C//DTD SVG 1.1//EN" "http://www.w3.org/Graphics/SVG/1.1/DTD/svg11.dtd">
<svg xmlns="http://www.w3.org/2000/svg" xmlns:xlink="http://www.w3.org/1999/xlink" version="1.1" id="Capa_1" x="0px" y="0px" width="32px" height="32px" viewBox="0 0 32 32" enable-background="new 0 0 32 32" xml:space="preserve">
<g>
	<g>
		<path d="M24,12.1V2H6v10.1c-1.76,0.34-4,1.62-4,4.9v15h26V17C28,13.72,25.76,12.44,24,12.1z M8,4h14v8H8V4z M26,30H4V20h22V30z     M26,18H4v-1c0-2.82,2.5-2.99,3-3h15.99C23.5,14.01,26,14.18,26,17V18z"/>
		<rect x="16" y="6" width="4" height="4"/>
		<rect x="10" y="6" width="4" height="4"/>
	</g>
</g>
</svg>
