<?xml version="1.0" encoding="utf-8"?>
<!-- Generator: Adobe Illustrator 16.0.0, SVG Export Plug-In . SVG Version: 6.00 Build 0)  -->
<!DOCTYPE svg PUBLIC "-//W3C//DTD SVG 1.1//EN" "http://www.w3.org/Graphics/SVG/1.1/DTD/svg11.dtd">
<svg xmlns="http://www.w3.org/2000/svg" xmlns:xlink="http://www.w3.org/1999/xlink" version="1.1" id="Capa_1" x="0px" y="0px" width="32px" height="32px" viewBox="0 0 32 32" enable-background="new 0 0 32 32" xml:space="preserve">
<g>
	<path d="M30,24V4H0v20h14v2h-4v2h10v-2h-4v-2H30z M2,22V6h26v16H2z"/>
</g>
<g>
	<path d="M14.999,18c-0.15,0-0.303-0.034-0.446-0.105c-0.494-0.247-0.694-0.848-0.447-1.342L15.382,14H13   c-0.347,0-0.668-0.18-0.851-0.474c-0.182-0.295-0.199-0.663-0.044-0.973l2-4c0.247-0.494,0.846-0.695,1.342-0.447   c0.494,0.247,0.694,0.848,0.447,1.342L14.618,12H17c0.347,0,0.668,0.18,0.851,0.474c0.183,0.295,0.199,0.663,0.044,0.973l-2,4   C15.719,17.798,15.366,18,14.999,18z"/>
</g>
<circle cx="7" cy="9" r="1"/>
<circle cx="25" cy="9" r="1"/>
<circle cx="23" cy="19" r="1"/>
<circle cx="5" cy="19" r="1"/>
</svg>
