<?xml version="1.0" encoding="utf-8"?>
<!-- Generator: Adobe Illustrator 16.0.0, SVG Export Plug-In . SVG Version: 6.00 Build 0)  -->
<!DOCTYPE svg PUBLIC "-//W3C//DTD SVG 1.1//EN" "http://www.w3.org/Graphics/SVG/1.1/DTD/svg11.dtd">
<svg xmlns="http://www.w3.org/2000/svg" xmlns:xlink="http://www.w3.org/1999/xlink" version="1.1" id="Capa_1" x="0px" y="0px" width="32px" height="32px" viewBox="0 0 32 32" enable-background="new 0 0 32 32" xml:space="preserve">
<g>
	<g>
		<path d="M21,0H6C4,0,4,2,4,2v28c0,2,2,2,2,2h20c2,0,2-2,2-2V7L21,0z M20,2h0.17L26,7.83V8h-5c-0.81,0-0.99-0.55-1-1V2z M26,29.96    c0,0.01,0,0.021-0.01,0.04H6.04C6.029,30,6.02,30,6,29.99V2.04C6,2.029,6,2.02,6.01,2H18v5c0,1.21,0.8,3,3,3h5V29.96z"/>
	</g>
</g>
<g>
	<path d="M11,26c-0.17,0-0.34-0.043-0.493-0.13C10.194,25.692,10,25.36,10,25V13c0-0.36,0.194-0.693,0.507-0.87   c0.313-0.178,0.698-0.173,1.007,0.013l10,6C21.815,18.323,22,18.648,22,19s-0.185,0.677-0.485,0.857l-10,6   C11.356,25.952,11.178,26,11,26z M12,14.766v8.467L19.057,19L12,14.766z"/>
</g>
</svg>
