<?xml version="1.0" encoding="utf-8"?>
<!-- Generator: Adobe Illustrator 16.0.0, SVG Export Plug-In . SVG Version: 6.00 Build 0)  -->
<!DOCTYPE svg PUBLIC "-//W3C//DTD SVG 1.1//EN" "http://www.w3.org/Graphics/SVG/1.1/DTD/svg11.dtd">
<svg xmlns="http://www.w3.org/2000/svg" xmlns:xlink="http://www.w3.org/1999/xlink" version="1.1" id="Capa_1" x="0px" y="0px" width="32px" height="32px" viewBox="0 0 32 32" enable-background="new 0 0 32 32" xml:space="preserve">
<g>
	<g>
		<path d="M15,0C9.461,0,8,4.58,8,7v8c0,5.54,4.58,7,7,7s7-1.46,7-7V7C22,4.58,20.541,0,15,0z M20,15c0,4.82-4.479,5-5,5    c-0.229,0-5-0.07-5-5v-3h10V15z M10,10V7c0-0.2,0.061-5,5-5c4.82,0,5,4.49,5,5v3H10z"/>
	</g>
	<g>
		<path d="M28,10v4c0,11.86-11.879,12-12,12v4h4v2H10v-2h4v-4C2.141,26,2,14.12,2,14v-4h4v2H4v2c0,0.41,0.15,10,10,10h2    c0.41,0,10-0.15,10-10v-2h-2v-2H28z"/>
	</g>
</g>
</svg>
