<?xml version="1.0" encoding="utf-8"?>
<!-- Generator: Adobe Illustrator 16.0.0, SVG Export Plug-In . SVG Version: 6.00 Build 0)  -->
<!DOCTYPE svg PUBLIC "-//W3C//DTD SVG 1.1//EN" "http://www.w3.org/Graphics/SVG/1.1/DTD/svg11.dtd">
<svg xmlns="http://www.w3.org/2000/svg" xmlns:xlink="http://www.w3.org/1999/xlink" version="1.1" id="Capa_1" x="0px" y="0px" width="32px" height="32px" viewBox="0 0 32 32" enable-background="new 0 0 32 32" xml:space="preserve">
<path d="M0,4v24h32V4H0z M30,26H2V6h28V26z"/>
<path d="M4,8v6h24V8H4z M6,10h14v2H6V10z M26,12h-4v-2h4V12z"/>
<path d="M24,16c-2.21,0-4,1.79-4,4s1.79,4,4,4s4-1.79,4-4S26.21,16,24,16z M24,22c-1.1,0-2-0.9-2-2s0.9-2,2-2s2,0.9,2,2  S25.1,22,24,22z"/>
<rect x="4" y="18" width="14" height="2"/>
<rect x="4" y="22" width="14" height="2"/>
</svg>
