<?xml version="1.0" encoding="utf-8"?>
<!-- Generator: Adobe Illustrator 16.0.0, SVG Export Plug-In . SVG Version: 6.00 Build 0)  -->
<!DOCTYPE svg PUBLIC "-//W3C//DTD SVG 1.1//EN" "http://www.w3.org/Graphics/SVG/1.1/DTD/svg11.dtd">
<svg xmlns="http://www.w3.org/2000/svg" xmlns:xlink="http://www.w3.org/1999/xlink" version="1.1" id="Capa_1" x="0px" y="0px" width="32px" height="32px" viewBox="0 0 32 32" enable-background="new 0 0 32 32" xml:space="preserve">
<g>
	<g>
		<polygon points="12.5,18.67 13.75,20.33 9.5,26 2,26 2,24 8.5,24   "/>
	</g>
	<g>
		<polygon points="30.41,9 25.71,13.71 24.29,12.29 26.59,10 21.5,10 17.5,15.33 16.25,13.67 20.5,8 26.59,8 24.29,5.71 25.71,4.29       "/>
	</g>
	<g>
		<polygon points="30.41,25 25.71,29.71 24.29,28.29 26.59,26 20.5,26 8.5,10 2,10 2,8 9.5,8 21.5,24 26.59,24 24.29,21.71     25.71,20.29   "/>
	</g>
</g>
</svg>
