<?xml version="1.0" encoding="utf-8"?>
<!-- Generator: Adobe Illustrator 16.0.0, SVG Export Plug-In . SVG Version: 6.00 Build 0)  -->
<!DOCTYPE svg PUBLIC "-//W3C//DTD SVG 1.1//EN" "http://www.w3.org/Graphics/SVG/1.1/DTD/svg11.dtd">
<svg xmlns="http://www.w3.org/2000/svg" xmlns:xlink="http://www.w3.org/1999/xlink" version="1.1" id="Capa_1" x="0px" y="0px" width="32px" height="32px" viewBox="0 0 32 32" enable-background="new 0 0 32 32" xml:space="preserve">
<g>
	<g>
		<path d="M28.5,14c-0.931,0.47-2.02,3.39-2.48,6H23.98l0.029-0.16c0.13-0.77,0.681-3.76,1.83-5.84H23v-2h5L28.5,14z"/>
	</g>
</g>
<g>
	<g>
		<path d="M18.5,14c-0.931,0.47-2.02,3.39-2.48,6H13.98l0.029-0.16c0.13-0.77,0.681-3.76,1.83-5.84H13v-2h5L18.5,14z"/>
	</g>
</g>
<g>
	<g>
		<path d="M8.5,14c-0.931,0.47-2.02,3.39-2.48,6H3.98l0.029-0.16C4.14,19.07,4.69,16.08,5.84,14H3v-2h5L8.5,14z"/>
	</g>
</g>
<g>
	<g>
		<path d="M0,4v24h32V4H0z M10,26H2v-2h8V26z M10,22H2V10h8V22z M10,8H2V6h8V8z M20,26h-8v-2h8V26z M20,22h-8V10h8V22z M20,8h-8V6h8    V8z M30,26h-8v-2h8V26z M30,22h-8V10h8V22z M30,8h-8V6h8V8z"/>
	</g>
</g>
</svg>
