<?xml version="1.0" encoding="utf-8"?>
<!-- Generator: Adobe Illustrator 16.0.0, SVG Export Plug-In . SVG Version: 6.00 Build 0)  -->
<!DOCTYPE svg PUBLIC "-//W3C//DTD SVG 1.1//EN" "http://www.w3.org/Graphics/SVG/1.1/DTD/svg11.dtd">
<svg xmlns="http://www.w3.org/2000/svg" xmlns:xlink="http://www.w3.org/1999/xlink" version="1.1" id="Capa_1" x="0px" y="0px" width="32px" height="32px" viewBox="0 0 32 32" enable-background="new 0 0 32 32" xml:space="preserve">
<g>
	<path d="M12,10V3.59L4.59,11H2c-2,0-2,2-2,2v6c0,2,2,2,2,2h2.59L12,28.41V22c2.41,0,6-1.6,6-6C18,11.6,14.41,10,12,10z M4,19H2.04   C2.03,19,2.02,19,2,18.99v-5.95c0-0.01,0-0.02,0.01-0.04H4V19z M10,23.59l-4-4v-7.18l4-4V23.59z M12,20v-8c0,0,4,0,4,4S12,20,12,20   z"/>
</g>
<g>
	<path d="M17.001,24c-0.367,0-0.72-0.202-0.896-0.553c-0.247-0.494-0.047-1.095,0.447-1.342C16.689,22.035,20,20.29,20,16   c0-4.332-3.413-6.088-3.447-6.105c-0.494-0.247-0.694-0.848-0.447-1.342s0.848-0.694,1.342-0.447C17.633,8.199,22,10.446,22,16   c0,5.554-4.367,7.802-4.553,7.895C17.304,23.966,17.151,24,17.001,24z"/>
</g>
<g>
	<path d="M21.001,26c-0.367,0-0.72-0.202-0.896-0.553c-0.247-0.494-0.047-1.095,0.447-1.342C20.686,24.036,24,22.225,24,16   c0-6.225-3.314-8.036-3.456-8.11c-0.485-0.255-0.68-0.855-0.43-1.344c0.25-0.487,0.841-0.687,1.333-0.441   C21.633,6.199,26,8.469,26,16s-4.367,9.802-4.553,9.895C21.304,25.966,21.151,26,21.001,26z"/>
</g>
<g>
	<path d="M25.001,28c-0.305,0-0.604-0.138-0.801-0.4c-0.332-0.441-0.242-1.068,0.2-1.399C24.542,26.091,28,23.334,28,16   c0-7.334-3.458-10.09-3.605-10.204c-0.435-0.336-0.521-0.962-0.188-1.399C24.54,3.959,25.162,3.869,25.6,4.2   C25.779,4.335,30,7.597,30,16s-4.221,11.665-4.4,11.8S25.21,28,25.001,28z"/>
</g>
</svg>
