<?xml version="1.0" encoding="utf-8"?>
<!-- Generator: Adobe Illustrator 16.0.0, SVG Export Plug-In . SVG Version: 6.00 Build 0)  -->
<!DOCTYPE svg PUBLIC "-//W3C//DTD SVG 1.1//EN" "http://www.w3.org/Graphics/SVG/1.1/DTD/svg11.dtd">
<svg xmlns="http://www.w3.org/2000/svg" xmlns:xlink="http://www.w3.org/1999/xlink" version="1.1" id="Capa_1" x="0px" y="0px" width="32px" height="32px" viewBox="0 0 32 32" enable-background="new 0 0 32 32" xml:space="preserve">
<g>
	<path d="M12,10V3.59L4.59,11H2c-2,0-2,2-2,2v6c0,2,2,2,2,2h2.59L12,28.41V22c2.41,0,6-1.6,6-6C18,11.6,14.41,10,12,10z M4,19H2.04   C2.03,19,2.02,19,2,18.99v-5.95c0-0.01,0-0.02,0.01-0.04H4V19z M10,23.59l-4-4v-7.18l4-4V23.59z M12,20v-8c0,0,4,0,4,4S12,20,12,20   z"/>
</g>
<polygon points="26.42,15 30.66,19.24 29.24,20.66 25,16.42 20.76,20.66 19.34,19.24 23.58,15 19.34,10.76 20.76,9.34 25,13.58   29.24,9.34 30.66,10.76 "/>
</svg>
