<?xml version="1.0" encoding="utf-8"?>
<!-- Generator: Adobe Illustrator 16.0.0, SVG Export Plug-In . SVG Version: 6.00 Build 0)  -->
<!DOCTYPE svg PUBLIC "-//W3C//DTD SVG 1.1//EN" "http://www.w3.org/Graphics/SVG/1.1/DTD/svg11.dtd">
<svg xmlns="http://www.w3.org/2000/svg" xmlns:xlink="http://www.w3.org/1999/xlink" version="1.1" id="Capa_1" x="0px" y="0px" width="32px" height="32px" viewBox="0 0 32 32" enable-background="new 0 0 32 32" xml:space="preserve">
<g>
	<path d="M16,2c7.72,0,14,6.28,14,14s-6.28,14-14,14S2,23.72,2,16S8.28,2,16,2 M16,0C7.164,0,0,7.164,0,16c0,8.837,7.164,16,16,16   c8.837,0,16-7.163,16-16C32,7.164,24.837,0,16,0L16,0z"/>
	<path d="M16,6c5.514,0,10,4.486,10,10c0,5.514-4.486,10-10,10S6,21.514,6,16C6,10.486,10.486,6,16,6 M16,4C9.373,4,4,9.373,4,16   c0,6.628,5.373,12,12,12c6.628,0,12-5.372,12-12C28,9.373,22.628,4,16,4L16,4z"/>
	<circle cx="16" cy="16" r="4"/>
	<polygon points="10,12 10,20 6,16  "/>
	<polygon points="22,12 22,20 26,16  "/>
</g>
</svg>
