<?xml version="1.0" encoding="utf-8"?>
<!-- Generator: Adobe Illustrator 16.0.0, SVG Export Plug-In . SVG Version: 6.00 Build 0)  -->
<!DOCTYPE svg PUBLIC "-//W3C//DTD SVG 1.1//EN" "http://www.w3.org/Graphics/SVG/1.1/DTD/svg11.dtd">
<svg xmlns="http://www.w3.org/2000/svg" xmlns:xlink="http://www.w3.org/1999/xlink" version="1.1" id="Capa_1" x="0px" y="0px" width="32px" height="32px" viewBox="0 0 32 32" enable-background="new 0 0 32 32" xml:space="preserve">
<g>
	<path d="M25,2H7C4.8,2,4,3.79,4,5v24c0,2.2,1.79,3,3,3h18c2.2,0,3-1.79,3-3V5C28,2.8,26.21,2,25,2z M26,28.99   C25.99,29.45,25.81,30,25,30H7.01C6.55,29.99,6,29.81,6,29V5.01C6.01,4.55,6.19,4,7,4h17.99C25.45,4.01,26,4.19,26,5V28.99z"/>
</g>
<g>
	<rect x="10" y="16" width="12" height="2"/>
</g>
</svg>
