<?xml version="1.0" encoding="utf-8"?>
<!-- Generator: Adobe Illustrator 16.0.0, SVG Export Plug-In . SVG Version: 6.00 Build 0)  -->
<!DOCTYPE svg PUBLIC "-//W3C//DTD SVG 1.1//EN" "http://www.w3.org/Graphics/SVG/1.1/DTD/svg11.dtd">
<svg xmlns="http://www.w3.org/2000/svg" xmlns:xlink="http://www.w3.org/1999/xlink" version="1.1" id="Capa_1" x="0px" y="0px" width="32px" height="32px" viewBox="0 0 32 32" enable-background="new 0 0 32 32" xml:space="preserve">
<g>
	<path d="M25,32H7c-1.206,0-3-0.799-3-3V5c0-1.206,0.799-3,3-3h18c1.206,0,3,0.799,3,3v24C28,30.206,27.201,32,25,32z M24.988,4H7   C6.195,4,6.012,4.55,6,5.012V29c0,0.806,0.55,0.988,1.012,1H25c0.806,0,0.988-0.55,1-1.012V5C26,4.195,25.45,4.012,24.988,4z"/>
</g>
<g>
	<path d="M16,12c2.206,0,4,1.794,4,4c0,2.206-1.794,4-4,4c-2.206,0-4-1.794-4-4C12,13.794,13.794,12,16,12 M16,10   c-3.313,0-6,2.687-6,6s2.687,6,6,6s6-2.687,6-6S19.313,10,16,10L16,10z"/>
</g>
</svg>
