<?xml version="1.0" encoding="utf-8"?>
<!-- Generator: Adobe Illustrator 16.0.0, SVG Export Plug-In . SVG Version: 6.00 Build 0)  -->
<!DOCTYPE svg PUBLIC "-//W3C//DTD SVG 1.1//EN" "http://www.w3.org/Graphics/SVG/1.1/DTD/svg11.dtd">
<svg xmlns="http://www.w3.org/2000/svg" xmlns:xlink="http://www.w3.org/1999/xlink" version="1.1" id="Capa_1" x="0px" y="0px" width="32px" height="32px" viewBox="0 0 32 32" enable-background="new 0 0 32 32" xml:space="preserve">
<g>
	<g>
		<path d="M22,8c-2.03,0-3.88,0.76-5.29,2H8c-3.48,0-6,2.52-6,6c0,3.48,2.52,6,6,6h8.71c1.41,1.24,3.26,2,5.29,2c4.42,0,8-3.58,8-8    S26.42,8,22,8z M15.08,20H8c-2.35,0-4-1.64-4-4c0-2.35,1.65-4,4-4h7.08C14.391,13.17,14,14.54,14,16S14.391,18.83,15.08,20z     M22,22c-3.31,0-6-2.69-6-6c0-3.31,2.69-6,6-6s6,2.69,6,6C28,19.31,25.31,22,22,22z"/>
	</g>
</g>
</svg>
