<?xml version="1.0" encoding="utf-8"?>
<!-- Generator: Adobe Illustrator 16.0.0, SVG Export Plug-In . SVG Version: 6.00 Build 0)  -->
<!DOCTYPE svg PUBLIC "-//W3C//DTD SVG 1.1//EN" "http://www.w3.org/Graphics/SVG/1.1/DTD/svg11.dtd">
<svg xmlns="http://www.w3.org/2000/svg" xmlns:xlink="http://www.w3.org/1999/xlink" version="1.1" id="Capa_1" x="0px" y="0px" width="32px" height="32px" viewBox="0 0 32 32" enable-background="new 0 0 32 32" xml:space="preserve">
<g>
	<path d="M24,10H8c-3.311,0-6,2.69-6,6c0,3.31,2.689,6,6,6h16c3.48,0,6-2.52,6-6C30,12.52,27.48,10,24,10z M8,20c-2.21,0-4-1.79-4-4   s1.79-4,4-4s4,1.79,4,4S10.21,20,8,20z M24,20H12.46c0.96-1.06,1.54-2.46,1.54-4s-0.58-2.94-1.54-4H24c2.35,0,4,1.65,4,4   C28,18.36,26.35,20,24,20z"/>
</g>
</svg>
