<?xml version="1.0" encoding="utf-8"?>
<!-- Generator: Adobe Illustrator 16.0.0, SVG Export Plug-In . SVG Version: 6.00 Build 0)  -->
<!DOCTYPE svg PUBLIC "-//W3C//DTD SVG 1.1//EN" "http://www.w3.org/Graphics/SVG/1.1/DTD/svg11.dtd">
<svg xmlns="http://www.w3.org/2000/svg" xmlns:xlink="http://www.w3.org/1999/xlink" version="1.1" id="Capa_1" x="0px" y="0px" width="32px" height="32px" viewBox="0 0 32 32" enable-background="new 0 0 32 32" xml:space="preserve">
<g>
	<path d="M0,6v18h32V6H0z M30,22H2V8h28V22z"/>
</g>
<g>
	<path d="M4,10v10h6V10H4z M8,18H6v-6h2V18z"/>
</g>
<g>
	<rect x="12" y="10" width="2" height="10"/>
</g>
<g>
	<path d="M27.55,14.17l-6-4c-0.3-0.21-0.7-0.23-1.02-0.05C20.2,10.29,20,10.63,20,11v8c0,0.37,0.2,0.71,0.53,0.88   C20.68,19.96,20.84,20,21,20c0.19,0,0.39-0.06,0.55-0.17l6-4C27.83,15.65,28,15.33,28,15S27.83,14.35,27.55,14.17z M22,17.13v-4.26   L25.2,15L22,17.13z"/>
</g>
<g>
	<rect y="26" width="32" height="2"/>
</g>
</svg>
