<?xml version="1.0" encoding="utf-8"?>
<!-- Generator: Adobe Illustrator 16.0.0, SVG Export Plug-In . SVG Version: 6.00 Build 0)  -->
<!DOCTYPE svg PUBLIC "-//W3C//DTD SVG 1.1//EN" "http://www.w3.org/Graphics/SVG/1.1/DTD/svg11.dtd">
<svg xmlns="http://www.w3.org/2000/svg" xmlns:xlink="http://www.w3.org/1999/xlink" version="1.1" id="Capa_1" x="0px" y="0px" width="32px" height="32px" viewBox="0 0 32 32" enable-background="new 0 0 32 32" xml:space="preserve">
<g>
	<g>
		<path d="M30,22h-4v-4h-2v10H8V18H6v4H2v-4H0v12h32V18h-2V22z M6,28H2v-4h4V28z M30,28h-4v-4h4V28z M0,4v12h2v-4h4v4h2V6h16v10h2    v-4h4v4h2V4H0z M6,10H2V6h4V10z M30,10h-4V6h4V10z"/>
	</g>
</g>
</svg>
