<?xml version="1.0" encoding="utf-8"?>
<!-- Generator: Adobe Illustrator 16.0.0, SVG Export Plug-In . SVG Version: 6.00 Build 0)  -->
<!DOCTYPE svg PUBLIC "-//W3C//DTD SVG 1.1//EN" "http://www.w3.org/Graphics/SVG/1.1/DTD/svg11.dtd">
<svg xmlns="http://www.w3.org/2000/svg" xmlns:xlink="http://www.w3.org/1999/xlink" version="1.1" id="Capa_1" x="0px" y="0px" width="32px" height="32px" viewBox="0 0 32 32" enable-background="new 0 0 32 32" xml:space="preserve">
<g>
	<g>
		<path d="M24,12.5V11c0-2.2-1.79-3-3-3H7c-2.2,0-3,1.79-3,3v10c0,2.2,1.79,3,3,3h14c2.2,0,3-1.79,3-3v-1.5l6,4.5V8L24,12.5z     M22,20.99C21.99,21.45,21.81,22,21,22H7.01C6.55,21.99,6,21.81,6,21v-1h16V20.99z M22,18H6v-6.99C6.01,10.55,6.19,10,7,10h13.99    c0.46,0.01,1.01,0.19,1.01,1V18z M28,20l-4-3v-2l4-3V20z"/>
	</g>
</g>
<g>
	<g>
		<path d="M6,0l10,8l10-8H6z M11.7,2h8.6L16,5.44L11.7,2z"/>
	</g>
</g>
<g>
	<g>
		<path d="M16,24L6,32h20L16,24z M16,26.56L20.3,30h-8.6L16,26.56z"/>
	</g>
</g>
</svg>
