<?xml version="1.0" encoding="utf-8"?>
<!-- Generator: Adobe Illustrator 16.0.0, SVG Export Plug-In . SVG Version: 6.00 Build 0)  -->
<!DOCTYPE svg PUBLIC "-//W3C//DTD SVG 1.1//EN" "http://www.w3.org/Graphics/SVG/1.1/DTD/svg11.dtd">
<svg xmlns="http://www.w3.org/2000/svg" xmlns:xlink="http://www.w3.org/1999/xlink" version="1.1" id="Capa_1" x="0px" y="0px" width="32px" height="32px" viewBox="0 0 32 32" enable-background="new 0 0 32 32" xml:space="preserve">
<g>
	<g>
		<path d="M8,5c0,0.55-0.45,1-1,1H6v1c0,0.55-0.45,1-1,1S4,7.55,4,7V6H3C2.45,6,2,5.55,2,5s0.45-1,1-1h1V3c0-0.55,0.45-1,1-1    s1,0.45,1,1v1h1C7.55,4,8,4.45,8,5z"/>
	</g>
</g>
<g>
	<g>
		<path d="M30,29c0,0.55-0.45,1-1,1h-1v1c0,0.55-0.45,1-1,1s-1-0.45-1-1v-1h-1c-0.55,0-1-0.45-1-1s0.45-1,1-1h1v-1    c0-0.55,0.45-1,1-1s1,0.45,1,1v1h1C29.55,28,30,28.45,30,29z"/>
	</g>
</g>
<g>
	<g>
		<path d="M32,3c0,0.55-0.45,1-1,1h-1v1c0,0.55-0.45,1-1,1s-1-0.45-1-1V4h-1c-0.55,0-1-0.45-1-1s0.45-1,1-1h1V1c0-0.55,0.45-1,1-1    s1,0.45,1,1v1h1C31.55,2,32,2.45,32,3z"/>
	</g>
</g>
<g>
	<g>
		<path d="M6,29c0,0.55-0.45,1-1,1H4v1c0,0.55-0.45,1-1,1s-1-0.45-1-1v-1H1c-0.55,0-1-0.45-1-1s0.45-1,1-1h1v-1c0-0.55,0.45-1,1-1    s1,0.45,1,1v1h1C5.55,28,6,28.45,6,29z"/>
	</g>
</g>
<g>
	<path d="M22,13v-3H7c-1.21,0-3,0.8-3,3v8c0,1.21,0.8,3,3,3h15v-3l6,3V10L22,13z M20,22H7c-0.81,0-0.99-0.55-1-1v-8   c0-0.81,0.55-0.99,1-1h13V22z M26,20.76l-4-2v-3.52l4-2V20.76z"/>
</g>
</svg>
