<?xml version="1.0" encoding="utf-8"?>
<!-- Generator: Adobe Illustrator 16.0.0, SVG Export Plug-In . SVG Version: 6.00 Build 0)  -->
<!DOCTYPE svg PUBLIC "-//W3C//DTD SVG 1.1//EN" "http://www.w3.org/Graphics/SVG/1.1/DTD/svg11.dtd">
<svg xmlns="http://www.w3.org/2000/svg" xmlns:xlink="http://www.w3.org/1999/xlink" version="1.1" id="Capa_1" x="0px" y="0px" width="32px" height="32px" viewBox="0 0 32 32" enable-background="new 0 0 32 32" xml:space="preserve">
<g>
	<path d="M24,4.8V3c0-2.2-1.79-3-3-3H3C0.8,0,0,1.79,0,3v14c0,2.2,1.79,3,3,3h18c2.2,0,3-1.79,3-3v-1.8l8,4.8V0L24,4.8z M22,16.99   C21.99,17.45,21.81,18,21,18H3.01C2.55,17.99,2,17.81,2,17V3.01C2.01,2.55,2.19,2,3,2h17.99C21.45,2.01,22,2.19,22,3V16.99z    M30,16.47l-6-3.6V7.13l6-3.6V16.47z"/>
</g>
<g>
	<polygon points="30.41,27 25.71,31.71 24.29,30.29 26.59,28 5.41,28 7.71,30.29 6.29,31.71 1.59,27 6.29,22.29 7.71,23.71 5.41,26    26.59,26 24.29,23.71 25.71,22.29  "/>
</g>
</svg>
