<?xml version="1.0" encoding="utf-8"?>
<!-- Generator: Adobe Illustrator 16.0.0, SVG Export Plug-In . SVG Version: 6.00 Build 0)  -->
<!DOCTYPE svg PUBLIC "-//W3C//DTD SVG 1.1//EN" "http://www.w3.org/Graphics/SVG/1.1/DTD/svg11.dtd">
<svg xmlns="http://www.w3.org/2000/svg" xmlns:xlink="http://www.w3.org/1999/xlink" version="1.1" id="Capa_1" x="0px" y="0px" width="32px" height="32px" viewBox="0 0 32 32" enable-background="new 0 0 32 32" xml:space="preserve">
<g>
	<g>
		<path d="M0,6v22h32V6H0z M30,26H2v-2h28V26z M30,22H2V8h28V22z"/>
	</g>
</g>
<g>
	<path d="M24,12H8c-2.21,0-4,1.79-4,4s1.79,4,4,4h16c2.21,0,4-1.79,4-4S26.21,12,24,12z M8,18c-1.1,0-2-0.9-2-2c0-1.1,0.9-2,2-2   s2,0.9,2,2C10,17.1,9.1,18,8,18z M20.54,18h-9.08C11.8,17.41,12,16.73,12,16s-0.2-1.41-0.54-2h9.08C20.2,14.59,20,15.27,20,16   S20.2,17.41,20.54,18z M24,18c-1.1,0-2-0.9-2-2c0-1.1,0.9-2,2-2s2,0.9,2,2C26,17.1,25.1,18,24,18z"/>
</g>
</svg>
