<?xml version="1.0" encoding="utf-8"?>
<!-- Generator: Adobe Illustrator 16.0.0, SVG Export Plug-In . SVG Version: 6.00 Build 0)  -->
<!DOCTYPE svg PUBLIC "-//W3C//DTD SVG 1.1//EN" "http://www.w3.org/Graphics/SVG/1.1/DTD/svg11.dtd">
<svg xmlns="http://www.w3.org/2000/svg" xmlns:xlink="http://www.w3.org/1999/xlink" version="1.1" id="Capa_1" x="0px" y="0px" width="32px" height="32px" viewBox="0 0 32 32" enable-background="new 0 0 32 32" xml:space="preserve">
<g>
	<polygon points="20.41,17 15.71,21.71 14.29,20.29 16.59,18 7.41,18 9.71,20.29 8.29,21.71 3.59,17 8.29,12.29 9.71,13.71 7.41,16    16.59,16 14.29,13.71 15.71,12.29  "/>
</g>
<g>
	<path d="M24,10.8V9c0-2.2-1.79-3-3-3H3C0.8,6,0,7.79,0,9v16c0,2.2,1.79,3,3,3h18c2.2,0,3-1.79,3-3v-1.8l8,4.8V6L24,10.8z M22,24.99   C22,26,21,26,21,26H3.01c0,0-1.01,0-1.01-1V9.01C2,9.01,2,8,3,8h17.99C22,8,22,9,22,9V24.99z M30,24.47l-6-3.6v-7.74l6-3.6V24.47z"/>
</g>
</svg>
