<?xml version="1.0" encoding="utf-8"?>
<!-- Generator: Adobe Illustrator 16.0.0, SVG Export Plug-In . SVG Version: 6.00 Build 0)  -->
<!DOCTYPE svg PUBLIC "-//W3C//DTD SVG 1.1//EN" "http://www.w3.org/Graphics/SVG/1.1/DTD/svg11.dtd">
<svg xmlns="http://www.w3.org/2000/svg" xmlns:xlink="http://www.w3.org/1999/xlink" version="1.1" id="Capa_1" x="0px" y="0px" width="32px" height="32px" viewBox="0 0 32 32" enable-background="new 0 0 32 32" xml:space="preserve">
<g>
	<path d="M29,6h-7.65C20.32,3.39,17.7,0,11,0C0.13,0,0,8.91,0,9v16c0,1.64,0.99,2.5,2,2.83V32h18v-4.15c1-0.3,1.58-1.069,1.83-1.85   H32V9C32,6.8,30.21,6,29,6z M18,30H4v-2h14V30z M20,24.99C19.99,25.45,19.81,26,19,26H3.01C2.55,25.99,2,25.81,2,25V9   c0-0.29,0.1-7,9-7c8.84,0,9,6.72,9,7V24.99z M30,24h-8v-4h8V24z M30,18h-8V9c0-0.02,0-0.4-0.1-1h7.09C29.45,8.01,30,8.19,30,9V18z"/>
</g>
<g>
	<path d="M11,4c-3.87,0-7,3.13-7,7s3.13,7,7,7s7-3.13,7-7S14.87,4,11,4z M11,16c-2.76,0-5-2.24-5-5s2.24-5,5-5s5,2.24,5,5   S13.76,16,11,16z"/>
</g>
<g>
	<circle cx="17" cy="23" r="1"/>
</g>
</svg>
