<?xml version="1.0" encoding="utf-8"?>
<!-- Generator: Adobe Illustrator 16.0.0, SVG Export Plug-In . SVG Version: 6.00 Build 0)  -->
<!DOCTYPE svg PUBLIC "-//W3C//DTD SVG 1.1//EN" "http://www.w3.org/Graphics/SVG/1.1/DTD/svg11.dtd">
<svg xmlns="http://www.w3.org/2000/svg" xmlns:xlink="http://www.w3.org/1999/xlink" version="1.1" id="Capa_1" x="0px" y="0px" width="32px" height="32px" viewBox="0 0 32 32" enable-background="new 0 0 32 32" xml:space="preserve">
<g>
	<path d="M27.97,16C27.86,13.19,27.15,6,23,6s-4.86,7.19-4.97,10h-6.06C11.86,13.19,11.15,6,7,6s-4.86,7.19-4.97,10H0v2h10.03   c0.11,2.81,0.82,10,4.97,10c4.15,0,4.86-7.19,4.97-10H32v-2H27.97z M4.03,16C4.18,12.46,5.14,8,7,8s2.82,4.46,2.97,8H4.03z M15,26   c-1.86,0-2.82-4.46-2.97-8h5.94C17.82,21.54,16.86,26,15,26z M20.03,16C20.18,12.46,21.14,8,23,8s2.82,4.46,2.97,8H20.03z"/>
</g>
</svg>
