<?xml version="1.0" encoding="utf-8"?>
<!-- Generator: Adobe Illustrator 16.0.0, SVG Export Plug-In . SVG Version: 6.00 Build 0)  -->
<!DOCTYPE svg PUBLIC "-//W3C//DTD SVG 1.1//EN" "http://www.w3.org/Graphics/SVG/1.1/DTD/svg11.dtd">
<svg xmlns="http://www.w3.org/2000/svg" xmlns:xlink="http://www.w3.org/1999/xlink" version="1.1" id="Capa_1" x="0px" y="0px" width="32px" height="32px" viewBox="0 0 32 32" enable-background="new 0 0 32 32" xml:space="preserve">
<g>
	<path d="M27.71,27.71l-4,4C23.51,31.9,23.26,32,23,32s-0.51-0.1-0.71-0.29l-4-4c-0.39-0.39-0.39-1.03,0-1.42s1.03-0.39,1.42,0   l3.29,3.3l3.29-3.3c0.39-0.39,1.03-0.39,1.42,0S28.1,27.32,27.71,27.71z"/>
</g>
<g>
	<path d="M13.71,7.71C13.51,7.9,13.26,8,13,8s-0.51-0.1-0.71-0.29L9,4.41l-3.29,3.3c-0.39,0.39-1.03,0.39-1.42,0s-0.39-1.03,0-1.42   l4-4c0.39-0.39,1.03-0.39,1.42,0l4,4C14.1,6.68,14.1,7.32,13.71,7.71z"/>
</g>
<g>
	<path d="M16.26,16C14.41,12.04,12.49,8,9,8c-4.78,0-6.4,5.74-6.84,8H0v2h14.99c1.87,3.95,4.09,8,8.01,8c4.9,0,6.48-5.94,6.88-8H32   v-2H16.26z M4.2,16c0.45-2,1.73-6,4.8-6c2.04,0,3.59,2.91,5.05,6H4.2z M23,24c-2.51,0-4.23-2.81-5.79-6h10.62   C27.41,19.9,26.13,24,23,24z"/>
</g>
</svg>
