<?xml version="1.0" encoding="utf-8"?>
<!-- Generator: Adobe Illustrator 16.0.0, SVG Export Plug-In . SVG Version: 6.00 Build 0)  -->
<!DOCTYPE svg PUBLIC "-//W3C//DTD SVG 1.1//EN" "http://www.w3.org/Graphics/SVG/1.1/DTD/svg11.dtd">
<svg xmlns="http://www.w3.org/2000/svg" xmlns:xlink="http://www.w3.org/1999/xlink" version="1.1" id="Capa_1" x="0px" y="0px" width="32px" height="32px" viewBox="0 0 32 32" enable-background="new 0 0 32 32" xml:space="preserve">
<g>
	<path d="M16.19,16C13.76,11.88,11.44,8,8,8c-4.77,0-7.07,5.86-7.75,8H0v2h15.05c2.44,4.08,5.04,8,8.95,8c4.91,0,7.2-6.07,7.8-8H32   v-2H16.19z M2.37,16c0.76-2.07,2.59-6,5.63-6c2.08,0,4.01,2.89,5.87,6H2.37z M24,24c-2.55,0-4.64-2.8-6.61-6h12.29   C28.97,19.97,27.12,24,24,24z"/>
</g>
<g>
	<path d="M21.71,12.29c0.39,0.39,0.39,1.03,0,1.42C21.51,13.9,21.26,14,21,14s-0.51-0.1-0.71-0.29l-4-4c-0.39-0.39-0.39-1.03,0-1.42   l4-4c0.39-0.39,1.03-0.39,1.42,0s0.39,1.03,0,1.42L18.41,9L21.71,12.29z"/>
</g>
<g>
	<path d="M15.71,25.71l-4,4C11.51,29.9,11.26,30,11,30s-0.51-0.1-0.71-0.29c-0.39-0.39-0.39-1.03,0-1.42l3.3-3.29l-3.3-3.29   c-0.39-0.39-0.39-1.03,0-1.42s1.03-0.39,1.42,0l4,4C16.1,24.68,16.1,25.32,15.71,25.71z"/>
</g>
</svg>
