<?xml version="1.0" encoding="utf-8"?>
<!-- Generator: Adobe Illustrator 16.0.0, SVG Export Plug-In . SVG Version: 6.00 Build 0)  -->
<!DOCTYPE svg PUBLIC "-//W3C//DTD SVG 1.1//EN" "http://www.w3.org/Graphics/SVG/1.1/DTD/svg11.dtd">
<svg xmlns="http://www.w3.org/2000/svg" xmlns:xlink="http://www.w3.org/1999/xlink" version="1.1" id="Capa_1" x="0px" y="0px" width="32px" height="32px" viewBox="0 0 32 32" enable-background="new 0 0 32 32" xml:space="preserve">
<g>
	<path d="M16.19,16c-1.86-2.97-3.8-6-7.19-6c-4.12,0-6.13,3.55-6.8,6H0v2h15.08c1.87,2.97,4.09,6,7.92,6c4.22,0,6.22-3.62,6.84-6H32   v-2H16.19z M4.3,16c0.52-1.53,1.82-4,4.7-4c1.98,0,3.41,1.82,4.81,4H4.3z M23,22c-2.43,0-4.05-1.77-5.54-4h10.28   C27.24,19.46,25.95,22,23,22z"/>
</g>
<g>
	<path d="M27.71,31.71C27.51,31.9,27.26,32,27,32s-0.51-0.1-0.71-0.29L23,28.41l-3.29,3.3c-0.39,0.39-1.03,0.39-1.42,0   s-0.39-1.03,0-1.42l4-4c0.39-0.39,1.03-0.39,1.42,0l4,4C28.1,30.68,28.1,31.32,27.71,31.71z"/>
</g>
<g>
	<path d="M13.71,3.71l-4,4C9.51,7.9,9.26,8,9,8S8.49,7.9,8.29,7.71l-4-4c-0.39-0.39-0.39-1.03,0-1.42s1.03-0.39,1.42,0L9,5.59   l3.29-3.3c0.39-0.39,1.03-0.39,1.42,0S14.1,3.32,13.71,3.71z"/>
</g>
</svg>
