<?xml version="1.0" encoding="utf-8"?>
<!-- Generator: Adobe Illustrator 16.0.0, SVG Export Plug-In . SVG Version: 6.00 Build 0)  -->
<!DOCTYPE svg PUBLIC "-//W3C//DTD SVG 1.1//EN" "http://www.w3.org/Graphics/SVG/1.1/DTD/svg11.dtd">
<svg version="1.1" id="Capa_1" xmlns="http://www.w3.org/2000/svg" xmlns:xlink="http://www.w3.org/1999/xlink" x="0px" y="0px"
	 width="32px" height="32px" viewBox="0 0 32 32" enable-background="new 0 0 32 32" xml:space="preserve">
<path d="M22,2H8L0,6v22l8-4h4v-2H8v-6H6v6.76l-4,2V7.24l4-2V10h2V4h14v6h2V5.24l4,2v17.52l-4-2V16h-2v6h-4v2h4l8,4V6L22,2z M16,22
	h-2v10h2V22z M22,14v-2h-2.1c-0.131-0.64-0.381-1.23-0.721-1.76l1.48-1.48l-1.42-1.42l-1.48,1.48C17.23,8.48,16.64,8.23,16,8.1V6h-2
	v2.1c-0.64,0.13-1.23,0.38-1.76,0.72l-1.48-1.48L9.34,8.76l1.48,1.48c-0.34,0.53-0.59,1.12-0.72,1.76H8v2h2.1
	c0.13,0.64,0.38,1.23,0.72,1.76l-1.48,1.48l1.42,1.42l1.48-1.48c0.53,0.34,1.12,0.59,1.76,0.721V20h2v-2.1
	c0.64-0.131,1.23-0.381,1.76-0.721l1.48,1.48l1.42-1.42l-1.48-1.48c0.34-0.53,0.59-1.12,0.721-1.76H22z M15,16c-1.65,0-3-1.35-3-3
	s1.35-3,3-3s3,1.35,3,3S16.65,16,15,16z"/>
</svg>
