<?xml version="1.0" encoding="utf-8"?>
<!-- Generator: Adobe Illustrator 16.0.0, SVG Export Plug-In . SVG Version: 6.00 Build 0)  -->
<!DOCTYPE svg PUBLIC "-//W3C//DTD SVG 1.1//EN" "http://www.w3.org/Graphics/SVG/1.1/DTD/svg11.dtd">
<svg version="1.1" id="Capa_1" xmlns="http://www.w3.org/2000/svg" xmlns:xlink="http://www.w3.org/1999/xlink" x="0px" y="0px"
	 width="32px" height="32px" viewBox="0 0 32 32" enable-background="new 0 0 32 32" xml:space="preserve">
<path d="M22,2H8L0,6v22l8-4h4v-2H8V4h14v18h-4v2h4l8,4V6L22,2z M6,22.76l-4,2V7.24l4-2V22.76z M28,24.76l-4-2V5.24l4,2V24.76z
	 M16,22h-2v10h2V22z M19.71,9.71l-1.42-1.42L15,11.58l-3.29-3.29l-1.42,1.42L13.58,13l-3.29,3.29l1.42,1.42L15,14.42l3.29,3.29
	l1.42-1.42L16.42,13L19.71,9.71z"/>
</svg>
