<?xml version="1.0" encoding="utf-8"?>
<!-- Generator: Adobe Illustrator 16.0.0, SVG Export Plug-In . SVG Version: 6.00 Build 0)  -->
<!DOCTYPE svg PUBLIC "-//W3C//DTD SVG 1.1//EN" "http://www.w3.org/Graphics/SVG/1.1/DTD/svg11.dtd">
<svg version="1.1" id="Capa_1" xmlns="http://www.w3.org/2000/svg" xmlns:xlink="http://www.w3.org/1999/xlink" x="0px" y="0px"
	 width="32px" height="32px" viewBox="0 0 32 32" enable-background="new 0 0 32 32" xml:space="preserve">
<path d="M0,4v14h2v-4h28v4h2V4H0z M30,12H2V6h28V12z M30,24v4H2v-4H0v6h32v-6H30z M23.41,20L19,15.59l-8,8L7.41,20H0v2h6.59
	L11,26.41l8-8L22.59,22H32v-2H23.41z M26,8v2h2V8H26z M22,8v2h2V8H22z M18,10h2V8h-2V10z"/>
</svg>
