<?xml version="1.0" encoding="utf-8"?>
<!-- Generator: Adobe Illustrator 16.0.0, SVG Export Plug-In . SVG Version: 6.00 Build 0)  -->
<!DOCTYPE svg PUBLIC "-//W3C//DTD SVG 1.1//EN" "http://www.w3.org/Graphics/SVG/1.1/DTD/svg11.dtd">
<svg version="1.1" id="Capa_1" xmlns="http://www.w3.org/2000/svg" xmlns:xlink="http://www.w3.org/1999/xlink" x="0px" y="0px"
	 width="32px" height="32px" viewBox="0 0 32 32" enable-background="new 0 0 32 32" xml:space="preserve">
<path d="M19.71,24.29l-4-4c-0.39-0.39-1.03-0.39-1.42,0L12,22.59L9.41,20l2.3-2.29c0.39-0.39,0.39-1.03,0-1.42l-4-4
	c-0.39-0.39-1.03-0.39-1.42,0l-3,3c-1.28,1.29-2.93,4.479,0,7.42l6,6c1.08,1.08,2.29,1.62,3.6,1.62c2.17,0,3.75-1.561,3.82-1.62l3-3
	C20.1,25.32,20.1,24.68,19.71,24.29z M15.3,27.29c-0.01,0.01-1.09,1.04-2.41,1.04c-0.77,0-1.479-0.34-2.18-1.04l-6-6
	c-2.21-2.2-0.23-4.35,0-4.58L7,14.41L9.59,17l-2.3,2.29c-0.39,0.39-0.39,1.03,0,1.42l4,4c0.39,0.39,1.03,0.39,1.42,0l2.29-2.3
	L17.59,25L15.3,27.29z M31,6c-0.09,0-8.63-0.04-12.29-3.71L18,1.59l-0.71,0.7C13.64,5.95,5.09,6,5,6H4v1c0,0.18,0.01,1.31,0.2,3
	h2.03c-0.1-0.83-0.16-1.52-0.19-2.03C8.45,7.84,14.42,7.24,18,4.34c3.58,2.9,9.55,3.5,11.96,3.63c-0.2,3.12-1.33,12.959-7.96,17.9
	v2.43C31.87,22.32,32,7.69,32,7V6H31z"/>
</svg>
