<?xml version="1.0" encoding="utf-8"?>
<!-- Generator: Adobe Illustrator 16.0.0, SVG Export Plug-In . SVG Version: 6.00 Build 0)  -->
<!DOCTYPE svg PUBLIC "-//W3C//DTD SVG 1.1//EN" "http://www.w3.org/Graphics/SVG/1.1/DTD/svg11.dtd">
<svg version="1.1" id="Capa_1" xmlns="http://www.w3.org/2000/svg" xmlns:xlink="http://www.w3.org/1999/xlink" x="0px" y="0px"
	 width="32px" height="32px" viewBox="0 0 32 32" enable-background="new 0 0 32 32" xml:space="preserve">
<path d="M29,6c-0.09,0-8.63-0.04-12.29-3.71L16,1.59l-0.71,0.7C11.64,5.95,3.09,6,3,6H2v1c0,0.77,0.16,18.79,13.71,22.96L16,30.05
	l0.29-0.09C29.84,25.79,30,7.77,30,7V6H29z M16,27.95c-3.44-1.141-5.89-3.36-7.63-5.95h15.27C21.89,24.59,19.44,26.81,16,27.95z
	 M16,18.32l6-5.15V20H10v-6.83L16,18.32z M11.7,12h8.6L16,15.68L11.7,12z M24,21.44V10H8v11.44c-3.13-5-3.81-11.13-3.96-13.47
	C6.45,7.84,12.42,7.24,16,4.34c3.58,2.9,9.55,3.5,11.96,3.63C27.81,10.31,27.14,16.44,24,21.44z"/>
</svg>
