<?xml version="1.0" encoding="utf-8"?>
<!-- Generator: Adobe Illustrator 16.0.0, SVG Export Plug-In . SVG Version: 6.00 Build 0)  -->
<!DOCTYPE svg PUBLIC "-//W3C//DTD SVG 1.1//EN" "http://www.w3.org/Graphics/SVG/1.1/DTD/svg11.dtd">
<svg version="1.1" id="Capa_1" xmlns="http://www.w3.org/2000/svg" xmlns:xlink="http://www.w3.org/1999/xlink" x="0px" y="0px"
	 width="32px" height="32px" viewBox="0 0 32 32" enable-background="new 0 0 32 32" xml:space="preserve">
<path d="M29,6c-0.09,0-8.63-0.04-12.29-3.71L16,1.59l-0.71,0.7C11.64,5.95,3.09,6,3,6H2v1c0,0.77,0.16,18.79,13.71,22.96L16,30.05
	l0.29-0.09C29.84,25.79,30,7.77,30,7V6H29z M16,4.34c2.91,2.36,7.41,3.2,10.28,3.49L16,15.74L5.72,7.83C8.59,7.54,13.09,6.7,16,4.34
	z M4.14,9.14l6.35,4.88l-3.78,5.03C5,15.35,4.37,11.46,4.14,9.14z M16,27.95c-3.87-1.28-6.49-3.94-8.26-6.94l4.33-5.77L16,18.26
	l3.93-3.02l4.33,5.779C22.49,24.02,19.86,26.67,16,27.95z M25.29,19.05l-3.78-5.03l6.351-4.88C27.63,11.46,27,15.35,25.29,19.05z"/>
</svg>
