<?xml version="1.0" encoding="utf-8"?>
<!-- Generator: Adobe Illustrator 16.0.0, SVG Export Plug-In . SVG Version: 6.00 Build 0)  -->
<!DOCTYPE svg PUBLIC "-//W3C//DTD SVG 1.1//EN" "http://www.w3.org/Graphics/SVG/1.1/DTD/svg11.dtd">
<svg version="1.1" id="Capa_1" xmlns="http://www.w3.org/2000/svg" xmlns:xlink="http://www.w3.org/1999/xlink" x="0px" y="0px"
	 width="32px" height="32px" viewBox="0 0 32 32" enable-background="new 0 0 32 32" xml:space="preserve">
<path d="M10.42,9l5.29,5.29l-1.42,1.42L9,10.42l-5.29,5.29l-1.42-1.42L7.58,9L2.29,3.71l1.42-1.42L9,7.58l5.29-5.29l1.42,1.42
	L10.42,9z M32,10v14l-13,8L6,24v-6h2v4.88l8.82,5.43L10.73,18h2.32L19,28.07L28.5,12H18v-2h10.18L18,3.73V1.39L32,10z M30,13.38
	l-8.82,14.93L30,22.88V13.38z"/>
</svg>
