<?xml version="1.0" encoding="utf-8"?>
<!-- Generator: Adobe Illustrator 16.0.0, SVG Export Plug-In . SVG Version: 6.00 Build 0)  -->
<!DOCTYPE svg PUBLIC "-//W3C//DTD SVG 1.1//EN" "http://www.w3.org/Graphics/SVG/1.1/DTD/svg11.dtd">
<svg version="1.1" id="Capa_1" xmlns="http://www.w3.org/2000/svg" xmlns:xlink="http://www.w3.org/1999/xlink" x="0px" y="0px"
	 width="32px" height="32px" viewBox="0 0 32 32" enable-background="new 0 0 32 32" xml:space="preserve">
<path d="M4,2v30h24V2H4z M26,30H6V12h20V30z M26,10H6V4h20V10z M22,8h2V6h-2V8z M18,8h2V6h-2V8z M14,8h2V6h-2V8z M8,14v2h2v-2H8z
	 M12,14v2h12v-2H12z M8,18v2h2v-2H8z M12,18v2h12v-2H12z M8,22v2h2v-2H8z M12,22v2h12v-2H12z M8,26v2h2v-2H8z M12,26v2h12v-2H12z"/>
</svg>
