<?xml version="1.0" encoding="utf-8"?>
<!-- Generator: Adobe Illustrator 16.0.0, SVG Export Plug-In . SVG Version: 6.00 Build 0)  -->
<!DOCTYPE svg PUBLIC "-//W3C//DTD SVG 1.1//EN" "http://www.w3.org/Graphics/SVG/1.1/DTD/svg11.dtd">
<svg version="1.1" id="Capa_1" xmlns="http://www.w3.org/2000/svg" xmlns:xlink="http://www.w3.org/1999/xlink" x="0px" y="0px"
	 width="32px" height="32px" viewBox="0 0 32 32" enable-background="new 0 0 32 32" xml:space="preserve">
<path d="M0,4v26h18v2h14V4H0z M18,28H2V14h16V28z M30,30H20v-4h10V30z M30,24H20v-4h10V24z M30,18H20v-4h10V18z M30,12H2V6h28V12z
	 M18,8v2h2V8H18z M22,8v2h2V8H22z M26,8v2h2V8H26z"/>
</svg>
