<?xml version="1.0" encoding="utf-8"?>
<!-- Generator: Adobe Illustrator 16.0.0, SVG Export Plug-In . SVG Version: 6.00 Build 0)  -->
<!DOCTYPE svg PUBLIC "-//W3C//DTD SVG 1.1//EN" "http://www.w3.org/Graphics/SVG/1.1/DTD/svg11.dtd">
<svg version="1.1" id="Capa_1" xmlns="http://www.w3.org/2000/svg" xmlns:xlink="http://www.w3.org/1999/xlink" x="0px" y="0px"
	 width="32px" height="32px" viewBox="0 0 32 32" enable-background="new 0 0 32 32" xml:space="preserve">
<path d="M4,4v28h22V4H4z M24,30H6V6h18V30z M15,8c-5.54,0-7,3.92-7,6v9c0,1.73,1.04,5,5,5h7v-2h-7c-2.82,0-2.99-2.5-3-3v-8.99
	C10.01,13.6,10.19,10,15,10c4.81,0,5,3.6,5,4v6c0,1.83-1.54,1.99-2,2h-3c-0.81,0-0.99-0.55-1-1v-5.99c0.01-0.46,0.19-1.01,1-1.01
	s0.99,0.55,1,1v5.002h2V15c0-1.21-0.8-3-3-3s-3,1.79-3,3v6c0,1.21,0.8,3,3,3h3c1.61,0,4-1.07,4-4v-6C22,11.92,20.54,8,15,8z M8,0v2
	h20v26h2V0H8z"/>
</svg>
