<?xml version="1.0" encoding="utf-8"?>
<!-- Generator: Adobe Illustrator 16.0.0, SVG Export Plug-In . SVG Version: 6.00 Build 0)  -->
<!DOCTYPE svg PUBLIC "-//W3C//DTD SVG 1.1//EN" "http://www.w3.org/Graphics/SVG/1.1/DTD/svg11.dtd">
<svg version="1.1" id="Capa_1" xmlns="http://www.w3.org/2000/svg" xmlns:xlink="http://www.w3.org/1999/xlink" x="0px" y="0px"
	 width="32px" height="32px" viewBox="0 0 32 32" enable-background="new 0 0 32 32" xml:space="preserve">
<path d="M10.49,24.34l-4.4,4.38l1.42,1.42l3.32-3.31c0.38,0.18,0.77,0.34,1.17,0.49V32h8v-4.68c0.4-0.15,0.79-0.311,1.17-0.49
	l3.32,3.31l5.65-5.649l-3.311-3.32c0.18-0.38,0.35-0.77,0.49-1.17H32v-8h-4.68c-0.141-0.4-0.311-0.79-0.49-1.17l3.311-3.32
	l-5.65-5.65l-3.32,3.31C20.79,4.99,20.4,4.82,20,4.68V0h-8v4.68c-0.4,0.14-0.79,0.31-1.17,0.49L7.51,1.86L6.09,3.28l4.4,4.38
	c1.05-0.7,2.229-1.2,3.51-1.46V2h4v4.2c1.279,0.26,2.46,0.76,3.51,1.46l2.98-2.97l2.82,2.82l-2.971,2.98
	c0.7,1.05,1.2,2.23,1.46,3.51H30v4h-4.2c-0.26,1.28-0.76,2.46-1.46,3.51l2.971,2.98l-2.82,2.819l-2.98-2.97
	c-1.05,0.7-2.23,1.2-3.51,1.46V30h-4v-4.2C12.72,25.54,11.54,25.04,10.49,24.34z M15.759,23.65l-1.519-1.301L19.683,16l-5.442-6.349
	l1.519-1.302L22.317,16L15.759,23.65z M16.317,16L9.759,8.349L8.241,9.651L13.683,16l-5.442,6.35l1.519,1.301L16.317,16z M10.317,16
	L3.759,8.349L2.241,9.651L7.683,16l-5.442,6.35l1.519,1.301L10.317,16z"/>
</svg>
