<?xml version="1.0" encoding="utf-8"?>
<!-- Generator: Adobe Illustrator 16.0.0, SVG Export Plug-In . SVG Version: 6.00 Build 0)  -->
<!DOCTYPE svg PUBLIC "-//W3C//DTD SVG 1.1//EN" "http://www.w3.org/Graphics/SVG/1.1/DTD/svg11.dtd">
<svg version="1.1" id="Capa_1" xmlns="http://www.w3.org/2000/svg" xmlns:xlink="http://www.w3.org/1999/xlink" x="0px" y="0px"
	 width="32px" height="32px" viewBox="0 0 32 32" enable-background="new 0 0 32 32" xml:space="preserve">
<path d="M24,13c0,4.96-4.04,9-9,9s-9-4.04-9-9c0-2.93,1.41-5.53,3.58-7.18l1.43,1.43C9.19,8.52,8,10.62,8,13c0,3.859,3.14,7,7,7
	c3.859,0,7-3.141,7-7c0-3.71-2.9-6.76-6.56-6.98l2.27,2.27l-1.42,1.42L11.59,5l4.7-4.71l1.42,1.42l-2.31,2.3
	C20.18,4.22,24,8.17,24,13z M26,18v2h2v8H2v-8h2v-2H0v12h30V18H26z M20,24h6v2h-6V24z M16,24h2v2h-2V24z"/>
</svg>
