<?xml version="1.0" encoding="utf-8"?>
<!-- Generator: Adobe Illustrator 16.0.0, SVG Export Plug-In . SVG Version: 6.00 Build 0)  -->
<!DOCTYPE svg PUBLIC "-//W3C//DTD SVG 1.1//EN" "http://www.w3.org/Graphics/SVG/1.1/DTD/svg11.dtd">
<svg version="1.1" id="Capa_1" xmlns="http://www.w3.org/2000/svg" xmlns:xlink="http://www.w3.org/1999/xlink" x="0px" y="0px"
	 width="32px" height="32px" viewBox="0 0 32 32" enable-background="new 0 0 32 32" xml:space="preserve">
<path d="M20,32H2V18h18V32z M4,30h14v-6H4V30z M4,22h14v-2H4V22z M14,2v6h16v6h-2v2h4V2H14z M30,6H16V4h14V6z M8,10v6h16v6h-2v2h4
	V10H8z M24,14H10v-2h14V14z M11.71,1.71l-1.42-1.42L7,3.58L3.71,0.29L2.29,1.71L5.58,5L2.29,8.29l1.42,1.42L7,6.42l3.29,3.29
	l1.42-1.42L8.42,5L11.71,1.71z"/>
</svg>
