<?xml version="1.0" encoding="utf-8"?>
<!-- Generator: Adobe Illustrator 16.0.0, SVG Export Plug-In . SVG Version: 6.00 Build 0)  -->
<!DOCTYPE svg PUBLIC "-//W3C//DTD SVG 1.1//EN" "http://www.w3.org/Graphics/SVG/1.1/DTD/svg11.dtd">
<svg version="1.1" id="Capa_1" xmlns="http://www.w3.org/2000/svg" xmlns:xlink="http://www.w3.org/1999/xlink" x="0px" y="0px"
	 width="32px" height="32px" viewBox="0 0 32 32" enable-background="new 0 0 32 32" xml:space="preserve">
<path d="M28,24.939L27.971,24.5l-0.351-0.279c-1.86-1.479-3.28-3.841-4.22-5.83c-0.94-1.99-1.42-3.601-1.42-3.601
	c-0.24-1.101-0.762-1.8-1.33-2.22C20.08,12.15,19.45,12,19,12h-2.37C17.37,10.52,18,9.02,18,7c0-3.96-3.27-5-5-5S8,3.04,8,7
	c0,2.02,0.63,3.52,1.37,5H7c-2.2,0-3,1.79-3,3l0.01,0.12c0.04,0.33,1.02,8.14,2.04,11.2C7.02,29.23,9.71,30,11,30h13
	c1.109,0,2.05-0.38,2.74-1.109C28.1,27.45,28.01,25.189,28,24.939z M12.99,4C13.5,4.01,16,4.18,16,7c0,1.859-0.66,3.15-1.5,4.79
	L14.391,12H11.61l-0.11-0.21C10.66,10.15,10,8.859,10,7C10,4.18,12.5,4.01,12.99,4z M6,14.95C6.029,14.51,6.23,14,7,14h12.01
	c0.182,0,0.78,0.1,1.03,1.279c0.03,0.111,0.351,1.211,0.989,2.721H6.43C6.2,16.471,6.04,15.26,6,14.95z M25.29,27.51
	C24.98,27.84,24.561,28,24,28H11.01c-0.1,0-2.31-0.061-3.06-2.32C7.529,24.4,7.09,22.13,6.75,20h15.2
	c0.97,1.88,2.31,3.96,4.05,5.471C25.96,26.05,25.8,26.971,25.29,27.51z"/>
</svg>
