<?xml version="1.0" encoding="utf-8"?>
<!-- Generator: Adobe Illustrator 16.0.0, SVG Export Plug-In . SVG Version: 6.00 Build 0)  -->
<!DOCTYPE svg PUBLIC "-//W3C//DTD SVG 1.1//EN" "http://www.w3.org/Graphics/SVG/1.1/DTD/svg11.dtd">
<svg version="1.1" id="Capa_1" xmlns="http://www.w3.org/2000/svg" xmlns:xlink="http://www.w3.org/1999/xlink" x="0px" y="0px"
	 width="32px" height="32px" viewBox="0 0 32 32" enable-background="new 0 0 32 32" xml:space="preserve">
<path d="M0,6v22h32V6H0z M30,26H2V8h28V26z M28,22v2h-8v-2H28z M20.05,10.68l-4,12l1.9,0.641l4-12L20.05,10.68z M14,14v2h2v-2H14z
	 M14,18v2h2v-2H14z M8,22c-1.83,0-1.99-1.54-2-2v-6c0-0.33,0.1-2,2-2c1.83,0,1.99,1.54,2,2h2c0-1.61-1.07-4-4-4s-4,2.39-4,4v6
	c0,1.61,1.07,4,4,4s4-2.39,4-4h-2C10,20.33,9.9,22,8,22z"/>
</svg>
