<?xml version="1.0" encoding="utf-8"?>
<!-- Generator: Adobe Illustrator 16.0.0, SVG Export Plug-In . SVG Version: 6.00 Build 0)  -->
<!DOCTYPE svg PUBLIC "-//W3C//DTD SVG 1.1//EN" "http://www.w3.org/Graphics/SVG/1.1/DTD/svg11.dtd">
<svg version="1.1" id="Capa_1" xmlns="http://www.w3.org/2000/svg" xmlns:xlink="http://www.w3.org/1999/xlink" x="0px" y="0px"
	 width="32px" height="32px" viewBox="0 0 32 32" enable-background="new 0 0 32 32" xml:space="preserve">
<path d="M10,10H8V4h2V10z M10,12H8v2h2V12z M32,12v20H12v-2H4V16.48C1.59,14.87,0,12.12,0,9c0-4.97,4.03-9,9-9
	c3.12,0,5.87,1.59,7.48,4H28v8H32z M9,16c3.86,0,7-3.14,7-7s-3.14-7-7-7S2,5.14,2,9S5.14,16,9,16z M12,20h8v-8h6V6h-8.52
	C17.82,6.94,18,7.95,18,9c0,4.97-4.03,9-9,9c-1.05,0-2.06-0.18-3-0.52V28h6V20z M30,14h-8v8h-8v8h16V14z"/>
</svg>
