<?xml version="1.0" encoding="utf-8"?>
<!-- Generator: Adobe Illustrator 16.0.0, SVG Export Plug-In . SVG Version: 6.00 Build 0)  -->
<!DOCTYPE svg PUBLIC "-//W3C//DTD SVG 1.1//EN" "http://www.w3.org/Graphics/SVG/1.1/DTD/svg11.dtd">
<svg version="1.1" id="Capa_1" xmlns="http://www.w3.org/2000/svg" xmlns:xlink="http://www.w3.org/1999/xlink" x="0px" y="0px"
	 width="32px" height="32px" viewBox="0 0 32 32" enable-background="new 0 0 32 32" xml:space="preserve">
<path d="M29.43,2.56c-0.08-0.08-2.12-2.09-4.569-2.09c-1.2,0-2.28,0.47-3.2,1.39l-19.8,19.8c-2.8,2.79-0.76,6.31,0.71,7.78
	C3.94,30.81,5.4,31.51,6.92,31.51c2.04,0,3.37-1.31,3.42-1.37l19.8-19.8c0.091-0.09,0.92-0.95,1.24-2.34
	C31.68,6.71,31.58,4.72,29.43,2.56z M8.94,28.72c-0.01,0.011-0.83,0.79-2.02,0.79c-0.97,0-1.96-0.5-2.94-1.49
	C3.87,27.91,1.19,25.15,3.27,23.07l4.95-4.95l5.66,5.66L8.94,28.72z M15.29,22.37l-5.65-5.66l7.07-7.07l5.66,5.65L15.29,22.37z
	 M28.73,8.93l-4.95,4.95l-5.66-5.66l4.95-4.95c0.54-0.54,1.13-0.8,1.79-0.8c1.609,0,3.149,1.5,3.159,1.51
	C30.73,6.69,28.94,8.71,28.73,8.93z"/>
</svg>
