<?xml version="1.0" encoding="utf-8"?>
<!-- Generator: Adobe Illustrator 16.0.0, SVG Export Plug-In . SVG Version: 6.00 Build 0)  -->
<!DOCTYPE svg PUBLIC "-//W3C//DTD SVG 1.1//EN" "http://www.w3.org/Graphics/SVG/1.1/DTD/svg11.dtd">
<svg version="1.1" id="Capa_1" xmlns="http://www.w3.org/2000/svg" xmlns:xlink="http://www.w3.org/1999/xlink" x="0px" y="0px"
	 width="32px" height="32px" viewBox="0 0 32 32" enable-background="new 0 0 32 32" xml:space="preserve">
<path d="M10,12v10H8V12H10z M6,12v10H0V12H6z M4,14H2v6h2V14z M20,12v10h2V12H20z M18,12v10h-6V12H18z M16,14h-2v6h2V14z M30,12v10
	h-6V12H30z M28,14h-2v6h2V14z M32,8v2H0V8H32z M0,4v2h32V4H0z M32,28v2H0v-2H32z M0,24v2h32v-2H0z"/>
</svg>
