<?xml version="1.0" encoding="utf-8"?>
<!-- Generator: Adobe Illustrator 16.0.0, SVG Export Plug-In . SVG Version: 6.00 Build 0)  -->
<!DOCTYPE svg PUBLIC "-//W3C//DTD SVG 1.1//EN" "http://www.w3.org/Graphics/SVG/1.1/DTD/svg11.dtd">
<svg version="1.1" id="Capa_1" xmlns="http://www.w3.org/2000/svg" xmlns:xlink="http://www.w3.org/1999/xlink" x="0px" y="0px"
	 width="32px" height="32px" viewBox="0 0 32 32" enable-background="new 0 0 32 32" xml:space="preserve">
<path d="M22,12V9c0-2.42-1.46-7-7-7S8,6.58,8,9v1h2V9c0-0.51,0.18-5,5-5c4.94,0,5,4.8,5,5v3H6v14h18V12H22z M22,24H8V14h14V24z
	 M5.707,6.293l-4-4L0.293,3.707l4,4L5.707,6.293z M29.707,3.707l-1.414-1.414l-4,4l1.414,1.414L29.707,3.707z M5.707,27.707
	l-1.414-1.414l-4,4l1.414,1.414L5.707,27.707z M29.707,30.293l-4-4l-1.414,1.414l4,4L29.707,30.293z"/>
</svg>
