<?xml version="1.0" encoding="utf-8"?>
<!-- Generator: Adobe Illustrator 16.0.0, SVG Export Plug-In . SVG Version: 6.00 Build 0)  -->
<!DOCTYPE svg PUBLIC "-//W3C//DTD SVG 1.1//EN" "http://www.w3.org/Graphics/SVG/1.1/DTD/svg11.dtd">
<svg version="1.1" id="Capa_1" xmlns="http://www.w3.org/2000/svg" xmlns:xlink="http://www.w3.org/1999/xlink" x="0px" y="0px"
	 width="32px" height="32px" viewBox="0 0 32 32" enable-background="new 0 0 32 32" xml:space="preserve">
<path d="M23,10h-7v14h7c2.42,0,7-1.46,7-7S25.42,10,23,10z M23,22h-5V12h5c0.2,0,5,0.06,5,5C28,21.82,23.51,22,23,22z M0,17
	c0,5.54,4.58,7,7,7h7V10H7C4.58,10,0,11.46,0,17z M12,22H7c-0.2,0-5-0.061-5-5c0-4.82,4.49-5,5-5h5V22z M12,4h6l-3,4L12,4z M15,26
	l-3,4h6L15,26z"/>
</svg>
