<?xml version="1.0" encoding="utf-8"?>
<!-- Generator: Adobe Illustrator 16.0.0, SVG Export Plug-In . SVG Version: 6.00 Build 0)  -->
<!DOCTYPE svg PUBLIC "-//W3C//DTD SVG 1.1//EN" "http://www.w3.org/Graphics/SVG/1.1/DTD/svg11.dtd">
<svg version="1.1" id="Capa_1" xmlns="http://www.w3.org/2000/svg" xmlns:xlink="http://www.w3.org/1999/xlink" x="0px" y="0px"
	 width="32px" height="32px" viewBox="0 0 32 32" enable-background="new 0 0 32 32" xml:space="preserve">
<path d="M18.78,13.22c-1.03-1.03-2.18-1.55-3.43-1.55c-2.07,0-3.58,1.49-3.64,1.55l-3.54,3.54L11,19.59L9.59,21l-2.83-2.83
	l-3.54,3.54c-0.09,0.09-0.88,0.91-1.3,2.16c-0.58,1.74-0.12,3.49,1.3,4.91c1.03,1.029,2.18,1.55,3.43,1.55
	c2.07,0,3.58-1.49,3.64-1.55l3.54-3.54L11,22.41L12.41,21l2.83,2.83l3.54-3.54C20,19.07,21.57,16.02,18.78,13.22z M8.88,27.36
	c-0.01,0.01-1,0.97-2.23,0.97c-0.71,0-1.37-0.32-2.01-0.97c-2-1.99-0.35-3.88,0-4.24L6.76,21l1.42,1.42l-1.42,1.41l1.41,1.41
	l1.42-1.41L11,25.24L8.88,27.36z M17.36,18.88L15.24,21l-1.41-1.41l1.41-1.42l-1.41-1.41l-1.41,1.42L11,16.76l2.12-2.12
	c0.01-0.01,1-0.97,2.23-0.97c0.71,0,1.37,0.32,2.01,0.97C19.36,16.63,17.71,18.52,17.36,18.88z M30,2V0H11C7.04,0,6,3.27,6,5v9h2
	V9.12C8.73,9.65,9.71,10,11,10h17v20H12v2h18V8h-2V2H30z M26,8H11C8.18,8,8.01,5.5,8,5.01V5c0.01-0.52,0.19-3,3-3h15V8z"/>
</svg>
