<?xml version="1.0" encoding="utf-8"?>
<!-- Generator: Adobe Illustrator 16.0.0, SVG Export Plug-In . SVG Version: 6.00 Build 0)  -->
<!DOCTYPE svg PUBLIC "-//W3C//DTD SVG 1.1//EN" "http://www.w3.org/Graphics/SVG/1.1/DTD/svg11.dtd">
<svg version="1.1" id="Capa_1" xmlns="http://www.w3.org/2000/svg" xmlns:xlink="http://www.w3.org/1999/xlink" x="0px" y="0px"
	 width="32px" height="32px" viewBox="0 0 32 32" enable-background="new 0 0 32 32" xml:space="preserve">
<path d="M6,16l-4,4v-8L6,16z M26,16l4,4v-8L26,16z M16,4c3.309,0,6,2.691,6,6v12c0,3.309-2.691,6-6,6s-6-2.691-6-6V10
	C10,6.691,12.691,4,16,4 M16,2c-4.418,0-8,3.582-8,8v12c0,4.418,3.582,8,8,8s8-3.582,8-8V10C24,5.582,20.418,2,16,2L16,2z M16,8
	c1.103,0,2,0.896,2,2v12c0,1.103-0.897,2-2,2c-1.104,0-2-0.897-2-2V10C14,8.896,14.896,8,16,8 M16,6c-2.209,0-4,1.791-4,4v12
	c0,2.209,1.791,4,4,4s4-1.791,4-4V10C20,7.791,18.209,6,16,6L16,6z"/>
</svg>
