<?xml version="1.0" encoding="utf-8"?>
<!-- Generator: Adobe Illustrator 16.0.0, SVG Export Plug-In . SVG Version: 6.00 Build 0)  -->
<!DOCTYPE svg PUBLIC "-//W3C//DTD SVG 1.1//EN" "http://www.w3.org/Graphics/SVG/1.1/DTD/svg11.dtd">
<svg version="1.1" id="Capa_1" xmlns="http://www.w3.org/2000/svg" xmlns:xlink="http://www.w3.org/1999/xlink" x="0px" y="0px"
	 width="32px" height="32px" viewBox="0 0 32 32" enable-background="new 0 0 32 32" xml:space="preserve">
<path d="M30,24V4H0v20h14v2h-4v2h10v-2h-4v-2H30z M2,22V6h26v16H2z M16,12v-2h-2v2h-2v2h2v2h2v-2h2v-2H16z M6,8v4h2v-2h2V8H6z M20,8
	v2h2v2h2V8H20z M8,16v-2H6v4h4v-2H8z M22,14v2h-2v2h4v-4H22z"/>
</svg>
