<?xml version="1.0" encoding="utf-8"?>
<!-- Generator: Adobe Illustrator 16.0.0, SVG Export Plug-In . SVG Version: 6.00 Build 0)  -->
<!DOCTYPE svg PUBLIC "-//W3C//DTD SVG 1.1//EN" "http://www.w3.org/Graphics/SVG/1.1/DTD/svg11.dtd">
<svg version="1.1" id="Capa_1" xmlns="http://www.w3.org/2000/svg" xmlns:xlink="http://www.w3.org/1999/xlink" x="0px" y="0px"
	 width="32px" height="32px" viewBox="0 0 32 32" enable-background="new 0 0 32 32" xml:space="preserve">
<path d="M0,0v16h10v2H8v2h4v-4h2v-2H2v-2h20V0H0z M20,10H2V2h18V10z M26.6,25.19C27.48,24.02,28,22.58,28,21c0-3.87-3.13-7-7-7
	s-7,3.13-7,7s3.13,7,7,7c1.58,0,3.02-0.52,4.19-1.4l5.1,5.11l1.42-1.42L26.6,25.19z M21,26c-2.76,0-5-2.24-5-5s2.24-5,5-5
	s5,2.24,5,5S23.76,26,21,26z M24,20v2h-2v2h-2v-2h-2v-2h2v-2h2v2H24z"/>
</svg>
