<?xml version="1.0" encoding="utf-8"?>
<!-- Generator: Adobe Illustrator 16.0.0, SVG Export Plug-In . SVG Version: 6.00 Build 0)  -->
<!DOCTYPE svg PUBLIC "-//W3C//DTD SVG 1.1//EN" "http://www.w3.org/Graphics/SVG/1.1/DTD/svg11.dtd">
<svg version="1.1" id="Capa_1" xmlns="http://www.w3.org/2000/svg" xmlns:xlink="http://www.w3.org/1999/xlink" x="0px" y="0px"
	 width="32px" height="32px" viewBox="0 0 32 32" enable-background="new 0 0 32 32" xml:space="preserve">
<path d="M15,2C6.72,2,0,8.72,0,17c0,8.28,6.72,15,15,15c8.28,0,15-6.72,15-15C30,8.72,23.28,2,15,2z M2,17C2,9.83,7.83,4,15,4
	c3.22,0,6.19,1.18,8.46,3.13L5.13,25.46C3.18,23.19,2,20.22,2,17z M15,30c-3.22,0-6.19-1.18-8.46-3.13L24.87,8.54
	C26.82,10.81,28,13.78,28,17C28,24.17,22.17,30,15,30z"/>
</svg>
