<?xml version="1.0" encoding="utf-8"?>
<!-- Generator: Adobe Illustrator 16.0.0, SVG Export Plug-In . SVG Version: 6.00 Build 0)  -->
<!DOCTYPE svg PUBLIC "-//W3C//DTD SVG 1.1//EN" "http://www.w3.org/Graphics/SVG/1.1/DTD/svg11.dtd">
<svg version="1.1" id="Capa_1" xmlns="http://www.w3.org/2000/svg" xmlns:xlink="http://www.w3.org/1999/xlink" x="0px" y="0px"
	 width="32px" height="32px" viewBox="0 0 32 32" enable-background="new 0 0 32 32" xml:space="preserve">
<path d="M22.1,25.78C23.29,24.53,24,22.85,24,21c0-3.87-3.13-7-7-7s-7,3.13-7,7s3.13,7,7,7c1.3,0,2.51-0.35,3.55-0.97l3.67,4.59
	l1.561-1.24L22.1,25.78z M17,26c-2.76,0-5-2.24-5-5s2.24-5,5-5s5,2.24,5,5S19.76,26,17,26z M30,2H16l-2-2H2c0,0-2,0-2,2v20
	c0,0,0,2,2,2h6v-2H2V2c0.02,0,11.17,0,11.17,0l2,2H30v18h-4v2h4c0,0,2,0,2-2V4C32,4,32,2,30,2z"/>
</svg>
