<?xml version="1.0" encoding="utf-8"?>
<!-- Generator: Adobe Illustrator 16.0.0, SVG Export Plug-In . SVG Version: 6.00 Build 0)  -->
<!DOCTYPE svg PUBLIC "-//W3C//DTD SVG 1.1//EN" "http://www.w3.org/Graphics/SVG/1.1/DTD/svg11.dtd">
<svg version="1.1" id="Capa_1" xmlns="http://www.w3.org/2000/svg" xmlns:xlink="http://www.w3.org/1999/xlink" x="0px" y="0px"
	 width="32px" height="32px" viewBox="0 0 32 32" enable-background="new 0 0 32 32" xml:space="preserve">
<path d="M8,16v7.54l6,3.99V32h2v-4.47l6-3.99V16H8z M20,22.46l-5,3.34l-5-3.34V18h10V22.46z M30,8v12h-6v-2h4v-8H2v8h4v2H0V8h2V4h2
	v4H30z M24,14h2v-2h-2V14z M20,14h2v-2h-2V14z M16,14h2v-2h-2V14z M2,0v2h2V0H2z"/>
</svg>
