<?xml version="1.0" encoding="utf-8"?>
<!-- Generator: Adobe Illustrator 16.0.0, SVG Export Plug-In . SVG Version: 6.00 Build 0)  -->
<!DOCTYPE svg PUBLIC "-//W3C//DTD SVG 1.1//EN" "http://www.w3.org/Graphics/SVG/1.1/DTD/svg11.dtd">
<svg version="1.1" id="Capa_1" xmlns="http://www.w3.org/2000/svg" xmlns:xlink="http://www.w3.org/1999/xlink" x="0px" y="0px"
	 width="32px" height="32px" viewBox="0 0 32 32" enable-background="new 0 0 32 32" xml:space="preserve">
<path d="M28,12v-2h-4c0-2.77-1.67-8-8-8s-8,5.23-8,8H4v2h8v4h-0.99C10.55,15.99,10,15.81,10,15v-1H8v1c0,2.2,1.79,3,3,3h1v2H4v2h4
	c0,2.77,1.67,8,8,8s8-5.23,8-8h4v-2h-8v-4h0.99c0.46,0.01,1.01,0.19,1.01,1v1h2v-1c0-2.2-1.79-3-3-3h-1v-2H28z M22,22
	c0,0.609-0.21,6-6,6s-6-5.391-6-6h2c0,2.21,1.79,4,4,4s4-1.79,4-4H22z M18,12v8h-4v-8H18z M14,10c0-1.1,0.9-2,2-2c1.1,0,2,0.9,2,2
	H14z M18,22c0,1.1-0.9,2-2,2c-1.1,0-2-0.9-2-2H18z M16,6c-2.21,0-4,1.79-4,4h-2c0-0.61,0.21-6,6-6s6,5.39,6,6h-2
	C20,7.79,18.21,6,16,6z"/>
</svg>
