<?xml version="1.0" encoding="utf-8"?>
<!-- Generator: Adobe Illustrator 16.0.0, SVG Export Plug-In . SVG Version: 6.00 Build 0)  -->
<!DOCTYPE svg PUBLIC "-//W3C//DTD SVG 1.1//EN" "http://www.w3.org/Graphics/SVG/1.1/DTD/svg11.dtd">
<svg version="1.1" id="Capa_1" xmlns="http://www.w3.org/2000/svg" xmlns:xlink="http://www.w3.org/1999/xlink" x="0px" y="0px"
	 width="32px" height="32px" viewBox="0 0 32 32" enable-background="new 0 0 32 32" xml:space="preserve">
<path d="M16,2c-6.33,0-8,5.23-8,8h2c0-0.61,0.21-6,6-6s6,5.39,6,6v2h2v-2C24,7.23,22.33,2,16,2z M21,14h-1v-2c0-2.21-1.79-4-4-4
	s-4,1.79-4,4v4h-0.99C10.55,15.99,10,15.81,10,15v-3H8v3c0,2.2,1.79,3,3,3h1v2c0,2.21,1.79,4,4,4s4-1.79,4-4v-4h0.99
	c0.46,0.01,1.01,0.19,1.01,1v3h2v-3C24,14.8,22.21,14,21,14z M18,20c0,1.1-0.9,2-2,2c-1.1,0-2-0.9-2-2v-8c0-1.1,0.9-2,2-2
	c1.1,0,2,0.9,2,2V20z M22,22c0,0.61-0.21,6-6,6s-6-5.39-6-6v-2H8v2c0,2.77,1.67,8,8,8s8-5.23,8-8H22z"/>
</svg>
