<?xml version="1.0" encoding="utf-8"?>
<!-- Generator: Adobe Illustrator 16.0.0, SVG Export Plug-In . SVG Version: 6.00 Build 0)  -->
<!DOCTYPE svg PUBLIC "-//W3C//DTD SVG 1.1//EN" "http://www.w3.org/Graphics/SVG/1.1/DTD/svg11.dtd">
<svg version="1.1" id="Capa_1" xmlns="http://www.w3.org/2000/svg" xmlns:xlink="http://www.w3.org/1999/xlink" x="0px" y="0px"
	 width="32px" height="32px" viewBox="0 0 32 32" enable-background="new 0 0 32 32" xml:space="preserve">
<path d="M15.71,8.29c-0.39-0.39-1.03-0.39-1.42,0L8,14.59V13c0-0.32-0.15-0.62-0.42-0.81c-0.26-0.19-0.59-0.24-0.9-0.14
	C6.41,12.14,0,14.38,0,23c0,6.85,5.46,8.85,8.64,8.99C8.77,32,8.89,32,9,32c0.22,0,0.46-0.02,0.71-0.05C12.13,31.721,20,30.24,20,21
	C20,12.68,15.88,8.47,15.71,8.29z M12,27c0,2.46-1.91,2.9-2.72,2.99C9.16,30,9.06,30,9,30c-0.07,0-0.17-0.01-0.3-0.01
	C7.88,29.9,6,29.439,6,27c0-2.08,3.25-4.68,6-6.311V27z M13.74,28.77C13.91,28.26,14,27.67,14,27v-8c0-0.35-0.18-0.67-0.47-0.85
	c-0.3-0.182-0.67-0.2-0.98-0.041C11.68,18.54,4,22.51,4,27c0,0.439,0.04,0.85,0.12,1.221C2.93,27.189,2,25.57,2,23
	c0-4.92,2.42-7.32,4-8.36V17c0,0.4,0.24,0.77,0.62,0.92c0.37,0.16,0.8,0.07,1.09-0.21l7.21-7.22C15.98,11.96,18,15.48,18,21
	C18,25.359,15.91,27.609,13.74,28.77z M32,6V4H16v2h10v6h-4v10h4v6h-6v2h12v-2h-4v-6h4v-2h-8v-6h8v-2h-4V6H32z"/>
</svg>
