<?xml version="1.0" encoding="utf-8"?>
<!-- Generator: Adobe Illustrator 16.0.0, SVG Export Plug-In . SVG Version: 6.00 Build 0)  -->
<!DOCTYPE svg PUBLIC "-//W3C//DTD SVG 1.1//EN" "http://www.w3.org/Graphics/SVG/1.1/DTD/svg11.dtd">
<svg version="1.1" id="Capa_1" xmlns="http://www.w3.org/2000/svg" xmlns:xlink="http://www.w3.org/1999/xlink" x="0px" y="0px"
	 width="32px" height="32px" viewBox="0 0 32 32" enable-background="new 0 0 32 32" xml:space="preserve">
<path d="M10.87,22.54c-0.04,0.71,0.11,1.3,0.3,1.729l4.42-4.42H20v4.42l-4.42,4.421c0.4,0.17,0.91,0.31,1.54,0.31
	c1.89,0,4-1.31,6.12-3.79c1.09-1.28,1.3-2.6,1.109-3.77c-0.109-0.74-0.38-1.421-0.699-2L30,13.37v2.55l-3.93,4.15
	c0.609,1.96,0.529,4.279-1.311,6.43c-2.54,2.99-5.109,4.5-7.64,4.5c-2.36,0-3.77-1.38-3.83-1.44l-0.7-0.71L18,23.44V21.85h-1.59
	L11,27.27l-0.71-0.71c-0.06-0.06-1.52-1.55-1.42-4.05c0.09-2.45,1.6-4.95,4.48-7.41c1.28-1.1,2.72-1.66,4.28-1.66
	c1.14,0,2.18,0.29,3.07,0.68l9.3-8.4v2.56l-9.08,8.23c-0.59-0.37-1.31-0.72-2.07-0.91c-0.399-0.1-0.81-0.16-1.22-0.16
	c-1.07,0-2.07,0.4-2.98,1.17C12.27,18.66,10.96,20.71,10.87,22.54z M18.27,0.32L6.04,13.49L1.77,8.36L0.23,9.64l5.73,6.87
	L19.73,1.68L18.27,0.32z"/>
</svg>
