<?xml version="1.0" encoding="utf-8"?>
<!-- Generator: Adobe Illustrator 16.0.0, SVG Export Plug-In . SVG Version: 6.00 Build 0)  -->
<!DOCTYPE svg PUBLIC "-//W3C//DTD SVG 1.1//EN" "http://www.w3.org/Graphics/SVG/1.1/DTD/svg11.dtd">
<svg version="1.1" id="Capa_1" xmlns="http://www.w3.org/2000/svg" xmlns:xlink="http://www.w3.org/1999/xlink" x="0px" y="0px"
	 width="32px" height="32px" viewBox="0 0 32 32" enable-background="new 0 0 32 32" xml:space="preserve">
<path d="M0,24h32v2H0V24z M0,30h32v-2H0V30z M28,18v2h4v2H0v-2h4v-2H0v-2h4V4h24v12h4v2H28z M7.58,6L16,13.65L24.42,6H7.58z
	 M6,17.391l3.93-6.561L6,7.26V17.391z M25.23,20l-4.67-7.79L16,16.35l-4.56-4.14L6.77,20H25.23z M26,7.26l-3.93,3.57L26,17.391V7.26
	z"/>
</svg>
