<?xml version="1.0" encoding="utf-8"?>
<!-- Generator: Adobe Illustrator 16.0.0, SVG Export Plug-In . SVG Version: 6.00 Build 0)  -->
<!DOCTYPE svg PUBLIC "-//W3C//DTD SVG 1.1//EN" "http://www.w3.org/Graphics/SVG/1.1/DTD/svg11.dtd">
<svg version="1.1" id="Capa_1" xmlns="http://www.w3.org/2000/svg" xmlns:xlink="http://www.w3.org/1999/xlink" x="0px" y="0px"
	 width="32px" height="32px" viewBox="0 0 32 32" enable-background="new 0 0 32 32" xml:space="preserve">
<path d="M13.95,6.68c-0.09-0.25-0.27-0.46-0.5-0.57l-8-4C5.14,1.95,4.77,1.97,4.47,2.15C4.18,2.33,4,2.65,4,3c0,2.42,1.04,7,5,7
	c3.58,0,4.84-2.45,4.89-2.55C14.01,7.21,14.03,6.94,13.95,6.68z M9,8C7.2,8,6.48,6.16,6.19,4.71l5.19,2.6C10.89,7.66,10.13,8,9,8z
	 M27.53,2.15c-0.3-0.18-0.67-0.2-0.98-0.04l-8,4c-0.49,0.24-0.689,0.84-0.439,1.34C18.16,7.55,19.42,10,23,10c3.96,0,5-4.58,5-7
	C28,2.65,27.82,2.33,27.53,2.15z M23,8c-1.13,0-1.9-0.34-2.38-0.69l5.189-2.6C25.52,6.16,24.8,8,23,8z M8,16v12h16V16H8z M22,26H10
	v-4h12V26z M22,20H10v-2h12V20z M10,14v-2H2v20h8v-2H4V14H10z M22,12v2h6v16h-6v2h8V12H22z"/>
</svg>
