<?xml version="1.0" encoding="utf-8"?>
<!-- Generator: Adobe Illustrator 16.0.0, SVG Export Plug-In . SVG Version: 6.00 Build 0)  -->
<!DOCTYPE svg PUBLIC "-//W3C//DTD SVG 1.1//EN" "http://www.w3.org/Graphics/SVG/1.1/DTD/svg11.dtd">
<svg version="1.1" id="Capa_1" xmlns="http://www.w3.org/2000/svg" xmlns:xlink="http://www.w3.org/1999/xlink" x="0px" y="0px"
	 width="32px" height="32px" viewBox="0 0 32 32" enable-background="new 0 0 32 32" xml:space="preserve">
<path d="M17,0C10.47,0,4.91,4.18,2.86,10H5c0.29-0.7,0.64-1.37,1.05-2h2.91c-0.17,0.7-0.32,1.37-0.43,2h2.05
	c0.12-0.64,0.27-1.31,0.46-2H16v2h2V8h4.96c0.67,2.47,0.96,4.76,1.04,6v2h5.96c-0.17,2.19-0.88,4.24-2.01,6H24v2h2.37
	c-0.71,0.74-1.5,1.39-2.37,1.94v2.329c4.76-2.52,8-7.52,8-13.27C32,6.72,25.28,0,17,0z M9.53,6h-1.9c0.8-0.84,1.72-1.57,2.72-2.16
	C10.03,4.56,9.76,5.29,9.53,6z M16,6h-4.34c0.4-1.15,0.91-2.32,1.55-3.43C14.1,2.29,15.04,2.11,16,2.05V6z M18,6V2.05
	c0.96,0.06,1.89,0.24,2.78,0.52C21.43,3.68,21.94,4.85,22.33,6H18z M23.66,3.84c1,0.6,1.91,1.32,2.71,2.16h-1.9
	C24.24,5.29,23.97,4.56,23.66,3.84z M25.97,14c-0.069-1.22-0.29-3.45-0.92-6h2.9c1.13,1.76,1.84,3.81,2.01,6H25.97z M22,28V12H0v16
	h10v2H8v2h6v-2h-2v-2H22z M2,14h18v8H2V14z M2,26v-2h18v2H2z"/>
</svg>
