<?xml version="1.0" encoding="utf-8"?>
<!-- Generator: Adobe Illustrator 16.0.0, SVG Export Plug-In . SVG Version: 6.00 Build 0)  -->
<!DOCTYPE svg PUBLIC "-//W3C//DTD SVG 1.1//EN" "http://www.w3.org/Graphics/SVG/1.1/DTD/svg11.dtd">
<svg version="1.1" id="Capa_1" xmlns="http://www.w3.org/2000/svg" xmlns:xlink="http://www.w3.org/1999/xlink" x="0px" y="0px"
	 width="32px" height="32px" viewBox="0 0 32 32" enable-background="new 0 0 32 32" xml:space="preserve">
<path d="M22,28V12H0v16h10v2H8v2h6v-2h-2v-2H22z M2,14h18v8H2V14z M2,26v-2h18v2H2z M26.94,11.06C26.6,8.32,24.74,5.8,21.5,5.8
	c-0.26,0-0.52,0.02-0.79,0.05C19.42,1.76,16.77,0,12,0C9.24,0,7.03,0.86,5.61,2.5C4.2,4.12,3.52,6.52,4,10h2.01L5.99,9.86
	C5.6,7.15,5.98,5.12,7.12,3.81C8.42,2.31,10.49,2,12,2c4.78,0,6.2,1.92,7.03,5.24l0.239,0.97c0,0,0.918-0.397,2.23-0.41
	C23.9,7.776,25,9.98,25,12v1h1c2.32,0,4,1.46,4,3.48c0,1.98-1.61,3.52-3,3.52h-3v2h3c2.66,0,5-2.58,5-5.52
	C32,13.65,29.88,11.45,26.94,11.06z"/>
</svg>
