<?xml version="1.0" encoding="utf-8"?>
<!-- Generator: Adobe Illustrator 16.0.0, SVG Export Plug-In . SVG Version: 6.00 Build 0)  -->
<!DOCTYPE svg PUBLIC "-//W3C//DTD SVG 1.1//EN" "http://www.w3.org/Graphics/SVG/1.1/DTD/svg11.dtd">
<svg version="1.1" id="Capa_1" xmlns="http://www.w3.org/2000/svg" xmlns:xlink="http://www.w3.org/1999/xlink" x="0px" y="0px"
	 width="32px" height="32px" viewBox="0 0 32 32" enable-background="new 0 0 32 32" xml:space="preserve">
<path d="M13.95,18.68c-0.09-0.25-0.27-0.46-0.5-0.569l-8-4c-0.31-0.16-0.68-0.14-0.98,0.04C4.18,14.33,4,14.65,4,15
	c0,2.42,1.04,7,5,7c3.58,0,4.84-2.45,4.89-2.55C14.01,19.21,14.03,18.94,13.95,18.68z M9,20c-1.8,0-2.52-1.84-2.81-3.29l5.19,2.6
	C10.89,19.66,10.13,20,9,20z M25.53,14.15c-0.3-0.18-0.67-0.2-0.98-0.04l-8,4c-0.49,0.239-0.69,0.84-0.44,1.34
	C16.16,19.55,17.42,22,21,22c3.96,0,5-4.58,5-7C26,14.65,25.82,14.33,25.53,14.15z M21,20c-1.13,0-1.9-0.34-2.38-0.69l5.189-2.6
	C23.52,18.16,22.8,20,21,20z M14,2v8h2V2H14z M14,12v2h2v-2H14z M19,2h-1v2h1c8.86,0,9,8.63,9,9v7.59L24.59,24H20v4H10v-4H5.41
	L2,20.59V13c0-0.37,0.1-9,9-9h1V2h-1C0.13,2,0,12.89,0,13v8.41L4.59,26H8v3c0,0.55,0.45,1,1,1h12c0.55,0,1-0.45,1-1v-3h3.41
	L30,21.41V13C30,12.89,29.87,2,19,2z"/>
</svg>
