<?xml version="1.0" encoding="utf-8"?>
<!-- Generator: Adobe Illustrator 16.0.0, SVG Export Plug-In . SVG Version: 6.00 Build 0)  -->
<!DOCTYPE svg PUBLIC "-//W3C//DTD SVG 1.1//EN" "http://www.w3.org/Graphics/SVG/1.1/DTD/svg11.dtd">
<svg version="1.1" id="Capa_1" xmlns="http://www.w3.org/2000/svg" xmlns:xlink="http://www.w3.org/1999/xlink" x="0px" y="0px"
	 width="32px" height="32px" viewBox="0 0 32 32" enable-background="new 0 0 32 32" xml:space="preserve">
<path d="M12,30H4v-7.414l8.532-8.532C12.179,13.086,12,12.062,12,11c0-4.962,4.038-9,9-9c4.963,0,9,4.038,9,9s-4.037,9-9,9
	c-0.332,0-0.666-0.02-1-0.057V22h-2v2h-2v2h-2v2h-2V30z M6,28h4v-2h2v-2h2v-2h2v-2h2v-2.531l1.243,0.313
	C19.826,17.926,20.417,18,21,18c3.859,0,7-3.14,7-7s-3.141-7-7-7s-7,3.14-7,7c0,1.014,0.208,1.98,0.619,2.872l0.291,0.633L6,23.414
	V28z M23,8c0.552,0,1,0.449,1,1s-0.448,1-1,1s-1-0.449-1-1S22.448,8,23,8 M23,6c-1.657,0-3,1.343-3,3s1.343,3,3,3s3-1.343,3-3
	S24.657,6,23,6L23,6z"/>
</svg>
