<?xml version="1.0" encoding="utf-8"?>
<!-- Generator: Adobe Illustrator 16.0.0, SVG Export Plug-In . SVG Version: 6.00 Build 0)  -->
<!DOCTYPE svg PUBLIC "-//W3C//DTD SVG 1.1//EN" "http://www.w3.org/Graphics/SVG/1.1/DTD/svg11.dtd">
<svg version="1.1" id="Capa_1" xmlns="http://www.w3.org/2000/svg" xmlns:xlink="http://www.w3.org/1999/xlink" x="0px" y="0px"
	 width="32px" height="32px" viewBox="0 0 32 32" enable-background="new 0 0 32 32" xml:space="preserve">
<path d="M16,12v2h8v-2H16z M16,8v2h2V8H16z M12,12v2h2v-2H12z M12,8v2h2V8H12z M8,12v2h2v-2H8z M8,8v2h2V8H8z M20,8v2h4V8H20z
	 M16,14h8v-2h-8V14z M20,8v2h4V8H20z M18,8h-2v2h2V8z M12,14h2v-2h-2V14z M12,10h2V8h-2V10z M8,14h2v-2H8V14z M8,10h2V8H8V10z M26,4
	H6L2,18h28L26,4z M7.51,6h16.98l2.859,10H4.65L7.51,6z M16,14h8v-2h-8V14z M20,10h4V8h-4V10z M18,8h-2v2h2V8z M12,14h2v-2h-2V14z
	 M12,10h2V8h-2V10z M8,14h2v-2H8V14z M8,10h2V8H8V10z M22,20v8h8v-8H22z M28,26h-4v-4h4V26z M12,20v8h8v-8H12z M18,26h-4v-4h4V26z
	 M2,20v8h8v-8H2z M8,26H4v-4h4V26z"/>
</svg>
