<?xml version="1.0" encoding="utf-8"?>
<!-- Generator: Adobe Illustrator 16.0.0, SVG Export Plug-In . SVG Version: 6.00 Build 0)  -->
<!DOCTYPE svg PUBLIC "-//W3C//DTD SVG 1.1//EN" "http://www.w3.org/Graphics/SVG/1.1/DTD/svg11.dtd">
<svg version="1.1" id="Capa_1" xmlns="http://www.w3.org/2000/svg" xmlns:xlink="http://www.w3.org/1999/xlink" x="0px" y="0px"
	 width="32px" height="32px" viewBox="0 0 32 32" enable-background="new 0 0 32 32" xml:space="preserve">
<path d="M23.707,3.707l-1.414-1.414l2-2l1.414,1.414L23.707,3.707z M9.707,2.293l-2-2L6.293,1.707l2,2L9.707,2.293z M8,8H5v2h3V8z
	 M27,8h-3v2h3V8z M22,12.39v2c3.04,0.41,5.14,1.08,6,1.61c-1.04,0.64-3.88,1.48-8,1.83v-5.37c1.23-1.09,2-2.69,2-4.46
	c0-3.31-2.69-6-6-6c-3.31,0-6,2.69-6,6c0,1.77,0.77,3.37,2,4.46v5.37C7.88,17.48,5.04,16.64,4,16c0.86-0.53,2.96-1.2,6-1.61v-2
	C5.27,13.03,2,14.4,2,16v12c0,2.21,6.27,4,14,4c7.73,0,14-1.79,14-4V16C30,14.4,26.73,13.03,22,12.39z M16,4c2.21,0,4,1.79,4,4
	s-1.79,4-4,4s-4-1.79-4-4S13.79,4,16,4z M18,13.65v4.31C17.36,17.99,16.69,18,16,18s-1.36-0.01-2-0.04v-4.31
	c0.63,0.23,1.3,0.35,2,0.35S17.37,13.88,18,13.65z M28,28c-1.35,0.83-5.73,2-12,2c-6.27,0-10.65-1.17-12-2v-3.94
	C4.74,24.41,5.67,24.73,6.75,25c2.47,0.62,5.71,1,9.25,1s6.78-0.38,9.25-1c1.08-0.27,2.01-0.59,2.75-0.94V28z M28,22
	c-1.35,0.83-5.73,2-12,2c-6.27,0-10.65-1.17-12-2v-3.94C4.74,18.41,5.67,18.73,6.75,19c1.5,0.38,3.28,0.66,5.25,0.83
	c0.65,0.06,1.32,0.1,2,0.12c0.65,0.04,1.32,0.05,2,0.05s1.35-0.01,2-0.05c0.68-0.021,1.35-0.061,2-0.12
	c1.97-0.17,3.75-0.45,5.25-0.83c1.08-0.27,2.01-0.59,2.75-0.94V22z"/>
</svg>
