<?xml version="1.0" encoding="utf-8"?>
<!-- Generator: Adobe Illustrator 16.0.0, SVG Export Plug-In . SVG Version: 6.00 Build 0)  -->
<!DOCTYPE svg PUBLIC "-//W3C//DTD SVG 1.1//EN" "http://www.w3.org/Graphics/SVG/1.1/DTD/svg11.dtd">
<svg version="1.1" id="Capa_1" xmlns="http://www.w3.org/2000/svg" xmlns:xlink="http://www.w3.org/1999/xlink" x="0px" y="0px"
	 width="32px" height="32px" viewBox="0 0 32 32" enable-background="new 0 0 32 32" xml:space="preserve">
<path d="M21,0H6C4,0,4,2,4,2v28c0,2,2,2,2,2h20c2,0,2-2,2-2V7L21,0z M26,30H6V2h12v5c0,1.21,0.8,3,3,3h5V30z M26,8h-5
	c-0.81,0-0.99-0.55-1-1V2h0.17L26,7.83V8z M14,10v2H8v14h6v2l10-2V12L14,10z M14,24h-4V14h4V24z M22,24.36l-6,1.199V12.44l6,1.2
	V24.36z"/>
</svg>
