<?xml version="1.0" encoding="utf-8"?>
<!-- Generator: Adobe Illustrator 16.0.0, SVG Export Plug-In . SVG Version: 6.00 Build 0)  -->
<!DOCTYPE svg PUBLIC "-//W3C//DTD SVG 1.1//EN" "http://www.w3.org/Graphics/SVG/1.1/DTD/svg11.dtd">
<svg version="1.1" id="Capa_1" xmlns="http://www.w3.org/2000/svg" xmlns:xlink="http://www.w3.org/1999/xlink" x="0px" y="0px"
	 width="32px" height="32px" viewBox="0 0 32 32" enable-background="new 0 0 32 32" xml:space="preserve">
<path d="M7,14c-0.2,0-5-0.06-5-5c0-4.82,4.49-5,5-5h6c2.82,0,2.99,2.5,3,3c0,2.82-2.5,2.99-3,3H7.01C6.55,9.99,6,9.8,6,9
	s0.55-0.99,1-1h7V6H7C5.79,6,4,6.8,4,9s1.79,3,3,3h6c1.73,0,5-1.04,5-5c0-1.73-1.04-5-5-5H7C4.58,2,0,3.46,0,9s4.58,7,7,7h3v14h22
	V14H7z M28.15,16L21,21.72L13.85,16H28.15z M12,17.08l4.18,3.34L12,26V17.08z M13,28l4.74-6.33L21,24.28l3.26-2.61L29,28H13z M30,26
	l-4.18-5.58L30,17.08V26z"/>
</svg>
