<?xml version="1.0" encoding="utf-8"?>
<!-- Generator: Adobe Illustrator 16.0.0, SVG Export Plug-In . SVG Version: 6.00 Build 0)  -->
<!DOCTYPE svg PUBLIC "-//W3C//DTD SVG 1.1//EN" "http://www.w3.org/Graphics/SVG/1.1/DTD/svg11.dtd">
<svg version="1.1" id="Capa_1" xmlns="http://www.w3.org/2000/svg" xmlns:xlink="http://www.w3.org/1999/xlink" x="0px" y="0px"
	 width="32px" height="32px" viewBox="0 0 32 32" enable-background="new 0 0 32 32" xml:space="preserve">
<path d="M4.72,20H2.63c0.42,1.57,1.04,2.88,1.8,4h2.51C6.02,22.96,5.24,21.65,4.72,20z M4,15c0-0.08,0.01-0.44,0.08-1H2.07
	C2,14.61,2,14.97,2,15c0,1.08,0.07,2.07,0.21,3h2.03C4.08,17.09,4,16.09,4,15z M4.07,8c-0.83,1.38-1.33,2.8-1.63,4h2.03
	c0.35-1.23,0.95-2.68,2-4H4.07z M16,2c-0.7,0-1.37,0.03-2,0.1C10,2.49,7.34,4.08,5.56,6h3.03C9.95,5.07,11.71,4.37,14,4.11
	C14.62,4.04,15.29,4,16,4c3.29,0,5.68,0.82,7.41,2h3.03C24.38,3.77,21.13,2,16,2z M27.93,8H25.53c1.05,1.32,1.649,2.77,2,4h2.029
	C29.26,10.8,28.76,9.38,27.93,8z M25,20c-0.12,0-3-0.04-3-2h-3c-0.91,1.21-2.37,2-4,2s-3.09-0.79-4-2H8.68c1.12,2.37,3.52,4,6.32,4
	c2.13,0,4.04-0.95,5.31-2.45C21.18,21.45,23.6,22,25,22c0.03,0,2.17-0.03,3.63-2H25z M10.1,14H8.08C8.02,14.32,8,14.66,8,15
	s0.02,0.68,0.08,1h2.02c-0.07-0.32-0.1-0.66-0.1-1S10.03,14.32,10.1,14z M21,8c-0.55,0-1,0.45-1,1v1.11C18.74,8.81,16.96,8,15,8
	c-2.8,0-5.2,1.63-6.32,4H11c0.91-1.21,2.37-2,4-2s3.09,0.79,4,2h3V9C22,8.45,21.55,8,21,8z M19.9,14c0.069,0.32,0.1,0.66,0.1,1
	s-0.03,0.68-0.1,1H22v-2H19.9z M29.93,14h-2.01c0.07,0.56,0.08,0.92,0.08,1c0,1.31-0.21,2.28-0.51,3H29.6c0.25-0.82,0.4-1.81,0.4-3
	C30,14.97,30,14.61,29.93,14z M25.62,26.38c-0.29-0.47-0.91-0.61-1.38-0.31C22.2,27.35,19.43,28,16,28c-0.24,0-3.12-0.04-6-1.59
	C9.76,26.29,9.53,26.15,9.29,26H6.11c1.22,1.16,2.58,1.99,3.89,2.58c3.1,1.39,5.94,1.42,6,1.42c3.81,0,6.95-0.75,9.31-2.24
	C25.78,27.46,25.92,26.85,25.62,26.38z"/>
</svg>
