<?xml version="1.0" encoding="utf-8"?>
<!-- Generator: Adobe Illustrator 16.0.0, SVG Export Plug-In . SVG Version: 6.00 Build 0)  -->
<!DOCTYPE svg PUBLIC "-//W3C//DTD SVG 1.1//EN" "http://www.w3.org/Graphics/SVG/1.1/DTD/svg11.dtd">
<svg version="1.1" id="Capa_1" xmlns="http://www.w3.org/2000/svg" xmlns:xlink="http://www.w3.org/1999/xlink" x="0px" y="0px"
	 width="32px" height="32px" viewBox="0 0 32 32" enable-background="new 0 0 32 32" xml:space="preserve">
<path d="M28,16V0H4v16h4v2H4v14h10v-6h4v6h10V18h-4v-2H28z M6,2h20v2H6V2z M12,30H6v-6h6V30z M12,22H6v-2h6V22z M18,24h-4v-6h-4v-2
	h12v2h-4V24z M26,30h-6v-6h6V30z M26,20v2h-6v-2H26z M6,14V6h20v8H6z"/>
</svg>
