<?xml version="1.0" encoding="utf-8"?>
<!-- Generator: Adobe Illustrator 16.0.0, SVG Export Plug-In . SVG Version: 6.00 Build 0)  -->
<!DOCTYPE svg PUBLIC "-//W3C//DTD SVG 1.1//EN" "http://www.w3.org/Graphics/SVG/1.1/DTD/svg11.dtd">
<svg version="1.1" id="Capa_1" xmlns="http://www.w3.org/2000/svg" xmlns:xlink="http://www.w3.org/1999/xlink" x="0px" y="0px"
	 width="32px" height="32px" viewBox="0 0 32 32" enable-background="new 0 0 32 32" xml:space="preserve">
<path d="M22.87,21.46C24.82,19.19,26,16.23,26,13c0-7.18-5.82-13-13-13C5.82,0,0,5.82,0,13c0,7.18,5.82,13,13,13
	c3.23,0,6.19-1.18,8.46-3.13l8.83,8.84l1.42-1.42L22.87,21.46z M13,2c5.73,0,10.45,4.4,10.95,10h-5.36l-3.54,3.54L7.94,7.41L4.5,12
	H2.05C2.55,6.4,7.27,2,13,2z M13,24C7.27,24,2.55,19.6,2.05,14H5.5l2.56-3.41l6.89,7.87L19.41,14h4.54C23.45,19.6,18.73,24,13,24z"
	/>
</svg>
