<?xml version="1.0" encoding="utf-8"?>
<!-- Generator: Adobe Illustrator 16.0.0, SVG Export Plug-In . SVG Version: 6.00 Build 0)  -->
<!DOCTYPE svg PUBLIC "-//W3C//DTD SVG 1.1//EN" "http://www.w3.org/Graphics/SVG/1.1/DTD/svg11.dtd">
<svg version="1.1" id="Capa_1" xmlns="http://www.w3.org/2000/svg" xmlns:xlink="http://www.w3.org/1999/xlink" x="0px" y="0px"
	 width="32px" height="32px" viewBox="0 0 32 32" enable-background="new 0 0 32 32" xml:space="preserve">
<path d="M26,12V4c0-1.1-0.9-2-2-2H6C4.9,2,4,2.9,4,4v8H2v9.62l12,6V32h2v-4.38l12-6V12H26z M14,4h10v8H14V4z M6,4h6v4H6V4z M6,10h6
	v2H6V10z M26,20.38l-11,5.5l-11-5.5V14h22V20.38z M18,6v2h4V6H18z"/>
</svg>
