<?xml version="1.0" encoding="utf-8"?>
<!-- Generator: Adobe Illustrator 16.0.0, SVG Export Plug-In . SVG Version: 6.00 Build 0)  -->
<!DOCTYPE svg PUBLIC "-//W3C//DTD SVG 1.1//EN" "http://www.w3.org/Graphics/SVG/1.1/DTD/svg11.dtd">
<svg version="1.1" id="Capa_1" xmlns="http://www.w3.org/2000/svg" xmlns:xlink="http://www.w3.org/1999/xlink" x="0px" y="0px"
	 width="32px" height="32px" viewBox="0 0 32 32" enable-background="new 0 0 32 32" xml:space="preserve">
<path d="M30,6H2C0.9,6,0,6.9,0,8v16c0,1.1,0.9,2,2,2h28c1.1,0,2-0.9,2-2V8C32,6.9,31.1,6,30,6z M14,24H2v-8h12V24z M14,14H2V8h12V14
	z M30,24H16v-6h14V24z M30,16H16V8h14V16z M20,10v2h8v-2H20z"/>
</svg>
