<?xml version="1.0" encoding="utf-8"?>
<!-- Generator: Adobe Illustrator 16.0.0, SVG Export Plug-In . SVG Version: 6.00 Build 0)  -->
<!DOCTYPE svg PUBLIC "-//W3C//DTD SVG 1.1//EN" "http://www.w3.org/Graphics/SVG/1.1/DTD/svg11.dtd">
<svg version="1.1" id="Capa_1" xmlns="http://www.w3.org/2000/svg" xmlns:xlink="http://www.w3.org/1999/xlink" x="0px" y="0px"
	 width="32px" height="32px" viewBox="0 0 32 32" enable-background="new 0 0 32 32" xml:space="preserve">
<path d="M8,12c1.065,0,2,1.402,2,3c0,1.598-0.935,3-2,3s-2-1.402-2-3C6,13.402,6.935,12,8,12 M8,10c-2.209,0-4,2.238-4,5
	s1.791,5,4,5s4-2.238,4-5S10.209,10,8,10L8,10z M16,30H0v-1c0-8.897,4.796-9,5-9h0.414L8,22.586L10.586,20H11c0.204,0,5,0.103,5,9
	V30z M2.022,28h11.955c-0.214-4.576-1.891-5.663-2.643-5.921L8,25.414l-3.338-3.338C3.926,22.327,2.237,23.404,2.022,28z M22,4
	c2.206,0,4,2.243,4,5s-1.794,5-4,5s-4-2.243-4-5S19.794,4,22,4 M22,2c-3.313,0-6,3.134-6,7s2.687,7,6,7s6-3.133,6-7S25.313,2,22,2
	L22,2z M25.32,16.05l-0.59-0.19L22,18.59l-2.73-2.73l-0.59,0.19c-0.149,0.05-2.28,0.8-4.08,3.36c0.48,0.39,0.95,0.88,1.38,1.51
	c1.01-1.57,2.15-2.36,2.8-2.72L22,21.41l3.21-3.21c1.29,0.71,4.48,3.14,4.771,9.8H18v2h14v-1C32,18.4,25.59,16.14,25.32,16.05z"/>
</svg>
