<?xml version="1.0" encoding="utf-8"?>
<!-- Generator: Adobe Illustrator 16.0.0, SVG Export Plug-In . SVG Version: 6.00 Build 0)  -->
<!DOCTYPE svg PUBLIC "-//W3C//DTD SVG 1.1//EN" "http://www.w3.org/Graphics/SVG/1.1/DTD/svg11.dtd">
<svg version="1.1" id="Capa_1" xmlns="http://www.w3.org/2000/svg" xmlns:xlink="http://www.w3.org/1999/xlink" x="0px" y="0px"
	 width="32px" height="32px" viewBox="0 0 32 32" enable-background="new 0 0 32 32" xml:space="preserve">
<path d="M27,22H3c-1.206,0-3-0.799-3-3v-6c0-1.206,0.799-3,3-3h24c1.206,0,3,0.799,3,3v6C30,20.206,29.201,22,27,22z M26.988,12H3
	c-0.805,0-0.988,0.55-1,1.012V19c0,0.807,0.55,0.988,1.012,1H27c0.807,0,0.988-0.55,1-1.012V13C28,12.195,27.45,12.012,26.988,12z
	 M4,16c0,1.104,0.896,2,2,2s2-0.896,2-2s-0.896-2-2-2S4,14.896,4,16z M10,16c0,1.104,0.896,2,2,2s2-0.896,2-2s-0.896-2-2-2
	S10,14.896,10,16z M16,16c0,1.104,0.896,2,2,2s2-0.896,2-2s-0.896-2-2-2S16,14.896,16,16z M22,16c0,1.104,0.896,2,2,2s2-0.896,2-2
	s-0.896-2-2-2S22,14.896,22,16z M0,26h30v-2H0V26z"/>
</svg>
