<?xml version="1.0" encoding="utf-8"?>
<!-- Generator: Adobe Illustrator 16.0.0, SVG Export Plug-In . SVG Version: 6.00 Build 0)  -->
<!DOCTYPE svg PUBLIC "-//W3C//DTD SVG 1.1//EN" "http://www.w3.org/Graphics/SVG/1.1/DTD/svg11.dtd">
<svg version="1.1" id="Capa_1" xmlns="http://www.w3.org/2000/svg" xmlns:xlink="http://www.w3.org/1999/xlink" x="0px" y="0px"
	 width="32px" height="32px" viewBox="0 0 32 32" enable-background="new 0 0 32 32" xml:space="preserve">
<path d="M24,12V9c0-0.07-0.09-7-8-7S8,8.93,8,9v3H4v16h24V12H24z M10,9c0-0.2,0.07-5,6-5c5.779,0,6,4.49,6,5v3H10V9z M26,26H6V14h20
	V26z M10,18c-1.1,0-2,0.9-2,2s0.9,2,2,2s2-0.9,2-2S11.1,18,10,18z M16,18c-1.1,0-2,0.9-2,2s0.9,2,2,2c1.1,0,2-0.9,2-2S17.1,18,16,18
	z M22,18c-1.1,0-2,0.9-2,2s0.9,2,2,2s2-0.9,2-2S23.1,18,22,18z"/>
</svg>
