<?xml version="1.0" encoding="utf-8"?>
<!-- Generator: Adobe Illustrator 16.0.0, SVG Export Plug-In . SVG Version: 6.00 Build 0)  -->
<!DOCTYPE svg PUBLIC "-//W3C//DTD SVG 1.1//EN" "http://www.w3.org/Graphics/SVG/1.1/DTD/svg11.dtd">
<svg version="1.1" id="Capa_1" xmlns="http://www.w3.org/2000/svg" xmlns:xlink="http://www.w3.org/1999/xlink" x="0px" y="0px"
	 width="32px" height="32px" viewBox="0 0 32 32" enable-background="new 0 0 32 32" xml:space="preserve">
<path d="M22,10V7c0-1.73-1.25-5-6-5s-6,3.27-6,5v3H8v12h16V10H22z M12,7c0-0.12,0.05-3,4-3c3.83,0,3.99,2.7,4,3v3h-8V7z M22,20H10
	v-8h12V20z M26,20v2h4v6H2v-6h4v-2H0v10h32V20H26z M4,26h6v-2H4V26z M22,26h6v-2h-6V26z M12,26h8v-2h-8V26z"/>
</svg>
