<?xml version="1.0" encoding="utf-8"?>
<!-- Generator: Adobe Illustrator 16.0.0, SVG Export Plug-In . SVG Version: 6.00 Build 0)  -->
<!DOCTYPE svg PUBLIC "-//W3C//DTD SVG 1.1//EN" "http://www.w3.org/Graphics/SVG/1.1/DTD/svg11.dtd">
<svg version="1.1" id="Capa_1" xmlns="http://www.w3.org/2000/svg" xmlns:xlink="http://www.w3.org/1999/xlink" x="0px" y="0px"
	 width="32px" height="32px" viewBox="0 0 32 32" enable-background="new 0 0 32 32" xml:space="preserve">
<path d="M24,7c0-0.55-0.44-0.99-0.99-0.99H23c-0.54,0-0.99,0.43-1,0.98C21.99,7.3,21.78,10,17,10c-1.02,0-1.84,0.22-2.5,0.57
	C13.4,10.2,12.23,10,11,10C4.92,10,0,14.92,0,21s4.92,11,11,11s11-4.92,11-11c0-3.73-1.85-7.02-4.69-9C23.92,11.85,24,7.05,24,7z
	 M12.92,12.01C12.23,13,12,14.18,12,15c0,0.55,0.44,0.99,0.99,1C13,16,13,16,13,16c0.55,0,0.99-0.45,1-0.99
	c0.01-0.33,0.08-1.52,0.93-2.3c0.08,0.06,0.16,0.14,0.24,0.22C15.69,13.47,16,14.2,16,15c0,1.65-1.35,3-3,3s-3-1.35-3-3
	C10,13.38,11.31,12.05,12.92,12.01z M17.98,15.34C19.24,16.89,20,18.86,20,21c0,4.96-4.04,9-9,9s-9-4.04-9-9
	c0-4.21,2.91-7.75,6.81-8.73C8.3,13.06,8,14,8,15c0,2.76,2.24,5,5,5C15.64,20,17.81,17.94,17.98,15.34z M31.371,3.929l-0.742-1.857
	l-5,2l0.742,1.857L31.371,3.929z M31.371,10.071l-5-2l-0.742,1.857l5,2L31.371,10.071z M20.371,4.071l-5-2l-0.743,1.857l5,2
	L20.371,4.071z M24,0h-2v4h2V0z"/>
</svg>
