<?xml version="1.0" encoding="utf-8"?>
<!-- Generator: Adobe Illustrator 16.0.0, SVG Export Plug-In . SVG Version: 6.00 Build 0)  -->
<!DOCTYPE svg PUBLIC "-//W3C//DTD SVG 1.1//EN" "http://www.w3.org/Graphics/SVG/1.1/DTD/svg11.dtd">
<svg version="1.1" id="Capa_1" xmlns="http://www.w3.org/2000/svg" xmlns:xlink="http://www.w3.org/1999/xlink" x="0px" y="0px"
	 width="32px" height="32px" viewBox="0 0 32 32" enable-background="new 0 0 32 32" xml:space="preserve">
<path d="M21.184,30.539c-1.965,0-4.112-0.74-6.184-2.811c-3.955-3.955-6.52-12.931-8.216-18.871
	c-0.063-0.219-0.126-0.442-0.19-0.665C5.558,8.108,3.538,7.781,2.272,6.516c-1.556-1.556-0.853-3.39,0-4.243
	c0.853-0.853,2.687-1.556,4.243,0C7.143,2.9,7.641,4.577,8.707,8.309c1.64,5.741,4.119,14.417,7.707,18.006
	c4.892,4.892,9.696,0.201,9.899,0c0.199-0.201,4.867-5.033,0-9.9c-0.12-0.134-1.796-1.972-5.069-1.403l1.068,3.208l-1.896,0.633
	l-1.74-5.22l0.987-0.296c5.236-1.57,8.004,1.588,8.119,1.724c4.979,4.975,2.146,10.468-0.055,12.669
	C26.432,29.024,23.996,30.538,21.184,30.539z M4.407,3.345c-0.327,0-0.59,0.211-0.721,0.341c-0.31,0.327-0.569,0.845,0,1.415
	c0.551,0.551,1.493,0.844,2.292,0.991C5.612,4.888,5.282,3.92,5.083,3.667C4.843,3.428,4.612,3.345,4.407,3.345z"/>
</svg>
