<?xml version="1.0" encoding="utf-8"?>
<!-- Generator: Adobe Illustrator 16.0.0, SVG Export Plug-In . SVG Version: 6.00 Build 0)  -->
<!DOCTYPE svg PUBLIC "-//W3C//DTD SVG 1.1//EN" "http://www.w3.org/Graphics/SVG/1.1/DTD/svg11.dtd">
<svg version="1.1" id="Capa_1" xmlns="http://www.w3.org/2000/svg" xmlns:xlink="http://www.w3.org/1999/xlink" x="0px" y="0px"
	 width="32px" height="32px" viewBox="0 0 32 32" enable-background="new 0 0 32 32" xml:space="preserve">
<path d="M18,18.08v-5.01c0.01-0.08,0.12-0.75,1.24-1.1C20.891,11.56,24,9.78,24,6c0-4.75-3.92-6-6-6s-6,1.46-6,7c0,0.55,0.45,1,1,1
	s1-0.45,1-1c0-4.81,3.6-4.99,4-5c0.16,0,4,0.05,4,4c0,3.15-3.109,4-3.29,4.04C16.63,10.68,16.03,12.18,16,13v5.08
	c-6,0.9-6,9.92-6,9.92h14C24,28,24,18.98,18,18.08z M12.18,26c0.37-2.37,1.47-6,4.82-6c3.38,0,4.471,3.63,4.83,6H12.18z M10,32h14
	v-2H10V32z"/>
</svg>
