<?xml version="1.0" encoding="utf-8"?>
<!-- Generator: Adobe Illustrator 16.0.0, SVG Export Plug-In . SVG Version: 6.00 Build 0)  -->
<!DOCTYPE svg PUBLIC "-//W3C//DTD SVG 1.1//EN" "http://www.w3.org/Graphics/SVG/1.1/DTD/svg11.dtd">
<svg version="1.1" id="Capa_1" xmlns="http://www.w3.org/2000/svg" xmlns:xlink="http://www.w3.org/1999/xlink" x="0px" y="0px"
	 width="32px" height="32px" viewBox="0 0 32 32" enable-background="new 0 0 32 32" xml:space="preserve">
<path d="M0,2v26h4v-2H2V12h28v14h-2v2h4V2H0z M30,10H2V4h28V10z M26,8h2V6h-2V8z M22,8h2V6h-2V8z M18,8h2V6h-2V8z M6,14v18h20V14H6z
	 M22.37,16L16,21.66L9.63,16H22.37z M8,17.23L14.5,23L8,28.77V17.23z M9.63,30L16,24.34L22.37,30H9.63z M24,28.77L17.5,23l6.5-5.77
	V28.77z"/>
</svg>
