<?xml version="1.0" encoding="utf-8"?>
<!-- Generator: Adobe Illustrator 16.0.0, SVG Export Plug-In . SVG Version: 6.00 Build 0)  -->
<!DOCTYPE svg PUBLIC "-//W3C//DTD SVG 1.1//EN" "http://www.w3.org/Graphics/SVG/1.1/DTD/svg11.dtd">
<svg version="1.1" id="Capa_1" xmlns="http://www.w3.org/2000/svg" xmlns:xlink="http://www.w3.org/1999/xlink" x="0px" y="0px"
	 width="32px" height="32px" viewBox="0 0 32 32" enable-background="new 0 0 32 32" xml:space="preserve">
<path d="M28.11,25.78C29.29,24.53,30,22.85,30,21c0-3.87-3.13-7-7-7s-7,3.13-7,7s3.13,7,7,7c1.3,0,2.51-0.35,3.54-0.96l3.68,4.58
	l1.561-1.24L28.11,25.78z M23,26c-2.76,0-5-2.24-5-5s2.24-5,5-5s5,2.24,5,5S25.76,26,23,26z M24,8V4h-4V2H6v2H2v4H0v12h14v-6h-2v4H8
	v-4H6v4H2v-8h2V6h4V4h10v2h4v4h2v2h2V8H24z"/>
</svg>
