<?xml version="1.0" encoding="utf-8"?>
<!-- Generator: Adobe Illustrator 16.0.0, SVG Export Plug-In . SVG Version: 6.00 Build 0)  -->
<!DOCTYPE svg PUBLIC "-//W3C//DTD SVG 1.1//EN" "http://www.w3.org/Graphics/SVG/1.1/DTD/svg11.dtd">
<svg version="1.1" id="Capa_1" xmlns="http://www.w3.org/2000/svg" xmlns:xlink="http://www.w3.org/1999/xlink" x="0px" y="0px"
	 width="32px" height="32px" viewBox="0 0 32 32" enable-background="new 0 0 32 32" xml:space="preserve">
<path d="M12.25,23.32v2.16c-3.49-1.23-6-4.57-6-8.48c0-1.39,0.32-2.7,0.88-3.88l1.53,1.53c-0.27,0.73-0.41,1.52-0.41,2.35
	C8.25,19.79,9.891,22.2,12.25,23.32z M15.25,8c-1.38,0-2.7,0.31-3.87,0.88l1.53,1.53c0.73-0.27,1.52-0.41,2.34-0.41
	c0.83,0,1.62,0.14,2.349,0.41l1.531-1.53C17.951,8.32,16.641,8,15.25,8z M23.371,13.13l-1.531,1.53c0.27,0.73,0.41,1.52,0.41,2.34
	c0,2.79-1.641,5.2-4,6.32v2.16c3.49-1.23,6-4.57,6-8.48C24.25,15.62,23.939,14.3,23.371,13.13z M30.34,14.48
	c-0.17,0.53-0.729,0.8-1.24,0.64c-0.529-0.17-0.818-0.73-0.658-1.25c0.02-0.07,0.459-1.61-1.172-3.23c-1.988-2-3.879-0.35-4.238,0
	l-3.602,3.6c0.51,0.79,0.82,1.74,0.82,2.76c0,2.42-1.721,4.439-4,4.9V27c0.01,0.5,0.18,3,3,3c2.301,0,3.08-1.4,3.109-1.46
	c0.262-0.481,0.861-0.67,1.352-0.42c0.48,0.25,0.68,0.84,0.43,1.33C24.09,29.55,22.83,32,19.25,32c-2,0-3.25-0.83-4-1.88
	c-0.75,1.05-2,1.88-4,1.88c-3.58,0-4.84-2.45-4.89-2.549c-0.25-0.5-0.05-1.102,0.44-1.34c0.5-0.25,1.1-0.051,1.34,0.438
	C8.17,28.6,8.951,30,11.25,30c2.81,0,2.99-2.48,3-3v-5.1c-2.28-0.461-4-2.48-4-4.9c0-1.02,0.31-1.97,0.82-2.76l-3.6-3.6
	c-0.37-0.36-2.25-1.99-4.24,0c-1.63,1.62-1.19,3.16-1.17,3.22c0.17,0.52-0.11,1.08-0.64,1.26c-0.52,0.18-1.08-0.11-1.26-0.64
	c-0.03-0.1-0.88-2.73,1.66-5.26c1.41-1.41,2.88-1.71,4.15-1.5c-0.21-1.27,0.09-2.74,1.5-4.16c2.53-2.53,5.16-1.68,5.26-1.65
	c0.53,0.17,0.8,0.73,0.64,1.24c-0.17,0.53-0.73,0.82-1.25,0.66c-0.07-0.02-1.61-0.46-3.23,1.17c-2,1.99-0.35,3.88,0,4.24l3.6,3.6
	c0.79-0.51,1.74-0.82,2.76-0.82c1.02,0,1.97,0.31,2.759,0.82l3.6-3.6c0.359-0.37,1.99-2.25,0-4.24
	c-1.619-1.63-3.158-1.19-3.219-1.17c-0.52,0.17-1.08-0.11-1.26-0.64c-0.18-0.52,0.109-1.08,0.639-1.26
	c0.102-0.03,2.73-0.88,5.26,1.66c1.41,1.41,1.711,2.88,1.5,4.15c1.27-0.21,2.74,0.09,4.16,1.5
	C31.221,11.75,30.371,14.38,30.34,14.48z M18.25,17c0-1.66-1.339-3-3-3s-3,1.34-3,3s1.34,3,3,3S18.25,18.66,18.25,17z"/>
</svg>
