<?xml version="1.0" encoding="utf-8"?>
<!-- Generator: Adobe Illustrator 16.0.0, SVG Export Plug-In . SVG Version: 6.00 Build 0)  -->
<!DOCTYPE svg PUBLIC "-//W3C//DTD SVG 1.1//EN" "http://www.w3.org/Graphics/SVG/1.1/DTD/svg11.dtd">
<svg version="1.1" id="Capa_1" xmlns="http://www.w3.org/2000/svg" xmlns:xlink="http://www.w3.org/1999/xlink" x="0px" y="0px"
	 width="32px" height="32px" viewBox="0 0 32 32" enable-background="new 0 0 32 32" xml:space="preserve">
<path d="M22,24v-6h-2.51c-0.11-0.3-0.23-0.6-0.37-0.88l1.78-1.78l-4.24-4.24l-1.78,1.78c-0.28-0.14-0.58-0.26-0.88-0.37V10H8v2.51
	c-0.3,0.11-0.6,0.23-0.88,0.37L5.34,11.1L1.1,15.34l1.78,1.78C2.74,17.4,2.62,17.7,2.51,18H0v6h2.51c0.11,0.3,0.23,0.6,0.37,0.88
	L1.1,26.66l4.24,4.24l1.78-1.78C7.4,29.26,7.7,29.38,8,29.49V32h6v-2.51c0.3-0.11,0.6-0.23,0.88-0.37l1.78,1.78l4.24-4.24
	l-1.78-1.78c0.14-0.28,0.26-0.58,0.37-0.88H22z M18.07,26.66l-1.41,1.41L15.19,26.6c-0.92,0.7-2,1.16-3.19,1.32V30h-2v-2.08
	c-1.19-0.16-2.27-0.62-3.19-1.32L5.34,28.07l-1.41-1.41l1.47-1.47c-0.7-0.921-1.16-2-1.32-3.19H2v-2h2.08
	c0.16-1.19,0.62-2.27,1.32-3.19l-1.47-1.47l1.41-1.41l1.47,1.47c0.92-0.7,2-1.16,3.19-1.32V12h2v2.08c1.19,0.16,2.27,0.62,3.19,1.32
	l1.47-1.47l1.41,1.41l-1.47,1.47c0.7,0.92,1.16,2,1.32,3.19H20v2h-2.08c-0.16,1.19-0.62,2.27-1.32,3.19L18.07,26.66z M11,16
	c-2.76,0-5,2.24-5,5s2.24,5,5,5s5-2.24,5-5S13.76,16,11,16z M11,24c-1.65,0-3-1.35-3-3s1.35-3,3-3s3,1.35,3,3S12.65,24,11,24z M32,2
	v18h-8v-2h6V4H2v8H0V2H32z M4,6v2h24V6H4z M20,10v2h8v-2H20z M24,14v2h4v-2H24z"/>
</svg>
