<?xml version="1.0" encoding="utf-8"?>
<!-- Generator: Adobe Illustrator 16.0.0, SVG Export Plug-In . SVG Version: 6.00 Build 0)  -->
<!DOCTYPE svg PUBLIC "-//W3C//DTD SVG 1.1//EN" "http://www.w3.org/Graphics/SVG/1.1/DTD/svg11.dtd">
<svg version="1.1" id="Capa_1" xmlns="http://www.w3.org/2000/svg" xmlns:xlink="http://www.w3.org/1999/xlink" x="0px" y="0px"
	 width="32px" height="32px" viewBox="0 0 32 32" enable-background="new 0 0 32 32" xml:space="preserve">
<path d="M32,20v-8h-4.68c-0.15-0.4-0.312-0.79-0.49-1.17l3.311-3.32l-5.65-5.65l-3.32,3.31C20.79,4.99,20.4,4.82,20,4.68V0h-8v4.68
	c-0.4,0.14-0.79,0.31-1.17,0.49L7.51,1.86L1.86,7.51l3.31,3.32C4.99,11.21,4.82,11.6,4.68,12H0v8h4.68c0.14,0.4,0.31,0.79,0.49,1.17
	l-3.31,3.32l5.65,5.648l3.32-3.31c0.38,0.18,0.77,0.34,1.17,0.489V32h8v-4.68c0.4-0.15,0.79-0.312,1.17-0.49l3.32,3.311l5.648-5.649
	l-3.31-3.32c0.18-0.38,0.34-0.771,0.489-1.17L32,20L32,20z M27.311,24.49l-2.82,2.82l-2.98-2.971c-1.05,0.7-2.229,1.2-3.51,1.46V30
	h-4v-4.2c-1.28-0.26-2.46-0.76-3.51-1.46l-2.98,2.971l-2.82-2.82l2.97-2.98c-0.7-1.05-1.2-2.23-1.46-3.51H2v-4h4.2
	c0.26-1.28,0.76-2.46,1.46-3.51L4.69,7.51l2.82-2.82l2.98,2.97c1.05-0.7,2.23-1.2,3.51-1.46V2h4v4.2c1.279,0.26,2.46,0.76,3.51,1.46
	l2.98-2.97l2.818,2.82l-2.97,2.98c0.7,1.05,1.2,2.23,1.46,3.51H30v4h-4.2c-0.26,1.279-0.76,2.46-1.46,3.51L27.311,24.49z M14,13.532
	L18.112,16L14,18.468V13.532 M12,10v12l10-6L12,10L12,10z"/>
</svg>
