<?xml version="1.0" encoding="utf-8"?>
<!-- Generator: Adobe Illustrator 16.0.0, SVG Export Plug-In . SVG Version: 6.00 Build 0)  -->
<!DOCTYPE svg PUBLIC "-//W3C//DTD SVG 1.1//EN" "http://www.w3.org/Graphics/SVG/1.1/DTD/svg11.dtd">
<svg version="1.1" id="Capa_1" xmlns="http://www.w3.org/2000/svg" xmlns:xlink="http://www.w3.org/1999/xlink" x="0px" y="0px"
	 width="32px" height="32px" viewBox="0 0 32 32" enable-background="new 0 0 32 32" xml:space="preserve">
<path d="M26,8V0H0v22h10v-2H2V8H26z M2,2h22v4H2V2z M4,10v6h6v-6H4z M8,14H6v-2h2V14z M27.49,25.23C29.04,23.62,30,21.42,30,19
	c0-4.97-4.03-9-9-9c-4.97,0-9,4.03-9,9c0,4.97,4.03,9,9,9c1.83,0,3.53-0.55,4.95-1.49l4.28,5.13l1.539-1.279L27.49,25.23z M21,26
	c-3.86,0-7-3.14-7-7c0-3.86,3.14-7,7-7s7,3.14,7,7C28,22.86,24.86,26,21,26z"/>
</svg>
