<?xml version="1.0" encoding="utf-8"?>
<!-- Generator: Adobe Illustrator 16.0.0, SVG Export Plug-In . SVG Version: 6.00 Build 0)  -->
<!DOCTYPE svg PUBLIC "-//W3C//DTD SVG 1.1//EN" "http://www.w3.org/Graphics/SVG/1.1/DTD/svg11.dtd">
<svg version="1.1" id="Capa_1" xmlns="http://www.w3.org/2000/svg" xmlns:xlink="http://www.w3.org/1999/xlink" x="0px" y="0px"
	 width="32px" height="32px" viewBox="0 0 32 32" enable-background="new 0 0 32 32" xml:space="preserve">
<path d="M29,6c-0.09,0-8.63-0.04-12.29-3.71L16,1.59l-0.71,0.7C11.64,5.95,3.09,6,3,6H2v1c0,0.58,0.09,11.03,6,17.89V21.44
	C6.06,18.34,5.06,14.8,4.54,12H10v19.08l6-4.8l6,4.8V12h5.46c-0.51,2.8-1.51,6.34-3.46,9.44v3.449C29.91,18.03,30,7.58,30,7V6H29z
	 M20,26.92l-4-3.2l-4,3.2V12h8V26.92z M27.76,10H4.24c-0.11-0.82-0.16-1.52-0.2-2.03C6.45,7.84,12.42,7.24,16,4.34
	c3.58,2.9,9.55,3.5,11.96,3.63C27.92,8.48,27.87,9.18,27.76,10z"/>
</svg>
