<?xml version="1.0" encoding="utf-8"?>
<!-- Generator: Adobe Illustrator 16.0.0, SVG Export Plug-In . SVG Version: 6.00 Build 0)  -->
<!DOCTYPE svg PUBLIC "-//W3C//DTD SVG 1.1//EN" "http://www.w3.org/Graphics/SVG/1.1/DTD/svg11.dtd">
<svg version="1.1" id="Capa_1" xmlns="http://www.w3.org/2000/svg" xmlns:xlink="http://www.w3.org/1999/xlink" x="0px" y="0px"
	 width="32px" height="32px" viewBox="0 0 32 32" enable-background="new 0 0 32 32" xml:space="preserve">
<path d="M29,6c-0.09,0-8.63-0.04-12.29-3.71L16,1.59l-0.71,0.7C11.64,5.95,3.09,6,3,6H2v1c0,0.77,0.16,18.79,13.71,22.96L16,30.05
	l0.29-0.09C29.84,25.79,30,7.77,30,7V6H29z M16,27.95c-3.44-1.141-5.89-3.36-7.63-5.95h15.27C21.89,24.59,19.44,26.81,16,27.95z
	 M24.83,20H7.18c-1.04-1.99-1.74-4.09-2.21-6h22.06C26.56,15.91,25.87,18.01,24.83,20z M27.46,12H4.55
	C4.23,10.29,4.1,8.86,4.04,7.97C6.45,7.84,12.42,7.24,16,4.34c3.58,2.9,9.55,3.5,11.96,3.63C27.9,8.86,27.77,10.29,27.46,12z"/>
</svg>
