<?xml version="1.0" encoding="utf-8"?>
<!-- Generator: Adobe Illustrator 16.0.0, SVG Export Plug-In . SVG Version: 6.00 Build 0)  -->
<!DOCTYPE svg PUBLIC "-//W3C//DTD SVG 1.1//EN" "http://www.w3.org/Graphics/SVG/1.1/DTD/svg11.dtd">
<svg version="1.1" id="Capa_1" xmlns="http://www.w3.org/2000/svg" xmlns:xlink="http://www.w3.org/1999/xlink" x="0px" y="0px"
	 width="32px" height="32px" viewBox="0 0 32 32" enable-background="new 0 0 32 32" xml:space="preserve">
<path d="M2.48,12c0.11,0.63,0.23,1.3,0.39,2c0.43,1.89,1.07,3.97,2.02,6c0.32,0.68,0.66,1.35,1.05,2c2.03,3.45,5.11,6.53,9.77,7.96
	L16,30.05l0.29-0.09c4.66-1.43,7.74-4.51,9.77-7.96c0.391-0.65,0.73-1.32,1.051-2c0.949-2.03,1.59-4.11,2.02-6
	c0.16-0.7,0.28-1.37,0.39-2H2.48z M16,27.95c-3.44-1.141-5.89-3.36-7.63-5.95h15.27C21.89,24.59,19.44,26.81,16,27.95z M24.83,20
	H7.18c-1.04-1.99-1.74-4.09-2.21-6h22.06C26.56,15.91,25.87,18.01,24.83,20z"/>
</svg>
