<?xml version="1.0" encoding="utf-8"?>
<!-- Generator: Adobe Illustrator 16.0.0, SVG Export Plug-In . SVG Version: 6.00 Build 0)  -->
<!DOCTYPE svg PUBLIC "-//W3C//DTD SVG 1.1//EN" "http://www.w3.org/Graphics/SVG/1.1/DTD/svg11.dtd">
<svg version="1.1" id="Capa_1" xmlns="http://www.w3.org/2000/svg" xmlns:xlink="http://www.w3.org/1999/xlink" x="0px" y="0px"
	 width="32px" height="32px" viewBox="0 0 32 32" enable-background="new 0 0 32 32" xml:space="preserve">
<path d="M29,6c-0.09,0-8.63-0.04-12.29-3.71L16,1.59l-0.71,0.7C11.64,5.95,3.09,6,3,6H2v1c0,0.77,0.16,18.79,13.71,22.96L16,30.05
	l0.29-0.09C29.84,25.79,30,7.77,30,7V6H29z M16,27.95C5.81,24.58,4.27,11.63,4.04,7.97C6.45,7.84,12.42,7.24,16,4.34
	c3.58,2.9,9.55,3.5,11.96,3.63C27.73,11.63,26.21,24.58,16,27.95z M16,22c-3.309,0-6-2.691-6-6s2.691-6,6-6s6,2.691,6,6
	S19.309,22,16,22z M16,12c-2.206,0-4,1.794-4,4c0,2.206,1.794,4,4,4c2.206,0,4-1.794,4-4C20,13.794,18.206,12,16,12z"/>
</svg>
