<?xml version="1.0" encoding="utf-8"?>
<!-- Generator: Adobe Illustrator 16.0.0, SVG Export Plug-In . SVG Version: 6.00 Build 0)  -->
<!DOCTYPE svg PUBLIC "-//W3C//DTD SVG 1.1//EN" "http://www.w3.org/Graphics/SVG/1.1/DTD/svg11.dtd">
<svg version="1.1" id="Capa_1" xmlns="http://www.w3.org/2000/svg" xmlns:xlink="http://www.w3.org/1999/xlink" x="0px" y="0px"
	 width="32px" height="32px" viewBox="0 0 32 32" enable-background="new 0 0 32 32" xml:space="preserve">
<path d="M16,30.046l-0.294-0.09C2.156,25.786,2,7.766,2,7V6.001L3,6c0.086,0,8.637-0.051,12.293-3.707L16,1.586l0.707,0.707
	C20.372,5.957,28.914,6,29,6h1v1c0,0.766-0.156,18.786-13.706,22.956L16,30.046z M4.041,7.968C4.272,11.629,5.813,24.581,16,27.95
	c10.205-3.375,11.732-16.322,11.96-19.982C25.555,7.844,19.585,7.242,16,4.342C12.415,7.242,6.447,7.844,4.041,7.968z M21.71,11.71
	l-1.42-1.42L16,14.58l-4.29-4.29l-1.42,1.42L14.58,16l-4.29,4.29l1.42,1.42L16,17.42l4.29,4.29l1.42-1.42L17.42,16L21.71,11.71z"/>
</svg>
