<?xml version="1.0" encoding="utf-8"?>
<!-- Generator: Adobe Illustrator 16.0.0, SVG Export Plug-In . SVG Version: 6.00 Build 0)  -->
<!DOCTYPE svg PUBLIC "-//W3C//DTD SVG 1.1//EN" "http://www.w3.org/Graphics/SVG/1.1/DTD/svg11.dtd">
<svg version="1.1" id="Capa_1" xmlns="http://www.w3.org/2000/svg" xmlns:xlink="http://www.w3.org/1999/xlink" x="0px" y="0px"
	 width="32px" height="32px" viewBox="0 0 32 32" enable-background="new 0 0 32 32" xml:space="preserve">
<path d="M22,4c-3.31,0-6,3.13-6,7s2.69,7,6,7s6-3.13,6-7S25.31,4,22,4z M22,16c-2.21,0-4-2.24-4-5s1.79-5,4-5s4,2.24,4,5
	S24.21,16,22,16z M25.32,18.05l-0.59-0.189L22,20.59l-2.73-2.729l-0.59,0.189C18.41,18.14,12,20.4,12,31v1h20v-1
	C32,20.4,25.59,18.14,25.32,18.05z M14.02,30c0.29-6.68,3.47-9.09,4.76-9.8L22,23.41l3.21-3.21c1.29,0.71,4.48,3.14,4.771,9.8H14.02
	z M2,2v18h10v2H0.06V0H22v2H2z M14,9c0,2.42-1.72,4.44-4,4.9V18H8v-4.1C5.72,13.44,4,11.42,4,9c0-2.76,2.24-5,5-5S14,6.24,14,9z
	 M12,9c0-1.65-1.35-3-3-3S6,7.35,6,9s1.35,3,3,3S12,10.65,12,9z"/>
</svg>
