<?xml version="1.0" encoding="utf-8"?>
<!-- Generator: Adobe Illustrator 16.0.0, SVG Export Plug-In . SVG Version: 6.00 Build 0)  -->
<!DOCTYPE svg PUBLIC "-//W3C//DTD SVG 1.1//EN" "http://www.w3.org/Graphics/SVG/1.1/DTD/svg11.dtd">
<svg version="1.1" id="Capa_1" xmlns="http://www.w3.org/2000/svg" xmlns:xlink="http://www.w3.org/1999/xlink" x="0px" y="0px"
	 width="32px" height="32px" viewBox="0 0 32 32" enable-background="new 0 0 32 32" xml:space="preserve">
<path d="M30,16V6H12v10h-2v5.48l10,8V32h2v-2.52l10-8V16H30z M26,8l-5,3.75L16,8H26z M14,9l7,5.25L28,9v7H14V9z M30,20.52l-9,7.2
	l-9-7.2V18h18V20.52z M4.53,12.89l9.8-9.78C12.87,1.22,10.58,0,8,0C3.58,0,0,3.58,0,8s3.58,8,8,8c0.69,0,1.36-0.09,2-0.25v-2.1
	C9.37,13.88,8.7,14,8,14C6.71,14,5.51,13.59,4.53,12.89z M2,8c0-3.31,2.69-6,6-6c1.29,0,2.49,0.41,3.47,1.11l-8.36,8.36
	C2.41,10.49,2,9.29,2,8z"/>
</svg>
