<?xml version="1.0" encoding="utf-8"?>
<!-- Generator: Adobe Illustrator 16.0.0, SVG Export Plug-In . SVG Version: 6.00 Build 0)  -->
<!DOCTYPE svg PUBLIC "-//W3C//DTD SVG 1.1//EN" "http://www.w3.org/Graphics/SVG/1.1/DTD/svg11.dtd">
<svg version="1.1" id="Capa_1" xmlns="http://www.w3.org/2000/svg" xmlns:xlink="http://www.w3.org/1999/xlink" x="0px" y="0px"
	 width="32px" height="32px" viewBox="0 0 32 32" enable-background="new 0 0 32 32" xml:space="preserve">
<path d="M8,14v18h24V14H8z M27.92,16L20,21.76L12.08,16H27.92z M30,30H10V16.97l10,7.27l10-7.27V30z M10,2v2h4V2H10z M0,10v4h2v-4H0
	z M22,10v2h2v-2H22z M8,2H0v6h2V4.97l4.41,3.2l1.43-1.43L4.08,4H8V2z M16,2v2h3.92l-3.76,2.74l1.43,1.43L22,4.97V8h2V2H16z M12,9.76
	L9.49,7.93L8.05,9.37L12,12.24l3.95-2.87l-1.44-1.44L12,9.76z M2,18v-2H0v4h6v-2H2z"/>
</svg>
