<?xml version="1.0" encoding="utf-8"?>
<!-- Generator: Adobe Illustrator 16.0.0, SVG Export Plug-In . SVG Version: 6.00 Build 0)  -->
<!DOCTYPE svg PUBLIC "-//W3C//DTD SVG 1.1//EN" "http://www.w3.org/Graphics/SVG/1.1/DTD/svg11.dtd">
<svg version="1.1" id="Capa_1" xmlns="http://www.w3.org/2000/svg" xmlns:xlink="http://www.w3.org/1999/xlink" x="0px" y="0px"
	 width="32px" height="32px" viewBox="0 0 32 32" enable-background="new 0 0 32 32" xml:space="preserve">
<path d="M29.939,14.65C29.9,14.56,26.66,6.22,16.41,6.01C16.28,6,16.14,6,16,6s-0.28,0-0.41,0.01C5.34,6.22,2.1,14.56,2.06,14.65
	L1.93,15l0.13,0.35C2.1,15.44,5.43,24,16,24c10.57,0,13.9-8.56,13.939-8.65L30.07,15L29.939,14.65z M16,8c0.16,0,0.32,0,0.48,0.02
	c1.11,0.09,2.129,0.48,2.991,1.09l-8.361,8.361C10.41,16.49,10,15.29,10,14C10,10.69,12.69,8,16,8z M4.09,15
	c0.46-0.95,1.99-3.67,5.25-5.42C8.49,10.84,8,12.36,8,14c0,4.279,3.35,7.76,7.57,7.99C7.8,21.8,4.78,16.46,4.09,15z M12.53,18.891
	l8.361-8.361C21.59,11.51,22,12.71,22,14c0,3.311-2.689,6-6,6C14.71,20,13.51,19.59,12.53,18.891z M16.43,21.99
	C20.65,21.76,24,18.279,24,14c0-1.65-0.5-3.19-1.359-4.46c3.289,1.75,4.811,4.48,5.271,5.46C27.221,16.42,24.141,21.8,16.43,21.99z"
	/>
</svg>
