<?xml version="1.0" encoding="utf-8"?>
<!-- Generator: Adobe Illustrator 16.0.0, SVG Export Plug-In . SVG Version: 6.00 Build 0)  -->
<!DOCTYPE svg PUBLIC "-//W3C//DTD SVG 1.1//EN" "http://www.w3.org/Graphics/SVG/1.1/DTD/svg11.dtd">
<svg version="1.1" id="Capa_1" xmlns="http://www.w3.org/2000/svg" xmlns:xlink="http://www.w3.org/1999/xlink" x="0px" y="0px"
	 width="32px" height="32px" viewBox="0 0 32 32" enable-background="new 0 0 32 32" xml:space="preserve">
<path d="M29,14c-1.05,0-2.06-0.01-3.02-0.02C25.74,6.66,22.94,0,20,0c-1.689,0-2.43,1.05-2.88,1.68C17.09,1.73,17.04,1.79,17,1.85
	c-0.04-0.06-0.09-0.12-0.12-0.17C16.43,1.05,15.69,0,14,0c-2.7,0-7.81,4.5-7.99,11.61c-1.62-0.58-2.09-1.06-2.16-1.13
	c-0.27-0.44-0.83-0.61-1.3-0.37c-0.49,0.24-0.69,0.84-0.44,1.34C2.28,11.8,3.02,12.78,6,13.74V16c0,5.52,4.48,10,10,10
	c1.85,0,3.59-0.5,5.07-1.39l5.12,6.979l1.619-1.18l-5.119-6.99C24.72,21.6,26,18.95,26,16c0,0,0-0.01,0-0.02
	c0.96,0.01,1.96,0.02,3,0.02c0.55,0,1-0.45,1-1S29.55,14,29,14z M14,2c0.63,0,0.84,0.27,1.24,0.83C15.57,3.3,16.07,4,17,4
	c0.93,0,1.43-0.7,1.76-1.17C19.16,2.27,19.37,2,20,2c0.79,0,2.73,3.02,3.58,8C13.53,9.96,9.34,8.47,8.57,8.16C9.88,4,13.06,2,14,2z
	 M8,12c0-0.66,0.05-1.28,0.13-1.87c1.5,0.55,6.07,1.86,15.72,1.87c0.061,0.62,0.11,1.26,0.131,1.93c-8.161-0.22-13.07-0.97-16-1.72
	C7.99,12.14,8,12.07,8,12z M24,16c0,4.41-3.59,8-8,8s-8-3.59-8-8v-1.71c3.25,0.77,8.26,1.44,16,1.64V16z"/>
</svg>
