<?xml version="1.0" encoding="utf-8"?>
<!-- Generator: Adobe Illustrator 16.0.0, SVG Export Plug-In . SVG Version: 6.00 Build 0)  -->
<!DOCTYPE svg PUBLIC "-//W3C//DTD SVG 1.1//EN" "http://www.w3.org/Graphics/SVG/1.1/DTD/svg11.dtd">
<svg version="1.1" id="Capa_1" xmlns="http://www.w3.org/2000/svg" xmlns:xlink="http://www.w3.org/1999/xlink" x="0px" y="0px"
	 width="32px" height="32px" viewBox="0 0 32 32" enable-background="new 0 0 32 32" xml:space="preserve">
<path d="M18.26,2.74l-1.43,1.41C15.26,2.81,13.22,2,11,2c-4.96,0-9,4.04-9,9s4.04,9,9,9v2C4.92,22,0,17.08,0,11S4.92,0,11,0
	C13.78,0,16.33,1.03,18.26,2.74z M28,11c0,3.87-2.689,7-6,7s-6-3.13-6-7c0-0.62,0.07-1.22,0.2-1.79L9,16.41l-4.71-4.7l1.42-1.42
	L9,13.59l7.29-7.3l0.76,0.76C18.13,5.2,19.95,4,22,4C25.311,4,28,7.13,28,11z M26,11c0-2.76-1.79-5-4-5s-4,2.24-4,5s1.79,5,4,5
	S26,13.76,26,11z M32,31v1H12v-1c0-10.6,6.41-12.859,6.68-12.95l0.59-0.188L22,20.59l2.73-2.729l0.59,0.188
	C25.59,18.141,32,20.4,32,31z M29.98,30c-0.291-6.66-3.48-9.09-4.771-9.8L22,23.41l-3.221-3.21c-1.289,0.71-4.469,3.12-4.759,9.8
	H29.98z"/>
</svg>
