<?xml version="1.0" encoding="utf-8"?>
<!-- Generator: Adobe Illustrator 16.0.0, SVG Export Plug-In . SVG Version: 6.00 Build 0)  -->
<!DOCTYPE svg PUBLIC "-//W3C//DTD SVG 1.1//EN" "http://www.w3.org/Graphics/SVG/1.1/DTD/svg11.dtd">
<svg version="1.1" id="Capa_1" xmlns="http://www.w3.org/2000/svg" xmlns:xlink="http://www.w3.org/1999/xlink" x="0px" y="0px"
	 width="32px" height="32px" viewBox="0 0 32 32" enable-background="new 0 0 32 32" xml:space="preserve">
<path d="M16,2C9.65,2,5.05,3.38,2.33,6.11C0.02,8.44,0,10.9,0,11v11h4.08c0.35,2.67,2.17,9.79,11.5,9.99C15.72,32,15.86,32,16,32
	c9.7,0,11.56-7.29,11.92-10H32V11C32,10.63,31.82,2,16,2z M2,11.01C2,10.72,2.27,4,16,4c13.7,0,13.99,6.72,14,7v1H2V11.01z M4,20H2
	v-2h2V20z M16,30c-2.21,0-4-1.79-4-4s1.79-4,4-4s4,1.79,4,4S18.21,30,16,30z M26,21c0,0.29-0.07,5.56-4.74,7.9
	C21.73,28.04,22,27.05,22,26c0-3.31-2.69-6-6-6c-3.31,0-6,2.69-6,6c0,1.05,0.27,2.04,0.74,2.89C6.1,26.55,6,21.29,6,21v-3h20V21z
	 M30,20h-2v-2h2V20z M30,16H2v-2h28V16z M18,26c0-1.104-0.896-2-2-2s-2,0.896-2,2s0.896,2,2,2S18,27.104,18,26z"/>
</svg>
