<?xml version="1.0" encoding="utf-8"?>
<!-- Generator: Adobe Illustrator 16.0.0, SVG Export Plug-In . SVG Version: 6.00 Build 0)  -->
<!DOCTYPE svg PUBLIC "-//W3C//DTD SVG 1.1//EN" "http://www.w3.org/Graphics/SVG/1.1/DTD/svg11.dtd">
<svg version="1.1" id="Capa_1" xmlns="http://www.w3.org/2000/svg" xmlns:xlink="http://www.w3.org/1999/xlink" x="0px" y="0px"
	 width="32px" height="32px" viewBox="0 0 32 32" enable-background="new 0 0 32 32" xml:space="preserve">
<path d="M24,16c0-0.38-0.03-0.75-0.08-1.11l7.76-7.16L30.32,6.27l-7.011,6.47c-0.92-2.07-2.699-3.67-4.88-4.36l7.25-6.64L24.32,0.26
	L15.87,8c-4.09,0.07-7.42,3.19-7.83,7.18v0.01l-7.72,7.07l1.36,1.48l6.52-5.98c0.5,2.271,1.98,4.181,3.97,5.26l-7.85,7.25
	l1.36,1.461l8.58-7.921C14.82,23.93,15.4,24,16,24c1.56,0,3.02-0.45,4.25-1.22l3.98,4.85l1.539-1.26l-3.97-4.86
	C23.16,20.08,24,18.14,24,16z M16,22c-3.31,0-6-2.69-6-6c0-3.31,2.69-6,6-6c3.31,0,6,2.69,6,6C22,19.31,19.31,22,16,22z M16,12
	c-2.21,0-4,1.79-4,4s1.79,4,4,4s4-1.79,4-4S18.21,12,16,12z M16,18c-1.1,0-2-0.9-2-2c0-1.1,0.9-2,2-2c1.1,0,2,0.9,2,2
	C18,17.1,17.1,18,16,18z"/>
</svg>
