<?xml version="1.0" encoding="utf-8"?>
<!-- Generator: Adobe Illustrator 16.0.0, SVG Export Plug-In . SVG Version: 6.00 Build 0)  -->
<!DOCTYPE svg PUBLIC "-//W3C//DTD SVG 1.1//EN" "http://www.w3.org/Graphics/SVG/1.1/DTD/svg11.dtd">
<svg version="1.1" id="Capa_1" xmlns="http://www.w3.org/2000/svg" xmlns:xlink="http://www.w3.org/1999/xlink" x="0px" y="0px"
	 width="32px" height="32px" viewBox="0 0 32 32" enable-background="new 0 0 32 32" xml:space="preserve">
<path d="M22,2v2h4.58L20.9,9.68C19.55,8.63,17.85,8,16,8c-4.42,0-8,3.58-8,8c0,1.85,0.63,3.55,1.68,4.9L4,26.58V22H2v8h8v-2H5.42
	l5.68-5.68C12.45,23.37,14.15,24,16,24c1.56,0,3.02-0.45,4.25-1.22l3.98,4.85l1.539-1.26l-3.97-4.86C23.16,20.08,24,18.14,24,16
	c0-1.85-0.63-3.55-1.68-4.9L28,5.42V10h2V2H22z M16,22c-3.31,0-6-2.69-6-6c0-3.31,2.69-6,6-6c3.31,0,6,2.69,6,6
	C22,19.31,19.31,22,16,22z"/>
</svg>
