<?xml version="1.0" encoding="utf-8"?>
<!-- Generator: Adobe Illustrator 16.0.0, SVG Export Plug-In . SVG Version: 6.00 Build 0)  -->
<!DOCTYPE svg PUBLIC "-//W3C//DTD SVG 1.1//EN" "http://www.w3.org/Graphics/SVG/1.1/DTD/svg11.dtd">
<svg version="1.1" id="Capa_1" xmlns="http://www.w3.org/2000/svg" xmlns:xlink="http://www.w3.org/1999/xlink" x="0px" y="0px"
	 width="32px" height="32px" viewBox="0 0 32 32" enable-background="new 0 0 32 32" xml:space="preserve">
<path d="M11.2,0.02c-0.38-0.08-0.76,0.07-0.99,0.37c-0.24,0.31-0.28,0.72-0.1,1.06l1.68,3.36C9.57,7.08,2,15.12,2,19v2
	c0,1.21,0.8,3,3,3c1.56,0,5.79-0.81,9-2.84V23c0,0.47-0.64,1.24-1.26,1.99C11.58,26.38,10,28.3,10,31c0,0.55,0,1,0,1h22v-7
	C32,4.42,11.4,0.06,11.2,0.02z M30,30H12.1c0.32-1.49,1.3-2.67,2.18-3.73C15.16,25.2,16,24.19,16,23v-3.42c1.21-1.22,2-2.74,2-4.58
	c0-0.55-0.45-1-1-1s-1,0.45-1,1c0,5.09-9.13,7-11,7c-0.81,0-0.99-0.55-1-1v-2c0-2.61,5.95-9.54,9.71-13.29
	c0.3-0.31,0.38-0.77,0.18-1.16l-0.98-1.97C17.89,4.25,30,9.87,30,25V30z M9,15.999c-0.19,0-0.383-0.054-0.554-0.168
	c-0.459-0.307-0.583-0.927-0.277-1.387l2-2.999C10.354,11.167,10.666,11,11,11h1.999c0.552,0,1,0.448,1,1s-0.448,1-1,1h-1.463
	l-1.703,2.553C9.64,15.843,9.323,15.999,9,15.999z"/>
</svg>
