<?xml version="1.0" encoding="utf-8"?>
<!-- Generator: Adobe Illustrator 16.0.0, SVG Export Plug-In . SVG Version: 6.00 Build 0)  -->
<!DOCTYPE svg PUBLIC "-//W3C//DTD SVG 1.1//EN" "http://www.w3.org/Graphics/SVG/1.1/DTD/svg11.dtd">
<svg version="1.1" id="Capa_1" xmlns="http://www.w3.org/2000/svg" xmlns:xlink="http://www.w3.org/1999/xlink" x="0px" y="0px"
	 width="32px" height="32px" viewBox="0 0 32 32" enable-background="new 0 0 32 32" xml:space="preserve">
<path d="M4.95,25.63l-1.53,1.53C1.29,24.7,0,21.5,0,18c0-4.61,2.23-8.7,5.68-11.25l1.54,1.54c-3.06,2.15-5.07,5.7-5.07,9.71
	C2.15,20.9,3.2,23.57,4.95,25.63z M15.71,8.29l-2.13-2.13c0.14-0.01,0.28-0.01,0.42-0.01c2.9,0,5.57,1.05,7.63,2.8l1.53-1.53
	C20.7,5.29,17.5,4,14,4c-0.2,0-0.4,0-0.6,0.02l2.31-2.31l-1.42-1.42L9.59,5l4.7,4.71L15.71,8.29z M14,29.85
	c-2.9,0-5.57-1.05-7.63-2.8l-1.53,1.53C7.3,30.71,10.5,32,14,32s6.7-1.29,9.16-3.42l-1.53-1.53C19.57,28.8,16.9,29.85,14,29.85z
	 M24.58,8.84l-1.53,1.53c1.75,2.06,2.8,4.73,2.8,7.63c0,2.9-1.05,5.57-2.8,7.63l1.53,1.53C26.71,24.7,28,21.5,28,18
	S26.71,11.3,24.58,8.84z"/>
</svg>
