<?xml version="1.0" encoding="utf-8"?>
<!-- Generator: Adobe Illustrator 16.0.0, SVG Export Plug-In . SVG Version: 6.00 Build 0)  -->
<!DOCTYPE svg PUBLIC "-//W3C//DTD SVG 1.1//EN" "http://www.w3.org/Graphics/SVG/1.1/DTD/svg11.dtd">
<svg version="1.1" id="Capa_1" xmlns="http://www.w3.org/2000/svg" xmlns:xlink="http://www.w3.org/1999/xlink" x="0px" y="0px"
	 width="32px" height="32px" viewBox="0 0 32 32" enable-background="new 0 0 32 32" xml:space="preserve">
<path d="M11.242,18.07l2.344,2.344L15,21.828l1.414-1.414l2.343-2.344c3.716,0.722,4.802,6.724,5.116,9.93H6.124
	C6.434,24.793,7.511,18.788,11.242,18.07 M18,16l-3,3l-3-3c-8,0-8,14-8,14h22C26,30,26,16,18,16L18,16z M15,2c2.757,0,5,2.691,5,6
	s-2.243,6-5,6s-5-2.691-5-6S12.243,2,15,2 M15,0c-3.866,0-7,3.582-7,8s3.134,8,7,8s7-3.582,7-8S18.866,0,15,0L15,0z"/>
</svg>
