<?xml version="1.0" encoding="utf-8"?>
<!-- Generator: Adobe Illustrator 16.0.0, SVG Export Plug-In . SVG Version: 6.00 Build 0)  -->
<!DOCTYPE svg PUBLIC "-//W3C//DTD SVG 1.1//EN" "http://www.w3.org/Graphics/SVG/1.1/DTD/svg11.dtd">
<svg version="1.1" id="Capa_1" xmlns="http://www.w3.org/2000/svg" xmlns:xlink="http://www.w3.org/1999/xlink" x="0px" y="0px"
	 width="32px" height="32px" viewBox="0 0 32 32" enable-background="new 0 0 32 32" xml:space="preserve">
<path d="M0,16v10l10,6l10-6V16l-10-6L0,16z M16.12,16H3.88L10,12.33L16.12,16z M13.33,27.67L18,20.41v4.46L13.33,27.67z M10,29.15
	L2.83,18h14.34L10,29.15z M2,20.4l4.68,7.279L2,24.87V20.4z M17.58,5.82l1.43,1.43c-1.399,0.97-2.42,2.44-2.82,4.14l-1.78-1.07
	C14.98,8.51,16.1,6.94,17.58,5.82z M23.4,4.01l2.31-2.3l-1.42-1.42L19.59,5l4.7,4.71l1.42-1.42l-2.27-2.27C27.1,6.24,30,9.29,30,13
	c0,3.86-3.14,7-7,7c-0.34,0-0.67-0.02-1-0.08v2.021c0.33,0.04,0.66,0.06,1,0.06c4.96,0,9-4.04,9-9C32,8.17,28.18,4.22,23.4,4.01z"/>
</svg>
