<?xml version="1.0" encoding="utf-8"?>
<!-- Generator: Adobe Illustrator 16.0.0, SVG Export Plug-In . SVG Version: 6.00 Build 0)  -->
<!DOCTYPE svg PUBLIC "-//W3C//DTD SVG 1.1//EN" "http://www.w3.org/Graphics/SVG/1.1/DTD/svg11.dtd">
<svg version="1.1" id="Capa_1" xmlns="http://www.w3.org/2000/svg" xmlns:xlink="http://www.w3.org/1999/xlink" x="0px" y="0px"
	 width="32px" height="32px" viewBox="0 0 32 32" enable-background="new 0 0 32 32" xml:space="preserve">
<path d="M19,2v2.35L28.18,10H20v2h8.5L19,28.07l-5.37-9.09c-0.05,0-1.88,0.68-1.92,0.68l5.11,8.648L8,22.88V20H6v4l13,8l13-8V10
	L19,2z M30,22.88l-8.82,5.431L30,13.38V22.88z M9,0C4.03,0,0,4.03,0,9s4.03,9,9,9s9-4.03,9-9S13.97,0,9,0z M9,16c-3.86,0-7-3.14-7-7
	s3.14-7,7-7s7,3.14,7,7S12.86,16,9,16z M8,4h2v6H8V4z M8,12h2v2H8V12z"/>
</svg>
