<?xml version="1.0" encoding="utf-8"?>
<!-- Generator: Adobe Illustrator 16.0.0, SVG Export Plug-In . SVG Version: 6.00 Build 0)  -->
<!DOCTYPE svg PUBLIC "-//W3C//DTD SVG 1.1//EN" "http://www.w3.org/Graphics/SVG/1.1/DTD/svg11.dtd">
<svg version="1.1" id="Capa_1" xmlns="http://www.w3.org/2000/svg" xmlns:xlink="http://www.w3.org/1999/xlink" x="0px" y="0px"
	 width="32px" height="32px" viewBox="0 0 32 32" enable-background="new 0 0 32 32" xml:space="preserve">
<path d="M17,0C9.63,0,3.5,5.32,2.24,12.33l2.43-1.46C5.02,9.85,5.48,8.89,6.05,8H16v3.27l2,1.2V8h4.96c0.681,2.52,0.92,4.77,1,6
	h-3.41L22,16h1.96c-0.08,1.23-0.319,3.48-1,6c0,0-0.84,2.7-0.96,3v4.13c5.82-2.05,10-7.601,10-14.13C32,6.72,25.279,0,17,0z M9.53,6
	h-1.9c0.8-0.84,1.71-1.56,2.71-2.16C10.03,4.56,9.76,5.29,9.53,6z M16,6h-4.33c0.39-1.15,0.9-2.32,1.55-3.43
	c0.89-0.28,1.82-0.46,2.78-0.52V6z M18,6V2.05c0.96,0.06,1.9,0.24,2.79,0.52c0.64,1.11,1.149,2.28,1.55,3.43H18z M27.95,8
	c1.13,1.76,1.84,3.81,2,6h-3.99c-0.069-1.23-0.28-3.45-0.92-6H27.95z M23.65,3.84c1,0.59,1.92,1.32,2.72,2.16h-1.899
	C24.24,5.29,23.971,4.56,23.65,3.84z M23.65,26.16c0.318-0.721,0.59-1.45,0.818-2.16h1.9C25.57,24.84,24.65,25.57,23.65,26.16z
	 M27.95,22h-2.91c0.64-2.55,0.851-4.77,0.92-6h3.99C29.79,18.189,29.08,20.24,27.95,22z M0,16v10l10,6l10-6V16l-10-6L0,16z
	 M16.12,16H3.88L10,12.33L16.12,16z M13.33,27.67L18,20.41v4.46L13.33,27.67z M10,29.15L2.83,18h14.34L10,29.15z M2,20.4l4.68,7.279
	L2,24.87V20.4z"/>
</svg>
