<?xml version="1.0" encoding="utf-8"?>
<!-- Generator: Adobe Illustrator 16.0.0, SVG Export Plug-In . SVG Version: 6.00 Build 0)  -->
<!DOCTYPE svg PUBLIC "-//W3C//DTD SVG 1.1//EN" "http://www.w3.org/Graphics/SVG/1.1/DTD/svg11.dtd">
<svg version="1.1" id="Capa_1" xmlns="http://www.w3.org/2000/svg" xmlns:xlink="http://www.w3.org/1999/xlink" x="0px" y="0px"
	 width="32px" height="32px" viewBox="0 0 32 32" enable-background="new 0 0 32 32" xml:space="preserve">
<path d="M19,0L6,8h3.82L19,2.35L28.18,8H18v2h10.5L17.311,28.96L19,30l13-8V8L19,0z M30,20.88l-8.82,5.431L30,11.38V20.88z M11,10
	c-4.97,0-9,4.03-9,9c0,2.41,0.95,4.609,2.51,6.221l-4.28,5.139l1.54,1.279l4.28-5.13C7.47,27.45,9.17,28,11,28c4.97,0,9-4.029,9-9
	C20,14.03,15.97,10,11,10z M11,26c-3.86,0-7-3.141-7-7c0-3.86,3.14-7,7-7s7,3.14,7,7C18,22.859,14.86,26,11,26z M12.42,19l2.29,2.29
	l-1.42,1.42L11,20.42l-2.29,2.29l-1.42-1.42L9.58,19l-2.29-2.29l1.42-1.42L11,17.58l2.29-2.29l1.42,1.42L12.42,19z"/>
</svg>
