<?xml version="1.0" encoding="utf-8"?>
<!-- Generator: Adobe Illustrator 16.0.0, SVG Export Plug-In . SVG Version: 6.00 Build 0)  -->
<!DOCTYPE svg PUBLIC "-//W3C//DTD SVG 1.1//EN" "http://www.w3.org/Graphics/SVG/1.1/DTD/svg11.dtd">
<svg version="1.1" id="Capa_1" xmlns="http://www.w3.org/2000/svg" xmlns:xlink="http://www.w3.org/1999/xlink" x="0px" y="0px"
	 width="32px" height="32px" viewBox="0 0 32 32" enable-background="new 0 0 32 32" xml:space="preserve">
<path d="M0,16v10l10,6l10-6V16l-10-6L0,16z M16.12,16H3.88L10,12.33L16.12,16z M13.33,27.67L18,20.41v4.46L13.33,27.67z M10,29.15
	L2.83,18h14.34L10,29.15z M2,20.4l4.68,7.279L2,24.87V20.4z M4,6h22v2H4V6z M10,4h20V2H10V4z M18,12h14v-2H18V12z M22,16h6v-2h-6V16
	z M22,20h10v-2H22V20z M24,24h8v-2h-8V24z M22,28h10v-2H22V28z M22,32h6v-2h-6V32z"/>
</svg>
