<?xml version="1.0" encoding="utf-8"?>
<!-- Generator: Adobe Illustrator 16.0.0, SVG Export Plug-In . SVG Version: 6.00 Build 0)  -->
<!DOCTYPE svg PUBLIC "-//W3C//DTD SVG 1.1//EN" "http://www.w3.org/Graphics/SVG/1.1/DTD/svg11.dtd">
<svg version="1.1" id="Capa_1" xmlns="http://www.w3.org/2000/svg" xmlns:xlink="http://www.w3.org/1999/xlink" x="0px" y="0px"
	 width="32px" height="32px" viewBox="0 0 32 32" enable-background="new 0 0 32 32" xml:space="preserve">
<path d="M16,16h12v2H16V16z M16,22h12v-2H16V22z M16,26h12v-2H16V26z M12,22h2v-2h-2V22z M12,26h2v-2h-2V26z M32,7v23c0,0,0,2-2,2
	H10c0,0-2,0-2-2V17.939C3.5,17.45,0,13.63,0,9c0-4.97,4.03-9,9-9c0.21,0,1,0,1,0h15L32,7z M16,9c0-3.87-3.13-7-7-7S2,5.13,2,9
	s3.13,7,7,7S16,12.87,16,9z M30,10h-5c-2.2,0-3-1.79-3-3V2h-7.36c1.81,1.44,3.04,3.58,3.299,6H20v2h-2.061
	c-0.069,0.69-0.23,1.36-0.459,2H28v2H16.48c-0.65,0.98-1.5,1.83-2.48,2.48V18h-2v-0.52c-0.64,0.229-1.31,0.39-2,0.459
	C10,17.939,9.99,30,10,30h20C30.01,29.98,30,10,30,10z M30,7.83L24.17,2H24v5c0.01,0.45,0.189,1,1,1h5V7.83z M12.29,4.29L7,9.59
	l-1.29-1.3L4.29,9.71L7,12.41l6.71-6.7L12.29,4.29z"/>
</svg>
