<?xml version="1.0" encoding="utf-8"?>
<!-- Generator: Adobe Illustrator 16.0.0, SVG Export Plug-In . SVG Version: 6.00 Build 0)  -->
<!DOCTYPE svg PUBLIC "-//W3C//DTD SVG 1.1//EN" "http://www.w3.org/Graphics/SVG/1.1/DTD/svg11.dtd">
<svg version="1.1" id="Capa_1" xmlns="http://www.w3.org/2000/svg" xmlns:xlink="http://www.w3.org/1999/xlink" x="0px" y="0px"
	 width="32px" height="32px" viewBox="0 0 32 32" enable-background="new 0 0 32 32" xml:space="preserve">
<path d="M26.36,6.02C26.25,6,26.12,6,25.99,6c-2.08,0-3.78,1.56-3.971,3.64c-0.09,0.76-0.619,3.18-1.899,3.96
	c-0.29,0.19-0.66,0.27-1.12,0.27c-0.7,0-1.54-0.19-2.51-0.58c-1.94-0.78-3.79-1.17-5.51-1.17c-1.93,0-3.71,0.49-5.28,1.45
	c-4.91,3.01-5.62,9.36-5.68,10.07c-0.2,2.19,1.42,4.141,3.62,4.341C3.78,28,3.89,28,4,28c2.08,0,3.8-1.56,3.98-3.64
	c0.09-0.761,0.62-3.19,1.9-3.96c0.29-0.19,0.66-0.271,1.12-0.271c0.7,0,1.54,0.19,2.51,0.58c1.94,0.78,3.79,1.17,5.51,1.17
	c1.931,0,3.711-0.49,5.28-1.46c4.9-3,5.62-9.34,5.681-10.06C30.18,8.17,28.56,6.22,26.36,6.02z M5.99,24.18C5.9,25.22,5.02,26,4,26
	c-0.06,0-0.12,0-0.18-0.01c-1.1-0.101-1.91-1.07-1.81-2.17c0.01-0.141,0.2-2.051,1.11-4.141C5.11,19.1,6.43,19.7,7.23,20.4
	C6.22,22.1,6,24.15,5.99,24.18z M13.93,18.73c-1.09-0.4-2.07-0.601-2.93-0.601c-0.83,0-1.56,0.18-2.17,0.561
	c-0.1,0.06-0.19,0.119-0.28,0.199c-0.87-0.76-2.23-1.52-4.14-1.439c0.61-0.83,1.37-1.58,2.33-2.17c1.26-0.77,2.68-1.16,4.24-1.16
	c0.64,0,1.29,0.06,1.97,0.19c0.6,0.61,1.67,1.89,1.6,3.1C14.52,17.88,14.32,18.32,13.93,18.73z M23.26,18.72
	c-1.26,0.771-2.68,1.16-4.24,1.16c-0.979,0-2.01-0.149-3.1-0.46c0.38-0.59,0.58-1.22,0.62-1.9c0.05-0.81-0.15-1.569-0.48-2.26
	c1.09,0.41,2.07,0.61,2.94,0.61c0.83,0,1.55-0.18,2.17-0.56c0.13-0.08,0.25-0.16,0.36-0.26c0.85,0.13,2.479,0.63,3.239,2.46
	C24.33,17.96,23.83,18.37,23.26,18.72z M26.12,15.78c-0.86-1.32-2.08-2.06-3.2-2.44c0.89-1.64,1.08-3.49,1.09-3.52
	C24.1,8.79,24.97,8,25.99,8c0.06,0,0.13,0,0.189,0.01c1.101,0.1,1.91,1.07,1.811,2.17C27.98,10.35,27.69,13.21,26.12,15.78z"/>
</svg>
