<?xml version="1.0" encoding="utf-8"?>
<!-- Generator: Adobe Illustrator 16.0.0, SVG Export Plug-In . SVG Version: 6.00 Build 0)  -->
<svg xmlns="http://www.w3.org/2000/svg" xmlns:xlink="http://www.w3.org/1999/xlink" version="1.1" id="257347043_Capa_1_grid" x="0px" y="0px" width="32px" height="32px" viewBox="0 0 32 32" enable-background="new 0 0 32 32" xml:space="preserve">
<g>
	<path d="M8.998,26C8.79,26,8.58,25.935,8.4,25.8S4,22.438,4,17s4.22-8.665,4.4-8.8c0.443-0.332,1.069-0.241,1.4,0.2   c0.331,0.441,0.242,1.067-0.198,1.398C9.553,9.836,6,12.591,6,17c0,4.418,3.566,7.175,3.602,7.201   c0.439,0.334,0.527,0.96,0.195,1.4C9.601,25.862,9.301,26,8.998,26z"/>
</g>
<g>
	<path d="M6.999,30c-0.19,0-0.383-0.055-0.554-0.168C6.182,29.656,0,25.438,0,17C0,8.562,6.182,4.343,6.445,4.168   c0.458-0.308,1.08-0.182,1.387,0.277c0.306,0.459,0.183,1.079-0.275,1.386C7.324,5.988,2,9.665,2,17   c0,7.38,5.499,11.131,5.555,11.168c0.459,0.307,0.583,0.927,0.277,1.387C7.639,29.844,7.322,30,6.999,30z"/>
</g>
<g>
	<path d="M21.001,26c-0.305,0-0.604-0.138-0.801-0.4c-0.332-0.441-0.242-1.068,0.2-1.399c0.033-0.025,3.6-2.782,3.6-7.2   c0-4.417-3.566-7.174-3.603-7.202c-0.438-0.333-0.526-0.959-0.194-1.4c0.331-0.44,0.955-0.529,1.396-0.198   c0.18,0.135,4.4,3.362,4.4,8.8s-4.221,8.665-4.4,8.8S21.21,26,21.001,26z"/>
</g>
<g>
	<path d="M23.001,30c-0.323,0-0.641-0.156-0.833-0.445c-0.307-0.46-0.183-1.08,0.277-1.387C22.67,28.017,28,24.34,28,17   c0-7.379-5.499-11.131-5.555-11.168c-0.46-0.306-0.584-0.927-0.277-1.387c0.306-0.459,0.926-0.585,1.387-0.277   C23.817,4.343,30,8.562,30,17c0,8.438-6.183,12.656-6.445,12.832C23.384,29.945,23.191,30,23.001,30z"/>
</g>
<g>
	<path d="M15,14c1.654,0,3,1.346,3,3s-1.346,3-3,3s-3-1.346-3-3S13.346,14,15,14 M15,12c-2.761,0-5,2.239-5,5c0,2.762,2.239,5,5,5   c2.762,0,5-2.238,5-5C20,14.239,17.762,12,15,12L15,12z"/>
</g>
</svg>
