<?xml version="1.0" encoding="utf-8"?>
<!-- Generator: Adobe Illustrator 16.0.0, SVG Export Plug-In . SVG Version: 6.00 Build 0)  -->
<svg xmlns="http://www.w3.org/2000/svg" xmlns:xlink="http://www.w3.org/1999/xlink" version="1.1" id="257347044_Capa_1_grid" x="0px" y="0px" width="32px" height="32px" viewBox="0 0 32 32" enable-background="new 0 0 32 32" xml:space="preserve">
<path d="M18,18l-3,4l-3-4c-8,0-8,12-8,12h22C26,30,26,18,18,18z M11.07,20.09L15,25.33l3.93-5.24c3.49,0.69,4.57,5.22,4.92,7.91  H6.15C6.5,25.31,7.58,20.78,11.07,20.09z"/>
<path d="M24,10V8h-2.08c-0.16-1.19-0.62-2.27-1.32-3.19l1.471-1.47l-1.41-1.41L19.19,3.4c-0.921-0.7-2-1.16-3.19-1.32V0h-2v2.08  c-1.19,0.16-2.27,0.62-3.19,1.32L9.34,1.93L7.93,3.34L9.4,4.81C8.7,5.73,8.24,6.81,8.08,8H6v2h2.08c0.16,1.19,0.62,2.27,1.32,3.19  l-1.47,1.47l1.41,1.41l1.47-1.47c0.92,0.7,2,1.16,3.19,1.32V18h2v-2.08c1.19-0.16,2.27-0.62,3.19-1.32l1.47,1.47l1.41-1.41  L20.6,13.19c0.7-0.92,1.16-2,1.32-3.19H24z M15,14c-2.76,0-5-2.24-5-5s2.24-5,5-5s5,2.24,5,5S17.76,14,15,14z"/>
</svg>
