<?xml version="1.0" encoding="utf-8"?>
<!-- Generator: Adobe Illustrator 16.0.0, SVG Export Plug-In . SVG Version: 6.00 Build 0)  -->
<svg xmlns="http://www.w3.org/2000/svg" xmlns:xlink="http://www.w3.org/1999/xlink" version="1.1" id="257347046_Capa_1_grid" x="0px" y="0px" width="32px" height="32px" viewBox="0 0 32 32" enable-background="new 0 0 32 32" xml:space="preserve">
<g>
	<path d="M25.95,16c-0.47-5.28-4.67-9.48-9.95-9.95V4h-2v2.05C8.72,6.52,4.52,10.72,4.05,16H2v2h2.05c0.47,5.28,4.67,9.48,9.95,9.95   V30h2v-2.05c5.28-0.47,9.48-4.67,9.95-9.95H28v-2H25.95z M23.94,18c-0.46,4.16-3.78,7.48-7.94,7.94V24h-2v1.94   C9.84,25.48,6.52,22.16,6.06,18H8v-2H6.06C6.52,11.84,9.84,8.52,14,8.06V10h2V8.06c4.16,0.46,7.48,3.78,7.94,7.94H22v2H23.94z"/>
	<polygon points="18,16 18,18 16,18 16,20 14,20 14,18 12,18 12,16 14,16 14,14 16,14 16,16  "/>
</g>
</svg>
