<?xml version="1.0" encoding="utf-8"?>
<!-- Generator: Adobe Illustrator 16.0.0, SVG Export Plug-In . SVG Version: 6.00 Build 0)  -->
<svg xmlns="http://www.w3.org/2000/svg" xmlns:xlink="http://www.w3.org/1999/xlink" version="1.1" id="257347047_Capa_1_grid" x="0px" y="0px" width="32px" height="32px" viewBox="0 0 32 32" enable-background="new 0 0 32 32" xml:space="preserve">
<g>
	<g>
		<g>
			<path d="M15,8c6.065,0,11,4.935,11,11s-4.935,11-11,11S4,25.065,4,19S8.935,8,15,8 M15,6C7.82,6,2,11.82,2,19s5.82,13,13,13     s13-5.82,13-13S22.18,6,15,6L15,6z"/>
		</g>
	</g>
	<g>
		<g>
			<polygon points="20,20 14,20 14,10 16,10 16,18 20,18    "/>
		</g>
	</g>
	<g>
		<rect x="4" y="3.172" transform="matrix(0.7071 0.7071 -0.7071 0.7071 6.4142 -1.4853)" width="2" height="7.657"/>
	</g>
	<g>
		<rect x="21.172" y="6" transform="matrix(0.7071 0.7071 -0.7071 0.7071 12.2721 -15.6274)" width="7.657" height="2"/>
	</g>
</g>
</svg>
