<?xml version="1.0" encoding="utf-8"?>
<!-- Generator: Adobe Illustrator 16.0.0, SVG Export Plug-In . SVG Version: 6.00 Build 0)  -->
<svg xmlns="http://www.w3.org/2000/svg" xmlns:xlink="http://www.w3.org/1999/xlink" version="1.1" id="257347048_Capa_1_grid" x="0px" y="0px" width="32px" height="32px" viewBox="0 0 32 32" enable-background="new 0 0 32 32" xml:space="preserve">
<g>
	<path d="M18,18l-3,4l-3-4c-8,0-8,12-8,12h22C26,30,26,18,18,18z M11.07,20.09L15,25.33l3.93-5.24c3.49,0.69,4.57,5.22,4.92,7.91   H6.15C6.5,25.31,7.58,20.78,11.07,20.09z"/>
</g>
<g>
	<rect x="14" y="16" width="2" height="2"/>
</g>
<g>
	<path d="M16,14h-2v-3c0-0.552,0.448-1,1-1c0.202-0.001,5-0.07,5-4c0-3.955-3.837-4-4-4c-0.405,0.003-4,0.147-4,4h-2   c0-4.746,3.925-6,6-6s6,1.254,6,6c0,4.15-3.502,5.63-6,5.937V14z"/>
</g>
</svg>
