<?xml version="1.0" encoding="utf-8"?>
<!-- Generator: Adobe Illustrator 16.0.0, SVG Export Plug-In . SVG Version: 6.00 Build 0)  -->
<svg xmlns="http://www.w3.org/2000/svg" xmlns:xlink="http://www.w3.org/1999/xlink" version="1.1" id="257347049_Capa_1_grid" x="0px" y="0px" width="32px" height="32px" viewBox="0 0 32 32" enable-background="new 0 0 32 32" xml:space="preserve">
<g>
	<path d="M16.36,7.75C17.9,7.2,19,5.73,19,4c0-2.21-1.79-4-4-4s-4,1.79-4,4c0,1.73,1.1,3.2,2.64,3.75L4.32,32h2.13l1.9-4.93   l6.63-6.63l6.74,6.819L23.55,32h2.13L16.36,7.75z M13,4c0-1.1,0.9-2,2-2s2,0.9,2,2s-0.9,2-2,2S13,5.1,13,4z M10.13,22.45l1.91-4.97   l1.52,1.539L10.13,22.45z M12.83,15.43L15,9.79l2.16,5.63l-2.18,2.18L12.83,15.43z M16.39,19.03l1.56-1.561l1.979,5.141   L16.39,19.03z"/>
</g>
</svg>
