<?xml version="1.0" encoding="utf-8"?>
<!-- Generator: Adobe Illustrator 16.0.0, SVG Export Plug-In . SVG Version: 6.00 Build 0)  -->
<svg xmlns="http://www.w3.org/2000/svg" xmlns:xlink="http://www.w3.org/1999/xlink" version="1.1" id="257347050_Capa_1_grid" x="0px" y="0px" width="32px" height="32px" viewBox="0 0 32 32" enable-background="new 0 0 32 32" xml:space="preserve">
<g>
	<path d="M22,30v2H12v-2h4V11c0,0,0-1,1-1s1,1,1,1v19H22z"/>
</g>
<g>
	<path d="M13.45,18.11l-0.9,1.779C12.37,19.8,8,17.57,8,13c0-4.57,4.37-6.8,4.55-6.89l0.9,1.78C13.42,7.91,10,9.68,10,13   S13.42,18.09,13.45,18.11z"/>
</g>
<g>
	<path d="M9.32,22.05l-0.64,1.9C8.41,23.86,2,21.62,2,13S8.41,2.14,8.68,2.05l0.64,1.9C9.1,4.02,4,5.86,4,13   C4,20.2,9.26,22.03,9.32,22.05z"/>
</g>
<g>
	<path d="M26,13c0,4.57-4.37,6.8-4.55,6.89l-0.9-1.779C20.58,18.09,24,16.32,24,13s-3.42-5.09-3.45-5.11l0.9-1.78   C21.63,6.2,26,8.43,26,13z"/>
</g>
<g>
	<path d="M32,13c0,8.62-6.41,10.86-6.68,10.95l-0.641-1.9C24.9,21.98,30,20.14,30,13c0-7.2-5.26-9.03-5.32-9.05l0.641-1.9   C25.59,2.14,32,4.38,32,13z"/>
</g>
</svg>
