<?xml version="1.0" encoding="utf-8"?>
<!-- Generator: Adobe Illustrator 16.0.0, SVG Export Plug-In . SVG Version: 6.00 Build 0)  -->
<svg xmlns="http://www.w3.org/2000/svg" xmlns:xlink="http://www.w3.org/1999/xlink" version="1.1" id="257347051_Capa_1_grid" x="0px" y="0px" width="32px" height="32px" viewBox="0 0 32 32" enable-background="new 0 0 32 32" xml:space="preserve">
<g>
	<g>
		<g>
			<path d="M15,2C6.721,2,0,8.721,0,17c0,8.28,6.721,15,15,15c8.28,0,15-6.72,15-15C30,8.721,23.28,2,15,2z M15,30     C7.83,30,2,24.17,2,17S7.83,4,15,4s13,5.83,13,13S22.17,30,15,30z"/>
		</g>
		<g>
			<polygon points="3.59,17 10.29,10.29 11.71,11.71 7.41,16 22.59,16 18.29,11.71 19.71,10.29 26.41,17 19.71,23.71 18.29,22.29      22.59,18 7.41,18 11.71,22.29 10.29,23.71    "/>
		</g>
	</g>
</g>
</svg>
