<?xml version="1.0" encoding="utf-8"?>
<!-- Generator: Adobe Illustrator 16.0.0, SVG Export Plug-In . SVG Version: 6.00 Build 0)  -->
<svg xmlns="http://www.w3.org/2000/svg" xmlns:xlink="http://www.w3.org/1999/xlink" version="1.1" id="257347054_Capa_1_grid" x="0px" y="0px" width="32px" height="32px" viewBox="0 0 32 32" enable-background="new 0 0 32 32" xml:space="preserve">
<g>
	<path d="M20,2V0H0v32h20v-8h-2v6H2V2H20z"/>
</g>
<g>
	<rect x="4" y="26" width="12" height="2"/>
</g>
<g>
	<path d="M10,6V4H4v18h6v-2H6v-2h2v-2H6v-2h2v-2H6v-2h2V8H6V6H10z"/>
</g>
<g>
	<path d="M31.71,14.29l-1.42,1.42l-2.3-2.31C27.78,18.18,23.83,22,19,22c-4.96,0-9-4.04-9-9s4.04-9,9-9c2.93,0,5.53,1.41,7.18,3.58   l-1.43,1.43C23.48,7.19,21.38,6,19,6c-3.86,0-7,3.14-7,7s3.14,7,7,7c3.71,0,6.76-2.9,6.98-6.56l-2.271,2.27l-1.42-1.42L27,9.59   L31.71,14.29z"/>
</g>
</svg>
