<?xml version="1.0" encoding="utf-8"?>
<!-- Generator: Adobe Illustrator 16.0.0, SVG Export Plug-In . SVG Version: 6.00 Build 0)  -->
<svg xmlns="http://www.w3.org/2000/svg" xmlns:xlink="http://www.w3.org/1999/xlink" version="1.1" id="257347055_Capa_1_grid" x="0px" y="0px" width="32px" height="32px" viewBox="0 0 32 32" enable-background="new 0 0 32 32" xml:space="preserve">
<g>
	<path d="M27.34,3.69c-2.149-2.15-4.38-3.24-6.64-3.24c-2.82,0-4.6,1.75-4.68,1.82L3.3,15c-3.92,3.92-0.79,9.11,1.41,11.31   c2.15,2.15,4.38,3.24,6.64,3.24c2.82,0,4.6-1.75,4.67-1.819L28.75,15C28.8,14.95,33.63,9.98,27.34,3.69z M27.34,13.59L14.61,26.31   c-0.01,0.011-1.29,1.24-3.26,1.24c-1.71,0-3.47-0.89-5.22-2.649c-0.2-0.2-4.9-5.011-1.42-8.49L17.43,3.69   C17.45,3.68,18.73,2.45,20.7,2.45c1.71,0,3.47,0.89,5.22,2.65C30.69,9.87,27.69,13.22,27.34,13.59z"/>
</g>
<g>
	<polygon points="19.56,12.88 22.39,15.71 20.97,17.12 18.15,14.3 15.32,17.12 13.9,15.71 16.73,12.88 13.9,10.05 15.32,8.64    18.15,11.47 20.98,8.64 22.39,10.05  "/>
</g>
<g>
	<polygon points="12.49,19.95 11.08,21.36 9.66,19.95 11.08,18.54  "/>
</g>
<g>
	<polygon points="15.32,22.78 13.9,24.19 12.49,22.78 13.9,21.36  "/>
</g>
<g>
	<polygon points="9.66,17.12 8.25,18.54 6.83,17.12 8.25,15.71  "/>
</g>
</svg>
