<?xml version="1.0" encoding="utf-8"?>
<!-- Generator: Adobe Illustrator 16.0.0, SVG Export Plug-In . SVG Version: 6.00 Build 0)  -->
<svg xmlns="http://www.w3.org/2000/svg" xmlns:xlink="http://www.w3.org/1999/xlink" version="1.1" id="257347056_Capa_1_grid" x="0px" y="0px" width="32px" height="32px" viewBox="0 0 32 32" enable-background="new 0 0 32 32" xml:space="preserve">
<g>
	<path d="M11,4C7.04,4,6,7.27,6,9v14c0,1.73,1.04,5,5,5s5-3.27,5-5V9C16,7.27,14.96,4,11,4z M14,22.99C13.99,23.5,13.82,26,11,26   s-2.99-2.5-3-3v-1.65l6-7.5V22.99z M14,10.66l-6,7.5V9.01C8.01,8.5,8.18,6,11,6s2.99,2.5,3,3V10.66z"/>
</g>
<g>
	<path d="M28,27c0,0.55-0.45,1-1,1h-8c-0.55,0-1-0.45-1-1s0.45-1,1-1h3V8h-3c-0.55,0-1-0.45-1-1s0.45-1,1-1h3V5c0-0.55,0.45-1,1-1   s1,0.45,1,1v21h3C27.55,26,28,26.45,28,27z"/>
</g>
</svg>
