<?xml version="1.0" encoding="utf-8"?>
<!-- Generator: Adobe Illustrator 16.0.0, SVG Export Plug-In . SVG Version: 6.00 Build 0)  -->
<svg xmlns="http://www.w3.org/2000/svg" xmlns:xlink="http://www.w3.org/1999/xlink" version="1.1" id="257347057_Capa_1_grid" x="0px" y="0px" width="32px" height="32px" viewBox="0 0 32 32" enable-background="new 0 0 32 32" xml:space="preserve">
<g>
	<path d="M15.82,12.76c-0.01-1.43,1.02-1.69,1.42-1.79C21.95,9.79,22,6.15,22,6l-2-0.01c-0.01,0.23-0.15,2.27-3.24,3.04   c-1.68,0.42-2.71,1.56-2.9,3.15C13.26,12.06,12.64,12,12,12C6.49,12,2,16.49,2,22s4.49,10,10,10s10-4.49,10-10   C22,17.84,19.44,14.26,15.82,12.76z M12,30c-4.41,0-8-3.59-8-8s3.59-8,8-8s8,3.59,8,8S16.41,30,12,30z"/>
</g>
<g>
	<rect x="14" y="4" width="4" height="2"/>
</g>
<g>
	<rect x="24" y="4" width="4" height="2"/>
</g>
<g>
	<rect x="20" width="2" height="4"/>
</g>
</svg>
