<?xml version="1.0" encoding="utf-8"?>
<!-- Generator: Adobe Illustrator 16.0.0, SVG Export Plug-In . SVG Version: 6.00 Build 0)  -->
<svg xmlns="http://www.w3.org/2000/svg" xmlns:xlink="http://www.w3.org/1999/xlink" version="1.1" id="257347058_Capa_1_grid" x="0px" y="0px" width="32px" height="32px" viewBox="0 0 32 32" enable-background="new 0 0 32 32" xml:space="preserve">
<g>
	<g>
		<path d="M28.75,7.5l-0.91,1.83C26.6,8.391,22.79,6,16,6S5.4,8.391,4.16,9.33L3.25,7.5C4.98,6.27,9.08,4,16,4S27.02,6.27,28.75,7.5    z"/>
	</g>
	<g>
		<path d="M26.02,12.971l-0.909,1.809C23.52,13.67,20.37,12,16,12s-7.52,1.67-9.109,2.779l-0.91-1.809C7.859,11.71,11.279,10,16,10    C20.72,10,24.14,11.71,26.02,12.971z"/>
	</g>
	<g>
		<path d="M23.3,18.4L22.4,20.21C20.87,19.18,18.56,18,16,18c-2.98,0-5.141,1.06-6.49,2.03l-0.9-1.81C10.24,17.109,12.7,16,16,16    C18.95,16,21.54,17.25,23.3,18.4z"/>
	</g>
	<g>
		<path d="M20.83,23.34l-0.9,1.8C18.98,24.51,17.68,24,16,24c-1.84,0-3.13,0.41-4.029,0.94l-0.9-1.811C12.24,22.48,13.83,22,16,22    C18.04,22,19.63,22.59,20.83,23.34z"/>
	</g>
	<g>
		<path d="M18.28,28.44l-0.9,1.8C16.98,30.08,16.52,30,16,30s-0.98,0.08-1.38,0.24l-0.899-1.8C14.38,28.16,15.141,28,16,28    S17.62,28.16,18.28,28.44z"/>
	</g>
</g>
</svg>
