<?xml version="1.0" encoding="utf-8"?>
<!-- Generator: Adobe Illustrator 16.0.0, SVG Export Plug-In . SVG Version: 6.00 Build 0)  -->
<svg xmlns="http://www.w3.org/2000/svg" xmlns:xlink="http://www.w3.org/1999/xlink" version="1.1" id="257347059_Capa_1_grid" x="0px" y="0px" width="32px" height="32px" viewBox="0 0 32 32" enable-background="new 0 0 32 32" xml:space="preserve">
<g>
	<g>
		<path d="M23,10h-7v14h7c2.42,0,7-1.46,7-7S25.42,10,23,10z M23,22h-5V12h5c0.2,0,5,0.06,5,5C28,21.82,23.51,22,23,22z M0,17    c0,5.54,4.58,7,7,7h7V10H7C4.58,10,0,11.46,0,17z M12,22H7c-0.2,0-5-0.06-5-5c0-4.82,4.49-5,5-5h5V22z"/>
	</g>
</g>
<g>
	<rect x="14" y="2" width="2" height="6"/>
</g>
<g>
	<rect x="4.172" y="4" transform="matrix(0.7071 0.7071 -0.7071 0.7071 5.5858 -3.4853)" width="5.657" height="2"/>
</g>
<g>
	<rect x="22" y="2.172" transform="matrix(0.7071 0.7071 -0.7071 0.7071 10.2721 -14.799)" width="2" height="5.657"/>
</g>
<g>
	<rect x="14" y="26" width="2" height="6"/>
</g>
<g>
	<rect x="6" y="26.172" transform="matrix(0.7071 0.7071 -0.7071 0.7071 22.5563 3.5442)" width="2" height="5.657"/>
</g>
<g>
	<rect x="20.172" y="28" transform="matrix(0.7071 0.7071 -0.7071 0.7071 27.2426 -7.7696)" width="5.657" height="2"/>
</g>
</svg>
