<?xml version="1.0" encoding="utf-8"?>
<!-- Generator: Adobe Illustrator 16.0.0, SVG Export Plug-In . SVG Version: 6.00 Build 0)  -->
<svg xmlns="http://www.w3.org/2000/svg" xmlns:xlink="http://www.w3.org/1999/xlink" version="1.1" id="257347060_Capa_1_grid" x="0px" y="0px" width="32px" height="32px" viewBox="0 0 32 32" enable-background="new 0 0 32 32" xml:space="preserve">
<g>
	<path d="M23.41,2H6.59L0,8.59v16.82L6.59,32h16.82L30,25.41V8.59L23.41,2z M28,24.59L22.59,30H7.41L2,24.59V9.41L7.41,4h15.18   L28,9.41V24.59z"/>
	<path d="M24,25c0,0.55-0.45,1-1,1h-4c-0.55,0-1-0.45-1-1s0.45-1,1-1h1V12h-1c-0.55,0-1-0.45-1-1s0.45-1,1-1h1V9c0-0.55,0.45-1,1-1   s1,0.45,1,1v15h1C23.55,24,24,24.45,24,25z"/>
	<path d="M11,8c-3.96,0-5,3.27-5,5v8c0,1.73,1.04,5,5,5s5-3.27,5-5v-8C16,11.27,14.96,8,11,8z M8,13.01C8.01,12.5,8.18,10,11,10   c2.36,0,2.86,1.75,2.97,2.61L8,18.58V13.01z M14,20.99C13.99,21.5,13.82,24,11,24c-2.36,0-2.86-1.75-2.97-2.61L14,15.42V20.99z"/>
</g>
</svg>
