<?xml version="1.0" encoding="utf-8"?>
<!-- Generator: Adobe Illustrator 16.0.0, SVG Export Plug-In . SVG Version: 6.00 Build 0)  -->
<svg xmlns="http://www.w3.org/2000/svg" xmlns:xlink="http://www.w3.org/1999/xlink" version="1.1" id="257347061_Capa_1_grid" x="0px" y="0px" width="32px" height="32px" viewBox="0 0 32 32" enable-background="new 0 0 32 32" xml:space="preserve">
<path d="M26,10c0-5.52-4.48-10-10-10C10.48,0,6,4.48,6,10c0,3.21,1.52,6.08,3.88,7.9L8,32l8-4l8,4l-1.88-14.1  C24.48,16.08,26,13.21,26,10z M16.89,26.21L16,25.76l-0.89,0.45l-4.63,2.31l1.26-9.479C13.03,19.66,14.47,20,16,20  c1.53,0,2.97-0.34,4.26-0.96l1.26,9.479L16.89,26.21z M16,18c-4.41,0-8-3.59-8-8s3.59-8,8-8s8,3.59,8,8S20.41,18,16,18z"/>
</svg>
