<?xml version="1.0"?>
<svg xmlns="http://www.w3.org/2000/svg" id="257397616_linea_guia_grid" data-name="linea guia" viewBox="0 0 32 32"><title>connection_win10</title><path d="M26.38,13.7a3.61,3.61,0,1,0-3.61-3.61,3.55,3.55,0,0,0,.08.73l-1.8,1a6.22,6.22,0,0,0-8.68-1.57L10,7.8a3.54,3.54,0,0,0,.42-1.64A3.62,3.62,0,1,0,6.77,9.77a3.66,3.66,0,0,0,1.82-.51l2.35,2.34a6.19,6.19,0,0,0,.44,8L8.9,22a4.25,4.25,0,1,0,1.48,3.21,4.21,4.21,0,0,0-.31-1.56L13,20.81a6.13,6.13,0,0,0,2.95.75,6.22,6.22,0,0,0,3-.76l2.72,2.61a2.86,2.86,0,0,0-.35,1.36,2.93,2.93,0,1,0,2.93-2.93,2.88,2.88,0,0,0-1.1.22L20.5,19.55a6.2,6.2,0,0,0,1.67-4.23,6,6,0,0,0-.26-1.74l1.88-1A3.58,3.58,0,0,0,26.38,13.7ZM6.77,7.77A1.61,1.61,0,1,1,8.38,6.16,1.62,1.62,0,0,1,6.77,7.77ZM6.11,27.45a2.27,2.27,0,1,1,2.27-2.26A2.27,2.27,0,0,1,6.11,27.45Zm5.58-12.13a4.24,4.24,0,1,1,4.24,4.24A4.25,4.25,0,0,1,11.69,15.32Zm12.52,8.52a.93.93,0,1,1-.93.93A.93.93,0,0,1,24.21,23.84ZM26.38,8.48a1.61,1.61,0,1,1-1.61,1.61A1.61,1.61,0,0,1,26.38,8.48Z"/></svg>
