<?xml version="1.0" encoding="utf-8"?>
<!-- Generator: Adobe Illustrator 16.0.0, SVG Export Plug-In . SVG Version: 6.00 Build 0)  -->
<svg xmlns="http://www.w3.org/2000/svg" xmlns:xlink="http://www.w3.org/1999/xlink" version="1.1" id="257347066_Capa_1_grid" x="0px" y="0px" width="32px" height="32px" viewBox="0 0 32 32" enable-background="new 0 0 32 32" xml:space="preserve">
<g>
	<path d="M27.97,16C27.47,8.09,21.07,8,21,8h-8c-0.07,0-6.47,0.09-6.96,8H0v2h6.04c0.49,7.91,6.89,8,6.96,8h8   c0.07,0,6.47-0.09,6.97-8H32v-2H27.97z M16,24h-3c-0.2,0-5-0.08-5-7c0-6.74,4.49-6.99,5-7h3V24z M21,24h-3V10h3c0.2,0,5,0.08,5,7   C26,23.73,21.52,23.99,21,24z"/>
</g>
</svg>
