<?xml version="1.0" encoding="utf-8"?>
<!-- Generator: Adobe Illustrator 16.0.0, SVG Export Plug-In . SVG Version: 6.00 Build 0)  -->
<svg xmlns="http://www.w3.org/2000/svg" xmlns:xlink="http://www.w3.org/1999/xlink" version="1.1" id="257347067_Capa_1_grid" x="0px" y="0px" width="32px" height="32px" viewBox="0 0 32 32" enable-background="new 0 0 32 32" xml:space="preserve">
<g>
	<path d="M15,2C6.73,2,0,8.73,0,17c0,8.27,6.73,15,15,15c8.27,0,15-6.73,15-15C30,8.73,23.27,2,15,2z M15,30C7.83,30,2,24.17,2,17   S7.83,4,15,4s13,5.83,13,13S22.17,30,15,30z"/>
</g>
<g>
	<path d="M26,18c0,1.1-0.9,2-2,2s-2-0.9-2-2c0-1.1,0.9-2,2-2S26,16.9,26,18z"/>
</g>
<g>
	<path d="M12,24c0,1.1-0.9,2-2,2s-2-0.9-2-2s0.9-2,2-2S12,22.9,12,24z"/>
</g>
<g>
	<path d="M20,20c0,1.1-0.9,2-2,2c-1.1,0-2-0.9-2-2s0.9-2,2-2C19.1,18,20,18.9,20,20z"/>
</g>
<g>
	<path d="M18,26c0,1.1-0.9,2-2,2c-1.1,0-2-0.9-2-2s0.9-2,2-2C17.1,24,18,24.9,18,26z"/>
</g>
<g>
	<path d="M10,12c0,1.1-0.9,2-2,2s-2-0.9-2-2s0.9-2,2-2S10,10.9,10,12z"/>
</g>
<g>
	<path d="M16,8c0,1.1-0.9,2-2,2s-2-0.9-2-2s0.9-2,2-2S16,6.9,16,8z"/>
</g>
</svg>
