<?xml version="1.0" encoding="utf-8"?>
<!-- Generator: Adobe Illustrator 16.0.0, SVG Export Plug-In . SVG Version: 6.00 Build 0)  -->
<svg xmlns="http://www.w3.org/2000/svg" xmlns:xlink="http://www.w3.org/1999/xlink" version="1.1" id="257347068_Capa_1_grid" x="0px" y="0px" width="32px" height="32px" viewBox="0 0 32 32" enable-background="new 0 0 32 32" xml:space="preserve">
<g>
	<path d="M18,14v-2h-6V8H7c-0.07,0-7,0.1-7,9c0,8.9,6.93,9,7,9h5v-4h6v-2h-6v-6H18z M10,24H7c-0.2,0-5-0.08-5-7   c0-6.74,4.49-6.99,5-7h3V24z"/>
</g>
<g>
	<path d="M25,8h-5v18h5c0.07,0,7-0.1,7-9C32,8.1,25.07,8,25,8z M25,24h-3V10h3c0.2,0,5,0.08,5,7C30,23.73,25.52,23.99,25,24z"/>
</g>
</svg>
