<?xml version="1.0" encoding="utf-8"?>
<!-- Generator: Adobe Illustrator 16.0.0, SVG Export Plug-In . SVG Version: 6.00 Build 0)  -->
<svg xmlns="http://www.w3.org/2000/svg" xmlns:xlink="http://www.w3.org/1999/xlink" version="1.1" id="257347071_Capa_1_grid" x="0px" y="0px" width="32px" height="32px" viewBox="0 0 32 32" enable-background="new 0 0 32 32" xml:space="preserve">
<g>
	<path d="M15,32c-4.007,0-7.774-1.561-10.607-4.394C1.56,24.773,0,21.007,0,17C0,8.729,6.729,2,15,2c8.271,0,15,6.729,15,15   C29.999,25.271,23.27,32,15,32z M15,4C7.832,4,2,9.832,2,17c0,3.473,1.352,6.737,3.807,9.192S11.527,30,15,30   c7.167,0,12.999-5.832,13-13C28,9.832,22.168,4,15,4z"/>
</g>
<ellipse cx="10" cy="15" rx="2" ry="3"/>
<ellipse cx="20" cy="15" rx="2" ry="3"/>
<g>
	<path d="M17.818,24.117c-1.104,0-2.25-0.44-3.418-1.317c-0.83-0.622-1.631-0.872-2.387-0.746c-1.307,0.221-2.172,1.487-2.181,1.5   c-0.307,0.456-0.928,0.582-1.385,0.276c-0.458-0.305-0.585-0.92-0.283-1.38c0.053-0.081,1.329-1.987,3.493-2.364   c1.325-0.229,2.649,0.144,3.943,1.114c1.008,0.756,1.915,1.046,2.702,0.86c1.158-0.272,1.798-1.495,1.804-1.508   c0.248-0.494,0.847-0.692,1.342-0.447c0.494,0.247,0.694,0.848,0.447,1.342c-0.042,0.084-1.056,2.07-3.134,2.561   C18.45,24.081,18.136,24.117,17.818,24.117z"/>
</g>
</svg>
