<?xml version="1.0" encoding="utf-8"?>
<!-- Generator: Adobe Illustrator 16.0.0, SVG Export Plug-In . SVG Version: 6.00 Build 0)  -->
<svg xmlns="http://www.w3.org/2000/svg" xmlns:xlink="http://www.w3.org/1999/xlink" version="1.1" id="257347078_Capa_1_grid" x="0px" y="0px" width="32px" height="32px" viewBox="0 0 32 32" enable-background="new 0 0 32 32" xml:space="preserve">
<g>
	<g>
		<path d="M28,14V8c0-0.08-0.1-8-9-8c-8.9,0-9,7.92-9,8v6H6v6h2v-4h22v14H8v-4H6v6h26V14H28z M26,14H12V8c0-0.25,0.08-6,7-6    c6.76,0,7,5.39,7,6V14z"/>
	</g>
</g>
<g>
	<g>
		<polygon points="24.41,23 19.71,27.71 18.29,26.29 20.59,24 2,24 2,22 20.59,22 18.29,19.71 19.71,18.29   "/>
	</g>
</g>
</svg>
