<?xml version="1.0" encoding="utf-8"?>
<!-- Generator: Adobe Illustrator 16.0.0, SVG Export Plug-In . SVG Version: 6.00 Build 0)  -->
<svg xmlns="http://www.w3.org/2000/svg" xmlns:xlink="http://www.w3.org/1999/xlink" version="1.1" id="257347079_Capa_1_grid" x="0px" y="0px" width="32px" height="32px" viewBox="0 0 32 32" enable-background="new 0 0 32 32" xml:space="preserve">
<g>
	<path d="M29,10h-3V2H10v8H3c-1.21,0-3,0.8-3,3v14c0,1.21,0.8,3,3,3h29V13C32,11.79,31.2,10,29,10z M12,4h12v6H12V4z M6,17H4v7h2v4   H3c-0.81,0-0.99-0.55-1-1V13c0-0.81,0.55-0.99,1-1h3V17z M30,28H8V12h21c0.81,0,0.99,0.55,1,1V28z"/>
</g>
<g>
	<rect x="10" y="22" width="18" height="2"/>
</g>
<g>
	<rect x="26" y="14" width="2" height="2"/>
</g>
<g>
	<rect x="22" y="14" width="2" height="2"/>
</g>
<g>
	<rect x="18" y="14" width="2" height="2"/>
</g>
</svg>
