<?xml version="1.0" encoding="utf-8"?>
<!-- Generator: Adobe Illustrator 16.0.0, SVG Export Plug-In . SVG Version: 6.00 Build 0)  -->
<svg xmlns="http://www.w3.org/2000/svg" xmlns:xlink="http://www.w3.org/1999/xlink" version="1.1" id="257347080_Capa_1_grid" x="0px" y="0px" width="32px" height="32px" viewBox="0 0 32 32" enable-background="new 0 0 32 32" xml:space="preserve">
<g>
	<path d="M25.71,14.29l-1.42,1.42l2.3,2.29H20V9l-7-7H2C0,2,0,4,0,4v24c0,2,2,2,2,2h16c2,0,2-2,2-2v-8h6.59l-2.3,2.29l1.42,1.42   l4.7-4.71L25.71,14.29z M18,28c0,0.01-15.98,0.01-16,0V4h8v5c0,1.21,0.8,3,3,3h5V28z M18,10h-5c-1,0-1-1-1-1V4h0.17L18,9.83V10z"/>
</g>
</svg>
