<?xml version="1.0" encoding="utf-8"?>
<!-- Generator: Adobe Illustrator 16.0.0, SVG Export Plug-In . SVG Version: 6.00 Build 0)  -->
<svg xmlns="http://www.w3.org/2000/svg" xmlns:xlink="http://www.w3.org/1999/xlink" version="1.1" id="257347082_Capa_1_grid" x="0px" y="0px" width="32px" height="32px" viewBox="0 0 32 32" enable-background="new 0 0 32 32" xml:space="preserve">
<g>
	<polygon points="30.41,17 25.71,21.71 24.29,20.29 26.59,18 5.41,18 7.71,20.29 6.29,21.71 1.59,17 6.29,12.29 7.71,13.71 5.41,16    26.59,16 24.29,13.71 25.71,12.29  "/>
</g>
<g>
	<polygon points="22,4 22,14 20,14 20,6 12,6 12,14 10,14 10,4  "/>
</g>
<g>
	<polygon points="22,20 22,30 10,30 10,20 12,20 12,28 20,28 20,20  "/>
</g>
</svg>
