<?xml version="1.0" encoding="utf-8"?>
<!-- Generator: Adobe Illustrator 16.0.0, SVG Export Plug-In . SVG Version: 6.00 Build 0)  -->
<svg xmlns="http://www.w3.org/2000/svg" xmlns:xlink="http://www.w3.org/1999/xlink" version="1.1" id="257347086_Capa_1_grid" x="0px" y="0px" width="32px" height="32px" viewBox="0 0 32 32" enable-background="new 0 0 32 32" xml:space="preserve">
<g>
	<path d="M26,15.54V11c0-0.09-0.11-9-10-9C6.11,2,6,10.91,6,11v4.54C4.77,16.63,4,18.23,4,20s0.77,3.37,2,4.46V27c0,1.21,0.8,3,3,3   h7v-4h-2v2H9c-0.81,0-0.99-0.55-1-1v-1.35C8.63,25.88,9.3,26,10,26h2V14h-2c-0.7,0-1.37,0.12-2,0.35V11c0-0.29,0.09-7,8-7   c7.86,0,8,6.72,8,7v3.35C23.37,14.12,22.7,14,22,14h-2v12h2c3.31,0,6-2.69,6-6C28,18.23,27.23,16.63,26,15.54z M10,16v8   c-2.21,0-4-1.79-4-4S7.79,16,10,16z M22,24v-8c2.21,0,4,1.79,4,4S24.21,24,22,24z"/>
</g>
</svg>
