<?xml version="1.0" encoding="utf-8"?>
<!-- Generator: Adobe Illustrator 16.0.0, SVG Export Plug-In . SVG Version: 6.00 Build 0)  -->
<svg xmlns="http://www.w3.org/2000/svg" xmlns:xlink="http://www.w3.org/1999/xlink" version="1.1" id="257347089_Capa_1_grid" x="0px" y="0px" width="32px" height="32px" viewBox="0 0 32 32" enable-background="new 0 0 32 32" xml:space="preserve">
<g>
	<path d="M30,18V6H2v12h4v2.59l-2,2V28h2v-4.59l2-2V18h4v2.59l-2,2V28h2v-4.59l2-2V18h4v3.41l2,2V28h2v-5.41l-2-2V18h4v3.41l2,2V28   h2v-5.41l-2-2V18H30z M4,8h24v4H4V8z M4,16v-2h24v2H4z"/>
</g>
</svg>
