<?xml version="1.0" encoding="utf-8"?>
<!-- Generator: Adobe Illustrator 16.0.0, SVG Export Plug-In . SVG Version: 6.00 Build 0)  -->
<svg xmlns="http://www.w3.org/2000/svg" xmlns:xlink="http://www.w3.org/1999/xlink" version="1.1" id="257347090_Capa_1_grid" x="0px" y="0px" width="32px" height="32px" viewBox="0 0 32 32" enable-background="new 0 0 32 32" xml:space="preserve">
<g>
	<path d="M0,6v22h32V6H0z M30,26H2V8h28V26z"/>
</g>
<g>
	<rect x="20" y="14" width="8" height="2"/>
</g>
<g>
	<rect x="20" y="18" width="8" height="2"/>
</g>
<g>
	<rect x="20" y="22" width="8" height="2"/>
</g>
<g>
	<rect x="20" y="10" width="8" height="2"/>
</g>
<g>
	<path d="M14.75,18.31C15.53,17.42,16,16.27,16,15c0-2.76-2.24-5-5-5s-5,2.24-5,5c0,1.27,0.47,2.42,1.25,3.31   C4.72,19.26,4,22.27,4,24h2c0-0.16,0.03-4,3-4h4c2.94,0,3,3.84,3,4h2C18,22.27,17.28,19.26,14.75,18.31z M8,15c0-1.66,1.34-3,3-3   s3,1.34,3,3s-1.34,3-3,3S8,16.66,8,15z"/>
</g>
</svg>
