<?xml version="1.0"?>
<svg xmlns="http://www.w3.org/2000/svg" id="Layer_1" data-name="Layer 1" viewBox="0 0 32 32"><title>innovation_win10</title><path d="M26.87,11.2c0-.39,0-.5,0-.56a4.76,4.76,0,0,0-.41-1.44A4.63,4.63,0,0,0,26,8.37l-.12-.15-.06-.08c-.12-.14-.22-.26-.33-.37a5.06,5.06,0,0,0-4.9-6.28l-.53,0A6.66,6.66,0,0,0,16,0h-.08A6.63,6.63,0,0,0,12,1.52a5.05,5.05,0,0,0-5.6,5,4.9,4.9,0,0,0,.16,1.21l-.32.36,0,.07L6,8.37a4.46,4.46,0,0,0-.47.83,4.6,4.6,0,0,0-.41,1.44c0,.08,0,.33,0,.48v.09a5.07,5.07,0,0,0,3.18,4.68,3.82,3.82,0,0,0-.08.39l0,0a1.16,1.16,0,0,0,0,.17,6.19,6.19,0,0,0,0,.63A5.28,5.28,0,0,0,10,21v7S11,32,15.85,32s5.89-3.92,5.89-3.92V21.29a5.29,5.29,0,0,0,2.1-4.17c0-.19,0-.4,0-.62a.62.62,0,0,0,0-.12v-.07a4,4,0,0,0-.09-.42A5.06,5.06,0,0,0,26.87,11.2ZM15.85,30a3.89,3.89,0,0,1-3.78-2h7.56A3.93,3.93,0,0,1,15.85,30Zm3.93-3.93H11.93V22.17h7.85ZM22.59,14l-.42-.41A3.44,3.44,0,0,0,22.58,12a1,1,0,0,0-1-1.05A1.06,1.06,0,0,0,20.47,12a1.54,1.54,0,0,1-.31.91,2,2,0,0,1-.95.63,2.39,2.39,0,0,1-.71.1,1.07,1.07,0,0,0-1.06,1.06,1.05,1.05,0,0,0,1.06,1.05,4.39,4.39,0,0,0,2.23-.58,3,3,0,0,1,.95,1.49v.06a4.08,4.08,0,0,1,0,.43,3.07,3.07,0,0,1-3,3.09H17.06v-8a2.92,2.92,0,0,1,1.26-2.25,3.48,3.48,0,0,0,1.92.56,1,1,0,0,0,1.05-1,1.06,1.06,0,0,0-1.05-1.06,1.48,1.48,0,0,1-.91-.32,1.9,1.9,0,0,1-.63-1,2.32,2.32,0,0,1-.1-.7,1.07,1.07,0,0,0-1.06-1.06,1.05,1.05,0,0,0-1.05,1.06,4.26,4.26,0,0,0,.43,1.92,5,5,0,0,0-1.7,2.37,3.55,3.55,0,0,0-1.92-.57,1,1,0,0,0-1.05,1.06,1.06,1.06,0,0,0,1.05,1.05,1.53,1.53,0,0,1,.91.32,1.8,1.8,0,0,1,.63.95,2.39,2.39,0,0,1,.1.71v6H13.22a3.07,3.07,0,0,1-3-3.09,3,3,0,0,1,.06-.48,3.09,3.09,0,0,1,1.06-1.57,3.42,3.42,0,0,0,.71.07,1,1,0,0,0,1.05-1.05A1.06,1.06,0,0,0,12.09,13a1.41,1.41,0,0,1-.9-.31,1.9,1.9,0,0,1-.64-1,2.39,2.39,0,0,1-.1-.71A1.08,1.08,0,0,0,9.39,10a1.06,1.06,0,0,0-1.05,1.06,4.22,4.22,0,0,0,.79,2.54,2,2,0,0,0,.33.38l0,0A2.88,2.88,0,0,1,7.84,9.45L8,9.33l0-.05a1.94,1.94,0,0,1,.88-.7A1.05,1.05,0,0,0,8.7,6.49l-.21,0a3,3,0,0,1,2.08-2.77,5,5,0,0,0,0,2.94,3.62,3.62,0,0,0-.61,2,1.06,1.06,0,0,0,2.11,0A1.8,1.8,0,0,1,14,7a1.05,1.05,0,1,0,0-2.1,4.27,4.27,0,0,0-1.56.27,2.83,2.83,0,0,1,.72-1.88A4.23,4.23,0,0,1,16,2.13h.06A4.27,4.27,0,0,1,18.8,3.28a2.77,2.77,0,0,1,.7,1.45,1.09,1.09,0,0,0,1.08,1,1.06,1.06,0,0,0,.8-.35,1,1,0,0,0,.24-.76,5.1,5.1,0,0,0-.19-.88,3,3,0,0,1,2.08,2.74,4.73,4.73,0,0,0-.74-.19l-.2,0a1.05,1.05,0,0,0-.19,2.09A3.2,3.2,0,0,1,23.73,9c.1.1.22.22.31.33l.05.06.08.08a2.89,2.89,0,0,1,.6,1.74A2.93,2.93,0,0,1,22.59,14Z"/></svg>
