<?xml version="1.0" encoding="utf-8"?>
<!-- Generator: Adobe Illustrator 16.0.0, SVG Export Plug-In . SVG Version: 6.00 Build 0)  -->
<svg xmlns="http://www.w3.org/2000/svg" xmlns:xlink="http://www.w3.org/1999/xlink" version="1.1" id="257347091_Capa_1_grid" x="0px" y="0px" width="32px" height="32px" viewBox="0 0 32 32" enable-background="new 0 0 32 32" xml:space="preserve">
<g>
	<rect x="2" width="30" height="2"/>
</g>
<g>
	<rect x="2" y="30" width="30" height="2"/>
</g>
<g>
	<path d="M25,18c-2.42,0-4.44,1.72-4.9,4h-6.2c-0.14-0.67-0.41-1.29-0.78-1.84l9.229-6.92C23.12,13.72,24.03,14,25,14   c2.76,0,5-2.24,5-5s-2.24-5-5-5c-2.42,0-4.44,1.72-4.9,4h-6.2C13.44,5.72,11.42,4,9,4C6.24,4,4,6.24,4,9s2.24,5,5,5   c2.42,0,4.44-1.72,4.9-4h6.2c0.141,0.67,0.41,1.29,0.78,1.84l-9.23,6.92C10.88,18.28,9.97,18,9,18c-2.76,0-5,2.24-5,5s2.24,5,5,5   c2.42,0,4.44-1.72,4.9-4h6.2c0.46,2.28,2.48,4,4.9,4c2.76,0,5-2.24,5-5S27.76,18,25,18z M25,6c1.65,0,3,1.35,3,3s-1.35,3-3,3   s-3-1.35-3-3S23.35,6,25,6z M9,12c-1.65,0-3-1.35-3-3s1.35-3,3-3s3,1.35,3,3S10.65,12,9,12z M9,26c-1.65,0-3-1.35-3-3s1.35-3,3-3   s3,1.35,3,3S10.65,26,9,26z M25,26c-1.65,0-3-1.35-3-3s1.35-3,3-3s3,1.35,3,3S26.65,26,25,26z"/>
</g>
</svg>
