<?xml version="1.0" encoding="utf-8"?>
<!-- Generator: Adobe Illustrator 16.0.0, SVG Export Plug-In . SVG Version: 6.00 Build 0)  -->
<svg xmlns="http://www.w3.org/2000/svg" xmlns:xlink="http://www.w3.org/1999/xlink" version="1.1" id="257347093_Capa_1_grid" x="0px" y="0px" width="32px" height="32px" viewBox="0 0 32 32" enable-background="new 0 0 32 32" xml:space="preserve">
<g>
	<polygon points="30.41,17 25.71,21.71 24.29,20.29 26.59,18 14,18 14,24 18.59,24 16.29,21.71 17.71,20.29 22.41,25 17.71,29.71    16.29,28.29 18.59,26 14,26 14,28 12,28 12,6 14,6 14,8 18.59,8 16.29,5.71 17.71,4.29 22.41,9 17.71,13.71 16.29,12.29 18.59,10    14,10 14,16 26.59,16 24.29,13.71 25.71,12.29  "/>
</g>
<g>
	<path d="M8,8v2H4V8H8L8,8z M10,6H2v6h8V6L10,6z"/>
</g>
<g>
	<path d="M8,16v2H4v-2H8L8,16z M10,14H2v6h8V14L10,14z"/>
</g>
<g>
	<path d="M8,24v2H4v-2H8L8,24z M10,22H2v6h8V22L10,22z"/>
</g>
</svg>
