<?xml version="1.0" encoding="utf-8"?>
<!-- Generator: Adobe Illustrator 16.0.0, SVG Export Plug-In . SVG Version: 6.00 Build 0)  -->
<svg xmlns="http://www.w3.org/2000/svg" xmlns:xlink="http://www.w3.org/1999/xlink" version="1.1" id="257347096_Capa_1_grid" x="0px" y="0px" width="32px" height="32px" viewBox="0 0 32 32" enable-background="new 0 0 32 32" xml:space="preserve">
<g>
	<path d="M30,18V6h-4V2H16v4h-4v6H7c-1.73,0-5,1.04-5,5s3.27,5,5,5h13.99C21.5,22.01,24,22.18,24,25s-2.5,2.99-3,3H0v2h21   c1.73,0,5-1.04,5-5s-3.27-5-5-5H7.01C6.5,19.99,4,19.82,4,17c0-2.82,2.5-2.99,3-3h5v4H30z M18,4h6v2h-6V4z M14,8h14v8h-2v-4h-2v4   h-2v-4h-2v4h-2v-4h-2v4h-2V8z"/>
</g>
</svg>
