<?xml version="1.0" encoding="utf-8"?>
<!-- Generator: Adobe Illustrator 16.0.0, SVG Export Plug-In . SVG Version: 6.00 Build 0)  -->
<svg xmlns="http://www.w3.org/2000/svg" xmlns:xlink="http://www.w3.org/1999/xlink" version="1.1" id="257347098_Capa_1_grid" x="0px" y="0px" width="32px" height="32px" viewBox="0 0 32 32" enable-background="new 0 0 32 32" xml:space="preserve">
<g>
	<path d="M23,10h-7v6h-2v-6H7c-2.42,0-7,1.46-7,7s4.58,7,7,7h7v-6h2v6h7c2.42,0,7-1.46,7-7S25.42,10,23,10z M12,16H8v2h4v4H7   c-0.2,0-5-0.06-5-5c0-4.82,4.49-5,5-5h5V16z M23,22h-5v-4h4v-2h-4v-4h5c0.2,0,5,0.06,5,5C28,21.82,23.51,22,23,22z"/>
</g>
</svg>
