<?xml version="1.0" encoding="utf-8"?>
<!-- Generator: Adobe Illustrator 16.0.0, SVG Export Plug-In . SVG Version: 6.00 Build 0)  -->
<svg xmlns="http://www.w3.org/2000/svg" xmlns:xlink="http://www.w3.org/1999/xlink" version="1.1" id="257347107_Capa_1_grid" x="0px" y="0px" width="32px" height="32px" viewBox="0 0 32 32" enable-background="new 0 0 32 32" xml:space="preserve">
<g>
	<path d="M30,24V4H0v20h14v2h-4v2h10v-2h-4v-2H30z M2,6h26v6H17.41l-1.7-1.71c-0.39-0.39-1.03-0.39-1.42,0l-3.13,3.14L7.83,8.45   C7.63,8.15,7.3,7.98,6.94,8S6.27,8.23,6.11,8.55L4.38,12H2V6z M2,14h3c0.38,0,0.73-0.21,0.89-0.55l1.23-2.46l3.05,4.56   c0.16,0.25,0.43,0.42,0.73,0.45H11c0.26,0,0.52-0.1,0.71-0.29l3.29-3.3l1.29,1.3C16.48,13.89,16.73,14,17,14h11v4H2V14z M2,22v-2   h26v2H2z"/>
</g>
</svg>
