<?xml version="1.0" encoding="utf-8"?>
<!-- Generator: Adobe Illustrator 16.0.0, SVG Export Plug-In . SVG Version: 6.00 Build 0)  -->
<svg xmlns="http://www.w3.org/2000/svg" xmlns:xlink="http://www.w3.org/1999/xlink" version="1.1" id="257347106_Capa_1_grid" x="0px" y="0px" width="32px" height="32px" viewBox="0 0 32 32" enable-background="new 0 0 32 32" xml:space="preserve">
<g>
	<path d="M29,6H6V2H2v2h2v26h2v-4h23c2.2,0,3-1.79,3-3V9C32,6.8,30.21,6,29,6z M14,8h8v2h-8V8z M6,8h6v4H6V8z M12,24H6v-4h6V24z    M6,18v-4h8v-2h8v0.43L12.72,18H6z M22,24h-8v-2h8V24z M30,22.99C29.99,23.45,29.81,24,29,24h-5v-4h6V22.99z M30,18h-8v2h-8v-0.43   L23.28,14H30V18z M30,12h-6V8h4.99C29.45,8.01,30,8.19,30,9V12z"/>
</g>
</svg>
