<?xml version="1.0" encoding="utf-8"?>
<!-- Generator: Adobe Illustrator 16.0.0, SVG Export Plug-In . SVG Version: 6.00 Build 0)  -->
<svg xmlns="http://www.w3.org/2000/svg" xmlns:xlink="http://www.w3.org/1999/xlink" version="1.1" id="257347109_Capa_1_grid" x="0px" y="0px" width="32px" height="32px" viewBox="0 0 32 32" enable-background="new 0 0 32 32" xml:space="preserve">
<g>
	<g>
		<path d="M23.71,12.29l-1.42,1.42l2.3,2.29H19.9c-0.4-1.96-1.94-3.5-3.9-3.9V7.41l2.29,2.3l1.42-1.42L15,3.59l-4.71,4.7l1.42,1.42    L14,7.41v4.69c-1.96,0.4-3.5,1.94-3.9,3.9H5.41l2.3-2.29l-1.42-1.42L1.59,17l4.7,4.71l1.42-1.42L5.41,18h4.69    c0.4,1.96,1.94,3.5,3.9,3.9v4.689l-2.29-2.3l-1.42,1.42l4.71,4.7l4.71-4.7l-1.42-1.42L16,26.59V21.9c1.96-0.4,3.5-1.94,3.9-3.9    h4.689l-2.3,2.29l1.42,1.42l4.7-4.71L23.71,12.29z M15,20c-1.66,0-3-1.34-3-3s1.34-3,3-3s3,1.34,3,3S16.66,20,15,20z"/>
	</g>
</g>
</svg>
