<?xml version="1.0" encoding="utf-8"?>
<!-- Generator: Adobe Illustrator 16.0.0, SVG Export Plug-In . SVG Version: 6.00 Build 0)  -->
<svg xmlns="http://www.w3.org/2000/svg" xmlns:xlink="http://www.w3.org/1999/xlink" version="1.1" id="257347112_Capa_1_grid" x="0px" y="0px" width="32px" height="32px" viewBox="0 0 32 32" enable-background="new 0 0 32 32" xml:space="preserve">
<path d="M25,14l5-3L15,2L0,11l5,3l-5,3l5,3l-5,3l15,9l15-9l-5-3l5-3L25,14z M3.89,11L15,4.33L26.11,11L15,17.67L3.89,11z M26.11,23  L15,29.67L3.89,23l3.05-1.83L15,26l8.06-4.83L26.11,23z M15,23.67L3.89,17l3.05-1.83L15,20l8.06-4.83L26.11,17L15,23.67z"/>
</svg>
