<?xml version="1.0" encoding="utf-8"?>
<!-- Generator: Adobe Illustrator 16.0.0, SVG Export Plug-In . SVG Version: 6.00 Build 0)  -->
<svg xmlns="http://www.w3.org/2000/svg" xmlns:xlink="http://www.w3.org/1999/xlink" version="1.1" id="257347113_Capa_1_grid" x="0px" y="0px" width="32px" height="32px" viewBox="0 0 32 32" enable-background="new 0 0 32 32" xml:space="preserve">
<g>
	<path d="M27,22H3c-1.206,0-3-0.799-3-3v-6c0-1.206,0.799-3,3-3h24c1.206,0,3,0.799,3,3v6C30,20.206,29.201,22,27,22z M26.988,12H3   c-0.805,0-0.988,0.55-1,1.012V19c0,0.806,0.55,0.988,1.012,1H27c0.806,0,0.988-0.55,1-1.012V13C28,12.195,27.45,12.012,26.988,12z"/>
</g>
<g>
	<circle cx="6" cy="16" r="2"/>
</g>
<g>
	<circle cx="12" cy="16" r="2"/>
</g>
<g>
	<circle cx="18" cy="16" r="2"/>
</g>
<g>
	<circle cx="24" cy="16" r="2"/>
</g>
<g>
	<rect y="24" width="30" height="2"/>
</g>
</svg>
