<?xml version="1.0" encoding="utf-8"?>
<!-- Generator: Adobe Illustrator 16.0.0, SVG Export Plug-In . SVG Version: 6.00 Build 0)  -->
<svg xmlns="http://www.w3.org/2000/svg" xmlns:xlink="http://www.w3.org/1999/xlink" version="1.1" id="257347114_Capa_1_grid" x="0px" y="0px" width="32px" height="32px" viewBox="0 0 32 32" enable-background="new 0 0 32 32" xml:space="preserve">
<g>
	<path d="M24,12V9c0-0.07-0.09-7-8-7S8,8.93,8,9v3H4v16h24V12H24z M10,9c0-0.2,0.07-5,6-5c5.78,0,6,4.49,6,5v3H10V9z M26,26H6V14h20   V26z"/>
	<path d="M12,20c0,1.1-0.9,2-2,2s-2-0.9-2-2s0.9-2,2-2S12,18.9,12,20z"/>
	<path d="M18,20c0,1.1-0.9,2-2,2c-1.1,0-2-0.9-2-2s0.9-2,2-2C17.1,18,18,18.9,18,20z"/>
	<path d="M24,20c0,1.1-0.9,2-2,2s-2-0.9-2-2s0.9-2,2-2S24,18.9,24,20z"/>
</g>
</svg>
