<?xml version="1.0" encoding="utf-8"?>
<!-- Generator: Adobe Illustrator 16.0.0, SVG Export Plug-In . SVG Version: 6.00 Build 0)  -->
<svg xmlns="http://www.w3.org/2000/svg" xmlns:xlink="http://www.w3.org/1999/xlink" version="1.1" id="257347115_Capa_1_grid" x="0px" y="0px" width="32px" height="32px" viewBox="0 0 32 32" enable-background="new 0 0 32 32" xml:space="preserve">
<g>
	<path d="M2,0v32h28V0H2z M28,30H5.31C8.27,27.06,15.63,20.78,28,16.41V30z M28,13.27c-2.21-1.16-6.63-3.06-12.1-3.25   C15.45,7.73,13.43,6,11,6c-2.76,0-5,2.24-5,5s2.24,5,5,5c2.41,0,4.43-1.71,4.9-3.98c4.62,0.18,8.49,1.71,10.66,2.77   C14.36,19.25,7.11,25.37,4,28.45V2h24V13.27z M14,11c0,1.65-1.35,3-3,3s-3-1.35-3-3s1.35-3,3-3S14,9.35,14,11z"/>
</g>
</svg>
