<?xml version="1.0" encoding="utf-8"?>
<!-- Generator: Adobe Illustrator 16.0.0, SVG Export Plug-In . SVG Version: 6.00 Build 0)  -->
<svg xmlns="http://www.w3.org/2000/svg" xmlns:xlink="http://www.w3.org/1999/xlink" version="1.1" id="257347116_Capa_1_grid" x="0px" y="0px" width="32px" height="32px" viewBox="0 0 32 32" enable-background="new 0 0 32 32" xml:space="preserve">
<g>
	<path d="M17,2C12.9,2,2,2,2,17v2c0,2.2,1.79,3,3,3h1.99C7.45,22.01,8,22.19,8,23v7h18v-7c0-0.81,0.55-0.99,1-1h2c1.21,0,3-0.8,3-3   v-2C32,2,21.1,2,17,2z M29.97,16H23c-2.82,0-2.99-2.5-3-3c0-0.81,0.55-0.99,1-1h8.45C29.74,13.16,29.93,14.48,29.97,16z M17,4   c3.26,0,9.25,0,11.79,6H21c-0.39,0-0.85,0.08-1.28,0.27l-9.08-5.45C12.92,4,15.32,4,17,4z M30,19c0,0.81-0.55,0.99-1,1h-2   c-1.21,0-3,0.8-3,3v5h-2v-4h-2v4h-2v-4h-2v4h-2v-4h-2v4h-2v-5c0-2.2-1.79-3-3-3H5.01C4.55,19.99,4,19.81,4,19v-2   c0-6.18,1.99-9.43,4.53-11.12l9.72,5.84C18.09,12.08,18,12.5,18,13c0,1.73,1.04,5,5,5h7V19z"/>
</g>
<g>
	<path d="M19.89,20.55l-1.779,0.9L17,19.24l-1.11,2.21l-1.78-0.9l2-4c0.33-0.67,1.44-0.67,1.78,0L19.89,20.55z"/>
</g>
<g>
	<path d="M10,10c-2.21,0-4,1.79-4,4s1.79,4,4,4s4-1.79,4-4S12.21,10,10,10z M10,16c-1.1,0-2-0.9-2-2s0.9-2,2-2s2,0.9,2,2   S11.1,16,10,16z"/>
</g>
</svg>
