<?xml version="1.0" encoding="utf-8"?>
<!-- Generator: Adobe Illustrator 16.0.0, SVG Export Plug-In . SVG Version: 6.00 Build 0)  -->
<svg xmlns="http://www.w3.org/2000/svg" xmlns:xlink="http://www.w3.org/1999/xlink" version="1.1" id="257347119_Capa_1_grid" x="0px" y="0px" width="32px" height="32px" viewBox="0 0 32 32" enable-background="new 0 0 32 32" xml:space="preserve">
<g>
	<path d="M30,12v4h-4V4H6v12H2v-4H0v10h2v-4h4v12h20V18h4v4h2V12H30z M24,28H8V6h16V28z"/>
</g>
<g>
	<rect x="10" y="24" width="12" height="2"/>
</g>
<g>
	<path d="M10,8v14h12V8H10z M20,20h-8v-2h8V20z M20,16h-8v-2h8V16z M20,12h-8v-2h8V12z"/>
</g>
</svg>
