<?xml version="1.0" encoding="utf-8"?>
<!-- Generator: Adobe Illustrator 16.0.0, SVG Export Plug-In . SVG Version: 6.00 Build 0)  -->
<svg xmlns="http://www.w3.org/2000/svg" xmlns:xlink="http://www.w3.org/1999/xlink" version="1.1" id="257347120_Capa_1_grid" x="0px" y="0px" width="32px" height="32px" viewBox="0 0 32 32" enable-background="new 0 0 32 32" xml:space="preserve">
<g>
	<path d="M14,23.32v2.16c-3.49-1.23-6-4.57-6-8.48c0-1.39,0.32-2.7,0.88-3.88l1.53,1.53C10.14,15.38,10,16.17,10,17   C10,19.79,11.64,22.2,14,23.32z"/>
	<path d="M20.88,8.88l-1.53,1.53C18.62,10.14,17.83,10,17,10c-0.82,0-1.61,0.14-2.34,0.41l-1.53-1.53C14.3,8.31,15.62,8,17,8   C18.39,8,19.7,8.32,20.88,8.88z"/>
	<path d="M26,17c0,3.91-2.51,7.25-6,8.48v-2.16c2.36-1.12,4-3.53,4-6.32c0-0.82-0.14-1.61-0.41-2.34l1.53-1.53   C25.69,14.3,26,15.62,26,17z"/>
</g>
<path d="M30.44,9.22c-1.421-1.41-2.891-1.71-4.16-1.5c0.21-1.27-0.09-2.74-1.5-4.15c-2.53-2.54-5.16-1.69-5.261-1.66  C18.99,2.09,18.7,2.65,18.88,3.17c0.18,0.53,0.74,0.81,1.26,0.64C20.2,3.79,21.74,3.35,23.36,4.98c1.989,1.99,0.359,3.87,0,4.24  l-3.601,3.6C18.97,12.31,18.02,12,17,12c-1.02,0-1.97,0.31-2.76,0.82l-3.6-3.6c-0.35-0.36-2-2.25,0-4.24  c1.62-1.63,3.16-1.19,3.23-1.17c0.52,0.16,1.08-0.13,1.25-0.66c0.16-0.51-0.11-1.07-0.64-1.24c-0.1-0.03-2.73-0.88-5.26,1.65  c-1.41,1.42-1.71,2.89-1.5,4.16c-1.27-0.21-2.74,0.09-4.15,1.5c-2.54,2.53-1.69,5.16-1.66,5.26c0.18,0.53,0.74,0.82,1.26,0.64  c0.53-0.18,0.81-0.74,0.64-1.26c-0.02-0.06-0.46-1.6,1.17-3.22c1.99-1.99,3.87-0.36,4.24,0l3.6,3.6C12.31,15.03,12,15.98,12,17  c0,2.42,1.72,4.44,4,4.9V27c-0.01,0.52-0.19,3-3,3c-2.3,0-3.08-1.4-3.11-1.45c-0.24-0.49-0.84-0.689-1.34-0.439  c-0.49,0.239-0.69,0.84-0.44,1.34C8.16,29.55,9.42,32,13,32c2,0,3.25-0.83,4-1.88c0.75,1.05,2,1.88,4,1.88  c3.58,0,4.84-2.45,4.89-2.55c0.25-0.49,0.051-1.08-0.43-1.33c-0.49-0.25-1.09-0.061-1.35,0.42C24.08,28.6,23.3,30,21,30  c-2.82,0-2.99-2.5-3-3v-5.1c2.28-0.46,4-2.48,4-4.9c0-1.02-0.31-1.97-0.82-2.76l3.601-3.6c0.359-0.35,2.25-2,4.239,0  c1.631,1.62,1.19,3.16,1.171,3.23c-0.16,0.52,0.13,1.08,0.659,1.25c0.511,0.16,1.07-0.11,1.24-0.64  C32.12,14.38,32.97,11.75,30.44,9.22z M17,20c-1.66,0-3-1.34-3-3s1.34-3,3-3s3,1.34,3,3S18.66,20,17,20z"/>
</svg>
