<?xml version="1.0" encoding="utf-8"?>
<!-- Generator: Adobe Illustrator 16.0.0, SVG Export Plug-In . SVG Version: 6.00 Build 0)  -->
<svg xmlns="http://www.w3.org/2000/svg" xmlns:xlink="http://www.w3.org/1999/xlink" version="1.1" id="257347122_Capa_1_grid" x="0px" y="0px" width="32px" height="32px" viewBox="0 0 32 32" enable-background="new 0 0 32 32" xml:space="preserve">
<g>
	<path d="M16,0C8.09,0,8,6.93,8,7v22c0,1.21,0.8,3,3,3h10c2.2,0,3-1.79,3-3V7C24,6.93,23.91,0,16,0z M22,28.99   C21.99,29.45,21.81,30,21,30H11c-0.81,0-0.99-0.55-1-1V7c0-0.17,0.05-3.85,4-4.78V4h4V2.21c3.83,0.9,4,4.35,4,4.79V28.99z"/>
	<rect x="12" y="16" width="2" height="2"/>
	<rect x="16" y="24" width="4" height="2"/>
	<rect x="16" y="20" width="4" height="2"/>
	<rect x="16" y="16" width="4" height="2"/>
	<path d="M16,6c-2.21,0-4,1.79-4,4s1.79,4,4,4s4-1.79,4-4S18.21,6,16,6z M16,12c-1.1,0-2-0.9-2-2s0.9-2,2-2c1.1,0,2,0.9,2,2   S17.1,12,16,12z"/>
</g>
<g>
	<rect x="12" y="20" width="2" height="2"/>
</g>
<g>
	<rect x="12" y="24" width="2" height="2"/>
</g>
</svg>
