<?xml version="1.0" encoding="utf-8"?>
<!-- Generator: Adobe Illustrator 16.0.0, SVG Export Plug-In . SVG Version: 6.00 Build 0)  -->
<svg xmlns="http://www.w3.org/2000/svg" xmlns:xlink="http://www.w3.org/1999/xlink" version="1.1" id="257347123_Capa_1_grid" x="0px" y="0px" width="32px" height="32px" viewBox="0 0 32 32" enable-background="new 0 0 32 32" xml:space="preserve">
<rect x="4" y="28" width="6" height="2"/>
<rect x="22" y="28" width="6" height="2"/>
<path d="M26,12V3c0,0,0-1-1-1s-1,1-1,1v9H8V3c0,0,0-1-1-1S6,3,6,3v9H2v14h28V12H26z M28,24H4v-6h24V24z M28,16H4v-2h24V16z"/>
<rect x="24" y="20" width="2" height="2"/>
<rect x="20" y="20" width="2" height="2"/>
<rect x="16" y="20" width="2" height="2"/>
</svg>
