<?xml version="1.0" encoding="utf-8"?>
<!-- Generator: Adobe Illustrator 16.0.0, SVG Export Plug-In . SVG Version: 6.00 Build 0)  -->
<svg xmlns="http://www.w3.org/2000/svg" xmlns:xlink="http://www.w3.org/1999/xlink" version="1.1" id="257347124_Capa_1_grid" x="0px" y="0px" width="32px" height="32px" viewBox="0 0 32 32" enable-background="new 0 0 32 32" xml:space="preserve">
<g>
	<path d="M27,14H8V6H6v8H5c-2.2,0-3,1.79-3,3v8c0,2.2,1.79,3,3,3h1v2h4v-2h12v2h4v-2h1c2.2,0,3-1.79,3-3v-8C30,14.8,28.21,14,27,14z    M28,24.99C27.99,25.45,27.81,26,27,26H5.01C4.55,25.99,4,25.81,4,25v-7.99C4.01,16.55,4.19,16,5,16h21.99   c0.46,0.01,1.01,0.19,1.01,1V24.99z"/>
</g>
<g>
	<rect x="24" y="22" width="2" height="2"/>
</g>
<g>
	<rect x="20" y="22" width="2" height="2"/>
</g>
<g>
	<rect x="16" y="22" width="2" height="2"/>
</g>
<g>
	<circle cx="7" cy="3" r="1"/>
</g>
</svg>
