<?xml version="1.0" encoding="utf-8"?>
<!-- Generator: Adobe Illustrator 16.0.0, SVG Export Plug-In . SVG Version: 6.00 Build 0)  -->
<svg xmlns="http://www.w3.org/2000/svg" xmlns:xlink="http://www.w3.org/1999/xlink" version="1.1" id="257347126_Capa_1_grid" x="0px" y="0px" width="32px" height="32px" viewBox="0 0 32 32" enable-background="new 0 0 32 32" xml:space="preserve">
<g>
	<path d="M28.29,14.29l-4.3,4.3c4.89-8.37-0.101-16.06-0.16-16.14C23.67,2.2,23.4,2.03,23.1,2c-0.31-0.03-0.6,0.08-0.81,0.29   L20.58,4H5.42L3.71,2.29c-0.39-0.39-1.03-0.39-1.42,0s-0.39,1.03,0,1.42L4,5.42v15.16l-1.71,1.71c-0.19,0.2-0.3,0.47-0.29,0.75   c0.01,0.27,0.13,0.53,0.34,0.71c0.14,0.12,3.33,2.84,8.23,2.84c2.62,0,5.21-0.77,7.72-2.3l-4,4l1.42,1.42l14-14L28.29,14.29z    M18.58,6L13,11.58L7.42,6H18.58z M6,7.42L11.58,13L6,18.58V7.42z M10.57,24.59c-2.75,0-4.89-1.03-6.02-1.72L22.76,4.66   c1.19,2.54,3.311,9.1-2.47,15.63C17.12,23.15,13.85,24.59,10.57,24.59z"/>
</g>
</svg>
