<?xml version="1.0" encoding="utf-8"?>
<!-- Generator: Adobe Illustrator 16.0.0, SVG Export Plug-In . SVG Version: 6.00 Build 0)  -->
<svg xmlns="http://www.w3.org/2000/svg" xmlns:xlink="http://www.w3.org/1999/xlink" version="1.1" id="257347131_Capa_1_grid" x="0px" y="0px" width="32px" height="32px" viewBox="0 0 32 32" enable-background="new 0 0 32 32" xml:space="preserve">
<g>
	<path d="M25.83,6.45l-4-6c-0.21-0.32-0.58-0.49-0.96-0.44c-0.38,0.05-0.7,0.31-0.82,0.67L18.28,6H15c-3.28,0-4.56,2.25-4.9,4H1.12   c-0.55,0-1,0.45-1,1c0,6.05,5.94,8.05,9.48,9.24c0.86,0.29,2.02,0.68,2.39,0.95c-0.09,1.79-1.43,7.46-1.96,9.569   c-0.09,0.351,0.02,0.71,0.28,0.96C10.5,31.9,10.75,32,11,32c0.1,0,0.19-0.01,0.29-0.04l20-6C31.71,25.83,32,25.44,32,25   C32,15.8,26.08,6.82,25.83,6.45z M12.38,29.54C12.99,27.02,14,22.54,14,21c0-1.38-1.58-1.92-3.76-2.65C7.7,17.49,4.46,16.4,2.96,14   H5c1,0,1-1,1-1v-1h5c0.55,0,0.99-0.45,1-0.99C12.01,10.5,12.18,8,15,8h4c0.43,0,0.81-0.28,0.95-0.68l1.35-4.06l2.87,4.29   c0.05,0.09,5.5,8.36,5.82,16.71L12.38,29.54z"/>
</g>
<g>
	<path d="M18,12c0,1.1-0.9,2-2,2c-1.1,0-2-0.9-2-2s0.9-2,2-2C17.1,10,18,10.9,18,12z"/>
</g>
</svg>
