<?xml version="1.0" encoding="utf-8"?>
<!-- Generator: Adobe Illustrator 16.0.0, SVG Export Plug-In . SVG Version: 6.00 Build 0)  -->
<svg xmlns="http://www.w3.org/2000/svg" xmlns:xlink="http://www.w3.org/1999/xlink" version="1.1" id="257347132_Capa_1_grid" x="0px" y="0px" width="32px" height="32px" viewBox="0 0 32 32" enable-background="new 0 0 32 32" xml:space="preserve">
<g>
	<path d="M23,16c-1.57,0-3.01,0.51-4.18,1.4l-4.22-4.22C15.49,12.01,16,10.57,16,9c0-3.86-3.14-7-7-7S2,5.14,2,9s3.14,7,7,7   c1.57,0,3.01-0.51,4.18-1.4l4.22,4.22C16.51,19.99,16,21.43,16,23c0,3.86,3.14,7,7,7s7-3.14,7-7S26.86,16,23,16z M13.18,11.76   L9.71,8.29c-0.39-0.39-1.03-0.39-1.42,0s-0.39,1.03,0,1.42l3.47,3.47C10.97,13.69,10.02,14,9,14c-2.76,0-5-2.24-5-5s2.24-5,5-5   s5,2.24,5,5C14,10.02,13.69,10.97,13.18,11.76z M23,28c-2.76,0-5-2.24-5-5c0-1.02,0.31-1.97,0.82-2.76l3.47,3.47   C22.49,23.9,22.74,24,23,24s0.51-0.1,0.71-0.29c0.39-0.39,0.39-1.03,0-1.42l-3.47-3.47C21.03,18.31,21.98,18,23,18   c2.76,0,5,2.24,5,5S25.76,28,23,28z"/>
</g>
</svg>
