<?xml version="1.0" encoding="utf-8"?>
<!-- Generator: Adobe Illustrator 16.0.0, SVG Export Plug-In . SVG Version: 6.00 Build 0)  -->
<svg xmlns="http://www.w3.org/2000/svg" xmlns:xlink="http://www.w3.org/1999/xlink" version="1.1" id="257347133_Capa_1_grid" x="0px" y="0px" width="32px" height="32px" viewBox="0 0 32 32" enable-background="new 0 0 32 32" xml:space="preserve">
<path d="M21,10c-6.08,0-11,4.92-11,11s4.92,11,11,11s11-4.92,11-11S27.08,10,21,10z M21,30c-4.96,0-9-4.04-9-9s4.04-9,9-9  s9,4.04,9,9S25.96,30,21,30z"/>
<path d="M21,16c-2.76,0-5,2.24-5,5s2.24,5,5,5s5-2.24,5-5S23.76,16,21,16z M21,24c-1.65,0-3-1.35-3-3s1.35-3,3-3s3,1.35,3,3  S22.65,24,21,24z"/>
<g>
	<path d="M0,0v28h8v-2H2V2h19v6h2V0H0z"/>
</g>
</svg>
