<?xml version="1.0" encoding="utf-8"?>
<!-- Generator: Adobe Illustrator 16.0.0, SVG Export Plug-In . SVG Version: 6.00 Build 0)  -->
<svg xmlns="http://www.w3.org/2000/svg" xmlns:xlink="http://www.w3.org/1999/xlink" version="1.1" id="257347135_Capa_1_grid" x="0px" y="0px" width="32px" height="32px" viewBox="0 0 32 32" enable-background="new 0 0 32 32" xml:space="preserve">
<g>
	<path d="M14,4.22V5c0,1.73,1.04,5,5,5s5-4.58,5-7V1.72L14,4.22z M19,8c-2.06,0-2.71-1.33-2.91-2.24l5.79-1.45   C21.65,5.79,20.97,8,19,8z"/>
</g>
<g>
	<path d="M2,1.72V3c0,2.42,1.04,7,5,7s5-3.27,5-5V4.22L2,1.72z M7,8C5.03,8,4.35,5.79,4.12,4.31l5.79,1.45C9.7,6.67,9.05,8,7,8z"/>
</g>
<g>
	<path d="M24.6,23.18C25.49,22.01,26,20.57,26,19c0-3.87-3.13-7-7-7s-7,3.13-7,7s3.13,7,7,7c1.57,0,3.01-0.51,4.18-1.4l5.11,5.11   l1.42-1.42L24.6,23.18z M19,24c-2.76,0-5-2.24-5-5s2.24-5,5-5s5,2.24,5,5S21.76,24,19,24z"/>
</g>
</svg>
