<?xml version="1.0" encoding="utf-8"?>
<!-- Generator: Adobe Illustrator 16.0.0, SVG Export Plug-In . SVG Version: 6.00 Build 0)  -->
<svg xmlns="http://www.w3.org/2000/svg" xmlns:xlink="http://www.w3.org/1999/xlink" version="1.1" id="257347136_Capa_1_grid" x="0px" y="0px" width="32px" height="32px" viewBox="0 0 32 32" enable-background="new 0 0 32 32" xml:space="preserve">
<g>
	<g>
		<path d="M26.94,15.06C26.6,12.32,24.74,9.8,21.5,9.8c-0.26,0-0.52,0.02-0.79,0.05C19.42,5.76,16.77,4,12,4    C9.24,4,7.03,4.86,5.61,6.5c-1.41,1.62-1.98,3.92-1.7,6.84C1.25,14.5,0,16.63,0,20c0,2.81,1.57,4.95,4,5.7V23.56    C2.75,22.94,2,21.67,2,20c0-2.84,0.93-4.26,3.32-5.05l0.79-0.27l-0.12-0.82C5.6,11.15,5.98,9.12,7.12,7.81C8.42,6.31,10.49,6,12,6    c4.78,0,6.2,1.92,7.03,5.24l0.239,0.97l0.971-0.24c0.439-0.11,0.87-0.17,1.26-0.17c2.4,0,3.5,2.18,3.5,4.2v1h1    c2.32,0,4,1.46,4,3.48C30,22.46,28.39,24,27,24h-1v2h1c2.66,0,5-2.58,5-5.52C32,17.65,29.88,15.45,26.94,15.06z"/>
	</g>
</g>
<path d="M20.109,20.09c-0.689-0.779-1.609-1.24-2.639-1.33c-0.691-1.51-2.08-2.96-4.331-2.96c-0.57,0-1.17,0.1-1.77,0.3  c-1.97,0.66-3.2,2.07-3.47,3.99c-0.03,0.18-0.05,0.35-0.05,0.51C6.79,21.25,6,22.391,6,24c0,2.6,2.06,4,4,4h10c1.94,0,4-1.4,4-4  C24,21.67,22.14,20.42,20.109,20.09z M20,26H10c0,0-2,0-2-2s2-2,2-2s-1-3,2-4c0.42-0.141,0.8-0.2,1.14-0.2  c2.12,0,2.86,2.341,2.86,3.2c0,0,0.5-0.25,1.12-0.25C17.75,20.75,18.5,21,19,22c0,0,3,0,3,2S20,26,20,26z"/>
</svg>
