<?xml version="1.0" encoding="utf-8"?>
<!-- Generator: Adobe Illustrator 16.0.0, SVG Export Plug-In . SVG Version: 6.00 Build 0)  -->
<svg xmlns="http://www.w3.org/2000/svg" xmlns:xlink="http://www.w3.org/1999/xlink" version="1.1" id="257347137_Capa_1_grid" x="0px" y="0px" width="32px" height="32px" viewBox="0 0 32 32" enable-background="new 0 0 32 32" xml:space="preserve">
<g>
	<path d="M0,2v30h30V2H0z M28,30H2V4h26V30z"/>
</g>
<g>
	<polygon points="26.41,17 21.71,21.71 20.29,20.29 22.59,18 16,18 16,24.59 18.29,22.29 19.71,23.71 15,28.41 10.29,23.71    11.71,22.29 14,24.59 14,18 7.41,18 9.71,20.29 8.29,21.71 3.59,17 8.29,12.29 9.71,13.71 7.41,16 14,16 14,9.41 11.71,11.71    10.29,10.29 15,5.59 19.71,10.29 18.29,11.71 16,9.41 16,16 22.59,16 20.29,13.71 21.71,12.29  "/>
</g>
</svg>
