<?xml version="1.0" encoding="utf-8"?>
<!-- Generator: Adobe Illustrator 16.0.0, SVG Export Plug-In . SVG Version: 6.00 Build 0)  -->
<svg xmlns="http://www.w3.org/2000/svg" xmlns:xlink="http://www.w3.org/1999/xlink" version="1.1" id="257347138_Capa_1_grid" x="0px" y="0px" width="32px" height="32px" viewBox="0 0 32 32" enable-background="new 0 0 32 32" xml:space="preserve">
<g>
	<path d="M16,0C7.18,0,0,7.18,0,16c0,8.82,7.18,16,16,16c8.82,0,16-7.18,16-16C32,7.18,24.82,0,16,0z M12.29,16.29L7.59,21l4.7,4.71   l1.42-1.42L11.41,22h17.24c-2.25,4.72-7.07,8-12.65,8C8.28,30,2,23.72,2,16c0-1.39,0.2-2.73,0.58-4h18.01l-2.3,2.29l1.42,1.42   l4.7-4.71l-4.7-4.71l-1.42,1.42l2.3,2.29H3.35C5.6,5.28,10.42,2,16,2c7.72,0,14,6.28,14,14c0,1.39-0.2,2.73-0.58,4H11.41l2.3-2.29   L12.29,16.29z"/>
</g>
</svg>
