<?xml version="1.0" encoding="utf-8"?>
<!-- Generator: Adobe Illustrator 16.0.0, SVG Export Plug-In . SVG Version: 6.00 Build 0)  -->
<svg xmlns="http://www.w3.org/2000/svg" xmlns:xlink="http://www.w3.org/1999/xlink" version="1.1" id="257347139_Capa_1_grid" x="0px" y="0px" width="32px" height="32px" viewBox="0 0 32 32" enable-background="new 0 0 32 32" xml:space="preserve">
<g>
	<g>
		<path d="M30,24V4H0v20h14v2h-4v2h10v-2h-4v-2H30z M2,22V6h26v16H2z"/>
	</g>
</g>
<g>
	<path d="M9,18c-2.201,0-3-1.794-3-3v-4c0-1.206,0.799-3,3-3s3,1.794,3,3v1h-2v-1c-0.012-0.45-0.195-1-1-1s-0.988,0.55-1,1.012V15   c0.012,0.45,0.195,1,1,1s0.988-0.55,1-1.012V14h2v1C12,16.206,11.201,18,9,18z"/>
</g>
<g>
	<rect x="14" y="10" width="2" height="2"/>
</g>
<g>
	<rect x="14" y="14" width="2" height="2"/>
</g>
<g>
	<rect x="16.528" y="12" transform="matrix(0.4472 0.8944 -0.8944 0.4472 23.2361 -11.5967)" width="8.944" height="2"/>
</g>
</svg>
