<?xml version="1.0" encoding="utf-8"?>
<!-- Generator: Adobe Illustrator 16.0.0, SVG Export Plug-In . SVG Version: 6.00 Build 0)  -->
<svg xmlns="http://www.w3.org/2000/svg" xmlns:xlink="http://www.w3.org/1999/xlink" version="1.1" id="257347141_Capa_1_grid" x="0px" y="0px" width="32px" height="32px" viewBox="0 0 32 32" style="enable-background:new 0 0 32 32;" xml:space="preserve">
<path d="M32,16c0-8.82-7.18-16-16-16C11.44,0,7.32,1.92,4.41,4.99c-0.47,0.49-0.9,1-1.3,1.54l5.15,5.15  C6.849,13.404,6,15.604,6,18.001L13.846,18c-0.261,0.877-0.964,1.999-2.846,1.999H6.218l-2.5,9.998H26v-1.538  C29.813,25.407,32,20.901,32,16z M24,27.997H6.28l1.5-5.998H11c3.955,0,5-3.271,5-5v-1H8.253c0.891-3.446,4.026-5.998,7.747-5.998  c4.411,0,8,3.588,8,8V27.997z M16,8.001c-2.396,0-4.596,0.849-6.32,2.258L5.82,6.4C8.37,3.69,11.99,2,16,2c7.72,0,14,6.28,14,14  c0,3.727-1.447,7.182-4,9.778v-7.777C26,12.487,21.514,8.001,16,8.001z"/>
</svg>
