<?xml version="1.0" encoding="utf-8"?>
<!-- Generator: Adobe Illustrator 16.0.0, SVG Export Plug-In . SVG Version: 6.00 Build 0)  -->
<svg xmlns="http://www.w3.org/2000/svg" xmlns:xlink="http://www.w3.org/1999/xlink" version="1.1" id="257347143_Capa_1_grid" x="0px" y="0px" width="32px" height="32px" viewBox="0 0 32 32" enable-background="new 0 0 32 32" xml:space="preserve">
<g>
	<path d="M4,0v32h24V0H4z M26,30H6V18.86L10.7,22h10.6l4.7-3.14V30z M26,16.47L20.7,20h-9.4L6,16.47V2h20V16.47z"/>
</g>
<g>
	<rect x="12" y="26" width="8" height="2"/>
</g>
<g>
	<path d="M19.71,11.71l-4,4C15.51,15.9,15.26,16,15,16s-0.51-0.1-0.71-0.29c-0.39-0.39-0.39-1.03,0-1.42l2.3-2.29H13   c-0.4,0-0.77-0.24-0.92-0.62c-0.16-0.37-0.07-0.8,0.21-1.09l4-4c0.39-0.39,1.03-0.39,1.42,0s0.39,1.03,0,1.42L15.41,10H19   c0.4,0,0.77,0.24,0.92,0.62C20.08,10.99,19.99,11.42,19.71,11.71z"/>
</g>
</svg>
