<?xml version="1.0" encoding="utf-8"?>
<!-- Generator: Adobe Illustrator 16.0.0, SVG Export Plug-In . SVG Version: 6.00 Build 0)  -->
<svg xmlns="http://www.w3.org/2000/svg" xmlns:xlink="http://www.w3.org/1999/xlink" version="1.1" id="257347144_Capa_1_grid" x="0px" y="0px" width="32px" height="32px" viewBox="0 0 32 32" enable-background="new 0 0 32 32" xml:space="preserve">
<g>
	<path d="M18,8v6h2v2.28l-4,1.331V6h3l-4-6l-4,6h3v15.61l-4-1.33v-2.46c1.17-0.4,2-1.51,2-2.82c0-1.66-1.34-3-3-3s-3,1.34-3,3   c0,1.31,0.83,2.42,2,2.82v3.899l6,2v2.46c-1.17,0.4-2,1.511-2,2.82c0,1.66,1.34,3,3,3s3-1.34,3-3c0-1.31-0.83-2.42-2-2.82v-6.46   l6-2V14h2V8H18z M9,16c-0.55,0-1-0.45-1-1s0.45-1,1-1s1,0.45,1,1S9.55,16,9,16z M15,30c-0.55,0-1-0.45-1-1s0.45-1,1-1s1,0.45,1,1   S15.55,30,15,30z M22,12h-2v-2h2V12z"/>
</g>
</svg>
