<?xml version="1.0" encoding="utf-8"?>
<!-- Generator: Adobe Illustrator 16.0.0, SVG Export Plug-In . SVG Version: 6.00 Build 0)  -->
<svg xmlns="http://www.w3.org/2000/svg" xmlns:xlink="http://www.w3.org/1999/xlink" version="1.1" id="257347147_Capa_1_grid" x="0px" y="0px" width="32px" height="32px" viewBox="0 0 32 32" enable-background="new 0 0 32 32" xml:space="preserve">
<g>
	<g>
		<g>
			<g>
				<path d="M32,16.48c0,2.94-2.34,5.52-5,5.52h-5v-2h5c1.39,0,3-1.54,3-3.52c0-2.02-1.68-3.48-4-3.48h-1v-1c0-2.02-1.1-4.2-3.5-4.2      c-0.39,0-0.82,0.06-1.26,0.17L19.27,8.21L19.03,7.24C18.2,3.92,16.78,2,12,2c-1.51,0-3.58,0.31-4.88,1.81      C5.98,5.12,5.6,7.15,5.99,9.86l0.12,0.82l-0.79,0.27C2.93,11.74,2,13.16,2,16c0,2.43,1.57,4,4,4h2v2H6c-3.53,0-6-2.47-6-6      c0-3.37,1.25-5.5,3.91-6.66C3.63,6.42,4.2,4.12,5.61,2.5C7.03,0.86,9.24,0,12,0c4.77,0,7.42,1.76,8.71,5.85      C20.98,5.82,21.24,5.8,21.5,5.8c3.24,0,5.1,2.52,5.44,5.26C29.88,11.45,32,13.65,32,16.48z"/>
			</g>
		</g>
	</g>
	<g>
		<path d="M20,20v-8h-7c-2.2,0-3,1.79-3,3v14c0,2.2,1.79,3,3,3h7v-8h-4v-4H20z M18,26v4h-4.99C12.55,29.99,12,29.81,12,29V15.01    c0.01-0.46,0.19-1.01,1-1.01h5v4h-4v8H18z"/>
	</g>
</g>
</svg>
