<?xml version="1.0" encoding="utf-8"?>
<!-- Generator: Adobe Illustrator 16.0.0, SVG Export Plug-In . SVG Version: 6.00 Build 0)  -->
<svg xmlns="http://www.w3.org/2000/svg" xmlns:xlink="http://www.w3.org/1999/xlink" version="1.1" id="257347148_Capa_1_grid" x="0px" y="0px" width="32px" height="32px" viewBox="0 0 32 32" enable-background="new 0 0 32 32" xml:space="preserve">
<path d="M28,12V6h-6.1c-0.46-2.28-2.48-4-4.9-4s-4.44,1.72-4.9,4H6v6H2v10h4v6h6.1c0.46,2.28,2.48,4,4.9,4s4.44-1.72,4.9-4H28v-6h4  V12H28z M17,4c1.65,0,3,1.35,3,3s-1.35,3-3,3c-1.65,0-3-1.35-3-3S15.35,4,17,4z M4,20v-6h6v6H4z M17,30c-1.65,0-3-1.35-3-3  s1.35-3,3-3c1.65,0,3,1.35,3,3S18.65,30,17,30z M26,26h-4.1c-0.46-2.28-2.48-4-4.9-4s-4.44,1.72-4.9,4H8v-4h4V12H8V8h4.1  c0.46,2.28,2.48,4,4.9,4s4.44-1.72,4.9-4H26v4h-4v10h4V26z M30,20h-6v-6h6V20z"/>
</svg>
