<?xml version="1.0" encoding="utf-8"?>
<!-- Generator: Adobe Illustrator 16.0.0, SVG Export Plug-In . SVG Version: 6.00 Build 0)  -->
<svg xmlns="http://www.w3.org/2000/svg" xmlns:xlink="http://www.w3.org/1999/xlink" version="1.1" id="257347149_Capa_1_grid" x="0px" y="0px" width="32px" height="32px" viewBox="0 0 32 32" enable-background="new 0 0 32 32" xml:space="preserve">
<path d="M10,0v4h2V2h16v4H16v1.97L16.03,8H28v14H10v10h20V0H10z M28,30H12v-6h16V30z"/>
<rect x="16" y="26" width="8" height="2"/>
<path d="M16.11,12.09c-0.69-0.78-1.61-1.24-2.64-1.33C12.78,9.25,11.39,7.8,9.14,7.8c-0.57,0-1.17,0.1-1.77,0.3  c-1.97,0.66-3.2,2.07-3.47,3.99c-0.03,0.18-0.05,0.35-0.05,0.51C2.79,13.25,2,14.39,2,16c0,2.6,2.06,4,4,4h10c1.94,0,4-1.4,4-4  C20,13.67,18.14,12.42,16.11,12.09z M16,18H6c0,0-2,0-2-2s2-2,2-2s-1-3,2-4c0.42-0.14,0.8-0.2,1.14-0.2C11.26,9.8,12,12.14,12,13  c0,0,0.5-0.25,1.12-0.25C13.75,12.75,14.5,13,15,14c0,0,3,0,3,2S16,18,16,18z"/>
</svg>
