<?xml version="1.0" encoding="utf-8"?>
<!-- Generator: Adobe Illustrator 16.0.0, SVG Export Plug-In . SVG Version: 6.00 Build 0)  -->
<svg xmlns="http://www.w3.org/2000/svg" xmlns:xlink="http://www.w3.org/1999/xlink" version="1.1" id="257347150_Capa_1_grid" x="0px" y="0px" width="32px" height="32px" viewBox="0 0 32 32" enable-background="new 0 0 32 32" xml:space="preserve">
<g>
	<path d="M4.22,14.48l-0.05-0.03c0,0,0.01-0.01,0.01-0.02L4.22,14.48z"/>
	<path d="M29.83,14.45l-0.05,0.03l0.04-0.05C29.82,14.44,29.83,14.45,29.83,14.45z"/>
</g>
<g>
	<path d="M31.89,10.55C31.72,10.2,27.5,2,17,2S2.28,10.2,2.11,10.55c-0.17,0.33-0.14,0.72,0.07,1.02l14,20   C16.37,31.84,16.67,32,17,32s0.63-0.16,0.82-0.43l14-20C32.03,11.27,32.06,10.88,31.89,10.55z M17,29.26l-4.15-5.93   C14.07,22.51,15.46,22,17,22s2.92,0.51,4.15,1.33L17,29.26z M22.3,21.69C20.78,20.66,19.01,20,17,20s-3.78,0.66-5.3,1.69   l-2.01-2.87C11.5,17.3,13.94,16,17,16c3.06,0,5.49,1.3,7.3,2.82L22.3,21.69z M25.47,17.15C23.39,15.45,20.58,14,17,14   s-6.4,1.45-8.48,3.15l-1.84-2.63C8.18,12.92,11.63,10,17,10c5.42,0,8.84,2.9,10.32,4.51L25.47,17.15z M28.49,12.84   C26.62,10.93,22.81,8,17,8c-5.81,0-9.62,2.93-11.49,4.84l-1.33-1.89C5.23,9.28,9.15,4,17,4c7.92,0,11.78,5.26,12.82,6.94   L28.49,12.84z"/>
</g>
</svg>
