<?xml version="1.0" encoding="utf-8"?>
<!-- Generator: Adobe Illustrator 16.0.0, SVG Export Plug-In . SVG Version: 6.00 Build 0)  -->
<!DOCTYPE svg PUBLIC "-//W3C//DTD SVG 1.1//EN" "http://www.w3.org/Graphics/SVG/1.1/DTD/svg11.dtd">
<svg xmlns="http://www.w3.org/2000/svg" xmlns:xlink="http://www.w3.org/1999/xlink" version="1.1" id="Capa_1" x="0px" y="0px" width="32px" height="32px" viewBox="0 0 32 32" enable-background="new 0 0 32 32" xml:space="preserve">
<g>
	<g>
		<rect x="26" y="18" width="2" height="2"/>
	</g>
</g>
<g>
	<g>
		<rect x="26" y="14" width="2" height="2"/>
	</g>
</g>
<g>
	<g>
		<rect x="26" y="10" width="2" height="2"/>
	</g>
</g>
<g>
	<g>
		<rect x="26" y="6" width="2" height="2"/>
	</g>
</g>
<g>
	<g>
		<rect x="22" y="18" width="2" height="2"/>
	</g>
</g>
<g>
	<g>
		<rect x="22" y="14" width="2" height="2"/>
	</g>
</g>
<g>
	<g>
		<rect x="22" y="10" width="2" height="2"/>
	</g>
</g>
<g>
	<g>
		<rect x="22" y="6" width="2" height="2"/>
	</g>
</g>
<g>
	<g>
		<rect x="18" y="18" width="2" height="2"/>
	</g>
</g>
<g>
	<g>
		<rect x="18" y="14" width="2" height="2"/>
	</g>
</g>
<g>
	<g>
		<rect x="18" y="10" width="2" height="2"/>
	</g>
</g>
<g>
	<g>
		<rect x="18" y="6" width="2" height="2"/>
	</g>
</g>
<g>
	<path d="M19,0c-5.54,0-7,5.89-7,9v3H0v20h32V0H19z M12,18h-2v2h2v4h-2v2h2v4H2V14h10V18z M24,30h-4v-4h4V30z M30,30h-4v-6h-8v6h-4   v-4h2v-2h-2v-4h2v-2h-2V9c0-0.28,0.08-7,5-7h11V30z"/>
	<rect x="6" y="24" width="2" height="2"/>
	<rect x="6" y="18" width="2" height="2"/>
</g>
</svg>
