<?xml version="1.0" encoding="utf-8"?>
<!-- Generator: Adobe Illustrator 16.0.0, SVG Export Plug-In . SVG Version: 6.00 Build 0)  -->
<!DOCTYPE svg PUBLIC "-//W3C//DTD SVG 1.1//EN" "http://www.w3.org/Graphics/SVG/1.1/DTD/svg11.dtd">
<svg xmlns="http://www.w3.org/2000/svg" xmlns:xlink="http://www.w3.org/1999/xlink" version="1.1" id="Capa_1" x="0px" y="0px" width="32px" height="32px" viewBox="0 0 32 32" enable-background="new 0 0 32 32" xml:space="preserve">
<path d="M26,26V0H13C7.46,0,6,5.89,6,9v17H4v2h6.35c0.81,2.33,3.04,4,5.65,4c2.61,0,4.84-1.67,5.65-4H28v-2H26z M16,30  c-2.21,0-4-1.79-4-4s1.79-4,4-4s4,1.79,4,4S18.21,30,16,30z M24,26h-2c0-3.31-2.69-6-6-6c-3.31,0-6,2.69-6,6H8V9c0-0.28,0.08-7,5-7  h11V26z"/>
<rect x="12" y="16" width="2" height="2"/>
<rect x="16" y="16" width="2" height="2"/>
<rect x="20" y="16" width="2" height="2"/>
<rect x="12" y="12" width="2" height="2"/>
<rect x="16" y="12" width="2" height="2"/>
<rect x="20" y="12" width="2" height="2"/>
<rect x="12" y="8" width="2" height="2"/>
<rect x="16" y="8" width="2" height="2"/>
<rect x="20" y="8" width="2" height="2"/>
</svg>
