<?xml version="1.0" encoding="utf-8"?>
<!-- Generator: Adobe Illustrator 16.0.0, SVG Export Plug-In . SVG Version: 6.00 Build 0)  -->
<!DOCTYPE svg PUBLIC "-//W3C//DTD SVG 1.1//EN" "http://www.w3.org/Graphics/SVG/1.1/DTD/svg11.dtd">
<svg xmlns="http://www.w3.org/2000/svg" xmlns:xlink="http://www.w3.org/1999/xlink" version="1.1" id="Capa_1" x="0px" y="0px" width="32px" height="32px" viewBox="0 0 32 32" enable-background="new 0 0 32 32" xml:space="preserve">
<g>
	<path d="M20,22V4l-6,2H5c-3.96,0-5,3.27-5,5v4c0,3.28,2.24,4.56,4,4.9V30h10.22l-2-10H14L20,22z M16,7.44l2-0.67v12.46l-2-0.671   V7.44z M6,28v-8h4.18l1.6,8H6z M5.01,18C4.5,17.99,2,17.82,2,15v-3.99C2.01,10.5,2.18,8,5,8h9v10H5.01z"/>
</g>
<g>
	<path d="M23.001,18c-0.367,0-0.72-0.202-0.896-0.553c-0.247-0.494-0.047-1.095,0.447-1.342C22.6,16.08,24,15.298,24,13   s-1.4-3.08-1.46-3.112c-0.481-0.259-0.672-0.86-0.42-1.345c0.251-0.485,0.839-0.68,1.327-0.438C23.552,8.158,26,9.423,26,13   s-2.448,4.843-2.553,4.895C23.304,17.966,23.151,18,23.001,18z"/>
</g>
<g>
	<path d="M27,20c-0.256,0-0.512-0.098-0.707-0.293c-0.391-0.391-0.391-1.023,0-1.414C26.357,18.227,28,16.491,28,13   s-1.643-5.226-1.713-5.298c-0.382-0.395-0.377-1.026,0.014-1.412c0.394-0.386,1.019-0.384,1.406,0.003C27.801,6.387,30,8.636,30,13   s-2.199,6.613-2.293,6.707C27.512,19.902,27.256,20,27,20z"/>
</g>
</svg>
