<?xml version="1.0" encoding="utf-8"?>
<!-- Generator: Adobe Illustrator 16.0.0, SVG Export Plug-In . SVG Version: 6.00 Build 0)  -->
<!DOCTYPE svg PUBLIC "-//W3C//DTD SVG 1.1//EN" "http://www.w3.org/Graphics/SVG/1.1/DTD/svg11.dtd">
<svg xmlns="http://www.w3.org/2000/svg" xmlns:xlink="http://www.w3.org/1999/xlink" version="1.1" id="Capa_1" x="0px" y="0px" width="32px" height="32px" viewBox="0 0 32 32" enable-background="new 0 0 32 32" xml:space="preserve">
<path d="M18,2v28h-4V2H0v30h32V2H18z M12,30H2v-4h6v-2H2v-2h6v-2H2v-2h6v-2H2v-2h6v-2H2v-2h6V8H2V4h10V30z M30,30H20v-4h6v-2h-6v-2  h6v-2h-6v-2h6v-2h-6v-2h6v-2h-6v-2h6V8h-6V4h10V30z"/>
</svg>
