<?xml version="1.0" encoding="utf-8"?>
<!-- Generator: Adobe Illustrator 16.0.0, SVG Export Plug-In . SVG Version: 6.00 Build 0)  -->
<!DOCTYPE svg PUBLIC "-//W3C//DTD SVG 1.1//EN" "http://www.w3.org/Graphics/SVG/1.1/DTD/svg11.dtd">
<svg xmlns="http://www.w3.org/2000/svg" xmlns:xlink="http://www.w3.org/1999/xlink" version="1.1" id="Capa_1" x="0px" y="0px" width="32px" height="32px" viewBox="0 0 32 32" enable-background="new 0 0 32 32" xml:space="preserve">
<g>
	<g>
		<rect x="8" y="20" width="2" height="2"/>
	</g>
</g>
<g>
	<g>
		<rect x="8" y="16" width="2" height="2"/>
	</g>
</g>
<g>
	<g>
		<rect x="8" y="12" width="2" height="2"/>
	</g>
</g>
<g>
	<g>
		<rect x="8" y="8" width="2" height="2"/>
	</g>
</g>
<g>
	<g>
		<rect x="4" y="20" width="2" height="2"/>
	</g>
</g>
<g>
	<g>
		<rect x="8" y="24" width="2" height="2"/>
	</g>
</g>
<g>
	<g>
		<rect x="4" y="24" width="2" height="2"/>
	</g>
</g>
<g>
	<g>
		<rect x="4" y="16" width="2" height="2"/>
	</g>
</g>
<g>
	<g>
		<rect x="4" y="12" width="2" height="2"/>
	</g>
</g>
<g>
	<g>
		<rect x="4" y="8" width="2" height="2"/>
	</g>
</g>
<g>
	<path d="M27,2h-9v28h-4V2H5C1.04,2,0,5.27,0,7v25h32V7C32,5.27,30.96,2,27,2z M12,30H2V7.01C2.01,6.5,2.18,4,5,4h7V30z M30,30H20V4   h7c2.82,0,2.99,2.5,3,3V30z"/>
</g>
<g>
	<g>
		<rect x="22" y="20" width="2" height="2"/>
	</g>
</g>
<g>
	<g>
		<rect x="22" y="16" width="2" height="2"/>
	</g>
</g>
<g>
	<g>
		<rect x="22" y="12" width="2" height="2"/>
	</g>
</g>
<g>
	<g>
		<rect x="22" y="8" width="2" height="2"/>
	</g>
</g>
<g>
	<g>
		<rect x="26" y="20" width="2" height="2"/>
	</g>
</g>
<g>
	<g>
		<rect x="22" y="24" width="2" height="2"/>
	</g>
</g>
<g>
	<g>
		<rect x="26" y="24" width="2" height="2"/>
	</g>
</g>
<g>
	<g>
		<rect x="26" y="16" width="2" height="2"/>
	</g>
</g>
<g>
	<g>
		<rect x="26" y="12" width="2" height="2"/>
	</g>
</g>
<g>
	<g>
		<rect x="26" y="8" width="2" height="2"/>
	</g>
</g>
</svg>
