<?xml version="1.0" encoding="utf-8"?>
<!-- Generator: Adobe Illustrator 16.0.0, SVG Export Plug-In . SVG Version: 6.00 Build 0)  -->
<!DOCTYPE svg PUBLIC "-//W3C//DTD SVG 1.1//EN" "http://www.w3.org/Graphics/SVG/1.1/DTD/svg11.dtd">
<svg xmlns="http://www.w3.org/2000/svg" xmlns:xlink="http://www.w3.org/1999/xlink" version="1.1" id="Capa_1" x="0px" y="0px" width="32px" height="32px" viewBox="0 0 32 32" enable-background="new 0 0 32 32" xml:space="preserve">
<g>
	<path d="M29.891,30.55L28,26.76c-0.05-15.27-4.811-19.31-7.391-20.37l3.221-4.84c0.21-0.3,0.229-0.7,0.05-1.02   C23.71,0.2,23.37,0,23,0H11c-0.37,0-0.71,0.2-0.88,0.53c-0.18,0.32-0.16,0.72,0.05,1.02l3.22,4.83C10.81,7.45,6.05,11.49,6,26.76   l-1.89,3.79c-0.16,0.312-0.14,0.681,0.04,0.979C4.33,31.82,4.65,32,5,32h24c0.35,0,0.67-0.18,0.85-0.471   C30.029,31.23,30.05,30.859,29.891,30.55z M12.87,2h8.26l-2.67,4h-2.92L12.87,2z M6.62,30l1.27-2.55C7.96,27.311,8,27.16,8,27   C8,8.47,14.95,8,15,8h3.98C19.05,8,26,8.47,26,27c0,0.16,0.04,0.311,0.109,0.45L27.38,30H6.62z"/>
</g>
</svg>
