<?xml version="1.0" encoding="utf-8"?>
<!-- Generator: Adobe Illustrator 16.0.0, SVG Export Plug-In . SVG Version: 6.00 Build 0)  -->
<!DOCTYPE svg PUBLIC "-//W3C//DTD SVG 1.1//EN" "http://www.w3.org/Graphics/SVG/1.1/DTD/svg11.dtd">
<svg xmlns="http://www.w3.org/2000/svg" xmlns:xlink="http://www.w3.org/1999/xlink" version="1.1" id="Capa_1" x="0px" y="0px" width="32px" height="32px" viewBox="0 0 32 32" enable-background="new 0 0 32 32" xml:space="preserve">
<g>
	<path d="M29,10H15c-2.2,0-3,1.79-3,3v16c0,2.2,1.79,3,3,3h14c2.2,0,3-1.79,3-3V13C32,10.8,30.21,10,29,10z M30,28.99   C29.99,29.45,29.81,30,29,30H15.01C14.55,29.99,14,29.81,14,29v-1h16V28.99z M30,26H14V16h16V26z M30,14H14v-0.99   c0.01-0.46,0.19-1.01,1-1.01h13.99c0.46,0.01,1.01,0.19,1.01,1V14z"/>
</g>
<path d="M17,0H3C0.8,0,0,1.79,0,3v16c0,2.2,1.79,3,3,3h7v-2H3.01C2.55,19.99,2,19.81,2,19v-1h8v-2H2V6h16v2h2V3C20,0.8,18.21,0,17,0  z M18,4H2V3.01C2.01,2.55,2.19,2,3,2h13.99C17.45,2.01,18,2.19,18,3V4z"/>
<rect x="16" y="20" width="12" height="2"/>
</svg>
