<?xml version="1.0" encoding="utf-8"?>
<!-- Generator: Adobe Illustrator 16.0.0, SVG Export Plug-In . SVG Version: 6.00 Build 0)  -->
<!DOCTYPE svg PUBLIC "-//W3C//DTD SVG 1.1//EN" "http://www.w3.org/Graphics/SVG/1.1/DTD/svg11.dtd">
<svg xmlns="http://www.w3.org/2000/svg" xmlns:xlink="http://www.w3.org/1999/xlink" version="1.1" id="Capa_1" x="0px" y="0px" width="32px" height="32px" viewBox="0 0 32 32" enable-background="new 0 0 32 32" xml:space="preserve">
<g>
	<path d="M26.4,8C24.33,4.42,20.45,2,16,2S7.67,4.42,5.6,8H0v12h5.6c2.07,3.58,5.95,6,10.4,6s8.33-2.42,10.4-6H32V8H26.4z M16,4   c3.26,0,6.17,1.57,7.99,4H8.01C9.83,5.57,12.74,4,16,4z M16,24c-3.26,0-6.17-1.57-7.99-4h15.98C22.17,22.43,19.26,24,16,24z M30,18   H2v-8h28V18z"/>
</g>
<rect x="2" y="28" width="28" height="2"/>
</svg>
