<?xml version="1.0" encoding="utf-8"?>
<!-- Generator: Adobe Illustrator 16.0.0, SVG Export Plug-In . SVG Version: 6.00 Build 0)  -->
<!DOCTYPE svg PUBLIC "-//W3C//DTD SVG 1.1//EN" "http://www.w3.org/Graphics/SVG/1.1/DTD/svg11.dtd">
<svg xmlns="http://www.w3.org/2000/svg" xmlns:xlink="http://www.w3.org/1999/xlink" version="1.1" id="Capa_1" x="0px" y="0px" width="32px" height="32px" viewBox="0 0 32 32" enable-background="new 0 0 32 32" xml:space="preserve">
<g>
	<path d="M30,20v10H12V20H30L30,20z M32,18H10v14h22V18L32,18z"/>
</g>
<g>
	<path d="M21,22c1.657,0,3,1.343,3,3s-1.343,3-3,3s-3-1.343-3-3S19.343,22,21,22L21,22z M21,20c-2.757,0-5,2.243-5,5s2.243,5,5,5   s5-2.243,5-5S23.757,20,21,20L21,20z"/>
</g>
<g>
	<path d="M22,4V3c0-2.2-1.79-3-3-3H9C6.8,0,6,1.79,6,3v1H0v20h8v-2H2V12h4v2h2v-2h12v2h2v-2h4v4h2V4H22z M8,3.01   C8.01,2.55,8.19,2,9,2h9.99C19.45,2.01,20,2.19,20,3v1H8V3.01z M26,10h-4V8h-2v2H8V8H6v2H2V6h24V10z"/>
</g>
</svg>
