<?xml version="1.0" encoding="utf-8"?>
<!-- Generator: Adobe Illustrator 16.0.0, SVG Export Plug-In . SVG Version: 6.00 Build 0)  -->
<!DOCTYPE svg PUBLIC "-//W3C//DTD SVG 1.1//EN" "http://www.w3.org/Graphics/SVG/1.1/DTD/svg11.dtd">
<svg xmlns="http://www.w3.org/2000/svg" xmlns:xlink="http://www.w3.org/1999/xlink" version="1.1" id="Capa_1" x="0px" y="0px" width="32px" height="32px" viewBox="0 0 32 32" enable-background="new 0 0 32 32" xml:space="preserve">
<g>
	<path d="M0,4v24h30V4H0z M14,26H2V6h12V26z M28,26H16V6h12V26z"/>
</g>
<g>
	<path d="M4,8v8h8V8H4z M10,14H6v-4h4V14z"/>
</g>
<g>
	<path d="M18,8v8h8V8H18z M24,14h-4v-4h4V14z"/>
</g>
<g>
	<rect x="4" y="18" width="8" height="2"/>
</g>
<g>
	<rect x="4" y="22" width="8" height="2"/>
</g>
<g>
	<rect x="18" y="22" width="8" height="2"/>
</g>
<g>
	<rect x="18" y="18" width="8" height="2"/>
</g>
</svg>
