<?xml version="1.0" encoding="utf-8"?>
<!-- Generator: Adobe Illustrator 16.0.0, SVG Export Plug-In . SVG Version: 6.00 Build 0)  -->
<!DOCTYPE svg PUBLIC "-//W3C//DTD SVG 1.1//EN" "http://www.w3.org/Graphics/SVG/1.1/DTD/svg11.dtd">
<svg xmlns="http://www.w3.org/2000/svg" xmlns:xlink="http://www.w3.org/1999/xlink" version="1.1" id="Capa_1" x="0px" y="0px" width="32px" height="32px" viewBox="0 0 32 32" enable-background="new 0 0 32 32" xml:space="preserve">
<g>
	<g>
		<path d="M18.78,6l-1-4H2v28h2V20h8v4h18V6H18.78z M10,18H4v-6h6V18z M10,10H4V4h6V10z M12,4h4.22l1.5,6H12V4z M12,12h6.22l1.5,6    H12V12z M14,22v-2h6v2H14z M28,22h-6v-2h0.28l-1-4H28V22z M28,14h-7.22l-1.5-6H28V14z"/>
	</g>
</g>
</svg>
