<?xml version="1.0" encoding="utf-8"?>
<!-- Generator: Adobe Illustrator 16.0.0, SVG Export Plug-In . SVG Version: 6.00 Build 0)  -->
<!DOCTYPE svg PUBLIC "-//W3C//DTD SVG 1.1//EN" "http://www.w3.org/Graphics/SVG/1.1/DTD/svg11.dtd">
<svg xmlns="http://www.w3.org/2000/svg" xmlns:xlink="http://www.w3.org/1999/xlink" version="1.1" id="Capa_1" x="0px" y="0px" width="32px" height="32px" viewBox="0 0 32 32" enable-background="new 0 0 32 32" xml:space="preserve">
<g>
	<g>
		<path d="M26,30V20h-2v10h-4v-6h-8v6H8V20H6v10H4v2h24v-2H26z M18,30h-4v-4h4V30z"/>
		<path d="M26,0v2H8.37C9.44,0.82,10.93,0,13,0H26z"/>
	</g>
</g>
<g>
	<path d="M8,4C5.79,4,4,5.79,4,8c0,1.14,0.47,2.17,1.24,2.89c-2.5,1.8-3.19,5.73-3.23,5.95L1.82,18H9l1-2H4.29   c0.47-1.52,1.58-4,3.71-4c0.8,0,1.47,0.35,2,0.86v-1.4c0.01,0,0.02-0.01,0.03-0.02C11.21,10.75,12,9.47,12,8C12,5.79,10.21,4,8,4z    M8,10c-1.1,0-2-0.9-2-2s0.9-2,2-2s2,0.9,2,2S9.1,10,8,10z"/>
</g>
<g>
	<path d="M29.99,16.83c-0.04-0.21-0.73-4.14-3.23-5.94C27.53,10.17,28,9.14,28,8c0-2.21-1.79-4-4-4s-4,1.79-4,4   c0,1.48,0.8,2.77,2,3.46v1.42c0.53-0.52,1.2-0.88,2-0.88c2.16,0,3.25,2.48,3.72,4H22l1,2h7.18L29.99,16.83z M24,10   c-1.1,0-2-0.9-2-2s0.9-2,2-2s2,0.9,2,2S25.1,10,24,10z"/>
</g>
<g>
	<path d="M21.99,20.84c-0.04-0.22-0.73-4.15-3.23-5.95C19.53,14.17,20,13.14,20,12c0-2.21-1.79-4-4-4s-4,1.79-4,4   c0,1.14,0.47,2.17,1.24,2.89c-2.5,1.8-3.19,5.73-3.23,5.95L9.82,22h12.36L21.99,20.84z M16,10c1.1,0,2,0.9,2,2s-0.9,2-2,2   c-1.1,0-2-0.9-2-2S14.9,10,16,10z M12.29,20c0.47-1.52,1.58-4,3.71-4c2.16,0,3.25,2.48,3.72,4H12.29z"/>
</g>
<g>
	<path d="M10.03,11.44C10.01,11.62,10,11.81,10,12v-0.54C10.01,11.46,10.02,11.45,10.03,11.44z"/>
</g>
</svg>
