<?xml version="1.0" encoding="utf-8"?>
<!-- Generator: Adobe Illustrator 16.0.0, SVG Export Plug-In . SVG Version: 6.00 Build 0)  -->
<!DOCTYPE svg PUBLIC "-//W3C//DTD SVG 1.1//EN" "http://www.w3.org/Graphics/SVG/1.1/DTD/svg11.dtd">
<svg xmlns="http://www.w3.org/2000/svg" xmlns:xlink="http://www.w3.org/1999/xlink" version="1.1" id="Capa_1" x="0px" y="0px" width="32px" height="32px" viewBox="0 0 32 32" enable-background="new 0 0 32 32" xml:space="preserve">
<g>
	<path d="M25,0H14v2h10.99C26,2,26,3,26,3v1H14v2h12v20H6V6h2V4H6V3.01C6,3.01,6,2,7,2h1V0H7C4.8,0,4,1.79,4,3v26c0,2.2,1.79,3,3,3   h18c2.2,0,3-1.79,3-3V3C28,0.8,26.21,0,25,0z M26,28.99C25.99,29.45,25.81,30,25,30H7.01C6.55,29.99,6,29.81,6,29v-1h20V28.99z"/>
</g>
<g>
	<polygon points="12,23 10,23 10,16.586 13.586,13 10,9.414 10,0 12,0 12,8.586 16.414,13 12,17.414  "/>
</g>
</svg>
