<?xml version="1.0" encoding="utf-8"?>
<!-- Generator: Adobe Illustrator 16.0.0, SVG Export Plug-In . SVG Version: 6.00 Build 0)  -->
<!DOCTYPE svg PUBLIC "-//W3C//DTD SVG 1.1//EN" "http://www.w3.org/Graphics/SVG/1.1/DTD/svg11.dtd">
<svg xmlns="http://www.w3.org/2000/svg" xmlns:xlink="http://www.w3.org/1999/xlink" version="1.1" id="Capa_1" x="0px" y="0px" width="32px" height="32px" viewBox="0 0 32 32" enable-background="new 0 0 32 32" xml:space="preserve">
<path d="M6,2c1.103,0,2,0.897,2,2S7.103,6,6,6S4,5.103,4,4S4.897,2,6,2 M6,0C3.791,0,2,1.791,2,4s1.791,4,4,4s4-1.791,4-4  S8.209,0,6,0L6,0z"/>
<path d="M16,2c1.103,0,2,0.897,2,2s-0.897,2-2,2c-1.103,0-2-0.897-2-2S14.897,2,16,2 M16,0c-2.209,0-4,1.791-4,4s1.791,4,4,4  s4-1.791,4-4S18.209,0,16,0L16,0z"/>
<path d="M26,2c1.103,0,2,0.897,2,2s-0.897,2-2,2s-2-0.897-2-2S24.897,2,26,2 M26,0c-2.209,0-4,1.791-4,4s1.791,4,4,4s4-1.791,4-4  S28.209,0,26,0L26,0z"/>
<path d="M6,26c1.103,0,2,0.897,2,2s-0.897,2-2,2s-2-0.897-2-2S4.897,26,6,26 M6,24c-2.209,0-4,1.791-4,4s1.791,4,4,4s4-1.791,4-4  S8.209,24,6,24L6,24z"/>
<path d="M16,26c1.103,0,2,0.897,2,2s-0.897,2-2,2c-1.103,0-2-0.897-2-2S14.897,26,16,26 M16,24c-2.209,0-4,1.791-4,4s1.791,4,4,4  s4-1.791,4-4S18.209,24,16,24L16,24z"/>
<path d="M26,26c1.103,0,2,0.897,2,2s-0.897,2-2,2s-2-0.897-2-2S24.897,26,26,26 M26,24c-2.209,0-4,1.791-4,4s1.791,4,4,4  s4-1.791,4-4S28.209,24,26,24L26,24z"/>
<path d="M26.559,12l2.667,8H2.775l2.667-8H26.559 M28,10H4L0,22h32L28,10L28,10z"/>
</svg>
