<?xml version="1.0" encoding="utf-8"?>
<!-- Generator: Adobe Illustrator 16.0.0, SVG Export Plug-In . SVG Version: 6.00 Build 0)  -->
<!DOCTYPE svg PUBLIC "-//W3C//DTD SVG 1.1//EN" "http://www.w3.org/Graphics/SVG/1.1/DTD/svg11.dtd">
<svg xmlns="http://www.w3.org/2000/svg" xmlns:xlink="http://www.w3.org/1999/xlink" version="1.1" id="Capa_1" x="0px" y="0px" width="32px" height="32px" viewBox="0 0 32 32" enable-background="new 0 0 32 32" xml:space="preserve">
<g>
	<path d="M10,16H4c-2.6,0-4,2.06-4,4v8c0,2.6,2.06,4,4,4h6c2.6,0,4-2.06,4-4v-8C14,17.4,11.94,16,10,16z M10,30H4c0,0-2,0-2-2h10   C12,28,12,30,10,30z M12,26H2v-4h10V26z M2,20c0,0,0-2,2-2h6c0,0,2,0,2,2H2z"/>
</g>
<path d="M18,8h-6c-2.6,0-4,2.06-4,4v2h12v4h-4v2h4c0,0,0,2-2,2h-2v2h2c2.6,0,4-2.06,4-4v-8C22,9.4,19.94,8,18,8z M10,12c0,0,0-2,2-2  h6c0,0,2,0,2,2H10z"/>
<path d="M26,0h-6c-2.6,0-4,2.06-4,4v2h12v4h-4v2h4c0,0,0,2-2,2h-2v2h2c2.6,0,4-2.06,4-4V4C30,1.4,27.94,0,26,0z M18,4c0,0,0-2,2-2h6  c0,0,2,0,2,2H18z"/>
</svg>
