<?xml version="1.0" encoding="utf-8"?>
<!-- Generator: Adobe Illustrator 16.0.0, SVG Export Plug-In . SVG Version: 6.00 Build 0)  -->
<!DOCTYPE svg PUBLIC "-//W3C//DTD SVG 1.1//EN" "http://www.w3.org/Graphics/SVG/1.1/DTD/svg11.dtd">
<svg xmlns="http://www.w3.org/2000/svg" xmlns:xlink="http://www.w3.org/1999/xlink" version="1.1" id="Capa_1" x="0px" y="0px" width="32px" height="32px" viewBox="0 0 32 32" enable-background="new 0 0 32 32" xml:space="preserve">
<g>
	<path d="M29,4H16V3c0-0.31-0.15-0.61-0.4-0.8c-0.25-0.19-0.57-0.25-0.87-0.16l-14,4C0.3,6.16,0,6.55,0,7v20   c0,0.45,0.3,0.84,0.73,0.96l14,4C14.82,31.99,14.91,32,15,32c0.21,0,0.43-0.07,0.6-0.2C15.85,31.61,16,31.31,16,31v-1h13   c2.2,0,3-1.79,3-3V7C32,4.8,30.21,4,29,4z M14,29.67L2,26.25V7.75l12-3.42V29.67z M22,28h-6v-4h6V28z M22,22h-6v-4h6V22z M22,16h-6   v-4h6V16z M22,10h-6V6h6V10z M30,26.99C29.99,27.45,29.81,28,29,28h-5v-4h6V26.99z M30,22h-6v-4h6V22z M30,16h-6v-4h6V16z M30,10   h-6V6h4.99C29.45,6.01,30,6.19,30,7V10z"/>
</g>
<g>
	<polygon points="9.12,17 11.89,22.55 10.11,23.45 8,19.23 5.89,23.45 4.11,22.55 6.89,17 4.11,11.45 5.89,10.55 8,14.77    10.11,10.55 11.89,11.45  "/>
</g>
</svg>
