<?xml version="1.0" encoding="utf-8"?>
<!-- Generator: Adobe Illustrator 16.0.0, SVG Export Plug-In . SVG Version: 6.00 Build 0)  -->
<!DOCTYPE svg PUBLIC "-//W3C//DTD SVG 1.1//EN" "http://www.w3.org/Graphics/SVG/1.1/DTD/svg11.dtd">
<svg xmlns="http://www.w3.org/2000/svg" xmlns:xlink="http://www.w3.org/1999/xlink" version="1.1" id="Capa_1" x="0px" y="0px" width="32px" height="32px" viewBox="0 0 32 32" enable-background="new 0 0 32 32" xml:space="preserve">
<g>
	<path d="M24,2c-1.94,0-4,1.4-4,4h-7c-2.2,0-3,1.79-3,3v7H0v16h22V16H12V9.01C12.01,8.55,12.19,8,13,8h7c0,1.94,1.4,4,4,4h8V2H24z    M2,19.08l4.18,3.34L2,28V19.08z M3,30l4.74-6.33L11,26.28l3.26-2.61L19,30H3z M20,28l-4.18-5.58L20,19.08V28z M18.15,18L11,23.72   L3.85,18H18.15z M30,10h-6c-2,0-2-2-2-2V6c0-2,2-2,2-2h6V10z"/>
</g>
</svg>
