<?xml version="1.0" encoding="utf-8"?>
<!-- Generator: Adobe Illustrator 16.0.0, SVG Export Plug-In . SVG Version: 6.00 Build 0)  -->
<!DOCTYPE svg PUBLIC "-//W3C//DTD SVG 1.1//EN" "http://www.w3.org/Graphics/SVG/1.1/DTD/svg11.dtd">
<svg xmlns="http://www.w3.org/2000/svg" xmlns:xlink="http://www.w3.org/1999/xlink" version="1.1" id="Capa_1" x="0px" y="0px" width="32px" height="32px" viewBox="0 0 32 32" enable-background="new 0 0 32 32" xml:space="preserve">
<g>
	<path d="M22.87,21.46C24.82,19.19,26,16.23,26,13c0-7.18-5.82-13-13-13C5.82,0,0,5.82,0,13c0,7.18,5.82,13,13,13   c3.23,0,6.19-1.18,8.46-3.13l8.83,8.84l1.42-1.42L22.87,21.46z M13,24c-2.26,0-4.35-0.68-6.1-1.85C7.89,20.36,9.81,18,13,18   c3.18,0,5.1,2.33,6.11,4.15C17.36,23.32,15.26,24,13,24z M10,12c0-2.17,1.37-4,3-4s3,1.83,3,4s-1.37,4-3,4S10,14.17,10,12z    M20.68,20.87c-0.899-1.54-2.359-3.32-4.51-4.23C17.29,15.54,18,13.87,18,12c0-3.31-2.24-6-5-6s-5,2.69-5,6   c0,1.87,0.71,3.54,1.83,4.64c-2.17,0.93-3.62,2.709-4.51,4.24C3.27,18.88,2,16.08,2,13C2,6.93,6.93,2,13,2c6.07,0,11,4.93,11,11   C24,16.08,22.73,18.88,20.68,20.87z"/>
</g>
</svg>
