<?xml version="1.0" encoding="utf-8"?>
<!-- Generator: Adobe Illustrator 16.0.0, SVG Export Plug-In . SVG Version: 6.00 Build 0)  -->
<!DOCTYPE svg PUBLIC "-//W3C//DTD SVG 1.1//EN" "http://www.w3.org/Graphics/SVG/1.1/DTD/svg11.dtd">
<svg xmlns="http://www.w3.org/2000/svg" xmlns:xlink="http://www.w3.org/1999/xlink" version="1.1" id="Capa_1" x="0px" y="0px" width="32px" height="32px" viewBox="0 0 32 32" enable-background="new 0 0 32 32" xml:space="preserve">
<g>
	<g>
		<path d="M2,20v12h2v-2h6v-2H4v-2h6v-2H4v-2h6v-4h4v14h8v-4h2v4h8V20c0-3.11-1.46-9-7-9H14v5H8v4H2z M16,13h9c4.92,0,5,6.72,5,7v10    h-4v-4h-6v4h-4V13z"/>
	</g>
</g>
<g>
	<rect x="22" y="22" width="2" height="2"/>
</g>
<g>
	<rect x="26" y="22" width="2" height="2"/>
</g>
<g>
	<rect x="18" y="22" width="2" height="2"/>
</g>
<g>
	<rect x="22" y="18" width="2" height="2"/>
</g>
<g>
	<rect x="26" y="18" width="2" height="2"/>
</g>
<g>
	<rect x="18" y="18" width="2" height="2"/>
</g>
<g>
	<path d="M0,6v2h2.35C3.16,10.33,5.39,12,8,12c3.31,0,6-2.69,6-6h2V4h-2.35C12.84,1.67,10.61,0,8,0C4.69,0,2,2.69,2,6H0z M8,8V6H4   c0-2.21,1.79-4,4-4c1.48,0,2.77,0.8,3.46,2H8v2h4c0,2.21-1.79,4-4,4c-1.48,0-2.77-0.8-3.46-2H8z"/>
</g>
</svg>
