<?xml version="1.0" encoding="utf-8"?>
<!-- Generator: Adobe Illustrator 16.0.0, SVG Export Plug-In . SVG Version: 6.00 Build 0)  -->
<!DOCTYPE svg PUBLIC "-//W3C//DTD SVG 1.1//EN" "http://www.w3.org/Graphics/SVG/1.1/DTD/svg11.dtd">
<svg xmlns="http://www.w3.org/2000/svg" xmlns:xlink="http://www.w3.org/1999/xlink" version="1.1" id="Capa_1" x="0px" y="0px" width="32px" height="32px" viewBox="0 0 32 32" enable-background="new 0 0 32 32" xml:space="preserve">
<g>
	<rect x="12" width="8" height="2"/>
</g>
<g>
	<path d="M21.45,10.11C20.46,9.61,20,6.77,20,5V4h-8v1c0,1.77-0.46,4.61-1.45,5.11C8.03,11.37,8,14.85,8,15v14c0,2.2,1.79,3,3,3h10   c1.21,0,3-0.8,3-3V15C24,14.85,23.97,11.37,21.45,10.11z M22,16.58l-9.71,9.71l1.42,1.42L22,19.42V29c0,0.8-0.55,0.99-1.01,1h-9.98   C10.55,29.99,10,29.81,10,29V15c0-0.02,0.04-2.4,1.45-3.11c1.93-0.96,2.4-4.15,2.52-5.89h4.07c0.11,1.74,0.58,4.93,2.51,5.89   c0.03,0.02,0.061,0.03,0.09,0.05l-6.35,6.35l1.42,1.42l6.07-6.07C21.99,14.35,22,14.99,22,15V16.58z"/>
</g>
</svg>
