<?xml version="1.0" encoding="utf-8"?>
<!-- Generator: Adobe Illustrator 16.0.0, SVG Export Plug-In . SVG Version: 6.00 Build 0)  -->
<!DOCTYPE svg PUBLIC "-//W3C//DTD SVG 1.1//EN" "http://www.w3.org/Graphics/SVG/1.1/DTD/svg11.dtd">
<svg xmlns="http://www.w3.org/2000/svg" xmlns:xlink="http://www.w3.org/1999/xlink" version="1.1" id="Capa_1" x="0px" y="0px" width="32px" height="32px" viewBox="0 0 32 32" enable-background="new 0 0 32 32" xml:space="preserve">
<g>
	<g>
		<path d="M21,0H4C2,0,2,2,2,2v27.96c0,2,2,2.04,2,2.04h22c2,0,2-2,2-2V7L21,0z M26,30H4C3.99,30,3.99,2.02,4,2h14v5    c0,1.21,0.8,3,3,3h5C26,10,26.01,29.98,26,30z M26,8h-5c-1,0-1-1-1-1V2h0.17L26,7.83V8z"/>
	</g>
</g>
<g>
	<path d="M15,10c-4.97,0-9,4.03-9,9c0,4.97,4.03,9,9,9c4.97,0,9-4.03,9-9C24,14.03,19.97,10,15,10z M16,12.08   c3.06,0.43,5.49,2.86,5.92,5.92H16V12.08z M15,26c-3.86,0-7-3.14-7-7c0-3.52,2.61-6.44,6-6.92V20h8C21.521,23.39,18.52,26,15,26z"/>
</g>
</svg>
