<?xml version="1.0" encoding="utf-8"?>
<!-- Generator: Adobe Illustrator 16.0.0, SVG Export Plug-In . SVG Version: 6.00 Build 0)  -->
<!DOCTYPE svg PUBLIC "-//W3C//DTD SVG 1.1//EN" "http://www.w3.org/Graphics/SVG/1.1/DTD/svg11.dtd">
<svg xmlns="http://www.w3.org/2000/svg" xmlns:xlink="http://www.w3.org/1999/xlink" version="1.1" id="Capa_1" x="0px" y="0px" width="32px" height="32px" viewBox="0 0 32 32" enable-background="new 0 0 32 32" xml:space="preserve">
<path d="M32,8c0-4.41-3.59-8-8-8c-2.21,0-4.22,0.91-5.67,2.37C17.26,2.13,16.14,2,15,2C6.72,2,0,8.72,0,17c0,8.28,6.72,15,15,15  c8.28,0,15-6.72,15-15c0-1.14-0.13-2.26-0.37-3.33C31.09,12.22,32,10.21,32,8z M14,16v-4h3.08c1.06,1.83,2.82,3.2,4.92,3.75V16H14z   M22,18v4h-8v-4H22z M15,30C7.83,30,2,24.17,2,17S7.83,4,15,4c0.67,0,1.34,0.05,1.99,0.15C16.36,5.3,16,6.61,16,8  c0,0.69,0.09,1.36,0.25,2H6v14h18v-8c1.39,0,2.7-0.36,3.85-0.99C27.95,15.66,28,16.33,28,17C28,24.17,22.17,30,15,30z M8,16v-4h4v4  H8z M12,18v4H8v-4H12z M24,14c-3.31,0-6-2.69-6-6s2.69-6,6-6s6,2.69,6,6S27.31,14,24,14z"/>
</svg>
