<?xml version="1.0" encoding="utf-8"?>
<!-- Generator: Adobe Illustrator 16.0.0, SVG Export Plug-In . SVG Version: 6.00 Build 0)  -->
<!DOCTYPE svg PUBLIC "-//W3C//DTD SVG 1.1//EN" "http://www.w3.org/Graphics/SVG/1.1/DTD/svg11.dtd">
<svg xmlns="http://www.w3.org/2000/svg" xmlns:xlink="http://www.w3.org/1999/xlink" version="1.1" id="Capa_1" x="0px" y="0px" width="32px" height="32px" viewBox="0 0 32 32" enable-background="new 0 0 32 32" xml:space="preserve">
<g>
	<path d="M27.99,16.77C27.92,14.94,27.02,2.73,16,2.04V0h-2v2.03C2.14,2.78,2,16.85,2,17c0,0.49,0.35,0.9,0.83,0.98   c0.49,0.079,0.96-0.2,1.12-0.66C3.98,17.23,4.78,15,7,15s3.02,2.23,3.05,2.32C10.19,17.72,10.57,18,11,18s0.81-0.28,0.95-0.68   c0.02-0.07,0.58-1.63,2.05-2.14v11.81C13.99,27.5,13.82,30,11,30s-2.99-2.5-3-3v-2c0-0.55-0.45-1-1-1s-1,0.45-1,1v2   c0,1.73,1.04,5,5,5s5-3.27,5-5V15.18c1.47,0.51,2.03,2.07,2.05,2.14C18.19,17.72,18.57,18,19,18s0.81-0.28,0.95-0.68   C19.98,17.23,20.78,15,23,15c1.11,0,1.86,0.56,2.35,1.13c0.48,0.57,0.69,1.15,0.7,1.19C26.19,17.73,26.58,18,27,18   c0.01,0,0.01,0,0.02,0c0.551,0,1-0.45,1-1C28.02,16.92,28.01,16.85,27.99,16.77z M23,13c-1.98,0-3.24,1.02-4,1.99   C18.24,14.02,16.98,13,15,13s-3.24,1.02-4,1.99C10.24,14.02,8.98,13,7,13c-1.08,0-1.94,0.3-2.63,0.73C5.15,9.88,7.55,4,15,4   s9.85,5.88,10.63,9.73C24.94,13.3,24.08,13,23,13z"/>
</g>
</svg>
