<?xml version="1.0" encoding="utf-8"?>
<!-- Generator: Adobe Illustrator 16.0.0, SVG Export Plug-In . SVG Version: 6.00 Build 0)  -->
<!DOCTYPE svg PUBLIC "-//W3C//DTD SVG 1.1//EN" "http://www.w3.org/Graphics/SVG/1.1/DTD/svg11.dtd">
<svg xmlns="http://www.w3.org/2000/svg" xmlns:xlink="http://www.w3.org/1999/xlink" version="1.1" id="Capa_1" x="0px" y="0px" width="32px" height="32px" viewBox="0 0 32 32" enable-background="new 0 0 32 32" xml:space="preserve">
<g>
	<path d="M11.242,18.07L15,21.828l3.757-3.757c3.715,0.721,4.801,6.723,5.116,9.929H6.124C6.434,24.793,7.511,18.788,11.242,18.07   L11.242,18.07z M18,16l-3,3l-3-3c-8,0-8,14-8,14h22C26,30,26,16,18,16L18,16z"/>
</g>
<g>
	<path d="M20,6V4h-4V2h-2v2h-4v6h4v2h-4v2h4v2h2v-2h4V8h-4V6H20z M14,8h-2V6h2V8z M18,10v2h-2v-2H18z"/>
</g>
</svg>
