<?xml version="1.0" encoding="utf-8"?>
<!-- Generator: Adobe Illustrator 16.0.0, SVG Export Plug-In . SVG Version: 6.00 Build 0)  -->
<!DOCTYPE svg PUBLIC "-//W3C//DTD SVG 1.1//EN" "http://www.w3.org/Graphics/SVG/1.1/DTD/svg11.dtd">
<svg xmlns="http://www.w3.org/2000/svg" xmlns:xlink="http://www.w3.org/1999/xlink" version="1.1" id="Capa_1" x="0px" y="0px" width="32px" height="32px" viewBox="0 0 32 32" enable-background="new 0 0 32 32" xml:space="preserve">
<g>
	<path d="M29.89,30.55L28,26.76c-0.05-15.27-4.81-19.31-7.39-20.37l3.22-4.84c0.21-0.3,0.229-0.7,0.05-1.02C23.71,0.2,23.37,0,23,0   H11c-0.37,0-0.71,0.2-0.88,0.53c-0.18,0.32-0.16,0.72,0.05,1.02l3.22,4.83c-0.78,0.33-1.76,0.92-2.75,2.01l1.43,1.43   C13.59,8.09,14.98,8,15,8h3.98C19.05,8,26,8.47,26,27c0,0.16,0.04,0.31,0.11,0.45L27.38,30H6.62l1.27-2.55C7.96,27.31,8,27.16,8,27   c0-5.05,0.52-8.76,1.27-11.48l-1.6-1.6c-0.98,3-1.66,7.13-1.67,12.84l-1.89,3.79c-0.16,0.311-0.14,0.681,0.04,0.98   C4.33,31.82,4.65,32,5,32h24c0.35,0,0.67-0.18,0.85-0.47C30.03,31.23,30.05,30.86,29.89,30.55z M18.46,6h-2.92l-2.67-4h8.26   L18.46,6z"/>
</g>
<g>
	<polygon points="22,16 22,24 14,24 14,22 18.58,22 2.29,5.71 3.71,4.29 20,20.58 20,16  "/>
</g>
</svg>
