<?xml version="1.0" encoding="utf-8"?>
<!-- Generator: Adobe Illustrator 16.0.0, SVG Export Plug-In . SVG Version: 6.00 Build 0)  -->
<!DOCTYPE svg PUBLIC "-//W3C//DTD SVG 1.1//EN" "http://www.w3.org/Graphics/SVG/1.1/DTD/svg11.dtd">
<svg xmlns="http://www.w3.org/2000/svg" xmlns:xlink="http://www.w3.org/1999/xlink" version="1.1" id="Capa_1" x="0px" y="0px" width="32px" height="32px" viewBox="0 0 32 32" enable-background="new 0 0 32 32" xml:space="preserve">
<path d="M26,10V7c0-2.2-1.79-3-3-3H11C8.8,4,8,5.79,8,7v3H2l2.12,18h25.76L32,10H26z M10,7.01C10.01,6.55,10.19,6,11,6h11.99  C23.45,6.01,24,6.19,24,7v3H10V7.01z M16,26H5.88l-0.75-6H16V26z M16,18H4.88l-0.75-6H16V18z M28.12,26H18v-6h10.87L28.12,26z   M29.12,18H18v-6h11.87L29.12,18z"/>
</svg>
