<?xml version="1.0" encoding="utf-8"?>
<!-- Generator: Adobe Illustrator 16.0.0, SVG Export Plug-In . SVG Version: 6.00 Build 0)  -->
<!DOCTYPE svg PUBLIC "-//W3C//DTD SVG 1.1//EN" "http://www.w3.org/Graphics/SVG/1.1/DTD/svg11.dtd">
<svg xmlns="http://www.w3.org/2000/svg" xmlns:xlink="http://www.w3.org/1999/xlink" version="1.1" id="Capa_1" x="0px" y="0px" width="32px" height="32px" viewBox="0 0 32 32" enable-background="new 0 0 32 32" xml:space="preserve">
<g>
	<g>
		<path d="M28,10h-6.28c-0.45-1.09-1.35-2.45-2.81-3.26C19.58,6.02,20,5.06,20,4c0-2.21-1.79-4-4-4s-4,1.79-4,4    c0,1.06,0.42,2.02,1.09,2.74c-1.46,0.81-2.36,2.17-2.81,3.26H4L0,32h12.02c0.11-0.38,0.36-1.2,0.85-2c0.61-1.01,1.6-2,3.13-2    c1.54,0,2.53,0.98,3.13,2c0.5,0.8,0.75,1.63,0.84,2H32L28,10z M16,2c1.1,0,2,0.9,2,2s-0.9,2-2,2c-1.1,0-2-0.9-2-2S14.9,2,16,2z     M16,8c1.86,0,2.92,1.08,3.47,2h-6.94C13.08,9.08,14.14,8,16,8z M16,26c-1.1,0-2-0.9-2-2s0.9-2,2-2c1.1,0,2,0.9,2,2S17.1,26,16,26    z M18.83,26.83C19.55,26.1,20,25.1,20,24c0-2.21-1.79-4-4-4s-4,1.79-4,4c0,1.1,0.45,2.1,1.17,2.83c-1.21,0.79-2.04,2.02-2.56,3.17    H2.77l2.67-18h21.12l2.671,18H21.39C20.87,28.85,20.04,27.62,18.83,26.83z"/>
	</g>
</g>
</svg>
