<?xml version="1.0" encoding="utf-8"?>
<!-- Generator: Adobe Illustrator 16.0.0, SVG Export Plug-In . SVG Version: 6.00 Build 0)  -->
<!DOCTYPE svg PUBLIC "-//W3C//DTD SVG 1.1//EN" "http://www.w3.org/Graphics/SVG/1.1/DTD/svg11.dtd">
<svg xmlns="http://www.w3.org/2000/svg" xmlns:xlink="http://www.w3.org/1999/xlink" version="1.1" id="Capa_1" x="0px" y="0px" width="32px" height="32px" viewBox="0 0 32 32" enable-background="new 0 0 32 32" xml:space="preserve">
<g>
	<path d="M8,0C4.69,0,2,3.13,2,7s2.69,7,6,7s6-3.13,6-7S11.31,0,8,0z M8,12c-2.21,0-4-2.24-4-5s1.79-5,4-5s4,2.24,4,5S10.21,12,8,12   z"/>
</g>
<g>
	<path d="M11.45,14.11l-0.75-0.38L8,17.33l-2.7-3.6l-0.75,0.38C4.37,14.2,0,16.48,0,25v1h16v-1C16,16.48,11.63,14.2,11.45,14.11z    M2.02,24c0.21-4.59,1.84-6.74,2.77-7.61L8,20.67l3.21-4.28c0.94,0.87,2.56,3.03,2.77,7.61H2.02z"/>
</g>
<g>
	<path d="M24,6c-3.31,0-6,3.13-6,7s2.69,7,6,7s6-3.13,6-7S27.31,6,24,6z M24,18c-2.21,0-4-2.24-4-5s1.79-5,4-5s4,2.24,4,5   S26.21,18,24,18z"/>
</g>
<g>
	<path d="M27.45,20.11l-0.75-0.38l-2.7,3.6l-2.7-3.6l-0.75,0.38C20.37,20.2,16,22.48,16,31v1h16v-1C32,22.48,27.63,20.2,27.45,20.11   z M18.02,30c0.211-4.59,1.841-6.74,2.771-7.61L24,26.67l3.21-4.28c0.94,0.87,2.56,3.03,2.771,7.61H18.02z"/>
</g>
</svg>
