<?xml version="1.0" encoding="utf-8"?>
<!-- Generator: Adobe Illustrator 16.0.0, SVG Export Plug-In . SVG Version: 6.00 Build 0)  -->
<!DOCTYPE svg PUBLIC "-//W3C//DTD SVG 1.1//EN" "http://www.w3.org/Graphics/SVG/1.1/DTD/svg11.dtd">
<svg xmlns="http://www.w3.org/2000/svg" xmlns:xlink="http://www.w3.org/1999/xlink" version="1.1" id="Capa_1" x="0px" y="0px" width="32px" height="32px" viewBox="0 0 32 32" enable-background="new 0 0 32 32" xml:space="preserve">
<g>
	<path d="M22,6c-2.25,0-4.33,0.75-6,2.01C14.33,6.75,12.25,6,10,6C4.48,6,0,10.48,0,16s4.48,10,10,10c2.25,0,4.33-0.75,6-2.01   c1.67,1.26,3.75,2.01,6,2.01c5.52,0,10-4.48,10-10S27.52,6,22,6z M10,24c-4.41,0-8-3.59-8-8s3.59-8,8-8c1.67,0,3.221,0.52,4.5,1.4   c-1.561,1.76-2.5,4.07-2.5,6.6c0,2.53,0.939,4.84,2.5,6.6C13.221,23.48,11.67,24,10,24z M14,16c0-2.02,0.76-3.87,2-5.279   c1.24,1.409,2,3.26,2,5.279s-0.76,3.87-2,5.28C14.76,19.87,14,18.02,14,16z M22,24c-1.67,0-3.22-0.52-4.5-1.4   C19.06,20.84,20,18.53,20,16c0-2.529-0.94-4.84-2.5-6.6C18.78,8.52,20.33,8,22,8c4.41,0,8,3.59,8,8S26.41,24,22,24z"/>
</g>
</svg>
