<?xml version="1.0" encoding="utf-8"?>
<!-- Generator: Adobe Illustrator 16.0.0, SVG Export Plug-In . SVG Version: 6.00 Build 0)  -->
<!DOCTYPE svg PUBLIC "-//W3C//DTD SVG 1.1//EN" "http://www.w3.org/Graphics/SVG/1.1/DTD/svg11.dtd">
<svg xmlns="http://www.w3.org/2000/svg" xmlns:xlink="http://www.w3.org/1999/xlink" version="1.1" id="Capa_1" x="0px" y="0px" width="32px" height="32px" viewBox="0 0 32 32" enable-background="new 0 0 32 32" xml:space="preserve">
<g>
	<g>
		<path d="M7,0C1.46,0,0,5.89,0,9v23h8v-4h2v4h6V0H7z M14,30h-2v-4H6v4H2V9c0-0.28,0.08-7,5-7h7V30z"/>
	</g>
</g>
<g>
	<g>
		<rect x="10" y="18" width="2" height="2"/>
	</g>
</g>
<g>
	<g>
		<rect x="10" y="14" width="2" height="2"/>
	</g>
</g>
<g>
	<g>
		<rect x="10" y="10" width="2" height="2"/>
	</g>
</g>
<g>
	<g>
		<rect x="10" y="6" width="2" height="2"/>
	</g>
</g>
<g>
	<g>
		<rect x="6" y="18" width="2" height="2"/>
	</g>
</g>
<g>
	<g>
		<rect x="6" y="14" width="2" height="2"/>
	</g>
</g>
<g>
	<g>
		<rect x="6" y="10" width="2" height="2"/>
	</g>
</g>
<g>
	<g>
		<rect x="6" y="6" width="2" height="2"/>
	</g>
</g>
<g>
	<g>
		<path d="M14,0v32h6v-4h2v4h8V9c0-3.11-1.46-9-7-9H14z M16,2h7c4.92,0,5,6.72,5,7v21h-4v-4h-6v4h-2V2z"/>
	</g>
</g>
<g>
	<g>
		<rect x="18" y="18" width="2" height="2"/>
	</g>
</g>
<g>
	<g>
		<rect x="18" y="14" width="2" height="2"/>
	</g>
</g>
<g>
	<g>
		<rect x="18" y="10" width="2" height="2"/>
	</g>
</g>
<g>
	<g>
		<rect x="18" y="6" width="2" height="2"/>
	</g>
</g>
<g>
	<g>
		<rect x="22" y="18" width="2" height="2"/>
	</g>
</g>
<g>
	<g>
		<rect x="22" y="14" width="2" height="2"/>
	</g>
</g>
<g>
	<g>
		<rect x="22" y="10" width="2" height="2"/>
	</g>
</g>
<g>
	<g>
		<rect x="22" y="6" width="2" height="2"/>
	</g>
</g>
</svg>
