<?xml version="1.0" encoding="utf-8"?>
<!-- Generator: Adobe Illustrator 16.0.0, SVG Export Plug-In . SVG Version: 6.00 Build 0)  -->
<!DOCTYPE svg PUBLIC "-//W3C//DTD SVG 1.1//EN" "http://www.w3.org/Graphics/SVG/1.1/DTD/svg11.dtd">
<svg xmlns="http://www.w3.org/2000/svg" xmlns:xlink="http://www.w3.org/1999/xlink" version="1.1" id="Capa_1" x="0px" y="0px" width="32px" height="32px" viewBox="0 0 32 32" enable-background="new 0 0 32 32" xml:space="preserve">
<g>
	<g>
		<path d="M0,0v32h8v-4h2v4h10v-4h2v4h8V0H0z M14,30h-2v-4H6v4H2V20h8v-2H2v-4h8v-2H2V8h8V6H2V2h12V30z M28,6h-8v2h8v4h-8v2h8v4h-8    v2h8v10h-4v-4h-6v4h-2V2h12V6z"/>
	</g>
</g>
</svg>
