<?xml version="1.0" encoding="utf-8"?>
<!-- Generator: Adobe Illustrator 16.0.0, SVG Export Plug-In . SVG Version: 6.00 Build 0)  -->
<!DOCTYPE svg PUBLIC "-//W3C//DTD SVG 1.1//EN" "http://www.w3.org/Graphics/SVG/1.1/DTD/svg11.dtd">
<svg xmlns="http://www.w3.org/2000/svg" xmlns:xlink="http://www.w3.org/1999/xlink" version="1.1" id="Capa_1" x="0px" y="0px" width="32px" height="32px" viewBox="0 0 32 32" enable-background="new 0 0 32 32" xml:space="preserve">
<path d="M18,4c0,0,0.003,11.985,0,12H9.395L6,18.263V16H2C1.987,15.999,2,4,2,4 M18,2H2C0,2,0,4,0,4v12c0,2,2,2,2,2h2v4l6-4h8  c2,0,2-2,2-2V4C20,2,18,2,18,2L18,2z"/>
<path d="M30,12h-8v2c0,0,8-0.01,8,0v12h-4v2.26L22.61,26H14c-0.01-0.02,0-6,0-6h-2v6c0,0,0,2,2,2h8l6,4v-4h2c0,0,2,0,2-2V14  C32,14,32,12,30,12z"/>
</svg>
