<?xml version="1.0" encoding="utf-8"?>
<!-- Generator: Adobe Illustrator 16.0.0, SVG Export Plug-In . SVG Version: 6.00 Build 0)  -->
<!DOCTYPE svg PUBLIC "-//W3C//DTD SVG 1.1//EN" "http://www.w3.org/Graphics/SVG/1.1/DTD/svg11.dtd">
<svg xmlns="http://www.w3.org/2000/svg" xmlns:xlink="http://www.w3.org/1999/xlink" version="1.1" id="Capa_1" x="0px" y="0px" width="32px" height="32px" viewBox="0 0 32 32" enable-background="new 0 0 32 32" xml:space="preserve">
<g>
	<path d="M25,0H7C4.8,0,4,1.79,4,3v26c0,2.2,1.79,3,3,3h18c2.2,0,3-1.79,3-3V3C28,0.8,26.21,0,25,0z M26,29c0,0,0,1-1,1H7.01   c0,0-1.01,0-1.01-1v-1h20V29z M26,26H6V6h20V26z M26,4H6V3.01C6,3.01,6,2,7,2h17.99c0,0,1.01,0,1.01,1V4z"/>
</g>
<g>
	<path d="M22,16c0-1.29-0.41-2.49-1.11-3.47l2.82-2.82l-1.42-1.42l-2.82,2.82C18.49,10.41,17.29,10,16,10s-2.49,0.41-3.47,1.11   L9.71,8.29L8.29,9.71l2.82,2.82C10.41,13.51,10,14.71,10,16s0.41,2.49,1.11,3.47l-2.82,2.82l1.42,1.42l2.82-2.82   C13.51,21.59,14.71,22,16,22s2.49-0.41,3.47-1.11l2.82,2.82l1.42-1.42l-2.82-2.82C21.59,18.49,22,17.29,22,16z M16,20   c-2.21,0-4-1.79-4-4s1.79-4,4-4s4,1.79,4,4S18.21,20,16,20z"/>
</g>
</svg>
