<?xml version="1.0" encoding="utf-8"?>
<!-- Generator: Adobe Illustrator 16.0.0, SVG Export Plug-In . SVG Version: 6.00 Build 0)  -->
<!DOCTYPE svg PUBLIC "-//W3C//DTD SVG 1.1//EN" "http://www.w3.org/Graphics/SVG/1.1/DTD/svg11.dtd">
<svg xmlns="http://www.w3.org/2000/svg" xmlns:xlink="http://www.w3.org/1999/xlink" version="1.1" id="Capa_1" x="0px" y="0px" width="32px" height="32px" viewBox="0 0 32 32" enable-background="new 0 0 32 32" xml:space="preserve">
<g>
	<path d="M18,18l-3,3l-3-3c-8,0-8,14-8,14h22C26,32,26,18,18,18z M11.24,20.07L15,23.83l3.76-3.76c3.71,0.72,4.8,6.72,5.11,9.93   H6.12C6.43,26.79,7.51,20.79,11.24,20.07z"/>
</g>
<g>
	<path d="M22,10c0,4.42-3.13,8-7,8s-7-3.58-7-8h2c0,3.31,2.24,6,5,6s5-2.69,5-6H22z"/>
</g>
<g>
	<polygon points="19.71,7.71 15,12.41 10.29,7.71 11.71,6.29 14,8.59 14,0 16,0 16,8.59 18.29,6.29  "/>
</g>
</svg>
