<?xml version="1.0" encoding="utf-8"?>
<!-- Generator: Adobe Illustrator 16.0.0, SVG Export Plug-In . SVG Version: 6.00 Build 0)  -->
<!DOCTYPE svg PUBLIC "-//W3C//DTD SVG 1.1//EN" "http://www.w3.org/Graphics/SVG/1.1/DTD/svg11.dtd">
<svg xmlns="http://www.w3.org/2000/svg" xmlns:xlink="http://www.w3.org/1999/xlink" version="1.1" id="Capa_1" x="0px" y="0px" width="32px" height="32px" viewBox="0 0 32 32" enable-background="new 0 0 32 32" xml:space="preserve">
<g>
	<path d="M6.59,6L0,12.59v8.82L6.59,28H32V6H6.59z M8,26H7.41L2,20.59v-7.18L7.41,8H8V26z M30,26H10V8h20V26z"/>
</g>
<g>
	<path d="M15,10c-1.66,0-3,1.34-3,3s1.34,3,3,3s3-1.34,3-3S16.66,10,15,10z M15,14c-0.55,0-1-0.45-1-1s0.45-1,1-1s1,0.45,1,1   S15.55,14,15,14z"/>
</g>
<g>
	<path d="M25,18c-1.66,0-3,1.34-3,3s1.34,3,3,3s3-1.34,3-3S26.66,18,25,18z M25,22c-0.55,0-1-0.45-1-1s0.45-1,1-1s1,0.45,1,1   S25.55,22,25,22z"/>
</g>
<g>
	<rect x="12.19" y="15.999" transform="matrix(0.6402 -0.7682 0.7682 0.6402 -5.8637 21.4813)" width="15.62" height="2.002"/>
</g>
</svg>
