<?xml version="1.0" encoding="utf-8"?>
<!-- Generator: Adobe Illustrator 16.0.0, SVG Export Plug-In . SVG Version: 6.00 Build 0)  -->
<!DOCTYPE svg PUBLIC "-//W3C//DTD SVG 1.1//EN" "http://www.w3.org/Graphics/SVG/1.1/DTD/svg11.dtd">
<svg xmlns="http://www.w3.org/2000/svg" xmlns:xlink="http://www.w3.org/1999/xlink" version="1.1" id="Capa_1" x="0px" y="0px" width="32px" height="32px" viewBox="0 0 32 32" enable-background="new 0 0 32 32" xml:space="preserve">
<g>
	<path d="M15,2C6.72,2,0,8.72,0,17c0,8.28,6.72,15,15,15c8.28,0,15-6.72,15-15C30,8.72,23.28,2,15,2z M2,17C2,9.83,7.83,4,15,4   c3.05,0,5.88,1.06,8.1,2.84L2.01,17.38C2,17.25,2,17.13,2,17z M2.24,19.5L24.65,8.29c1.55,1.72,2.649,3.85,3.109,6.21L5.35,25.71   C3.8,23.99,2.7,21.86,2.24,19.5z M15,30c-3.05,0-5.88-1.06-8.1-2.84l21.09-10.54C28,16.75,28,16.87,28,17C28,24.17,22.17,30,15,30z   "/>
</g>
<g>
	<polygon points="23.45,13.89 7.45,21.89 6.55,20.11 22.55,12.11  "/>
</g>
</svg>
