<?xml version="1.0" encoding="utf-8"?>
<!-- Generator: Adobe Illustrator 16.0.0, SVG Export Plug-In . SVG Version: 6.00 Build 0)  -->
<!DOCTYPE svg PUBLIC "-//W3C//DTD SVG 1.1//EN" "http://www.w3.org/Graphics/SVG/1.1/DTD/svg11.dtd">
<svg xmlns="http://www.w3.org/2000/svg" xmlns:xlink="http://www.w3.org/1999/xlink" version="1.1" id="Capa_1" x="0px" y="0px" width="32px" height="32px" viewBox="0 0 32 32" enable-background="new 0 0 32 32" xml:space="preserve">
<g>
	<path d="M30,2V0H2v2h2v28H2v2h28v-2h-2V2H30z M26,30H6v-2h20V30z M26,26H6V6h20V26z M26,4H6V2h20V4z"/>
</g>
<g>
	<path d="M16.62,8.22c-0.36-0.29-0.88-0.29-1.24,0C15.16,8.39,10,12.59,10,19c0,3.96,3.92,5,6,5s6-1.04,6-5   C22,12.59,16.84,8.39,16.62,8.22z M16,22c-0.18,0-4-0.04-4-3c0-4.2,2.74-7.4,4-8.65c1.27,1.25,4,4.43,4,8.65   C20,21.93,16.19,22,16,22z"/>
</g>
</svg>
