<?xml version="1.0" encoding="utf-8"?>
<!-- Generator: Adobe Illustrator 16.0.0, SVG Export Plug-In . SVG Version: 6.00 Build 0)  -->
<!DOCTYPE svg PUBLIC "-//W3C//DTD SVG 1.1//EN" "http://www.w3.org/Graphics/SVG/1.1/DTD/svg11.dtd">
<svg xmlns="http://www.w3.org/2000/svg" xmlns:xlink="http://www.w3.org/1999/xlink" version="1.1" id="Capa_1" x="0px" y="0px" width="32px" height="32px" viewBox="0 0 32 32" enable-background="new 0 0 32 32" xml:space="preserve">
<g>
	<path d="M15.007,3.067C18.428,7.223,24,15.21,24,21c0,8.677-8.086,8.992-8.992,9C14.086,29.992,6,29.677,6,21   C6,14.766,12.124,6.577,15.007,3.067 M15,0C15,0,4,12,4,21c0,11,11,11,11,11s11,0,11-11C26,12,15,0,15,0L15,0z"/>
</g>
<g>
	<path d="M13.001,28c-0.081,0-0.162-0.01-0.244-0.03C11.112,27.559,8,25.572,8,21c0-5.243,2.08-8.422,2.168-8.555   c0.306-0.459,0.927-0.585,1.387-0.277c0.459,0.306,0.583,0.927,0.277,1.387C11.815,13.58,10,16.398,10,21   c0,4.171,3.21,5.021,3.243,5.03c0.536,0.134,0.861,0.677,0.728,1.212C13.856,27.697,13.449,28,13.001,28z"/>
</g>
</svg>
