<?xml version="1.0" encoding="utf-8"?>
<!-- Generator: Adobe Illustrator 16.0.0, SVG Export Plug-In . SVG Version: 6.00 Build 0)  -->
<!DOCTYPE svg PUBLIC "-//W3C//DTD SVG 1.1//EN" "http://www.w3.org/Graphics/SVG/1.1/DTD/svg11.dtd">
<svg xmlns="http://www.w3.org/2000/svg" xmlns:xlink="http://www.w3.org/1999/xlink" version="1.1" id="Capa_1" x="0px" y="0px" width="32px" height="32px" viewBox="0 0 32 32" enable-background="new 0 0 32 32" xml:space="preserve">
<g>
	<path d="M24,24v-4h-8v-2h6v-8h-6V8h6V0H8v8h6v2H8v8h6v2H6v4H2v8h10v-8H8v-2h14v2h-4v8h10v-8H24z M10,26v4H4v-4H10z M10,6V2h10v4H10   z M10,16v-4h10v4H10z M26,30h-6v-4h6V30z"/>
</g>
</svg>
