<?xml version="1.0" encoding="utf-8"?>
<!-- Generator: Adobe Illustrator 16.0.0, SVG Export Plug-In . SVG Version: 6.00 Build 0)  -->
<!DOCTYPE svg PUBLIC "-//W3C//DTD SVG 1.1//EN" "http://www.w3.org/Graphics/SVG/1.1/DTD/svg11.dtd">
<svg xmlns="http://www.w3.org/2000/svg" xmlns:xlink="http://www.w3.org/1999/xlink" version="1.1" id="Capa_1" x="0px" y="0px" width="32px" height="32px" viewBox="0 0 32 32" enable-background="new 0 0 32 32" xml:space="preserve">
<g>
	<g>
		<rect x="12" y="18" width="2" height="2"/>
	</g>
</g>
<g>
	<g>
		<rect x="8" y="14" width="2" height="2"/>
	</g>
</g>
<g>
	<g>
		<rect x="8" y="6" width="2" height="2"/>
	</g>
</g>
<g>
	<path d="M32,20V6H22V0H9C3.46,0,2,5.89,2,9v21H0v2h24v-2h-2V20H32z M14,30h-4v-4h4V30z M20,30h-4v-6H8v6H4V9c0-0.28,0.08-7,5-7h11   v4h-4v14h4V30z M18,18V8h12v2h-8v2h8v2h-8v2h8v2H18z"/>
	<rect x="8" y="18" width="2" height="2"/>
	<rect x="12" y="14" width="2" height="2"/>
	<rect x="12" y="10" width="2" height="2"/>
	<rect x="8" y="10" width="2" height="2"/>
	<rect x="12" y="6" width="2" height="2"/>
</g>
</svg>
