<?xml version="1.0" encoding="utf-8"?>
<!-- Generator: Adobe Illustrator 16.0.0, SVG Export Plug-In . SVG Version: 6.00 Build 0)  -->
<!DOCTYPE svg PUBLIC "-//W3C//DTD SVG 1.1//EN" "http://www.w3.org/Graphics/SVG/1.1/DTD/svg11.dtd">
<svg xmlns="http://www.w3.org/2000/svg" xmlns:xlink="http://www.w3.org/1999/xlink" version="1.1" id="Capa_1" x="0px" y="0px" width="32px" height="32px" viewBox="0 0 32 32" enable-background="new 0 0 32 32" xml:space="preserve">
<path d="M0,6v22h32V6H0z M30,26H2V8h28V26z"/>
<path d="M9,10c-2.76,0-5,2.24-5,5s2.24,5,5,5s5-2.24,5-5S11.76,10,9,10z M9,18c-1.65,0-3-1.35-3-3s1.35-3,3-3s3,1.35,3,3  S10.65,18,9,18z"/>
<rect x="16" y="22" width="12" height="2"/>
<rect x="20" y="18" width="8" height="2"/>
</svg>
