<?xml version="1.0" encoding="utf-8"?>
<!-- Generator: Adobe Illustrator 16.0.0, SVG Export Plug-In . SVG Version: 6.00 Build 0)  -->
<!DOCTYPE svg PUBLIC "-//W3C//DTD SVG 1.1//EN" "http://www.w3.org/Graphics/SVG/1.1/DTD/svg11.dtd">
<svg xmlns="http://www.w3.org/2000/svg" xmlns:xlink="http://www.w3.org/1999/xlink" version="1.1" id="Capa_1" x="0px" y="0px" width="32px" height="32px" viewBox="0 0 32 32" enable-background="new 0 0 32 32" xml:space="preserve">
<g>
	<path d="M21.45,9.11C20.36,8.56,20,6.1,20,5V4h-6v1c0,1.1-0.35,3.56-1.45,4.11C10.03,10.37,10,12.89,10,13v16c0,2.2,1.79,3,3,3h8   c1.21,0,3-0.8,3-3V13C24,12.89,23.97,10.37,21.45,9.11z M22,29c0,0.8-0.55,0.99-1.01,1h-7.98C12.55,29.99,12,29.81,12,29v-3h10V29z    M22,24H12v-8h10V24z M22,14H12v-1c0-0.01,0.02-1.39,1.45-2.11C15.28,9.98,15.86,7.44,16,6h2c0.14,1.44,0.71,3.98,2.55,4.89   C21.95,11.59,22,12.95,22,13V14z"/>
</g>
<g>
	<rect x="14" width="6" height="2"/>
</g>
</svg>
