<?xml version="1.0" encoding="utf-8"?>
<!-- Generator: Adobe Illustrator 16.0.0, SVG Export Plug-In . SVG Version: 6.00 Build 0)  -->
<!DOCTYPE svg PUBLIC "-//W3C//DTD SVG 1.1//EN" "http://www.w3.org/Graphics/SVG/1.1/DTD/svg11.dtd">
<svg xmlns="http://www.w3.org/2000/svg" xmlns:xlink="http://www.w3.org/1999/xlink" version="1.1" id="Capa_1" x="0px" y="0px" width="32px" height="32px" viewBox="0 0 32 32" enable-background="new 0 0 32 32" xml:space="preserve">
<g>
	<g>
		<path d="M30,6V4H0v2h2v16H0v2h5.72l-1.69,6.76l1.94,0.48L6.78,28h16.44l0.811,3.24l1.939-0.48L24.28,24H30v-2h-2V6H30z M7.28,26    l0.5-2h14.44l0.5,2H7.28z M26,22H4V6h22V22z"/>
	</g>
</g>
<g>
	<g>
		<rect x="12" width="6" height="2"/>
	</g>
</g>
<g>
	<polygon points="24,18 24,20 6,20 6,8 8,8 8,14.58 10.8,11.78 14.8,13.78 20.29,8.29 21.71,9.71 15.2,16.22 11.2,14.22 8,17.42    8,18  "/>
</g>
</svg>
