<?xml version="1.0" encoding="utf-8"?>
<!-- Generator: Adobe Illustrator 16.0.0, SVG Export Plug-In . SVG Version: 6.00 Build 0)  -->
<!DOCTYPE svg PUBLIC "-//W3C//DTD SVG 1.1//EN" "http://www.w3.org/Graphics/SVG/1.1/DTD/svg11.dtd">
<svg xmlns="http://www.w3.org/2000/svg" xmlns:xlink="http://www.w3.org/1999/xlink" version="1.1" id="Capa_1" x="0px" y="0px" width="32px" height="32px" viewBox="0 0 32 32" enable-background="new 0 0 32 32" xml:space="preserve">
<g>
	<path d="M18,10v2h6v-2H18z M18,14v2h6v-2H18z M18,10v2h6v-2H18z M18,14v2h6v-2H18z"/>
	<path d="M30,6V4H0v2h2v16H0v2h5.72l-1.69,6.76l1.94,0.48L6.78,28h16.44l0.811,3.24l1.939-0.48L24.28,24H30v-2h-2V6H30z M7.28,26   l0.5-2h14.44l0.5,2H7.28z M26,22H4V6h22V22z"/>
</g>
<g>
	<rect x="12" width="6" height="2"/>
</g>
<path d="M6,8v12h10V8H6z M14,18H8v-8h6V18z"/>
<rect x="18" y="10" width="6" height="2"/>
<rect x="18" y="14" width="6" height="2"/>
</svg>
