<?xml version="1.0" encoding="utf-8"?>
<!-- Generator: Adobe Illustrator 16.0.0, SVG Export Plug-In . SVG Version: 6.00 Build 0)  -->
<!DOCTYPE svg PUBLIC "-//W3C//DTD SVG 1.1//EN" "http://www.w3.org/Graphics/SVG/1.1/DTD/svg11.dtd">
<svg xmlns="http://www.w3.org/2000/svg" xmlns:xlink="http://www.w3.org/1999/xlink" version="1.1" id="Capa_1" x="0px" y="0px" width="32px" height="32px" viewBox="0 0 32 32" enable-background="new 0 0 32 32" xml:space="preserve">
<g>
	<path d="M30,12v-1c0-1.73-1.04-5-5-5s-5,3.27-5,5v1h-2v10h14V12H30z M22,11.01C22.01,10.5,22.18,8,25,8s2.99,2.5,3,3v1h-6V11.01z    M30,20H20v-6h10V20z"/>
</g>
<g>
	<polygon points="22,4 22,2 4,2 4,30 8,30 8,24 18,24 18,30 22,30 22,24 24,24 24,32 16,32 16,26 10,26 10,32 2,32 2,0 24,0 24,4     "/>
	<rect x="8" y="18" width="8" height="2"/>
	<rect x="8" y="6" width="10" height="2"/>
	<rect x="8" y="12" width="8" height="2"/>
</g>
</svg>
