<?xml version="1.0" encoding="utf-8"?>
<!-- Generator: Adobe Illustrator 16.0.0, SVG Export Plug-In . SVG Version: 6.00 Build 0)  -->
<!DOCTYPE svg PUBLIC "-//W3C//DTD SVG 1.1//EN" "http://www.w3.org/Graphics/SVG/1.1/DTD/svg11.dtd">
<svg xmlns="http://www.w3.org/2000/svg" xmlns:xlink="http://www.w3.org/1999/xlink" version="1.1" id="Capa_1" x="0px" y="0px" width="32px" height="32px" viewBox="0 0 32 32" enable-background="new 0 0 32 32" xml:space="preserve">
<g>
	<g>
		<path d="M24,30v-6h-2v6h-4v-6h-8v6H6V9c0-0.28,0.08-7,5-7h11v2h2V0H11C5.46,0,4,5.89,4,9v21H2v2h24v-2H24z M16,30h-4v-4h4V30z"/>
	</g>
</g>
<g>
	<g>
		<rect x="10" y="18" width="2" height="2"/>
	</g>
</g>
<g>
	<g>
		<rect x="10" y="14" width="2" height="2"/>
	</g>
</g>
<g>
	<g>
		<rect x="10" y="10" width="2" height="2"/>
	</g>
</g>
<g>
	<g>
		<rect x="10" y="6" width="2" height="2"/>
	</g>
</g>
<g>
	<g>
		<rect x="14" y="6" width="2" height="2"/>
	</g>
</g>
<g>
	<g>
		<rect x="14" y="10" width="2" height="2"/>
	</g>
</g>
<g>
	<g>
		<rect x="14" y="14" width="2" height="2"/>
	</g>
</g>
<g>
	<g>
		<rect x="14" y="18" width="2" height="2"/>
	</g>
</g>
<g>
	<path d="M30,12v-1c0-1.73-1.04-5-5-5s-5,3.27-5,5v1h-2v10h14V12H30z M22,11.01C22.01,10.5,22.18,8,25,8s2.99,2.5,3,3v1h-6V11.01z    M30,20H20v-6h10V20z"/>
</g>
</svg>
