<?xml version="1.0" encoding="utf-8"?>
<!-- Generator: Adobe Illustrator 16.0.0, SVG Export Plug-In . SVG Version: 6.00 Build 0)  -->
<!DOCTYPE svg PUBLIC "-//W3C//DTD SVG 1.1//EN" "http://www.w3.org/Graphics/SVG/1.1/DTD/svg11.dtd">
<svg xmlns="http://www.w3.org/2000/svg" xmlns:xlink="http://www.w3.org/1999/xlink" version="1.1" id="Capa_1" x="0px" y="0px" width="32px" height="32px" viewBox="0 0 32 32" enable-background="new 0 0 32 32" xml:space="preserve">
<g>
	<circle cx="5" cy="21" r="1"/>
</g>
<g>
	<path d="M19.83,10C19.4,8.54,17.96,6,13,6s-6.4,2.54-6.83,4H0v16h4v2h4v-2h16v2h4v-2h4V10H19.83z M30,24H14v-2.1   c1.96-0.4,3.5-1.94,3.9-3.9H20v-2h-2.1c-0.4-1.96-1.94-3.5-3.9-3.9V10h-2v2.1c-1.96,0.4-3.5,1.94-3.9,3.9H6v2h2.1   c0.4,1.96,1.94,3.5,3.9,3.9V24H2V12h5l0.97-0.01L8,11.01C8.01,10.7,8.22,8,13,8c4.78,0,4.99,2.7,5,3v1h12V24z M13,20   c-1.65,0-3-1.35-3-3c0-1.65,1.35-3,3-3s3,1.35,3,3C16,18.65,14.65,20,13,20z"/>
	<rect x="22" y="20" width="6" height="2"/>
	<rect x="22" y="16" width="6" height="2"/>
</g>
</svg>
