<?xml version="1.0" encoding="utf-8"?>
<!-- Generator: Adobe Illustrator 16.0.0, SVG Export Plug-In . SVG Version: 6.00 Build 0)  -->
<!DOCTYPE svg PUBLIC "-//W3C//DTD SVG 1.1//EN" "http://www.w3.org/Graphics/SVG/1.1/DTD/svg11.dtd">
<svg xmlns="http://www.w3.org/2000/svg" xmlns:xlink="http://www.w3.org/1999/xlink" version="1.1" id="Capa_1" x="0px" y="0px" width="32px" height="32px" viewBox="0 0 32 32" enable-background="new 0 0 32 32" xml:space="preserve">
<g>
	<path d="M24,30v-8h-2v8h-4v-6h-8v6H6V9c0-0.279,0.08-7,5-7h11v2h2V0H11C5.46,0,4,5.891,4,9v21H2v2h24v-2H24z M16,30h-4v-4h4V30z"/>
</g>
<g>
	<rect x="10" y="18" width="2" height="2"/>
</g>
<g>
	<rect x="10" y="14" width="2" height="2"/>
</g>
<g>
	<rect x="10" y="10" width="2" height="2"/>
</g>
<g>
	<rect x="10" y="6" width="2" height="2"/>
</g>
<g>
	<rect x="14" y="6" width="2" height="2"/>
</g>
<g>
	<rect x="14" y="10" width="2" height="2"/>
</g>
<g>
	<rect x="14" y="14" width="2" height="2"/>
</g>
<g>
	<rect x="14" y="18" width="2" height="2"/>
</g>
<g>
	<path d="M28.87,12.79C29.57,12.07,30,11.08,30,10c0-2.21-1.79-4-4-4s-4,1.79-4,4c0,1.08,0.43,2.07,1.13,2.79   C21.49,13.71,20,15.58,20,19v1h12v-1C32,15.58,30.51,13.71,28.87,12.79z M26,8c1.1,0,2,0.9,2,2s-0.9,2-2,2s-2-0.9-2-2S24.9,8,26,8z    M22.06,18c0.46-3.84,3.57-4,3.931-4c0,0,0,0,0.01,0c0.4,0,3.48,0.18,3.94,4H22.06z"/>
</g>
</svg>
