<?xml version="1.0" encoding="utf-8"?>
<!-- Generator: Adobe Illustrator 16.0.0, SVG Export Plug-In . SVG Version: 6.00 Build 0)  -->
<!DOCTYPE svg PUBLIC "-//W3C//DTD SVG 1.1//EN" "http://www.w3.org/Graphics/SVG/1.1/DTD/svg11.dtd">
<svg xmlns="http://www.w3.org/2000/svg" xmlns:xlink="http://www.w3.org/1999/xlink" version="1.1" id="Capa_1" x="0px" y="0px" width="32px" height="32px" viewBox="0 0 32 32" enable-background="new 0 0 32 32" xml:space="preserve">
<g>
	<path d="M28.87,24.79C29.57,24.07,30,23.08,30,22c0-2.21-1.79-4-4-4s-4,1.79-4,4c0,1.08,0.43,2.07,1.13,2.79   c-1.47,0.83-2.82,2.42-3.09,5.21H18v-6H8v6H4V2h14V0H2v32h8v-6h6v6h16v-1C32,27.58,30.51,25.71,28.87,24.79z M26,20   c1.1,0,2,0.9,2,2s-0.9,2-2,2s-2-0.9-2-2S24.9,20,26,20z M22.06,30c0.46-3.84,3.57-4,3.931-4c0,0,0,0,0.01,0c0.4,0,3.48,0.18,3.94,4   H22.06z"/>
</g>
<g>
	<path d="M30,6V5c0-1.73-1.04-5-5-5s-5,3.27-5,5v1h-2v10h14V6H30z M22,5.01C22.01,4.5,22.18,2,25,2s2.99,2.5,3,3v1h-6V5.01z M30,14   H20V8h10V14z"/>
</g>
<g>
	<path d="M8,6v2h8V6H8z M8,18v2h8v-2H8z"/>
	<rect x="8" y="12" width="8" height="2"/>
</g>
</svg>
