<?xml version="1.0" encoding="utf-8"?>
<!-- Generator: Adobe Illustrator 16.0.0, SVG Export Plug-In . SVG Version: 6.00 Build 0)  -->
<!DOCTYPE svg PUBLIC "-//W3C//DTD SVG 1.1//EN" "http://www.w3.org/Graphics/SVG/1.1/DTD/svg11.dtd">
<svg xmlns="http://www.w3.org/2000/svg" xmlns:xlink="http://www.w3.org/1999/xlink" version="1.1" id="Capa_1" x="0px" y="0px" width="32px" height="32px" viewBox="0 0 32 32" enable-background="new 0 0 32 32" xml:space="preserve">
<g>
	<rect y="30" width="30" height="2"/>
</g>
<g>
	<path d="M25.65,26C25,21.86,23.18,16,18,16l-3,3l-3-3c-5.18,0-7,5.86-7.65,10H0v2h30v-2H25.65z M6.38,26   c0.54-3.24,1.82-7.34,4.86-7.93L15,21.83l3.76-3.76c3.03,0.59,4.311,4.689,4.851,7.93H6.38z"/>
</g>
<g>
	<path d="M15,0c-3.87,0-7,3.58-7,8s3.13,8,7,8s7-3.58,7-8S18.87,0,15,0z M15,14c-2.76,0-5-2.69-5-6s2.24-6,5-6s5,2.69,5,6   S17.76,14,15,14z"/>
</g>
</svg>
