<?xml version="1.0" encoding="utf-8"?>
<!-- Generator: Adobe Illustrator 16.0.0, SVG Export Plug-In . SVG Version: 6.00 Build 0)  -->
<!DOCTYPE svg PUBLIC "-//W3C//DTD SVG 1.1//EN" "http://www.w3.org/Graphics/SVG/1.1/DTD/svg11.dtd">
<svg xmlns="http://www.w3.org/2000/svg" xmlns:xlink="http://www.w3.org/1999/xlink" version="1.1" id="Capa_1" x="0px" y="0px" width="32px" height="32px" viewBox="0 0 32 32" enable-background="new 0 0 32 32" xml:space="preserve">
<g>
	<path d="M15,2C6.73,2,0,8.73,0,17c0,8.27,6.73,15,15,15c8.27,0,15-6.73,15-15C30,8.73,23.27,2,15,2z M15,30C7.82,30,2,24.18,2,17   C2,9.82,7.82,4,15,4c7.18,0,13,5.82,13,13C28,24.18,22.18,30,15,30z"/>
</g>
<g>
	<path d="M22,13c0-3.96-3.27-5-5-5h-7v18h2v-8h4c3.88,0,4,7.92,4,8h2c0-0.31-0.04-5.88-2.63-8.56C20.74,16.79,22,15.46,22,13z    M17,16h-5v-6h4.99C17.5,10.01,20,10.18,20,13S17.5,15.99,17,16z"/>
</g>
</svg>
