<?xml version="1.0" encoding="utf-8"?>
<!-- Generator: Adobe Illustrator 16.0.0, SVG Export Plug-In . SVG Version: 6.00 Build 0)  -->
<!DOCTYPE svg PUBLIC "-//W3C//DTD SVG 1.1//EN" "http://www.w3.org/Graphics/SVG/1.1/DTD/svg11.dtd">
<svg xmlns="http://www.w3.org/2000/svg" xmlns:xlink="http://www.w3.org/1999/xlink" version="1.1" id="Capa_1" x="0px" y="0px" width="32px" height="32px" viewBox="0 0 32 32" enable-background="new 0 0 32 32" xml:space="preserve">
<g>
	<rect x="12" y="22" width="14" height="2"/>
	<rect x="6" y="22" width="4" height="2"/>
	<rect x="12" y="18" width="14" height="2"/>
	<rect x="6" y="18" width="4" height="2"/>
</g>
<path d="M30,6H16l-2-2H2c0,0-2,0-2,2v22c0,0,0,2,2,2h28c0,0,2,0,2-2V8C32,8,32,6,30,6z M30,28H2V12h28V28z M30,10H2V6h11.17l2,2H30  V10z"/>
</svg>
