<?xml version="1.0" encoding="utf-8"?>
<!-- Generator: Adobe Illustrator 16.0.0, SVG Export Plug-In . SVG Version: 6.00 Build 0)  -->
<!DOCTYPE svg PUBLIC "-//W3C//DTD SVG 1.1//EN" "http://www.w3.org/Graphics/SVG/1.1/DTD/svg11.dtd">
<svg xmlns="http://www.w3.org/2000/svg" xmlns:xlink="http://www.w3.org/1999/xlink" version="1.1" id="Capa_1" x="0px" y="0px" width="32px" height="32px" viewBox="0 0 32 32" enable-background="new 0 0 32 32" xml:space="preserve">
<g>
	<path d="M21,0H4C2,0,2,2,2,2v27.96c0,2,2,2.04,2,2.04h22c2,0,2-2,2-2V7L21,0z M26,30H4C3.99,30,4,2,4,2c0-0.01,14,0,14,0v5   c0,1.21,0.8,3,3,3h5V30z M26,8h-5c-0.81,0-0.99-0.55-1-1V2h0.17L26,7.83V8z"/>
</g>
<rect x="6" y="16" width="4" height="2"/>
<rect x="12" y="16" width="12" height="2"/>
<rect x="6" y="12" width="4" height="2"/>
<rect x="12" y="12" width="12" height="2"/>
<rect x="6" y="20" width="4" height="2"/>
<rect x="12" y="20" width="12" height="2"/>
<rect x="6" y="24" width="4" height="2"/>
<rect x="12" y="24" width="12" height="2"/>
</svg>
