<?xml version="1.0" encoding="utf-8"?>
<!-- Generator: Adobe Illustrator 16.0.0, SVG Export Plug-In . SVG Version: 6.00 Build 0)  -->
<!DOCTYPE svg PUBLIC "-//W3C//DTD SVG 1.1//EN" "http://www.w3.org/Graphics/SVG/1.1/DTD/svg11.dtd">
<svg xmlns="http://www.w3.org/2000/svg" xmlns:xlink="http://www.w3.org/1999/xlink" version="1.1" id="Capa_1" x="0px" y="0px" width="32px" height="32px" viewBox="0 0 32 32" enable-background="new 0 0 32 32" xml:space="preserve">
<g>
	<path d="M22,12v8c0,0.16-0.05,4-4,4c-3.85,0-4-3.59-4-4V5c0-1.73-1.04-5-5-5S4,3.27,4,5v3H0v24h10V8H6V5.01C6.01,4.5,6.18,2,9,2   s2.99,2.5,3,3v15c0,2.08,1.25,6,6,6s6-3.92,6-6v-8H22z M8,10v20H2V10H8z"/>
</g>
<g>
	<rect x="16" y="12" width="4" height="2"/>
</g>
<g>
	<rect x="26" y="12" width="4" height="2"/>
</g>
<g>
	<rect x="22" y="6" width="2" height="4"/>
</g>
</svg>
