<?xml version="1.0" encoding="utf-8"?>
<!-- Generator: Adobe Illustrator 16.0.0, SVG Export Plug-In . SVG Version: 6.00 Build 0)  -->
<!DOCTYPE svg PUBLIC "-//W3C//DTD SVG 1.1//EN" "http://www.w3.org/Graphics/SVG/1.1/DTD/svg11.dtd">
<svg xmlns="http://www.w3.org/2000/svg" xmlns:xlink="http://www.w3.org/1999/xlink" version="1.1" id="Capa_1" x="0px" y="0px" width="32px" height="32px" viewBox="0 0 32 32" enable-background="new 0 0 32 32" xml:space="preserve">
<g>
	<path d="M22.87,21.46C24.82,19.19,26,16.23,26,13c0-7.18-5.82-13-13-13C5.82,0,0,5.82,0,13c0,7.18,5.82,13,13,13   c3.23,0,6.19-1.18,8.46-3.13l8.83,8.84l1.42-1.42L22.87,21.46z M13,24C6.93,24,2,19.07,2,13C2,6.93,6.93,2,13,2   c6.07,0,11,4.93,11,11C24,19.07,19.07,24,13,24z"/>
</g>
<g>
	<rect x="12" y="18" width="2" height="2"/>
</g>
<g>
	<rect x="12" y="6" width="2" height="10"/>
</g>
</svg>
