<?xml version="1.0" encoding="utf-8"?>
<!-- Generator: Adobe Illustrator 16.0.0, SVG Export Plug-In . SVG Version: 6.00 Build 0)  -->
<!DOCTYPE svg PUBLIC "-//W3C//DTD SVG 1.1//EN" "http://www.w3.org/Graphics/SVG/1.1/DTD/svg11.dtd">
<svg xmlns="http://www.w3.org/2000/svg" xmlns:xlink="http://www.w3.org/1999/xlink" version="1.1" id="Capa_1" x="0px" y="0px" width="32px" height="32px" viewBox="0 0 32 32" enable-background="new 0 0 32 32" xml:space="preserve">
<path d="M9,4c2.757,0,5,2.691,5,6s-2.243,6-5,6s-5-2.691-5-6S6.243,4,9,4 M9,2c-3.866,0-7,3.582-7,8s3.134,8,7,8s7-3.582,7-8  S12.866,2,9,2L9,2z"/>
<g>
	<path d="M32,18V8H18v10h6v12h-2v2h6v-2h-2V18H32z M20,16v-6h10v6H20z"/>
</g>
<g>
	<path d="M13.45,18.11l-0.65-0.33L9,21.59l-3.8-3.81l-0.65,0.33C0.13,20.32,0,29.91,0,31v1h18v-1C18,29.91,17.87,20.32,13.45,18.11z    M2.02,30c0.13-2.84,0.79-7.93,2.85-9.72L9,24.41l4.13-4.13c2.06,1.79,2.72,6.88,2.85,9.72H2.02z"/>
</g>
</svg>
