<?xml version="1.0" encoding="utf-8"?>
<!-- Generator: Adobe Illustrator 16.0.0, SVG Export Plug-In . SVG Version: 6.00 Build 0)  -->
<!DOCTYPE svg PUBLIC "-//W3C//DTD SVG 1.1//EN" "http://www.w3.org/Graphics/SVG/1.1/DTD/svg11.dtd">
<svg xmlns="http://www.w3.org/2000/svg" xmlns:xlink="http://www.w3.org/1999/xlink" version="1.1" id="Capa_1" x="0px" y="0px" width="32px" height="32px" viewBox="0 0 32 32" enable-background="new 0 0 32 32" xml:space="preserve">
<g>
	<path d="M30,20v-2h-6.04C23.35,9.28,15,0,15,0S6.65,9.28,6.04,18H0v2h6.05c0.05,0.73,0.17,1.4,0.35,2H2v2h5.28   c0.51,0.83,1.14,1.48,1.82,2H0v2h30v-2h-9.1c0.68-0.52,1.31-1.17,1.819-2H28v-2h-4.4c0.181-0.6,0.301-1.27,0.351-2H30z M15,26   c-0.72,0-7-0.2-7-7c0-5.98,4.57-12.69,7-15.84c2.43,3.15,7,9.86,7,15.84C22,25.74,15.71,25.99,15,26z"/>
</g>
<g>
	<rect x="2" y="30" width="26" height="2"/>
</g>
</svg>
