<?xml version="1.0" encoding="utf-8"?>
<!-- Generator: Adobe Illustrator 16.0.0, SVG Export Plug-In . SVG Version: 6.00 Build 0)  -->
<!DOCTYPE svg PUBLIC "-//W3C//DTD SVG 1.1//EN" "http://www.w3.org/Graphics/SVG/1.1/DTD/svg11.dtd">
<svg xmlns="http://www.w3.org/2000/svg" xmlns:xlink="http://www.w3.org/1999/xlink" version="1.1" id="Capa_1" x="0px" y="0px" width="32px" height="32px" viewBox="0 0 32 32" enable-background="new 0 0 32 32" xml:space="preserve">
<g>
	<path d="M15,32c-0.15,0-15-0.148-15-13C0,9.418,8.563,6.096,8.649,6.063c0.333-0.125,0.708-0.063,0.985,0.164   c0.276,0.227,0.41,0.583,0.353,0.936c-0.135,0.822-0.282,3.191,0.636,4.272C10.95,11.821,11.388,12,12,12   c1.278,0,2.176-1.261,2.59-2.44c0.792-2.259,0.438-5.657-2.214-7.779c-0.35-0.279-0.471-0.757-0.297-1.17   c0.174-0.412,0.599-0.659,1.045-0.603C13.293,0.029,30,2.276,30,16C30,26.317,24.673,32,15,32z M7.884,8.677   C5.735,9.963,2,13.053,2,19c0,10.846,12.469,10.999,13.001,11C23.626,29.999,28,25.289,28,16c0-8.837-7.928-12.221-12.312-13.417   c1.487,2.505,1.547,5.477,0.789,7.638C15.659,12.552,13.944,14,12,14c-1.194,0-2.199-0.44-2.905-1.274   C8.133,11.59,7.897,9.945,7.884,8.677z"/>
</g>
</svg>
