<?xml version="1.0" encoding="utf-8"?>
<!-- Generator: Adobe Illustrator 16.0.0, SVG Export Plug-In . SVG Version: 6.00 Build 0)  -->
<!DOCTYPE svg PUBLIC "-//W3C//DTD SVG 1.1//EN" "http://www.w3.org/Graphics/SVG/1.1/DTD/svg11.dtd">
<svg xmlns="http://www.w3.org/2000/svg" xmlns:xlink="http://www.w3.org/1999/xlink" version="1.1" id="Capa_1" x="0px" y="0px" width="32px" height="32px" viewBox="0 0 32 32" enable-background="new 0 0 32 32" xml:space="preserve">
<g>
	<path d="M18.93,7.99L13,8h5.95C18.94,7.99,18.94,7.99,18.93,7.99z"/>
	<path d="M20.44,6.63l3.39-5.08c0.21-0.3,0.229-0.7,0.05-1.02C23.71,0.2,23.37,0,23,0H9C8.63,0,8.29,0.2,8.12,0.53   C7.94,0.85,7.96,1.25,8.17,1.55l3.39,5.08C8.37,9.1,4,18.43,4,25c0,5.54,4.58,7,7,7h10c2.42,0,7-1.46,7-7   C28,18.43,23.63,9.1,20.44,6.63z M10.87,2h10.26l-2.67,4h-4.92L10.87,2z M21,30H11c-0.2,0-5-0.06-5-5c0-7.55,5.53-16.57,7-17   l5.93-0.01c0.011,0,0.011,0,0.021,0.01C20.51,8.5,26,17.48,26,25C26,29.82,21.52,30,21,30z"/>
</g>
</svg>
