<?xml version="1.0" encoding="utf-8"?>
<!-- Generator: Adobe Illustrator 16.0.0, SVG Export Plug-In . SVG Version: 6.00 Build 0)  -->
<!DOCTYPE svg PUBLIC "-//W3C//DTD SVG 1.1//EN" "http://www.w3.org/Graphics/SVG/1.1/DTD/svg11.dtd">
<svg xmlns="http://www.w3.org/2000/svg" xmlns:xlink="http://www.w3.org/1999/xlink" version="1.1" id="Capa_1" x="0px" y="0px" width="32px" height="32px" viewBox="0 0 32 32" enable-background="new 0 0 32 32" xml:space="preserve">
<g>
	<path d="M16,12V2H5C2.8,2,2,3.79,2,5v24c0,2.2,1.79,3,3,3h11V22h-6V12H16z M14,24v6H5.01C4.55,29.99,4,29.81,4,29V5.01   C4.01,4.55,4.19,4,5,4h9v6H8v14H14z"/>
</g>
<g>
	<path d="M19.001,22c-0.305,0-0.604-0.138-0.801-0.4c-0.331-0.44-0.242-1.064,0.196-1.396C18.433,20.175,20,18.936,20,17   c0-1.948-1.589-3.191-1.604-3.204c-0.437-0.335-0.522-0.961-0.189-1.399c0.331-0.438,0.954-0.527,1.394-0.197   c0.099,0.073,2.4,1.834,2.4,4.8s-2.302,4.727-2.4,4.8C19.42,21.935,19.21,22,19.001,22z"/>
</g>
<g>
	<path d="M23,24c-0.256,0-0.512-0.098-0.707-0.293c-0.39-0.389-0.391-1.02-0.004-1.41C22.375,22.207,24,20.472,24,17   c0-3.491-1.643-5.226-1.713-5.298c-0.382-0.395-0.377-1.026,0.014-1.412c0.394-0.387,1.019-0.384,1.406,0.003   C23.801,10.387,26,12.636,26,17s-2.199,6.613-2.293,6.707C23.512,23.902,23.256,24,23,24z"/>
</g>
<g>
	<path d="M27,26c-0.256,0-0.512-0.098-0.707-0.293c-0.387-0.387-0.391-1.012-0.011-1.403C26.338,24.241,28,22.336,28,17   c0-5.4-1.702-7.287-1.719-7.305c-0.372-0.399-0.362-1.029,0.03-1.408c0.391-0.379,1.009-0.381,1.396,0.006   C27.941,8.527,30,10.766,30,17s-2.059,8.473-2.293,8.707C27.512,25.902,27.256,26,27,26z"/>
</g>
</svg>
