<?xml version="1.0" encoding="utf-8"?>
<!-- Generator: Adobe Illustrator 16.0.0, SVG Export Plug-In . SVG Version: 6.00 Build 0)  -->
<!DOCTYPE svg PUBLIC "-//W3C//DTD SVG 1.1//EN" "http://www.w3.org/Graphics/SVG/1.1/DTD/svg11.dtd">
<svg xmlns="http://www.w3.org/2000/svg" xmlns:xlink="http://www.w3.org/1999/xlink" version="1.1" id="Capa_1" x="0px" y="0px" width="32px" height="32px" viewBox="0 0 32 32" enable-background="new 0 0 32 32" xml:space="preserve">
<g>
	<path d="M24,10V7c0-2.2-1.79-3-3-3H11C8.8,4,8,5.79,8,7v3H1.87l2.25,18h23.76l2.25-18H24z M10,7.01C10.01,6.55,10.19,6,11,6h9.99   C21.45,6.01,22,6.19,22,7v3H10V7.01z M26.12,26H5.88L4.63,16h22.74L26.12,26z M27.62,14H4.38l-0.25-2h23.74L27.62,14z"/>
</g>
</svg>
