<?xml version="1.0" encoding="utf-8"?>
<!-- Generator: Adobe Illustrator 16.0.0, SVG Export Plug-In . SVG Version: 6.00 Build 0)  -->
<!DOCTYPE svg PUBLIC "-//W3C//DTD SVG 1.1//EN" "http://www.w3.org/Graphics/SVG/1.1/DTD/svg11.dtd">
<svg xmlns="http://www.w3.org/2000/svg" xmlns:xlink="http://www.w3.org/1999/xlink" version="1.1" id="Capa_1" x="0px" y="0px" width="32px" height="32px" viewBox="0 0 32 32" enable-background="new 0 0 32 32" xml:space="preserve">
<g>
	<g>
		<path d="M26,30V0H13C7.46,0,6,5.89,6,9v21H4v2h24v-2H26z M18,30h-4v-4h4V30z M24,30h-4v-6h-8v6H8V9c0-0.28,0.08-7,5-7h11V30z"/>
	</g>
</g>
<g>
	<path d="M21.99,18.84c-0.04-0.22-0.73-4.15-3.23-5.95C19.53,12.17,20,11.14,20,10c0-2.21-1.79-4-4-4s-4,1.79-4,4   c0,1.14,0.47,2.17,1.24,2.89c-2.5,1.8-3.19,5.73-3.23,5.95L9.82,20h12.36L21.99,18.84z M16,8c1.1,0,2,0.9,2,2s-0.9,2-2,2   c-1.1,0-2-0.9-2-2S14.9,8,16,8z M12.29,18c0.47-1.52,1.58-4,3.71-4c2.16,0,3.25,2.48,3.72,4H12.29z"/>
</g>
</svg>
