<?xml version="1.0" encoding="utf-8"?>
<!-- Generator: Adobe Illustrator 16.0.0, SVG Export Plug-In . SVG Version: 6.00 Build 0)  -->
<!DOCTYPE svg PUBLIC "-//W3C//DTD SVG 1.1//EN" "http://www.w3.org/Graphics/SVG/1.1/DTD/svg11.dtd">
<svg xmlns="http://www.w3.org/2000/svg" xmlns:xlink="http://www.w3.org/1999/xlink" version="1.1" id="Capa_1" x="0px" y="0px" width="32px" height="32px" viewBox="0 0 32 32" enable-background="new 0 0 32 32" xml:space="preserve">
<path d="M28,11c-0.47,0-0.88,0.07-1.23,0.18c0.341-1.12,0.74-2.39,1.131-3.55L28,7.32V7c0-1.45-1.05-3-3-3H7C5.05,4,4,5.55,4,7v0.32  l0.1,0.31c0.39,1.16,0.79,2.43,1.13,3.55C4.88,11.07,4.47,11,4,11c-2.75,0-4,2.59-4,5s1.25,5,4,5c0.42,0,0.78-0.05,1.1-0.14  l-1.02,3.59L4,24.72V25c0,1.95,1.55,3,3,3h18c1.45,0,3-1.05,3-3v-0.28l-0.08-0.27l-1.02-3.59C27.22,20.95,27.58,21,28,21  c2.75,0,4-2.59,4-5S30.75,11,28,11z M28,19c-2,0-1-2-3-2c-1,0-1,1-1,1l2,7c0,1-1,1-1,1s-3.58,0-5,0h-2c-1,0-1-1-1-1c0-2,2-1,2-3  s-3-2-3-2s-3,0-3,2s2,1,2,3c0,0,0,1-1,1h-2c-1.42,0-5,0-5,0s-1,0-1-1l2-7c0,0,0-1-1-1c-2,0-1,2-3,2s-2-3-2-3s0-3,2-3s1,2,3,2  c0,0,1,0,1-1S6,7,6,7s0-1,1-1c0,0,6,0,7,0s1,1,1,1c0,2-2,1-2,3s3,2,3,2s3,0,3-2s-2-1-2-3c0,0,0-1,1-1s7,0,7,0c1,0,1,1,1,1s-2,6-2,7  s1,1,1,1c2,0,1-2,3-2s2,3,2,3S30,19,28,19z"/>
</svg>
