<?xml version="1.0" encoding="utf-8"?>
<!-- Generator: Adobe Illustrator 16.0.0, SVG Export Plug-In . SVG Version: 6.00 Build 0)  -->
<!DOCTYPE svg PUBLIC "-//W3C//DTD SVG 1.1//EN" "http://www.w3.org/Graphics/SVG/1.1/DTD/svg11.dtd">
<svg xmlns="http://www.w3.org/2000/svg" xmlns:xlink="http://www.w3.org/1999/xlink" version="1.1" id="Capa_1" x="0px" y="0px" width="32px" height="32px" viewBox="0 0 32 32" enable-background="new 0 0 32 32" xml:space="preserve">
<g>
	<path d="M30,4H2C0.9,4,0,4.9,0,6v22c0,1.1,0.9,2,2,2h28c1.1,0,2-0.9,2-2V6C32,4.9,31.1,4,30,4z M30,28H2V6h28V28z"/>
</g>
<g>
	<path d="M4,8v18h24V8H4z M10,24H6v-2h4V24z M10,20H6v-2h4V20z M10,16H6v-2h4V16z M10,12H6v-2h4V12z M18,24h-6v-2h6V24z M18,20h-6   v-2h6V20z M18,16h-6v-2h6V16z M18,12h-6v-2h6V12z M26,24h-6v-2h6V24z M26,20h-6v-2h6V20z M26,16h-6v-2h6V16z M26,12h-6v-2h6V12z"/>
</g>
</svg>
