<?xml version="1.0" encoding="utf-8"?>
<!-- Generator: Adobe Illustrator 16.0.0, SVG Export Plug-In . SVG Version: 6.00 Build 0)  -->
<!DOCTYPE svg PUBLIC "-//W3C//DTD SVG 1.1//EN" "http://www.w3.org/Graphics/SVG/1.1/DTD/svg11.dtd">
<svg xmlns="http://www.w3.org/2000/svg" xmlns:xlink="http://www.w3.org/1999/xlink" version="1.1" id="Capa_1" x="0px" y="0px" width="32px" height="32px" viewBox="0 0 32 32" enable-background="new 0 0 32 32" xml:space="preserve">
<g>
	<polygon points="32,2 32,10 30,10 30,5.42 26,9.42 26,30 24,30 24,11.41 20,15.41 20,30 18,30 18,17.41 17,18.41 14,15.41 14,30    12,30 12,13.41 10.93,12.34 8,14.68 8,30 6,30 6,16.28 1.62,19.78 0.38,18.22 11.07,9.66 17,15.59 28.58,4 24,4 24,2  "/>
</g>
</svg>
