<?xml version="1.0" encoding="utf-8"?>
<!-- Generator: Adobe Illustrator 16.0.0, SVG Export Plug-In . SVG Version: 6.00 Build 0)  -->
<!DOCTYPE svg PUBLIC "-//W3C//DTD SVG 1.1//EN" "http://www.w3.org/Graphics/SVG/1.1/DTD/svg11.dtd">
<svg xmlns="http://www.w3.org/2000/svg" xmlns:xlink="http://www.w3.org/1999/xlink" version="1.1" id="Capa_1" x="0px" y="0px" width="32px" height="32px" viewBox="0 0 32 32" enable-background="new 0 0 32 32" xml:space="preserve">
<g>
	<g>
		<path d="M26,24V0H6v24H2v8h8v-6h2v6h8v-6h2v6h8v-8H26z M8,30H4v-4h4V30z M18,30h-4v-4h4V30z M18,24h-4v-4h4V24z M20,24v-6h-8v6H8    V2h16v4H14v2h10v4H14v2h10v10H20z M28,30h-4v-4h4V30z"/>
	</g>
</g>
</svg>
