<?xml version="1.0" encoding="utf-8"?>
<!-- Generator: Adobe Illustrator 16.0.0, SVG Export Plug-In . SVG Version: 6.00 Build 0)  -->
<!DOCTYPE svg PUBLIC "-//W3C//DTD SVG 1.1//EN" "http://www.w3.org/Graphics/SVG/1.1/DTD/svg11.dtd">
<svg xmlns="http://www.w3.org/2000/svg" xmlns:xlink="http://www.w3.org/1999/xlink" version="1.1" id="Capa_1" x="0px" y="0px" width="32px" height="32px" viewBox="0 0 32 32" enable-background="new 0 0 32 32" xml:space="preserve">
<g>
	<g>
		<path d="M21,0H4C2,0,2,2,2,2v28c0,2,2,2,2,2h22c2,0,2-2,2-2V7L21,0z M20,2h0.17L26,7.83V8h-5c-0.81,0-0.99-0.55-1-1V2z M26,30H4    C3.99,30,4,2,4,2h14v5c0,1.21,0.8,3,3,3h5C26,10,26.01,29.98,26,30z"/>
	</g>
</g>
<g>
	<path d="M6,12v16h18V12H6z M12,26H8V14h4V26z M22,26h-8v-6h8V26z M22,18h-8v-4h8V18z"/>
</g>
<g>
	<rect x="6" y="4" width="8" height="2"/>
</g>
<g>
	<rect x="6" y="8" width="10" height="2"/>
</g>
</svg>
