<?xml version="1.0" encoding="utf-8"?>
<!-- Generator: Adobe Illustrator 17.0.0, SVG Export Plug-In . SVG Version: 6.00 Build 0)  -->
<svg xmlns="http://www.w3.org/2000/svg" xmlns:xlink="http://www.w3.org/1999/xlink" version="1.1" id="Capa_1" x="0px" y="0px" width="32px" height="32px" viewBox="0 0 32 32" style="enable-background:new 0 0 32 32;" xml:space="preserve">

<path class="st0" d="M27,12h-1v-2c0-5.514-4.486-10-10-10C10.486,0,6,4.486,6,10v2H5c-1.853,0-3,2.595-3,5c0,2.404,1.147,5,3,5h1  c0,5.738,7.657,10,10,10c3.335,0,10-4.323,10-10h1c1.853,0,3-2.596,3-5C30,14.595,28.853,12,27,12z M5.024,20.003  C4.711,19.902,4,18.664,4,17c0-1.665,0.711-2.903,1-3h1v6.001L5.024,20.003z M24,22c0,4.297-5.366,8-8,8c-1.519,0-8-3.691-8-8V10  c0-4.411,3.589-8,8-8s8,3.589,8,8V22z M26.984,20H26v-6.001l0.976-0.001C27.289,14.097,28,15.335,28,17  C28,18.65,27.301,19.882,26.984,20z M22,10c0,3.48-1.595,4.756-2.875,5.781C17.938,16.73,17,17.48,17,20h-2  c0-3.48,1.594-4.756,2.875-5.781C19.063,13.27,20,12.52,20,10c0-2.206-1.794-4-4-4c-2.206,0-4,1.794-4,4h-2c0-3.309,2.691-6,6-6  S22,6.691,22,10z M18,24c0,1.103-0.897,2-2,2c-1.103,0-2-0.897-2-2s0.897-2,2-2C17.103,22,18,22.897,18,24z" style="fill:#010002;;"/>
</svg>
