<?xml version="1.0" encoding="utf-8"?>
<!-- Generator: Adobe Illustrator 17.0.0, SVG Export Plug-In . SVG Version: 6.00 Build 0)  -->
<svg xmlns="http://www.w3.org/2000/svg" xmlns:xlink="http://www.w3.org/1999/xlink" version="1.1" id="Capa_1" x="0px" y="0px" width="32px" height="32px" viewBox="0 0 32 32" style="enable-background:new 0 0 32 32;" xml:space="preserve">

<path class="st0" d="M16,0C7.178,0,0,7.178,0,16s7.178,16,16,16s16-7.178,16-16S24.822,0,16,0z M16,30C8.28,30,2,23.72,2,16  S8.28,2,16,2s14,6.28,14,14S23.72,30,16,30z M22.507,14.556C23.427,13.649,24,12.391,24,11c0-2.414-1.721-4.434-4-4.899V4h-2v2h-4V4  h-2v2H8v2h2v16H8v2h4v2h2v-2h4v2h2v-2c3.309,0,6-2.691,6-6C26,17.587,24.565,15.508,22.507,14.556z M12,8h7c1.654,0,3,1.346,3,3  s-1.346,3-3,3h-7V8z M20,24h-8v-8h8c2.206,0,4,1.794,4,4S22.206,24,20,24z" style="fill:#030104;;"/>
</svg>
