<?xml version="1.0" encoding="utf-8"?>
<!-- Generator: Adobe Illustrator 17.0.0, SVG Export Plug-In . SVG Version: 6.00 Build 0)  -->
<svg xmlns="http://www.w3.org/2000/svg" xmlns:xlink="http://www.w3.org/1999/xlink" version="1.1" id="Capa_1" x="0px" y="0px" width="32px" height="32px" viewBox="0 0 32 32" style="enable-background:new 0 0 32 32;" xml:space="preserve">

<path class="st0" d="M22.507,14.556C23.427,13.649,24,12.391,24,11c0-2.757-2.243-5-5-5h-7v20h8c3.309,0,6-2.691,6-6  C26,17.587,24.565,15.508,22.507,14.556z M22,11c0,1.654-1.346,3-3,3h-0.026C19.609,13.162,20,12.13,20,11s-0.391-2.162-1.026-3H19  C20.654,8,22,9.346,22,11z M15,8c1.654,0,3,1.346,3,3s-1.346,3-3,3h-1V8H15z M14,24v-8h2c2.206,0,4,1.794,4,4s-1.794,4-4,4H14z   M20.506,23.949C21.433,22.892,22,21.513,22,20s-0.567-2.892-1.494-3.949C22.471,16.303,24,17.967,24,20  S22.471,23.697,20.506,23.949z M16,0C7.178,0,0,7.178,0,16s7.178,16,16,16s16-7.178,16-16S24.822,0,16,0z M2,16  c0-3.86,1.57-7.36,4.105-9.895L8,8v16l-1.895,1.895C3.57,23.36,2,19.86,2,16z M16,30c-3.804,0-7.254-1.53-9.779-4H10V6H6.221  C8.746,3.53,12.196,2,16,2c7.72,0,14,6.28,14,14S23.72,30,16,30z" style="fill:#010002;;"/>
</svg>
