<?xml version="1.0" encoding="utf-8"?>
<!-- Generator: Adobe Illustrator 17.0.0, SVG Export Plug-In . SVG Version: 6.00 Build 0)  -->
<svg xmlns="http://www.w3.org/2000/svg" xmlns:xlink="http://www.w3.org/1999/xlink" version="1.1" id="Capa_1" x="0px" y="0px" width="32px" height="32px" viewBox="0 0 32 32" style="enable-background:new 0 0 32 32;" xml:space="preserve">

<path class="st0" d="M24.956,5.842L18,9.953v3.066l-2.043-1.177L14,12.999V9.898L6.957,5.842L0,9.953v8.147l7.022,4.057L9,20.993  v3.107l7.022,4.057L23,24.048v-3.059l2.022,1.168L32,18.048v-8.15L24.956,5.842z M9,18.672l-1.987,1.171L2,16.946v-5.852l4.97-2.937  L12,11.054v3.126l-3,1.772V18.672z M12,16.503v0.401l-1,0.589v-0.399L12,16.503z M21,22.905l-4.987,2.938L11,22.946v-3.131l3-1.768  v-2.726l1.97-1.164L18,15.327v2.774l3,1.733V22.905z M21,17.524l-1-0.578v-0.468l1,0.575V17.524z M30,16.905l-4.987,2.938L23,18.68  v-2.782l-3-1.728v-3.076l4.97-2.937L30,11.054V16.905z" style="fill:#010002;;"/>
</svg>
