<?xml version="1.0" encoding="utf-8"?>
<!-- Generator: Adobe Illustrator 17.0.0, SVG Export Plug-In . SVG Version: 6.00 Build 0)  -->
<svg xmlns="http://www.w3.org/2000/svg" xmlns:xlink="http://www.w3.org/1999/xlink" version="1.1" id="Capa_1" x="0px" y="0px" width="32px" height="32px" viewBox="0 0 32 32" style="enable-background:new 0 0 32 32;" xml:space="preserve">

<path class="st0" d="M28,20c-0.384,0-0.739,0.114-1.044,0.302L18.966,16h5.312c0.347,0.595,0.985,1,1.722,1c1.103,0,2-0.897,2-2  s-0.897-2-2-2c-0.737,0-1.375,0.405-1.722,1h-5.312l7.55-4.066C26.672,9.973,26.833,10,27,10c1.103,0,2-0.897,2-2s-0.897-2-2-2  s-2,0.897-2,2c0,0.155,0.022,0.305,0.055,0.45l-7.523,4.051l2.502-4.504C21.121,7.977,22,7.091,22,6c0-1.103-0.897-2-2-2  s-2,0.897-2,2c0,0.374,0.11,0.721,0.289,1.02L16,11.141V3.722C16.595,3.375,17,2.737,17,2c0-1.103-0.897-2-2-2s-2,0.897-2,2  c0,0.737,0.405,1.375,1,1.722v7.419L11.711,7.02C11.89,6.721,12,6.374,12,6c0-1.103-0.897-2-2-2S8,4.897,8,6  c0,1.091,0.879,1.977,1.965,1.996l2.502,4.504L3.994,7.938C3.96,6.864,3.082,6,2,6C0.897,6,0,6.897,0,8s0.897,2,2,2  c0.384,0,0.739-0.114,1.044-0.302L11.034,14H5.722C5.375,13.405,4.737,13,4,13c-1.103,0-2,0.897-2,2s0.897,2,2,2  c0.737,0,1.375-0.405,1.722-1h5.312l-7.99,4.302C2.739,20.114,2.384,20,2,20c-1.103,0-2,0.897-2,2s0.897,2,2,2  c1.082,0,1.96-0.864,1.994-1.937l8.474-4.563l-2.502,4.504C8.879,22.022,8,22.909,8,24c0,1.103,0.897,2,2,2s2-0.897,2-2  c0-0.374-0.11-0.721-0.289-1.02L14,18.859v7.419c-0.595,0.347-1,0.985-1,1.722c0,1.103,0.897,2,2,2s2-0.897,2-2  c0-0.737-0.405-1.375-1-1.722v-7.419l2.289,4.121C18.11,23.279,18,23.626,18,24c0,1.103,0.897,2,2,2s2-0.897,2-2  c0-1.091-0.879-1.978-1.965-1.997l-2.502-4.504l8.474,4.563C26.04,23.135,26.919,24,28,24c1.103,0,2-0.897,2-2S29.103,20,28,20z   M15,17c-1.103,0-2-0.897-2-2s0.897-2,2-2s2,0.897,2,2S16.103,17,15,17z" style="fill:#010002;;"/>
</svg>
