<?xml version="1.0" encoding="utf-8"?>
<!-- Generator: Adobe Illustrator 17.0.0, SVG Export Plug-In . SVG Version: 6.00 Build 0)  -->
<svg xmlns="http://www.w3.org/2000/svg" xmlns:xlink="http://www.w3.org/1999/xlink" version="1.1" id="Capa_1" x="0px" y="0px" width="32px" height="32px" viewBox="0 0 32 32" style="enable-background:new 0 0 32 32;" xml:space="preserve">

<path class="st0" d="M22,6c-2.188,0-4.277,0.711-6.002,2.01C14.274,6.716,12.165,6,10,6C4.486,6,0,10.486,0,16  c0,5.514,4.486,10,10,10c2.168,0,4.273-0.715,5.999-2.01C17.725,25.286,19.828,26,22,26c5.514,0,10-4.486,10-10  C32,10.486,27.514,6,22,6z M22,24c-1.828,0-3.595-0.633-5.013-1.776l-3.661-4.007C13.75,17.582,14,16.82,14,16c0-2.206-1.794-4-4-4  s-4,1.794-4,4c0,2.206,1.794,4,4,4c0.66,0,1.274-0.176,1.824-0.461l2.758,3.019C13.245,23.492,11.643,24,10,24c-4.411,0-8-3.589-8-8  s3.589-8,8-8c1.854,0,3.661,0.648,5.088,1.827c0.039,0.032,0.086,0.043,0.129,0.069l4.415,5.058l-1.339,1.339  c-0.245,0.245-0.346,0.6-0.267,0.937c0.08,0.338,0.328,0.609,0.657,0.719l6,2C24.787,19.983,24.895,20,25,20  c0.261,0,0.517-0.103,0.707-0.293c0.268-0.268,0.361-0.664,0.241-1.023l-2-6c-0.109-0.329-0.381-0.577-0.719-0.657  s-0.691,0.021-0.937,0.266l-1.243,1.243l-3.591-4.114C18.787,8.503,20.358,8,22,8c4.411,0,8,3.589,8,8S26.411,24,22,24z M10,18  c-1.103,0-2-0.897-2-2c0-1.103,0.897-2,2-2s2,0.897,2,2C12,17.103,11.103,18,10,18z M22.563,14.851l0.856,2.568l-2.567-0.856  L22.563,14.851z" style="fill:#010002;;"/>
</svg>
