<?xml version="1.0" encoding="utf-8"?>
<!-- Generator: Adobe Illustrator 17.0.0, SVG Export Plug-In . SVG Version: 6.00 Build 0)  -->
<svg xmlns="http://www.w3.org/2000/svg" xmlns:xlink="http://www.w3.org/1999/xlink" version="1.1" id="Capa_1" x="0px" y="0px" width="32px" height="32px" viewBox="0 0 32 32" style="enable-background:new 0 0 32 32;" xml:space="preserve">

<path class="st0" d="M16,22c-2.206,0-4,1.794-4,4s1.794,4,4,4c2.206,0,4-1.794,4-4S18.206,22,16,22z M16,28c-1.103,0-2-0.897-2-2  s0.897-2,2-2c1.103,0,2,0.897,2,2S17.103,28,16,28z M26,22c-2.206,0-4,1.794-4,4s1.794,4,4,4s4-1.794,4-4S28.206,22,26,22z M26,28  c-1.103,0-2-0.897-2-2s0.897-2,2-2s2,0.897,2,2S27.103,28,26,28z M6,22c-2.206,0-4,1.794-4,4s1.794,4,4,4s4-1.794,4-4S8.206,22,6,22  z M6,28c-1.103,0-2-0.897-2-2s0.897-2,2-2s2,0.897,2,2S7.103,28,6,28z M25,18c0-2.206-1.794-4-4-4s-4,1.794-4,4c0,2.206,1.794,4,4,4  S25,20.206,25,18z M21,20c-1.103,0-2-0.897-2-2c0-1.103,0.897-2,2-2s2,0.897,2,2C23,19.103,22.103,20,21,20z M20,10  c0-2.206-1.794-4-4-4c-2.206,0-4,1.794-4,4s1.794,4,4,4C18.206,14,20,12.206,20,10z M14,10c0-1.103,0.897-2,2-2c1.103,0,2,0.897,2,2  s-0.897,2-2,2C14.897,12,14,11.103,14,10z M15,18c0-2.206-1.794-4-4-4s-4,1.794-4,4c0,2.206,1.794,4,4,4S15,20.206,15,18z M11,20  c-1.103,0-2-0.897-2-2c0-1.103,0.897-2,2-2s2,0.897,2,2C13,19.103,12.103,20,11,20z M31.625,6.219l-1.25,1.562  C30.33,7.745,25.478,4,16,4C6.522,4,1.67,7.745,1.622,7.783L0.375,6.219C0.591,6.047,5.767,2,16,2  C26.233,2,31.409,6.047,31.625,6.219z" style="fill:#010002;;"/>
</svg>
