<?xml version="1.0" encoding="utf-8"?>
<!-- Generator: Adobe Illustrator 17.0.0, SVG Export Plug-In . SVG Version: 6.00 Build 0)  -->
<svg xmlns="http://www.w3.org/2000/svg" xmlns:xlink="http://www.w3.org/1999/xlink" version="1.1" id="Capa_1" x="0px" y="0px" width="32px" height="32px" viewBox="0 0 32 32" style="enable-background:new 0 0 32 32;" xml:space="preserve">

<path class="st0" d="M28,22c-0.342,0-0.659,0.094-0.941,0.246l-4.086-2.514c-0.085-0.622-0.452-1.15-0.973-1.454v-4.557  c0.521-0.304,0.889-0.832,0.973-1.454l4.086-2.514C27.34,9.906,27.658,10,28,10c1.103,0,2-0.897,2-2s-0.897-2-2-2s-2,0.897-2,2  c0,0.018,0.005,0.035,0.005,0.053l-3.816,2.348C21.856,10.153,21.447,10,21,10c-0.529,0-1.007,0.21-1.365,0.546l-2.636-1.538  C16.999,9.006,17,9.003,17,9c0-0.737-0.405-1.375-1-1.722V3.722C16.595,3.375,17,2.737,17,2c0-1.103-0.897-2-2-2s-2,0.897-2,2  c0,0.737,0.405,1.375,1,1.722v3.556C13.405,7.625,13,8.263,13,9c0,0.003,0.001,0.006,0.001,0.008l-2.636,1.538  C10.007,10.21,9.529,10,9,10c-0.447,0-0.856,0.153-1.19,0.401L3.995,8.053C3.995,8.035,4,8.018,4,8c0-1.103-0.897-2-2-2S0,6.897,0,8  s0.897,2,2,2c0.342,0,0.66-0.094,0.942-0.247l4.085,2.514C7.111,12.89,7.479,13.418,8,13.722v4.556  c-0.521,0.304-0.889,0.832-0.973,1.454l-4.085,2.514C2.66,22.094,2.342,22,2,22c-1.103,0-2,0.897-2,2s0.897,2,2,2s2-0.897,2-2  c0-0.018-0.005-0.035-0.005-0.053l3.816-2.348C8.144,21.847,8.553,22,9,22c0.529,0,1.007-0.21,1.365-0.546l2.636,1.537  C13.001,22.994,13,22.997,13,23c0,0.737,0.405,1.375,1,1.722v3.556c-0.595,0.347-1,0.985-1,1.722c0,1.103,0.897,2,2,2s2-0.897,2-2  c0-0.737-0.405-1.375-1-1.722v-3.556c0.595-0.347,1-0.985,1-1.722c0-0.003-0.001-0.006-0.001-0.009l2.636-1.538  C19.993,21.79,20.471,22,21,22c0.447,0,0.856-0.153,1.189-0.401l3.816,2.348C26.005,23.965,26,23.982,26,24c0,1.103,0.897,2,2,2  s2-0.897,2-2S29.103,22,28,22z M20,18.278c-0.443,0.258-0.774,0.679-0.917,1.182l-3.1,1.809C15.692,21.103,15.359,21,15,21  s-0.692,0.103-0.983,0.269l-3.1-1.809c-0.142-0.504-0.474-0.924-0.917-1.182v-4.556c0.443-0.258,0.774-0.678,0.917-1.182l3.1-1.808  C14.309,10.897,14.641,11,15,11s0.691-0.103,0.983-0.269l3.1,1.808c0.142,0.504,0.474,0.924,0.917,1.182V18.278z" style="fill:#010002;;"/>
</svg>
