<?xml version="1.0" encoding="utf-8"?>
<!-- Generator: Adobe Illustrator 17.0.0, SVG Export Plug-In . SVG Version: 6.00 Build 0)  -->
<svg xmlns="http://www.w3.org/2000/svg" xmlns:xlink="http://www.w3.org/1999/xlink" version="1.1" id="Capa_1" x="0px" y="0px" width="32px" height="32px" viewBox="0 0 32 32" style="enable-background:new 0 0 32 32;" xml:space="preserve">

<path class="st0" d="M3.856,9.029C2.642,11.139,2,13.549,2,16l-2,0.031V16c0-2.8,0.734-5.556,2.123-7.969L3.856,9.029z M16,2V0  c-2.81,0.009-5.623,0.757-8.04,2.164l1.007,1.729C11.08,2.662,13.541,2.007,16,2z M23.954,2.114l-0.996,1.734  c2.128,1.221,3.906,2.986,5.144,5.105l1.727-1.009C28.415,5.524,26.384,3.508,23.954,2.114z M30,16c0,2.461-0.646,4.88-1.87,6.995  l1.73,1.002c1.4-2.42,2.14-5.144,2.139-7.997H30z M3.885,23.021l-1.729,1.004c1.406,2.422,3.433,4.443,5.861,5.844l0.999-1.732  C6.891,26.91,5.116,25.142,3.885,23.021z M16.015,30L16,32c2.811-0.003,5.592-0.746,8.011-2.147l-1.002-1.73  C20.893,29.348,18.475,29.997,16.015,30z M16,6c3.309,0,6,2.691,6,6h-2c0-2.206-1.794-4-4-4c-2.206,0-4,1.794-4,4v4h12v10H8V16h2v-4  C10,8.691,12.691,6,16,6z M22,18H10v6h12V18z M17,20h-2v3h2V20z" style="fill:#010002;;"/>
</svg>
