<?xml version="1.0" encoding="utf-8"?>
<!-- Generator: Adobe Illustrator 17.0.0, SVG Export Plug-In . SVG Version: 6.00 Build 0)  -->
<svg xmlns="http://www.w3.org/2000/svg" xmlns:xlink="http://www.w3.org/1999/xlink" version="1.1" id="Capa_1" x="0px" y="0px" width="32px" height="32px" viewBox="0 0 32 32" style="enable-background:new 0 0 32 32;" xml:space="preserve">

<path class="st0" d="M25.708,24.294c-0.001-0.001-0.002-0.002-0.003-0.003l-3.997-3.997c-0.001-0.001-0.002-0.002-0.003-0.003  L21.414,20h3.172l5.707,5.707C30.488,25.902,30.744,26,31,26s0.512-0.098,0.707-0.293c0.391-0.391,0.391-1.023,0-1.414l-5.999-5.999  c-0.092-0.093-0.203-0.166-0.327-0.217C25.26,18.026,25.13,18,25,18h-5.586l-5.864-5.864c0.506-0.596,0.934-1.23,1.29-1.882  l3.453,3.453C18.488,13.902,18.744,14,19,14s0.512-0.098,0.707-0.293c0.391-0.391,0.391-1.023,0-1.414l-4.038-4.038  c0.559-1.938,0.442-3.901-0.491-5.496C14.151,1.005,12.282,0,10.049,0C8.154,0,6.142,0.727,4.383,2.046  C0.442,5.002-1.122,9.919,0.822,13.241C1.849,14.995,3.718,16,5.951,16c0.754,0,1.526-0.12,2.294-0.341l6.048,6.048  c0.092,0.093,0.203,0.166,0.326,0.217C14.74,21.973,14.87,22,15,22h5.586L24,25.414V31c0,0.553,0.447,1,1,1s1-0.447,1-1v-3.586  l4.293,4.293C30.488,31.902,30.744,32,31,32s0.512-0.098,0.707-0.293c0.391-0.391,0.391-1.023,0-1.414L25.708,24.294z M2.548,12.231  C1.157,9.854,2.547,5.923,5.583,3.646C6.998,2.584,8.584,2,10.049,2c1.526,0,2.734,0.628,3.402,1.769  c1.391,2.376,0.001,6.308-3.035,8.585C9.002,13.416,7.416,14,5.951,14C4.424,14,3.216,13.372,2.548,12.231z M15.414,20l-5.166-5.166  c0.468-0.255,0.927-0.548,1.369-0.88c0.177-0.132,0.343-0.273,0.51-0.413l6.165,6.165c0.001,0.001,0.002,0.002,0.003,0.003  L18.586,20H15.414z M8.5,7c0,0.828-0.672,1.5-1.5,1.5S5.5,7.828,5.5,7S6.172,5.5,7,5.5S8.5,6.172,8.5,7z" style="fill:#010002;;"/>
</svg>
