<?xml version="1.0" encoding="utf-8"?>
<!-- Generator: Adobe Illustrator 17.0.0, SVG Export Plug-In . SVG Version: 6.00 Build 0)  -->
<svg xmlns="http://www.w3.org/2000/svg" xmlns:xlink="http://www.w3.org/1999/xlink" version="1.1" id="Capa_1" x="0px" y="0px" width="32px" height="32px" viewBox="0 0 32 32" style="enable-background:new 0 0 32 32;" xml:space="preserve">
<path d="M27,12h-1v-2c0-5.514-4.486-10-10-10c-3.939,0-7.344,2.295-8.973,5.613l-3.32-3.32L2.293,3.707l3.986,3.986  C6.255,7.796,6.223,7.896,6.202,8H2v2h4v2H5c-1.853,0-3,2.595-3,5c0,2.404,1.147,5,3,5h1c0,5.738,7.657,10,10,10  c3.335,0,10-4.323,10-10h1c1.853,0,3-2.596,3-5C30,14.595,28.853,12,27,12z M5.024,20.003C4.711,19.902,4,18.664,4,17  c0-1.665,0.711-2.903,1-3h1v6.001L5.024,20.003z M24,22c0,4.297-5.366,8-8,8c-1.519,0-8-3.691-8-8V10c0-4.411,3.589-8,8-8  s8,3.589,8,8V22z M26.984,20H26v-6.001l0.976-0.001C27.289,14.097,28,15.335,28,17C28,18.65,27.301,19.882,26.984,20z M14,18  c0-0.806,0.241-1.328,0.572-1.635l0.436-3.489C15.07,12.375,15.496,12,16,12s0.93,0.375,0.992,0.876l0.438,3.497  C17.788,16.72,18,17.291,18,18c0,1.103-0.897,2-2,2C14.897,20,14,19.103,14,18z M11.035,11c-0.415-0.017-0.859,0.22-1.315,0.693  c-0.383,0.397-1.015,0.411-1.414,0.026c-0.397-0.383-0.41-1.016-0.026-1.414c0.873-0.907,1.837-1.334,2.849-1.304  c1.543,0.064,2.539,1.233,2.647,1.366c0.349,0.428,0.285,1.058-0.144,1.407C13.446,11.926,13.223,12,13,12  c-0.29,0-0.578-0.125-0.776-0.368C12.225,11.632,11.7,11.022,11.035,11z M21.129,9.002c1.543,0.064,2.538,1.233,2.646,1.366  c0.349,0.428,0.284,1.058-0.144,1.407C23.446,11.926,23.223,12,23.001,12c-0.291,0-0.578-0.126-0.776-0.368  c0,0-0.524-0.61-1.188-0.631c-0.467-0.025-0.86,0.221-1.315,0.693c-0.383,0.398-1.019,0.409-1.414,0.026  c-0.398-0.383-0.41-1.016-0.027-1.414C19.154,9.399,20.133,8.971,21.129,9.002z M22,13v2c0,0.552-0.447,1-1,1s-1-0.448-1-1v-2  c0-0.552,0.447-1,1-1S22,12.448,22,13z M12,15c0,0.552-0.448,1-1,1s-1-0.448-1-1v-2c0-0.552,0.448-1,1-1s1,0.448,1,1V15z M20,26h-3  h-2h-3c0,0,0-4,3-4h2C20,22,20,26,20,26z"/>
</svg>
