<?xml version="1.0" encoding="utf-8"?>
<!-- Generator: Adobe Illustrator 17.0.0, SVG Export Plug-In . SVG Version: 6.00 Build 0)  -->
<svg xmlns="http://www.w3.org/2000/svg" xmlns:xlink="http://www.w3.org/1999/xlink" version="1.1" id="Capa_1" x="0px" y="0px" width="32px" height="32px" viewBox="0 0 32 32" style="enable-background:new 0 0 32 32;" xml:space="preserve">

<path class="st0" d="M27,16c-0.253,0-0.496,0.041-0.731,0.101l-0.875-1.312C25.77,14.288,26,13.673,26,13c0-1.654-1.346-3-3-3  c-0.254,0-0.496,0.041-0.731,0.101l-0.875-1.312C21.769,8.288,22,7.673,22,7c0-1.654-1.346-3-3-3c-1.302,0-2.402,0.839-2.816,2  h-2.369C13.402,4.839,12.302,4,11,4C9.346,4,8,5.346,8,7c0,0.673,0.23,1.288,0.606,1.789l-0.875,1.312C7.496,10.041,7.254,10,7,10  c-1.654,0-3,1.346-3,3c0,0.673,0.23,1.288,0.606,1.788l-0.875,1.312C3.496,16.041,3.253,16,3,16c-1.654,0-3,1.346-3,3s1.346,3,3,3  c0.254,0,0.496-0.041,0.731-0.101l0.875,1.312C4.23,23.712,4,24.327,4,25c0,1.654,1.346,3,3,3c1.302,0,2.402-0.839,2.816-2h2.369  c0.414,1.161,1.514,2,2.816,2s2.402-0.839,2.816-2h2.369c0.414,1.161,1.514,2,2.816,2c1.654,0,3-1.346,3-3  c0-0.703-0.253-1.341-0.659-1.853l0.848-1.273C26.449,21.948,26.717,22,27,22c1.654,0,3-1.346,3-3S28.654,16,27,16z M23,22  c-0.254,0-0.496,0.041-0.731,0.101l-0.875-1.312c0.179-0.239,0.32-0.503,0.422-0.789h2.369c0.092,0.259,0.212,0.503,0.368,0.724  l-0.901,1.352C23.441,22.029,23.224,22,23,22z M15,22c-0.253,0-0.496,0.041-0.731,0.101l-0.875-1.312  c0.179-0.238,0.32-0.503,0.421-0.788h2.369c0.092,0.259,0.212,0.503,0.368,0.724l-0.901,1.352C15.441,22.029,15.224,22,15,22z M7,22  c-0.254,0-0.496,0.041-0.731,0.101l-0.874-1.312C5.573,20.55,5.714,20.286,5.816,20h2.369c0.092,0.259,0.212,0.503,0.368,0.724  l-0.901,1.352C7.441,22.029,7.224,22,7,22z M7,16c0.253,0,0.496-0.041,0.731-0.101l0.875,1.312C8.427,17.45,8.286,17.714,8.184,18  H5.816c-0.102-0.286-0.243-0.55-0.422-0.789l0.875-1.312C6.504,15.959,6.746,16,7,16z M11,10c0.254,0,0.496-0.041,0.731-0.101  l0.875,1.312c-0.179,0.239-0.32,0.503-0.422,0.789H9.816c-0.102-0.286-0.243-0.55-0.422-0.789l0.875-1.312  C10.504,9.959,10.746,10,11,10z M19,10c0.253,0,0.496-0.041,0.731-0.101l0.875,1.312c-0.179,0.239-0.32,0.503-0.421,0.788h-2.369  c-0.111-0.313-0.272-0.598-0.475-0.853l0.849-1.272C18.449,9.948,18.717,10,19,10z M23.731,15.899l0.875,1.312  c-0.179,0.239-0.32,0.503-0.422,0.789h-2.369c-0.111-0.313-0.272-0.598-0.475-0.853l0.848-1.272C22.449,15.948,22.717,16,23,16  C23.254,16,23.496,15.959,23.731,15.899z M13.816,18c-0.111-0.313-0.272-0.598-0.475-0.853l0.848-1.272  C14.449,15.948,14.717,16,15,16c0.253,0,0.496-0.041,0.731-0.101l0.875,1.312c-0.179,0.239-0.32,0.503-0.422,0.789H13.816z   M9.816,14h2.369c0.092,0.259,0.212,0.503,0.368,0.724l-0.901,1.352C11.441,16.029,11.224,16,11,16  c-0.254,0-0.496,0.041-0.731,0.101l-0.875-1.312C9.573,14.55,9.714,14.286,9.816,14z M20.184,14  c0.092,0.259,0.212,0.503,0.368,0.724l-0.901,1.352C19.441,16.029,19.224,16,19,16c-0.253,0-0.496,0.041-0.731,0.101l-0.875-1.312  c0.179-0.239,0.32-0.503,0.422-0.789H20.184z M16,13c0,0.551-0.449,1-1,1s-1-0.449-1-1s0.449-1,1-1S16,12.449,16,13z M10,19  c0-0.552,0.449-1,1-1s1,0.448,1,1s-0.449,1-1,1S10,19.552,10,19z M18,19c0-0.552,0.448-1,1-1s1,0.448,1,1s-0.448,1-1,1  S18,19.552,18,19z M16.553,8.724l-0.901,1.352C15.441,10.029,15.224,10,15,10c-0.254,0-0.496,0.041-0.731,0.101l-0.875-1.312  C13.573,8.55,13.714,8.286,13.816,8h2.369C16.277,8.259,16.397,8.503,16.553,8.724z M9.341,23.147l0.848-1.272  C10.449,21.948,10.717,22,11,22c0.254,0,0.496-0.041,0.731-0.101l0.875,1.312c-0.179,0.239-0.32,0.503-0.422,0.789H9.816  C9.704,23.687,9.544,23.402,9.341,23.147z M17.341,23.146l0.848-1.272C18.449,21.948,18.717,22,19,22  c0.254,0,0.496-0.041,0.731-0.101l0.875,1.312c-0.179,0.239-0.32,0.503-0.422,0.789h-2.369  C17.704,23.687,17.543,23.402,17.341,23.146z M24,13c0,0.551-0.448,1-1,1s-1-0.449-1-1s0.448-1,1-1S24,12.449,24,13z M19,6  c0.552,0,1,0.449,1,1s-0.448,1-1,1s-1-0.449-1-1S18.448,6,19,6z M11,6c0.551,0,1,0.449,1,1s-0.449,1-1,1s-1-0.449-1-1S10.449,6,11,6  z M7,12c0.551,0,1,0.449,1,1s-0.449,1-1,1s-1-0.449-1-1S6.449,12,7,12z M2,19c0-0.552,0.449-1,1-1s1,0.448,1,1s-0.449,1-1,1  S2,19.552,2,19z M7,26c-0.551,0-1-0.448-1-1s0.449-1,1-1s1,0.448,1,1S7.551,26,7,26z M15,26c-0.551,0-1-0.448-1-1s0.449-1,1-1  s1,0.448,1,1S15.551,26,15,26z M23,26c-0.552,0-1-0.448-1-1s0.448-1,1-1s1,0.448,1,1S23.552,26,23,26z M27,20c-0.552,0-1-0.448-1-1  s0.448-1,1-1s1,0.448,1,1S27.552,20,27,20z" style="fill:#010002;;"/>
</svg>
