<?xml version="1.0" encoding="utf-8"?>
<!-- Generator: Adobe Illustrator 17.0.0, SVG Export Plug-In . SVG Version: 6.00 Build 0)  -->
<svg xmlns="http://www.w3.org/2000/svg" xmlns:xlink="http://www.w3.org/1999/xlink" version="1.1" id="Capa_1" x="0px" y="0px" width="32px" height="32px" viewBox="0 0 32 32" style="enable-background:new 0 0 32 32;" xml:space="preserve">

<path class="st0" d="M17,22h-2v-4h2V22z M32,16c0,8.822-7.178,16-16,16C8.561,32,2.31,26.889,0.527,20H2.59  C4.316,25.775,9.671,30,16,30c7.039,0,12.865-5.227,13.84-12H24v8H8v-8H0.139C0.056,17.343,0,16.679,0,16C0,7.178,7.178,0,16,0  c8.144,0,14.872,6.12,15.861,14H29.84C28.865,7.227,23.039,2,16,2C8.28,2,2,8.28,2,16h6v-2h2v-2c0-3.309,2.691-6,6-6s6,2.691,6,6v2  h2v2H32z M12,14h8v-2c0-2.206-1.794-4-4-4c-2.206,0-4,1.794-4,4V14z M22,16H10v8h12V16z" style="fill:#010002;;"/>
</svg>
