<?xml version="1.0" encoding="utf-8"?>
<!-- Generator: Adobe Illustrator 17.0.0, SVG Export Plug-In . SVG Version: 6.00 Build 0)  -->
<svg xmlns="http://www.w3.org/2000/svg" xmlns:xlink="http://www.w3.org/1999/xlink" version="1.1" id="Capa_1" x="0px" y="0px" width="32px" height="32px" viewBox="0 0 32 32" style="enable-background:new 0 0 32 32;" xml:space="preserve">

<path class="st0" d="M16,0C7.178,0,0,7.178,0,16s7.178,16,16,16s16-7.178,16-16S24.822,0,16,0z M16,30C8.28,30,2,23.72,2,16  S8.28,2,16,2s14,6.28,14,14S23.72,30,16,30z M16.864,29.504l7-12c0.17-0.292,0.181-0.649,0.03-0.951l-7-14  c-0.339-0.678-1.45-0.678-1.789,0l-7,14c-0.151,0.302-0.139,0.659,0.031,0.951l7,12C15.315,29.812,15.645,30,16,30  S16.685,29.812,16.864,29.504z M16,5.236l5.566,11.134L16,17.96l-5.567-1.59L16,5.236z M11.117,18.645L16,20.04l4.882-1.395  L16,27.016L11.117,18.645z" style="fill:#010002;;"/>
</svg>
