<?xml version="1.0" encoding="utf-8"?>
<!-- Generator: Adobe Illustrator 17.0.0, SVG Export Plug-In . SVG Version: 6.00 Build 0)  -->
<svg xmlns="http://www.w3.org/2000/svg" xmlns:xlink="http://www.w3.org/1999/xlink" version="1.1" id="Capa_1" x="0px" y="0px" width="32px" height="32px" viewBox="0 0 32 32" style="enable-background:new 0 0 32 32;" xml:space="preserve">
<path d="M5.374,25.091l-1.413,1.413C1.502,23.69,0,20.021,0,16C0,7.178,7.178,0,16,0c3.015,0,5.827,0.854,8.237,2.309l-1.522,1.412  C20.72,2.626,18.432,2,16,2C8.28,2,2,8.28,2,16C2,19.47,3.276,22.642,5.374,25.091z M30.08,8.408c0.031,1.06-0.172,2.21-0.716,3.417  C29.776,13.144,30,14.546,30,16c0,7.72-6.28,14-14,14c-2.44,0-4.734-0.63-6.733-1.732l-1.453,1.453C10.212,31.158,13.006,32,16,32  c8.822,0,16-7.178,16-16C32,13.254,31.303,10.668,30.08,8.408z M10.11,25.304l-3.403,3.403C6.512,28.902,6.256,29,6,29  s-0.512-0.098-0.707-0.293c-0.391-0.391-0.391-1.023,0-1.414l3.377-3.377c-0.474-0.751-0.724-1.621-0.689-2.499  c0.059-1.479,0.856-2.885,2.37-4.178l15.19-14.094l0.674,0.54c1.363,1.094,3.471,4.122,1.683,7.756l-0.123,0.192l-9,11  c-1.783,2.146-3.951,3.325-6.11,3.325C11.728,25.958,10.835,25.716,10.11,25.304z M9.979,21.496  c-0.037,0.927,0.497,1.565,0.729,1.798c0.32,0.321,1.003,0.664,1.956,0.664c1.342,0,2.734-0.691,3.986-1.958H16v-2h2.344l1.636-2H19  v-2h2.617l4.533-5.541c0.98-2.101,0.084-3.751-0.597-4.598L18,12.87V16h-2v-1.274l-2,1.856V20h-2v-1.563l-0.32,0.297  C10.577,19.677,10.015,20.597,9.979,21.496z"/>
</svg>
