<?xml version="1.0" encoding="utf-8"?>
<!-- Generator: Adobe Illustrator 17.0.0, SVG Export Plug-In . SVG Version: 6.00 Build 0)  -->
<svg xmlns="http://www.w3.org/2000/svg" xmlns:xlink="http://www.w3.org/1999/xlink" version="1.1" id="Capa_1" x="0px" y="0px" width="32px" height="32px" viewBox="0 0 32 32" style="enable-background:new 0 0 32 32;" xml:space="preserve">

<path class="st0" d="M27,12h-1v-2c0-1.066-0.188-2.084-0.501-3.047c0.116,0.003,0.224,0.011,0.343,0.011  c1.387,0,3.027-0.224,4.63-1.083l-0.945-1.763c-1.404,0.753-2.982,0.987-5.131,0.762L24.39,4.941  c-0.816-0.028-1.623-0.114-2.409-0.236C23.233,6.118,24,7.969,24,10v12c0,4.297-5.366,8-8,8c-1.519,0-8-3.691-8-8V10  c0-4.411,3.589-8,8-8c0.339,0,0.672,0.028,1,0.069V2.063c0.735,0.077,1.525,0.216,2.35,0.366c1.43,0.26,2.957,0.537,4.513,0.537  c1.529,0,3.088-0.268,4.61-1.084l-0.945-1.763c-2.455,1.317-5.183,0.822-7.82,0.342c-0.928-0.168-1.818-0.327-2.676-0.406  c-0.017-0.002-0.033-0.004-0.05-0.006C16.649,0.019,16.322,0,16,0C10.486,0,6,4.486,6,10v2H5c-1.853,0-3,2.595-3,5  c0,2.404,1.147,5,3,5h1c0,5.738,7.657,10,10,10c3.335,0,10-4.323,10-10h1c1.853,0,3-2.596,3-5C30,14.595,28.853,12,27,12z   M5.024,20.003C4.711,19.902,4,18.664,4,17c0-1.665,0.711-2.903,1-3h1v6.001L5.024,20.003z M26.984,20H26v-6.001l0.976-0.001  C27.289,14.097,28,15.335,28,17C28,18.65,27.301,19.882,26.984,20z M16,20c-1.103,0-2-0.897-2-2c0-0.577,0.642-3.518,1.024-5.219  C15.127,12.324,15.532,12,16,12s0.873,0.324,0.976,0.781C17.358,14.482,18,17.423,18,18C18,19.103,17.103,20,16,20z M9.72,11.694  c-0.383,0.397-1.015,0.411-1.414,0.026c-0.397-0.383-0.41-1.016-0.026-1.414c0.873-0.907,1.837-1.334,2.849-1.304  c1.543,0.064,2.539,1.233,2.647,1.366c0.349,0.428,0.285,1.058-0.144,1.407C13.446,11.926,13.223,12,13,12  c-0.29,0-0.578-0.125-0.776-0.368c0,0-0.524-0.61-1.189-0.631C10.62,10.984,10.176,11.221,9.72,11.694z M23.001,12  c-0.291,0-0.578-0.126-0.776-0.368c0,0-0.524-0.61-1.188-0.631c-0.467-0.025-0.86,0.221-1.315,0.693  c-0.383,0.398-1.019,0.409-1.414,0.026c-0.398-0.383-0.41-1.016-0.027-1.414c0.875-0.907,1.854-1.335,2.85-1.304  c1.543,0.064,2.538,1.233,2.646,1.366c0.349,0.428,0.284,1.058-0.144,1.407C23.446,11.926,23.223,12,23.001,12z M12,22h8  c0,0,0,4-4,4S12,22,12,22z M9,15c0-0.552,0.448-1,1-1h2c0.552,0,1,0.448,1,1s-0.448,1-1,1h-2C9.448,16,9,15.552,9,15z M20,16  c-0.553,0-1-0.448-1-1s0.447-1,1-1h2c0.553,0,1,0.448,1,1s-0.447,1-1,1H20z" style="fill:#010002;;"/>
</svg>
