<?xml version="1.0" encoding="utf-8"?>
<!-- Generator: Adobe Illustrator 17.0.0, SVG Export Plug-In . SVG Version: 6.00 Build 0)  -->
<svg xmlns="http://www.w3.org/2000/svg" xmlns:xlink="http://www.w3.org/1999/xlink" version="1.1" id="Capa_1" x="0px" y="0px" width="32px" height="32px" viewBox="0 0 32 32" style="enable-background:new 0 0 32 32;" xml:space="preserve">

<path class="st0" d="M23,12.592v-0.051v-8L14.951,0L7,4.603v7.948l-7,4.053v9.16l8.025,4.541l6.931-4l7.069,4L30,25.702v-9.161  L23,12.592z M9,20.597v-5.703l5,2.829v5.703L9,20.597z M15.028,15.993l-5.01-2.826l4.945-2.863l5.019,2.831L15.028,15.993z   M16,17.756l5-2.894v5.686l-5,2.885V17.756z M14.963,2.304L21,5.709v5.704L14.951,8L9,11.445V5.756L14.963,2.304z M8.016,28.001  L2,24.597v-6.841l5-2.894v6.901l5.971,3.379L8.016,28.001z M28,24.548l-5.984,3.453l-5.014-2.838L23,21.702v-6.814l5,2.821V24.548z" style="fill:#010002;;"/>
</svg>
