<?xml version="1.0" encoding="utf-8"?>
<!-- Generator: Adobe Illustrator 17.0.0, SVG Export Plug-In . SVG Version: 6.00 Build 0)  -->
<svg xmlns="http://www.w3.org/2000/svg" xmlns:xlink="http://www.w3.org/1999/xlink" version="1.1" id="Capa_1" x="0px" y="0px" width="32px" height="32px" viewBox="0 0 32 32" style="enable-background:new 0 0 32 32;" xml:space="preserve">

<path class="st0" d="M16,0C7.178,0,0,7.178,0,16s7.178,16,16,16s16-7.178,16-16S24.822,0,16,0z M16,30C8.28,30,2,23.72,2,16  S8.28,2,16,2s14,6.28,14,14S23.72,30,16,30z M14.517,18l1.099-2.565l3.706-0.965l0.882-2.296l-3.591,0.935L20.517,4h-6.433  L9.518,14.956l-2.32,0.604l-0.883,2.297l2.237-0.583L5.75,24h17.868l3-6H14.517z M22.382,22H8.75l6.667-16h2.067l-6,14h11.898  L22.382,22z" style="fill:#010002;;"/>
</svg>
