<?xml version="1.0" encoding="utf-8"?>
<!-- Generator: Adobe Illustrator 17.0.0, SVG Export Plug-In . SVG Version: 6.00 Build 0)  -->
<svg xmlns="http://www.w3.org/2000/svg" xmlns:xlink="http://www.w3.org/1999/xlink" version="1.1" id="Capa_1" x="0px" y="0px" width="32px" height="32px" viewBox="0 0 32 32" style="enable-background:new 0 0 32 32;" xml:space="preserve">
<path d="M23.285,7.336L26.204,4h-3.322l1.449-4h-8.085l-2,6H13c-4.458,0-9,4.542-9,9v6c0,2.415,1.721,4.435,4,4.899V32h16v-6.101  c2.279-0.465,4-2.484,4-4.899v-6C28,12.018,25.965,9.008,23.285,7.336z M17.754,2h3.915L20.22,6h1.576l-3.23,3.693L19.181,6h-2.855  L17.754,2z M26,21c0,1.654-1.346,3-3,3h-1v6h-2v-4h-2v4h-4v-4h-2v4h-2v-6H9c-1.654,0-3-1.346-3-3v-6c0-3.336,3.664-7,7-7h0.674  h3.145l-1.384,8.307l6.509-7.439C24.183,10.148,26,12.651,26,15V21z M16,19.764L18.118,24h-4.236L16,19.764z M14,16h-3  c-1.654,0-3,1.346-3,3s1.346,3,3,3s3-1.346,3-3V16z M12,19c0,0.552-0.449,1-1,1s-1-0.448-1-1s0.449-1,1-1h1V19z M21,16h-3v3  c0,1.654,1.346,3,3,3s3-1.346,3-3S22.654,16,21,16z M21,20c-0.552,0-1-0.448-1-1v-1h1c0.552,0,1,0.448,1,1S21.552,20,21,20z"/>
</svg>
