<?xml version="1.0" encoding="utf-8"?>
<!-- Generator: Adobe Illustrator 17.0.0, SVG Export Plug-In . SVG Version: 6.00 Build 0)  -->
<svg xmlns="http://www.w3.org/2000/svg" xmlns:xlink="http://www.w3.org/1999/xlink" version="1.1" id="Capa_1" x="0px" y="0px" width="32px" height="32px" viewBox="0 0 32 32" style="enable-background:new 0 0 32 32;" xml:space="preserve">

<path class="st0" d="M16,0C7.178,0,0,7.178,0,16s7.178,16,16,16s16-7.178,16-16S24.822,0,16,0z M16,30C8.28,30,2,23.72,2,16  S8.28,2,16,2s14,6.28,14,14S23.72,30,16,30z M19.898,4.627l-0.952-1.518L16,8.818l-2.982-5.787L2.963,20.539l7.652-1.91  C11.592,20.622,13.635,22,16,22s4.408-1.378,5.385-3.371l7.652,1.91L19.898,4.627z M10,16c0,0.241,0.018,0.477,0.046,0.71  l-3.009,0.751l5.885-10.246l1.543,2.992C11.899,10.887,10,13.223,10,16z M16,20c-2.206,0-4-1.794-4-4c0-2.206,1.794-4,4-4  c2.206,0,4,1.794,4,4C20,18.206,18.206,20,16,20z M17.534,10.206l1.544-2.991l5.885,10.246l-3.009-0.751  C21.982,16.477,22,16.241,22,16C22,13.223,20.101,10.887,17.534,10.206z" style="fill:#010002;;"/>
</svg>
