<?xml version="1.0" encoding="utf-8"?>
<!-- Generator: Adobe Illustrator 17.0.0, SVG Export Plug-In . SVG Version: 6.00 Build 0)  -->
<svg xmlns="http://www.w3.org/2000/svg" xmlns:xlink="http://www.w3.org/1999/xlink" version="1.1" id="Capa_1" x="0px" y="0px" width="32px" height="32px" viewBox="0 0 32 32" style="enable-background:new 0 0 32 32;" xml:space="preserve">

<path class="st0" d="M17,4c5.01,0,8.354,0.992,10.588,2.609l1.342-0.931l1.207,1.593l-0.959,0.792C31.649,10.93,32,14.964,32,19  c0,0-2.225-5.771-5.218-8.958l-3.763,3.109c-0.024-0.009-0.044-0.021-0.068-0.029c-0.088-0.52-0.33-1.571-0.918-2.658l2.937-2.038  C21.59,5.832,17,4,17,4z M5.218,10.042l3.763,3.109c0.024-0.009,0.044-0.021,0.068-0.029c0.088-0.52,0.33-1.571,0.918-2.658  L7.029,8.425C10.41,5.831,15,4,15,4C9.99,4,6.646,4.992,4.412,6.609L3.07,5.678L1.863,7.271l0.959,0.792C0.351,10.93,0,14.964,0,19  C0,19,2.225,13.229,5.218,10.042z M22,20c0,3.48-3.584,6-6,6s-6-2.52-6-6c-1.103,0-2-0.897-2-2v-2c0-1.103,0.897-2,2-2  c0-3.309,2.691-6,6-6s6,2.691,6,6c1.103,0,2,0.897,2,2v2C24,19.103,23.103,20,22,20z M20,14c0-2.206-1.794-4-4-4  c-2.206,0-4,1.794-4,4v6c0,2.131,2.493,4,4,4s4-1.869,4-4V14z M22.722,20.924c-0.019,0.252-0.062,0.5-0.114,0.746l2.97,2.061  l-0.248,0.331l-2.751-2.272c-0.16,0.677-0.436,1.326-0.813,1.922l3.906,3.227l2.752-3.669l-4.39-3.046  C23.619,20.586,23.139,20.813,22.722,20.924z M6.671,24.062L6.422,23.73l2.97-2.061c-0.053-0.246-0.095-0.494-0.114-0.746  c-0.418-0.111-0.897-0.337-1.311-0.701l-4.39,3.046l2.751,3.669l3.906-3.227c-0.377-0.596-0.653-1.245-0.813-1.922L6.671,24.062z" style="fill:#010002;;"/>
</svg>
