<?xml version="1.0" encoding="utf-8"?>
<!-- Generator: Adobe Illustrator 17.0.0, SVG Export Plug-In . SVG Version: 6.00 Build 0)  -->
<svg xmlns="http://www.w3.org/2000/svg" xmlns:xlink="http://www.w3.org/1999/xlink" version="1.1" id="Capa_1" x="0px" y="0px" width="32px" height="32px" viewBox="0 0 32 32" style="enable-background:new 0 0 32 32;" xml:space="preserve">
<path d="M27,14h-1v-2h3c0.553,0,1-0.448,1-1s-0.447-1-1-1h-1.05C27.45,4.149,22.583,0,16,0S4.55,4.149,4.05,10H3  c-0.552,0-1,0.448-1,1s0.448,1,1,1h3v2H5c-1.445,0-3,1.252-3,4s1.555,4,3,4h1c0,5.738,7.657,10,10,10c3.335,0,10-4.323,10-10h1  c1.445,0,3-1.252,3-4S28.445,14,27,14z M25.945,10h-3.182l-3.072,1.536C19.889,11.063,20,10.544,20,10V2.671  C23.316,3.865,25.577,6.561,25.945,10z M14,10c0-1.103,0.897-2,2-2c1.103,0,2,0.897,2,2s-0.897,2-2,2C14.897,12,14,11.103,14,10z   M18,2.161v4.395C17.409,6.212,16.732,6,16,6c-0.732,0-1.409,0.212-2,0.556V2.161C14.642,2.057,15.309,2,16,2S17.358,2.057,18,2.161  z M12,2.671V10c0,0.544,0.111,1.063,0.309,1.537L9.236,10H6.055C6.423,6.561,8.684,3.865,12,2.671z M5,20c-0.589,0-1-0.822-1-2  s0.411-2,1-2h1v4H5z M24,22c0,4.297-5.366,8-8,8c-1.519,0-8-3.691-8-8V12h0.764l4,2H16h3.236l4-2H24V22z M27,20h-1v-4h1  c0.589,0,1,0.822,1,2S27.589,20,27,20z M16,14c0.552,0,1,0.448,1,1v1.89c0.146,0.628,0.427,1.338,0.634,1.864  C17.878,19.374,18,19.686,18,20c0,1.103-0.897,2-2,2c-1.103,0-2-0.897-2-2c0-0.314,0.123-0.626,0.367-1.246  c0.207-0.526,0.486-1.236,0.633-1.864V15C15,14.448,15.448,14,16,14z M22,15v2c0,0.553-0.447,1-1,1s-1-0.447-1-1v-2  c0-0.552,0.447-1,1-1S22,14.448,22,15z M12,17c0,0.553-0.448,1-1,1s-1-0.447-1-1v-2c0-0.552,0.448-1,1-1s1,0.448,1,1V17z M16,24h4  c0,0,0,4-4,4s-4-4-4-4H16z"/>
</svg>
