<?xml version="1.0" encoding="utf-8"?>
<!-- Generator: Adobe Illustrator 17.0.0, SVG Export Plug-In . SVG Version: 6.00 Build 0)  -->
<svg xmlns="http://www.w3.org/2000/svg" xmlns:xlink="http://www.w3.org/1999/xlink" version="1.1" id="Capa_1" x="0px" y="0px" width="32px" height="32px" viewBox="0 0 32 32" style="enable-background:new 0 0 32 32;" xml:space="preserve">

<path class="st0" d="M18.142,27h-4.284c-0.447-1.721-2-3-3.858-3c-2.206,0-4,1.794-4,4s1.794,4,4,4c1.858,0,3.411-1.279,3.858-3  h4.284c0.447,1.721,1.999,3,3.858,3c2.206,0,4-1.794,4-4s-1.794-4-4-4C20.141,24,18.589,25.279,18.142,27z M10,30  c-1.103,0-2-0.897-2-2s0.897-2,2-2s2,0.897,2,2S11.103,30,10,30z M22,26c1.103,0,2,0.897,2,2s-0.897,2-2,2s-2-0.897-2-2  S20.897,26,22,26z M22,8c2.206,0,4-1.794,4-4s-1.794-4-4-4s-4,1.794-4,4S19.794,8,22,8z M22,2c1.103,0,2,0.897,2,2s-0.897,2-2,2  s-2-0.897-2-2S20.897,2,22,2z M28.387,22l3.561-10.684c0.103-0.305,0.051-0.64-0.137-0.901C31.623,10.154,31.321,10,31,10H14  c0-2.206-1.794-4-4-4s-4,1.794-4,4H1c-0.321,0-0.623,0.154-0.811,0.416c-0.188,0.261-0.239,0.596-0.138,0.901L3.612,22H0v2h32v-2  H28.387z M10,8c1.103,0,2,0.897,2,2H8C8,8.897,8.897,8,10,8z M5.721,22L2.387,12h27.225l-3.333,10H5.721z" style="fill:#010002;;"/>
</svg>
