<?xml version="1.0" encoding="utf-8"?>
<!-- Generator: Adobe Illustrator 17.0.0, SVG Export Plug-In . SVG Version: 6.00 Build 0)  -->
<svg xmlns="http://www.w3.org/2000/svg" xmlns:xlink="http://www.w3.org/1999/xlink" version="1.1" id="Capa_1" x="0px" y="0px" width="32px" height="32px" viewBox="0 0 32 32" style="enable-background:new 0 0 32 32;" xml:space="preserve">

<path class="st0" d="M4,30h24v2H4V30z M4,28h24v-2H4V28z M28,0v24H4V0H28z M26,2H6v20h20V2z M11.698,9.375L21.974,20.44l2.467-2.467  L13.395,7.716C16.116,5.548,20,4,20,4c-3.962,0-6.62,0.775-8.407,2.043L9.681,4.267L8.267,5.681l1.742,1.876  C8.258,9.827,8,12.912,8,16C8,16,9.548,11.986,11.698,9.375z" style="fill:#010002;;"/>
</svg>
