<?xml version="1.0" encoding="utf-8"?>
<!-- Generator: Adobe Illustrator 17.0.0, SVG Export Plug-In . SVG Version: 6.00 Build 0)  -->
<svg xmlns="http://www.w3.org/2000/svg" xmlns:xlink="http://www.w3.org/1999/xlink" version="1.1" id="Capa_1" x="0px" y="0px" width="32px" height="32px" viewBox="0 0 32 32" style="enable-background:new 0 0 32 32;" xml:space="preserve">

<path class="st0" d="M17.6,16.223l-0.381,8.761C22.383,24.859,27,24,27,24c-3.69,3.661-6.972,3.932-9.911,3.984l-0.089,2.059h-1.998  l-0.09-2.06C11.033,27.875,7.785,26.808,5,24c0,0,4.814,0.853,9.781,0.982l-0.377-8.675l-8,5.565l-2.369-3.158l9.198-5.529  L5.463,7.779C5.462,7.78,5.46,7.782,5.459,7.783C2.344,10.906,0,17,0,17c0-4.071,0.356-8.141,2.887-11.013L1.929,5.321l1.086-1.678  l1.502,0.903C6.751,2.969,10.061,2,15,2c0,0-4.348,1.736-7.698,4.22l6.842,4.112L13.956,6h4.088l-0.192,4.409l6.901-4.148  C21.396,3.755,17,2,17,2c4.981,0,8.314,0.98,10.548,2.581l1.561-0.938l1.087,1.678l-1.037,0.721C31.647,8.911,32,12.954,32,17  c0,0-2.321-6.031-5.413-9.168l-7.695,5.353l9.199,5.529l-2.369,3.158L17.6,16.223z" style="fill:#010002;;"/>
</svg>
