<?xml version="1.0" encoding="utf-8"?>
<!-- Generator: Adobe Illustrator 17.0.0, SVG Export Plug-In . SVG Version: 6.00 Build 0)  -->
<svg xmlns="http://www.w3.org/2000/svg" xmlns:xlink="http://www.w3.org/1999/xlink" version="1.1" id="Capa_1" x="0px" y="0px" width="32px" height="32px" viewBox="0 0 32 32" style="enable-background:new 0 0 32 32;" xml:space="preserve">

<path class="st0" d="M17,15h3v2h-3v3h-2v-3h-3v-2h3v-3h2V15z M24,16c0,4.411-3.589,8-8,8s-8-3.589-8-8s3.589-8,8-8S24,11.589,24,16z   M22,16c0-3.309-2.691-6-6-6s-6,2.691-6,6s2.691,6,6,6S22,19.309,22,16z M19.021,29c0,1.654-1.346,3-3,3c-1.654,0-3-1.346-3-3  s1.346-3,3-3C17.675,26,19.021,27.346,19.021,29z M17.021,29c0-0.552-0.448-1-1-1s-1,0.448-1,1s0.449,1,1,1S17.021,29.552,17.021,29  z M13.021,3c0-1.654,1.346-3,3-3c1.654,0,3,1.346,3,3s-1.346,3-3,3C14.367,6,13.021,4.654,13.021,3z M15.021,3c0,0.551,0.449,1,1,1  s1-0.449,1-1s-0.448-1-1-1S15.021,2.449,15.021,3z M10.021,25c0,1.654-1.346,3-3,3s-3-1.346-3-3s1.346-3,3-3  S10.021,23.346,10.021,25z M8.021,25c0-0.552-0.449-1-1-1s-1,0.448-1,1s0.449,1,1,1S8.021,25.552,8.021,25z M28.021,25  c0,1.654-1.346,3-3,3s-3-1.346-3-3s1.346-3,3-3S28.021,23.346,28.021,25z M26.021,25c0-0.552-0.448-1-1-1s-1,0.448-1,1s0.448,1,1,1  S26.021,25.552,26.021,25z M4.021,7c0-1.654,1.346-3,3-3s3,1.346,3,3s-1.346,3-3,3S4.021,8.654,4.021,7z M6.021,7  c0,0.551,0.449,1,1,1s1-0.449,1-1s-0.449-1-1-1S6.021,6.449,6.021,7z M22.021,7c0-1.654,1.346-3,3-3s3,1.346,3,3s-1.346,3-3,3  S22.021,8.654,22.021,7z M24.021,7c0,0.551,0.448,1,1,1s1-0.449,1-1s-0.448-1-1-1S24.021,6.449,24.021,7z M3,19  c-1.654,0-3-1.346-3-3s1.346-3,3-3s3,1.346,3,3S4.654,19,3,19z M4,16c0-0.551-0.449-1-1-1s-1,0.449-1,1s0.449,1,1,1S4,16.551,4,16z   M32,16c0,1.654-1.346,3-3,3s-3-1.346-3-3s1.346-3,3-3S32,14.346,32,16z M30,16c0-0.551-0.448-1-1-1s-1,0.449-1,1s0.448,1,1,1  S30,16.551,30,16z" style="fill:#010002;;"/>
</svg>
