<?xml version="1.0" encoding="utf-8"?>
<!-- Generator: Adobe Illustrator 17.0.0, SVG Export Plug-In . SVG Version: 6.00 Build 0)  -->
<svg xmlns="http://www.w3.org/2000/svg" xmlns:xlink="http://www.w3.org/1999/xlink" version="1.1" id="Capa_1" x="0px" y="0px" width="32px" height="32px" viewBox="0 0 32 32" style="enable-background:new 0 0 32 32;" xml:space="preserve">

<path class="st0" d="M8.829,6.991C13.58,2.943,20.934,0,20.934,0C13.52,0,8.717,1.559,5.608,4.072l-1.45-1.314L2.764,4.186  l1.289,1.371C0.5,9.579,0,15.288,0,21c0,0,2.982-7.763,7.034-12.273l21.335,22.686L32,27.985L8.829,6.991z M21.324,21.007  l7.734,7.008l-0.606,0.572L21.324,21.007z M6.978,16.764L9.09,21l-2.112,4.236L4.867,21L6.978,16.764z M2.991,21.764L4.604,25  l-1.613,3.236L1.378,25L2.991,21.764z M20.934,7.764L22.547,11l-1.613,3.236L19.321,11L20.934,7.764z M26.915,7.236L25.302,4  l1.613-3.236L28.528,4L26.915,7.236z" style="fill:#010002;;"/>
</svg>
