<?xml version="1.0" encoding="utf-8"?>
<!-- Generator: Adobe Illustrator 17.0.0, SVG Export Plug-In . SVG Version: 6.00 Build 0)  -->
<svg xmlns="http://www.w3.org/2000/svg" xmlns:xlink="http://www.w3.org/1999/xlink" version="1.1" id="Capa_1" x="0px" y="0px" width="32px" height="32px" viewBox="0 0 32 32" style="enable-background:new 0 0 32 32;" xml:space="preserve">

<path class="st0" d="M16,0C7.178,0,0,7.178,0,16s7.178,16,16,16s16-7.178,16-16S24.822,0,16,0z M16,2c7.72,0,14,6.28,14,14  c0,1.39-0.21,2.731-0.59,4H24V9.586l-8,8l-8-8V20H2.59C2.21,18.731,2,17.39,2,16C2,8.28,8.28,2,16,2z M16,30  c-5.571,0-10.377-3.278-12.63-8H10v-7.586l6,6l6-6V22h6.63C26.377,26.722,21.571,30,16,30z" style="fill:#010002;;"/>
</svg>
