<?xml version="1.0" encoding="utf-8"?>
<!-- Generator: Adobe Illustrator 17.0.0, SVG Export Plug-In . SVG Version: 6.00 Build 0)  -->
<svg xmlns="http://www.w3.org/2000/svg" xmlns:xlink="http://www.w3.org/1999/xlink" version="1.1" id="Capa_1" x="0px" y="0px" width="32px" height="32px" viewBox="0 0 32 32" style="enable-background:new 0 0 32 32;" xml:space="preserve">

<path class="st0" d="M32,16c0,0.338-0.03,0.668-0.051,1h-2C29.973,16.668,30,16.338,30,16c0-7.72-6.28-14-14-14  C10.832,2,6.319,4.823,3.894,9H1.635C4.238,3.681,9.69,0,16,0C24.822,0,32,7.178,32,16z M16,30C8.28,30,2,23.72,2,16  c0-0.338,0.027-0.668,0.051-1h-2C0.03,15.332,0,15.662,0,16c0,8.822,7.178,16,16,16c6.31,0,11.762-3.681,14.365-9h-2.259  C25.681,27.177,21.168,30,16,30z M24.502,19l1.023-2.444c0.001-0.002,0-0.005,0.001-0.007c0.621-1.315,0.604-2.616-0.055-3.67  C24.725,11.685,23.277,11,21.5,11c-1.446,0-2.956,0.727-4.066,1.827C16.677,11.667,15.25,11,13.5,11  c-0.587,0-1.184,0.125-1.762,0.339C11.555,11.134,11.296,11,11,11H0.811c-0.215,0.65-0.389,1.317-0.519,2h8.553l-2.767,6.614  c-0.213,0.509,0.027,1.095,0.537,1.309C6.74,20.976,6.871,21,7,21c0.391,0,0.763-0.23,0.923-0.614l2.012-4.81  C10.467,14.18,12.1,13,13.5,13c1.057,0,1.908,0.351,2.276,0.939c0.335,0.536,0.196,1.157-0.008,1.634l-1.691,4.041  c-0.213,0.509,0.027,1.095,0.537,1.309C14.74,20.976,14.871,21,15,21c0.391,0,0.763-0.23,0.923-0.614l1.674-4.001  c0.042-0.098,0.088-0.196,0.123-0.294l0.219-0.523C18.474,14.175,20.102,13,21.5,13c1.058,0,1.908,0.351,2.276,0.939  c0.372,0.594,0.165,1.303-0.073,1.793c-0.004,0.009-0.003,0.019-0.007,0.028c-0.004,0.009-0.012,0.015-0.016,0.024l-1.603,3.83  c-0.129,0.309-0.095,0.661,0.091,0.939C22.353,20.833,22.665,21,23,21h8.189c0.215-0.65,0.389-1.317,0.519-2H24.502z" style="fill:#010002;;"/>
</svg>
