<?xml version="1.0" encoding="utf-8"?>
<!-- Generator: Adobe Illustrator 17.0.0, SVG Export Plug-In . SVG Version: 6.00 Build 0)  -->
<svg xmlns="http://www.w3.org/2000/svg" xmlns:xlink="http://www.w3.org/1999/xlink" version="1.1" id="Capa_1" x="0px" y="0px" width="32px" height="32px" viewBox="0 0 32 32" style="enable-background:new 0 0 32 32;" xml:space="preserve">

<path class="st0" d="M16,0C7.178,0,0,7.178,0,16s7.178,16,16,16s16-7.178,16-16S24.822,0,16,0z M16,2c4.745,0,8.94,2.378,11.473,6  H27v0.001c-0.387,0.001-0.757,0.226-0.919,0.605l-3.933,9.177L11.673,8.26c-0.043-0.039-0.095-0.055-0.142-0.085  c-0.047-0.03-0.083-0.071-0.136-0.094c-0.011-0.005-0.022-0.003-0.033-0.007c-0.067-0.026-0.135-0.032-0.205-0.043  c-0.061-0.01-0.121-0.028-0.181-0.026c-0.056,0.001-0.108,0.02-0.163,0.031c-0.071,0.014-0.143,0.022-0.209,0.051  c-0.047,0.02-0.085,0.056-0.129,0.083c-0.067,0.042-0.133,0.081-0.189,0.139c-0.008,0.008-0.018,0.01-0.025,0.019  c-0.038,0.042-0.054,0.093-0.083,0.139c-0.031,0.048-0.073,0.085-0.096,0.14L4.159,22.424l-0.003-0.002l-0.07,0.173l-0.005,0.012  c0,0,0,0.001,0,0.001l-0.17,0.419C2.704,20.959,2,18.563,2,16C2,8.28,8.28,2,16,2z M10.686,12.272l0.68-1.588l9.948,9.044  l-0.68,1.587L10.686,12.272z M16,30c-4.745,0-8.94-2.378-11.473-6H5v0c0.388,0,0.757-0.227,0.919-0.606l3.933-9.177l10.475,9.523  c0.055,0.05,0.121,0.077,0.183,0.112c0.034,0.02,0.059,0.051,0.097,0.067c0.006,0.003,0.012,0.001,0.018,0.004  C20.745,23.972,20.872,24,21,24c0.123,0,0.24-0.03,0.353-0.073c0.031-0.012,0.059-0.026,0.089-0.041  c0.097-0.048,0.185-0.11,0.263-0.188c0.01-0.011,0.025-0.014,0.035-0.025c0.003-0.004,0.004-0.008,0.007-0.012  c0.069-0.078,0.128-0.166,0.172-0.267l6-14c0.004-0.008,0.002-0.017,0.005-0.025l0.171-0.386C29.299,11.049,30,13.442,30,16  C30,23.72,23.72,30,16,30z" style="fill:#010002;;"/>
</svg>
