<?xml version="1.0" encoding="utf-8"?>
<!-- Generator: Adobe Illustrator 17.0.0, SVG Export Plug-In . SVG Version: 6.00 Build 0)  -->
<svg xmlns="http://www.w3.org/2000/svg" xmlns:xlink="http://www.w3.org/1999/xlink" version="1.1" id="Capa_1" x="0px" y="0px" width="32px" height="32px" viewBox="0 0 32 32" style="enable-background:new 0 0 32 32;" xml:space="preserve">
<path d="M15.969,26.175c-0.156-4.5-1.527-7.287-2.871-9.965C11.662,13.347,10.18,10.391,10.016,5H11  c0.404,0,0.769-0.244,0.924-0.617c0.155-0.374,0.069-0.804-0.217-1.09l-2-2c-0.391-0.391-1.023-0.391-1.414,0l-2,2  c-0.286,0.286-0.372,0.716-0.217,1.09C6.231,4.756,6.596,5,7,5h1.017c0.17,5.874,1.824,9.178,3.294,12.107  c1.296,2.583,2.511,5.053,2.66,9.086C12.824,26.616,12,27.709,12,29c0,1.654,1.346,3,3,3s3-1.346,3-3  C18,27.687,17.147,26.58,15.969,26.175z M15,30c-0.551,0-1-0.448-1-1s0.449-1,1-1s1,0.448,1,1S15.551,30,15,30z M22.414,4  l1.793,1.793l-1.414,1.414l-0.874-0.874c-0.362,5.057-1.874,8.074-3.23,10.774c-0.58,1.156-1.14,2.293-1.602,3.549  c-0.295-0.975-0.645-1.877-1.014-2.745c0.272-0.579,0.55-1.144,0.829-1.701c1.295-2.581,2.625-5.243,2.995-9.692l-0.689,0.689  l-1.414-1.414L19.586,4l-1.793-1.793l1.414-1.414L21,2.586l1.793-1.793l1.414,1.414L22.414,4z"/>
</svg>
