<?xml version="1.0" encoding="utf-8"?>
<!-- Generator: Adobe Illustrator 17.0.0, SVG Export Plug-In . SVG Version: 6.00 Build 0)  -->
<svg xmlns="http://www.w3.org/2000/svg" xmlns:xlink="http://www.w3.org/1999/xlink" version="1.1" id="Capa_1" x="0px" y="0px" width="32px" height="32px" viewBox="0 0 32 32" style="enable-background:new 0 0 32 32;" xml:space="preserve">

<path class="st0" d="M3.37,10H1.178C3.557,4.144,9.3,0,16,0s12.443,4.144,14.822,10H28.63C26.377,5.278,21.571,2,16,2  S5.623,5.278,3.37,10z M16,30c-5.571,0-10.377-3.278-12.63-8H1.178C3.557,27.856,9.3,32,16,32s12.443-4.144,14.822-10H28.63  C26.377,26.722,21.571,30,16,30z M1.299,14h5.287l5.707,5.707C12.488,19.902,12.744,20,13,20s0.512-0.098,0.707-0.293  c0.391-0.391,0.391-1.023,0-1.414l-6-6c-0.092-0.092-0.203-0.165-0.325-0.216C7.26,12.027,7.13,12,7,12H1.299c-0.552,0-1,0.448-1,1  S0.747,14,1.299,14z M13,12c-0.552,0-1,0.448-1,1s0.448,1,1,1h5.586l5.706,5.706c0.092,0.093,0.203,0.166,0.326,0.217  C24.74,19.974,24.87,20,25,20h3c0.553,0,1-0.447,1-1s-0.447-1-1-1h-2.586l-5.706-5.706c-0.092-0.093-0.203-0.166-0.326-0.217  C19.26,12.027,19.13,12,19,12H13z M7,20c0.552,0,1-0.447,1-1s-0.448-1-1-1H1.299c-0.552,0-1,0.447-1,1s0.448,1,1,1H7z   M31.624,12.784C31.522,12.326,31.116,12,30.647,12H25c-0.553,0-1,0.448-1,1s0.447,1,1,1h4.828C29.938,14.621,30,15.237,30,16  c0,0.552,0.447,1,1,1s1-0.448,1-1C32,14.744,31.85,13.806,31.624,12.784z" style="fill:#010002;;"/>
</svg>
