<?xml version="1.0" encoding="utf-8"?>
<!-- Generator: Adobe Illustrator 17.0.0, SVG Export Plug-In . SVG Version: 6.00 Build 0)  -->
<svg xmlns="http://www.w3.org/2000/svg" xmlns:xlink="http://www.w3.org/1999/xlink" version="1.1" id="Capa_1" x="0px" y="0px" width="32px" height="32px" viewBox="0 0 32 32" style="enable-background:new 0 0 32 32;" xml:space="preserve">

<path class="st0" d="M16,1c0-0.552-0.448-1-1-1H1C0.448,0,0,0.448,0,1v10c0,0.552,0.448,1,1,1h4c-0.552,0-1,0.448-1,1s0.448,1,1,1h6  c0.552,0,1-0.448,1-1s-0.448-1-1-1h4c0.552,0,1-0.448,1-1V1z M14,10H2V2h12V10z M31,16H17c-0.552,0-1,0.448-1,1v10  c0,0.553,0.448,1,1,1h4c-0.553,0-1,0.447-1,1s0.447,1,1,1h6c0.553,0,1-0.447,1-1s-0.447-1-1-1h4c0.553,0,1-0.447,1-1V17  C32,16.448,31.553,16,31,16z M30,26H18v-8h12V26z M30,12h2v2h-2V12z M30,6h2v4h-2V6z M32,0v4h-2V2h-2V0H32z M26,2h-4V0h4V2z M20,2  h-2V0h2V2z M2,16H0v-2h2V16z M2,22H0v-4h2V22z M2,26h2v2H0v-4h2V26z M6,26h4v2H6V26z M12,26h2v2h-2V26z" style="fill:#010002;;"/>
</svg>
