<?xml version="1.0" encoding="utf-8"?>
<!-- Generator: Adobe Illustrator 17.0.0, SVG Export Plug-In . SVG Version: 6.00 Build 0)  -->
<svg xmlns="http://www.w3.org/2000/svg" xmlns:xlink="http://www.w3.org/1999/xlink" version="1.1" id="Capa_1" x="0px" y="0px" width="32px" height="32px" viewBox="0 0 32 32" style="enable-background:new 0 0 32 32;" xml:space="preserve">

<path class="st0" d="M16,0C7.178,0,0,7.178,0,16s7.178,16,16,16s16-7.178,16-16S24.822,0,16,0z M16,30C8.28,30,2,23.72,2,16  S8.28,2,16,2s14,6.28,14,14S23.72,30,16,30z M16.326,7.055C13.268,6,9.476,6,8,6H7v11c0,5.383,3.617,9,9,9h1  c5.636,0,9-3.162,9-8.458C26,12.93,22.564,9.206,16.326,7.055z M20.086,23.545c0.117-3.096-0.268-10.836-6.707-13.47  c-0.51-0.207-1.095,0.037-1.304,0.547c-0.209,0.511,0.036,1.095,0.547,1.304c5.569,2.278,5.565,9.802,5.436,12.029  C17.723,23.984,17.372,24,17,24h-0.438H16c-4.252,0-7-2.748-7-7V8.006c1.672,0.027,4.441,0.169,6.674,0.939  C19.473,10.255,24,12.81,24,17.542C24,19.466,23.412,22.424,20.086,23.545z" style="fill:#010002;;"/>
</svg>
