<?xml version="1.0" encoding="utf-8"?>
<!-- Generator: Adobe Illustrator 17.0.0, SVG Export Plug-In . SVG Version: 6.00 Build 0)  -->
<svg xmlns="http://www.w3.org/2000/svg" xmlns:xlink="http://www.w3.org/1999/xlink" version="1.1" id="Capa_1" x="0px" y="0px" width="32px" height="32px" viewBox="0 0 32 32" style="enable-background:new 0 0 32 32;" xml:space="preserve">

<path class="st0" d="M26.87,23.211l-2.364,3.82l-2.364-3.82l-2.363,3.819l-2.363-3.819L16,25.499V22h10.081l-4.139-6.686  l-3.267,6.359L16,17.023V14h5.128L15,4.1L8.871,14H14v3.054l-2.5,4.616l-3.442-6.356L3.919,22H14v3.415l-1.364-2.204l-2.364,3.82  l-2.364-3.82l-2.364,3.82l-2.364-3.82l-2.976,4.811h29.641L26.87,23.211z M15,7.9l2.538,4.1h-5.076L15,7.9z" style="fill:#010002;;"/>
</svg>
