<?xml version="1.0" encoding="utf-8"?>
<!-- Generator: Adobe Illustrator 17.0.0, SVG Export Plug-In . SVG Version: 6.00 Build 0)  -->
<svg xmlns="http://www.w3.org/2000/svg" xmlns:xlink="http://www.w3.org/1999/xlink" version="1.1" id="Capa_1" x="0px" y="0px" width="32px" height="32px" viewBox="0 0 32 32" style="enable-background:new 0 0 32 32;" xml:space="preserve">

<path class="st0" d="M16,0C7.178,0,0,7.178,0,16s7.178,16,16,16s16-7.178,16-16S24.822,0,16,0z M16,30C8.28,30,2,23.72,2,16  S8.28,2,16,2s14,6.28,14,14S23.72,30,16,30z M22,6h2v6c0,2.206-1.794,4-4,4h-3v6h5v2h-5v4h-2v-4h-5v-2h5v-6h-3c-2.206,0-4-1.794-4-4  V6h2v6c0,1.103,0.897,2,2,2h3V6h2v8h3c1.103,0,2-0.897,2-2V6z" style="fill:#010002;;"/>
</svg>
