<?xml version="1.0" encoding="utf-8"?>
<!-- Generator: Adobe Illustrator 17.0.0, SVG Export Plug-In . SVG Version: 6.00 Build 0)  -->
<svg xmlns="http://www.w3.org/2000/svg" xmlns:xlink="http://www.w3.org/1999/xlink" version="1.1" id="Capa_1" x="0px" y="0px" width="32px" height="32px" viewBox="0 0 32 32" style="enable-background:new 0 0 32 32;" xml:space="preserve">

<path class="st0" d="M27,12h-1v-2c0-5.514-4.486-10-10-10C10.486,0,6,4.486,6,10v2H5c-1.853,0-3,2.595-3,5c0,2.404,1.147,5,3,5h1  c0,5.738,7.657,10,10,10c3.335,0,10-4.323,10-10h1c1.853,0,3-2.596,3-5C30,14.595,28.853,12,27,12z M16,2  c4.165,0,7.593,3.201,7.963,7.271C22.021,8.428,19.356,8,16,8c-3.355,0-6.02,0.428-7.963,1.271C8.407,5.201,11.835,2,16,2z   M5.024,20.003C4.711,19.902,4,18.664,4,17c0-1.665,0.711-2.903,1-3h1v6.001L5.024,20.003z M16,30c-1.519,0-8-3.691-8-8V11.546  C9.63,10.55,12.43,10,16,10c3.57,0,6.37,0.55,8,1.546V22C24,26.297,18.634,30,16,30z M26.984,20H26v-6.001l0.976-0.001  C27.289,14.097,28,15.335,28,17C28,18.65,27.301,19.882,26.984,20z M21.638,22.229c0.426,0.353,0.484,0.982,0.133,1.408  C20.634,25.011,18.231,26,16.043,26c-0.012,0-0.024,0-0.036,0c-0.005,0-0.009,0-0.014,0c-0.012,0-0.024,0-0.036,0  c-2.188,0-4.59-0.988-5.728-2.362c-0.352-0.426-0.292-1.056,0.133-1.408s1.056-0.293,1.408,0.133C12.534,23.284,14.366,24,15.957,24  c0.015,0,0.033-0.001,0.043,0c0.017,0,0.029,0,0.043,0c1.59,0,3.422-0.715,4.186-1.638C20.583,21.937,21.213,21.878,21.638,22.229z   M10,17v-2c0-0.552,0.448-1,1-1s1,0.448,1,1v2c0,0.553-0.448,1-1,1S10,17.553,10,17z M22,15v2c0,0.553-0.447,1-1,1s-1-0.447-1-1v-2  c0-0.552,0.447-1,1-1S22,14.448,22,15z" style="fill:#010002;;"/>
</svg>
