<?xml version="1.0" encoding="utf-8"?>
<!-- Generator: Adobe Illustrator 17.0.0, SVG Export Plug-In . SVG Version: 6.00 Build 0)  -->
<svg xmlns="http://www.w3.org/2000/svg" xmlns:xlink="http://www.w3.org/1999/xlink" version="1.1" id="Capa_1" x="0px" y="0px" width="32px" height="32px" viewBox="0 0 32 32" style="enable-background:new 0 0 32 32;" xml:space="preserve">

<path class="st0" d="M15,4.1L0.205,28h29.59L15,4.1z M22.491,20H16v-4h4.014L22.491,20z M14,20H7.509L10,15.977V16h4V20z M14,22v4  h-3.75l1.667-4H14z M16,22h2.083l1.667,4H16V22z M20.25,22h3.479l2.476,4h-4.289L20.25,22z M18.776,14h-7.553L15,7.9L18.776,14z   M6.271,22H9.75l-1.667,4H3.795L6.271,22z" style="fill:#010002;;"/>
</svg>
