<?xml version="1.0" encoding="utf-8"?>
<!-- Generator: Adobe Illustrator 17.0.0, SVG Export Plug-In . SVG Version: 6.00 Build 0)  -->
<svg xmlns="http://www.w3.org/2000/svg" xmlns:xlink="http://www.w3.org/1999/xlink" version="1.1" id="Capa_1" x="0px" y="0px" width="32px" height="32px" viewBox="0 0 32 32" style="enable-background:new 0 0 32 32;" xml:space="preserve">

<path class="st0" d="M15.2,5.6C15.389,5.852,15.685,6,16,6s0.611-0.148,0.8-0.4l3-4c0.228-0.303,0.264-0.708,0.095-1.047  C19.725,0.214,19.379,0,19,0h-6c-0.379,0-0.725,0.214-0.895,0.553S11.973,1.297,12.2,1.6L15.2,5.6z M17,2l-1,1.333L15,2H17z   M22.92,14c0.047-0.328,0.08-0.66,0.08-1s-0.033-0.672-0.08-1H30v2H22.92z M19.974,16C20.609,15.162,21,14.13,21,13  c0-2.757-2.243-5-5-5s-5,2.243-5,5c0,1.13,0.391,2.162,1.026,3H3c-0.551,0-1-0.449-1-1s0.449-1,1-1h6.08C9.033,13.672,9,13.34,9,13  s0.033-0.672,0.08-1H3c-1.654,0-3,1.346-3,3v14c0,1.654,1.346,3,3,3h29V16H19.974z M13,13c0-1.654,1.346-3,3-3s3,1.346,3,3  s-1.346,3-3,3S13,14.654,13,13z M30,30H3c-0.551,0-1-0.448-1-1V17.829c0.086,0.03,0.178,0.047,0.267,0.07  c0.057,0.014,0.111,0.033,0.169,0.044C2.619,17.978,2.807,18,3,18h27V30z" style="fill:#010002;;"/>
</svg>
