<?xml version="1.0" encoding="utf-8"?>
<!-- Generator: Adobe Illustrator 17.0.0, SVG Export Plug-In . SVG Version: 6.00 Build 0)  -->
<svg xmlns="http://www.w3.org/2000/svg" xmlns:xlink="http://www.w3.org/1999/xlink" version="1.1" id="Capa_1" x="0px" y="0px" width="32px" height="32px" viewBox="0 0 32 32" style="enable-background:new 0 0 32 32;" xml:space="preserve">

<path class="st0" d="M16,0C7.178,0,0,7.178,0,16s7.178,16,16,16s16-7.178,16-16S24.822,0,16,0z M16,30C8.28,30,2,23.72,2,16  S8.28,2,16,2s14,6.28,14,14S23.72,30,16,30z M21,6c-2.757,0-5,2.243-5,5c0,1.017,0.309,1.962,0.833,2.753l-1.187,1.187L13.97,14.7  C13.811,12.085,11.654,10,9,10c-2.757,0-5,2.243-5,5s2.243,5,5,5c2.165,0,3.995-1.391,4.689-3.32l1.614,0.23l0.852,1.988  C14.855,19.802,14,21.301,14,23c0,2.757,2.243,5,5,5s5-2.243,5-5s-2.243-5-5-5c-0.346,0-0.684,0.036-1.011,0.103l-0.803-1.875  l1.061-1.061C19.038,15.691,19.983,16,21,16c2.757,0,5-2.243,5-5S23.757,6,21,6z M22,23c0,1.654-1.346,3-3,3s-3-1.346-3-3  s1.346-3,3-3S22,21.346,22,23z M9,18c-1.654,0-3-1.346-3-3s1.346-3,3-3s3,1.346,3,3S10.654,18,9,18z M21,14c-1.654,0-3-1.346-3-3  s1.346-3,3-3s3,1.346,3,3S22.654,14,21,14z" style="fill:#010002;;"/>
</svg>
