<?xml version="1.0" encoding="utf-8"?>
<!-- Generator: Adobe Illustrator 17.0.0, SVG Export Plug-In . SVG Version: 6.00 Build 0)  -->
<svg xmlns="http://www.w3.org/2000/svg" xmlns:xlink="http://www.w3.org/1999/xlink" version="1.1" id="Capa_1" x="0px" y="0px" width="32px" height="32px" viewBox="0 0 32 32" style="enable-background:new 0 0 32 32;" xml:space="preserve">

<path class="st0" d="M13,6h6c0.379,0,0.725-0.214,0.895-0.553C20.063,5.108,20.027,4.703,19.8,4.4l-3-4  c-0.377-0.504-1.223-0.504-1.6,0l-3,4c-0.228,0.303-0.264,0.708-0.095,1.047S12.621,6,13,6z M16,2.667L17,4h-2L16,2.667z M22.92,14  c0.047-0.328,0.08-0.66,0.08-1s-0.033-0.672-0.08-1H30v2H22.92z M19.974,16C20.609,15.162,21,14.13,21,13c0-2.757-2.243-5-5-5  s-5,2.243-5,5c0,1.13,0.391,2.162,1.026,3H3c-0.551,0-1-0.449-1-1s0.449-1,1-1h6.08C9.033,13.672,9,13.34,9,13s0.033-0.672,0.08-1H3  c-1.654,0-3,1.346-3,3v14c0,1.654,1.346,3,3,3h29V16H19.974z M13,13c0-1.654,1.346-3,3-3s3,1.346,3,3s-1.346,3-3,3S13,14.654,13,13z   M30,30H3c-0.551,0-1-0.448-1-1V17.829c0.086,0.03,0.178,0.047,0.267,0.07c0.057,0.014,0.111,0.033,0.169,0.044  C2.619,17.978,2.807,18,3,18h27V30z" style="fill:#010002;;"/>
</svg>
