<?xml version="1.0" encoding="utf-8"?>
<!-- Generator: Adobe Illustrator 17.0.0, SVG Export Plug-In . SVG Version: 6.00 Build 0)  -->
<svg xmlns="http://www.w3.org/2000/svg" xmlns:xlink="http://www.w3.org/1999/xlink" version="1.1" id="Capa_1" x="0px" y="0px" width="32px" height="32px" viewBox="0 0 32 32" style="enable-background:new 0 0 32 32;" xml:space="preserve">

<path class="st0" d="M16,0C7.178,0,0,7.178,0,16s7.178,16,16,16s16-7.178,16-16S24.822,0,16,0z M26,25.779V20c0-3.309-2.691-6-6-6  c-1.294,0-2.49,0.416-3.471,1.115l-4.83-4.83C11.887,9.894,12,9.462,12,9c0-1.654-1.346-3-3-3S6,7.346,6,9s1.346,3,3,3  c0.462,0,0.894-0.113,1.285-0.301l4.83,4.83C14.416,17.51,14,18.706,14,20c0,3.309,2.691,6,6,6h5.779c-2.526,2.47-5.976,4-9.779,4  C8.28,30,2,23.72,2,16S8.28,2,16,2s14,6.28,14,14C30,19.804,28.47,23.254,26,25.779z M20,16c2.206,0,4,1.794,4,4v4h-4  c-2.206,0-4-1.794-4-4S17.794,16,20,16z M9,10c-0.551,0-1-0.449-1-1s0.449-1,1-1s1,0.449,1,1S9.551,10,9,10z" style="fill:#010002;;"/>
</svg>
