<?xml version="1.0" encoding="utf-8"?>
<!-- Generator: Adobe Illustrator 17.0.0, SVG Export Plug-In . SVG Version: 6.00 Build 0)  -->
<svg xmlns="http://www.w3.org/2000/svg" xmlns:xlink="http://www.w3.org/1999/xlink" version="1.1" id="Capa_1" x="0px" y="0px" width="32px" height="32px" viewBox="0 0 32 32" style="enable-background:new 0 0 32 32;" xml:space="preserve">

<path class="st0" d="M16,0C7.178,0,0,7.178,0,16s7.178,16,16,16s16-7.178,16-16S24.822,0,16,0z M16,30C8.28,30,2,23.72,2,16  S8.28,2,16,2c3.756,0,7.164,1.495,9.681,3.91L24.88,6.007c-0.198,0.024-4.863,0.592-6.617,1.021  c-3.908,0.955-6.199,4.022-7.832,6.982c-2.304,0.059-6.397,0.508-6.406,2.968L4.022,17.76l3.96,1.004L6.41,21.503  C6.138,21.973,6,22.477,6,23c0,1.654,1.346,3,3,3c0.518,0,1.035-0.142,1.493-0.408l2.799-1.606L14.201,28H15  c2.537,0,2.94-4.335,2.992-6.316c3.035-1.785,6.519-4.556,6.998-8.048c0.236-1.72,0.989-6.43,0.997-6.478l0.13-0.809  C28.516,8.863,30,12.259,30,16C30,23.72,23.72,30,16,30z M11.369,22.783L9.493,23.86C8.805,24.26,8,23.719,8,23  c0-0.167,0.047-0.335,0.143-0.499l1.074-1.87l1.035,1.035L11.369,22.783z M9.117,16.575c-0.063,0.128-0.121,0.244-0.182,0.368  l-1.859-0.471c0.59-0.167,1.385-0.31,2.285-0.393C9.279,16.245,9.197,16.413,9.117,16.575z M15.919,22.801  c-0.08,0.812-0.214,1.539-0.37,2.096l-0.392-1.73C15.395,23.056,15.65,22.934,15.919,22.801z M15.465,20.79l-1.986,0.938  c-0.078,0.033-0.162,0.07-0.236,0.101l-3.009-3.009l1.599-3.198c1.502-2.869,3.481-5.813,6.904-6.65  c1.092-0.267,3.538-0.609,5.065-0.811c-0.243,1.541-0.632,4.024-0.793,5.203C22.586,16.447,18.602,19.17,15.465,20.79z M22,13  c0-1.654-1.346-3-3-3s-3,1.346-3,3s1.346,3,3,3S22,14.654,22,13z M19,14c-0.552,0-1-0.449-1-1s0.448-1,1-1s1,0.449,1,1  S19.552,14,19,14z" style="fill:#010002;;"/>
</svg>
