<?xml version="1.0" encoding="utf-8"?>
<!-- Generator: Adobe Illustrator 17.0.0, SVG Export Plug-In . SVG Version: 6.00 Build 0)  -->
<svg xmlns="http://www.w3.org/2000/svg" xmlns:xlink="http://www.w3.org/1999/xlink" version="1.1" id="Capa_1" x="0px" y="0px" width="32px" height="32px" viewBox="0 0 32 32" style="enable-background:new 0 0 32 32;" xml:space="preserve">

<path class="st0" d="M24,16c-1.846,0-3.542,0.634-4.898,1.688l-4.791-4.791C15.366,11.542,16,9.846,16,8c0-4.411-3.589-8-8-8  S0,3.589,0,8s3.589,8,8,8c1.846,0,3.542-0.634,4.898-1.688l4.791,4.791C16.634,20.458,16,22.154,16,24c0,4.411,3.589,8,8,8  s8-3.589,8-8S28.411,16,24,16z M8,14c-3.309,0-6-2.691-6-6s2.691-6,6-6s6,2.691,6,6c0,1.294-0.416,2.49-1.115,3.471l-2.96-2.96  C9.969,8.347,10,8.178,10,8c0-1.103-0.897-2-2-2S6,6.897,6,8s0.897,2,2,2c0.178,0,0.347-0.031,0.511-0.075l2.96,2.96  C10.49,13.584,9.294,14,8,14z M24,30c-3.309,0-6-2.691-6-6c0-1.294,0.416-2.49,1.115-3.471l2.971,2.971l-2.5,2.5H26v-6.414l-2.5,2.5  l-2.971-2.971C21.51,18.416,22.706,18,24,18c3.309,0,6,2.691,6,6S27.309,30,24,30z" style="fill:#010002;;"/>
</svg>
