<?xml version="1.0" encoding="utf-8"?>
<!-- Generator: Adobe Illustrator 17.0.0, SVG Export Plug-In . SVG Version: 6.00 Build 0)  -->
<svg xmlns="http://www.w3.org/2000/svg" xmlns:xlink="http://www.w3.org/1999/xlink" version="1.1" id="Capa_1" x="0px" y="0px" width="32px" height="32px" viewBox="0 0 32 32" style="enable-background:new 0 0 32 32;" xml:space="preserve">

<path class="st0" d="M26.528,17.882C26.676,17.961,26.838,18,27,18c0.194,0,0.388-0.057,0.555-0.168l3-2  C30.833,15.646,31,15.334,31,15s-0.167-0.646-0.445-0.832l-3-2c-0.307-0.205-0.702-0.224-1.026-0.05C26.203,12.292,26,12.631,26,13  v1h-8.066c-0.217-2.168-1.131-4.184-2.573-5.926C17.916,5.77,21.715,4.246,26,4.037V5c0,0.369,0.203,0.708,0.528,0.882  C26.676,5.961,26.838,6,27,6c0.194,0,0.388-0.057,0.555-0.168l3-2C30.833,3.646,31,3.334,31,3s-0.167-0.646-0.445-0.832l-3-2  c-0.307-0.206-0.702-0.224-1.026-0.05C26.203,0.292,26,0.631,26,1v1.039C21.195,2.254,16.919,3.99,14,6.64C10.879,3.807,6.212,2,1,2  H0v2h1c4.693,0,8.886,1.591,11.639,4.074c-1.442,1.742-2.355,3.758-2.573,5.926H0v2h10.066c0.217,2.168,1.131,4.184,2.573,5.926  C9.886,24.409,5.693,26,1,26H0v2h1c5.212,0,9.879-1.807,13-4.64c2.919,2.65,7.195,4.386,12,4.602V29  c0,0.369,0.203,0.708,0.528,0.882C26.676,29.961,26.838,30,27,30c0.194,0,0.388-0.057,0.555-0.168l3-2  C30.833,27.646,31,27.334,31,27s-0.167-0.646-0.445-0.832l-3-2c-0.307-0.204-0.702-0.224-1.026-0.05C26.203,24.292,26,24.631,26,25  v0.963c-4.285-0.209-8.084-1.733-10.639-4.037c1.442-1.742,2.355-3.758,2.573-5.926H26v1C26,17.369,26.203,17.708,26.528,17.882z   M14,20.464c-1.265-1.612-2-3.475-2-5.464s0.735-3.852,2-5.464c1.265,1.612,2,3.475,2,5.464S15.265,18.852,14,20.464z" style="fill:#010002;;"/>
</svg>
