<?xml version="1.0" encoding="utf-8"?>
<!-- Generator: Adobe Illustrator 17.0.0, SVG Export Plug-In . SVG Version: 6.00 Build 0)  -->
<svg xmlns="http://www.w3.org/2000/svg" xmlns:xlink="http://www.w3.org/1999/xlink" version="1.1" id="Capa_1" x="0px" y="0px" width="32px" height="32px" viewBox="0 0 32 32" style="enable-background:new 0 0 32 32;" xml:space="preserve">

<path class="st0" d="M21,10c2.757,0,5-2.243,5-5s-2.243-5-5-5s-5,2.243-5,5S18.243,10,21,10z M21,2c1.654,0,3,1.346,3,3  s-1.346,3-3,3s-3-1.346-3-3S19.346,2,21,2z M17.92,14c0.047-0.328,0.08-0.66,0.08-1s-0.033-0.672-0.08-1H30v2H17.92z M14.974,16  C15.609,15.162,16,14.13,16,13c0-2.757-2.243-5-5-5s-5,2.243-5,5c0,1.13,0.391,2.162,1.026,3H3c-0.551,0-1-0.449-1-1s0.449-1,1-1  h1.08C4.033,13.672,4,13.34,4,13s0.033-0.672,0.08-1H3c-1.654,0-3,1.346-3,3v14c0,1.654,1.346,3,3,3h29V16H14.974z M8,13  c0-1.654,1.346-3,3-3s3,1.346,3,3s-1.346,3-3,3S8,14.654,8,13z M30,30H3c-0.551,0-1-0.448-1-1V17.829  c0.086,0.03,0.178,0.047,0.267,0.07c0.057,0.014,0.111,0.033,0.169,0.044C2.619,17.978,2.807,18,3,18h27V30z" style="fill:#010002;;"/>
</svg>
