<?xml version="1.0" encoding="utf-8"?>
<!-- Generator: Adobe Illustrator 17.0.0, SVG Export Plug-In . SVG Version: 6.00 Build 0)  -->
<svg xmlns="http://www.w3.org/2000/svg" xmlns:xlink="http://www.w3.org/1999/xlink" version="1.1" id="Capa_1" x="0px" y="0px" width="32px" height="32px" viewBox="0 0 32 32" style="enable-background:new 0 0 32 32;" xml:space="preserve">

<path class="st0" d="M16,0C7.178,0,0,7.178,0,16s7.178,16,16,16s16-7.178,16-16S24.822,0,16,0z M16,30C8.28,30,2,23.72,2,16  S8.28,2,16,2s14,6.28,14,14S23.72,30,16,30z M22.008,7.915L22,7.928V8h-0.044l-9.61,16H22v2h-4v2h-4v-2h-4v-1.96l-0.007-0.004  L10,24.023V24h0.014l9.61-16H10V6h4V4h4v2h4v1.91L22.008,7.915z" style="fill:#010002;;"/>
</svg>
