<?xml version="1.0" encoding="utf-8"?>
<!-- Generator: Adobe Illustrator 17.0.0, SVG Export Plug-In . SVG Version: 6.00 Build 0)  -->
<svg xmlns="http://www.w3.org/2000/svg" xmlns:xlink="http://www.w3.org/1999/xlink" version="1.1" id="Capa_1" x="0px" y="0px" width="32px" height="32px" viewBox="0 0 32 32" style="enable-background:new 0 0 32 32;" xml:space="preserve">

<path class="st0" d="M31,0H1C0.448,0,0,0.448,0,1v30c0,0.553,0.448,1,1,1h30c0.553,0,1-0.447,1-1V1C32,0.448,31.553,0,31,0z M30,30  H2V2h28V30z M5,28h22c0.553,0,1-0.447,1-1V14c0-0.388-0.225-0.741-0.576-0.906c-0.349-0.163-0.765-0.111-1.064,0.138l-6,5  c-0.323,0.27-0.443,0.713-0.3,1.109C20.203,19.736,20.579,20,21,20h1v2h-8.338L27.658,9.752C27.876,9.563,28,9.289,28,9V5  c0-0.552-0.447-1-1-1H5C4.448,4,4,4.448,4,5v13c0,0.388,0.225,0.741,0.576,0.905c0.352,0.165,0.766,0.111,1.064-0.137l6-5  c0.323-0.27,0.443-0.712,0.3-1.108C11.797,12.264,11.421,12,11,12h-1v-2h8.339L4.341,22.247C4.125,22.438,4,22.712,4,23v4  C4,27.553,4.448,28,5,28z M6,23.454L21.658,9.752c0.313-0.274,0.425-0.714,0.278-1.104C21.79,8.258,21.417,8,21,8H9  C8.448,8,8,8.448,8,9v4c0,0.346,0.175,0.65,0.442,0.83L6,15.865V6h20v2.546L10.341,22.247c-0.313,0.274-0.424,0.715-0.277,1.104  C10.21,23.742,10.583,24,11,24h12c0.553,0,1-0.447,1-1v-4c0-0.346-0.176-0.65-0.442-0.83L26,16.135V26H6V23.454z" style="fill:#010002;;"/>
</svg>
