<?xml version="1.0" encoding="utf-8"?>
<!-- Generator: Adobe Illustrator 16.0.0, SVG Export Plug-In . SVG Version: 6.00 Build 0)  -->
<svg xmlns="http://www.w3.org/2000/svg" xmlns:xlink="http://www.w3.org/1999/xlink" version="1.1" id="2575378516_Capa_1_grid" x="0px" y="0px" width="32px" height="32px" viewBox="0 0 32 32" enable-background="new 0 0 32 32" xml:space="preserve">
<g>
	<path d="M28,19V2c0-2-2-2-2-2H4C2,0,2,2,2,2v28c0,2,2,2,2,2h24c2,0,2-2,2-2v-9L28,19z M24,2h2c0,0,0,1.68,0,4h-2V2z M24,8h2v4h-2V8   z M24,14h2v4h-2V14z M22,30H4C3.99,30,4,2,4,2c0-0.01,18,0,18,0V30z M28,30h-4V20h2.17L28,21.83V30z"/>
</g>
<g>
	<path d="M6,6v6h14V6H6z M18,10H8V8h10V10z"/>
</g>
</svg>
