<?xml version="1.0" encoding="utf-8"?>
<!-- Generator: Adobe Illustrator 16.0.0, SVG Export Plug-In . SVG Version: 6.00 Build 0)  -->
<svg xmlns="http://www.w3.org/2000/svg" xmlns:xlink="http://www.w3.org/1999/xlink" version="1.1" id="2575378515_Capa_1_grid" x="0px" y="0px" width="32px" height="32px" viewBox="0 0 32 32" enable-background="new 0 0 32 32" xml:space="preserve">
<g>
	<path d="M21,0H6C4,0,4,2,4,2v10h2V2.04C6,2.03,6,2.02,6.01,2H18v5c0,1.21,0.8,3,3,3h5v19.96c0,0.01,0,0.021-0.01,0.04H6v2h20   c2,0,2-2,2-2V7L21,0z M26,8h-5c-0.81,0-0.99-0.55-1-1V2h0.17L26,7.83V8z"/>
</g>
<rect x="8" y="8" width="8" height="2"/>
<rect x="12" y="12" width="12" height="2"/>
<rect x="12" y="16" width="12" height="2"/>
<rect x="18" y="20" width="6" height="2"/>
<rect x="16" y="24" width="8" height="2"/>
<rect x="8" y="12" width="2" height="2"/>
<path d="M2,15.608L12.227,22L2,28.392V15.608 M0,12v20l16-10L0,12L0,12z"/>
</svg>
