<?xml version="1.0" encoding="utf-8"?>
<!-- Generator: Adobe Illustrator 16.0.0, SVG Export Plug-In . SVG Version: 6.00 Build 0)  -->
<svg xmlns="http://www.w3.org/2000/svg" xmlns:xlink="http://www.w3.org/1999/xlink" version="1.1" id="2575378517_Capa_1_grid" x="0px" y="0px" width="32px" height="32px" viewBox="0 0 32 32" enable-background="new 0 0 32 32" xml:space="preserve">
<g>
	<path d="M12,22v-2h8V8H2v12h8v2H0v10h2v-2h18v2h2V22H12z M4,18v-8h14v8H4z M20,28H2v-4h18V28z"/>
</g>
<g>
	<polygon points="32,0 32,18 22,18 22,16 30,16 30,2 10,2 10,6 8,6 8,0  "/>
</g>
<g>
	<rect x="12" y="4" width="16" height="2"/>
</g>
<g>
	<rect x="22" y="8" width="6" height="2"/>
</g>
<g>
	<rect x="22" y="12" width="6" height="2"/>
</g>
</svg>
