<?xml version="1.0" encoding="utf-8"?>
<!-- Generator: Adobe Illustrator 16.0.0, SVG Export Plug-In . SVG Version: 6.00 Build 0)  -->
<svg xmlns="http://www.w3.org/2000/svg" xmlns:xlink="http://www.w3.org/1999/xlink" version="1.1" id="2575378518_Capa_1_grid" x="0px" y="0px" width="32px" height="32px" viewBox="0 0 32 32" enable-background="new 0 0 32 32" xml:space="preserve">
<g>
	<path d="M2,0v32h1.43l3.98-4h15.18l4.021,4H28V0H2z M22,26H8V6h14V26z M26,28.58l-2-1.99V4H6v22.59l-2,1.99V2h22V28.58z"/>
</g>
<g>
	<path d="M16,18h-2c0-2.008,0.795-2.982,1.376-3.694C15.809,13.777,16,13.521,16,13c0-0.805-0.55-0.988-1.012-1   c-0.793,0-0.977,0.55-0.988,1.012V14h-2v-1c0-1.206,0.799-3,3-3c1.206,0,3,0.799,3,3c0,1.255-0.596,1.985-1.074,2.571   C16.429,16.18,16,16.705,16,18z"/>
</g>
<g>
	<rect x="14" y="20" width="2" height="2"/>
</g>
</svg>
