<?xml version="1.0" encoding="utf-8"?>
<!-- Generator: Adobe Illustrator 16.0.0, SVG Export Plug-In . SVG Version: 6.00 Build 0)  -->
<svg xmlns="http://www.w3.org/2000/svg" xmlns:xlink="http://www.w3.org/1999/xlink" version="1.1" id="2575378519_Capa_1_grid" x="0px" y="0px" width="32px" height="32px" viewBox="0 0 32 32" enable-background="new 0 0 32 32" xml:space="preserve">
<g>
	<g>
		<path d="M25,0H7C4.8,0,4,1.79,4,3v26c0,2.2,1.79,3,3,3h18c2.2,0,3-1.79,3-3V3C28,0.8,26.21,0,25,0z M26,28.99    C25.99,29.45,25.81,30,25,30H7.01C6.55,29.99,6,29.81,6,29v-1h20V28.99z M26,26H6V6h20V26z M26,4H6V3.01C6.01,2.55,6.19,2,7,2    h17.99C25.45,2.01,26,2.19,26,3V4z"/>
	</g>
</g>
<g>
	<polygon points="12.917,20.497 8.219,14.625 9.781,13.375 13.083,17.503 22.293,8.293 23.707,9.707  "/>
</g>
<g>
	<rect x="18" y="18" width="6" height="2"/>
</g>
<g>
	<rect x="8" y="22" width="16" height="2"/>
</g>
</svg>
