<?xml version="1.0" encoding="utf-8"?>
<!-- Generator: Adobe Illustrator 16.0.0, SVG Export Plug-In . SVG Version: 6.00 Build 0)  -->
<svg xmlns="http://www.w3.org/2000/svg" xmlns:xlink="http://www.w3.org/1999/xlink" version="1.1" id="2575378520_Capa_1_grid" x="0px" y="0px" width="32px" height="32px" viewBox="0 0 32 32" enable-background="new 0 0 32 32" xml:space="preserve">
<path d="M30,2h-9l-2-2h-9c0,0-2,0-2,2v2h2V2h8l2,2c0,0,10-0.01,10,0v2H16v2h14c0,0,0.01,10,0,10H16v2h14c0,0,2,0,2-2V4  C32,4,32,2,30,2z"/>
<g>
	<path d="M6.026,22.145l1.31,1.965L9,26.605l1.664-2.496l1.309-1.963c2.7,0.852,3.592,5.228,3.885,7.854H2.138   C2.425,27.373,3.311,22.994,6.026,22.145 M11,20l-2,3l-2-3c-7,0-7,12-7,12h18C18,32,18,20,11,20L11,20z"/>
</g>
<g>
	<path d="M9,8c2.206,0,4,2.243,4,5s-1.794,5-4,5s-4-2.243-4-5S6.794,8,9,8 M9,6c-3.314,0-6,3.134-6,7c0,3.865,2.686,7,6,7   s6-3.135,6-7C15,9.134,12.314,6,9,6L9,6z"/>
</g>
</svg>
