<?xml version="1.0" encoding="utf-8"?>
<!-- Generator: Adobe Illustrator 16.0.0, SVG Export Plug-In . SVG Version: 6.00 Build 0)  -->
<svg xmlns="http://www.w3.org/2000/svg" xmlns:xlink="http://www.w3.org/1999/xlink" version="1.1" id="2575378521_Capa_1_grid" x="0px" y="0px" width="32px" height="32px" viewBox="0 0 32 32" enable-background="new 0 0 32 32" xml:space="preserve">
<path d="M24,4H14l-2-2H2c0,0-2,0-2,2v18c0,0,0,2,2,2h6v-2H2V10h22c0,0,0,0.81,0,2h2V6C26,6,26,4,24,4z M24,8H2V4h9l2,2  c0,0,11-0.01,11,0V8z"/>
<g>
	<path d="M31.92,21.61C31.79,21.3,28.57,14,21,14c-7.57,0-10.79,7.3-10.92,7.61c-0.11,0.25-0.11,0.529,0,0.779   C10.21,22.7,13.43,30,21,30c7.57,0,10.79-7.3,10.92-7.61C32.03,22.14,32.03,21.86,31.92,21.61z M16.27,17.38v-0.01   C17.54,16.57,19.11,16,21,16s3.45,0.56,4.72,1.35C25.9,17.87,26,18.42,26,19c0,2.76-2.24,5-5,5s-5-2.24-5-5   C16,18.43,16.09,17.89,16.27,17.38z M21,28c-5.4,0-8.17-4.59-8.89-6c0.3-0.56,0.92-1.63,1.91-2.71C14.16,23.03,17.23,26,21,26   c3.78,0,6.86-2.99,6.99-6.74C28.98,20.36,29.6,21.44,29.89,22C29.17,23.39,26.35,28,21,28z"/>
</g>
</svg>
