<?xml version="1.0" encoding="utf-8"?>
<!-- Generator: Adobe Illustrator 16.0.0, SVG Export Plug-In . SVG Version: 6.00 Build 0)  -->
<svg xmlns="http://www.w3.org/2000/svg" xmlns:xlink="http://www.w3.org/1999/xlink" version="1.1" id="2575378524_Capa_1_grid" x="0px" y="0px" width="32px" height="32px" viewBox="0 0 32 32" enable-background="new 0 0 32 32" xml:space="preserve">
<g>
	<path d="M25.71,30.29C25.69,30.28,24,28.56,24,26v-7c0-5.88-2.59-7.92-4.37-8.63L22,8V4H10v4l2.37,2.37C10.59,11.08,8,13.12,8,19v7   c0,2.53-1.69,4.28-1.71,4.29c-0.28,0.29-0.37,0.72-0.21,1.09C6.23,31.76,6.6,32,7,32h18c0.4,0,0.77-0.24,0.92-0.62   C26.08,31.01,25.99,30.58,25.71,30.29z M12,7.17V6h8v1.17L17.17,10h-2.34L12,7.17z M8.94,30C9.48,29.01,10,27.64,10,26v-7   c0-6.83,3.85-7,4-7h4c0.28,0.01,4,0.28,4,7v7c0,1.64,0.52,3.01,1.06,4H8.94z"/>
</g>
<g>
	<rect width="32" height="2"/>
</g>
<g>
	<polygon fill-rule="evenodd" clip-rule="evenodd" points="5,2 2,6 8,6  "/>
</g>
<g>
	<polygon fill-rule="evenodd" clip-rule="evenodd" points="27,2 24,6 30,6  "/>
</g>
</svg>
