<?xml version="1.0" encoding="utf-8"?>
<!-- Generator: Adobe Illustrator 16.0.0, SVG Export Plug-In . SVG Version: 6.00 Build 0)  -->
<svg xmlns="http://www.w3.org/2000/svg" xmlns:xlink="http://www.w3.org/1999/xlink" version="1.1" id="2575378523_Capa_1_grid" x="0px" y="0px" width="32px" height="32px" viewBox="0 0 32 32" enable-background="new 0 0 32 32" xml:space="preserve">
<g>
	<path d="M27.89,30.55C27.88,30.51,26,26.73,26,24v-7c0-6.24-3.9-8.16-6.25-8.75L24,4V0H8v4l4.25,4.25C9.9,8.84,6,10.76,6,17v7   c0,2.72-1.88,6.52-1.89,6.55c-0.16,0.311-0.14,0.681,0.04,0.98C4.33,31.82,4.65,32,5,32h22c0.35,0,0.67-0.18,0.85-0.47   C28.03,31.23,28.05,30.86,27.89,30.55z M10,3.17V2h12v1.17L17.17,8h-2.34L10,3.17z M6.54,30C7.16,28.49,8,26.06,8,24v-7   c0-6.76,5.39-7,6-7h4c0.25,0,6,0.08,6,7v7c0,2.06,0.84,4.49,1.46,6H6.54z"/>
</g>
</svg>
