<?xml version="1.0" encoding="utf-8"?>
<!-- Generator: Adobe Illustrator 16.0.0, SVG Export Plug-In . SVG Version: 6.00 Build 0)  -->
<svg xmlns="http://www.w3.org/2000/svg" xmlns:xlink="http://www.w3.org/1999/xlink" version="1.1" id="2575378525_Capa_1_grid" x="0px" y="0px" width="32px" height="32px" viewBox="0 0 32 32" enable-background="new 0 0 32 32" xml:space="preserve">
<g>
	<path d="M22,4V0H10v4H4v16h24V4H22z M12,2h8v2h-8V2z M26,18H6V6h2v2h2V6h12v2h2V6h2V18z"/>
</g>
<g>
	<polygon points="32,30 32,32 28,32 28,24 26,24 26,32 20,32 20,24 18,24 18,32 12,32 12,28 10,28 10,32 4,32 4,24 2,24 2,32 0,32    0,22 6,22 6,30 8,30 8,26 14,26 14,30 16,30 16,22 22,22 22,30 24,30 24,22 30,22 30,30  "/>
</g>
</svg>
