<?xml version="1.0" encoding="utf-8"?>
<!-- Generator: Adobe Illustrator 16.0.0, SVG Export Plug-In . SVG Version: 6.00 Build 0)  -->
<svg xmlns="http://www.w3.org/2000/svg" xmlns:xlink="http://www.w3.org/1999/xlink" version="1.1" id="2575378527_Capa_1_grid" x="0px" y="0px" width="32px" height="32px" viewBox="0 0 32 32" enable-background="new 0 0 32 32" xml:space="preserve">
<g>
	<path d="M28.03,26.61C29.26,25.07,30,23.12,30,21c0-4.97-4.03-9-9-9c-4.97,0-9,4.03-9,9c0,4.97,4.03,9,9,9   c2.12,0,4.07-0.74,5.61-1.97l3.68,3.68l1.42-1.42L28.03,26.61z M21,28c-3.86,0-7-3.14-7-7s3.14-7,7-7s7,3.14,7,7S24.86,28,21,28z"/>
</g>
<g>
	<path d="M12,4V2H8V0H6v2H2v8h4v4H2v2h4v2h2v-2h4V8H8V4H12z M6,8H4V4h2V8z M10,10v4H8v-4H10z"/>
</g>
</svg>
