<?xml version="1.0" encoding="utf-8"?>
<!-- Generator: Adobe Illustrator 16.0.0, SVG Export Plug-In . SVG Version: 6.00 Build 0)  -->
<svg xmlns="http://www.w3.org/2000/svg" xmlns:xlink="http://www.w3.org/1999/xlink" version="1.1" id="2575378526_Capa_1_grid" x="0px" y="0px" width="32px" height="32px" viewBox="0 0 32 32" enable-background="new 0 0 32 32" xml:space="preserve">
<g>
	<g>
		<path d="M9,6c-4.96,0-9,4.04-9,9s4.04,9,9,9c0.34,0,0.67-0.02,1-0.06V21.92C9.67,21.97,9.34,22,9,22c-3.86,0-7-3.14-7-7    c0-3.86,3.14-7,7-7c2.66,0,4.97,1.49,6.16,3.68l1.78-0.9C15.43,7.94,12.44,6,9,6z"/>
	</g>
</g>
<g>
	<g>
		<path d="M10,0v4h2V2h14v4H16v2h10v4h2V0H10z"/>
	</g>
</g>
<g>
	<path d="M28.03,26.61C29.26,25.07,30,23.12,30,21c0-4.97-4.03-9-9-9c-4.97,0-9,4.03-9,9c0,4.97,4.03,9,9,9   c2.12,0,4.07-0.74,5.61-1.97l3.68,3.68l1.42-1.42L28.03,26.61z M21,28c-3.86,0-7-3.14-7-7s3.14-7,7-7s7,3.14,7,7S24.86,28,21,28z"/>
</g>
<g>
	<path d="M10,11v8c0,0,0,1-1,1s-1-1-1-1v-8c0,0,0-1,1-1S10,11,10,11z"/>
</g>
</svg>
