<?xml version="1.0" encoding="utf-8"?>
<!-- Generator: Adobe Illustrator 16.0.0, SVG Export Plug-In . SVG Version: 6.00 Build 0)  -->
<svg xmlns="http://www.w3.org/2000/svg" xmlns:xlink="http://www.w3.org/1999/xlink" version="1.1" id="2575378529_Capa_1_grid" x="0px" y="0px" width="32px" height="32px" viewBox="0 0 32 32" enable-background="new 0 0 32 32" xml:space="preserve">
<g>
	<g>
		<path d="M15,4c7.168,0,13,5.832,13,13c0,7.168-5.832,13-13,13C7.832,30,2,24.168,2,17C2,9.832,7.832,4,15,4 M15,2    C6.716,2,0,8.716,0,17s6.716,15,15,15s15-6.716,15-15S23.284,2,15,2L15,2z"/>
	</g>
	<g>
		<polygon points="22,18 14,18 14,6 16,6 16,16 22,16   "/>
	</g>
</g>
</svg>
