<?xml version="1.0" encoding="utf-8"?>
<!-- Generator: Adobe Illustrator 16.0.0, SVG Export Plug-In . SVG Version: 6.00 Build 0)  -->
<svg xmlns="http://www.w3.org/2000/svg" xmlns:xlink="http://www.w3.org/1999/xlink" version="1.1" id="2575378531_Capa_1_grid" x="0px" y="0px" width="32px" height="32px" viewBox="0 0 32 32" enable-background="new 0 0 32 32" xml:space="preserve">
<g>
	<path d="M26,19c0,7.18-5.82,13-13,13C5.82,32,0,26.18,0,19C0,11.82,5.82,6,13,6c2.5,0,4.83,0.71,6.81,1.94L18.36,9.4   C16.78,8.51,14.95,8,13,8C6.93,8,2,12.93,2,19c0,6.07,4.93,11,11,11c6.07,0,11-4.93,11-11c0-1.95-0.5-3.77-1.39-5.35l1.449-1.46   C25.29,14.17,26,16.5,26,19z"/>
</g>
<g>
	<polygon points="20,18 20,20 12,20 12,10 14,10 14,18  "/>
</g>
<g>
	<g>
		<polygon points="32,0 32,10 30,10 30,3.42 17.71,15.71 16.29,14.29 28.58,2 22,2 22,0   "/>
	</g>
</g>
</svg>
