<?xml version="1.0" encoding="utf-8"?>
<!-- Generator: Adobe Illustrator 16.0.0, SVG Export Plug-In . SVG Version: 6.00 Build 0)  -->
<svg xmlns="http://www.w3.org/2000/svg" xmlns:xlink="http://www.w3.org/1999/xlink" version="1.1" id="2575378532_Capa_1_grid" x="0px" y="0px" width="32px" height="32px" viewBox="0 0 32 32" enable-background="new 0 0 32 32" xml:space="preserve">
<g>
	<path d="M16,4C9.08,4,3.31,8.33,2.2,14h2.04C5.36,9.44,10.2,6,16,6c2.18,0,4.23,0.49,6,1.35V5.16C20.18,4.42,18.15,4,16,4z    M29.8,14h-2.05c0.17,0.64,0.25,1.31,0.25,2c0,5.51-5.38,10-12,10c-1.7,0-3.33-0.29-4.84-0.85L10.75,25L6.5,27.13l1.01-4.05   l-0.43-0.4c-0.63-0.58-1.17-1.22-1.62-1.899L4.02,22.22c0.37,0.53,0.8,1.03,1.27,1.511L3.5,30.87l7.38-3.7   C12.5,27.72,14.22,28,16,28c7.72,0,14-5.38,14-12C30,15.32,29.93,14.65,29.8,14z"/>
</g>
<g>
	<polygon points="30,6 30,12 28,12 28,9.42 23.41,14 17.3,14 11.3,18 5.41,18 1.71,21.71 0.29,20.29 4.59,16 10.7,16 16.7,12    22.59,12 26.58,8 24,8 24,6  "/>
</g>
</svg>
