<?xml version="1.0" encoding="utf-8"?>
<!-- Generator: Adobe Illustrator 16.0.0, SVG Export Plug-In . SVG Version: 6.00 Build 0)  -->
<svg xmlns="http://www.w3.org/2000/svg" xmlns:xlink="http://www.w3.org/1999/xlink" version="1.1" id="2575378533_Capa_1_grid" x="0px" y="0px" width="32px" height="32px" viewBox="0 0 32 32" enable-background="new 0 0 32 32" xml:space="preserve">
<g>
	<path d="M12,8V7c0-1.21-0.8-3-3-3H8V2H6v2H5C3.79,4,2,4.8,2,7v2c0,1.21,0.8,3,3,3h1v4H5.01C4.55,15.99,4,15.81,4,15v-1H2v1   c0,2.2,1.79,3,3,3h1v2h2v-2h1c2.2,0,3-1.79,3-3v-2c0-2.2-1.79-3-3-3H8V6h1c0.8,0,0.99,0.54,1,1v1H12z M6,10H5   c-0.81,0-0.99-0.55-1-1V7c0-0.81,0.55-0.99,1-1h1V10z M8.99,12C9.45,12.01,10,12.19,10,13v1.99C9.99,15.45,9.81,16,9,16H8v-4H8.99z   "/>
</g>
<g>
	<path d="M28.109,26.54l1.779,0.91C29.84,27.55,28.58,30,25,30c-2.62,0-5.26-1.359-6.41-4H16v-2h2.061C18.02,23.68,18,23.34,18,23   s0.02-0.68,0.061-1H16v-2h2.59c1.15-2.641,3.79-4,6.41-4c3.58,0,4.84,2.45,4.891,2.55l-1.779,0.91C28.08,19.4,27.3,18,25,18   c-1.54,0-3.16,0.641-4.109,2H26v2h-5.91C20.029,22.311,20,22.65,20,23s0.029,0.689,0.09,1H26v2h-5.109c0.949,1.359,2.569,2,4.109,2   C27.3,28,28.08,26.6,28.109,26.54z"/>
</g>
<g>
	<rect x="15" y="-2.385" transform="matrix(-0.707 -0.7072 0.7072 -0.707 15.9963 38.627)" width="2" height="36.77"/>
</g>
</svg>
