<?xml version="1.0" encoding="utf-8"?>
<!-- Generator: Adobe Illustrator 16.0.0, SVG Export Plug-In . SVG Version: 6.00 Build 0)  -->
<svg xmlns="http://www.w3.org/2000/svg" xmlns:xlink="http://www.w3.org/1999/xlink" version="1.1" id="2575378534_Capa_1_grid" x="0px" y="0px" width="32px" height="32px" viewBox="0 0 32 32" enable-background="new 0 0 32 32" xml:space="preserve">
<g>
	<path d="M25,14l-2,3l-2-3c-1.19,0-2.18,0.35-3,0.93v2.85c0.53-0.771,1.19-1.37,2.03-1.63l1.31,1.96l1.66,2.5l1.66-2.5l1.31-1.96   C28.67,17,29.57,21.37,29.86,24H18v2h14C32,26,32,14,25,14z"/>
</g>
<g>
	<path d="M23,2c2.206,0,4,2.243,4,5s-1.794,5-4,5s-4-2.243-4-5S20.794,2,23,2L23,2z M23,0c-3.314,0-6,3.134-6,7c0,3.865,2.686,7,6,7   s6-3.135,6-7C29,3.134,26.314,0,23,0L23,0z"/>
</g>
<g>
	<path d="M14,12H2c0,0-2,0-2,2v16c0,0,0,2,2,2h12c0,0,2,0,2-2s0-16,0-16S16,12,14,12z M14,29.99C13.98,30,13.97,30,13.96,30H2.01   C2,29.98,2,29.97,2,29.96V28h12V29.99z M14,26H2v-8h12V26z M14,16H2v-1.99C2.02,14,2.03,14,2.04,14h11.95   C14,14.02,14,14.03,14,14.04V16z"/>
</g>
</svg>
