<?xml version="1.0" encoding="utf-8"?>
<!-- Generator: Adobe Illustrator 16.0.0, SVG Export Plug-In . SVG Version: 6.00 Build 0)  -->
<svg xmlns="http://www.w3.org/2000/svg" xmlns:xlink="http://www.w3.org/1999/xlink" version="1.1" id="2575378536_Capa_1_grid" x="0px" y="0px" width="32px" height="32px" viewBox="0 0 32 32" enable-background="new 0 0 32 32" xml:space="preserve">
<g>
	<path d="M30,4H16l-2-2H2c0,0-2,0-2,2v8h2v-2h28c0,0,0.01,18,0,18c0,0-6.56,0-12,0v2h12c0,0,2,0,2-2V6C32,6,32,4,30,4z M30,8H2V4   h11.17l2,2C15.17,6,30,5.99,30,6V8z"/>
</g>
<g>
	<path d="M15.32,24h2.161c-1.23,3.5-4.561,6-8.48,6c-4.97,0-9-4.03-9-9c0-4.97,4.03-9,9-9c3.92,0,7.25,2.5,8.48,6H15.32   c-1.12-2.36-3.53-4-6.32-4c-3.86,0-7,3.14-7,7s3.14,7,7,7C11.79,28,14.2,26.36,15.32,24z"/>
</g>
<g>
	<polygon points="26.41,21 21.71,25.71 20.29,24.29 22.59,22 8,22 8,20 22.59,20 20.29,17.71 21.71,16.29  "/>
</g>
</svg>
