<?xml version="1.0" encoding="utf-8"?>
<!-- Generator: Adobe Illustrator 16.0.0, SVG Export Plug-In . SVG Version: 6.00 Build 0)  -->
<svg xmlns="http://www.w3.org/2000/svg" xmlns:xlink="http://www.w3.org/1999/xlink" version="1.1" id="2575378537_Capa_1_grid" x="0px" y="0px" width="32px" height="32px" viewBox="0 0 32 32" enable-background="new 0 0 32 32" xml:space="preserve">
<path d="M12,27c0,0.553-0.448,1-1,1l0,0c-0.552,0-1-0.447-1-1V15c0-0.552,0.448-1,1-1l0,0c0.552,0,1,0.448,1,1V27z"/>
<path d="M11,12c4.962,0,9,4.038,9,9c0,4.963-4.038,9-9,9s-9-4.037-9-9C2,16.038,6.038,12,11,12 M11,10C4.925,10,0,14.925,0,21  s4.925,11,11,11s11-4.925,11-11S17.075,10,11,10L11,10z"/>
<path d="M21,0c-5.04,0-9.28,3.38-10.58,8c-0.01,0.01,2.1,0,2.1,0c1.24-3.49,4.57-6,8.48-6c4.96,0,9,4.04,9,9  c0,3.91-2.51,7.24-6,8.48v2.1c4.62-1.3,8-5.54,8-10.58C32,4.92,27.08,0,21,0z"/>
<polygon points="26,12 20,12 20,4 22,4 22,10 26,10 "/>
</svg>
