<?xml version="1.0" encoding="utf-8"?>
<!-- Generator: Adobe Illustrator 16.0.0, SVG Export Plug-In . SVG Version: 6.00 Build 0)  -->
<svg xmlns="http://www.w3.org/2000/svg" xmlns:xlink="http://www.w3.org/1999/xlink" version="1.1" id="2575378539_Capa_1_grid" x="0px" y="0px" width="32px" height="32px" viewBox="0 0 32 32" enable-background="new 0 0 32 32" xml:space="preserve">
<g>
	<path d="M29.05,30.44c-0.67,0.67-1.39,0.92-2.069,0.92c-0.891,0-1.69-0.44-2.171-0.92L16.72,22.35l1.419-1.409l8.08,8.079   c0.33,0.311,0.84,0.57,1.41,0c0.64-0.64,0.22-1.199,0-1.409l-8.08-8.091l1.42-1.409l8.08,8.08C29.9,27.04,30.61,28.88,29.05,30.44z   "/>
</g>
<g>
	<path d="M12.08,3.57c-1.45-1.45-3.06-2.18-4.79-2.18c-2.9,0-5.02,2.09-5.11,2.18C2.13,3.62,0.94,4.81,0.35,6.61   c-0.58,1.72-0.72,4.3,1.83,6.85c1.49,1.49,3.29,2.96,5.03,4.26l1.42-1.42c-1.75-1.31-3.57-2.78-5.04-4.25   c-3.41-3.41-0.35-6.71,0-7.07c0.02-0.02,1.65-1.59,3.7-1.59c1.18,0,2.32,0.53,3.37,1.59c1.06,1.06,2.14,2.32,3.14,3.6l0.56-2.49   C13.62,5.2,12.85,4.34,12.08,3.57z"/>
</g>
<g>
	<path d="M3.757,31.235c-0.524,0-1.308-0.16-2.07-0.922c-1.556-1.557-0.852-3.39,0-4.242l14.728-14.729   c-0.733-1.331-1.507-4.15,1.999-7.656c1.746-1.746,3.52-2.631,5.271-2.631c1.942,0,3.091,1.092,3.215,1.217l0.707,0.707   L22.95,7.636V9.05l1.415,0l4.656-4.657l0.707,0.707c0.035,0.035,3.479,3.592-1.414,8.485c-1.746,1.746-3.52,2.63-5.271,2.631   c-1.037,0-1.847-0.311-2.396-0.62L5.93,30.314C5.835,30.409,4.974,31.235,3.757,31.235z M23.686,3.056   c-1.202,0-2.5,0.688-3.857,2.045c-3.38,3.381-1.617,5.442-1.405,5.667l0.67,0.707l-0.679,0.698L3.102,27.485   c-0.31,0.326-0.569,0.845,0,1.414c0.336,0.336,0.576,0.336,0.655,0.336c0.35,0,0.704-0.28,0.759-0.335l16.021-16.021l0.707,0.707   c0.019,0.017,0.679,0.63,1.799,0.63c1.203,0,2.501-0.688,3.858-2.045c2.187-2.187,2.225-3.818,1.925-4.753l-3.632,3.632l-4.243,0   V6.808l3.618-3.618C24.319,3.111,24.023,3.056,23.686,3.056z"/>
</g>
</svg>
