<?xml version="1.0" encoding="utf-8"?>
<!-- Generator: Adobe Illustrator 16.0.0, SVG Export Plug-In . SVG Version: 6.00 Build 0)  -->
<svg xmlns="http://www.w3.org/2000/svg" xmlns:xlink="http://www.w3.org/1999/xlink" version="1.1" id="2575378540_Capa_1_grid" x="0px" y="0px" width="32px" height="32px" viewBox="0 0 32 32" enable-background="new 0 0 32 32" xml:space="preserve">
<g>
	<path d="M19.71,30.29C19.69,30.28,18,28.56,18,26v-3c0-5.88-2.59-7.92-4.37-8.63L16,12V8H4v4l2.37,2.37C4.59,15.08,2,17.12,2,23v3   c0,2.53-1.69,4.28-1.71,4.29c-0.28,0.29-0.37,0.72-0.21,1.09C0.23,31.76,0.6,32,1,32h18c0.4,0,0.77-0.24,0.92-0.62   C20.08,31.01,19.99,30.58,19.71,30.29z M6,11.17V10h8v1.17L11.17,14H8.83L6,11.17z M2.94,30C3.48,29.01,4,27.64,4,26v-3   c0-6.83,3.85-7,4-7h4c0.28,0.01,4,0.28,4,7v3c0,1.64,0.52,3.01,1.06,4H2.94z"/>
</g>
<g>
	<path d="M28,8V6h-4V4h-2v2h-4v6h4v2h-4v2h4v2h2v-2h4v-6h-4V8H28z M22,10h-2V8h2V10z M26,12v2h-2v-2H26z"/>
</g>
<g>
	<polygon points="32,0 32,22 20,22 20,20 30,20 30,2 16,2 16,6 14,6 14,0  "/>
</g>
</svg>
