<?xml version="1.0" encoding="utf-8"?>
<!-- Generator: Adobe Illustrator 16.0.0, SVG Export Plug-In . SVG Version: 6.00 Build 0)  -->
<svg xmlns="http://www.w3.org/2000/svg" xmlns:xlink="http://www.w3.org/1999/xlink" version="1.1" id="2575378542_Capa_1_grid" x="0px" y="0px" width="32px" height="32px" viewBox="0 0 32 32" enable-background="new 0 0 32 32" xml:space="preserve">
<g>
	<g>
		<path d="M27.62,24L24,16.77V0H14v4H6v12.77L2.39,24L2,24.78V32h26v-7.23L27.62,24z M8,6h8V2h6v14H8V6z M8,30H4v-4h4V30z M14,30h-4    v-4h4V30z M4.62,24l3-6h14.77l3,6H4.62z M20,30h-4v-4h4V30z M26,30h-4v-4h4V30z"/>
	</g>
</g>
<g>
	<rect x="18" y="4" width="2" height="2"/>
</g>
<g>
	<g>
		<rect x="18" y="8" width="2" height="2"/>
	</g>
</g>
<g>
	<g>
		<rect x="14" y="8" width="2" height="2"/>
	</g>
</g>
<g>
	<g>
		<rect x="10" y="8" width="2" height="2"/>
	</g>
</g>
<g>
	<g>
		<rect x="18" y="12" width="2" height="2"/>
	</g>
</g>
<g>
	<g>
		<rect x="14" y="12" width="2" height="2"/>
	</g>
</g>
<g>
	<g>
		<rect x="10" y="12" width="2" height="2"/>
	</g>
</g>
</svg>
