<?xml version="1.0" encoding="utf-8"?>
<!-- Generator: Adobe Illustrator 16.0.0, SVG Export Plug-In . SVG Version: 6.00 Build 0)  -->
<svg xmlns="http://www.w3.org/2000/svg" xmlns:xlink="http://www.w3.org/1999/xlink" version="1.1" id="2575378544_Capa_1_grid" x="0px" y="0px" width="32px" height="32px" viewBox="0 0 32 32" enable-background="new 0 0 32 32" xml:space="preserve">
<g>
	<g>
		<path d="M27.69,16l-3-8H28V6H18v2h5.31l-3,8H18v2h12v-2H27.69z M22.44,16L24,11.85L25.56,16H22.44z"/>
		<path d="M12,6H2v2h3.31l-3,8H0v2h12v-2H9.69l-3-8H12V6z M7.56,16H4.44L6,11.85L7.56,16z"/>
		<polygon points="20,28 20,30 10,30 10,28 14,28 14,14 16,14 16,28   "/>
	</g>
</g>
<g>
	<g>
		<rect x="2" y="20" width="8" height="2"/>
	</g>
</g>
<g>
	<g>
		<rect x="20" y="20" width="8" height="2"/>
	</g>
</g>
<g>
	<path d="M18,3c0,1.26-0.6,1.98-1.07,2.57C16.43,6.18,16,6.71,16,8h-2c0-2.01,0.8-2.98,1.38-3.69C15.81,3.78,16,3.52,16,3   c0-0.81-0.55-0.99-1.01-1c-0.8,0-0.98,0.55-0.99,1.01V4h-2V3c0-1.21,0.8-3,3-3C16.21,0,18,0.8,18,3z"/>
</g>
<g>
	<rect x="14" y="10" width="2" height="2"/>
</g>
</svg>
