<?xml version="1.0" encoding="utf-8"?>
<!-- Generator: Adobe Illustrator 16.0.0, SVG Export Plug-In . SVG Version: 6.00 Build 0)  -->
<svg xmlns="http://www.w3.org/2000/svg" xmlns:xlink="http://www.w3.org/1999/xlink" version="1.1" id="2575378545_Capa_1_grid" x="0px" y="0px" width="32px" height="32px" viewBox="0 0 32 32" enable-background="new 0 0 32 32" xml:space="preserve">
<g>
	<path d="M30,22v-8h-6v-4h-8V8h8V0H6v8h8v2H6v4H0v8h6v2H0v8h14v-8H8v-2h6v-8H8v-2h14v2h-6v8h6v2h-6v8h14v-8h-6v-2H30z M12,26v4H2v-4   H12z M12,16v4H2v-4H12z M8,6V2h14v4H8z M28,26v4H18v-4H28z M18,20v-4h10v4H18z"/>
</g>
</svg>
