<?xml version="1.0" encoding="utf-8"?>
<!-- Generator: Adobe Illustrator 16.0.0, SVG Export Plug-In . SVG Version: 6.00 Build 0)  -->
<svg xmlns="http://www.w3.org/2000/svg" xmlns:xlink="http://www.w3.org/1999/xlink" version="1.1" id="2575378549_Capa_1_grid" x="0px" y="0px" width="32px" height="32px" viewBox="0 0 32 32" enable-background="new 0 0 32 32" xml:space="preserve">
<path d="M25.93,10.81C25.34,5.85,21.12,2,16,2s-9.34,3.85-9.93,8.81C2.5,12.33,0,15.88,0,20c0,5.52,4.48,10,10,10  c2.25,0,4.33-0.75,6-2.01c1.67,1.26,3.75,2.01,6,2.01c5.52,0,10-4.48,10-10C32,15.88,29.5,12.33,25.93,10.81z M17.5,13.4  c1.28-0.88,2.83-1.4,4.5-1.4c0.69,0,1.36,0.09,1.99,0.25c-0.08,2.87-1.69,5.36-4.04,6.7C19.72,16.83,18.84,14.91,17.5,13.4z   M17.99,19.75C17.36,19.91,16.69,20,16,20s-1.36-0.09-1.99-0.25c0.05-1.92,0.8-3.68,1.99-5.03C17.19,16.07,17.94,17.83,17.99,19.75z   M16,4c3.78,0,6.95,2.63,7.79,6.16C23.21,10.06,22.61,10,22,10c-2.25,0-4.33,0.75-6,2.01C14.33,10.75,12.25,10,10,10  c-0.61,0-1.21,0.06-1.79,0.16C9.05,6.63,12.22,4,16,4z M10,12c1.67,0,3.22,0.52,4.5,1.4c-1.34,1.51-2.22,3.43-2.45,5.55  c-2.35-1.34-3.96-3.83-4.04-6.7C8.64,12.09,9.31,12,10,12z M10,28c-4.41,0-8-3.59-8-8c0-2.97,1.63-5.57,4.05-6.95  c0.39,3.67,2.76,6.75,6.02,8.141c0.25,2.06,1.12,3.93,2.43,5.409C13.22,27.48,11.67,28,10,28z M14.21,21.84  C14.79,21.94,15.39,22,16,22s1.21-0.06,1.79-0.16c-0.31,1.3-0.94,2.47-1.79,3.44C15.15,24.31,14.52,23.14,14.21,21.84z M22,28  c-1.67,0-3.22-0.52-4.5-1.4c1.31-1.479,2.18-3.35,2.43-5.409c3.261-1.391,5.63-4.47,6.021-8.141C28.37,14.43,30,17.03,30,20  C30,24.41,26.41,28,22,28z"/>
</svg>
