<?xml version="1.0" encoding="utf-8"?>
<!-- Generator: Adobe Illustrator 16.0.0, SVG Export Plug-In . SVG Version: 6.00 Build 0)  -->
<svg xmlns="http://www.w3.org/2000/svg" xmlns:xlink="http://www.w3.org/1999/xlink" version="1.1" id="2575378550_Capa_1_grid" x="0px" y="0px" width="32px" height="32px" viewBox="0 0 32 32" enable-background="new 0 0 32 32" xml:space="preserve">
<g>
	<g>
		<path d="M15.41,0H4C2,0,2,2,2,2v2h2V2h8v4c0,0.97,0.7,2,2,2h6V4.59L15.41,0z M18,6h-4V2h0.59L18,5.41V6z M4,14H2v6c0,2,2,2,2,2h6    v-2c-3.14,0-6,0-6,0V14z"/>
	</g>
</g>
<path d="M4,8v2H2V8H4 M6,6H0v6h6V6L6,6z"/>
<g>
	<g>
		<path d="M27.41,10H16c-2,0-2,2-2,2v2h2v-2h8v4c0,0.97,0.7,2,2,2h4v12c0,0.01-14,0-14,0v-6h-2v6c0,2,2,2,2,2h14c2,0,2-2,2-2V14.59    L27.41,10z M26,16v-4h0.59L30,15.41V16H26z"/>
	</g>
</g>
<path d="M16,18v2h-2v-2H16 M18,16h-6v6h6V16L18,16z"/>
</svg>
