<?xml version="1.0" encoding="utf-8"?>
<!-- Generator: Adobe Illustrator 16.0.0, SVG Export Plug-In . SVG Version: 6.00 Build 0)  -->
<svg xmlns="http://www.w3.org/2000/svg" xmlns:xlink="http://www.w3.org/1999/xlink" version="1.1" id="2575378551_Capa_1_grid" x="0px" y="0px" width="32px" height="32px" viewBox="0 0 32 32" enable-background="new 0 0 32 32" xml:space="preserve">
<g>
	<g>
		<path d="M6,27c0-0.55,0.45-1,1-1h7v-2H5c-0.55,0-1-0.45-1-1s0.45-1,1-1h9v-2H3c-0.55,0-1-0.45-1-1s0.45-1,1-1h11v-2H5    c-0.55,0-1-0.45-1-1s0.45-1,1-1h14c0.05,0,0.11,0,0.16-0.01c0.439-0.07,0.81-0.4,0.939-0.85c0.261-0.86-0.229-1.97-3.43-4.88    c-1.55-1.41-0.98-2.49-0.84-2.7c0.01,0,0.32-0.39,0.85-0.46c0.61-0.07,1.26,0.33,1.69,0.68c1.01,0.81,3.21,2.56,5.28,4.22h3.189    c-2.46-1.98-5.87-4.71-7.21-5.78c-1.1-0.88-2.189-1.24-3.25-1.1c-1.37,0.19-2.11,1.19-2.19,1.3c-0.64,0.9-1.23,3.17,1.14,5.32    c1.15,1.05,1.84,1.78,2.25,2.26H5c-1.65,0-3,1.35-3,3c0,0.39,0.08,0.77,0.22,1.11C0.94,16.45,0,17.62,0,19s0.94,2.55,2.22,2.89    C2.08,22.23,2,22.61,2,23c0,1.38,0.94,2.55,2.22,2.89C4.08,26.23,4,26.61,4,27c0,1.65,1.35,3,3,3h25v-2H7C6.45,28,6,27.55,6,27z"/>
	</g>
</g>
<g>
	<polygon points="21,24.414 16.293,19.707 17.707,18.293 21,21.586 30.293,12.293 31.707,13.707  "/>
</g>
</svg>
