<?xml version="1.0" encoding="utf-8"?>
<!-- Generator: Adobe Illustrator 16.0.0, SVG Export Plug-In . SVG Version: 6.00 Build 0)  -->
<svg xmlns="http://www.w3.org/2000/svg" xmlns:xlink="http://www.w3.org/1999/xlink" version="1.1" id="2575378552_Capa_1_grid" x="0px" y="0px" width="32px" height="32px" viewBox="0 0 32 32" enable-background="new 0 0 32 32" xml:space="preserve">
<g>
	<path d="M31,10h-7.32c-1.33-2.91-4.229-3.9-4.359-3.95C19.21,6.02,19.109,6,19,6h-5c-2.92,0-6.33,2.98-7.4,4H1c-0.55,0-1,0.45-1,1   v10c0,0.55,0.45,1,1,1h3.65l9.73,7.779C14.56,29.93,14.78,30,15,30c0.15,0,0.31-0.04,0.45-0.109l4-2   c4.51-2.25,5.92-4.591,6.358-5.891H31c0.55,0,1-0.45,1-1V11C32,10.45,31.55,10,31,10z M2,20v-8h5c0.27,0,0.52-0.11,0.71-0.29   C8.74,10.68,11.88,8,14,8h4.82c0.68,0,2.763,1.125,3.18,4l0,0c0,0.81,0,2-1.5,2c-2,0-2.52-2.23-2.55-2.32   c-0.101-0.3-0.341-0.54-0.65-0.63c-0.31-0.1-0.64-0.04-0.9,0.15L4.67,20H2z M30,20h-5c-0.529,0-0.971,0.439-1,0.971   c0,0.029-0.221,2.521-5.45,5.141l-3.43,1.709l-1.61-1.289l4.04-2.7c0.46-0.3,0.591-0.92,0.28-1.38c-0.301-0.46-0.93-0.59-1.38-0.28   l-4.58,3.05l-1.54-1.229l3.22-2.16c0.46-0.3,0.59-0.93,0.28-1.38c-0.3-0.46-0.93-0.591-1.38-0.28l-3.77,2.5l-2.05-1.64   l10.021-7.521C17.33,14.59,18.68,16,21,16c1.21,0,3-0.8,3-3v-1h6V20z"/>
</g>
</svg>
