<?xml version="1.0" encoding="utf-8"?>
<!-- Generator: Adobe Illustrator 16.0.0, SVG Export Plug-In . SVG Version: 6.00 Build 0)  -->
<svg xmlns="http://www.w3.org/2000/svg" xmlns:xlink="http://www.w3.org/1999/xlink" version="1.1" id="2575378554_Capa_1_grid" x="0px" y="0px" width="32px" height="32px" viewBox="0 0 32 32" enable-background="new 0 0 32 32" xml:space="preserve">
<g>
	<path d="M24,31v1h-2v-1c0-3.3-2-4.52-2.859-4.891L16,28.2l-3.14-2.091C12,26.48,10,27.7,10,31v1H8v-1c0-4.57,3.11-6.561,4.76-6.971   l0.43-0.109L16,25.8l2.811-1.88l0.432,0.109C20.891,24.439,24,26.43,24,31z"/>
</g>
<g>
	<path d="M24,2c2.206,0,4,1.794,4,4s-1.794,4-4,4s-4-1.794-4-4S21.794,2,24,2 M24,0c-3.313,0-6,2.687-6,6s2.688,6,6,6s6-2.687,6-6   S27.313,0,24,0L24,0z"/>
</g>
<g>
	<path d="M8,2c2.206,0,4,1.794,4,4s-1.794,4-4,4S4,8.206,4,6S5.794,2,8,2 M8,0C4.687,0,2,2.687,2,6s2.687,6,6,6s6-2.687,6-6   S11.313,0,8,0L8,0z"/>
</g>
<g>
	<path d="M27.24,12.03l-0.432-0.11L24,13.8l-2.811-1.88l-0.432,0.11c-0.479,0.12-1.09,0.38-1.72,0.8C18.15,12.3,17.109,12,16,12   c-1.11,0-2.15,0.3-3.04,0.83c-0.63-0.42-1.24-0.68-1.72-0.8l-0.43-0.11L8,13.8l-2.81-1.88l-0.43,0.11C3.11,12.44,0,14.43,0,19v1h2   v-1c0-3.3,2-4.52,2.86-4.89L8,16.2l3.14-2.09c0.06,0.03,0.14,0.06,0.21,0.1C10.5,15.24,10,16.561,10,18c0,3.311,2.69,6,6,6   c3.311,0,6-2.689,6-6c0-1.439-0.5-2.76-1.35-3.79c0.067-0.04,0.147-0.07,0.209-0.1L24,16.2l3.141-2.09C28,14.48,30,15.7,30,19v1h2   v-1C32,14.43,28.891,12.44,27.24,12.03z M16,22c-2.21,0-4-1.79-4-4s1.79-4,4-4s4,1.79,4,4S18.21,22,16,22z"/>
</g>
</svg>
