<?xml version="1.0" encoding="utf-8"?>
<!-- Generator: Adobe Illustrator 16.0.0, SVG Export Plug-In . SVG Version: 6.00 Build 0)  -->
<svg xmlns="http://www.w3.org/2000/svg" xmlns:xlink="http://www.w3.org/1999/xlink" version="1.1" id="2575378555_Capa_1_grid" x="0px" y="0px" width="32px" height="32px" viewBox="0 0 32 32" enable-background="new 0 0 32 32" xml:space="preserve">
<g>
	<path d="M16,2C10.49,2,6,6.49,6,12c0,3.26,1.57,6.17,4,8v8c0,0,1,4,6,4s6-4,6-4v-8c2.43-1.83,4-4.74,4-8C26,6.49,21.51,2,16,2z    M16,30c-2.46,0-3.48-1.25-3.86-2h7.709C19.48,28.721,18.45,30,16,30z M20,26h-8v-4h8V26z M16,20c-4.41,0-8-3.59-8-8s3.59-8,8-8   s8,3.59,8,8S20.41,20,16,20z"/>
</g>
</svg>
