<?xml version="1.0" encoding="utf-8"?>
<!-- Generator: Adobe Illustrator 16.0.0, SVG Export Plug-In . SVG Version: 6.00 Build 0)  -->
<svg xmlns="http://www.w3.org/2000/svg" xmlns:xlink="http://www.w3.org/1999/xlink" version="1.1" id="2575378556_Capa_1_grid" x="0px" y="0px" width="32px" height="32px" viewBox="0 0 32 32" enable-background="new 0 0 32 32" xml:space="preserve">
<g>
	<path d="M26.46,6l-4,6H22V6h-5.54l-4,6H10V2H0v28h32V6H26.46z M14,28H6v-8h8V28z M30,28H16V18H4v10H2V12h4v-2H2V8h4V6H2V4h6v10   h5.54l4-6H20v6h3.54l4-6H30V28z"/>
</g>
<g>
	<path d="M18,18v6h10v-6H18z M26,22h-6v-2h6V22z"/>
</g>
</svg>
