<?xml version="1.0" encoding="utf-8"?>
<!-- Generator: Adobe Illustrator 16.0.0, SVG Export Plug-In . SVG Version: 6.00 Build 0)  -->
<svg xmlns="http://www.w3.org/2000/svg" xmlns:xlink="http://www.w3.org/1999/xlink" version="1.1" id="2575378557_Capa_1_grid" x="0px" y="0px" width="32px" height="32px" viewBox="0 0 32 32" enable-background="new 0 0 32 32" xml:space="preserve">
<g>
	<g>
		<g>
			<rect x="8" y="28" width="2" height="2"/>
		</g>
	</g>
</g>
<g>
	<g>
		<g>
			<rect x="8" y="24" width="2" height="2"/>
		</g>
	</g>
</g>
<g>
	<g>
		<g>
			<rect x="8" y="20" width="2" height="2"/>
		</g>
	</g>
</g>
<g>
	<g>
		<g>
			<rect x="4" y="28" width="2" height="2"/>
		</g>
	</g>
</g>
<g>
	<g>
		<g>
			<rect x="4" y="24" width="2" height="2"/>
		</g>
	</g>
</g>
<g>
	<g>
		<g>
			<rect x="4" y="20" width="2" height="2"/>
		</g>
	</g>
</g>
<g>
	<g>
		<path d="M14,16v16h-2V18H5c-2.82,0-2.99,2.5-3,3.01V32H0V21c0-1.73,1.04-5,5-5H14z"/>
		<path d="M30,21v11h-2V21c-0.01-0.5-0.18-3-3-3h-7v14h-2V16h9C28.96,16,30,19.27,30,21z"/>
	</g>
</g>
<g>
	<g>
		<g>
			<rect x="20" y="28" width="2" height="2"/>
		</g>
	</g>
</g>
<g>
	<g>
		<g>
			<rect x="20" y="24" width="2" height="2"/>
		</g>
	</g>
</g>
<g>
	<g>
		<g>
			<rect x="20" y="20" width="2" height="2"/>
		</g>
	</g>
</g>
<g>
	<g>
		<g>
			<rect x="24" y="28" width="2" height="2"/>
		</g>
	</g>
</g>
<g>
	<g>
		<g>
			<rect x="24" y="24" width="2" height="2"/>
		</g>
	</g>
</g>
<g>
	<g>
		<g>
			<rect x="24" y="20" width="2" height="2"/>
		</g>
	</g>
</g>
<g>
	<polygon points="19.71,9.71 15,14.41 10.29,9.71 11.71,8.29 14,10.59 14,2 16,2 16,10.59 18.29,8.29  "/>
</g>
</svg>
