<?xml version="1.0" encoding="utf-8"?>
<!-- Generator: Adobe Illustrator 16.0.0, SVG Export Plug-In . SVG Version: 6.00 Build 0)  -->
<svg xmlns="http://www.w3.org/2000/svg" xmlns:xlink="http://www.w3.org/1999/xlink" version="1.1" id="2575378558_Capa_1_grid" x="0px" y="0px" width="32px" height="32px" viewBox="0 0 32 32" enable-background="new 0 0 32 32" xml:space="preserve">
<g>
	<g>
		<path d="M28,2V0H9C5.04,0,4,3.27,4,5v22c0,0,0,5,5,5h19V8h-2V2H28z M9,2h15v6H9C6,8,6,5,6,5S6,2,9,2z M26,30H9c-3,0-3-3-3-3V9.12    C6.73,9.65,7.71,10,9,10h17V30z"/>
	</g>
</g>
<g>
	<rect x="8" y="12" width="8" height="2"/>
</g>
<g>
	<rect x="12" y="16" width="12" height="2"/>
</g>
<g>
	<rect x="12" y="20" width="12" height="2"/>
</g>
<g>
	<rect x="12" y="24" width="12" height="2"/>
</g>
<g>
	<rect x="8" y="16" width="2" height="2"/>
</g>
<g>
	<rect x="8" y="20" width="2" height="2"/>
</g>
<g>
	<rect x="8" y="24" width="2" height="2"/>
</g>
</svg>
