<?xml version="1.0" encoding="utf-8"?>
<!-- Generator: Adobe Illustrator 16.0.0, SVG Export Plug-In . SVG Version: 6.00 Build 0)  -->
<svg xmlns="http://www.w3.org/2000/svg" xmlns:xlink="http://www.w3.org/1999/xlink" version="1.1" id="2575378559_Capa_1_grid" x="0px" y="0px" width="32px" height="32px" viewBox="0 0 32 32" enable-background="new 0 0 32 32" xml:space="preserve">
<g>
	<path d="M30,4H16l-2-2H2c0,0-2,0-2,2v24c0,0,0,2,2,2h28c0,0,2,0,2-2V6C32,6,32,4,30,4z M30,28c0,0-28,0.01-28,0V10h28   C30,10,30.01,28,30,28z M30,8H2V4h11.17l2,2C15.17,6,30,5.99,30,6V8z"/>
</g>
<g>
	<path d="M8,14v2H6v-2H8 M10,12H4v6h6V12L10,12z"/>
</g>
<g>
	<rect x="12" y="14" width="16" height="2"/>
</g>
<g>
	<path d="M8,22v2H6v-2H8 M10,20H4v6h6V20L10,20z"/>
</g>
<g>
	<rect x="12" y="22" width="16" height="2"/>
</g>
</svg>
