<?xml version="1.0" encoding="utf-8"?>
<!-- Generator: Adobe Illustrator 16.0.0, SVG Export Plug-In . SVG Version: 6.00 Build 0)  -->
<svg xmlns="http://www.w3.org/2000/svg" xmlns:xlink="http://www.w3.org/1999/xlink" version="1.1" id="2575378562_Capa_1_grid" x="0px" y="0px" width="32px" height="32px" viewBox="0 0 32 32" enable-background="new 0 0 32 32" xml:space="preserve">
<g>
	<path d="M18,2V0H4C2.39,0,0,1.07,0,4v17c0,2.2,1.79,3,3,3h15V6h-2V2H18z M4,2h10v4H4C3.67,6,2,5.9,2,4C2,2.17,3.54,2.01,4,2z    M16,22H3.01C2.55,21.99,2,21.811,2,21V7.49C2.66,7.85,3.39,8,4,8h12V22z"/>
</g>
<g>
	<path d="M20,4.02v2C26.24,6.21,29.88,8.18,30,9c-0.07,0.46-1.25,1.29-3.37,1.95c-1.659,0.53-3.899,0.95-6.63,1.03v2   c2.46-0.07,4.73-0.4,6.62-0.93c1.06-0.29,1.989-0.65,2.771-1.05c0.221-0.11,0.42-0.22,0.609-0.34V15   c-0.07,0.46-1.25,1.29-3.37,1.95c-1.659,0.53-3.899,0.95-6.63,1.03v2c2.46-0.07,4.73-0.4,6.62-0.932   c1.06-0.29,1.989-0.648,2.771-1.05c0.221-0.11,0.42-0.22,0.609-0.34V21c-0.07,0.46-1.25,1.29-3.37,1.95   c-1.659,0.53-3.899,0.95-6.63,1.03v2c2.46-0.07,4.73-0.4,6.62-0.932c1.06-0.29,1.989-0.648,2.771-1.05   c0.221-0.11,0.42-0.22,0.609-0.34V27c-0.13,0.87-4.15,3-11,3c-6.85,0-10.87-2.13-11-3v-1H6v1c0,2.76,5.82,5,13,5   c7.18,0,13-2.24,13-5V9C32,6.37,26.71,4.21,20,4.02z"/>
</g>
<g>
	<polygon points="7,18.414 4.293,15.707 5.707,14.293 7,15.586 12.293,10.293 13.707,11.707  "/>
</g>
</svg>
