<?xml version="1.0" encoding="utf-8"?>
<!-- Generator: Adobe Illustrator 16.0.0, SVG Export Plug-In . SVG Version: 6.00 Build 0)  -->
<svg xmlns="http://www.w3.org/2000/svg" xmlns:xlink="http://www.w3.org/1999/xlink" version="1.1" id="2575378564_Capa_1_grid" x="0px" y="0px" width="32px" height="32px" viewBox="0 0 32 32" enable-background="new 0 0 32 32" xml:space="preserve">
<g>
	<path d="M28.01,25.16C28.4,24.14,30,19.72,30,16c0-3.5-1.42-7.62-1.91-8.95c0.73-1.49,1.83-4.31,0.67-5.69   c-0.2-0.24-0.58-0.53-1.25-0.53s-1.52,0.29-2.41,0.61C24.34,1.7,23.48,2,23,2H9C8.52,2,7.66,1.7,6.9,1.44   C6.01,1.12,5.16,0.83,4.49,0.83c-0.67,0-1.05,0.29-1.26,0.53c-1.15,1.38-0.05,4.2,0.68,5.69C3.42,8.38,2,12.5,2,16   c0,3.72,1.6,8.14,1.99,9.16c-0.06,0.46-0.31,1.229-0.52,1.87c-0.53,1.62-0.95,2.91-0.18,3.68c0.43,0.42,1.02,0.64,1.76,0.64   c1.54,0,3.51-0.97,4.21-1.35h13.48c0.7,0.38,2.67,1.35,4.21,1.35c0.74,0,1.33-0.22,1.76-0.64c0.771-0.77,0.35-2.06-0.18-3.68   C28.32,26.39,28.07,25.62,28.01,25.16z M6.24,3.32C7.2,3.66,8.18,4,9,4h14c0.82,0,1.8-0.34,2.76-0.68   c0.51-0.17,1.12-0.39,1.521-0.46c0.05,0.67-0.45,2.29-1.17,3.68L25.9,6.95l0.17,0.42c0.01,0.03,0.439,1.1,0.89,2.63H5.04   c0.45-1.53,0.88-2.6,0.89-2.63L6.1,6.95L5.89,6.54C5.18,5.17,4.67,3.51,4.71,2.86C5.11,2.93,5.73,3.14,6.24,3.32z M26.95,29.35   c-1.08,0-2.86-0.88-3.45-1.22L23.26,28H8.73L8.5,28.13c-0.59,0.34-2.37,1.22-3.45,1.22c-0.06,0-0.12,0-0.16-0.01   c0.07-0.43,0.32-1.189,0.48-1.689C5.7,26.67,6,25.73,6,25v-0.19l-0.07-0.18C5.92,24.6,5.49,23.53,5.04,22h21.92   c-0.45,1.53-0.88,2.6-0.89,2.63L26,24.81V25c0,0.73,0.3,1.67,0.63,2.65c0.16,0.5,0.41,1.26,0.48,1.689   C27.07,29.35,27.01,29.35,26.95,29.35z M27.47,20H4.53C4.23,18.7,4,17.29,4,16s0.23-2.7,0.53-4h22.94c0.3,1.3,0.53,2.71,0.53,4   S27.77,18.7,27.47,20z"/>
</g>
</svg>
