<?xml version="1.0" encoding="utf-8"?>
<!-- Generator: Adobe Illustrator 16.0.0, SVG Export Plug-In . SVG Version: 6.00 Build 0)  -->
<svg xmlns="http://www.w3.org/2000/svg" xmlns:xlink="http://www.w3.org/1999/xlink" version="1.1" id="2575378565_Capa_1_grid" x="0px" y="0px" width="32px" height="32px" viewBox="0 0 32 32" enable-background="new 0 0 32 32" xml:space="preserve">
<g>
	<path d="M30,4H16l-2-2H2c0,0-2,0-2,2v24c0,2,2,2,2,2h28c0,0,2,0,2-2V6C32,6,32,4,30,4z M30,28h-4v-2h-2v2h-4v-2h-2v2h-4v-2h-2v2H8   v-2H6v2H2V10h28V28z M30,8H2V4h11l2.17,2C15.17,6,30,5.99,30,6V8z"/>
</g>
<g>
	<polygon points="16,20 22,20 19,24  "/>
</g>
</svg>
