<?xml version="1.0" encoding="utf-8"?>
<!-- Generator: Adobe Illustrator 16.0.0, SVG Export Plug-In . SVG Version: 6.00 Build 0)  -->
<svg xmlns="http://www.w3.org/2000/svg" xmlns:xlink="http://www.w3.org/1999/xlink" version="1.1" id="2575378566_Capa_1_grid" x="0px" y="0px" width="32px" height="32px" viewBox="0 0 32 32" enable-background="new 0 0 32 32" xml:space="preserve">
<g>
	<path d="M28,24v-4h-4v-2h4v-6h-4V8h-8V6h6V0H8v6h6v2H6v4H2v6h4v2H2v4H0v6h6v-6H4v-2h6v2H8v6h6v-6h-2v-4H8v-2h4v-6H8v-2h14v2h-4v6h4   v2h-4v4h-2v6h6v-6h-2v-2h6v2h-2v6h6v-6H28z M4,28H2v-2h2V28z M12,28h-2v-2h2V28z M10,14v2H4v-2H10z M10,4V2h10v2H10z M20,28h-2v-2   h2V28z M20,16v-2h6v2H20z M28,28h-2v-2h2V28z"/>
</g>
</svg>
