<?xml version="1.0" encoding="utf-8"?>
<!-- Generator: Adobe Illustrator 16.0.0, SVG Export Plug-In . SVG Version: 6.00 Build 0)  -->
<svg xmlns="http://www.w3.org/2000/svg" xmlns:xlink="http://www.w3.org/1999/xlink" version="1.1" id="2575378567_Capa_1_grid" x="0px" y="0px" width="32px" height="32px" viewBox="0 0 32 32" enable-background="new 0 0 32 32" xml:space="preserve">
<g>
	<g>
		<g>
			<path d="M4.86,26l6.68-10h2.64c0.4,1.17,1.51,2,2.82,2c1.31,0,2.42-0.83,2.82-2h3.75l6.29-10.49L28.14,4.49L22.43,14H19.82     c-0.4-1.17-1.511-2-2.82-2c-1.31,0-2.42,0.83-2.82,2h-3.72L4,23.7V4H2v24h28v-2H4.86z M17,14c0.55,0,1,0.45,1,1s-0.45,1-1,1     s-1-0.45-1-1S16.45,14,17,14z"/>
		</g>
	</g>
</g>
</svg>
