<?xml version="1.0" encoding="utf-8"?>
<!-- Generator: Adobe Illustrator 16.0.0, SVG Export Plug-In . SVG Version: 6.00 Build 0)  -->
<svg xmlns="http://www.w3.org/2000/svg" xmlns:xlink="http://www.w3.org/1999/xlink" version="1.1" id="2575378568_Capa_1_grid" x="0px" y="0px" width="32px" height="32px" viewBox="0 0 32 32" enable-background="new 0 0 32 32" xml:space="preserve">
<g>
	<path d="M20.04,31v1H0V12h1c5.02,0,8.72,1.34,11.44,3.31l-1.43,1.43C8.79,15.23,5.86,14.18,2,14.02V30h15.99   c-0.15-1.76-0.7-5.48-2.84-8.9l1.41-1.409C19.96,24.91,20.04,30.89,20.04,31z"/>
</g>
<g>
	<polygon points="22,10 22,16 20,16 20,13.42 7.71,25.71 6.29,24.29 18.58,12 16,12 16,10  "/>
</g>
<g>
	<path d="M32,8c0,4.42-3.58,8-8,8v-2c3.31,0,6-2.69,6-6s-2.69-6-6-6s-6,2.69-6,6h-2c0-4.42,3.58-8,8-8S32,3.58,32,8z"/>
</g>
</svg>
