<?xml version="1.0" encoding="utf-8"?>
<!-- Generator: Adobe Illustrator 16.0.0, SVG Export Plug-In . SVG Version: 6.00 Build 0)  -->
<svg xmlns="http://www.w3.org/2000/svg" xmlns:xlink="http://www.w3.org/1999/xlink" version="1.1" id="2575378569_Capa_1_grid" x="0px" y="0px" width="32px" height="32px" viewBox="0 0 32 32" enable-background="new 0 0 32 32" xml:space="preserve">
<g>
	<polygon points="12,2 12,14 10,14 10,4 4,4 4,14 2,14 2,2  "/>
</g>
<g>
	<polygon points="30,2 30,14 28,14 28,4 22,4 22,14 20,14 20,2  "/>
</g>
<g>
	<polygon points="29.71,20.29 28.29,21.71 26,19.41 26,30 6,30 6,19.41 3.71,21.71 2.29,20.29 7,15.59 11.71,20.29 10.29,21.71    8,19.41 8,28 24,28 24,19.41 21.71,21.71 20.29,20.29 25,15.59  "/>
</g>
</svg>
