<?xml version="1.0" encoding="utf-8"?>
<!-- Generator: Adobe Illustrator 16.0.0, SVG Export Plug-In . SVG Version: 6.00 Build 0)  -->
<svg xmlns="http://www.w3.org/2000/svg" xmlns:xlink="http://www.w3.org/1999/xlink" version="1.1" id="2575378574_Capa_1_grid" x="0px" y="0px" width="32px" height="32px" viewBox="0 0 32 32" enable-background="new 0 0 32 32" xml:space="preserve">
<g>
	<path d="M15,2C8.92,2,4,6.92,4,13s4.92,11,11,11s11-4.92,11-11S21.08,2,15,2z M15,22c-4.96,0-9-4.04-9-9s4.04-9,9-9s9,4.04,9,9   S19.96,22,15,22z"/>
</g>
<g>
	<polygon points="20,12 20,14 14,14 14,6 16,6 16,12  "/>
</g>
<g>
	<polygon points="30.41,27 25.71,31.71 24.29,30.29 26.59,28 2,28 2,26 26.59,26 24.29,23.71 25.71,22.29  "/>
</g>
<g>
	<rect x="10" y="16" width="2" height="2"/>
</g>
<g>
	<rect x="14" y="16" width="2" height="2"/>
</g>
<g>
	<rect x="18" y="16" width="2" height="2"/>
</g>
</svg>
