<?xml version="1.0" encoding="utf-8"?>
<!-- Generator: Adobe Illustrator 16.0.0, SVG Export Plug-In . SVG Version: 6.00 Build 0)  -->
<svg xmlns="http://www.w3.org/2000/svg" xmlns:xlink="http://www.w3.org/1999/xlink" version="1.1" id="2575378575_Capa_1_grid" x="0px" y="0px" width="32px" height="32px" viewBox="0 0 32 32" enable-background="new 0 0 32 32" xml:space="preserve">
<g>
	<path d="M23.33,12l-5.32-4H22V0H8v8h4l-5.33,4H0v8h6.67L12,24H8v8h14v-8h-4l5.33-4H30v-8H23.33z M10,6V2h10v4H10z M2,18v-4h10v4H2z    M20,26v4H10v-4H20z M15,23.75L10,20h4v-8h-4l5-3.75L20,12h-4v8h4L15,23.75z M28,18H18v-4h10V18z"/>
</g>
</svg>
