<?xml version="1.0" encoding="utf-8"?>
<!-- Generator: Adobe Illustrator 16.0.0, SVG Export Plug-In . SVG Version: 6.00 Build 0)  -->
<svg xmlns="http://www.w3.org/2000/svg" xmlns:xlink="http://www.w3.org/1999/xlink" version="1.1" id="2575378576_Capa_1_grid" x="0px" y="0px" width="32px" height="32px" viewBox="0 0 32 32" enable-background="new 0 0 32 32" xml:space="preserve">
<g>
	<g>
		<polygon points="6,8 6,10 0,10 0,8 2,8 2,2 0,2 0,0 4,0 4,8   "/>
	</g>
</g>
<g>
	<g>
		<polygon points="15,18 15,20 19,20 19,22 13,22 13,16 17,16 17,14 13,14 13,12 19,12 19,18   "/>
	</g>
</g>
<g>
	<polygon points="32,22 32,32 26,32 26,30 30,30 30,28 26,28 26,26 30,26 30,24 26,24 26,22  "/>
</g>
</svg>
