<?xml version="1.0" encoding="utf-8"?>
<!-- Generator: Adobe Illustrator 16.0.0, SVG Export Plug-In . SVG Version: 6.00 Build 0)  -->
<svg xmlns="http://www.w3.org/2000/svg" xmlns:xlink="http://www.w3.org/1999/xlink" version="1.1" id="2575378578_Capa_1_grid" x="0px" y="0px" width="32px" height="32px" viewBox="0 0 32 32" enable-background="new 0 0 32 32" xml:space="preserve">
<g>
	<path d="M29,0H3C1.79,0,0,0.8,0,3v20c0,1.21,0.8,3,3,3h3v5l7.3-5H29c2.2,0,3-1.79,3-3V3C32,1.79,31.2,0,29,0z M30,22c0,0,0,2-2,2   H12.7L8,27v-3H4c-2,0-2-2-2-2v-0.58L5.41,18h6l4-4h6L26,9.42V12h2V6h-6v2h2.58l-3.99,4h-6l-4,4h-6L2,18.58V4c0,0,0-2,2-2h24   c2,0,2,2,2,2V22z"/>
</g>
</svg>
