<?xml version="1.0" encoding="utf-8"?>
<!-- Generator: Adobe Illustrator 16.0.0, SVG Export Plug-In . SVG Version: 6.00 Build 0)  -->
<svg xmlns="http://www.w3.org/2000/svg" xmlns:xlink="http://www.w3.org/1999/xlink" version="1.1" id="2575378579_Capa_1_grid" x="0px" y="0px" width="32px" height="32px" viewBox="0 0 32 32" enable-background="new 0 0 32 32" xml:space="preserve">
<g>
	<g>
		<path d="M4,16.556l9.899,9.899l5.656-5.656l7.072,7.072l4.242-4.244l-7.071-7.071l5.657-5.657L19.556,1L4,16.556z M15.313,22.213    l-1.414,1.414l-7.071-7.071l1.415-1.415L15.313,22.213z M28.042,23.627l-1.414,1.414l-5.657-5.656l1.414-1.414L28.042,23.627z     M23.799,13.728l-7.071,7.071l-7.07-7.071l7.07-7.071L23.799,13.728z M26.628,10.899l-1.414,1.414l-7.072-7.071l1.414-1.414    L26.628,10.899z"/>
	</g>
</g>
<g>
	<rect x="2" y="28" width="20" height="2"/>
</g>
</svg>
