<?xml version="1.0" encoding="utf-8"?>
<!-- Generator: Adobe Illustrator 16.0.0, SVG Export Plug-In . SVG Version: 6.00 Build 0)  -->
<svg xmlns="http://www.w3.org/2000/svg" xmlns:xlink="http://www.w3.org/1999/xlink" version="1.1" id="2575378580_Capa_1_grid" x="0px" y="0px" width="32px" height="32px" viewBox="0 0 32 32" enable-background="new 0 0 32 32" xml:space="preserve">
<g>
	<g>
		<path d="M25,0H10C8,0,8,2,8,2v4h2V2.04c0-0.01,0-0.02,0.01-0.04H22v5c0,1.21,0.8,3,3,3h5v19.96c0,0.01,0,0.021-0.01,0.04H20v2h10    c2,0,2-2,2-2V7L25,0z M30,8h-5c-0.81,0-0.99-0.55-1-1V2h0.17L30,7.83V8z"/>
	</g>
</g>
<g>
	<path d="M16,18v-3c0-2.42-1.46-7-7-7s-7,4.58-7,7v3H0v14h18V18H16z M4,15c0-0.2,0.06-5,5-5c4.82,0,5,4.49,5,5v3H4V15z M16,30H2V20   h14V30z"/>
</g>
</svg>
