<?xml version="1.0" encoding="utf-8"?>
<!-- Generator: Adobe Illustrator 16.0.0, SVG Export Plug-In . SVG Version: 6.00 Build 0)  -->
<svg xmlns="http://www.w3.org/2000/svg" xmlns:xlink="http://www.w3.org/1999/xlink" version="1.1" id="2575378581_Capa_1_grid" x="0px" y="0px" width="32px" height="32px" viewBox="0 0 32 32" enable-background="new 0 0 32 32" xml:space="preserve">
<g>
	<rect x="20" y="4" width="2" height="8"/>
</g>
<g>
	<path d="M22,14h-2v0.68C18.01,11.85,14.72,10,11,10C4.92,10,0,14.92,0,21s4.92,11,11,11s11-4.92,11-11c0-1.8-0.43-3.5-1.2-5H22V14z    M11,30c-4.96,0-9-4.04-9-9s4.04-9,9-9s9,4.04,9,9S15.96,30,11,30z"/>
	<path d="M14,19c0,1.25-0.6,1.99-1.07,2.57C12.43,22.18,12,22.71,12,24h-2c0-2.01,0.8-2.98,1.38-3.69C11.81,19.78,12,19.52,12,19   c0-0.81-0.55-0.99-1.01-1c-0.8,0-0.98,0.55-0.99,1.01V20H8v-1c0-1.21,0.8-3,3-3C12.21,16,14,16.8,14,19z"/>
	<rect x="10" y="26" width="2" height="2"/>
</g>
<g>
	<path d="M32,11c0,5.04-3.38,9.28-8,10.58v-2.1c3.49-1.24,6-4.57,6-8.48c0-4.96-4.04-9-9-9c-3.91,0-7.24,2.51-8.48,6   c0,0-2.11,0.01-2.1,0c1.3-4.62,5.54-8,10.58-8C27.08,0,32,4.92,32,11z"/>
</g>
</svg>
