<?xml version="1.0" encoding="utf-8"?>
<!-- Generator: Adobe Illustrator 16.0.0, SVG Export Plug-In . SVG Version: 6.00 Build 0)  -->
<svg xmlns="http://www.w3.org/2000/svg" xmlns:xlink="http://www.w3.org/1999/xlink" version="1.1" id="2575378584_Capa_1_grid" x="0px" y="0px" width="32px" height="32px" viewBox="0 0 32 32" enable-background="new 0 0 32 32" xml:space="preserve">
<g>
	<path d="M27,0H9C6.8,0,6,1.79,6,3v11h2V6h20v20h-8v2h8v0.99C27.99,29.45,27.81,30,27,30H16v2h11c2.2,0,3-1.79,3-3V3   C30,0.8,28.21,0,27,0z M28,4H8V3.01C8.01,2.55,8.19,2,9,2h17.99C27.45,2.01,28,2.19,28,3V4z"/>
</g>
<g>
	<path d="M10,8v6h16V8H10z M24,12H12v-2h12V12z"/>
</g>
<path d="M8,16v4H2v12h12v-6h4V16H8z M12,30H4v-8h4v4h4V30z M16,24h-6v-6h6V24z"/>
</svg>
