<?xml version="1.0" encoding="utf-8"?>
<!-- Generator: Adobe Illustrator 16.0.0, SVG Export Plug-In . SVG Version: 6.00 Build 0)  -->
<svg xmlns="http://www.w3.org/2000/svg" xmlns:xlink="http://www.w3.org/1999/xlink" version="1.1" id="2575378599_Capa_1_grid" x="0px" y="0px" width="32px" height="32px" viewBox="0 0 32 32" enable-background="new 0 0 32 32" xml:space="preserve">
<g>
	<path d="M30,4H16l-2-2H2c0,0-2,0-2,2v24c0,0,0,2,2,2h28c0,0,2,0,2-2V6C32,6,32,4,30,4z M2,4h11.17l2,2C15.17,6,30,5.99,30,6v2H2V4z    M30,28c0,0-28,0.01-28,0V10h28C30,10,30.01,28,30,28z"/>
</g>
<g>
	<path d="M11,12c-3.87,0-7,3.13-7,7s3.13,7,7,7s7-3.13,7-7S14.87,12,11,12z M11,24c-2.76,0-5-2.24-5-5c0-2.42,1.72-4.44,4-4.9V20   h5.9C15.44,22.28,13.42,24,11,24z M12,18v-3.9c1.96,0.4,3.5,1.94,3.9,3.9H12z"/>
</g>
<g>
	<rect x="20" y="16" width="8" height="2"/>
</g>
<g>
	<rect x="20" y="20" width="8" height="2"/>
</g>
</svg>
