<?xml version="1.0" encoding="utf-8"?>
<!-- Generator: Adobe Illustrator 16.0.0, SVG Export Plug-In . SVG Version: 6.00 Build 0)  -->
<svg xmlns="http://www.w3.org/2000/svg" xmlns:xlink="http://www.w3.org/1999/xlink" version="1.1" id="2575378587_Capa_1_grid" x="0px" y="0px" width="32px" height="32px" viewBox="0 0 32 32" enable-background="new 0 0 32 32" xml:space="preserve">
<g>
	<path d="M30,4H16l-2-2H2c0,0-2,0-2,2v12h2v-6h28c0,0,0.01,18,0,18H20v2h10c0,0,2,0,2-2V6C32,6,32,4,30,4z M30,8H2V4h11.17l2,2   C15.17,6,30,5.99,30,6V8z"/>
</g>
<g>
	<path d="M18,32H0V18h8v-4h10V32z M2,30h14V16h-6v4H2V30z"/>
</g>
<g>
	<rect x="12" y="18" width="2" height="2"/>
</g>
<g>
	<rect x="12" y="22" width="2" height="2"/>
</g>
<g>
	<rect x="8" y="22" width="2" height="2"/>
</g>
<g>
	<rect x="4" y="22" width="2" height="2"/>
</g>
<g>
	<rect x="12" y="26" width="2" height="2"/>
</g>
<g>
	<rect x="8" y="26" width="2" height="2"/>
</g>
<g>
	<rect x="4" y="26" width="2" height="2"/>
</g>
</svg>
