<?xml version="1.0" encoding="utf-8"?>
<!-- Generator: Adobe Illustrator 16.0.0, SVG Export Plug-In . SVG Version: 6.00 Build 0)  -->
<svg xmlns="http://www.w3.org/2000/svg" xmlns:xlink="http://www.w3.org/1999/xlink" version="1.1" id="2575378588_Capa_1_grid" x="0px" y="0px" width="32px" height="32px" viewBox="0 0 32 32" enable-background="new 0 0 32 32" xml:space="preserve">
<path d="M26,8h-8l-2-2H6c0,0-2,0-2,2v16c0,0,0,2,2,2h20c0,0,2,0,2-2V10C28,10,28,8,26,8z M6,8h9l2,2c0,0,9-0.01,9,0v2H6V8z M26,24H6  V14h20C26,14,26.01,24,26,24z"/>
<g>
	<polygon points="2,6 0,6 0,0 6,0 6,2 2,2  "/>
</g>
<g>
	<polygon points="32,6 30,6 30,2 26,2 26,0 32,0  "/>
</g>
<g>
	<polygon points="6,32 0,32 0,26 2,26 2,30 6,30  "/>
</g>
<g>
	<polygon points="32,32 26,32 26,30 30,30 30,26 32,26  "/>
</g>
</svg>
