<?xml version="1.0" encoding="utf-8"?>
<!-- Generator: Adobe Illustrator 16.0.0, SVG Export Plug-In . SVG Version: 6.00 Build 0)  -->
<svg xmlns="http://www.w3.org/2000/svg" xmlns:xlink="http://www.w3.org/1999/xlink" version="1.1" id="2575378590_Capa_1_grid" x="0px" y="0px" width="32px" height="32px" viewBox="0 0 32 32" enable-background="new 0 0 32 32" xml:space="preserve">
<g>
	<path d="M2,12v9.62l12,6V32h2v-4.38l12-6V12H2z M26,20.38l-11,5.5l-11-5.5V14h22V20.38z"/>
</g>
<g>
	<path d="M24,2h-8l-2-2H6c0,0-2,0-2,2v8h2V8h18c0,0,0,0.85,0,2h2V4C26,4,26,2,24,2z M24,6H6V2h7l2,2c0,0,9-0.01,9,0V6z"/>
</g>
</svg>
