<?xml version="1.0" encoding="utf-8"?>
<!-- Generator: Adobe Illustrator 16.0.0, SVG Export Plug-In . SVG Version: 6.00 Build 0)  -->
<svg xmlns="http://www.w3.org/2000/svg" xmlns:xlink="http://www.w3.org/1999/xlink" version="1.1" id="2575378589_Capa_1_grid" x="0px" y="0px" width="32px" height="32px" viewBox="0 0 32 32" enable-background="new 0 0 32 32" xml:space="preserve">
<path d="M30,4H16l-2-2H2c0,0-2,0-2,2v24c0,0,0,2,2,2h28c0,0,2,0,2-2V6C32,6,32,4,30,4z M2,4h11.17l2,2C15.17,6,30,5.99,30,6v2H2V4z   M30,28c0,0-28,0.01-28,0V10h28C30,10,30.01,28,30,28z"/>
<g>
	<polygon points="17.3,19 21.77,24.36 20.23,25.64 16,20.56 11.77,25.64 10.23,24.36 14.7,19 10.23,13.64 11.77,12.36 16,17.44    20.23,12.36 21.77,13.64  "/>
</g>
</svg>
