<?xml version="1.0" encoding="utf-8"?>
<!-- Generator: Adobe Illustrator 16.0.0, SVG Export Plug-In . SVG Version: 6.00 Build 0)  -->
<svg xmlns="http://www.w3.org/2000/svg" xmlns:xlink="http://www.w3.org/1999/xlink" version="1.1" id="2575378597_Capa_1_grid" x="0px" y="0px" width="32px" height="32px" viewBox="0 0 32 32" enable-background="new 0 0 32 32" xml:space="preserve">
<path d="M30,4H16l-2-2H2c0,0-2,0-2,2v16h2V10h28c0,0,0.01,18,0,18c0,0-9,0-16,0v2h16c0,0,2,0,2-2V6C32,6,32,4,30,4z M30,8H2V4h11  l2.17,2C15.17,6,30,5.99,30,6V8z"/>
<g>
	<path d="M16.71,15.29c-1.03-1.03-2.22-1.55-3.52-1.55c-2.14,0-3.79,1.45-3.9,1.55l-9,9C0.11,24.48,0,24.73,0,25v7h7   c0.27,0,0.52-0.11,0.71-0.29l9.04-9.04C17.94,21.32,19.47,18.061,16.71,15.29z M2,30v-4.58L6.58,30H2z M8,28.58L3.42,24L8,19.42   L12.58,24L8,28.58z M15.29,21.29L14,22.58L9.42,18l1.25-1.25c0.01-0.01,1.16-1.01,2.52-1.01c0.77,0,1.45,0.32,2.1,0.97   C17.37,18.79,15.47,21.08,15.29,21.29z"/>
</g>
</svg>
