<?xml version="1.0" encoding="utf-8"?>
<!-- Generator: Adobe Illustrator 16.0.0, SVG Export Plug-In . SVG Version: 6.00 Build 0)  -->
<svg xmlns="http://www.w3.org/2000/svg" xmlns:xlink="http://www.w3.org/1999/xlink" version="1.1" id="2575378593_Capa_1_grid" x="0px" y="0px" width="32px" height="32px" viewBox="0 0 32 32" enable-background="new 0 0 32 32" xml:space="preserve">
<path d="M30,4H16l-2-2H2c0,0-2,0-2,2v12h2v-6h28c0,0,0.01,18,0,18c0,0-7,0-14,0v2h14c0,0,2,0,2-2V6C32,6,32,4,30,4z M30,8H2V4h11.17  l2,2C15.17,6,30,5.99,30,6V8z"/>
<g>
	<polygon points="8.42,25 13.71,30.29 12.29,31.71 7,26.42 1.71,31.71 0.29,30.29 5.58,25 0.29,19.71 1.71,18.29 7,23.58    12.29,18.29 13.71,19.71  "/>
</g>
</svg>
