<?xml version="1.0" encoding="utf-8"?>
<!-- Generator: Adobe Illustrator 16.0.0, SVG Export Plug-In . SVG Version: 6.00 Build 0)  -->
<svg xmlns="http://www.w3.org/2000/svg" xmlns:xlink="http://www.w3.org/1999/xlink" version="1.1" id="2575378591_Capa_1_grid" x="0px" y="0px" width="32px" height="32px" viewBox="0 0 32 32" enable-background="new 0 0 32 32" xml:space="preserve">
<g>
	<path d="M30,4H16l-2-2H2c0,0-2,0-2,2v23c0,1.21,0.8,3,3,3h27c0,0,2,0,2-2V6C32,6,32,4,30,4z M2,4h11.17l2,2C15.17,6,30,5.99,30,6v2   H2V4z M30,28c0,0-9,0-16,0H3c-0.81,0-0.99-0.55-1-1v-7h8.59l-2.3,2.29l1.42,1.42l4.7-4.71l-4.7-4.71l-1.42,1.42l2.3,2.29H2v-8h28   C30,10,30.01,28,30,28z"/>
</g>
<g>
	<polygon points="20.41,19 15.71,23.71 14.29,22.29 17.59,19 14.29,15.71 15.71,14.29  "/>
</g>
<g>
	<polygon points="26.41,19 21.71,23.71 20.29,22.29 23.59,19 20.29,15.71 21.71,14.29  "/>
</g>
</svg>
