<?xml version="1.0" encoding="utf-8"?>
<!-- Generator: Adobe Illustrator 16.0.0, SVG Export Plug-In . SVG Version: 6.00 Build 0)  -->
<svg xmlns="http://www.w3.org/2000/svg" xmlns:xlink="http://www.w3.org/1999/xlink" version="1.1" id="2575378594_Capa_1_grid" x="0px" y="0px" width="32px" height="32px" viewBox="0 0 32 32" enable-background="new 0 0 32 32" xml:space="preserve">
<path d="M30,4H16l-2-2H2c0,0-2,0-2,2v10h2v-4h28c0,0,0.01,18,0,18c0,0-11,0-18,0v2h18c0,0,2,0,2-2V6C32,6,32,4,30,4z M30,8H2V4  h11.17l2,2C15.17,6,30,5.99,30,6V8z"/>
<g>
	<path d="M2,19.446L9.969,24L2,28.554V19.446 M0,16v16l14-8L0,16L0,16z"/>
</g>
</svg>
