<?xml version="1.0" encoding="utf-8"?>
<!-- Generator: Adobe Illustrator 16.0.0, SVG Export Plug-In . SVG Version: 6.00 Build 0)  -->
<svg xmlns="http://www.w3.org/2000/svg" xmlns:xlink="http://www.w3.org/1999/xlink" version="1.1" id="2575378598_Capa_1_grid" x="0px" y="0px" width="32px" height="32px" viewBox="0 0 32 32" enable-background="new 0 0 32 32" xml:space="preserve">
<g>
	<path d="M30,4H16l-2-2H2c0,0-2,0-2,2v12h2v-6h28c0,0,0.01,16,0,16H16v2h14c0,0,2,0,2-2V6C32,6,32,4,30,4z M30,8H2V4h11.17l2,2   C15.17,6,30,5.99,30,6V8z"/>
</g>
<g>
	<polygon points="22.41,19 17.71,23.71 16.29,22.29 18.59,20 14,20 14,30 6,30 6,20 2,20 2,30 0,30 0,18 8,18 8,28 12,28 12,18    18.59,18 16.29,15.71 17.71,14.29  "/>
</g>
</svg>
