<?xml version="1.0" encoding="utf-8"?>
<!-- Generator: Adobe Illustrator 16.0.0, SVG Export Plug-In . SVG Version: 6.00 Build 0)  -->
<svg xmlns="http://www.w3.org/2000/svg" xmlns:xlink="http://www.w3.org/1999/xlink" version="1.1" id="2575378592_Capa_1_grid" x="0px" y="0px" width="32px" height="32px" viewBox="0 0 32 32" enable-background="new 0 0 32 32" xml:space="preserve">
<g>
	<path d="M30,4H16l-2-2H2c0,0-2,0-2,2v8h2v-2h28c0,0,0.01,18,0,18H20v2h10c0,0,2,0,2-2V6C32,6,32,4,30,4z M30,8H2V4h11.17l2,2   C15.17,6,30,5.99,30,6V8z"/>
</g>
<g>
	<path d="M0,14v18h18V14H0z M16,30H2V16h14V30z"/>
</g>
<g>
	<path d="M4,18v10h10V18H4z M12,26H6v-2h6V26z M12,22H6v-2h6V22z"/>
</g>
</svg>
