<?xml version="1.0" encoding="utf-8"?>
<!-- Generator: Adobe Illustrator 16.0.0, SVG Export Plug-In . SVG Version: 6.00 Build 0)  -->
<svg xmlns="http://www.w3.org/2000/svg" xmlns:xlink="http://www.w3.org/1999/xlink" version="1.1" id="2575378604_Capa_1_grid" x="0px" y="0px" width="32px" height="32px" viewBox="0 0 32 32" enable-background="new 0 0 32 32" xml:space="preserve">
<g>
	<g>
		<g>
			<path d="M21,0H4C2,0,2,2,2,2v28c0,2,2,2,2,2h22c2,0,2-2,2-2V7L21,0z M26,30c0,0.011-10,0-10,0V15.41l4.29,4.3l1.42-1.42L15,11.59     l-6.71,6.7l1.42,1.42l4.29-4.3V30H4V2h14v5c0,0,0,3,3,3h5V30z M26,8h-5c-0.811,0-0.99-0.55-1-1V2h0.17L26,7.83V8z"/>
		</g>
	</g>
</g>
</svg>
