<?xml version="1.0" encoding="utf-8"?>
<!-- Generator: Adobe Illustrator 16.0.0, SVG Export Plug-In . SVG Version: 6.00 Build 0)  -->
<svg xmlns="http://www.w3.org/2000/svg" xmlns:xlink="http://www.w3.org/1999/xlink" version="1.1" id="2575378602_Capa_1_grid" x="0px" y="0px" width="32px" height="32px" viewBox="0 0 32 32" enable-background="new 0 0 32 32" xml:space="preserve">
<g>
	<path d="M6.026,22.145l1.31,1.965L9,26.605l1.664-2.496l1.309-1.963c2.7,0.852,3.592,5.228,3.885,7.854H2.138   C2.425,27.373,3.311,22.994,6.026,22.145L6.026,22.145z M11,20l-2,3l-2-3c-7,0-7,12-7,12h18C18,32,18,20,11,20L11,20z"/>
</g>
<g>
	<path d="M9,8c2.757,0,5,2.243,5,5s-2.243,5-5,5s-5-2.243-5-5S6.243,8,9,8L9,8z M9,6c-3.867,0-7,3.134-7,7c0,3.865,3.133,7,7,7   s7-3.135,7-7C16,9.134,12.867,6,9,6L9,6z"/>
</g>
<g>
	<polygon points="32,0 32,26 19,26 19,24 30,24 30,2 10,2 10,4 8,4 8,0  "/>
</g>
<g>
	<polygon points="28.41,13 23.71,17.71 22.29,16.29 24.59,14 18,14 18,12 24.59,12 22.29,9.71 23.71,8.29  "/>
</g>
</svg>
