<?xml version="1.0" encoding="utf-8"?>
<!-- Generator: Adobe Illustrator 16.0.0, SVG Export Plug-In . SVG Version: 6.00 Build 0)  -->
<svg xmlns="http://www.w3.org/2000/svg" xmlns:xlink="http://www.w3.org/1999/xlink" version="1.1" id="2575378605_Capa_1_grid" x="0px" y="0px" width="32px" height="32px" viewBox="0 0 32 32" enable-background="new 0 0 32 32" xml:space="preserve">
<g>
	<g>
		<path d="M28,22v-4h-0.69c0.45-1.25,0.69-2.6,0.69-4c0-6.62-5.38-12-12-12S4,7.38,4,14c0,1.4,0.24,2.75,0.69,4H4v4H0v8h12v-4h8v4    h12v-8H28z M16,4c5.51,0,10,4.49,10,10c0,1.42-0.3,2.78-0.84,4h-2.24c0.69-1.18,1.08-2.55,1.08-4c0-4.41-3.59-8-8-8s-8,3.59-8,8    c0,1.45,0.39,2.82,1.08,4H6.84C6.3,16.78,6,15.42,6,14C6,8.49,10.49,4,16,4z M22,14c0,1.54-0.58,2.94-1.54,4h-8.92    C10.58,16.94,10,15.54,10,14c0-3.31,2.69-6,6-6C19.31,8,22,10.69,22,14z M10,28H2v-4h2v2h6V28z M6,24v-4h20v4H6z M30,28h-8v-2h6    v-2h2V28z"/>
	</g>
</g>
</svg>
