<?xml version="1.0" encoding="utf-8"?>
<!-- Generator: Adobe Illustrator 16.0.0, SVG Export Plug-In . SVG Version: 6.00 Build 0)  -->
<svg xmlns="http://www.w3.org/2000/svg" xmlns:xlink="http://www.w3.org/1999/xlink" version="1.1" id="2575378607_Capa_1_grid" x="0px" y="0px" width="32px" height="32px" viewBox="0 0 32 32" enable-background="new 0 0 32 32" xml:space="preserve">
<g>
	<path d="M26,2H14l-2-2H4c0,0-2,0-2,2v8h2V8h10v16.59l-2.29-2.3l-1.42,1.42l4.71,4.7l4.71-4.7l-1.42-1.42L16,24.59V8h10   c0,0,0,0.82,0,2h2V4C28,4,28,2,26,2z M26,6H4V2h7l2,2c0,0,13-0.01,13,0V6z"/>
</g>
<g>
	<path d="M28,16v14c0,2-2,2-2,2H4c-2,0-2-2-2-2V14c0-2,2-2,2-2h8v2H4v4h8v2H4v10h22c0.01,0,0-10,0-10h-8v-2h8v-2c0-0.01-4.34,0-8,0   v-2h8C28,14,28,16,28,16z"/>
</g>
</svg>
