<?xml version="1.0" encoding="utf-8"?>
<!-- Generator: Adobe Illustrator 16.0.0, SVG Export Plug-In . SVG Version: 6.00 Build 0)  -->
<svg xmlns="http://www.w3.org/2000/svg" xmlns:xlink="http://www.w3.org/1999/xlink" version="1.1" id="2575378608_Capa_1_grid" x="0px" y="0px" width="32px" height="32px" viewBox="0 0 32 32" enable-background="new 0 0 32 32" xml:space="preserve">
<g>
	<g>
		<path d="M30.02,21.25C30.56,20.34,32,17.55,32,14c0-3.31-1.26-5.97-1.86-7.04c0.721-1.52,1.761-4.25,0.62-5.6    c-0.2-0.24-0.58-0.53-1.25-0.53s-1.52,0.29-2.41,0.61C26.34,1.7,25.48,2,25,2h-8c-0.48,0-1.34-0.3-2.1-0.56    c-0.89-0.32-1.74-0.61-2.41-0.61c-0.67,0-1.05,0.29-1.26,0.53c-0.92,1.1-0.4,3.11,0.22,4.64h2.18c-0.58-1.25-0.96-2.57-0.92-3.14    c0.4,0.07,1.01,0.28,1.53,0.46C15.2,3.66,16.18,4,17,4h8c0.82,0,1.8-0.34,2.76-0.68c0.51-0.17,1.12-0.39,1.521-0.46    c0.05,0.67-0.45,2.29-1.17,3.68L27.84,7.06l0.33,0.49C28.19,7.58,30,10.35,30,14c0,3.63-1.82,6.42-1.83,6.45L28,20.7V21    c0,0.73,0.3,1.67,0.63,2.65c0.16,0.5,0.41,1.26,0.48,1.689c-0.04,0.01-0.101,0.01-0.16,0.01c-1.08,0-2.86-0.88-3.45-1.22L25.26,24    H20v2h4.74c0.7,0.38,2.67,1.35,4.21,1.35c0.74,0,1.33-0.22,1.76-0.64c0.771-0.77,0.35-2.06-0.18-3.68    C30.33,22.43,30.1,21.71,30.02,21.25z"/>
	</g>
</g>
<g>
	<path d="M19.71,30.29C19.69,30.28,18,28.56,18,26v-3c0-5.88-2.59-7.92-4.37-8.63L16,12V8H4v4l2.37,2.37C4.59,15.08,2,17.12,2,23v3   c0,2.53-1.69,4.28-1.71,4.29c-0.28,0.29-0.37,0.72-0.21,1.09C0.23,31.76,0.6,32,1,32h18c0.4,0,0.77-0.24,0.92-0.62   C20.08,31.01,19.99,30.58,19.71,30.29z M6,11.17V10h8v1.17L11.17,14H8.83L6,11.17z M2.94,30C3.48,29.01,4,27.64,4,26v-3   c0-6.83,3.85-7,4-7h4c0.28,0.01,4,0.28,4,7v3c0,1.64,0.52,3.01,1.06,4H2.94z"/>
</g>
</svg>
