<?xml version="1.0" encoding="utf-8"?>
<!-- Generator: Adobe Illustrator 16.0.0, SVG Export Plug-In . SVG Version: 6.00 Build 0)  -->
<svg xmlns="http://www.w3.org/2000/svg" xmlns:xlink="http://www.w3.org/1999/xlink" version="1.1" id="2575378609_Capa_1_grid" x="0px" y="0px" width="32px" height="32px" viewBox="0 0 32 32" enable-background="new 0 0 32 32" xml:space="preserve">
<g>
	<path d="M30.01,25.16C30.4,24.14,32,19.72,32,16c0-3.5-1.42-7.62-1.91-8.95c0.73-1.49,1.83-4.31,0.67-5.69   c-0.2-0.24-0.58-0.53-1.25-0.53s-1.52,0.29-2.41,0.61C26.34,1.7,25.48,2,25,2H11c-0.48,0-1.34-0.3-2.1-0.56   C8.01,1.12,7.16,0.83,6.49,0.83c-0.67,0-1.05,0.29-1.26,0.53c-1.15,1.38-0.05,4.2,0.68,5.69C5.6,7.88,4.93,9.81,4.48,12h24.99   c0.3,1.3,0.53,2.71,0.53,4s-0.23,2.7-0.53,4H20v2h8.96c-0.45,1.53-0.88,2.6-0.89,2.63L28,24.81V25c0,0.73,0.3,1.67,0.63,2.65   c0.16,0.5,0.41,1.26,0.48,1.689c-0.04,0.01-0.101,0.01-0.16,0.01c-1.08,0-2.86-0.88-3.45-1.22L25.26,28H20v2h4.74   c0.7,0.38,2.67,1.35,4.21,1.35c0.74,0,1.33-0.22,1.76-0.64c0.771-0.77,0.35-2.06-0.18-3.68C30.32,26.39,30.07,25.62,30.01,25.16z    M28.07,7.37c0.01,0.03,0.439,1.1,0.89,2.63H7.04c0.45-1.53,0.88-2.6,0.89-2.63L8.1,6.95L7.89,6.54C7.18,5.17,6.67,3.51,6.71,2.86   c0.4,0.07,1.02,0.28,1.53,0.46C9.2,3.66,10.18,4,11,4h14c0.82,0,1.8-0.34,2.76-0.68c0.51-0.17,1.12-0.39,1.521-0.46   c0.05,0.67-0.45,2.29-1.17,3.68L27.9,6.95L28.07,7.37z"/>
</g>
<g>
	<path d="M18,32H0V18h8v-4h10V32z M2,30h14V16h-6v4H2V30z"/>
</g>
<g>
	<rect x="12" y="18" width="2" height="2"/>
</g>
<g>
	<rect x="12" y="22" width="2" height="2"/>
</g>
<g>
	<rect x="8" y="22" width="2" height="2"/>
</g>
<g>
	<rect x="4" y="22" width="2" height="2"/>
</g>
<g>
	<rect x="12" y="26" width="2" height="2"/>
</g>
<g>
	<rect x="8" y="26" width="2" height="2"/>
</g>
<g>
	<rect x="4" y="26" width="2" height="2"/>
</g>
</svg>
