<?xml version="1.0" encoding="utf-8"?>
<!-- Generator: Adobe Illustrator 16.0.0, SVG Export Plug-In . SVG Version: 6.00 Build 0)  -->
<svg xmlns="http://www.w3.org/2000/svg" xmlns:xlink="http://www.w3.org/1999/xlink" version="1.1" id="2575378612_Capa_1_grid" x="0px" y="0px" width="32px" height="32px" viewBox="0 0 32 32" enable-background="new 0 0 32 32" xml:space="preserve">
<g>
	<path d="M30,22h-2v2h-2v-6.08c3.39-0.479,6-3.4,6-6.92c0-3.86-3.14-7-7-7s-7,3.14-7,7c0,3.52,2.61,6.44,6,6.92V24h-2v-2h-2v2h-2v-2   h-2v2h-2V4H4v8H0v18h32v-6h-2V22z M20,11c0-2.76,2.24-5,5-5s5,2.24,5,5c0,2.42-1.72,4.44-4,4.9V12h-2v3.9   C21.72,15.44,20,13.42,20,11z M2,14h4V6h6v18H2V14z M30,28H2v-2h28V28z"/>
	<rect x="8" y="8" width="2" height="2"/>
	<rect x="8" y="12" width="2" height="2"/>
	<rect x="8" y="16" width="2" height="2"/>
	<rect x="4" y="16" width="2" height="2"/>
	<rect x="4" y="20" width="2" height="2"/>
	<rect x="8" y="20" width="2" height="2"/>
</g>
</svg>
