<?xml version="1.0" encoding="utf-8"?>
<!-- Generator: Adobe Illustrator 16.0.0, SVG Export Plug-In . SVG Version: 6.00 Build 0)  -->
<svg xmlns="http://www.w3.org/2000/svg" xmlns:xlink="http://www.w3.org/1999/xlink" version="1.1" id="2575378611_Capa_1_grid" x="0px" y="0px" width="32px" height="32px" viewBox="0 0 32 32" enable-background="new 0 0 32 32" xml:space="preserve">
<g>
	<g>
		<path d="M25,0H10C8,0,8,2,8,2v2h2V2h12v5c0,1.21,0.8,3,3,3h5v20c0,0.01-20,0-20,0v-8H8v8c0,2,2,2,2,2h20c2,0,2-2,2-2V7L25,0z     M30,8h-5c-0.81,0-0.99-0.55-1-1V2h0.17L30,7.83V8z"/>
	</g>
</g>
<g>
	<path d="M4,10v10h10V10H4z M12,18H6v-6h6V18z"/>
</g>
<g>
	<polygon points="12,6 12,8 2,8 2,18 0,18 0,6  "/>
</g>
</svg>
