<?xml version="1.0" encoding="utf-8"?>
<!-- Generator: Adobe Illustrator 16.0.0, SVG Export Plug-In . SVG Version: 6.00 Build 0)  -->
<svg xmlns="http://www.w3.org/2000/svg" xmlns:xlink="http://www.w3.org/1999/xlink" version="1.1" id="2575378613_Capa_1_grid" x="0px" y="0px" width="32px" height="32px" viewBox="0 0 32 32" enable-background="new 0 0 32 32" xml:space="preserve">
<g>
	<g>
		<polygon points="28,22 28,28 4,28 4,20 6,20 6,26 26,26 26,22   "/>
		<polygon points="28,6 28,12 26,12 26,8 6,8 6,14 4,14 4,6   "/>
	</g>
</g>
<g>
	<polygon points="14.41,17 9.71,21.71 8.29,20.29 10.59,18 0,18 0,16 10.59,16 8.29,13.71 9.71,12.29  "/>
</g>
<g>
	<polygon points="31.71,13.71 23,22.41 18.29,17.71 19.71,16.29 23,19.59 30.29,12.29  "/>
</g>
</svg>
