<?xml version="1.0" encoding="utf-8"?>
<!-- Generator: Adobe Illustrator 16.0.0, SVG Export Plug-In . SVG Version: 6.00 Build 0)  -->
<svg xmlns="http://www.w3.org/2000/svg" xmlns:xlink="http://www.w3.org/1999/xlink" version="1.1" id="2575378614_Capa_1_grid" x="0px" y="0px" width="32px" height="32px" viewBox="0 0 32 32" enable-background="new 0 0 32 32" xml:space="preserve">
<g>
	<g>
		<path d="M15,4C7.82,4,2,6.24,2,9v18c0,2.76,5.82,5,13,5c7.18,0,13-2.24,13-5V9C28,6.24,22.18,4,15,4z M22.62,13.05    c1.06-0.29,1.989-0.65,2.771-1.05c0.221-0.11,0.42-0.22,0.609-0.34V15c-0.07,0.46-1.25,1.29-3.37,1.95    c-0.76,0.239-1.64,0.46-2.63,0.63v2.029c0.93-0.141,1.811-0.33,2.62-0.561c1.06-0.29,1.989-0.648,2.771-1.05    c0.221-0.11,0.42-0.22,0.609-0.34V21c-0.07,0.46-1.25,1.29-3.37,1.95c-0.76,0.239-1.64,0.46-2.63,0.63v2.029    c0.93-0.141,1.811-0.33,2.62-0.561c1.06-0.29,1.989-0.648,2.771-1.05c0.221-0.11,0.42-0.22,0.609-0.34V27c-0.13,0.87-4.15,3-11,3    c-6.85,0-10.87-2.13-11-3v-3.34c0.19,0.119,0.39,0.23,0.61,0.34c0.77,0.4,1.71,0.75,2.76,1.05c0.81,0.229,1.69,0.421,2.63,0.562    v-2.03c-0.99-0.181-1.87-0.399-2.62-0.63C5.25,22.279,4.07,21.46,4,21v-3.34c0.19,0.119,0.39,0.23,0.61,0.34    c0.77,0.4,1.71,0.75,2.76,1.05c0.81,0.229,1.69,0.421,2.63,0.562v-2.03c-0.99-0.181-1.87-0.399-2.62-0.63    C5.25,16.28,4.07,15.46,4,15v-3.34c0.19,0.12,0.39,0.23,0.61,0.34c0.77,0.4,1.71,0.75,2.76,1.05c0.81,0.23,1.69,0.42,2.63,0.56    v-2.03c-0.99-0.18-1.87-0.4-2.62-0.63C5.25,10.28,4.07,9.46,4,9c0.13-0.87,4.15-3,11-3c6.85,0,10.87,2.14,11,3    c-0.07,0.46-1.25,1.29-3.37,1.95c-0.76,0.24-1.64,0.46-2.63,0.63v2.03C20.93,13.47,21.811,13.28,22.62,13.05z"/>
	</g>
</g>
<g>
	<rect x="14" y="12" width="2" height="10"/>
</g>
<g>
	<rect x="14" y="24" width="2" height="2"/>
</g>
</svg>
