<?xml version="1.0" encoding="utf-8"?>
<!-- Generator: Adobe Illustrator 16.0.0, SVG Export Plug-In . SVG Version: 6.00 Build 0)  -->
<svg xmlns="http://www.w3.org/2000/svg" xmlns:xlink="http://www.w3.org/1999/xlink" version="1.1" id="2575378615_Capa_1_grid" x="0px" y="0px" width="32px" height="32px" viewBox="0 0 32 32" enable-background="new 0 0 32 32" xml:space="preserve">
<g>
	<path d="M13,10L0,32h26L13,10z M13,13.93L22.5,30h-19L13,13.93z"/>
</g>
<g>
	<rect x="12" y="18" width="2" height="6"/>
</g>
<g>
	<rect x="12" y="26" width="2" height="2"/>
</g>
<g>
	<polygon points="18,2 18,4 32,4 32,10 20,10 20,12 32,12 32,18 20,18 20,16 30,16 30,14 18,14 18,8 30,8 30,6 16,6 16,0 32,0 32,2     "/>
</g>
</svg>
