<?xml version="1.0" encoding="utf-8"?>
<!-- Generator: Adobe Illustrator 16.0.0, SVG Export Plug-In . SVG Version: 6.00 Build 0)  -->
<svg xmlns="http://www.w3.org/2000/svg" xmlns:xlink="http://www.w3.org/1999/xlink" version="1.1" id="2575378616_Capa_1_grid" x="0px" y="0px" width="32px" height="32px" viewBox="0 0 32 32" enable-background="new 0 0 32 32" xml:space="preserve">
<g>
	<path d="M13,10L0,32h26L13,10z M13,13.93L22.5,30h-19L13,13.93z"/>
</g>
<g>
	<rect x="12" y="18" width="2" height="6"/>
</g>
<g>
	<rect x="12" y="26" width="2" height="2"/>
</g>
<g>
	<g>
		<path d="M25.41,0H15c-2.2,0-3,1.79-3,3v5h2V3.01C14.01,2.55,14.19,2,15,2h7v5c0,1.21,0.8,3,3,3h5v11c0,0.81-0.55,0.99-1.01,1H24v2    h5c1.21,0,3-0.8,3-3V6.59L25.41,0z M30,8h-5c-0.81,0-0.99-0.55-1-1V2h0.59L30,7.41V8z"/>
	</g>
</g>
<g>
	<rect x="18" y="12" width="10" height="2"/>
</g>
<g>
	<rect x="20" y="16" width="8" height="2"/>
</g>
<g>
	<rect x="16" y="8" width="4" height="2"/>
</g>
</svg>
