<?xml version="1.0" encoding="utf-8"?>
<!-- Generator: Adobe Illustrator 16.0.0, SVG Export Plug-In . SVG Version: 6.00 Build 0)  -->
<svg xmlns="http://www.w3.org/2000/svg" xmlns:xlink="http://www.w3.org/1999/xlink" version="1.1" id="2575378617_Capa_1_grid" x="0px" y="0px" width="32px" height="32px" viewBox="0 0 32 32" enable-background="new 0 0 32 32" xml:space="preserve">
<g>
	<g>
		<g>
			<path d="M31,6c-0.09,0-8.63-0.04-12.29-3.71L18,1.59l-0.71,0.7C13.64,5.95,5.09,6,5,6H4v1c0,0.18,0.01,1.31,0.2,3h2.03     c-0.1-0.83-0.16-1.52-0.19-2.03C8.45,7.84,14.42,7.24,18,4.34c3.58,2.9,9.55,3.5,11.96,3.63C29.73,11.63,28.21,24.58,18,27.95     v2.1l0.29-0.09C31.84,25.79,32,7.77,32,7V6H31z"/>
		</g>
	</g>
</g>
<g>
	<path d="M14,20v-2c0-2.08-1.25-6-6-6s-6,3.92-6,6v2H0v12h16V20H14z M4,18c0-0.16,0.05-4,4-4c3.85,0,4,3.59,4,4v2H4V18z M14,30H2v-8   h12V30z"/>
</g>
</svg>
