<?xml version="1.0" encoding="utf-8"?>
<!-- Generator: Adobe Illustrator 16.0.0, SVG Export Plug-In . SVG Version: 6.00 Build 0)  -->
<svg xmlns="http://www.w3.org/2000/svg" xmlns:xlink="http://www.w3.org/1999/xlink" version="1.1" id="2575378618_Capa_1_grid" x="0px" y="0px" width="32px" height="32px" viewBox="0 0 32 32" enable-background="new 0 0 32 32" xml:space="preserve">
<g>
	<path d="M2,0v32h28V0H2z M28,30H4V2h24V30z"/>
	<path d="M24,4H8C6,4,6,6,6,6v20c0,2,2,2,2,2h16c2,0,2-2,2-2V6C26,4,24,4,24,4z M24,25.96c0,0.01,0,0.021-0.01,0.04H8.04   C8.03,26,8.02,26,8,25.99V24h16V25.96z M24,22H8V10h16V22z M24,8H8V6.04C8,6.03,8,6.02,8.01,6h15.95C23.97,6,23.98,6,24,6.01V8z"/>
</g>
</svg>
