<?xml version="1.0" encoding="utf-8"?>
<!-- Generator: Adobe Illustrator 16.0.0, SVG Export Plug-In . SVG Version: 6.00 Build 0)  -->
<svg xmlns="http://www.w3.org/2000/svg" xmlns:xlink="http://www.w3.org/1999/xlink" version="1.1" id="2575378620_Capa_1_grid" x="0px" y="0px" width="32px" height="32px" viewBox="0 0 32 32" enable-background="new 0 0 32 32" xml:space="preserve">
<g>
	<g>
		<path d="M15,2C6.72,2,0,8.72,0,17c0,8.28,6.72,15,15,15c8.28,0,15-6.72,15-15C30,8.72,23.28,2,15,2z M16,29.96V26h-2v3.96    C7.63,29.48,2.52,24.37,2.05,18H6v-2H2.05C2.52,9.63,7.63,4.52,14,4.05V8h2V4.05C22.37,4.52,27.48,9.63,27.96,16H24v2h3.96    C27.48,24.37,22.37,29.48,16,29.96z"/>
	</g>
</g>
<g>
	<g>
		<path d="M23.48,14h2.1c-1.03-3.66-3.91-6.55-7.58-7.58v2.1C20.55,9.42,22.58,11.45,23.48,14z M18,25.48v2.1    c3.67-1.03,6.55-3.92,7.58-7.58h-2.1C22.58,22.55,20.55,24.58,18,25.48z M6.52,20h-2.1c1.03,3.67,3.92,6.55,7.58,7.58v-2.1    C9.45,24.58,7.42,22.55,6.52,20z M4.42,14h2.1c0.9-2.55,2.93-4.58,5.48-5.48v-2.1C8.33,7.45,5.45,10.34,4.42,14z"/>
	</g>
</g>
<g>
	<rect x="14" y="20" width="2" height="2"/>
</g>
<g>
	<rect x="14" y="12" width="2" height="6"/>
</g>
</svg>
