<?xml version="1.0" encoding="utf-8"?>
<!-- Generator: Adobe Illustrator 16.0.0, SVG Export Plug-In . SVG Version: 6.00 Build 0)  -->
<svg xmlns="http://www.w3.org/2000/svg" xmlns:xlink="http://www.w3.org/1999/xlink" version="1.1" id="2575378621_Capa_1_grid" x="0px" y="0px" width="32px" height="32px" viewBox="0 0 32 32" enable-background="new 0 0 32 32" xml:space="preserve">
<path d="M2,10h18c0,0,0,0.85,0,2h2V6c0,0,0-2-2-2h-8l-2-2H2c0,0-2,0-2,2v14c0,0,0,2,2,2h2v-2H2V10z M2,4h7l2,2c0,0,9-0.01,9,0v2H2V4  z"/>
<path d="M6,14v18h26V14H6z M30,30H8V16h22V30z M28,20H10v-2h18V20z M28,24H10v-2h18V24z M28,28H10v-2h18V28z"/>
</svg>
