<?xml version="1.0" encoding="utf-8"?>
<!-- Generator: Adobe Illustrator 16.0.0, SVG Export Plug-In . SVG Version: 6.00 Build 0)  -->
<svg xmlns="http://www.w3.org/2000/svg" xmlns:xlink="http://www.w3.org/1999/xlink" version="1.1" id="2575378622_Capa_1_grid" x="0px" y="0px" width="32px" height="32px" viewBox="0 0 32 32" enable-background="new 0 0 32 32" xml:space="preserve">
<g>
	<g>
		<path d="M26,8v17c0,0.55-0.45,1-1,1s-1-0.45-1-1v-7h-2v9c0,0.55-0.45,1-1,1s-1-0.45-1-1v-9h-2v11c0,0.55-0.45,1-1,1s-1-0.45-1-1    V18h-2v9c0,0.55-0.45,1-1,1s-1-0.45-1-1V13c0-0.05,0-0.11-0.01-0.16c-0.07-0.44-0.4-0.81-0.85-0.94    c-0.86-0.26-1.97,0.23-4.88,3.43c-1.41,1.55-2.49,0.98-2.7,0.84c0-0.01-0.39-0.32-0.46-0.85c-0.07-0.61,0.33-1.26,0.68-1.69    C5.32,11.71,12.22,3.58,13.48,2l-1.26-1.62c0,0-8.23,9.79-10,11.99c-0.88,1.1-1.24,2.19-1.1,3.25c0.19,1.37,1.19,2.11,1.3,2.189    c0.9,0.641,3.17,1.23,5.32-1.14c1.05-1.15,1.78-1.84,2.26-2.25V27c0,1.65,1.35,3,3,3c0.39,0,0.77-0.08,1.11-0.22    C14.45,31.06,15.62,32,17,32s2.55-0.94,2.89-2.22C20.23,29.92,20.61,30,21,30c1.38,0,2.55-0.94,2.89-2.22    C24.23,27.92,24.61,28,25,28c1.65,0,3-1.35,3-3V8H26z"/>
	</g>
</g>
<g>
	<polygon points="19.083,12.497 14.293,7.707 15.707,6.293 18.917,9.503 26.219,0.375 27.781,1.625  "/>
</g>
</svg>
