<?xml version="1.0" encoding="utf-8"?>
<!-- Generator: Adobe Illustrator 16.0.0, SVG Export Plug-In . SVG Version: 6.00 Build 0)  -->
<svg xmlns="http://www.w3.org/2000/svg" xmlns:xlink="http://www.w3.org/1999/xlink" version="1.1" id="2575378623_Capa_1_grid" x="0px" y="0px" width="32px" height="32px" viewBox="0 0 32 32" enable-background="new 0 0 32 32" xml:space="preserve">
<g>
	<g>
		<path d="M28,16v-1c0-4.94-4.8-5-5-5c-2.96,0-4.76,2.7-6.67,5.55C14.32,18.58,12.04,22,8,22c-1.79,0-3.08-0.46-4-1.14V26h26v2H2V4    h2v12.99c0,0,0,0,0,0.01c0.01,0.34,0.2,3,4,3c2.96,0,4.76-2.7,6.67-5.55C16.68,11.42,18.96,8,23,8c2.42,0,7,1.46,7,7v1H28z"/>
	</g>
</g>
</svg>
