<?xml version="1.0" encoding="utf-8"?>
<!-- Generator: Adobe Illustrator 16.0.0, SVG Export Plug-In . SVG Version: 6.00 Build 0)  -->
<svg xmlns="http://www.w3.org/2000/svg" xmlns:xlink="http://www.w3.org/1999/xlink" version="1.1" id="2575378628_Capa_1_grid" x="0px" y="0px" width="32px" height="32px" viewBox="0 0 32 32" enable-background="new 0 0 32 32" xml:space="preserve">
<g>
	<rect x="14" y="16" width="2" height="2"/>
</g>
<g>
	<rect x="10" y="16" width="2" height="2"/>
</g>
<path d="M13,24h1v-0.05C13.67,23.98,13.34,24,13,24z M12,23.95V24h1C12.66,24,12.33,23.98,12,23.95z"/>
<path d="M22.35,22.02C24.61,19.69,26,16.51,26,13c0-7.18-5.82-13-13-13C5.82,0,0,5.82,0,13c0,7.18,5.82,13,13,13  c2.95,0,5.68-0.99,7.86-2.65l7.39,8.311l1.5-1.32L22.35,22.02z M14,24h-2v-2h2V24z M18,22.8c-0.63,0.32-1.3,0.59-2,0.78V20h-6v3.58  c-0.7-0.19-1.37-0.46-2-0.78v-9.79C8.01,12.5,8.18,10,11,10h7V22.8z M20,21.49V8h-9c-3.96,0-5,3.27-5,5v8.49  C3.56,19.47,2,16.41,2,13C2,6.93,6.93,2,13,2c6.07,0,11,4.93,11,11C24,16.41,22.44,19.47,20,21.49z"/>
<g>
	<rect x="14" y="12" width="2" height="2"/>
</g>
<g>
	<rect x="10" y="12" width="2" height="2"/>
</g>
</svg>
