<?xml version="1.0" encoding="utf-8"?>
<!-- Generator: Adobe Illustrator 16.0.0, SVG Export Plug-In . SVG Version: 6.00 Build 0)  -->
<svg xmlns="http://www.w3.org/2000/svg" xmlns:xlink="http://www.w3.org/1999/xlink" version="1.1" id="2575378636_Capa_1_grid" x="0px" y="0px" width="32px" height="32px" viewBox="0 0 32 32" enable-background="new 0 0 32 32" xml:space="preserve">
<g>
	<path d="M30,4H16l-2-2H2c0,0-2,0-2,2v24c0,0,0,2,2,2h28c0,0,2,0,2-2V6C32,6,32,4,30,4z M30,28c0,0-28,0.01-28,0v-8h5   c0.27,0,0.52-0.11,0.71-0.29l3.18-3.19l5.31,7.08c0.17,0.23,0.44,0.381,0.73,0.4H17c0.26,0,0.52-0.1,0.71-0.29l3.7-3.71H30   C30,24.14,30,28,30,28z M30,18h-9c-0.27,0-0.52,0.11-0.71,0.29l-3.18,3.19L11.8,14.4c-0.17-0.23-0.44-0.38-0.73-0.4   c-0.29-0.01-0.57,0.09-0.78,0.29L6.59,18H2v-8h28C30,10,30,13.86,30,18z M30,8H2V4h11.17l2,2C15.17,6,30,5.99,30,6V8z"/>
</g>
</svg>
