<?xml version="1.0" encoding="utf-8"?>
<!-- Generator: Adobe Illustrator 16.0.0, SVG Export Plug-In . SVG Version: 6.00 Build 0)  -->
<svg xmlns="http://www.w3.org/2000/svg" xmlns:xlink="http://www.w3.org/1999/xlink" version="1.1" id="2575378634_Capa_1_grid" x="0px" y="0px" width="32px" height="32px" viewBox="0 0 32 32" enable-background="new 0 0 32 32" xml:space="preserve">
<g>
	<path d="M15,2C6.73,2,0,8.73,0,17c0,4.01,1.56,7.77,4.39,10.609C7.23,30.439,10.99,32,15,32c8.27,0,15-6.73,15-15   C30,8.73,23.27,2,15,2z M16,4.05c2.83,0.2,5.41,1.33,7.45,3.08L16,14.59V4.05z M14,4.05V16H2.05C2.52,9.63,7.63,4.52,14,4.05z    M15,30c-3.47,0-6.74-1.35-9.19-3.811C3.59,23.98,2.27,21.09,2.04,18h12.55l8.86,8.87C21.18,28.82,18.221,30,15,30z M24.87,25.45   L16.41,17l8.46-8.45C26.82,10.82,28,13.78,28,17C28,20.221,26.82,23.18,24.87,25.45z"/>
</g>
</svg>
