<?xml version="1.0" encoding="utf-8"?>
<!-- Generator: Adobe Illustrator 16.0.0, SVG Export Plug-In . SVG Version: 6.00 Build 0)  -->
<svg xmlns="http://www.w3.org/2000/svg" xmlns:xlink="http://www.w3.org/1999/xlink" version="1.1" id="2575378637_Capa_1_grid" x="0px" y="0px" width="32px" height="32px" viewBox="0 0 32 32" enable-background="new 0 0 32 32" xml:space="preserve">
<path d="M30,4H16l-2-2H2c0,0-2,0-2,2v8h2v-2h28c0,0,0.01,16,0,16h-6v2h6c0,0,2,0,2-2V6C32,6,32,4,30,4z M30,8H2V4h11.17l2,2H30V8z"/>
<path d="M20,16h-8l-2-2H2c0,0-2,0-2,2v14c0,0,0,2,2,2h18c0,0,2,0,2-2V18C22,18,22,16,20,16z M2,16h7l2,2c0,0,9-0.01,9,0v2H2V16z   M20,30H2v-8h18C20,22,20.01,30,20,30z"/>
</svg>
