<?xml version="1.0" encoding="utf-8"?>
<!-- Generator: Adobe Illustrator 16.0.0, SVG Export Plug-In . SVG Version: 6.00 Build 0)  -->
<svg xmlns="http://www.w3.org/2000/svg" xmlns:xlink="http://www.w3.org/1999/xlink" version="1.1" id="2575378638_Capa_1_grid" x="0px" y="0px" width="32px" height="32px" viewBox="0 0 32 32" enable-background="new 0 0 32 32" xml:space="preserve">
<g>
	<g>
		<path d="M28.71,5.29c-1.03-1.03-2.22-1.55-3.52-1.55c-2.141,0-3.79,1.45-3.9,1.55l-3.98,3.98l1.421,1.42L20,9.42L24.58,14    l-1.271,1.27l1.421,1.42l4.02-4.02C29.94,11.32,31.47,8.06,28.71,5.29z M27.29,11.29L26,12.58L21.42,8l1.25-1.25    c0.01-0.01,1.16-1.01,2.521-1.01c0.77,0,1.449,0.32,2.1,0.97C29.37,8.79,27.47,11.08,27.29,11.29z M12,26.58L7.42,22l1.41-1.41    l-1.42-1.42l-3.12,3.12C4.11,22.48,4,22.73,4,23v7h7c0.27,0,0.52-0.11,0.71-0.29l3.12-3.12l-1.42-1.42L12,26.58z M6,28v-4.58    L10.58,28H6z"/>
	</g>
</g>
<g>
	<path d="M8.07,2.86L1,9.93L22.21,31.14l7.07-7.069L8.07,2.86z M20.81,26.91l1.4-1.43l-1.41-1.41L19.4,25.5l-1.431-1.43l1.42-1.41   l-1.42-1.42l-1.41,1.42l-1.42-1.42l1.42-1.41l-1.42-1.42l-1.41,1.42l-1.42-1.42L13.73,17l-1.42-1.41L10.9,17l-1.41-1.41l1.41-1.42   l-1.41-1.41l-1.42,1.41l-1.41-1.41l1.41-1.42L6.66,9.93l-1.42,1.41L3.83,9.93l4.24-4.24l18.39,18.38l-4.25,4.239L20.81,26.91z"/>
</g>
</svg>
