<?xml version="1.0" encoding="utf-8"?>
<!-- Generator: Adobe Illustrator 16.0.0, SVG Export Plug-In . SVG Version: 6.00 Build 0)  -->
<svg xmlns="http://www.w3.org/2000/svg" xmlns:xlink="http://www.w3.org/1999/xlink" version="1.1" id="2575378639_Capa_1_grid" x="0px" y="0px" width="32px" height="32px" viewBox="0 0 32 32" enable-background="new 0 0 32 32" xml:space="preserve">
<g>
	<rect y="16" width="6" height="2"/>
</g>
<g>
	<rect x="24" y="16" width="6" height="2"/>
</g>
<g>
	<rect x="14" y="2" width="2" height="6"/>
</g>
<g>
	<rect x="14" y="26" width="2" height="6"/>
</g>
<g>
	<path d="M2.35,14h2.07C5.45,10.34,8.34,7.45,12,6.42V4.35C7.23,5.47,3.47,9.23,2.35,14z M18,4.35v2.07   c3.66,1.03,6.55,3.92,7.58,7.58h2.07C26.53,9.23,22.77,5.47,18,4.35z M25.58,20c-1.03,3.66-3.92,6.55-7.58,7.58v2.07   c4.77-1.12,8.53-4.881,9.65-9.65H25.58z M4.42,20H2.35c1.12,4.77,4.88,8.53,9.65,9.65v-2.07C8.34,26.55,5.45,23.66,4.42,20z"/>
</g>
<g>
	<polygon points="18,16 18,18 16,18 16,20 14,20 14,18 12,18 12,16 14,16 14,14 16,14 16,16  "/>
</g>
</svg>
