<?xml version="1.0" encoding="utf-8"?>
<!-- Generator: Adobe Illustrator 16.0.0, SVG Export Plug-In . SVG Version: 6.00 Build 0)  -->
<svg xmlns="http://www.w3.org/2000/svg" xmlns:xlink="http://www.w3.org/1999/xlink" version="1.1" id="2575378645_Capa_1_grid" x="0px" y="0px" width="32px" height="32px" viewBox="0 0 32 32" enable-background="new 0 0 32 32" xml:space="preserve">
<g>
	<g>
		<g>
			<path d="M23,0H8C6,0,6,2,6,2v2h2V2h12v5c0,1.21,0.8,3,3,3h5v20H8v-4H6v4c0,2,2,2,2,2h20c2,0,2-2,2-2V7L23,0z M23,8     c-0.81,0-0.99-0.55-1-1V2h0.17L28,7.83V8H23z"/>
		</g>
	</g>
</g>
<g>
	<path d="M2,6v18h10V6H2z M4,8h6v6H4V8z M10,22H4v-2h6V22z M10,18H4v-2h6V18z"/>
</g>
</svg>
