<?xml version="1.0" encoding="utf-8"?>
<!-- Generator: Adobe Illustrator 16.0.0, SVG Export Plug-In . SVG Version: 6.00 Build 0)  -->
<svg xmlns="http://www.w3.org/2000/svg" xmlns:xlink="http://www.w3.org/1999/xlink" version="1.1" id="2575378646_Capa_1_grid" x="0px" y="0px" width="32px" height="32px" viewBox="0 0 32 32" enable-background="new 0 0 32 32" xml:space="preserve">
<g>
	<g>
		<path d="M30,26V4H0v22h14v2h-4v2h10v-2h-4v-2H30z M4.22,24H2V6h26v18h-8.22c-0.931-5.92-4.61-6-4.78-6h-0.41L12,20.59L9.41,18H9    C8.83,18,5.15,18.08,4.22,24z M6.24,24c0.53-2.93,1.81-3.71,2.42-3.92L12,23.41l3.33-3.33c0.63,0.22,1.9,1,2.43,3.92H6.24z"/>
		<path d="M12,8c-2.21,0-4,2.24-4,5s1.79,5,4,5s4-2.24,4-5S14.21,8,12,8z M12,16c-1.07,0-2-1.4-2-3s0.93-3,2-3s2,1.4,2,3    S13.07,16,12,16z"/>
	</g>
</g>
<g>
	<rect x="18" y="8" width="8" height="2"/>
</g>
<g>
	<rect x="20" y="12" width="6" height="2"/>
</g>
<g>
	<rect x="20" y="16" width="6" height="2"/>
</g>
</svg>
