<?xml version="1.0" encoding="utf-8"?>
<!-- Generator: Adobe Illustrator 16.0.0, SVG Export Plug-In . SVG Version: 6.00 Build 0)  -->
<svg xmlns="http://www.w3.org/2000/svg" xmlns:xlink="http://www.w3.org/1999/xlink" version="1.1" id="2575378647_Capa_1_grid" x="0px" y="0px" width="32px" height="32px" viewBox="0 0 32 32" enable-background="new 0 0 32 32" xml:space="preserve">
<g>
	<path d="M30,4H16l-2-2H2c0,0-2,0-2,2v22c0,0,0,2,2,2h12v-2H2V10h28c0,0,0.01,16,0,16h2V6C32,6,32,4,30,4z M30,8H2V4h11.17l2,2   C15.17,6,30,5.99,30,6V8z"/>
</g>
<g>
	<g>
		<path d="M26.13,25.79c1.19-1.25,1.91-2.93,1.91-4.79c0-3.87-3.13-7-7-7c-3.86,0-7,3.13-7,7s3.14,7,7,7c1.29,0,2.5-0.35,3.53-0.96    l3.649,4.58l1.561-1.24L26.13,25.79z M21.04,26c-2.75,0-5-2.24-5-5s2.25-5,5-5c2.76,0,5,2.24,5,5S23.8,26,21.04,26z"/>
	</g>
</g>
<g>
	<polygon points="24,20 24,22 22,22 22,24 20,24 20,22 18,22 18,20 20,20 20,18 22,18 22,20  "/>
</g>
<g>
	<rect x="4" y="14" width="8" height="2"/>
</g>
<g>
	<rect x="4" y="18" width="8" height="2"/>
</g>
<g>
	<rect x="4" y="22" width="8" height="2"/>
</g>
</svg>
