<?xml version="1.0" encoding="utf-8"?>
<!-- Generator: Adobe Illustrator 16.0.0, SVG Export Plug-In . SVG Version: 6.00 Build 0)  -->
<svg xmlns="http://www.w3.org/2000/svg" xmlns:xlink="http://www.w3.org/1999/xlink" version="1.1" id="2575378649_Capa_1_grid" x="0px" y="0px" width="32px" height="32px" viewBox="0 0 32 32" enable-background="new 0 0 32 32" xml:space="preserve">
<g>
	<g>
		<path d="M19.01,7.25c-0.83,0.58-1.529,1.33-2.04,2.21l-1.85-0.78c0.61-1.12,1.46-2.1,2.46-2.86L19.01,7.25z"/>
	</g>
	<g>
		<path d="M32,13c0,4.63-3.51,8.45-8,8.94V19.92c3.39-0.479,6-3.4,6-6.92c0-3.71-2.9-6.76-6.56-6.98l2.27,2.27l-1.42,1.42L19.59,5    l4.7-4.71l1.42,1.42l-2.31,2.3C28.18,4.22,32,8.17,32,13z"/>
	</g>
</g>
<g>
	<path d="M11,10C4.92,10,0,14.92,0,21s4.92,11,11,11s11-4.92,11-11S17.08,10,11,10z M11,30c-4.96,0-9-4.04-9-9s4.04-9,9-9   s9,4.04,9,9S15.96,30,11,30z"/>
	<polygon points="16,20 16,22 10,22 10,14 12,14 12,20  "/>
</g>
</svg>
