<?xml version="1.0" encoding="utf-8"?>
<!-- Generator: Adobe Illustrator 16.0.0, SVG Export Plug-In . SVG Version: 6.00 Build 0)  -->
<svg xmlns="http://www.w3.org/2000/svg" xmlns:xlink="http://www.w3.org/1999/xlink" version="1.1" id="2575378648_Capa_1_grid" x="0px" y="0px" width="32px" height="32px" viewBox="0 0 32 32" enable-background="new 0 0 32 32" xml:space="preserve">
<g>
	<path d="M15,8c-4.97,0-9,4.03-9,9c0,4.97,4.03,9,9,9c4.97,0,9-4.03,9-9C24,12.03,19.97,8,15,8z M15,24c-3.86,0-7-3.14-7-7   c0-3.86,3.14-7,7-7c3.86,0,7,3.14,7,7C22,20.86,18.86,24,15,24z"/>
</g>
<g>
	<polygon points="18,16 18,18 14,18 14,12 16,12 16,16  "/>
</g>
<g>
	<polygon points="28,2 28,22 26,22 26,4 4,4 4,8 2,8 2,2  "/>
</g>
<g>
	<polygon points="28,26 28,32 2,32 2,12 4,12 4,30 26,30 26,26  "/>
</g>
</svg>
