<?xml version="1.0" encoding="utf-8"?>
<!-- Generator: Adobe Illustrator 16.0.0, SVG Export Plug-In . SVG Version: 6.00 Build 0)  -->
<svg xmlns="http://www.w3.org/2000/svg" xmlns:xlink="http://www.w3.org/1999/xlink" version="1.1" id="2575378650_Capa_1_grid" x="0px" y="0px" width="32px" height="32px" viewBox="0 0 32 32" enable-background="new 0 0 32 32" xml:space="preserve">
<g>
	<path d="M6.026,22.145l1.31,1.965L9,26.605l1.664-2.496l1.309-1.963c2.7,0.852,3.592,5.228,3.885,7.854H2.138   C2.425,27.373,3.311,22.994,6.026,22.145L6.026,22.145z M11,20l-2,3l-2-3c-7,0-7,12-7,12h18C18,32,18,20,11,20L11,20z"/>
</g>
<g>
	<path d="M9,8c2.206,0,4,2.243,4,5s-1.794,5-4,5s-4-2.243-4-5S6.794,8,9,8L9,8z M9,6c-3.314,0-6,3.134-6,7c0,3.865,2.686,7,6,7   s6-3.135,6-7C15,9.134,12.314,6,9,6L9,6z"/>
</g>
<g>
	<polygon points="32,2 32,24 18,24 18,22 30,22 30,20 18,20 18,18 30,18 30,4 4,4 4,6 2,6 2,2  "/>
</g>
<g>
	<rect x="16" y="8" width="12" height="2"/>
</g>
<g>
	<rect x="18" y="12" width="10" height="2"/>
</g>
</svg>
