<?xml version="1.0" encoding="utf-8"?>
<!-- Generator: Adobe Illustrator 16.0.0, SVG Export Plug-In . SVG Version: 6.00 Build 0)  -->
<svg xmlns="http://www.w3.org/2000/svg" xmlns:xlink="http://www.w3.org/1999/xlink" version="1.1" id="2575378651_Capa_1_grid" x="0px" y="0px" width="32px" height="32px" viewBox="0 0 32 32" enable-background="new 0 0 32 32" xml:space="preserve">
<g>
	<path d="M12.77,3.03l-0.01,0.01c0.02-0.01,0.05-0.02,0.07-0.02C12.81,3.02,12.79,3.02,12.77,3.03z M13.27,3.03   c-0.02-0.01-0.04-0.01-0.06-0.01c0.02,0,0.05,0.01,0.07,0.02C13.28,3.04,13.28,3.03,13.27,3.03z M14.01,3.85   c0-0.01,0-0.03-0.01-0.04c0.01,0.06,0.02,0.12,0.02,0.18C14.02,3.95,14.02,3.9,14.01,3.85z"/>
</g>
<g>
	<path d="M12.77,3.03l-0.01,0.01c0.02-0.01,0.05-0.02,0.07-0.02C12.81,3.02,12.79,3.02,12.77,3.03z"/>
</g>
<g>
	<path d="M12.77,3.03l-0.01,0.01c0.02-0.01,0.05-0.02,0.07-0.02C12.81,3.02,12.79,3.02,12.77,3.03z M13.27,3.03   c-0.02-0.01-0.04-0.01-0.06-0.01c0.02,0,0.05,0.01,0.07,0.02C13.28,3.04,13.28,3.03,13.27,3.03z M14.01,3.85   c0-0.01,0-0.03-0.01-0.04c0.01,0.06,0.02,0.12,0.02,0.18C14.02,3.95,14.02,3.9,14.01,3.85z"/>
</g>
<g>
	<path d="M13.27,3.03c-0.02-0.01-0.04-0.01-0.06-0.01c0.02,0,0.05,0.01,0.07,0.02C13.28,3.04,13.28,3.03,13.27,3.03z M14.01,3.85   c0-0.01,0-0.03-0.01-0.04c0.01,0.06,0.02,0.12,0.02,0.18C14.02,3.95,14.02,3.9,14.01,3.85z"/>
</g>
<g>
	<path d="M31.89,27.45C31.8,27.63,29.57,32,25,32c-2.97,0-4.95-1.84-6-3.19C17.95,30.16,15.97,32,13,32s-4.95-1.84-6-3.19   C5.95,30.16,3.97,32,1,32c-0.55,0-1-0.45-1-1s0.45-1,1-1c3.32,0,5.09-3.42,5.11-3.45C6.28,26.21,6.59,26.03,7,26   c0.38,0,0.73,0.21,0.89,0.55C7.91,26.58,9.68,30,13,30s5.09-3.42,5.11-3.45C18.28,26.21,18.64,25.99,19,26   c0.38,0,0.73,0.21,0.89,0.55C19.91,26.58,21.68,30,25,30s5.09-3.42,5.11-3.45c0.25-0.49,0.85-0.689,1.34-0.439   S32.14,26.95,31.89,27.45z"/>
</g>
<g>
	<path d="M31.45,20.11c-0.49-0.25-1.09-0.051-1.34,0.439C30.09,20.58,28.32,24,25,24s-5.09-3.42-5.11-3.45   C19.73,20.21,19.38,20,19,20c-0.36-0.04-0.72,0.21-0.89,0.55c-0.021,0.03-1.43,2.76-4.11,3.34v-6.51c1.41-0.89,5.32-3.7,5.02-7.22   c0-0.03-0.01-0.06-0.01-0.09l3.38,2.71C22.58,12.92,22.8,13,23.02,13c0.12,0,0.24-0.02,0.36-0.07c0.33-0.12,0.57-0.42,0.63-0.77   c0.04-0.27,1.061-6.66-2.439-8.99c-1.051-0.7-2.38-1.06-3.96-1.06c-1.98,0-3.831,0.56-4.59,0.83c-0.76-0.27-2.61-0.83-4.59-0.83   c-1.58,0-2.91,0.36-3.96,1.06c-3.5,2.33-2.48,8.72-2.44,8.99c0.06,0.35,0.3,0.65,0.63,0.77C2.78,12.98,2.9,13,3.02,13   c0.22,0,0.44-0.08,0.62-0.22l3.39-2.71c0,0.03-0.01,0.06-0.01,0.09c-0.3,3.48,3.54,6.28,4.98,7.189v6.54   c-2.68-0.58-4.09-3.31-4.11-3.34C7.73,20.21,7.38,20,7,20c-0.41-0.01-0.72,0.21-0.89,0.55C6.09,20.58,4.32,24,1,24   c-0.55,0-1,0.45-1,1s0.45,1,1,1c2.97,0,4.95-1.84,6-3.19C8.05,24.16,10.03,26,13,26s4.95-1.84,6-3.19C20.05,24.16,22.03,26,25,26   c4.57,0,6.8-4.37,6.89-4.55C32.14,20.95,31.94,20.36,31.45,20.11z M15.31,4.38c0.68-0.15,1.48-0.27,2.3-0.27   c1.18,0,2.14,0.24,2.85,0.72c1.45,0.96,1.75,3.38,1.72,5.22l-5.45-4.36l-1.59-1.28C15.2,4.4,15.25,4.39,15.31,4.38z M15.36,7.15   c0.85,0.92,1.56,2.03,1.66,3.18c0.15,1.73-1.54,3.48-3,4.6V5.9C14.46,6.26,14.93,6.68,15.36,7.15z M14.01,3.85   c0.01,0.05,0.01,0.1,0.01,0.14c0-0.06-0.01-0.12-0.02-0.18C14.01,3.82,14.01,3.84,14.01,3.85z M3.86,10.05   C3.82,8.21,4.13,5.8,5.57,4.83c0.72-0.48,1.68-0.72,2.86-0.72c0.81,0,1.62,0.12,2.3,0.27c0.06,0.01,0.11,0.02,0.17,0.03L9.31,5.69   L3.86,10.05z M12.02,14.93c-1.46-1.12-3.15-2.87-3-4.6c0.1-1.18,0.81-2.28,1.65-3.17c0.43-0.48,0.92-0.91,1.35-1.25V14.93z    M12.76,3.04l0.01-0.01c0.02-0.01,0.04-0.01,0.06-0.01C12.81,3.02,12.78,3.03,12.76,3.04z M13.21,3.02c0.02,0,0.04,0,0.06,0.01   c0.01,0,0.01,0.01,0.01,0.01C13.26,3.03,13.23,3.02,13.21,3.02z"/>
</g>
</svg>
