<?xml version="1.0" encoding="utf-8"?>
<!-- Generator: Adobe Illustrator 16.0.0, SVG Export Plug-In . SVG Version: 6.00 Build 0)  -->
<svg xmlns="http://www.w3.org/2000/svg" xmlns:xlink="http://www.w3.org/1999/xlink" version="1.1" id="2575378652_Capa_1_grid" x="0px" y="0px" width="32px" height="32px" viewBox="0 0 32 32" enable-background="new 0 0 32 32" xml:space="preserve">
<g>
	<path d="M31.78,16.38l-0.08-0.09l-7.92-9.91c-0.21-0.27-0.55-0.41-0.891-0.37c-0.33,0.03-0.63,0.24-0.779,0.54l-2,4l1.779,0.9   l1.311-2.6L28.92,16H19c-0.41,0-0.76,0.25-0.91,0.6C17.53,16.25,16.84,16,16,16s-1.53,0.25-2.09,0.6C13.76,16.25,13.41,16,13,16   H3.08L8.8,8.85l1.31,2.6l1.78-0.9l-2-4c-0.15-0.3-0.45-0.51-0.78-0.54c-0.34-0.04-0.68,0.1-0.89,0.37L0.3,16.29l-0.08,0.09   C0.08,16.55,0,16.77,0,17v2c0,2.42,1.46,7,7,7c5.32,0,6.88-4.22,6.99-6.7C14.22,18.93,14.92,18,16,18s1.78,0.93,2.01,1.3   C18.12,21.78,19.68,26,25,26c5.54,0,7-4.58,7-7v-2C32,16.77,31.92,16.55,31.78,16.38z M12,19c0,0.2-0.06,5-5,5c-4.82,0-5-4.49-5-5   v-1h10V19z M30,19c0,0.2-0.06,5-5,5c-4.82,0-5-4.49-5-5v-1h10V19z"/>
</g>
</svg>
