<?xml version="1.0" encoding="utf-8"?>
<!-- Generator: Adobe Illustrator 16.0.0, SVG Export Plug-In . SVG Version: 6.00 Build 0)  -->
<svg xmlns="http://www.w3.org/2000/svg" xmlns:xlink="http://www.w3.org/1999/xlink" version="1.1" id="2575378653_Capa_1_grid" x="0px" y="0px" width="32px" height="32px" viewBox="0 0 32 32" enable-background="new 0 0 32 32" xml:space="preserve">
<g>
	<path d="M28,22v-6H18v2h-2v-2H6v2H4v-4h12v-4h6V2H8v8h6v2H2v16h4v2h10v-6H6v2H4v-6h2v2h10v-2h2v2h4v2h-4v6h10v-6h-4v-2H28z M10,8V4   h10v4H10z M8,26h6v2H8V26z M14,20H8v-2h6V20z M26,26v2h-6v-2H26z M20,20v-2h6v2H20z"/>
</g>
</svg>
