<?xml version="1.0" encoding="utf-8"?>
<!-- Generator: Adobe Illustrator 16.0.0, SVG Export Plug-In . SVG Version: 6.00 Build 0)  -->
<svg xmlns="http://www.w3.org/2000/svg" xmlns:xlink="http://www.w3.org/1999/xlink" version="1.1" id="Layer_1" x="0px" y="0px" width="48px" height="48px" viewBox="0 0 48 48" enable-background="new 0 0 48 48" xml:space="preserve">
<path d="M37,12h-1V6h1c0.553,0,1-0.448,1-1s-0.447-1-1-1H15c-3.96,0-5,3.27-5,5v30c0,1.73,1.04,5,5,5h22c0.553,0,1-0.447,1-1V13  C38,12.448,37.553,12,37,12z M29.835,33c-1.029,0-1.961-0.42-2.65-1.095C26.411,32.591,25.426,33,24.335,33  C21.864,33,20,30.851,20,28s1.864-5,4.335-5c0.896,0,1.719,0.281,2.414,0.759c0.082-0.022,0.162-0.051,0.251-0.051  c0.553,0,1,0.448,1,1v4.385C28,30.271,28.952,31,29.835,31C31.896,31,32,28.501,32,28c0-4.411-3.589-8-8-8s-8,3.589-8,8s3.589,8,8,8  c1.406,0,2.79-0.37,4-1.069c0.479-0.279,1.091-0.114,1.366,0.364c0.277,0.479,0.113,1.09-0.364,1.366C27.487,37.537,25.758,38,24,38  c-5.514,0-10-4.486-10-10c0-5.514,4.486-10,10-10c5.514,0,10,4.486,10,10C34,30.944,32.287,33,29.835,33z M34,12H15  c-2.82,0-2.99-2.5-3-2.99V9c0.01-0.52,0.19-3,3-3h3h16V12z M26,29.094c0,0.352,0.061,0.686,0.146,1.009  C25.69,30.658,25.054,31,24.335,31C22.802,31,22,29.491,22,28s0.802-3,2.335-3c0.647,0,1.223,0.285,1.665,0.745V29.094z"/>
</svg>
