<?xml version="1.0" encoding="utf-8"?>
<!-- Generator: Adobe Illustrator 16.0.0, SVG Export Plug-In . SVG Version: 6.00 Build 0)  -->
<svg xmlns="http://www.w3.org/2000/svg" xmlns:xlink="http://www.w3.org/1999/xlink" version="1.1" id="Layer_1" x="0px" y="0px" width="48px" height="48px" viewBox="0 0 48 48" enable-background="new 0 0 48 48" xml:space="preserve">
<path d="M24,43C13.523,43,5,34.477,5,24S13.523,5,24,5s19,8.523,19,19c0,8.566-5.831,9-7,9c-2.185,0-4.232-1.041-5.543-2.741  C28.772,31.996,26.448,33,24,33c-4.962,0-9-4.037-9-9c0-4.962,4.038-9,9-9c1.813,0,3.569,0.554,5.049,1.561  C29.249,15.669,30.048,15,31,15c1.103,0,2,0.897,2,2v9c0,1.654,1.346,3,3,3c2.479,0,3-2.719,3-5c0-8.271-6.729-15-15-15  C15.729,9,9,15.729,9,24c0,8.271,6.729,15,15,15c3.584,0,7.031-1.251,9.705-3.523C34.065,35.17,34.525,35,35,35  c0.589,0,1.146,0.258,1.525,0.706c0.344,0.405,0.512,0.923,0.468,1.455c-0.043,0.532-0.291,1.017-0.698,1.363  C32.899,41.41,28.532,43,24,43z M24,19c-2.757,0-5,2.243-5,5s2.243,5,5,5s5-2.243,5-5S26.757,19,24,19z"/>
</svg>
