<?xml version="1.0" encoding="utf-8"?>
<!-- Generator: Adobe Illustrator 16.0.0, SVG Export Plug-In . SVG Version: 6.00 Build 0)  -->
<svg xmlns="http://www.w3.org/2000/svg" xmlns:xlink="http://www.w3.org/1999/xlink" version="1.1" id="Layer_1" x="0px" y="0px" width="48px" height="48px" viewBox="0 0 48 48" enable-background="new 0 0 48 48" xml:space="preserve">
<path d="M12,33c0,2.201,1.794,3,3,3h17.99c2.201,0,3.01-1.794,3.01-3V21c0-0.517-0.106-0.95-0.273-1.32l0.004-0.005l-0.009-0.008  C35.172,18.47,33.91,18,32.99,18H15c-1.43,0-2.261,0.758-2.673,1.619l-0.062,0.057l0.026,0.029C12.097,20.143,12,20.601,12,20.998  V33z M23.999,29.526l-8.727-9.528h17.451L23.999,29.526z M23.999,32.487l3.813-4.164L32.683,34H15.317l4.861-5.685L23.999,32.487z   M34,32.464l-4.827-5.627L34,21.565V32.464z M18.817,26.829L14,32.462V21.569L18.817,26.829z M44,27c0,8.271-6.729,15-15,15H5  c-0.552,0-1-0.447-1-1s0.448-1,1-1h24c7.168,0,13-5.832,13-13c0-7.168-5.832-13-13-13H7.414l3.293,3.293  c0.391,0.391,0.391,1.023,0,1.414C10.512,18.903,10.256,19,10,19s-0.512-0.098-0.707-0.293l-5-5c-0.391-0.391-0.391-1.023,0-1.414  l5-5c0.391-0.391,1.023-0.391,1.414,0s0.391,1.023,0,1.414L7.414,12H29C37.271,12,44,18.729,44,27z"/>
</svg>
