<?xml version="1.0" encoding="utf-8"?>
<!-- Generator: Adobe Illustrator 16.0.0, SVG Export Plug-In . SVG Version: 6.00 Build 0)  -->
<svg xmlns="http://www.w3.org/2000/svg" xmlns:xlink="http://www.w3.org/1999/xlink" version="1.1" id="Layer_1" x="0px" y="0px" width="48px" height="48px" viewBox="0 0 48 48" enable-background="new 0 0 48 48" xml:space="preserve">
<path d="M36,14v28H12V14H8v28c0,2.21,1.79,4,4,4h24c2.21,0,4-1.79,4-4V14H36z M36,6h-7.45l-0.63-2.82C27.53,1.36,25.92,0,24,0  s-3.53,1.36-3.91,3.18L19.44,6H12c-2.21,0-4,1.79-4,4v2h32v-2C40,7.79,38.21,6,36,6z M24,5.5c-0.83,0-1.5-0.67-1.5-1.5  s0.67-1.5,1.5-1.5s1.5,0.67,1.5,1.5S24.83,5.5,24,5.5z M24,18c-5.52,0-10,4.48-10,10c0,5.52,4.48,10,10,10c5.52,0,10-4.48,10-10  C34,22.48,29.52,18,24,18z M28.71,31.29c0.39,0.39,0.39,1.03,0,1.42C28.51,32.9,28.25,33,28,33c-0.26,0-0.51-0.1-0.71-0.29L24,29.42  l-3.29,3.29C20.51,32.9,20.26,33,20,33s-0.51-0.1-0.71-0.29c-0.39-0.39-0.39-1.03,0-1.42L22.58,28l-3.29-3.29  c-0.39-0.39-0.39-1.03,0-1.42s1.03-0.39,1.42,0L24,26.58l3.29-3.29c0.39-0.39,1.03-0.39,1.42,0s0.39,1.03,0,1.42L25.42,28  L28.71,31.29z"/>
</svg>
