<?xml version="1.0" encoding="utf-8"?>
<!-- Generator: Adobe Illustrator 16.0.0, SVG Export Plug-In . SVG Version: 6.00 Build 0)  -->
<svg xmlns="http://www.w3.org/2000/svg" xmlns:xlink="http://www.w3.org/1999/xlink" version="1.1" id="Layer_1" x="0px" y="0px" width="48px" height="48px" viewBox="0 0 48 48" enable-background="new 0 0 48 48" xml:space="preserve">
<path d="M36,6h-7.445l-0.64-2.824C27.533,1.364,25.923,0,24,0s-3.534,1.364-3.915,3.175L19.445,6H12c-2.206,0-4,1.794-4,4v2h4h24h4  v-2C40,7.794,38.206,6,36,6z M24,5.5c-0.828,0-1.5-0.672-1.5-1.5s0.672-1.5,1.5-1.5s1.5,0.672,1.5,1.5S24.828,5.5,24,5.5z   M36.003,42H12V14H8v28c0,2.206,1.794,4,4,4h24c2.206,0,4-1.794,4-4V14h-4L36.003,42z M16.586,35.413  c0.39,0.392,0.902,0.586,1.414,0.586s1.024-0.194,1.414-0.586L24,30.828l4.585,4.585c0.392,0.392,0.901,0.586,1.414,0.586  s1.022-0.194,1.414-0.586c0.78-0.781,0.78-2.047,0-2.828L26.828,28l4.585-4.585c0.78-0.781,0.78-2.047,0-2.828  c-0.781-0.781-2.047-0.781-2.828,0L24,25.172l-4.585-4.585c-0.78-0.781-2.048-0.781-2.828,0c-0.781,0.781-0.781,2.047,0,2.828  L21.172,28l-4.585,4.585C15.805,33.366,15.805,34.632,16.586,35.413z"/>
</svg>
