<?xml version="1.0" encoding="utf-8"?>
<!-- Generator: Adobe Illustrator 16.0.0, SVG Export Plug-In . SVG Version: 6.00 Build 0)  -->
<svg xmlns="http://www.w3.org/2000/svg" xmlns:xlink="http://www.w3.org/1999/xlink" version="1.1" id="Layer_1" x="0px" y="0px" width="48px" height="48px" viewBox="0 0 48 48" enable-background="new 0 0 48 48" xml:space="preserve">
<path d="M24,6C14.075,6,6,14.075,6,24c0,9.925,8.075,18,18,18c9.925,0,18-8.075,18-18C42,14.075,33.925,6,24,6z M8,24  c0-8.822,7.178-16,16-16c4.052,0,7.746,1.526,10.567,4.019l-22.549,22.55C9.526,31.746,8,28.052,8,24z M24,40  c-4.052,0-7.745-1.526-10.567-4.018l22.549-22.55C38.474,16.254,40,19.948,40,24C40,32.822,32.822,40,24,40z"/>
</svg>
