<?xml version="1.0" encoding="utf-8"?>
<!-- Generator: Adobe Illustrator 16.0.0, SVG Export Plug-In . SVG Version: 6.00 Build 0)  -->
<svg xmlns="http://www.w3.org/2000/svg" xmlns:xlink="http://www.w3.org/1999/xlink" version="1.1" id="Layer_1" x="0px" y="0px" width="48px" height="48px" viewBox="0 0 48 48" enable-background="new 0 0 48 48" xml:space="preserve">
<path d="M38,4v22.59L19.417,8.001h5.587c0.553,0,1.001-0.448,1.001-1s-0.448-1-1.001-1h-8.001c-0.552,0-1,0.448-1,1v8.001  c0,0.552,0.448,1,1,1s1-0.448,1-1V9.416l19.279,19.287L8.577,42.094c-0.5,0.233-0.717,0.828-0.483,1.329C8.264,43.786,8.624,44,9,44  c0.142,0,0.286-0.03,0.422-0.094L38,30.575V44h2V4H38z"/>
</svg>
