<?xml version="1.0" encoding="utf-8"?>
<!-- Generator: Adobe Illustrator 16.0.0, SVG Export Plug-In . SVG Version: 6.00 Build 0)  -->
<svg xmlns="http://www.w3.org/2000/svg" xmlns:xlink="http://www.w3.org/1999/xlink" version="1.1" id="Layer_1" x="0px" y="0px" width="48px" height="48px" viewBox="0 0 48 48" enable-background="new 0 0 48 48" xml:space="preserve">
<path d="M37,12h-1V6h1c0.55,0,1-0.45,1-1s-0.45-1-1-1H15c-3.96,0-5,3.27-5,5v30c0,1.73,1.04,5,5,5h22c0.55,0,1-0.45,1-1V13  C38,12.45,37.55,12,37,12z M12,9c0.01-0.52,0.19-3,3-3h19v6H15c-2.82,0-2.99-2.5-3-2.99V9z M36,39.06  c-0.05-0.079-0.12-0.149-0.19-0.22c-1.689-1.689-6.75-2.109-7.59-2.89c-0.529-0.49-0.729-1.22-0.8-2.32c0.35-0.22,0.63-0.46,0.8-0.7  c0.55-0.779,0.91-2.01,1.16-3.39c0.03,0,0.061,0.02,0.08,0.02c0.6,0,1.18-0.949,1.31-2.109c0.12-1.17-0.26-2.11-0.84-2.11  c-0.04,0-0.069,0.01-0.1,0.021c0.07-1.39,0.08-2.63,0.08-3.4c0-3.37-2.96-5.96-6.28-5.96c-3.32,0-3.48,2.27-3.48,2.27  c-1.11,0.32-2.06,1-2.06,3.69c0,0.77,0.01,2.01,0.08,3.4c-0.03-0.011-0.06-0.021-0.09-0.021c-0.59,0-0.97,0.94-0.84,2.11  c0.12,1.16,0.7,2.109,1.29,2.109c0.03,0,0.06-0.02,0.09-0.02c0.25,1.38,0.61,2.61,1.16,3.39c0.17,0.24,0.45,0.48,0.8,0.7  c-0.07,1.101-0.27,1.83-0.8,2.32c-0.84,0.78-5.9,1.2-7.59,2.89c-0.07,0.07-0.14,0.141-0.19,0.22V13.12c0.77,0.55,1.76,0.88,3,0.88  h21V39.06z"/>
</svg>
