<?xml version="1.0" encoding="utf-8"?>
<!-- Generator: Adobe Illustrator 16.0.0, SVG Export Plug-In . SVG Version: 6.00 Build 0)  -->
<svg xmlns="http://www.w3.org/2000/svg" xmlns:xlink="http://www.w3.org/1999/xlink" version="1.1" id="Layer_1" x="0px" y="0px" width="48px" height="48px" viewBox="0 0 48 48" enable-background="new 0 0 48 48" xml:space="preserve">
<path d="M33.921,29.61l-2.975-8.919c-0.136-0.408-0.518-0.684-0.948-0.684s-0.813,0.275-0.948,0.684l-4.001,11.996  c-0.175,0.523,0.108,1.09,0.632,1.265c0.527,0.177,1.091-0.108,1.265-0.632L27.719,31h4.559l0.773,2.319  c0.14,0.419,0.529,0.684,0.948,0.684c0.104,0,0.212-0.017,0.316-0.052c0.523-0.175,0.807-0.741,0.632-1.265l-1.025-3.074  C33.922,29.611,33.922,29.61,33.921,29.61z M28.386,29l1.612-4.832L31.61,29H28.386z M12,34H6c-0.552,0-1-0.447-1-1s0.448-1,1-1h2  V22H6c-0.552,0-1-0.448-1-1s0.448-1,1-1h6c0.552,0,1,0.448,1,1s-0.448,1-1,1h-2v10h2c0.552,0,1,0.447,1,1S12.552,34,12,34z M22,33  v-8.7l-2.168,3.249c-0.371,0.557-1.293,0.557-1.664,0L16,24.3V33c0,0.553-0.448,1-1,1s-1-0.447-1-1V20.999  c0-0.44,0.289-0.829,0.71-0.957c0.421-0.126,0.877,0.035,1.122,0.402L19,25.192l3.168-4.749c0.245-0.367,0.702-0.528,1.122-0.402  C23.711,20.17,24,20.559,24,20.999V33c0,0.553-0.448,1-1,1S22,33.553,22,33z M39.502,20h-2.5c-0.553,0-1,0.448-1,1v12.001  c0,0.553,0.447,1,1,1s0.998-0.447,0.998-1v-4.002h1.502c2.48,0,4.498-2.018,4.498-4.499S41.982,20,39.502,20z M39.502,27.001L38,27  v-5h1.502C40.879,22,42,23.122,42,24.5C42,25.879,40.879,27.001,39.502,27.001z M10,18H8V7c0-1.66,1.34-3,3-3h26c1.66,0,3,1.34,3,3  v11h-2v-8H10V18z M38,36h2v5c0,1.66-1.34,3-3,3H11c-1.66,0-3-1.34-3-3v-5h2v5c0,0.55,0.45,1,1,1h26c0.55,0,1-0.45,1-1V36z"/>
</svg>
