<?xml version="1.0" encoding="utf-8"?>
<!-- Generator: Adobe Illustrator 16.0.0, SVG Export Plug-In . SVG Version: 6.00 Build 0)  -->
<svg xmlns="http://www.w3.org/2000/svg" xmlns:xlink="http://www.w3.org/1999/xlink" version="1.1" id="Layer_1" x="0px" y="0px" width="48px" height="48px" viewBox="0 0 48 48" enable-background="new 0 0 48 48" xml:space="preserve">
<path d="M38,41c0,0.55-0.45,1-1,1H11c-0.55,0-1-0.45-1-1v-5H8v5c0,1.66,1.34,3,3,3h26c1.66,0,3-1.34,3-3v-5h-2V41z M37,4H11  C9.34,4,8,5.34,8,7v11h2v-8h28v8h2V7C40,5.34,38.66,4,37,4z M24.002,33.997c-4.002,0-4.002-4.905-4.002-7C20,24.903,20,20,24.002,20  s4.002,4.903,4.002,6.997C28.004,29.092,28.004,33.997,24.002,33.997z M24.002,22C22.243,22,22,24.405,22,27  c0,2.597,0.243,4.997,2.002,4.997c1.76,0,1.998-2.4,1.998-4.997C26,24.405,25.762,22,24.002,22z M12,34c-0.552,0-1-0.447-1-1V21.003  c0-0.552,0.448-1,1-1L14.5,20c2.48,0,4.5,2.021,4.5,4.501C19,26.982,16.98,29,14.5,29H13v4C13,33.553,12.552,34,12,34z M13,27h1.5  c1.377,0,2.498-1.121,2.498-2.499c0-1.378-1.121-2.501-2.498-2.501H13V27z M31,33.997c-0.553,0-1-0.447-1-1V21c0-0.552,0.447-1,1-1  h2.501c2.481,0,4.5,2.018,4.5,4.499c0,2.481-2.019,4.499-4.5,4.499H32v4C32,33.55,31.553,33.997,31,33.997z M32,27h1.501  c1.379,0,2.5-1.124,2.5-2.501c0-1.378-1.121-2.499-2.5-2.499H32V27z"/>
</svg>
