<?xml version="1.0" encoding="utf-8"?>
<!-- Generator: Adobe Illustrator 16.0.0, SVG Export Plug-In . SVG Version: 6.00 Build 0)  -->
<svg xmlns="http://www.w3.org/2000/svg" xmlns:xlink="http://www.w3.org/1999/xlink" version="1.1" id="Layer_1" x="0px" y="0px" width="48px" height="48px" viewBox="0 0 48 48" enable-background="new 0 0 48 48" xml:space="preserve">
<path d="M38,41c0,0.55-0.45,1-1,1H11c-0.55,0-1-0.45-1-1v-5H8v5c0,1.66,1.34,3,3,3h26c1.66,0,3-1.34,3-3v-5h-2V41z M37,4H11  C9.34,4,8,5.34,8,7v11h2v-8h28v8h2V7C40,5.34,38.66,4,37,4z M40.64,27c0.83,0.73,1.36,1.8,1.36,3c0,2.21-1.79,4-4,4s-4-1.79-4-4  c0-0.55,0.45-1,1-1s1,0.45,1,1c0,1.1,0.9,2,2,2s2-0.9,2-2s-0.9-2-2-2c-0.55,0-1-0.45-1-1c0-0.05,0-0.1,0.01-0.14  C37.08,26.37,37.5,26,38,26c1.1,0,2-0.9,2-2c0-1.1-0.9-2-2-2s-2,0.9-2,2c0,0.55-0.45,1-1,1s-1-0.45-1-1c0-2.21,1.79-4,4-4  s4,1.79,4,4C42,25.2,41.47,26.27,40.64,27z M19.002,34C15,34,15,29.095,15,27c0-2.094,0-6.997,4.002-6.997  c4.001,0,4.001,4.903,4.001,6.997C23.003,29.095,23.003,34,19.002,34z M19.002,22.003C17.243,22.003,17,24.405,17,27  c0,2.597,0.243,5,2.002,5C20.761,32,21,29.597,21,27C21,24.405,20.761,22.003,19.002,22.003z M7,34c-0.552,0-1-0.447-1-1V21.003  c0-0.552,0.448-1,1-1h2.5c2.48,0,4.498,2.018,4.498,4.499C13.998,26.982,11.98,29,9.5,29H8v4C8,33.553,7.552,34,7,34z M8,27h1.5  c1.377,0,2.498-1.121,2.498-2.499C11.998,23.124,10.877,22,9.5,22H8V27z M26,34c-0.553,0-1-0.447-1-1V21.003c0-0.552,0.447-1,1-1  l2.501-0.001c2.481,0,4.5,2.02,4.5,4.5S30.982,29,28.501,29H27v4C27,33.553,26.553,34,26,34z M27,27h1.501  c1.379,0,2.5-1.121,2.5-2.498c0-1.378-1.121-2.499-2.5-2.499H27V27z"/>
</svg>
