<?xml version="1.0" encoding="utf-8"?>
<!-- Generator: Adobe Illustrator 16.0.0, SVG Export Plug-In . SVG Version: 6.00 Build 0)  -->
<svg xmlns="http://www.w3.org/2000/svg" xmlns:xlink="http://www.w3.org/1999/xlink" version="1.1" id="Layer_1" x="0px" y="0px" width="48px" height="48px" viewBox="0 0 48 48" enable-background="new 0 0 48 48" xml:space="preserve">
<path d="M10,18H8V7c0-1.66,1.34-3,3-3h26c1.66,0,3,1.34,3,3v11h-2v-8H10V18z M38,41c0,0.55-0.45,1-1,1H11c-0.55,0-1-0.45-1-1v-5H8v5  c0,1.66,1.34,3,3,3h26c1.66,0,3-1.34,3-3v-5h-2V41z M13,30c0-2.118-1.97-3.103-3.553-3.895C7.924,25.344,7,24.823,7,24  c0-1.345,0.654-1.999,2-1.999c1.404,0,1.866,1.366,2.017,2.18c0.101,0.542,0.621,0.899,1.165,0.802  c0.543-0.101,0.902-0.622,0.802-1.165c-0.442-2.39-1.931-3.817-3.983-3.817c-2.467,0-4,1.532-4,3.999  c0,2.118,1.97,3.103,3.553,3.895C10.075,28.656,11,29.178,11,30c0,0.97-0.701,2-2,2c-1.404,0-1.866-1.367-2.017-2.182  c-0.1-0.543-0.622-0.905-1.165-0.802c-0.543,0.101-0.902,0.622-0.802,1.165C5.458,32.572,6.947,34,9,34C11.243,34,13,32.243,13,30z   M23.997,34c0.552,0,1-0.447,1-1V21.001c0-0.44-0.289-0.829-0.71-0.957c-0.42-0.127-0.877,0.036-1.122,0.402l-3.167,4.746  l-3.166-4.746c-0.245-0.366-0.702-0.529-1.122-0.402C15.289,20.172,15,20.561,15,21.001V33c0,0.553,0.448,1,1,1s1-0.447,1-1v-8.698  l2.166,3.247c0.186,0.278,0.498,0.445,0.832,0.445c0.334,0,0.646-0.167,0.832-0.445L23,24.302L23,33C23,33.553,23.444,34,23.997,34z   M42.998,24.5c0,2.481-2.018,4.5-4.498,4.5H37v4c0,0.553-0.447,1-1,1s-1-0.447-1-1V21.001C35,20.449,35.447,20,36,20h2.5  C40.98,20,42.998,22.02,42.998,24.5z M40.998,24.5c0-1.378-1.121-2.499-2.498-2.499H37V27h1.5C39.877,27,40.998,25.879,40.998,24.5z   M30,34c0.553,0,1-0.447,1-1V22h2c0.553,0,1-0.448,1-1s-0.447-1-1-1h-5.996c-0.553,0-1,0.448-1,1s0.447,1,1,1H29v11  C29,33.553,29.447,34,30,34z"/>
</svg>
