<?xml version="1.0" encoding="utf-8"?>
<!-- Generator: Adobe Illustrator 16.0.0, SVG Export Plug-In . SVG Version: 6.00 Build 0)  -->
<svg xmlns="http://www.w3.org/2000/svg" xmlns:xlink="http://www.w3.org/1999/xlink" version="1.1" id="Layer_1" x="0px" y="0px" width="48px" height="48px" viewBox="0 0 48 48" enable-background="new 0 0 48 48" xml:space="preserve">
<path d="M41,10H7c-1.65,0-3,1.35-3,3v17.59c0.58-0.25,1.24-0.439,2-0.53V13.57L18.08,24l-7.63,6.59c0.75,0.271,1.38,0.62,1.92,0.98  l7.24-6.25L24,29.11l4.39-3.79l7.091,6.12c0.529-0.381,1.159-0.74,1.899-1L29.92,24L42,13.57v16.68c0.78,0.2,1.44,0.5,2,0.86V13  C44,11.35,42.65,10,41,10z M24,26.46L7.24,12h33.52L24,26.46z M31.999,38.002c-2.414,0-3.686-1.271-4.707-2.293  c-0.954-0.954-1.707-1.707-3.292-1.707c-1.586,0-2.339,0.753-3.293,1.707c-1.021,1.021-2.293,2.293-4.707,2.293  c-2.271,0-3.511-1.109-4.604-2.088C10.248,34.888,9.257,34.002,7,34.002c-1.507,0-2.286,0.697-3.272,1.579  c-0.358,0.32-0.724,0.646-1.127,0.948l-1.198-1.602c0.355-0.266,0.676-0.555,0.992-0.837C3.488,33.111,4.728,32.002,7,32.002  c3.021,0,4.522,1.343,5.729,2.422c0.986,0.882,1.765,1.578,3.271,1.578c1.586,0,2.339-0.753,3.293-1.707  c1.021-1.021,2.293-2.293,4.707-2.293c2.414,0,3.685,1.271,4.707,2.293c0.954,0.954,1.707,1.707,3.293,1.707  s2.339-0.753,3.293-1.707c1.021-1.021,2.293-2.293,4.707-2.293s3.686,1.271,4.707,2.293c0.551,0.55,1.07,1.07,1.723,1.38  l-0.859,1.807c-0.963-0.459-1.661-1.156-2.277-1.772c-0.954-0.954-1.707-1.707-3.293-1.707s-2.339,0.753-3.293,1.707  C35.685,36.73,34.413,38.002,31.999,38.002z M31.999,44.008c-2.414,0-3.686-1.271-4.707-2.293c-0.954-0.954-1.707-1.707-3.292-1.707  c-1.586,0-2.339,0.753-3.293,1.707c-1.021,1.021-2.293,2.293-4.707,2.293c-2.271,0-3.511-1.109-4.604-2.088  C10.248,40.894,9.257,40.008,7,40.008c-1.507,0-2.286,0.696-3.272,1.578c-0.359,0.321-0.724,0.646-1.128,0.949l-1.198-1.602  c0.356-0.267,0.677-0.555,0.993-0.838C3.488,39.117,4.729,38.008,7,38.008c3.021,0,4.522,1.343,5.729,2.422  c0.986,0.882,1.765,1.578,3.271,1.578c1.586,0,2.339-0.753,3.293-1.707c1.021-1.021,2.293-2.293,4.707-2.293  c2.414,0,3.685,1.271,4.707,2.293c0.954,0.954,1.707,1.707,3.293,1.707s2.339-0.753,3.293-1.707  c1.021-1.021,2.293-2.293,4.707-2.293s3.686,1.271,4.707,2.293c0.551,0.55,1.07,1.07,1.723,1.38l-0.859,1.807  c-0.963-0.459-1.661-1.156-2.277-1.772c-0.954-0.954-1.707-1.707-3.293-1.707s-2.339,0.753-3.293,1.707  C35.685,42.736,34.413,44.008,31.999,44.008z"/>
</svg>
