<?xml version="1.0" encoding="utf-8"?>
<!-- Generator: Adobe Illustrator 16.0.0, SVG Export Plug-In . SVG Version: 6.00 Build 0)  -->
<svg xmlns="http://www.w3.org/2000/svg" xmlns:xlink="http://www.w3.org/1999/xlink" version="1.1" id="Layer_1" x="0px" y="0px" width="48px" height="48px" viewBox="0 0 48 48" enable-background="new 0 0 48 48" xml:space="preserve">
<path d="M30,38c-0.512,0-1.023-0.195-1.414-0.586c-0.781-0.781-0.781-2.047,0-2.828L39.172,24L28.586,13.414  c-0.781-0.781-0.781-2.047,0-2.828c0.781-0.781,2.047-0.781,2.828,0l12,12c0.781,0.781,0.781,2.047,0,2.828l-12,12  C31.023,37.805,30.512,38,30,38z M6,26h21.164l-8.583,8.586c-0.781,0.781-0.781,2.047,0,2.828s2.046,0.781,2.827,0l11.995-11.997  c0.011-0.01,0.021-0.021,0.03-0.03l0,0v-0.001c0.178-0.184,0.313-0.394,0.404-0.615c0.199-0.475,0.199-1.066,0-1.541  c-0.092-0.222-0.227-0.432-0.404-0.616v0l0,0c-0.01-0.01-0.02-0.021-0.03-0.031L21.408,10.586c-0.781-0.781-2.046-0.781-2.827,0  c-0.781,0.78-0.781,2.048,0,2.828L27.164,22H6c-1.104,0-2,0.896-2,2S4.896,26,6,26z"/>
</svg>
