<?xml version="1.0" encoding="utf-8"?>
<!-- Generator: Adobe Illustrator 16.0.0, SVG Export Plug-In . SVG Version: 6.00 Build 0)  -->
<svg xmlns="http://www.w3.org/2000/svg" xmlns:xlink="http://www.w3.org/1999/xlink" version="1.1" id="Layer_1" x="0px" y="0px" width="48px" height="48px" viewBox="0 0 48 48" enable-background="new 0 0 48 48" xml:space="preserve">
<path d="M22,24H8V9c0-1.73,1.04-5,5-5h22c1.73,0,5,1.04,5,5v15H25c-0.56,0-1-0.45-1-1s0.44-1,1-1h13v-2H25c-0.56,0-1-0.45-1-1  s0.44-1,1-1h13v-4H23c-0.81,0-0.99,0.55-1,1.01V24z M10,44h28c0,0,2,0,2-2H8C8,42,8,44,10,44z M30.949,26.688l4.001,11.995  c0.175,0.523-0.108,1.09-0.632,1.265C34.214,39.983,34.106,40,34.002,40c-0.419,0-0.809-0.265-0.948-0.684L32.281,37h-4.561  l-0.772,2.316c-0.175,0.523-0.742,0.807-1.265,0.632c-0.523-0.175-0.807-0.741-0.632-1.265l4.001-11.995  c0.136-0.408,0.518-0.684,0.948-0.684S30.813,26.28,30.949,26.688z M31.614,35l-1.613-4.835L28.388,35H31.614z M13,39  c0-0.553-0.448-1-1-1h-2V28h2c0.552,0,1-0.447,1-1s-0.448-1-1-1H6c-0.552,0-1,0.447-1,1s0.448,1,1,1h2v10H6c-0.552,0-1,0.447-1,1  s0.448,1,1,1h6C12.552,40,13,39.553,13,39z M23,40.002c0.552,0,1-0.447,1-1V27.001c0-0.44-0.289-0.829-0.71-0.957  c-0.42-0.129-0.877,0.035-1.122,0.402L19,31.194l-3.168-4.748c-0.245-0.367-0.701-0.531-1.122-0.402  C14.289,26.172,14,26.561,14,27.001v12.001c0,0.553,0.448,1,1,1s1-0.447,1-1v-8.7l2.168,3.249c0.371,0.557,1.293,0.557,1.664,0  L22,30.302v8.7C22,39.555,22.448,40.002,23,40.002z M44.001,30.5c0,2.481-2.021,4.5-4.501,4.5H38v4.001c0,0.553-0.447,1-1,1  s-1-0.447-1-1V27c0-0.553,0.447-1,1-1h2.5C41.98,26,44.001,28.019,44.001,30.5z M42,30.5c0-1.379-1.123-2.5-2.5-2.5H38v5l1.5,0.001  C40.877,33.001,42,31.879,42,30.5z"/>
</svg>
