<?xml version="1.0" encoding="utf-8"?>
<!-- Generator: Adobe Illustrator 16.0.0, SVG Export Plug-In . SVG Version: 6.00 Build 0)  -->
<svg xmlns="http://www.w3.org/2000/svg" xmlns:xlink="http://www.w3.org/1999/xlink" version="1.1" id="Layer_1" x="0px" y="0px" width="48px" height="48px" viewBox="0 0 48 48" enable-background="new 0 0 48 48" xml:space="preserve">
<path d="M30.001,20.004c-0.431,0-0.813,0.275-0.948,0.684l-4.001,11.995c-0.175,0.523,0.107,1.09,0.632,1.265  c0.522,0.177,1.091-0.108,1.265-0.632L27.721,31h4.561l0.772,2.315c0.14,0.419,0.529,0.684,0.948,0.684  c0.104,0,0.212-0.017,0.316-0.052c0.524-0.175,0.807-0.741,0.632-1.265l-4.001-11.995C30.813,20.28,30.432,20.004,30.001,20.004z   M28.388,29l1.613-4.835L31.614,29H28.388z M6,34c-0.552,0-1-0.447-1-1s0.448-1,1-1h2V22H6c-0.552,0-1-0.448-1-1s0.448-1,1-1h6  c0.552,0,1,0.448,1,1s-0.448,1-1,1h-2v10h2c0.552,0,1,0.447,1,1s-0.448,1-1,1H6z M22,33v-8.7l-2.168,3.249  c-0.371,0.557-1.293,0.557-1.664,0L16,24.3V33c0,0.553-0.448,1-1,1s-1-0.447-1-1V21c0-0.44,0.289-0.829,0.71-0.957  c0.42-0.125,0.878,0.035,1.122,0.402L19,25.192l3.168-4.748c0.245-0.367,0.702-0.528,1.122-0.402C23.711,20.171,24,20.56,24,21v12  c0,0.553-0.448,1-1,1S22,33.553,22,33z M39.5,20H37c-0.553,0-1,0.448-1,1v12c0,0.553,0.447,1,1,1s1-0.447,1-1v-4h1.5  c2.48,0,4.498-2.019,4.498-4.5S41.98,20,39.5,20z M39.5,27H38v-5h1.5c1.377,0,2.498,1.122,2.498,2.5  C41.998,25.879,40.877,27,39.5,27z M42,18H6v-7c0-1.66,1.34-3,3-3h5.19c1.68,0,2.89,0.63,4.03,2.1c1,1.3,2.23,1.9,3.87,1.9H39  c1.66,0,3,1.34,3,3V18z M6,36h36v2c-0.4,1.17-1.51,2-2.82,2H8.82C7.51,40,6.4,39.17,6,38V36z"/>
</svg>
