<?xml version="1.0" encoding="utf-8"?>
<!-- Generator: Adobe Illustrator 16.0.0, SVG Export Plug-In . SVG Version: 6.00 Build 0)  -->
<svg xmlns="http://www.w3.org/2000/svg" xmlns:xlink="http://www.w3.org/1999/xlink" version="1.1" id="Layer_1" x="0px" y="0px" width="48px" height="48px" viewBox="0 0 48 48" enable-background="new 0 0 48 48" xml:space="preserve">
<path d="M43.96,34.73c0.12,0.439-0.06,0.899-0.45,1.13l-10,6C33.36,41.95,33.18,42,33,42c-0.17,0-0.34-0.04-0.49-0.13  C32.19,41.69,32,41.36,32,41v-5H16v5c0,0.36-0.19,0.69-0.51,0.87c-0.31,0.18-0.7,0.17-1-0.01l-10-6c-0.39-0.23-0.57-0.69-0.45-1.13  C4.16,34.3,4.55,34,5,34h38C43.45,34,43.84,34.3,43.96,34.73z M5,16h38c0.45,0,0.84-0.3,0.96-0.73c0.12-0.44-0.06-0.9-0.45-1.13  l-10-6c-0.3-0.18-0.689-0.19-1-0.01C32.19,8.31,32,8.64,32,9v5H16V9c0-0.36-0.19-0.69-0.51-0.87c-0.31-0.18-0.7-0.17-1,0.01l-10,6  c-0.39,0.23-0.57,0.69-0.45,1.13C4.16,15.7,4.55,16,5,16z M34.95,30.683L30.949,18.69c-0.136-0.408-0.518-0.684-0.948-0.684  s-0.813,0.275-0.948,0.684l-4.001,11.992c-0.175,0.523,0.107,1.09,0.632,1.265c0.522,0.177,1.091-0.108,1.265-0.632L27.721,29h4.561  l0.772,2.315c0.14,0.419,0.529,0.684,0.948,0.684c0.104,0,0.212-0.017,0.316-0.052C34.843,31.772,35.125,31.206,34.95,30.683z   M28.389,27l1.612-4.833L31.613,27H28.389z M12,30h-2V20h2c0.552,0,1-0.448,1-1s-0.448-1-1-1H6c-0.552,0-1,0.448-1,1s0.448,1,1,1h2  v10H6c-0.552,0-1,0.447-1,1s0.448,1,1,1h6c0.552,0,1-0.447,1-1S12.552,30,12,30z M23.997,31V19.002c0-0.44-0.289-0.829-0.71-0.957  c-0.419-0.126-0.877,0.036-1.122,0.402l-3.167,4.746l-3.166-4.746c-0.245-0.367-0.701-0.528-1.122-0.402  C14.289,18.173,14,18.562,14,19.002V31c0,0.553,0.448,1,1,1s1-0.447,1-1v-8.697l2.166,3.247c0.186,0.278,0.498,0.444,0.832,0.444  l0,0c0.334,0,0.646-0.166,0.832-0.444L22,22.303L22,31c0,0.553,0.444,1,0.997,1S23.997,31.553,23.997,31z M37,31.998  c-0.553,0-1-0.447-1-1V19c0-0.552,0.447-1,1-1h2.5c2.48,0,4.5,2.018,4.5,4.499c0,2.481-2.02,4.5-4.5,4.5H38v4  C38,31.551,37.553,31.998,37,31.998z M38,25h1.5c1.377,0,2.498-1.123,2.498-2.501c0-1.378-1.121-2.499-2.498-2.499H38V25z"/>
</svg>
