<?xml version="1.0" encoding="utf-8"?>
<!-- Generator: Adobe Illustrator 16.0.0, SVG Export Plug-In . SVG Version: 6.00 Build 0)  -->
<svg xmlns="http://www.w3.org/2000/svg" xmlns:xlink="http://www.w3.org/1999/xlink" version="1.1" id="Layer_1" x="0px" y="0px" width="48px" height="48px" viewBox="0 0 48 48" enable-background="new 0 0 48 48" xml:space="preserve">
<path d="M39,18H25v10.82l5.35-4.58c0.42-0.36,1.051-0.31,1.41,0.11c0.36,0.42,0.311,1.05-0.109,1.41l-7,6  C24.46,31.92,24.23,32,24,32s-0.46-0.08-0.65-0.24l-7-6c-0.42-0.359-0.47-0.99-0.11-1.41c0.36-0.42,0.99-0.47,1.41-0.11L23,28.82V18  h-0.91c-1.64,0-2.87-0.6-3.87-1.9c-1.14-1.47-2.35-2.1-4.03-2.1H9c-1.66,0-3,1.34-3,3v24c0,1.66,1.34,3,3,3h30c1.66,0,3-1.34,3-3V21  C42,19.34,40.66,18,39,18z M40,41c0,0.55-0.45,1-1,1H9c-0.55,0-1-0.45-1-1v-3c0-1.1,0.9-2,2-2h28c1.1,0,2,0.9,2,2V41z M25,5v13h-2V5  c0-0.55,0.45-1,1-1S25,4.45,25,5z"/>
</svg>
