<?xml version="1.0" encoding="utf-8"?>
<!-- Generator: Adobe Illustrator 16.0.0, SVG Export Plug-In . SVG Version: 6.00 Build 0)  -->
<svg xmlns="http://www.w3.org/2000/svg" xmlns:xlink="http://www.w3.org/1999/xlink" version="1.1" id="Layer_1" x="0px" y="0px" width="48px" height="48px" viewBox="0 0 48 48" enable-background="new 0 0 48 48" xml:space="preserve">
<path d="M39,9.996l-5.992,0c-0.266,0-0.52,0.105-0.707,0.293s-0.293,0.442-0.293,0.707c0,0.551-0.449,1-1.001,1  s-1.001-0.449-1.001-1c0-0.552-0.447-1-1-1c-0.001,0-0.002,0-0.002,0c-0.001,0-0.002,0-0.003,0c-0.553,0-1,0.448-1,1  c0,1.654-1.346,2.999-3,2.999c-1.654,0-2.999-1.345-2.999-2.999c0-0.265-0.105-0.52-0.293-0.707s-0.442-0.293-0.707-0.293L9,9.996  c-2.201,0-3,1.794-3,3v22.008c0,2.201,1.794,3,3.001,3l6-0.006c0.552-0.001,0.999-0.448,0.999-1c0-1.654,1.346-3,3-3s3,1.346,3,3  c0,0.552,0.447,1,1,1l16,0.006c2.201,0,3-1.794,3-3V12.996C42,10.795,40.206,9.996,39,9.996z M30.047,22.683L40,13.311v20.988  L30.047,22.683z M25.001,15.995c1.851,0,3.47-1.011,4.334-2.509c0.479,0.322,1.054,0.51,1.672,0.51c1.304,0,2.417-0.836,2.829-2  l4.644,0L24,25.629L9.521,11.996l10.582,0C20.567,14.274,22.587,15.995,25.001,15.995z M8,34.284V13.312l9.944,9.363L8,34.284z   M19,31.998c-2.415,0-4.436,1.721-4.9,4.001l-4.937,0.005l10.24-11.957L24,28.376l4.588-4.32l10.237,11.948l-14.926-0.006  C23.435,33.719,21.415,31.998,19,31.998z"/>
</svg>
