<?xml version="1.0" encoding="utf-8"?>
<!-- Generator: Adobe Illustrator 16.0.0, SVG Export Plug-In . SVG Version: 6.00 Build 0)  -->
<svg xmlns="http://www.w3.org/2000/svg" xmlns:xlink="http://www.w3.org/1999/xlink" version="1.1" id="Layer_1" x="0px" y="0px" width="48px" height="48px" viewBox="0 0 48 48" enable-background="new 0 0 48 48" xml:space="preserve">
<path d="M40.998,9.996H11c-2.201,0-3,1.794-3,3v1.007h-1c-2.201,0-3,1.794-3,3v20.003c0,2.201,1.794,3,3,3h29.999  c2.201,0,3-1.794,3-3v-1.008h1c2.201,0,3-1.794,3-3V12.996C43.998,10.795,42.204,9.996,40.998,9.996z M5.999,17.318l9.918,9.336  l-9.918,9.925V17.318z M17.374,28.026l4.625,4.354l4.615-4.346l9.97,9.972H7.401L17.374,28.026z M28.071,26.663l9.927-9.346V36.59  L28.071,26.663z M21.999,29.634L7.521,16.003h28.956L21.999,29.634z M41.998,32.986c-0.012,0.462-0.194,1.012-1,1.012h-1V17.003  c0-2.201-1.794-3-3-3H10v-0.995c0.012-0.461,0.195-1.012,1-1.012h29.987c0.462,0.012,1.012,0.195,1.012,1V32.986z"/>
</svg>
