<?xml version="1.0" encoding="utf-8"?>
<!-- Generator: Adobe Illustrator 16.0.0, SVG Export Plug-In . SVG Version: 6.00 Build 0)  -->
<svg xmlns="http://www.w3.org/2000/svg" xmlns:xlink="http://www.w3.org/1999/xlink" version="1.1" id="Layer_1" x="0px" y="0px" width="48px" height="48px" viewBox="0 0 48 48" enable-background="new 0 0 48 48" xml:space="preserve">
<path d="M37,6h-7V5c0-1.65-1.35-3-3-3h-6c-1.65,0-3,1.35-3,3v1h-7C9.35,6,8,7.35,8,9v1h32V9C40,7.35,38.65,6,37,6z M28,6h-8V5  c0-0.55,0.45-1,1-1h6c0.55,0,1,0.45,1,1V6z M38.24,12l-0.271,6.6L24,31.63L10.03,18.6L9.76,12H38.24z M37.85,21.44L37,42.17  c-0.02,0.62-0.19,1.2-0.47,1.71l-7.55-14.16L37.85,21.44z M19.01,29.71l-7.55,14.16c-0.27-0.51-0.44-1.09-0.46-1.7l-0.85-20.73  L19.01,29.71z M35.09,45.41C34.48,45.79,33.77,46,33,46H15c-0.77,0-1.48-0.22-2.09-0.6l7.61-14.28L24,34.37l3.47-3.24L35.09,45.41z"/>
</svg>
