<?xml version="1.0" encoding="utf-8"?>
<!-- Generator: Adobe Illustrator 16.0.0, SVG Export Plug-In . SVG Version: 6.00 Build 0)  -->
<svg xmlns="http://www.w3.org/2000/svg" xmlns:xlink="http://www.w3.org/1999/xlink" version="1.1" id="Layer_1" x="0px" y="0px" width="48px" height="48px" viewBox="0 0 48 48" enable-background="new 0 0 48 48" xml:space="preserve">
<path d="M20,8c-5.514,0-10,4.486-10,10v22h20V18C30,12.486,25.514,8,20,8z M28,38H12V18c0-4.411,3.589-8,8-8s8,3.589,8,8V38z   M36,7.991V35c0,0.806-0.55,0.988-1,1h-1V18c0-7.72-6.28-14-14-14S6,10.28,6,18v23c0,1.206,0.799,3,3,3h22c1.206,0,3-0.799,3-3v-3h1  c1.206,0,3-0.799,3-3V13.988h6V7.991H36z M32,41c0,0.803-0.547,0.987-1.008,1H9c-0.805,0-0.988-0.55-1-1V18c0-6.617,5.383-12,12-12  c6.617,0,12,5.383,12,12V41z M42,11.989h-4V9.99h4V11.989z"/>
</svg>
