<?xml version="1.0" encoding="utf-8"?>
<!-- Generator: Adobe Illustrator 16.0.0, SVG Export Plug-In . SVG Version: 6.00 Build 0)  -->
<svg xmlns="http://www.w3.org/2000/svg" xmlns:xlink="http://www.w3.org/1999/xlink" version="1.1" id="Layer_1" x="0px" y="0px" width="48px" height="48px" viewBox="0 0 48 48" enable-background="new 0 0 48 48" xml:space="preserve">
<path d="M41,10H7c-1.65,0-3,1.35-3,3v22c0,1.65,1.35,3,3,3h34c1.65,0,3-1.35,3-3V13C44,11.35,42.65,10,41,10z M6,34.43V13.57  L18.08,24L6,34.43z M7.24,36L20,24.99v-1.98L7.24,12h33.52L28,23.01v1.97L40.76,36H7.24z M42,34.43L29.92,24L42,13.57V34.43z M26,28  h-4V14h4V28z M26,34h-4v-4h4V34z"/>
</svg>
