<?xml version="1.0" encoding="utf-8"?>
<!-- Generator: Adobe Illustrator 16.0.0, SVG Export Plug-In . SVG Version: 6.00 Build 0)  -->
<svg xmlns="http://www.w3.org/2000/svg" xmlns:xlink="http://www.w3.org/1999/xlink" version="1.1" id="Layer_1" x="0px" y="0px" width="48px" height="48px" viewBox="0 0 48 48" enable-background="new 0 0 48 48" xml:space="preserve">
<path d="M32.994,16.003H15.006c-2.201,0-3,1.794-3,3v9.993c0,2.201,1.794,3,3,3h17.988c2.201,0,3-1.794,3-3v-9.993  C35.994,16.802,34.2,16.003,32.994,16.003z M24.002,25.656L15.5,18.003h17L24.002,25.656z M19.317,24.13l-5.311,4.55v-9.331  L19.317,24.13z M20.816,25.479l3.186,2.868l3.188-2.871l5.287,4.52H15.543L20.816,25.479z M28.688,24.127l5.306-4.778v9.314  L28.688,24.127z M15.945,7.897l-0.896-1.788C17.843,4.709,20.854,4,24,4s6.157,0.71,8.951,2.11l-0.896,1.788  C29.542,6.639,26.832,6,24,6C21.168,6,18.458,6.638,15.945,7.897z M32.055,40.103l0.896,1.787C30.157,43.29,27.146,44,24,44  c-3.143,0-6.152-0.708-8.944-2.105l0.895-1.789C18.463,41.362,21.171,42,24,42C26.832,42,29.542,41.361,32.055,40.103z   M30.072,11.381c-3.868-1.865-8.5-1.83-12.341,0.097l-0.897-1.787C19.069,8.569,21.48,8,24,8c2.432,0,4.768,0.532,6.943,1.581  l0.218,0.107l-0.895,1.789L30.072,11.381z M17.731,36.522c3.91,1.962,8.628,1.96,12.539,0l0.896,1.787C28.931,39.432,26.52,40,24,40  c-2.519,0-4.93-0.568-7.165-1.69L17.731,36.522z M18.617,13.272c3.36-1.689,7.408-1.688,10.765,0l-0.898,1.787  c-2.795-1.406-6.172-1.405-8.968,0L18.617,13.272z M29.382,34.728C27.703,35.572,25.893,36,24,36c-1.892,0-3.703-0.428-5.383-1.272  l0.898-1.787c2.796,1.407,6.173,1.407,8.968,0L29.382,34.728z"/>
</svg>
