<?xml version="1.0" encoding="utf-8"?>
<!-- Generator: Adobe Illustrator 16.0.0, SVG Export Plug-In . SVG Version: 6.00 Build 0)  -->
<svg xmlns="http://www.w3.org/2000/svg" xmlns:xlink="http://www.w3.org/1999/xlink" version="1.1" id="Layer_1" x="0px" y="0px" width="48px" height="48px" viewBox="0 0 48 48" enable-background="new 0 0 48 48" xml:space="preserve">
<path d="M41,10H7c-1.65,0-3,1.35-3,3v22c0,1.65,1.35,3,3,3h34c1.65,0,3-1.35,3-3V13C44,11.35,42.65,10,41,10z M42,34.43l-6.08-5.25  c-0.27,0.641-0.59,1.24-0.96,1.82l5.8,5H7.24l5.81-5.01c-0.38-0.57-0.7-1.17-0.97-1.8L6,34.43V13.57l6.08,5.25  c0.27-0.64,0.6-1.25,0.96-1.82l-5.8-5h33.52l-5.8,5c0.36,0.57,0.69,1.18,0.97,1.81L42,13.57V34.43z M24,33  c-3.081,0-5.909-1.584-7.546-4.094l-0.542,1.416c-0.198,0.516-0.775,0.775-1.292,0.576c-0.516-0.197-0.773-0.776-0.576-1.292  l1.431-3.734c0.198-0.516,0.775-0.772,1.292-0.576l3.736,1.43c0.516,0.198,0.773,0.776,0.576,1.292s-0.776,0.773-1.291,0.576  l-1.525-0.584C19.551,29.85,21.684,31,24,31c2.6,0,4.971-1.428,6.188-3.727c0.259-0.488,0.862-0.675,1.353-0.416  c0.488,0.26,0.674,0.865,0.415,1.353C30.39,31.164,27.342,33,24,33z M31.592,22.771c-0.121,0-0.242-0.022-0.358-0.066l-3.735-1.431  c-0.516-0.198-0.773-0.776-0.576-1.292c0.197-0.517,0.777-0.773,1.292-0.576l1.528,0.585C28.449,18.139,26.322,17,24,17  c-2.599,0-4.971,1.428-6.189,3.727c-0.259,0.488-0.863,0.674-1.352,0.415s-0.674-0.864-0.415-1.352C17.61,16.835,20.659,15,24,15  c3.087,0,5.906,1.564,7.547,4.091l0.541-1.414c0.198-0.516,0.776-0.774,1.291-0.576c0.517,0.197,0.774,0.775,0.577,1.292  l-1.431,3.736c-0.096,0.247-0.285,0.447-0.527,0.556C31.869,22.742,31.73,22.771,31.592,22.771z"/>
</svg>
