<?xml version="1.0" encoding="utf-8"?>
<!-- Generator: Adobe Illustrator 16.0.0, SVG Export Plug-In . SVG Version: 6.00 Build 0)  -->
<svg xmlns="http://www.w3.org/2000/svg" xmlns:xlink="http://www.w3.org/1999/xlink" version="1.1" id="Layer_1" x="0px" y="0px" width="48px" height="48px" viewBox="0 0 48 48" enable-background="new 0 0 48 48" xml:space="preserve">
<path d="M37.21,44H10.8c0.24-1.21,0.65-2.42,1.39-3.16c1.69-1.689,6.75-2.109,7.59-2.89c0.53-0.49,0.73-1.22,0.8-2.32  c-0.35-0.22-0.63-0.46-0.8-0.7c-0.55-0.779-0.91-2.01-1.16-3.39c-0.03,0-0.06,0.021-0.09,0.021c-0.59,0-1.17-0.949-1.29-2.109  c-0.13-1.17,0.25-2.11,0.84-2.11c0.03,0,0.06,0.011,0.09,0.021c-0.07-1.391-0.08-2.629-0.08-3.399c0-2.69,0.95-3.37,2.06-3.69  c0,0,0.16-2.27,3.48-2.27c3.32,0,6.29,2.59,6.29,5.96c0,0.771-0.01,2.011-0.09,3.399c0.029-0.01,0.061-0.021,0.1-0.021  c0.58,0,0.961,0.94,0.84,2.11c-0.129,1.16-0.709,2.109-1.31,2.109c-0.021,0-0.04-0.021-0.08-0.021c-0.25,1.38-0.61,2.61-1.159,3.39  c-0.171,0.24-0.451,0.48-0.801,0.7c0.07,1.101,0.271,1.83,0.801,2.32c0.84,0.78,5.899,1.2,7.59,2.89  C36.55,41.58,36.971,42.79,37.21,44z M41,6H7C5.35,6,4,7.34,4,9v22c0,1.65,1.35,3,3,3h10.17L16,32H7.24L16,24.44v-2.65L6,30.42V9.57  l11.53,9.95l1.4-1.43L7.24,8h33.52L29.141,18.02c0.51,0.44,0.971,0.94,1.359,1.48L42,9.57v20.85L32,21.8v2.63L40.76,32H31.98  l-1.15,2H41c1.65,0,3-1.35,3-3V9C44,7.34,42.65,6,41,6z"/>
</svg>
