<?xml version="1.0" encoding="utf-8"?>
<!-- Generator: Adobe Illustrator 16.0.0, SVG Export Plug-In . SVG Version: 6.00 Build 0)  -->
<svg xmlns="http://www.w3.org/2000/svg" xmlns:xlink="http://www.w3.org/1999/xlink" version="1.1" id="Layer_1" x="0px" y="0px" width="48px" height="48px" viewBox="0 0 48 48" enable-background="new 0 0 48 48" xml:space="preserve">
<path d="M36.998,18.005H34V16c0-5.514-4.486-10-10-10c-5.514,0-10,4.486-10,10v2.005h-2.999c-2.201,0-3,1.794-3,3v16.001  c0,2.201,1.794,3,3,3h25.997c2.201,0,3-1.794,3-3V21.005C39.998,18.804,38.204,18.005,36.998,18.005z M10.001,21.308l7.895,7.371  l-7.895,7.9V21.308z M24,31.642L11.538,20.005h24.924L24,31.642z M19.359,30.045L24,34.378l4.633-4.325l7.951,7.953h-25.18  L19.359,30.045z M30.095,28.687l7.903-7.38v15.285L30.095,28.687z M16,16c0-4.411,3.589-8,8-8s8,3.589,8,8v2.005H16V16z M25,25.722  V28h-2v-2.278c-0.595-0.347-1-0.985-1-1.722c0-1.103,0.897-2,2-2c1.103,0,2,0.897,2,2C26,24.737,25.595,25.375,25,25.722z"/>
</svg>
