<?xml version="1.0" encoding="utf-8"?>
<!-- Generator: Adobe Illustrator 16.0.0, SVG Export Plug-In . SVG Version: 6.00 Build 0)  -->
<svg xmlns="http://www.w3.org/2000/svg" xmlns:xlink="http://www.w3.org/1999/xlink" version="1.1" id="Layer_1" x="0px" y="0px" width="48px" height="48px" viewBox="0 0 48 48" enable-background="new 0 0 48 48" xml:space="preserve">
<path d="M41,10H7c-1.65,0-3,1.35-3,3v22c0,1.65,1.35,3,3,3h34c1.65,0,3-1.35,3-3V13C44,11.35,42.65,10,41,10z M42,34.43l-6.14-5.3  l-1.431,1.41L40.76,36H7.24l6.33-5.46l-1.41-1.42L6,34.43V13.57l6.15,5.31l1.42-1.42L7.24,12h33.52l-6.33,5.46l1.42,1.42L42,13.57  V34.43z M24,14c-5.514,0-10,4.486-10,10s4.486,10,10,10c2.387,0,4.685-0.837,6.471-2.355c0.42-0.358,0.471-0.989,0.113-1.41  c-0.359-0.422-0.989-0.471-1.41-0.113c-1.424,1.212-3.262,1.879-5.174,1.879c-4.411,0-8-3.589-8-8c0-4.411,3.589-8,8-8  c4.411,0,8,3.589,8,8c0,1.369-0.26,3-1.499,3c-0.827,0-1.5-0.673-1.5-1.5V20c0-0.552-0.447-1-1-1s-1,0.448-1,1v0.027  C26.162,19.392,25.13,19,24,19c-2.757,0-5,2.243-5,5c0,2.758,2.243,5.001,5,5.001c1.416,0,2.688-0.597,3.599-1.546  c0.63,0.932,1.695,1.545,2.901,1.545c0.821,0,3.499-0.36,3.499-5C33.999,18.486,29.514,14,24,14z M24,27.002  c-1.654,0-3-1.347-3-3.001c0-1.654,1.346-3,3-3c1.654,0,3,1.346,3,3C26.999,25.655,25.653,27.002,24,27.002z"/>
</svg>
