<?xml version="1.0" encoding="utf-8"?>
<!-- Generator: Adobe Illustrator 16.0.0, SVG Export Plug-In . SVG Version: 6.00 Build 0)  -->
<svg xmlns="http://www.w3.org/2000/svg" xmlns:xlink="http://www.w3.org/1999/xlink" version="1.1" id="Layer_1" x="0px" y="0px" width="48px" height="48px" viewBox="0 0 48 48" enable-background="new 0 0 48 48" xml:space="preserve">
<path d="M41,38H7c-1.654,0-3-1.346-3-3V13c0-1.654,1.346-3,3-3h34c1.654,0,3,1.346,3,3v22C44,36.654,42.654,38,41,38z M7.238,36  h33.525L28.388,25.32L24,29.107l-4.388-3.787L7.238,36z M6,13.573v20.854L18.082,24L6,13.573z M29.918,24L42,34.426V13.574  L29.918,24z M7.238,12L24,26.465L40.763,12H7.238z"/>
</svg>
