<?xml version="1.0" encoding="utf-8"?>
<!-- Generator: Adobe Illustrator 16.0.0, SVG Export Plug-In . SVG Version: 6.00 Build 0)  -->
<svg xmlns="http://www.w3.org/2000/svg" xmlns:xlink="http://www.w3.org/1999/xlink" version="1.1" id="Layer_1" x="0px" y="0px" width="48px" height="48px" viewBox="0 0 48 48" enable-background="new 0 0 48 48" xml:space="preserve">
<path d="M41,10H7c-1.65,0-3,1.35-3,3v22c0,1.65,1.35,3,3,3h34c1.65,0,3-1.35,3-3V13C44,11.35,42.65,10,41,10z M42,34.43l-6.14-5.3  l-1.431,1.41L40.76,36H7.24l6.33-5.46l-1.41-1.42L6,34.43V13.57l6.15,5.31l1.42-1.42L7.24,12h33.52l-6.33,5.46l1.42,1.42L42,13.57  V34.43z M28.828,22H34v4h-5.171l3.656,3.656l-2.828,2.828L26,28.827V34h-4v-5.172l-3.657,3.657l-2.828-2.828L19.172,26H14v-4h5.172  l-3.657-3.657l2.828-2.828L22,19.172V14h4v5.172l3.657-3.657l2.828,2.828L28.828,22z"/>
</svg>
