<?xml version="1.0" encoding="utf-8"?>
<!-- Generator: Adobe Illustrator 16.0.0, SVG Export Plug-In . SVG Version: 6.00 Build 0)  -->
<svg xmlns="http://www.w3.org/2000/svg" xmlns:xlink="http://www.w3.org/1999/xlink" version="1.1" id="Layer_1" x="0px" y="0px" width="48px" height="48px" viewBox="0 0 48 48" enable-background="new 0 0 48 48" xml:space="preserve">
<path d="M35,4H13C9.04,4,8,7.27,8,9v30c0,3.96,3.27,5,5,5h22c3.96,0,5-3.27,5-5V9C40,5.04,36.73,4,35,4z M37.2,11.991l-7.2,4.8  l-7.2-4.8H37.2z M38,33.002c0,0,0,1-1,1H23c-1,0-1-1.01-1-1.01v-7.121l7.45,4.961c0.159,0.12,0.358,0.17,0.55,0.17  s0.391-0.05,0.55-0.17L38,25.871V33.002z M22.8,24.001h14.4l-7.2,4.8L22.8,24.001z M38,20.991c0,0,0,1-1,1H23c-1,0-1-1.01-1-1.01  v-7.12l7.45,4.96c0.159,0.12,0.358,0.17,0.55,0.17s0.391-0.05,0.55-0.17l7.45-4.96V20.991z"/>
</svg>
