<?xml version="1.0" encoding="utf-8"?>
<!-- Generator: Adobe Illustrator 16.0.0, SVG Export Plug-In . SVG Version: 6.00 Build 0)  -->
<svg xmlns="http://www.w3.org/2000/svg" xmlns:xlink="http://www.w3.org/1999/xlink" version="1.1" id="Layer_1" x="0px" y="0px" width="48px" height="48px" viewBox="0 0 48 48" enable-background="new 0 0 48 48" xml:space="preserve">
<path d="M36.998,27.993c2.201,0,3-1.794,3-3V8.996c0-2.201-1.794-3-3-3H11.001c-2.201,0-3,1.794-3,3v15.998c0,2.201,1.794,3,3,3  H36.998z M30.107,16.689l7.891-7.332v15.214L30.107,16.689z M24,19.634L11.475,7.996h25.051L24,19.634z M17.885,16.682l-7.883,7.89  V9.357L17.885,16.682z M19.352,18.044L24,22.364l4.64-4.312l7.95,7.941H11.409L19.352,18.044z M10,32.002h33c0.553,0,1,0.447,1,1  s-0.447,1-1,1H10c-0.552,0-1-0.447-1-1S9.448,32.002,10,32.002z M6.5,33.002c0,0.829-0.672,1.5-1.5,1.5s-1.5-0.671-1.5-1.5  s0.672-1.5,1.5-1.5S6.5,32.173,6.5,33.002z M44,37.006c0,0.553-0.447,1-1,1H10c-0.552,0-1-0.447-1-1s0.448-1,1-1h33  C43.553,36.006,44,36.453,44,37.006z M6.5,37.006c0,0.829-0.672,1.5-1.5,1.5s-1.5-0.671-1.5-1.5s0.672-1.5,1.5-1.5  S6.5,36.177,6.5,37.006z M44,41.01c0,0.553-0.447,1-1,1H10c-0.552,0-1-0.447-1-1s0.448-1,1-1h33C43.553,40.01,44,40.457,44,41.01z   M6.5,41.01c0,0.829-0.672,1.5-1.5,1.5s-1.5-0.671-1.5-1.5s0.672-1.5,1.5-1.5S6.5,40.181,6.5,41.01z"/>
</svg>
