<?xml version="1.0" encoding="utf-8"?>
<!-- Generator: Adobe Illustrator 16.0.0, SVG Export Plug-In . SVG Version: 6.00 Build 0)  -->
<svg xmlns="http://www.w3.org/2000/svg" xmlns:xlink="http://www.w3.org/1999/xlink" version="1.1" id="Layer_1" x="0px" y="0px" width="48px" height="48px" viewBox="0 0 48 48" enable-background="new 0 0 48 48" xml:space="preserve">
<path d="M41,42H7c-1.654,0-3-1.346-3-3V17c0-1.651,0.709-2.795,2.447-3.949C7.271,12.504,23.449,1.833,23.449,1.833L24,1.471  l0.551,0.363c0,0,16.178,10.67,17.002,11.217C43.291,14.204,44,15.348,44,17v22C44,40.654,42.654,42,41,42z M7.238,40h33.525  L24,25.534L7.238,40z M6,17.573v20.854L18.082,28L6,17.573z M29.918,28L42,38.426V17.574L29.918,28z M6.619,15.465l12.994,11.213  L24,22.893l4.388,3.786l12.994-11.213c-0.223-0.23-0.525-0.477-0.935-0.748C39.714,14.231,26.839,5.739,24,3.866  C21.161,5.739,8.286,14.231,7.553,14.717C7.144,14.989,6.841,15.236,6.619,15.465z"/>
</svg>
