<?xml version="1.0" encoding="utf-8"?>
<!-- Generator: Adobe Illustrator 16.0.0, SVG Export Plug-In . SVG Version: 6.00 Build 0)  -->
<svg xmlns="http://www.w3.org/2000/svg" xmlns:xlink="http://www.w3.org/1999/xlink" version="1.1" id="Layer_1" x="0px" y="0px" width="48px" height="48px" viewBox="0 0 48 48" enable-background="new 0 0 48 48" xml:space="preserve">
<path d="M41,8H7c-1.65,0-3,1.35-3,3v30c0,1.21,0.8,3,3,3h34c1.21,0,3-0.8,3-3V11C44,9.35,42.65,8,41,8z M40.76,10L24,24.46L7.24,10  H40.76z M6,32.43V11.57L18.08,22L6,32.43z M13,40H9c-0.55,0-1-0.45-1-1s0.45-1,1-1h4c0.55,0,1,0.45,1,1S13.55,40,13,40z M38.99,40  H17c-0.55,0-1-0.45-1-1s0.45-1,1-1h21.99c0.55,0,1,0.45,1,1S39.54,40,38.99,40z M7.24,34l12.37-10.68L24,27.11l4.39-3.791L40.76,34  H7.24z M42,32.43L29.92,22L42,11.57V32.43z"/>
</svg>
