<?xml version="1.0" encoding="utf-8"?>
<!-- Generator: Adobe Illustrator 16.0.0, SVG Export Plug-In . SVG Version: 6.00 Build 0)  -->
<svg xmlns="http://www.w3.org/2000/svg" xmlns:xlink="http://www.w3.org/1999/xlink" version="1.1" id="Layer_1" x="0px" y="0px" width="48px" height="48px" viewBox="0 0 48 48" enable-background="new 0 0 48 48" xml:space="preserve">
<path d="M41.019,8.001h-6.003c-0.553,0-1,0.448-1,1s0.447,1,1,1h3.588l-10.01,10.005H25V7.379l2.286,2.323  C27.482,9.9,27.74,10,27.999,10c0.253,0,0.507-0.096,0.701-0.287c0.394-0.388,0.398-1.021,0.012-1.415l-3.999-4.063  C24.525,4.045,24.268,3.938,24,3.938s-0.524,0.107-0.712,0.298l-4,4.063c-0.388,0.394-0.383,1.027,0.011,1.414  c0.394,0.388,1.027,0.383,1.414-0.011L23,7.378v12.627h-3.58L9.415,10.001h3.586c0.552,0,1-0.448,1-1s-0.448-1-1-1h-6  c-0.552,0-1,0.448-1,1v6c0,0.552,0.448,1,1,1s1-0.448,1-1v-3.586l8.591,8.591h-5.59c-2.201,0-3,1.794-3,3v16.002  c0,2.201,1.794,3,3,3h25.997c2.201,0,3-1.794,3-3V23.006c0-2.201-1.794-3-3-3h-5.575l8.596-8.591v3.586c0,0.552,0.447,1,1,1  s1-0.448,1-1v-6C42.019,8.449,41.571,8.001,41.019,8.001z M17.897,30.681l-7.896,7.9V23.308L17.897,30.681z M19.36,32.047L24,36.379  l4.632-4.325l7.952,7.954h-25.18L19.36,32.047z M30.094,30.688l7.904-7.38v15.285L30.094,30.688z M24,33.643L11.537,22.006h24.924  L24,33.643z"/>
</svg>
