<?xml version="1.0" encoding="utf-8"?>
<!-- Generator: Adobe Illustrator 16.0.0, SVG Export Plug-In . SVG Version: 6.00 Build 0)  -->
<svg xmlns="http://www.w3.org/2000/svg" xmlns:xlink="http://www.w3.org/1999/xlink" version="1.1" id="Capa_1" x="0px" y="0px" width="48px" height="48px" viewBox="0 0 48 48" enable-background="new 0 0 48 48" xml:space="preserve">
<path d="M41,6H7C5.79,6,4,6.8,4,9v30c0,1.21,0.8,3,3,3h34c1.21,0,3-0.8,3-3V9C44,7.79,43.2,6,41,6z M18,34.99  C17.99,35.45,17.81,36,17,36h-5.99C10.55,35.99,10,35.81,10,35v-5.99c0.01-0.46,0.19-1.01,1-1.01h5.99c0.46,0.01,1.01,0.19,1.01,1  V34.99z M19,24H9c-0.55,0-1-0.45-1-1s0.45-1,1-1h10c0.55,0,1,0.45,1,1S19.55,24,19,24z M40,35c0,1.21-0.8,3-3,3H25  c-1.21,0-3-0.8-3-3v-7.998c0-1.211,0.8-3.001,3-3.001h12c1.21,0,3,0.8,3,3.001V35z M39,20H9c-0.55,0-1-0.45-1-1s0.45-1,1-1h30  c0.55,0,1,0.45,1,1S39.55,20,39,20z M42,14H6v-2h36V14z M42,10H6V9c0-0.81,0.55-0.99,1-1h34c0.81,0,0.99,0.55,1,1V10z"/>
</svg>
