<?xml version="1.0" encoding="utf-8"?>
<!-- Generator: Adobe Illustrator 16.0.0, SVG Export Plug-In . SVG Version: 6.00 Build 0)  -->
<svg xmlns="http://www.w3.org/2000/svg" xmlns:xlink="http://www.w3.org/1999/xlink" version="1.1" id="Layer_1" x="0px" y="0px" width="48px" height="48px" viewBox="0 0 48 48" enable-background="new 0 0 48 48" xml:space="preserve">
<path d="M39,18H25v13c0,0.55-0.45,1-1,1s-1-0.45-1-1V18h-0.91c-1.64,0-2.87-0.6-3.87-1.9c-1.14-1.47-2.35-2.1-4.03-2.1H9  c-1.66,0-3,1.34-3,3v24c0,1.66,1.34,3,3,3h30c1.66,0,3-1.34,3-3V21C42,19.34,40.66,18,39,18z M40,41c0,0.55-0.45,1-1,1H9  c-0.55,0-1-0.45-1-1v-3c0-1.1,0.9-2,2-2h28c1.1,0,2,0.9,2,2V41z M31.76,11.65C31.56,11.88,31.28,12,31,12  c-0.23,0-0.46-0.08-0.65-0.24L25,7.18V18h-2V7.18l-5.35,4.58c-0.42,0.36-1.05,0.31-1.41-0.11c-0.36-0.42-0.31-1.05,0.11-1.41l7-6  c0.37-0.32,0.93-0.32,1.3,0l7,6C32.07,10.6,32.12,11.23,31.76,11.65z"/>
</svg>
