<?xml version="1.0" encoding="utf-8"?>
<!-- Generator: Adobe Illustrator 16.0.0, SVG Export Plug-In . SVG Version: 6.00 Build 0)  -->
<svg xmlns="http://www.w3.org/2000/svg" xmlns:xlink="http://www.w3.org/1999/xlink" version="1.1" id="Layer_1" x="0px" y="0px" width="48px" height="48px" viewBox="0 0 48 48" enable-background="new 0 0 48 48" xml:space="preserve">
<path d="M41.55,13.05c-0.819-0.55-17-11.22-17-11.22L24,1.47l-0.55,0.36c0,0-16.18,10.67-17,11.22C4.71,14.2,4,15.35,4,17v22  c0,1.65,1.35,3,3,3h34c1.65,0,3-1.35,3-3V17C44,15.35,43.29,14.2,41.55,13.05z M7.55,14.72C8.29,14.23,21.16,5.74,24,3.87  c2.84,1.87,15.71,10.36,16.45,10.85c0.41,0.27,0.71,0.52,0.93,0.75l-1.41,1.22C39.8,14.73,38.14,14,37,14H11  c-2.02,0-2.85,1.5-2.97,2.68l-1.41-1.21C6.84,15.24,7.14,14.99,7.55,14.72z M24,20c2.21,0,4,2.24,4,5c0,0.42-0.04,0.83-0.12,1.24  L24,22.89l-3.87,3.35C20.04,25.83,20,25.42,20,25C20,22.24,21.79,20,24,20z M6,38.43V17.57L18.08,28L6,38.43z M7.24,40L24,25.53  L40.76,40H7.24z M42,38.43L29.92,28L42,17.57V38.43z"/>
</svg>
