<?xml version="1.0" encoding="utf-8"?>
<!-- Generator: Adobe Illustrator 16.0.0, SVG Export Plug-In . SVG Version: 6.00 Build 0)  -->
<svg xmlns="http://www.w3.org/2000/svg" xmlns:xlink="http://www.w3.org/1999/xlink" version="1.1" id="Layer_1" x="0px" y="0px" width="48px" height="48px" viewBox="0 0 48 48" enable-background="new 0 0 48 48" xml:space="preserve">
<path d="M24.003,18.001C28.006,18.001,28,22.906,28,25c0,2.096,0.006,6.999-3.997,6.999s-4.001-4.905-4.001-7.001  C20.002,22.904,20.001,18.001,24.003,18.001z M24.003,20.001C22.244,20.001,22,22.405,22,25c0,2.598,0.244,5,2.003,5  C25.762,30,26,27.598,26,25C26,22.405,25.762,20.001,24.003,20.001z M14.504,18c2.48,0,4.498,2.019,4.498,4.499  c0,2.481-2.018,4.501-4.498,4.501H13v4c0,0.553-0.443,0.999-0.996,0.999s-1-0.447-1-1V19.001c0-0.552,0.448-1.001,1-1.001H14.504z   M14.504,20H13v5h1.504c1.377,0,2.498-1.122,2.498-2.501C17.002,21.122,15.882,20,14.504,20z M33.506,18C35.987,18,38,20.02,38,22.5  c0,2.481-2.013,4.5-4.494,4.5H32v4c0,0.553-0.442,1-0.995,1s-1-0.447-1-1V19.002C30.005,18.45,30.447,18,31,18H33.506z M33.506,20  H32v5h1.506c1.379,0,2.493-1.121,2.493-2.5C35.999,21.123,34.885,20,33.506,20z M43.51,14.14l-10-6c-0.3-0.18-0.689-0.19-1-0.01  C32.19,8.31,32,8.64,32,9v5H16V9c0-0.36-0.19-0.69-0.51-0.87c-0.31-0.18-0.7-0.17-1,0.01l-10,6c-0.39,0.23-0.57,0.69-0.45,1.13  C4.16,15.7,4.55,16,5,16h38c0.45,0,0.84-0.3,0.96-0.73C44.08,14.83,43.9,14.37,43.51,14.14z M43.96,34.73C43.84,34.3,43.45,34,43,34  H5c-0.45,0-0.84,0.3-0.96,0.73C3.92,35.17,4.1,35.63,4.49,35.86l10,6c0.3,0.18,0.69,0.189,1,0.01C15.81,41.69,16,41.36,16,41v-5h16  v5c0,0.36,0.19,0.69,0.51,0.87C32.66,41.96,32.83,42,33,42c0.18,0,0.36-0.05,0.51-0.14l10-6C43.9,35.63,44.08,35.17,43.96,34.73z"/>
</svg>
