<?xml version="1.0" encoding="utf-8"?>
<!-- Generator: Adobe Illustrator 16.0.0, SVG Export Plug-In . SVG Version: 6.00 Build 0)  -->
<svg xmlns="http://www.w3.org/2000/svg" xmlns:xlink="http://www.w3.org/1999/xlink" version="1.1" id="Layer_1" x="0px" y="0px" width="48px" height="48px" viewBox="0 0 48 48" enable-background="new 0 0 48 48" xml:space="preserve">
<path d="M22,24H8V9c0-1.73,1.04-5,5-5h22c1.73,0,5,1.04,5,5v15H25c-0.56,0-1-0.45-1-1s0.44-1,1-1h13v-2H25c-0.56,0-1-0.45-1-1  s0.44-1,1-1h13v-4H23c-0.81,0-0.99,0.55-1,1.01V24z M10,44h28c0,0,2,0,2-2H8C8,42,8,44,10,44z M40.623,32.995  c0.836-0.733,1.376-1.797,1.376-2.995c0-2.206-1.794-4-4-4C35.794,26,34,27.794,34,30c0,0.553,0.447,1,1,1s1-0.447,1-1  c0-1.103,0.896-2,1.999-2s2,0.897,2,2s-0.897,2-2,2c-0.476,0-0.854,0.337-0.956,0.781c-0.023,0.053-0.04,0.117-0.042,0.207  c0,0.004-0.002,0.008-0.002,0.012c0,0.553,0.447,1,1,1c0,0,0,0,0.001,0l0,0c1.103,0,2,0.897,2,2s-0.897,2-2,2s-1.999-0.897-1.999-2  c0-0.553-0.447-1-1-1s-1,0.447-1,1c0,2.206,1.794,4,3.999,4c2.206,0,4-1.794,4-4C42,34.8,41.463,33.729,40.623,32.995z M23,32.997  C23,35.092,23.003,40,19.002,40C15,40,15,35.092,15,32.997C15,30.903,15,26,19.002,26C23.003,26,23,30.903,23,32.997z M21,32.997  C21,30.401,20.761,28,19.002,28C17.243,28,17,30.401,17,32.997c0,2.597,0.243,5,2.002,5C20.761,37.997,21,35.594,21,32.997z M8,39  c0,0.553-0.448,1-1,1s-1-0.447-1-1V27.003C6,26.45,6.448,26,7,26h2.5c2.48,0,4.498,2.021,4.498,4.501S11.98,35,9.5,35H8V39z M8,33  h1.5c1.377,0,2.498-1.121,2.498-2.499c0-1.377-1.121-2.498-2.498-2.498H8V33z M28.501,26.003c2.481,0,4.5,2.018,4.5,4.498  S30.982,35,28.501,35H27v4c0,0.553-0.447,1-1,1s-1-0.447-1-1V27.003c0-0.553,0.447-1,1-1H28.501z M28.501,28.003H27V33h1.501  c1.379,0,2.5-1.121,2.5-2.499C31.001,29.124,29.88,28.003,28.501,28.003z"/>
</svg>
