<?xml version="1.0" encoding="utf-8"?>
<!-- Generator: Adobe Illustrator 16.0.0, SVG Export Plug-In . SVG Version: 6.00 Build 0)  -->
<svg xmlns="http://www.w3.org/2000/svg" xmlns:xlink="http://www.w3.org/1999/xlink" version="1.1" id="Layer_1" x="0px" y="0px" width="48px" height="48px" viewBox="0 0 48 48" enable-background="new 0 0 48 48" xml:space="preserve">
<path d="M40.618,25C41.458,25.733,42,26.8,42,28c0,2.206-1.794,4-4,4c-2.205,0-3.999-1.794-3.999-4c0-0.553,0.447-1,1-1s1,0.447,1,1  c0,1.103,0.896,2,1.999,2s2-0.897,2-2s-0.897-2-2-2c-0.553,0-1-0.447-1-1c0-0.552,0.447-1,1-1c0.001,0,0.002,0,0.002,0  C39.104,23.999,40,23.102,40,22c0-1.103-0.897-2-2-2s-1.999,0.897-1.999,2c0,0.552-0.447,1-1,1s-1-0.448-1-1  c0-2.206,1.794-4,3.999-4c2.206,0,4,1.794,4,4C42,23.201,41.458,24.266,40.618,25z M19,18.001c4.001,0,4.001,4.903,4.001,6.997  c0,2.096,0,7.001-4.001,7.001c-4.002,0-4-4.905-4-7.001C15,22.904,14.999,18.001,19,18.001z M19,20.001  c-1.759,0-2.002,2.402-2.002,4.997c0,2.598,0.243,5.001,2.002,5.001c1.759,0,2.001-2.403,2.001-5.001  C21.001,22.403,20.759,20.001,19,20.001z M9.502,18C11.982,18,14,20.019,14,22.499C14,24.98,11.982,27,9.502,27H8v4  c0,0.553-0.446,0.999-0.998,0.999s-1-0.447-1-1V19.001c0-0.552,0.448-1.001,1-1.001H9.502z M9.502,20.001h-1.5v4.998h1.5  c1.377,0,2.498-1.121,2.498-2.5C12,21.122,10.879,20.001,9.502,20.001z M28.501,18.002c2.481,0,4.5,2.018,4.5,4.498  c0,2.481-2.019,4.5-4.5,4.5H27v4c0,0.553-0.447,1-1,1s-1-0.447-1-1V19.002c0-0.552,0.447-1,1-1H28.501z M28.501,20.001H27V25h1.501  c1.379,0,2.5-1.121,2.5-2.5C31.001,21.123,29.88,20.001,28.501,20.001z M43.51,14.14l-10-6c-0.3-0.18-0.689-0.19-1-0.01  C32.19,8.31,32,8.64,32,9v5H16V9c0-0.36-0.19-0.69-0.51-0.87c-0.31-0.18-0.7-0.17-1,0.01l-10,6c-0.39,0.23-0.57,0.69-0.45,1.13  C4.16,15.7,4.55,16,5,16h38c0.45,0,0.84-0.3,0.96-0.73C44.08,14.83,43.9,14.37,43.51,14.14z M43.96,34.73C43.84,34.3,43.45,34,43,34  H5c-0.45,0-0.84,0.3-0.96,0.73C3.92,35.17,4.1,35.63,4.49,35.86l10,6c0.3,0.18,0.69,0.189,1,0.01C15.81,41.69,16,41.36,16,41v-5h16  v5c0,0.36,0.19,0.69,0.51,0.87C32.66,41.96,32.83,42,33,42c0.18,0,0.36-0.05,0.51-0.14l10-6C43.9,35.63,44.08,35.17,43.96,34.73z"/>
</svg>
