<?xml version="1.0" encoding="utf-8"?>
<!-- Generator: Adobe Illustrator 16.0.0, SVG Export Plug-In . SVG Version: 6.00 Build 0)  -->
<svg xmlns="http://www.w3.org/2000/svg" xmlns:xlink="http://www.w3.org/1999/xlink" version="1.1" id="Layer_1" x="0px" y="0px" width="48px" height="48px" viewBox="0 0 48 48" enable-background="new 0 0 48 48" xml:space="preserve">
<path d="M40.625,26.994C41.465,27.728,42,28.801,42,30c0,2.206-1.794,4-4,4c-2.205,0-3.999-1.794-3.999-4c0-0.553,0.447-1,1-1  s1,0.447,1,1c0,1.103,0.896,2,1.999,2s2-0.897,2-2s-0.897-2-2-2c-0.553,0-1-0.447-1-1c0-0.086,0.017-0.148,0.041-0.201  C37.136,26.347,37.519,26,38,26c1.103,0,2-0.897,2-2c0-1.103-0.897-2-2-2s-1.999,0.897-1.999,2c0,0.552-0.447,1-1,1s-1-0.448-1-1  c0-2.206,1.794-4,3.999-4c2.206,0,4,1.794,4,4C42,25.197,41.461,26.261,40.625,26.994z M18.999,34c-4.001,0-4.001-4.905-4.001-7  c0-2.094,0-6.998,4.001-6.998C23,20.002,23,24.906,23,27C23,29.095,23,34,18.999,34z M18.999,32C20.757,32,21,29.597,21,27  c0-2.596-0.243-4.998-2.001-4.998S16.998,24.404,16.998,27C16.998,29.597,17.24,32,18.999,32z M9.5,28.999L8,29l0.002,3.998  c0,0.553-0.448,1-1,1s-1-0.447-1-1V21c0-0.266,0.105-0.521,0.294-0.708C6.483,20.105,6.737,20,7.002,20c0.001,0,0.001,0,0.002,0  l2.5,0.006c2.478,0,4.496,2.015,4.496,4.492C14,26.984,11.98,28.999,9.5,28.999z M8,27l1.501,0.006c1.378,0,2.499-1.125,2.499-2.508  c0-1.374-1.121-2.492-2.499-2.492L8,22V27z M26,34c-0.553,0-1-0.447-1-1V21.002c0-0.552,0.447-1,1-1h2.501  c2.481,0,4.5,2.018,4.5,4.498c0,2.481-2.019,4.5-4.5,4.5H27v4C27,33.553,26.553,34,26,34z M27,27h1.501c1.379,0,2.5-1.121,2.5-2.5  c0-1.377-1.121-2.498-2.5-2.498H27V27z M39,12H22.09c-1.64,0-2.87-0.6-3.87-1.9C17.08,8.63,15.87,8,14.19,8H9c-1.66,0-3,1.34-3,3v7  h36v-3C42,13.34,40.66,12,39,12z M6,38c0.4,1.17,1.51,2,2.82,2h30.36c1.311,0,2.42-0.83,2.82-2v-2H6V38z"/>
</svg>
