<?xml version="1.0" encoding="utf-8"?>
<!-- Generator: Adobe Illustrator 16.0.0, SVG Export Plug-In . SVG Version: 6.00 Build 0)  -->
<svg xmlns="http://www.w3.org/2000/svg" xmlns:xlink="http://www.w3.org/1999/xlink" version="1.1" id="Layer_1" x="0px" y="0px" width="48px" height="48px" viewBox="0 0 48 48" enable-background="new 0 0 48 48" xml:space="preserve">
<path d="M22,24H8V9c0-1.73,1.04-5,5-5h22c1.73,0,5,1.04,5,5v15H25c-0.56,0-1-0.45-1-1s0.44-1,1-1h13v-2H25c-0.56,0-1-0.45-1-1  s0.44-1,1-1h13v-4H23c-0.81,0-0.99,0.55-1,1.01V24z M10,44h28c0,0,2,0,2-2H8C8,42,8,44,10,44z M28,33c0,2.095,0.007,7-3.996,7  C20.002,40,20,35.095,20,33c0-2.094,0.002-7,4.004-7C28.007,26,28,30.906,28,33z M26,33c0-2.596-0.236-5-1.996-5S22,30.404,22,33  c0,2.597,0.245,5,2.004,5S26,35.597,26,33z M13,39c0,0.553-0.445,1-0.998,1S11,39.553,11,39l0.002-11.997  c0-0.553,0.448-1.003,1-1.003h2.5C16.983,26,19,28.021,19,30.501S16.983,35,14.502,35H13V39z M13,33h1.502  C15.88,33,17,31.879,17,30.501C17,29.124,15.88,28,14.502,28H13V33z M33.506,26.001c2.481,0,4.5,2.02,4.5,4.5S35.987,35,33.506,35  H32v4c0,0.553-0.442,1-0.995,1s-1-0.447-1-1V27.003c0-0.553,0.447-1,1-1L33.506,26.001z M33.506,28H32v5h1.506  C34.885,33,36,31.879,36,30.501C36,29.124,34.885,28,33.506,28z"/>
</svg>
