<?xml version="1.0" encoding="utf-8"?>
<!-- Generator: Adobe Illustrator 16.0.0, SVG Export Plug-In . SVG Version: 6.00 Build 0)  -->
<svg xmlns="http://www.w3.org/2000/svg" xmlns:xlink="http://www.w3.org/1999/xlink" version="1.1" id="Layer_1" x="0px" y="0px" width="48px" height="48px" viewBox="0 0 48 48" enable-background="new 0 0 48 48" xml:space="preserve">
<path d="M23.998,33.991c4.002,0,4.002-4.905,4.002-7c0-2.094,0-6.998-4.002-6.998c-4.001,0-4.001,4.904-4.001,6.998  C19.997,29.086,19.997,33.991,23.998,33.991z M23.998,21.994c1.76,0,2.002,2.402,2.002,4.998c0,2.597-0.242,5-2.002,5  c-1.759,0-2.001-2.403-2.001-5C21.997,24.396,22.239,21.994,23.998,21.994z M12.002,33.991c0.552,0,1-0.447,1-1v-4h1.5  c2.48,0,4.499-2.019,4.499-4.5c0-2.48-2.018-4.498-4.499-4.498h-2.5c-0.552,0-1,0.448-1,1v11.998  C11.002,33.544,11.45,33.991,12.002,33.991z M13.002,21.994h1.5c1.378,0,2.499,1.121,2.499,2.498c0,1.378-1.121,2.5-2.499,2.5h-1.5  V21.994z M31.015,33.991c0.553,0,1-0.447,1-1v-4h1.501c2.481,0,4.5-2.019,4.5-4.5c0-2.48-2.019-4.498-4.5-4.498h-2.501  c-0.553,0-1,0.448-1,1v11.998C30.015,33.544,30.462,33.991,31.015,33.991z M32.015,21.994h1.501c1.379,0,2.5,1.121,2.5,2.498  c0,1.378-1.121,2.5-2.5,2.5h-1.501V21.994z M39,12H22.09c-1.64,0-2.87-0.6-3.87-1.9C17.08,8.63,15.87,8,14.19,8H9  c-1.66,0-3,1.34-3,3v27c0.4,1.17,1.51,2,2.82,2h30.36c1.311,0,2.42-0.83,2.82-2V15C42,13.34,40.66,12,39,12z M40,36H8V18h32V36z"/>
</svg>
