<?xml version="1.0" encoding="utf-8"?>
<!-- Generator: Adobe Illustrator 16.0.0, SVG Export Plug-In . SVG Version: 6.00 Build 0)  -->
<svg xmlns="http://www.w3.org/2000/svg" xmlns:xlink="http://www.w3.org/1999/xlink" version="1.1" id="Layer_1" x="0px" y="0px" width="48px" height="48px" viewBox="0 0 48 48" enable-background="new 0 0 48 48" xml:space="preserve">
<path d="M30.998,14H18.399l2.542-2.607c0.771-0.791,0.755-2.057-0.036-2.828s-2.056-0.756-2.828,0.036l-6.006,6.16  c-0.371,0.38-0.575,0.892-0.568,1.423c0.007,0.531,0.225,1.037,0.606,1.407l6.006,5.838c0.389,0.378,0.892,0.566,1.394,0.566  c0.521,0,1.042-0.203,1.434-0.606c0.77-0.792,0.752-2.058-0.04-2.828L18.268,18h12.73c4.963,0,9,4.039,9,9.002s-4.037,9-9,9H6  c-1.104,0-2,0.896-2,2S4.895,40,6,40h24.999c7.168,0,13-5.829,13-12.997C43.998,19.833,38.166,14,30.998,14z"/>
</svg>
