<?xml version="1.0" encoding="utf-8"?>
<!-- Generator: Adobe Illustrator 16.0.0, SVG Export Plug-In . SVG Version: 6.00 Build 0)  -->
<svg xmlns="http://www.w3.org/2000/svg" xmlns:xlink="http://www.w3.org/1999/xlink" version="1.1" id="Layer_1" x="0px" y="0px" width="48px" height="48px" viewBox="0 0 48 48" enable-background="new 0 0 48 48" xml:space="preserve">
<path d="M39.98,22.33C39.62,15.76,34.01,14,31,14h-6v-2.18c1.17-0.4,2-1.51,2-2.82c0-1.66-1.34-3-3-3s-3,1.34-3,3  c0,1.31,0.83,2.42,2,2.82V14h-6c-3.01,0-8.63,1.76-8.98,8.34C5.68,23.15,4,25.38,4,28c0,2.61,1.67,4.84,4,5.65V39c0,1.21,0.8,3,3,3  h26c1.21,0,3-0.8,3-3v-5.34c2.34-0.811,4.03-3.04,4.03-5.66C44.03,25.37,42.33,23.14,39.98,22.33z M8,31.46C6.8,30.77,6,29.48,6,28  s0.8-2.77,2-3.46V31.46z M17,23c2.21,0,4,1.79,4,4s-1.79,4-4,4s-4-1.79-4-4S14.79,23,17,23z M33,36H15c-0.55,0-1-0.45-1-1  s0.45-1,1-1h18c0.55,0,1,0.45,1,1S33.55,36,33,36z M31,31c-2.21,0-4-1.79-4-4s1.79-4,4-4s4,1.79,4,4S33.21,31,31,31z M40,31.48  v-6.96c1.21,0.69,2.03,1.99,2.03,3.48S41.21,30.79,40,31.48z"/>
</svg>
