<?xml version="1.0" encoding="utf-8"?>
<!-- Generator: Adobe Illustrator 16.0.0, SVG Export Plug-In . SVG Version: 6.00 Build 0)  -->
<svg xmlns="http://www.w3.org/2000/svg" xmlns:xlink="http://www.w3.org/1999/xlink" version="1.1" id="Layer_1" x="0px" y="0px" width="48px" height="48px" viewBox="0 0 48 48" enable-background="new 0 0 48 48" xml:space="preserve">
<path d="M28.998,41.002H21v-1c0-7.17-5.831-13.003-12.999-13.003h-1v-8h1c11.578,0,20.997,9.422,20.997,21.003V41.002z   M22.967,39.002h4.004c-0.504-9.685-8.29-17.472-17.97-17.977v4.007C16.477,25.526,22.473,31.524,22.967,39.002z M40.998,41.002h-8  v-1c0-13.787-11.213-25.003-24.997-25.003h-1v-8h1c18.195,0,32.997,14.805,32.997,33.003V41.002z M34.979,39.002h4.003  C38.463,22.701,25.3,9.535,9.001,9.015v4.002C23.095,13.533,34.465,24.905,34.979,39.002z M12.004,40.997c-2.757,0-5-2.243-5-5  s2.243-5,5-5s5,2.243,5,5S14.761,40.997,12.004,40.997z M12.004,32.997c-1.654,0-3,1.346-3,3s1.346,3,3,3s3-1.346,3-3  S13.658,32.997,12.004,32.997z"/>
</svg>
