<?xml version="1.0" encoding="utf-8"?>
<!-- Generator: Adobe Illustrator 16.0.0, SVG Export Plug-In . SVG Version: 6.00 Build 0)  -->
<svg xmlns="http://www.w3.org/2000/svg" xmlns:xlink="http://www.w3.org/1999/xlink" version="1.1" id="Layer_1" x="0px" y="0px" width="48px" height="48px" viewBox="0 0 48 48" enable-background="new 0 0 48 48" xml:space="preserve">
<path d="M41,40v1h-8v-1c0-13.79-11.22-25-25-25H7V7h1C26.2,7,41,21.8,41,40z M8,19H7v8h1c7.17,0,13,5.83,13,13v1h8v-1  C29,28.42,19.58,19,8,19z M12,31c-2.75,0-5,2.24-5,5c0,2.75,2.25,5,5,5c2.76,0,5-2.25,5-5C17,33.24,14.76,31,12,31z"/>
</svg>
