<?xml version="1.0" encoding="utf-8"?>
<!-- Generator: Adobe Illustrator 16.0.0, SVG Export Plug-In . SVG Version: 6.00 Build 0)  -->
<svg xmlns="http://www.w3.org/2000/svg" xmlns:xlink="http://www.w3.org/1999/xlink" version="1.1" id="Layer_1" x="0px" y="0px" width="48px" height="48px" viewBox="0 0 48 48" enable-background="new 0 0 48 48" xml:space="preserve">
<path d="M43.96,34.73c0.12,0.439-0.06,0.899-0.45,1.13l-10,6C33.36,41.95,33.18,42,33,42c-0.17,0-0.34-0.04-0.49-0.13  C32.19,41.69,32,41.36,32,41v-5H16v5c0,0.36-0.19,0.69-0.51,0.87c-0.31,0.18-0.7,0.17-1-0.01l-10-6c-0.39-0.23-0.57-0.69-0.45-1.13  C4.16,34.3,4.55,34,5,34h38C43.45,34,43.84,34.3,43.96,34.73z M5,16h38c0.45,0,0.84-0.3,0.96-0.73c0.12-0.44-0.06-0.9-0.45-1.13  l-10-6c-0.3-0.18-0.689-0.19-1-0.01C32.19,8.31,32,8.64,32,9v5H16V9c0-0.36-0.19-0.69-0.51-0.87c-0.31-0.18-0.7-0.17-1,0.01l-10,6  c-0.39,0.23-0.57,0.69-0.45,1.13C4.16,15.7,4.55,16,5,16z M9.001,30c-1.403,0-1.865-1.368-2.015-2.184  c-0.101-0.543-0.623-0.908-1.165-0.802c-0.543,0.1-0.902,0.621-0.802,1.165C5.46,30.571,6.949,32,9.001,32  C11.244,32,13,30.242,13,27.998c0-2.119-1.969-3.104-3.552-3.896c-1.521-0.761-2.445-1.283-2.445-2.105c0-1.346,0.654-2,1.999-2  c1.402,0,1.865,1.367,2.015,2.182c0.1,0.543,0.623,0.898,1.165,0.802c0.543-0.101,0.902-0.622,0.802-1.165  c-0.442-2.391-1.931-3.818-3.982-3.818c-2.466,0-3.999,1.533-3.999,4c0,2.118,1.969,3.103,3.55,3.894  C10.076,26.652,11,27.175,11,27.998C11,28.969,10.3,30,9.001,30z M23.998,32.002c0.553,0,1.001-0.447,1.001-1l-0.001-12.003  c0-0.44-0.288-0.829-0.71-0.957c-0.423-0.128-0.877,0.035-1.122,0.402L20,23.19l-3.166-4.747c-0.245-0.367-0.701-0.528-1.122-0.402  c-0.422,0.128-0.71,0.517-0.71,0.957v12.003c0,0.553,0.447,1,1,1c0.552,0,0.998-0.447,0.998-1V22.3l2.168,3.248  c0.186,0.278,0.497,0.445,0.832,0.445c0.334,0,0.646-0.167,0.832-0.445L23,22.3v8.702C23,31.555,23.446,32.002,23.998,32.002z   M38.5,18c2.485,0,4.5,2.019,4.5,4.5c0,2.482-2.015,4.5-4.5,4.5H37v4c0,0.553-0.447,1.003-1,1.003s-1-0.447-1-1V19  c0-0.552,0.447-1,1-1H38.5z M38.5,20H37v5.001h1.5c1.382,0,2.5-1.122,2.5-2.501C41,21.122,39.882,20,38.5,20z M30,32  c0.553,0,1-0.447,1-1V20h2c0.553,0,1-0.448,1-1s-0.447-1-1-1h-5.996c-0.553,0-1,0.448-1,1s0.447,1,1,1H29v11  C29,31.553,29.447,32,30,32z"/>
</svg>
