<?xml version="1.0" encoding="utf-8"?>
<!-- Generator: Adobe Illustrator 16.0.0, SVG Export Plug-In . SVG Version: 6.00 Build 0)  -->
<svg xmlns="http://www.w3.org/2000/svg" xmlns:xlink="http://www.w3.org/1999/xlink" version="1.1" id="Layer_1" x="0px" y="0px" width="48px" height="48px" viewBox="0 0 48 48" enable-background="new 0 0 48 48" xml:space="preserve">
<path d="M22,24H8V9c0-1.73,1.04-5,5-5h22c1.73,0,5,1.04,5,5v15H25c-0.56,0-1-0.45-1-1s0.44-1,1-1h13v-2H25c-0.56,0-1-0.45-1-1  s0.44-1,1-1h13v-4H23c-0.81,0-0.99,0.55-1,1.01V24z M13.005,36.006c0-2.118-1.97-3.103-3.553-3.895  c-1.523-0.761-2.447-1.283-2.447-2.105c0-1.346,0.654-2,2-2c1.404,0,1.866,1.367,2.017,2.182c0.1,0.542,0.617,0.906,1.165,0.802  c0.543-0.101,0.902-0.622,0.802-1.165c-0.442-2.391-1.931-3.818-3.983-3.818c-2.467,0-4,1.532-4,4c0,2.118,1.97,3.103,3.553,3.895  c1.523,0.761,2.447,1.283,2.447,2.105c0,0.97-0.701,2-2,2c-1.404,0-1.866-1.367-2.017-2.182c-0.1-0.543-0.622-0.907-1.165-0.802  c-0.543,0.101-0.902,0.622-0.802,1.165c0.441,2.391,1.931,3.818,3.983,3.818C11.248,40.006,13.005,38.249,13.005,36.006z M24,40.001  c0.552,0,1-0.447,1-1v-12c0-0.44-0.289-0.829-0.71-0.957c-0.422-0.129-0.877,0.035-1.122,0.402l-3.167,4.747l-3.166-4.747  c-0.245-0.367-0.702-0.531-1.122-0.402c-0.421,0.128-0.71,0.517-0.71,0.957v12c0,0.553,0.448,1,1,1S17,39.553,17,39v-8.697  l2.169,3.247c0.186,0.278,0.498,0.445,0.832,0.445s0.646-0.167,0.832-0.445L23,30.302L23,39C23,39.553,23.447,40.001,24,40.001z   M42.998,30.5c0,2.481-2.018,4.5-4.498,4.5H37v4c0,0.553-0.447,1-1,1s-1-0.447-1-1V27c0-0.553,0.447-1,1-1h2.5  C40.98,26,42.998,28.019,42.998,30.5z M40.998,30.5c0-1.379-1.121-2.5-2.498-2.5H37v5h1.5C39.877,33,40.998,31.879,40.998,30.5z   M30.002,40C30.555,40,31,39.553,31,39V28h2c0.553,0,1-0.447,1-1s-0.447-1-1-1h-5.996c-0.553,0-1,0.447-1,1s0.447,1,1,1h1.998v11  C29.002,39.553,29.449,40,30.002,40z M10,44h28c0,0,2,0,2-2H8C8,42,8,44,10,44z"/>
</svg>
