<?xml version="1.0" encoding="utf-8"?>
<!-- Generator: Adobe Illustrator 16.0.0, SVG Export Plug-In . SVG Version: 6.00 Build 0)  -->
<svg xmlns="http://www.w3.org/2000/svg" xmlns:xlink="http://www.w3.org/1999/xlink" version="1.1" id="Layer_1" x="0px" y="0px" width="48px" height="48px" viewBox="0 0 48 48" enable-background="new 0 0 48 48" xml:space="preserve">
<path d="M41.3,7.65c-0.02-0.52-0.43-0.93-0.95-0.95L25.75,6c-0.3-0.01-0.56,0.09-0.76,0.29L6.91,24.38c-1.54,1.53-0.84,3.351,0,4.19  l12.52,12.52c0.09,0.09,0.94,0.91,2.15,0.91c0.52,0,1.29-0.16,2.04-0.91c0,0,16.7-16.69,18.09-18.08c0.2-0.2,0.3-0.48,0.29-0.76  L41.3,7.65z M22.21,39.67c-0.55,0.55-1.05,0.3-1.37,0l-6.26-6.25l-6.25-6.26c-0.21-0.21-0.62-0.75,0-1.37l13.2-13.2l13.88,13.88  C30.04,31.85,22.21,39.67,22.21,39.67z M34,17c-1.66,0-3-1.34-3-3s1.34-3,3-3s3,1.34,3,3S35.66,17,34,17z"/>
</svg>
