<?xml version="1.0" encoding="utf-8"?>
<!-- Generator: Adobe Illustrator 16.0.0, SVG Export Plug-In . SVG Version: 6.00 Build 0)  -->
<svg xmlns="http://www.w3.org/2000/svg" xmlns:xlink="http://www.w3.org/1999/xlink" version="1.1" id="Layer_1" x="0px" y="0px" width="48px" height="48px" viewBox="0 0 48 48" enable-background="new 0 0 48 48" xml:space="preserve">
<path d="M39.5,14.47l-15-8.66c-0.13-0.08-0.28-0.12-0.43-0.13h-0.01c-0.01,0-0.01,0-0.01,0s0,0-0.01,0h-0.01c0,0,0,0-0.01,0  c-0.01,0-0.01,0-0.01,0h-0.03c0,0,0,0-0.01,0c-0.01,0-0.01,0-0.01,0s0,0-0.01,0h-0.01c-0.15,0.01-0.3,0.05-0.43,0.13l-15,8.66  C8.19,14.65,8,14.98,8,15.34V32.69c0,0.579,0.49,0.84,0.5,0.84l15,8.66c0.15,0.09,0.33,0.13,0.5,0.13s0.35-0.04,0.5-0.13l15-8.66  c0.01,0,0.5-0.29,0.5-0.87s0-17.32,0-17.32C40,14.98,39.81,14.65,39.5,14.47z M37,15.34l-2.45,1.42l-5.46-5.99L37,15.34z   M18.92,10.77l-5.47,5.99L11,15.34L18.92,10.77z M10,17.07l2.45,1.42L10,26.21V17.07z M23,39.59l-7.92-4.57L23,36.75V39.59z   M25,39.59v-2.84l7.92-1.73L25,39.59z M24.04,34.93l-13.76-3.01l4.25-13.37L24,8.16l9.49,10.4l4.22,13.36L24.04,34.93z M38,26.21  l-2.45-7.72L38,17.07V26.21z M33.86,23.49C33.73,23.26,30.49,18,24,18s-9.72,5.26-9.86,5.49c-0.19,0.31-0.19,0.71,0,1.03  C14.28,24.74,17.51,30,24,30s9.73-5.26,9.86-5.48C34.05,24.2,34.05,23.8,33.86,23.49z M24,28c-4.3,0-6.88-2.81-7.79-4  c0.39-0.51,1.1-1.32,2.11-2.08C19.12,24.29,21.36,26,24,26c2.64,0,4.88-1.71,5.68-4.08c1.011,0.76,1.721,1.57,2.11,2.08  C30.88,25.18,28.27,28,24,28z"/>
</svg>
