<?xml version="1.0" encoding="utf-8"?>
<!-- Generator: Adobe Illustrator 16.0.0, SVG Export Plug-In . SVG Version: 6.00 Build 0)  -->
<svg xmlns="http://www.w3.org/2000/svg" xmlns:xlink="http://www.w3.org/1999/xlink" version="1.1" id="Capa_1" x="0px" y="0px" width="48px" height="48px" viewBox="0 0 48 48" enable-background="new 0 0 48 48" xml:space="preserve">
<path d="M43.74,39.02l-18-32C25.391,6.39,24.721,6,24,6c-0.72,0-1.39,0.39-1.74,1.02l-18,32c-0.35,0.621-0.34,1.371,0.01,1.99  C4.63,41.62,5.29,42,6,42h36c0.71,0,1.37-0.38,1.73-0.99C44.08,40.391,44.09,39.641,43.74,39.02z M24,38c-1.1,0-2-0.9-2-2s0.9-2,2-2  c1.1,0,2,0.9,2,2S25.1,38,24,38z M26,30c0,0.55-0.221,1.05-0.59,1.41C25.05,31.78,24.55,32,24,32c-1.1,0-2-0.9-2-2V20  c0-0.55,0.22-1.05,0.59-1.41C22.95,18.22,23.45,18,24,18c1.1,0,2,0.9,2,2V30z"/>
</svg>
