<?xml version="1.0" encoding="utf-8"?>
<!-- Generator: Adobe Illustrator 16.0.0, SVG Export Plug-In . SVG Version: 6.00 Build 0)  -->
<svg xmlns="http://www.w3.org/2000/svg" xmlns:xlink="http://www.w3.org/1999/xlink" version="1.1" id="Layer_1" x="0px" y="0px" width="48px" height="48px" viewBox="0 0 48 48" enable-background="new 0 0 48 48" xml:space="preserve">
<path d="M41,10H7c-1.65,0-3,1.35-3,3v22c0,1.65,1.35,3,3,3h34c1.65,0,3-1.35,3-3V13C44,11.35,42.65,10,41,10z M42,34.43l-6.14-5.3  l-1.431,1.41L40.76,36H7.24l6.33-5.46l-1.41-1.42L6,34.43V13.57l6.15,5.31l1.42-1.42L7.24,12h33.52l-6.33,5.46l1.42,1.42L42,13.57  V34.43z M24,14c-5.51,0-10,4.49-10,10s4.49,10,10,10s10-4.49,10-10S29.51,14,24,14z M31.5,21.243  c-1.052-0.453-2.357-0.774-3.763-0.978c-0.204-1.406-0.526-2.712-0.979-3.765C28.951,17.31,30.69,19.049,31.5,21.243z M24,32  c-0.364,0-1.214-1.387-1.68-4.059c0.56,0.034,1.121,0.058,1.68,0.058s1.12-0.023,1.68-0.058C25.214,30.613,24.364,32,24,32z   M24,25.999c-0.687,0-1.328-0.026-1.928-0.072C22.026,25.327,22,24.686,22,24c0-0.687,0.026-1.328,0.072-1.928  C22.672,22.027,23.313,22,24,22s1.328,0.026,1.928,0.072C25.974,22.673,26,23.313,26,24c0,0.686-0.026,1.327-0.071,1.927  C25.328,25.973,24.687,25.999,24,25.999z M16,24L16,24c0-0.364,1.387-1.213,4.057-1.679C20.023,22.88,20,23.441,20,24  c0,0.558,0.023,1.119,0.057,1.679C17.387,25.213,16,24.363,16,24z M24,16c0.364,0,1.214,1.387,1.68,4.058  C25.12,20.023,24.559,20,24,20s-1.12,0.023-1.68,0.057C22.786,17.387,23.636,16,24,16z M27.943,22.321  C30.613,22.786,32,23.636,32,24l0,0c0,0.364-1.387,1.213-4.057,1.679C27.977,25.119,28,24.558,28,24S27.977,22.88,27.943,22.321z   M21.252,16.497c-0.456,1.054-0.787,2.352-0.991,3.764c-1.413,0.204-2.71,0.538-3.765,0.994  C17.305,19.052,19.051,17.306,21.252,16.497z M16.497,26.749c1.054,0.455,2.354,0.785,3.764,0.989  c0.204,1.412,0.536,2.711,0.992,3.766C19.052,30.695,17.306,28.95,16.497,26.749z M26.762,31.498  c0.451-1.05,0.771-2.354,0.974-3.759c1.414-0.203,2.714-0.537,3.769-0.993C30.697,28.943,28.957,30.688,26.762,31.498z"/>
</svg>
