<?xml version="1.0" encoding="utf-8"?>
<!-- Generator: Adobe Illustrator 16.0.0, SVG Export Plug-In . SVG Version: 6.00 Build 0)  -->
<svg xmlns="http://www.w3.org/2000/svg" xmlns:xlink="http://www.w3.org/1999/xlink" version="1.1" id="Layer_1" x="0px" y="0px" width="48px" height="48px" viewBox="0 0 48 48" enable-background="new 0 0 48 48" xml:space="preserve">
<path d="M36,14h4v28c0,2.206-1.794,4-4,4H12c-2.205,0-4-1.794-4-4V14h4v28h24.003L36,14z M40,10v2h-4H12H8v-2c0-2.205,1.795-4,4-4  h7.445l0.641-2.824C20.467,1.363,22.077,0,24,0s3.533,1.364,3.915,3.176L28.555,6H36C38.206,6,40,7.795,40,10z M25.5,4  c0-0.828-0.672-1.5-1.5-1.5S22.5,3.172,22.5,4s0.672,1.5,1.5,1.5S25.5,4.828,25.5,4z M23.415,33.414L33.416,23.41  c0.781-0.781,0.781-2.047,0-2.829c-0.781-0.78-2.047-0.781-2.828,0L22,29.172l-3.587-3.587c-0.78-0.781-2.048-0.781-2.828,0  c-0.781,0.781-0.781,2.047,0,2.828l5.001,5.001C20.961,33.789,21.47,34,22,34C22.531,34,23.04,33.789,23.415,33.414z"/>
</svg>
