<?xml version="1.0" encoding="utf-8"?>
<!-- Generator: Adobe Illustrator 16.0.0, SVG Export Plug-In . SVG Version: 6.00 Build 0)  -->
<svg xmlns="http://www.w3.org/2000/svg" xmlns:xlink="http://www.w3.org/1999/xlink" version="1.1" id="Layer_1" x="0px" y="0px" width="48px" height="48px" viewBox="0 0 48 48" enable-background="new 0 0 48 48" xml:space="preserve">
<path d="M36,14h4v28c0,2.206-1.794,4-4,4H12c-2.205,0-4-1.794-4-4V14h4v28h24.003L36,14z M40,10v2h-4H12H8v-2c0-2.205,1.795-4,4-4  h7.445l0.641-2.824C20.467,1.363,22.077,0,24,0s3.533,1.364,3.915,3.176L28.555,6H36C38.206,6,40,7.795,40,10z M25.5,4  c0-0.828-0.672-1.5-1.5-1.5S22.5,3.172,22.5,4s0.672,1.5,1.5,1.5S25.5,4.828,25.5,4z M24,18c-5.52,0-10,4.48-10,10  c0,5.52,4.48,10,10,10c5.52,0,10-4.48,10-10C34,22.48,29.52,18,24,18z M29.75,24.66l-7,8c-0.18,0.21-0.44,0.33-0.72,0.34H22  c-0.27,0-0.52-0.11-0.71-0.29l-3-3c-0.39-0.39-0.39-1.03,0-1.42s1.03-0.39,1.42,0l2.24,2.25l6.3-7.2c0.36-0.41,0.99-0.46,1.41-0.09  C30.07,23.61,30.12,24.24,29.75,24.66z"/>
</svg>
