<?xml version="1.0" encoding="utf-8"?>
<!-- Generator: Adobe Illustrator 16.0.0, SVG Export Plug-In . SVG Version: 6.00 Build 0)  -->
<svg xmlns="http://www.w3.org/2000/svg" xmlns:xlink="http://www.w3.org/1999/xlink" version="1.1" id="Layer_1" x="0px" y="0px" width="48px" height="48px" viewBox="0 0 48 48" enable-background="new 0 0 48 48" xml:space="preserve">
<path d="M10.008,32.996c0,1.656,1.343,3,3,3H33c1.656,0,3-1.344,3-3V19c0-1.657-1.344-3-3-3h-8.899  c-1.641,0-2.873-0.603-3.875-1.897C19.084,12.629,17.88,12,16.202,12h-3.194c-1.657,0-3,1.343-3,3v11H5c-0.552,0-1,0.447-1,1  s0.448,1,1,1h5.008V32.996z M12,22c0-1.104,0.903-2.001,2.008-2.001H32c1.104,0,2,0.896,2,2.001v10.996C34,33.549,33.552,34,33,34  H13.001C12.449,34,12,33.553,12,33v-5h10.583l-2.292,2.293c-0.391,0.391-0.391,1.023,0,1.414C20.486,31.902,20.742,32,20.998,32  s0.512-0.098,0.707-0.293l3.999-4c0.39-0.391,0.39-1.023,0-1.414l-3.999-4c-0.391-0.391-1.023-0.391-1.414,0  c-0.391,0.39-0.391,1.023,0,1.414L22.583,26H12V22z M39,12h-3.667L27.6,6.2C27.427,6.07,27.217,6,27,6H7C6.448,6,6,6.448,6,7v2  c0,0.552,0.448,1,1,1s1-0.448,1-1V8h18.667l7.733,5.8c0.173,0.13,0.383,0.2,0.6,0.2h4c0.807,0,0.988,0.55,1,1l-0.002,22.001  c0,0.003-0.014,0.29-0.145,0.554C39.744,37.773,39.557,38,39,38h-4c-0.154,0-0.309,0.036-0.447,0.105L26.764,42H8v-1  c0-0.553-0.448-1-1-1s-1,0.447-1,1v2c0,0.553,0.448,1,1,1h20c0.154,0,0.309-0.036,0.447-0.105L35.236,40H39  c1.205,0,2.145-0.552,2.645-1.555c0.338-0.676,0.354-1.323,0.354-1.445L42,15C42,13.794,41.201,12,39,12z"/>
</svg>
