<?xml version="1.0" encoding="utf-8"?>
<!-- Generator: Adobe Illustrator 16.0.0, SVG Export Plug-In . SVG Version: 6.00 Build 0)  -->
<svg xmlns="http://www.w3.org/2000/svg" xmlns:xlink="http://www.w3.org/1999/xlink" version="1.1" id="Layer_1" x="0px" y="0px" width="48px" height="48px" viewBox="0 0 48 48" enable-background="new 0 0 48 48" xml:space="preserve">
<path d="M42,17l-0.002,18c0,0.122-0.017,0.77-0.354,1.446C41.144,37.448,40.205,38,39,38h-3.764l-7.789,3.895  C27.309,41.964,27.155,42,27,42H7c-0.552,0-1-0.447-1-1v-2c0-0.553,0.448-1,1-1s1,0.447,1,1v1h18.764l7.789-3.895  C34.691,36.036,34.845,36,35,36h4c1,0,1-0.997,1-1V17c0-1-1-1-1-1h-4c-0.217,0-0.427-0.07-0.6-0.2L26.667,10H8v1  c0,0.552-0.448,1-1,1s-1-0.448-1-1V9c0-0.552,0.448-1,1-1h20c0.217,0,0.427,0.07,0.6,0.2l7.733,5.8H39C41.201,14,42,15.794,42,17z   M33.998,21v10c0,1.65-1.34,3-3,3H13.01c-1.66,0-3-1.35-3-3L10,17c0-1.66,1.34-3,3-3h3.2c1.68,0,2.88,0.63,4.03,2.1  c1,1.3,2.13,1.9,3.77,1.9h6.998C32.658,18,33.998,19.34,33.998,21z M32,24c0-1.1-0.902-2-2.002-2H14.01C12.9,22,12,22.9,12,24v7  c0,0.55,0.45,1,1,1h17.998C31.548,32,32,31.55,32,31V24z"/>
</svg>
