<?xml version="1.0" encoding="utf-8"?>
<!-- Generator: Adobe Illustrator 16.0.0, SVG Export Plug-In . SVG Version: 6.00 Build 0)  -->
<svg xmlns="http://www.w3.org/2000/svg" xmlns:xlink="http://www.w3.org/1999/xlink" version="1.1" id="2573246439_Capa_1_grid" x="0px" y="0px" width="32px" height="32px" viewBox="0 0 32 32" enable-background="new 0 0 32 32" xml:space="preserve">
<g>
	<g>
		<path d="M28,2V0H9C5.04,0,4,3.27,4,5v22c0,1.73,1.04,5,5,5h19V8h-2V2H28z M6,5c0.01-0.52,0.19-3,3-3h15v6H9    C6.18,8,6.01,5.5,6,5.01V5z M26,30H9c-2.82,0-2.99-2.5-3-3V9.12C6.73,9.65,7.71,10,9,10h17V30z"/>
	</g>
</g>
<g>
	<path d="M16,12c-6.33,0-8,5.23-8,8s1.67,8,8,8h4v-2h-4c-5.79,0-6-5.39-6-6s0.21-6,6-6c6,0,6,2.94,6,6.99   C21.99,21.45,21.81,22,21,22s-0.99-0.55-1-1v-5h-2v0.54C17.41,16.2,16.73,16,16,16c-2.21,0-4,1.79-4,4s1.79,4,4,4   c1.03,0,1.98-0.4,2.69-1.04C19.16,23.56,19.91,24,21,24c2.2,0,3-1.79,3-3C24,16.99,24,12,16,12z M16,22c-1.1,0-2-0.9-2-2s0.9-2,2-2   c1.1,0,2,0.9,2,2S17.1,22,16,22z"/>
</g>
</svg>
