<?xml version="1.0" encoding="utf-8"?>
<!-- Generator: Adobe Illustrator 16.0.0, SVG Export Plug-In . SVG Version: 6.00 Build 0)  -->
<svg xmlns="http://www.w3.org/2000/svg" xmlns:xlink="http://www.w3.org/1999/xlink" version="1.1" id="2573246443_Capa_1_grid" x="0px" y="0px" width="32px" height="32px" viewBox="0 0 32 32" enable-background="new 0 0 32 32" xml:space="preserve">
<g>
	<path d="M28.87,2.63c-0.7-0.71-1.41,0-1.41,0l-2.12,2.12l-0.71-0.71c-0.39-0.39-1.02-0.39-1.41,0c-0.39,0.39-0.39,1.02,0,1.41   l0.71,0.71L22.45,7.64c-1.03-0.78-3.03-1.97-5.59-1.97c-2.5,0-4.88,1.12-7.08,3.32C6.8,11.98-2.49,22.18,3.42,28.08   c1.25,1.25,2.82,1.89,4.68,1.89c5.56,0,11.93-5.77,14.41-8.25c5.57-5.57,2.75-10.76,1.351-12.67l1.479-1.48l0.71,0.71   c0.19,0.2,0.45,0.3,0.7,0.3c0.26,0,0.51-0.1,0.71-0.3c0.39-0.39,0.39-1.02,0-1.41l-0.71-0.71l2.12-2.12   C28.87,4.04,29.58,3.33,28.87,2.63z M22.39,18.77l-2-2c-0.39-0.39-1.02-0.39-1.42,0c-0.39,0.39-0.39,1.02,0,1.41l2.13,2.12   c-1.52,1.521-3.06,2.851-4.54,3.96l-1.83-1.84c-0.39-0.39-1.02-0.39-1.41,0c-0.39,0.39-0.39,1.03,0,1.42l1.57,1.58   c-2.55,1.64-4.91,2.55-6.79,2.55c-1.32,0-2.39-0.43-3.27-1.3c-2.33-2.34-1.21-6.2,1.27-10.05l1.56,1.56   c0.2,0.2,0.45,0.29,0.71,0.29c0.25,0,0.51-0.09,0.71-0.29c0.39-0.39,0.39-1.02,0-1.41l-1.83-1.82c1.18-1.6,2.55-3.15,3.95-4.55   l2.12,2.12c0.19,0.2,0.45,0.3,0.7,0.3c0.26,0,0.52-0.1,0.71-0.3c0.39-0.39,0.39-1.02,0-1.41L12.72,9.1   c1.35-0.95,2.73-1.43,4.14-1.43c1.81,0,3.3,0.8,4.16,1.4L7.66,22.42c0,0-0.71,0.71,0,1.42s1.42,0,1.42,0l13.35-13.36   C23.43,11.9,24.98,15.08,22.39,18.77z"/>
</g>
</svg>
