<?xml version="1.0" encoding="utf-8"?>
<!-- Generator: Adobe Illustrator 16.0.0, SVG Export Plug-In . SVG Version: 6.00 Build 0)  -->
<svg xmlns="http://www.w3.org/2000/svg" xmlns:xlink="http://www.w3.org/1999/xlink" version="1.1" id="2573246444_Capa_1_grid" x="0px" y="0px" width="32px" height="32px" viewBox="0 0 32 32" enable-background="new 0 0 32 32" xml:space="preserve">
<g>
	<path d="M28.07,30L16.94,0h-1.88L3.93,30H2v2h6v-2H6.07l3.79-10h12.28l3.79,10H24v2h6v-2H28.07z M10.62,18L16,3.82L21.38,18H10.62z   "/>
</g>
<path d="M0,16c0,3.7,1.25,7.1,3.35,9.81l0.85-2.29C2.81,21.35,2,18.77,2,16C2,9.68,6.21,4.33,11.97,2.59l0.84-2.28  C5.5,1.79,0,8.25,0,16z M19.19,0.31l0.84,2.28C25.79,4.33,30,9.68,30,16c0,2.77-0.81,5.35-2.2,7.52l0.851,2.29  C30.75,23.1,32,19.7,32,16C32,8.25,26.5,1.79,19.19,0.31z M10,28.65v2.18c1.85,0.76,3.88,1.17,6,1.17s4.15-0.41,6-1.17v-2.18  C20.18,29.52,18.14,30,16,30C13.86,30,11.82,29.52,10,28.65z"/>
</svg>
