<?xml version="1.0" encoding="utf-8"?>
<!-- Generator: Adobe Illustrator 16.0.0, SVG Export Plug-In . SVG Version: 6.00 Build 0)  -->
<svg xmlns="http://www.w3.org/2000/svg" xmlns:xlink="http://www.w3.org/1999/xlink" version="1.1" id="2573246445_Capa_1_grid" x="0px" y="0px" width="32px" height="32px" viewBox="0 0 32 32" enable-background="new 0 0 32 32" xml:space="preserve">
<g>
	<path d="M10,13c0,0.81,0.55,0.99,1.01,1c1.2,0,2.99,0.8,2.99,3s-1.79,3-3,3H8v-2h3c0.45-0.01,1-0.19,1-1c0-0.81-0.55-0.99-1.01-1   C9.79,16,8,15.2,8,13s1.79-3,3-3h3v2h-3C10.55,12.01,10,12.19,10,13z"/>
</g>
<g>
	<path d="M20,14v-1c-0.01-0.45-0.19-1-1-1s-0.99,0.55-1,1.01V17c0.01,0.45,0.19,1,1,1s0.99-0.55,1-1.01V16h2v1c0,1.21-0.8,3-3,3   s-3-1.79-3-3v-4c0-1.21,0.8-3,3-3s3,1.79,3,3v1H20z"/>
</g>
<g>
	<rect x="24" y="10" width="2" height="10"/>
</g>
<g>
	<rect x="28" y="10" width="2" height="10"/>
</g>
<g>
	<path d="M0,10v10h2v-4h2v4h2V10H0z M4,14H2v-2h2V14z"/>
</g>
<g>
	<path d="M0,22v6.08h30V22H0z M28,26.08H2V24h26V26.08z"/>
</g>
<g>
	<rect y="6" width="30" height="2"/>
</g>
</svg>
