<?xml version="1.0" encoding="utf-8"?>
<!-- Generator: Adobe Illustrator 16.0.0, SVG Export Plug-In . SVG Version: 6.00 Build 0)  -->
<svg xmlns="http://www.w3.org/2000/svg" xmlns:xlink="http://www.w3.org/1999/xlink" version="1.1" id="2573246446_Capa_1_grid" x="0px" y="0px" width="32px" height="32px" viewBox="0 0 32 32" enable-background="new 0 0 32 32" xml:space="preserve">
<g>
	<path d="M6.67,8H0v14h6.67L16,29V1L6.67,8z M2,10h4v10H2V10z M14,25l-6-4.5v-11L14,5V25z"/>
</g>
<g>
	<rect x="22" y="10" width="2" height="6"/>
</g>
<g>
	<rect x="22" y="18" width="2" height="2"/>
</g>
<g>
	<path d="M32,15c0,8.9-6.93,9-7,9h-7v-2h7c0.51-0.01,5-0.26,5-7c0-6.92-4.8-7-5-7h-7V6h7C25.07,6,32,6.1,32,15z"/>
</g>
</svg>
