<?xml version="1.0" encoding="utf-8"?>
<!-- Generator: Adobe Illustrator 16.0.0, SVG Export Plug-In . SVG Version: 6.00 Build 0)  -->
<svg xmlns="http://www.w3.org/2000/svg" xmlns:xlink="http://www.w3.org/1999/xlink" version="1.1" id="2573246447_Capa_1_grid" x="0px" y="0px" width="32px" height="32px" viewBox="0 0 32 32" enable-background="new 0 0 32 32" xml:space="preserve">
<g>
	<path d="M30,14c0-7.73-6.27-14-14-14C8.27,0,2,6.27,2,14H1.98v2c0,4.42,3.13,8,7,8c1.77,0,3.39-0.76,4.63-2H17c6.92,0,7-4.95,7-5   c0-0.55-0.44-0.99-0.99-0.99H23c-0.54,0-0.99,0.43-1,0.98C21.99,17.3,21.78,20,17,20h-1.96c0.6-1.18,0.94-2.54,0.94-4   c0-4.42-3.14-8-7-8C7.43,8,6.02,8.57,4.86,9.53C6.64,5.12,10.96,2,16,2c6.62,0,12,5.38,12,12c0,6.47-5.14,11.76-11.55,11.99   C15.03,24.04,13.1,24,12.98,24c-0.27,0-0.52,0.11-0.71,0.29l-3.29,3.3l-3.29-3.3C5.5,24.11,5.24,24,4.98,24c-0.2,0-5,0.09-5,8h2   c0-4.66,1.86-5.7,2.65-5.93l3.64,3.64c0.39,0.39,1.03,0.39,1.42,0l3.64-3.64C14.13,26.3,15.99,27.35,16,32h2   c0-1.69-0.23-3.02-0.57-4.07C24.49,27.21,30,21.25,30,14z M9,10c2.83,0,5,2.62,5,6s-2.17,6-5,6s-5-2.62-5-6S6.17,10,9,10z"/>
</g>
<g>
	<path d="M22,9v4c0,0.55-0.45,1-1,1s-1-0.45-1-1V9c0-0.55,0.45-1,1-1S22,8.45,22,9z"/>
</g>
</svg>
