<?xml version="1.0" encoding="utf-8"?>
<!-- Generator: Adobe Illustrator 16.0.0, SVG Export Plug-In . SVG Version: 6.00 Build 0)  -->
<svg xmlns="http://www.w3.org/2000/svg" xmlns:xlink="http://www.w3.org/1999/xlink" version="1.1" id="2573246448_Capa_1_grid" x="0px" y="0px" width="32px" height="32px" viewBox="0 0 32 32" enable-background="new 0 0 32 32" xml:space="preserve">
<g>
	<path d="M0,8v22h28V8H0z M26,28H2v-0.58l5-5.01l4,4l8.09-8.09L26,23.5V28z M26,21l-7.09-5.32L11,23.59l-4-4l-5,4.99V10h24V21z"/>
</g>
<g>
	<polygon points="32,4 32,26 30,26 30,6 4,6 4,4  "/>
</g>
<g>
	<path d="M7,12c-1.65,0-3,1.35-3,3s1.35,3,3,3s3-1.35,3-3S8.65,12,7,12z M7,16c-0.55,0-1-0.45-1-1s0.45-1,1-1s1,0.45,1,1   S7.55,16,7,16z"/>
</g>
</svg>
