<?xml version="1.0" encoding="utf-8"?>
<!-- Generator: Adobe Illustrator 16.0.0, SVG Export Plug-In . SVG Version: 6.00 Build 0)  -->
<svg xmlns="http://www.w3.org/2000/svg" xmlns:xlink="http://www.w3.org/1999/xlink" version="1.1" id="2573246449_Capa_1_grid" x="0px" y="0px" width="32px" height="32px" viewBox="0 0 32 32" enable-background="new 0 0 32 32" xml:space="preserve">
<g>
	<path d="M27,12h-3v-0.78c1.36-2.87,0.74-4.64,0.23-5.46C23.55,4.66,22.34,4,21,4c-1.06,0-1.9,0.41-2.52,0.9   C17.75,3.43,16.14,2,13,2c-2.64,0-4.61,0.8-5.84,2.39C5.22,6.87,5.84,10.38,6,11.11V29c0,1.21,0.8,3,3,3h12c1.21,0,3-0.8,3-3v-1h3   c2.2,0,3-1.79,3-3V15C30,12.8,28.21,12,27,12z M22,29c0,0.8-0.55,0.99-1.01,1H9c-0.81,0-0.99-0.55-1-1V12h14V29z M22.36,10H7.85   C7.72,8.93,7.68,6.97,8.73,5.62C9.57,4.54,11.01,4,13,4c3.83,0,3.99,2.7,4,3c0,0.46,0.32,0.86,0.77,0.97   c0.44,0.11,0.91-0.11,1.12-0.52C18.9,7.44,19.66,6,21,6c0.64,0,1.22,0.3,1.53,0.81C22.98,7.55,22.92,8.67,22.36,10z M28,24.99   C27.99,25.45,27.81,26,27,26h-3V14h2.99c0.46,0.01,1.01,0.19,1.01,1V24.99z"/>
	<rect x="10" y="14" width="2" height="14"/>
	<rect x="14" y="14" width="2" height="14"/>
	<rect x="18" y="14" width="2" height="14"/>
</g>
</svg>
