<?xml version="1.0" encoding="utf-8"?>
<!-- Generator: Adobe Illustrator 16.0.0, SVG Export Plug-In . SVG Version: 6.00 Build 0)  -->
<svg xmlns="http://www.w3.org/2000/svg" xmlns:xlink="http://www.w3.org/1999/xlink" version="1.1" id="2573246450_Capa_1_grid" x="0px" y="0px" width="32px" height="32px" viewBox="0 0 32 32" enable-background="new 0 0 32 32" xml:space="preserve">
<g>
	<path d="M16,0C7.16,0,0,7.16,0,16s7.16,16,16,16s16-7.16,16-16S24.84,0,16,0z M21.35,12.06c-0.17-0.06-4.229-1.55-7,0.37   C12.79,13.51,12,15.38,12,18c0,4.75,3.92,6,6,6h9.48c-0.5,0.72-1.07,1.39-1.69,2H17c-6.89,0-7-7.67-7-8c0-3.07,0.82-5.3,2.45-6.64   c1.51-1.25,3.47-1.5,4.81-1.5c0.91,0,1.53,0.12,1.55,0.12c0.54,0.11,1.061-0.24,1.171-0.78c0.109-0.55-0.24-1.07-0.78-1.18   c-0.19-0.04-4.73-0.91-8.01,1.79C9.07,11.54,8,14.3,8,18c0,3.46,1.88,10,9,10h6.21c-2.11,1.27-4.58,2-7.21,2   c-0.93,0-1.83-0.09-2.71-0.26c-0.01,0-0.01-0.01-0.02-0.01C12.63,29.5,6,26.77,6,17C6,6.16,16.55,6,17,6c0.55,0,1-0.45,1-1   s-0.45-1-1-1C16.87,4,4,4.15,4,17c0,3.74,0.76,6.52,1.8,8.58C3.44,23.07,2,19.7,2,16C2,8.28,8.28,2,16,2c7.72,0,14,6.28,14,14   c0,2.14-0.48,4.18-1.35,6H18c-0.16,0-4-0.05-4-4c0-1.92,0.5-3.24,1.49-3.93c1.899-1.32,5.13-0.14,5.16-0.13   c0.52,0.19,1.09-0.07,1.29-0.59C22.13,12.83,21.87,12.26,21.35,12.06z"/>
</g>
</svg>
