<?xml version="1.0" encoding="utf-8"?>
<!-- Generator: Adobe Illustrator 16.0.0, SVG Export Plug-In . SVG Version: 6.00 Build 0)  -->
<svg xmlns="http://www.w3.org/2000/svg" xmlns:xlink="http://www.w3.org/1999/xlink" version="1.1" id="2573246451_Capa_1_grid" x="0px" y="0px" width="32px" height="32px" viewBox="0 0 32 32" enable-background="new 0 0 32 32" xml:space="preserve">
<g>
	<g>
		<path d="M19.9,4C19.56,2.25,18.28,0,15,0c-3.28,0-4.56,2.25-4.9,4H2v28h26V4H19.9z M8,7.01C8.01,6.55,8.19,6,9,6h3V5.01    C12.01,4.5,12.18,2,15,2c2.82,0,2.99,2.5,3,3v1h3c0.46,0.01,1,0.2,1,1v1H8V7.01z M8,10h14v16H8V10z M26,30H4V6h2v22h18V6h2V30z"/>
	</g>
</g>
<g>
	<g>
		<rect x="14" y="4" width="2" height="2"/>
	</g>
</g>
<g>
	<polygon points="16.42,19 19.71,22.29 18.29,23.71 15,20.42 11.71,23.71 10.29,22.29 13.58,19 10.29,15.71 11.71,14.29 15,17.58    18.29,14.29 19.71,15.71  "/>
</g>
</svg>
