<?xml version="1.0" encoding="utf-8"?>
<!-- Generator: Adobe Illustrator 16.0.0, SVG Export Plug-In . SVG Version: 6.00 Build 0)  -->
<svg xmlns="http://www.w3.org/2000/svg" xmlns:xlink="http://www.w3.org/1999/xlink" version="1.1" id="2573246454_Capa_1_grid" x="0px" y="0px" width="32px" height="32px" viewBox="0 0 32 32" enable-background="new 0 0 32 32" xml:space="preserve">
<g>
	<rect x="16" y="16" width="12" height="2"/>
</g>
<g>
	<rect x="16" y="20" width="12" height="2"/>
</g>
<g>
	<rect x="16" y="24" width="12" height="2"/>
</g>
<g>
	<rect x="12" y="20" width="2" height="2"/>
</g>
<g>
	<rect x="12" y="24" width="2" height="2"/>
</g>
<g>
	<path d="M25,0H10C9.87,0,9.74,0.01,9.63,0.02C9.42,0.01,9.21,0,9,0C4.03,0,0,4.03,0,9c0,4.63,3.5,8.45,8,8.94V30c0,2,2,2,2,2h20   c2,0,2-2,2-2V7L25,0z M2,9c0-3.86,3.14-7,7-7c1.57,0,3.01,0.51,4.18,1.4L3.4,13.18C2.51,12.01,2,10.57,2,9z M9,16   c-1.57,0-3.01-0.51-4.18-1.4l9.78-9.78C15.49,5.99,16,7.43,16,9C16,12.86,12.86,16,9,16z M30,29.96c0,0.01,0,0.021-0.01,0.04H10.04   c-0.01,0-0.02,0-0.04-0.01V17.94c0.69-0.07,1.36-0.23,2-0.46V18h2v-1.52c0.98-0.65,1.83-1.5,2.48-2.48H28v-2H17.48   c0.229-0.64,0.39-1.31,0.46-2H20V8h-2.06c-0.261-2.42-1.49-4.56-3.3-6H22v5c0,1.21,0.8,3,3,3h5V29.96z M30,8h-5   c-0.81,0-0.99-0.55-1-1V2h0.17L30,7.83V8z"/>
</g>
</svg>
