<?xml version="1.0" encoding="utf-8"?>
<!-- Generator: Adobe Illustrator 16.0.0, SVG Export Plug-In . SVG Version: 6.00 Build 0)  -->
<svg xmlns="http://www.w3.org/2000/svg" xmlns:xlink="http://www.w3.org/1999/xlink" version="1.1" id="2573246455_Capa_1_grid" x="0px" y="0px" width="32px" height="32px" viewBox="0 0 32 32" enable-background="new 0 0 32 32" xml:space="preserve">
<g>
	<path d="M24.71,5.29c-1.03-1.03-2.22-1.55-3.52-1.55c-2.141,0-3.79,1.45-3.9,1.55l-11,11C6.11,16.48,6,16.73,6,17v7h7   c0.27,0,0.52-0.11,0.71-0.29l11.04-11.04C25.94,11.32,27.47,8.06,24.71,5.29z M8,22v-4.58l4.58,4.58H8z M14,20.58L9.42,16L16,9.42   L20.58,14L14,20.58z M23.29,11.29L22,12.58L17.42,8l1.25-1.25c0.01-0.01,1.16-1.01,2.521-1.01c0.77,0,1.449,0.32,2.1,0.97   C25.37,8.79,23.47,11.08,23.29,11.29z"/>
</g>
<g>
	<path d="M29,0H3C0.8,0,0,1.79,0,3v22c0,1.21,0.8,3,3,3h3v3c0,0.36,0.19,0.69,0.5,0.87C6.65,31.96,6.83,32,7,32s0.34-0.04,0.5-0.13   L14.27,28H29c2.2,0,3-1.79,3-3V3C32,0.8,30.21,0,29,0z M30,24.99C29.99,25.45,29.81,26,29,26H14c-0.17,0-0.35,0.05-0.5,0.13   L8,29.28V27c0-0.55-0.45-1-1-1H3c-0.81,0-0.99-0.55-1-1V3.01C2.01,2.55,2.19,2,3,2h25.99C29.45,2.01,30,2.19,30,3V24.99z"/>
</g>
</svg>
