<?xml version="1.0" encoding="utf-8"?>
<!-- Generator: Adobe Illustrator 16.0.0, SVG Export Plug-In . SVG Version: 6.00 Build 0)  -->
<svg xmlns="http://www.w3.org/2000/svg" xmlns:xlink="http://www.w3.org/1999/xlink" version="1.1" id="2573246456_Capa_1_grid" x="0px" y="0px" width="32px" height="32px" viewBox="0 0 32 32" enable-background="new 0 0 32 32" xml:space="preserve">
<g>
	<circle cx="10" cy="16" r="2"/>
</g>
<g>
	<circle cx="20" cy="14" r="2"/>
</g>
<g>
	<path d="M21.001,32c-0.367,0-0.72-0.202-0.896-0.553c-0.247-0.494-0.047-1.095,0.447-1.342C20.854,29.953,28,26.231,28,17   c0-9.275-7.373-13.068-7.447-13.105c-0.494-0.247-0.694-0.848-0.447-1.342c0.248-0.494,0.847-0.693,1.342-0.447   C21.797,2.28,30,6.502,30,17c0,10.497-8.203,14.72-8.553,14.895C21.304,31.966,21.151,32,21.001,32z"/>
</g>
<g>
	<path d="M8.999,32c-0.15,0-0.303-0.034-0.446-0.105C8.204,31.72,0,27.497,0,17C0,6.502,8.204,2.28,8.553,2.105   C9.048,1.858,9.648,2.06,9.895,2.553c0.247,0.494,0.047,1.093-0.446,1.341C9.137,4.051,2,7.774,2,17   c0,9.274,7.373,13.068,7.447,13.105c0.494,0.247,0.694,0.848,0.447,1.342C9.719,31.798,9.366,32,8.999,32z"/>
</g>
<g>
	<path d="M10.999,22c-0.467,0-0.885-0.328-0.979-0.804c-0.108-0.542,0.243-1.068,0.784-1.177l10-2   c0.547-0.114,1.069,0.243,1.177,0.784c0.108,0.542-0.243,1.068-0.784,1.177l-10,2C11.13,21.994,11.064,22,10.999,22z"/>
</g>
<g>
	<path d="M15,8c4.963,0,9,4.038,9,9c0,4.963-4.037,9-9,9c-4.962,0-9-4.037-9-9C6,12.038,10.038,8,15,8 M15,6C8.924,6,4,10.924,4,17   c0,6.075,4.924,11,11,11c6.075,0,11-4.925,11-11C26,10.924,21.075,6,15,6L15,6z"/>
</g>
</svg>
