<?xml version="1.0" encoding="utf-8"?>
<!-- Generator: Adobe Illustrator 16.0.0, SVG Export Plug-In . SVG Version: 6.00 Build 0)  -->
<svg xmlns="http://www.w3.org/2000/svg" xmlns:xlink="http://www.w3.org/1999/xlink" version="1.1" id="2573246457_Capa_1_grid" x="0px" y="0px" width="32px" height="32px" viewBox="0 0 32 32" enable-background="new 0 0 32 32" xml:space="preserve">
<g>
	<path d="M26,30v-7c0-1.57-0.86-4.42-4-4.91V13c0-2.2-1.79-3-3-3h-3V8.82C17.16,8.41,18,7.3,18,6c0-0.57-0.15-1.11-0.42-1.53L15,0   l-2.55,4.43C12.15,4.89,12,5.43,12,6c0,1.3,0.84,2.41,2,2.82V10h-3c-2.2,0-3,1.79-3,3v5.09C4.86,18.58,4,21.43,4,23v7H2v2h26v-2H26   z M14.16,5.47L15,4l0.87,1.51C15.96,5.65,16,5.81,16,6c0,0.55-0.45,1-1,1s-1-0.45-1-1C14,5.81,14.04,5.65,14.16,5.47z M10,13.01   c0.01-0.46,0.19-1.01,1-1.01h7.99c0.46,0.01,1.01,0.19,1.01,1v5H10V13.01z M24,30H6v-6.99C6.01,22.5,6.18,20,9,20h12   c2.82,0,2.99,2.5,3,3V30z"/>
</g>
<g>
	<circle cx="9" cy="25" r="1"/>
</g>
<g>
	<circle cx="13" cy="25" r="1"/>
</g>
<g>
	<circle cx="17" cy="25" r="1"/>
</g>
<g>
	<circle cx="21" cy="25" r="1"/>
</g>
</svg>
