<?xml version="1.0" encoding="utf-8"?>
<!-- Generator: Adobe Illustrator 16.0.0, SVG Export Plug-In . SVG Version: 6.00 Build 0)  -->
<svg xmlns="http://www.w3.org/2000/svg" xmlns:xlink="http://www.w3.org/1999/xlink" version="1.1" id="2573246463_Capa_1_grid" x="0px" y="0px" width="32px" height="32px" viewBox="0 0 32 32" enable-background="new 0 0 32 32" xml:space="preserve">
<g>
	<path d="M20.889,30.333c-1.307,0-2.517-0.547-3.596-1.626l-14-14c-2.933-2.932-1.282-6.132,0-7.414l5-5   c0.391-0.391,1.023-0.391,1.414,0l6,6c0.391,0.391,0.391,1.023,0,1.414L12.414,13L19,19.586l3.293-3.293   c0.391-0.391,1.023-0.391,1.414,0l6,6c0.391,0.391,0.391,1.023,0,1.414l-5,5C24.641,28.773,23.056,30.333,20.889,30.333z M9,4.414   L4.707,8.707c-0.229,0.234-2.205,2.381,0,4.586l14,14c0.7,0.7,1.414,1.04,2.182,1.04c1.326,0,2.397-1.033,2.408-1.044L27.586,23   L23,18.414l-3.293,3.293c-0.391,0.391-1.023,0.391-1.414,0l-8-8c-0.391-0.391-0.391-1.023,0-1.414L13.586,9L9,4.414z"/>
</g>
<g>
	<polygon points="30,2 30,10 28,10 28,5.42 19.71,13.71 18.29,12.29 26.58,4 22,4 22,2  "/>
</g>
</svg>
