<?xml version="1.0" encoding="utf-8"?>
<!-- Generator: Adobe Illustrator 16.0.0, SVG Export Plug-In . SVG Version: 6.00 Build 0)  -->
<svg xmlns="http://www.w3.org/2000/svg" xmlns:xlink="http://www.w3.org/1999/xlink" version="1.1" id="2573246460_Capa_1_grid" x="0px" y="0px" width="32px" height="32px" viewBox="0 0 32 32" enable-background="new 0 0 32 32" xml:space="preserve">
<g>
	<path d="M21,24c-0.265,0-0.52-0.105-0.707-0.293S20,23.266,20,23v-5H10v5c0,0.553-0.448,1-1,1H1c-0.552,0-1-0.447-1-1v-8   c0-1.729,1.045-5,5-5h20c3.955,0,5,3.271,5,5v7.998c0,0.552-0.447,1-1,1L21,24z M2,22h6v-5c0-0.552,0.448-1,1-1h12   c0.553,0,1,0.448,1,1v5l6-0.002V15c-0.006-0.497-0.177-3-3-3H5c-2.823,0-2.994,2.503-3,3.005V22z"/>
</g>
</svg>
