<?xml version="1.0" encoding="utf-8"?>
<!-- Generator: Adobe Illustrator 16.0.0, SVG Export Plug-In . SVG Version: 6.00 Build 0)  -->
<svg xmlns="http://www.w3.org/2000/svg" xmlns:xlink="http://www.w3.org/1999/xlink" version="1.1" id="2573246464_Capa_1_grid" x="0px" y="0px" width="32px" height="32px" viewBox="0 0 32 32" enable-background="new 0 0 32 32" xml:space="preserve">
<g>
	<path d="M29,12c-1.26,0-1.97-0.79-3.1-2.18C24.51,8.12,22.78,6,19,6h-4c-3.78,0-5.51,2.12-6.9,3.82C6.97,11.21,6.26,12,5,12   c-3.96,0-5,3.27-5,5v4c0,2.2,1.79,3,3,3h1.54c0.69,1.2,1.98,2,3.46,2s2.77-0.8,3.46-2h8.08c0.69,1.2,1.979,2,3.46,2   s2.77-0.8,3.46-2H27c1.73,0,5-1.04,5-5v-4C32,13.79,31.2,12,29,12z M22,8.79c0.95,0.58,1.64,1.43,2.35,2.3   c0.24,0.3,0.5,0.61,0.761,0.91H23c-0.81,0-0.99-0.55-1-1V8.79z M9.65,11.09C10.95,9.5,12.17,8,15,8h1v3c0,0.81-0.55,0.99-1,1H8.89   C9.15,11.7,9.41,11.39,9.65,11.09z M8,24c-1.11,0-2-0.89-2-2s0.89-2,2-2s2,0.89,2,2S9.11,24,8,24z M23,24c-1.11,0-2-0.89-2-2   s0.89-2,2-2s2,0.89,2,2S24.11,24,23,24z M30,16h-2v2h2v1c0,2.82-2.5,2.99-3,3c0-2.21-1.79-4-4-4s-4,1.79-4,4h-7c0-2.21-1.79-4-4-4   s-4,1.79-4,4H3.01C2.55,21.99,2,21.81,2,21v-3.99C2.01,16.5,2.18,14,5,14h10c1.21,0,3-0.8,3-3V8h1c0.36,0,0.69,0.02,1,0.07V11   c0,1.21,0.8,3,3,3h6c0.81,0,0.99,0.55,1,1V16z"/>
</g>
</svg>
