<?xml version="1.0" encoding="utf-8"?>
<!-- Generator: Adobe Illustrator 16.0.0, SVG Export Plug-In . SVG Version: 6.00 Build 0)  -->
<svg xmlns="http://www.w3.org/2000/svg" xmlns:xlink="http://www.w3.org/1999/xlink" version="1.1" id="2573246465_Capa_1_grid" x="0px" y="0px" width="32px" height="32px" viewBox="0 0 32 32" enable-background="new 0 0 32 32" xml:space="preserve">
<g>
	<path d="M27.58,2.18c-0.34-0.24-0.79-0.24-1.13-0.01l-5.4,3.59C20.09,5.09,18.07,4,15,4c-3.07,0-5.09,1.09-6.05,1.76l-5.4-3.59   C3.21,1.94,2.76,1.94,2.42,2.18C2.09,2.42,1.93,2.84,2.03,3.24l1.93,7.74c-0.33,1.19-1.35,5.68,1.12,9.12   c0.76,1.051,1.76,1.891,3,2.511c-0.02,0.04-0.04,0.1-0.05,0.149l-2,8c-0.13,0.53,0.19,1.08,0.73,1.21C6.84,31.99,6.92,32,7,32   c0.45,0,0.86-0.3,0.97-0.76l1.97-7.891C11.39,23.78,13.08,24,15,24s3.61-0.22,5.06-0.65l1.971,7.891C22.14,31.7,22.55,32,23,32   c0.08,0,0.16-0.01,0.24-0.03c0.54-0.13,0.859-0.68,0.729-1.21l-2-8c-0.01-0.05-0.029-0.109-0.05-0.149c1.24-0.62,2.24-1.46,3-2.511   c2.47-3.439,1.45-7.93,1.12-9.12l1.93-7.74C28.07,2.84,27.91,2.42,27.58,2.18z M24.03,10.76c-0.05,0.18-0.04,0.38,0.02,0.56   c0.021,0.04,1.47,4.52-0.76,7.61C21.83,20.97,19.04,22,15,22c-4.03,0-6.82-1.03-8.29-3.06c-2.22-3.07-0.78-7.581-0.76-7.63   c0.06-0.17,0.07-0.37,0.02-0.55L4.6,5.27l3.85,2.56C8.84,8.09,9.36,8.04,9.7,7.71C9.77,7.64,11.51,6,15,6s5.23,1.64,5.29,1.71   c0.34,0.33,0.87,0.38,1.26,0.12L25.4,5.27L24.03,10.76z"/>
	<path d="M22,12c0,1.1-0.9,2-2,2s-2-0.9-2-2s0.9-2,2-2S22,10.9,22,12z"/>
	<path d="M12,12c0,1.1-0.9,2-2,2s-2-0.9-2-2s0.9-2,2-2S12,10.9,12,12z"/>
</g>
<g>
	<g>
		<path d="M21.89,17.45C20.63,19.97,17.15,20,17,20h-4c-0.15,0-3.63-0.03-4.89-2.55c-0.25-0.5-0.05-1.1,0.44-1.34    c0.5-0.25,1.1-0.05,1.34,0.44C10.6,17.96,12.98,18,13,18h1v-2h-1c-0.55,0-1-0.45-1-1s0.45-1,1-1h4c0.55,0,1,0.45,1,1s-0.45,1-1,1    h-1v2h1c0.02,0,2.41-0.05,3.11-1.45c0.239-0.49,0.84-0.69,1.34-0.44C21.94,16.35,22.14,16.95,21.89,17.45z"/>
	</g>
</g>
</svg>
