<?xml version="1.0" encoding="utf-8"?>
<!-- Generator: Adobe Illustrator 16.0.0, SVG Export Plug-In . SVG Version: 6.00 Build 0)  -->
<svg xmlns="http://www.w3.org/2000/svg" xmlns:xlink="http://www.w3.org/1999/xlink" version="1.1" id="2573246466_Capa_1_grid" x="0px" y="0px" width="32px" height="32px" viewBox="0 0 32 32" enable-background="new 0 0 32 32" xml:space="preserve">
<g>
	<path d="M24,15c0-5.05-1.94-13.85-2.02-14.22L21.8,0H8.2L8.02,0.78C7.94,1.15,6,9.95,6,15c0,5.21,3.04,8.57,8,8.96V30h-4v2h10v-2   h-4v-6.04C20.96,23.57,24,20.21,24,15z M9.81,2h10.38c0.1,0.49,0.239,1.18,0.399,2H9.41C9.57,3.18,9.71,2.49,9.81,2z M15,22   c-4.45,0-7-2.55-7-7c0-2.51,0.53-6.11,1.04-9h11.92C21.47,8.89,22,12.49,22,15C22,19.45,19.45,22,15,22z"/>
</g>
<g>
	<circle cx="13" cy="9" r="1"/>
</g>
<g>
	<circle cx="15" cy="15" r="1"/>
</g>
<g>
	<circle cx="11" cy="13" r="1"/>
</g>
<circle cx="11" cy="17" r="1"/>
</svg>
