<?xml version="1.0" encoding="utf-8"?>
<!-- Generator: Adobe Illustrator 16.0.0, SVG Export Plug-In . SVG Version: 6.00 Build 0)  -->
<svg xmlns="http://www.w3.org/2000/svg" xmlns:xlink="http://www.w3.org/1999/xlink" version="1.1" id="2573246467_Capa_1_grid" x="0px" y="0px" width="32px" height="32px" viewBox="0 0 32 32" enable-background="new 0 0 32 32" xml:space="preserve">
<g>
	<g>
		<path d="M8,0C0.09,0,0,6.93,0,7v22c0,1.21,0.8,3,3,3h10c2.2,0,3-1.79,3-3V7C16,6.93,15.91,0,8,0z M14,28.99    C13.99,29.45,13.81,30,13,30H3c-0.81,0-0.99-0.55-1-1V7c0-0.17,0.05-3.85,4-4.78V4h4V2.21c3.83,0.9,4,4.35,4,4.79V28.99z"/>
	</g>
	<g>
		<rect x="4" y="16" width="2" height="2"/>
	</g>
	<g>
		<rect x="8" y="24" width="4" height="2"/>
	</g>
	<g>
		<rect x="8" y="20" width="4" height="2"/>
	</g>
	<g>
		<rect x="8" y="16" width="4" height="2"/>
	</g>
	<g>
		<path d="M8,6c-2.21,0-4,1.79-4,4s1.79,4,4,4s4-1.79,4-4S10.21,6,8,6z M8,12c-1.1,0-2-0.9-2-2s0.9-2,2-2c1.1,0,2,0.9,2,2    S9.1,12,8,12z"/>
	</g>
</g>
<g>
	<g>
		<rect x="4" y="20" width="2" height="2"/>
	</g>
</g>
<g>
	<g>
		<rect x="4" y="24" width="2" height="2"/>
	</g>
</g>
<g>
	<rect x="18" y="6" width="2" height="2"/>
</g>
<g>
	<rect x="22" y="6" width="10" height="2"/>
</g>
<g>
	<rect x="18" y="10" width="2" height="2"/>
</g>
<g>
	<rect x="22" y="10" width="10" height="2"/>
</g>
<g>
	<rect x="18" y="14" width="2" height="2"/>
</g>
<g>
	<rect x="22" y="14" width="10" height="2"/>
</g>
<g>
	<rect x="18" y="18" width="2" height="2"/>
</g>
<g>
	<rect x="22" y="18" width="10" height="2"/>
</g>
<g>
	<rect x="18" y="22" width="2" height="2"/>
</g>
<g>
	<rect x="22" y="22" width="10" height="2"/>
</g>
</svg>
