<?xml version="1.0" encoding="utf-8"?>
<!-- Generator: Adobe Illustrator 16.0.0, SVG Export Plug-In . SVG Version: 6.00 Build 0)  -->
<svg xmlns="http://www.w3.org/2000/svg" xmlns:xlink="http://www.w3.org/1999/xlink" version="1.1" id="2573246469_Capa_1_grid" x="0px" y="0px" width="32px" height="32px" viewBox="0 0 32 32" enable-background="new 0 0 32 32" xml:space="preserve">
<g>
	<g>
		<path d="M3.501,28.869l1.788-7.143C3.164,19.569,2,16.848,2,14C2,7.383,8.28,2,16,2s14,5.383,14,12s-6.28,12-14,12    c-1.782,0-3.503-0.277-5.123-0.825L3.501,28.869z M16,4C9.383,4,4,8.486,4,14c0,2.47,1.094,4.841,3.078,6.676l0.436,0.402    l-1.015,4.053l4.251-2.13l0.408,0.151C12.674,23.715,14.303,24,16,24c6.617,0,12-4.486,12-10S22.617,4,16,4z"/>
	</g>
	<g>
		<circle cx="12" cy="12" r="2"/>
	</g>
	<g>
		<circle cx="20" cy="12" r="2"/>
	</g>
	<g>
		<path d="M16,20c-4.488,0-5.764-2.291-5.895-2.553c-0.247-0.494-0.047-1.095,0.447-1.342c0.488-0.244,1.078-0.052,1.331,0.427    C11.939,16.627,12.803,18,16,18c3.239,0,4.083-1.41,4.118-1.471c0.268-0.47,0.871-0.654,1.347-0.398    c0.478,0.256,0.672,0.832,0.43,1.316C21.764,17.709,20.488,20,16,20z"/>
	</g>
</g>
</svg>
