<?xml version="1.0" encoding="utf-8"?>
<!-- Generator: Adobe Illustrator 16.0.0, SVG Export Plug-In . SVG Version: 6.00 Build 0)  -->
<svg xmlns="http://www.w3.org/2000/svg" xmlns:xlink="http://www.w3.org/1999/xlink" version="1.1" id="2573246470_Capa_1_grid" x="0px" y="0px" width="32px" height="32px" viewBox="0 0 32 32" enable-background="new 0 0 32 32" xml:space="preserve">
<g>
	<path d="M19,0L6,8h3.82L19,2.35L28.18,8H18v2h10.5L17.31,28.96L19,30l13-8V8L19,0z M30,20.88l-8.82,5.43L30,11.38V20.88z"/>
</g>
<g>
	<path d="M11,10c-4.97,0-9,4.03-9,9c0,2.41,0.95,4.61,2.51,6.22L0.23,30.36l1.54,1.279l4.28-5.13C7.47,27.45,9.17,28,11,28   c4.97,0,9-4.03,9-9C20,14.03,15.97,10,11,10z M11,26c-3.86,0-7-3.14-7-7c0-3.86,3.14-7,7-7s7,3.14,7,7C18,22.86,14.86,26,11,26z"/>
</g>
<g>
	<polygon points="12.42,19 14.71,21.29 13.29,22.71 11,20.42 8.71,22.71 7.29,21.29 9.58,19 7.29,16.71 8.71,15.29 11,17.58    13.29,15.29 14.71,16.71  "/>
</g>
</svg>
