<?xml version="1.0" encoding="utf-8"?>
<!-- Generator: Adobe Illustrator 16.0.0, SVG Export Plug-In . SVG Version: 6.00 Build 0)  -->
<svg xmlns="http://www.w3.org/2000/svg" xmlns:xlink="http://www.w3.org/1999/xlink" version="1.1" id="2573246472_Capa_1_grid" x="0px" y="0px" width="32px" height="32px" viewBox="0 0 32 32" enable-background="new 0 0 32 32" xml:space="preserve">
<g>
	<g>
		<path d="M26.94,15.06C26.6,12.32,24.74,9.8,21.5,9.8c-0.26,0-0.52,0.02-0.79,0.05C19.42,5.76,16.77,4,12,4    C9.24,4,7.03,4.86,5.61,6.5c-1.41,1.62-1.98,3.92-1.7,6.84C1.25,14.5,0,16.63,0,20c0,3.53,2.47,6,6,6h21c2.66,0,5-2.58,5-5.52    C32,17.65,29.88,15.45,26.94,15.06z M27,24H6c-2.43,0-4-1.57-4-4c0-2.84,0.93-4.26,3.32-5.05l0.79-0.27l-0.12-0.82    C5.6,11.15,5.98,9.12,7.12,7.81C8.42,6.31,10.49,6,12,6c4.78,0,6.2,1.92,7.03,5.24l0.239,0.97l0.971-0.24    c0.439-0.11,0.87-0.17,1.26-0.17c2.4,0,3.5,2.18,3.5,4.2v1h1c2.32,0,4,1.46,4,3.48C30,22.46,28.39,24,27,24z"/>
	</g>
</g>
</svg>
