<?xml version="1.0" encoding="utf-8"?>
<!-- Generator: Adobe Illustrator 16.0.0, SVG Export Plug-In . SVG Version: 6.00 Build 0)  -->
<svg xmlns="http://www.w3.org/2000/svg" xmlns:xlink="http://www.w3.org/1999/xlink" version="1.1" id="2573246473_Capa_1_grid" x="0px" y="0px" width="32px" height="32px" viewBox="0 0 32 32" enable-background="new 0 0 32 32" xml:space="preserve">
<g>
	<path d="M24.999,0c-3.53,0-6.44,2.6-6.92,6H1c-0.4,0-0.77,0.24-0.92,0.62c-0.16,0.37-0.07,0.8,0.21,1.09L12,19.42V30H6v2h13.999v-2   h-6V19.42l6.82-6.82c1.17,0.891,2.609,1.4,4.18,1.4c3.87,0,7-3.13,7-7S28.869,0,24.999,0z M13,17.59L3.41,8h19.179L13,17.59z    M24.999,12c-1.02,0-1.97-0.311-2.76-0.82l3.47-3.47c0.28-0.29,0.37-0.72,0.21-1.09C25.769,6.24,25.399,6,24.999,6h-4.9   c0.46-2.28,2.48-4,4.9-4c2.76,0,5,2.24,5,5S27.759,12,24.999,12z"/>
</g>
</svg>
