<?xml version="1.0" encoding="utf-8"?>
<!-- Generator: Adobe Illustrator 16.0.0, SVG Export Plug-In . SVG Version: 6.00 Build 0)  -->
<svg xmlns="http://www.w3.org/2000/svg" xmlns:xlink="http://www.w3.org/1999/xlink" version="1.1" id="2573246474_Capa_1_grid" x="0px" y="0px" width="32px" height="32px" viewBox="0 0 32 32" enable-background="new 0 0 32 32" xml:space="preserve">
<g>
	<g>
		<path d="M21.791,21.98c10.1-0.32,10.22-6.91,10.22-6.98c0-3.96-3.27-5-5-5h-1.02c0.01-0.35,0.02-0.68,0.02-1c0-0.55-0.45-1-1-1    h-24c-0.529,0-0.971,0.41-1,0.94c-0.02,0.35-0.48,8.59,4.16,13.52c0.55,0.59,1.14,1.1,1.79,1.54h-1.95v2H22v-2h-2.39    C20.44,23.43,21.161,22.74,21.791,21.98z M25.801,12h1.2c0.51,0.01,3.01,0.18,3.01,2.99c0,0.18-0.17,4.14-6.74,4.89    C24.69,17.4,25.471,14.52,25.801,12z M13.011,24c-3.08,0-5.57-0.98-7.38-2.91c-3.2-3.39-3.61-8.899-3.63-11.09h21.97    C23.761,13.38,22.331,24,13.011,24z"/>
	</g>
</g>
</svg>
