<?xml version="1.0" encoding="utf-8"?>
<!-- Generator: Adobe Illustrator 16.0.0, SVG Export Plug-In . SVG Version: 6.00 Build 0)  -->
<svg xmlns="http://www.w3.org/2000/svg" xmlns:xlink="http://www.w3.org/1999/xlink" version="1.1" id="2573246475_Capa_1_grid" x="0px" y="0px" width="32px" height="32px" viewBox="0 0 32 32" enable-background="new 0 0 32 32" xml:space="preserve">
<g>
	<g>
		<path d="M29.99,24.77C29.92,22.75,28.88,8,15,8C0.17,8,0,24.83,0,25c0,0.55,0.45,1,1,1h8c0.55,0,1-0.45,1-1c0-0.28,0.08-7,5-7    s5,6.72,5,7c0,0.55,0.45,1,1,1h8c0.01,0,0.01,0,0.02,0c0.551,0,1-0.45,1-1C30.02,24.92,30.01,24.85,29.99,24.77z M21.95,24    c-0.28-3.22-1.96-8-6.95-8s-6.67,4.78-6.95,8h-2c0.24-2.72,1.56-10,8.95-10c7.37,0,8.71,7.28,8.95,10H21.95z M25.96,24    C25.65,19.35,23.09,12,15,12S4.35,19.35,4.04,24H2.05C2.3,20.62,3.98,10,15,10c11.01,0,12.7,10.62,12.95,14H25.96z"/>
	</g>
</g>
</svg>
