<?xml version="1.0" encoding="utf-8"?>
<!-- Generator: Adobe Illustrator 16.0.0, SVG Export Plug-In . SVG Version: 6.00 Build 0)  -->
<svg xmlns="http://www.w3.org/2000/svg" xmlns:xlink="http://www.w3.org/1999/xlink" version="1.1" id="2573246476_Capa_1_grid" x="0px" y="0px" width="32px" height="32px" viewBox="0 0 32 32" enable-background="new 0 0 32 32" xml:space="preserve">
<g>
	<path d="M0,4v24h32V4H0z M6.02,26c0.22-4.6,1.91-5.67,2.64-5.92L12,23.41l3.33-3.33c0.76,0.26,2.43,1.34,2.65,5.92H6.02z M22,26   h-2.02c-0.351-7.91-4.791-8-4.98-8h-0.41L12,20.59L9.41,18H9c-0.19,0-4.63,0.09-4.98,8H2V6h20V26z M30,26h-6V6h6V26z"/>
	<path d="M12,8c-2.21,0-4,2.24-4,5s1.79,5,4,5s4-2.24,4-5S14.21,8,12,8z M12,16c-1.07,0-2-1.4-2-3s0.93-3,2-3s2,1.4,2,3   S13.07,16,12,16z"/>
</g>
</svg>
