<?xml version="1.0" encoding="utf-8"?>
<!-- Generator: Adobe Illustrator 16.0.0, SVG Export Plug-In . SVG Version: 6.00 Build 0)  -->
<svg xmlns="http://www.w3.org/2000/svg" xmlns:xlink="http://www.w3.org/1999/xlink" version="1.1" id="2573246478_Capa_1_grid" x="0px" y="0px" width="32px" height="32px" viewBox="0 0 32 32" enable-background="new 0 0 32 32" xml:space="preserve">
<g>
	<path d="M12,4c1.065,0,2,1.402,2,3s-0.935,3-2,3s-2-1.402-2-3S10.935,4,12,4L12,4z M12,2C9.791,2,8,4.238,8,7s1.791,5,4,5   s4-2.238,4-5S14.209,2,12,2L12,2z"/>
</g>
<g>
	<path d="M26,10v4.53l-6.04,5.041C19.47,12.09,15.19,12,15,12h-0.41L12,14.59L9.41,12H9c-0.12,0-2.63,0.04-4.04,3.33L4,14.53V10H2   v5.47l12,10V32h2v-6.53l12-10V10H26z M18,21.2l-3,2.5l-8.42-7.02c0.62-1.85,1.58-2.43,2.08-2.6L12,17.41l3.33-3.33   C16.14,14.35,18,15.58,18,21V21.2z"/>
</g>
<g>
	<rect x="18" y="4" width="6" height="2"/>
</g>
<g>
	<rect x="18" y="8" width="6" height="2"/>
</g>
</svg>
