<?xml version="1.0" encoding="utf-8"?>
<!-- Generator: Adobe Illustrator 16.0.0, SVG Export Plug-In . SVG Version: 6.00 Build 0)  -->
<svg xmlns="http://www.w3.org/2000/svg" xmlns:xlink="http://www.w3.org/1999/xlink" version="1.1" id="2573246477_Capa_1_grid" x="0px" y="0px" width="32px" height="32px" viewBox="0 0 32 32" enable-background="new 0 0 32 32" xml:space="preserve">
<g>
	<g>
		<path d="M28,2V0H9C5.04,0,4,3.27,4,5v22c0,1.73,1.04,5,5,5h19V8h-2V2H28z M6,5c0.01-0.52,0.19-3,3-3h15v6H9    C6.18,8,6.01,5.5,6,5.01V5z M10.02,30c0.22-4.6,1.91-5.68,2.64-5.92L16,27.41l3.33-3.33c0.76,0.25,2.43,1.35,2.65,5.92H10.02z     M26,30h-2.02c-0.351-7.91-4.79-8-4.98-8h-0.41L16,24.59L13.41,22H13c-0.19,0-4.6,0.09-4.97,7.88C6.14,29.38,6.01,27.44,6,27V9.12    C6.73,9.65,7.71,10,9,10h17V30z"/>
	</g>
</g>
<g>
	<path d="M16,12c-2.21,0-4,2.24-4,5s1.79,5,4,5s4-2.24,4-5S18.21,12,16,12z M16,20c-1.07,0-2-1.4-2-3c0-1.6,0.93-3,2-3   c1.07,0,2,1.4,2,3C18,18.6,17.07,20,16,20z"/>
</g>
</svg>
