<?xml version="1.0" encoding="utf-8"?>
<!-- Generator: Adobe Illustrator 16.0.0, SVG Export Plug-In . SVG Version: 6.00 Build 0)  -->
<svg xmlns="http://www.w3.org/2000/svg" xmlns:xlink="http://www.w3.org/1999/xlink" version="1.1" id="2573246480_Capa_1_grid" x="0px" y="0px" width="32px" height="32px" viewBox="0 0 32 32" enable-background="new 0 0 32 32" xml:space="preserve">
<g>
	<path d="M25.51,4.32c-0.89-0.59-2.35-1.12-4.319-0.46C20.3,3.2,18.22,2,15,2c-3.22,0-5.3,1.2-6.19,1.86   C6.84,3.21,5.38,3.73,4.49,4.32C0.19,7.15,0,16.9,0,17c0,1.73,1.04,5,5,5h1c0.07,0,0.13-0.01,0.19-0.02   C6.26,22.09,6.33,22.2,6.4,22.3c0.5,0.73,1.12,1.351,1.83,1.87c0.04,0.03,0.07,0.05,0.11,0.08c-0.09,0.07-0.17,0.17-0.23,0.28   c0,0.02-0.01,0.029-0.02,0.05l-1.27,3.81l-0.77,2.29c-0.17,0.53,0.11,1.09,0.63,1.271C6.79,31.98,6.9,32,7,32   c0.42,0,0.81-0.26,0.95-0.68l2-6c0.01-0.021,0.01-0.051,0.02-0.08c0.01-0.03,0.02-0.07,0.02-0.11c0,0,0,0.01,0.01,0.01   c1.41,0.57,3.07,0.86,5,0.86s3.59-0.29,5-0.86c0.01,0,0.01-0.01,0.01-0.01c0,0.04,0.01,0.08,0.021,0.11   c0.01,0.029,0.01,0.06,0.02,0.08l2,6C22.19,31.74,22.58,32,23,32c0.1,0,0.21-0.02,0.32-0.05c0.52-0.181,0.8-0.74,0.63-1.271   l-0.65-1.93l-1.39-4.17c-0.01-0.021-0.021-0.03-0.021-0.05c-0.06-0.11-0.14-0.21-0.229-0.28c0.04-0.03,0.07-0.05,0.109-0.08   c0.711-0.52,1.33-1.14,1.83-1.87c0.07-0.1,0.141-0.21,0.21-0.319C23.87,21.99,23.93,22,24,22h1c3.96,0,5-3.27,5-5   C30,16.9,29.81,7.15,25.51,4.32z M25,20h-0.28c1.58-4.93-0.67-11.05-0.779-11.35c-0.2-0.52-0.771-0.78-1.29-0.59   c-0.521,0.2-0.78,0.77-0.591,1.29c0.03,0.08,2.801,7.63-0.109,11.82C20.65,23.05,18.31,24,15,24c-3.31,0-5.65-0.95-6.95-2.83   C5.14,16.98,7.91,9.43,7.94,9.35c0.19-0.52-0.07-1.09-0.59-1.29C6.83,7.87,6.26,8.13,6.06,8.65C5.95,8.95,3.7,15.07,5.28,20H5   c-2.82,0-2.99-2.5-3-3c0-2.31,0.85-9.2,3.59-11.01c0.84-0.56,1.83-0.58,3.02-0.07c0.01,0,0.01,0,0.01,0   c0.3,0.12,0.64,0.09,0.92-0.08C9.59,5.8,9.65,5.76,9.7,5.71C9.71,5.7,9.72,5.69,9.76,5.65C10.08,5.37,11.81,4,15,4   c3.12,0,4.85,1.31,5.22,1.63c0.011,0,0.011,0.01,0.021,0.01v0.01c0.029,0.03,0.05,0.05,0.06,0.06C20.49,5.9,20.75,6,21,6   c0.05,0,0.1,0,0.15-0.01c0.029-0.01,0.069-0.02,0.1-0.03c0.01,0,0.01,0,0.02,0c0.04-0.01,0.08-0.02,0.12-0.04   c0.011,0,0.021-0.01,0.03-0.01h0.01c1.17-0.5,2.15-0.47,2.98,0.08c2.74,1.81,3.59,8.7,3.59,11C27.99,17.5,27.82,20,25,20z"/>
</g>
<g>
	<path d="M12,12c0,1.1-0.9,2-2,2s-2-0.9-2-2s0.9-2,2-2S12,10.9,12,12z"/>
</g>
<g>
	<path d="M22,12c0,1.1-0.9,2-2,2s-2-0.9-2-2s0.9-2,2-2S22,10.9,22,12z"/>
</g>
<g>
	<path d="M8.34,24.25c-0.09,0.07-0.17,0.17-0.23,0.28l0.12-0.36C8.27,24.2,8.3,24.22,8.34,24.25z"/>
	<path d="M10,25.14L9.97,25.24c0.01-0.03,0.02-0.07,0.02-0.11C9.99,25.13,9.99,25.14,10,25.14z"/>
</g>
<g>
	<path d="M20.03,25.24L20,25.14c0.01,0,0.01-0.01,0.01-0.01C20.01,25.17,20.02,25.21,20.03,25.24z"/>
	<path d="M21.89,24.53c-0.06-0.11-0.14-0.21-0.229-0.28c0.04-0.03,0.07-0.05,0.109-0.08L21.89,24.53z"/>
</g>
<g>
	<path d="M9.54,5.84C9.27,6.01,8.93,6.06,8.62,5.92C8.92,6.04,9.26,6.01,9.54,5.84z"/>
</g>
<g>
	<path d="M8.09,24.58l-1.27,3.81l1.23-3.71C8.06,24.64,8.08,24.61,8.09,24.58z"/>
</g>
<g>
	<path d="M23.3,28.75l-1.39-4.17c0.01,0.03,0.03,0.06,0.04,0.1L23.3,28.75z"/>
</g>
<g>
	<path d="M21.89,19.45C20.63,21.97,17.15,22,17,22h-4c-0.15,0-3.63-0.03-4.89-2.55c-0.25-0.5-0.05-1.101,0.44-1.34   c0.5-0.25,1.1-0.051,1.34,0.439C10.6,19.96,12.98,20,13,20h1v-2h-1c-0.55,0-1-0.45-1-1s0.45-1,1-1h4c0.55,0,1,0.45,1,1s-0.45,1-1,1   h-1v2h1c0.02,0,2.41-0.05,3.11-1.45c0.239-0.49,0.84-0.689,1.34-0.439C21.94,18.35,22.14,18.95,21.89,19.45z"/>
</g>
</svg>
