<?xml version="1.0" encoding="utf-8"?>
<!-- Generator: Adobe Illustrator 16.0.0, SVG Export Plug-In . SVG Version: 6.00 Build 0)  -->
<svg xmlns="http://www.w3.org/2000/svg" xmlns:xlink="http://www.w3.org/1999/xlink" version="1.1" id="2573246488_Capa_1_grid" x="0px" y="0px" width="32px" height="32px" viewBox="0 0 32 32" enable-background="new 0 0 32 32" xml:space="preserve">
<g>
	<path d="M15,2C6.73,2,0,8.73,0,17c0,4.01,1.56,7.77,4.39,10.61C7.23,30.44,10.99,32,15,32c8.27,0,15-6.73,15-15   C30,8.73,23.27,2,15,2z M15,30c-3.47,0-6.74-1.35-9.19-3.81C3.35,23.74,2,20.47,2,17C2,9.83,7.83,4,15,4s13,5.83,13,13   S22.17,30,15,30z"/>
</g>
<g>
	<ellipse cx="10" cy="15" rx="2" ry="3"/>
</g>
<g>
	<ellipse cx="20" cy="14" rx="2" ry="4"/>
</g>
<g>
	<path d="M5.82,20l0.19,1.16C6.02,21.23,7.24,28,15,28s8.97-6.77,8.99-6.84L24.18,20H5.82z M10,24.29C9.15,23.54,8.65,22.68,8.36,22   H10V24.29z M12,22h2v3.94c-0.76-0.061-1.42-0.221-2-0.45V22z M18,25.5c-0.58,0.22-1.24,0.38-2,0.45V22h2V25.5z M20,24.32V22h1.65   C21.36,22.68,20.86,23.56,20,24.32z"/>
</g>
</svg>
