<?xml version="1.0" encoding="utf-8"?>
<!-- Generator: Adobe Illustrator 16.0.0, SVG Export Plug-In . SVG Version: 6.00 Build 0)  -->
<svg xmlns="http://www.w3.org/2000/svg" xmlns:xlink="http://www.w3.org/1999/xlink" version="1.1" id="2573246503_Capa_1_grid" x="0px" y="0px" width="32px" height="32px" viewBox="0 0 32 32" enable-background="new 0 0 32 32" xml:space="preserve">
<g>
	<path d="M15,2C6.73,2,0,8.73,0,17c0,4.01,1.56,7.77,4.39,10.61C7.23,30.44,10.99,32,15,32c8.27,0,15-6.73,15-15   C30,8.73,23.27,2,15,2z M15,30c-3.47,0-6.74-1.35-9.19-3.81C3.35,23.74,2,20.47,2,17C2,9.83,7.83,4,15,4s13,5.83,13,13   S22.17,30,15,30z"/>
</g>
<g>
	<path d="M15,24c-3.577,0-4.842-2.448-4.895-2.553c-0.247-0.494-0.047-1.095,0.447-1.342c0.491-0.244,1.086-0.049,1.336,0.437   C11.934,20.624,12.722,22,15,22c2.299,0,3.08-1.4,3.112-1.46c0.26-0.481,0.861-0.674,1.345-0.42   c0.485,0.251,0.682,0.839,0.438,1.327C19.843,21.552,18.577,24,15,24z"/>
</g>
<g>
	<path d="M24,14c0,0,0,4-4,4s-4-4-4-4h-2c0,0,0,4-4,4s-4-4-4-4s0-2,2-2h14C22,12,24,12,24,14z"/>
</g>
</svg>
