<?xml version="1.0" encoding="utf-8"?>
<!-- Generator: Adobe Illustrator 16.0.0, SVG Export Plug-In . SVG Version: 6.00 Build 0)  -->
<svg xmlns="http://www.w3.org/2000/svg" xmlns:xlink="http://www.w3.org/1999/xlink" version="1.1" id="2573246505_Capa_1_grid" x="0px" y="0px" width="32px" height="32px" viewBox="0 0 32 32" enable-background="new 0 0 32 32" xml:space="preserve">
<g>
	<path d="M15,32c-4.007,0-7.774-1.561-10.607-4.394C1.56,24.773,0,21.007,0,17C0,8.729,6.729,2,15,2c8.271,0,15,6.729,15,15   C29.999,25.271,23.27,32,15,32z M15,4C7.832,4,2,9.832,2,17c0,3.473,1.352,6.737,3.807,9.192S11.527,30,15,30   c7.167,0,12.999-5.832,13-13C28,9.832,22.168,4,15,4z"/>
</g>
<g>
	<path d="M8,20v2h6v2c0,2.6,2.06,4,4,4c1.94,0,4-1.4,4-4v-4H8z M20,24c0,2-2,2-2,2s-2,0-2-2v-2h4V24z"/>
</g>
<g>
	<path d="M14,16h-2v-1c-0.012-0.45-0.195-1-1-1s-0.988,0.55-1,1.012V16H8v-1c0-1.206,0.799-3,3-3s3,1.794,3,3V16z"/>
</g>
<g>
	<path d="M22,16h-2v-1c-0.012-0.45-0.194-1-1-1s-0.988,0.55-1,1.012V16h-2v-1c0-1.206,0.799-3,3-3s3,1.794,3,3V16z"/>
</g>
</svg>
