<?xml version="1.0" encoding="utf-8"?>
<!-- Generator: Adobe Illustrator 16.0.0, SVG Export Plug-In . SVG Version: 6.00 Build 0)  -->
<svg xmlns="http://www.w3.org/2000/svg" xmlns:xlink="http://www.w3.org/1999/xlink" version="1.1" id="2573246498_Layer_1_grid" x="0px" y="0px" width="32px" height="32px" viewBox="0 0 32 32" enable-background="new 0 0 32 32" xml:space="preserve">
<g>
	<path d="M15,32c-4.007,0-7.774-1.561-10.607-4.394C1.56,24.773,0,21.007,0,17C0,8.729,6.729,2,15,2c8.271,0,15,6.729,15,15   C29.999,25.271,23.27,32,15,32z M15,4C7.832,4,2,9.832,2,17c0,3.473,1.352,6.737,3.807,9.192S11.527,30,15,30   c7.167,0,12.999-5.832,13-13C28,9.832,22.168,4,15,4z"/>
</g>
<g>
	<ellipse cx="10" cy="15" rx="2" ry="3"/>
</g>
<g>
	<ellipse cx="20" cy="15" rx="2" ry="3"/>
</g>
<g>
	<path d="M19.001,24c-0.363,0-0.713-0.198-0.89-0.542C18.066,23.376,17.278,22,15,22c-2.298,0-3.08,1.4-3.112,1.46   c-0.26,0.481-0.861,0.673-1.345,0.42c-0.485-0.251-0.682-0.839-0.438-1.327C10.158,22.448,11.423,20,15,20s4.843,2.448,4.895,2.553   c0.247,0.494,0.047,1.095-0.447,1.342C19.304,23.966,19.151,24,19.001,24z"/>
</g>
</svg>
