<?xml version="1.0" encoding="utf-8"?>
<!-- Generator: Adobe Illustrator 16.0.0, SVG Export Plug-In . SVG Version: 6.00 Build 0)  -->
<svg xmlns="http://www.w3.org/2000/svg" xmlns:xlink="http://www.w3.org/1999/xlink" version="1.1" id="2573246495_Layer_1_grid" x="0px" y="0px" width="32px" height="32px" viewBox="0 0 32 32" enable-background="new 0 0 32 32" xml:space="preserve">
<path d="M15,32c-4.007,0-7.774-1.561-10.607-4.394C1.56,24.773,0,21.007,0,17C0,8.729,6.729,2,15,2c8.271,0,15,6.729,15,15  C29.999,25.271,23.27,32,15,32z M15,4C7.832,4,2,9.832,2,17c0,3.473,1.352,6.737,3.807,9.192S11.527,30,15,30  c7.167,0,12.999-5.832,13-13C28,9.832,22.168,4,15,4z M19.895,21.447c0.244-0.488,0.048-1.076-0.438-1.327  c-0.483-0.254-1.085-0.062-1.345,0.42C18.08,20.6,17.299,22,15,22c-2.278,0-3.066-1.376-3.111-1.458  c-0.25-0.485-0.845-0.681-1.336-0.437c-0.494,0.247-0.694,0.848-0.447,1.342C10.158,21.552,11.423,24,15,24  S19.843,21.552,19.895,21.447z M6,16h6v-2H6V16z M18,16h6v-2h-6V16z"/>
</svg>
