<?xml version="1.0" encoding="utf-8"?>
<!-- Generator: Adobe Illustrator 16.0.0, SVG Export Plug-In . SVG Version: 6.00 Build 0)  -->
<svg xmlns="http://www.w3.org/2000/svg" xmlns:xlink="http://www.w3.org/1999/xlink" version="1.1" id="2573246485_Capa_1_grid" x="0px" y="0px" width="32px" height="32px" viewBox="0 0 32 32" enable-background="new 0 0 32 32" xml:space="preserve">
<g>
	<path d="M15,2.12c-8.27,0.01-15,6.73-15,15c0,4.01,1.56,7.78,4.39,10.61c2.84,2.829,6.6,4.39,10.61,4.39c8.27,0,15-6.72,15-15   C30,8.85,23.27,2.12,15,2.12z M15,30.12c-3.47,0-6.74-1.351-9.19-3.8C3.35,23.86,2,20.6,2,17.12c0-7.16,5.83-12.99,13-13   c7.17,0,13,5.84,13,13C28,24.29,22.17,30.12,15,30.12z"/>
</g>
<g>
	<path d="M21.71,22.29l-1.42,1.42L19,22.41l-1.29,1.3C17.51,23.9,17.26,24,17,24s-0.51-0.1-0.71-0.29L15,22.41l-1.29,1.3   c-0.39,0.39-1.03,0.39-1.42,0L11,22.41l-1.29,1.3l-1.42-1.42l2-2c0.39-0.39,1.03-0.39,1.42,0l1.29,1.3l1.29-1.3   c0.39-0.39,1.03-0.39,1.42,0l1.29,1.3l1.29-1.3c0.39-0.39,1.03-0.39,1.42,0L21.71,22.29z"/>
</g>
<g>
	<path d="M14,14v2h-2.09c-0.25,1.23-1.01,2.12-1.91,2.12S8.34,17.23,8.09,16H6v-2H14z"/>
</g>
<g>
	<path d="M24,14v2h-2.09c-0.25,1.23-1.01,2.12-1.91,2.12s-1.66-0.89-1.91-2.12H16v-2H24z"/>
</g>
</svg>
