<?xml version="1.0" encoding="utf-8"?>
<!-- Generator: Adobe Illustrator 16.0.0, SVG Export Plug-In . SVG Version: 6.00 Build 0)  -->
<svg xmlns="http://www.w3.org/2000/svg" xmlns:xlink="http://www.w3.org/1999/xlink" version="1.1" id="2573246491_Capa_1_grid" x="0px" y="0px" width="32px" height="32px" viewBox="0 0 32 32" enable-background="new 0 0 32 32" xml:space="preserve">
<g>
	<path d="M15,2C6.73,2,0,8.73,0,17c0,4.01,1.56,7.77,4.39,10.61C7.23,30.44,10.99,32,15,32c8.27,0,15-6.73,15-15   C30,8.73,23.27,2,15,2z M15,30c-3.47,0-6.74-1.35-9.19-3.81C3.35,23.74,2,20.47,2,17C2,9.83,7.83,4,15,4s13,5.83,13,13   S22.17,30,15,30z"/>
</g>
<g>
	<polygon points="10.42,15 11.83,16.41 10.41,17.83 9,16.42 7.59,17.83 6.17,16.41 7.58,15 6.17,13.59 7.59,12.17 9,13.58    10.41,12.17 11.83,13.59  "/>
</g>
<g>
	<polygon points="22.42,15 23.83,16.41 22.41,17.83 21,16.42 19.59,17.83 18.17,16.41 19.58,15 18.17,13.58 19.59,12.17 21,13.58    22.41,12.17 23.83,13.58  "/>
</g>
<g>
	<g>
		<path d="M8,20v2h6v2c0,2.6,2.06,4,4,4c1.94,0,4-1.4,4-4v-4H8z M20,24c0,2-2,2-2,2s-2,0-2-2v-2h4V24z"/>
	</g>
</g>
</svg>
