<?xml version="1.0" encoding="utf-8"?>
<!-- Generator: Adobe Illustrator 16.0.0, SVG Export Plug-In . SVG Version: 6.00 Build 0)  -->
<svg xmlns="http://www.w3.org/2000/svg" xmlns:xlink="http://www.w3.org/1999/xlink" version="1.1" id="2573246490_Capa_1_grid" x="0px" y="0px" width="32px" height="32px" viewBox="0 0 32 32" enable-background="new 0 0 32 32" xml:space="preserve">
<g>
	<path d="M15,2C6.73,2,0,8.73,0,17c0,4.01,1.56,7.77,4.39,10.61C7.23,30.44,10.99,32,15,32c8.27,0,15-6.73,15-15   C30,8.73,23.27,2,15,2z M24,26.37V14h-6v2h4v11.95c-2.02,1.3-4.43,2.05-7,2.05c-2.52,0-4.93-0.71-7-2.05V16h4v-2H6v12.37   c-0.07-0.061-0.13-0.12-0.19-0.18C3.35,23.74,2,20.47,2,17C2,9.83,7.83,4,15,4s13,5.83,13,13C28,20.68,26.46,24.01,24,26.37z"/>
</g>
<g>
	<ellipse cx="15" cy="22" rx="3" ry="4"/>
</g>
</svg>
