<?xml version="1.0" encoding="utf-8"?>
<!-- Generator: Adobe Illustrator 16.0.0, SVG Export Plug-In . SVG Version: 6.00 Build 0)  -->
<svg xmlns="http://www.w3.org/2000/svg" xmlns:xlink="http://www.w3.org/1999/xlink" version="1.1" id="2573246501_Capa_1_grid" x="0px" y="0px" width="32px" height="32px" viewBox="0 0 32 32" enable-background="new 0 0 32 32" xml:space="preserve">
<g>
	<path d="M15,32c-4.007,0-7.774-1.561-10.607-4.394C1.56,24.773,0,21.007,0,17C0,8.729,6.729,2,15,2c8.271,0,15,6.729,15,15   C29.999,25.271,23.27,32,15,32z M15,4C7.832,4,2,9.832,2,17c0,3.473,1.352,6.737,3.807,9.192S11.527,30,15,30   c7.167,0,12.999-5.832,13-13C28,9.832,22.168,4,15,4z"/>
</g>
<g>
	<rect x="6" y="14" width="6" height="2"/>
</g>
<g>
	<rect x="18" y="14" width="6" height="2"/>
</g>
<g>
	<path d="M21.88,27.46C21.7,27.8,21.36,28,21,28c-0.15,0-0.3-0.03-0.45-0.1c-0.09-0.051-2.09-1.08-2.47-3.9h-6.16   c-0.38,2.82-2.38,3.85-2.47,3.9C9.3,27.97,9.15,28,9,28c-0.37,0-0.72-0.2-0.89-0.55c-0.25-0.49-0.05-1.09,0.43-1.34   C8.62,26.07,10,25.28,10,23c0-2.32-1.43-3.1-1.45-3.11c-0.49-0.239-0.69-0.84-0.44-1.34c0.24-0.49,0.84-0.689,1.34-0.439   c0.09,0.05,2.09,1.069,2.47,3.89h6.16c0.38-2.82,2.38-3.84,2.47-3.89c0.5-0.25,1.101-0.051,1.351,0.439   c0.239,0.5,0.04,1.101-0.45,1.34C21.4,19.92,20,20.7,20,23s1.4,3.08,1.46,3.11C21.94,26.37,22.13,26.97,21.88,27.46z"/>
</g>
</svg>
