<?xml version="1.0" encoding="utf-8"?>
<!-- Generator: Adobe Illustrator 16.0.0, SVG Export Plug-In . SVG Version: 6.00 Build 0)  -->
<svg xmlns="http://www.w3.org/2000/svg" xmlns:xlink="http://www.w3.org/1999/xlink" version="1.1" id="2573246494_Capa_1_grid" x="0px" y="0px" width="32px" height="32px" viewBox="0 0 32 32" enable-background="new 0 0 32 32" xml:space="preserve">
<g>
	<path d="M15,32c-4.007,0-7.774-1.561-10.607-4.394C1.56,24.773,0,21.007,0,17C0,8.729,6.729,2,15,2c8.271,0,15,6.729,15,15   C29.999,25.271,23.27,32,15,32z M15,4C7.832,4,2,9.832,2,17c0,3.473,1.352,6.737,3.807,9.192S11.527,30,15,30   c7.167,0,12.999-5.832,13-13C28,9.832,22.168,4,15,4z"/>
</g>
<g>
	<path d="M15,24c-2.201,0-3-1.794-3-3c0-0.553,0.448-1,1-1c0.549,0,0.995,0.442,1,0.99c0.012,0.461,0.196,1.01,1,1.01   c0.805,0,0.988-0.55,1-1.012c0.014-0.543,0.458-0.981,1-0.981c0.004,0,0.008,0,0.013,0C17.56,20.014,18,20.453,18,21   C18,22.206,17.201,24,15,24z"/>
</g>
<g>
	<g>
		<path d="M12,16h-2v-1c-0.012-0.45-0.195-1-1-1s-0.988,0.55-1,1.012V16H6v-1c0-1.206,0.799-3,3-3s3,1.794,3,3V16z"/>
	</g>
</g>
<g>
	<g>
		<path d="M24,16h-2v-1c-0.012-0.45-0.194-1-1-1s-0.988,0.55-1,1.012V16h-2v-1c0-1.206,0.799-3,3-3s3,1.794,3,3V16z"/>
	</g>
</g>
<g>
	<circle cx="7" cy="21" r="3"/>
</g>
<g>
	<circle cx="23" cy="21" r="3"/>
</g>
</svg>
