<?xml version="1.0" encoding="utf-8"?>
<!-- Generator: Adobe Illustrator 16.0.0, SVG Export Plug-In . SVG Version: 6.00 Build 0)  -->
<svg xmlns="http://www.w3.org/2000/svg" xmlns:xlink="http://www.w3.org/1999/xlink" version="1.1" id="2573246483_Capa_1_grid" x="0px" y="0px" width="32px" height="32px" viewBox="0 0 32 32" enable-background="new 0 0 32 32" xml:space="preserve">
<g>
	<path d="M25.04,5.86C25.65,5.35,26,4.74,26,4c0-2.95-5.68-4-11-4C9.68,0,4,1.05,4,4c0,0.74,0.35,1.35,0.96,1.86   C1.92,8.61,0,12.59,0,17c0,4.01,1.56,7.77,4.39,10.61C7.23,30.44,10.99,32,15,32c8.27,0,15-6.73,15-15   C30,12.59,28.08,8.61,25.04,5.86z M15,2c6.65,0,9,1.59,9,2c0,0.11-0.19,0.33-0.62,0.56c-0.49,0.29-1.28,0.61-2.45,0.88   C19.53,5.76,17.59,6,15,6s-4.53-0.24-5.93-0.56C7.9,5.17,7.11,4.85,6.62,4.56C6.19,4.33,6,4.11,6,4C6,3.59,8.35,2,15,2z M15,30   c-3.47,0-6.74-1.35-9.19-3.81C3.35,23.74,2,20.47,2,17c0-4.08,1.89-7.72,4.83-10.11C8.98,7.68,12.04,8,15,8s6.02-0.32,8.17-1.11   C26.11,9.28,28,12.92,28,17C28,24.17,22.17,30,15,30z"/>
</g>
<g>
	<ellipse cx="10" cy="15" rx="2" ry="3"/>
</g>
<g>
	<ellipse cx="20" cy="15" rx="2" ry="3"/>
</g>
<g>
	<path d="M15,24c-3.577,0-4.842-2.448-4.895-2.553c-0.247-0.494-0.047-1.095,0.447-1.342c0.491-0.244,1.086-0.049,1.336,0.437   C11.934,20.624,12.722,22,15,22c2.299,0,3.08-1.4,3.112-1.46c0.26-0.481,0.861-0.674,1.345-0.42   c0.485,0.251,0.682,0.839,0.438,1.327C19.843,21.552,18.577,24,15,24z"/>
</g>
</svg>
