<?xml version="1.0" encoding="utf-8"?>
<!-- Generator: Adobe Illustrator 16.0.0, SVG Export Plug-In . SVG Version: 6.00 Build 0)  -->
<svg xmlns="http://www.w3.org/2000/svg" xmlns:xlink="http://www.w3.org/1999/xlink" version="1.1" id="2573246493_Capa_1_grid" x="0px" y="0px" width="32px" height="32px" viewBox="0 0 32 32" enable-background="new 0 0 32 32" xml:space="preserve">
<g>
	<path d="M5.14,5.72C4.63,6.15,4.15,6.63,3.72,7.14L0.29,3.71l1.42-1.42L5.14,5.72z"/>
</g>
<g>
	<g>
		<path d="M15,26c-3.577,0-4.842-2.448-4.895-2.553c-0.247-0.494-0.047-1.095,0.447-1.342c0.491-0.244,1.086-0.049,1.336,0.437    C11.934,22.624,12.722,24,15,24c2.299,0,3.08-1.4,3.112-1.46c0.26-0.481,0.861-0.674,1.345-0.42    c0.485,0.251,0.682,0.839,0.438,1.327C19.843,23.552,18.577,26,15,26z"/>
	</g>
</g>
<g>
	<g>
		<path d="M13.55,16.17l-1.1,1.66l-0.51-0.34C11.73,18.91,10.99,20,10,20c-1.1,0-2-1.34-2-3c0-0.7,0.16-1.34,0.43-1.85l-1.98-1.32    l1.1-1.66L13.55,16.17z"/>
	</g>
</g>
<g>
	<g>
		<path d="M21.57,15.15C21.84,15.66,22,16.3,22,17c0,1.66-0.9,3-2,3c-0.99,0-1.73-1.09-1.94-2.51l-0.51,0.34l-1.1-1.66l6-4l1.1,1.66    L21.57,15.15z"/>
	</g>
</g>
<g>
	<path d="M25.3,6.12l2.41-2.41l-1.42-1.42l-2.54,2.54C21.29,3.05,18.27,2,15,2c-3.78,0-7.22,1.4-9.86,3.72   C4.63,6.15,4.15,6.63,3.72,7.14C1.4,9.78,0,13.22,0,17c0,4.01,1.56,7.77,4.39,10.61C7.23,30.44,10.99,32,15,32   c8.27,0,15-6.73,15-15C30,12.72,28.19,8.85,25.3,6.12z M16,29.96V28h-2v1.96c-3.09-0.229-5.98-1.55-8.19-3.77   C3.35,23.74,2,20.47,2,17c0-3.22,1.18-6.18,3.13-8.45l1.16,1.16l1.42-1.42L6.55,7.13C8.82,5.18,11.78,4,15,4   c2.71,0,5.23,0.83,7.32,2.26l-2.03,2.03l1.42,1.42l2.18-2.18C26.42,9.89,28,13.27,28,17C28,23.83,22.7,29.45,16,29.96z"/>
</g>
</svg>
