<?xml version="1.0" encoding="utf-8"?>
<!-- Generator: Adobe Illustrator 16.0.0, SVG Export Plug-In . SVG Version: 6.00 Build 0)  -->
<svg xmlns="http://www.w3.org/2000/svg" xmlns:xlink="http://www.w3.org/1999/xlink" version="1.1" id="2573246508_Capa_1_grid" x="0px" y="0px" width="32px" height="32px" viewBox="0 0 32 32" enable-background="new 0 0 32 32" xml:space="preserve">
<g>
	<path d="M29,4H3C0.8,4,0,5.79,0,7v23h32V7C32,4.8,30.21,4,29,4z M30,28H2v-2h28V28z M30,24H2V7.01C2.01,6.55,2.19,6,3,6h25.99   C29.45,6.01,30,6.19,30,7V24z"/>
</g>
<g>
	<rect x="12" y="12" width="16" height="2"/>
</g>
<g>
	<rect x="12" y="20" width="16" height="2"/>
</g>
<g>
	<rect x="12" y="8" width="8" height="2"/>
</g>
<g>
	<rect x="12" y="16" width="8" height="2"/>
</g>
<g>
	<path d="M4,8v6h6V8H4z M8,12H6v-2h2V12z"/>
</g>
<g>
	<path d="M4,16v6h6v-6H4z M8,20H6v-2h2V20z"/>
</g>
</svg>
