<?xml version="1.0" encoding="utf-8"?>
<!-- Generator: Adobe Illustrator 16.0.0, SVG Export Plug-In . SVG Version: 6.00 Build 0)  -->
<svg xmlns="http://www.w3.org/2000/svg" xmlns:xlink="http://www.w3.org/1999/xlink" version="1.1" id="2573246509_Capa_1_grid" x="0px" y="0px" width="32px" height="32px" viewBox="0 0 32 32" enable-background="new 0 0 32 32" xml:space="preserve">
<g>
	<path d="M8.93,2l2.668,4.003L11.006,6.89L8.93,10H2V2H8.93 M10,0H0v30h32V6H14L10,0L10,0z M28,28V8h2v20H28L28,28z M2,28V12h8   l2.67-4H26v20h-2.02c-0.351-7.91-4.79-8-4.98-8h-0.41L16,22.59L13.41,20H13c-0.19,0-4.63,0.09-4.98,8H2L2,28z M16,25.41l3.33-3.33   c0.76,0.26,2.43,1.34,2.65,5.92H10.02c0.22-4.6,1.91-5.67,2.64-5.92L16,25.41L16,25.41z"/>
</g>
<g>
	<path d="M16,10c-2.21,0-4,2.24-4,5s1.79,5,4,5s4-2.24,4-5S18.21,10,16,10L16,10z M16,18c-1.07,0-2-1.4-2-3s0.93-3,2-3   c1.07,0,2,1.4,2,3S17.07,18,16,18L16,18z"/>
</g>
</svg>
