<?xml version="1.0" encoding="utf-8"?>
<!-- Generator: Adobe Illustrator 16.0.0, SVG Export Plug-In . SVG Version: 6.00 Build 0)  -->
<svg xmlns="http://www.w3.org/2000/svg" xmlns:xlink="http://www.w3.org/1999/xlink" version="1.1" id="2573246511_Capa_1_grid" x="0px" y="0px" width="32px" height="32px" viewBox="0 0 32 32" enable-background="new 0 0 32 32" xml:space="preserve">
<g>
	<g>
		<path d="M29,32H18V20h5.153l0.666-4H18v-3c0-2.201,1.794-3,3-3h3V6h-5c-4.943,0-5,4.796-5,5v5h-4v4h4v12H3    c-1.218-0.025-3-0.845-3-3V3c0-1.198,0.796-2.979,2.989-2.979c0.433,0.004,1.685,0.006,3.442,0.006    C13.565,0.027,28.998,0,28.998,0C30.206,0,32,0.799,32,3v26C32,30.206,31.201,32,29,32z M3.01,2.021C2.096,2.021,2,2.706,2,3v26    c0,0.908,0.781,0.995,1.021,1H12v-8H8v-8h4v-3c0-2.421,1.463-7,7-7h7v8h-5c-0.45,0.012-1,0.195-1,1v1h6.181l-1.334,8H20v8h9    c0.806,0,0.988-0.55,1-1.012V3c0-0.805-0.55-0.988-1.012-1C28.958,2,4.989,2.041,3.01,2.021L3.01,2.021z"/>
	</g>
</g>
</svg>
