<?xml version="1.0" encoding="utf-8"?>
<!-- Generator: Adobe Illustrator 16.0.0, SVG Export Plug-In . SVG Version: 6.00 Build 0)  -->
<svg xmlns="http://www.w3.org/2000/svg" xmlns:xlink="http://www.w3.org/1999/xlink" version="1.1" id="2573246510_Capa_1_grid" x="0px" y="0px" width="32px" height="32px" viewBox="0 0 32 32" enable-background="new 0 0 32 32" xml:space="preserve">
<g>
	<g>
		<path d="M18,10V9c0-0.81,0.55-0.99,1-1h5V0.05L17,0c-5.54,0-7,4.58-7,7v3H6v8h4v14h8V18h4.85l1.33-8H18z M21.15,16H16v14h-4V16H8    v-4h4V7c0-0.2,0.06-5,4.99-5L22,2.03V6h-3c-1.21,0-3,0.8-3,3v3h5.82L21.15,16z"/>
	</g>
</g>
</svg>
