<?xml version="1.0" encoding="utf-8"?>
<!-- Generator: Adobe Illustrator 16.0.0, SVG Export Plug-In . SVG Version: 6.00 Build 0)  -->
<svg xmlns="http://www.w3.org/2000/svg" xmlns:xlink="http://www.w3.org/1999/xlink" version="1.1" id="2573246512_Capa_1_grid" x="0px" y="0px" width="32px" height="32px" viewBox="0 0 32 32" enable-background="new 0 0 32 32" xml:space="preserve">
<g>
	<path d="M29,6c-0.09,0-8.63-0.04-12.29-3.71L16,1.59l-0.71,0.7C11.64,5.95,3.09,6,3,6H2v1c0,0.77,0.16,18.79,13.71,22.96L16,30.05   l0.29-0.09C29.84,25.79,30,7.77,30,7V6H29z M16,27.95c-3.72-1.23-6.29-3.74-8.06-6.61l0.08-0.3c0.24-0.9,1.21-3.68,4.14-4.77   C12.58,17.98,13.89,20,17,20c1.56,0,2.67-0.91,3.05-2.48c0.46-1.979-0.34-4.93-1.96-7.1c2.76,0.64,6.561,2.26,7.811,6.37l0.14,0.45   C24.42,21.62,21.45,26.15,16,27.95z M26.98,14.2C23.63,8.07,15.38,8,15,8c-0.46,0-0.87,0.32-0.97,0.77   c-0.11,0.45,0.11,0.92,0.52,1.12c2.37,1.19,4.04,5.11,3.55,7.169C17.9,17.89,17.46,18,17,18c-2.82,0-2.99-2.5-3-3   c0-0.3-0.13-0.58-0.37-0.77c-0.23-0.19-0.53-0.27-0.83-0.21c-3.12,0.62-5.12,2.76-6.13,4.94c-2.01-4.4-2.51-9.03-2.63-10.99   C6.45,7.84,12.42,7.24,16,4.34c3.58,2.9,9.55,3.5,11.96,3.63C27.88,9.22,27.65,11.54,26.98,14.2z"/>
</g>
</svg>
