<?xml version="1.0" encoding="utf-8"?>
<!-- Generator: Adobe Illustrator 16.0.0, SVG Export Plug-In . SVG Version: 6.00 Build 0)  -->
<svg xmlns="http://www.w3.org/2000/svg" xmlns:xlink="http://www.w3.org/1999/xlink" version="1.1" id="2573246517_Capa_1_grid" x="0px" y="0px" width="32px" height="32px" viewBox="0 0 32 32" enable-background="new 0 0 32 32" xml:space="preserve">
<g>
	<path d="M21,0C10.13,0,10,10.89,10,11v1.06c-2.75,3.87-7.59,11.03-7.83,11.38c-0.87,1.29-1.95,4.27,0.14,6.279   c0.86,0.83,1.95,1.25,3.25,1.25c2.03,0,3.87-1.06,3.99-1.14c0.5-0.33,12.11-8.08,14.16-10.12c2.14-2.14,0.28-5.13-1-6.42l-4-4   c-0.14-0.14-1.43-1.37-3.3-1.37c-1.17,0-2.25,0.46-3.24,1.39C12.66,6.7,14.43,2,21,2c8.87,0,9,10.55,9,11c0,0.69-0.17,17-13,17   c-0.55,0-1,0.45-1,1s0.45,1,1,1c14.83,0,15-18.81,15-19C32,8.5,29.7,0,21,0z M15.41,9.92c1.06,0,1.88,0.78,1.88,0.79l4,4   c0.02,0.02,2.27,2.32,1,3.58c-0.08,0.08-0.19,0.18-0.31,0.28l-8.09-8.09C14.39,10.11,14.89,9.92,15.41,9.92z M12.54,11.95   l7.88,7.88c-3.24,2.45-9.35,6.59-11.92,8.31c-0.02,0-1.46,0.83-2.94,0.83c-0.77,0-1.38-0.22-1.87-0.689   c-1.4-1.351,0.08-3.63,0.14-3.721C3.9,24.46,10.18,15.17,12.54,11.95z"/>
</g>
</svg>
