<?xml version="1.0" encoding="utf-8"?>
<!-- Generator: Adobe Illustrator 16.0.0, SVG Export Plug-In . SVG Version: 6.00 Build 0)  -->
<svg xmlns="http://www.w3.org/2000/svg" xmlns:xlink="http://www.w3.org/1999/xlink" version="1.1" id="2573246518_Capa_1_grid" x="0px" y="0px" width="32px" height="32px" viewBox="0 0 32 32" enable-background="new 0 0 32 32" xml:space="preserve">
<g>
	<polygon points="12,14 12,16 10,16 10,18 8,18 8,16 6,16 6,14 8,14 8,12 10,12 10,14  "/>
	<g>
		<circle cx="20" cy="14" r="2"/>
	</g>
	<g>
		<circle cx="26" cy="16" r="2"/>
	</g>
	<path d="M26.28,6.74C25.74,6.26,25.04,6,24.31,6H7.689C6.971,6,6.27,6.26,5.721,6.73C4.38,7.9,0,12.37,0,21.04   C0.061,23.96,2.109,26,5,26c1.62,0,3.04-1.02,4.689-2.22C11.38,22.54,13.471,21,16,21c2.51,0,4.55,1.49,6.36,2.82   C23.98,24.99,25.38,26,27,26c2.89,0,4.94-2.04,5-5.01C32,12.4,27.62,7.91,26.28,6.74z M27,24c-0.91,0-1.92-0.68-3.47-1.8   C21.58,20.77,19.16,19,16,19c-3.18,0-5.67,1.83-7.49,3.17C6.93,23.31,5.91,24,5,24c-1.811,0-2.96-1.15-3-3   C2,13.21,5.85,9.27,7.029,8.24C7.221,8.09,7.45,8,7.689,8h16.62c0.24,0,0.471,0.09,0.66,0.25C26.15,9.28,30,13.24,30,20.99   C29.96,22.85,28.81,24,27,24z"/>
</g>
</svg>
