<?xml version="1.0" encoding="utf-8"?>
<!-- Generator: Adobe Illustrator 16.0.0, SVG Export Plug-In . SVG Version: 6.00 Build 0)  -->
<svg xmlns="http://www.w3.org/2000/svg" xmlns:xlink="http://www.w3.org/1999/xlink" version="1.1" id="2573246519_Capa_1_grid" x="0px" y="0px" width="32px" height="32px" viewBox="0 0 32 32" enable-background="new 0 0 32 32" xml:space="preserve">
<g>
	<path d="M27.12,10C27.65,9.27,28,8.29,28,7c0-3.96-3.27-5-5-5c-3.24,0-6.43,2.27-8,5.22C13.43,4.27,10.24,2,7,2C5.27,2,2,3.04,2,7   c0,1.29,0.35,2.27,0.88,3H0v19c0,1.21,0.8,3,3,3h24c1.21,0,3-0.8,3-3V10H27.12z M22.99,4C23.5,4.01,26,4.18,26,7s-2.5,2.99-3.01,3   h-6.9C16.68,6.89,19.86,4,22.99,4z M7,4c3.14,0,6.32,2.89,6.91,6h-6.9C6.5,9.99,4,9.82,4,7S6.5,4.01,7,4z M2,16h10v4H2V16z M12,30   H3c-0.81,0-0.99-0.55-1-1v-3h10V30z M28,29c0,0.81-0.55,0.99-1,1h-9v-4h10V29z M28,24H16v6h-2v-6H2v-2h12v-6h2v6h12V24z M28,20H18   v-4h10V20z M28,14H2v-2h26V14z"/>
</g>
</svg>
