<?xml version="1.0" encoding="utf-8"?>
<!-- Generator: Adobe Illustrator 16.0.0, SVG Export Plug-In . SVG Version: 6.00 Build 0)  -->
<svg xmlns="http://www.w3.org/2000/svg" xmlns:xlink="http://www.w3.org/1999/xlink" version="1.1" id="2573246520_Capa_1_grid" x="0px" y="0px" width="32px" height="32px" viewBox="0 0 32 32" enable-background="new 0 0 32 32" xml:space="preserve">
<g>
	<path d="M32,32H12v-1c0-3.113,1.463-9,7-9h0.303L22,23.798L24.697,22H25c5.537,0,7,5.887,7,9V32z M14.064,30h15.871   c-0.205-1.891-1.063-5.792-4.645-5.992L22,26.202l-3.291-2.194C15.127,24.208,14.27,28.109,14.064,30z"/>
</g>
<g>
	<path d="M22,22c-3.309,0-6-3.141-6-7c0-3.86,2.691-7,6-7s6,3.14,6,7C28,18.859,25.309,22,22,22z M22,10c-2.206,0-4,2.243-4,5   s1.794,5,4,5s4-2.243,4-5S24.206,10,22,10z"/>
</g>
<g>
	<path d="M12,24H0v-1c0-3.113,1.463-9,7-9h0.303L10,15.798l2.445-1.63l1.109,1.664L10,18.202l-3.291-2.194   C3.127,16.208,2.27,20.109,2.064,22H12V24z"/>
</g>
<g>
	<path d="M10,14c-3.309,0-6-3.14-6-7s2.691-7,6-7s6,3.14,6,7S13.309,14,10,14z M10,2C7.794,2,6,4.243,6,7s1.794,5,4,5s4-2.243,4-5   S12.206,2,10,2z"/>
</g>
</svg>
