<?xml version="1.0" encoding="utf-8"?>
<!-- Generator: Adobe Illustrator 16.0.0, SVG Export Plug-In . SVG Version: 6.00 Build 0)  -->
<svg xmlns="http://www.w3.org/2000/svg" xmlns:xlink="http://www.w3.org/1999/xlink" version="1.1" id="2573246522_Capa_1_grid" x="0px" y="0px" width="32px" height="32px" viewBox="0 0 32 32" enable-background="new 0 0 32 32" xml:space="preserve">
<g>
	<path d="M32,3v22c0,1.21-0.8,3-3,3H14.27L7.5,31.87C7.34,31.96,7.17,32,7,32s-0.35-0.04-0.5-0.13C6.19,31.69,6,31.36,6,31v-3H0v-2   h7c0.55,0,1,0.45,1,1v2.28l5.5-3.15C13.65,26.05,13.83,26,14,26h15c0.81,0,0.99-0.55,1-1.01V3c0-0.81-0.55-0.99-1.01-1H5   C4.19,2,4.01,2.55,4,3.01V19c0,0.55-0.45,1-1,1H0v-2h2V3c0-1.21,0.8-3,3-3h24C30.21,0,32,0.8,32,3z"/>
</g>
<g>
	<path d="M26.71,5.29c-1.03-1.03-2.22-1.55-3.52-1.55c-2.141,0-3.79,1.45-3.9,1.55l-11,11C8.11,16.48,8,16.73,8,17v5H0v2h15   c0.27,0,0.52-0.11,0.71-0.29l11.04-11.04C27.94,11.32,29.47,8.06,26.71,5.29z M10,22v-4.58L14.58,22H10z M16,20.58L11.42,16   L18,9.42L22.58,14L16,20.58z M25.29,11.29L24,12.58L19.42,8l1.25-1.25c0.01-0.01,1.16-1.01,2.521-1.01c0.77,0,1.449,0.32,2.1,0.97   C27.37,8.79,25.47,11.08,25.29,11.29z"/>
</g>
</svg>
