<?xml version="1.0" encoding="utf-8"?>
<!-- Generator: Adobe Illustrator 16.0.0, SVG Export Plug-In . SVG Version: 6.00 Build 0)  -->
<svg xmlns="http://www.w3.org/2000/svg" xmlns:xlink="http://www.w3.org/1999/xlink" version="1.1" id="2573246523_Capa_1_grid" x="0px" y="0px" width="32px" height="32px" viewBox="0 0 32 32" enable-background="new 0 0 32 32" xml:space="preserve">
<g>
	<path d="M15,32c-1.591,0-15-9.472-15-20C0,8.541,1.672,2,8,2c3.669,0,5.852,2.052,7,4.111C16.148,4.052,18.331,2,22,2   c6.328,0,8,6.541,8,10C30,22.528,16.591,32,15,32z M8,4c-5.909,0-5.999,7.675-6,8.001c0,8.701,10.984,16.988,13,17.947   C17.016,28.989,28,20.702,28,12c-0.001-0.325-0.091-8-6-8c-5.094,0-5.979,4.954-6.014,5.165C15.906,9.646,15.489,10,15,10   s-0.906-0.354-0.986-0.835C13.978,8.957,13.059,4,8,4z"/>
</g>
</svg>
