<?xml version="1.0" encoding="utf-8"?>
<!-- Generator: Adobe Illustrator 16.0.0, SVG Export Plug-In . SVG Version: 6.00 Build 0)  -->
<svg xmlns="http://www.w3.org/2000/svg" xmlns:xlink="http://www.w3.org/1999/xlink" version="1.1" id="2573246525_Capa_1_grid" x="0px" y="0px" width="32px" height="32px" viewBox="0 0 32 32" enable-background="new 0 0 32 32" xml:space="preserve">
<g>
	<path d="M22,2h-2.51C18.92,0.92,17.81,0,16,0c-1.81,0-2.92,0.92-3.49,2H10C8.39,2,6,3.07,6,6v20c0,1.61,1.07,4,4,4h2.48   c0.77,1.44,2.35,2,3.52,2s2.75-0.56,3.52-2H22c2.93,0,4-2.39,4-4V6C26,3.07,23.61,2,22,2z M12,28h-2c-1.83,0-1.99-1.54-2-2V6   c0-1.83,1.54-1.99,2-2h2V28z M18,28c0,1.82-1.53,1.99-2,2c-0.35,0-2-0.11-2-2V4c0-0.33,0.1-2,2-2c1.83,0,1.99,1.54,2,2V28z M24,26   c0,0.33-0.1,2-2,2h-2V4h2c0.33,0,2,0.1,2,2V26z"/>
</g>
</svg>
