<?xml version="1.0" encoding="utf-8"?>
<!-- Generator: Adobe Illustrator 16.0.0, SVG Export Plug-In . SVG Version: 6.00 Build 0)  -->
<svg xmlns="http://www.w3.org/2000/svg" xmlns:xlink="http://www.w3.org/1999/xlink" version="1.1" id="2573246526_Capa_1_grid" x="0px" y="0px" width="32px" height="32px" viewBox="0 0 32 32" enable-background="new 0 0 32 32" xml:space="preserve">
<g>
	<path d="M27.97,22.16C26.22,18.05,20.27,18,20,18c-2.6,0-7.65,1.27-8.87,6H6v2h6.99c0.46,0.01,1.01,0.19,1.01,1s-0.55,0.99-1,1   H5.01C4.55,27.99,4,27.81,4,27c0-7.47,3.47-8.74,4.63-8.96l2.66,2.67l1.42-1.42L9.41,16H9c-0.07,0-7,0.13-7,11   c0,1.64,0.99,2.5,2,2.83V32h2v-2h4v2h2v-2h1c1.21,0,3-0.8,3-3c0-2.07-1.59-2.9-2.79-2.99C14.62,20.07,19.77,20,20,20   c0.04,0,3.76,0.03,5.52,2H23c-1.21,0-3,0.8-3,3s1.79,3,3,3h3v4h2v-4.17c1.01-0.33,2-1.19,2-2.83C30,23.34,28.99,22.48,27.97,22.16z    M26.99,26h-3.98C22.55,25.99,22,25.81,22,25s0.55-0.99,1-1h3.99c0.46,0.01,1.01,0.19,1.01,1C28,25.8,27.45,25.99,26.99,26z"/>
</g>
<g>
	<path d="M20,4c-1.13,0-2.19,0.36-3.09,1C15.84,3.18,14.04,2,12,2C8.69,2,6,5.13,6,9s2.69,7,6,7c1.13,0,2.19-0.36,3.09-1   c1.07,1.82,2.87,3,4.91,3c3.31,0,6-3.13,6-7S23.31,4,20,4z M14,11c0,0.74,0.1,1.45,0.28,2.11C13.63,13.67,12.84,14,12,14   c-2.21,0-4-2.24-4-5s1.79-5,4-5c1.47,0,2.75,0.99,3.44,2.46C14.54,7.68,14,9.26,14,11z M20,16c-2.21,0-4-2.24-4-5s1.79-5,4-5   s4,2.24,4,5S22.21,16,20,16z"/>
</g>
</svg>
