<?xml version="1.0" encoding="utf-8"?>
<!-- Generator: Adobe Illustrator 16.0.0, SVG Export Plug-In . SVG Version: 6.00 Build 0)  -->
<svg xmlns="http://www.w3.org/2000/svg" xmlns:xlink="http://www.w3.org/1999/xlink" version="1.1" id="2573246532_Capa_1_grid" x="0px" y="0px" width="32px" height="32px" viewBox="0 0 32 32" enable-background="new 0 0 32 32" xml:space="preserve">
<g>
	<path d="M30,13c-4-2-4-7-9-7c-4.03,0-5,3-5,3s-1-3-5-3c-5,0-5,5-9,7c-2,1-2,1-2,1c0.02,0.11,0.08,0.39,0.08,0.39   C2.3,26,16,26,16,26s13.7,0,15.92-11.61c0,0,0.061-0.28,0.08-0.39C32,14,32,14,30,13z M16,24c-0.43,0-9.11-0.09-12.69-6.47   C4.05,17.82,4.93,18,6,18c1.8,0,2.77-0.65,3.55-1.17C10.25,16.37,10.8,16,12,16c2.25,0,3.04,1.9,3.07,1.97   c0.14,0.391,0.51,0.641,0.92,0.641c0.01,0,0.01,0,0.01,0c0.41,0,0.78-0.25,0.93-0.63C16.96,17.9,17.75,16,20,16   c0.49,0,0.75,0.17,1.3,0.56C22.16,17.17,23.34,18,26,18c1.06,0,1.95-0.18,2.68-0.46C25.09,23.87,16.42,24,16,24z M26,16   c-2.03,0-2.8-0.54-3.54-1.07C21.84,14.49,21.15,14,20,14c-1.98,0-3.24,0.92-4,1.78C15.24,14.92,13.98,14,12,14   c-1.8,0-2.77,0.65-3.55,1.17C7.75,15.63,7.2,16,6,16c-1.61,0-2.62-0.57-3.23-1.15l0.12-0.06c2.12-1.06,3.33-2.75,4.31-4.12   C8.53,8.82,9.19,8,11,8c2.35,0,3.01,1.39,3.1,1.63c0.25,0.86,1,1.48,1.89,1.48c0.01,0,0.01,0,0.01,0c0.9,0,1.65-0.58,1.89-1.45   C17.99,9.38,18.64,8,21,8c1.81,0,2.47,0.82,3.8,2.67c0.98,1.37,2.19,3.06,4.311,4.12l0.13,0.06C28.63,15.43,27.62,16,26,16z"/>
</g>
</svg>
