<?xml version="1.0" encoding="utf-8"?>
<!-- Generator: Adobe Illustrator 16.0.0, SVG Export Plug-In . SVG Version: 6.00 Build 0)  -->
<svg xmlns="http://www.w3.org/2000/svg" xmlns:xlink="http://www.w3.org/1999/xlink" version="1.1" id="2573246533_Capa_1_grid" x="0px" y="0px" width="32px" height="32px" viewBox="0 0 32 32" enable-background="new 0 0 32 32" xml:space="preserve">
<g>
	<path d="M0,4v26h32V4H0z M2,6h28v6H2V6z M30,28H2V14h28V28z"/>
</g>
<g>
	<rect x="26" y="8" width="2" height="2"/>
</g>
<g>
	<rect x="22" y="8" width="2" height="2"/>
</g>
<g>
	<rect x="18" y="8" width="2" height="2"/>
</g>
<path d="M12,18v6H6v-6H12 M14,16H4v10h10V16L14,16z"/>
<path d="M26,18v2h-8v-2H26 M28,16H16v6h12V16L28,16z"/>
<rect x="16" y="24" width="12" height="2"/>
</svg>
