<?xml version="1.0" encoding="utf-8"?>
<!-- Generator: Adobe Illustrator 16.0.0, SVG Export Plug-In . SVG Version: 6.00 Build 0)  -->
<svg xmlns="http://www.w3.org/2000/svg" xmlns:xlink="http://www.w3.org/1999/xlink" version="1.1" id="2573246534_Capa_1_grid" x="0px" y="0px" width="32px" height="32px" viewBox="0 0 32 32" enable-background="new 0 0 32 32" xml:space="preserve">
<g>
	<path d="M13.32,14c-1.14-2.42-3.59-4-6.32-4c-3.86,0-7,3.14-7,7c0,3.86,3.14,7,7,7c2.73,0,5.18-1.58,6.32-4H22v4h8v-4h2v-6H13.32z    M30,18h-2v4h-4v-4H11.94l-0.23,0.67C11.01,20.66,9.12,22,7,22c-2.76,0-5-2.24-5-5s2.24-5,5-5c2.12,0,4.01,1.34,4.71,3.33L11.94,16   H30V18z"/>
</g>
<g>
	<path d="M7,14c-1.66,0-3,1.34-3,3s1.34,3,3,3s3-1.34,3-3S8.66,14,7,14z M7,18c-0.55,0-1-0.45-1-1s0.45-1,1-1s1,0.45,1,1   S7.55,18,7,18z"/>
</g>
<g>
	<rect x="18" y="2" width="2" height="10"/>
</g>
<g>
	<rect x="18" y="22" width="2" height="10"/>
</g>
</svg>
