<?xml version="1.0" encoding="utf-8"?>
<!-- Generator: Adobe Illustrator 16.0.0, SVG Export Plug-In . SVG Version: 6.00 Build 0)  -->
<svg xmlns="http://www.w3.org/2000/svg" xmlns:xlink="http://www.w3.org/1999/xlink" version="1.1" id="2573246536_Capa_1_grid" x="0px" y="0px" width="32px" height="32px" viewBox="0 0 32 32" enable-background="new 0 0 32 32" xml:space="preserve">
<g>
	<g>
		<path d="M25.98,22.16C24.68,18.89,21.55,18,20,18h-2c-1.16,0-3,0.46-4.52,1.84c-1.98-1.22-2.95-2.78-3.39-4.2    C10.69,15.87,11.33,16,12,16c0.55,0,1.09-0.09,1.6-0.25C14.69,17.13,16.26,18,18,18c3.31,0,6-3.13,6-7s-2.69-7-6-7    c-0.55,0-1.09,0.09-1.6,0.25C15.31,2.86,13.74,2,12,2C9.04,2,6.58,4.5,6.09,7.8c-0.3,0.02-0.58,0.11-0.85,0.27    C4.79,8.34,4.46,8.79,4.33,9.3l-0.24,0.97c-0.02,0.07-0.91,3.82,0.58,7.9C3.24,19.73,2,22.4,2,27c0,1.64,0.99,2.5,2,2.83V32h2v-2    h4.02C10.01,30.32,10,30.66,10,31v1h2v-1c0-0.34,0.01-0.68,0.02-1H15c1.21,0,3-0.8,3-3c0-1.86-1.28-2.72-2.41-2.94    c-0.1-0.02-0.21-0.04-0.31-0.04C15.18,24,15.09,24,15,24h-2.23l-0.22-0.11c-0.43-0.21-0.83-0.439-1.21-0.67    c-7.2-4.479-5.33-12.37-5.31-12.46l0.09-0.35c0.25,1.39,0.84,2.63,1.68,3.58c0.15,2.18,1.04,5.21,4.39,7.399    c0.39,0.25,0.81,0.49,1.26,0.721l0.49,0.239c0.44-0.659,0.96-1.14,1.47-1.479C16.66,20.03,17.91,20,18,20h2    c0.03,0,2.33,0.03,3.64,2H23c-1.21,0-3,0.8-3,3s1.79,3,3,3h1v4h2v-4.17c1.01-0.33,2-1.19,2-2.83C28,23.35,26.99,22.49,25.98,22.16    z M8.97,24H6v2h8.99c0.46,0.01,1.01,0.19,1.01,1s-0.55,0.99-1,1H5.01C4.55,27.99,4,27.81,4,27c0-3.39,0.71-5.5,1.61-6.82    C6.38,21.52,7.46,22.83,8.97,24z M22,11c0,2.76-1.79,5-4,5s-4-2.24-4-5s1.79-5,4-5S22,8.24,22,11z M8.17,10.44    c-0.02-0.06-0.03-0.13-0.04-0.19C8.04,9.85,8,9.43,8,9c0-0.28,0.02-0.56,0.06-0.83C8.37,5.8,10.02,4,12,4c1,0,1.92,0.46,2.6,1.22    C13.03,6.49,12,8.6,12,11c0,1.06,0.2,2.06,0.56,2.95C12.38,13.98,12.19,14,12,14c-0.83,0-1.61-0.32-2.25-0.87    C9,12.49,8.43,11.55,8.17,10.44z M24.99,26h-1.98C22.55,25.99,22,25.81,22,25s0.55-0.99,1-1h1.99c0.46,0.01,1.01,0.19,1.01,1    C26,25.8,25.45,25.99,24.99,26z"/>
	</g>
</g>
</svg>
