<?xml version="1.0" encoding="utf-8"?>
<!-- Generator: Adobe Illustrator 16.0.0, SVG Export Plug-In . SVG Version: 6.00 Build 0)  -->
<svg xmlns="http://www.w3.org/2000/svg" xmlns:xlink="http://www.w3.org/1999/xlink" version="1.1" id="2573246539_Capa_1_grid" x="0px" y="0px" width="32px" height="32px" viewBox="0 0 32 32" enable-background="new 0 0 32 32" xml:space="preserve">
<g>
	<path d="M29.38,2.08c-0.37-0.16-0.8-0.07-1.09,0.21L16,14.59V5.41l2.29,2.3C18.49,7.9,18.74,8,19,8s0.51-0.1,0.71-0.29   c0.39-0.39,0.39-1.03,0-1.42l-4-4c-0.39-0.39-1.03-0.39-1.42,0l-4,4c-0.39,0.39-0.39,1.03,0,1.42s1.03,0.39,1.42,0L14,5.41v9.18   L1.71,2.29C1.42,2.01,0.99,1.92,0.62,2.08C0.24,2.23,0,2.6,0,3v21h10.46L15,30.8l4.54-6.8H30V3C30,2.6,29.76,2.23,29.38,2.08z    M2,5.41l6.54,6.55L2,20.15V5.41z M19,22c-0.33,0-0.65,0.17-0.83,0.45L15,27.2l-3.17-4.75C11.65,22.17,11.33,22,11,22H3.08   l6.89-8.61l4.32,4.32c0.39,0.39,1.03,0.39,1.42,0l4.32-4.32L26.91,22H19z M28,20.15l-6.54-8.19L28,5.41V20.15z"/>
</g>
<g>
	<circle cx="5" cy="3" r="1"/>
</g>
<g>
	<circle cx="9" cy="3" r="1"/>
</g>
<g>
	<circle cx="21" cy="3" r="1"/>
</g>
<g>
	<circle cx="25" cy="3" r="1"/>
</g>
</svg>
