<?xml version="1.0" encoding="utf-8"?>
<!-- Generator: Adobe Illustrator 16.0.0, SVG Export Plug-In . SVG Version: 6.00 Build 0)  -->
<svg xmlns="http://www.w3.org/2000/svg" xmlns:xlink="http://www.w3.org/1999/xlink" version="1.1" id="2573246540_Capa_1_grid" x="0px" y="0px" width="32px" height="32px" viewBox="0 0 32 32" enable-background="new 0 0 32 32" xml:space="preserve">
<rect x="12" y="26" width="8" height="2"/>
<g>
	<path d="M26,10V0H6v10H2v10h4v12h20V20h4V10H26z M8,2h16v4H8V2z M4,18v-6h6v2h2v4H4z M24,30H8v-6h16V30z M24,22H8v-2h6v-8h-2v-2H8   V8h16v2h-6v6h2v4h4V22z M28,18h-6v-4h-2v-2h8V18z"/>
</g>
</svg>
