<?xml version="1.0" encoding="utf-8"?>
<!-- Generator: Adobe Illustrator 16.0.0, SVG Export Plug-In . SVG Version: 6.00 Build 0)  -->
<svg xmlns="http://www.w3.org/2000/svg" xmlns:xlink="http://www.w3.org/1999/xlink" version="1.1" id="2573246542_Capa_1_grid" x="0px" y="0px" width="32px" height="32px" viewBox="0 0 32 32" enable-background="new 0 0 32 32" xml:space="preserve">
<g>
	<g>
		<path d="M16.12,2.34c-1.74-2.33-4.08-2.35-4.18-2.35c-4.88,0-7.34,4.41-7.95,6.67c-2.77,8.07,0.78,12.41,3,14.21    c-1.94,1.1-4.95,3.22-5.15,5.81c-0.13,1.551,0.73,2.95,2.55,4.141c1.07,0.699,2.13,1.06,3.18,1.06c5.76,0,8.15-10.479,8.39-11.59    C18.53,11.69,18.58,5.65,16.12,2.34z M14.02,19.79c-0.55,2.62-2.93,10.09-6.45,10.09c-0.65,0-1.35-0.25-2.08-0.729    c-1.16-0.761-1.72-1.54-1.66-2.311C3.97,25,7.29,22.83,9.35,21.9l1.98-0.9l-1.97-0.92C9.09,19.95,2.62,16.8,5.91,7.25    c0.05-0.22,1.48-5.26,6.02-5.26c0.06,0,1.5,0.05,2.62,1.6C15.94,5.51,16.99,9.87,14.02,19.79z"/>
	</g>
</g>
<g>
	<path d="M30.35,10.89c-0.18-1.18-0.81-2.13-1.84-2.75C27.97,7.82,27.4,7.65,26.8,7.65c-4.39,0-8.05,9.16-8.72,10.97   c-2.42,5.8-2.93,9.82-1.51,11.95C17.49,31.96,18.85,32,19,32c1.78,0,3.15-0.6,4.07-1.79c1.68-2.15,1.26-5.6,1.01-6.92   C25.63,21.52,30.97,15.08,30.35,10.89z M22.03,23.24c0.26,1.069,0.68,4.189-0.54,5.74C20.96,29.67,20.14,30,19,30   c0,0-0.44-0.04-0.77-0.54c-0.461-0.7-1.23-3.07,1.71-10.11c1.51-4.03,4.64-9.7,6.859-9.7c0.23,0,0.46,0.07,0.69,0.21   c0.51,0.31,0.79,0.73,0.88,1.32c0.46,3.12-4.25,9.1-6.11,11.15L21.9,22.72L22.03,23.24z"/>
</g>
</svg>
