<?xml version="1.0" encoding="utf-8"?>
<!-- Generator: Adobe Illustrator 16.0.0, SVG Export Plug-In . SVG Version: 6.00 Build 0)  -->
<svg xmlns="http://www.w3.org/2000/svg" xmlns:xlink="http://www.w3.org/1999/xlink" version="1.1" id="2573246545_Capa_1_grid" x="0px" y="0px" width="32px" height="32px" viewBox="0 0 32 32" enable-background="new 0 0 32 32" xml:space="preserve">
<g>
	<path d="M16,0c-2.21,0-4,2.24-4,5s1.79,5,4,5s4-2.24,4-5S18.21,0,16,0z M16,8c-1.07,0-2-1.4-2-3s0.93-3,2-3c1.07,0,2,1.4,2,3   S17.07,8,16,8z"/>
</g>
<g>
	<path d="M29,18h-5.02c-0.351-7.91-4.79-8-4.98-8h-0.41L16,12.59L13.41,10H13c-0.19,0-4.63,0.09-4.98,8H3c-2.2,0-3,1.79-3,3v8   c0,2.2,1.79,3,3,3h26c2.2,0,3-1.79,3-3v-8C32,18.8,30.21,18,29,18z M12.66,12.08L16,15.41l3.33-3.33c0.76,0.26,2.43,1.34,2.65,5.92   H10.02C10.24,13.4,11.93,12.33,12.66,12.08z M30,28.99C29.99,29.45,29.81,30,29,30H3.01C2.55,29.99,2,29.81,2,29v-7.99   C2.01,20.55,2.19,20,3,20h25.99c0.46,0.01,1.01,0.19,1.01,1V28.99z"/>
</g>
<g>
	<polygon points="28,26 28,28 4,28 4,22 6,22 6,26 8,26 8,24 10,24 10,26 12,26 12,24 14,24 14,26 16,26 16,22 18,22 18,26 20,26    20,24 22,24 22,26 24,26 24,24 26,24 26,26  "/>
</g>
</svg>
