<?xml version="1.0" encoding="utf-8"?>
<!-- Generator: Adobe Illustrator 16.0.0, SVG Export Plug-In . SVG Version: 6.00 Build 0)  -->
<svg xmlns="http://www.w3.org/2000/svg" xmlns:xlink="http://www.w3.org/1999/xlink" version="1.1" id="2573246546_Capa_1_grid" x="0px" y="0px" width="32px" height="32px" viewBox="0 0 32 32" enable-background="new 0 0 32 32" xml:space="preserve">
<g>
	<path d="M11,12H7c-2.2,0-3,1.79-3,3v8c0,2.2,1.79,3,3,3h1v4H6v2h6v-2h-2v-4h1c2.2,0,3-1.79,3-3v-8C14,12.8,12.21,12,11,12z    M12,22.99c0,0,0,1.01-1,1.01H7.01C6,24,6,23,6,23v-3h6V22.99z M12,18H6v-2.99c0,0,0-1.01,1-1.01h3.99c0,0,1.01,0,1.01,1V18z"/>
</g>
<g>
	<path d="M17,0C10.47,0,4.91,4.18,2.86,10H5c0.29-0.7,0.64-1.37,1.05-2h2.91c-0.17,0.7-0.32,1.37-0.43,2h2.05   c0.12-0.64,0.27-1.31,0.46-2H16v20h-2v2h3c8.28,0,15-6.72,15-15C32,6.72,25.28,0,17,0z M9.53,6h-1.9c0.8-0.84,1.72-1.57,2.72-2.16   C10.03,4.56,9.76,5.29,9.53,6z M16,6h-4.34c0.4-1.15,0.91-2.32,1.55-3.43C14.1,2.29,15.04,2.11,16,2.05V6z M27.95,8   c1.13,1.76,1.84,3.81,2.01,6h-3.99c-0.069-1.22-0.29-3.45-0.92-6H27.95z M26.37,6h-1.9c-0.229-0.71-0.5-1.44-0.81-2.16   C24.66,4.44,25.57,5.16,26.37,6z M18,2.05c0.96,0.06,1.89,0.24,2.78,0.52C21.43,3.68,21.94,4.85,22.33,6H18V2.05z M18,8h4.96   c0.68,2.52,0.92,4.77,1,6H18V8z M20.78,27.43c-0.891,0.28-1.82,0.46-2.78,0.53V24h4.34C21.94,25.15,21.43,26.32,20.78,27.43z    M18,22v-6h5.96c-0.08,1.23-0.32,3.48-1,6H18z M23.66,26.16c0.31-0.72,0.58-1.45,0.81-2.16h1.9   C25.57,24.84,24.66,25.56,23.66,26.16z M27.95,22h-2.9c0.63-2.55,0.851-4.78,0.92-6h3.99C29.79,18.19,29.08,20.24,27.95,22z"/>
</g>
</svg>
