<?xml version="1.0" encoding="utf-8"?>
<!-- Generator: Adobe Illustrator 16.0.0, SVG Export Plug-In . SVG Version: 6.00 Build 0)  -->
<svg xmlns="http://www.w3.org/2000/svg" xmlns:xlink="http://www.w3.org/1999/xlink" version="1.1" id="2573246548_Capa_1_grid" x="0px" y="0px" width="32px" height="32px" viewBox="0 0 32 32" enable-background="new 0 0 32 32" xml:space="preserve">
<g>
	<path d="M25,6h-0.7l3.25-2.17C27.83,3.65,28,3.33,28,3c0-0.12-0.06-3-5-3c-3.36,0-6.61,2.44-8,3.65C13.61,2.44,10.36,0,7,0   C2.06,0,2,2.88,2,3c0,0.33,0.17,0.65,0.45,0.83L5.7,6H5c-3.96,0-5,4.58-5,7c0,0.31,0.14,0.6,0.38,0.79   c0.25,0.19,0.56,0.25,0.86,0.18l4.94-1.23c-1.45,2-2.08,3.88-1.87,5.59c0.29,2.37,2.1,3.479,2.18,3.53   c0.43,0.26,1,0.149,1.31-0.261L12,16v14H9c-0.55,0-1,0.45-1,1s0.45,1,1,1h12c0.55,0,1-0.45,1-1s-0.45-1-1-1h-3V16l4.2,5.6   C22.4,21.86,22.7,22,23,22c0.18,0,0.35-0.05,0.51-0.14c0.08-0.051,1.891-1.16,2.181-3.53c0.21-1.71-0.421-3.59-1.87-5.59   l4.939,1.23c0.3,0.07,0.61,0.01,0.86-0.18C29.86,13.6,30,13.31,30,13C30,10.58,28.96,6,25,6z M16,30h-2v-4h2V30z M16,24h-2v-4h2V24   z M21.24,10.03c-0.431-0.11-0.891,0.09-1.11,0.48c-0.22,0.39-0.16,0.88,0.16,1.2c2.43,2.43,3.61,4.62,3.42,6.34   c-0.07,0.641-0.32,1.12-0.58,1.46L17.8,12.4c-0.26-0.34-0.71-0.49-1.12-0.35C16.28,12.19,16,12.57,16,13v5h-2v-5   c0-0.43-0.28-0.81-0.68-0.95c-0.41-0.13-0.86,0.01-1.12,0.35l-5.33,7.11c-0.25-0.34-0.5-0.81-0.58-1.42   c-0.21-1.73,0.97-3.94,3.42-6.38c0.31-0.32,0.38-0.81,0.16-1.2c-0.22-0.39-0.67-0.59-1.11-0.48l-6.64,1.66C2.35,10.21,3.03,8,5,8h4   c0.44,0,0.83-0.29,0.96-0.71c0.12-0.42-0.04-0.88-0.41-1.12L4.27,2.64C4.64,2.32,5.45,2,7,2c3.53,0,7.26,3.67,7.29,3.71   c0.39,0.39,1.03,0.39,1.42,0C15.74,5.67,19.46,2,23,2c1.56,0,2.38,0.33,2.74,0.64l-5.29,3.53c-0.37,0.24-0.53,0.7-0.41,1.12   C20.17,7.71,20.56,8,21,8h4c1.97,0,2.65,2.21,2.88,3.69L21.24,10.03z"/>
</g>
</svg>
