<?xml version="1.0" encoding="utf-8"?>
<!-- Generator: Adobe Illustrator 16.0.0, SVG Export Plug-In . SVG Version: 6.00 Build 0)  -->
<svg xmlns="http://www.w3.org/2000/svg" xmlns:xlink="http://www.w3.org/1999/xlink" version="1.1" id="2573246549_Capa_1_grid" x="0px" y="0px" width="32px" height="32px" viewBox="0 0 32 32" enable-background="new 0 0 32 32" xml:space="preserve">
<g>
	<path d="M22,10V7c0-1.73-1.25-5-6-5s-6,3.27-6,5v3H8v12h16V10H22z M12,7c0-0.12,0.05-3,4-3c3.83,0,3.99,2.7,4,3v3h-8V7z M22,20H10   v-8h12V20z"/>
</g>
<g>
	<polygon points="32,20 32,30 0,30 0,20 6,20 6,22 2,22 2,28 30,28 30,22 26,22 26,20  "/>
</g>
<g>
	<rect x="4" y="24" width="6" height="2"/>
</g>
<g>
	<rect x="12" y="24" width="8" height="2"/>
</g>
<g>
	<rect x="22" y="24" width="6" height="2"/>
</g>
</svg>
