<?xml version="1.0" encoding="utf-8"?>
<!-- Generator: Adobe Illustrator 16.0.0, SVG Export Plug-In . SVG Version: 6.00 Build 0)  -->
<svg xmlns="http://www.w3.org/2000/svg" xmlns:xlink="http://www.w3.org/1999/xlink" version="1.1" id="2573246550_Capa_1_grid" x="0px" y="0px" width="32px" height="32px" viewBox="0 0 32 32" enable-background="new 0 0 32 32" xml:space="preserve">
<g>
	<path d="M0,2v28h32V2H0z M8.06,28c0.21-1.89,1.07-5.79,4.65-5.99L16,24.2l3.29-2.19c3.58,0.2,4.44,4.101,4.65,5.99H8.06z M30,28   h-4.05c-0.28-3.22-1.96-8-6.95-8h-0.3L16,21.8L13.3,20H13c-4.99,0-6.67,4.78-6.95,8H2V4h28V28z"/>
	<path d="M16,6c-3.31,0-6,3.13-6,7s2.69,7,6,7c3.31,0,6-3.13,6-7S19.31,6,16,6z M16,18c-2.21,0-4-2.24-4-5s1.79-5,4-5s4,2.24,4,5   S18.21,18,16,18z"/>
</g>
</svg>
