<?xml version="1.0" encoding="utf-8"?>
<!-- Generator: Adobe Illustrator 16.0.0, SVG Export Plug-In . SVG Version: 6.00 Build 0)  -->
<svg xmlns="http://www.w3.org/2000/svg" xmlns:xlink="http://www.w3.org/1999/xlink" version="1.1" id="2573246551_Capa_1_grid" x="0px" y="0px" width="32px" height="32px" viewBox="0 0 32 32" enable-background="new 0 0 32 32" xml:space="preserve">
<g>
	<path d="M15,10c-2.76,0-5,2.69-5,6c0,3.31,2.24,6,5,6s5-2.69,5-6C20,12.69,17.76,10,15,10z M15,20c-1.63,0-3-1.83-3-4s1.37-4,3-4   s3,1.83,3,4S16.63,20,15,20z"/>
</g>
<g>
	<path d="M2,6v24h26V6H2z M8.11,28c0.27-1.41,1.22-3.81,4.49-3.99l2.4,2.4l2.4-2.4c3.29,0.181,4.229,2.57,4.489,3.99H8.11z M26,28   h-2.07c-0.359-2.49-2.08-6-6.93-6h-0.41L15,23.59L13.41,22H13c-4.85,0-6.57,3.51-6.93,6H4V8h22V28z"/>
</g>
<g>
	<polygon points="32,2 32,26 30,26 30,4 6,4 6,2  "/>
</g>
</svg>
