<?xml version="1.0" encoding="utf-8"?>
<!-- Generator: Adobe Illustrator 16.0.0, SVG Export Plug-In . SVG Version: 6.00 Build 0)  -->
<svg xmlns="http://www.w3.org/2000/svg" xmlns:xlink="http://www.w3.org/1999/xlink" version="1.1" id="2573246552_Capa_1_grid" x="0px" y="0px" width="32px" height="32px" viewBox="0 0 32 32" enable-background="new 0 0 32 32" xml:space="preserve">
<g>
	<path d="M15,0C1.78,0,0,3.54,0,7c0,3.66,11.91,25,15,25S30,10.66,30,7C30,3.54,28.22,0,15,0z M6,15c0-1.66,1.34-3,3-3s3,1.34,3,3   s-1.34,3-3,3S6,16.66,6,15z M18.18,25.88C16.92,25.53,16,24.37,16,23c0-1.66,1.34-3,3-3c0.9,0,1.71,0.4,2.25,1.03   C20.19,22.79,19.13,24.46,18.18,25.88z M22.3,19.26C21.42,18.47,20.26,18,19,18c-1.38,0-2.63,0.56-3.54,1.46   C14.56,20.37,14,21.62,14,23c0,2.04,1.23,3.8,2.99,4.57C16.15,28.72,15.45,29.55,15,29.9c-1.2-0.92-4.13-5.271-6.93-9.99   C8.37,19.97,8.68,20,9,20c2.76,0,5-2.24,5-5s-2.24-5-5-5c-2.1,0-3.91,1.3-4.64,3.14c-0.66-1.3-1.21-2.5-1.63-3.51   C3.19,9.14,6.43,6,15,6c0.69,0,1.35,0.02,1.97,0.06C16.36,6.88,16,7.9,16,9c0,2.76,2.24,5,5,5s5-2.24,5-5c0-0.12,0-0.25-0.01-0.37   c0.729,0.48,1.13,0.87,1.26,1.02C26.25,12.15,24.34,15.77,22.3,19.26z M18,9c0-1.16,0.66-2.16,1.61-2.66   C21.18,6.6,22.47,6.97,23.51,7.37C23.82,7.84,24,8.4,24,9c0,1.66-1.34,3-3,3S18,10.66,18,9z M27.94,7.54C26.4,6.26,22.6,4,15,4   C7.4,4,3.6,6.26,2.06,7.54C2.02,7.33,2,7.15,2,7c0-1.62,0-5,13-5s13,3.38,13,5C28,7.15,27.98,7.33,27.94,7.54z"/>
</g>
</svg>
