<?xml version="1.0" encoding="utf-8"?>
<!-- Generator: Adobe Illustrator 16.0.0, SVG Export Plug-In . SVG Version: 6.00 Build 0)  -->
<svg xmlns="http://www.w3.org/2000/svg" xmlns:xlink="http://www.w3.org/1999/xlink" version="1.1" id="2573246553_Capa_1_grid" x="0px" y="0px" width="32px" height="32px" viewBox="0 0 32 32" enable-background="new 0 0 32 32" xml:space="preserve">
<g>
	<path d="M31,18h-7v-6h7c0.55,0,1-0.45,1-1s-0.45-1-1-1h-7V6h-5c-2.62,0-7.21,1.33-8.59,6H1c-0.55,0-1,0.45-1,1s0.45,1,1,1h9.05   C10.01,14.32,10,14.65,10,15s0.01,0.68,0.05,1H1c-0.55,0-1,0.45-1,1s0.45,1,1,1h9.41c1.38,4.67,5.97,6,8.59,6h5v-4h7   c0.55,0,1-0.45,1-1S31.55,18,31,18z M18,21.91c-1.94-0.3-6-1.561-6-6.91c0-5.35,4.06-6.61,6-6.9V21.91z M22,22h-2V8h2V22z"/>
</g>
</svg>
