<?xml version="1.0" encoding="utf-8"?>
<!-- Generator: Adobe Illustrator 16.0.0, SVG Export Plug-In . SVG Version: 6.00 Build 0)  -->
<svg xmlns="http://www.w3.org/2000/svg" xmlns:xlink="http://www.w3.org/1999/xlink" version="1.1" id="2573246554_Capa_1_grid" x="0px" y="0px" width="32px" height="32px" viewBox="0 0 32 32" enable-background="new 0 0 32 32" xml:space="preserve">
<g>
	<path d="M27,2H3C0.8,2,0,3.79,0,5v24c0,2.2,1.94,3,3.25,3H27c2.2,0,3-1.79,3-3V5C30,2.8,28.21,2,27,2z M28,28.99   C27.99,29.45,27.81,30,27,30H3.26C2.88,29.99,2,29.88,2,29V5.01C2.01,4.55,2.19,4,3,4h23.99C27.45,4.01,28,4.19,28,5V28.99z"/>
	<path d="M22,14v-1c0-2.42-1.46-7-7-7s-7,4.58-7,7v1H6v14h18V14H22z M10,13c0-0.2,0.06-5,5-5c4.82,0,5,4.49,5,5v1H10V13z M22,26H8   V16h14V26z"/>
	<rect x="10" y="20" width="10" height="2"/>
</g>
</svg>
