<?xml version="1.0" encoding="utf-8"?>
<!-- Generator: Adobe Illustrator 16.0.0, SVG Export Plug-In . SVG Version: 6.00 Build 0)  -->
<svg xmlns="http://www.w3.org/2000/svg" xmlns:xlink="http://www.w3.org/1999/xlink" version="1.1" id="2573246555_Capa_1_grid" x="0px" y="0px" width="32px" height="32px" viewBox="0 0 32 32" enable-background="new 0 0 32 32" xml:space="preserve">
<g>
	<path d="M29,0H3C0.8,0,0,1.79,0,3v22c0,2.2,1.79,3,3,3h3v3c0,0.36,0.19,0.69,0.5,0.87C6.65,31.96,6.83,32,7,32s0.34-0.04,0.5-0.13   L14.27,28H29c2.2,0,3-1.79,3-3V3C32,0.8,30.21,0,29,0z M30,24.99C29.99,25.45,29.81,26,29,26H14c-0.17,0-0.35,0.05-0.5,0.13   L8,29.28V27c0-0.55-0.45-1-1-1H3.01C2.55,25.99,2,25.81,2,25V3.01C2.01,2.55,2.19,2,3,2h25.99C29.45,2.01,30,2.19,30,3V24.99z"/>
	<path d="M22,12V9c0-1.73-1.25-5-6-5s-6,3.27-6,5v3H8v12h16V12H22z M12,9c0-0.12,0.05-3,4-3c3.83,0,3.99,2.7,4,3v3h-8V9z M22,22H10   v-8h12V22z"/>
</g>
</svg>
