<?xml version="1.0" encoding="utf-8"?>
<!-- Generator: Adobe Illustrator 16.0.0, SVG Export Plug-In . SVG Version: 6.00 Build 0)  -->
<svg xmlns="http://www.w3.org/2000/svg" xmlns:xlink="http://www.w3.org/1999/xlink" version="1.1" id="2573246556_Capa_1_grid" x="0px" y="0px" width="32px" height="32px" viewBox="0 0 32 32" enable-background="new 0 0 32 32" xml:space="preserve">
<g>
	<path d="M8,8c0,4.03,2.61,7.37,6,7.92v-2.04c-2.28-0.56-4-2.98-4-5.88s1.72-5.32,4-5.88V0.08C10.61,0.63,8,3.97,8,8z"/>
</g>
<g>
	<path d="M10.68,16.05C10.41,16.14,4,18.42,4,31v1h10v-2H6.01c0.25-8.46,3.64-11.14,4.87-11.84L14,20.5V18l-2.82-2.11L10.68,16.05z"/>
</g>
<g>
	<rect x="16" y="30" width="10" height="2"/>
</g>
<g>
	<rect x="16" y="26" width="10" height="2"/>
</g>
<g>
	<rect x="16" y="22" width="8" height="2"/>
</g>
<g>
	<rect x="16" y="18" width="6" height="2"/>
</g>
<g>
	<rect x="16" y="14" width="4" height="2"/>
</g>
<g>
	<rect x="16" y="2" width="4" height="2"/>
</g>
<g>
	<rect x="16" y="10" width="6" height="2"/>
</g>
<g>
	<rect x="16" y="6" width="6" height="2"/>
</g>
</svg>
