<?xml version="1.0"?>
<svg xmlns="http://www.w3.org/2000/svg" id="2573297622_Layer_1_grid" data-name="Layer 1" viewBox="0 0 32 32"><title>promotion_win_10</title><path d="M30,7.12H28.87V3.32A1.85,1.85,0,0,0,27,1.48H25.54A1.83,1.83,0,0,0,23.7,3.3v.75L11.52,6.74H4.71A2.51,2.51,0,0,0,2.3,8.59H1.72A1.73,1.73,0,0,0,0,10.32v3.73a1.73,1.73,0,0,0,1.73,1.73h.57a2.54,2.54,0,0,0,1.86,1.79V28.73A1.8,1.8,0,0,0,6,30.52H11a1.8,1.8,0,0,0,1.8-1.79V18l10.86,2.4v.76A1.85,1.85,0,0,0,25.54,23H27a1.85,1.85,0,0,0,1.84-1.85V17.25H30a2,2,0,0,0,2-2V9.13A2,2,0,0,0,30,7.12ZM4.2,9.25a.51.51,0,0,1,.51-.51h6.15v6.9H4.71a.53.53,0,0,1-.5-.35s0-.11,0-.16ZM2,10.59H2.2v3.19H2Zm8.85,17.93H6.15V17.64h4.69Zm2-12.58V8.49L23.7,6.09V18.34Zm14,5H25.7V3.48h1.17V21Zm2-5.7V9.13H30v6.12Z" fill="#231f20"/></svg>
