<?xml version="1.0" encoding="utf-8"?>
<!-- Generator: Adobe Illustrator 16.0.0, SVG Export Plug-In . SVG Version: 6.00 Build 0)  -->
<svg xmlns="http://www.w3.org/2000/svg" xmlns:xlink="http://www.w3.org/1999/xlink" version="1.1" id="2573246557_Capa_1_grid" x="0px" y="0px" width="32px" height="32px" viewBox="0 0 32 32" enable-background="new 0 0 32 32" xml:space="preserve">
<g>
	<g>
		<path d="M18,0.04c-0.14-0.01-0.27-0.02-0.41-0.02C17.4,0,17.2,0,17,0C8.72,0,2,6.72,2,15c0,2.77,0.75,5.37,2.06,7.59l-2.03,8.17    c-0.08,0.32,0,0.66,0.23,0.91C2.45,31.88,2.72,32,3,32c0.05,0,0.09,0,0.14-0.01L17,30c8.28,0,15-6.72,15-15    C32,7.06,25.82,0.55,18,0.04z M13.21,2.57C14.1,2.29,15.04,2.11,16,2.05V6h-4.34C12.06,4.85,12.57,3.68,13.21,2.57z M16,8v6h-5.96    c0.08-1.23,0.32-3.48,1-6H16z M16,16v5c0,0.81-0.55,0.99-1,1h-3.96c-0.68-2.52-0.92-4.77-1-6H16z M10.35,3.84    C10.03,4.56,9.76,5.29,9.53,6h-1.9C8.43,5.16,9.35,4.43,10.35,3.84z M6.05,8h2.91c-0.64,2.55-0.85,4.77-0.92,6H4.05    C4.21,11.81,4.92,9.76,6.05,8z M4.05,16h3.99c0.07,1.23,0.28,3.45,0.92,6H6.05C4.92,20.24,4.21,18.19,4.05,16z M17,28L4.33,29.8    L5.78,24H15c1.21,0,3-0.8,3-3V2.05C24.7,2.55,30,8.17,30,15C30,22.17,24.17,28,17,28z"/>
	</g>
</g>
</svg>
