<?xml version="1.0" encoding="utf-8"?>
<!-- Generator: Adobe Illustrator 16.0.0, SVG Export Plug-In . SVG Version: 6.00 Build 0)  -->
<svg xmlns="http://www.w3.org/2000/svg" xmlns:xlink="http://www.w3.org/1999/xlink" version="1.1" id="2573246559_Capa_1_grid" x="0px" y="0px" width="32px" height="32px" viewBox="0 0 32 32" enable-background="new 0 0 32 32" xml:space="preserve">
<g>
	<g>
		<g>
			<path d="M27,24H6c-3.533,0-6-2.468-6-6c0-3.367,1.249-5.502,3.915-6.656C3.633,8.422,4.203,6.121,5.611,4.497     C7.028,2.863,9.237,2,12,2c4.766,0,7.42,1.762,8.715,5.852c0.267-0.032,0.529-0.048,0.785-0.048c3.243,0,5.098,2.515,5.441,5.257     C29.883,13.45,32,15.65,32,18.48C32,21.421,29.663,24,27,24z M12,4c-1.51,0-3.582,0.313-4.877,1.807     C5.985,7.119,5.604,9.155,5.99,11.858l0.118,0.826l-0.792,0.264C2.93,13.744,2,15.161,2,18c0,2.43,1.57,4,4,4h21     c1.388,0,3-1.537,3-3.52c0-2.017-1.683-3.48-4-3.48h-1v-1c0-2.021-1.096-4.196-3.5-4.196c-0.393,0-0.816,0.056-1.258,0.167     l-0.97,0.243l-0.242-0.97C18.2,5.922,16.783,4,12,4z"/>
		</g>
	</g>
	<g>
		<g>
			<rect x="6" y="26" width="2" height="4"/>
		</g>
	</g>
	<g>
		<g>
			<rect x="14" y="26" width="2" height="4"/>
		</g>
	</g>
	<g>
		<g>
			<rect x="22" y="26" width="2" height="4"/>
		</g>
	</g>
</g>
</svg>
