<?xml version="1.0" encoding="utf-8"?>
<!-- Generator: Adobe Illustrator 16.0.0, SVG Export Plug-In . SVG Version: 6.00 Build 0)  -->
<svg xmlns="http://www.w3.org/2000/svg" xmlns:xlink="http://www.w3.org/1999/xlink" version="1.1" id="2573246560_Capa_1_grid" x="0px" y="0px" width="32px" height="32px" viewBox="0 0 32 32" enable-background="new 0 0 32 32" xml:space="preserve">
<g>
	<g>
		<path d="M28,6H14l-2-2H2c0,0-2,0-2,2v22c0,0,0,2,2,2h26c0,0,2,0,2-2V8C30,8,30,6,28,6z M28,27.99C27.98,28,27.97,28,27.96,28H2.01    C2,27.98,2,27.97,2,27.96V12h12v10.59l-4.29-4.3l-1.42,1.42l6.71,6.7l6.71-6.7l-1.42-1.42L16,22.59V12h12V27.99z M28,10H2V6.01    C2.02,6,2.029,6,2.04,6h9.13l1.42,1.41L13.17,8h14.82C28,8.02,28,8.03,28,8.04V10z"/>
	</g>
</g>
</svg>
