<?xml version="1.0" encoding="utf-8"?>
<!-- Generator: Adobe Illustrator 16.0.0, SVG Export Plug-In . SVG Version: 6.00 Build 0)  -->
<svg xmlns="http://www.w3.org/2000/svg" xmlns:xlink="http://www.w3.org/1999/xlink" version="1.1" id="2573246561_Capa_1_grid" x="0px" y="0px" width="32px" height="32px" viewBox="0 0 32 32" enable-background="new 0 0 32 32" xml:space="preserve">
<g>
	<path d="M6,0v32h20V0H6z M24,30H8v-6h16V30z M24,22H8V8h16V22z M24,6H8V2h16V6z"/>
</g>
<g>
	<rect x="12" y="26" width="8" height="2"/>
</g>
<g>
	<path d="M17,10c-0.55,0-1,0.45-1,1v3.18C15.69,14.06,15.35,14,15,14c-1.66,0-3,1.34-3,3s1.34,3,3,3s3-1.34,3-3v-5h2v-2H17z M15,18   c-0.55,0-1-0.45-1-1s0.45-1,1-1s1,0.45,1,1S15.55,18,15,18z"/>
</g>
</svg>
