<?xml version="1.0" encoding="utf-8"?>
<!-- Generator: Adobe Illustrator 16.0.0, SVG Export Plug-In . SVG Version: 6.00 Build 0)  -->
<svg xmlns="http://www.w3.org/2000/svg" xmlns:xlink="http://www.w3.org/1999/xlink" version="1.1" id="2573246563_Capa_1_grid" x="0px" y="0px" width="32px" height="32px" viewBox="0 0 32 32" enable-background="new 0 0 32 32" xml:space="preserve">
<g>
	<rect x="2" y="6" width="14" height="2"/>
</g>
<g>
	<rect x="2" y="10" width="10" height="2"/>
</g>
<g>
	<rect x="2" y="14" width="6" height="2"/>
</g>
<g>
	<rect x="2" y="18" width="6" height="2"/>
</g>
<g>
	<path d="M28.71,5.29c-1.03-1.03-2.22-1.55-3.52-1.55c-2.141,0-3.79,1.45-3.9,1.55l-11,11C10.11,16.48,10,16.73,10,17v5H2v2h15   c0.27,0,0.52-0.11,0.71-0.29l11.04-11.04C29.94,11.32,31.47,8.06,28.71,5.29z M12,22v-4.58L16.58,22H12z M18,20.58L13.42,16   L20,9.42L24.58,14L18,20.58z M27.29,11.29L26,12.58L21.42,8l1.25-1.25c0.01-0.01,1.16-1.01,2.521-1.01c0.77,0,1.449,0.32,2.1,0.97   C29.37,8.79,27.47,11.08,27.29,11.29z"/>
</g>
<g>
	<rect x="2" y="26" width="28" height="2"/>
</g>
</svg>
