<?xml version="1.0" encoding="utf-8"?>
<!-- Generator: Adobe Illustrator 16.0.0, SVG Export Plug-In . SVG Version: 6.00 Build 0)  -->
<svg xmlns="http://www.w3.org/2000/svg" xmlns:xlink="http://www.w3.org/1999/xlink" version="1.1" id="2573246564_Capa_1_grid" x="0px" y="0px" width="32px" height="32px" viewBox="0 0 32 32" enable-background="new 0 0 32 32" xml:space="preserve">
<g>
	<g>
		<path d="M29,0H3C0.8,0,0,1.79,0,3v22c0,1.21,0.8,3,3,3h3v3c0,0.36,0.19,0.69,0.5,0.87C6.65,31.96,6.83,32,7,32s0.34-0.04,0.5-0.13    L14.27,28H29c2.2,0,3-1.79,3-3V3C32,0.8,30.21,0,29,0z M30,24.99C29.99,25.45,29.81,26,29,26H14c-0.17,0-0.35,0.05-0.5,0.13    L8,29.28V27c0-0.55-0.45-1-1-1H3c-0.81,0-0.99-0.55-1-1V3.01C2.01,2.55,2.19,2,3,2h25.99C29.45,2.01,30,2.19,30,3V24.99z"/>
	</g>
</g>
<g>
	<path d="M5.85,4l2.23,15.61l8.46,5.08l7.39-5.12L26.15,4H5.85z M22.07,18.43l-5.61,3.88l-6.54-3.92L8.72,10h14.56L22.07,18.43z    M23.56,8H8.44L8.15,6h15.7L23.56,8z"/>
</g>
</svg>
