<?xml version="1.0" encoding="utf-8"?>
<!-- Generator: Adobe Illustrator 16.0.0, SVG Export Plug-In . SVG Version: 6.00 Build 0)  -->
<svg xmlns="http://www.w3.org/2000/svg" xmlns:xlink="http://www.w3.org/1999/xlink" version="1.1" id="2573246568_Capa_1_grid" x="0px" y="0px" width="32px" height="32px" viewBox="0 0 32 32" enable-background="new 0 0 32 32" xml:space="preserve">
<g>
	<path d="M20,6V0H0v32h20v-8h12V6H20z M28.15,8L21,13.72L13.85,8H28.15z M2,2h16v4H2V2z M2,8h8v2H4v2h6v2H6v2h4v2H4v2h6v2H2V8z    M18,30H2v-6h16V30z M30,22H12V9.08l9,7.2l9-7.2V22z"/>
	<rect x="6" y="26" width="8" height="2"/>
</g>
</svg>
