<?xml version="1.0" encoding="utf-8"?>
<!-- Generator: Adobe Illustrator 16.0.0, SVG Export Plug-In . SVG Version: 6.00 Build 0)  -->
<svg xmlns="http://www.w3.org/2000/svg" xmlns:xlink="http://www.w3.org/1999/xlink" version="1.1" id="2573246566_Capa_1_grid" x="0px" y="0px" width="32px" height="32px" viewBox="0 0 32 32" enable-background="new 0 0 32 32" xml:space="preserve">
<g>
	<path d="M23.41,0H0v2h8v4H4v2h4v4H0v2h8v4H4v2h4v4H0v2h8v4H4v2h28V8.59L23.41,0z M30,30H10V2h10v7c0,1.21,0.8,3,3,3h7V30z M30,10   h-7c-0.81,0-0.99-0.55-1-1V2h0.59L30,9.41V10z"/>
</g>
</svg>
