<?xml version="1.0" encoding="utf-8"?>
<!-- Generator: Adobe Illustrator 16.0.0, SVG Export Plug-In . SVG Version: 6.00 Build 0)  -->
<svg xmlns="http://www.w3.org/2000/svg" xmlns:xlink="http://www.w3.org/1999/xlink" version="1.1" id="2573246567_Capa_1_grid" x="0px" y="0px" width="32px" height="32px" viewBox="0 0 32 32" enable-background="new 0 0 32 32" xml:space="preserve">
<g>
	<path d="M24,6c1.104,0,2,0.896,2,2s-0.896,2-2,2s-2-0.896-2-2S22.896,6,24,6L24,6z M24,4c-2.206,0-4,1.794-4,4s1.794,4,4,4   s4-1.794,4-4S26.206,4,24,4L24,4z"/>
</g>
<g>
	<path d="M0,0v2h8v4H4v2h4v4H0v2h8v4H4v2h4v4H0v2h8v4H4v2h28V0H0z M30,30H10V19.42l2.89-2.9l6,8L25,18.41l5,5.01V30z M30,20.58   l-5-4.99l-5.89,5.891l-6-8L10,16.58V2h20V20.58z"/>
</g>
</svg>
