<?xml version="1.0" encoding="utf-8"?>
<!-- Generator: Adobe Illustrator 16.0.0, SVG Export Plug-In . SVG Version: 6.00 Build 0)  -->
<svg xmlns="http://www.w3.org/2000/svg" xmlns:xlink="http://www.w3.org/1999/xlink" version="1.1" id="2573246569_Capa_1_grid" x="0px" y="0px" width="32px" height="32px" viewBox="0 0 32 32" enable-background="new 0 0 32 32" xml:space="preserve">
<path d="M30,4H16l-2-2H2c0,0-2,0-2,2v24c0,0,0,2,2,2h28c0,0,2,0,2-2V6C32,6,32,4,30,4z M30,27.99C29.98,28,29.97,28,29.96,28H2.01  C2,27.98,2,27.97,2,27.96V10h28V27.99z M30,8H2V4.01C2.02,4,2.03,4,2.04,4h11.13l1.42,1.41L15.17,6h14.82C30,6.02,30,6.03,30,6.04V8  z"/>
<g>
	<path d="M21,20c-0.9,0-1.71,0.4-2.25,1.03l-4.76-1.91C14,19.08,14,19.04,14,19s0-0.08-0.01-0.12l4.76-1.9C19.3,17.61,20.1,18,21,18   c1.66,0,3-1.34,3-3s-1.34-3-3-3s-3,1.34-3,3c0,0.04,0,0.08,0.01,0.12l-4.76,1.91C12.71,16.4,11.9,16,11,16c-1.66,0-3,1.34-3,3   s1.34,3,3,3c0.9,0,1.71-0.4,2.25-1.03l4.76,1.91C18,22.92,18,22.96,18,23c0,1.66,1.34,3,3,3s3-1.34,3-3S22.66,20,21,20z M21,14   c0.55,0,1,0.45,1,1s-0.45,1-1,1s-1-0.45-1-1S20.45,14,21,14z M11,20c-0.55,0-1-0.45-1-1s0.45-1,1-1s1,0.45,1,1S11.55,20,11,20z    M21,24c-0.55,0-1-0.45-1-1s0.45-1,1-1s1,0.45,1,1S21.55,24,21,24z"/>
</g>
</svg>
