<?xml version="1.0" encoding="utf-8"?>
<!-- Generator: Adobe Illustrator 16.0.0, SVG Export Plug-In . SVG Version: 6.00 Build 0)  -->
<svg xmlns="http://www.w3.org/2000/svg" xmlns:xlink="http://www.w3.org/1999/xlink" version="1.1" id="2573246572_Capa_1_grid" x="0px" y="0px" width="32px" height="32px" viewBox="0 0 32 32" enable-background="new 0 0 32 32" xml:space="preserve">
<g>
	<g>
		<path d="M0,4v26h32V4H0z M2,6h28v6H2V6z M30,28H2V14h28V28z"/>
	</g>
</g>
<g>
	<g>
		<rect x="26" y="8" width="2" height="2"/>
	</g>
</g>
<g>
	<g>
		<rect x="22" y="8" width="2" height="2"/>
	</g>
</g>
<g>
	<g>
		<rect x="18" y="8" width="2" height="2"/>
	</g>
</g>
<g>
	<path d="M8,18v2H6v-2H8 M10,16H4v6h6V16L10,16z"/>
</g>
<g>
	<path d="M16,22v2h-2v-2H16 M18,20h-6v6h6V20L18,20z"/>
</g>
<g>
	<rect x="4" y="24" width="6" height="2"/>
</g>
<g>
	<rect x="12" y="16" width="6" height="2"/>
</g>
<g>
	<path d="M26,18v6h-4v-6H26 M28,16h-8v10h8V16L28,16z"/>
</g>
</svg>
