<?xml version="1.0" encoding="utf-8"?>
<!-- Generator: Adobe Illustrator 16.0.0, SVG Export Plug-In . SVG Version: 6.00 Build 0)  -->
<svg xmlns="http://www.w3.org/2000/svg" xmlns:xlink="http://www.w3.org/1999/xlink" version="1.1" id="2573246573_Capa_1_grid" x="0px" y="0px" width="32px" height="32px" viewBox="0 0 32 32" enable-background="new 0 0 32 32" xml:space="preserve">
<g>
	<path d="M9,2c1.626,0,3.203,0.567,4.441,1.597l0.64,0.533l0.829-0.079C15.265,4.017,15.632,4,16,4c6.617,0,12,5.383,12,12   c0,0.372-0.017,0.738-0.051,1.091L27.87,17.92l0.533,0.64C29.433,19.797,30,21.374,30,23c0,3.859-3.141,7-7,7   c-1.626,0-3.203-0.567-4.44-1.597l-0.64-0.533l-0.829,0.079C16.738,27.983,16.372,28,16,28C9.383,28,4,22.617,4,16   c0-0.368,0.017-0.735,0.051-1.09l0.079-0.829l-0.533-0.64C2.567,12.203,2,10.626,2,9C2,5.14,5.14,2,9,2 M9,0C4.03,0,0,4.03,0,9   c0,2.17,0.77,4.17,2.06,5.72C2.02,15.14,2,15.57,2,16c0,7.73,6.27,14,14,14c0.43,0,0.86-0.02,1.28-0.06C18.83,31.23,20.83,32,23,32   c4.97,0,9-4.03,9-9c0-2.17-0.77-4.17-2.06-5.72C29.98,16.86,30,16.43,30,16c0-7.73-6.27-14-14-14c-0.43,0-0.86,0.02-1.28,0.06   C13.17,0.77,11.17,0,9,0L9,0z"/>
</g>
<g>
	<path d="M16.149,24.078c-0.593,0-1.044-0.053-1.229-0.079C13.173,23.968,10,22.896,10,19c0-0.553,0.448-1,1-1s1,0.447,1,1   c0,2.823,2.503,2.994,3.005,3l0.159,0.014c0.706,0.116,2.795,0.199,3.938-0.773C19.706,20.727,20,19.967,20,18.918   c0-1.587-1.606-2.177-4.253-2.96C13.187,15.2,10,14.257,10,11c0-3.955,3.271-5,5-5c6.92,0,7,4.95,7,5c0,0.552-0.447,1-1,1   c-0.549,0-0.994-0.442-1-0.989C19.991,10.694,19.771,8,15,8c-0.497,0.006-3,0.177-3,3c0,1.645,1.63,2.246,4.315,3.04   C18.848,14.79,22,15.722,22,18.918c0,1.651-0.541,2.947-1.609,3.853C19.102,23.862,17.342,24.078,16.149,24.078z"/>
</g>
</svg>
