<?xml version="1.0" encoding="utf-8"?>
<!-- Generator: Adobe Illustrator 16.0.0, SVG Export Plug-In . SVG Version: 6.00 Build 0)  -->
<svg xmlns="http://www.w3.org/2000/svg" xmlns:xlink="http://www.w3.org/1999/xlink" version="1.1" id="2573246575_Capa_1_grid" x="0px" y="0px" width="32px" height="32px" viewBox="0 0 32 32" enable-background="new 0 0 32 32" xml:space="preserve">
<g>
	<path d="M25,12h-0.41L22,14.59L19.41,12H19c-0.19,0-4.63,0.09-4.98,8H7c-0.4,0-0.75,0.23-0.91,0.59c-0.16,0.36-0.1,0.79,0.17,1.08   l9,10C15.45,31.88,15.72,32,16,32s0.55-0.12,0.74-0.33l9-10c0.27-0.29,0.33-0.72,0.17-1.08C25.75,20.23,25.39,20,25,20h-8.98   c0.22-4.59,1.91-5.68,2.64-5.92L22,17.41l3.35-3.34C26.15,14.3,28,15.35,28,20h2C30,12.09,25.2,12,25,12z M22.75,22L16,29.5   L9.25,22H22.75z"/>
</g>
<path d="M10,0C7.79,0,6,2.24,6,5s1.79,5,4,5s4-2.24,4-5S12.21,0,10,0z M10,8C8.93,8,8,6.6,8,5s0.93-3,2-3s2,1.4,2,3S11.07,8,10,8z"/>
<g>
	<path d="M15.63,11.23c-0.48,0.36-0.96,0.81-1.41,1.4c-0.34-0.31-0.65-0.47-0.89-0.55L10,15.41l-3.34-3.33   C5.93,12.32,4.24,13.41,4.02,18h-2c0.35-7.91,4.79-8,4.98-8h0.41L10,12.59L12.59,10H13C13.1,10,14.39,10.03,15.63,11.23z"/>
</g>
<path d="M22,2c-2.21,0-4,2.24-4,5s1.79,5,4,5s4-2.24,4-5S24.21,2,22,2z M22,10c-1.07,0-2-1.4-2-3s0.93-3,2-3s2,1.4,2,3  S23.07,10,22,10z"/>
</svg>
