<?xml version="1.0" encoding="utf-8"?>
<!-- Generator: Adobe Illustrator 16.0.0, SVG Export Plug-In . SVG Version: 6.00 Build 0)  -->
<svg xmlns="http://www.w3.org/2000/svg" xmlns:xlink="http://www.w3.org/1999/xlink" version="1.1" id="2573246577_Capa_1_grid" x="0px" y="0px" width="32px" height="32px" viewBox="0 0 32 32" enable-background="new 0 0 32 32" xml:space="preserve">
<g>
	<path d="M16,2c-2.21,0-4,2.24-4,5s1.79,5,4,5s4-2.24,4-5S18.21,2,16,2z M16,10c-1.07,0-2-1.4-2-3s0.93-3,2-3c1.07,0,2,1.4,2,3   S17.07,10,16,10z"/>
</g>
<g>
	<path d="M25.91,20.59C25.75,20.23,25.39,20,25,20h-1.02c-0.351-7.91-4.79-8-4.98-8h-0.41L16,14.59L13.41,12H13   c-0.19,0-4.63,0.09-4.98,8H7c-0.4,0-0.75,0.23-0.91,0.59c-0.16,0.36-0.1,0.79,0.17,1.08l9,10C15.45,31.88,15.72,32,16,32   s0.55-0.12,0.74-0.33l9-10C26.01,21.38,26.07,20.95,25.91,20.59z M12.66,14.08L16,17.41l3.33-3.33c0.76,0.26,2.43,1.34,2.65,5.92   H10.02C10.24,15.4,11.93,14.33,12.66,14.08z M16,29.5L9.25,22h13.5L16,29.5z"/>
</g>
</svg>
