<?xml version="1.0" encoding="utf-8"?>
<!-- Generator: Adobe Illustrator 16.0.0, SVG Export Plug-In . SVG Version: 6.00 Build 0)  -->
<svg xmlns="http://www.w3.org/2000/svg" xmlns:xlink="http://www.w3.org/1999/xlink" version="1.1" id="2573246576_Capa_1_grid" x="0px" y="0px" width="32px" height="32px" viewBox="0 0 32 32" enable-background="new 0 0 32 32" xml:space="preserve">
<g>
	<path d="M16,32c-0.284,0-0.554-0.12-0.743-0.331l-9-10c-0.264-0.294-0.331-0.715-0.17-1.076C6.247,20.232,6.605,20,7,20h18   c0.395,0,0.753,0.232,0.913,0.593c0.161,0.361,0.095,0.782-0.17,1.076l-9,10C16.554,31.88,16.284,32,16,32z M9.245,22L16,29.505   L22.755,22H9.245z"/>
</g>
<g>
	<path d="M29,4H3C0.8,4,0,5.79,0,7v8c0,2.2,1.79,3,3,3h26c2.2,0,3-1.79,3-3V7C32,4.8,30.21,4,29,4z M30,14.99   C29.99,15.45,29.81,16,29,16H3.01C2.55,15.99,2,15.81,2,15V7.01C2.01,6.55,2.19,6,3,6h25.99C29.45,6.01,30,6.19,30,7V14.99z"/>
</g>
<g>
	<polygon points="28,12 28,14 4,14 4,8 6,8 6,12 8,12 8,10 10,10 10,12 12,12 12,10 14,10 14,12 16,12 16,8 18,8 18,12 20,12 20,10    22,10 22,12 24,12 24,10 26,10 26,12  "/>
</g>
</svg>
