<?xml version="1.0" encoding="utf-8"?>
<!-- Generator: Adobe Illustrator 16.0.0, SVG Export Plug-In . SVG Version: 6.00 Build 0)  -->
<svg xmlns="http://www.w3.org/2000/svg" xmlns:xlink="http://www.w3.org/1999/xlink" version="1.1" id="2573246585_Capa_1_grid" x="0px" y="0px" width="32px" height="32px" viewBox="0 0 32 32" enable-background="new 0 0 32 32" xml:space="preserve">
<g>
	<path d="M18.26,2.74l-1.43,1.41C15.26,2.81,13.22,2,11,2c-4.96,0-9,4.04-9,9s4.04,9,9,9v2C4.92,22,0,17.08,0,11S4.92,0,11,0   C13.78,0,16.33,1.03,18.26,2.74z"/>
</g>
<g>
	<path d="M32,32H12v-1c0-10.599,6.411-12.857,6.684-12.948l0.587-0.196L22,20.586l2.729-2.73l0.587,0.196   C25.589,18.143,32,20.401,32,31V32z M14.021,30h15.957c-0.293-6.656-3.48-9.087-4.765-9.8L22,23.414l-3.217-3.216   C17.493,20.905,14.313,23.319,14.021,30z"/>
</g>
<path d="M11,16c-2.76,0-5-2.24-5-5s2.24-5,5-5c1.42,0,2.7,0.59,3.61,1.54c0.25-0.66,0.57-1.28,0.94-1.85C14.33,4.63,12.74,4,11,4  c-3.87,0-7,3.13-7,7s3.13,7,7,7c1.74,0,3.33-0.63,4.55-1.69c-0.37-0.57-0.69-1.19-0.94-1.85C13.7,15.41,12.42,16,11,16z"/>
<g>
	<path d="M22,6c2.206,0,4,2.243,4,5s-1.794,5-4,5s-4-2.243-4-5S19.794,6,22,6 M22,4c-3.313,0-6,3.134-6,7s2.687,7,6,7s6-3.134,6-7   S25.313,4,22,4L22,4z"/>
</g>
</svg>
