<?xml version="1.0" encoding="utf-8"?>
<!-- Generator: Adobe Illustrator 16.0.0, SVG Export Plug-In . SVG Version: 6.00 Build 0)  -->
<svg xmlns="http://www.w3.org/2000/svg" xmlns:xlink="http://www.w3.org/1999/xlink" version="1.1" id="2573246581_Capa_1_grid" x="0px" y="0px" width="32px" height="32px" viewBox="0 0 32 32" enable-background="new 0 0 32 32" xml:space="preserve">
<g>
	<path d="M18.26,2.74l-1.43,1.41C15.26,2.81,13.22,2,11,2c-4.96,0-9,4.04-9,9s4.04,9,9,9v2C4.92,22,0,17.08,0,11S4.92,0,11,0   C13.78,0,16.33,1.03,18.26,2.74z"/>
</g>
<g>
	<path d="M22,4c-2.05,0-3.87,1.2-4.95,3.05l-0.76-0.76L9,13.59l-3.29-3.3l-1.42,1.42L9,16.41l7.2-7.2C16.07,9.78,16,10.38,16,11   c0,3.87,2.69,7,6,7s6-3.13,6-7S25.31,4,22,4z M22,16c-2.21,0-4-2.24-4-5s1.79-5,4-5s4,2.24,4,5S24.21,16,22,16z"/>
</g>
<g>
	<path d="M25.32,18.05l-0.59-0.189L22,20.59l-2.73-2.729l-0.59,0.189C18.41,18.14,12,20.4,12,31v1h20v-1   C32,20.4,25.59,18.14,25.32,18.05z M14.02,30c0.29-6.68,3.47-9.09,4.76-9.8L22,23.41l3.21-3.21c1.29,0.71,4.48,3.14,4.771,9.8   H14.02z"/>
</g>
</svg>
