<?xml version="1.0" encoding="utf-8"?>
<!-- Generator: Adobe Illustrator 16.0.0, SVG Export Plug-In . SVG Version: 6.00 Build 0)  -->
<svg xmlns="http://www.w3.org/2000/svg" xmlns:xlink="http://www.w3.org/1999/xlink" version="1.1" id="2573246579_Capa_1_grid" x="0px" y="0px" width="32px" height="32px" viewBox="0 0 32 32" enable-background="new 0 0 32 32" xml:space="preserve">
<g>
	<path d="M18.26,2.74l-1.43,1.41C15.26,2.81,13.22,2,11,2c-4.96,0-9,4.04-9,9s4.04,9,9,9v2C4.92,22,0,17.08,0,11S4.92,0,11,0   C13.78,0,16.33,1.03,18.26,2.74z"/>
</g>
<g>
	<path d="M32,32H12v-1c0-10.599,6.411-12.857,6.684-12.948l0.587-0.196L22,20.586l2.729-2.73l0.587,0.196   C25.589,18.143,32,20.401,32,31V32z M14.021,30h15.957c-0.293-6.656-3.48-9.087-4.765-9.8L22,23.414l-3.217-3.216   C17.493,20.905,14.313,23.319,14.021,30z"/>
</g>
<g>
	<path d="M22,4c-2.39,0-4.46,1.63-5.42,4H5C4.61,8,4.25,8.23,4.09,8.58c-0.16,0.36-0.1,0.77,0.15,1.07l6,7   C10.43,16.87,10.71,17,11,17s0.57-0.13,0.76-0.35l4.27-4.98C16.31,15.22,18.88,18,22,18c3.31,0,6-3.13,6-7S25.31,4,22,4z M11,14.46   L7.17,10h7.66L11,14.46z M22,16c-2.21,0-4-2.24-4-5s1.79-5,4-5s4,2.24,4,5S24.21,16,22,16z"/>
</g>
</svg>
