<?xml version="1.0" encoding="utf-8"?>
<!-- Generator: Adobe Illustrator 16.0.0, SVG Export Plug-In . SVG Version: 6.00 Build 0)  -->
<svg xmlns="http://www.w3.org/2000/svg" xmlns:xlink="http://www.w3.org/1999/xlink" version="1.1" id="2573246586_Capa_1_grid" x="0px" y="0px" width="32px" height="32px" viewBox="0 0 32 32" enable-background="new 0 0 32 32" xml:space="preserve">
<g>
	<path d="M15,10c-3.87,0-7,3.13-7,7s3.13,7,7,7s7-3.13,7-7S18.87,10,15,10z M15,22c-2.76,0-5-2.24-5-5s2.24-5,5-5s5,2.24,5,5   S17.76,22,15,22z"/>
</g>
<g>
	<path d="M16,3v4c0,0.55-0.45,1-1,1s-1-0.45-1-1V3c0-0.55,0.45-1,1-1S16,2.45,16,3z"/>
</g>
<g>
	<path d="M30,17c0,0.55-0.45,1-1,1h-4c-0.55,0-1-0.45-1-1s0.45-1,1-1h4C29.55,16,30,16.45,30,17z"/>
</g>
<g>
	<path d="M6,17c0,0.55-0.45,1-1,1H1c-0.55,0-1-0.45-1-1s0.45-1,1-1h4C5.55,16,6,16.45,6,17z"/>
</g>
<g>
	<path d="M16,27v4c0,0.55-0.45,1-1,1s-1-0.45-1-1v-4c0-0.55,0.45-1,1-1S16,26.45,16,27z"/>
</g>
<g>
	<path d="M8.64,10.64c-0.2,0.19-0.46,0.29-0.71,0.29c-0.26,0-0.51-0.1-0.71-0.29L4.39,7.81C4,7.42,4,6.78,4.39,6.39   C4.78,6,5.42,6,5.81,6.39l2.83,2.83C9.03,9.61,9.03,10.25,8.64,10.64z"/>
</g>
<g>
	<path d="M22.071,10.929c-0.256,0-0.512-0.098-0.707-0.293c-0.391-0.39-0.391-1.023,0-1.414l2.828-2.829   c0.391-0.391,1.023-0.391,1.414,0c0.391,0.39,0.391,1.023,0,1.414l-2.828,2.829C22.583,10.832,22.327,10.929,22.071,10.929z"/>
</g>
<g>
	<path d="M8.64,24.78l-2.83,2.83C5.61,27.8,5.36,27.9,5.1,27.9c-0.26,0-0.51-0.101-0.71-0.29C4,27.22,4,26.58,4.39,26.19l2.83-2.83   c0.39-0.391,1.03-0.391,1.42,0C9.03,23.75,9.03,24.39,8.64,24.78z"/>
</g>
<g>
	<path d="M25.61,27.61c-0.2,0.189-0.45,0.29-0.71,0.29c-0.261,0-0.511-0.101-0.71-0.29l-2.83-2.83c-0.391-0.391-0.391-1.03,0-1.42   c0.39-0.391,1.029-0.391,1.42,0l2.83,2.83C26,26.58,26,27.22,25.61,27.61z"/>
</g>
</svg>
