<?xml version="1.0" encoding="utf-8"?>
<!-- Generator: Adobe Illustrator 16.0.0, SVG Export Plug-In . SVG Version: 6.00 Build 0)  -->
<svg xmlns="http://www.w3.org/2000/svg" xmlns:xlink="http://www.w3.org/1999/xlink" version="1.1" id="2573246587_Capa_1_grid" x="0px" y="0px" width="32px" height="32px" viewBox="0 0 32 32" enable-background="new 0 0 32 32" xml:space="preserve">
<g>
	<path d="M29,0H3C0.8,0,0,1.79,0,3v26c0,1.21,0.8,3,3,3h17v-2H4c-2,0-2-2-2-2v-4h18v-2H4c-2,0-2-2-2-2v-4h16.7l7.3,5v-5h3   c2.2,0,3-1.79,3-3V3C32,0.8,30.21,0,29,0z M30,12c0,0,0,2-2,2h-4v3l-4.7-3H4c-2,0-2-2-2-2V4c0,0,0-2,2-2h24c2,0,2,2,2,2V12z"/>
</g>
</svg>
