<?xml version="1.0" encoding="utf-8"?>
<!-- Generator: Adobe Illustrator 16.0.0, SVG Export Plug-In . SVG Version: 6.00 Build 0)  -->
<svg xmlns="http://www.w3.org/2000/svg" xmlns:xlink="http://www.w3.org/1999/xlink" version="1.1" id="2573246588_Capa_1_grid" x="0px" y="0px" width="32px" height="32px" viewBox="0 0 32 32" enable-background="new 0 0 32 32" xml:space="preserve">
<g>
	<path d="M3,20h9l-2,6c0,4,4,4,4,4l10-12h8V2H6C4,2,3,2,2,4L0,16v1C0,17,0,19.92,3,20z M24,4h6v12h-6V4z M2,16.17L2.03,16H6v-2H2.36   l0.33-2H6v-2H3.03l0.33-2H6V6H3.69L3.92,4.63C4.26,4,4.43,4,6,4h15.99C22,4.02,22,4.03,22,4.04v13.239l-8.82,10.58   c-0.58-0.199-1.08-0.639-1.17-1.569l1.891-5.66c0.199-0.61,0.1-1.28-0.28-1.8C13.25,18.311,12.64,18,12,18H3.03   C2.69,17.99,2.04,17.95,2,17V16.17z"/>
</g>
<rect x="26" y="12" width="2" height="2"/>
</svg>
