<?xml version="1.0" encoding="utf-8"?>
<!-- Generator: Adobe Illustrator 16.0.0, SVG Export Plug-In . SVG Version: 6.00 Build 0)  -->
<svg xmlns="http://www.w3.org/2000/svg" xmlns:xlink="http://www.w3.org/1999/xlink" version="1.1" id="2573246589_Capa_1_grid" x="0px" y="0px" width="32px" height="32px" viewBox="0 0 32 32" enable-background="new 0 0 32 32" xml:space="preserve">
<g>
	<path d="M29,12h-9l2-6c0-4-4-4-4-4L8,14H0v16h26c2,0,3,0,4-2l2-12v-1C32,15,32,12.08,29,12z M8,28H2V16h6V28z M30,15.83L29.97,16   H26v2h3.64l-0.33,2H26v2h2.97l-0.33,2H26v2h2.31l-0.229,1.37C27.74,28,27.57,28,26,28H10.01C10,27.98,10,27.97,10,27.96V14.72   l8.82-10.58c0.58,0.2,1.08,0.64,1.17,1.57L18.1,11.37c-0.199,0.61-0.1,1.28,0.28,1.8C18.75,13.69,19.36,14,20,14h8.97   c0.34,0.01,0.99,0.05,1.03,1V15.83z"/>
</g>
<rect x="4" y="24" width="2" height="2"/>
</svg>
