<?xml version="1.0" encoding="utf-8"?>
<!-- Generator: Adobe Illustrator 16.0.0, SVG Export Plug-In . SVG Version: 6.00 Build 0)  -->
<svg xmlns="http://www.w3.org/2000/svg" xmlns:xlink="http://www.w3.org/1999/xlink" version="1.1" id="2573246590_Capa_1_grid" x="0px" y="0px" width="32px" height="32px" viewBox="0 0 32 32" enable-background="new 0 0 32 32" xml:space="preserve">
<g>
	<path d="M23.55,20.17c-0.1-0.06-0.21-0.11-0.319-0.14C26.44,15.64,26.02,9.22,26,9c0-3.11-1.88-9-9-9h-4C5.88,0,4,5.89,4,8.93   c-0.02,0.29-0.44,6.71,2.77,11.1C6.66,20.06,6.55,20.1,6.45,20.17C0.07,24.42,0,30.73,0,31c0,0.55,0.45,1,1,1s1-0.45,1-1   c0-0.05,0.06-5.51,5.55-9.17c0.02-0.01,0.04-0.03,0.06-0.05l-3.54,8.85c-0.2,0.51,0.05,1.09,0.56,1.3C4.75,31.98,4.88,32,5,32   c0.4,0,0.77-0.24,0.93-0.63l1.21-3.03l0.31,0.16C8.73,29.18,11.09,30,15,30c3.88,0,6.23-0.81,7.51-1.48l0.351-0.18l1.21,3.03   C24.23,31.76,24.6,32,25,32c0.12,0,0.25-0.02,0.37-0.07c0.51-0.21,0.76-0.79,0.56-1.3l-3.54-8.85c0.021,0.02,0.04,0.04,0.061,0.05   C27.89,25.46,28,30.77,28,31c0,0.55,0.45,1,1,1s1-0.45,1-1C30,30.73,29.93,24.42,23.55,20.17z M21.58,26.75   C20.69,27.22,18.66,28,15,28c-3.68,0-5.72-0.79-6.61-1.27l-0.5-0.271l1.57-3.91C11.02,23.51,12.87,24,15,24s3.98-0.49,5.54-1.45   l1.57,3.92L21.58,26.75z M20.99,19.62C19.52,21.2,17.5,22,15,22s-4.52-0.8-5.99-2.38c-0.48-0.51-0.88-1.08-1.22-1.69   c1.29-0.239,2.44-0.99,3.16-1.56l3.34,3.34C14.49,19.9,14.74,20,15,20s0.51-0.1,0.71-0.29l3.34-3.34c0.72,0.57,1.87,1.32,3.16,1.56   C21.87,18.54,21.47,19.11,20.99,19.62z M23,16c-1.29,0-2.82-1.23-3.29-1.71c-0.39-0.39-1.03-0.39-1.42,0L15,17.59l-3.29-3.3   c-0.39-0.39-1.02-0.39-1.42,0C9.82,14.77,8.29,16,7,16H6.93C5.77,12.65,5.99,9.1,6,9c0-0.28,0.12-7,7-7h4c6.88,0,7,6.72,7,7.07   c0.01,0.05,0.23,3.58-0.93,6.93H23z"/>
	<path d="M22,8c0,1.1-0.9,2-2,2s-2-0.9-2-2s0.9-2,2-2S22,6.9,22,8z"/>
	<path d="M12,8c0,1.1-0.9,2-2,2S8,9.1,8,8s0.9-2,2-2S12,6.9,12,8z"/>
</g>
<g>
	<rect x="12" y="10" width="2" height="2"/>
</g>
<g>
	<rect x="16" y="10" width="2" height="2"/>
</g>
</svg>
