<?xml version="1.0" encoding="utf-8"?>
<!-- Generator: Adobe Illustrator 16.0.0, SVG Export Plug-In . SVG Version: 6.00 Build 0)  -->
<svg xmlns="http://www.w3.org/2000/svg" xmlns:xlink="http://www.w3.org/1999/xlink" version="1.1" id="2573246591_Capa_1_grid" x="0px" y="0px" width="32px" height="32px" viewBox="0 0 32 32" enable-background="new 0 0 32 32" xml:space="preserve">
<path d="M22.652,3.91C24.618,3.91,26.382,4.764,27,6l3-1l-2,3c1,0,2,0,2,0s0,1-2,2c0,0-0.369,9.495-6,14  c-2.247,1.798-5.101,2.788-8.197,2.788C10.01,26.788,5.854,25.303,2,22c0,0,2,0.25,4,0.25S10,22,10,21c0,0-5,0-6-3c0,0,3,0,4-1  c0,0-4,0-6-6c0,0,3,2,5,2c0,0-5-5-3-9c0,0,5,7,13,7c0,0-1-4,2-6C20.146,4.236,21.438,3.91,22.652,3.91 M22.652,1.91  c-1.716,0-3.362,0.493-4.762,1.426c-2.129,1.419-2.897,3.576-3.039,5.462C9.236,7.741,5.664,2.888,5.624,2.833  C5.246,2.31,4.64,2.002,4.001,2.002c-0.054,0-0.107,0.002-0.162,0.006C3.143,2.066,2.524,2.48,2.211,3.105  C1.215,5.098,1.432,7.178,2.096,9.003C2.064,9.002,2.033,9.001,2.001,9.001c-0.43,0-0.858,0.138-1.216,0.412  c-0.678,0.519-0.953,1.41-0.683,2.22c0.72,2.161,1.688,3.688,2.7,4.767c-0.161,0.121-0.305,0.266-0.425,0.434  c-0.375,0.521-0.478,1.19-0.275,1.8c0.183,0.549,0.439,1.028,0.749,1.448c-0.37-0.037-0.597-0.064-0.604-0.065  C2.165,20.005,2.082,20,1.999,20c-0.783,0-1.505,0.461-1.828,1.19c-0.357,0.808-0.143,1.754,0.527,2.328  c4.022,3.447,8.553,5.27,13.104,5.27c3.542,0,6.809-1.116,9.446-3.227c5.119-4.096,6.367-11.537,6.662-14.365  C31.832,9.885,32,8.455,32,8c0-0.573-0.241-1.089-0.627-1.454l0.291-0.437c0.474-0.711,0.444-1.645-0.074-2.323  C31.204,3.281,30.611,3,30,3c-0.211,0-0.425,0.033-0.633,0.103l-1.689,0.563C26.461,2.567,24.647,1.91,22.652,1.91L22.652,1.91z"/>
</svg>
