<?xml version="1.0" encoding="utf-8"?>
<!-- Generator: Adobe Illustrator 16.0.0, SVG Export Plug-In . SVG Version: 6.00 Build 0)  -->
<svg xmlns="http://www.w3.org/2000/svg" xmlns:xlink="http://www.w3.org/1999/xlink" version="1.1" id="2573246592_Capa_1_grid" x="0px" y="0px" width="32px" height="32px" viewBox="0 0 32 32" enable-background="new 0 0 32 32" xml:space="preserve">
<g>
	<g>
		<g>
			<path d="M30,4v2H2V4H0v24h2v-2h28v2h2V4H30z M30,24H2V8h28V24z"/>
		</g>
	</g>
</g>
<g>
	<g>
		<path d="M24,14v7c0,0.42-0.27,0.8-0.67,0.94C23.22,21.98,23.11,22,23,22c-0.3,0-0.59-0.13-0.78-0.38L16,13.85V17    c0,1.73-1.04,5-5,5s-5-3.27-5-5v-7h2v7c0.01,0.5,0.18,3,3,3s2.99-2.5,3-3.01V11c0-0.42,0.27-0.8,0.67-0.94s0.84-0.02,1.11,0.32    L22,18.15V14H24z"/>
	</g>
</g>
<g>
	<g>
		<rect x="22" y="10" width="2" height="2"/>
	</g>
</g>
</svg>
