<?xml version="1.0" encoding="utf-8"?>
<!-- Generator: Adobe Illustrator 16.0.0, SVG Export Plug-In . SVG Version: 6.00 Build 0)  -->
<svg xmlns="http://www.w3.org/2000/svg" xmlns:xlink="http://www.w3.org/1999/xlink" version="1.1" id="2573246595_Capa_1_grid" x="0px" y="0px" width="32px" height="32px" viewBox="0 0 32 32" enable-background="new 0 0 32 32" xml:space="preserve">
<g>
	<path d="M29.89,16.55C29.72,16.2,25.5,8,15,8S0.28,16.2,0.11,16.55c-0.15,0.28-0.15,0.62,0,0.9C0.28,17.8,4.5,26,15,26   s14.72-8.2,14.89-8.55C30.04,17.17,30.04,16.83,29.89,16.55z M14,10.1V14h2v-3.9c2.28,0.46,4,2.48,4,4.9c0,2.76-2.24,5-5,5   s-5-2.24-5-5C10,12.58,11.72,10.56,14,10.1z M15,24c-8,0-11.86-5.37-12.85-7c0.71-1.15,2.93-4.25,7.05-5.91   C8.44,12.21,8,13.55,8,15c0,3.87,3.13,7,7,7s7-3.13,7-7c0-1.46-0.45-2.82-1.22-3.94c4.16,1.66,6.359,4.77,7.069,5.94   C26.86,18.6,22.94,24,15,24z"/>
</g>
<g>
	<rect x="14" y="16" width="2" height="2"/>
</g>
</svg>
