<?xml version="1.0" encoding="utf-8"?>
<!-- Generator: Adobe Illustrator 16.0.0, SVG Export Plug-In . SVG Version: 6.00 Build 0)  -->
<svg xmlns="http://www.w3.org/2000/svg" xmlns:xlink="http://www.w3.org/1999/xlink" version="1.1" id="2573246596_Capa_1_grid" x="0px" y="0px" width="32px" height="32px" viewBox="0 0 32 32" style="enable-background:new 0 0 32 32;" xml:space="preserve">
<path d="M17,0C8.72,0,2,6.72,2,15c0,2.77,0.75,5.36,2.06,7.59l-2.03,8.17c-0.08,0.32,0,0.66,0.23,0.91C2.45,31.88,2.72,32,3,32  c0.05,0,0.09,0,0.14-0.01L17,30c8.28,0,15-6.72,15-15C32,6.72,25.28,0,17,0z M17,28L4.33,29.8l1.69-6.68l0.22-0.84  c-0.07-0.08-0.12-0.17-0.18-0.25C4.76,20,4,17.59,4,15C4,7.83,9.83,2,17,2s13,5.83,13,13S24.17,28,17,28z M16,15  c0-2.019-0.873-3.941-2.394-5.272l-1.317,1.505C13.376,12.185,14,13.558,14,15c0,1.441-0.622,2.813-1.707,3.763l1.317,1.504  C15.129,18.937,16,17.017,16,15z M20,15c0-3.031-1.205-5.854-3.395-7.949l-1.383,1.445C17.014,10.21,18,12.52,18,15  c0,2.404-0.937,4.664-2.636,6.364l1.414,1.414C18.855,20.701,20,17.938,20,15z M24,15c0-4.024-1.569-7.801-4.42-10.636l-1.41,1.418  C20.64,8.238,22,11.512,22,15c0,3.475-1.352,6.739-3.807,9.193l1.414,1.414C22.44,22.776,24,19.009,24,15z"/>
</svg>
