<?xml version="1.0" encoding="utf-8"?>
<!-- Generator: Adobe Illustrator 16.0.0, SVG Export Plug-In . SVG Version: 6.00 Build 0)  -->
<svg xmlns="http://www.w3.org/2000/svg" xmlns:xlink="http://www.w3.org/1999/xlink" version="1.1" id="2573246598_Capa_1_grid" x="0px" y="0px" width="32px" height="32px" viewBox="0 0 32 32" enable-background="new 0 0 32 32" xml:space="preserve">
<g>
	<g>
		<rect x="16" y="16" width="12" height="2"/>
	</g>
</g>
<g>
	<g>
		<rect x="16" y="20" width="12" height="2"/>
	</g>
</g>
<g>
	<g>
		<rect x="16" y="24" width="12" height="2"/>
	</g>
</g>
<g>
	<g>
		<rect x="12" y="20" width="2" height="2"/>
	</g>
</g>
<g>
	<g>
		<rect x="12" y="24" width="2" height="2"/>
	</g>
</g>
<g>
	<g>
		<path d="M25,0H10c0,0-0.79,0-1,0C4.03,0,0,4.03,0,9c0,4.63,3.5,8.45,8,8.94V30c0,2,2,2,2,2h20c2,0,2-2,2-2V7L25,0z M9,16    c-3.87,0-7-3.13-7-7s3.13-7,7-7s7,3.13,7,7S12.87,16,9,16z M30,29.96c0,0.01,0,0.021-0.01,0.04H10.04c-0.01,0-0.02,0-0.04-0.01    V17.94c0.69-0.07,1.36-0.23,2-0.46V18h2v-1.52c0.98-0.65,1.83-1.5,2.48-2.48H28v-2H17.48c0.229-0.64,0.39-1.31,0.46-2H20V8h-2.06    c-0.261-2.42-1.49-4.56-3.3-6H22v5c0,1.21,0.8,3,3,3h5V29.96z M30,8h-5c-0.81,0-0.99-0.55-1-1V2h0.17L30,7.83V8z"/>
	</g>
</g>
<g>
	<polygon points="13.71,5.71 7,12.41 4.29,9.71 5.71,8.29 7,9.59 12.29,4.29  "/>
</g>
</svg>
