<?xml version="1.0" encoding="utf-8"?>
<!-- Generator: Adobe Illustrator 16.0.0, SVG Export Plug-In . SVG Version: 6.00 Build 0)  -->
<svg xmlns="http://www.w3.org/2000/svg" xmlns:xlink="http://www.w3.org/1999/xlink" version="1.1" id="2573246599_Capa_1_grid" x="0px" y="0px" width="32px" height="32px" viewBox="0 0 32 32" enable-background="new 0 0 32 32" xml:space="preserve">
<g>
	<path d="M31.97,18.76C31.56,17.11,29.57,14,25,14c-2.25,0-3.88,0.76-5,1.73V7c0-2.42-1.46-7-7-7S6,4.58,6,7v0.05   C1.28,7.57,0,11.73,0,14v10l4.75-3.57L7,23.8l2.25-3.37L14,24V14c0-2.27-1.28-6.43-6-6.95V7c0-0.2,0.06-5,5-5c4.82,0,5,4.49,5,5v25   h2v-9.73C21.12,23.24,22.75,24,25,24c4.57,0,6.56-3.11,6.97-4.76C32.01,19.08,32.01,18.92,31.97,18.76z M12,14v6l-3.25-2.43L7,20.2   l-1.75-2.63L2,20v-6c0-0.2,0.06-5,5-5C11.82,9,12,13.49,12,14z M25,22c-3.49,0-4.66-2.24-4.95-3c0.29-0.75,1.46-3,4.95-3   s4.66,2.24,4.95,3C29.66,19.75,28.49,22,25,22z"/>
</g>
</svg>
