<?xml version="1.0" encoding="utf-8"?>
<!-- Generator: Adobe Illustrator 16.0.0, SVG Export Plug-In . SVG Version: 6.00 Build 0)  -->
<svg xmlns="http://www.w3.org/2000/svg" xmlns:xlink="http://www.w3.org/1999/xlink" version="1.1" id="2573246600_Capa_1_grid" x="0px" y="0px" width="32px" height="32px" viewBox="0 0 32 32" enable-background="new 0 0 32 32" xml:space="preserve">
<g>
	<path d="M24,14c0-7.15-2.02-11.28-2.11-11.45L21.62,2H8.38L8.11,2.55C8.02,2.72,6,6.85,6,14c0,5.7,4.78,7.62,8,7.95V28h-4v2h10v-2   h-4v-6.05C19.22,21.62,24,19.7,24,14z M9.66,4h10.68c0.37,0.93,1.061,2.98,1.42,6H8.24C8.6,6.99,9.29,4.92,9.66,4z M15,20   c-0.31,0-7-0.11-7-6c0-0.7,0.02-1.37,0.06-2h13.88c0.04,0.63,0.06,1.3,0.06,2C22,19.89,15.31,20,15,20z"/>
</g>
</svg>
