<?xml version="1.0" encoding="utf-8"?>
<!-- Generator: Adobe Illustrator 16.0.0, SVG Export Plug-In . SVG Version: 6.00 Build 0)  -->
<svg xmlns="http://www.w3.org/2000/svg" xmlns:xlink="http://www.w3.org/1999/xlink" version="1.1" id="2573246601_Capa_1_grid" x="0px" y="0px" width="32px" height="32px" viewBox="0 0 32 32" enable-background="new 0 0 32 32" xml:space="preserve">
<g>
	<g>
		<path d="M19,32c-0.26,0-0.516-0.102-0.707-0.293c-0.401-0.401-0.8-0.596-1.219-0.596c-0.742,0-1.367,0.596-1.373,0.602    c-0.289,0.279-0.719,0.361-1.089,0.205C14.243,31.761,14,31.401,14,31V17.287L4.152,1.53c-0.216-0.345-0.2-0.788,0.039-1.117    c0.24-0.33,0.656-0.481,1.051-0.383c0.017,0.004,1.687,0.415,3.314,0.415c0.863,0,1.554-0.117,1.997-0.339    c0.478-0.238,1.059-0.06,1.32,0.407l5.153,9.218l5.487-9.241c0.279-0.472,0.887-0.63,1.362-0.354l0,0c0,0,0.84,0.458,2.215,0.458    l0,0c0.862,0,1.755-0.177,2.654-0.525c0.4-0.157,0.859-0.036,1.134,0.297c0.273,0.333,0.304,0.805,0.073,1.169L20,17.289V31    c0,0.404-0.243,0.77-0.617,0.924C19.259,31.976,19.129,32,19,32z M7.028,2.357l8.82,14.113C15.947,16.629,16,16.813,16,17v12.279    c0.585-0.184,1.323-0.233,2-0.035V17c0-0.189,0.054-0.374,0.154-0.534l8.791-13.917c-0.286,0.029-0.571,0.043-0.854,0.043l0,0    c-0.967,0-1.746-0.167-2.298-0.342l-5.934,9.993c-0.182,0.308-0.485,0.49-0.873,0.489c-0.357-0.005-0.685-0.2-0.86-0.512    l-5.588-9.996C9.568,2.475,8.196,2.484,7.028,2.357z"/>
	</g>
</g>
</svg>
