<?xml version="1.0" encoding="utf-8"?>
<!-- Generator: Adobe Illustrator 16.0.0, SVG Export Plug-In . SVG Version: 6.00 Build 0)  -->
<svg xmlns="http://www.w3.org/2000/svg" xmlns:xlink="http://www.w3.org/1999/xlink" version="1.1" id="2571694994_Capa_1_grid" x="0px" y="0px" width="32px" height="32px" viewBox="0 0 32 32" style="enable-background:new 0 0 32 32;" xml:space="preserve">
<path d="M19,0h-8C0.13,0,0,10.89,0,11v6.41L4.59,22H6v10h18V22h1.41L30,17.41V11C30,10.89,29.87,0,19,0z M22,30H8v-4h2v2h2v-2h2v2h2  v-2h2v2h2v-2h2V30z M28,16.59L24.59,20H22v4h-2v-2h-2v2h-2v-2h-2v2h-2v-2h-2v2H8v-4H5.41L2,16.59V11c0-0.37,0.1-9,9-9h8  c8.859,0,9,8.63,9,9V16.59z M9,8c-2.76,0-5,2.24-5,5s2.24,5,5,5s5-2.24,5-5S11.76,8,9,8z M9,16c-1.65,0-3-1.35-3-3s1.35-3,3-3  s3,1.35,3,3S10.65,16,9,16z M21,8c-2.76,0-5,2.24-5,5s2.24,5,5,5s5-2.24,5-5S23.76,8,21,8z M21,16c-1.65,0-3-1.35-3-3s1.35-3,3-3  s3,1.35,3,3S22.65,16,21,16z"/>
</svg>
