<?xml version="1.0" encoding="utf-8"?>
<!-- Generator: Adobe Illustrator 16.0.0, SVG Export Plug-In . SVG Version: 6.00 Build 0)  -->
<svg xmlns="http://www.w3.org/2000/svg" xmlns:xlink="http://www.w3.org/1999/xlink" version="1.1" id="2571694993_Capa_1_grid" x="0px" y="0px" width="32px" height="32px" viewBox="0 0 32 32" style="enable-background:new 0 0 32 32;" xml:space="preserve">
<path d="M30.87,1.52l-0.14-0.25l-0.25-0.14C30.4,1.09,28.63,0.12,25.93,0.12c-2.449,0-6.188,0.82-10.08,4.72  c-0.64,0.64-1.24,1.28-1.8,1.93l-0.01-0.02l-9.9,4.24c-0.11,0.05-0.22,0.12-0.31,0.21l-3.54,3.54C0.11,14.92,0,15.18,0,15.44  c0,0.27,0.11,0.52,0.29,0.71l4.95,4.95l-3.53,3.541c-0.29,0.279-0.37,0.709-0.22,1.09C1.65,26.1,2.01,26.34,2.42,26.34h3.24v3.25  c0,0.4,0.24,0.771,0.61,0.92c0.13,0.051,0.26,0.08,0.39,0.08c0.26,0,0.51-0.109,0.7-0.3l3.54-3.53l4.95,4.95  C16.04,31.9,16.3,32,16.561,32c0.25,0,0.51-0.1,0.699-0.29l3.54-3.54c0.091-0.09,0.16-0.189,0.21-0.311l4.24-9.899l-0.02-0.01  c0.648-0.562,1.289-1.16,1.93-1.8C34.68,8.63,31.02,1.81,30.87,1.52z M25.93,2.12c1.61,0,2.812,0.43,3.312,0.64  c0.358,0.82,1.25,3.48-0.062,6.9c-1.148-0.47-2.75-1.31-4.14-2.7s-2.229-2.97-2.7-4.16C23.52,2.35,24.71,2.12,25.93,2.12z   M2.41,15.44l2.7-2.69l6.35-2.72c-2.75,3.81-4.4,7.361-5.18,9.281L2.41,15.44z M7.66,27.17v-1.83c0-0.55-0.45-1-1-1H4.83l1.83-1.82  l2.83,2.83L7.66,27.17z M7.82,20.85c0.17-0.438,0.44-1.129,0.84-1.988l4.48,4.479c-0.86,0.391-1.54,0.67-1.99,0.84L7.82,20.85z   M19.25,26.891l-2.689,2.699l-3.871-3.869c1.92-0.779,5.47-2.431,9.281-5.181L19.25,26.891z M15.04,22.42l-5.46-5.47  c1.54-3,4.04-7.06,7.68-10.7c1.07-1.07,2.16-1.93,3.271-2.58c0.56,1.36,1.52,3.13,3.1,4.7c1.561,1.57,3.311,2.53,4.68,3.1  c-0.608,1.05-1.438,2.15-2.56,3.27C22.1,18.38,18.04,20.88,15.04,22.42z M22.21,9.79c-0.78-0.78-1.8-1.17-2.819-1.17  c-1.029,0-2.051,0.39-2.83,1.17c-1.561,1.56-1.561,4.09,0,5.65c0.779,0.78,1.799,1.18,2.819,1.18c1.03,0,2.05-0.4,2.83-1.18  C23.779,13.88,23.779,11.35,22.21,9.79z M20.8,14.03c-0.38,0.38-0.88,0.59-1.42,0.59c-0.53,0-1.03-0.21-1.409-0.59  c-0.779-0.78-0.779-2.05,0-2.83c0.379-0.38,0.879-0.58,1.42-0.58c0.529,0,1.029,0.2,1.409,0.58C21.58,11.98,21.58,13.25,20.8,14.03z  "/>
</svg>
