<?xml version="1.0" encoding="utf-8"?>
<!-- Generator: Adobe Illustrator 16.0.0, SVG Export Plug-In . SVG Version: 6.00 Build 0)  -->
<svg xmlns="http://www.w3.org/2000/svg" xmlns:xlink="http://www.w3.org/1999/xlink" version="1.1" id="2571694999_Capa_1_grid" x="0px" y="0px" width="32px" height="32px" viewBox="0 0 32 32" style="enable-background:new 0 0 32 32;" xml:space="preserve">
<path d="M22.59,16h2.82l-16-16H0v9.41L6.59,16h10.83L16,14.58V9.41L22.59,16z M8,2v4.58L3.42,2H8z M2,3.42L6.58,8H2V3.42z M7.41,14  l-4-4h5.17l4,4H7.41z M14,12.58l-4-4V3.41l4,4V12.58z M17,18c-0.61,0-15,0.109-15,9.57C2,28.8,2.85,32,6.73,32h20.54  C31.15,32,32,28.8,32,27.57C32,18.109,17.609,18,17,18z M27.27,30H6.73C4.17,30,4.01,27.971,4,27.57c0-3.562,2.93-5.45,6-6.45V25  c0,0.55,0.45,1,1,1s1-0.45,1-1v-4.41c1.6-0.35,3.07-0.49,4-0.55V25c0,0.55,0.45,1,1,1s1-0.45,1-1v-4.96c0.93,0.06,2.4,0.2,4,0.55V25  c0,0.55,0.45,1,1,1s1-0.45,1-1v-3.88c3.07,1,6,2.89,6,6.45C30,27.82,29.92,30,27.27,30z"/>
</svg>
