<?xml version="1.0" encoding="utf-8"?>
<!-- Generator: Adobe Illustrator 16.0.0, SVG Export Plug-In . SVG Version: 6.00 Build 0)  -->
<svg xmlns="http://www.w3.org/2000/svg" xmlns:xlink="http://www.w3.org/1999/xlink" version="1.1" id="2571694997_Capa_1_grid" x="0px" y="0px" width="32px" height="32px" viewBox="0 0 32 32" style="enable-background:new 0 0 32 32;" xml:space="preserve">
<path d="M15,16c-0.61,0-15,0.11-15,9.57C0,26.8,0.85,30,4.73,30h20.54C29.15,30,30,26.8,30,25.57C30,16.11,15.61,16,15,16z   M25.27,28H4.73C2.17,28,2.01,25.971,2,25.57c0-3.562,2.93-5.45,6-6.45V23c0,0.55,0.45,1,1,1s1-0.45,1-1v-4.41  c1.6-0.35,3.07-0.49,4-0.55V23c0,0.55,0.45,1,1,1s1-0.45,1-1v-4.96c0.93,0.06,2.4,0.2,4,0.55V23c0,0.55,0.45,1,1,1s1-0.45,1-1v-3.88  c3.07,1,6,2.89,6,6.45C28,25.82,27.92,28,25.27,28z M5.9,14.56c0.23,0.5,0.03,1.09-0.46,1.33C5.29,15.96,5.14,16,5,16  c-0.37,0-0.72-0.2-0.89-0.55c-0.05-0.1-1.18-2.41-0.06-5.77C4.89,7.16,4.13,5.51,4.1,5.44c-0.23-0.5-0.03-1.09,0.46-1.33  c0.5-0.24,1.09-0.05,1.33,0.44c0.05,0.1,1.18,2.41,0.06,5.77C5.11,12.84,5.87,14.49,5.9,14.56z M15.9,12.56  c0.23,0.5,0.03,1.09-0.46,1.33C15.29,13.96,15.14,14,15,14c-0.37,0-0.72-0.2-0.89-0.55c-0.05-0.1-1.18-2.41-0.06-5.77  c0.84-2.52,0.08-4.17,0.05-4.24c-0.23-0.5-0.03-1.09,0.46-1.33c0.5-0.24,1.09-0.05,1.33,0.44c0.05,0.1,1.18,2.41,0.06,5.77  C15.11,10.84,15.87,12.49,15.9,12.56z M25.9,14.56c0.229,0.5,0.029,1.09-0.461,1.33C25.29,15.96,25.141,16,25,16  c-0.37,0-0.721-0.2-0.891-0.55c-0.051-0.1-1.18-2.41-0.061-5.77c0.84-2.52,0.08-4.17,0.051-4.24c-0.229-0.5-0.029-1.09,0.459-1.33  c0.49-0.24,1.092-0.05,1.33,0.44c0.051,0.1,1.182,2.41,0.062,5.77C25.109,12.84,25.87,14.49,25.9,14.56z"/>
</svg>
