<?xml version="1.0" encoding="utf-8"?>
<!-- Generator: Adobe Illustrator 16.0.0, SVG Export Plug-In . SVG Version: 6.00 Build 0)  -->
<svg xmlns="http://www.w3.org/2000/svg" xmlns:xlink="http://www.w3.org/1999/xlink" version="1.1" id="2571695001_Capa_1_grid" x="0px" y="0px" width="32px" height="32px" viewBox="0 0 32 32" style="enable-background:new 0 0 32 32;" xml:space="preserve">
<path d="M15,2C6.72,2,0,8.72,0,17c0,8.279,6.72,15,15,15c8.279,0,15-6.721,15-15C30,8.72,23.279,2,15,2z M14.26,4.03  c0.09,0.51,0.13,1.33-0.16,2.41l-0.65-0.33c-0.5-0.25-1.1-0.05-1.34,0.44c-0.25,0.5-0.05,1.1,0.44,1.34l0.81,0.4  c-0.5,0.97-1.26,2.06-2.38,3.27l-1.27-1.27c-0.39-0.39-1.03-0.39-1.42,0s-0.39,1.03,0,1.42l1.27,1.27c-1.21,1.12-2.3,1.88-3.27,2.38  l-0.4-0.81c-0.24-0.49-0.84-0.69-1.34-0.44c-0.49,0.24-0.69,0.84-0.44,1.34l0.33,0.66c-1.08,0.28-1.9,0.24-2.41,0.15  C2.39,9.68,7.68,4.39,14.26,4.03z M14.86,24.82l-1.41-0.711c-0.5-0.25-1.1-0.051-1.34,0.438c-0.25,0.5-0.05,1.103,0.44,1.341  l1.55,0.771c-0.42,1.35-0.46,2.46-0.37,3.271c-6.15-0.591-11.06-5.5-11.66-11.65c0.22,0.029,0.46,0.041,0.72,0.041  c0.71,0,1.57-0.103,2.55-0.42l0.77,1.55C6.28,19.8,6.63,20,7,20c0.15,0,0.3-0.029,0.45-0.109c0.49-0.24,0.69-0.841,0.44-1.341  l-0.71-1.409c1.15-0.601,2.43-1.471,3.8-2.741l1.31,1.31C12.49,15.9,12.74,16,13,16s0.51-0.1,0.71-0.29c0.39-0.39,0.39-1.03,0-1.42  l-1.3-1.3c1.26-1.38,2.13-2.65,2.73-3.81l1.41,0.71C16.7,9.97,16.85,10,17,10c0.37,0,0.721-0.2,0.891-0.55  c0.25-0.5,0.051-1.1-0.438-1.34L15.9,7.34c0.42-1.35,0.46-2.46,0.37-3.27c6.16,0.59,11.07,5.5,11.66,11.66  c-0.81-0.09-1.92-0.05-3.27,0.37l-0.771-1.55c-0.238-0.49-0.84-0.69-1.34-0.44c-0.49,0.24-0.689,0.84-0.439,1.34l0.711,1.409  c-1.159,0.601-2.432,1.471-3.812,2.729l-1.3-1.3c-0.391-0.391-1.029-0.391-1.42,0c-0.39,0.391-0.39,1.029,0,1.42l1.3,1.3  C16.33,22.391,15.46,23.66,14.86,24.82z M15.74,29.971c-0.09-0.511-0.13-1.33,0.16-2.41l0.65,0.33C16.7,27.971,16.85,28,17,28  c0.37,0,0.721-0.2,0.891-0.55c0.25-0.5,0.051-1.101-0.438-1.341l-0.812-0.399c0.5-0.97,1.26-2.06,2.379-3.271l1.271,1.271  C20.49,23.9,20.74,24,21,24s0.51-0.1,0.71-0.29c0.39-0.39,0.39-1.03,0-1.42l-1.271-1.271c1.211-1.119,2.301-1.869,3.271-2.381  l0.399,0.812C24.279,19.8,24.63,20,25,20c0.15,0,0.3-0.029,0.45-0.109c0.489-0.24,0.688-0.841,0.438-1.341L25.57,17.9  c1.09-0.301,1.897-0.262,2.41-0.17C27.609,24.32,22.32,29.609,15.74,29.971z"/>
</svg>
