<?xml version="1.0" encoding="utf-8"?>
<!-- Generator: Adobe Illustrator 16.0.0, SVG Export Plug-In . SVG Version: 6.00 Build 0)  -->
<svg xmlns="http://www.w3.org/2000/svg" xmlns:xlink="http://www.w3.org/1999/xlink" version="1.1" id="2571695002_Capa_1_grid" x="0px" y="0px" width="32px" height="32px" viewBox="0 0 32 32" style="enable-background:new 0 0 32 32;" xml:space="preserve">
<path d="M29,4h-3V3c0-2.2-1.79-3-3-3h-8c-2.2,0-3,1.79-3,3v1H9C6.8,4,6,5.79,6,7v3h2V7.01C8.01,6.55,8.19,6,9,6h19.99  C29.45,6.01,30,6.19,30,7v12c-0.01,0.46-0.2,1-1,1h-5v2h5c0.37,0,0.71-0.05,1-0.15v1.142C29.99,23.45,29.811,24,29,24h-5v2h5  c2.2,0,3-1.79,3-3V7C32,4.8,30.21,4,29,4z M24,4H14V3.01C14.01,2.55,14.19,2,15,2h7.99C23.45,2.01,24,2.19,24,3V4z M12,16.03V14h2  v-2H8v2h2v2.03C0.12,16.68,0,26.891,0,27v5h22v-5C22,26.891,21.88,16.68,12,16.03z M11,18c7.16,0,8.62,5.641,8.92,8H2.07  C2.36,23.65,3.8,18,11,18z M20,30H2v-2h18V30z"/>
</svg>
