<?xml version="1.0" encoding="utf-8"?>
<!-- Generator: Adobe Illustrator 16.0.0, SVG Export Plug-In . SVG Version: 6.00 Build 0)  -->
<svg xmlns="http://www.w3.org/2000/svg" xmlns:xlink="http://www.w3.org/1999/xlink" version="1.1" id="2571695003_Capa_1_grid" x="0px" y="0px" width="32px" height="32px" viewBox="0 0 32 32" style="enable-background:new 0 0 32 32;" xml:space="preserve">
<path d="M15.16,0.01L15-0.01l-0.16,0.02C14.71,0.04,2,2.31,2,16c0,6.141,3.92,15.029,4.09,15.41L6.35,32h17.3l0.26-0.59  C24.08,31.029,28,22.141,28,16C28,2.31,15.29,0.04,15.16,0.01z M22.34,30H7.66c-0.19-0.46-0.47-1.15-0.8-2h16.281  C22.811,28.859,22.529,29.55,22.34,30z M10,14v-2h4V8h2v4h4v2h-4v12h-2V14H10z M23.859,26H18V16h4v-6h-4V6h-6v4H8v6h4v10H6.14  C5.1,22.99,4,19.061,4,16C4,4.69,13.56,2.31,15,2.02C16.44,2.31,26,4.69,26,16C26,19.05,24.891,22.99,23.859,26z"/>
</svg>
