<?xml version="1.0" encoding="utf-8"?>
<!-- Generator: Adobe Illustrator 16.0.0, SVG Export Plug-In . SVG Version: 6.00 Build 0)  -->
<svg xmlns="http://www.w3.org/2000/svg" xmlns:xlink="http://www.w3.org/1999/xlink" version="1.1" id="2571695005_Capa_1_grid" x="0px" y="0px" width="32px" height="32px" viewBox="0 0 32 32" style="enable-background:new 0 0 32 32;" xml:space="preserve">
<path d="M28,2V0H9C5.04,0,4,3.27,4,5v22c0,1.73,1.04,5,5,5h19V8h-2V2H28z M6,5c0.01-0.52,0.19-3,3-3h15v6H9C6.18,8,6.01,5.5,6,5.01  V5z M26,30H9c-2.82,0-2.99-2.5-3-3V9.12C6.73,9.65,7.71,10,9,10h17V30z M22,16v-2h-4v-2h-2v2h-4v6h4v2h-4v2h4v2h2v-2h4v-6h-4v-2H22z   M16,18h-2v-2h2V18z M20,20v2h-2v-2H20z"/>
</svg>
