<?xml version="1.0" encoding="utf-8"?>
<!-- Generator: Adobe Illustrator 16.0.0, SVG Export Plug-In . SVG Version: 6.00 Build 0)  -->
<svg xmlns="http://www.w3.org/2000/svg" xmlns:xlink="http://www.w3.org/1999/xlink" version="1.1" id="2571695006_Capa_1_grid" x="0px" y="0px" width="32px" height="32px" viewBox="0 0 32 32" style="enable-background:new 0 0 32 32;" xml:space="preserve">
<path d="M24,0H13C9.5,0,8.28,2.57,8.04,4.36C7.51,4.14,6.83,4,6,4C3.07,4,2,6.39,2,8v3c0,4.13,1.9,6.641,3.58,8.85  C6.88,21.57,8,23.05,8,25v6c0,0.55,0.45,1,1,1h20c0.55,0,1-0.45,1-1V5C30,1.04,26.08,0,24,0z M28,30H10v-2h18V30z M20,26h-2v-0.99  c0.01-0.46,0.189-1.01,1-1.01s0.99,0.55,1,1V26z M28,26h-6v-1c0-1.21-0.8-3-3-3s-3,1.79-3,3v1h-6v-1c0-2.63-1.44-4.52-2.83-6.359  C5.61,16.59,4,14.46,4,11V8c0-0.33,0.1-2,2-2c1.84,0,1.99,0.86,2,1c0,3.11,1.88,9,9,9c3.609,0,6.21-0.99,7.74-2.94  c2.1-2.7,1.27-6.16,1.229-6.3c-0.13-0.54-0.68-0.86-1.21-0.73C24.23,6.16,23.9,6.7,24.029,7.24c0.011,0.03,0.631,2.68-0.879,4.6  C22.02,13.27,19.95,14,17,14c-6.88,0-7-6.72-7-7V5.01C10.01,4.5,10.18,2,13,2h11c0.16,0,4,0.03,4,3V26z"/>
</svg>
