<?xml version="1.0" encoding="utf-8"?>
<!-- Generator: Adobe Illustrator 16.0.0, SVG Export Plug-In . SVG Version: 6.00 Build 0)  -->
<svg xmlns="http://www.w3.org/2000/svg" xmlns:xlink="http://www.w3.org/1999/xlink" version="1.1" id="2571695007_Capa_1_grid" x="0px" y="0px" width="32px" height="32px" viewBox="0 0 32 32" style="enable-background:new 0 0 32 32;" xml:space="preserve">
<path d="M31.83,30.221l-8.79-12.83c0.59-1,0.44-2.031,0.04-2.801c0.97-1.29,1.229-2.78,0.74-4.27c-0.2-0.59-0.48-1.08-0.73-1.44  c1.03-1.47,1.78-4.01-0.58-6.38c-1.42-1.42-3.16-1.88-4.91-1.3c-0.568,0.19-1.06,0.47-1.418,0.71c-1.28-0.95-2.76-1.2-4.23-0.71  c-0.57,0.19-1.05,0.46-1.42,0.71C8.57,0.35,6.64,0.5,5.32,0.94c-1.44,0.48-2.43,1.4-2.58,1.54C2.73,2.49,2.72,2.5,2.72,2.5  C2.71,2.51,2.71,2.51,2.7,2.52C2.55,2.68,1.63,3.67,1.15,5.1c-0.44,1.33-0.59,3.25,0.96,5.21c-0.92,1.33-1.59,3.51,0.01,5.65  c-1.02,1.47-1.75,4,0.6,6.34c1.42,1.421,3.16,1.892,4.91,1.312c0.59-0.2,1.08-0.48,1.45-0.73c0.37,0.25,0.86,0.53,1.45,0.73  c0.49,0.158,0.99,0.238,1.47,0.238c0.99,0,1.94-0.33,2.8-0.988c0.15,0.08,0.32,0.148,0.5,0.22c0.8,0.26,1.601,0.18,2.3-0.25  l5.99,4.101c-1.5,1.26-2.3,0.899-3.82,0.239C18.59,26.65,17.12,26,15,26c-2.69,0-4.05,0.54-5.37,1.07C8.44,27.55,7.31,28,5,28  c-0.55,0-1,0.45-1,1s0.45,1,1,1c2.69,0,4.05-0.54,5.37-1.07C11.56,28.45,12.69,28,15,28c1.7,0,2.85,0.51,3.971,1  c1.771,0.779,3.6,1.58,6.329-0.9l5.142,3.512c0.17,0.119,0.358,0.18,0.56,0.18c0.26,0,0.51-0.1,0.71-0.29  C32.05,31.16,32.1,30.62,31.83,30.221z M16.39,21.189c-0.38,0.119-0.71-0.08-0.95-0.301c-0.39-0.39-1.02-0.39-1.41,0  c-2,1.99-3.89,0.352-4.24,0c-0.38-0.38-1.04-0.38-1.42,0c0,0-0.57,0.551-1.37,0.82c-1.04,0.34-1.98,0.08-2.87-0.82  c-2-2-0.35-3.89,0-4.24c0.39-0.399,0.39-1.029,0-1.419c-2-1.99-0.35-3.89,0-4.24c0.19-0.19,0.29-0.44,0.29-0.71  c0-0.26-0.1-0.52-0.29-0.7C1.52,6.96,3.65,4.43,4.08,3.97C4.1,3.95,4.11,3.94,4.13,3.92c0.01-0.01,0.75-0.73,1.82-1.09  c1.39-0.46,2.64-0.1,3.84,1.09c0.37,0.37,1.04,0.37,1.41,0c0.01-0.01,0.58-0.55,1.38-0.82c1.03-0.35,1.97-0.08,2.86,0.82  c0.39,0.39,1.03,0.39,1.419,0c0-0.01,0.57-0.55,1.371-0.82C19.27,2.76,20.2,3.02,21.1,3.92c2,1.99,0.352,3.89,0,4.24  c-0.39,0.39-0.39,1.02,0,1.41c0.352,0.36,2,2.25,0,4.25c-0.188,0.18-0.289,0.44-0.289,0.7c0,0.27,0.101,0.52,0.289,0.71  c0.16,0.16,0.45,0.53,0.291,0.98c-0.029,0.02-0.07,0.05-0.101,0.08L16.39,21.189z M19.029,21.391l2.57-2.57l5.562,8.13  L19.029,21.391z"/>
<path d="M17,8h-1.18c-0.03-0.1-0.07-0.2-0.12-0.29l0.84-0.83c0.39-0.39,0.39-1.02,0-1.42c-0.4-0.39-1.03-0.39-1.42,0L14.29,6.3  C14.2,6.25,14.1,6.21,14,6.18V5c0-0.55-0.45-1-1-1s-1,0.45-1,1v1.18c-0.1,0.03-0.2,0.07-0.29,0.12l-0.83-0.84  c-0.39-0.39-1.03-0.39-1.42,0c-0.39,0.4-0.39,1.03,0,1.42l0.84,0.83C10.25,7.8,10.21,7.9,10.18,8H9C8.45,8,8,8.45,8,9s0.45,1,1,1  h1.18c0.03,0.1,0.07,0.2,0.12,0.29l-0.84,0.83c-0.39,0.39-0.39,1.03,0,1.42c0.2,0.19,0.46,0.29,0.71,0.29c0.26,0,0.51-0.1,0.71-0.29  l0.83-0.84c0.09,0.05,0.19,0.09,0.29,0.12V13c0,0.55,0.45,1,1,1s1-0.45,1-1v-1.18c0.1-0.03,0.2-0.07,0.29-0.12l0.83,0.84  c0.2,0.19,0.45,0.29,0.71,0.29c0.25,0,0.51-0.1,0.71-0.29c0.39-0.4,0.39-1.03,0-1.42l-0.84-0.83c0.05-0.09,0.09-0.19,0.12-0.29H17  c0.55,0,1-0.45,1-1S17.55,8,17,8z M13,10c-0.55,0-1-0.45-1-1s0.45-1,1-1s1,0.45,1,1S13.55,10,13,10z"/>
</svg>
