<?xml version="1.0" encoding="utf-8"?>
<!-- Generator: Adobe Illustrator 16.0.0, SVG Export Plug-In . SVG Version: 6.00 Build 0)  -->
<svg xmlns="http://www.w3.org/2000/svg" xmlns:xlink="http://www.w3.org/1999/xlink" version="1.1" id="2571695008_Capa_1_grid" x="0px" y="0px" width="32px" height="32px" viewBox="0 0 32 32" style="enable-background:new 0 0 32 32;" xml:space="preserve">
<path d="M25,8c-2.93,0-5.58,1.66-7.141,2.9C17.05,10.33,16.06,10,15,10s-2.05,0.33-2.86,0.9C10.58,9.66,7.93,8,5,8  c-3.64,0-5,4.29-5,7s1.36,7,5,7c2.93,0,5.58-1.66,7.14-2.9c0.81,0.57,1.8,0.9,2.86,0.9s2.05-0.33,2.859-0.891  C20.23,20.98,22.74,22,25,22c3.641,0,5-4.29,5-7S28.641,8,25,8z M10.76,17.65C9.42,18.68,7.27,20,5,20c-2.24,0-3-3.43-3-5  c0-1.57,0.76-5,3-5c2.26,0,4.41,1.32,5.76,2.35C10.28,13.12,10,14.03,10,15S10.28,16.88,10.76,17.65z M15,18c-1.65,0-3-1.35-3-3  c0-1.65,1.35-3,3-3c1.65,0,3,1.35,3,3C18,16.65,16.65,18,15,18z M25,20c-2.279,0-4.46-1.35-5.76-2.359C19.721,16.87,20,15.97,20,15  s-0.279-1.88-0.76-2.65C20.59,11.32,22.74,10,25,10c2.24,0,3,3.43,3,5C28,16.57,27.24,20,25,20z"/>
</svg>
