<?xml version="1.0" encoding="utf-8"?>
<!-- Generator: Adobe Illustrator 16.0.0, SVG Export Plug-In . SVG Version: 6.00 Build 0)  -->
<svg xmlns="http://www.w3.org/2000/svg" xmlns:xlink="http://www.w3.org/1999/xlink" version="1.1" id="2571695010_Capa_1_grid" x="0px" y="0px" width="32px" height="32px" viewBox="0 0 32 32" style="enable-background:new 0 0 32 32;" xml:space="preserve">
<path d="M26,14h-2v-4h-5.83c1.439-1.1,3.04-3.43,1.29-6.46C18.25,1.44,16.561,1,15.36,1c-1.46,0-2.6,0.64-2.73,0.71l-8.66,5  c-3.42,1.98-2.69,5.33-1.83,6.83c1.21,2.1,2.9,2.54,4.11,2.54c1.45,0,2.6-0.64,2.72-0.71L14.81,12H22v6H12v-2h-2v4h12v2H8v-4H6v6  h5.38l-4,8h2.24L13,25.24L16.38,32h2.24l-4-8H24v-4h2l6,4V10L26,14z M16.63,8.64l-8.66,5c0,0-0.8,0.44-1.72,0.44  c-1,0-1.78-0.51-2.37-1.54c-0.25-0.43-1.35-2.69,1.09-4.1l8.66-5c0.01,0,0.8-0.44,1.73-0.44c1,0,1.77,0.5,2.371,1.54  C19.141,6.98,17.061,8.38,16.63,8.64z M26,18h-2v-2h2V18z M30,20.26l-2-1.33v-3.86l2-1.33V20.26z"/>
</svg>
