<?xml version="1.0" encoding="utf-8"?>
<!-- Generator: Adobe Illustrator 16.0.0, SVG Export Plug-In . SVG Version: 6.00 Build 0)  -->
<svg xmlns="http://www.w3.org/2000/svg" xmlns:xlink="http://www.w3.org/1999/xlink" version="1.1" id="2571695013_Capa_1_grid" x="0px" y="0px" width="32px" height="32px" viewBox="0 0 32 32" style="enable-background:new 0 0 32 32;" xml:space="preserve">
<path d="M31.08,20c-0.73-1.1-2.01-2-4.08-2c-1.26,0-1.971-0.79-3.1-2.18c-1.33-1.63-2.971-3.64-6.42-3.81C17.82,11.07,18,10.06,18,9  c0-2.04-0.7-4.04-1.98-5.63c-0.35-0.43-0.97-0.5-1.4-0.15c-0.43,0.34-0.5,0.97-0.16,1.4c0.45,0.56,0.8,1.17,1.05,1.82L11.7,7.71  C11.23,6.7,10.2,6,9,6S6.77,6.7,6.3,7.71L2.49,6.44c0.25-0.65,0.6-1.26,1.05-1.82c0.34-0.43,0.27-1.06-0.16-1.4  c-0.43-0.35-1.06-0.28-1.4,0.15C0.7,4.96,0,6.96,0,9c0,4.96,4.04,9,9,9c3.11,0,5.86-1.59,7.48-4H17c2.83,0,4.05,1.5,5.35,3.09  c0.24,0.301,0.5,0.61,0.762,0.91H17v2h10c2.82,0,2.99,2.5,3,3.01V27c0,0.811-0.55,0.99-1.01,1H28c0-2.21-1.79-4-4-4s-4,1.79-4,4h-7  c0-2.21-1.79-4-4-4s-4,1.79-4,4c-0.5-0.01-3-0.18-3-3v-1h2v-2H2v-1c0.01-0.45,0.19-1,1-1h1v-2H2c-2,0-2,2-2,2v5c0,3.96,3.27,5,5,5  h0.54c0.69,1.2,1.98,2,3.46,2s2.77-0.8,3.46-2h8.08c0.69,1.2,1.979,2,3.46,2s2.77-0.8,3.46-2H29c1.21,0,3-0.8,3-3v-4  C32,22.18,31.76,21,31.08,20z M8,15.92C4.61,15.44,2,12.52,2,9c0-0.2,0.01-0.4,0.02-0.6L6.1,9.76c0.25,0.97,0.97,1.74,1.9,2.06  V15.92z M9,10c-0.55,0-1-0.45-1-1s0.45-1,1-1s1,0.45,1,1S9.55,10,9,10z M10,15.92v-4.1c0.93-0.32,1.65-1.09,1.9-2.06l4.08-1.36  C15.99,8.6,16,8.8,16,9C16,12.52,13.39,15.44,10,15.92z M9,30c-1.11,0-2-0.891-2-2s0.89-2,2-2s2,0.891,2,2S10.11,30,9,30z M24,30  c-1.109,0-2-0.891-2-2s0.891-2,2-2s2,0.891,2,2S25.109,30,24,30z"/>
</svg>
