<?xml version="1.0" encoding="utf-8"?>
<!-- Generator: Adobe Illustrator 16.0.0, SVG Export Plug-In . SVG Version: 6.00 Build 0)  -->
<svg xmlns="http://www.w3.org/2000/svg" xmlns:xlink="http://www.w3.org/1999/xlink" version="1.1" id="2571695014_Capa_1_grid" x="0px" y="0px" width="32px" height="32px" viewBox="0 0 32 32" style="enable-background:new 0 0 32 32;" xml:space="preserve">
<path d="M15,0C10.5,0,2,2.3,2,11c0,10.08,3.91,19.96,4.07,20.37c0.15,0.37,0.48,0.649,0.87,0.659h0.05c0.37,0,0.7-0.18,0.87-0.521  C7.87,31.5,9.01,30,15,30c5.779,0,7.05,1.4,7.141,1.51c0.189,0.311,0.521,0.53,0.899,0.49c0.39-0.02,0.739-0.26,0.89-0.63  C24.09,30.96,28,21.08,28,11C28,2.3,19.5,0,15,0z M22.54,29.34C21.33,28.68,19.09,28,15,28s-6.33,0.68-7.54,1.34  c-0.18-0.52-0.41-1.199-0.66-1.99C8.39,26.79,11.3,26,15,26c3.689,0,6.6,0.79,8.2,1.359C22.95,28.15,22.721,28.82,22.54,29.34z   M23.77,25.43C21.99,24.811,18.91,24,15,24s-6.99,0.811-8.77,1.43C5.17,21.66,4,16.31,4,11c0-8.87,10.55-9,11-9s11,0.1,11,9  C26,16.31,24.83,21.66,23.77,25.43z M16,7v14c0,0.55-0.45,1-1,1s-1-0.45-1-1V7c0-0.55,0.45-1,1-1S16,6.45,16,7z M10,9v12  c0,0.55-0.45,1-1,1s-1-0.45-1-1V9c0-0.55,0.45-1,1-1S10,8.45,10,9z M22,9v12c0,0.55-0.45,1-1,1s-1-0.45-1-1V9c0-0.55,0.45-1,1-1  S22,8.45,22,9z"/>
</svg>
