<?xml version="1.0" encoding="utf-8"?>
<!-- Generator: Adobe Illustrator 16.0.0, SVG Export Plug-In . SVG Version: 6.00 Build 0)  -->
<svg xmlns="http://www.w3.org/2000/svg" xmlns:xlink="http://www.w3.org/1999/xlink" version="1.1" id="2571695012_Capa_1_grid" x="0px" y="0px" width="32px" height="32px" viewBox="0 0 32 32" style="enable-background:new 0 0 32 32;" xml:space="preserve">
<path d="M24.01,18l-2,3l-2.039-3c-8,0-8,14-8,14h20C31.971,32,32.971,18,24.01,18z M14.09,30c0.3-3.141,1.35-8.971,4.9-9.88  l3.029,4.46l3-4.49c0.961,0.17,1.76,0.61,2.431,1.33c1.92,2.051,2.46,5.98,2.54,8.58H14.09z M22.01,4c-3.318,0-6,3.13-6,7  s2.682,7,6,7c3.311,0,6-3.13,6-7S25.32,4,22.01,4z M22.01,16c-2.21,0-4-2.24-4-5s1.79-5,4-5c2.2,0,4,2.24,4,5S24.21,16,22.01,16z   M10,8V4H6v4H2v4h4v4h4v-4h4v2h-2v4H4v-4H0V6h4V2h8v4h2v2H10z"/>
</svg>
