<?xml version="1.0" encoding="utf-8"?>
<!-- Generator: Adobe Illustrator 16.0.0, SVG Export Plug-In . SVG Version: 6.00 Build 0)  -->
<svg xmlns="http://www.w3.org/2000/svg" xmlns:xlink="http://www.w3.org/1999/xlink" version="1.1" id="2571695016_Capa_1_grid" x="0px" y="0px" width="32px" height="32px" viewBox="0 0 32 32" style="enable-background:new 0 0 32 32;" xml:space="preserve">
<path d="M19,30c-1.995,0-3.248-1.747-4-3.482C14.248,28.253,12.996,30,11,30c-2.88,0-3.415-2.456-3.98-5.057  c-0.238-1.094-0.508-2.332-0.962-3.608C5.74,20.43,5.18,19.45,4.587,18.414C3.375,16.292,2,13.888,2,11c0-3.113,1.463-9,7-9  c2.966,0,4.949,1.844,6,3.186C16.051,3.844,18.033,2,21,2c5.537,0,7,5.887,7,9c0,2.888-1.374,5.292-2.587,7.414  c-0.593,1.036-1.152,2.016-1.47,2.918c-0.455,1.279-0.727,2.52-0.963,3.611C22.415,27.544,21.88,30,19,30z M15,22.001  c0.488,0,0.905,0.353,0.986,0.834C16.27,24.521,17.38,28,19,28c1.145,0,1.422-0.705,2.025-3.48c0.252-1.15,0.535-2.457,1.031-3.854  c0.377-1.07,0.979-2.126,1.618-3.244C24.818,15.423,26,13.357,26,11c-0.001-0.284-0.078-7-5-7c-3.316,0-5.089,3.416-5.107,3.45  C15.723,7.786,15.377,7.999,15,7.999c-0.001,0-0.002,0-0.003,0c-0.377-0.001-0.723-0.213-0.892-0.551C14.089,7.416,12.316,4,9,4  c-4.922,0-4.999,6.716-5,7.001c0,2.355,1.181,4.421,2.323,6.419c0.639,1.118,1.242,2.173,1.62,3.247  c0.496,1.394,0.78,2.699,1.03,3.851C9.578,27.295,9.856,28,11,28c1.62,0,2.73-3.479,3.014-5.165  C14.095,22.354,14.512,22.001,15,22.001z"/>
</svg>
