<?xml version="1.0" encoding="utf-8"?>
<!-- Generator: Adobe Illustrator 16.0.0, SVG Export Plug-In . SVG Version: 6.00 Build 0)  -->
<svg xmlns="http://www.w3.org/2000/svg" xmlns:xlink="http://www.w3.org/1999/xlink" version="1.1" id="2571695018_Capa_1_grid" x="0px" y="0px" width="32px" height="32px" viewBox="0 0 32 32" style="enable-background:new 0 0 32 32;" xml:space="preserve">
<path d="M31,2c-1.21,0-3,0.8-3,3v5H3c-1.21,0-3,0.8-3,3v8c0,1.73,1.04,5,5,5c3.22,0,4.42-2.08,5.39-3.75C11.24,20.77,11.75,20,13,20  s1.76,0.77,2.61,2.25C16.58,23.92,17.779,26,21,26c2.85,0,4.221-2.65,4.721-4H27c2.2,0,3-1.79,3-3V5c0-0.81,0.55-0.99,1-1h1V2H31z   M24,20.859C23.83,21.42,22.95,24,21,24c-1.96,0-2.67-1.05-3.66-2.75C16.51,19.8,15.47,18,13,18s-3.51,1.8-4.35,3.25  C7.67,22.95,6.96,24,5,24c-2.82,0-2.99-2.5-3-3v-8c0-0.81,0.55-0.99,1-1h21V20.859z M28,18.99C27.99,19.45,27.811,20,27,20h-1.029  l0.01-2H28V18.99z M28,16h-2.02l0.01-4H28V16z"/>
</svg>
