<?xml version="1.0" encoding="utf-8"?>
<!-- Generator: Adobe Illustrator 16.0.0, SVG Export Plug-In . SVG Version: 6.00 Build 0)  -->
<svg xmlns="http://www.w3.org/2000/svg" xmlns:xlink="http://www.w3.org/1999/xlink" version="1.1" id="2571695017_Capa_1_grid" x="0px" y="0px" width="32px" height="32px" viewBox="0 0 32 32" style="enable-background:new 0 0 32 32;" xml:space="preserve">
<path d="M11,10c0.551,0,1,0.449,1,1s-0.449,1-1,1s-1-0.449-1-1S10.449,10,11,10L11,10z M11,8c-1.657,0-3,1.343-3,3s1.343,3,3,3  s3-1.343,3-3S12.657,8,11,8L11,8z M23,12c-7.12,0-9,5.891-9,9v8c0,2.2,1.79,3,3,3h3v-8h-4v-3c0-0.279,0.12-7,7-7s7,6.721,7,7v3h-4v8  h3c1.21,0,3-0.8,3-3v-8C32,17.891,30.12,12,23,12z M18,26v4h-0.99C16.55,29.99,16,29.811,16,29v-3H18z M30,29c0,0.811-0.55,0.99-1,1  h-1v-4h2V29z M11,0C4.93,0,0,4.93,0,11c0,6.07,4.93,11,11,11c0.34,0,0.67-0.02,1-0.05v-2.011C11.67,19.98,11.34,20,11,20  c-4.96,0-9-4.04-9-9s4.04-9,9-9c4.62,0,8.45,3.51,8.939,8h2.011C21.45,4.4,16.73,0,11,0z"/>
</svg>
