<?xml version="1.0" encoding="utf-8"?>
<!-- Generator: Adobe Illustrator 16.0.0, SVG Export Plug-In . SVG Version: 6.00 Build 0)  -->
<svg xmlns="http://www.w3.org/2000/svg" xmlns:xlink="http://www.w3.org/1999/xlink" version="1.1" id="2571695019_Capa_1_grid" x="0px" y="0px" width="32px" height="32px" viewBox="0 0 32 32" style="enable-background:new 0 0 32 32;" xml:space="preserve">
<path d="M15,2C6.72,2,0,8.72,0,17c0,8.279,6.72,15,15,15c8.279,0,15-6.721,15-15C30,8.72,23.279,2,15,2z M27.971,16.19l-8.041,1.6  C19.98,17.529,20,17.27,20,17c0-0.4-0.05-0.78-0.141-1.15l7.859-1.57C27.85,14.9,27.93,15.54,27.971,16.19z M15,4  c5.529,0,10.27,3.47,12.141,8.35l-8.16,1.63C18.07,12.78,16.63,12,15,12s-3.07,0.78-3.98,1.98l-8.16-1.63C4.73,7.47,9.47,4,15,4z   M2.28,14.28l7.86,1.57C10.05,16.22,10,16.6,10,17c0,0.27,0.02,0.529,0.07,0.79l-8.04-1.6C2.07,15.54,2.15,14.9,2.28,14.28z   M12,29.65c-5.34-1.271-9.42-5.84-9.94-11.42l8.96,1.799h0.01C11.3,20.4,11.63,20.721,12,21V29.65z M16,29.96  C15.67,29.99,15.34,30,15,30s-0.67-0.01-1-0.04V21.9c0.32,0.068,0.66,0.1,1,0.1s0.68-0.029,1-0.1V29.96z M15,20c-1.65,0-3-1.35-3-3  c0-1.65,1.35-3,3-3c1.65,0,3,1.35,3,3C18,18.65,16.65,20,15,20z M18,29.65V21c0.37-0.279,0.7-0.6,0.971-0.971h0.01l8.961-1.799  C27.42,23.811,23.34,28.38,18,29.65z"/>
</svg>
