<?xml version="1.0" encoding="utf-8"?>
<!-- Generator: Adobe Illustrator 16.0.0, SVG Export Plug-In . SVG Version: 6.00 Build 0)  -->
<svg xmlns="http://www.w3.org/2000/svg" xmlns:xlink="http://www.w3.org/1999/xlink" version="1.1" id="2571695023_Capa_1_grid" x="0px" y="0px" width="32px" height="32px" viewBox="0 0 32 32" style="enable-background:new 0 0 32 32;" xml:space="preserve">
<path d="M30,12v-2h-4V6h-4V2h-2v4h-4V2h-2v4h-4V2H8v4H4v4H0v2h4v4H0v2h4v4H0v2h4v4h4v4h2v-4h4v4h2v-4h4v4h2v-4h4v-4h4v-2h-4v-4h4v-2  h-4v-4H30z M24,26H6V8h18V26z M20,12v10H10V12H20L20,12z M22,10H8v14h14V10L22,10z"/>
</svg>
