<?xml version="1.0" encoding="utf-8"?>
<!-- Generator: Adobe Illustrator 16.0.0, SVG Export Plug-In . SVG Version: 6.00 Build 0)  -->
<svg xmlns="http://www.w3.org/2000/svg" xmlns:xlink="http://www.w3.org/1999/xlink" version="1.1" id="2571695022_Capa_1_grid" x="0px" y="0px" width="32px" height="32px" viewBox="0 0 32 32" style="enable-background:new 0 0 32 32;" xml:space="preserve">
<path d="M29.71,28.29l-7.33-7.33c1.2-1.41,3.5-4.63,3.521-8.47c0.012-2.64-1.061-5.07-3.188-7.2C17.99,0.58,7.29,0.07,2.91,0.07  c-1.16,0-1.86,0.03-1.86,0.03C0.54,0.13,0.13,0.54,0.1,1.05C0.07,1.69-0.61,16.8,5.29,22.71c2.12,2.12,4.53,3.19,7.16,3.19  c3.87,0,7.108-2.33,8.51-3.521l7.33,7.33C28.49,29.9,28.74,30,29,30s0.51-0.1,0.71-0.29C30.1,29.32,30.1,28.68,29.71,28.29z   M18.15,16.73l1.8-5.412c0.17-0.53-0.11-1.09-0.63-1.27c-0.53-0.17-1.09,0.11-1.271,0.63l-1.49,4.46l-2.41-2.41l1.8-5.41  c0.17-0.53-0.11-1.09-0.63-1.27c-0.53-0.17-1.09,0.11-1.27,0.63l-1.49,4.46L7.71,6.29c-0.39-0.39-1.03-0.39-1.42,0  s-0.39,1.03,0,1.42l4.85,4.85l-4.46,1.49c-0.52,0.18-0.8,0.74-0.63,1.27C6.19,15.74,6.58,16,7,16c0.1,0,0.21-0.02,0.32-0.05  l5.41-1.8l2.41,2.411l-4.46,1.489c-0.52,0.181-0.8,0.74-0.63,1.271C10.19,19.74,10.58,20,11,20c0.1,0,0.21-0.02,0.32-0.05l5.411-1.8  l2.811,2.81c-1.271,1.04-4,2.94-7.09,2.94c-2.08,0-4.01-0.881-5.74-2.61C2.2,16.79,2.03,5.4,2.07,2.07h0.84  c3.22,0,14.08,0.33,18.38,4.64c1.739,1.73,2.62,3.68,2.61,5.76c-0.012,3.07-1.9,5.799-2.94,7.07L18.15,16.73z"/>
</svg>
