<?xml version="1.0" encoding="utf-8"?>
<!-- Generator: Adobe Illustrator 16.0.0, SVG Export Plug-In . SVG Version: 6.00 Build 0)  -->
<svg xmlns="http://www.w3.org/2000/svg" xmlns:xlink="http://www.w3.org/1999/xlink" version="1.1" id="2571695024_Capa_1_grid" x="0px" y="0px" width="32px" height="32px" viewBox="0 0 32 32" style="enable-background:new 0 0 32 32;" xml:space="preserve">
<path d="M31.439,31.4c-0.199,0.199-0.459,0.3-0.709,0.3c-0.262,0-0.512-0.101-0.711-0.3l-14.85-14.84c0,0-0.81,0.789-0.86,0.83  c-0.98,0.939-2.11,1.42-3.29,1.42c-0.48,0-0.98-0.08-1.47-0.24C8.3,18.15,7.48,17.35,7.39,17.26l-7.07-7.07  c-0.39-0.39-0.39-1.02,0-1.41c0.39-0.39,1.03-0.39,1.42,0l7.07,7.07c0.3,0.3,1.76,1.57,3.44,0.61l-9.1-9.1  c-0.39-0.39-0.39-1.02,0-1.41c0.39-0.39,1.02-0.39,1.42,0l9.18,9.19l1.42-1.42L5.98,4.54c-0.39-0.4-0.39-1.03,0-1.42  c0.39-0.39,1.02-0.39,1.41,0l9.1,9.1c1-1.74-0.42-3.26-0.61-3.44L8.81,1.71c-0.39-0.39-0.39-1.03,0-1.42s1.02-0.39,1.41,0l7.07,7.07  c1.21,1.21,2.739,4.17,0.13,6.92c-0.04,0.05-0.83,0.86-0.83,0.86l14.85,14.85C31.83,30.38,31.83,31.01,31.439,31.4z"/>
</svg>
