<?xml version="1.0" encoding="utf-8"?>
<!-- Generator: Adobe Illustrator 16.0.0, SVG Export Plug-In . SVG Version: 6.00 Build 0)  -->
<svg xmlns="http://www.w3.org/2000/svg" xmlns:xlink="http://www.w3.org/1999/xlink" version="1.1" id="2571695025_Capa_1_grid" x="0px" y="0px" width="32px" height="32px" viewBox="0 0 32 32" style="enable-background:new 0 0 32 32;" xml:space="preserve">
<path d="M21.71,0.29c-0.2-0.2-0.47-0.3-0.75-0.29c-0.29,0.01-0.55,0.14-0.729,0.36L12,10.24V7c0-0.35-0.18-0.67-0.47-0.85  c-0.3-0.18-0.67-0.2-0.98-0.04C10.2,6.28,2,10.48,2,19c0,0.13,0.14,13,12,13c10.33,0,14-7,14-13C28,15.93,28,6.59,21.71,0.29z   M14,30c-0.43-0.01-4-0.21-4-5c0-6.08,6.51-8.311,8.58-8.87C19.08,16.95,20,19.02,20,23C20,29.74,14.64,29.99,14,30z M20.43,28.68  C21.35,27.37,22,25.55,22,23c0-6.23-2.061-8.47-2.29-8.71c-0.239-0.23-0.58-0.34-0.91-0.27C18.7,14.04,8,16.28,8,25  c0,1.5,0.29,2.71,0.75,3.66C4.09,25.79,4,19.35,4,19c0-5.24,3.83-8.68,6-10.2V13c0,0.42,0.26,0.8,0.66,0.94  c0.39,0.14,0.84,0.02,1.11-0.3l9.27-11.13C26,8.2,26,16.27,26,19C26,20.4,25.66,26.07,20.43,28.68z"/>
</svg>
