<?xml version="1.0" encoding="utf-8"?>
<!-- Generator: Adobe Illustrator 16.0.0, SVG Export Plug-In . SVG Version: 6.00 Build 0)  -->
<svg xmlns="http://www.w3.org/2000/svg" xmlns:xlink="http://www.w3.org/1999/xlink" version="1.1" id="2571695026_Capa_1_grid" x="0px" y="0px" width="32px" height="32px" viewBox="0 0 32 32" style="enable-background:new 0 0 32 32;" xml:space="preserve">
<path d="M21.184,30.539c-1.965,0-4.11-0.74-6.184-2.811c-3.955-3.955-6.52-12.933-8.216-18.873c-0.063-0.219-0.126-0.442-0.19-0.665  c-1.036-0.083-3.056-0.41-4.322-1.675c-1.556-1.556-0.853-3.39,0-4.243s2.687-1.556,4.243,0C7.143,2.9,7.641,4.577,8.707,8.309  c1.64,5.741,4.119,14.417,7.707,18.005c4.893,4.893,9.695,0.201,9.898,0c0.198-0.2,4.867-5.032,0-9.899  c-0.119-0.134-1.795-1.972-5.068-1.403l1.068,3.208l-1.896,0.633l-1.74-5.222l0.987-0.296c5.235-1.57,8.004,1.588,8.119,1.724  c4.979,4.975,2.146,10.467-0.056,12.668C26.432,29.023,23.996,30.538,21.184,30.539z M4.407,3.345c-0.327,0-0.59,0.211-0.721,0.341  c-0.31,0.327-0.569,0.845,0,1.415c0.551,0.551,1.493,0.844,2.292,0.991C5.612,4.888,5.282,3.92,5.083,3.667  C4.843,3.428,4.612,3.345,4.407,3.345z"/>
</svg>
