<?xml version="1.0" encoding="utf-8"?>
<!-- Generator: Adobe Illustrator 16.0.0, SVG Export Plug-In . SVG Version: 6.00 Build 0)  -->
<svg xmlns="http://www.w3.org/2000/svg" xmlns:xlink="http://www.w3.org/1999/xlink" version="1.1" id="2571695027_Capa_1_grid" x="0px" y="0px" width="32px" height="32px" viewBox="0 0 32 32" style="enable-background:new 0 0 32 32;" xml:space="preserve">
<path d="M32,24.48v-8.05l-10-6V4c0-2.93-2.391-4-4-4c-1.61,0-4,1.07-4,4v6.43L11.38,12h3.9L16,11.57V4c0-1.9,1.67-2,2-2  c0.46,0.01,2,0.17,2,2v7.57l10,6v3.949l-10-4v7.891l2,2v2.109l-2-0.801v2.08l3,1.2h1v-5.41l-2-2V20.48L32,24.48z M10,18.04V16h2v-2  H6v2h2v2.04C0.09,18.609,0,25.92,0,26v6h18v-6C18,25.92,17.91,18.609,10,18.04z M16,30H2v-2h14V30z M2,26c0-0.25,0.08-6,7-6  c6.76,0,7,5.391,7,6H2z"/>
</svg>
