<?xml version="1.0" encoding="utf-8"?>
<!-- Generator: Adobe Illustrator 16.0.0, SVG Export Plug-In . SVG Version: 6.00 Build 0)  -->
<svg xmlns="http://www.w3.org/2000/svg" xmlns:xlink="http://www.w3.org/1999/xlink" version="1.1" id="2571695034_Capa_1_grid" x="0px" y="0px" width="32px" height="32px" viewBox="0 0 32 32" style="enable-background:new 0 0 32 32;" xml:space="preserve">
<path d="M29.71,2.29c-1.521-1.52-5.81-1.64-7.08-1.64c-1.75,0-3.71,0.17-5.7,0.56c-0.109,0.02-0.22,0.05-0.33,0.07  C16.47,1.31,16.33,1.33,16.2,1.36c-3.66,0.8-7.33,2.35-9.91,4.93c-2.74,2.74-4.33,6.72-5.07,10.64  c-1.1,5.709-0.41,11.301,1.07,12.78c1.52,1.521,5.81,1.63,7.08,1.63c1.75,0,3.71-0.17,5.7-0.561c3.89-0.75,7.89-2.319,10.64-5.069  c2.74-2.739,4.33-6.72,5.069-10.64v-0.01C31.88,9.35,31.189,3.77,29.71,2.29z M9.37,29.34c-3.36,0-5.26-0.64-5.66-1.05  c-0.97-0.96-1.49-5.25-0.75-9.92L13.6,29.01C12.12,29.24,10.68,29.34,9.37,29.34z M24.29,24.29c-2.149,2.16-5.21,3.51-8.33,4.26  L3.42,16.01c0.76-3.09,2.11-6.13,4.29-8.3c2.15-2.16,5.2-3.51,8.31-4.27h0.01l12.55,12.55C27.82,19.08,26.471,22.12,24.29,24.29z   M29.05,13.64L18.391,2.98c1.479-0.23,2.92-0.33,4.239-0.33c3.36,0,5.261,0.65,5.66,1.06C29.25,4.67,29.77,8.96,29.05,13.64z   M21.71,14.29c0.39,0.39,0.39,1.03,0,1.42C21.51,15.9,21.26,16,21,16s-0.51-0.1-0.71-0.29L19,14.42L17.42,16l1.29,1.29  c0.39,0.39,0.39,1.03,0,1.42C18.51,18.9,18.26,19,18,19s-0.51-0.1-0.71-0.29L16,17.42L14.42,19l1.29,1.29  c0.39,0.39,0.39,1.03,0,1.42C15.51,21.9,15.26,22,15,22s-0.51-0.1-0.71-0.29L13,20.42l-1.29,1.29C11.51,21.9,11.26,22,11,22  s-0.51-0.1-0.71-0.29c-0.39-0.39-0.39-1.03,0-1.42L11.58,19l-1.29-1.29c-0.39-0.39-0.39-1.03,0-1.42c0.39-0.39,1.03-0.39,1.42,0  L13,17.58L14.58,16l-1.29-1.29c-0.39-0.39-0.39-1.03,0-1.42s1.03-0.39,1.42,0L16,14.58L17.58,13l-1.29-1.29  c-0.39-0.39-0.39-1.03,0-1.42c0.39-0.39,1.03-0.39,1.42,0L19,11.58l1.29-1.29c0.39-0.39,1.03-0.39,1.42,0s0.39,1.03,0,1.42L20.42,13  L21.71,14.29z"/>
</svg>
