<?xml version="1.0" encoding="utf-8"?>
<!-- Generator: Adobe Illustrator 16.0.0, SVG Export Plug-In . SVG Version: 6.00 Build 0)  -->
<svg xmlns="http://www.w3.org/2000/svg" xmlns:xlink="http://www.w3.org/1999/xlink" version="1.1" id="2571695028_Capa_1_grid" x="0px" y="0px" width="32px" height="32px" viewBox="0 0 32 32" style="enable-background:new 0 0 32 32;" xml:space="preserve">
<path d="M24.561,23.141c0.789-1.271,1.069-3.199-0.619-4.891c-0.092-0.09-0.182-0.18-0.271-0.26C23.79,18,23.91,18,24.04,18  c2.96,0,4.03-2.39,4.03-4s-1.07-4-4.03-4c-0.13,0-0.25,0-0.37,0.01c0.09-0.08,0.18-0.17,0.271-0.26c2.09-2.09,1.158-4.54,0.02-5.68  c-0.07-0.07-0.72-0.7-1.72-1.03c-1.41-0.47-2.812-0.09-3.95,1.05c-0.09,0.09-0.18,0.18-0.26,0.27c0.01-0.12,0.01-0.24,0.01-0.36  c0-2.93-2.39-4-4-4s-4,1.07-4,4c0,0.13,0,0.25,0.01,0.37C9.97,4.28,9.88,4.19,9.79,4.1C7.7,2.01,5.25,2.94,4.11,4.07  C2.97,5.21,2.04,7.66,4.13,9.75c0.09,0.09,0.18,0.18,0.27,0.26C4.28,10,4.16,10,4.03,10C1.07,10,0,12.39,0,14s1.07,4,4.03,4  c0.13,0,0.25,0,0.37-0.01c-0.09,0.08-0.18,0.17-0.27,0.26c-2.09,2.09-1.15,4.54-0.02,5.68c0.65,0.641,1.71,1.221,2.9,1.221  c0.9,0,1.87-0.34,2.78-1.238c0.09-0.092,0.18-0.182,0.26-0.271c-0.01,0.119-0.01,0.239-0.01,0.369c0,2.95,2.39,4.03,4,4.03  s4-1.08,4-4.03c0-0.13,0-0.26-0.011-0.38c0.08,0.091,0.171,0.181,0.261,0.271c0.899,0.91,1.88,1.25,2.78,1.25  c0.77,0,1.479-0.238,2.068-0.59l7.149,7.149l1.42-1.42L24.561,23.141z M24.04,12c1.86,0,2.03,1.54,2.03,2c0,0.33-0.09,2-2.03,2  c-1.931,0-3.431-0.45-4.14-0.72c0.09-0.41,0.14-0.84,0.14-1.28s-0.05-0.87-0.14-1.28C20.609,12.45,22.109,12,24.04,12z M19.7,5.51  c1.31-1.31,2.521-0.34,2.84-0.03c0.33,0.34,1.3,1.55-0.011,2.86c-1.369,1.37-2.75,2.11-3.439,2.43c-0.46-0.73-1.09-1.36-1.82-1.82  C17.58,8.27,18.311,6.9,19.7,5.51z M14.04,2c0.33,0,2,0.1,2,2c0,1.95-0.47,3.46-0.73,4.14C14.9,8.05,14.48,8,14.04,8  s-0.87,0.05-1.28,0.14C12.5,7.46,12.04,5.97,12.04,4C12.04,2.17,13.57,2.01,14.04,2z M5.53,5.49c0.23-0.24,1.48-1.35,2.84,0.02  c1.37,1.37,2.12,2.75,2.43,3.44c-0.73,0.47-1.35,1.09-1.81,1.82c-0.68-0.3-2.05-1.04-3.45-2.43C4.23,7.03,5.2,5.82,5.53,5.49z   M4.03,16C2.18,16,2.01,14.46,2,14.01C2.01,13.54,2.18,12,4.03,12c1.94,0,3.44,0.45,4.15,0.72C8.09,13.13,8.04,13.56,8.04,14  s0.05,0.87,0.14,1.28C7.47,15.55,5.97,16,4.03,16z M8.38,22.49c-1.31,1.31-2.52,0.34-2.85,0.029c-0.33-0.34-1.29-1.552,0.02-2.859  c1.38-1.381,2.76-2.12,3.44-2.43c0.46,0.729,1.08,1.35,1.81,1.817C10.49,19.74,9.75,21.12,8.38,22.49z M14.04,26.04  c-0.47-0.011-2-0.181-2-2.03c0-1.939,0.45-3.449,0.71-4.148C13.16,19.95,13.6,20,14.04,20s0.87-0.05,1.28-0.141  c0.27,0.699,0.72,2.211,0.72,4.148C16.04,25.859,14.5,26.029,14.04,26.04z M14.04,18c-2.21,0-4-1.79-4-4s1.79-4,4-4  c2.2,0,4,1.79,4,4S16.24,18,14.04,18z M22.55,22.51c-0.239,0.24-1.479,1.352-2.85-0.02c-1.371-1.371-2.11-2.75-2.431-3.44  c0.729-0.46,1.358-1.09,1.818-1.819c0.689,0.319,2.07,1.062,3.439,2.432C23.84,20.971,22.87,22.18,22.55,22.51z"/>
</svg>
