<?xml version="1.0" encoding="utf-8"?>
<!-- Generator: Adobe Illustrator 16.0.0, SVG Export Plug-In . SVG Version: 6.00 Build 0)  -->
<svg xmlns="http://www.w3.org/2000/svg" xmlns:xlink="http://www.w3.org/1999/xlink" version="1.1" id="2571695029_Capa_1_grid" x="0px" y="0px" width="32px" height="32px" viewBox="0 0 32 32" style="enable-background:new 0 0 32 32;" xml:space="preserve">
<path d="M16,6C3.37,6,0,10.4,0,13c0,2.05,3.04,6.84,4,8.3V23c0,0.51,0.34,5,12,5s12-4.49,12-5v-1.7c0.96-1.46,4-6.25,4-8.3  C32,10.4,28.63,6,16,6z M26,22.95C25.91,23.8,23.95,26,16,26s-9.91-2.2-10-3v-1h20V22.95z M26.46,20H5.54C3.97,17.59,2,14.1,2,13  c0-1.3,2.57-5,14-5c11.43,0,14,3.7,14,5C30,14.1,28.029,17.59,26.46,20z M12,10v5.54l4,2.66l4-2.66V10H12z M18,14.46l-2,1.34  l-2-1.34V12h4V14.46z"/>
</svg>
