<?xml version="1.0" encoding="utf-8"?>
<!-- Generator: Adobe Illustrator 16.0.0, SVG Export Plug-In . SVG Version: 6.00 Build 0)  -->
<svg xmlns="http://www.w3.org/2000/svg" xmlns:xlink="http://www.w3.org/1999/xlink" version="1.1" id="2571695031_Capa_1_grid" x="0px" y="0px" width="32px" height="32px" viewBox="0 0 32 32" style="enable-background:new 0 0 32 32;" xml:space="preserve">
<path d="M7.149,31.508c-1.033,0-2.091-0.212-3.134-0.644c-2.294-0.949-3.835-2.738-3.836-4.451c0-1.058,0.199-4.587,2.754-5.654  c2.374-0.991,5.679,0.578,10.095,4.793c5.58-7.069,17.003-24.575,17.134-24.775c0.3-0.463,0.922-0.594,1.384-0.292  c0.463,0.302,0.595,0.921,0.292,1.384C31.225,2.81,16.761,24.975,12.494,29.241C11.001,30.732,9.122,31.508,7.149,31.508z   M4.39,22.482c-0.307,0-0.531,0.057-0.686,0.121c-1.126,0.471-1.525,2.347-1.525,3.81c0,0.75,0.973,1.93,2.601,2.604  c0.847,0.351,3.808,1.303,6.299-1.189c0.2-0.2,0.425-0.444,0.673-0.729C7.726,23.234,5.506,22.482,4.39,22.482z M25,20  c-1.66,0-3,1.34-3,3s1.34,3,3,3s3-1.34,3-3S26.66,20,25,20z M25,24c-0.55,0-1-0.45-1-1s0.45-1,1-1s1,0.45,1,1S25.55,24,25,24z   M28,26v2h-2v4h-2v-4h-2v-2H28z"/>
</svg>
