<?xml version="1.0" encoding="utf-8"?>
<!-- Generator: Adobe Illustrator 16.0.0, SVG Export Plug-In . SVG Version: 6.00 Build 0)  -->
<svg xmlns="http://www.w3.org/2000/svg" xmlns:xlink="http://www.w3.org/1999/xlink" version="1.1" id="2571695032_Capa_1_grid" x="0px" y="0px" width="32px" height="32px" viewBox="0 0 32 32" style="enable-background:new 0 0 32 32;" xml:space="preserve">
<path d="M22.05,17.189c1.7-1.912,3.57-4.219,5.11-6.459c3.061-4.44,3.869-7.12,2.55-8.44c-0.28-0.28-0.8-0.61-1.64-0.61  c-3.94,0-12.94,7.78-15.78,10.61c-1.09,1.09-1.94,2.14-2.6,3.11C7.3,14.59,4.4,12.63,4.04,8H6V2H0v6h2.03c0.36,5.52,3.71,8,6.62,9.1  c-0.6,1.121-0.94,2.063-1.13,2.7C7.17,19.71,6.79,19.65,6.4,19.65c-0.86,0-2.11,0.3-3.2,1.75C0.04,25.62,0,30.779,0,31  c0,0.55,0.45,1,1,1c0.22,0,5.38-0.04,9.6-3.2c1.36-1.021,1.7-2.188,1.74-2.989c0.03-0.471-0.03-0.92-0.14-1.34  c1.43-0.41,4.319-1.58,7.51-4.761c0.3-0.3,0.61-0.62,0.94-0.979c2.32,0.869,4.959,2.859,5.31,7.271H24v6h6v-6h-2.029  C27.641,20.92,24.77,18.42,22.05,17.189z M4,6H2V4h2V6z M9.4,27.2c-2.61,1.95-5.72,2.54-7.33,2.72c0.18-1.6,0.77-4.699,2.73-7.32  c0.48-0.64,1-0.949,1.6-0.949c0.94,0,1.94,0.729,2.44,1.189l0.44,0.439C9.73,23.8,10.4,24.79,10.35,25.7  C10.32,26.25,10.01,26.75,9.4,27.2z M11.45,22.609l-2.06-2.061c0.17-0.688,0.65-2.107,1.85-3.89l4.09,4.09  C13.56,21.939,12.14,22.43,11.45,22.609z M20.029,16.47c-0.01,0.01-0.021,0.02-0.029,0.03c-0.561,0.609-1.13,1.21-1.71,1.79  c-0.46,0.46-0.91,0.87-1.351,1.229l-4.469-4.472c0.37-0.43,0.78-0.88,1.24-1.34c3.99-4,11.75-10.03,14.36-10.03  c0.18,0,0.22,0.02,0.22,0.02C28.96,4.76,25.07,10.98,20.029,16.47z M28,30h-2v-2h2V30z"/>
</svg>
