<?xml version="1.0" encoding="utf-8"?>
<!-- Generator: Adobe Illustrator 16.0.0, SVG Export Plug-In . SVG Version: 6.00 Build 0)  -->
<svg xmlns="http://www.w3.org/2000/svg" xmlns:xlink="http://www.w3.org/1999/xlink" version="1.1" id="2571695035_Capa_1_grid" x="0px" y="0px" width="32px" height="32px" viewBox="0 0 32 32" style="enable-background:new 0 0 32 32;" xml:space="preserve">
<path d="M30,12.91V5c0-2.2-1.79-3-3-3H5C2.8,2,2,3.79,2,5v7.9l-1.98,9.9L0,27c0,1.21,0.8,3,3,3h26c1.21,0,3-0.8,3-3v-4L30,12.91z   M3.82,14H10v-2H4V5.01C4.01,4.55,4.19,4,5,4h21.99C27.45,4.01,28,4.19,28,5v7h-6v2h6.18l1.602,8H24c0-3.891-2.779-7.13-6.46-7.85  l2.351-4.7c0.159-0.31,0.141-0.68-0.041-0.98C19.67,8.18,19.35,8,19,8h-6c-0.35,0-0.67,0.18-0.85,0.47c-0.18,0.3-0.2,0.67-0.04,0.98  l2.35,4.7C10.78,14.87,8,18.109,8,22H2.22L3.82,14z M16,16c3.311,0,6,2.689,6,6H10C10,18.689,12.69,16,16,16z M14.62,10h2.76  L16,12.76L14.62,10z M30,27c0,0.811-0.55,0.99-1,1H3c-0.81,0-0.99-0.55-1-1v-3h28V27z"/>
</svg>
