<?xml version="1.0" encoding="utf-8"?>
<!-- Generator: Adobe Illustrator 16.0.0, SVG Export Plug-In . SVG Version: 6.00 Build 0)  -->
<svg xmlns="http://www.w3.org/2000/svg" xmlns:xlink="http://www.w3.org/1999/xlink" version="1.1" id="2571695036_Capa_1_grid" x="0px" y="0px" width="32px" height="32px" viewBox="0 0 32 32" style="enable-background:new 0 0 32 32;" xml:space="preserve">
<path d="M20.439,7.47l9.899,9.9l1.42-1.41l-9.899-9.9c-1.42-1.41-2.609-2.59-4.239-1.41l-8.26,5.89L5.59,6.77  c-1.16-1.17-3.07-1.17-4.24,0c-1.17,1.16-1.16,3.07,0,4.24l10.61,10.61L7.3,24.45C4.38,26.779,7,30,8,30c2,0,16-1.42,16-1.42v-2.1  L9,28c-1,0-1.34-1.38-0.48-1.93l4.34-2.67c0.57-0.28,0.97-0.83,1.07-1.471c0.11-0.631-0.1-1.279-0.56-1.729L2.77,9.6  c-0.39-0.39-0.39-1.03,0-1.42c0.39-0.39,1.02-0.39,1.41,0l7.78,7.78l1.41-1.41l-2.57-2.58l1.65-1.18l2.34,2.34l1.41-1.41l-2.1-2.1  l1.65-1.18l1.87,1.86l1.409-1.41L17.4,7.25l1.129-0.8C19.21,6.24,19.33,6.36,20.439,7.47z"/>
</svg>
