<?xml version="1.0" encoding="utf-8"?>
<!-- Generator: Adobe Illustrator 16.0.0, SVG Export Plug-In . SVG Version: 6.00 Build 0)  -->
<svg xmlns="http://www.w3.org/2000/svg" xmlns:xlink="http://www.w3.org/1999/xlink" version="1.1" id="2571695037_Capa_1_grid" x="0px" y="0px" width="32px" height="32px" viewBox="0 0 32 32" style="enable-background:new 0 0 32 32;" xml:space="preserve">
<path d="M30.46,22.02l-9.53-5.5l1-1.729l1-1.74l-1.729-1l-1,1.74l-8.66-5l-1.73-1l-5.2-3l1-1.74l-1.73-1l-1,1.74l-1,1.73l6.93,4  l-1,1.73c-0.49,0.84-0.4,2.08,0.73,2.73l7.55,4.36c0.79,1.46,4.771,8.53,8.142,10.471c1.068,0.619,2,0.869,2.81,0.869  c2.46,0,3.78-2.3,4.521-3.56C32.66,24.21,31.5,22.62,30.46,22.02z M9.54,12.25l1-1.73l8.66,5l-1,1.73L9.54,12.25z M29.82,25.12  c-1.211,2.09-2.182,3.351-4.59,1.96c-1.94-1.109-4.432-4.73-6.092-7.46l0.791-1.37l9.529,5.5C29.721,23.9,30.27,24.33,29.82,25.12z"/>
</svg>
