<?xml version="1.0" encoding="utf-8"?>
<!-- Generator: Adobe Illustrator 16.0.0, SVG Export Plug-In . SVG Version: 6.00 Build 0)  -->
<svg xmlns="http://www.w3.org/2000/svg" xmlns:xlink="http://www.w3.org/1999/xlink" version="1.1" id="2571695038_Capa_1_grid" x="0px" y="0px" width="32px" height="32px" viewBox="0 0 32 32" style="enable-background:new 0 0 32 32;" xml:space="preserve">
<path d="M16,0C15.84,0,0,0.15,0,13c0,12.02,1.97,18.07,2.05,18.32c0.12,0.35,0.42,0.6,0.78,0.66c0.36,0.06,0.74-0.08,0.96-0.371  C3.82,31.57,6.73,28,16,28c9.221,0,12.15,3.54,12.21,3.609C28.4,31.859,28.689,32,29,32c0.05,0,0.109,0,0.16-0.01  c0.369-0.061,0.67-0.32,0.79-0.67C30.029,31.07,32,25.02,32,13C32,0.15,16.16,0,16,0z M16,2c0.43,0,8.26,0.09,12.01,4.86  c-0.24,1.15-0.59,2.21-1.01,3.19V10C12.05,10,8.86,5.48,8.18,3.7C11.79,2.04,15.7,2,16,2z M6.41,4.67  c1.08,2.55,5.05,7.12,19.57,7.32c-0.951,1.59-2.11,2.92-3.28,4.01C9.56,15.93,4.3,11.55,2.56,9.47C3.31,7.3,4.75,5.76,6.41,4.67z   M2.55,23.189C2.23,20.51,2,17.109,2,13c0-0.4,0.02-0.79,0.06-1.16c2.48,2.31,7.81,5.61,18.27,6.102  c-1.689,1.199-3.1,1.869-3.551,2.068C16.52,20,16.26,20,16,20C8.4,20,4.4,21.891,2.55,23.189z M28.45,29.17  C26.66,27.859,22.9,26,16,26c-6.9,0-10.66,1.859-12.45,3.17c-0.2-0.859-0.45-2.08-0.68-3.65C3.39,24.971,6.67,22,16,22  c9.4,0,12.65,3.01,13.13,3.52C28.9,27.09,28.65,28.311,28.45,29.17z M29.45,23.189c-1.44-1.01-4.19-2.391-8.931-2.939  c2.91-1.85,7.039-5.33,8.881-10.88C29.779,10.42,30,11.63,30,13C30,17.109,29.77,20.51,29.45,23.189z"/>
</svg>
