<?xml version="1.0" encoding="utf-8"?>
<!-- Generator: Adobe Illustrator 16.0.0, SVG Export Plug-In . SVG Version: 6.00 Build 0)  -->
<svg xmlns="http://www.w3.org/2000/svg" xmlns:xlink="http://www.w3.org/1999/xlink" version="1.1" id="2571695039_Capa_1_grid" x="0px" y="0px" width="32px" height="32px" viewBox="0 0 32 32" style="enable-background:new 0 0 32 32;" xml:space="preserve">
<path d="M30,14c0-1.96-2.359-3.7-6-4.8V6c0-2.08-1.25-6-6-6h-6C7.25,0,6,3.92,6,6v3.2C5.43,9.37,4.9,9.56,4.4,9.76  C1.68,10.84,0,12.34,0,14c0,1.73,1.84,3.3,4.79,4.4C4.36,19.66,4,21.23,4,23c0,3.359,1.43,9,11,9c9.57,0,11-5.641,11-9  c0-1.77-0.359-3.35-0.79-4.609C28.16,17.3,30,15.74,30,14z M8,6c0-0.16,0.05-4,4-4h6c3.85,0,4,3.59,4,4v2.69  C19.91,8.25,17.529,8,15,8c-2.53,0-4.91,0.25-7,0.69V6z M8,10.73C9.89,10.29,12.23,10,15,10c2.77,0,5.109,0.29,7,0.73v4.02  C21.25,16.18,19.859,18,19,18c-0.561,0-0.8-0.221-1.29-0.71C17.16,16.75,16.41,16,15,16s-2.16,0.75-2.71,1.29  C11.8,17.779,11.56,18,11,18c-0.86,0-2.25-1.82-3-3.25V10.73z M2,14c0-0.66,1.35-1.81,4-2.71v4.43c-0.11,0.19-0.27,0.46-0.45,0.82  C3.19,15.68,2,14.62,2,14z M15,30c-6.06,0-9-2.29-9-7c0-2.4,0.79-4.43,1.34-5.54C8.24,18.689,9.54,20,11,20  c1.41,0,2.16-0.75,2.71-1.29C14.2,18.221,14.44,18,15,18s0.8,0.221,1.29,0.71C16.84,19.25,17.59,20,19,20  c1.471,0,2.77-1.32,3.67-2.55C23.21,18.561,24,20.58,24,23C24,27.71,21.061,30,15,30z M24.45,16.55  c-0.181-0.36-0.341-0.64-0.45-0.83v-4.43c2.65,0.9,4,2.05,4,2.71C28,14.62,26.8,15.68,24.45,16.55z"/>
</svg>
