<?xml version="1.0" encoding="utf-8"?>
<!-- Generator: Adobe Illustrator 16.0.0, SVG Export Plug-In . SVG Version: 6.00 Build 0)  -->
<svg xmlns="http://www.w3.org/2000/svg" xmlns:xlink="http://www.w3.org/1999/xlink" version="1.1" id="2571695042_Capa_1_grid" x="0px" y="0px" width="32px" height="32px" viewBox="0 0 32 32" style="enable-background:new 0 0 32 32;" xml:space="preserve">
<path d="M27.58,12.81C26.08,7.48,20.83,6,18,6h-0.18C17.939,5.69,18,5.35,18,5c0-1.66-1.34-3-3-3s-3,1.34-3,3  c0,0.35,0.06,0.69,0.18,1H12c-2.84,0-8.09,1.48-9.59,6.81L0,11v19h30V11L27.58,12.81z M18,8c0.29,0,6.74,0.1,7.83,6.12l-4.74,3.56  L16,12.59V8H18z M15,4c0.55,0,1,0.45,1,1s-0.45,1-1,1s-1-0.45-1-1S14.45,4,15,4z M12,8h2v4.59l-5.09,5.09l-4.75-3.56  C5.26,8.1,11.71,8,12,8z M28,28H2v-2h26V28z M28,24H2v-9l7.09,5.32L15,14.41l5.91,5.91L28,15V24z"/>
</svg>
