<?xml version="1.0" encoding="utf-8"?>
<!-- Generator: Adobe Illustrator 16.0.0, SVG Export Plug-In . SVG Version: 6.00 Build 0)  -->
<svg xmlns="http://www.w3.org/2000/svg" xmlns:xlink="http://www.w3.org/1999/xlink" version="1.1" id="2571695041_Capa_1_grid" x="0px" y="0px" width="32px" height="32px" viewBox="0 0 32 32" style="enable-background:new 0 0 32 32;" xml:space="preserve">
<path d="M29.609,21.84l-7.069-7.07l4.239-4.24c1.41-1.42,0-2.83,0-2.83L19.71,0.63c0,0-0.63-0.63-1.47-0.63  c-0.42,0-0.891,0.16-1.36,0.63c0,0-11.32,11.31-12.73,12.73c-1.41,1.41,0,2.82,0,2.82l7.07,7.08c0,0,0.63,0.62,1.47,0.62  c0.42,0,0.89-0.149,1.36-0.62l4.25-4.24l8.479,8.48l1.41-1.42l1.42-1.41l1.41-1.41L29.609,21.84z M18.29,2.05  c0.01,0.01,0.021,0.01,0.03,0.02l7.039,7.04l-1.409,1.42l-7.07-7.07L18.29,2.05z M12.64,21.84c-0.01-0.01-0.02-0.02-0.03-0.029  L5.6,14.8c-0.01-0.01-0.02-0.02-0.03-0.03l1.41-1.41l7.07,7.07L12.64,21.84z M15.46,19.01L8.4,11.95l7.07-7.08l7.07,7.07  L15.46,19.01z M26.779,24.67L19.71,17.6l1.41-1.41l7.069,7.07L26.779,24.67z M19,26H5c-2.2,0-3,1.79-3,3v3h20v-3  C22,26.8,20.21,26,19,26z M20,30H4v-0.99C4.01,28.55,4.19,28,5,28h13.99c0.46,0.01,1.01,0.189,1.01,1V30z"/>
</svg>
