<?xml version="1.0" encoding="utf-8"?>
<!-- Generator: Adobe Illustrator 16.0.0, SVG Export Plug-In . SVG Version: 6.00 Build 0)  -->
<svg xmlns="http://www.w3.org/2000/svg" xmlns:xlink="http://www.w3.org/1999/xlink" version="1.1" id="2571695044_Capa_1_grid" x="0px" y="0px" width="32px" height="32px" viewBox="0 0 32 32" style="enable-background:new 0 0 32 32;" xml:space="preserve">
<path d="M30,10V8h-8V6h2V4h-8V2h2V0H4C2.39,0,0,1.07,0,4v17c0,2.2,1.79,3,3,3h3v1c0,2.2,1.79,3,3,3h3v1c0,2.2,1.79,3,3,3h13  c1.3,0,2-1.029,2-2V14h-2v-4H30z M26,10v4H16c-0.33,0-2-0.1-2-2c0-1.83,1.54-1.99,2-2H26z M6,22H3.01C2.55,21.99,2,21.811,2,21V7.49  C2.67,7.84,3.39,8,4,8h2V22z M6.48,6H4C3.67,6,2,5.9,2,4c0-1.83,1.54-1.99,2-2h10v2h-4C8.83,4,7.25,4.56,6.48,6z M12,26H9.01  C8.55,25.99,8,25.811,8,25V11.49C8.67,11.84,9.39,12,10,12h2V26z M12.48,10H10c-0.33,0-2-0.1-2-2c0-1.83,1.54-1.99,2-2h10v2h-4  C14.83,8,13.25,8.56,12.48,10z M28,30H15.01C14.55,29.99,14,29.811,14,29V15.49c0.67,0.35,1.39,0.51,2,0.51h12V30z"/>
</svg>
