<?xml version="1.0" encoding="utf-8"?>
<!-- Generator: Adobe Illustrator 16.0.0, SVG Export Plug-In . SVG Version: 6.00 Build 0)  -->
<svg xmlns="http://www.w3.org/2000/svg" xmlns:xlink="http://www.w3.org/1999/xlink" version="1.1" id="2571695045_Capa_1_grid" x="0px" y="0px" width="32px" height="32px" viewBox="0 0 32 32" style="enable-background:new 0 0 32 32;" xml:space="preserve">
<path d="M29.37,28.29l-7.07-7.069l0.71-0.711c2.801-2.789,1.221-5.84,0-7.07l-2.229-2.22c0.42-0.7,0.869-1.82,0.729-3.27  c-0.25-2.52-2.18-4.99-5.72-7.36c-0.4-0.26-0.93-0.21-1.26,0.13c-0.33,0.33-0.69,0.77-1.02,1.31c-1.44-0.58-3.37-0.91-5.67-0.14  c-0.29,0.1-0.53,0.33-0.63,0.63C6.57,4.44,6.69,6.1,7.07,7.41C5.76,7.03,4.1,6.91,2.19,7.54c-0.3,0.1-0.54,0.34-0.63,0.64  c-0.78,2.31-0.43,4.26,0.13,5.66c-0.54,0.33-0.98,0.69-1.31,1.02s-0.39,0.86-0.12,1.26c2.36,3.55,4.84,5.47,7.36,5.72  c0.18,0.021,0.36,0.03,0.54,0.03c1.18,0,2.11-0.39,2.72-0.75l2.23,2.22c1.03,1.03,2.18,1.551,3.43,1.551  c2.069,0,3.58-1.479,3.64-1.551l0.711-0.699l7.069,7.069C28.15,29.9,28.41,30,28.67,30c0.25,0,0.51-0.1,0.7-0.29  C29.76,29.32,29.76,28.68,29.37,28.29z M10.28,19.1c0,0-0.01,0.012-0.04,0.041c-0.19,0.159-1.09,0.84-2.43,0.709  c-1.7-0.17-3.55-1.58-5.37-4.09c1.23-0.86,4.1-2.31,7.7-0.36c0.48,0.27,1.09,0.08,1.35-0.4c0.27-0.49,0.09-1.09-0.4-1.36  c-2.89-1.57-5.57-1.4-7.59-0.67c-0.36-0.94-0.57-2.19-0.19-3.67c3-0.77,5.06,0.87,5.48,1.24l0.05,0.05  c0.02,0.01,0.02,0.02,0.03,0.02v0.01l1.41,1.41c0,0,0.71,0.71,1.42,0c0.7-0.71,0-1.42,0-1.42L10.28,9.2  c-0.01-0.01-0.02-0.02-0.04-0.04C9.92,8.8,8.18,6.71,8.96,3.64c1.46-0.37,2.71-0.18,3.67,0.19c-0.72,2.02-0.89,4.7,0.68,7.6  c0.27,0.48,0.87,0.66,1.36,0.4c0.48-0.26,0.66-0.87,0.4-1.36c-1.96-3.61-0.51-6.48,0.35-7.7c2.5,1.81,3.91,3.64,4.09,5.34  c0.15,1.35-0.52,2.24-0.699,2.46c-0.029,0.03-0.041,0.04-0.051,0.05L10.28,19.1z M18.77,21.93c-0.01,0.012-1,0.961-2.229,0.961  c-0.71,0-1.37-0.311-2.02-0.961l-2.12-2.119l7.07-7.069l2.131,2.12c0.209,0.21,2.061,2.18,0,4.241L18.77,21.93z"/>
</svg>
