<?xml version="1.0" encoding="utf-8"?>
<!-- Generator: Adobe Illustrator 16.0.0, SVG Export Plug-In . SVG Version: 6.00 Build 0)  -->
<svg xmlns="http://www.w3.org/2000/svg" xmlns:xlink="http://www.w3.org/1999/xlink" version="1.1" id="2571695046_Capa_1_grid" x="0px" y="0px" width="32px" height="32px" viewBox="0 0 32 32" style="enable-background:new 0 0 32 32;" xml:space="preserve">
<path d="M29.801,14.4l-6-8c-0.17-0.23-0.439-0.38-0.729-0.4c-0.301-0.01-0.57,0.09-0.781,0.29l-2,2c-0.389,0.39-0.389,1.03,0,1.42  c0.391,0.39,1.031,0.39,1.42,0l1.18-1.19L27.002,14h-9c-2,0-2,2-2,2h-2c0-2-2-2-2-2s-6.13,0-9,0l4.11-5.48l1.18,1.19  c0.39,0.39,1.03,0.39,1.42,0s0.39-1.03,0-1.42l-2-2c-0.21-0.2-0.5-0.31-0.78-0.29c-0.29,0.02-0.56,0.17-0.73,0.4l-6,8  c-0.23,0.3-0.2,1.6-0.2,1.6s0,8,7,8c4.72,0,6.25-3.63,6.76-6h2.48c0.51,2.37,2.04,6,6.76,6c7,0,7-8,7-8  C30.002,15.77,30.021,14.69,29.801,14.4z M7.001,22c-4.72,0-4.99-5.189-5-5.96c0-0.01,0-0.03,0.01-0.04h9.95  c0.01,0,0.02,0,0.04,0.01C11.992,16.689,11.771,22,7.001,22z M23.002,22c-4.721,0-4.99-5.189-5-5.96c0-0.01,0-0.03,0.01-0.04h9.949  c0.01,0,0.021,0,0.041,0.01C27.992,16.689,27.771,22,23.002,22z M6,3c0,0.55-0.45,1-1,1H4v1c0,0.55-0.45,1-1,1S2,5.55,2,5V4H1  C0.45,4,0,3.55,0,3s0.45-1,1-1h1V1c0-0.55,0.45-1,1-1s1,0.45,1,1v1h1C5.55,2,6,2.45,6,3z M30,3c0,0.55-0.45,1-1,1h-1v1  c0,0.55-0.45,1-1,1s-1-0.45-1-1V4h-1c-0.55,0-1-0.45-1-1s0.45-1,1-1h1V1c0-0.55,0.45-1,1-1s1,0.45,1,1v1h1C29.55,2,30,2.45,30,3z   M8,29c0,0.55-0.45,1-1,1H6v1c0,0.55-0.45,1-1,1s-1-0.45-1-1v-1H3c-0.55,0-1-0.45-1-1s0.45-1,1-1h1v-1c0-0.55,0.45-1,1-1s1,0.45,1,1  v1h1C7.55,28,8,28.45,8,29z M28,29c0,0.55-0.45,1-1,1h-1v1c0,0.55-0.45,1-1,1s-1-0.45-1-1v-1h-1c-0.55,0-1-0.45-1-1s0.45-1,1-1h1v-1  c0-0.55,0.45-1,1-1s1,0.45,1,1v1h1C27.55,28,28,28.45,28,29z"/>
</svg>
