<?xml version="1.0" encoding="utf-8"?>
<!-- Generator: Adobe Illustrator 16.0.0, SVG Export Plug-In . SVG Version: 6.00 Build 0)  -->
<svg xmlns="http://www.w3.org/2000/svg" xmlns:xlink="http://www.w3.org/1999/xlink" version="1.1" id="2571695047_Capa_1_grid" x="0px" y="0px" width="32px" height="32px" viewBox="0 0 32 32" style="enable-background:new 0 0 32 32;" xml:space="preserve">
<path d="M32,5c0-0.26-0.109-0.52-0.29-0.71l-4-4c-0.39-0.39-1.03-0.39-1.42,0l-9.771,9.77c-1-0.45-2.011-0.69-2.979-0.69  c-1.46,0-2.75,0.53-3.75,1.53c-1.39,1.38-1.61,2.56-1.77,3.42c-0.12,0.61-0.19,0.97-0.6,1.39c-0.38,0.38-0.7,0.46-1.28,0.59  c-0.96,0.22-2.27,0.521-4.13,2.38c-3.91,3.91-1.25,8.65,0.71,10.603C2.83,29.391,5.47,32,8.76,32c1.69,0,3.23-0.68,4.56-2.01  c1.89-1.881,2.13-3.301,2.31-4.34c0.11-0.66,0.18-0.971,0.52-1.32c0.37-0.37,0.69-0.41,1.37-0.48c0.91-0.09,2.16-0.22,3.58-1.64  c1.25-1.25,1.762-2.979,1.433-4.86c-0.11-0.619-0.312-1.25-0.603-1.877l9.78-9.76C31.891,5.52,32,5.27,32,5z M19.689,20.8  c-0.92,0.91-1.59,0.979-2.369,1.062c-0.76,0.08-1.69,0.171-2.58,1.061c-0.81,0.813-0.96,1.648-1.08,2.391  c-0.16,0.899-0.32,1.83-1.75,3.271C10.95,29.529,9.92,30,8.76,30c-2.45,0-4.61-2.109-4.63-2.13c-0.17-0.17-4.18-4.3-0.7-7.78  c1.45-1.449,2.31-1.648,3.15-1.84c0.69-0.16,1.46-0.34,2.25-1.13c0.86-0.85,1.01-1.69,1.15-2.43c0.15-0.77,0.27-1.43,1.22-2.38  c0.63-0.62,1.41-0.94,2.34-0.94c1.51,0,3.239,0.86,4.729,2.36c1.238,1.24,2.061,2.65,2.289,3.97  C20.71,18.561,20.68,19.8,19.689,20.8z M20.87,13.69c-0.341-0.48-0.74-0.94-1.181-1.38c-0.439-0.44-0.91-0.84-1.392-1.19l4.7-4.7  L25.58,9L20.87,13.69z M27,7.58L24.42,5L27,2.41L29.58,5L27,7.58z M13,16c-1.66,0-3,1.34-3,3s1.34,3,3,3s3-1.34,3-3S14.66,16,13,16z   M13,20c-0.55,0-1-0.45-1-1s0.45-1,1-1s1,0.45,1,1S13.55,20,13,20z M11.709,26.289l-1.42,1.42l-6-6l1.42-1.42L11.709,26.289z"/>
</svg>
