<?xml version="1.0" encoding="utf-8"?>
<!-- Generator: Adobe Illustrator 16.0.0, SVG Export Plug-In . SVG Version: 6.00 Build 0)  -->
<svg xmlns="http://www.w3.org/2000/svg" xmlns:xlink="http://www.w3.org/1999/xlink" version="1.1" id="2571695048_Capa_1_grid" x="0px" y="0px" width="32px" height="32px" viewBox="0 0 32 32" style="enable-background:new 0 0 32 32;" xml:space="preserve">
<path d="M17,32c-2.201,0-3-1.794-3-3c0-0.553,0.448-1,1-1c0.549,0,0.994,0.441,1,0.989C16.012,29.451,16.195,30,17,30  c0.391,0,0.662-0.082,0.809-0.245c0.211-0.233,0.197-0.649,0.196-0.653c-0.044-0.235-0.394-2.158-0.869-4.85  c-1.327,0.199-2.81,0.111-4.378-0.281c-2.238-0.561-3.978-2.615-4.432-5.236c-0.566-3.267,0.974-6.467,4.12-8.564  c0.812-0.541,1.504-1.04,2.096-1.499C14.213,6.442,14,4.718,14,4c0-3.164,1.962-4,3-4s3,0.836,3,4c0,1.422-0.469,3.075-3.313,5.502  c0.127,0.83,0.269,1.718,0.418,2.645c1.672-0.048,3.455,0.599,4.693,2.253c1.512,2.013,1.567,4.806,0.145,6.95  c-0.707,1.066-1.688,1.862-2.871,2.365c0.354,2.016,0.675,3.797,0.912,5.105c0.022,0.209,0.117,1.381-0.69,2.275  C18.92,31.509,18.221,32,17,32z M14.883,10.912c-0.41,0.296-0.852,0.603-1.328,0.92c-2.467,1.645-3.685,4.097-3.258,6.561  c0.314,1.813,1.498,3.275,2.946,3.64c1.301,0.323,2.5,0.407,3.549,0.263c-0.416-2.375-0.885-5.104-1.319-7.726  c-0.064,0.031-0.127,0.064-0.189,0.1c-0.563,0.316-2.325,1.537-1.355,3.962c0.205,0.514-0.044,1.096-0.557,1.301  c-0.515,0.207-1.095-0.045-1.3-0.559c-1.03-2.576-0.154-5.106,2.232-6.448c0.266-0.149,0.546-0.279,0.837-0.388  C15.052,11.982,14.965,11.438,14.883,10.912z M17.432,14.149c0.409,2.476,0.858,5.101,1.282,7.529  c0.634-0.349,1.161-0.828,1.563-1.435c0.957-1.44,0.926-3.306-0.077-4.643C19.468,14.624,18.447,14.188,17.432,14.149z M16.971,2  C16.857,2.011,16,2.16,16,4c0,0.499,0.126,1.608,0.335,3.106C18,5.431,18,4.494,18,4C18,2.16,17.143,2.011,16.971,2z"/>
</svg>
