<?xml version="1.0" encoding="utf-8"?>
<!-- Generator: Adobe Illustrator 16.0.0, SVG Export Plug-In . SVG Version: 6.00 Build 0)  -->
<svg xmlns="http://www.w3.org/2000/svg" xmlns:xlink="http://www.w3.org/1999/xlink" version="1.1" id="2571695052_Capa_1_grid" x="0px" y="0px" width="32px" height="32px" viewBox="0 0 32 32" style="enable-background:new 0 0 32 32;" xml:space="preserve">
<path d="M22,16.18v-2.36c1.17-0.4,2-1.51,2-2.82s-0.83-2.42-2-2.82V5c0-0.55-0.45-1-1-1s-1,0.45-1,1v3.18c-1.17,0.4-2,1.51-2,2.82  s0.83,2.42,2,2.82v2.36c-1.17,0.4-2,1.509-2,2.82c0,1.32,0.84,2.43,2.02,2.83C20.01,21.88,20,21.939,20,22v3c0,0.2-0.07,5-6,5  c-5.76,0-5.99-3.6-6-4c0-1.48,1.39-5.29,1.93-6.63c0.2-0.511-0.05-1.091-0.56-1.3c-0.51-0.2-1.09,0.05-1.3,0.56  C7.86,19.16,6,23.87,6,26c0,0.061,0.09,6,8,6s8-6.93,8-7v-3c0-0.061-0.01-0.12-0.02-0.17C23.16,21.43,24,20.32,24,19  C24,17.689,23.17,16.58,22,16.18z M21,10c0.55,0,1,0.45,1,1s-0.45,1-1,1s-1-0.45-1-1S20.45,10,21,10z M21,20c-0.55,0-1-0.45-1-1  s0.45-1,1-1s1,0.45,1,1S21.55,20,21,20z M26,1c0,0.55-0.45,1-1,1h-4c-2.82,0-2.99,2.5-3,3.01c0,0.03,0,0.07-0.01,0.1l-2,18  C15.94,23.62,15.5,24,15,24c-0.04,0-0.07,0-0.11-0.01c-0.55-0.061-0.94-0.551-0.88-1.102l0.92-8.321l-7.52,3.34  C7.27,17.971,7.14,18,7,18c-0.38,0-0.75-0.221-0.91-0.59c-0.23-0.51,0-1.1,0.5-1.32l8.6-3.82L16,4.94C16.02,3.2,17.09,0,21,0h4  C25.55,0,26,0.45,26,1z"/>
</svg>
