<?xml version="1.0" encoding="utf-8"?>
<!-- Generator: Adobe Illustrator 16.0.0, SVG Export Plug-In . SVG Version: 6.00 Build 0)  -->
<svg xmlns="http://www.w3.org/2000/svg" xmlns:xlink="http://www.w3.org/1999/xlink" version="1.1" id="2571695056_Capa_1_grid" x="0px" y="0px" width="32px" height="32px" viewBox="0 0 32 32" style="enable-background:new 0 0 32 32;" xml:space="preserve">
<path d="M30,17c0-8.279-6.721-15-15-15C6.72,2,0,8.721,0,17c0,8.279,6.72,15,15,15C23.279,32,30,25.279,30,17z M24.869,25.45  l-5.689-5.69c0.34-0.529,0.59-1.119,0.721-1.76h8.061C27.75,20.83,26.62,23.41,24.869,25.45z M6.55,26.87l5.69-5.69  C13.03,21.689,13.98,22,15,22s1.971-0.311,2.76-0.82l5.69,5.69C21.18,28.82,18.221,30,15,30C11.78,30,8.82,28.82,6.55,26.87z M15,20  c-1.65,0-3-1.35-3-3c0-1.65,1.35-3,3-3c1.65,0,3,1.35,3,3C18,18.65,16.65,20,15,20z M2.05,18h8.05c0.13,0.641,0.38,1.23,0.72,1.76  l-5.69,5.69C3.38,23.41,2.25,20.83,2.05,18z M8.31,5.859l3.61,7.211C11,13.779,10.34,14.82,10.1,16H2.05  C2.37,11.689,4.8,7.971,8.31,5.859z M19.91,4.96l-3.61,7.21C15.88,12.061,15.45,12,15,12s-0.88,0.061-1.3,0.17l-3.61-7.21  C11.61,4.34,13.27,4,15,4C16.73,4,18.391,4.34,19.91,4.96z M27.96,16H19.9c-0.24-1.18-0.9-2.221-1.82-2.93l3.609-7.211  C25.2,7.971,27.63,11.689,27.96,16z"/>
</svg>
