<?xml version="1.0" encoding="utf-8"?>
<!-- Generator: Adobe Illustrator 16.0.0, SVG Export Plug-In . SVG Version: 6.00 Build 0)  -->
<svg xmlns="http://www.w3.org/2000/svg" xmlns:xlink="http://www.w3.org/1999/xlink" version="1.1" id="2571695055_Capa_1_grid" x="0px" y="0px" width="32px" height="32px" viewBox="0 0 32 32" style="enable-background:new 0 0 32 32;" xml:space="preserve">
<path d="M10,8c-2.21,0-4,1.79-4,4s1.79,4,4,4s4-1.79,4-4S12.21,8,10,8z M10,14c-1.1,0-2-0.9-2-2s0.9-2,2-2s2,0.9,2,2S11.1,14,10,14z   M20,8c-2.21,0-4,1.79-4,4s1.79,4,4,4s4-1.79,4-4S22.21,8,20,8z M20,14c-1.1,0-2-0.9-2-2s0.9-2,2-2s2,0.9,2,2S21.1,14,20,14z M28,15  V9c0-0.09-0.15-9-13-9C2.15,0,2,8.91,2,9v6c0,1.14,0.45,2.95,1.9,4.04C3.23,20.77,2,24.01,2,25c0,2.609,1.69,7,13,7  c11.311,0,13-4.391,13-7c0-0.99-1.23-4.23-1.9-5.96C27.55,17.95,28,16.14,28,15z M15,30c-7.09,0-11-1.779-11-4.99  c0.02-0.52,0.88-2.97,1.73-5.14c0.09,0.021,0.18,0.04,0.27,0.04V26h5c0.91,1.21,2.37,2,4,2s3.09-0.79,4-2h5v-6.09  c0.09,0,0.18-0.021,0.27-0.04C25.12,22.04,25.98,24.49,26,25C26,28.221,22.09,30,15,30z M8,24v-3.87c1.86,0.511,1.99,2.42,2,2.87  c0,0.34,0.03,0.68,0.1,1H8z M12,23c0-1.65,1.35-3,3-3c1.65,0,3,1.35,3,3s-1.35,3-3,3C13.35,26,12,24.65,12,23z M19.9,24  c0.068-0.32,0.1-0.66,0.1-1c0.01-0.45,0.141-2.359,2-2.87V24H19.9z M26,14.99C25.99,15.5,25.82,18,23,18  c-2.04,0-3.311,0.87-4.04,1.95C18.05,18.76,16.609,18,15,18c-1.61,0-3.05,0.76-3.96,1.95C10.31,18.87,9.04,18,7,18  c-2.82,0-2.99-2.5-3-3V9.01C4,8.72,4.21,2,15,2s11,6.72,11,7V14.99z"/>
</svg>
