<?xml version="1.0" encoding="utf-8"?>
<!-- Generator: Adobe Illustrator 16.0.0, SVG Export Plug-In . SVG Version: 6.00 Build 0)  -->
<svg xmlns="http://www.w3.org/2000/svg" xmlns:xlink="http://www.w3.org/1999/xlink" version="1.1" id="2571695057_Capa_1_grid" x="0px" y="0px" width="32px" height="32px" viewBox="0 0 32 32" style="enable-background:new 0 0 32 32;" xml:space="preserve">
<path d="M18,26v2h-2v4h-2v-4h-2v-2h2v-2h2v2H18z M26,26.67V11C26,0.13,15.11,0,15,0S4,0.13,4,11v15.67C2.85,27.9,2,29.59,2,32h2  c0-3.93,2.88-5.27,5.19-6.35C10.7,24.939,12,24.33,12,23v-1.471C12.83,21.82,13.82,22,15,22s2.17-0.18,3-0.471V23  c0,1.33,1.3,1.939,2.811,2.65C23.12,26.73,26,28.07,26,32h2C28,29.59,27.15,27.9,26,26.67z M15,20c-4.81,0-4.99-3.6-5-4v-4h10v3.99  C20,16.4,19.811,20,15,20z M10.07,10c0.58-3.85,4.46-4,4.93-4c3.62,0,4.62,2.53,4.9,4H10.07z M24,25.07  c-0.83-0.521-1.65-0.9-2.34-1.23c-0.62-0.29-1.45-0.68-1.66-0.92v-2.55c1.51-1.33,2-3.16,2-4.37v-5c0-2.42-1.46-7-7-7  c-2.42,0-7,1.46-7,7v5c0,1.21,0.49,3.04,2,4.37v2.55c-0.21,0.24-1.04,0.63-1.66,0.92C7.65,24.17,6.83,24.55,6,25.07V11  c0-8.86,8.63-9,9-9s9,0.1,9,9V25.07z"/>
</svg>
