<?xml version="1.0" encoding="utf-8"?>
<!-- Generator: Adobe Illustrator 16.0.0, SVG Export Plug-In . SVG Version: 6.00 Build 0)  -->
<svg xmlns="http://www.w3.org/2000/svg" xmlns:xlink="http://www.w3.org/1999/xlink" version="1.1" id="2571695058_Capa_1_grid" x="0px" y="0px" width="32px" height="32px" viewBox="0 0 32 32" style="enable-background:new 0 0 32 32;" xml:space="preserve">
<path d="M25,8H5c-3.96,0-5,3.27-5,5c0,4.08,1.95,11.91,2.03,12.24L2.22,26h25.559l0.188-0.76C28.05,24.91,30,17.08,30,13  C30,9.04,26.73,8,25,8z M26.21,24H3.79c-0.12-0.49-0.28-1.18-0.46-2h23.34C26.49,22.82,26.33,23.51,26.21,24z M27.08,20H2.92  C2.45,17.609,2,14.85,2,13.01C2.01,12.5,2.18,10,5,10h19.99C25.5,10.01,28,10.18,28,13C28,14.84,27.55,17.609,27.08,20z M18,14v2h-2  v2h-2v-2h-2v-2h2v-2h2v2H18z"/>
</svg>
