<?xml version="1.0" encoding="utf-8"?>
<!-- Generator: Adobe Illustrator 16.0.0, SVG Export Plug-In . SVG Version: 6.00 Build 0)  -->
<svg xmlns="http://www.w3.org/2000/svg" xmlns:xlink="http://www.w3.org/1999/xlink" version="1.1" id="2571695060_Capa_1_grid" x="0px" y="0px" width="32px" height="32px" viewBox="0 0 32 32" style="enable-background:new 0 0 32 32;" xml:space="preserve">
<path d="M30,22.17V15c0-6.49-4.9-8.63-8.12-8.96C21.49,4.28,19.971,2,16,2c-3.97,0-5.49,2.28-5.88,4.04C6.9,6.37,2,8.51,2,15v7.17  C0.99,22.5,0,23.359,0,25c0,2.41,2.19,5,7,5h18c4.811,0,7-2.59,7-5C32,23.359,31.01,22.5,30,22.17z M26,9.89  c1.13,1.03,2,2.63,2,5.11v7h-2V9.89z M16,4c3.6,0,3.96,2.38,4,2.92L18.18,16h-4.36L12,6.92C12.03,6.42,12.37,4,16,4z M8,8.64  c0.84-0.35,1.65-0.51,2.21-0.57L12.18,18h7.64l1.988-9.93C22.37,8.14,23.17,8.3,24,8.64V22H8V8.64z M4,15c0-2.48,0.87-4.08,2-5.11  V22H4V15z M25,28H7c-3.28,0-5-1.51-5-3c0-0.811,0.55-0.99,1-1h25.99c0.46,0.01,1.01,0.189,1.01,1C30,26.49,28.279,28,25,28z"/>
</svg>
