<?xml version="1.0" encoding="utf-8"?>
<!-- Generator: Adobe Illustrator 16.0.0, SVG Export Plug-In . SVG Version: 6.00 Build 0)  -->
<svg xmlns="http://www.w3.org/2000/svg" xmlns:xlink="http://www.w3.org/1999/xlink" version="1.1" id="2571695061_Capa_1_grid" x="0px" y="0px" width="32px" height="32px" viewBox="0 0 32 32" style="enable-background:new 0 0 32 32;" xml:space="preserve">
<path d="M15,2C6.72,2,0,8.72,0,17c0,8.279,6.72,15,15,15c8.279,0,15-6.721,15-15C30,8.72,23.279,2,15,2z M15,30  C7.83,30,2,24.17,2,17S7.83,4,15,4s13,5.83,13,13S22.17,30,15,30z M16,10v5.26l4.561-2.63l1,1.74L17.01,17l4.551,2.63l-1,1.74  L16,18.74V24h-2v-5.26l-4.56,2.63l-1-1.74L12.99,17l-4.55-2.63l1-1.74L14,15.26V10H16 M18,8h-6v3.797L8.704,9.896l-2.992,5.207  L8.993,17l-3.281,1.896l2.992,5.207L12,22.202V26h6v-3.798l3.296,1.901l2.991-5.207L21.006,17l3.281-1.896l-2.991-5.207L18,11.797V8  L18,8z"/>
</svg>
