<?xml version="1.0" encoding="utf-8"?>
<!-- Generator: Adobe Illustrator 16.0.0, SVG Export Plug-In . SVG Version: 6.00 Build 0)  -->
<svg xmlns="http://www.w3.org/2000/svg" xmlns:xlink="http://www.w3.org/1999/xlink" version="1.1" id="2571695062_Capa_1_grid" x="0px" y="0px" width="32px" height="32px" viewBox="0 0 32 32" style="enable-background:new 0 0 32 32;" xml:space="preserve">
<path d="M18,18l-3,3l-3-3c-8,0-8,14-8,14h22C26,32,26,18,18,18z M11.24,20.07L15,23.83l3.76-3.76c3.711,0.72,4.801,6.72,5.11,9.93  H6.12C6.43,26.79,7.51,20.79,11.24,20.07z M15,0C8.01,0,4,4.74,4,13c0,2.2,1.79,3,3,3h3.37c1.07,1.18,2.56,2,4.63,2  c2.07,0,3.561-0.82,4.63-2H23c1.21,0,3-0.8,3-3C26,4.74,21.99,0,15,0z M15,16c-3.87,0-4.74-4.14-4.94-6.06  c1.68-0.18,3.79-0.8,4.99-2.23c0.82,1.04,2.28,2.04,4.892,2.25C19.74,11.88,18.85,16,15,16z M23,14h-2.08  C21.721,12.29,22,10.38,22,9c0-0.55-0.45-1-1-1c-4.78,0-4.99-2.7-5-3c0-0.55-0.45-1-1-1s-1,0.45-1,1c0,2.95-4.95,3-5,3  C8.45,8,8,8.45,8,9c0,1.38,0.28,3.29,1.08,5H7.01C6.55,13.99,6,13.81,6,13C6,7.98,7.56,2,15,2c7.439,0,9,5.98,9,11  C24,13.81,23.45,13.99,23,14z"/>
</svg>
