<?xml version="1.0" encoding="utf-8"?>
<!-- Generator: Adobe Illustrator 16.0.0, SVG Export Plug-In . SVG Version: 6.00 Build 0)  -->
<svg xmlns="http://www.w3.org/2000/svg" xmlns:xlink="http://www.w3.org/1999/xlink" version="1.1" id="2571695063_Capa_1_grid" x="0px" y="0px" width="32px" height="32px" viewBox="0 0 32 32" style="enable-background:new 0 0 32 32;" xml:space="preserve">
<path d="M29,6h-3.59l-4-4H10.59l-4,4H6V4H4v2H3C1.79,6,0,6.8,0,9v18c0,1.21,0.8,3,3,3h26c1.21,0,3-0.8,3-3V9C32,7.79,31.2,6,29,6z   M30,27c0,0.8-0.55,0.99-1.01,1H3c-0.81,0-0.99-0.55-1-1v-7h6.25c0.89,3.45,4.02,6,7.75,6c3.73,0,6.859-2.55,7.75-6H30V27z M10,18  c0-3.31,2.69-6,6-6c3.311,0,6,2.69,6,6c0,3.311-2.689,6-6,6C12.69,24,10,21.311,10,18z M30,18h-6c0-4.42-3.58-8-8-8s-8,3.58-8,8H2V9  c0-0.81,0.55-0.99,1-1h4.41l4-4h9.18l4,4H29c0.811,0,0.99,0.55,1,1V18z M24,12h4v2h-4V12z M16,14c-2.21,0-4,1.79-4,4s1.79,4,4,4  s4-1.79,4-4S18.21,14,16,14z M16,20c-1.1,0-2-0.9-2-2s0.9-2,2-2c1.1,0,2,0.9,2,2S17.1,20,16,20z"/>
</svg>
