<?xml version="1.0" encoding="utf-8"?>
<!-- Generator: Adobe Illustrator 16.0.0, SVG Export Plug-In . SVG Version: 6.00 Build 0)  -->
<svg xmlns="http://www.w3.org/2000/svg" xmlns:xlink="http://www.w3.org/1999/xlink" version="1.1" id="2571695066_Capa_1_grid" x="0px" y="0px" width="32px" height="32px" viewBox="0 0 32 32" style="enable-background:new 0 0 32 32;" xml:space="preserve">
<path d="M8.05,14h3.9L16,11.57V4c0-1.9,1.67-2,2-2c0.46,0.01,2,0.17,2,2v7.57l10,6v3.949l-10-4v7.891l2,2v2.109l-4-1.601V30l5,2h1  v-5.41l-2-2V20.48l10,4v-8.05l-10-6V4c0-2.93-2.391-4-4-4c-1.61,0-4,1.07-4,4v6.43L8.05,14z M14.95,16.25l-1.32,1.5  c0.65,0.58,1.19,1.27,1.58,2.029l-3.57,1.791C11.13,20.63,10.14,20,9,20s-2.13,0.63-2.64,1.57l-3.57-1.791  c0.39-0.76,0.93-1.449,1.58-2.029l-1.32-1.5C1.11,17.96,0,20.42,0,23c0,4.96,4.04,9,9,9s9-4.04,9-9  C18,20.42,16.891,17.96,14.95,16.25z M8,29.92c-3.39-0.48-6-3.4-6-6.92c0-0.45,0.04-0.891,0.13-1.32l3.94,1.971  c0.22,1.011,0.96,1.841,1.93,2.17V29.92z M9,24c-0.55,0-1-0.45-1-1s0.45-1,1-1s1,0.45,1,1S9.55,24,9,24z M10,29.92v-4.1  c0.97-0.33,1.71-1.16,1.93-2.17l3.94-1.971C15.96,22.109,16,22.55,16,23C16,26.52,13.39,29.439,10,29.92z"/>
</svg>
