<?xml version="1.0" encoding="utf-8"?>
<!-- Generator: Adobe Illustrator 16.0.0, SVG Export Plug-In . SVG Version: 6.00 Build 0)  -->
<svg xmlns="http://www.w3.org/2000/svg" xmlns:xlink="http://www.w3.org/1999/xlink" version="1.1" id="2571695065_Capa_1_grid" x="0px" y="0px" width="32px" height="32px" viewBox="0 0 32 32" style="enable-background:new 0 0 32 32;" xml:space="preserve">
<path d="M0,7c0,2.42,1.72,4.44,4,4.9V32h2V11.9c2.28-0.46,4-2.48,4-4.9c0-2.76-2.24-5-5-5S0,4.24,0,7z M2,7c0-1.65,1.35-3,3-3  s3,1.35,3,3s-1.35,3-3,3S2,8.65,2,7z M10,13c0,10.12,3.94,18.109,4.11,18.45L14.38,32h13.24l0.271-0.55  C28.061,31.109,32,23.12,32,13C32,2.42,22.439,0,21,0S10,2.42,10,13z M14.82,28h12.36c-0.34,0.88-0.619,1.561-0.82,2H15.64  C15.44,29.561,15.16,28.88,14.82,28z M12,13c0-9.63,8.91-11,9-11s9,1.37,9,11c0,5.15-1.1,9.79-2.141,13H14.14  C13.1,22.79,12,18.15,12,13z M16,10v2h4v8h2v-8h4v-2h-4V6h-2v4H16z"/>
</svg>
