<?xml version="1.0" encoding="utf-8"?>
<!-- Generator: Adobe Illustrator 16.0.0, SVG Export Plug-In . SVG Version: 6.00 Build 0)  -->
<svg xmlns="http://www.w3.org/2000/svg" xmlns:xlink="http://www.w3.org/1999/xlink" version="1.1" id="2571695069_Capa_1_grid" x="0px" y="0px" width="32px" height="32px" viewBox="0 0 32 32" style="enable-background:new 0 0 32 32;" xml:space="preserve">
<path d="M30,24V4H0v20h14v2h-4v2h10v-2h-4v-2H30z M2,22V6h26v16H2z M8.219,19.625L3.719,14l4.5-5.625l1.563,1.25L6.281,14l3.5,4.375  L8.219,19.625z M21.781,19.625l-1.563-1.25L23.721,14l-3.502-4.375l1.563-1.25L26.279,14L21.781,19.625z M16.069,8.628l1.856,0.742  l-3.997,10.002l-1.857-0.742L16.069,8.628z"/>
</svg>
