<?xml version="1.0" encoding="utf-8"?>
<!-- Generator: Adobe Illustrator 16.0.0, SVG Export Plug-In . SVG Version: 6.00 Build 0)  -->
<svg xmlns="http://www.w3.org/2000/svg" xmlns:xlink="http://www.w3.org/1999/xlink" version="1.1" id="2571695071_Capa_1_grid" x="0px" y="0px" width="32px" height="32px" viewBox="0 0 32 32" style="enable-background:new 0 0 32 32;" xml:space="preserve">
<path d="M30,13c0,1.02-0.57,2.46-2.08,2.88c-0.26,1.49-1.199,3.39-3.479,3.95c0.119,0.54,0.158,1.199-0.03,1.92  c-0.351,1.311-1.341,2.37-2.95,3.18c-2.3,1.15-1.57,3.461-1.479,3.721c0.188,0.541-0.103,1.132-0.631,1.32  C19.232,30.02,19.111,30.04,19,30.04c-0.432,0-0.818-0.271-0.979-0.69c-0.529-1.47-0.689-4.68,2.521-6.279  c1.05-0.521,1.67-1.148,1.86-1.85c0.229-0.851-0.262-1.641-0.262-1.641c-0.318-0.48-0.188-1.13,0.279-1.439  c0.25-0.16,0.53-0.211,0.801-0.148h0.029c2.58-0.143,2.74-2.51,2.75-3c0.01-0.54,0.45-0.99,1-0.99c0.811,0,0.99-0.55,1-1.01  C28,12.55,27.8,2,15,2C2.27,2,2,8.72,2,9.01C2,9.51,2.18,14,7,14c0.55,0,1,0.45,1,1c0.01,0.3,0.22,3,5,3c0.55,0,1,0.45,1,1  s-0.45,1-1,1c-0.28,0-0.56-0.01-0.82-0.029c0.26,0.879,0.95,1.989,2.82,1.989c2.311,0,2.92-0.739,2.96-1.021  c0-0.569,0.47-1.01,1.04-1.01s1.04,0.5,1.04,1.068c0,0.109-0.05,2.63-4.04,3v5c0,0.55-0.45,1-1,1s-1-0.45-1-1v-5.04  c-2.79-0.438-3.8-2.729-4-4.351c-2.62-0.779-3.53-2.541-3.84-3.649C1.31,15.53,0,11.29,0,9c0-0.37,0.17-9,15-9S30,12.87,30,13z"/>
<path d="M22,15c0,0.55-0.45,1-1,1h-4c-3.32,0-4.59-2.3-4.91-4.06C8.88,11.48,8,8.59,8,7c0-0.55,0.45-1,1-1s1,0.45,1,1  c0.01,0.5,0.18,3,3,3c0.55,0,1,0.45,1,1c0.01,0.5,0.18,3,3,3h4C21.55,14,22,14.45,22,15z"/>
<path d="M24,11c0,0.55-0.45,1-1,1s-1-0.45-1-1c0-2.82-2.5-2.99-3.01-3C18.439,7.99,18,7.54,18,6.99C18.01,6.44,18.45,6,19,6  C20.73,6,24,7.04,24,11z"/>
</svg>
