<?xml version="1.0" encoding="utf-8"?>
<!-- Generator: Adobe Illustrator 16.0.0, SVG Export Plug-In . SVG Version: 6.00 Build 0)  -->
<svg xmlns="http://www.w3.org/2000/svg" xmlns:xlink="http://www.w3.org/1999/xlink" version="1.1" id="2571695072_Capa_1_grid" x="0px" y="0px" width="32px" height="32px" viewBox="0 0 32 32" style="enable-background:new 0 0 32 32;" xml:space="preserve">
<path d="M25,8c-1.4,0-2.439,0.38-3.18,0.83C21.08,8.28,20.13,8,19,8c-1.279,0-2.26,0.31-3,0.72V6h2V4h-2V2h-2v2h-2v2h2v2.72  C13.26,8.31,12.28,8,11,8C9.87,8,8.92,8.28,8.18,8.83C7.42,8.36,6.38,8,5,8c-3.32,0-5,2.35-5,7c0,4.439,1.49,7.4,2,8.279V30h26  v-6.721c0.51-0.879,2-3.84,2-8.279C30,10.35,28.32,8,25,8z M16,11.29c0.28-0.38,1.15-1.29,3-1.29c0.971,0,3,0,3,5  c0,3.54-1.08,6.029-1.58,7H16V11.29z M11,10c1.84,0,2.71,0.9,3,1.28V22H9.58C9.07,21.04,8,18.57,8,15C8,10,10.03,10,11,10z M2,15  c0-5,2.03-5,3-5c0.79,0,1.41,0.16,1.88,0.39C6.29,11.52,6,13.06,6,15c0,3.15,0.75,5.55,1.37,7H3.58C3.07,21.04,2,18.57,2,15z M26,28  H4v-4h22V28z M26.42,22h-3.79c0.62-1.45,1.37-3.85,1.37-7c0-1.94-0.29-3.48-0.88-4.61C23.59,10.16,24.2,10,25,10c0.971,0,3,0,3,5  C28,18.54,26.92,21.029,26.42,22z"/>
</svg>
