<?xml version="1.0" encoding="utf-8"?>
<!-- Generator: Adobe Illustrator 16.0.0, SVG Export Plug-In . SVG Version: 6.00 Build 0)  -->
<svg xmlns="http://www.w3.org/2000/svg" xmlns:xlink="http://www.w3.org/1999/xlink" version="1.1" id="2571695073_Capa_1_grid" x="0px" y="0px" width="32px" height="32px" viewBox="0 0 32 32" style="enable-background:new 0 0 32 32;" xml:space="preserve">
<path d="M31.529,4.15C31.18,3.93,30.73,3.95,30.4,4.2l-7.26,5.44l-6.391-7.3c-0.38-0.43-1.12-0.43-1.5,0l-6.39,7.3L1.6,4.2  C1.27,3.95,0.82,3.93,0.47,4.15C0.12,4.37-0.06,4.77,0.02,5.18l4,22C4.1,27.65,4.52,28,5,28h22c0.48,0,0.9-0.35,0.98-0.82l4-22  C32.061,4.77,31.88,4.37,31.529,4.15z M26.17,26H5.83L5.1,22h21.8L26.17,26z M27.26,20H4.74L2.44,7.33L8.4,11.8  c0.42,0.32,1.01,0.25,1.35-0.14L16,4.52l6.25,7.14c0.34,0.39,0.93,0.46,1.35,0.14l5.961-4.47L27.26,20z"/>
</svg>
