<?xml version="1.0" encoding="utf-8"?>
<!-- Generator: Adobe Illustrator 16.0.0, SVG Export Plug-In . SVG Version: 6.00 Build 0)  -->
<svg xmlns="http://www.w3.org/2000/svg" xmlns:xlink="http://www.w3.org/1999/xlink" version="1.1" id="2571695077_Capa_1_grid" x="0px" y="0px" width="32px" height="32px" viewBox="0 0 32 32" style="enable-background:new 0 0 32 32;" xml:space="preserve">
<path d="M28.42,27l1.9-1.91l-6-8L26.41,15L17.5,6.06C16.29,2.53,12.94,0,9,0C4.03,0,0,4.03,0,9c0,3.97,2.57,7.34,6.14,8.529  L15,26.41l2.09-2.09l8,6l1.91-1.9l3.29,3.29l1.42-1.42L28.42,27z M2,9c0-3.86,3.14-7,7-7c1.57,0,3.01,0.51,4.18,1.4L3.4,13.18  C2.51,12.01,2,10.57,2,9z M4.82,14.6l9.78-9.78C15.49,5.99,16,7.43,16,9c0,3.86-3.14,7-7,7C7.43,16,5.99,15.49,4.82,14.6z M15,23.59  l-5.59-5.6c4.64-0.211,8.369-3.94,8.58-8.58l5.6,5.59L15,23.59z M24.91,27.68l-6.391-4.789l4.369-4.371l4.791,6.392L24.91,27.68z"/>
</svg>
