<?xml version="1.0" encoding="utf-8"?>
<!-- Generator: Adobe Illustrator 16.0.0, SVG Export Plug-In . SVG Version: 6.00 Build 0)  -->
<svg xmlns="http://www.w3.org/2000/svg" xmlns:xlink="http://www.w3.org/1999/xlink" version="1.1" id="2571695078_Capa_1_grid" x="0px" y="0px" width="32px" height="32px" viewBox="0 0 32 32" style="enable-background:new 0 0 32 32;" xml:space="preserve">
<path d="M29.71,18.29l-2-2c-0.39-0.39-1.03-0.39-1.42,0l-2,2c-0.39,0.39-0.39,1.03,0,1.42s1.03,0.39,1.42,0l0.271-0.271  c-0.16,1.75-1.33,8.08-9.979,8.541V10h3c0.55,0,1-0.45,1-1s-0.45-1-1-1h-3V5.82c1.17-0.4,2-1.51,2-2.82c0-1.66-1.34-3-3-3  s-3,1.34-3,3c0,1.31,0.83,2.42,2,2.82V8h-3c-0.55,0-1,0.45-1,1s0.45,1,1,1h3v17.98c-8.64-0.461-9.82-6.78-9.98-8.541l0.27,0.271  C4.49,19.9,4.74,20,5,20s0.51-0.1,0.71-0.29c0.39-0.39,0.39-1.03,0-1.42l-2-2c-0.39-0.39-1.03-0.39-1.42,0l-2,2  c-0.39,0.39-0.39,1.03,0,1.42s1.03,0.39,1.42,0l0.31-0.31c0.16,1.91,1.46,10.09,11.98,10.57V31c0,0.55,0.45,1,1,1s1-0.45,1-1v-1.029  c10.52-0.48,11.82-8.66,11.98-10.57l0.31,0.31C28.49,19.9,28.74,20,29,20s0.51-0.1,0.71-0.29C30.1,19.32,30.1,18.68,29.71,18.29z   M15,4c-0.55,0-1-0.45-1-1s0.45-1,1-1s1,0.45,1,1S15.55,4,15,4z"/>
</svg>
