<?xml version="1.0" encoding="utf-8"?>
<!-- Generator: Adobe Illustrator 16.0.0, SVG Export Plug-In . SVG Version: 6.00 Build 0)  -->
<svg xmlns="http://www.w3.org/2000/svg" xmlns:xlink="http://www.w3.org/1999/xlink" version="1.1" id="2571695076_Capa_1_grid" x="0px" y="0px" width="32px" height="32px" viewBox="0 0 32 32" style="enable-background:new 0 0 32 32;" xml:space="preserve">
<path d="M22,8V4H8v4H0v22h30V8H22z M10,6h10v2H10V6z M28,28H2V10h2v2h2v-2h18v2h2v-2h2V28z M20,16v-2h-4v-2h-2v2h-4v6h4v2h-4v2h4v2  h2v-2h4v-6h-4v-2H20z M14,18h-2v-2h2V18z M18,20v2h-2v-2H18z"/>
</svg>
