<?xml version="1.0" encoding="utf-8"?>
<!-- Generator: Adobe Illustrator 16.0.0, SVG Export Plug-In . SVG Version: 6.00 Build 0)  -->
<svg xmlns="http://www.w3.org/2000/svg" xmlns:xlink="http://www.w3.org/1999/xlink" version="1.1" id="2571695079_Capa_1_grid" x="0px" y="0px" width="32px" height="32px" viewBox="0 0 32 32" style="enable-background:new 0 0 32 32;" xml:space="preserve">
<path d="M16,4v2h2v19c0,2.42,1.25,7,6,7s6-4.58,6-7V6h2V4H16z M28,25c0,0.2-0.05,5-4,5c-3.93,0-4-4.8-4-5v-7.32l8-3.2V25z M28,12.32  l-8,3.2V6h8V12.32z M16,26H0V0h20v2H2v22h14V26z M4,4h10v2H4V4z M4,8h12v2H4V8z M4,12h12v2H4V12z M4,16h12v2H4V16z M4,20h12v2H4V20z  "/>
</svg>
