<?xml version="1.0"?>
<svg xmlns="http://www.w3.org/2000/svg" id="2571697628_Layer_1_grid" data-name="Layer 1" viewBox="0 0 32 32"><title>social_care_win_10</title><path d="M31.21,24.94h0A3.72,3.72,0,0,0,32,23a2.81,2.81,0,0,0-2-2.83h0c-1-2.62-2.41-4.63-4.52-5l-.08,0h0a3,3,0,0,0-1.52-1h0a7.47,7.47,0,0,0,3.73-6.7c0-4.06-2.83-7.36-6.3-7.36S15,3.38,15,7.44A7.53,7.53,0,0,0,18.5,14H13c-5,0-6.41,2.55-6.83,4H0V30H6.82a28.72,28.72,0,0,0,3.94,1.11c0,.54-.06.88-.06.88H32A50.87,50.87,0,0,0,31.21,24.94ZM6,28H2V20H6Zm18.42-8.34.19-.11a2.53,2.53,0,0,0,.27-.18c.06,0,.12-.1.18-.15A2.55,2.55,0,0,0,25.3,19a1.33,1.33,0,0,0,.14-.19,2.9,2.9,0,0,0,.19-.29,2.56,2.56,0,0,0,.11-.24,3.62,3.62,0,0,0,.13-.35,2.8,2.8,0,0,0,.06-.28c0-.06,0-.1,0-.16a6.35,6.35,0,0,1,2,2.91l-.26.11-.19.07-.17.07c-.38.15-.83.32-1.35.48h0c-.54.18-1.13.34-1.76.49l-.09,0a16.9,16.9,0,0,1-1.93.3L22,22c-.33,0-.66,0-1,0a2.7,2.7,0,0,1-2.85-2H23l.23,0h.22l.21-.05.28-.07.2-.07ZM17,7.44c0-3,1.93-5.36,4.3-5.36s4.3,2.4,4.3,5.36-1.93,5.35-4.3,5.35S17,10.39,17,7.44ZM25.3,30a21.58,21.58,0,0,0,4.18-3.09c0,.25.23,1.59.3,3.09Zm4.62-6.73a1.29,1.29,0,0,1-.09.16l-.11.18-.16.23-.15.2-.19.23C27.4,26.39,22.74,30,19,30A36,36,0,0,1,8,28.3V19c0-.31.22-3,5-3H23a1.13,1.13,0,0,1,.74.26.75.75,0,0,1,.18.27s0,0,0,.05A1.25,1.25,0,0,1,24,17h0a1.4,1.4,0,0,1-.09.5A1,1,0,0,1,23,18H17a1,1,0,0,0-1,1,4.82,4.82,0,0,0,5,5c.37,0,.73,0,1.09-.05h.1c.35,0,.7-.07,1-.13h.13l1-.19h0c.34-.07.66-.15,1-.23l.08,0,.87-.26.12,0A23.15,23.15,0,0,0,29.19,22,.87.87,0,0,1,30,23,1.3,1.3,0,0,1,29.92,23.27Z"/></svg>
