<?xml version="1.0" encoding="utf-8"?>
<!-- Generator: Adobe Illustrator 16.0.0, SVG Export Plug-In . SVG Version: 6.00 Build 0)  -->
<svg xmlns="http://www.w3.org/2000/svg" xmlns:xlink="http://www.w3.org/1999/xlink" version="1.1" id="2571695075_Capa_1_grid" x="0px" y="0px" width="32px" height="32px" viewBox="0 0 32 32" style="enable-background:new 0 0 32 32;" xml:space="preserve">
<path d="M23.25,12.13l8.66-5l-2-3.47l-1.74,1l1,1.73l-27.71,16c-0.68,0.399-1.05,1.051-1.01,1.801c0.03,0.479,0.22,0.84,0.28,0.938  l2.5,4.33C3.56,30.029,4.47,31,5.78,31c0.51,0,1.03-0.15,1.55-0.439c0.92-0.541,1.48-1.619,2.17-2.99  c0.93-1.819,2.09-4.1,4.49-5.479l0.86-0.5l2,3.47l3.471-2l-1-1.738l-1.74,1l-1-1.73l8.67-5L23.25,12.13z M7.72,26.66  c-0.48,0.949-0.98,1.92-1.39,2.16C6.12,28.939,5.94,29,5.78,29c-0.47,0-0.82-0.54-0.82-0.54l-2.5-4.33l8.66-5l1.02,1.771  C9.8,22.58,8.61,24.91,7.72,26.66z M13.85,19.859l-1-1.729l8.66-5l1,1.73L13.85,19.859z M0,0v11.54l7,4.66l7-4.66V0H0z M12,10.46  L7,13.8l-5-3.34V6h10V10.46z M12,4H2V2h10V4z"/>
</svg>
