<?xml version="1.0" encoding="utf-8"?>
<!-- Generator: Adobe Illustrator 16.0.0, SVG Export Plug-In . SVG Version: 6.00 Build 0)  -->
<svg xmlns="http://www.w3.org/2000/svg" xmlns:xlink="http://www.w3.org/1999/xlink" version="1.1" id="2571695080_Capa_1_grid" x="0px" y="0px" width="32px" height="32px" viewBox="0 0 32 32" style="enable-background:new 0 0 32 32;" xml:space="preserve">
<path d="M29.71,18.29c-0.39-0.39-1.03-0.39-1.42,0l-2.89,2.89C24.75,20.34,23.65,20,22.82,20H7.18c-1.25,0-2.08,0.52-2.57,1.189  l-2.9-2.899c-0.39-0.39-1.03-0.39-1.42,0s-0.39,1.03,0,1.42L4,23.42V25c0,5.54,4.94,7,7.55,7h6.9c5.97,0,7.55-4.58,7.55-7v-1.58  l3.71-3.71C30.1,19.32,30.1,18.68,29.71,18.29z M24,25c0,0.51-0.2,5-5.55,5h-6.9C11.32,30,6,29.939,6,25v-2c0-0.23,0.09-1,1.18-1  h15.63C23.17,22.01,24,22.12,24,23V25z M15.41,0.01C15.27,0,15.14,0,15,0s-0.27,0-0.41,0.01C3.97,0.14,0,5.56,0,9  c0,3.25,1.94,6.4,2.02,6.53c0.16,0.26,0.44,0.44,0.75,0.47s0.62-0.09,0.83-0.32c0.02-0.02,2.19-2.3,6.98-3.26  C11.78,13.41,13.32,14,15,14c1.68,0,3.21-0.58,4.41-1.57c4.75,0.95,6.97,3.23,6.99,3.25C26.59,15.89,26.859,16,27.13,16h0.101  c0.312-0.04,0.59-0.21,0.75-0.47C28.07,15.4,30,12.25,30,9C30,5.56,26.029,0.14,15.41,0.01z M9.07,10.72  c-2.89,0.75-4.82,1.91-5.9,2.71C2.66,12.38,2,10.67,2,9c0-1.79,1.97-5.09,7.58-6.42C8.59,3.78,8,5.32,8,7  C8,8.37,8.39,9.64,9.07,10.72z M15,12c-2.76,0-5-2.24-5-5s2.24-5,5-5s5,2.24,5,5S17.76,12,15,12z M26.83,13.43  c-1.07-0.8-3.01-1.97-5.9-2.71C21.609,9.64,22,8.37,22,7c0-1.68-0.59-3.22-1.58-4.42C26.029,3.91,28,7.21,28,9  C28,10.67,27.34,12.38,26.83,13.43z M18,6v2h-2v2h-2V8h-2V6h2V4h2v2H18z"/>
</svg>
