<?xml version="1.0" encoding="utf-8"?>
<!-- Generator: Adobe Illustrator 16.0.0, SVG Export Plug-In . SVG Version: 6.00 Build 0)  -->
<svg xmlns="http://www.w3.org/2000/svg" xmlns:xlink="http://www.w3.org/1999/xlink" version="1.1" id="2571695081_Capa_1_grid" x="0px" y="0px" width="32px" height="32px" viewBox="0 0 32 32" style="enable-background:new 0 0 32 32;" xml:space="preserve">
<path d="M23,24c-1.311,0-2.42,0.83-2.82,2H4V14h16.18c0.4,1.17,1.512,2,2.82,2c1.66,0,3-1.34,3-3s-1.34-3-3-3  c-1.311,0-2.42,0.83-2.82,2H2v16h18.18c0.4,1.17,1.512,2,2.82,2c1.66,0,3-1.34,3-3S24.66,24,23,24z M23,12c0.55,0,1,0.45,1,1  s-0.45,1-1,1s-1-0.45-1-1S22.45,12,23,12z M23,28c-0.55,0-1-0.45-1-1s0.45-1,1-1s1,0.45,1,1S23.55,28,23,28z M9.82,6  C9.42,4.83,8.31,4,7,4C5.34,4,4,5.34,4,7s1.34,3,3,3c1.31,0,2.42-0.83,2.82-2H28v12H11.82c-0.4-1.17-1.51-2-2.82-2  c-1.66,0-3,1.34-3,3s1.34,3,3,3c1.31,0,2.42-0.83,2.82-2H30V6H9.82z M7,8C6.45,8,6,7.55,6,7s0.45-1,1-1s1,0.45,1,1S7.55,8,7,8z   M9,22c-0.55,0-1-0.45-1-1s0.45-1,1-1s1,0.45,1,1S9.55,22,9,22z"/>
</svg>
