<?xml version="1.0" encoding="utf-8"?>
<!-- Generator: Adobe Illustrator 16.0.0, SVG Export Plug-In . SVG Version: 6.00 Build 0)  -->
<svg xmlns="http://www.w3.org/2000/svg" xmlns:xlink="http://www.w3.org/1999/xlink" version="1.1" id="2571695082_Capa_1_grid" x="0px" y="0px" width="32px" height="32px" viewBox="0 0 32 32" style="enable-background:new 0 0 32 32;" xml:space="preserve">
<path d="M8,10c-2.21,0-4,2.24-4,5s1.79,5,4,5s4-2.24,4-5S10.21,10,8,10z M8,18c-1.07,0-2-1.4-2-3c0-1.6,0.93-3,2-3s2,1.4,2,3  C10,16.6,9.07,18,8,18z M11,20h-0.41L8,22.59L5.41,20H5c-0.2,0-5,0.1-5,9v1h16v-1C16,20.1,11.2,20,11,20z M2.02,28  c0.22-4.6,1.91-5.67,2.64-5.92L8,25.41l3.33-3.33c0.76,0.26,2.43,1.34,2.65,5.92H2.02z M32,2v20H16v-2h14V4H4v6H2V2H32z M6,6h22v2H6  V6z M14,10v8h14v-8H14z M26,16H16v-4h10V16z"/>
</svg>
