<?xml version="1.0" encoding="utf-8"?>
<!-- Generator: Adobe Illustrator 16.0.0, SVG Export Plug-In . SVG Version: 6.00 Build 0)  -->
<svg xmlns="http://www.w3.org/2000/svg" xmlns:xlink="http://www.w3.org/1999/xlink" version="1.1" id="2571695083_Capa_1_grid" x="0px" y="0px" width="32px" height="32px" viewBox="0 0 32 32" style="enable-background:new 0 0 32 32;" xml:space="preserve">
<path d="M15,2C6.72,2,0,8.72,0,17c0,8.279,6.72,15,15,15c8.279,0,15-6.721,15-15C30,8.72,23.279,2,15,2z M14.26,4.03  c0.22,1.21,0.14,4.16-3.97,8.26c-4.1,4.11-7.04,4.19-8.26,3.97C2.39,9.68,7.68,4.39,14.26,4.03z M13.73,29.93  c-6.15-0.59-11.06-5.5-11.66-11.65c0.22,0.029,0.46,0.041,0.72,0.041c1.97,0,5.11-0.812,8.92-4.609c4.31-4.31,4.76-7.77,4.56-9.64  c6.16,0.59,11.07,5.5,11.66,11.66c-1.869-0.2-5.33,0.25-9.64,4.56C13.98,24.6,13.53,28.061,13.73,29.93z M15.74,29.971  c-0.22-1.211-0.14-4.16,3.97-8.261c4.11-4.12,7.069-4.19,8.271-3.979C27.609,24.32,22.32,29.609,15.74,29.971z"/>
</svg>
