<?xml version="1.0" encoding="utf-8"?>
<!-- Generator: Adobe Illustrator 16.0.0, SVG Export Plug-In . SVG Version: 6.00 Build 0)  -->
<svg xmlns="http://www.w3.org/2000/svg" xmlns:xlink="http://www.w3.org/1999/xlink" version="1.1" id="2571695084_Capa_1_grid" x="0px" y="0px" width="32px" height="32px" viewBox="0 0 32 32" style="enable-background:new 0 0 32 32;" xml:space="preserve">
<path d="M13.07,10.07C12.41,9.6,12,9.3,12,9V2h2V0H4v2h2v7c0,0.3-0.41,0.6-1.07,1.07C3.76,10.89,2,12.14,2,15v17h14V15  C16,12.14,14.24,10.89,13.07,10.07z M14,30H4v-4h10V30z M14,24H4v-6h10V24z M14,16H4v-1c0-1.83,1.01-2.54,2.09-3.3  C6.98,11.06,8,10.35,8,9V2h2v7c0,1.35,1.02,2.06,1.91,2.7C12.99,12.46,14,13.17,14,15V16z M18,8v11c0,0.05,0.07,4.51,6,4.96V30h-4v2  h10v-2h-4v-6.04c5.93-0.45,6-4.91,6-4.96V8H18z M30,18.99C29.99,19.3,29.779,22,25,22s-4.99-2.7-5-3v-9h10V18.99z"/>
</svg>
