<?xml version="1.0" encoding="utf-8"?>
<!-- Generator: Adobe Illustrator 16.0.0, SVG Export Plug-In . SVG Version: 6.00 Build 0)  -->
<svg xmlns="http://www.w3.org/2000/svg" xmlns:xlink="http://www.w3.org/1999/xlink" version="1.1" id="2571695085_Capa_1_grid" x="0px" y="0px" width="32px" height="32px" viewBox="0 0 32 32" style="enable-background:new 0 0 32 32;" xml:space="preserve">
<path d="M31.561,6.17c-0.271-0.19-0.631-0.22-0.931-0.1L18.811,12H3c-1.21,0-3,0.8-3,3v4c0,1.21,0.8,3,3,3h15.811l11.819,5.93  C30.75,27.98,30.87,28,31,28c0.2,0,0.391-0.061,0.561-0.17C31.83,27.641,32,27.33,32,27V7C32,6.67,31.83,6.36,31.561,6.17z M18,20H3  c-0.81,0-0.99-0.55-1-1v-4c0-0.81,0.55-0.99,1-1h15V20z M26,23.439l-6-3.119v-6.64l6-3.12V23.439z M30,25.52l-2-1.039V9.52l2-1.04  V25.52z M6,16h4v2H6V16z M12,16h2v2h-2V16z"/>
</svg>
