<?xml version="1.0" encoding="utf-8"?>
<!-- Generator: Adobe Illustrator 16.0.0, SVG Export Plug-In . SVG Version: 6.00 Build 0)  -->
<svg xmlns="http://www.w3.org/2000/svg" xmlns:xlink="http://www.w3.org/1999/xlink" version="1.1" id="2571695086_Capa_1_grid" x="0px" y="0px" width="32px" height="32px" viewBox="0 0 32 32" style="enable-background:new 0 0 32 32;" xml:space="preserve">
<path d="M31,30H10.11l1-2H29c0.55,0,1-0.45,1-1s-0.45-1-1-1H12.1l0.88-1.779c1.56-0.57,4.04-1.83,6.73-4.511  c2.03-2.03,5.12-5.6,7.45-8.98c3.061-4.44,3.869-7.12,2.55-8.44c-0.28-0.28-0.8-0.61-1.64-0.61c-3.94,0-12.94,7.78-15.78,10.61  c-2.67,2.68-3.93,5.16-4.5,6.72l-6.24,3.1c-0.3,0.141-0.5,0.431-0.54,0.771L0.02,30.8C0.01,30.859,0,30.93,0,31s0.01,0.141,0.02,0.2  c0.02,0.1,0.05,0.188,0.1,0.271c0,0,0,0,0,0.01c0.05,0.09,0.1,0.16,0.17,0.229c0.09,0.09,0.2,0.16,0.32,0.21  c0.05,0.021,0.09,0.04,0.14,0.04C0.83,31.99,0.91,32,1,32h30c0.55,0,1-0.45,1-1S31.55,30,31,30z M13.71,13.71  c3.99-4,11.75-10.03,14.36-10.03c0.18,0,0.22,0.02,0.22,0.02c0.75,1.18-4.149,8.74-10,14.59c-0.46,0.46-0.91,0.87-1.351,1.229  l-4.469-4.471C12.84,14.62,13.25,14.17,13.71,13.71z M9.43,20.41c0.19-0.73,0.69-2.08,1.81-3.75l4.09,4.09  c-1.69,1.141-3.06,1.63-3.78,1.83c-0.03,0.01-0.07,0.02-0.1,0.029l-2.06-2.06C9.4,20.51,9.41,20.46,9.43,20.41z M3.77,29.65  l2.94-2.94l-1.42-1.42l-2.94,2.94l0.58-4.57l4.52-2.271l3.16,3.16L8.34,29.07L3.77,29.65z"/>
</svg>
