<?xml version="1.0" encoding="utf-8"?>
<!-- Generator: Adobe Illustrator 16.0.0, SVG Export Plug-In . SVG Version: 6.00 Build 0)  -->
<!DOCTYPE svg PUBLIC "-//W3C//DTD SVG 1.1//EN" "http://www.w3.org/Graphics/SVG/1.1/DTD/svg11.dtd">
<svg xmlns="http://www.w3.org/2000/svg" xmlns:xlink="http://www.w3.org/1999/xlink" version="1.1" id="Capa_1" x="0px" y="0px" width="32px" height="32px" viewBox="0 0 32 32" enable-background="new 0 0 32 32" xml:space="preserve">
<g>
	<g>
		<path d="M8,27c0-0.81,0.55-0.99,1-1h16c1.21,0,3-0.8,3-3s-1.79-3-3-3h-5.99C18.55,19.99,18,19.81,18,19v-1.38l7.45-3.73l0.26-0.18    L32,7.266L29.45,1.66l-0.9,0.45l-13.9,6.95l-1.37-2.73L15,5.98l-0.4-1.96l-9.8,2C4.48,6.08,4.22,6.3,4.09,6.6    C3.95,6.89,3.98,7.23,4.14,7.51l3.12,5.24l-2.71,1.36l-0.38,0.34l-4,6L1,22h8l0.45-0.11L16,18.62V19c0,2.2,1.79,3,3,3h5.99    c0.46,0.01,1.01,0.19,1.01,1s-0.55,0.99-1,1H9c-1.21,0-3,0.8-3,3s1.79,3,3,3h21v-2H9.01C8.55,27.99,8,27.81,8,27z M28.55,4.34    l1.03,2.496l-4.43,4.604l-2.69-4.05L28.55,4.34z M6.58,7.7l4.68-0.96l1.6,3.21l-3.81,1.91L6.58,7.7z M2.87,20l2.81-4.22l0.03-0.01    L8.15,20H2.87z M10.08,19.34L7.5,14.87l13.16-6.58l2.88,4.32L10.08,19.34z"/>
	</g>
</g>
</svg>
