<?xml version="1.0" encoding="utf-8"?>
<!-- Generator: Adobe Illustrator 16.0.0, SVG Export Plug-In . SVG Version: 6.00 Build 0)  -->
<!DOCTYPE svg PUBLIC "-//W3C//DTD SVG 1.1//EN" "http://www.w3.org/Graphics/SVG/1.1/DTD/svg11.dtd">
<svg xmlns="http://www.w3.org/2000/svg" xmlns:xlink="http://www.w3.org/1999/xlink" version="1.1" id="Capa_1" x="0px" y="0px" width="32px" height="32px" viewBox="0 0 32 32" enable-background="new 0 0 32 32" xml:space="preserve">
<g>
	<path d="M4,10c-2.21,0-4,1.79-4,4s1.79,4,4,4s4-1.79,4-4S6.21,10,4,10z M4,16c-1.1,0-2-0.9-2-2s0.9-2,2-2s2,0.9,2,2S5.1,16,4,16z"/>
</g>
<g>
	<path d="M12,2C9.79,2,8,3.79,8,6s1.79,4,4,4s4-1.79,4-4S14.21,2,12,2z M12,8c-1.1,0-2-0.9-2-2s0.9-2,2-2s2,0.9,2,2S13.1,8,12,8z"/>
</g>
<g>
	<path d="M22,4c-2.21,0-4,1.79-4,4s1.79,4,4,4s4-1.79,4-4S24.21,4,22,4z M22,10c-1.1,0-2-0.9-2-2s0.9-2,2-2s2,0.9,2,2S23.1,10,22,10   z"/>
</g>
<g>
	<path d="M28,14c-2.21,0-4,1.79-4,4s1.79,4,4,4s4-1.79,4-4S30.21,14,28,14z M28,20c-1.1,0-2-0.9-2-2c0-1.1,0.9-2,2-2s2,0.9,2,2   C30,19.1,29.1,20,28,20z"/>
</g>
<g>
	<polygon points="32,24 32,30 30,30 30,28 22,28 22,30 20,30 20,28 12,28 12,30 10,30 10,28 2,28 2,30 0,30 0,24 2,24 2,26 10,26    10,24 12,24 12,26 20,26 20,24 22,24 22,26 30,26 30,24  "/>
</g>
</svg>
