<?xml version="1.0" encoding="utf-8"?>
<!-- Generator: Adobe Illustrator 16.0.0, SVG Export Plug-In . SVG Version: 6.00 Build 0)  -->
<!DOCTYPE svg PUBLIC "-//W3C//DTD SVG 1.1//EN" "http://www.w3.org/Graphics/SVG/1.1/DTD/svg11.dtd">
<svg xmlns="http://www.w3.org/2000/svg" xmlns:xlink="http://www.w3.org/1999/xlink" version="1.1" id="Capa_1" x="0px" y="0px" width="32px" height="32px" viewBox="0 0 32 32" enable-background="new 0 0 32 32" xml:space="preserve">
<g>
	<g>
		<g>
			<path d="M16,30c-6.449,0-10-3.196-10-9c0-6.261,8.824-18.099,9.2-18.6L16,1.333L16.8,2.4C17.176,2.901,26,14.739,26,21     C26,26.804,22.448,30,16,30z M16.003,4.702C13.836,7.759,8,16.418,8,21c0,4.71,2.617,7,8,7c5.383,0,8-2.29,8-7     C24,16.797,18.809,8.64,16.003,4.702z"/>
		</g>
	</g>
</g>
</svg>
