<?xml version="1.0" encoding="utf-8"?>
<!-- Generator: Adobe Illustrator 16.0.0, SVG Export Plug-In . SVG Version: 6.00 Build 0)  -->
<!DOCTYPE svg PUBLIC "-//W3C//DTD SVG 1.1//EN" "http://www.w3.org/Graphics/SVG/1.1/DTD/svg11.dtd">
<svg xmlns="http://www.w3.org/2000/svg" xmlns:xlink="http://www.w3.org/1999/xlink" version="1.1" id="Capa_1" x="0px" y="0px" width="32px" height="32px" viewBox="0 0 32 32" enable-background="new 0 0 32 32" xml:space="preserve">
<g>
	<path d="M15,8c-4.97,0-9,4.03-9,9c0,4.97,4.03,9,9,9c4.97,0,9-4.03,9-9C24,12.03,19.97,8,15,8z M15,24c-3.86,0-7-3.14-7-7   c0-3.86,3.14-7,7-7c3.86,0,7,3.14,7,7C22,20.86,18.86,24,15,24z"/>
</g>
<g>
	<rect y="16" width="4" height="2"/>
</g>
<g>
	<rect x="26" y="16" width="4" height="2"/>
</g>
<g>
	<rect x="14" y="2" width="2" height="4"/>
</g>
<g>
	<rect x="14" y="28" width="2" height="4"/>
</g>
<g>
	<rect x="3.379" y="25.496" transform="matrix(0.7071 -0.7071 0.7071 0.7071 -17.1274 11.6508)" width="4.243" height="2.008"/>
</g>
<g>
	<rect x="22.379" y="6.496" transform="matrix(0.7071 -0.7071 0.7071 0.7071 1.8726 19.5208)" width="4.243" height="2.008"/>
</g>
<g>
	<rect x="4.496" y="5.379" transform="matrix(0.7071 -0.7071 0.7071 0.7071 -3.6924 6.0858)" width="2.008" height="4.243"/>
</g>
<g>
	<rect x="23.496" y="24.379" transform="matrix(0.7071 -0.7071 0.7071 0.7071 -11.5624 25.0858)" width="2.008" height="4.243"/>
</g>
</svg>
