<?xml version="1.0" encoding="utf-8"?>
<!-- Generator: Adobe Illustrator 16.0.0, SVG Export Plug-In . SVG Version: 6.00 Build 0)  -->
<!DOCTYPE svg PUBLIC "-//W3C//DTD SVG 1.1//EN" "http://www.w3.org/Graphics/SVG/1.1/DTD/svg11.dtd">
<svg xmlns="http://www.w3.org/2000/svg" xmlns:xlink="http://www.w3.org/1999/xlink" version="1.1" id="Capa_1" x="0px" y="0px" width="32px" height="32px" viewBox="0 0 32 32" enable-background="new 0 0 32 32" xml:space="preserve">
<g>
	<path d="M31.67,15.12l-1.62-1.18c-0.399,0.54-0.8,1.04-1.2,1.5L22.57,9.16c2.239-2.49,5.239-5.24,8.92-7.29l-0.98-1.74   c-7.99,4.44-12.83,11.82-14.07,13.85c-0.42-0.07-0.87-0.12-1.35-0.12c-1.96,0-4.77,0.81-6.96,4.64C5.08,23.85,1.48,24,1.06,24   c-0.39-0.02-0.76,0.18-0.94,0.53c-0.19,0.34-0.15,0.76,0.08,1.069c3.14,4.181,6.87,6.311,11.08,6.311c5.74,0,10.21-4,10.43-4.2   c1.88-1.89,2.72-3.91,2.48-6c0-0.04-0.011-0.08-0.021-0.12C25.64,20.9,28.79,19.07,31.67,15.12z M20.33,26.26   c-0.04,0.04-4.09,3.65-9.05,3.65c-3.09,0-5.92-1.41-8.41-4.2c1.82-0.53,4.61-2.03,7-6.21c1.38-2.42,3.13-3.64,5.22-3.64   c1.86,0,3.34,0.96,3.38,0.99c0.03,0.02,3.4,2.15,3.74,5.09C22.37,23.39,21.73,24.86,20.33,26.26z M23.59,19.64   c-1.24-2.7-3.92-4.399-4.04-4.47c-0.04-0.03-0.439-0.3-1.12-0.59c0.551-0.86,1.5-2.27,2.84-3.9l6.2,6.2   C25.91,18.34,24.47,19.2,23.59,19.64z"/>
</g>
</svg>
