<?xml version="1.0" encoding="utf-8"?>
<!-- Generator: Adobe Illustrator 16.0.0, SVG Export Plug-In . SVG Version: 6.00 Build 0)  -->
<!DOCTYPE svg PUBLIC "-//W3C//DTD SVG 1.1//EN" "http://www.w3.org/Graphics/SVG/1.1/DTD/svg11.dtd">
<svg xmlns="http://www.w3.org/2000/svg" xmlns:xlink="http://www.w3.org/1999/xlink" version="1.1" id="Capa_1" x="0px" y="0px" width="32px" height="32px" viewBox="0 0 32 32" enable-background="new 0 0 32 32" xml:space="preserve">
<g>
	<path d="M29.71,2.29c-0.28-0.28-0.8-0.61-1.64-0.61c-3.94,0-12.94,7.78-15.78,10.61c-3.18,3.19-4.35,6.08-4.77,7.51   C7.17,19.71,6.79,19.65,6.4,19.65c-0.86,0-2.11,0.3-3.2,1.75C0.04,25.62,0,30.78,0,31c0,0.55,0.45,1,1,1c0.22,0,5.38-0.04,9.6-3.2   c1.36-1.02,1.7-2.189,1.74-2.99c0.03-0.47-0.03-0.92-0.14-1.34c1.43-0.41,4.32-1.58,7.51-4.76c2.03-2.03,5.12-5.6,7.45-8.98   C30.22,6.29,31.03,3.61,29.71,2.29z M9.4,27.2c-2.61,1.95-5.72,2.54-7.33,2.72c0.18-1.6,0.77-4.7,2.73-7.32   c0.48-0.64,1-0.949,1.6-0.949c0.94,0,1.94,0.729,2.44,1.189l0.44,0.44c0.45,0.52,1.12,1.51,1.07,2.42   C10.32,26.25,10.01,26.75,9.4,27.2z M11.45,22.61L9.39,20.55c0.17-0.689,0.65-2.109,1.85-3.89l4.09,4.09   C13.56,21.94,12.14,22.43,11.45,22.61z M18.29,18.29c-0.46,0.46-0.91,0.87-1.35,1.229l-4.47-4.47c0.37-0.43,0.78-0.88,1.24-1.34   c3.99-4,11.75-10.03,14.36-10.03c0.18,0,0.22,0.02,0.22,0.02C29.04,4.88,24.14,12.44,18.29,18.29z"/>
</g>
</svg>
