<?xml version="1.0" encoding="utf-8"?>
<!-- Generator: Adobe Illustrator 16.0.0, SVG Export Plug-In . SVG Version: 6.00 Build 0)  -->
<!DOCTYPE svg PUBLIC "-//W3C//DTD SVG 1.1//EN" "http://www.w3.org/Graphics/SVG/1.1/DTD/svg11.dtd">
<svg xmlns="http://www.w3.org/2000/svg" xmlns:xlink="http://www.w3.org/1999/xlink" version="1.1" id="Capa_1" x="0px" y="0px" width="32px" height="32px" viewBox="0 0 32 32" enable-background="new 0 0 32 32" xml:space="preserve">
<g>
	<path d="M29.21,2.13c-0.19-0.19-1.85-1.79-3.84-1.79c-0.95,0-1.82,0.37-2.53,1.08c-1.18,1.18-4.39,6.08-5.83,8.31l-4.07-4.07   L0.92,17.68C0.07,18.53-0.2,19.59,0.15,20.65c0.24,0.72,0.69,1.189,0.77,1.27l9.19,9.2c0.77,0.76,1.55,0.92,2.07,0.92   c1.22,0,2.08-0.83,2.18-0.92L26.38,19.1l-4.78-4.78c2.24-1.44,7.131-4.65,8.311-5.83C32.15,6.25,30.43,3.35,29.21,2.13z    M12.94,29.7c-0.05,0.06-0.41,0.34-0.76,0.34c-0.08,0-0.32,0-0.65-0.34l-1.9-1.9l2.08-2.09c0.39-0.39,0.39-1.03,0-1.42   s-1.03-0.39-1.42,0l-2.08,2.09L5.63,23.8l2.08-2.09c0.39-0.39,0.39-1.03,0-1.42s-1.03-0.39-1.42,0l-2.08,2.09l-1.87-1.87   c-0.01,0-0.2-0.22-0.29-0.49C1.97,19.78,1.94,19.49,2.34,19.1l6.67-6.669l10.601,10.6L12.94,29.7z M23.55,19.1l-2.52,2.511   L10.43,11.01l2.51-2.52L23.55,19.1z M28.5,7.08c-1,0.99-5.86,4.19-8.35,5.79l-1.69-1.69c1.6-2.49,4.8-7.35,5.8-8.35   c0.33-0.34,0.69-0.49,1.11-0.49c0.99,0,2.08,0.87,2.42,1.2C27.88,3.62,29.88,5.69,28.5,7.08z"/>
</g>
</svg>
