<?xml version="1.0" encoding="utf-8"?>
<!-- Generator: Adobe Illustrator 16.0.0, SVG Export Plug-In . SVG Version: 6.00 Build 0)  -->
<!DOCTYPE svg PUBLIC "-//W3C//DTD SVG 1.1//EN" "http://www.w3.org/Graphics/SVG/1.1/DTD/svg11.dtd">
<svg xmlns="http://www.w3.org/2000/svg" xmlns:xlink="http://www.w3.org/1999/xlink" version="1.1" id="Capa_1" x="0px" y="0px" width="32px" height="32px" viewBox="0 0 32 32" enable-background="new 0 0 32 32" xml:space="preserve">
<g>
	<g>
		<path d="M29.71,2.29C29.311,1.9,28.73,1.7,27.96,1.7c-3.271,0-10.83,3.75-15.67,8.59C9,13.58,7.7,17.68,7.24,19.67    c-0.4-0.12-0.85-0.199-1.32-0.199c-1.24,0-2.4,0.521-3.43,1.549c-3.13,3.131-2.44,9.73-2.41,10.012c0.06,0.47,0.42,0.83,0.89,0.89    C1,31.92,1.74,32,2.83,32c2.58,0,6.09-0.43,8.15-2.49c1.37-1.38,1.85-3.05,1.35-4.74c1.99-0.47,6.08-1.77,9.38-5.06    C26.96,14.46,31.98,4.56,29.71,2.29z M9.56,28.09C7.9,29.75,4.63,30,2.83,30c-0.3,0-0.58-0.01-0.81-0.02    c-0.07-1.711-0.01-5.65,1.89-7.541c0.65-0.649,1.3-0.971,2.01-0.971c1.23,0,2.22,0.961,2.23,0.971l1.41,1.41    C9.91,24.21,11.56,26.1,9.56,28.09z M11.38,22.91c-0.2-0.271-0.36-0.43-0.4-0.471l-1.42-1.42C9.54,21,9.37,20.83,9.08,20.609    c0.21-1.021,0.81-3.399,2.27-5.839l5.88,5.88C14.77,22.109,12.39,22.71,11.38,22.91z M18.92,19.5l-6.42-6.42    c0.36-0.47,0.77-0.93,1.21-1.37C18.52,6.89,25.471,3.7,27.96,3.7c0.16,0,0.261,0.02,0.319,0.03c0.461,1.44-2.549,9.13-7.989,14.56    C19.85,18.73,19.391,19.13,18.92,19.5z"/>
	</g>
</g>
</svg>
