<?xml version="1.0" encoding="utf-8"?>
<!-- Generator: Adobe Illustrator 16.0.0, SVG Export Plug-In . SVG Version: 6.00 Build 0)  -->
<!DOCTYPE svg PUBLIC "-//W3C//DTD SVG 1.1//EN" "http://www.w3.org/Graphics/SVG/1.1/DTD/svg11.dtd">
<svg xmlns="http://www.w3.org/2000/svg" xmlns:xlink="http://www.w3.org/1999/xlink" version="1.1" id="Capa_1" x="0px" y="0px" width="32px" height="32px" viewBox="0 0 32 32" enable-background="new 0 0 32 32" xml:space="preserve">
<g>
	<path d="M22.45,20.84C24.63,18.64,26,15.5,26,12c0-6.63-4.92-12-11-12S4,5.37,4,12c0,3.5,1.37,6.64,3.55,8.84   C5.77,22.29,2,25.95,2,31v1h2v-1c0-3.52,2.35-6.34,3.99-7.88l0.06,0.2C8.14,23.59,10.33,30,15,30s6.86-6.41,6.95-6.68l0.06-0.2   C23.65,24.66,26,27.48,26,31v1h2v-1C28,25.95,24.23,22.29,22.45,20.84z M20.05,22.68C20.03,22.74,18.19,28,15,28   c-2.68,0-4.55-3.84-5.05-5.32l-0.01-0.02C11.45,23.52,13.18,24,15,24s3.55-0.48,5.06-1.34L20.05,22.68z M15,22c-4.96,0-9-4.49-9-10   s4.04-10,9-10s9,4.49,9,10S19.96,22,15,22z"/>
	<path d="M22,10c0,1.1-0.9,2-2,2s-2-0.9-2-2s0.9-2,2-2S22,8.9,22,10z"/>
	<path d="M12,10c0,1.1-0.9,2-2,2s-2-0.9-2-2s0.9-2,2-2S12,8.9,12,10z"/>
	<rect x="14" y="10" width="2" height="6"/>
	<path d="M19.89,17.45C19.84,17.55,18.58,20,15,20s-4.84-2.45-4.89-2.55c-0.25-0.5-0.05-1.1,0.44-1.34   c0.49-0.25,1.09-0.05,1.34,0.43C11.93,16.62,12.72,18,15,18c2.3,0,3.08-1.4,3.11-1.46c0.26-0.48,0.859-0.67,1.35-0.42   C19.94,16.37,20.14,16.96,19.89,17.45z"/>
</g>
</svg>
