<?xml version="1.0" encoding="utf-8"?>
<!-- Generator: Adobe Illustrator 16.0.0, SVG Export Plug-In . SVG Version: 6.00 Build 0)  -->
<!DOCTYPE svg PUBLIC "-//W3C//DTD SVG 1.1//EN" "http://www.w3.org/Graphics/SVG/1.1/DTD/svg11.dtd">
<svg xmlns="http://www.w3.org/2000/svg" xmlns:xlink="http://www.w3.org/1999/xlink" version="1.1" id="Capa_1" x="0px" y="0px" width="32px" height="32px" viewBox="0 0 32 32" enable-background="new 0 0 32 32" xml:space="preserve">
<g>
	<path d="M15,2C6.72,2,0,8.72,0,17c0,8.28,6.72,15,15,15c8.28,0,15-6.72,15-15C30,8.72,23.28,2,15,2z M27.96,16H19.9   c-0.131-0.64-0.381-1.23-0.721-1.76l5.69-5.69C26.62,10.59,27.75,13.17,27.96,16z M16,4.05c2.83,0.2,5.41,1.33,7.45,3.08   l-5.69,5.69c-0.529-0.34-1.12-0.59-1.76-0.72V4.05z M14,4.05v8.05c-0.64,0.13-1.23,0.38-1.76,0.72L6.55,7.13   C8.59,5.38,11.17,4.25,14,4.05z M5.13,8.55l5.69,5.69c-0.34,0.53-0.59,1.12-0.72,1.76H2.05C2.25,13.17,3.38,10.59,5.13,8.55z    M2.05,18h8.05c0.13,0.64,0.38,1.23,0.72,1.76l-5.69,5.69C3.38,23.41,2.25,20.83,2.05,18z M14,29.96   c-2.83-0.21-5.41-1.34-7.45-3.09l5.69-5.69c0.53,0.34,1.12,0.59,1.76,0.721V29.96z M12,17c0-1.65,1.35-3,3-3s3,1.35,3,3   c0,1.65-1.35,3-3,3S12,18.65,12,17z M16,29.96V21.9c0.64-0.131,1.23-0.381,1.76-0.721l5.69,5.69C21.41,28.62,18.83,29.75,16,29.96z    M24.87,25.45l-5.69-5.69c0.34-0.529,0.59-1.12,0.721-1.76h8.06C27.75,20.83,26.62,23.41,24.87,25.45z"/>
</g>
</svg>
