<?xml version="1.0" encoding="utf-8"?>
<!-- Generator: Adobe Illustrator 16.0.0, SVG Export Plug-In . SVG Version: 6.00 Build 0)  -->
<!DOCTYPE svg PUBLIC "-//W3C//DTD SVG 1.1//EN" "http://www.w3.org/Graphics/SVG/1.1/DTD/svg11.dtd">
<svg xmlns="http://www.w3.org/2000/svg" xmlns:xlink="http://www.w3.org/1999/xlink" version="1.1" id="Capa_1" x="0px" y="0px" width="32px" height="32px" viewBox="0 0 32 32" enable-background="new 0 0 32 32" xml:space="preserve">
<g>
	<path d="M26,7.42l5.71-5.71l-1.42-1.42L24.58,6H12V2H4v4H0v8h4v14h14v4h8v-4h4v-8h-4V7.42z M6,4h4v2H6V4z M18,26H7.42l4-4H18V26z    M6,24.58V14h4v6.58L6,24.58z M18,20h-4.58L18,15.42V20z M12,18.58V14h4.58L12,18.58z M2,12V8h20.58l-4,4H2z M24,30h-4V13.42l4-4   V30z M28,22v4h-2v-4H28z"/>
</g>
</svg>
