<?xml version="1.0" encoding="utf-8"?>
<!-- Generator: Adobe Illustrator 16.0.0, SVG Export Plug-In . SVG Version: 6.00 Build 0)  -->
<!DOCTYPE svg PUBLIC "-//W3C//DTD SVG 1.1//EN" "http://www.w3.org/Graphics/SVG/1.1/DTD/svg11.dtd">
<svg xmlns="http://www.w3.org/2000/svg" xmlns:xlink="http://www.w3.org/1999/xlink" version="1.1" id="Capa_1" x="0px" y="0px" width="32px" height="32px" viewBox="0 0 32 32" enable-background="new 0 0 32 32" xml:space="preserve">
<g>
	<g>
		<path stroke="#DD19D3" stroke-width="2" stroke-linejoin="round" stroke-miterlimit="10" d="M29,1"/>
	</g>
	<g>
		<path stroke="#DD19D3" stroke-width="2" stroke-linejoin="round" stroke-miterlimit="10" d="M31,11"/>
	</g>
	<g>
		<path d="M30.29,10.29L21,19.58L16.42,15L29.71,1.71l-1.42-1.42l-28,28c-0.31,0.32-0.38,0.81-0.16,1.2C0.31,29.81,0.65,30,1,30    c0.08,0,0.16-0.01,0.24-0.03l16-4c0.18-0.04,0.34-0.14,0.47-0.26l14-14L30.29,10.29z M16.49,24.1L4.26,27.15L15,16.42L19.58,21    L16.49,24.1z"/>
	</g>
</g>
</svg>
