<?xml version="1.0" encoding="utf-8"?>
<!-- Generator: Adobe Illustrator 16.0.0, SVG Export Plug-In . SVG Version: 6.00 Build 0)  -->
<!DOCTYPE svg PUBLIC "-//W3C//DTD SVG 1.1//EN" "http://www.w3.org/Graphics/SVG/1.1/DTD/svg11.dtd">
<svg xmlns="http://www.w3.org/2000/svg" xmlns:xlink="http://www.w3.org/1999/xlink" version="1.1" id="Capa_1" x="0px" y="0px" width="32px" height="32px" viewBox="0 0 32 32" enable-background="new 0 0 32 32" xml:space="preserve">
<g>
	<path d="M31.71,6.29l-4-4c-0.39-0.39-1.03-0.39-1.42,0l-26,26c-0.31,0.31-0.38,0.79-0.17,1.18C0.29,29.8,0.64,30,1,30   c0.06,0,0.13-0.01,0.2-0.02l10-2c0.19-0.04,0.37-0.131,0.51-0.271l20-20C32.1,7.32,32.1,6.68,31.71,6.29z M12.29,24.29l-1.78,1.79   l-6.47,1.29l5.67-5.66L10,21.42L12.58,24L12.29,24.29z M14,22.58L11.42,20L16,15.42L18.58,18L14,22.58z M20,16.58L17.42,14L27,4.41   L29.59,7L20,16.58z"/>
</g>
</svg>
