<?xml version="1.0" encoding="utf-8"?>
<!-- Generator: Adobe Illustrator 16.0.0, SVG Export Plug-In . SVG Version: 6.00 Build 0)  -->
<!DOCTYPE svg PUBLIC "-//W3C//DTD SVG 1.1//EN" "http://www.w3.org/Graphics/SVG/1.1/DTD/svg11.dtd">
<svg xmlns="http://www.w3.org/2000/svg" xmlns:xlink="http://www.w3.org/1999/xlink" version="1.1" id="Capa_1" x="0px" y="0px" width="32px" height="32px" viewBox="0 0 32 32" enable-background="new 0 0 32 32" xml:space="preserve">
<g>
	<path d="M31.71,30.29L19.46,18.04C21.04,16.13,22,13.68,22,11c0-6.08-4.92-11-11-11S0,4.92,0,11s4.92,11,11,11   c2.68,0,5.13-0.96,7.04-2.54l12.25,12.25C30.49,31.9,30.74,32,31,32s0.51-0.1,0.71-0.29C32.1,31.32,32.1,30.68,31.71,30.29z M11,20   c-4.96,0-9-4.04-9-9s4.04-9,9-9s9,4.04,9,9S15.96,20,11,20z"/>
</g>
</svg>
