<?xml version="1.0" encoding="utf-8"?>
<!-- Generator: Adobe Illustrator 16.0.0, SVG Export Plug-In . SVG Version: 6.00 Build 0)  -->
<!DOCTYPE svg PUBLIC "-//W3C//DTD SVG 1.1//EN" "http://www.w3.org/Graphics/SVG/1.1/DTD/svg11.dtd">
<svg xmlns="http://www.w3.org/2000/svg" xmlns:xlink="http://www.w3.org/1999/xlink" version="1.1" id="Capa_1" x="0px" y="0px" width="32px" height="32px" viewBox="0 0 32 32" enable-background="new 0 0 32 32" xml:space="preserve">
<g>
	<g>
		<path d="M29.83,4.45C29.65,4.17,29.33,4,29,4H13c-0.4,0-0.77,0.24-0.92,0.62l-10,24c-0.13,0.3-0.1,0.66,0.09,0.93    C2.35,29.83,2.67,30,3,30h16c0.4,0,0.77-0.24,0.92-0.62l10-24C30.05,5.08,30.02,4.72,29.83,4.45z M18.33,28H4.5l4.17-10H22.5    L18.33,28z M23.33,16H9.5l4.17-10H27.5L23.33,16z"/>
	</g>
</g>
</svg>
