<?xml version="1.0" encoding="utf-8"?>
<!-- Generator: Adobe Illustrator 16.0.0, SVG Export Plug-In . SVG Version: 6.00 Build 0)  -->
<!DOCTYPE svg PUBLIC "-//W3C//DTD SVG 1.1//EN" "http://www.w3.org/Graphics/SVG/1.1/DTD/svg11.dtd">
<svg xmlns="http://www.w3.org/2000/svg" xmlns:xlink="http://www.w3.org/1999/xlink" version="1.1" id="Capa_1" x="0px" y="0px" width="32px" height="32px" viewBox="0 0 32 32" enable-background="new 0 0 32 32" xml:space="preserve">
<g>
	<path d="M23.71,12.29l-10-10c-0.39-0.39-1.03-0.39-1.42,0L10,4.58L8.71,3.29c-1.09-1.08-3.43-1.98-5.42,0   c-1.98,1.99-1.09,4.33,0,5.42L4.58,10l-2.29,2.29c-0.39,0.39-0.39,1.03,0,1.42l10,10C12.49,23.9,12.74,24,13,24s0.51-0.1,0.71-0.29   l10-10C24.1,13.32,24.1,12.68,23.71,12.29z M4.71,4.71c1.18-1.18,2.28-0.3,2.58,0L8.58,6L6,8.59L4.71,7.3   C4.41,6.99,3.53,5.89,4.71,4.71z M13,21.59L4.41,13L10,7.42l8.59,8.59L13,21.59z M20.01,14.59L11.42,6L13,4.41L21.59,13   L20.01,14.59z"/>
</g>
<g>
	<path d="M25.71,16.29c-0.39-0.39-1.03-0.39-1.42,0C24.12,16.47,20,20.641,20,25c0,3.96,3.27,5,5,5s5-1.04,5-5   C30,20.641,25.88,16.47,25.71,16.29z M25,28c-0.51-0.01-3-0.189-3-3c0-2.561,1.92-5.221,3-6.5c1.08,1.279,3,3.93,3,6.5   C28,27.811,25.51,27.99,25,28z"/>
</g>
</svg>
