<?xml version="1.0" encoding="utf-8"?>
<!-- Generator: Adobe Illustrator 16.0.0, SVG Export Plug-In . SVG Version: 6.00 Build 0)  -->
<!DOCTYPE svg PUBLIC "-//W3C//DTD SVG 1.1//EN" "http://www.w3.org/Graphics/SVG/1.1/DTD/svg11.dtd">
<svg xmlns="http://www.w3.org/2000/svg" xmlns:xlink="http://www.w3.org/1999/xlink" version="1.1" id="Capa_1" x="0px" y="0px" width="32px" height="32px" viewBox="0 0 32 32" enable-background="new 0 0 32 32" xml:space="preserve">
<g>
	<g>
		<path d="M31.561,6.17c-0.271-0.19-0.631-0.22-0.931-0.1L20.811,10H3c-1.21,0-3,0.8-3,3v8c0,1.21,0.8,3,3,3h17.811l9.819,3.93    C30.75,27.98,30.87,28,31,28c0.2,0,0.391-0.061,0.561-0.17C31.83,27.641,32,27.33,32,27V7C32,6.67,31.83,6.36,31.561,6.17z M20,22    H3c-0.81,0-0.99-0.55-1-1v-8c0-0.81,0.55-0.99,1-1h17V22z M30,25.52l-8-3.199V11.68l8-3.2V25.52z"/>
	</g>
	<g>
		<rect x="6" y="16" width="6" height="2"/>
	</g>
	<g>
		<rect x="14" y="16" width="2" height="2"/>
	</g>
</g>
</svg>
