<?xml version="1.0" encoding="utf-8"?>
<!-- Generator: Adobe Illustrator 16.0.0, SVG Export Plug-In . SVG Version: 6.00 Build 0)  -->
<!DOCTYPE svg PUBLIC "-//W3C//DTD SVG 1.1//EN" "http://www.w3.org/Graphics/SVG/1.1/DTD/svg11.dtd">
<svg xmlns="http://www.w3.org/2000/svg" xmlns:xlink="http://www.w3.org/1999/xlink" version="1.1" id="Capa_1" x="0px" y="0px" width="32px" height="32px" viewBox="0 0 32 32" enable-background="new 0 0 32 32" xml:space="preserve">
<g>
	<path d="M30.4,10.2l-7.261,5.45l-6.81-7.66l5.43-6.34l-1.52-1.3l-5.89,6.87L2.5,14.14c-0.27,0.15-0.45,0.43-0.49,0.74l-2,16   c-0.04,0.3,0.06,0.61,0.28,0.83C0.48,31.9,0.74,32,1,32c0.04,0,0.08,0,0.12-0.01l16-2c0.34-0.04,0.63-0.24,0.77-0.54l5.9-11.79   l7.81-5.86L30.4,10.2z M16.34,28.07L3.77,29.65l9.94-9.94l-1.42-1.42l-9.94,9.94L3.93,15.61l10.86-6.34l7.01,7.89L16.34,28.07z"/>
</g>
</svg>
