<?xml version="1.0" encoding="utf-8"?>
<!-- Generator: Adobe Illustrator 16.0.0, SVG Export Plug-In . SVG Version: 6.00 Build 0)  -->
<!DOCTYPE svg PUBLIC "-//W3C//DTD SVG 1.1//EN" "http://www.w3.org/Graphics/SVG/1.1/DTD/svg11.dtd">
<svg xmlns="http://www.w3.org/2000/svg" xmlns:xlink="http://www.w3.org/1999/xlink" version="1.1" id="Capa_1" x="0px" y="0px" width="32px" height="32px" viewBox="0 0 32 32" enable-background="new 0 0 32 32" xml:space="preserve">
<g>
	<path d="M29.71,2.29c-0.28-0.28-0.8-0.61-1.64-0.61c-3.94,0-12.94,7.78-15.78,10.61c-2.67,2.68-3.93,5.16-4.5,6.72L1.55,22.11   c-0.3,0.14-0.5,0.43-0.54,0.77l-1,8c-0.04,0.3,0.06,0.61,0.28,0.83C0.48,31.9,0.74,32,1,32c0.04,0,0.08,0,0.12-0.01l8-1   c0.34-0.04,0.63-0.24,0.77-0.54l3.09-6.23c1.56-0.569,4.04-1.83,6.73-4.51c2.03-2.03,5.12-5.6,7.45-8.98   C30.22,6.29,31.03,3.61,29.71,2.29z M8.34,29.07l-4.57,0.58l2.94-2.94l-1.42-1.42l-2.94,2.94l0.58-4.57l4.52-2.271l3.16,3.16   L8.34,29.07z M11.55,22.58c-0.03,0.01-0.07,0.02-0.1,0.03L9.39,20.55c0.01-0.04,0.02-0.09,0.04-0.14c0.19-0.73,0.69-2.08,1.81-3.75   l4.09,4.09C13.64,21.89,12.27,22.38,11.55,22.58z M18.29,18.29c-0.46,0.46-0.91,0.87-1.35,1.229l-4.47-4.47   c0.37-0.43,0.78-0.88,1.24-1.34c3.99-4,11.75-10.03,14.36-10.03c0.18,0,0.22,0.02,0.22,0.02C29.04,4.88,24.14,12.44,18.29,18.29z"/>
</g>
</svg>
