<?xml version="1.0" encoding="utf-8"?>
<!-- Generator: Adobe Illustrator 16.0.0, SVG Export Plug-In . SVG Version: 6.00 Build 0)  -->
<!DOCTYPE svg PUBLIC "-//W3C//DTD SVG 1.1//EN" "http://www.w3.org/Graphics/SVG/1.1/DTD/svg11.dtd">
<svg xmlns="http://www.w3.org/2000/svg" xmlns:xlink="http://www.w3.org/1999/xlink" version="1.1" id="Capa_1" x="0px" y="0px" width="32px" height="32px" viewBox="0 0 32 32" enable-background="new 0 0 32 32" xml:space="preserve">
<g>
	<path d="M30,17c0-1.31-0.83-2.42-2-2.82V9.82c1.17-0.4,2-1.51,2-2.82c0-1.66-1.34-3-3-3c-1.31,0-2.42,0.83-2.82,2H17.82   c-0.4-1.17-1.51-2-2.82-2s-2.42,0.83-2.82,2H5.82C5.42,4.83,4.31,4,3,4C1.34,4,0,5.34,0,7c0,1.31,0.83,2.42,2,2.82v4.36   c-1.17,0.4-2,1.51-2,2.82c0,1.31,0.83,2.42,2,2.82v4.359C0.83,24.58,0,25.69,0,27c0,1.66,1.34,3,3,3c1.31,0,2.42-0.83,2.82-2h6.36   c0.4,1.17,1.51,2,2.82,2s2.42-0.83,2.82-2h6.359c0.4,1.17,1.511,2,2.82,2c1.66,0,3-1.34,3-3c0-1.31-0.83-2.42-2-2.82V19.82   C29.17,19.42,30,18.31,30,17z M27,6c0.55,0,1,0.45,1,1s-0.45,1-1,1s-1-0.45-1-1S26.45,6,27,6z M15,6c0.55,0,1,0.45,1,1s-0.45,1-1,1   s-1-0.45-1-1S14.45,6,15,6z M3,6c0.55,0,1,0.45,1,1S3.55,8,3,8S2,7.55,2,7S2.45,6,3,6z M3,16c0.55,0,1,0.45,1,1s-0.45,1-1,1   s-1-0.45-1-1S2.45,16,3,16z M3,28c-0.55,0-1-0.45-1-1s0.45-1,1-1s1,0.45,1,1S3.55,28,3,28z M15,28c-0.55,0-1-0.45-1-1s0.45-1,1-1   s1,0.45,1,1S15.55,28,15,28z M24.18,26H17.82c-0.4-1.17-1.51-2-2.82-2s-2.42,0.83-2.82,2H5.82C5.53,25.15,4.85,24.47,4,24.18V19.82   c1.17-0.4,2-1.511,2-2.82c0-1.31-0.83-2.42-2-2.82V9.82C4.85,9.53,5.53,8.85,5.82,8h6.36c0.4,1.17,1.51,2,2.82,2s2.42-0.83,2.82-2   h6.359C24.47,8.85,25.15,9.53,26,9.82v4.36c-1.17,0.4-2,1.51-2,2.82c0,1.31,0.83,2.42,2,2.82v4.359   C25.15,24.47,24.47,25.15,24.18,26z M27,28c-0.55,0-1-0.45-1-1s0.45-1,1-1s1,0.45,1,1S27.55,28,27,28z M27,18c-0.55,0-1-0.45-1-1   s0.45-1,1-1s1,0.45,1,1S27.55,18,27,18z"/>
</g>
</svg>
