<?xml version="1.0" encoding="utf-8"?>
<!-- Generator: Adobe Illustrator 16.0.0, SVG Export Plug-In . SVG Version: 6.00 Build 0)  -->
<!DOCTYPE svg PUBLIC "-//W3C//DTD SVG 1.1//EN" "http://www.w3.org/Graphics/SVG/1.1/DTD/svg11.dtd">
<svg xmlns="http://www.w3.org/2000/svg" xmlns:xlink="http://www.w3.org/1999/xlink" version="1.1" id="Capa_1" x="0px" y="0px" width="32px" height="32px" viewBox="0 0 32 32" enable-background="new 0 0 32 32" xml:space="preserve">
<g>
	<path d="M0,8v22h28V8H0z M26,28H2v-4.47l5-3.33l6.03,4.02l8-6L26,21.53V28z M26,19.14l-5.03-3.36l-8,6L7,17.8l-5,3.34V10h24V19.14z   "/>
</g>
<g>
	<path d="M10,14c0,1.1-0.9,2-2,2s-2-0.9-2-2s0.9-2,2-2S10,12.9,10,14z"/>
</g>
<g>
	<polygon points="32,4 32,26 30,26 30,6 4,6 4,4  "/>
</g>
</svg>
