<?xml version="1.0" encoding="utf-8"?>
<!-- Generator: Adobe Illustrator 16.0.0, SVG Export Plug-In . SVG Version: 6.00 Build 0)  -->
<!DOCTYPE svg PUBLIC "-//W3C//DTD SVG 1.1//EN" "http://www.w3.org/Graphics/SVG/1.1/DTD/svg11.dtd">
<svg xmlns="http://www.w3.org/2000/svg" xmlns:xlink="http://www.w3.org/1999/xlink" version="1.1" id="Capa_1" x="0px" y="0px" width="32px" height="32px" viewBox="0 0 32 32" enable-background="new 0 0 32 32" xml:space="preserve">
<g>
	<path d="M0,2v30h30V2H0z M2,4h3L2,7V4z M2,9.83L7.83,4H11l-9,9V9.83z M2,30v-3l3,3H2z M7.83,30L2,24.17V21l9,9H7.83z M28,30h-3l3-3   V30z M28,24.17L22.17,30H19l9-9V24.17z M28,18.17L16.17,30h-2.34L2,18.17v-2.34L13.83,4h2.34L28,15.83V18.17z M28,13l-9-9h3.17   L28,9.83V13z M28,7l-3-3h3V7z"/>
</g>
<path d="M15,6L4,17l11,11l11-11L15,6z M6.83,17L15,8.83L23.17,17L15,25.17L6.83,17z"/>
<path d="M15,12l-5,5l5,5l5-5L15,12z M12.83,17L15,14.83L17.17,17L15,19.17L12.83,17z"/>
</svg>
