<?xml version="1.0" encoding="utf-8"?>
<!-- Generator: Adobe Illustrator 16.0.0, SVG Export Plug-In . SVG Version: 6.00 Build 0)  -->
<!DOCTYPE svg PUBLIC "-//W3C//DTD SVG 1.1//EN" "http://www.w3.org/Graphics/SVG/1.1/DTD/svg11.dtd">
<svg xmlns="http://www.w3.org/2000/svg" xmlns:xlink="http://www.w3.org/1999/xlink" version="1.1" id="Capa_1" x="0px" y="0px" width="32px" height="32px" viewBox="0 0 32 32" enable-background="new 0 0 32 32" xml:space="preserve">
<path d="M0,2v30h30V2H0z M2,4h5.52C5.23,5.32,3.32,7.23,2,9.52V4z M2,30v-5.52C3.32,26.77,5.23,28.68,7.52,30H2z M28,30h-5.52  c2.289-1.32,4.199-3.23,5.52-5.52V30z M15,30C7.83,30,2,24.17,2,17S7.83,4,15,4s13,5.83,13,13S22.17,30,15,30z M28,9.52  c-1.32-2.29-3.23-4.2-5.52-5.52H28V9.52z"/>
<path d="M15,6C8.92,6,4,10.92,4,17s4.92,11,11,11s11-4.92,11-11S21.08,6,15,6z M15,26c-4.96,0-9-4.04-9-9s4.04-9,9-9s9,4.04,9,9  S19.96,26,15,26z"/>
<path d="M15,10c-3.87,0-7,3.13-7,7s3.13,7,7,7s7-3.13,7-7S18.87,10,15,10z M15,22c-2.76,0-5-2.24-5-5s2.24-5,5-5s5,2.24,5,5  S17.76,22,15,22z"/>
<path d="M15,16c0.551,0,1,0.449,1,1c0,0.552-0.449,1-1,1s-1-0.448-1-1C14,16.449,14.449,16,15,16 M15,14c-1.66,0-3,1.34-3,3  s1.34,3,3,3s3-1.34,3-3S16.66,14,15,14L15,14z"/>
</svg>
