<?xml version="1.0" encoding="utf-8"?>
<!-- Generator: Adobe Illustrator 16.0.0, SVG Export Plug-In . SVG Version: 6.00 Build 0)  -->
<!DOCTYPE svg PUBLIC "-//W3C//DTD SVG 1.1//EN" "http://www.w3.org/Graphics/SVG/1.1/DTD/svg11.dtd">
<svg xmlns="http://www.w3.org/2000/svg" xmlns:xlink="http://www.w3.org/1999/xlink" version="1.1" id="Capa_1" x="0px" y="0px" width="32px" height="32px" viewBox="0 0 32 32" enable-background="new 0 0 32 32" xml:space="preserve">
<g>
	<path fill="none" stroke="#000000" stroke-width="2" stroke-miterlimit="10" d="M14,29"/>
</g>
<g>
	<g>
		<path d="M25,9c-0.39,0-0.77,0.08-1.11,0.22C23.55,7.94,22.38,7,21,7c-0.39,0-0.77,0.08-1.11,0.22C19.55,5.94,18.38,5,17,5    s-2.55,0.94-2.89,2.22C13.77,7.08,13.39,7,13,7c-1.65,0-3,1.35-3,3v4c-1.61,0-4,1.07-4,4c0,3.9,0,12,8,12h11c2.2,0,3-1.79,3-3V12    C28,10.35,26.65,9,25,9z M26,26.99C25.99,27.45,25.81,28,25,28H14c-5.54,0-6-4.94-6-10c0-1.82,1.52-1.99,2-2v3c0,0,0,1,1,1    s1-1,1-1v-9c0-0.55,0.45-1,1-1s1,0.45,1,1v3c0,0,0,1,1,1s1-1,1-1V8c0-0.55,0.45-1,1-1s1,0.45,1,1v5c0,0,0,1,1,1s1-1,1-1v-3    c0-0.55,0.45-1,1-1s1,0.45,1,1v3c0,0,0,1,1,1s1-1,1-1v-1c0-0.55,0.45-1,1-1s1,0.45,1,1V26.99z"/>
	</g>
</g>
</svg>
