<?xml version="1.0" encoding="utf-8"?>
<!-- Generator: Adobe Illustrator 16.0.0, SVG Export Plug-In . SVG Version: 6.00 Build 0)  -->
<!DOCTYPE svg PUBLIC "-//W3C//DTD SVG 1.1//EN" "http://www.w3.org/Graphics/SVG/1.1/DTD/svg11.dtd">
<svg xmlns="http://www.w3.org/2000/svg" xmlns:xlink="http://www.w3.org/1999/xlink" version="1.1" id="Capa_1" x="0px" y="0px" width="32px" height="32px" viewBox="0 0 32 32" enable-background="new 0 0 32 32" xml:space="preserve">
<g>
	<g>
		<polygon points="14,26 2,26 2,2 26,2 26,14 24,14 24,4 4,4 4,24 14,24   "/>
	</g>
	<g>
		<polygon points="29.71,28.29 28.29,29.71 18,19.42 18,26 16,26 16,16 26,16 26,18 19.42,18   "/>
	</g>
	<path d="M14,6c-4.42,0-8,3.58-8,8s3.58,8,8,8v-2c-3.311,0-6-2.69-6-6c0-3.31,2.689-6,6-6c3.31,0,6,2.69,6,6h2C22,9.58,18.42,6,14,6   z"/>
</g>
</svg>
