<?xml version="1.0" encoding="utf-8"?>
<!-- Generator: Adobe Illustrator 16.0.0, SVG Export Plug-In . SVG Version: 6.00 Build 0)  -->
<!DOCTYPE svg PUBLIC "-//W3C//DTD SVG 1.1//EN" "http://www.w3.org/Graphics/SVG/1.1/DTD/svg11.dtd">
<svg xmlns="http://www.w3.org/2000/svg" xmlns:xlink="http://www.w3.org/1999/xlink" version="1.1" id="Capa_1" x="0px" y="0px" width="32px" height="32px" viewBox="0 0 32 32" enable-background="new 0 0 32 32" xml:space="preserve">
<path d="M16,0C7.16,0,0,4.03,0,9c0,3.09,2.77,5.81,6.98,7.43c-0.05,0.19-0.08,0.39-0.09,0.6c-0.09,1.81,1.08,3.739,3.47,5.739  c1.35,1.131,1.98,2.24,1.86,3.311c-0.22,1.9-2.72,3.55-3.67,4.03l0.9,1.779c0.17-0.08,4.36-2.21,4.75-5.58  c0.21-1.779-0.65-3.489-2.56-5.079c-2.33-1.94-2.78-3.28-2.75-4.07c0-0.03,0-0.07,0.01-0.101C11.04,17.66,13.45,18,16,18  c8.84,0,16-4.03,16-9S24.84,0,16,0z M16,16c-2.61,0-4.98-0.37-6.99-0.99C4.68,13.7,2,11.26,2,9c0-3.31,5.75-7,14-7s14,3.69,14,7  S24.25,16,16,16z"/>
</svg>
