<?xml version="1.0" encoding="utf-8"?>
<!-- Generator: Adobe Illustrator 16.0.0, SVG Export Plug-In . SVG Version: 6.00 Build 0)  -->
<!DOCTYPE svg PUBLIC "-//W3C//DTD SVG 1.1//EN" "http://www.w3.org/Graphics/SVG/1.1/DTD/svg11.dtd">
<svg xmlns="http://www.w3.org/2000/svg" xmlns:xlink="http://www.w3.org/1999/xlink" version="1.1" id="Capa_1" x="0px" y="0px" width="32px" height="32px" viewBox="0 0 32 32" enable-background="new 0 0 32 32" xml:space="preserve">
<g>
	<path d="M32,4c0-2.21-1.79-4-4-4s-4,1.79-4,4c0,0.05,0,0.1,0.01,0.15c-3.35-1-9.82-1.75-15.72,4.14   C2.4,14.18,3.13,20.61,4.14,24.01C4.09,24,4.05,24,4,24c-2.21,0-4,1.79-4,4s1.79,4,4,4s4-1.79,4-4c0-0.05,0-0.1-0.01-0.15   c1.22,0.37,2.82,0.7,4.65,0.7c3.28,0,7.28-1.06,11.07-4.84c5.91-5.91,5.11-12.44,4.15-15.72C27.91,8,27.95,8,28,8   C30.21,8,32,6.21,32,4z M4,30c-1.1,0-2-0.9-2-2s0.9-2,2-2s2,0.9,2,2S5.1,30,4,30z M6.33,24.25c-0.97-2.64-2.31-8.86,3.38-14.54   c5.69-5.7,11.96-4.32,14.54-3.38L6.33,24.25z M22.29,22.29c-5.68,5.69-11.87,4.36-14.54,3.38L25.67,7.75   C26.71,10.56,27.93,16.65,22.29,22.29z M26,4c0-1.1,0.9-2,2-2s2,0.9,2,2s-0.9,2-2,2S26,5.1,26,4z"/>
</g>
</svg>
