<?xml version="1.0" encoding="utf-8"?>
<!-- Generator: Adobe Illustrator 16.0.0, SVG Export Plug-In . SVG Version: 6.00 Build 0)  -->
<!DOCTYPE svg PUBLIC "-//W3C//DTD SVG 1.1//EN" "http://www.w3.org/Graphics/SVG/1.1/DTD/svg11.dtd">
<svg xmlns="http://www.w3.org/2000/svg" xmlns:xlink="http://www.w3.org/1999/xlink" version="1.1" id="Capa_1" x="0px" y="0px" width="32px" height="32px" viewBox="0 0 32 32" enable-background="new 0 0 32 32" xml:space="preserve">
<g>
	<path d="M28,8c2.21,0,4-1.79,4-4s-1.79-4-4-4s-4,1.79-4,4c0,0.73,0.2,1.43,0.56,2.02L21,9.59l-6-6L3.59,15l6,6l-3.57,3.56   C5.43,24.2,4.73,24,4,24c-2.21,0-4,1.79-4,4s1.79,4,4,4s4-1.79,4-4c0-0.73-0.2-1.43-0.56-2.02l3.57-3.561L17,28.41L28.41,17   l-5.99-5.99l3.561-3.57C26.57,7.8,27.27,8,28,8z M28,2c1.1,0,2,0.9,2,2s-0.9,2-2,2s-2-0.9-2-2S26.9,2,28,2z M4,30c-1.1,0-2-0.9-2-2   s0.9-2,2-2s2,0.9,2,2S5.1,30,4,30z M11,19.59L6.41,15L15,6.41L19.59,11L11,19.59z M25.59,17L17,25.59l-4.58-4.58l8.59-8.59   L25.59,17z"/>
</g>
</svg>
