<?xml version="1.0" encoding="utf-8"?>
<!-- Generator: Adobe Illustrator 16.0.0, SVG Export Plug-In . SVG Version: 6.00 Build 0)  -->
<!DOCTYPE svg PUBLIC "-//W3C//DTD SVG 1.1//EN" "http://www.w3.org/Graphics/SVG/1.1/DTD/svg11.dtd">
<svg xmlns="http://www.w3.org/2000/svg" xmlns:xlink="http://www.w3.org/1999/xlink" version="1.1" id="Capa_1" x="0px" y="0px" width="32px" height="32px" viewBox="0 0 32 32" enable-background="new 0 0 32 32" xml:space="preserve">
<path d="M30.29,18.29L25,23.59L10.41,9l7.3-7.29l-1.42-1.42l-8,8c-0.39,0.39-0.39,1.03,0,1.42L9.58,11l-3.29,3.29  C6.11,14.48,6,14.73,6,15v5.721l-5.86,9.77c-0.18,0.3-0.19,0.689-0.01,1C0.31,31.811,0.64,32,1,32h8c0.27,0,0.52-0.109,0.71-0.29  L13.42,28H19c0.27,0,0.52-0.109,0.71-0.29L23,24.42l1.29,1.29C24.49,25.9,24.74,26,25,26s0.51-0.1,0.71-0.29l6-6L30.29,18.29z   M8.59,30H2.77l4.43-7.391L11.59,27L8.59,30z M21.59,23.01l-3,2.99h-5.17L8,20.58v-5.17l3-2.99L21.59,23V23.01z"/>
</svg>
