<?xml version="1.0" encoding="utf-8"?>
<!-- Generator: Adobe Illustrator 16.0.0, SVG Export Plug-In . SVG Version: 6.00 Build 0)  -->
<!DOCTYPE svg PUBLIC "-//W3C//DTD SVG 1.1//EN" "http://www.w3.org/Graphics/SVG/1.1/DTD/svg11.dtd">
<svg xmlns="http://www.w3.org/2000/svg" xmlns:xlink="http://www.w3.org/1999/xlink" version="1.1" id="Capa_1" x="0px" y="0px" width="32px" height="32px" viewBox="0 0 32 32" enable-background="new 0 0 32 32" xml:space="preserve">
<g>
	<path d="M0,4v24h32V4H0z M18.73,6c0.579,0.41,2.34,1.91,3,5.73c-3.32,0.73-5.851,0.42-8-0.13C13.3,8.94,12.39,7.16,11.51,6H18.73z    M13.96,13.71c1.18,0.27,2.49,0.45,3.97,0.45c1.221,0,2.561-0.13,4.03-0.44C21.99,14.13,22,14.55,22,15c0,1.85-0.34,3.46-0.85,4.85   c-3.21,0.61-5.67,0.23-7.78-0.34C13.76,18.17,14,16.67,14,15C14,14.55,13.99,14.12,13.96,13.71z M2,6h6.73   c0.54,0.38,2.11,1.71,2.85,4.99l-0.18-0.06C9.89,10.45,8.47,10,7,10c-2.37,0-3.95,0.43-5,0.94V6z M2,13.34C2.35,12.97,3.61,12,7,12   c1.16,0,2.38,0.39,3.8,0.83c0.36,0.11,0.73,0.23,1.12,0.35C11.97,13.75,12,14.35,12,15c0,1.46-0.21,2.78-0.55,3.95   c-0.02-0.01-0.03-0.01-0.05-0.021C9.89,18.45,8.47,18,7,18c-2.37,0-3.95,0.43-5,0.94V13.34z M6.68,26H2v-4.66   C2.35,20.97,3.61,20,7,20c1.15,0,2.36,0.38,3.76,0.82C9.41,23.76,7.37,25.48,6.68,26z M16.68,26H9.63c1.01-1.07,2.18-2.59,3.06-4.6   c1.5,0.409,3.21,0.76,5.24,0.76c0.69,0,1.42-0.04,2.19-0.13C18.84,24.24,17.27,25.55,16.68,26z M30,26H19.63   c0.98-1.03,2.11-2.5,2.98-4.42c2.149-0.521,4.59-1.42,7.39-2.9V26z M30,16.41c-2.48,1.38-4.64,2.3-6.57,2.88   C23.78,18.01,24,16.58,24,15c0-0.63-0.02-1.22-0.07-1.78c1.82-0.54,3.83-1.36,6.07-2.54V16.41z M30,8.41   c-2.38,1.32-4.47,2.22-6.33,2.81C23.21,8.77,22.35,7.11,21.51,6H30V8.41z"/>
</g>
</svg>
