<?xml version="1.0" encoding="utf-8"?>
<!-- Generator: Adobe Illustrator 16.0.0, SVG Export Plug-In . SVG Version: 6.00 Build 0)  -->
<!DOCTYPE svg PUBLIC "-//W3C//DTD SVG 1.1//EN" "http://www.w3.org/Graphics/SVG/1.1/DTD/svg11.dtd">
<svg xmlns="http://www.w3.org/2000/svg" xmlns:xlink="http://www.w3.org/1999/xlink" version="1.1" id="Capa_1" x="0px" y="0px" width="32px" height="32px" viewBox="0 0 32 32" enable-background="new 0 0 32 32" xml:space="preserve">
<g>
	<polygon points="0,16 4,12 4,20  "/>
</g>
<g>
	<polygon points="32,16 28,12 28,20  "/>
</g>
<g>
	<path d="M26,6h-7.91c-0.74-0.96-1.26-1.57-1.34-1.66c-0.38-0.43-1.12-0.43-1.5,0C14.95,4.68,8,12.7,8,19c0,0.35,0.01,0.68,0.04,1H6   v2h2.36c0.19,0.76,0.47,1.43,0.79,2H4v2h6.78c2.29,1.96,5.17,2,5.22,2c0.08,0,8-0.1,8-9c0-2.26-0.89-4.74-2.05-7H24v-2h-3.17   c-0.43-0.72-0.86-1.39-1.28-2H26V6z M22,19c0,6.75-5.38,6.99-6,7c-0.28,0-6-0.1-6-7c0-4.42,4.24-10.21,6-12.43   C17.76,8.79,22,14.58,22,19z"/>
</g>
</svg>
