<?xml version="1.0" encoding="utf-8"?>
<!-- Generator: Adobe Illustrator 16.0.0, SVG Export Plug-In . SVG Version: 6.00 Build 0)  -->
<!DOCTYPE svg PUBLIC "-//W3C//DTD SVG 1.1//EN" "http://www.w3.org/Graphics/SVG/1.1/DTD/svg11.dtd">
<svg xmlns="http://www.w3.org/2000/svg" xmlns:xlink="http://www.w3.org/1999/xlink" version="1.1" id="Capa_1" x="0px" y="0px" width="32px" height="32px" viewBox="0 0 32 32" enable-background="new 0 0 32 32" xml:space="preserve">
<g>
	<g>
		<polygon points="28.41,17 23.71,21.71 22.29,20.29 24.59,18 16,18 16,26.59 18.29,24.29 19.71,25.71 15,30.41 10.29,25.71     11.71,24.29 14,26.59 14,18 5.41,18 7.71,20.29 6.29,21.71 1.59,17 6.29,12.29 7.71,13.71 5.41,16 14,16 14,7.41 11.71,9.71     10.29,8.29 15,3.59 19.71,8.29 18.29,9.71 16,7.41 16,16 24.59,16 22.29,13.71 23.71,12.29   "/>
	</g>
</g>
</svg>
