<?xml version="1.0" encoding="utf-8"?>
<!-- Generator: Adobe Illustrator 16.0.0, SVG Export Plug-In . SVG Version: 6.00 Build 0)  -->
<!DOCTYPE svg PUBLIC "-//W3C//DTD SVG 1.1//EN" "http://www.w3.org/Graphics/SVG/1.1/DTD/svg11.dtd">
<svg xmlns="http://www.w3.org/2000/svg" xmlns:xlink="http://www.w3.org/1999/xlink" version="1.1" id="Capa_1" x="0px" y="0px" width="32px" height="32px" viewBox="0 0 32 32" enable-background="new 0 0 32 32" xml:space="preserve">
<g>
	<g>
		<g>
			<path d="M17,2C7.05,2,2,7.05,2,17c0,0.37,0.06,9,5,9c1.73,0,5-1.04,5-5c0-1.99,1.13-2.89,2.25-2.89c0.81,0,1.75,0.5,1.75,1.89     c0,0.83-0.88,1.75-1.72,2.64c-1.37,1.44-3.44,3.61-0.99,6.07C14.59,30,16.83,30,19,30c0.33,0,0.66,0,1-0.01V30     c7.91,0,10-8.5,10-13C30,2.17,17.13,2,17,2z M20,28v-0.03C19.68,27.99,19.34,28,19,28c-1.76,0-3.59,0-4.29-0.71     c-0.92-0.91-0.77-1.4,1.01-3.271C16.79,22.9,18,21.63,18,20c0-2.55-1.89-3.88-3.75-3.88C12.14,16.12,10,17.79,10,21     c0,2.82-2.5,2.99-3,3c-2.44,0-3-5.18-3-7C4,5.35,11.42,4,17,4c0.45,0,11,0.15,11,13C28,17.45,27.89,28,20,28z"/>
		</g>
	</g>
	<g>
		<path d="M22,11c0,1.66-1.34,3-3,3s-3-1.34-3-3s1.34-3,3-3S22,9.34,22,11z"/>
	</g>
	<g>
		<path d="M26,19c0,1.66-1.34,3-3,3s-3-1.34-3-3s1.34-3,3-3S26,17.34,26,19z"/>
	</g>
	<g>
		<path d="M14,11c0,1.66-1.34,3-3,3s-3-1.34-3-3s1.34-3,3-3S14,9.34,14,11z"/>
	</g>
</g>
</svg>
