<?xml version="1.0" encoding="utf-8"?>
<!-- Generator: Adobe Illustrator 16.0.0, SVG Export Plug-In . SVG Version: 6.00 Build 0)  -->
<!DOCTYPE svg PUBLIC "-//W3C//DTD SVG 1.1//EN" "http://www.w3.org/Graphics/SVG/1.1/DTD/svg11.dtd">
<svg xmlns="http://www.w3.org/2000/svg" xmlns:xlink="http://www.w3.org/1999/xlink" version="1.1" id="Capa_1" x="0px" y="0px" width="32px" height="32px" viewBox="0 0 32 32" enable-background="new 0 0 32 32" xml:space="preserve">
<g>
	<path d="M30,14v-2h-2v-1c0-3.96-3.27-5-5-5h-1V4h-2v2h-4V4h-2v2h-4V4H8v2H7c-3.96,0-5,3.27-5,5v1H0v2h2v2H0v2h2v2H0v2h2v1   c0,3.96,3.27,5,5,5h1v2h2v-2h4v2h2v-2h4v2h2v-2h1c3.96,0,5-3.27,5-5v-1h2v-2h-2v-2h2v-2h-2v-2H30z M26,12h-2v2h2v2h-2v2h2v2h-2v2h2   v0.99C25.99,23.5,25.82,26,23,26h-1v-2h-2v2h-4v-2h-2v2h-4v-2H8v2H7.01C6.5,25.99,4,25.82,4,23v-1h2v-2H4v-2h2v-2H4v-2h2v-2H4   v-0.99C4.01,10.5,4.18,8,7,8h1v2h2V8h4v2h2V8h4v2h2V8h0.99C23.5,8.01,26,8.18,26,11V12z"/>
</g>
</svg>
