<?xml version="1.0" encoding="utf-8"?>
<!-- Generator: Adobe Illustrator 16.0.0, SVG Export Plug-In . SVG Version: 6.00 Build 0)  -->
<!DOCTYPE svg PUBLIC "-//W3C//DTD SVG 1.1//EN" "http://www.w3.org/Graphics/SVG/1.1/DTD/svg11.dtd">
<svg xmlns="http://www.w3.org/2000/svg" xmlns:xlink="http://www.w3.org/1999/xlink" version="1.1" id="Capa_1" x="0px" y="0px" width="32px" height="32px" viewBox="0 0 32 32" enable-background="new 0 0 32 32" xml:space="preserve">
<g>
	<path d="M31.41,7.24c-0.101-1.88-1.09-3.67-2.79-5.02c-2.7-2.17-6.101-2.15-8.33,0.07L4.08,18.51L1.73,30.27l11.76-2.35   l16.22-16.21C30.88,10.53,31.51,8.9,31.41,7.24z M12.51,26.08l-8.24,1.65l1.65-8.24L6,19.42L12.58,26L12.51,26.08z M14,24.58   L7.42,18L19,6.41L25.59,13L14,24.58z M28.29,10.29L27,11.59L20.41,5l1.3-1.29c1.53-1.54,3.74-1.47,5.67,0.07   c1.24,1,1.96,2.26,2.04,3.57C29.48,8.44,29.07,9.52,28.29,10.29z"/>
</g>
</svg>
