<?xml version="1.0" encoding="utf-8"?>
<!-- Generator: Adobe Illustrator 16.0.0, SVG Export Plug-In . SVG Version: 6.00 Build 0)  -->
<!DOCTYPE svg PUBLIC "-//W3C//DTD SVG 1.1//EN" "http://www.w3.org/Graphics/SVG/1.1/DTD/svg11.dtd">
<svg xmlns="http://www.w3.org/2000/svg" xmlns:xlink="http://www.w3.org/1999/xlink" version="1.1" id="Capa_1" x="0px" y="0px" width="32px" height="32px" viewBox="0 0 32 32" enable-background="new 0 0 32 32" xml:space="preserve">
<g>
	<path d="M16,2h-2L0,8v16l14,8h2l14-8V8L16,2z M6,25.13l-4-2.29v-2.52l4,1.149V25.13z M6,19.39l-4-1.14v-4.38l4-0.57V19.39z    M6,11.28l-4,0.57V9.32l4-1.71V11.28z M14,29.7L8,26.27V22.04l6,1.71V29.7z M14,21.68l-6-1.72v-6.95l6-0.86V21.68z M14,10.13   l-6,0.86V6.75l6-2.57V10.13z M22,26.27L16,29.7v-5.95l6-1.71V26.27z M22,19.96l-6,1.72v-9.53l6,0.86V19.96z M22,10.99l-6-0.86V4.18   l6,2.57V10.99z M28,22.84l-4,2.29v-3.66l4-1.149V22.84z M28,18.25l-4,1.14V13.3l4,0.57V18.25z M28,11.85l-4-0.57V7.61l4,1.71V11.85   z"/>
</g>
</svg>
