<?xml version="1.0" encoding="utf-8"?>
<!-- Generator: Adobe Illustrator 16.0.0, SVG Export Plug-In . SVG Version: 6.00 Build 0)  -->
<!DOCTYPE svg PUBLIC "-//W3C//DTD SVG 1.1//EN" "http://www.w3.org/Graphics/SVG/1.1/DTD/svg11.dtd">
<svg xmlns="http://www.w3.org/2000/svg" xmlns:xlink="http://www.w3.org/1999/xlink" version="1.1" id="Capa_1" x="0px" y="0px" width="32px" height="32px" viewBox="0 0 32 32" enable-background="new 0 0 32 32" xml:space="preserve">
<g>
	<g>
		<path d="M28,2V0H9C5.04,0,4,3.27,4,5v22c0,1.73,1.04,5,5,5h19V8h-2V2H28z M6,5c0.01-0.52,0.19-3,3-3h15v6H9    C6.18,8,6.01,5.5,6,5.01V5z M26,30H9c-2.37,0-2.87-1.76-2.97-2.62L11,22.41l4,4l6-6l5,5V30z M26,22.59l-5-5l-6,6l-4-4l-5,5V9.12    C6.73,9.65,7.71,10,9,10h17V22.59z"/>
	</g>
</g>
<g>
	<g>
		<path d="M11,11.67c-1.65,0-3,1.34-3,3c0,1.65,1.35,3,3,3s3-1.35,3-3C14,13.01,12.65,11.67,11,11.67z M11,15.67c-0.55,0-1-0.45-1-1    c0-0.55,0.45-1,1-1s1,0.45,1,1C12,15.22,11.55,15.67,11,15.67z"/>
	</g>
</g>
</svg>
