<?xml version="1.0" encoding="utf-8"?>
<!-- Generator: Adobe Illustrator 16.0.0, SVG Export Plug-In . SVG Version: 6.00 Build 0)  -->
<!DOCTYPE svg PUBLIC "-//W3C//DTD SVG 1.1//EN" "http://www.w3.org/Graphics/SVG/1.1/DTD/svg11.dtd">
<svg xmlns="http://www.w3.org/2000/svg" xmlns:xlink="http://www.w3.org/1999/xlink" version="1.1" id="Capa_1" x="0px" y="0px" width="32px" height="32px" viewBox="0 0 32 32" enable-background="new 0 0 32 32" xml:space="preserve">
<g>
	<path d="M4,0v32h22V0H4z M24,30H6v-8.58l3-3.01l4.11,4.109L19,14.67l5,6.66V30z M24,18l-5-6.67l-6.11,8.15L9,15.59l-3,2.99V2h18V18   z"/>
	<path d="M11,6C9.35,6,8,7.35,8,9s1.35,3,3,3s3-1.35,3-3S12.65,6,11,6z M11,10c-0.55,0-1-0.45-1-1s0.45-1,1-1s1,0.45,1,1   S11.55,10,11,10z"/>
</g>
</svg>
