<?xml version="1.0" encoding="utf-8"?>
<!-- Generator: Adobe Illustrator 16.0.0, SVG Export Plug-In . SVG Version: 6.00 Build 0)  -->
<!DOCTYPE svg PUBLIC "-//W3C//DTD SVG 1.1//EN" "http://www.w3.org/Graphics/SVG/1.1/DTD/svg11.dtd">
<svg xmlns="http://www.w3.org/2000/svg" xmlns:xlink="http://www.w3.org/1999/xlink" version="1.1" id="Capa_1" x="0px" y="0px" width="32px" height="32px" viewBox="0 0 32 32" enable-background="new 0 0 32 32" xml:space="preserve">
<g>
	<path d="M26,24v-6h-6v-4h6V6h-8v6h-6v6H8v-4H0l0.03,18H30v-8H26z M20,8h4v4h-4V8z M12,30H8v-4h4V30z M12,24H6v6H2.03L2,16h4v4h6V24   z M14,14h4v4h-4V14z M14,20h4v4h-4V20z M28,30H14v-4h6v-6h4v6h4V30z"/>
</g>
<g>
	<path d="M4,4v8h8V4H4z M10,10H6V6h4V10z"/>
</g>
</svg>
