<?xml version="1.0" encoding="utf-8"?>
<!-- Generator: Adobe Illustrator 16.0.0, SVG Export Plug-In . SVG Version: 6.00 Build 0)  -->
<!DOCTYPE svg PUBLIC "-//W3C//DTD SVG 1.1//EN" "http://www.w3.org/Graphics/SVG/1.1/DTD/svg11.dtd">
<svg xmlns="http://www.w3.org/2000/svg" xmlns:xlink="http://www.w3.org/1999/xlink" version="1.1" id="Capa_1" x="0px" y="0px" width="32px" height="32px" viewBox="0 0 32 32" enable-background="new 0 0 32 32" xml:space="preserve">
<g>
	<g>
		<g>
			<path d="M29.85,16.47c-0.149-0.24-2.67-4.2-7.01-6.62C20.91,8.77,18.61,8,16,8c-2.61,0-4.91,0.77-6.84,1.85     c-4.34,2.42-6.86,6.38-7.01,6.62c-0.2,0.32-0.2,0.74,0,1.06C2.37,17.88,7.54,26,16,26s13.63-8.12,13.85-8.47     C30.05,17.21,30.05,16.79,29.85,16.47z M18,14c0,1.1-0.9,2-2,2c-1.1,0-2-0.9-2-2s0.9-2,2-2C17.1,12,18,12.9,18,14z M10.62,11.36     c1.46-0.75,3.13-1.28,4.97-1.34C13.57,10.23,12,11.93,12,14c0,2.21,1.79,4,4,4s4-1.79,4-4c0-2.07-1.57-3.77-3.59-3.98     c1.84,0.06,3.51,0.6,4.979,1.35C21.78,12.16,22,13.05,22,14c0,3.31-2.69,6-6,6c-3.31,0-6-2.69-6-6     C10,13.05,10.22,12.15,10.62,11.36z M16,24c-6,0-10.74-5.29-12-7c0.61-0.83,2.14-2.5,4.06-3.99C8.02,13.33,8,13.67,8,14     c0,4.42,3.58,8,8,8s8-3.58,8-8c0-0.33-0.02-0.66-0.06-0.98C25.85,14.52,27.39,16.17,28,17C26.75,18.72,22,24,16,24z"/>
		</g>
	</g>
</g>
<g>
	<path d="M5.71,11.71C5.51,11.9,5.26,12,5,12s-0.51-0.1-0.71-0.29l-4-4c-0.39-0.39-0.39-1.03,0-1.42s1.03-0.39,1.42,0l4,4   C6.1,10.68,6.1,11.32,5.71,11.71z"/>
</g>
<g>
	<path d="M31.71,7.71l-4,4C27.51,11.9,27.26,12,27,12s-0.51-0.1-0.71-0.29c-0.39-0.39-0.39-1.03,0-1.42l4-4   c0.39-0.39,1.03-0.39,1.42,0S32.1,7.32,31.71,7.71z"/>
</g>
<g>
	<path d="M11.45,7.89C11.3,7.97,11.15,8,11,8c-0.37,0-0.72-0.2-0.89-0.55l-2-4c-0.25-0.5-0.05-1.1,0.44-1.34   c0.5-0.25,1.1-0.05,1.34,0.44l2,4C12.14,7.05,11.94,7.65,11.45,7.89z"/>
</g>
<g>
	<path d="M23.89,3.45l-2,4C21.72,7.8,21.37,8,21,8c-0.15,0-0.3-0.03-0.45-0.11c-0.49-0.24-0.689-0.84-0.439-1.34l2-4   c0.239-0.49,0.84-0.69,1.34-0.44C23.94,2.35,24.14,2.95,23.89,3.45z"/>
</g>
<g>
	<path d="M5.71,23.71l-4,4C1.51,27.9,1.26,28,1,28s-0.51-0.1-0.71-0.29c-0.39-0.39-0.39-1.03,0-1.42l4-4c0.39-0.39,1.03-0.39,1.42,0   S6.1,23.32,5.71,23.71z"/>
</g>
<g>
	<path d="M31.71,27.71C31.51,27.9,31.26,28,31,28s-0.51-0.1-0.71-0.29l-4-4c-0.39-0.39-0.39-1.03,0-1.42s1.03-0.39,1.42,0l4,4   C32.1,26.68,32.1,27.32,31.71,27.71z"/>
</g>
<g>
	<path d="M11.89,27.45l-2,4C9.72,31.8,9.37,32,9,32c-0.15,0-0.3-0.03-0.45-0.11c-0.49-0.239-0.69-0.84-0.44-1.34l2-4   c0.24-0.49,0.84-0.689,1.34-0.439C11.94,26.35,12.14,26.95,11.89,27.45z"/>
</g>
<g>
	<path d="M23.45,31.89C23.3,31.97,23.15,32,23,32c-0.37,0-0.72-0.2-0.89-0.55l-2-4c-0.25-0.5-0.051-1.101,0.439-1.34   c0.5-0.25,1.101-0.051,1.34,0.439l2,4C24.14,31.05,23.94,31.65,23.45,31.89z"/>
</g>
</svg>
