<?xml version="1.0" encoding="utf-8"?>
<!-- Generator: Adobe Illustrator 16.0.0, SVG Export Plug-In . SVG Version: 6.00 Build 0)  -->
<!DOCTYPE svg PUBLIC "-//W3C//DTD SVG 1.1//EN" "http://www.w3.org/Graphics/SVG/1.1/DTD/svg11.dtd">
<svg xmlns="http://www.w3.org/2000/svg" xmlns:xlink="http://www.w3.org/1999/xlink" version="1.1" id="Capa_1" x="0px" y="0px" width="32px" height="32px" viewBox="0 0 32 32" enable-background="new 0 0 32 32" xml:space="preserve">
<g>
	<g>
		<polygon points="13.71,12.29 12.29,13.71 2,3.42 2,12 0,12 0,0 12,0 12,2 3.42,2   "/>
	</g>
	<g>
		<polygon points="32,20 32,32 20,32 20,30 28.58,30 18.29,19.71 19.71,18.29 30,28.58 30,20   "/>
	</g>
	<g>
		<polygon points="18.29,12.29 19.71,13.71 30,3.42 30,12 32,12 32,0 20,0 20,2 28.58,2   "/>
	</g>
	<g>
		<polygon points="0,20 0,32 12,32 12,30 3.42,30 13.71,19.71 12.29,18.29 2,28.58 2,20   "/>
	</g>
</g>
</svg>
