<?xml version="1.0" encoding="utf-8"?>
<!-- Generator: Adobe Illustrator 16.0.0, SVG Export Plug-In . SVG Version: 6.00 Build 0)  -->
<!DOCTYPE svg PUBLIC "-//W3C//DTD SVG 1.1//EN" "http://www.w3.org/Graphics/SVG/1.1/DTD/svg11.dtd">
<svg xmlns="http://www.w3.org/2000/svg" xmlns:xlink="http://www.w3.org/1999/xlink" version="1.1" id="Capa_1" x="0px" y="0px" width="32px" height="32px" viewBox="0 0 32 32" enable-background="new 0 0 32 32" xml:space="preserve">
<g>
	<path d="M14.28,25.43l-2.86,2.04L9.61,23.4l-1.73,1.04l2.21,4.97c0.12,0.27,0.36,0.479,0.65,0.55C10.82,29.99,10.91,30,11,30   c0.21,0,0.41-0.06,0.58-0.19l3.54-2.529L14.28,25.43z M7.56,10.64L6.72,8.8l-4.01,1.24c-0.28,0.09-0.5,0.29-0.62,0.55   c-0.12,0.26-0.12,0.55,0,0.82l1.84,4.14l1.86-0.74l-1.42-3.19L7.56,10.64z M6.6,16.64l-1.86,0.74l2.32,5.22l1.73-1.04L6.6,16.64z    M22.28,4.02L16.51,5.79l0.91,1.82l5.5-1.69L22.28,4.02z M29.69,2.27c-0.271-0.24-0.641-0.33-0.98-0.23L24.2,3.43l0.63,1.9   l2.77-0.85l-1.609,6.46l1.899,0.63l2.08-8.33C30.06,2.89,29.95,2.52,29.69,2.27z M24.12,18.4l-0.96,0.689l0.899,1.8l1.521-1.08   c0.189-0.13,0.33-0.34,0.39-0.569l1.431-5.72l-1.9-0.63L24.12,18.4z M21.52,20.26l-5.58,3.99l0.84,1.85l5.64-4.029L21.52,20.26z    M14.58,6.39L8.65,8.21l0.83,1.84l6.01-1.85L14.58,6.39z"/>
</g>
</svg>
