<?xml version="1.0" encoding="utf-8"?>
<!-- Generator: Adobe Illustrator 16.0.0, SVG Export Plug-In . SVG Version: 6.00 Build 0)  -->
<!DOCTYPE svg PUBLIC "-//W3C//DTD SVG 1.1//EN" "http://www.w3.org/Graphics/SVG/1.1/DTD/svg11.dtd">
<svg xmlns="http://www.w3.org/2000/svg" xmlns:xlink="http://www.w3.org/1999/xlink" version="1.1" id="Capa_1" x="0px" y="0px" width="32px" height="32px" viewBox="0 0 32 32" enable-background="new 0 0 32 32" xml:space="preserve">
<g>
	<g>
		<path d="M2,4v6h2V6h6V4H2z M22,4v2h6v4h2V4H22z M12,6h8V4h-8V6z M4,26v-4H2v6h8v-2H4z M28,22v4h-6v2h8v-6H28z M12,28h8v-2h-8V28z     M28,12v8h2v-8H28z M2,12v8h2v-8H2z"/>
	</g>
</g>
</svg>
