<?xml version="1.0" encoding="utf-8"?>
<!-- Generator: Adobe Illustrator 16.0.0, SVG Export Plug-In . SVG Version: 6.00 Build 0)  -->
<!DOCTYPE svg PUBLIC "-//W3C//DTD SVG 1.1//EN" "http://www.w3.org/Graphics/SVG/1.1/DTD/svg11.dtd">
<svg xmlns="http://www.w3.org/2000/svg" xmlns:xlink="http://www.w3.org/1999/xlink" version="1.1" id="Capa_1" x="0px" y="0px" width="32px" height="32px" viewBox="0 0 32 32" enable-background="new 0 0 32 32" xml:space="preserve">
<g>
	<g>
		<path d="M26.65,20.6c-0.96,1.54-2.391,2.851-4.131,3.79l1.08,1.69c2.141-1.19,3.881-2.86,5-4.83L26.65,20.6z M5.35,20.6L3.4,21.25    c1.12,1.97,2.86,3.64,5,4.83l1.08-1.69C7.74,23.45,6.31,22.14,5.35,20.6z M20.67,25.21C19.23,25.72,17.66,26,16,26    s-3.23-0.28-4.67-0.79l-1.1,1.72C11.99,27.62,13.94,28,16,28c2.06,0,4.01-0.38,5.77-1.07L20.67,25.21z M29.42,12.58l-1.9,0.63    C27.83,14.09,28,15.03,28,16s-0.17,1.91-0.48,2.79l1.9,0.63C29.8,18.34,30,17.19,30,16C30,14.81,29.8,13.66,29.42,12.58z     M4.48,13.21l-1.9-0.63C2.2,13.66,2,14.81,2,16c0,1.19,0.2,2.34,0.58,3.42l1.9-0.63C4.17,17.91,4,16.97,4,16    S4.17,14.09,4.48,13.21z M16,4c-2.06,0-4.01,0.38-5.77,1.07l1.1,1.72C12.77,6.28,14.34,6,16,6s3.23,0.28,4.67,0.79l1.1-1.72    C20.01,4.38,18.06,4,16,4z M23.6,5.92l-1.08,1.69c1.74,0.94,3.171,2.25,4.131,3.78l1.939-0.65C27.47,8.78,25.74,7.11,23.6,5.92z     M8.4,5.92c-2.14,1.19-3.87,2.86-4.99,4.82l1.94,0.65c0.96-1.53,2.39-2.84,4.13-3.78L8.4,5.92z"/>
	</g>
</g>
</svg>
