<?xml version="1.0" encoding="utf-8"?>
<!-- Generator: Adobe Illustrator 16.0.0, SVG Export Plug-In . SVG Version: 6.00 Build 0)  -->
<!DOCTYPE svg PUBLIC "-//W3C//DTD SVG 1.1//EN" "http://www.w3.org/Graphics/SVG/1.1/DTD/svg11.dtd">
<svg xmlns="http://www.w3.org/2000/svg" xmlns:xlink="http://www.w3.org/1999/xlink" version="1.1" id="Capa_1" x="0px" y="0px" width="32px" height="32px" viewBox="0 0 32 32" enable-background="new 0 0 32 32" xml:space="preserve">
<g>
	<path d="M19.95,9.68l-0.17-0.52c-0.73-2.24-1.67-5.09-4.31-6.41L14.82,4.7c1.73,1.03,2.411,3.08,3.06,5.08l0.17,0.54   c0.11,0.33,0.22,0.62,0.33,0.89l1.67-1.25C20.02,9.87,19.98,9.78,19.95,9.68z M25.56,26.98C24.05,27.94,22.33,28,22,28   c-0.32,0-0.63,0-0.94-0.01L20.4,29.97C20.92,29.99,21.45,30,22,30c1.37,0,3.34-0.41,4.99-1.59L25.56,26.98z M4.51,17.58l-1.8,1.03   c0.71,2.56,2.02,5,4.28,6.979H7l1.43-1.439C6.48,22.49,5.17,20.3,4.51,17.58z M4,13c0-0.18,0.02-2.4,1-4.58L3.52,6.94   C2.4,9.02,2,11.33,2,13c0,1.16,0.08,2.36,0.27,3.55l1.87-1.07C4.05,14.69,4,13.86,4,13z M10.09,25.33L8.62,26.8   c2.37,1.54,5.53,2.63,9.71,3.03l0.65-1.95C15.36,27.59,12.4,26.74,10.09,25.33z M28.03,15.95l-1.221,1.64C28,19.02,28,20.63,28,22   c0,1.57-0.39,2.73-0.99,3.59l1.431,1.43C29.37,25.82,30,24.19,30,22C30,20.41,30,18.01,28.03,15.95z M25.45,14.11   c-0.53-0.27-1-0.5-1.431-0.71c-1.5-0.73-2.359-1.15-2.949-1.7l-1.61,1.21c0.83,0.9,1.96,1.45,3.68,2.29   c0.431,0.21,0.891,0.44,1.41,0.69c0.26,0.13,0.51,0.27,0.73,0.41l1.2-1.6C26.17,14.49,25.82,14.3,25.45,14.11z M12,2   C8.55,2,6.21,3.37,4.65,5.23l1.42,1.42C7.24,5.16,9.1,4,12,4c0.33,0,0.63,0.02,0.92,0.06l0.65-1.93C13.09,2.05,12.57,2,12,2z"/>
</g>
</svg>
