<?xml version="1.0" encoding="utf-8"?>
<!-- Generator: Adobe Illustrator 16.0.0, SVG Export Plug-In . SVG Version: 6.00 Build 0)  -->
<!DOCTYPE svg PUBLIC "-//W3C//DTD SVG 1.1//EN" "http://www.w3.org/Graphics/SVG/1.1/DTD/svg11.dtd">
<svg xmlns="http://www.w3.org/2000/svg" xmlns:xlink="http://www.w3.org/1999/xlink" version="1.1" id="Capa_1" x="0px" y="0px" width="32px" height="32px" viewBox="0 0 32 32" enable-background="new 0 0 32 32" xml:space="preserve">
<g>
	<g>
		<g>
			<path d="M23,28H9c-2.422,0-7-1.463-7-7V11c0-5.537,4.578-7,7-7h14c2.421,0,7,1.463,7,7v10C30,26.537,25.421,28,23,28z M9,6     c-0.508,0.004-5,0.176-5,5v10c0,4.943,4.796,5,5,5h13.998C23.517,25.996,28,25.819,28,21V11c0-4.943-4.796-5-5-5H9z"/>
		</g>
	</g>
</g>
</svg>
