<?xml version="1.0" encoding="utf-8"?>
<!-- Generator: Adobe Illustrator 16.0.0, SVG Export Plug-In . SVG Version: 6.00 Build 0)  -->
<!DOCTYPE svg PUBLIC "-//W3C//DTD SVG 1.1//EN" "http://www.w3.org/Graphics/SVG/1.1/DTD/svg11.dtd">
<svg xmlns="http://www.w3.org/2000/svg" xmlns:xlink="http://www.w3.org/1999/xlink" version="1.1" id="Capa_1" x="0px" y="0px" width="32px" height="32px" viewBox="0 0 32 32" enable-background="new 0 0 32 32" xml:space="preserve">
<g>
	<g>
		<path d="M28.01,10.49l-1.96,0.98c0,0,1.561,13.41,1.29,13.77c-0.27,0.37-1.37,0.529-1.939-0.28l-2.66-5.34    c-0.29-0.57-0.84-0.98-1.471-1.07c-0.63-0.109-1.279,0.101-1.739,0.55L8.93,29.71c-0.39,0.39-1.029,0.39-1.42,0    c-0.38-0.39-0.38-1.03,0-1.41l7.78-7.78l-1.41-1.42l-2.58,2.58l-1.18-1.649l2.34-2.34l-1.41-1.42l-2.1,2.11L7.77,16.73l1.871-1.87    l-1.42-1.41L6.59,15.08l-0.811-1.13C5.58,13.26,5.7,13.14,6.811,12.03L16.92,1.92l-1.41-1.41L5.391,10.62    c-1.41,1.41-2.121,2.12-1.41,4.24l5.89,8.25L6.1,26.88c-1.17,1.17-1.17,3.08,0,4.24c1.17,1.17,3.08,1.17,4.24,0L20.95,20.52    l2.83,5.65c2.83,2.83,5.649,0.01,5.649,0.01L28.01,10.49z"/>
	</g>
</g>
<rect x="43" y="8" fill="none" width="16" height="16"/>
</svg>
