<?xml version="1.0" encoding="utf-8"?>
<!-- Generator: Adobe Illustrator 16.0.0, SVG Export Plug-In . SVG Version: 6.00 Build 0)  -->
<!DOCTYPE svg PUBLIC "-//W3C//DTD SVG 1.1//EN" "http://www.w3.org/Graphics/SVG/1.1/DTD/svg11.dtd">
<svg xmlns="http://www.w3.org/2000/svg" xmlns:xlink="http://www.w3.org/1999/xlink" version="1.1" id="Capa_1" x="0px" y="0px" width="32px" height="32px" viewBox="0 0 32 32" enable-background="new 0 0 32 32" xml:space="preserve">
<g>
	<path d="M32,5c0-2.76-2.24-5-5-5c-2.11,0-3.91,1.31-4.65,3.15C20.72,2.41,18.91,2,17,2C9.82,2,4,7.82,4,15   c0,1.2,0.16,2.36,0.48,3.47C1.86,19.48,0,22.02,0,25c0,3.87,3.13,7,7,7c2.98,0,5.52-1.86,6.53-4.48C14.64,27.84,15.8,28,17,28   c7.18,0,13-5.82,13-13c0-1.91-0.41-3.72-1.15-5.35C30.69,8.91,32,7.11,32,5z M22.01,5.21c2.05,1.05,3.73,2.73,4.78,4.78   c0.02,0.04,0.04,0.08,0.06,0.12C26.95,10.56,27,11.02,27,11.5c0,3.58-2.92,6.5-6.5,6.5S14,15.08,14,11.5S16.92,5,20.5,5   c0.48,0,0.94,0.05,1.39,0.15L22.01,5.21z M7,30c-2.76,0-5-2.24-5-5s2.24-5,5-5s5,2.24,5,5S9.76,30,7,30z M17,26   c-1.05,0-2.07-0.15-3.03-0.43C13.99,25.38,14,25.19,14,25c0-3.87-3.13-7-7-7c-0.19,0-0.38,0.01-0.57,0.03C6.15,17.07,6,16.05,6,15   C6,9.1,10.66,4.28,16.49,4.01C13.82,5.44,12,8.26,12,11.5c0,4.69,3.81,8.5,8.5,8.5c3.24,0,6.06-1.82,7.49-4.49   C27.72,21.34,22.9,26,17,26z M27.87,7.87c-0.98-1.49-2.25-2.76-3.74-3.74C24.5,2.9,25.65,2,27,2c1.65,0,3,1.35,3,3   C30,6.35,29.1,7.5,27.87,7.87z"/>
</g>
</svg>
