<?xml version="1.0" encoding="utf-8"?>
<!-- Generator: Adobe Illustrator 16.0.0, SVG Export Plug-In . SVG Version: 6.00 Build 0)  -->
<!DOCTYPE svg PUBLIC "-//W3C//DTD SVG 1.1//EN" "http://www.w3.org/Graphics/SVG/1.1/DTD/svg11.dtd">
<svg xmlns="http://www.w3.org/2000/svg" xmlns:xlink="http://www.w3.org/1999/xlink" version="1.1" id="Capa_1" x="0px" y="0px" width="32px" height="32px" viewBox="0 0 32 32" enable-background="new 0 0 32 32" xml:space="preserve">
<g>
	<path d="M17,30c-0.11,0-11-0.126-11-11s8.91-11,9-11c3.113,0,9,1.881,9,9c0,2.421-1.254,7-6,7c-2.063,0-3.646-0.634-4.706-1.885   c-1.785-2.107-1.302-5.151-1.281-5.28c0.091-0.543,0.604-0.912,1.151-0.822c0.544,0.091,0.913,0.606,0.822,1.15   c-0.003,0.02-0.347,2.274,0.841,3.666C15.489,21.606,16.557,22,18,22c3.954,0,4-4.796,4-5c0-6.883-6.717-6.999-7.002-7   C14.718,10.002,8,10.162,8,19c0,8.897,8.632,9,9,9c10.875,0,11-9.592,11-10C28,4.211,16.488,4.002,15.998,4   C2.211,4,2.002,15.512,2,16.002c-0.002,0.551-0.45,0.997-1,0.997c-0.001,0-0.001,0-0.002,0C0.446,16.998,0,16.551,0,16   C0,15.86,0.183,2,16,2c0.14,0,14,0.183,14,16C30,18.12,29.852,30,17,30z"/>
</g>
</svg>
