<?xml version="1.0" encoding="utf-8"?>
<!-- Generator: Adobe Illustrator 16.0.0, SVG Export Plug-In . SVG Version: 6.00 Build 0)  -->
<!DOCTYPE svg PUBLIC "-//W3C//DTD SVG 1.1//EN" "http://www.w3.org/Graphics/SVG/1.1/DTD/svg11.dtd">
<svg xmlns="http://www.w3.org/2000/svg" xmlns:xlink="http://www.w3.org/1999/xlink" version="1.1" id="Capa_1" x="0px" y="0px" width="32px" height="32px" viewBox="0 0 32 32" enable-background="new 0 0 32 32" xml:space="preserve">
<g>
	<g>
		<path d="M27,26h-2c-0.553,0-1-0.447-1-1c-0.006-0.496-0.177-3-3-3s-2.994,2.504-3,3.006C17.994,25.554,17.548,26,17,26H5    c-2.201,0-3-1.794-3-3V9c0-2.201,1.794-3,3-3h2c0.553,0,1,0.448,1,1c0.006,0.497,0.178,3,3,3s2.994-2.503,3-3.005    C14.006,6.447,14.452,6,15,6h12c2.201,0,3,1.794,3,3v14C30,25.201,28.206,26,27,26z M25.898,24h1.094    C27.453,23.987,28,23.803,28,23V9c-0.012-0.45-0.194-1-1-1H15.898c-0.342,1.754-1.621,4-4.898,4S6.443,9.754,6.102,8H5    C4.551,8.012,4,8.195,4,9v14c0.012,0.45,0.195,1,1,1h11.102c0.342-1.754,1.621-4,4.898-4S25.557,22.246,25.898,24z"/>
	</g>
	<g>
		<path d="M22,12c1.103,0,2,0.897,2,2c0,1.104-0.897,2-2,2s-2-0.896-2-2C20,12.897,20.897,12,22,12 M22,10c-2.209,0-4,1.791-4,4    s1.791,4,4,4s4-1.791,4-4S24.209,10,22,10L22,10z"/>
	</g>
	<g>
		<path d="M10,16c1.104,0,2,0.896,2,2c0,1.103-0.896,2-2,2s-2-0.897-2-2C8,16.896,8.896,16,10,16 M10,14c-2.209,0-4,1.791-4,4    s1.791,4,4,4s4-1.791,4-4S12.209,14,10,14L10,14z"/>
	</g>
</g>
</svg>
