<?xml version="1.0" encoding="utf-8"?>
<!-- Generator: Adobe Illustrator 16.0.0, SVG Export Plug-In . SVG Version: 6.00 Build 0)  -->
<!DOCTYPE svg PUBLIC "-//W3C//DTD SVG 1.1//EN" "http://www.w3.org/Graphics/SVG/1.1/DTD/svg11.dtd">
<svg xmlns="http://www.w3.org/2000/svg" xmlns:xlink="http://www.w3.org/1999/xlink" version="1.1" id="Capa_1" x="0px" y="0px" width="32px" height="32px" viewBox="0 0 32 32" enable-background="new 0 0 32 32" xml:space="preserve">
<path d="M28,10V4H18v6h-4v22h18V10H28z M20,6h6v4h-6V6z M30,30H16V12h14V30z"/>
<path d="M23,16c-2.76,0-5,2.24-5,5s2.24,5,5,5s5-2.24,5-5S25.76,16,23,16z M23,24c-1.65,0-3-1.35-3-3s1.35-3,3-3s3,1.35,3,3  S24.65,24,23,24z"/>
<path d="M0,0v14l16-7L0,0z M2,3.06L11.01,7L2,10.94V3.06z"/>
</svg>
