<?xml version="1.0" encoding="utf-8"?>
<!-- Generator: Adobe Illustrator 16.0.0, SVG Export Plug-In . SVG Version: 6.00 Build 0)  -->
<!DOCTYPE svg PUBLIC "-//W3C//DTD SVG 1.1//EN" "http://www.w3.org/Graphics/SVG/1.1/DTD/svg11.dtd">
<svg xmlns="http://www.w3.org/2000/svg" xmlns:xlink="http://www.w3.org/1999/xlink" version="1.1" id="Capa_1" x="0px" y="0px" width="32px" height="32px" viewBox="0 0 32 32" enable-background="new 0 0 32 32" xml:space="preserve">
<g>
	<g>
		<path d="M28.71,9.29c-1.03-1.03-2.22-1.55-3.52-1.55c-2.141,0-3.79,1.45-3.9,1.55l-9,9C12.11,18.48,12,18.73,12,19v7h7    c0.27,0,0.52-0.11,0.71-0.29l9.04-9.04C29.94,15.32,31.47,12.06,28.71,9.29z M14,24v-4.58L18.58,24H14z M20,22.58L15.42,18    L20,13.42L24.58,18L20,22.58z M27.29,15.29L26,16.58L21.42,12l1.25-1.25c0.01-0.01,1.16-1.01,2.521-1.01    c0.77,0,1.449,0.32,2.1,0.97C29.37,12.79,27.47,15.08,27.29,15.29z"/>
	</g>
</g>
<g>
	<path d="M32,8V5c0-2.2-1.79-3-3-3H3C0.8,2,0,3.79,0,5v22c0,2.2,1.79,3,3,3h26c1.21,0,3-0.8,3-3v-9h-2v9c0,0.81-0.55,0.99-1,1H10V4   h18.99C29.45,4.01,30,4.19,30,5v3H32z M2,14h2v4H2V14z M8,28H3.01C2.55,27.99,2,27.81,2,27v-7h4v-8H2V5.01C2.01,4.55,2.19,4,3,4h5   V28z"/>
</g>
</svg>
