<?xml version="1.0" encoding="utf-8"?>
<!-- Generator: Adobe Illustrator 16.0.0, SVG Export Plug-In . SVG Version: 6.00 Build 0)  -->
<!DOCTYPE svg PUBLIC "-//W3C//DTD SVG 1.1//EN" "http://www.w3.org/Graphics/SVG/1.1/DTD/svg11.dtd">
<svg xmlns="http://www.w3.org/2000/svg" xmlns:xlink="http://www.w3.org/1999/xlink" version="1.1" id="Capa_1" x="0px" y="0px" width="32px" height="32px" viewBox="0 0 32 32" enable-background="new 0 0 32 32" xml:space="preserve">
<g>
	<g>
		<path d="M27,2H5C1.04,2,0,5.27,0,7v20c0,3.96,3.27,5,5,5h22c3.96,0,5-3.27,5-5V7C32,3.04,28.73,2,27,2z M30,26.99    C29.99,27.5,29.82,30,27,30H5.01C4.5,29.99,2,29.82,2,27v-1h2.18c0.4,1.17,1.51,2,2.82,2s2.42-0.83,2.82-2h6.359    c0.4,1.17,1.511,2,2.82,2s2.42-0.83,2.82-2H30V26.99z M30,24h-8.18c-0.4-1.17-1.511-2-2.82-2s-2.42,0.83-2.82,2H9.82    c-0.4-1.17-1.51-2-2.82-2s-2.42,0.83-2.82,2H2v-6h2.18c0.4,1.17,1.51,2,2.82,2s2.42-0.83,2.82-2h0.359c0.4,1.17,1.51,2,2.82,2    s2.42-0.83,2.82-2H30V24z M30,16H15.82c-0.4-1.17-1.51-2-2.82-2s-2.42,0.83-2.82,2H9.82c-0.4-1.17-1.51-2-2.82-2    s-2.42,0.83-2.82,2H2v-6h2.18c0.4,1.17,1.51,2,2.82,2s2.42-0.83,2.82-2h2.359c0.4,1.17,1.51,2,2.82,2s2.42-0.83,2.82-2h2.359    c0.4,1.17,1.511,2,2.82,2s2.42-0.83,2.82-2H30V16z M30,8h-4.18C25.42,6.83,24.31,6,23,6s-2.42,0.83-2.82,2H17.82    c-0.4-1.17-1.51-2-2.82-2s-2.42,0.83-2.82,2H9.82C9.42,6.83,8.311,6,7,6S4.58,6.83,4.18,8H2V7.01C2.01,6.5,2.18,4,5,4h21.99    C27.5,4.01,30,4.18,30,7V8z"/>
	</g>
</g>
</svg>
