<?xml version="1.0" encoding="utf-8"?>
<!-- Generator: Adobe Illustrator 16.0.0, SVG Export Plug-In . SVG Version: 6.00 Build 0)  -->
<!DOCTYPE svg PUBLIC "-//W3C//DTD SVG 1.1//EN" "http://www.w3.org/Graphics/SVG/1.1/DTD/svg11.dtd">
<svg xmlns="http://www.w3.org/2000/svg" xmlns:xlink="http://www.w3.org/1999/xlink" version="1.1" id="Capa_1" x="0px" y="0px" width="32px" height="32px" viewBox="0 0 32 32" enable-background="new 0 0 32 32" xml:space="preserve">
<path d="M0,2v28h10v2h16v-2h6V2H0z M24,30H12v-6h2.54C14.2,24.59,14,25.27,14,26c0,2.21,1.79,4,4,4s4-1.79,4-4  c0-0.73-0.2-1.41-0.54-2H24V30z M16,26c0-1.1,0.9-2,2-2c1.1,0,2,0.9,2,2s-0.9,2-2,2C16.9,28,16,27.1,16,26z M30,28h-4v-4h2v-2H8v2h2  v4H2V4h28V28z"/>
<path d="M4,6v14h16V6H4z M18,18H6V8h12V18z"/>
<rect x="22" y="8" width="6" height="2"/>
<rect x="22" y="12" width="6" height="2"/>
<rect x="22" y="16" width="6" height="2"/>
</svg>
