<?xml version="1.0" encoding="utf-8"?>
<!-- Generator: Adobe Illustrator 16.0.0, SVG Export Plug-In . SVG Version: 6.00 Build 0)  -->
<!DOCTYPE svg PUBLIC "-//W3C//DTD SVG 1.1//EN" "http://www.w3.org/Graphics/SVG/1.1/DTD/svg11.dtd">
<svg xmlns="http://www.w3.org/2000/svg" xmlns:xlink="http://www.w3.org/1999/xlink" version="1.1" id="Capa_1" x="0px" y="0px" width="32px" height="32px" viewBox="0 0 32 32" enable-background="new 0 0 32 32" xml:space="preserve">
<g>
	<path d="M18,14v2h12v-2h-2.31l-3-8H28V4H18V2h-6v2H2v2h3.31l-3,8H0v2h12v-2H9.69l-3-8H12v2h2v20h-4v2h10v-2h-4V8h2V6h5.31l-3,8H18z    M7.56,14H4.44L6,9.85L7.56,14z M16,6h-2V4h2V6z M24,9.85L25.56,14H22.44L24,9.85z"/>
</g>
<g>
	<rect x="2" y="18" width="8" height="2"/>
</g>
<g>
	<rect x="20" y="18" width="8" height="2"/>
</g>
</svg>
