<?xml version="1.0" encoding="utf-8"?>
<!-- Generator: Adobe Illustrator 16.0.0, SVG Export Plug-In . SVG Version: 6.00 Build 0)  -->
<!DOCTYPE svg PUBLIC "-//W3C//DTD SVG 1.1//EN" "http://www.w3.org/Graphics/SVG/1.1/DTD/svg11.dtd">
<svg xmlns="http://www.w3.org/2000/svg" xmlns:xlink="http://www.w3.org/1999/xlink" version="1.1" id="Capa_1" x="0px" y="0px" width="32px" height="32px" viewBox="0 0 32 32" enable-background="new 0 0 32 32" xml:space="preserve">
<g>
	<path d="M26,24v-8h2v-2H4v2h2v8H2v2h28v-2H26z M12,24H8v-8h4V24z M14,24v-8h4v8H14z M24,24h-4v-8h4V24z"/>
</g>
<g>
	<rect y="28" width="32" height="2"/>
</g>
<g>
	<path d="M31.47,10.12l-15-8c-0.29-0.16-0.65-0.16-0.94,0l-15,8c-0.41,0.21-0.61,0.68-0.5,1.12C0.14,11.69,0.54,12,1,12h30   c0.46,0,0.86-0.31,0.97-0.76C32.08,10.8,31.88,10.33,31.47,10.12z M5,10l11-5.87L27,10H5z"/>
</g>
</svg>
