<?xml version="1.0" encoding="utf-8"?>
<!-- Generator: Adobe Illustrator 16.0.0, SVG Export Plug-In . SVG Version: 6.00 Build 0)  -->
<!DOCTYPE svg PUBLIC "-//W3C//DTD SVG 1.1//EN" "http://www.w3.org/Graphics/SVG/1.1/DTD/svg11.dtd">
<svg xmlns="http://www.w3.org/2000/svg" xmlns:xlink="http://www.w3.org/1999/xlink" version="1.1" id="Capa_1" x="0px" y="0px" width="32px" height="32px" viewBox="0 0 32 32" enable-background="new 0 0 32 32" xml:space="preserve">
<path d="M0,2v14h14V2H0z M12,14H2V4h10V14z"/>
<path d="M16,2v14h14V2H16z M28,14H18V4h10V14z"/>
<path d="M0,18v14h14V18H0z M12,30H2V20h10V30z"/>
<path d="M16,18v14h14V18H16z M28,30H18V20h10V30z"/>
<polygon points="10,8 10,10 8,10 8,12 6,12 6,10 4,10 4,8 6,8 6,6 8,6 8,8 "/>
<polygon points="8.42,25 9.83,26.41 8.42,27.83 7,26.42 5.59,27.83 4.17,26.41 5.58,25 4.17,23.59 5.59,22.17 7,23.58 8.42,22.17   9.83,23.59 "/>
<rect x="20" y="8" width="6" height="2"/>
<rect x="20.002" y="23.996" transform="matrix(0.7071 -0.7071 0.7071 0.7071 -10.9411 23.5858)" width="5.997" height="2.008"/>
</svg>
