<?xml version="1.0" encoding="utf-8"?>
<!-- Generator: Adobe Illustrator 16.0.0, SVG Export Plug-In . SVG Version: 6.00 Build 0)  -->
<!DOCTYPE svg PUBLIC "-//W3C//DTD SVG 1.1//EN" "http://www.w3.org/Graphics/SVG/1.1/DTD/svg11.dtd">
<svg xmlns="http://www.w3.org/2000/svg" xmlns:xlink="http://www.w3.org/1999/xlink" version="1.1" id="Capa_1" x="0px" y="0px" width="32px" height="32px" viewBox="0 0 32 32" enable-background="new 0 0 32 32" xml:space="preserve">
<g>
	<g>
		<path d="M15,2C6.72,2,0,8.72,0,17c0,8.28,6.72,15,15,15c8.28,0,15-6.72,15-15C30,8.72,23.28,2,15,2z M15,30C7.83,30,2,24.17,2,17    S7.83,4,15,4s13,5.83,13,13S22.17,30,15,30z"/>
	</g>
</g>
<g>
	<path d="M12,6v13c0,1.73-1.04,5-5,5c-1.21,0-3-0.8-3-3v-3h2v3c0,0.81,0.55,0.99,1.01,1c2.81,0,2.98-2.5,2.99-3.01V6H12z"/>
</g>
<g>
	<path d="M22,10c0,2.08-1.04,6-5,6c-2.2,0-3-1.79-3-3V6h2v7c0.01,0.45,0.19,1,1,1c2.97,0,3-3.84,3-4H22z"/>
</g>
<g>
	<rect x="14" y="18" width="2" height="2"/>
</g>
<g>
	<rect x="18" y="18" width="2" height="2"/>
</g>
<g>
	<path d="M24,16v5c0,1.73-1.04,5-5,5c-2.2,0-3-1.79-3-3v-1h2v1c0.01,0.45,0.19,1,1,1c2.82,0,2.99-2.5,3-3.01V16H24z"/>
</g>
</svg>
