<?xml version="1.0" encoding="utf-8"?>
<!-- Generator: Adobe Illustrator 16.0.0, SVG Export Plug-In . SVG Version: 6.00 Build 0)  -->
<!DOCTYPE svg PUBLIC "-//W3C//DTD SVG 1.1//EN" "http://www.w3.org/Graphics/SVG/1.1/DTD/svg11.dtd">
<svg xmlns="http://www.w3.org/2000/svg" xmlns:xlink="http://www.w3.org/1999/xlink" version="1.1" id="Capa_1" x="0px" y="0px" width="32px" height="32px" viewBox="0 0 32 32" enable-background="new 0 0 32 32" xml:space="preserve">
<g>
	<g>
		<path d="M15,2C6.72,2,0,8.72,0,17c0,8.28,6.72,15,15,15c8.28,0,15-6.72,15-15C30,8.72,23.28,2,15,2z M15,30C7.83,30,2,24.17,2,17    S7.83,4,15,4s13,5.83,13,13S22.17,30,15,30z"/>
	</g>
</g>
<g>
	<path d="M19.33,18.49C20.96,17.22,22,15.23,22,13c0-3.87-3.13-7-7-7s-7,3.13-7,7c0,2.91,1.77,5.4,4.29,6.46   C8.05,22.45,8,25.84,8,26l2,0.01c0-0.14,0.14-3.38,5.24-6.01H17c2.82,0,2.99,2.5,3,3v3h2v-3C22,21.68,21.39,19.45,19.33,18.49z    M15,18c-2.76,0-5-2.24-5-5s2.24-5,5-5s5,2.24,5,5S17.76,18,15,18z"/>
</g>
</svg>
