<?xml version="1.0" encoding="utf-8"?>
<!-- Generator: Adobe Illustrator 16.0.0, SVG Export Plug-In . SVG Version: 6.00 Build 0)  -->
<!DOCTYPE svg PUBLIC "-//W3C//DTD SVG 1.1//EN" "http://www.w3.org/Graphics/SVG/1.1/DTD/svg11.dtd">
<svg xmlns="http://www.w3.org/2000/svg" xmlns:xlink="http://www.w3.org/1999/xlink" version="1.1" id="Capa_1" x="0px" y="0px" width="32px" height="32px" viewBox="0 0 32 32" enable-background="new 0 0 32 32" xml:space="preserve">
<g>
	<path d="M15,2C6.72,2,0,8.72,0,17c0,8.28,6.72,15,15,15c8.28,0,15-6.72,15-15C30,8.72,23.28,2,15,2z M15,30C7.83,30,2,24.17,2,17   S7.83,4,15,4s13,5.83,13,13S22.17,30,15,30z"/>
</g>
<path d="M20,14v-1c0-1.57-0.86-4.42-4-4.91V6h-2v2.1c-1.76,0.34-4,1.62-4,4.9c0,2.4,2.02,3.61,4,4.61v6.229  c-0.89-0.26-2-0.96-2-2.84v-1h-2v1c0,3.28,2.24,4.56,4,4.9V28h2v-2.1c1.76-0.341,4-1.62,4-4.9c0-2.4-2.02-3.61-4-4.61v-6.26  c1.85,0.51,1.99,2.42,2,2.87v1H20z M14,15.35c-1.27-0.72-2-1.38-2-2.35c0-1.88,1.11-2.58,2-2.84V15.35z M18,21  c0,1.88-1.11,2.58-2,2.84V18.65C17.27,19.37,18,20.03,18,21z"/>
</svg>
