<?xml version="1.0" encoding="utf-8"?>
<!-- Generator: Adobe Illustrator 16.0.0, SVG Export Plug-In . SVG Version: 6.00 Build 0)  -->
<!DOCTYPE svg PUBLIC "-//W3C//DTD SVG 1.1//EN" "http://www.w3.org/Graphics/SVG/1.1/DTD/svg11.dtd">
<svg xmlns="http://www.w3.org/2000/svg" xmlns:xlink="http://www.w3.org/1999/xlink" version="1.1" id="Capa_1" x="0px" y="0px" width="32px" height="32px" viewBox="0 0 32 32" enable-background="new 0 0 32 32" xml:space="preserve">
<g>
	<g>
		<path d="M15,2C6.72,2,0,8.72,0,17c0,8.28,6.72,15,15,15c8.28,0,15-6.72,15-15C30,8.72,23.28,2,15,2z M15,30C7.83,30,2,24.17,2,17    S7.83,4,15,4s13,5.83,13,13S22.17,30,15,30z"/>
	</g>
</g>
<g>
	<path d="M22.05,21.68l1.9,0.641C23.9,22.47,22.66,26,17,26c-5.22,0-7.63-3.06-8.53-6H4l2-2h2.05C8.02,17.65,8,17.32,8,17   c0-0.32,0.02-0.65,0.05-1H4l2-2h2.47c0.9-2.94,3.31-6,8.53-6c5.66,0,6.9,3.53,6.95,3.68l-1.891,0.65C22.02,12.24,21.14,10,17,10   c-3.93,0-5.65,2.1-6.41,4H22l-2,2h-9.92C10.01,16.49,10,16.86,10,17c0,0.14,0.01,0.51,0.08,1H20l-2,2h-7.41c0.76,1.9,2.48,4,6.41,4   C21.16,24,22.04,21.71,22.05,21.68z"/>
</g>
</svg>
