<?xml version="1.0" encoding="utf-8"?>
<!-- Generator: Adobe Illustrator 16.0.0, SVG Export Plug-In . SVG Version: 6.00 Build 0)  -->
<!DOCTYPE svg PUBLIC "-//W3C//DTD SVG 1.1//EN" "http://www.w3.org/Graphics/SVG/1.1/DTD/svg11.dtd">
<svg xmlns="http://www.w3.org/2000/svg" xmlns:xlink="http://www.w3.org/1999/xlink" version="1.1" id="Capa_1" x="0px" y="0px" width="32px" height="32px" viewBox="0 0 32 32" enable-background="new 0 0 32 32" xml:space="preserve">
<g>
	<g>
		<path d="M15,2C6.72,2,0,8.72,0,17c0,8.28,6.72,15,15,15c8.28,0,15-6.72,15-15C30,8.72,23.28,2,15,2z M15,30C7.83,30,2,24.17,2,17    S7.83,4,15,4s13,5.83,13,13S22.17,30,15,30z"/>
	</g>
</g>
<g>
	<path d="M22,10h-2.88c0.39,0.53,0.67,1.19,0.79,2H22v2h-2.09c-0.49,3.14-3.34,4-4.91,4h-3.59l8.3,8.29l-1.42,1.42l-10-10   c-0.28-0.29-0.37-0.72-0.21-1.09C8.23,16.24,8.6,16,9,16h6c0.43-0.01,2.36-0.14,2.87-2H8v-2h9.87c-0.51-1.86-2.44-1.99-2.88-2H8V8   h14V10z"/>
</g>
</svg>
