<?xml version="1.0" encoding="utf-8"?>
<!-- Generator: Adobe Illustrator 16.0.0, SVG Export Plug-In . SVG Version: 6.00 Build 0)  -->
<!DOCTYPE svg PUBLIC "-//W3C//DTD SVG 1.1//EN" "http://www.w3.org/Graphics/SVG/1.1/DTD/svg11.dtd">
<svg xmlns="http://www.w3.org/2000/svg" xmlns:xlink="http://www.w3.org/1999/xlink" version="1.1" id="Capa_1" x="0px" y="0px" width="32px" height="32px" viewBox="0 0 32 32" enable-background="new 0 0 32 32" xml:space="preserve">
<g>
	<g>
		<path d="M15,2C6.72,2,0,8.72,0,17c0,8.28,6.72,15,15,15c8.28,0,15-6.72,15-15C30,8.72,23.28,2,15,2z M15,30C7.83,30,2,24.17,2,17    S7.83,4,15,4s13,5.83,13,13S22.17,30,15,30z"/>
	</g>
</g>
<path d="M12,22v-2h5c1.73,0,5-1.25,5-6s-3.27-6-5-6h-7v14H8v2h2v4h2v-4h12v-2H12z M12,10h5c0.12,0,3,0.05,3,4c0,3.83-2.7,3.99-3,4  h-5V10z"/>
</svg>
