<?xml version="1.0" encoding="utf-8"?>
<!-- Generator: Adobe Illustrator 16.0.0, SVG Export Plug-In . SVG Version: 6.00 Build 0)  -->
<!DOCTYPE svg PUBLIC "-//W3C//DTD SVG 1.1//EN" "http://www.w3.org/Graphics/SVG/1.1/DTD/svg11.dtd">
<svg xmlns="http://www.w3.org/2000/svg" xmlns:xlink="http://www.w3.org/1999/xlink" version="1.1" id="Capa_1" x="0px" y="0px" width="32px" height="32px" viewBox="0 0 32 32" enable-background="new 0 0 32 32" xml:space="preserve">
<g>
	<g>
		<path d="M15,2C6.72,2,0,8.72,0,17c0,8.28,6.72,15,15,15c8.28,0,15-6.72,15-15C30,8.72,23.28,2,15,2z M15,30C7.83,30,2,24.17,2,17    S7.83,4,15,4s13,5.83,13,13S22.17,30,15,30z"/>
	</g>
</g>
<path d="M18,14v-1c-0.01-0.52-0.19-3-3-3c-0.5,0.01-3,0.18-3,3c0,1.29,1.3,2.03,3.45,3.11C17.58,17.17,20,18.38,20,21  c0,2.07-0.9,3.35-2,4.08V28h-2v-2.1c-0.36,0.069-0.71,0.1-1,0.1s-0.64-0.03-1-0.1V28h-2v-2.92c-1.1-0.73-2-2.01-2-4.08v-1h2v1  c0,2.82,2.5,2.99,3.01,3C15.5,23.99,18,23.82,18,21c0-1.29-1.3-2.03-3.45-3.11C12.42,16.83,10,15.62,10,13c0-2.07,0.9-3.35,2-4.08V6  h2v2.1C14.36,8.03,14.71,8,15,8c0.36,0,0.69,0.03,1,0.09V6h2v2.88c1.53,1.08,2,2.95,2,4.12v1H18z"/>
</svg>
