<?xml version="1.0" encoding="utf-8"?>
<!-- Generator: Adobe Illustrator 16.0.0, SVG Export Plug-In . SVG Version: 6.00 Build 0)  -->
<!DOCTYPE svg PUBLIC "-//W3C//DTD SVG 1.1//EN" "http://www.w3.org/Graphics/SVG/1.1/DTD/svg11.dtd">
<svg xmlns="http://www.w3.org/2000/svg" xmlns:xlink="http://www.w3.org/1999/xlink" version="1.1" id="Capa_1" x="0px" y="0px" width="32px" height="32px" viewBox="0 0 32 32" enable-background="new 0 0 32 32" xml:space="preserve">
<g>
	<path d="M11,30c-4.962,0-9-4.037-9-9c0-4.962,4.038-9,9-9s9,4.038,9,9C20,25.963,15.962,30,11,30z M11,14c-3.86,0-7,3.141-7,7   s3.14,7,7,7s7-3.141,7-7S14.86,14,11,14z"/>
</g>
<g>
	<rect x="10" y="16" width="2" height="10"/>
</g>
<g>
	<path d="M12,2v8h16v4h-8v2h8v4h-6v2h6v4h-6v2h8V2H12z M28,8H14V4h14V8z"/>
</g>
</svg>
