<?xml version="1.0" encoding="utf-8"?>
<!-- Generator: Adobe Illustrator 16.0.0, SVG Export Plug-In . SVG Version: 6.00 Build 0)  -->
<!DOCTYPE svg PUBLIC "-//W3C//DTD SVG 1.1//EN" "http://www.w3.org/Graphics/SVG/1.1/DTD/svg11.dtd">
<svg xmlns="http://www.w3.org/2000/svg" xmlns:xlink="http://www.w3.org/1999/xlink" version="1.1" id="Capa_1" x="0px" y="0px" width="32px" height="32px" viewBox="0 0 32 32" enable-background="new 0 0 32 32" xml:space="preserve">
<g>
	<g>
		<path d="M15,2C6.72,2,0,8.72,0,17c0,8.28,6.72,15,15,15c8.28,0,15-6.72,15-15C30,8.72,23.28,2,15,2z M15,30C7.83,30,2,24.17,2,17    S7.83,4,15,4s13,5.83,13,13S22.17,30,15,30z"/>
	</g>
</g>
<g>
	<path d="M18,12v-1c-0.01-0.5-0.18-3-3-3c-2.73,0-3,1.45-3,5c0,0.74-0.11,1.8-0.28,3H18v2h-6.59c-0.39,2.26-0.88,4.62-1.17,6H20v2   H7.75l0.27-1.22C8.03,24.72,8.8,21.28,9.37,18H6v-2h3.69C9.88,14.78,10,13.71,10,13c0-2.95,0-7,5-7c3.96,0,5,3.27,5,5v1H18z"/>
</g>
</svg>
