<?xml version="1.0" encoding="utf-8"?>
<!-- Generator: Adobe Illustrator 16.0.0, SVG Export Plug-In . SVG Version: 6.00 Build 0)  -->
<!DOCTYPE svg PUBLIC "-//W3C//DTD SVG 1.1//EN" "http://www.w3.org/Graphics/SVG/1.1/DTD/svg11.dtd">
<svg xmlns="http://www.w3.org/2000/svg" xmlns:xlink="http://www.w3.org/1999/xlink" version="1.1" id="Capa_1" x="0px" y="0px" width="32px" height="32px" viewBox="0 0 32 32" enable-background="new 0 0 32 32" xml:space="preserve">
<g>
	<path d="M15,2C6.72,2,0,8.72,0,17c0,8.28,6.72,15,15,15c8.28,0,15-6.72,15-15C30,8.72,23.28,2,15,2z M15,30C7.83,30,2,24.17,2,17   S7.83,4,15,4s13,5.83,13,13S22.17,30,15,30z"/>
</g>
<g>
	<path d="M18,20h2c0,1.26-0.86,3.54-4,3.93V28h-2v-4.09c-3.14-0.601-4-4.021-4-5.91v-2c0-1.89,0.86-5.31,4-5.91V6h2v4.09   c3.14,0.49,4,3.34,4,4.91h-2c-0.01-0.52-0.19-3-3-3c-2.97,0-3,3.84-3,4v2c0,0.16,0.06,4,3,4C17.97,22,18,20.08,18,20z"/>
	<path d="M19,15l-1,0.01c0,0,0,0,0-0.01H19z"/>
</g>
</svg>
