<?xml version="1.0" encoding="utf-8"?>
<!-- Generator: Adobe Illustrator 16.0.0, SVG Export Plug-In . SVG Version: 6.00 Build 0)  -->
<!DOCTYPE svg PUBLIC "-//W3C//DTD SVG 1.1//EN" "http://www.w3.org/Graphics/SVG/1.1/DTD/svg11.dtd">
<svg xmlns="http://www.w3.org/2000/svg" xmlns:xlink="http://www.w3.org/1999/xlink" version="1.1" id="Capa_1" x="0px" y="0px" width="32px" height="32px" viewBox="0 0 32 32" enable-background="new 0 0 32 32" xml:space="preserve">
<g>
	<path d="M15,2C6.72,2,0,8.72,0,17c0,8.28,6.72,15,15,15c8.28,0,15-6.72,15-15C30,8.72,23.28,2,15,2z M15,30C7.83,30,2,24.17,2,17   S7.83,4,15,4s13,5.83,13,13S22.17,30,15,30z"/>
</g>
<g>
	<path d="M19,14.74c0.59-0.63,1-1.53,1-2.74c0-1.81-0.92-2.92-2-3.49V6h-2v2h-2V6h-2v2h-2v18h2v2h2v-2h2v2h2v-2.13   c1.76-0.4,4-1.93,4-5.87C22,17.15,20.58,15.55,19,14.74z M12,10h4c0.33,0,2,0.1,2,2c0,1.83-1.54,1.99-2,2h-4V10z M16.99,24H12v-8h4   c0.16,0,4,0.05,4,4C20,23.82,17.31,23.99,16.99,24z"/>
</g>
</svg>
