<?xml version="1.0" encoding="utf-8"?>
<!-- Generator: Adobe Illustrator 16.0.0, SVG Export Plug-In . SVG Version: 6.00 Build 0)  -->
<!DOCTYPE svg PUBLIC "-//W3C//DTD SVG 1.1//EN" "http://www.w3.org/Graphics/SVG/1.1/DTD/svg11.dtd">
<svg xmlns="http://www.w3.org/2000/svg" xmlns:xlink="http://www.w3.org/1999/xlink" version="1.1" id="Capa_1" x="0px" y="0px" width="32px" height="32px" viewBox="0 0 32 32" enable-background="new 0 0 32 32" xml:space="preserve">
<g>
	<g>
		<path d="M15,2C6.72,2,0,8.72,0,17c0,8.28,6.72,15,15,15c8.28,0,15-6.72,15-15C30,8.72,23.28,2,15,2z M15,30C7.83,30,2,24.17,2,17    S7.83,4,15,4s13,5.83,13,13S22.17,30,15,30z"/>
	</g>
</g>
<path d="M24,12h-2.4C20.44,8.05,17.04,8,17,8h-7v4H8v2h2v2H8v2h2v10h2v-6h5c0.04,0,3.44-0.05,4.6-4H24v-2h-2.04  c0.03-0.31,0.04-0.65,0.04-1s-0.01-0.69-0.04-1H24V12z M12,10h4.99c0.22,0.01,1.71,0.12,2.5,2H12V10z M17,20h-5v-2h7.49  C18.7,19.88,17.22,19.99,17,20z M19.95,16H12v-2h7.95c0.03,0.31,0.05,0.64,0.05,1S19.98,15.69,19.95,16z"/>
</svg>
