<?xml version="1.0" encoding="utf-8"?>
<!-- Generator: Adobe Illustrator 16.0.0, SVG Export Plug-In . SVG Version: 6.00 Build 0)  -->
<!DOCTYPE svg PUBLIC "-//W3C//DTD SVG 1.1//EN" "http://www.w3.org/Graphics/SVG/1.1/DTD/svg11.dtd">
<svg xmlns="http://www.w3.org/2000/svg" xmlns:xlink="http://www.w3.org/1999/xlink" version="1.1" id="Capa_1" x="0px" y="0px" width="32px" height="32px" viewBox="0 0 32 32" enable-background="new 0 0 32 32" xml:space="preserve">
<g>
	<path d="M25,32H7c-1.206,0-3-0.799-3-3V3c0-1.206,0.799-3,3-3h18c1.206,0,3,0.799,3,3v26C28,30.206,27.201,32,25,32z M24.988,2H7   C6.195,2,6.012,2.55,6,3.012V29c0,0.806,0.55,0.988,1.012,1H25c0.806,0,0.988-0.55,1-1.012V3C26,2.195,25.45,2.012,24.988,2z"/>
</g>
<g>
	<rect x="12" y="6" width="8" height="2"/>
</g>
<g>
	<rect x="8" y="10" width="16" height="2"/>
</g>
<g>
	<rect x="8" y="14" width="16" height="2"/>
</g>
<g>
	<rect x="8" y="18" width="14" height="2"/>
</g>
<g>
	<rect x="18" y="24" width="6" height="2"/>
</g>
<g>
	<rect x="14" y="24" width="2" height="2"/>
</g>
</svg>
