<?xml version="1.0" encoding="utf-8"?>
<!-- Generator: Adobe Illustrator 16.0.0, SVG Export Plug-In . SVG Version: 6.00 Build 0)  -->
<!DOCTYPE svg PUBLIC "-//W3C//DTD SVG 1.1//EN" "http://www.w3.org/Graphics/SVG/1.1/DTD/svg11.dtd">
<svg xmlns="http://www.w3.org/2000/svg" xmlns:xlink="http://www.w3.org/1999/xlink" version="1.1" id="Capa_1" x="0px" y="0px" width="32px" height="32px" viewBox="0 0 32 32" enable-background="new 0 0 32 32" xml:space="preserve">
<g>
	<path d="M29,4H3C0.8,4,0,5.79,0,7v16c0,2.2,1.79,3,3,3h26c2.2,0,3-1.79,3-3V7C32,4.8,30.21,4,29,4z M2,7.01C2.01,6.55,2.19,6,3,6   h25.99C29.45,6.01,30,6.19,30,7v3H2V7.01z M30,22.99C29.99,23.45,29.81,24,29,24H3.01C2.55,23.99,2,23.81,2,23v-9h28V22.99z"/>
</g>
<g>
	<rect x="20" y="20" width="8" height="2"/>
</g>
<g>
	<rect x="16" y="20" width="2" height="2"/>
</g>
</svg>
