<?xml version="1.0" encoding="utf-8"?>
<!-- Generator: Adobe Illustrator 16.0.0, SVG Export Plug-In . SVG Version: 6.00 Build 0)  -->
<!DOCTYPE svg PUBLIC "-//W3C//DTD SVG 1.1//EN" "http://www.w3.org/Graphics/SVG/1.1/DTD/svg11.dtd">
<svg xmlns="http://www.w3.org/2000/svg" xmlns:xlink="http://www.w3.org/1999/xlink" version="1.1" id="Capa_1" x="0px" y="0px" width="32px" height="32px" viewBox="0 0 32 32" enable-background="new 0 0 32 32" xml:space="preserve">
<g>
	<path d="M24.38,14.8C25.3,14.03,26,12.83,26,11c0-3.96-3.27-5-5-5h-3V4h-2v2H8v22h8v2h2v-2h3c2.42,0,7-1.46,7-7   C28,17.6,26.27,15.74,24.38,14.8z M16,26h-6V16h6V26z M16,14h-6V8h6V14z M18,8h2.99C21.5,8.01,24,8.18,24,11s-2.5,2.99-3,3h-3V8z    M21,26h-3V16h3c0.2,0,5,0.06,5,5C26,25.82,21.52,26,21,26z"/>
</g>
</svg>
