<?xml version="1.0" encoding="utf-8"?>
<!-- Generator: Adobe Illustrator 16.0.0, SVG Export Plug-In . SVG Version: 6.00 Build 0)  -->
<!DOCTYPE svg PUBLIC "-//W3C//DTD SVG 1.1//EN" "http://www.w3.org/Graphics/SVG/1.1/DTD/svg11.dtd">
<svg xmlns="http://www.w3.org/2000/svg" xmlns:xlink="http://www.w3.org/1999/xlink" version="1.1" id="Capa_1" x="0px" y="0px" width="32px" height="32px" viewBox="0 0 32 32" enable-background="new 0 0 32 32" xml:space="preserve">
<g>
	<path d="M26,6h-5.9c0.94,0.92,1.65,2.21,1.851,4H26l-2,2h-2.05c-0.521,4.721-4.681,6-6.95,6H9.41L20,28.59L18.59,30L6.29,17.71   c-0.28-0.29-0.37-0.72-0.21-1.09C6.23,16.24,6.6,16,7,16h8c0.471,0,4.35-0.15,4.93-4H6l2-2h11.93C19.32,6.05,15.189,6,15,6H6V4h20   V6z"/>
</g>
</svg>
