<?xml version="1.0" encoding="utf-8"?>
<!-- Generator: Adobe Illustrator 16.0.0, SVG Export Plug-In . SVG Version: 6.00 Build 0)  -->
<!DOCTYPE svg PUBLIC "-//W3C//DTD SVG 1.1//EN" "http://www.w3.org/Graphics/SVG/1.1/DTD/svg11.dtd">
<svg xmlns="http://www.w3.org/2000/svg" xmlns:xlink="http://www.w3.org/1999/xlink" version="1.1" id="Capa_1" x="0px" y="0px" width="32px" height="32px" viewBox="0 0 32 32" enable-background="new 0 0 32 32" xml:space="preserve">
<g>
	<path d="M26.2,24.4l1.6,1.199C27.67,25.78,24.43,30,18,30c-5.64,0-9.92-3.14-11.42-8H2l2-2h2.14C6.05,19.36,6,18.69,6,18   s0.05-1.36,0.14-2H2l2-2h2.58C8.08,9.14,12.36,6,18,6c6.43,0,9.67,4.22,9.8,4.4L26.2,11.6C26.09,11.46,23.39,8,18,8   c-3.89,0-7.81,1.89-9.33,6H24l-2,2H8.16C8.05,16.63,8,17.29,8,18s0.05,1.37,0.16,2H22l-2,2H8.67c1.521,4.11,5.44,6,9.33,6   C23.39,28,26.09,24.54,26.2,24.4z"/>
</g>
</svg>
