<?xml version="1.0" encoding="utf-8"?>
<!-- Generator: Adobe Illustrator 16.0.0, SVG Export Plug-In . SVG Version: 6.00 Build 0)  -->
<!DOCTYPE svg PUBLIC "-//W3C//DTD SVG 1.1//EN" "http://www.w3.org/Graphics/SVG/1.1/DTD/svg11.dtd">
<svg xmlns="http://www.w3.org/2000/svg" xmlns:xlink="http://www.w3.org/1999/xlink" version="1.1" id="Capa_1" x="0px" y="0px" width="32px" height="32px" viewBox="0 0 32 32" enable-background="new 0 0 32 32" xml:space="preserve">
<g>
	<g>
		<path d="M24,17c0-2.12-0.74-4.07-1.97-5.609l3.68-3.681l-1.42-1.42l-3.68,3.681C19.07,8.74,17.12,8,15,8s-4.07,0.74-5.609,1.971    L5.71,6.29L4.29,7.71l3.681,3.681C6.74,12.93,6,14.88,6,17s0.74,4.07,1.971,5.61L4.29,26l1.42,1.42l3.681-3.39    C10.93,25.26,12.88,26,15,26s4.07-0.74,5.61-1.97l3.68,3.68l1.42-1.42l-3.68-3.68C23.26,21.07,24,19.12,24,17z M15,24    c-3.859,0-7-3.14-7-7c0-3.859,3.141-7,7-7c3.86,0,7,3.141,7,7C22,20.86,18.86,24,15,24z"/>
	</g>
</g>
</svg>
