<?xml version="1.0" encoding="utf-8"?>
<!-- Generator: Adobe Illustrator 16.0.0, SVG Export Plug-In . SVG Version: 6.00 Build 0)  -->
<!DOCTYPE svg PUBLIC "-//W3C//DTD SVG 1.1//EN" "http://www.w3.org/Graphics/SVG/1.1/DTD/svg11.dtd">
<svg xmlns="http://www.w3.org/2000/svg" xmlns:xlink="http://www.w3.org/1999/xlink" version="1.1" id="Capa_1" x="0px" y="0px" width="32px" height="32px" viewBox="0 0 32 32" enable-background="new 0 0 32 32" xml:space="preserve">
<g>
	<path d="M22.38,14.8C23.3,14.03,24,12.83,24,11c0-3.96-3.27-5-5-5h-1V4h-2v2h-2V4h-2v2H8v22h4v2h2v-2h2v2h2v-2h1c2.42,0,7-1.46,7-7   C26,17.6,24.27,15.74,22.38,14.8z M10,8h8.99C19.5,8.01,22,8.18,22,11s-2.5,2.99-3,3h-9V8z M19,26h-9V16h9c0.2,0,5,0.06,5,5   C24,25.82,19.52,26,19,26z"/>
</g>
</svg>
