<?xml version="1.0" encoding="utf-8"?>
<!-- Generator: Adobe Illustrator 16.0.0, SVG Export Plug-In . SVG Version: 6.00 Build 0)  -->
<!DOCTYPE svg PUBLIC "-//W3C//DTD SVG 1.1//EN" "http://www.w3.org/Graphics/SVG/1.1/DTD/svg11.dtd">
<svg xmlns="http://www.w3.org/2000/svg" xmlns:xlink="http://www.w3.org/1999/xlink" version="1.1" id="Capa_1" x="0px" y="0px" width="32px" height="32px" viewBox="0 0 32 32" enable-background="new 0 0 32 32" xml:space="preserve">
<g>
	<path d="M26,30V14h-8.59l4.3-4.29l-1.42-1.42L18,10.59V1h-2v9.59l-2.29-2.3l-1.42,1.42l4.3,4.29H8v16H4v2h26v-2H26z M17,30   c-1.65,0-3-1.35-3-3s1.35-3,3-3c1.65,0,3,1.35,3,3S18.65,30,17,30z M24,30h-3c0.63-0.83,1-1.87,1-3c0-2.76-2.24-5-5-5s-5,2.24-5,5   c0,1.13,0.37,2.17,1,3h-3V16h14V30z"/>
</g>
</svg>
