<?xml version="1.0" encoding="utf-8"?>
<!-- Generator: Adobe Illustrator 16.0.0, SVG Export Plug-In . SVG Version: 6.00 Build 0)  -->
<!DOCTYPE svg PUBLIC "-//W3C//DTD SVG 1.1//EN" "http://www.w3.org/Graphics/SVG/1.1/DTD/svg11.dtd">
<svg xmlns="http://www.w3.org/2000/svg" xmlns:xlink="http://www.w3.org/1999/xlink" version="1.1" id="Capa_1" x="0px" y="0px" width="32px" height="32px" viewBox="0 0 32 32" enable-background="new 0 0 32 32" xml:space="preserve">
<g>
	<polygon points="30,10 30,30 32,30 32,32 26,32 26,30 28,30 28,10 26,10 26,8 32,8 32,10  "/>
	<polygon points="24,0 24,6 22,6 22,4 2,4 2,6 0,6 0,0 2,0 2,2 22,2 22,0  "/>
	<path d="M0,8v24h24V8H0z M22,30H2V10h20V30z"/>
</g>
</svg>
