<?xml version="1.0" encoding="utf-8"?>
<!-- Generator: Adobe Illustrator 16.0.0, SVG Export Plug-In . SVG Version: 6.00 Build 0)  -->
<!DOCTYPE svg PUBLIC "-//W3C//DTD SVG 1.1//EN" "http://www.w3.org/Graphics/SVG/1.1/DTD/svg11.dtd">
<svg xmlns="http://www.w3.org/2000/svg" xmlns:xlink="http://www.w3.org/1999/xlink" version="1.1" id="Capa_1" x="0px" y="0px" width="32px" height="32px" viewBox="0 0 32 32" enable-background="new 0 0 32 32" xml:space="preserve">
<g>
	<g>
		<path d="M29,6h-7V4H3C0.8,4,0,5.79,0,7v16c0,1.21,0.8,3,3,3h1c0,2.21,1.79,4,4,4s4-1.79,4-4h8c0,2.21,1.79,4,4,4s4-1.79,4-4h1    c2.2,0,3-1.79,3-3V9C32,6.8,30.21,6,29,6z M8,28c-1.1,0-2-0.9-2-2s0.9-2,2-2s2,0.9,2,2S9.1,28,8,28z M24,28c-1.1,0-2-0.9-2-2    s0.9-2,2-2s2,0.9,2,2S25.1,28,24,28z M30,20h-2v2h2v0.99C29.99,23.45,29.81,24,29,24h-1.54c-0.69-1.2-1.979-2-3.46-2    s-2.77,0.8-3.46,2h-9.08c-0.69-1.2-1.98-2-3.46-2s-2.77,0.8-3.46,2H3c-0.81,0-0.99-0.55-1-1v-1h2v-2H2v-6h10.59l-2.3,2.29    l1.42,1.42l4.7-4.71l-4.7-4.71l-1.42,1.42l2.3,2.29H2V7.01C2.01,6.55,2.19,6,3,6h17v14h-8v2h10V8h2v8h6V20z M30,14h-4V8h2.99    C29.45,8.01,30,8.19,30,9V14z"/>
	</g>
</g>
</svg>
