<?xml version="1.0" encoding="utf-8"?>
<!-- Generator: Adobe Illustrator 16.0.0, SVG Export Plug-In . SVG Version: 6.00 Build 0)  -->
<!DOCTYPE svg PUBLIC "-//W3C//DTD SVG 1.1//EN" "http://www.w3.org/Graphics/SVG/1.1/DTD/svg11.dtd">
<svg xmlns="http://www.w3.org/2000/svg" xmlns:xlink="http://www.w3.org/1999/xlink" version="1.1" id="Capa_1" x="0px" y="0px" width="32px" height="32px" viewBox="0 0 32 32" enable-background="new 0 0 32 32" xml:space="preserve">
<g>
	<path d="M29.72,12l-2-6H22v6h-2.22l-2-8H12v8h-2V2H2v30h30V12H29.72z M24,30H10v-2h14V30z M24,26H10v-2h14V26z M24,22H10v-2h14V22z    M30,30h-4V18H8v12H4V4h4v10h6V6h2.22l2,8H24V8h2.28l2,6H30V30z"/>
</g>
</svg>
