<?xml version="1.0" encoding="utf-8"?>
<!-- Generator: Adobe Illustrator 16.0.0, SVG Export Plug-In . SVG Version: 6.00 Build 0)  -->
<!DOCTYPE svg PUBLIC "-//W3C//DTD SVG 1.1//EN" "http://www.w3.org/Graphics/SVG/1.1/DTD/svg11.dtd">
<svg xmlns="http://www.w3.org/2000/svg" xmlns:xlink="http://www.w3.org/1999/xlink" version="1.1" id="Capa_1" x="0px" y="0px" width="32px" height="32px" viewBox="0 0 32 32" enable-background="new 0 0 32 32" xml:space="preserve">
<g>
	<g>
		<path d="M21,14h-1v-2c0-2.21-1.79-4-4-4s-4,1.79-4,4v4h-0.99C10.55,15.99,10,15.81,10,15v-3H8v3c0,2.2,1.79,3,3,3h1v2    c0,2.21,1.79,4,4,4s4-1.79,4-4v-4h0.99c0.46,0.01,1.01,0.19,1.01,1v3h2v-3C24,14.8,22.21,14,21,14z M18,20c0,1.1-0.9,2-2,2    s-2-0.9-2-2v-8c0-1.1,0.9-2,2-2s2,0.9,2,2V20z"/>
	</g>
	<g>
		<path d="M24,10v2h-2v-2c0-0.61-0.21-6-6-6s-6,5.39-6,6H8c0-2.77,1.67-8,8-8S24,7.23,24,10z"/>
	</g>
	<g>
		<path d="M24,22c0,2.77-1.67,8-8,8s-8-5.23-8-8v-2h2v2c0,0.61,0.21,6,6,6s6-5.39,6-6H24z"/>
	</g>
</g>
</svg>
