<?xml version="1.0" encoding="utf-8"?>
<!-- Generator: Adobe Illustrator 16.0.0, SVG Export Plug-In . SVG Version: 6.00 Build 0)  -->
<!DOCTYPE svg PUBLIC "-//W3C//DTD SVG 1.1//EN" "http://www.w3.org/Graphics/SVG/1.1/DTD/svg11.dtd">
<svg xmlns="http://www.w3.org/2000/svg" xmlns:xlink="http://www.w3.org/1999/xlink" version="1.1" id="Capa_1" x="0px" y="0px" width="32px" height="32px" viewBox="0 0 32 32" enable-background="new 0 0 32 32" xml:space="preserve">
<path d="M28,14v-2h-2V9c0-0.09-0.11-9-10-9C6.11,0,6,9.9,6,10v2H4v2h2v4H4v2h2v1c0,3.11,1.88,9,9,9h9v-2h-9c-6.88,0-7-6.72-7-7v-1  h4.1c0.34,1.76,1.62,4,4.9,4h4c1.57,0,4.42-0.86,4.91-4H28v-2h-2v-4H28z M12,18H8v-4h4V18z M21,22h-4c-1.88,0-2.58-1.11-2.84-2h9.71  C23.36,21.86,21.43,21.99,21,22z M24,18H14v-4h4v2h2v-2h4V18z M14,12v-2c0-0.33,0.1-2,2-2c1.83,0,1.99,1.54,2,2v2H14z M24,12h-4v-2  c0-1.61-1.07-4-4-4c-2.93,0-4,2.39-4,4v2H8v-2c0-0.33,0.09-8,8-8c7.86,0,8,6.72,8,7V12z"/>
</svg>
