<?xml version="1.0" encoding="utf-8"?>
<!-- Generator: Adobe Illustrator 16.0.0, SVG Export Plug-In . SVG Version: 6.00 Build 0)  -->
<!DOCTYPE svg PUBLIC "-//W3C//DTD SVG 1.1//EN" "http://www.w3.org/Graphics/SVG/1.1/DTD/svg11.dtd">
<svg xmlns="http://www.w3.org/2000/svg" xmlns:xlink="http://www.w3.org/1999/xlink" version="1.1" id="Capa_1" x="0px" y="0px" width="32px" height="32px" viewBox="0 0 32 32" enable-background="new 0 0 32 32" xml:space="preserve">
<g>
	<path d="M24,30h-9c-7.119,0-9-5.887-9-9V10C6,9.9,6.114,0,16,0s10,8.91,10,9v10c0,3.955-3.271,5-5,5h-4c-3.955,0-5-3.271-5-5v-9   c0-1.608,1.065-4,4-4s4,2.392,4,4v8h-2v-8c-0.008-0.463-0.174-2-2-2c-1.904,0-2,1.666-2,2v9c0.006,0.496,0.177,3,3,3h4   c0.496-0.006,3-0.177,3-3V9c-0.002-0.283-0.139-7-8-7c-7.909,0-8,7.673-8,8v11c0.001,0.283,0.117,7,7,7h9V30z"/>
</g>
</svg>
