<?xml version="1.0" encoding="utf-8"?>
<!-- Generator: Adobe Illustrator 16.0.0, SVG Export Plug-In . SVG Version: 6.00 Build 0)  -->
<!DOCTYPE svg PUBLIC "-//W3C//DTD SVG 1.1//EN" "http://www.w3.org/Graphics/SVG/1.1/DTD/svg11.dtd">
<svg xmlns="http://www.w3.org/2000/svg" xmlns:xlink="http://www.w3.org/1999/xlink" version="1.1" id="Capa_1" x="0px" y="0px" width="32px" height="32px" viewBox="0 0 32 32" enable-background="new 0 0 32 32" xml:space="preserve">
<path d="M26,10V4H13.86C13.21,1.72,10.39,0,7,0C3.13,0,0,2.24,0,5c0,2.52,2.6,4.6,6,4.94V12H0v8h6v2.06C2.6,22.4,0,24.48,0,27  c0,2.76,3.13,5,7,5c3.39,0,6.21-1.72,6.86-4H26v-6h6V10H26z M2,5c0-1.42,2.05-3,5-3s5,1.58,5,3S9.95,8,7,8S2,6.42,2,5z M2,18v-4h10  v4H2z M7,30c-2.95,0-5-1.58-5-3s2.05-3,5-3s5,1.58,5,3S9.95,30,7,30z M24,26H13.86c-0.58-2.05-2.92-3.65-5.86-3.94V20h6v-8H8V9.94  c2.94-0.29,5.28-1.89,5.86-3.94H24v4h-6v12h6V26z M30,20H20v-8h10V20z"/>
</svg>
