<?xml version="1.0" encoding="utf-8"?>
<!-- Generator: Adobe Illustrator 16.0.0, SVG Export Plug-In . SVG Version: 6.00 Build 0)  -->
<!DOCTYPE svg PUBLIC "-//W3C//DTD SVG 1.1//EN" "http://www.w3.org/Graphics/SVG/1.1/DTD/svg11.dtd">
<svg xmlns="http://www.w3.org/2000/svg" xmlns:xlink="http://www.w3.org/1999/xlink" version="1.1" id="Capa_1" x="0px" y="0px" width="32px" height="32px" viewBox="0 0 32 32" enable-background="new 0 0 32 32" xml:space="preserve">
<g>
	<path d="M27.82,10.43C26.19,8.09,24.23,8,24,8H12v2h9.57L2.75,21.97C2.37,21.9,2,21.66,2,21c0-0.81,0.67-2.88,1.7-5.26l-1.84-0.79   C1.17,16.55,0,19.47,0,21c0,2.2,1.79,3,3,3h26c1.21,0,3-0.8,3-3C32,18.67,29.13,12.32,27.82,10.43z M29,22H6.43l18.4-11.71   c0.4,0.22,0.88,0.61,1.35,1.28C27.41,13.35,30,19.29,30,21C30,21.81,29.45,21.99,29,22z"/>
</g>
<g>
	<path d="M8,11c0,0.55-0.45,1-1,1H6v1c0,0.55-0.45,1-1,1s-1-0.45-1-1v-1H3c-0.55,0-1-0.45-1-1s0.45-1,1-1h1V9c0-0.55,0.45-1,1-1   s1,0.45,1,1v1h1C7.55,10,8,10.45,8,11z"/>
</g>
<g>
	<path d="M12,5c0,0.55-0.45,1-1,1h-1v1c0,0.55-0.45,1-1,1S8,7.55,8,7V6H7C6.45,6,6,5.55,6,5s0.45-1,1-1h1V3c0-0.55,0.45-1,1-1   s1,0.45,1,1v1h1C11.55,4,12,4.45,12,5z"/>
</g>
</svg>
