<?xml version="1.0" encoding="utf-8"?>
<!-- Generator: Adobe Illustrator 16.0.0, SVG Export Plug-In . SVG Version: 6.00 Build 0)  -->
<!DOCTYPE svg PUBLIC "-//W3C//DTD SVG 1.1//EN" "http://www.w3.org/Graphics/SVG/1.1/DTD/svg11.dtd">
<svg xmlns="http://www.w3.org/2000/svg" xmlns:xlink="http://www.w3.org/1999/xlink" version="1.1" id="Capa_1" x="0px" y="0px" width="32px" height="32px" viewBox="0 0 32 32" enable-background="new 0 0 32 32" xml:space="preserve">
<g>
	<path d="M31,10h-7.32c-1.33-2.91-4.229-3.9-4.359-3.95C19.21,6.02,19.11,6,19,6h-5c-2.92,0-6.33,2.98-7.4,4H1c-0.55,0-1,0.45-1,1   v10c0,0.55,0.45,1,1,1h3.65l9.73,7.78C14.56,29.93,14.78,30,15,30c0.15,0,0.31-0.04,0.45-0.11l4-2c4.51-2.25,5.92-4.59,6.359-5.89   H31c0.55,0,1-0.45,1-1V11C32,10.45,31.55,10,31,10z M2,20v-8h5c0.27,0,0.52-0.11,0.71-0.29C8.74,10.68,11.88,8,14,8h4.82   c0.52,0.21,2.42,1.11,3.18,3.17V13c0,0.81-0.55,0.99-1,1c-2.22,0-3.02-2.23-3.05-2.32c-0.101-0.3-0.34-0.54-0.65-0.63   c-0.31-0.1-0.64-0.04-0.9,0.15L4.67,20H2z M30,20h-5c-0.53,0-0.97,0.44-1,0.97c0,0.03-0.22,2.521-5.45,5.141l-3.43,1.71l-1.61-1.29   l4.04-2.7c0.46-0.3,0.59-0.92,0.28-1.38c-0.3-0.46-0.93-0.59-1.38-0.28l-4.58,3.05l-1.54-1.229l3.22-2.16   c0.46-0.3,0.59-0.93,0.28-1.38c-0.3-0.46-0.93-0.59-1.38-0.28l-3.77,2.5l-2.05-1.64l10.02-7.521C17.33,14.59,18.68,16,21,16   c1.21,0,3-0.8,3-3v-1h6V20z"/>
</g>
</svg>
