<?xml version="1.0" encoding="utf-8"?>
<!-- Generator: Adobe Illustrator 16.0.0, SVG Export Plug-In . SVG Version: 6.00 Build 0)  -->
<!DOCTYPE svg PUBLIC "-//W3C//DTD SVG 1.1//EN" "http://www.w3.org/Graphics/SVG/1.1/DTD/svg11.dtd">
<svg xmlns="http://www.w3.org/2000/svg" xmlns:xlink="http://www.w3.org/1999/xlink" version="1.1" id="Capa_1" x="0px" y="0px" width="32px" height="32px" viewBox="0 0 32 32" enable-background="new 0 0 32 32" xml:space="preserve">
<g>
	<path d="M29.72,12L27.24,4.54l2.029-0.58L28.73,2.04L18,5.11V4h-6v2.82L0.73,10.04l0.54,1.92L4.61,11l-2.33,7H0v2h12v-2H9.72   l-2.57-7.72L12,8.89V10h2v20h-4v2h10v-2h-4V10h2V7.18l6.5-1.86L22.28,12H20v2h12v-2H29.72z M7.61,18H4.39L6,13.16L7.61,18z M16,8   h-2V6h2V8z M24.39,12L26,7.16L27.61,12H24.39z"/>
</g>
<g>
	<rect x="2" y="22" width="8" height="2"/>
</g>
<g>
	<rect x="22" y="16" width="8" height="2"/>
</g>
</svg>
