<?xml version="1.0" encoding="utf-8"?>
<!-- Generator: Adobe Illustrator 16.0.0, SVG Export Plug-In . SVG Version: 6.00 Build 0)  -->
<!DOCTYPE svg PUBLIC "-//W3C//DTD SVG 1.1//EN" "http://www.w3.org/Graphics/SVG/1.1/DTD/svg11.dtd">
<svg xmlns="http://www.w3.org/2000/svg" xmlns:xlink="http://www.w3.org/1999/xlink" version="1.1" id="Capa_1" x="0px" y="0px" width="32px" height="32px" viewBox="0 0 32 32" enable-background="new 0 0 32 32" xml:space="preserve">
<g>
	<path d="M13.171,6l1.415,1.414L15.171,8H16h13.993C29.996,8.015,29.998,8.03,30,8.043v19.95c-0.016,0.003-0.03,0.005-0.044,0.007   H2.007C2.004,27.984,2.001,27.97,2,27.956V6.007C2.015,6.004,2.03,6.001,2.043,6H13.171 M14,4H2c0,0-2,0-2,2v22c0,0,0,2,2,2h28   c0,0,2,0,2-2V8c0,0,0-2-2-2H16L14,4L14,4z"/>
</g>
<g>
	<rect x="2" y="10" width="28" height="2"/>
</g>
<g>
	<path d="M8,14v12h16V14H8z M10,16h9.89L10,23.06V16z M22,24h-9.89L22,16.94V24z"/>
</g>
</svg>
