<?xml version="1.0" encoding="utf-8"?>
<!-- Generator: Adobe Illustrator 16.0.0, SVG Export Plug-In . SVG Version: 6.00 Build 0)  -->
<!DOCTYPE svg PUBLIC "-//W3C//DTD SVG 1.1//EN" "http://www.w3.org/Graphics/SVG/1.1/DTD/svg11.dtd">
<svg xmlns="http://www.w3.org/2000/svg" xmlns:xlink="http://www.w3.org/1999/xlink" version="1.1" id="Capa_1" x="0px" y="0px" width="32px" height="32px" viewBox="0 0 32 32" enable-background="new 0 0 32 32" xml:space="preserve">
<path d="M30,6H16l-2-2H2c0,0-2,0-2,2v22c0,0,0,2,2,2h28c0,0,2,0,2-2V8C32,8,32,6,30,6z M30,27.99C29.98,28,29.97,28,29.96,28H2.01  C2,27.98,2,27.97,2,27.96V6.01C2.02,6,2.03,6,2.04,6h11.13l1.42,1.41L15.17,8h14.82C30,8.02,30,8.03,30,8.04V27.99z"/>
<rect x="2" y="10" width="28" height="2"/>
<path d="M4,14v12h24V14H4z M10,24H6v-8h4V24z M26,24H12v-4h14V24z M26,18H12v-2h14V18z"/>
</svg>
