<?xml version="1.0" encoding="utf-8"?>
<!-- Generator: Adobe Illustrator 16.0.0, SVG Export Plug-In . SVG Version: 6.00 Build 0)  -->
<!DOCTYPE svg PUBLIC "-//W3C//DTD SVG 1.1//EN" "http://www.w3.org/Graphics/SVG/1.1/DTD/svg11.dtd">
<svg xmlns="http://www.w3.org/2000/svg" xmlns:xlink="http://www.w3.org/1999/xlink" version="1.1" id="Capa_1" x="0px" y="0px" width="32px" height="32px" viewBox="0 0 32 32" enable-background="new 0 0 32 32" xml:space="preserve">
<g>
	<path d="M27,0H7C4.8,0,4,1.79,4,3v26c0,2.2,1.79,3,3,3h20c2.2,0,3-1.79,3-3V3C30,0.8,28.21,0,27,0z M28,28.99   C27.99,29.45,27.81,30,27,30H7.01C6.55,29.99,6,29.81,6,29V3.01C6.01,2.55,6.19,2,7,2h19.99C27.45,2.01,28,2.19,28,3V28.99z"/>
</g>
<g>
	<rect x="16" y="4" width="10" height="2"/>
</g>
<g>
	<rect x="8" y="4" width="6" height="2"/>
</g>
<path d="M22,16v-1c0-1.57-0.86-4.42-4-4.91V8h-2v2.1c-1.76,0.34-4,1.62-4,4.9c0,2.41,2.08,3.44,4,4.19v4.649  c-0.89-0.26-2-0.96-2-2.84v-1h-2v1c0,3.28,2.24,4.56,4,4.9V28h2v-2.08c1.76-0.28,4-1.3,4-3.92c0-2.41-2.08-3.44-4-4.19v-5.68  c1.85,0.51,1.99,2.42,2,2.87v1H22z M16,17.02c-1.27-0.549-2-1.089-2-2.02c0-1.88,1.11-2.58,2-2.84V17.02z M20,22  c0,1.22-1.12,1.7-2,1.89V19.98C19.27,20.53,20,21.07,20,22z"/>
</svg>
