<?xml version="1.0" encoding="utf-8"?>
<!-- Generator: Adobe Illustrator 16.0.0, SVG Export Plug-In . SVG Version: 6.00 Build 0)  -->
<!DOCTYPE svg PUBLIC "-//W3C//DTD SVG 1.1//EN" "http://www.w3.org/Graphics/SVG/1.1/DTD/svg11.dtd">
<svg xmlns="http://www.w3.org/2000/svg" xmlns:xlink="http://www.w3.org/1999/xlink" version="1.1" id="Capa_1" x="0px" y="0px" width="32px" height="32px" viewBox="0 0 32 32" enable-background="new 0 0 32 32" xml:space="preserve">
<g>
	<path d="M28,6v20H16V6H28L28,6z M30,4H14v24h16V4L30,4z"/>
</g>
<g>
	<path d="M22,14c1.103,0,2,0.897,2,2c0,1.103-0.897,2-2,2s-2-0.897-2-2C20,14.897,20.897,14,22,14L22,14z M22,12   c-2.209,0-4,1.791-4,4s1.791,4,4,4s4-1.791,4-4S24.209,12,22,12L22,12z"/>
</g>
<g>
	<polygon points="14.41,23 9.71,27.71 8.29,26.29 10.59,24 2,24 2,22 10.59,22 8.29,19.71 9.71,18.29  "/>
</g>
<g>
	<polygon points="14,10 5.41,10 7.71,12.29 6.29,13.71 1.59,9 6.29,4.29 7.71,5.71 5.41,8 14,8  "/>
</g>
</svg>
