<?xml version="1.0" encoding="utf-8"?>
<!-- Generator: Adobe Illustrator 16.0.0, SVG Export Plug-In . SVG Version: 6.00 Build 0)  -->
<!DOCTYPE svg PUBLIC "-//W3C//DTD SVG 1.1//EN" "http://www.w3.org/Graphics/SVG/1.1/DTD/svg11.dtd">
<svg xmlns="http://www.w3.org/2000/svg" xmlns:xlink="http://www.w3.org/1999/xlink" version="1.1" id="Capa_1" x="0px" y="0px" width="32px" height="32px" viewBox="0 0 32 32" enable-background="new 0 0 32 32" xml:space="preserve">
<g>
	<g>
		<path d="M15,32c-0.266,0-0.52-0.105-0.707-0.293C13.791,31.205,2,19.341,2,13C2,0.148,14.87,0,15,0s13,0.148,13,13    c0,6.341-11.791,18.205-12.293,18.707C15.52,31.895,15.266,32,15,32z M15,2C14.553,2.001,4,2.164,4,13    c0,4.28,7.374,12.813,11,16.572C18.626,25.812,26,17.277,26,13C26,2.125,15.449,2,15,2z"/>
	</g>
	<g>
		<path d="M15,18c-3.859,0-7-3.141-7-7c0-3.86,3.141-7,7-7s7,3.14,7,7C22,14.859,18.859,18,15,18z M15,6c-2.757,0-5,2.243-5,5    s2.243,5,5,5s5-2.243,5-5S17.757,6,15,6z"/>
	</g>
</g>
</svg>
