<?xml version="1.0" encoding="utf-8"?>
<!-- Generator: Adobe Illustrator 16.0.0, SVG Export Plug-In . SVG Version: 6.00 Build 0)  -->
<!DOCTYPE svg PUBLIC "-//W3C//DTD SVG 1.1//EN" "http://www.w3.org/Graphics/SVG/1.1/DTD/svg11.dtd">
<svg xmlns="http://www.w3.org/2000/svg" xmlns:xlink="http://www.w3.org/1999/xlink" version="1.1" id="Capa_1" x="0px" y="0px" width="32px" height="32px" viewBox="0 0 32 32" enable-background="new 0 0 32 32" xml:space="preserve">
<path d="M20,8c-1.82,0-3.53,0.49-5,1.34C13.53,8.49,11.82,8,10,8C4.48,8,0,12.48,0,18c0,5.52,4.48,10,10,10c1.82,0,3.53-0.49,5-1.34  c1.47,0.85,3.18,1.34,5,1.34c5.52,0,10-4.48,10-10C30,12.48,25.52,8,20,8z M10,26c-4.41,0-8-3.59-8-8s3.59-8,8-8  c1.14,0,2.22,0.24,3.2,0.67C11.23,12.5,10,15.11,10,18c0,2.89,1.23,5.5,3.2,7.33C12.22,25.76,11.14,26,10,26z M15,24.23  c-1.83-1.461-3-3.711-3-6.23c0-2.52,1.17-4.77,3-6.23c1.83,1.46,3,3.71,3,6.23C18,20.52,16.83,22.77,15,24.23z M20,26  c-1.14,0-2.22-0.24-3.2-0.67C18.77,23.5,20,20.89,20,18c0-2.89-1.23-5.5-3.2-7.33C17.78,10.24,18.86,10,20,10c4.41,0,8,3.59,8,8  S24.41,26,20,26z"/>
</svg>
