<?xml version="1.0" encoding="utf-8"?>
<!-- Generator: Adobe Illustrator 16.0.0, SVG Export Plug-In . SVG Version: 6.00 Build 0)  -->
<!DOCTYPE svg PUBLIC "-//W3C//DTD SVG 1.1//EN" "http://www.w3.org/Graphics/SVG/1.1/DTD/svg11.dtd">
<svg xmlns="http://www.w3.org/2000/svg" xmlns:xlink="http://www.w3.org/1999/xlink" version="1.1" id="Capa_1" x="0px" y="0px" width="32px" height="32px" viewBox="0 0 32 32" enable-background="new 0 0 32 32" xml:space="preserve">
<g>
	<path d="M29.89,30.55L28,26.76c-0.05-15.27-4.81-19.31-7.39-20.37l3.22-4.84c0.21-0.3,0.229-0.7,0.05-1.02C23.71,0.2,23.37,0,23,0   H11c-0.37,0-0.71,0.2-0.88,0.53c-0.18,0.32-0.16,0.72,0.05,1.02l3.22,4.84C10.81,7.45,6.05,11.49,6,26.76l-1.89,3.79   c-0.16,0.311-0.14,0.681,0.04,0.98C4.33,31.82,4.65,32,5,32h24c0.35,0,0.67-0.18,0.85-0.47C30.03,31.23,30.05,30.86,29.89,30.55z    M12.87,2h8.26l-2.67,4h-2.92L12.87,2z M6.62,30l1.27-2.55C7.96,27.31,8,27.16,8,27C8,8.47,14.95,8,15,8h3.98   C19.05,8,26,8.47,26,27c0,0.16,0.04,0.31,0.11,0.45L27.38,30H6.62z"/>
</g>
<path d="M22,16v-1c0-1.21-0.8-3-3-3h-1v-2h-2v2h-1c-1.21,0-3,0.8-3,3v2c0,1.21,0.8,3,3,3h1v4h-0.99C14.55,23.99,14,23.81,14,23v-1  h-2v1c0,2.2,1.79,3,3,3h1v2h2v-2h1c2.2,0,3-1.79,3-3v-2c0-2.2-1.79-3-3-3h-1v-4h1c0.8,0,0.99,0.54,1,1v1H22z M16,18h-1  c-0.81,0-0.99-0.55-1-1v-2c0-0.81,0.55-0.99,1-1h1V18z M18.99,20c0.46,0.01,1.01,0.19,1.01,1v1.99C19.99,23.45,19.81,24,19,24h-1v-4  H18.99z"/>
</svg>
