<?xml version="1.0" encoding="utf-8"?>
<!-- Generator: Adobe Illustrator 16.0.0, SVG Export Plug-In . SVG Version: 6.00 Build 0)  -->
<!DOCTYPE svg PUBLIC "-//W3C//DTD SVG 1.1//EN" "http://www.w3.org/Graphics/SVG/1.1/DTD/svg11.dtd">
<svg xmlns="http://www.w3.org/2000/svg" xmlns:xlink="http://www.w3.org/1999/xlink" version="1.1" id="Capa_1" x="0px" y="0px" width="32px" height="32px" viewBox="0 0 32 32" enable-background="new 0 0 32 32" xml:space="preserve">
<g>
	<path d="M29.89,30.55L28,26.76c-0.05-15.27-4.81-19.31-7.39-20.37l3.22-4.84c0.21-0.3,0.229-0.7,0.05-1.02C23.71,0.2,23.37,0,23,0   H11c-0.37,0-0.71,0.2-0.88,0.53c-0.18,0.32-0.16,0.72,0.05,1.02l3.22,4.83C10.81,7.45,6.05,11.49,6,26.76l-1.89,3.79   c-0.16,0.311-0.14,0.681,0.04,0.98C4.33,31.82,4.65,32,5,32h24c0.35,0,0.67-0.18,0.85-0.47C30.03,31.23,30.05,30.86,29.89,30.55z    M12.87,2h8.26l-2.67,4h-2.92L12.87,2z M6.62,30l1.27-2.55C7.96,27.31,8,27.16,8,27C8,8.47,14.95,8,15,8h3.98   C19.05,8,26,8.47,26,27c0,0.16,0.04,0.31,0.11,0.45L27.38,30H6.62z"/>
</g>
<g>
	<path d="M22.11,22.54l1.779,0.91C23.84,23.55,22.58,26,19,26c-2.62,0-5.26-1.36-6.41-4H10v-2h2.06C12.02,19.68,12,19.34,12,19   s0.02-0.68,0.06-1H10v-2h2.59c1.15-2.64,3.79-4,6.41-4c3.58,0,4.84,2.45,4.89,2.55l-1.779,0.91C22.08,15.4,21.3,14,19,14   c-1.54,0-3.16,0.64-4.11,2H20v2h-5.91C14.03,18.31,14,18.65,14,19s0.03,0.69,0.09,1H20v2h-5.11c0.95,1.36,2.57,2,4.11,2   C21.3,24,22.08,22.6,22.11,22.54z"/>
</g>
</svg>
