<?xml version="1.0" encoding="utf-8"?>
<!-- Generator: Adobe Illustrator 16.0.0, SVG Export Plug-In . SVG Version: 6.00 Build 0)  -->
<!DOCTYPE svg PUBLIC "-//W3C//DTD SVG 1.1//EN" "http://www.w3.org/Graphics/SVG/1.1/DTD/svg11.dtd">
<svg xmlns="http://www.w3.org/2000/svg" xmlns:xlink="http://www.w3.org/1999/xlink" version="1.1" id="Capa_1" x="0px" y="0px" width="32px" height="32px" viewBox="0 0 32 32" enable-background="new 0 0 32 32" xml:space="preserve">
<g>
	<path d="M31,24h-1v-7c0-3.11-1.88-9-9-9h-1V6h-8v2h-1c-7.12,0-9,5.89-9,9v7H1c-0.55,0-1,0.45-1,1s0.45,1,1,1h30c0.55,0,1-0.45,1-1   S31.55,24,31,24z M12,24H4v-2h8V24z M12,20H4v-3c0-0.28,0.12-7,7-7h1V20z M18,24h-4V8h4V24z M28,24h-8v-2h8V24z M28,20h-8V10h1   c6.88,0,7,6.72,7,7V20z"/>
</g>
</svg>
