<?xml version="1.0" encoding="utf-8"?>
<!-- Generator: Adobe Illustrator 16.0.0, SVG Export Plug-In . SVG Version: 6.00 Build 0)  -->
<!DOCTYPE svg PUBLIC "-//W3C//DTD SVG 1.1//EN" "http://www.w3.org/Graphics/SVG/1.1/DTD/svg11.dtd">
<svg xmlns="http://www.w3.org/2000/svg" xmlns:xlink="http://www.w3.org/1999/xlink" version="1.1" id="Capa_1" x="0px" y="0px" width="32px" height="32px" viewBox="0 0 32 32" enable-background="new 0 0 32 32" xml:space="preserve">
<g>
	<path d="M15,30H5c-1.206,0-3-0.799-3-3s1.794-3,3-3h4c1.206,0,3,0.799,3,3v1h3c0.283-0.002,7-0.117,7-7V2h3c1.729,0,5,1.045,5,5v6   c0,1.729-1.045,5-5,5h-1v3C24,28.119,18.113,30,15,30z M8.988,26H5c-0.45,0.012-1,0.194-1,1s0.55,0.988,1.012,1H10v-1   C10,26.194,9.45,26.012,8.988,26z M24,16h1c2.823,0,2.994-2.503,3-3.005V7c0-2.823-2.504-2.994-3.006-3H24V16z"/>
</g>
</svg>
