<?xml version="1.0" encoding="utf-8"?>
<!-- Generator: Adobe Illustrator 16.0.0, SVG Export Plug-In . SVG Version: 6.00 Build 0)  -->
<!DOCTYPE svg PUBLIC "-//W3C//DTD SVG 1.1//EN" "http://www.w3.org/Graphics/SVG/1.1/DTD/svg11.dtd">
<svg xmlns="http://www.w3.org/2000/svg" xmlns:xlink="http://www.w3.org/1999/xlink" version="1.1" id="Capa_1" x="0px" y="0px" width="32px" height="32px" viewBox="0 0 32 32" enable-background="new 0 0 32 32" xml:space="preserve">
<g>
	<path d="M29.41,12.25c-0.22-0.62-0.51-1.2-0.88-1.78C26.56,7.46,22.79,6,17,6c-1.19,0-2.93,0.11-4.8,0.6C9.87,4.03,5.21,4,5,4H4v1   c0,2.83,0.84,4.5,1.77,5.48C4.98,11.51,4.46,12.69,4.2,14H0v5c0,1.21,0.8,3,3,3h1.53c0.76,1.1,2.04,2,3.09,2.75   c0.13,0.09,0.26,0.18,0.38,0.27V27c0,1.21,0.8,3,3,3c1.8,0,2.66-1.19,2.91-2.29c1.99,0.38,4.189,0.38,6.17,0   C20.34,28.81,21.21,30,23,30c2.2,0,3-1.79,3-3v-2.01c1.66-1.37,2.85-3.181,3.47-5.28C30.99,19.12,32,17.66,32,16   C32,14.32,30.94,12.83,29.41,12.25z M28.6,17.9c-0.04,0.02-0.08,0.029-0.13,0.04l-0.64,0.109l-0.15,0.63   c-0.5,2.051-1.64,3.79-3.279,5.03l-0.4,0.3v2.98C23.99,27.45,23.81,28,23,28s-0.99-0.55-1-1v-1.85l-1.27,0.359   c-2.33,0.65-5.13,0.65-7.46,0L12,25.15v1.84C11.99,27.45,11.81,28,11,28s-0.99-0.55-1-1v-2.99l-0.4-0.3   c-0.25-0.19-0.53-0.39-0.82-0.59C7.74,22.38,6.44,21.46,6,20.56L5.72,20H3c-0.81,0-0.99-0.55-1-1v-3h3.96l0.09-0.9   c0.17-1.59,0.79-2.95,1.85-4.03l0.84-0.87L7.73,9.54C6.79,8.91,6.22,7.72,6.05,6.07C7.62,6.24,10.01,6.81,11,8.3l0.41,0.61   l0.71-0.21C14,8.12,15.81,8,17,8c5.06,0,8.28,1.17,9.85,3.56c0.37,0.57,0.631,1.14,0.801,1.76l0.159,0.6l0.601,0.12   C29.33,14.23,30,15.05,30,16C30,16.86,29.46,17.62,28.6,17.9z"/>
</g>
<g>
	<path d="M12,14c0,1.1-0.9,2-2,2s-2-0.9-2-2s0.9-2,2-2S12,12.9,12,14z"/>
</g>
<g>
	<rect x="14" y="10" width="8" height="2"/>
</g>
</svg>
