<?xml version="1.0" encoding="utf-8"?>
<!-- Generator: Adobe Illustrator 16.0.0, SVG Export Plug-In . SVG Version: 6.00 Build 0)  -->
<!DOCTYPE svg PUBLIC "-//W3C//DTD SVG 1.1//EN" "http://www.w3.org/Graphics/SVG/1.1/DTD/svg11.dtd">
<svg xmlns="http://www.w3.org/2000/svg" xmlns:xlink="http://www.w3.org/1999/xlink" version="1.1" id="Capa_1" x="0px" y="0px" width="32px" height="32px" viewBox="0 0 32 32" enable-background="new 0 0 32 32" xml:space="preserve">
<g>
	<path d="M30,24.48v-8.05l-10-6V4c0-2.93-2.39-4-4-4c-1.61,0-4,1.07-4,4v6.43l-10,6v8.05l10-4v4.109l-2,2V32h1l5-2l5,2h1v-5.41l-2-2   V20.48L30,24.48z M20,27.41v2.109l-4-1.6l-4,1.6V27.41l2-2V17.52l-10,4V17.57l10-6V4c0-1.83,1.54-1.99,2-2c0.33,0,2,0.1,2,2v7.57   l10,6v3.949l-10-4v7.891L20,27.41z"/>
</g>
</svg>
