<?xml version="1.0" encoding="utf-8"?>
<!-- Generator: Adobe Illustrator 16.0.0, SVG Export Plug-In . SVG Version: 6.00 Build 0)  -->
<!DOCTYPE svg PUBLIC "-//W3C//DTD SVG 1.1//EN" "http://www.w3.org/Graphics/SVG/1.1/DTD/svg11.dtd">
<svg xmlns="http://www.w3.org/2000/svg" xmlns:xlink="http://www.w3.org/1999/xlink" version="1.1" id="Capa_1" x="0px" y="0px" width="32px" height="32px" viewBox="0 0 32 32" enable-background="new 0 0 32 32" xml:space="preserve">
<g>
	<g>
		<path d="M25,0H7C4.8,0,4,1.79,4,3v26c0,2.2,1.79,3,3,3h18c2.2,0,3-1.79,3-3V3C28,0.8,26.21,0,25,0z M26,28.99    C25.99,29.45,25.81,30,25,30H7.01C6.55,29.99,6,29.81,6,29v-1h20V28.99z M26,26H6V6h20V26z M26,4H6V3.01C6.01,2.55,6.19,2,7,2    h17.99C25.45,2.01,26,2.19,26,3V4z"/>
	</g>
</g>
<g>
	<path d="M10,16H8c0,1.85,0.63,3.55,1.68,4.9l1.43-1.431C10.41,18.49,10,17.29,10,16z M16,8c-1.85,0-3.55,0.63-4.9,1.68l1.43,1.43   C13.51,10.41,14.71,10,16,10c3.31,0,6,2.69,6,6c0,1.29-0.41,2.49-1.11,3.47L22.32,20.9C23.37,19.55,24,17.85,24,16   C24,11.58,20.42,8,16,8z M16,22c-1.29,0-2.49-0.41-3.47-1.11L11.1,22.32C12.45,23.37,14.15,24,16,24c1.85,0,3.55-0.63,4.9-1.68   L19.47,20.89C18.49,21.59,17.29,22,16,22z M9.68,11.1c-0.66,0.85-1.15,1.83-1.43,2.9h2.1c0.18-0.53,0.44-1.02,0.76-1.47L9.68,11.1z   "/>
</g>
</svg>
