<?xml version="1.0" encoding="utf-8"?>
<!-- Generator: Adobe Illustrator 16.0.0, SVG Export Plug-In . SVG Version: 6.00 Build 0)  -->
<!DOCTYPE svg PUBLIC "-//W3C//DTD SVG 1.1//EN" "http://www.w3.org/Graphics/SVG/1.1/DTD/svg11.dtd">
<svg xmlns="http://www.w3.org/2000/svg" xmlns:xlink="http://www.w3.org/1999/xlink" version="1.1" id="Capa_1" x="0px" y="0px" width="32px" height="32px" viewBox="0 0 32 32" enable-background="new 0 0 32 32" xml:space="preserve">
<g>
	<path d="M24,12.11V7c0-3.96-3.27-5-5-5h-6C9.04,2,8,5.27,8,7v5.11C6.07,12.47,2,13.94,2,20v7c0,1.21,0.8,3,3,3h22c2.2,0,3-1.79,3-3   v-7C30,13.94,25.93,12.47,24,12.11z M10,7.01C10.01,6.5,10.18,4,13,4h5.99C19.5,4.01,22,4.18,22,7v5H10V7.01z M20,14v3   c0,0.12-0.05,3-4,3c-3.83,0-3.99-2.7-4-3v-3H20z M28,26.99C27.99,27.45,27.81,28,27,28H5c-0.81,0-0.99-0.55-1-1v-7   c0-5.78,4.49-5.99,5-6h1v3c0,1.73,1.25,5,6,5s6-3.27,6-5v-3h1c0.2,0,5,0.07,5,6V26.99z"/>
</g>
<g>
	<rect x="14" y="16" width="4" height="2"/>
</g>
</svg>
