<?xml version="1.0" encoding="utf-8"?>
<!-- Generator: Adobe Illustrator 16.0.0, SVG Export Plug-In . SVG Version: 6.00 Build 0)  -->
<!DOCTYPE svg PUBLIC "-//W3C//DTD SVG 1.1//EN" "http://www.w3.org/Graphics/SVG/1.1/DTD/svg11.dtd">
<svg xmlns="http://www.w3.org/2000/svg" xmlns:xlink="http://www.w3.org/1999/xlink" version="1.1" id="Capa_1" x="0px" y="0px" width="32px" height="32px" viewBox="0 0 32 32" enable-background="new 0 0 32 32" xml:space="preserve">
<g>
	<path d="M30,21V11c0-0.84,0.48-2.28,0.95-3.68C31.49,5.69,32,4.16,32,3c0-2.2-1.79-3-3-3c-2.77,0-4.99,0.59-6.95,1.12   C20.36,1.57,18.76,2,17,2s-3.36-0.43-5.05-0.88C9.99,0.59,7.77,0,5,0C3.79,0,2,0.8,2,3c0,1.16,0.51,2.69,1.05,4.32   C3.52,8.72,4,10.16,4,11v10c0,0.84-0.48,2.28-0.95,3.68C2.51,26.31,2,27.84,2,29c0,2.2,1.79,3,3,3c2.77,0,4.99-0.59,6.95-1.12   C13.64,30.43,15.24,30,17,30s3.36,0.43,5.05,0.88C24.01,31.41,26.23,32,29,32c1.21,0,3-0.8,3-3c0-1.16-0.51-2.69-1.05-4.32   C30.48,23.28,30,21.84,30,21z M29,30c-2.51,0-4.5-0.53-6.43-1.05C20.75,28.46,19.02,28,17,28c-2.02,0-3.75,0.46-5.57,0.95   C9.5,29.47,7.51,30,5.01,30C4.55,29.99,4,29.81,4,29c0-0.84,0.48-2.28,0.95-3.68C5.49,23.69,6,22.16,6,21V11   c0-1.16-0.51-2.69-1.05-4.32C4.48,5.28,4,3.84,4,3c0-0.81,0.55-0.99,1-1c2.51,0,4.5,0.53,6.43,1.05C13.25,3.54,14.98,4,17,4   c2.02,0,3.75-0.46,5.57-0.95C24.5,2.53,26.49,2,28.99,2C29.45,2.01,30,2.19,30,3c0,0.84-0.48,2.28-0.95,3.68   C28.51,8.31,28,9.84,28,11v10c0,1.16,0.51,2.69,1.05,4.32C29.52,26.72,30,28.16,30,29C30,29.81,29.45,29.99,29,30z"/>
	<rect x="20" y="8" width="6" height="2"/>
	<rect x="8" y="8" width="10" height="2"/>
	<rect x="8" y="12" width="6" height="2"/>
	<rect x="16" y="12" width="8" height="2"/>
	<rect x="18" y="16" width="8" height="2"/>
	<rect x="8" y="16" width="8" height="2"/>
	<rect x="8" y="20" width="10" height="2"/>
	<rect x="20" y="20" width="6" height="2"/>
</g>
</svg>
