<?xml version="1.0" encoding="utf-8"?>
<!-- Generator: Adobe Illustrator 16.0.0, SVG Export Plug-In . SVG Version: 6.00 Build 0)  -->
<!DOCTYPE svg PUBLIC "-//W3C//DTD SVG 1.1//EN" "http://www.w3.org/Graphics/SVG/1.1/DTD/svg11.dtd">
<svg xmlns="http://www.w3.org/2000/svg" xmlns:xlink="http://www.w3.org/1999/xlink" version="1.1" id="Capa_1" x="0px" y="0px" width="32px" height="32px" viewBox="0 0 32 32" enable-background="new 0 0 32 32" xml:space="preserve">
<g>
	<path d="M27,12h-1V4H10v8H5.41l2.3-2.29L6.29,8.29L1.59,13l4.7,4.71l1.42-1.42L5.41,14H10v6H4v2h6v6h16v-6h1c1.73,0,5-1.04,5-5   S28.73,12,27,12z M24,26H12V6h12V26z M27,20h-1v-6h0.99C27.5,14.01,30,14.18,30,17C30,19.82,27.5,19.99,27,20z"/>
	<path d="M18,12c-2.21,0-4,1.79-4,4s1.79,4,4,4s4-1.79,4-4S20.21,12,18,12z M18,18c-1.1,0-2-0.9-2-2c0-1.1,0.9-2,2-2   c1.1,0,2,0.9,2,2C20,17.1,19.1,18,18,18z"/>
</g>
</svg>
