<?xml version="1.0" encoding="utf-8"?>
<!-- Generator: Adobe Illustrator 16.0.0, SVG Export Plug-In . SVG Version: 6.00 Build 0)  -->
<!DOCTYPE svg PUBLIC "-//W3C//DTD SVG 1.1//EN" "http://www.w3.org/Graphics/SVG/1.1/DTD/svg11.dtd">
<svg xmlns="http://www.w3.org/2000/svg" xmlns:xlink="http://www.w3.org/1999/xlink" version="1.1" id="Capa_1" x="0px" y="0px" width="32px" height="32px" viewBox="0 0 32 32" enable-background="new 0 0 32 32" xml:space="preserve">
<g>
	<g>
		<rect x="16" y="20" width="8" height="2"/>
		<rect x="16" y="16" width="8" height="2"/>
	</g>
	<path d="M29,2H7C5.95,2,5.22,2.41,4.74,2.96L3.55,2.17c-0.3-0.21-0.7-0.23-1.02-0.05C2.2,2.29,2,2.63,2,3v13H0v4h2v9   c0,0.37,0.2,0.71,0.53,0.88C2.68,29.96,2.84,30,3,30c0.19,0,0.39-0.06,0.55-0.17l1.2-0.8C5.36,29.72,6.29,30,7,30h1v2h4v-2h12v2h4   v-2h1c2.2,0,3-1.79,3-3V5C32,2.8,30.21,2,29,2z M4,27.13V4.87l4,2.67v16.92L4,27.13z M30,26.99C29.99,27.45,29.81,28,29,28H7.01   c-0.18,0-0.37-0.03-0.54-0.12L9.3,26H28V6H9.3L6.47,4.12C6.6,4.04,6.78,4,7,4h21.99C29.45,4.01,30,4.19,30,5V26.99z M10,24V8h16v16   H10z"/>
</g>
</svg>
