<?xml version="1.0" encoding="utf-8"?>
<!-- Generator: Adobe Illustrator 16.0.0, SVG Export Plug-In . SVG Version: 6.00 Build 0)  -->
<!DOCTYPE svg PUBLIC "-//W3C//DTD SVG 1.1//EN" "http://www.w3.org/Graphics/SVG/1.1/DTD/svg11.dtd">
<svg xmlns="http://www.w3.org/2000/svg" xmlns:xlink="http://www.w3.org/1999/xlink" version="1.1" id="Capa_1" x="0px" y="0px" width="32px" height="32px" viewBox="0 0 32 32" enable-background="new 0 0 32 32" xml:space="preserve">
<g>
	<path d="M27,2H5C2.8,2,2,3.79,2,5v22c0,2.2,1.79,3,3,3h1v2h4v-2h12v2h4v-2h1c2.2,0,3-1.79,3-3V5C30,2.8,28.21,2,27,2z M28,26.99   C27.99,27.45,27.81,28,27,28H5.01C4.55,27.99,4,27.81,4,27V5.01C4.01,4.55,4.19,4,5,4h21.99C27.45,4.01,28,4.19,28,5V26.99z"/>
</g>
<g>
	<path d="M24,8v16H8V8H24L24,8z M26,6H6v20h20V6L26,6z"/>
</g>
<g>
	<polygon fill-rule="evenodd" clip-rule="evenodd" points="22,14 22,20 18,20 18,18 20,18 20,16 18,16 18,14  "/>
</g>
</svg>
