<?xml version="1.0" encoding="utf-8"?>
<!-- Generator: Adobe Illustrator 16.0.0, SVG Export Plug-In . SVG Version: 6.00 Build 0)  -->
<!DOCTYPE svg PUBLIC "-//W3C//DTD SVG 1.1//EN" "http://www.w3.org/Graphics/SVG/1.1/DTD/svg11.dtd">
<svg xmlns="http://www.w3.org/2000/svg" xmlns:xlink="http://www.w3.org/1999/xlink" version="1.1" id="Capa_1" x="0px" y="0px" width="32px" height="32px" viewBox="0 0 32 32" enable-background="new 0 0 32 32" xml:space="preserve">
<path d="M30,4v16H2V4H30 M32,2H0v20h32V2L32,2z"/>
<path d="M16,8c1.626,0,3,1.832,3,4c0,2.168-1.374,4-3,4s-3-1.832-3-4C13,9.832,14.374,8,16,8 M16,6c-2.761,0-5,2.687-5,6  s2.239,6,5,6c2.762,0,5-2.687,5-6S18.762,6,16,6L16,6z"/>
<rect y="24" width="32" height="2"/>
<rect y="28" width="32" height="2"/>
</svg>
