<?xml version="1.0" encoding="utf-8"?>
<!-- Generator: Adobe Illustrator 16.0.0, SVG Export Plug-In . SVG Version: 6.00 Build 0)  -->
<!DOCTYPE svg PUBLIC "-//W3C//DTD SVG 1.1//EN" "http://www.w3.org/Graphics/SVG/1.1/DTD/svg11.dtd">
<svg xmlns="http://www.w3.org/2000/svg" xmlns:xlink="http://www.w3.org/1999/xlink" version="1.1" id="Capa_1" x="0px" y="0px" width="32px" height="32px" viewBox="0 0 32 32" enable-background="new 0 0 32 32" xml:space="preserve">
<g>
	<path d="M29,10h-1.17C27.5,8.99,26.64,8,25,8h-3V6H3C0.8,6,0,7.79,0,9v17c0,2.21,1.79,4,4,4c1.2,0,2.27-0.53,3-1.36   C7.73,29.47,8.8,30,10,30s2.27-0.53,3-1.36c0.73,0.83,1.8,1.36,3,1.36c2.21,0,4-1.79,4-4h2c0,2.21,1.79,4,4,4s4-1.79,4-4   c0-0.05,0-0.09-0.01-0.14C31.45,25.42,32,24.01,32,23V13C32,10.8,30.21,10,29,10z M4,28c-1.1,0-2-0.9-2-2s0.9-2,2-2s2,0.9,2,2   S5.1,28,4,28z M10,28c-1.1,0-2-0.9-2-2s0.9-2,2-2s2,0.9,2,2S11.1,28,10,28z M16,28c-1.1,0-2-0.9-2-2s0.9-2,2-2c1.1,0,2,0.9,2,2   S17.1,28,16,28z M26,28c-1.1,0-2-0.9-2-2s0.9-2,2-2s2,0.9,2,2S27.1,28,26,28z M30,14h-4v2h4v6.99c-0.01,0.37-0.12,0.79-0.58,0.95   C28.73,22.78,27.46,22,26,22c-1.48,0-2.77,0.8-3.46,2h-3.08c-0.69-1.2-1.979-2-3.46-2c-1.2,0-2.27,0.53-3,1.36   C12.27,22.53,11.2,22,10,22s-2.27,0.53-3,1.36C6.27,22.53,5.2,22,4,22c-0.73,0-1.41,0.2-2,0.54V9.01C2.01,8.55,2.19,8,3,8h17v14h2   V10h3c0.81,0,0.99,0.55,1,1v1h2.99c0.46,0.01,1.01,0.19,1.01,1V14z"/>
</g>
</svg>
