<?xml version="1.0" encoding="utf-8"?>
<!-- Generator: Adobe Illustrator 16.0.0, SVG Export Plug-In . SVG Version: 6.00 Build 0)  -->
<!DOCTYPE svg PUBLIC "-//W3C//DTD SVG 1.1//EN" "http://www.w3.org/Graphics/SVG/1.1/DTD/svg11.dtd">
<svg xmlns="http://www.w3.org/2000/svg" xmlns:xlink="http://www.w3.org/1999/xlink" version="1.1" id="Capa_1" x="0px" y="0px" width="32px" height="32px" viewBox="0 0 32 32" enable-background="new 0 0 32 32" xml:space="preserve">
<path d="M28,4v2H2V4H0v24h2v-2h4v2h2v-2h6v2h2v-2h6v2h2v-2h4v2h2V4H28z M28,24H2V8h26V24z"/>
<path d="M4,10v12h22V10H4z M8,20H6v-8h2V20z M12,20h-2v-8h2V20z M16,20h-2v-8h2V20z M20,20h-2v-8h2V20z M24,20h-2v-8h2V20z"/>
</svg>
