<?xml version="1.0" encoding="utf-8"?>
<!-- Generator: Adobe Illustrator 16.0.0, SVG Export Plug-In . SVG Version: 6.00 Build 0)  -->
<!DOCTYPE svg PUBLIC "-//W3C//DTD SVG 1.1//EN" "http://www.w3.org/Graphics/SVG/1.1/DTD/svg11.dtd">
<svg xmlns="http://www.w3.org/2000/svg" xmlns:xlink="http://www.w3.org/1999/xlink" version="1.1" id="Capa_1" x="0px" y="0px" width="32px" height="32px" viewBox="0 0 32 32" enable-background="new 0 0 32 32" xml:space="preserve">
<g>
	<path d="M29.6,8.2l-8-6C21.16,1.87,20.53,1.96,20.2,2.4s-0.24,1.07,0.2,1.4L26,8H8l5.6-4.2c0.44-0.33,0.53-0.96,0.2-1.4   c-0.33-0.44-0.96-0.53-1.4-0.2l-8,6C4.15,8.39,4,8.69,4,9v20c0,1.21,0.8,3,3,3h20c1.21,0,3-0.8,3-3V9C30,8.69,29.85,8.39,29.6,8.2z    M26.58,10l-3.99,4H11.41l-4-4H26.58z M28,29c0,0.81-0.55,0.99-1,1H7c-0.81,0-0.99-0.55-1-1V11.41l4.29,4.3   C10.48,15.89,10.73,16,11,16h12c0.27,0,0.52-0.11,0.71-0.29l4.29-4.3V29z"/>
</g>
</svg>
