<?xml version="1.0" encoding="utf-8"?>
<!-- Generator: Adobe Illustrator 16.0.0, SVG Export Plug-In . SVG Version: 6.00 Build 0)  -->
<!DOCTYPE svg PUBLIC "-//W3C//DTD SVG 1.1//EN" "http://www.w3.org/Graphics/SVG/1.1/DTD/svg11.dtd">
<svg xmlns="http://www.w3.org/2000/svg" xmlns:xlink="http://www.w3.org/1999/xlink" version="1.1" id="Capa_1" x="0px" y="0px" width="32px" height="32px" viewBox="0 0 32 32" enable-background="new 0 0 32 32" xml:space="preserve">
<g>
	<path d="M29,6H3C0.8,6,0,7.79,0,9v16c0,2.2,1.79,3,3,3h26c2.2,0,3-1.79,3-3V9C32,6.8,30.21,6,29,6z M10,26H3.01   C2.55,25.99,2,25.81,2,25v-9h8V26z M10,14H2V9.01C2.01,8.55,2.19,8,3,8h7V14z M30,24.99C29.99,25.45,29.81,26,29,26H12v-6h18V24.99   z M30,18H12V8h16.99C29.45,8.01,30,8.19,30,9V18z"/>
</g>
<g>
	<path d="M18,10v6h10v-6H18z M26,14h-6v-2h6V14z"/>
</g>
</svg>
