<?xml version="1.0" encoding="utf-8"?>
<!-- Generator: Adobe Illustrator 16.0.0, SVG Export Plug-In . SVG Version: 6.00 Build 0)  -->
<!DOCTYPE svg PUBLIC "-//W3C//DTD SVG 1.1//EN" "http://www.w3.org/Graphics/SVG/1.1/DTD/svg11.dtd">
<svg xmlns="http://www.w3.org/2000/svg" xmlns:xlink="http://www.w3.org/1999/xlink" version="1.1" id="Capa_1" x="0px" y="0px" width="32px" height="32px" viewBox="0 0 32 32" enable-background="new 0 0 32 32" xml:space="preserve">
<g>
	<path d="M29.71,6.29l-4-4C25.52,2.11,25.27,2,25,2H5C4.73,2,4.48,2.11,4.29,2.29l-4,4C0.11,6.48,0,6.73,0,7v22c0,1.21,0.8,3,3,3h24   c1.21,0,3-0.8,3-3V7C30,6.73,29.89,6.48,29.71,6.29z M5.41,4h19.18l2,2H3.41L5.41,4z M26.59,8l-4,4H7.41l-4-4H26.59z M28,29   c0,0.8-0.55,0.99-1.01,1H3c-0.81,0-0.99-0.55-1-1V9.41l4.29,4.3C6.48,13.89,6.73,14,7,14h16c0.27,0,0.52-0.11,0.71-0.29L28,9.42V29   z"/>
</g>
</svg>
