<?xml version="1.0" encoding="utf-8"?>
<!-- Generator: Adobe Illustrator 16.0.0, SVG Export Plug-In . SVG Version: 6.00 Build 0)  -->
<!DOCTYPE svg PUBLIC "-//W3C//DTD SVG 1.1//EN" "http://www.w3.org/Graphics/SVG/1.1/DTD/svg11.dtd">
<svg xmlns="http://www.w3.org/2000/svg" xmlns:xlink="http://www.w3.org/1999/xlink" version="1.1" id="Capa_1" x="0px" y="0px" width="32px" height="32px" viewBox="0 0 32 32" enable-background="new 0 0 32 32" xml:space="preserve">
<g>
	<g>
		<path d="M27,10h-3V7c0-0.07-0.09-7-8-7S8,6.93,8,7v3H5c-0.55,0-1,0.45-1,1v16c0,1.73,1.04,5,5,5h14c1.73,0,5-1.04,5-5V11    C28,10.45,27.55,10,27,10z M10,7c0-0.2,0.07-5,6-5c5.78,0,6,4.49,6,5v3H10V7z M26,27c0,2.82-2.5,2.99-3,3H9c-2.82,0-2.99-2.5-3-3    v-9h20V27z M26,16H6v-4h20V16z"/>
	</g>
</g>
</svg>
