<?xml version="1.0" encoding="utf-8"?>
<!-- Generator: Adobe Illustrator 16.0.0, SVG Export Plug-In . SVG Version: 6.00 Build 0)  -->
<!DOCTYPE svg PUBLIC "-//W3C//DTD SVG 1.1//EN" "http://www.w3.org/Graphics/SVG/1.1/DTD/svg11.dtd">
<svg xmlns="http://www.w3.org/2000/svg" xmlns:xlink="http://www.w3.org/1999/xlink" version="1.1" id="Capa_1" x="0px" y="0px" width="32px" height="32px" viewBox="0 0 32 32" enable-background="new 0 0 32 32" xml:space="preserve">
<g>
	<path d="M27.82,10.43C26.19,8.09,24.23,8,24,8H7.99c-0.22,0-2.18,0.09-3.81,2.43C2.87,12.32,0,18.67,0,21c0,2.2,1.79,3,3,3h26   c1.21,0,3-0.8,3-3C32,18.67,29.13,12.32,27.82,10.43z M5.82,11.57C6.86,10.08,7.99,10,8,10h5.51L3.46,16.29   C4.26,14.38,5.2,12.46,5.82,11.57z M2.75,21.97C2.37,21.9,2,21.66,2,21c0-0.38,0.13-0.96,0.33-1.66L17.29,10h4.28L2.75,21.97z    M28.99,22H6.43l18.4-11.71c0.4,0.22,0.88,0.61,1.35,1.28C27.41,13.35,30,19.29,30,21C30,21.8,29.45,21.99,28.99,22z"/>
</g>
</svg>
