<?xml version="1.0" encoding="utf-8"?>
<!-- Generator: Adobe Illustrator 16.0.0, SVG Export Plug-In . SVG Version: 6.00 Build 0)  -->
<!DOCTYPE svg PUBLIC "-//W3C//DTD SVG 1.1//EN" "http://www.w3.org/Graphics/SVG/1.1/DTD/svg11.dtd">
<svg xmlns="http://www.w3.org/2000/svg" xmlns:xlink="http://www.w3.org/1999/xlink" version="1.1" id="Capa_1" x="0px" y="0px" width="32px" height="32px" viewBox="0 0 32 32" enable-background="new 0 0 32 32" xml:space="preserve">
<g>
	<path d="M25,0H7C4.8,0,4,1.79,4,3v26c0,2.2,1.79,3,3,3h18c2.2,0,3-1.79,3-3V3C28,0.8,26.21,0,25,0z M26,28.99   C25.99,29.45,25.81,30,25,30H7.01C6.55,29.99,6,29.81,6,29V3.01C6.01,2.55,6.19,2,7,2h17.99C25.45,2.01,26,2.19,26,3V28.99z"/>
</g>
<g>
	<rect x="8" y="4" width="8" height="2"/>
</g>
<g>
	<rect x="8" y="8" width="16" height="2"/>
</g>
<g>
	<path d="M19,18c-2.76,0-5,2.24-5,5s2.24,5,5,5s5-2.24,5-5S21.76,18,19,18z M19,26c-1.65,0-3-1.35-3-3s1.35-3,3-3s3,1.35,3,3   S20.65,26,19,26z"/>
</g>
<g>
	<rect x="8" y="12" width="12" height="2"/>
</g>
<g>
	<rect x="8" y="16" width="6" height="2"/>
</g>
<g>
	<rect x="18" y="22" width="2" height="2"/>
</g>
</svg>
