<?xml version="1.0" encoding="utf-8"?>
<!-- Generator: Adobe Illustrator 16.0.0, SVG Export Plug-In . SVG Version: 6.00 Build 0)  -->
<!DOCTYPE svg PUBLIC "-//W3C//DTD SVG 1.1//EN" "http://www.w3.org/Graphics/SVG/1.1/DTD/svg11.dtd">
<svg xmlns="http://www.w3.org/2000/svg" xmlns:xlink="http://www.w3.org/1999/xlink" version="1.1" id="Capa_1" x="0px" y="0px" width="32px" height="32px" viewBox="0 0 32 32" enable-background="new 0 0 32 32" xml:space="preserve">
<g>
	<path d="M27,20c2.35,0,2.99-2.57,3-3.96c0.03-0.44-0.02-2.25-2.44-3.87C25.65,10.89,12.37,4,7,4c-5.74,0-7,6.5-7,9v0.8l2,0.46v5.62   l16.61,2.08L18.87,24H2v2h28v-2h-3.15l-0.699-4.17l0.63,0.14L27,20z M4,18.12v-3.4l14.12,3.25l0.24,1.94L4,18.12z M20.88,24   l-0.689-5.55l3.85,0.89L24.82,24H20.88z M2.06,12.22C2.25,10.39,3.13,6,7,6c4.66,0,17.44,6.48,19.44,7.83   c1.55,1.04,1.569,1.99,1.569,2.05L28,16c0,0.02-0.05,1.88-0.91,1.99L2.06,12.22z"/>
</g>
</svg>
