<?xml version="1.0" encoding="utf-8"?>
<!-- Generator: Adobe Illustrator 16.0.0, SVG Export Plug-In . SVG Version: 6.00 Build 0)  -->
<!DOCTYPE svg PUBLIC "-//W3C//DTD SVG 1.1//EN" "http://www.w3.org/Graphics/SVG/1.1/DTD/svg11.dtd">
<svg xmlns="http://www.w3.org/2000/svg" xmlns:xlink="http://www.w3.org/1999/xlink" version="1.1" id="Capa_1" x="0px" y="0px" width="32px" height="32px" viewBox="0 0 32 32" enable-background="new 0 0 32 32" xml:space="preserve">
<g>
	<path d="M12,10v2h8v-2H12z"/>
	<polygon points="28,10 28,26 4,26 4,10 6,10 6,24 26,24 26,10  "/>
</g>
<g>
	<polygon points="27.71,6.29 26.29,7.71 24,5.41 24,12 22,12 22,5.41 19.71,7.71 18.29,6.29 23,1.59  "/>
</g>
<g>
	<polygon points="13.71,6.29 12.29,7.71 10,5.41 10,12 8,12 8,5.41 5.71,7.71 4.29,6.29 9,1.59  "/>
</g>
<g>
	<rect x="4" y="28" width="24" height="2"/>
</g>
<path d="M16,16c1.103,0,2,0.897,2,2c0,1.103-0.897,2-2,2c-1.103,0-2-0.897-2-2C14,16.897,14.897,16,16,16 M16,14  c-2.209,0-4,1.791-4,4s1.791,4,4,4s4-1.791,4-4S18.209,14,16,14L16,14z"/>
</svg>
