<?xml version="1.0" encoding="utf-8"?>
<!-- Generator: Adobe Illustrator 16.0.0, SVG Export Plug-In . SVG Version: 6.00 Build 0)  -->
<!DOCTYPE svg PUBLIC "-//W3C//DTD SVG 1.1//EN" "http://www.w3.org/Graphics/SVG/1.1/DTD/svg11.dtd">
<svg xmlns="http://www.w3.org/2000/svg" xmlns:xlink="http://www.w3.org/1999/xlink" version="1.1" id="Capa_1" x="0px" y="0px" width="32px" height="32px" viewBox="0 0 32 32" enable-background="new 0 0 32 32" xml:space="preserve">
<g>
	<path d="M28.29,9.71l1.42-1.42l-4-4l-1.42,1.42L25.58,7l-2.13,2.13C21.42,7.38,18.83,6.25,16,6.05V4h2V2h-6v2h2v2.05   C7.29,6.55,2,12.16,2,19c0,7.18,5.82,13,13,13c7.18,0,13-5.82,13-13c0-3.23-1.18-6.18-3.13-8.45L27,8.42L28.29,9.71z M26,19   c0,6.07-4.93,11-11,11C8.93,30,4,25.07,4,19C4,12.93,8.93,8,15,8C21.07,8,26,12.93,26,19z"/>
	<path d="M24,19c0,4.96-4.04,9-9,9s-9-4.04-9-9c0-0.55,0.45-1,1-1s1,0.45,1,1c0,3.86,3.14,7,7,7c3.86,0,7-3.14,7-7   c0-3.51-2.61-6.44-6-6.92V17c0,0.55-0.45,1-1,1s-1-0.45-1-1c0,0,0-5,0-6s1-1,1-1c0.06,0,0.12,0,0.18,0.01c0.13,0,0.26,0,0.38,0.01   C20.27,10.31,24,14.23,24,19z"/>
</g>
</svg>
