<?xml version="1.0" encoding="utf-8"?>
<!-- Generator: Adobe Illustrator 16.0.0, SVG Export Plug-In . SVG Version: 6.00 Build 0)  -->
<!DOCTYPE svg PUBLIC "-//W3C//DTD SVG 1.1//EN" "http://www.w3.org/Graphics/SVG/1.1/DTD/svg11.dtd">
<svg xmlns="http://www.w3.org/2000/svg" xmlns:xlink="http://www.w3.org/1999/xlink" version="1.1" id="Capa_1" x="0px" y="0px" width="32px" height="32px" viewBox="0 0 32 32" enable-background="new 0 0 32 32" xml:space="preserve">
<g>
	<g>
		<path d="M22,4H8c-7.91,0-8,6.93-8,7v14c0,3.96,3.27,5,5,5h20c1.73,0,5-1.04,5-5V11C30,10.93,29.91,4,22,4z M28,25    c0,2.82-2.5,2.99-3,3H5.01C4.5,27.99,2,27.82,2,25v-5h4.66L15,26.25L23.34,20H28V25z M8.27,18.7l3.35-6.7h6.76l3.351,6.7L15,23.75    L8.27,18.7z M28,18h-4.38l-4-8h-9.24l-4,8H2v-7c0-0.2,0.07-5,6-5h14c5.78,0,6,4.49,6,5V18z"/>
	</g>
	<g>
		<path d="M18,17c0,1.31-0.83,2.42-2,2.82V22h-2v-2.18c-1.17-0.4-2-1.511-2-2.82c0-1.66,1.34-3,3-3S18,15.34,18,17z"/>
	</g>
</g>
</svg>
