<?xml version="1.0" encoding="utf-8"?>
<!-- Generator: Adobe Illustrator 16.0.0, SVG Export Plug-In . SVG Version: 6.00 Build 0)  -->
<!DOCTYPE svg PUBLIC "-//W3C//DTD SVG 1.1//EN" "http://www.w3.org/Graphics/SVG/1.1/DTD/svg11.dtd">
<svg xmlns="http://www.w3.org/2000/svg" xmlns:xlink="http://www.w3.org/1999/xlink" version="1.1" id="Capa_1" x="0px" y="0px" width="32px" height="32px" viewBox="0 0 32 32" enable-background="new 0 0 32 32" xml:space="preserve">
<g>
	<path d="M28,4l-8,24h-4c-1.914-6.507-5.202-16.726-5.789-18.105C8.577,6.057,4,6,4,6V4h6c2.375,0,2.844,2.047,3.789,4.105   c0.634,1.381,2.774,8.128,4.358,13.383L24,4H28 M30.774,2h-8.214l-4.336,12.955c-1.051-3.333-2.867-8.247-2.984-8.522   C14.489,4.667,13.353,2,10,2H2v5.976L3.975,8c0.122,0.003,3.305,0.117,4.396,2.678C8.877,11.866,14.503,30,14.503,30h6.938   L30.774,2L30.774,2z"/>
</g>
</svg>
