<?xml version="1.0" encoding="utf-8"?>
<!-- Generator: Adobe Illustrator 16.0.0, SVG Export Plug-In . SVG Version: 6.00 Build 0)  -->
<!DOCTYPE svg PUBLIC "-//W3C//DTD SVG 1.1//EN" "http://www.w3.org/Graphics/SVG/1.1/DTD/svg11.dtd">
<svg xmlns="http://www.w3.org/2000/svg" xmlns:xlink="http://www.w3.org/1999/xlink" version="1.1" id="Capa_1" x="0px" y="0px" width="32px" height="32px" viewBox="0 0 32 32" enable-background="new 0 0 32 32" xml:space="preserve">
<g>
	<path d="M0.1,6C0.03,6.36,0,6.71,0,7V6H0.1z"/>
	<path d="M32,4V2H5C1.72,2,0.44,4.24,0.1,6C0.03,6.36,0,6.71,0,7v18c0,1.73,1.04,5,5,5h27V10h-2V4H32z M5,4h23v6H5   c-2.82,0-2.99-2.5-3-2.99C2.01,6.5,2.18,4,5,4z M30,28H5c-2.82,0-2.99-2.5-3-3v-1h28V28z M30,22H2v-4h28V22z M30,16H2v-4.88   C2.73,11.65,3.71,12,5,12h25V16z"/>
</g>
</svg>
