<?xml version="1.0" encoding="utf-8"?>
<!-- Generator: Adobe Illustrator 16.0.0, SVG Export Plug-In . SVG Version: 6.00 Build 0)  -->
<!DOCTYPE svg PUBLIC "-//W3C//DTD SVG 1.1//EN" "http://www.w3.org/Graphics/SVG/1.1/DTD/svg11.dtd">
<svg xmlns="http://www.w3.org/2000/svg" xmlns:xlink="http://www.w3.org/1999/xlink" version="1.1" id="Capa_1" x="0px" y="0px" width="32px" height="32px" viewBox="0 0 32 32" enable-background="new 0 0 32 32" xml:space="preserve">
<g>
	<polygon points="32,26 32,28 26,28 26,11.3 17,6.15 8,11.3 8,28 2,28 2,26 6,26 6,12.44 3.5,13.87 2.5,12.13 17,3.85 31.5,12.13    30.5,13.87 28,12.44 28,26  "/>
</g>
<g>
	<path d="M10,14v14h14V14H10z M22,26H12v-2h10V26z M22,22H12v-2h10V22z M22,18H12v-2h10V18z"/>
</g>
<g>
	<rect x="14" y="10" width="6" height="2"/>
</g>
</svg>
