<?xml version="1.0" encoding="utf-8"?>
<!-- Generator: Adobe Illustrator 16.0.0, SVG Export Plug-In . SVG Version: 6.00 Build 0)  -->
<!DOCTYPE svg PUBLIC "-//W3C//DTD SVG 1.1//EN" "http://www.w3.org/Graphics/SVG/1.1/DTD/svg11.dtd">
<svg xmlns="http://www.w3.org/2000/svg" xmlns:xlink="http://www.w3.org/1999/xlink" version="1.1" id="Capa_1" x="0px" y="0px" width="32px" height="32px" viewBox="0 0 32 32" enable-background="new 0 0 32 32" xml:space="preserve">
<g>
	<path d="M29,6H3C1.79,6,0,6.8,0,9c0,2.02,1.76,9.15,2.02,10.19C2.12,20.34,3.29,26,16,26s13.88-5.66,13.98-6.81   C30.24,18.15,32,11.02,32,9C32,6.8,30.21,6,29,6z M16,24c-8.35,0-10.89-2.54-11.67-4h23.33C26.89,21.47,24.34,24,16,24z M28.22,18   H3.78c-0.14-0.57-0.3-1.26-0.48-2h25.4C28.52,16.74,28.36,17.43,28.22,18z M29.15,14H2.85C2.4,11.9,2,9.82,2,9   c0-0.81,0.55-0.99,1-1h25.99C29.45,8.01,30,8.19,30,9C30,9.82,29.6,11.9,29.15,14z"/>
</g>
</svg>
