<?xml version="1.0" encoding="utf-8"?>
<!-- Generator: Adobe Illustrator 16.0.0, SVG Export Plug-In . SVG Version: 6.00 Build 0)  -->
<!DOCTYPE svg PUBLIC "-//W3C//DTD SVG 1.1//EN" "http://www.w3.org/Graphics/SVG/1.1/DTD/svg11.dtd">
<svg xmlns="http://www.w3.org/2000/svg" xmlns:xlink="http://www.w3.org/1999/xlink" version="1.1" id="Capa_1" x="0px" y="0px" width="32px" height="32px" viewBox="0 0 32 32" enable-background="new 0 0 32 32" xml:space="preserve">
<g>
	<path d="M23,10h-5V7.87c1.73-0.44,3-2.01,3-3.87c0-2.21-1.79-4-4-4s-4,1.79-4,4c0,1.86,1.27,3.43,3,3.87V10h-5c-0.55,0-1,0.45-1,1   v20c0,0.55,0.45,1,1,1h12c0.55,0,1-0.45,1-1V11C24,10.45,23.55,10,23,10z M15,4c0-1.1,0.9-2,2-2c1.1,0,2,0.9,2,2s-0.9,2-2,2   C15.9,6,15,5.1,15,4z M22,30H12V12h10V30z"/>
</g>
</svg>
