<?xml version="1.0" encoding="utf-8"?>
<!-- Generator: Adobe Illustrator 16.0.0, SVG Export Plug-In . SVG Version: 6.00 Build 0)  -->
<!DOCTYPE svg PUBLIC "-//W3C//DTD SVG 1.1//EN" "http://www.w3.org/Graphics/SVG/1.1/DTD/svg11.dtd">
<svg xmlns="http://www.w3.org/2000/svg" xmlns:xlink="http://www.w3.org/1999/xlink" version="1.1" id="Capa_1" x="0px" y="0px" width="32px" height="32px" viewBox="0 0 32 32" enable-background="new 0 0 32 32" xml:space="preserve">
<g>
	<g>
		<path d="M29.95,30.68l-6-18C23.81,12.28,23.43,12,23,12h-7V9.9c2.28-0.46,4-2.48,4-4.9c0-2.76-2.24-5-5-5s-5,2.24-5,5    c0,2.42,1.72,4.44,4,4.9V12H7c-0.43,0-0.81,0.28-0.95,0.68l-6,18C-0.05,30.99,0,31.32,0.19,31.58C0.38,31.85,0.68,32,1,32h28    c0.32,0,0.62-0.15,0.81-0.42C30,31.32,30.05,30.99,29.95,30.68z M12,5c0-1.65,1.35-3,3-3s3,1.35,3,3s-1.35,3-3,3S12,6.65,12,5z     M2.39,30l5.33-16H22.28l5.33,16H2.39z"/>
	</g>
	<g>
		<polygon points="19.71,23.71 15,28.41 10.29,23.71 11.71,22.29 14,24.59 14,16 16,16 16,24.59 18.29,22.29   "/>
	</g>
</g>
</svg>
