<?xml version="1.0" encoding="utf-8"?>
<!-- Generator: Adobe Illustrator 16.0.0, SVG Export Plug-In . SVG Version: 6.00 Build 0)  -->
<!DOCTYPE svg PUBLIC "-//W3C//DTD SVG 1.1//EN" "http://www.w3.org/Graphics/SVG/1.1/DTD/svg11.dtd">
<svg xmlns="http://www.w3.org/2000/svg" xmlns:xlink="http://www.w3.org/1999/xlink" version="1.1" id="Capa_1" x="0px" y="0px" width="32px" height="32px" viewBox="0 0 32 32" enable-background="new 0 0 32 32" xml:space="preserve">
<g>
	<path d="M25,10h-7V7.87c1.73-0.44,3-2.01,3-3.87c0-2.21-1.79-4-4-4s-4,1.79-4,4c0,1.86,1.27,3.43,3,3.87V10H9c-0.55,0-1,0.45-1,1   v20c0,0.55,0.45,1,1,1h16c0.55,0,1-0.45,1-1V11C26,10.45,25.55,10,25,10z M15,4c0-1.1,0.9-2,2-2c1.1,0,2,0.9,2,2s-0.9,2-2,2   C15.9,6,15,5.1,15,4z M24,30H10V12h14V30z"/>
</g>
<g>
	<polygon points="21.71,23.71 17,28.41 12.29,23.71 13.71,22.29 16,24.59 16,14 18,14 18,24.59 20.29,22.29  "/>
</g>
</svg>
