<?xml version="1.0" encoding="utf-8"?>
<!-- Generator: Adobe Illustrator 16.0.0, SVG Export Plug-In . SVG Version: 6.00 Build 0)  -->
<!DOCTYPE svg PUBLIC "-//W3C//DTD SVG 1.1//EN" "http://www.w3.org/Graphics/SVG/1.1/DTD/svg11.dtd">
<svg xmlns="http://www.w3.org/2000/svg" xmlns:xlink="http://www.w3.org/1999/xlink" version="1.1" id="Capa_1" x="0px" y="0px" width="32px" height="32px" viewBox="0 0 32 32" enable-background="new 0 0 32 32" xml:space="preserve">
<g>
	<path d="M31.93,30.63l-8-20C23.78,10.25,23.41,10,23,10h-5V7.87c1.73-0.44,3-2.01,3-3.87c0-2.21-1.79-4-4-4s-4,1.79-4,4   c0,1.86,1.27,3.43,3,3.87V10h-5c-0.41,0-0.78,0.25-0.93,0.63l-8,20c-0.12,0.311-0.08,0.66,0.1,0.93C2.36,31.83,2.67,32,3,32h28   c0.33,0,0.64-0.17,0.83-0.44C32.01,31.29,32.05,30.94,31.93,30.63z M15,4c0-1.1,0.9-2,2-2c1.1,0,2,0.9,2,2s-0.9,2-2,2   C15.9,6,15,5.1,15,4z M4.48,30l7.2-18h10.64l7.199,18H4.48z"/>
</g>
</svg>
