<?xml version="1.0" encoding="utf-8"?>
<!-- Generator: Adobe Illustrator 16.0.0, SVG Export Plug-In . SVG Version: 6.00 Build 0)  -->
<!DOCTYPE svg PUBLIC "-//W3C//DTD SVG 1.1//EN" "http://www.w3.org/Graphics/SVG/1.1/DTD/svg11.dtd">
<svg xmlns="http://www.w3.org/2000/svg" xmlns:xlink="http://www.w3.org/1999/xlink" version="1.1" id="Capa_1" x="0px" y="0px" width="32px" height="32px" viewBox="0 0 32 32" enable-background="new 0 0 32 32" xml:space="preserve">
<g>
	<path d="M14,14c1.103,0,2,0.897,2,2c0,1.103-0.897,2-2,2s-2-0.897-2-2C12,14.897,12.897,14,14,14L14,14z M14,12   c-2.209,0-4,1.791-4,4s1.791,4,4,4s4-1.791,4-4S16.209,12,14,12L14,12z"/>
</g>
<g>
	<path d="M24.29,19.71l2.3,2.29H22V12h4.59l-2.3,2.29l1.42,1.42l4.7-4.71l-4.7-4.71l-1.42,1.42l2.3,2.29H22V4H6v6H0v2h6v10H0v2h6v4   h16v-4h4.59l-2.3,2.29l1.42,1.42l4.7-4.71l-4.7-4.71L24.29,19.71z M20,26H8V6h12V26z"/>
</g>
</svg>
