<?xml version="1.0" encoding="utf-8"?>
<!-- Generator: Adobe Illustrator 16.0.0, SVG Export Plug-In . SVG Version: 6.00 Build 0)  -->
<!DOCTYPE svg PUBLIC "-//W3C//DTD SVG 1.1//EN" "http://www.w3.org/Graphics/SVG/1.1/DTD/svg11.dtd">
<svg xmlns="http://www.w3.org/2000/svg" xmlns:xlink="http://www.w3.org/1999/xlink" version="1.1" id="Capa_1" x="0px" y="0px" width="32px" height="32px" viewBox="0 0 32 32" enable-background="new 0 0 32 32" xml:space="preserve">
<g>
	<path d="M26,30V14h-6v2h4v14h-3c0.63-0.83,1-1.87,1-3c0-2.76-2.24-5-5-5s-5,2.24-5,5c0,1.13,0.37,2.17,1,3h-3V16h4v-2H8v16H4v2h26   v-2H26z M17,30c-1.65,0-3-1.35-3-3s1.35-3,3-3c1.65,0,3,1.35,3,3S18.65,30,17,30z"/>
</g>
<g>
	<polygon points="21.71,6.29 20.29,7.71 18,5.41 18,18 16,18 16,5.41 13.71,7.71 12.29,6.29 17,1.59  "/>
</g>
</svg>
