<?xml version="1.0" encoding="utf-8"?>
<!-- Generator: Adobe Illustrator 16.0.0, SVG Export Plug-In . SVG Version: 6.00 Build 0)  -->
<!DOCTYPE svg PUBLIC "-//W3C//DTD SVG 1.1//EN" "http://www.w3.org/Graphics/SVG/1.1/DTD/svg11.dtd">
<svg version="1.1" id="Layer_1" xmlns="http://www.w3.org/2000/svg" xmlns:xlink="http://www.w3.org/1999/xlink" x="0px" y="0px"
	 width="48px" height="48px" viewBox="0 0 48 48" enable-background="new 0 0 48 48" xml:space="preserve">
<g>
	<path d="M24,4C12.954,4,4,12.954,4,24s8.954,20,20,20s20-8.954,20-20S35.046,4,24,4z M24,42c-9.941,0-18-8.059-18-18
		c0-9.941,8.059-18,18-18c9.941,0,18,8.059,18,18C42,33.941,33.941,42,24,42z"/>
	<circle cx="24" cy="15.242" r="2.242"/>
	<path d="M33.357,18.4c-1.006,0-18.087,0-18.716,0c-0.473,0-0.857,0.385-0.857,0.858c0,0.441,0.331,0.826,0.761,0.852
		c1.567,0.097,4.6,0.285,5.846,0.362c0.452,0.027,0.8,0.429,0.8,0.891c0,0.496,0,3.744,0,4.368s-0.09,1.819-0.303,2.786
		s-0.213,0.967-1.66,7.419c-0.104,0.462,0.167,0.925,0.627,1.039c0.46,0.113,0.906-0.173,1.039-0.628
		c0.382-1.304,1.914-6.538,2.382-8.139c0.112-0.383,0.324-0.724,0.723-0.724c0.399,0,0.611,0.341,0.723,0.724
		c0.468,1.601,2,6.835,2.381,8.139c0.134,0.455,0.579,0.741,1.04,0.628c0.458-0.114,0.729-0.577,0.627-1.039
		c-1.448-6.452-1.448-6.452-1.66-7.419c-0.214-0.967-0.304-2.162-0.304-2.786s0-3.872,0-4.368c0-0.462,0.35-0.864,0.801-0.891
		c1.246-0.077,4.279-0.265,5.846-0.362c0.432-0.026,0.762-0.411,0.762-0.852C34.216,18.785,33.831,18.4,33.357,18.4z"/>
</g>
</svg>
