<?xml version="1.0" encoding="utf-8"?>
<!-- Generator: Adobe Illustrator 16.0.0, SVG Export Plug-In . SVG Version: 6.00 Build 0)  -->
<!DOCTYPE svg PUBLIC "-//W3C//DTD SVG 1.1//EN" "http://www.w3.org/Graphics/SVG/1.1/DTD/svg11.dtd">
<svg version="1.1" id="Layer_1" xmlns="http://www.w3.org/2000/svg" xmlns:xlink="http://www.w3.org/1999/xlink" x="0px" y="0px"
	 width="48px" height="48px" viewBox="0 0 48 48" enable-background="new 0 0 48 48" xml:space="preserve">
<path d="M42,22H12.828l8.586-8.586c0.781-0.781,0.781-2.047,0-2.828s-2.047-0.781-2.828,0L6.589,22.583
	c-0.011,0.01-0.021,0.021-0.03,0.03v0.001c-0.178,0.184-0.313,0.394-0.404,0.615c-0.199,0.475-0.199,1.066,0,1.541
	c0.092,0.222,0.227,0.432,0.404,0.615c0,0.001,0,0.001,0,0.001c0.01,0.01,0.02,0.021,0.03,0.031l11.997,11.996
	c0.781,0.781,2.047,0.781,2.828,0c0.781-0.78,0.781-2.048,0-2.828L12.828,26H42c1.104,0,2-0.896,2-2S43.104,22,42,22z"/>
</svg>
