<?xml version="1.0" encoding="utf-8"?>
<!-- Generator: Adobe Illustrator 16.0.0, SVG Export Plug-In . SVG Version: 6.00 Build 0)  -->
<!DOCTYPE svg PUBLIC "-//W3C//DTD SVG 1.1//EN" "http://www.w3.org/Graphics/SVG/1.1/DTD/svg11.dtd">
<svg version="1.1" id="Layer_1" xmlns="http://www.w3.org/2000/svg" xmlns:xlink="http://www.w3.org/1999/xlink" x="0px" y="0px"
	 width="48px" height="48px" viewBox="0 0 48 48" enable-background="new 0 0 48 48" xml:space="preserve">
<path d="M41.846,23.229c-0.092-0.222-0.227-0.432-0.404-0.616c0,0,0,0,0,0c-0.01-0.01-0.02-0.021-0.03-0.031L29.414,10.586
	c-0.781-0.781-2.047-0.781-2.828,0c-0.781,0.78-0.781,2.048,0,2.828L35.172,22H6c-1.104,0-2,0.896-2,2s0.896,2,2,2h29.172
	l-8.586,8.586c-0.781,0.781-0.781,2.047,0,2.828s2.047,0.781,2.828,0l11.997-11.997c0.011-0.01,0.021-0.021,0.03-0.03v-0.001
	c0.178-0.184,0.313-0.394,0.404-0.615C42.045,24.296,42.045,23.704,41.846,23.229z"/>
</svg>
