<?xml version="1.0" encoding="utf-8"?>
<!-- Generator: Adobe Illustrator 16.0.0, SVG Export Plug-In . SVG Version: 6.00 Build 0)  -->
<!DOCTYPE svg PUBLIC "-//W3C//DTD SVG 1.1//EN" "http://www.w3.org/Graphics/SVG/1.1/DTD/svg11.dtd">
<svg version="1.1" id="Layer_1" xmlns="http://www.w3.org/2000/svg" xmlns:xlink="http://www.w3.org/1999/xlink" x="0px" y="0px"
	 width="48px" height="48px" viewBox="0 0 48 48" enable-background="new 0 0 48 48" xml:space="preserve">
<path d="M37.414,26.586c-0.78-0.781-2.048-0.781-2.828,0L26,35.172V6c0-1.104-0.896-2-2-2s-2,0.896-2,2v29.172l-8.586-8.586
	c-0.781-0.781-2.047-0.781-2.828,0s-0.781,2.047,0,2.828l11.997,11.997c0.01,0.011,0.021,0.021,0.03,0.03h0.001
	c0.184,0.178,0.394,0.313,0.615,0.404c0.475,0.199,1.066,0.199,1.541,0c0.222-0.092,0.432-0.227,0.615-0.404
	c0.001,0,0.001,0,0.001,0c0.01-0.01,0.021-0.02,0.031-0.03l11.996-11.997C38.195,28.633,38.195,27.367,37.414,26.586z"/>
</svg>
