<?xml version="1.0" encoding="utf-8"?>
<!-- Generator: Adobe Illustrator 16.0.0, SVG Export Plug-In . SVG Version: 6.00 Build 0)  -->
<!DOCTYPE svg PUBLIC "-//W3C//DTD SVG 1.1//EN" "http://www.w3.org/Graphics/SVG/1.1/DTD/svg11.dtd">
<svg version="1.1" id="Layer_1" xmlns="http://www.w3.org/2000/svg" xmlns:xlink="http://www.w3.org/1999/xlink" x="0px" y="0px"
	 width="48px" height="48px" viewBox="0 0 48 48" enable-background="new 0 0 48 48" xml:space="preserve">
<path d="M37.414,18.586L25.417,6.589c-0.01-0.01-0.021-0.02-0.03-0.03l-0.001,0c-0.184-0.177-0.393-0.312-0.615-0.404
	c-0.475-0.198-1.066-0.198-1.541,0c-0.222,0.093-0.432,0.228-0.616,0.404c0,0,0,0,0,0c-0.01,0.01-0.021,0.02-0.031,0.03
	L10.586,18.586c-0.781,0.781-0.781,2.047,0,2.828c0.78,0.781,2.048,0.781,2.828,0L22,12.829V42c0,1.104,0.896,2,2,2s2-0.896,2-2
	V12.829l8.586,8.585c0.781,0.781,2.047,0.781,2.828,0C38.195,20.633,38.195,19.367,37.414,18.586z"/>
</svg>
