<?xml version="1.0" encoding="utf-8"?>
<!-- Generator: Adobe Illustrator 16.0.0, SVG Export Plug-In . SVG Version: 6.00 Build 0)  -->
<!DOCTYPE svg PUBLIC "-//W3C//DTD SVG 1.1//EN" "http://www.w3.org/Graphics/SVG/1.1/DTD/svg11.dtd">
<svg version="1.1" id="Layer_1" xmlns="http://www.w3.org/2000/svg" xmlns:xlink="http://www.w3.org/1999/xlink" x="0px" y="0px"
	 width="48px" height="48px" viewBox="0 0 48 48" enable-background="new 0 0 48 48" xml:space="preserve">
<g>
	<path d="M30.586,20.586L24,27.172l-6.586-6.586C17.023,20.195,16.512,20,16,20s-1.023,0.195-1.414,0.586
		c-0.781,0.781-0.781,2.047,0,2.828l8,8c0.781,0.781,2.048,0.781,2.828,0l8-8c0.781-0.781,0.781-2.047,0-2.828
		C32.634,19.805,31.366,19.805,30.586,20.586z"/>
	<path d="M24,4C12.972,4,4,12.972,4,24s8.972,20,20,20s20-8.972,20-20S35.028,4,24,4z M24,40c-8.822,0-16-7.178-16-16S15.178,8,24,8
		s16,7.178,16,16S32.822,40,24,40z"/>
</g>
</svg>
