<?xml version="1.0" encoding="utf-8"?>
<!-- Generator: Adobe Illustrator 16.0.0, SVG Export Plug-In . SVG Version: 6.00 Build 0)  -->
<!DOCTYPE svg PUBLIC "-//W3C//DTD SVG 1.1//EN" "http://www.w3.org/Graphics/SVG/1.1/DTD/svg11.dtd">
<svg version="1.1" id="Layer_1" xmlns="http://www.w3.org/2000/svg" xmlns:xlink="http://www.w3.org/1999/xlink" x="0px" y="0px"
	 width="48px" height="48px" viewBox="0 0 48 48" enable-background="new 0 0 48 48" xml:space="preserve">
<path d="M37,4H9C7.15,4,5.38,5.03,4.51,6.79c-1.21,2.48-0.19,5.48,2.28,6.7C7.07,13.63,7.5,13.84,8,14.08V41c0,1.66,1.34,3,3,3h26
	c1.66,0,3-1.34,3-3V7C40,5.34,38.66,4,37,4z M17.97,13.42c-0.35,0.71-0.96,1.25-1.72,1.51c-0.32,0.11-0.64,0.16-0.97,0.16
	c-0.45,0-0.9-0.1-1.32-0.31l-3.25-1.59l0.89-1.8l3.24,1.6c0.24,0.12,0.51,0.13,0.76,0.05c0.26-0.09,0.46-0.27,0.58-0.51
	c0.12-0.24,0.13-0.51,0.05-0.76c-0.09-0.25-0.27-0.46-0.51-0.58L9.44,8.1C8.95,7.86,8.35,8.06,8.1,8.56C8.04,8.7,8,8.85,8,9
	c0,0.11,0,2.85,0,2.85l-0.32-0.16c-0.72-0.35-1.26-0.96-1.52-1.72C5.9,9.21,5.96,8.4,6.31,7.68c0.36-0.74,1-1.27,1.73-1.51
	c0.72-0.26,1.54-0.23,2.29,0.14l6.28,3.09c0.72,0.35,1.25,0.97,1.51,1.72C18.38,11.88,18.33,12.7,17.97,13.42z"/>
</svg>
