<?xml version="1.0" encoding="utf-8"?>
<!-- Generator: Adobe Illustrator 16.0.0, SVG Export Plug-In . SVG Version: 6.00 Build 0)  -->
<!DOCTYPE svg PUBLIC "-//W3C//DTD SVG 1.1//EN" "http://www.w3.org/Graphics/SVG/1.1/DTD/svg11.dtd">
<svg version="1.1" id="Layer_1" xmlns="http://www.w3.org/2000/svg" xmlns:xlink="http://www.w3.org/1999/xlink" x="0px" y="0px"
	 width="48px" height="48px" viewBox="0 0 48 48" enable-background="new 0 0 48 48" xml:space="preserve">
<g>
	<path d="M12,20v8c0,1.654,1.346,3,3,3h8.586l6.707,6.707C30.484,37.898,30.74,38,31,38c0.129,0,0.259-0.024,0.383-0.076
		C31.756,37.77,32,37.404,32,37v-2.758l-17.22-17.22C13.23,17.137,12,18.421,12,20z"/>
	<path d="M32,11c0-0.404-0.244-0.769-0.617-0.924c-0.375-0.155-0.804-0.069-1.09,0.217L23.586,17h-0.344L32,25.758V11z"/>
	<path d="M39.707,36.293l-26-26c-0.391-0.391-1.023-0.391-1.414,0s-0.391,1.023,0,1.414l26,26C38.488,37.902,38.744,38,39,38
		s0.512-0.098,0.707-0.293C40.098,37.316,40.098,36.684,39.707,36.293z"/>
</g>
</svg>
