<?xml version="1.0" encoding="utf-8"?>
<!-- Generator: Adobe Illustrator 16.0.0, SVG Export Plug-In . SVG Version: 6.00 Build 0)  -->
<!DOCTYPE svg PUBLIC "-//W3C//DTD SVG 1.1//EN" "http://www.w3.org/Graphics/SVG/1.1/DTD/svg11.dtd">
<svg version="1.1" id="Layer_1" xmlns="http://www.w3.org/2000/svg" xmlns:xlink="http://www.w3.org/1999/xlink" x="0px" y="0px"
	 width="48px" height="48px" viewBox="0 0 48 48" enable-background="new 0 0 48 48" xml:space="preserve">
<g>
	<path d="M26.094,15.255c-0.412-0.368-1.044-0.335-1.413,0.077c-0.369,0.411-0.334,1.043,0.077,1.412C26.818,18.592,28,21.236,28,24
		c0,2.768-1.182,5.412-3.241,7.255c-0.412,0.368-0.446,1-0.078,1.412C24.878,32.888,25.151,33,25.426,33
		c0.237,0,0.476-0.084,0.667-0.255C28.576,30.523,30,27.336,30,24C30,20.669,28.576,17.481,26.094,15.255z"/>
	<path d="M21.383,10.076c-0.375-0.155-0.804-0.069-1.09,0.217L13.586,17H5c-1.654,0-3,1.346-3,3v8c0,1.654,1.346,3,3,3h8.586
		l6.707,6.707C20.484,37.898,20.74,38,21,38c0.129,0,0.259-0.024,0.383-0.076C21.756,37.77,22,37.404,22,37V11
		C22,10.596,21.756,10.231,21.383,10.076z"/>
	<path d="M37.673,5.367C37.263,5,36.629,5.033,36.261,5.445c-0.368,0.412-0.333,1.043,0.078,1.412C41.208,11.216,44,17.465,44,24
		s-2.792,12.783-7.661,17.143c-0.411,0.368-0.446,1.001-0.078,1.412c0.197,0.221,0.471,0.333,0.745,0.333
		c0.238,0,0.477-0.084,0.667-0.255C42.965,37.895,46,31.104,46,24S42.965,10.105,37.673,5.367z"/>
	<path d="M31.858,10.255c-0.41-0.368-1.042-0.334-1.412,0.077c-0.368,0.411-0.334,1.043,0.078,1.412C34.004,14.864,36,19.331,36,24
		c0,4.671-1.996,9.138-5.476,12.255c-0.411,0.369-0.446,1.001-0.078,1.412C30.645,37.888,30.917,38,31.191,38
		c0.238,0,0.477-0.084,0.667-0.255C35.762,34.248,38,29.238,38,24C38,18.763,35.762,13.753,31.858,10.255z"/>
</g>
</svg>
