<?xml version="1.0" encoding="utf-8"?>
<!-- Generator: Adobe Illustrator 16.0.0, SVG Export Plug-In . SVG Version: 6.00 Build 0)  -->
<!DOCTYPE svg PUBLIC "-//W3C//DTD SVG 1.1//EN" "http://www.w3.org/Graphics/SVG/1.1/DTD/svg11.dtd">
<svg version="1.1" id="Layer_1" xmlns="http://www.w3.org/2000/svg" xmlns:xlink="http://www.w3.org/1999/xlink" x="0px" y="0px"
	 width="48px" height="48px" viewBox="0 0 48 48" enable-background="new 0 0 48 48" xml:space="preserve">
<g>
	<path d="M29.383,10.076c-0.375-0.155-0.804-0.069-1.09,0.217L21.586,17H13c-1.654,0-3,1.346-3,3v8c0,1.654,1.346,3,3,3h8.586
		l6.707,6.707C28.484,37.898,28.74,38,29,38c0.129,0,0.259-0.024,0.383-0.076C29.756,37.77,30,37.404,30,37V11
		C30,10.596,29.756,10.231,29.383,10.076z"/>
	<path d="M34.094,15.255c-0.412-0.368-1.044-0.335-1.412,0.077c-0.369,0.411-0.334,1.043,0.076,1.412C34.818,18.592,36,21.236,36,24
		c0,2.768-1.182,5.412-3.241,7.255c-0.411,0.368-0.446,1-0.078,1.412C32.878,32.888,33.151,33,33.426,33
		c0.237,0,0.476-0.084,0.667-0.255C36.576,30.523,38,27.336,38,24C38,20.669,36.576,17.481,34.094,15.255z"/>
</g>
</svg>
