<?xml version="1.0" encoding="utf-8"?>
<!-- Generator: Adobe Illustrator 16.0.0, SVG Export Plug-In . SVG Version: 6.00 Build 0)  -->
<!DOCTYPE svg PUBLIC "-//W3C//DTD SVG 1.1//EN" "http://www.w3.org/Graphics/SVG/1.1/DTD/svg11.dtd">
<svg version="1.1" id="Layer_1" xmlns="http://www.w3.org/2000/svg" xmlns:xlink="http://www.w3.org/1999/xlink" x="0px" y="0px"
	 width="48px" height="48px" viewBox="0 0 48 48" enable-background="new 0 0 48 48" xml:space="preserve">
<g>
	<path d="M30.094,15.255c-0.412-0.368-1.044-0.335-1.412,0.077c-0.369,0.411-0.334,1.043,0.076,1.412C30.818,18.592,32,21.236,32,24
		c0,2.768-1.182,5.412-3.241,7.255c-0.411,0.368-0.446,1-0.078,1.412C28.878,32.888,29.151,33,29.426,33
		c0.237,0,0.476-0.084,0.667-0.255C32.576,30.523,34,27.336,34,24C34,20.669,32.576,17.481,30.094,15.255z"/>
	<path d="M25.383,10.076c-0.375-0.155-0.804-0.069-1.09,0.217L17.586,17H9c-1.654,0-3,1.346-3,3v8c0,1.654,1.346,3,3,3h8.586
		l6.707,6.707C24.484,37.898,24.74,38,25,38c0.129,0,0.259-0.024,0.383-0.076C25.756,37.77,26,37.404,26,37V11
		C26,10.596,25.756,10.231,25.383,10.076z"/>
	<path d="M35.858,10.255c-0.41-0.368-1.042-0.334-1.412,0.077c-0.368,0.411-0.334,1.043,0.078,1.412C38.004,14.864,40,19.331,40,24
		c0,4.671-1.996,9.138-5.476,12.255c-0.411,0.369-0.446,1.001-0.078,1.412C34.645,37.888,34.917,38,35.191,38
		c0.238,0,0.477-0.084,0.667-0.255C39.762,34.248,42,29.238,42,24C42,18.763,39.762,13.753,35.858,10.255z"/>
</g>
</svg>
