<?xml version="1.0" encoding="utf-8"?>
<!-- Generator: Adobe Illustrator 16.0.0, SVG Export Plug-In . SVG Version: 6.00 Build 0)  -->
<!DOCTYPE svg PUBLIC "-//W3C//DTD SVG 1.1//EN" "http://www.w3.org/Graphics/SVG/1.1/DTD/svg11.dtd">
<svg version="1.1" id="Layer_1" xmlns="http://www.w3.org/2000/svg" xmlns:xlink="http://www.w3.org/1999/xlink" x="0px" y="0px"
	 width="48px" height="48px" viewBox="0 0 48 48" enable-background="new 0 0 48 48" xml:space="preserve">
<g>
	<path d="M45,19h-1v8h1c1.104,0,2-0.896,2-2v-4C47,19.896,46.104,19,45,19z"/>
	<path d="M18,16H8c-1.104,0-2,0.896-2,2v10c0,1.104,0.896,2,2,2h10c1.104,0,2-0.896,2-2V18C20,16.896,19.104,16,18,16z"/>
	<path d="M36,12H8c-3.313,0-6,2.687-6,6v10c0,3.313,2.687,6,6,6h28c3.313,0,6-2.687,6-6V18C42,14.687,39.313,12,36,12z M40,28
		c0,2.209-1.791,4-4,4H8c-2.209,0-4-1.791-4-4V18c0-2.209,1.791-4,4-4h28c2.209,0,4,1.791,4,4V28z"/>
</g>
</svg>
