<?xml version="1.0" encoding="utf-8"?>
<!-- Generator: Adobe Illustrator 16.0.0, SVG Export Plug-In . SVG Version: 6.00 Build 0)  -->
<!DOCTYPE svg PUBLIC "-//W3C//DTD SVG 1.1//EN" "http://www.w3.org/Graphics/SVG/1.1/DTD/svg11.dtd">
<svg version="1.1" id="Layer_1" xmlns="http://www.w3.org/2000/svg" xmlns:xlink="http://www.w3.org/1999/xlink" x="0px" y="0px"
	 width="48px" height="48px" viewBox="0 0 48 48" enable-background="new 0 0 48 48" xml:space="preserve">
<g>
	<path d="M27.445,41h-6.891c-0.358,0-0.688,0.191-0.867,0.502c-0.178,0.31-0.177,0.692,0.003,1.001C20.587,44.043,22.239,45,24,45
		c1.761,0,3.412-0.957,4.31-2.497c0.18-0.309,0.181-0.691,0.003-1.001C28.134,41.191,27.804,41,27.445,41z"/>
	<path d="M38.721,38.307l-2.514-2.609l-1.21-14.779c-0.46-5.608-3.312-9.357-7.812-10.525C27.689,9.724,28,8.9,28,8
		c0-2.206-1.794-4-4-4c-2.206,0-4,1.794-4,4c0,0.9,0.31,1.724,0.814,2.393c-4.5,1.168-7.352,4.918-7.811,10.526l-1.21,14.779
		L9.28,38.307c-0.278,0.288-0.357,0.716-0.2,1.085C9.237,39.761,9.599,40,10,40h28c0.401,0,0.764-0.239,0.92-0.608
		C39.077,39.022,38.998,38.595,38.721,38.307z M22,8c0-1.103,0.897-2,2-2c1.103,0,2,0.897,2,2s-0.897,2-2,2C22.897,10,22,9.103,22,8
		z"/>
</g>
</svg>
