<?xml version="1.0" encoding="utf-8"?>
<!-- Generator: Adobe Illustrator 16.0.0, SVG Export Plug-In . SVG Version: 6.00 Build 0)  -->
<!DOCTYPE svg PUBLIC "-//W3C//DTD SVG 1.1//EN" "http://www.w3.org/Graphics/SVG/1.1/DTD/svg11.dtd">
<svg version="1.1" id="Layer_1" xmlns="http://www.w3.org/2000/svg" xmlns:xlink="http://www.w3.org/1999/xlink" x="0px" y="0px"
	 width="48px" height="48px" viewBox="0 0 48 48" enable-background="new 0 0 48 48" xml:space="preserve">
<path d="M45.539,26.155c-0.153-0.461-0.34-0.899-0.557-1.315c-1.474-2.837-4.248-8.138-5.771-11.073
	c-1.561-3.002-5.114-4.512-8.425-3.408c-0.625,0.208-1.2,0.497-1.721,0.85C28.246,10.626,26.735,10,24,10s-4.246,0.626-5.066,1.209
	c-0.52-0.353-1.095-0.641-1.72-0.85c-3.311-1.104-6.864,0.406-8.424,3.408c-1.523,2.935-4.297,8.235-5.771,11.073
	c-0.217,0.416-0.403,0.854-0.556,1.315C0.89,30.87,3.438,35.966,8.154,37.538c3.443,1.147,7.083,0.092,9.412-2.393
	c0.006-0.006,0.012-0.002,0.019-0.009C18.966,33.654,20.609,32,24,32c3.39,0,5.034,1.654,6.417,3.137
	c0.007,0.008,0.013,0.003,0.02,0.009c2.329,2.484,5.968,3.54,9.411,2.393C44.563,35.966,47.111,30.87,45.539,26.155z M11,35
	c-3.313,0-6-2.687-6-6s2.687-6,6-6s6,2.687,6,6S14.313,35,11,35z M37,35c-3.313,0-6-2.687-6-6s2.687-6,6-6s6,2.687,6,6
	S40.313,35,37,35z"/>
</svg>
