<?xml version="1.0" encoding="utf-8"?>
<!-- Generator: Adobe Illustrator 16.0.0, SVG Export Plug-In . SVG Version: 6.00 Build 0)  -->
<!DOCTYPE svg PUBLIC "-//W3C//DTD SVG 1.1//EN" "http://www.w3.org/Graphics/SVG/1.1/DTD/svg11.dtd">
<svg version="1.1" id="Layer_1" xmlns="http://www.w3.org/2000/svg" xmlns:xlink="http://www.w3.org/1999/xlink" x="0px" y="0px"
	 width="48px" height="48px" viewBox="0 0 48 48" enable-background="new 0 0 48 48" xml:space="preserve">
<path d="M29,8H11c-0.552,0-1,0.448-1,1s0.448,1,1,1c1.654,0,3,1.346,3,3v27c0,0.354,0.188,0.683,0.493,0.862
	c0.306,0.18,0.683,0.184,0.993,0.012L24,36.144l8.515,4.73C32.665,40.958,32.833,41,33,41c0.176,0,0.351-0.046,0.507-0.138
	C33.813,40.683,34,40.354,34,40V13C34,10.243,31.757,8,29,8z"/>
</svg>
