<?xml version="1.0" encoding="utf-8"?>
<!-- Generator: Adobe Illustrator 16.0.0, SVG Export Plug-In . SVG Version: 6.00 Build 0)  -->
<!DOCTYPE svg PUBLIC "-//W3C//DTD SVG 1.1//EN" "http://www.w3.org/Graphics/SVG/1.1/DTD/svg11.dtd">
<svg version="1.1" id="Layer_1" xmlns="http://www.w3.org/2000/svg" xmlns:xlink="http://www.w3.org/1999/xlink" x="0px" y="0px"
	 width="48px" height="48px" viewBox="0 0 48 48" enable-background="new 0 0 48 48" xml:space="preserve">
<path d="M41,13h-9.646l-1.497-3.743C29.554,8.498,28.817,8,28,8h-8c-0.818,0-1.553,0.498-1.857,1.257L16.646,13H7
	c-1.657,0-3,1.343-3,3v20c0,1.657,1.343,3,3,3h34c1.657,0,3-1.343,3-3V16C44,14.343,42.657,13,41,13z M16,18c0,0.552-0.448,1-1,1
	s-1-0.448-1-1s0-3,0-3h2C16,15,16,17.448,16,18z M18.8,13l1.2-3h8l1.2,3H18.8z M34,18c0,0.552-0.447,1-1,1s-1-0.448-1-1s0-3,0-3h2
	C34,15,34,17.448,34,18z"/>
</svg>
