<?xml version="1.0" encoding="utf-8"?>
<!-- Generator: Adobe Illustrator 16.0.0, SVG Export Plug-In . SVG Version: 6.00 Build 0)  -->
<!DOCTYPE svg PUBLIC "-//W3C//DTD SVG 1.1//EN" "http://www.w3.org/Graphics/SVG/1.1/DTD/svg11.dtd">
<svg version="1.1" id="Layer_1" xmlns="http://www.w3.org/2000/svg" xmlns:xlink="http://www.w3.org/1999/xlink" x="0px" y="0px"
	 width="48px" height="48px" viewBox="0 0 48 48" enable-background="new 0 0 48 48" xml:space="preserve">
<path d="M34,2H14c-3.309,0-6,2.691-6,6v32c0,3.309,2.691,6,6,6h20c3.309,0,6-2.691,6-6V8C40,4.691,37.309,2,34,2z M15,27.5
	c1.657,0,3,1.343,3,3s-1.343,3-3,3s-3-1.343-3-3S13.343,27.5,15,27.5z M12,22c0-1.657,1.343-3,3-3s3,1.343,3,3s-1.343,3-3,3
	S12,23.657,12,22z M24,42c-1.123,0-7.877,0-9,0c-1.657,0-3-1.343-3-3s1.343-3,3-3c1.123,0,7.877,0,9,0c1.657,0,3,1.343,3,3
	S25.657,42,24,42z M24,33.5c-1.657,0-3-1.343-3-3s1.343-3,3-3s3,1.343,3,3S25.657,33.5,24,33.5z M24,25c-1.657,0-3-1.343-3-3
	s1.343-3,3-3s3,1.343,3,3S25.657,25,24,25z M33,42c-1.657,0-3-1.343-3-3s1.343-3,3-3s3,1.343,3,3S34.657,42,33,42z M33,33.5
	c-1.657,0-3-1.343-3-3s1.343-3,3-3s3,1.343,3,3S34.657,33.5,33,33.5z M33,25c-1.657,0-3-1.343-3-3s1.343-3,3-3s3,1.343,3,3
	S34.657,25,33,25z M36,13c0,1.104-0.896,2-2,2H14c-1.104,0-2-0.896-2-2V8c0-1.104,0.896-2,2-2h20c1.104,0,2,0.896,2,2V13z"/>
</svg>
