<?xml version="1.0" encoding="utf-8"?>
<!-- Generator: Adobe Illustrator 16.0.0, SVG Export Plug-In . SVG Version: 6.00 Build 0)  -->
<!DOCTYPE svg PUBLIC "-//W3C//DTD SVG 1.1//EN" "http://www.w3.org/Graphics/SVG/1.1/DTD/svg11.dtd">
<svg version="1.1" id="Layer_1" xmlns="http://www.w3.org/2000/svg" xmlns:xlink="http://www.w3.org/1999/xlink" x="0px" y="0px"
	 width="48px" height="48px" viewBox="0 0 48 48" enable-background="new 0 0 48 48" xml:space="preserve">
<g>
	<circle cx="24" cy="26" r="7"/>
	<path d="M10,13c0.233,0,1.767,0,2,0c0.552,0,1-0.448,1-1s-0.448-1-1-1c-0.233,0-1.767,0-2,0c-0.552,0-1,0.448-1,1S9.448,13,10,13z"
		/>
	<path d="M39,14h-5.516c-0.795,0-1.559-0.316-2.121-0.879l-2.242-2.242C28.559,10.316,27.796,10,27,10h-6
		c-0.795,0-1.559,0.316-2.121,0.879l-2.242,2.242C16.074,13.684,15.311,14,14.516,14H9c-1.657,0-3,1.343-3,3v18c0,1.657,1.343,3,3,3
		h30c1.657,0,3-1.343,3-3V17C42,15.343,40.657,14,39,14z M24,35c-4.971,0-9-4.029-9-9s4.029-9,9-9c4.971,0,9,4.029,9,9
		S28.971,35,24,35z M36,19.15c-0.636,0-1.15-0.515-1.15-1.15s0.515-1.15,1.15-1.15s1.15,0.515,1.15,1.15S36.636,19.15,36,19.15z"/>
</g>
</svg>
