<?xml version="1.0" encoding="utf-8"?>
<!-- Generator: Adobe Illustrator 16.0.0, SVG Export Plug-In . SVG Version: 6.00 Build 0)  -->
<!DOCTYPE svg PUBLIC "-//W3C//DTD SVG 1.1//EN" "http://www.w3.org/Graphics/SVG/1.1/DTD/svg11.dtd">
<svg version="1.1" id="Layer_1" xmlns="http://www.w3.org/2000/svg" xmlns:xlink="http://www.w3.org/1999/xlink" x="0px" y="0px"
	 width="48px" height="48px" viewBox="0 0 48 48" enable-background="new 0 0 48 48" xml:space="preserve">
<path d="M24,4C12.972,4,4,12.972,4,24c0,11.028,8.972,20,20,20c11.028,0,20-8.972,20-20C44,12.972,35.028,4,24,4z M8,24
	c0-8.822,7.178-16,16-16c3.691,0,7.096,1.257,9.806,3.365L11.365,33.806C9.257,31.096,8,27.691,8,24z M24,40
	c-3.692,0-7.096-1.257-9.807-3.366l22.44-22.44C38.743,16.904,40,20.308,40,24C40,32.822,32.822,40,24,40z"/>
</svg>
