<?xml version="1.0" encoding="utf-8"?>
<!-- Generator: Adobe Illustrator 16.0.0, SVG Export Plug-In . SVG Version: 6.00 Build 0)  -->
<!DOCTYPE svg PUBLIC "-//W3C//DTD SVG 1.1//EN" "http://www.w3.org/Graphics/SVG/1.1/DTD/svg11.dtd">
<svg version="1.1" id="Layer_1" xmlns="http://www.w3.org/2000/svg" xmlns:xlink="http://www.w3.org/1999/xlink" x="0px" y="0px"
	 width="48px" height="48px" viewBox="0 0 48 48" enable-background="new 0 0 48 48" xml:space="preserve">
<path d="M39.17,35.018c-0.537-1.335-0.298-2.414,0.346-3.57c3.878-6.957,3.248-15.44-2.137-20.826
	c-6.65-6.65-18.029-6.052-25.419,1.338s-7.988,18.768-1.338,25.419c5.386,5.384,13.867,6.015,20.824,2.139
	c1.155-0.645,2.234-0.882,3.567-0.346c3.515,1.413,5.401,2.64,5.434,2.661C40.615,41.944,40.808,42,40.999,42
	c0.259,0,0.516-0.101,0.708-0.294c0.337-0.337,0.39-0.864,0.125-1.261C41.811,40.413,40.585,38.535,39.17,35.018z M21.496,15.497
	c0.781-0.781,2.311-0.518,3.416,0.588c1.106,1.106,1.369,2.634,0.588,3.416c-0.78,0.781-2.311,0.518-3.416-0.588
	C20.979,17.806,20.715,16.278,21.496,15.497z M15.497,21.497c0.781-0.781,2.311-0.518,3.416,0.588
	c1.106,1.106,1.369,2.634,0.588,3.416c-0.781,0.781-2.311,0.518-3.416-0.588C14.979,23.806,14.715,22.278,15.497,21.497z
	 M28.707,28.707c-2.91,2.911-6.085,3.453-8.049,3.453c-1.101,0-1.821-0.17-1.899-0.189c-0.536-0.134-0.862-0.676-0.729-1.212
	c0.133-0.535,0.675-0.859,1.207-0.73c0.176,0.043,4.338,0.982,8.056-2.735c3.719-3.718,2.777-7.881,2.735-8.056
	c-0.128-0.535,0.2-1.076,0.735-1.206c0.54-0.129,1.074,0.195,1.207,0.728C32.024,18.977,33.25,24.165,28.707,28.707z"/>
</svg>
