<?xml version="1.0" encoding="utf-8"?>
<!-- Generator: Adobe Illustrator 16.0.0, SVG Export Plug-In . SVG Version: 6.00 Build 0)  -->
<!DOCTYPE svg PUBLIC "-//W3C//DTD SVG 1.1//EN" "http://www.w3.org/Graphics/SVG/1.1/DTD/svg11.dtd">
<svg version="1.1" id="Layer_1" xmlns="http://www.w3.org/2000/svg" xmlns:xlink="http://www.w3.org/1999/xlink" x="0px" y="0px"
	 width="48px" height="48px" viewBox="0 0 48 48" enable-background="new 0 0 48 48" xml:space="preserve">
<path d="M39.17,35.018c-0.537-1.335-0.298-2.414,0.346-3.57c3.878-6.957,3.248-15.44-2.137-20.826
	c-6.65-6.65-18.029-6.052-25.419,1.338s-7.988,18.768-1.338,25.419c5.386,5.384,13.867,6.015,20.824,2.139
	c1.155-0.645,2.234-0.882,3.567-0.346c3.515,1.413,5.401,2.64,5.434,2.661C40.615,41.944,40.808,42,40.999,42
	c0.259,0,0.516-0.101,0.708-0.294c0.337-0.337,0.39-0.864,0.125-1.261C41.811,40.413,40.585,38.535,39.17,35.018z M24,34
	c-1.103,0-2-0.897-2-2s0.897-2,2-2c1.103,0,2,0.897,2,2S25.103,34,24,34z M24.993,25.117C24.934,25.621,24.507,26,24,26
	s-0.934-0.379-0.993-0.883C22.771,23.122,22,16.567,22,16c0-1.103,0.897-2,2-2c1.103,0,2,0.897,2,2
	C26,16.567,25.229,23.122,24.993,25.117z"/>
</svg>
