<?xml version="1.0" encoding="utf-8"?>
<!-- Generator: Adobe Illustrator 16.0.0, SVG Export Plug-In . SVG Version: 6.00 Build 0)  -->
<!DOCTYPE svg PUBLIC "-//W3C//DTD SVG 1.1//EN" "http://www.w3.org/Graphics/SVG/1.1/DTD/svg11.dtd">
<svg version="1.1" id="Layer_1" xmlns="http://www.w3.org/2000/svg" xmlns:xlink="http://www.w3.org/1999/xlink" x="0px" y="0px"
	 width="48px" height="48px" viewBox="0 0 48 48" enable-background="new 0 0 48 48" xml:space="preserve">
<path d="M35,8H13c-2.757,0-5,2.243-5,5v22c0,2.757,2.243,5,5,5h22c2.757,0,5-2.243,5-5V13C40,10.243,37.757,8,35,8z M36,35
	c0,0.552-0.448,1-1,1H13c-0.551,0-1-0.448-1-1V13c0-0.551,0.449-1,1-1h22c0.552,0,1,0.449,1,1V35z"/>
</svg>
