<?xml version="1.0" encoding="utf-8"?>
<!-- Generator: Adobe Illustrator 16.0.0, SVG Export Plug-In . SVG Version: 6.00 Build 0)  -->
<!DOCTYPE svg PUBLIC "-//W3C//DTD SVG 1.1//EN" "http://www.w3.org/Graphics/SVG/1.1/DTD/svg11.dtd">
<svg version="1.1" id="Layer_1" xmlns="http://www.w3.org/2000/svg" xmlns:xlink="http://www.w3.org/1999/xlink" x="0px" y="0px"
	 width="48px" height="48px" viewBox="0 0 48 48" enable-background="new 0 0 48 48" xml:space="preserve">
<path d="M35,8H13c-2.757,0-5,2.243-5,5v22c0,2.757,2.243,5,5,5h22c2.757,0,5-2.243,5-5V13C40,10.243,37.757,8,35,8z M33.414,30.586
	c0.781,0.781,0.781,2.047,0,2.828s-2.047,0.781-2.828,0c-0.179-0.179-3.209-3.209-6.586-6.586c-3.377,3.377-6.407,6.407-6.586,6.586
	c-0.781,0.781-2.047,0.781-2.828,0s-0.781-2.047,0-2.828c0.179-0.179,3.209-3.209,6.586-6.586c-3.377-3.377-6.408-6.408-6.586-6.586
	c-0.781-0.781-0.781-2.047,0-2.828c0.781-0.781,2.047-0.781,2.829,0c0.178,0.178,3.208,3.209,6.585,6.586
	c3.377-3.377,6.407-6.408,6.586-6.586c0.781-0.781,2.047-0.781,2.828,0c0.781,0.781,0.781,2.047,0,2.829
	c-0.179,0.178-3.209,3.208-6.586,6.585C30.205,27.377,33.235,30.407,33.414,30.586z"/>
</svg>
