<?xml version="1.0" encoding="utf-8"?>
<!-- Generator: Adobe Illustrator 16.0.0, SVG Export Plug-In . SVG Version: 6.00 Build 0)  -->
<!DOCTYPE svg PUBLIC "-//W3C//DTD SVG 1.1//EN" "http://www.w3.org/Graphics/SVG/1.1/DTD/svg11.dtd">
<svg version="1.1" id="Layer_1" xmlns="http://www.w3.org/2000/svg" xmlns:xlink="http://www.w3.org/1999/xlink" x="0px" y="0px"
	 width="48px" height="48px" viewBox="0 0 48 48" enable-background="new 0 0 48 48" xml:space="preserve">
<path d="M40.516,6.89c-1.719-1.39-4.236-1.122-5.626,0.595L34.473,8H13c-2.757,0-5,2.243-5,5v22c0,2.757,2.243,5,5,5h22
	c2.757,0,5-2.243,5-5V13.888l1.11-1.373C42.499,10.798,42.233,8.279,40.516,6.89z M39.555,11.258l-16.174,20
	C23,31.728,22.429,32,21.825,32c-0.005,0-0.011,0-0.016,0c-0.609-0.005-1.184-0.287-1.559-0.768l-7.825-10
	c-0.681-0.87-0.527-2.127,0.343-2.808c0.87-0.68,2.127-0.527,2.808,0.343l6.276,8.021L36.445,8.742
	c0.693-0.859,1.954-0.992,2.813-0.297S40.25,10.399,39.555,11.258z"/>
</svg>
