<?xml version="1.0" encoding="utf-8"?>
<!-- Generator: Adobe Illustrator 16.0.0, SVG Export Plug-In . SVG Version: 6.00 Build 0)  -->
<!DOCTYPE svg PUBLIC "-//W3C//DTD SVG 1.1//EN" "http://www.w3.org/Graphics/SVG/1.1/DTD/svg11.dtd">
<svg version="1.1" id="Layer_1" xmlns="http://www.w3.org/2000/svg" xmlns:xlink="http://www.w3.org/1999/xlink" x="0px" y="0px"
	 width="48px" height="48px" viewBox="0 0 48 48" enable-background="new 0 0 48 48" xml:space="preserve">
<path d="M41.692,28.52c-1.179-1.179-5.048-4.824-9.145-8.683c-4.554-4.29-9.714-9.151-11.47-10.906C19.188,7.041,16.676,6,14.004,6
	S8.819,7.041,6.93,8.931C5.041,10.82,4,13.332,4,16.004s1.041,5.185,2.93,7.073c3.305,3.308,15.738,14.751,16.266,15.237
	c0.609,0.562,1.558,0.521,2.119-0.088s0.521-1.559-0.088-2.119c-0.129-0.119-12.914-11.887-16.175-15.15
	C7.729,19.634,7,17.875,7,16.004s0.729-3.63,2.051-4.953S12.133,9,14.004,9c1.871,0,3.63,0.729,4.953,2.052
	c1.788,1.787,6.742,6.454,11.533,10.968c4.08,3.843,7.934,7.473,9.08,8.622C40.492,31.563,41,32.787,41,34.09
	c0,1.304-0.508,2.528-1.429,3.45c-1.902,1.9-4.996,1.9-6.898,0c-1.386-1.386-6.58-6.267-11.163-10.572
	c-3.712-3.488-7.218-6.783-7.949-7.514c-0.519-0.519-0.805-1.21-0.805-1.947c0-0.736,0.286-1.427,0.805-1.946
	c0.519-0.52,1.209-0.805,1.945-0.805c0,0,0,0,0,0c0.736,0,1.427,0.286,1.946,0.805c1.66,1.661,14.226,13.24,14.76,13.732
	c0.607,0.56,1.558,0.521,2.12-0.087c0.561-0.609,0.522-1.559-0.087-2.12c-0.131-0.12-13.055-12.029-14.672-13.647
	c-1.086-1.085-2.53-1.683-4.066-1.684c0,0-0.001,0-0.002,0c-1.537,0-2.981,0.598-4.066,1.684c-1.085,1.085-1.684,2.53-1.684,4.067
	s0.598,2.982,1.683,4.068c0.763,0.763,4.124,3.922,8.016,7.578c4.567,4.292,9.743,9.155,11.096,10.508
	c1.536,1.536,3.554,2.304,5.57,2.304c2.018,0,4.035-0.769,5.57-2.304C43.181,38.173,44,36.194,44,34.09S43.18,30.007,41.692,28.52z"
	/>
</svg>
