<?xml version="1.0" encoding="utf-8"?>
<!-- Generator: Adobe Illustrator 16.0.0, SVG Export Plug-In . SVG Version: 6.00 Build 0)  -->
<!DOCTYPE svg PUBLIC "-//W3C//DTD SVG 1.1//EN" "http://www.w3.org/Graphics/SVG/1.1/DTD/svg11.dtd">
<svg version="1.1" id="Layer_1" xmlns="http://www.w3.org/2000/svg" xmlns:xlink="http://www.w3.org/1999/xlink" x="0px" y="0px"
	 width="48px" height="48px" viewBox="0 0 48 48" enable-background="new 0 0 48 48" xml:space="preserve">
<g>
	<path d="M32.414,15.586c-0.781-0.781-2.047-0.781-2.828,0L24,21.171l-5.586-5.585c-0.78-0.781-2.048-0.781-2.828,0
		c-0.781,0.781-0.781,2.047,0,2.828L21.171,24l-5.585,5.586c-0.781,0.781-0.781,2.047,0,2.828c0.78,0.781,2.048,0.781,2.828,0
		L24,26.828l5.586,5.586C29.977,32.805,30.488,33,31,33s1.023-0.195,1.414-0.586c0.781-0.781,0.781-2.047,0-2.828L26.828,24
		l5.586-5.586C33.195,17.633,33.195,16.367,32.414,15.586z"/>
	<path d="M24,4C12.972,4,4,12.972,4,24c0,11.028,8.972,20,20,20c11.028,0,20-8.972,20-20C44,12.972,35.028,4,24,4z M24,40
		c-8.822,0-16-7.178-16-16S15.178,8,24,8s16,7.178,16,16S32.822,40,24,40z"/>
</g>
</svg>
