<?xml version="1.0" encoding="utf-8"?>
<!-- Generator: Adobe Illustrator 16.0.0, SVG Export Plug-In . SVG Version: 6.00 Build 0)  -->
<!DOCTYPE svg PUBLIC "-//W3C//DTD SVG 1.1//EN" "http://www.w3.org/Graphics/SVG/1.1/DTD/svg11.dtd">
<svg version="1.1" id="Layer_1" xmlns="http://www.w3.org/2000/svg" xmlns:xlink="http://www.w3.org/1999/xlink" x="0px" y="0px"
	 width="48px" height="48px" viewBox="0 0 48 48" enable-background="new 0 0 48 48" xml:space="preserve">
<g>
	<path d="M13,28c0.289,0,9.711,0,10,0c0.552,0,1-0.447,1-1s-0.448-1-1-1c-0.289,0-9.711,0-10,0c-0.552,0-1,0.447-1,1
		S12.448,28,13,28z"/>
	<path d="M13,34c0.289,0,9.711,0,10,0c0.552,0,1-0.447,1-1s-0.448-1-1-1c-0.289,0-9.711,0-10,0c-0.552,0-1,0.447-1,1
		S12.448,34,13,34z"/>
	<path d="M13,40c0.289,0,9.711,0,10,0c0.552,0,1-0.447,1-1s-0.448-1-1-1c-0.289,0-9.711,0-10,0c-0.552,0-1,0.447-1,1
		S12.448,40,13,40z"/>
	<path d="M39,2H21c-1.657,0-3,1.343-3,3v9H9c-1.657,0-3,1.343-3,3v26c0,1.657,1.343,3,3,3h18c1.657,0,3-1.343,3-3v-9h9
		c1.657,0,3-1.343,3-3V5C42,3.343,40.657,2,39,2z M28,43c0,0.553-0.447,1-1,1H9c-0.552,0-1-0.447-1-1V20h20V43z M40,31
		c0,0.553-0.447,1-1,1h-9v-4c0.289,0,4.711,0,5,0c0.553,0,1-0.447,1-1s-0.447-1-1-1c-0.289,0-4.711,0-5,0v-4c0.289,0,4.711,0,5,0
		c0.553,0,1-0.447,1-1s-0.447-1-1-1c-0.289,0-4.711,0-5,0v-3c0-0.353-0.072-0.686-0.184-1c2.487,0,5.035,0,5.184,0
		c0.553,0,1-0.447,1-1s-0.447-1-1-1c-0.208,0-15,0-15,0V8h20V31z"/>
</g>
</svg>
