<?xml version="1.0" encoding="utf-8"?>
<!-- Generator: Adobe Illustrator 16.0.0, SVG Export Plug-In . SVG Version: 6.00 Build 0)  -->
<!DOCTYPE svg PUBLIC "-//W3C//DTD SVG 1.1//EN" "http://www.w3.org/Graphics/SVG/1.1/DTD/svg11.dtd">
<svg version="1.1" id="Layer_1" xmlns="http://www.w3.org/2000/svg" xmlns:xlink="http://www.w3.org/1999/xlink" x="0px" y="0px"
	 width="48px" height="48px" viewBox="0 0 48 48" enable-background="new 0 0 48 48" xml:space="preserve">
<g>
	<path d="M25.854,38.929c0.279-0.381,0.445-0.852,0.445-1.359c0-1.299-1.118-2.335-2.393-2.297l-5.74-10.78
		c-0.259-0.486-0.864-0.671-1.353-0.413c-0.487,0.26-0.672,0.865-0.413,1.353l5.742,10.782c-0.278,0.38-0.442,0.849-0.442,1.354
		c0,1.298,1.104,2.342,2.388,2.298l1.467,2.756c0.18,0.338,0.526,0.53,0.884,0.53c0.158,0,0.319-0.038,0.469-0.117
		c0.487-0.26,0.673-0.865,0.413-1.353L25.854,38.929z"/>
	<path d="M47.805,20.025C42.241,12.496,33.343,8,24,8C14.657,8,5.758,12.496,0.196,20.025c-0.288,0.39-0.255,0.93,0.078,1.282
		l14.135,14.929c0.197,0.208,0.461,0.313,0.726,0.313c0.247,0,0.494-0.091,0.688-0.273c0.401-0.38,0.418-1.013,0.039-1.414
		L2.311,20.55c2.183-2.774,4.864-5.076,7.862-6.813l1.393,2.617c0.259,0.487,0.865,0.672,1.353,0.412
		c0.487-0.26,0.671-0.865,0.412-1.353l-1.392-2.616c3.425-1.669,7.191-2.636,11.062-2.778V13c0,0.552,0.448,1,1,1s1-0.448,1-1
		v-2.981c3.87,0.142,7.637,1.108,11.062,2.778l-1.392,2.616c-0.26,0.488-0.074,1.093,0.413,1.353
		c0.487,0.26,1.094,0.074,1.353-0.413l1.392-2.615c2.998,1.738,5.679,4.039,7.862,6.813L32.135,34.861
		c-0.38,0.4-0.363,1.034,0.038,1.413c0.401,0.38,1.033,0.365,1.413-0.038l14.14-14.929C48.06,20.956,48.093,20.415,47.805,20.025z"
		/>
</g>
</svg>
