<?xml version="1.0" encoding="utf-8"?>
<!-- Generator: Adobe Illustrator 16.0.0, SVG Export Plug-In . SVG Version: 6.00 Build 0)  -->
<!DOCTYPE svg PUBLIC "-//W3C//DTD SVG 1.1//EN" "http://www.w3.org/Graphics/SVG/1.1/DTD/svg11.dtd">
<svg version="1.1" id="Layer_1" xmlns="http://www.w3.org/2000/svg" xmlns:xlink="http://www.w3.org/1999/xlink" x="0px" y="0px"
	 width="48px" height="48px" viewBox="0 0 48 48" enable-background="new 0 0 48 48" xml:space="preserve">
<g>
	<circle cx="30" cy="29" r="2"/>
	<path d="M37,12H15c-2.82,0-2.99-2.5-3-2.99V9c0.01-0.52,0.19-3,3-3h3h19c0.553,0,1-0.448,1-1s-0.447-1-1-1H15c-3.96,0-5,3.27-5,5
		v30c0,1.73,1.04,5,5,5h22c0.553,0,1-0.447,1-1v-7c0-1.105-0.895-2-2-2h-8c-0.566,0-2.07,0-4.664-3.891
		c-0.448-0.672-0.448-1.547,0-2.219C25.93,24,27.434,24,28,24h8c1.105,0,2-0.896,2-2v-9C38,12.448,37.553,12,37,12z"/>
</g>
</svg>
