<?xml version="1.0" encoding="utf-8"?>
<!-- Generator: Adobe Illustrator 16.0.0, SVG Export Plug-In . SVG Version: 6.00 Build 0)  -->
<!DOCTYPE svg PUBLIC "-//W3C//DTD SVG 1.1//EN" "http://www.w3.org/Graphics/SVG/1.1/DTD/svg11.dtd">
<svg version="1.1" id="Layer_1" xmlns="http://www.w3.org/2000/svg" xmlns:xlink="http://www.w3.org/1999/xlink" x="0px" y="0px"
	 width="48px" height="48px" viewBox="0 0 48 48" enable-background="new 0 0 48 48" xml:space="preserve">
<g>
	<rect x="26" y="10" width="4" height="8"/>
	<path d="M41.414,13.586l-7-7C34.039,6.211,33.53,6,33,6H11c-2.757,0-5,2.243-5,5v26c0,2.757,2.243,5,5,5h26c2.757,0,5-2.243,5-5V15
		C42,14.47,41.789,13.961,41.414,13.586z M32,18c0,1.104-0.896,2-2,2H18c-1.104,0-2-0.896-2-2V8h16V18z"/>
</g>
</svg>
