<?xml version="1.0" encoding="utf-8"?>
<!-- Generator: Adobe Illustrator 16.0.0, SVG Export Plug-In . SVG Version: 6.00 Build 0)  -->
<!DOCTYPE svg PUBLIC "-//W3C//DTD SVG 1.1//EN" "http://www.w3.org/Graphics/SVG/1.1/DTD/svg11.dtd">
<svg version="1.1" id="Layer_1" xmlns="http://www.w3.org/2000/svg" xmlns:xlink="http://www.w3.org/1999/xlink" x="0px" y="0px"
	 width="48px" height="48px" viewBox="0 0 48 48" enable-background="new 0 0 48 48" xml:space="preserve">
<g>
	<circle cx="30" cy="26" r="2"/>
	<path d="M39,44h-1V7c0-2.757-2.243-5-5-5H15c-2.757,0-5,2.243-5,5v37H9c-0.552,0-1,0.447-1,1s0.448,1,1,1h30c0.553,0,1-0.447,1-1
		S39.553,44,39,44z M34,44H14V7c0-0.551,0.449-1,1-1h18c0.552,0,1,0.449,1,1V44z"/>
</g>
</svg>
