<?xml version="1.0" encoding="utf-8"?>
<!-- Generator: Adobe Illustrator 16.0.0, SVG Export Plug-In . SVG Version: 6.00 Build 0)  -->
<!DOCTYPE svg PUBLIC "-//W3C//DTD SVG 1.1//EN" "http://www.w3.org/Graphics/SVG/1.1/DTD/svg11.dtd">
<svg version="1.1" id="Layer_1" xmlns="http://www.w3.org/2000/svg" xmlns:xlink="http://www.w3.org/1999/xlink" x="0px" y="0px"
	 width="48px" height="48px" viewBox="0 0 48 48" enable-background="new 0 0 48 48" xml:space="preserve">
<g>
	<path d="M38.972,18.065C38.98,17.876,39,17.69,39,17.5C39,11.148,33.851,6,27.5,6c-4.484,0-8.359,2.572-10.256,6.316
		C16.217,11.495,14.917,11,13.499,11c-3.211,0-5.826,2.527-5.984,5.7C4.275,18.063,2,21.266,2,25.001C2,29.969,6.03,34,11,34h12V23
		c0-0.552,0.448-1,1-1s1,0.448,1,1v11h13h0.001C42.417,34,46,30.417,46,26.001C46,21.911,42.93,18.545,38.972,18.065z"/>
	<path d="M23,40.586l-3.293-3.293c-0.391-0.391-1.023-0.391-1.414,0s-0.391,1.023,0,1.414l5,5C23.488,43.902,23.744,44,24,44
		s0.512-0.098,0.707-0.293l5-5c0.391-0.391,0.391-1.023,0-1.414s-1.023-0.391-1.414,0L25,40.586V34h-2V40.586z"/>
</g>
</svg>
