<?xml version="1.0" encoding="utf-8"?>
<!-- Generator: Adobe Illustrator 16.0.0, SVG Export Plug-In . SVG Version: 6.00 Build 0)  -->
<!DOCTYPE svg PUBLIC "-//W3C//DTD SVG 1.1//EN" "http://www.w3.org/Graphics/SVG/1.1/DTD/svg11.dtd">
<svg version="1.1" id="Layer_1" xmlns="http://www.w3.org/2000/svg" xmlns:xlink="http://www.w3.org/1999/xlink" x="0px" y="0px"
	 width="48px" height="48px" viewBox="0 0 48 48" enable-background="new 0 0 48 48" xml:space="preserve">
<g>
	<path d="M18.293,24.293c-0.391,0.391-0.391,1.023,0,1.414l5,5C23.488,30.902,23.744,31,24,31s0.512-0.098,0.707-0.293l5-5
		c0.391-0.391,0.391-1.023,0-1.414s-1.023-0.391-1.414,0L25,27.586V5c0-0.552-0.448-1-1-1s-1,0.448-1,1v22.586l-3.293-3.293
		C19.316,23.902,18.684,23.902,18.293,24.293z"/>
	<path d="M35,14h-7c-0.553,0-1,0.448-1,1s0.447,1,1,1h7c0.552,0,1,0.449,1,1v22c0,0.552-0.448,1-1,1H13c-0.551,0-1-0.448-1-1V17
		c0-0.551,0.449-1,1-1h7c0.552,0,1-0.448,1-1s-0.448-1-1-1h-7c-1.654,0-3,1.346-3,3v22c0,1.654,1.346,3,3,3h22c1.654,0,3-1.346,3-3
		V17C38,15.346,36.654,14,35,14z"/>
</g>
</svg>
