<?xml version="1.0" encoding="utf-8"?>
<!-- Generator: Adobe Illustrator 16.0.0, SVG Export Plug-In . SVG Version: 6.00 Build 0)  -->
<!DOCTYPE svg PUBLIC "-//W3C//DTD SVG 1.1//EN" "http://www.w3.org/Graphics/SVG/1.1/DTD/svg11.dtd">
<svg version="1.1" id="Layer_1" xmlns="http://www.w3.org/2000/svg" xmlns:xlink="http://www.w3.org/1999/xlink" x="0px" y="0px"
	 width="48px" height="48px" viewBox="0 0 48 48" enable-background="new 0 0 48 48" xml:space="preserve">
<g>
	<path d="M38,41c0,0.553-0.447,1-1,1H11c-0.552,0-1-0.447-1-1V10h27.637L40,7.637V7c0-1.657-1.343-3-3-3H11C9.343,4,8,5.343,8,7v34
		c0,1.657,1.343,3,3,3h26c1.657,0,3-1.343,3-3V20.364l-2,2V41z"/>
	<polygon points="24.146,26.284 22.592,31.373 27.681,29.819 44.293,13.207 40.758,9.671 	"/>
	<path d="M47.414,7.257L46.707,6.55c-0.756-0.756-2.072-0.756-2.828,0l-1.707,1.707l3.535,3.536l1.707-1.707
		C47.792,9.708,48,9.206,48,8.671C48,8.137,47.792,7.635,47.414,7.257z"/>
</g>
</svg>
