<?xml version="1.0" encoding="utf-8"?>
<!-- Generator: Adobe Illustrator 16.0.0, SVG Export Plug-In . SVG Version: 6.00 Build 0)  -->
<!DOCTYPE svg PUBLIC "-//W3C//DTD SVG 1.1//EN" "http://www.w3.org/Graphics/SVG/1.1/DTD/svg11.dtd">
<svg version="1.1" id="Layer_1" xmlns="http://www.w3.org/2000/svg" xmlns:xlink="http://www.w3.org/1999/xlink" x="0px" y="0px"
	 width="48px" height="48px" viewBox="0 0 48 48" enable-background="new 0 0 48 48" xml:space="preserve">
<g>
	<path d="M32.485,26H15.515c-1.105,0-2,0.895-2,2c-0.001,1.104,0.896,2,2,2h16.971c1.104,0,2-0.896,2-2
		C34.485,26.895,33.59,26,32.485,26z"/>
	<path d="M32.485,18H15.515c-1.105,0-2,0.895-2,2c-0.001,1.104,0.896,2,2,2h16.971c1.104,0,2-0.896,2-2
		C34.485,18.895,33.59,18,32.485,18z"/>
	<path d="M24,4C12.972,4,4,12.972,4,24c0,11.028,8.972,20,20,20c11.028,0,20-8.972,20-20C44,12.972,35.028,4,24,4z M24,40
		c-8.822,0-16-7.178-16-16S15.178,8,24,8s16,7.178,16,16S32.822,40,24,40z"/>
</g>
</svg>
