<?xml version="1.0" encoding="utf-8"?>
<!-- Generator: Adobe Illustrator 16.0.0, SVG Export Plug-In . SVG Version: 6.00 Build 0)  -->
<!DOCTYPE svg PUBLIC "-//W3C//DTD SVG 1.1//EN" "http://www.w3.org/Graphics/SVG/1.1/DTD/svg11.dtd">
<svg version="1.1" id="Layer_1" xmlns="http://www.w3.org/2000/svg" xmlns:xlink="http://www.w3.org/1999/xlink" x="0px" y="0px"
	 width="48px" height="48px" viewBox="0 0 48 48" enable-background="new 0 0 48 48" xml:space="preserve">
<g>
	<path d="M38,8H27.93c-1.104,0-2,0.896-2,2s0.896,2,2,2h5.242L19.908,25.264c-0.781,0.781-0.781,2.047,0,2.828
		c0.391,0.391,0.902,0.586,1.414,0.586s1.024-0.195,1.414-0.586L36,14.829v5.243c0,1.104,0.896,2,2,2s2-0.896,2-2V10
		C40,8.896,39.104,8,38,8z"/>
	<path d="M38,26c-1.104,0-2,0.896-2,2v8H12V12h8c1.104,0,2-0.896,2-2s-0.896-2-2-2h-8c-2.206,0-4,1.794-4,4v24c0,2.206,1.794,4,4,4
		h24c2.206,0,4-1.794,4-4v-8C40,26.896,39.104,26,38,26z"/>
</g>
</svg>
