<?xml version="1.0" encoding="utf-8"?>
<!-- Generator: Adobe Illustrator 16.0.0, SVG Export Plug-In . SVG Version: 6.00 Build 0)  -->
<!DOCTYPE svg PUBLIC "-//W3C//DTD SVG 1.1//EN" "http://www.w3.org/Graphics/SVG/1.1/DTD/svg11.dtd">
<svg version="1.1" id="Layer_1" xmlns="http://www.w3.org/2000/svg" xmlns:xlink="http://www.w3.org/1999/xlink" x="0px" y="0px"
	 width="48px" height="48px" viewBox="0 0 48 48" enable-background="new 0 0 48 48" xml:space="preserve">
<path d="M39,12h-3.221l-1.652-3.643c-0.483-1.069-1.556-1.761-2.732-1.761c-0.43,0-0.846,0.09-1.238,0.268L19.888,11.52
	c-0.625-0.313-1.175-0.78-1.669-1.417C17.077,8.629,15.874,8,14.195,8H9c-1.657,0-3,1.343-3,3v24c0,1.656,1.343,3,3,3h30
	c1.656,0,3-1.344,3-3V15C42,13.343,40.656,12,39,12z M9.879,18.254l21.104-9.569c0.134-0.061,0.274-0.089,0.412-0.089
	c0.381,0,0.744,0.218,0.911,0.587l6.608,14.572c0.228,0.503,0.005,1.095-0.498,1.324L31.976,28H13.199l-3.818-8.422
	C9.152,19.075,9.376,18.483,9.879,18.254z M40,35c0,0.553-0.448,1-1,1H9c-0.552,0-1-0.447-1-1v-3c0-1.104,0.896-2,2-2h1.91h1.289
	h18.776h0.433H38c1.104,0,2,0.896,2,2V35z"/>
</svg>
