<?xml version="1.0" encoding="utf-8"?>
<!-- Generator: Adobe Illustrator 16.0.0, SVG Export Plug-In . SVG Version: 6.00 Build 0)  -->
<!DOCTYPE svg PUBLIC "-//W3C//DTD SVG 1.1//EN" "http://www.w3.org/Graphics/SVG/1.1/DTD/svg11.dtd">
<svg version="1.1" id="Layer_1" xmlns="http://www.w3.org/2000/svg" xmlns:xlink="http://www.w3.org/1999/xlink" x="0px" y="0px"
	 width="48px" height="48px" viewBox="0 0 48 48" enable-background="new 0 0 48 48" xml:space="preserve">
<path d="M32,20c-1.457,0-2.823,0.391-4,1.071c2.392-1.383,4-3.967,4-6.928c0-4.418-3.582-8-8-8s-8,3.582-8,8
	c0,2.962,1.609,5.546,4.001,6.929C18.825,20.392,17.458,20,16,20c-4.418,0-8,3.582-8,8c0,4.418,3.582,8,8,8
	c3.042,0,5.687-1.698,7.04-4.198C23.026,31.868,23,31.93,23,32c0,5.171-1.209,7.493-4.173,8.016
	c-0.511,0.09-0.868,0.555-0.823,1.071C18.049,41.604,18.481,42,19,42h10c0.519,0,0.951-0.396,0.996-0.913s-0.312-0.981-0.822-1.071
	C26.209,39.493,25,37.171,25,32c0-0.07-0.026-0.133-0.04-0.199C26.313,34.301,28.958,36,32,36c4.418,0,8-3.582,8-8
	C40,23.582,36.418,20,32,20z"/>
</svg>
