<?xml version="1.0" encoding="utf-8"?>
<!-- Generator: Adobe Illustrator 16.0.0, SVG Export Plug-In . SVG Version: 6.00 Build 0)  -->
<!DOCTYPE svg PUBLIC "-//W3C//DTD SVG 1.1//EN" "http://www.w3.org/Graphics/SVG/1.1/DTD/svg11.dtd">
<svg version="1.1" id="Layer_1" xmlns="http://www.w3.org/2000/svg" xmlns:xlink="http://www.w3.org/1999/xlink" x="0px" y="0px"
	 width="48px" height="48px" viewBox="0 0 48 48" enable-background="new 0 0 48 48" xml:space="preserve">
<path d="M39,13c-2.111-1.689-7-3-15-3s-12.889,1.311-15,3c-3.75,3-7,13.969-7,19.484C2,35.794,4,38,7,38
	c3.146,0,4.533-2.199,6.819-4.291C15.893,31.811,18.315,30,24,30c5.684,0,8.105,1.81,10.18,3.707C36.466,35.8,37.854,38,41,38
	c3,0,5-2.206,5-5.516C46,26.969,42.75,16,39,13z M19,21c0,0.552-0.448,1-1,1h-2v2c0,0.552-0.448,1-1,1h-1c-0.552,0-1-0.448-1-1v-2
	h-2c-0.552,0-1-0.448-1-1v-1c0-0.552,0.448-1,1-1h2v-2c0-0.552,0.448-1,1-1h1c0.552,0,1,0.448,1,1v2h2c0.552,0,1,0.448,1,1V21z
	 M33.5,15.85c0.911,0,1.65,0.738,1.65,1.65s-0.739,1.65-1.65,1.65s-1.65-0.738-1.65-1.65S32.589,15.85,33.5,15.85z M30.5,22.15
	c-0.911,0-1.65-0.738-1.65-1.65s0.739-1.65,1.65-1.65s1.65,0.738,1.65,1.65S31.411,22.15,30.5,22.15z M33.5,25.15
	c-0.911,0-1.65-0.739-1.65-1.65s0.739-1.65,1.65-1.65s1.65,0.738,1.65,1.65S34.411,25.15,33.5,25.15z M36.5,22.15
	c-0.911,0-1.65-0.738-1.65-1.65s0.739-1.65,1.65-1.65s1.65,0.738,1.65,1.65S37.411,22.15,36.5,22.15z"/>
</svg>
