<?xml version="1.0" encoding="utf-8"?>
<!-- Generator: Adobe Illustrator 16.0.0, SVG Export Plug-In . SVG Version: 6.00 Build 0)  -->
<!DOCTYPE svg PUBLIC "-//W3C//DTD SVG 1.1//EN" "http://www.w3.org/Graphics/SVG/1.1/DTD/svg11.dtd">
<svg version="1.1" id="Layer_1" xmlns="http://www.w3.org/2000/svg" xmlns:xlink="http://www.w3.org/1999/xlink" x="0px" y="0px"
	 width="48px" height="48px" viewBox="0 0 48 48" enable-background="new 0 0 48 48" xml:space="preserve">
<path d="M25.52,7.075l-0.826-0.795c-0.387-0.372-1-0.372-1.387,0l-0.83,0.798C12.537,16.64,8,21.004,8,27.601
	C8,32.389,11.724,36,16.663,36c2.35,0,4.639-0.785,6.273-2.104c-0.285,3.854-1.536,5.665-4.109,6.119
	c-0.511,0.09-0.868,0.555-0.823,1.071C18.049,41.604,18.481,42,19,42h10c0.519,0,0.951-0.396,0.996-0.913s-0.312-0.981-0.822-1.071
	c-2.574-0.454-3.825-2.266-4.109-6.119C26.699,35.215,28.989,36,31.341,36C36.277,36,40,32.389,40,27.601
	C40,21.003,35.462,16.639,25.52,7.075z"/>
</svg>
