<?xml version="1.0" encoding="utf-8"?>
<!-- Generator: Adobe Illustrator 16.0.0, SVG Export Plug-In . SVG Version: 6.00 Build 0)  -->
<!DOCTYPE svg PUBLIC "-//W3C//DTD SVG 1.1//EN" "http://www.w3.org/Graphics/SVG/1.1/DTD/svg11.dtd">
<svg version="1.1" id="Layer_1" xmlns="http://www.w3.org/2000/svg" xmlns:xlink="http://www.w3.org/1999/xlink" x="0px" y="0px"
	 width="48px" height="48px" viewBox="0 0 48 48" enable-background="new 0 0 48 48" xml:space="preserve">
<g>
	<path d="M41.045,21.54l-2.505-0.776c-0.525-0.163-1.047-0.529-1.133-0.784c-0.275-0.919-0.639-1.823-1.087-2.652
		c-0.119-0.24-0.007-0.835,0.249-1.322l1.224-2.319c0.256-0.487,0.147-1.203-0.241-1.592l-1.646-1.646
		c-0.389-0.389-1.105-0.498-1.592-0.241l-2.32,1.222c-0.486,0.256-1.081,0.368-1.321,0.249c-0.828-0.448-1.76-0.834-2.678-1.109
		c-0.254-0.085-0.596-0.585-0.758-1.11l-0.777-2.504C26.297,6.43,25.713,6,25.163,6h-2.327c-0.55,0-1.133,0.43-1.296,0.955
		l-0.777,2.504c-0.163,0.525-0.53,1.048-0.785,1.133c-0.918,0.275-1.823,0.639-2.651,1.086c-0.24,0.12-0.834,0.007-1.321-0.249
		l-2.319-1.222c-0.487-0.256-1.203-0.148-1.592,0.241l-1.645,1.646c-0.389,0.389-0.498,1.105-0.241,1.592l1.222,2.319
		c0.256,0.487,0.368,1.082,0.249,1.322c-0.447,0.829-0.811,1.734-1.086,2.652c-0.085,0.254-0.607,0.622-1.133,0.784L6.955,21.54
		C6.43,21.703,6,22.286,6,22.836v2.327c0,0.55,0.43,1.134,0.955,1.296l2.505,0.777c0.525,0.163,1.025,0.505,1.11,0.76
		c0.275,0.918,0.661,1.849,1.109,2.677c0.12,0.24,0.007,0.835-0.249,1.321l-1.222,2.319c-0.256,0.486-0.148,1.203,0.241,1.592
		l1.646,1.646c0.389,0.389,1.105,0.497,1.592,0.241l2.32-1.222c0.487-0.256,1.107-0.366,1.347-0.246
		c0.829,0.447,1.709,0.809,2.627,1.084c0.254,0.086,0.62,0.606,0.783,1.132l0.776,2.505C21.703,41.57,22.286,42,22.836,42h2.327
		c0.55,0,1.133-0.43,1.296-0.955l0.777-2.505c0.163-0.525,0.529-1.047,0.783-1.133c0.92-0.274,1.801-0.637,2.63-1.085
		c0.24-0.119,0.857-0.009,1.344,0.247l2.32,1.224c0.486,0.256,1.203,0.147,1.592-0.241l1.646-1.646
		c0.389-0.389,0.497-1.105,0.241-1.592l-1.222-2.32c-0.256-0.486-0.366-1.106-0.246-1.347c0.447-0.829,0.809-1.709,1.084-2.628
		c0.086-0.254,0.606-0.619,1.132-0.782l2.505-0.777C41.57,26.296,42,25.713,42,25.163v-2.327C42,22.286,41.57,21.703,41.045,21.54z
		 M24,36c-6.622,0-12-5.368-12-12c0-6.622,5.378-12,12-12c6.632,0,12,5.378,12,12C36,30.632,30.632,36,24,36z"/>
	<path d="M24,19c-2.76,0-5,2.24-5,5c0,2.763,2.24,5,5,5c2.763,0,5-2.237,5-5C29,21.24,26.763,19,24,19z M24,27c-1.656,0-3-1.343-3-3
		c0-1.656,1.344-3,3-3c1.657,0,3,1.344,3,3C27,25.657,25.657,27,24,27z"/>
</g>
</svg>
