<?xml version="1.0" encoding="utf-8"?>
<!-- Generator: Adobe Illustrator 16.0.0, SVG Export Plug-In . SVG Version: 6.00 Build 0)  -->
<!DOCTYPE svg PUBLIC "-//W3C//DTD SVG 1.1//EN" "http://www.w3.org/Graphics/SVG/1.1/DTD/svg11.dtd">
<svg version="1.1" id="Layer_1" xmlns="http://www.w3.org/2000/svg" xmlns:xlink="http://www.w3.org/1999/xlink" x="0px" y="0px"
	 width="48px" height="48px" viewBox="0 0 48 48" enable-background="new 0 0 48 48" xml:space="preserve">
<path d="M43.739,35.523c-0.366-0.366-5.556-5.21-11.049-10.338c-5.202-4.856-10.581-9.877-10.922-10.218
	c-0.001,0-0.002-0.001-0.002-0.002c-1.414-1.415-2.251-2.757-2.638-3.462c3.187-3.957,5.094-4.868,7.616-5.191
	c0.494-0.063,0.866-0.48,0.873-0.978s-0.354-0.925-0.846-1.001c-4.831-0.754-10.048-0.704-15.478,4.725l-2.771,2.772
	c-0.265,0.265-0.358,0.658-0.244,1.015c0.193,0.602,0.573,2.492-0.192,3.257c-0.862,0.861-1.669,0.462-1.809,0.381
	c-0.391-0.248-0.898-0.193-1.229,0.128l-2.645,2.565c-0.264,0.256-0.366,0.637-0.266,0.991c0.022,0.08,0.579,1.981,2.576,3.978
	c1.996,1.997,3.898,2.553,3.978,2.576c0.355,0.101,0.74-0.004,0.997-0.271l2.544-2.666c0.307-0.322,0.355-0.826,0.13-1.21
	c-0.089-0.153-0.491-0.96,0.372-1.823c1.499-1.499,3.023-0.415,3.393-0.108c1.252,1.342,19.838,21.251,20.541,21.955
	c0.39,0.389,0.901,0.584,1.413,0.584c0.513-0.001,1.025-0.195,1.416-0.586l4.243-4.243C44.517,37.572,44.517,36.305,43.739,35.523z
	 M38.082,41.182c-0.531-0.531-12.797-13.66-19.875-21.237l2.874-2.874c1.659,1.561,5.854,5.477,10.246,9.577
	c5.239,4.891,10.656,9.948,10.999,10.292L38.082,41.182z"/>
</svg>
