<?xml version="1.0" encoding="utf-8"?>
<!-- Generator: Adobe Illustrator 16.0.0, SVG Export Plug-In . SVG Version: 6.00 Build 0)  -->
<!DOCTYPE svg PUBLIC "-//W3C//DTD SVG 1.1//EN" "http://www.w3.org/Graphics/SVG/1.1/DTD/svg11.dtd">
<svg version="1.1" id="Layer_1" xmlns="http://www.w3.org/2000/svg" xmlns:xlink="http://www.w3.org/1999/xlink" x="0px" y="0px"
	 width="48px" height="48px" viewBox="0 0 48 48" enable-background="new 0 0 48 48" xml:space="preserve">
<path d="M35.5,8c-0.536,0-1.045,0.122-1.5,0.338V7.5C34,5.57,32.43,4,30.5,4c-0.604,0-1.173,0.154-1.669,0.424
	C28.376,3.019,27.055,2,25.5,2s-2.876,1.019-3.331,2.424C21.673,4.154,21.104,4,20.5,4C18.57,4,17,5.57,17,7.5v17.392
	c-0.375-0.308-0.752-0.651-1.154-1.016c-1.455-1.324-3.104-2.823-5.809-3.694c-1.64-0.525-3.404,0.378-3.931,2.018
	c-0.228,0.707-0.402,2.088,0.989,3.411c3.143,2.989,4.213,5.24,5.157,7.227c0.774,1.628,1.506,3.166,3.224,4.529
	c1.658,1.316,3.076,2.055,4.215,2.648c1.829,0.953,2.307,1.253,2.307,2.485V45c0,0.553,0.448,1,1,1H36c0.553,0,1-0.447,1-1v-3.5
	c0-1.616,0.313-2.969,0.709-4.682C38.284,34.331,39,31.234,39,25.998V11.5C39,9.57,37.43,8,35.5,8z M37,25.998
	c0,5.008-0.688,7.981-1.24,10.37C35.353,38.132,35,39.655,35,41.5V44H23.999v-1.5c0-2.496-1.568-3.313-3.383-4.259
	c-1.064-0.555-2.388-1.244-3.896-2.441c-1.355-1.075-1.903-2.228-2.661-3.822c-0.969-2.037-2.174-4.571-5.585-7.816
	c-0.606-0.576-0.574-1.005-0.463-1.349c0.092-0.286,0.29-0.519,0.557-0.656c0.268-0.137,0.573-0.163,0.858-0.07
	c2.292,0.737,3.707,2.024,5.075,3.269c0.814,0.74,1.591,1.447,2.5,1.99V29c0,0.553,0.448,1,1,1s1-0.447,1-1V7.5
	C19,6.673,19.673,6,20.5,6S22,6.673,22,7.5V19c0,0.552,0.448,1,1,1s1-0.448,1-1c0,0,0-13.24,0-13.5C24,4.673,24.673,4,25.5,4
	S27,4.673,27,5.5V19c0,0.552,0.447,1,1,1s1-0.448,1-1V7.5C29,6.673,29.673,6,30.5,6S32,6.673,32,7.5V20c0,0.552,0.447,1,1,1
	s1-0.448,1-1v-8.5c0-0.827,0.673-1.5,1.5-1.5s1.5,0.673,1.5,1.5V25.998z"/>
</svg>
