<?xml version="1.0" encoding="utf-8"?>
<!-- Generator: Adobe Illustrator 16.0.0, SVG Export Plug-In . SVG Version: 6.00 Build 0)  -->
<!DOCTYPE svg PUBLIC "-//W3C//DTD SVG 1.1//EN" "http://www.w3.org/Graphics/SVG/1.1/DTD/svg11.dtd">
<svg version="1.1" id="Layer_1" xmlns="http://www.w3.org/2000/svg" xmlns:xlink="http://www.w3.org/1999/xlink" x="0px" y="0px"
	 width="48px" height="48px" viewBox="0 0 48 48" enable-background="new 0 0 48 48" xml:space="preserve">
<path d="M35.5,17c-0.632,0-1.209,0.153-1.693,0.353C33.331,15.985,32.028,15,30.5,15c-0.821,0-1.549,0.258-2.101,0.542
	C27.77,14.612,26.705,14,25.5,14c-0.55,0-1.059,0.116-1.5,0.278V7.5C24,5.57,22.43,4,20.5,4S17,5.57,17,7.5v12.096
	c-0.436-0.802-0.962-1.617-1.595-2.394c-0.527-0.647-1.274-1.05-2.105-1.134c-0.833-0.088-1.645,0.159-2.29,0.685
	c-0.576,0.468-1.475,1.533-1.029,3.399c0.665,2.786,1.039,5.082,1.369,7.106c0.601,3.692,1.036,6.36,2.82,8.436
	c1.376,1.602,3.098,2.67,4.617,3.612c1.992,1.236,3.213,2.052,3.213,3.194V45c0,0.553,0.448,1,1,1H36c0.553,0,1-0.447,1-1v-3.5
	c0-1.616,0.313-2.969,0.709-4.682C38.284,34.331,39,31.234,39,25.998V20.5C39,18.57,37.43,17,35.5,17z M37,25.998
	c0,5.008-0.688,7.981-1.24,10.37C35.353,38.132,35,39.655,35,41.5V44H23.999v-1.5c0-2.313-2.02-3.566-4.158-4.894
	c-1.396-0.866-2.979-1.849-4.155-3.217c-1.418-1.648-1.794-3.958-2.363-7.453c-0.319-1.957-0.715-4.392-1.397-7.249
	c-0.194-0.813,0.066-1.156,0.347-1.384c0.481-0.391,1.191-0.319,1.582,0.162c2.359,2.897,3.053,6.529,3.146,7.074V29
	c0,0.553,0.448,1,1,1s1-0.447,1-1V7.5C19,6.673,19.673,6,20.5,6S22,6.673,22,7.5V19c0,0.552,0.448,1,1,1s1-0.448,1-1v-2.495
	C24.341,16.287,24.903,16,25.5,16c0.827,0,1.5,0.673,1.5,1.5V19c0,0.552,0.447,1,1,1s1-0.448,1-1v-1.495
	C29.341,17.287,29.903,17,30.5,17c0.827,0,1.5,0.673,1.5,1.5V20c0,0.552,0.447,1,1,1s1-0.448,1-1v-0.495
	C34.341,19.287,34.903,19,35.5,19c0.827,0,1.5,0.673,1.5,1.5V25.998z"/>
</svg>
