<?xml version="1.0" encoding="utf-8"?>
<!-- Generator: Adobe Illustrator 16.0.0, SVG Export Plug-In . SVG Version: 6.00 Build 0)  -->
<!DOCTYPE svg PUBLIC "-//W3C//DTD SVG 1.1//EN" "http://www.w3.org/Graphics/SVG/1.1/DTD/svg11.dtd">
<svg version="1.1" id="Layer_1" xmlns="http://www.w3.org/2000/svg" xmlns:xlink="http://www.w3.org/1999/xlink" x="0px" y="0px"
	 width="48px" height="48px" viewBox="0 0 48 48" enable-background="new 0 0 48 48" xml:space="preserve">
<g>
	<path d="M24,6c-6.174,0-11.812,3.129-15.094,8.183l-1.082-2.827c-0.396-1.032-1.553-1.548-2.583-1.152
		c-1.032,0.395-1.548,1.551-1.153,2.583l2.861,7.471c0.19,0.495,0.569,0.895,1.054,1.111c0.485,0.215,1.033,0.231,1.53,0.041
		l7.471-2.862c1.031-0.395,1.547-1.552,1.151-2.583c-0.395-1.033-1.554-1.547-2.583-1.152l-3.056,1.171
		C15.101,12.277,19.355,10,24,10c7.72,0,14,6.28,14,14s-6.28,14-14,14c-5.198,0-9.94-2.855-12.377-7.453
		c-0.518-0.977-1.725-1.35-2.704-0.831c-0.977,0.518-1.348,1.729-0.831,2.704C11.221,38.329,17.317,42,24,42c9.925,0,18-8.075,18-18
		C42,14.075,33.925,6,24,6z"/>
	<path d="M25,34v-9.586l4.707-4.707c0.391-0.391,0.391-1.023,0-1.414s-1.023-0.391-1.414,0L23,23.586V34c0,0.553,0.448,1,1,1
		S25,34.553,25,34z"/>
</g>
</svg>
