<?xml version="1.0" encoding="utf-8"?>
<!-- Generator: Adobe Illustrator 16.0.0, SVG Export Plug-In . SVG Version: 6.00 Build 0)  -->
<!DOCTYPE svg PUBLIC "-//W3C//DTD SVG 1.1//EN" "http://www.w3.org/Graphics/SVG/1.1/DTD/svg11.dtd">
<svg version="1.1" id="Layer_1" xmlns="http://www.w3.org/2000/svg" xmlns:xlink="http://www.w3.org/1999/xlink" x="0px" y="0px"
	 width="48px" height="48px" viewBox="0 0 48 48" enable-background="new 0 0 48 48" xml:space="preserve">
<g>
	<path d="M23.371,12.586l-9.5,7.69c-0.234,0.19-0.371,0.476-0.371,0.777V35.5c0,0.553,0.448,1,1,1h19c0.553,0,1-0.447,1-1V21.053
		c0-0.302-0.137-0.587-0.371-0.777l-9.5-7.69C24.262,12.289,23.738,12.289,23.371,12.586z M32.5,21.53V34.5h-17V21.53l8.5-6.88
		L32.5,21.53z"/>
	<path d="M23.371,20.627l-3.25,2.631c-0.234,0.19-0.371,0.476-0.371,0.777v5.215c0,0.553,0.448,1,1,1h6.5c0.553,0,1-0.447,1-1
		v-5.215c0-0.302-0.137-0.587-0.371-0.777l-3.25-2.631C24.262,20.33,23.738,20.33,23.371,20.627z M26.25,24.512v3.738h-4.5v-3.738
		L24,22.691L26.25,24.512z"/>
	<path d="M45.629,21.223L39,15.856V10c0-0.552-0.447-1-1-1h-2c-0.553,0-1,0.448-1,1v2.618L24.629,4.223
		c-0.367-0.297-0.892-0.297-1.259,0l-21,17c-0.329,0.267-0.455,0.712-0.313,1.111C2.199,22.733,2.576,23,3,23h4v17
		c0,1.654,1.346,3,3,3h28c1.654,0,3-1.346,3-3V23h4c0.424,0,0.802-0.267,0.942-0.667C46.084,21.935,45.958,21.489,45.629,21.223z
		 M39,40c0,0.552-0.448,1-1,1H10c-0.551,0-1-0.448-1-1V18.43L24,6.287l15,12.143V40z"/>
</g>
</svg>
