<?xml version="1.0" encoding="utf-8"?>
<!-- Generator: Adobe Illustrator 16.0.0, SVG Export Plug-In . SVG Version: 6.00 Build 0)  -->
<!DOCTYPE svg PUBLIC "-//W3C//DTD SVG 1.1//EN" "http://www.w3.org/Graphics/SVG/1.1/DTD/svg11.dtd">
<svg version="1.1" id="Layer_1" xmlns="http://www.w3.org/2000/svg" xmlns:xlink="http://www.w3.org/1999/xlink" x="0px" y="0px"
	 width="48px" height="48px" viewBox="0 0 48 48" enable-background="new 0 0 48 48" xml:space="preserve">
<path d="M37,42h-1c0-10.033-3.033-12.526-10.332-17.998C32.967,18.53,36,16.035,36,6h1c0.553,0,1-0.448,1-1s-0.447-1-1-1H11
	c-0.552,0-1,0.448-1,1s0.448,1,1,1h1c0,10.035,3.033,12.53,10.332,18.002C15.033,29.474,12,31.967,12,42h-1c-0.552,0-1,0.447-1,1
	s0.448,1,1,1h26c0.553,0,1-0.447,1-1S37.553,42,37,42z M14.617,12.17c-0.37-1.432-0.561-3.106-0.606-5.169C14.003,6.677,14,6,15,6
	h18c1,0,0.996,0.676,0.989,1c-0.045,2.063-0.235,3.738-0.606,5.17l-9.384,3.753L14.617,12.17z M24.365,30.069
	c-0.236-0.092-0.501-0.093-0.738,0.002l-8.047,3.22c1.491-2.846,4.146-4.838,8.419-8.039c4.241,3.177,6.889,5.163,8.385,7.975
	L24.365,30.069z"/>
</svg>
