<?xml version="1.0" encoding="utf-8"?>
<!-- Generator: Adobe Illustrator 16.0.0, SVG Export Plug-In . SVG Version: 6.00 Build 0)  -->
<!DOCTYPE svg PUBLIC "-//W3C//DTD SVG 1.1//EN" "http://www.w3.org/Graphics/SVG/1.1/DTD/svg11.dtd">
<svg version="1.1" id="Layer_1" xmlns="http://www.w3.org/2000/svg" xmlns:xlink="http://www.w3.org/1999/xlink" x="0px" y="0px"
	 width="48px" height="48px" viewBox="0 0 48 48" enable-background="new 0 0 48 48" xml:space="preserve">
<g>
	<path d="M26,32.123c0-3.703,0-10.344,0-10.797c0-0.921-0.544-1.495-1.773-1.282C22.997,20.258,22,21.178,22,22.099
		c0,0.533,0,12.043,0,12.577c0,1.137,0.953,1.429,2.196,1.223C25.438,35.692,27,34.823,27,33.904C27,32.979,26,33.498,26,32.123z"/>
	<path d="M24,12.165c-1.657,0.151-3,1.394-3,2.774s1.343,2.377,3,2.226c1.656-0.151,3-1.394,3-2.774S25.656,12.014,24,12.165z"/>
	<path d="M24,4C12.972,4,4,12.972,4,24c0,11.028,8.972,20,20,20c11.028,0,20-8.972,20-20C44,12.972,35.028,4,24,4z M24,42
		c-9.925,0-18-8.075-18-18c0-9.925,8.075-18,18-18c9.925,0,18,8.075,18,18C42,33.925,33.925,42,24,42z"/>
</g>
</svg>
