<?xml version="1.0" encoding="utf-8"?>
<!-- Generator: Adobe Illustrator 16.0.0, SVG Export Plug-In . SVG Version: 6.00 Build 0)  -->
<!DOCTYPE svg PUBLIC "-//W3C//DTD SVG 1.1//EN" "http://www.w3.org/Graphics/SVG/1.1/DTD/svg11.dtd">
<svg version="1.1" id="Layer_1" xmlns="http://www.w3.org/2000/svg" xmlns:xlink="http://www.w3.org/1999/xlink" x="0px" y="0px"
	 width="48px" height="48px" viewBox="0 0 48 48" enable-background="new 0 0 48 48" xml:space="preserve">
<g>
	<path d="M5.063,6.299l4.331,2.5c0.158,0.091,0.33,0.134,0.499,0.134c0.346,0,0.682-0.179,0.867-0.5
		c0.276-0.479,0.112-1.09-0.366-1.366l-4.331-2.5c-0.48-0.277-1.09-0.112-1.366,0.366C4.421,5.412,4.585,6.023,5.063,6.299z"/>
	<path d="M9,16c0-0.552-0.448-1-1-1H3c-0.552,0-1,0.448-1,1s0.448,1,1,1h5C8.552,17,9,16.552,9,16z"/>
	<path d="M9.894,23.067l-4.33,2.5c-0.479,0.276-0.642,0.888-0.366,1.366c0.186,0.321,0.521,0.5,0.867,0.5
		c0.169,0,0.342-0.043,0.499-0.134l4.33-2.5c0.479-0.276,0.642-0.888,0.366-1.366C10.983,22.955,10.371,22.79,9.894,23.067z"/>
	<path d="M38.106,7.933l4.33-2.5c0.479-0.276,0.643-0.888,0.366-1.366c-0.276-0.479-0.89-0.643-1.366-0.366l-4.33,2.5
		c-0.479,0.276-0.643,0.888-0.366,1.366c0.186,0.321,0.521,0.5,0.867,0.5C37.777,8.067,37.949,8.024,38.106,7.933z"/>
	<path d="M45,14h-5c-0.553,0-1,0.448-1,1s0.447,1,1,1h5c0.553,0,1-0.448,1-1S45.553,14,45,14z"/>
	<path d="M42.937,24.7l-4.33-2.5c-0.478-0.276-1.09-0.113-1.366,0.366c-0.276,0.479-0.112,1.09,0.366,1.366l4.33,2.5
		c0.157,0.091,0.329,0.134,0.499,0.134c0.346,0,0.682-0.18,0.867-0.5C43.579,25.588,43.415,24.977,42.937,24.7z"/>
	<path d="M24,5.188c-6.617,0-12,5.383-12,12c0,2.521,0.773,4.933,2.235,6.977c0.334,0.466,0.672,0.905,1.004,1.336
		c1.542,2,2.76,3.58,2.76,6.881v6.153c0,1.363,0.165,2.904,1.389,3.994C20.107,43.17,22.497,45,24,45
		c1.498,0,3.891-1.83,4.612-2.472C29.835,41.438,30,39.896,30,38.533v-6.152c0-3.302,1.219-4.882,2.761-6.882
		c0.332-0.43,0.67-0.869,1.004-1.335C35.228,22.117,36,19.705,36,17.188C36,10.571,30.617,5.188,24,5.188z M27.281,41.035
		C26.229,41.972,24.512,43,24,43c-0.514,0-2.23-1.027-3.28-1.965c-0.013-0.012-0.026-0.023-0.039-0.035h6.639
		C27.308,41.012,27.295,41.023,27.281,41.035z M28,38.533c0,0.165-0.003,0.32-0.01,0.467h-7.981C20.003,38.854,20,38.699,20,38.534
		V37h8V38.533z M28,35h-8v-2h8V35z M32.138,23c-0.319,0.446-0.644,0.866-0.961,1.278c-1.371,1.778-2.783,3.609-3.107,6.724
		C28.046,31.001,28.023,31,28,31h-8c-0.023,0-0.046,0.001-0.069,0.002c-0.325-3.114-1.736-4.945-3.107-6.723
		c-0.318-0.412-0.642-0.833-0.962-1.279C14.644,21.298,14,19.288,14,17.188c0-5.514,4.486-10,10-10c5.514,0,10,4.486,10,10
		C34,19.286,33.356,21.296,32.138,23z"/>
</g>
</svg>
