<?xml version="1.0" encoding="utf-8"?>
<!-- Generator: Adobe Illustrator 16.0.0, SVG Export Plug-In . SVG Version: 6.00 Build 0)  -->
<!DOCTYPE svg PUBLIC "-//W3C//DTD SVG 1.1//EN" "http://www.w3.org/Graphics/SVG/1.1/DTD/svg11.dtd">
<svg version="1.1" id="Layer_1" xmlns="http://www.w3.org/2000/svg" xmlns:xlink="http://www.w3.org/1999/xlink" x="0px" y="0px"
	 width="48px" height="48px" viewBox="0 0 48 48" enable-background="new 0 0 48 48" xml:space="preserve">
<path d="M38,20h-2v-4c0-6.617-5.383-12-12-12c-6.617,0-12,5.383-12,12v4h-2c-1.104,0-2,0.896-2,2v18c0,1.104,0.896,2,2,2h28
	c1.104,0,2-0.896,2-2V22C40,20.896,39.104,20,38,20z M32,20H16v-4c0-4.411,3.589-8,8-8s8,3.589,8,8V20z"/>
</svg>
