<?xml version="1.0" encoding="utf-8"?>
<!-- Generator: Adobe Illustrator 16.0.0, SVG Export Plug-In . SVG Version: 6.00 Build 0)  -->
<!DOCTYPE svg PUBLIC "-//W3C//DTD SVG 1.1//EN" "http://www.w3.org/Graphics/SVG/1.1/DTD/svg11.dtd">
<svg version="1.1" id="Layer_1" xmlns="http://www.w3.org/2000/svg" xmlns:xlink="http://www.w3.org/1999/xlink" x="0px" y="0px"
	 width="48px" height="48px" viewBox="0 0 48 48" enable-background="new 0 0 48 48" xml:space="preserve">
<path d="M38,22H16v-8c0-4.411,3.589-8,8-8s8,3.589,8,8v2h4v-2c0-6.617-5.383-12-12-12c-6.617,0-12,5.383-12,12v8h-2
	c-1.104,0-2,0.896-2,2v18c0,1.104,0.896,2,2,2h28c1.104,0,2-0.896,2-2V24C40,22.896,39.104,22,38,22z M24,38c-2.761,0-5-2.238-5-5
	s2.239-5,5-5c2.762,0,5,2.238,5,5S26.762,38,24,38z"/>
</svg>
