<?xml version="1.0" encoding="utf-8"?>
<!-- Generator: Adobe Illustrator 16.0.0, SVG Export Plug-In . SVG Version: 6.00 Build 0)  -->
<!DOCTYPE svg PUBLIC "-//W3C//DTD SVG 1.1//EN" "http://www.w3.org/Graphics/SVG/1.1/DTD/svg11.dtd">
<svg version="1.1" id="Layer_1" xmlns="http://www.w3.org/2000/svg" xmlns:xlink="http://www.w3.org/1999/xlink" x="0px" y="0px"
	 width="48px" height="48px" viewBox="0 0 48 48" enable-background="new 0 0 48 48" xml:space="preserve">
<path d="M41.553,13.051C40.729,12.504,24.55,1.833,24.55,1.833L24,1.471l-0.551,0.363c0,0-16.178,10.671-17.002,11.218
	C4.709,14.205,4,15.349,4,17v22c0,1.654,1.346,3,3,3h34c1.654,0,3-1.346,3-3V17C44,15.348,43.291,14.204,41.553,13.051z
	 M7.553,14.717C8.286,14.231,21.161,5.739,24,3.866c2.839,1.873,15.714,10.365,16.448,10.852c0.409,0.271,0.712,0.518,0.935,0.748
	L28.388,26.679L24,22.893l-4.388,3.786L6.619,15.465C6.841,15.236,7.144,14.989,7.553,14.717z M6,38.427V17.573L18.082,28L6,38.427z
	 M7.238,40L24,25.534L40.763,40H7.238z M42,38.426L29.918,28L42,17.574V38.426z"/>
</svg>
