<?xml version="1.0" encoding="utf-8"?>
<!-- Generator: Adobe Illustrator 16.0.0, SVG Export Plug-In . SVG Version: 6.00 Build 0)  -->
<!DOCTYPE svg PUBLIC "-//W3C//DTD SVG 1.1//EN" "http://www.w3.org/Graphics/SVG/1.1/DTD/svg11.dtd">
<svg version="1.1" id="Layer_1" xmlns="http://www.w3.org/2000/svg" xmlns:xlink="http://www.w3.org/1999/xlink" x="0px" y="0px"
	 width="48px" height="48px" viewBox="0 0 48 48" enable-background="new 0 0 48 48" xml:space="preserve">
<path d="M41,10H7c-1.654,0-3,1.346-3,3v22c0,1.654,1.346,3,3,3h34c1.654,0,3-1.346,3-3V13C44,11.346,42.654,10,41,10z M40.763,12
	L24,26.465L7.238,12H40.763z M6,34.427V13.573L18.082,24L6,34.427z M7.238,36l12.375-10.68L24,29.107l4.388-3.787L40.763,36H7.238z
	 M42,34.426L29.918,24L42,13.574V34.426z"/>
</svg>
