<?xml version="1.0" encoding="utf-8"?>
<!-- Generator: Adobe Illustrator 16.0.0, SVG Export Plug-In . SVG Version: 6.00 Build 0)  -->
<!DOCTYPE svg PUBLIC "-//W3C//DTD SVG 1.1//EN" "http://www.w3.org/Graphics/SVG/1.1/DTD/svg11.dtd">
<svg version="1.1" id="Layer_1" xmlns="http://www.w3.org/2000/svg" xmlns:xlink="http://www.w3.org/1999/xlink" x="0px" y="0px"
	 width="48px" height="48px" viewBox="0 0 48 48" enable-background="new 0 0 48 48" xml:space="preserve">
<g>
	<path d="M34,22.25c-0.553,0-1,0.448-1,1V27c0,4.963-4.037,9-9,9c-4.962,0-9-4.037-9-9v-3.75c0-0.552-0.448-1-1-1s-1,0.448-1,1V27
		c0,5.729,4.401,10.448,10,10.955V42h-6c-0.552,0-1,0.447-1,1s0.448,1,1,1h14c0.553,0,1-0.447,1-1s-0.447-1-1-1h-6v-4.045
		C30.599,37.448,35,32.729,35,27v-3.75C35,22.698,34.553,22.25,34,22.25z"/>
	<path d="M24,34c3.859,0,7-3.141,7-7V11c0-3.86-3.141-7-7-7c-3.86,0-7,3.14-7,7v16C17,30.859,20.14,34,24,34z M19,11
		c0-2.757,2.243-5,5-5s5,2.243,5,5v16c0,2.757-2.243,5-5,5s-5-2.243-5-5V11z"/>
</g>
</svg>
