<?xml version="1.0" encoding="utf-8"?>
<!-- Generator: Adobe Illustrator 16.0.0, SVG Export Plug-In . SVG Version: 6.00 Build 0)  -->
<!DOCTYPE svg PUBLIC "-//W3C//DTD SVG 1.1//EN" "http://www.w3.org/Graphics/SVG/1.1/DTD/svg11.dtd">
<svg version="1.1" id="Layer_1" xmlns="http://www.w3.org/2000/svg" xmlns:xlink="http://www.w3.org/1999/xlink" x="0px" y="0px"
	 width="48px" height="48px" viewBox="0 0 48 48" enable-background="new 0 0 48 48" xml:space="preserve">
<path d="M43,10H5c-1.654,0-3,1.346-3,3v20c0,1.654,1.346,3,3,3h17v2.5c0,0.231-0.151,0.45-0.331,0.478l-6.819,1.034
	c-0.517,0.078-0.887,0.542-0.847,1.063C14.042,41.597,14.477,42,15,42h18c0.523,0,0.958-0.403,0.997-0.925s-0.33-0.985-0.847-1.063
	l-6.82-1.034C26.151,38.95,26,38.731,26,38.5V36h17c1.654,0,3-1.346,3-3V13C46,11.346,44.654,10,43,10z M44,31c0,0.552-0.448,1-1,1
	H5c-0.551,0-1-0.448-1-1V13c0-0.551,0.449-1,1-1h38c0.552,0,1,0.449,1,1V31z"/>
</svg>
