<?xml version="1.0" encoding="utf-8"?>
<!-- Generator: Adobe Illustrator 16.0.0, SVG Export Plug-In . SVG Version: 6.00 Build 0)  -->
<!DOCTYPE svg PUBLIC "-//W3C//DTD SVG 1.1//EN" "http://www.w3.org/Graphics/SVG/1.1/DTD/svg11.dtd">
<svg version="1.1" id="Layer_1" xmlns="http://www.w3.org/2000/svg" xmlns:xlink="http://www.w3.org/1999/xlink" x="0px" y="0px"
	 width="48px" height="48px" viewBox="0 0 48 48" enable-background="new 0 0 48 48" xml:space="preserve">
<path d="M35.196,5.247L25.197,3.24c-0.296-0.059-0.6,0.017-0.831,0.207C24.134,3.637,24,3.92,24,4.22c0,0,0,27.368,0,27.83
	c0,1.151-1.064,1.87-2.221,2.074c-2.323,0.41-4.228,0.747-5.505,1.72c-1.099,0.839-1.809,2.16-1.809,3.649
	c0,2.532,2.053,4.587,4.586,4.587c2.259,0,4.237-0.529,5.552-1.99C25.629,40.95,26,39.501,26,37.956c0-1.729,0-21.019,0-25.298
	l8.803,1.767c0.066,0.013,0.132,0.02,0.197,0.02c0.229,0,0.453-0.079,0.634-0.227C35.865,14.028,36,13.744,36,13.444V6.227
	C36,5.75,35.664,5.34,35.196,5.247z"/>
</svg>
