<?xml version="1.0" encoding="utf-8"?>
<!-- Generator: Adobe Illustrator 16.0.0, SVG Export Plug-In . SVG Version: 6.00 Build 0)  -->
<!DOCTYPE svg PUBLIC "-//W3C//DTD SVG 1.1//EN" "http://www.w3.org/Graphics/SVG/1.1/DTD/svg11.dtd">
<svg version="1.1" id="Layer_1" xmlns="http://www.w3.org/2000/svg" xmlns:xlink="http://www.w3.org/1999/xlink" x="0px" y="0px"
	 width="48px" height="48px" viewBox="0 0 48 48" enable-background="new 0 0 48 48" xml:space="preserve">
<path d="M35.634,3.447c-0.231-0.19-0.535-0.266-0.831-0.207l-20,4.014C14.336,7.348,14,7.758,14,8.235c0,0,0,23.493,0,23.815
	c0,1.151-1.064,1.87-2.221,2.074c-2.323,0.41-4.228,0.747-5.505,1.72c-1.099,0.839-1.809,2.16-1.809,3.649
	c0,2.532,2.053,4.587,4.586,4.587c2.259,0,4.237-0.529,5.552-1.99C15.629,40.95,16,39.501,16,37.956c0-1.362,0-13.628,0-20.866
	c0-0.477,0.336-0.887,0.803-0.98l16-3.211c0.296-0.059,0.6,0.017,0.831,0.207S34,13.58,34,13.879c0,5.593,0,13.866,0,14.17
	c0,1.151-1.064,1.87-2.221,2.074c-2.323,0.41-4.228,0.747-5.505,1.72c-1.099,0.839-1.809,2.16-1.809,3.649
	c0,2.532,2.053,4.587,4.586,4.587c2.259,0,4.237-0.529,5.552-1.99C35.629,36.95,36,35.501,36,33.956c0-1.473,0-29.735,0-29.735
	C36,3.921,35.865,3.637,35.634,3.447z"/>
</svg>
