<?xml version="1.0" encoding="utf-8"?>
<!-- Generator: Adobe Illustrator 16.0.0, SVG Export Plug-In . SVG Version: 6.00 Build 0)  -->
<!DOCTYPE svg PUBLIC "-//W3C//DTD SVG 1.1//EN" "http://www.w3.org/Graphics/SVG/1.1/DTD/svg11.dtd">
<svg version="1.1" id="Layer_1" xmlns="http://www.w3.org/2000/svg" xmlns:xlink="http://www.w3.org/1999/xlink" x="0px" y="0px"
	 width="48px" height="48px" viewBox="0 0 48 48" enable-background="new 0 0 48 48" xml:space="preserve">
<path d="M37,12H15c-2.82,0-2.99-2.5-3-2.99V9c0.01-0.52,0.19-3,3-3h3h19c0.553,0,1-0.448,1-1s-0.447-1-1-1H15c-3.96,0-5,3.27-5,5v30
	c0,1.73,1.04,5,5,5h22c0.553,0,1-0.447,1-1V13C38,12.448,37.553,12,37,12z M32,23.643l-6-1.206c0,0.145,0,2.587,0,5.423
	c0,2.954,0,5.41,0,5.893c0,1.07-0.257,2.076-0.969,2.867C24.12,37.633,22.748,38,21.181,38C19.424,38,18,36.573,18,34.818
	c0-1.032,0.493-1.948,1.254-2.531c0.886-0.673,1.994-0.907,3.606-1.192c0.802-0.142,1.14-0.22,1.14-0.22V19
	c0-0.3,0.134-0.583,0.366-0.773c0.231-0.19,0.535-0.266,0.831-0.207L32,19.385V23.643z"/>
</svg>
