<?xml version="1.0" encoding="utf-8"?>
<!-- Generator: Adobe Illustrator 16.0.0, SVG Export Plug-In . SVG Version: 6.00 Build 0)  -->
<!DOCTYPE svg PUBLIC "-//W3C//DTD SVG 1.1//EN" "http://www.w3.org/Graphics/SVG/1.1/DTD/svg11.dtd">
<svg version="1.1" id="Layer_1" xmlns="http://www.w3.org/2000/svg" xmlns:xlink="http://www.w3.org/1999/xlink" x="0px" y="0px"
	 width="48px" height="48px" viewBox="0 0 48 48" enable-background="new 0 0 48 48" xml:space="preserve">
<g>
	<path d="M38,37c0,0.553-0.447,1-1,1H11c-0.552,0-1-0.447-1-1V16h17.637l8-8H11c-1.657,0-3,1.343-3,3v26c0,1.657,1.343,3,3,3h26
		c1.657,0,3-1.343,3-3V16.364l-2,2V37z"/>
	<polygon points="22.181,24.284 18.627,31.373 25.716,27.819 42.328,11.207 38.793,7.671 	"/>
	<path d="M45.449,5.257L44.742,4.55c-0.756-0.756-2.072-0.756-2.828,0l-1.707,1.707l3.535,3.536l1.707-1.707
		c0.378-0.378,0.586-0.88,0.586-1.415C46.035,6.137,45.827,5.635,45.449,5.257z"/>
</g>
</svg>
