<?xml version="1.0" encoding="utf-8"?>
<!-- Generator: Adobe Illustrator 16.0.0, SVG Export Plug-In . SVG Version: 6.00 Build 0)  -->
<!DOCTYPE svg PUBLIC "-//W3C//DTD SVG 1.1//EN" "http://www.w3.org/Graphics/SVG/1.1/DTD/svg11.dtd">
<svg version="1.1" id="Layer_1" xmlns="http://www.w3.org/2000/svg" xmlns:xlink="http://www.w3.org/1999/xlink" x="0px" y="0px"
	 width="48px" height="48px" viewBox="0 0 48 48" enable-background="new 0 0 48 48" xml:space="preserve">
<path d="M38,16h-2v-6c0-2.206-1.794-4-4-4h-5.445l-0.64-2.824C25.533,1.364,23.923,0,22,0s-3.534,1.364-3.915,3.175L17.445,6H12
	c-2.206,0-4,1.794-4,4v28c0,2.206,1.794,4,4,4h4v2c0,1.104,0.896,2,2,2h20c1.104,0,2-0.896,2-2V18C40,16.896,39.104,16,38,16z
	 M22,2.5c0.828,0,1.5,0.672,1.5,1.5S22.828,5.5,22,5.5S20.5,4.828,20.5,4S21.172,2.5,22,2.5z M16,18v20h-4V12h20l0.001,4H18
	C16.896,16,16,16.896,16,18z M38,44H18V18h20V44z"/>
</svg>
