<?xml version="1.0" encoding="utf-8"?>
<!-- Generator: Adobe Illustrator 16.0.0, SVG Export Plug-In . SVG Version: 6.00 Build 0)  -->
<!DOCTYPE svg PUBLIC "-//W3C//DTD SVG 1.1//EN" "http://www.w3.org/Graphics/SVG/1.1/DTD/svg11.dtd">
<svg version="1.1" id="Layer_1" xmlns="http://www.w3.org/2000/svg" xmlns:xlink="http://www.w3.org/1999/xlink" x="0px" y="0px"
	 width="48px" height="48px" viewBox="0 0 48 48" enable-background="new 0 0 48 48" xml:space="preserve">
<path d="M42.408,35.545l-6.826-4.171c-1.237-0.756-1.932-1.073-3.077-0.479c-1.145,0.596-2.246,2.417-4.24,2.417
	s-4.876-1.771-8.341-5.237c-3.465-3.465-5.237-6.347-5.237-8.34c0-1.995,1.822-3.096,2.417-4.241
	c0.594-1.145,0.276-1.84-0.479-3.077L12.454,5.59C11.698,4.354,11.04,4,10.149,4C9.301,4,8.223,4.56,6.906,5.508
	C5.589,6.457,4,8.325,4,10.785s0.692,11.644,11.131,22.082s19.622,11.132,22.082,11.132s4.328-1.589,5.277-2.906
	c0.948-1.317,1.508-2.395,1.508-3.243C43.998,36.959,43.645,36.301,42.408,35.545z"/>
</svg>
