<?xml version="1.0" encoding="utf-8"?>
<!-- Generator: Adobe Illustrator 16.0.0, SVG Export Plug-In . SVG Version: 6.00 Build 0)  -->
<!DOCTYPE svg PUBLIC "-//W3C//DTD SVG 1.1//EN" "http://www.w3.org/Graphics/SVG/1.1/DTD/svg11.dtd">
<svg version="1.1" id="Layer_1" xmlns="http://www.w3.org/2000/svg" xmlns:xlink="http://www.w3.org/1999/xlink" x="0px" y="0px"
	 width="48px" height="48px" viewBox="0 0 48 48" enable-background="new 0 0 48 48" xml:space="preserve">
<path d="M37,12H15c-2.82,0-2.99-2.5-3-2.99V9c0.01-0.52,0.19-3,3-3h3h19c0.553,0,1-0.448,1-1s-0.447-1-1-1H15c-3.96,0-5,3.27-5,5v30
	c0,1.73,1.04,5,5,5h22c0.553,0,1-0.447,1-1V13C38,12.448,37.553,12,37,12z M24.086,32.56c0.644,0.673,1.589,0.425,2.151,0.609
	c0.563,0.188,0.675,0.53,0.832,1.195l0.855,3.7c0.156,0.663,0.063,1.009-0.226,1.308c-0.271,0.287-0.809,0.454-1.529,0.58
	c-0.738,0.129-1.849,0.035-2.642-0.795C22.737,38.323,20,35.015,20,27.996c0-7.011,2.737-10.331,3.529-11.153
	c0.792-0.83,1.903-0.924,2.641-0.797c0.721,0.122,1.259,0.294,1.529,0.583c0.288,0.297,0.382,0.637,0.226,1.305l-0.855,3.696
	c-0.157,0.672-0.27,1.011-0.832,1.194c-0.562,0.182-1.507-0.057-2.151,0.615c-0.642,0.668-1,2.228-1,4.557
	C23.086,30.329,23.445,31.888,24.086,32.56z"/>
</svg>
