<?xml version="1.0" encoding="utf-8"?>
<!-- Generator: Adobe Illustrator 16.0.0, SVG Export Plug-In . SVG Version: 6.00 Build 0)  -->
<!DOCTYPE svg PUBLIC "-//W3C//DTD SVG 1.1//EN" "http://www.w3.org/Graphics/SVG/1.1/DTD/svg11.dtd">
<svg version="1.1" id="Layer_1" xmlns="http://www.w3.org/2000/svg" xmlns:xlink="http://www.w3.org/1999/xlink" x="0px" y="0px"
	 width="48px" height="48px" viewBox="0 0 48 48" enable-background="new 0 0 48 48" xml:space="preserve">
<path d="M47.707,39.293L40,31.585v-1.269c1.26-1.788,2-3.967,2-6.316c0-2.346-0.744-4.518-2-6.305V9c0-1.657-1.343-3-3-3H9
	C7.343,6,6,7.343,6,9v30c0,1.657,1.343,3,3,3h28c1.657,0,3-1.343,3-3v-4.585l6.293,6.292C46.488,40.902,46.744,41,47,41
	s0.512-0.098,0.707-0.293C48.098,40.316,48.098,39.684,47.707,39.293z M38,39c0,0.553-0.447,1-1,1H9c-0.552,0-1-0.447-1-1V9
	c0-0.553,0.447-1,1-1h28c0.553,0,1,0.447,1,1v6.521C36.097,13.947,33.657,13,31,13c-6.065,0-11,4.935-11,11s4.935,11,11,11
	c2.658,0,5.097-0.948,7-2.522V39z M31,33c-4.963,0-9-4.037-9-9c0-4.962,4.037-9,9-9s9,4.038,9,9C40,28.963,35.963,33,31,33z"/>
</svg>
