<?xml version="1.0" encoding="utf-8"?>
<!-- Generator: Adobe Illustrator 16.0.0, SVG Export Plug-In . SVG Version: 6.00 Build 0)  -->
<!DOCTYPE svg PUBLIC "-//W3C//DTD SVG 1.1//EN" "http://www.w3.org/Graphics/SVG/1.1/DTD/svg11.dtd">
<svg version="1.1" id="Layer_1" xmlns="http://www.w3.org/2000/svg" xmlns:xlink="http://www.w3.org/1999/xlink" x="0px" y="0px"
	 width="48px" height="48px" viewBox="0 0 48 48" enable-background="new 0 0 48 48" xml:space="preserve">
<path d="M39,16h-5v-6c0-1.104-0.896-2-2-2H16c-1.104,0-2,0.896-2,2v6H9c-3.667,0-5,2.983-5,5v11c0,1.104,0.896,2,2,2h8v6
	c0,1.104,0.896,2,2,2h16c1.104,0,2-0.896,2-2v-6h8c1.104,0,2-0.896,2-2V21C44,18.983,42.667,16,39,16z M32,40H16V30h16V40z M32,16
	H16v-6h16V16z M39,23c-1.104,0-2-0.896-2-2s0.896-2,2-2s2,0.896,2,2S40.104,23,39,23z"/>
</svg>
