<?xml version="1.0" encoding="utf-8"?>
<!-- Generator: Adobe Illustrator 16.0.0, SVG Export Plug-In . SVG Version: 6.00 Build 0)  -->
<!DOCTYPE svg PUBLIC "-//W3C//DTD SVG 1.1//EN" "http://www.w3.org/Graphics/SVG/1.1/DTD/svg11.dtd">
<svg version="1.1" id="Layer_1" xmlns="http://www.w3.org/2000/svg" xmlns:xlink="http://www.w3.org/1999/xlink" x="0px" y="0px"
	 width="48px" height="48px" viewBox="0 0 48 48" enable-background="new 0 0 48 48" xml:space="preserve">
<path d="M42.759,10.203c-1.03-0.396-2.187,0.12-2.583,1.152l-1.082,2.827C35.812,9.129,30.174,6,24,6C14.075,6,6,14.075,6,24
	c0,9.925,8.075,18,18,18c6.683,0,12.779-3.671,15.912-9.58c0.517-0.976,0.146-2.187-0.831-2.704
	c-0.979-0.519-2.187-0.146-2.704,0.831C33.94,35.145,29.198,38,24,38c-7.72,0-14-6.28-14-14s6.28-14,14-14
	c4.645,0,8.899,2.277,11.483,5.983l-3.056-1.171c-1.029-0.395-2.188,0.12-2.583,1.152c-0.396,1.031,0.12,2.188,1.151,2.583
	l7.471,2.862c0.497,0.19,1.045,0.174,1.53-0.041c0.484-0.216,0.863-0.616,1.054-1.111l2.861-7.471
	C44.307,11.754,43.791,10.598,42.759,10.203z"/>
</svg>
