<?xml version="1.0" encoding="utf-8"?>
<!-- Generator: Adobe Illustrator 16.0.0, SVG Export Plug-In . SVG Version: 6.00 Build 0)  -->
<!DOCTYPE svg PUBLIC "-//W3C//DTD SVG 1.1//EN" "http://www.w3.org/Graphics/SVG/1.1/DTD/svg11.dtd">
<svg version="1.1" id="Layer_1" xmlns="http://www.w3.org/2000/svg" xmlns:xlink="http://www.w3.org/1999/xlink" x="0px" y="0px"
	 width="48px" height="48px" viewBox="0 0 48 48" enable-background="new 0 0 48 48" xml:space="preserve">
<g>
	<path d="M37.904,2.349L37.904,2.349c-1.111-0.473-2.33-0.466-3.526,0.019c-1.667,0.677-3.104,2.216-3.94,4.221
		c-1.012,2.421-2.087,5.183-3.043,7.798C26.882,15.616,26.146,16,24.417,16h-0.833c-1.729,0-2.466-0.384-2.979-1.614
		c-0.956-2.615-2.031-5.377-3.042-7.798c-0.837-2.005-2.274-3.543-3.941-4.221c-1.196-0.485-2.415-0.491-3.526-0.019l0,0
		C7.363,3.516,6.23,7.31,7.57,10.805c0.753,1.969,2.143,3.505,3.813,4.213c1.228,0.52,2.528,0.54,3.665,0.055
		c1.208-0.516,2.11-1.539,2.626-2.811c0.33,0.86,1.026,2.75,1.061,2.834c0.364,0.995,0.709,1.968,1.026,2.892
		c0.108,0.315,0.226,0.642,0.338,0.962C15.457,34.94,15,37.608,15,40.334c0,1.564,0.201,2.585,0.674,3.412l0.89,1.559l0.857-1.577
		c1.899-3.495,7.449-15.922,10.817-25.739c0.317-0.924,0.663-1.897,1.026-2.892c0.034-0.084,0.731-1.974,1.061-2.834
		c0.517,1.271,1.418,2.294,2.627,2.811c1.137,0.485,2.437,0.465,3.664-0.055c1.671-0.708,3.061-2.244,3.813-4.213
		C41.77,7.31,40.637,3.516,37.904,2.349z M14.263,13.233c-0.81,0.344-1.588,0.159-2.099-0.057c-1.155-0.49-2.174-1.644-2.727-3.087
		c-0.943-2.462-0.282-5.165,1.444-5.902c0.616-0.264,1.285-0.254,1.987,0.033c1.16,0.471,2.224,1.644,2.848,3.138
		C16.709,9.734,16.029,12.479,14.263,13.233z M38.563,10.09c-0.553,1.443-1.571,2.597-2.727,3.087
		c-0.511,0.216-1.289,0.4-2.099,0.057c-1.767-0.754-2.446-3.499-1.454-5.875c0.624-1.494,1.688-2.667,2.848-3.138
		c0.702-0.287,1.371-0.296,1.987-0.033C38.845,4.925,39.505,7.628,38.563,10.09z"/>
	<path d="M25.083,31.728c2.29,5.425,4.448,10.072,5.496,12l0.857,1.577l0.89-1.559C32.799,42.919,33,41.898,33,40.334
		c0-2.528-0.393-5.008-4.153-18.108C27.677,25.386,26.369,28.658,25.083,31.728z"/>
</g>
</svg>
