<?xml version="1.0" encoding="utf-8"?>
<!-- Generator: Adobe Illustrator 16.0.0, SVG Export Plug-In . SVG Version: 6.00 Build 0)  -->
<!DOCTYPE svg PUBLIC "-//W3C//DTD SVG 1.1//EN" "http://www.w3.org/Graphics/SVG/1.1/DTD/svg11.dtd">
<svg version="1.1" id="Layer_1" xmlns="http://www.w3.org/2000/svg" xmlns:xlink="http://www.w3.org/1999/xlink" x="0px" y="0px"
	 width="48px" height="48px" viewBox="0 0 48 48" enable-background="new 0 0 48 48" xml:space="preserve">
<path d="M43.945,23.674c-0.042-0.124-0.107-0.234-0.189-0.329c-0.076-0.088-0.168-0.163-0.274-0.222l-0.001,0
	c-0.021-0.011-0.041-0.021-0.063-0.031L7.427,6.096C7.075,5.929,6.659,5.982,6.359,6.232c-0.299,0.25-0.426,0.649-0.326,1.026l4,15
	c0.113,0.423,0.487,0.723,0.925,0.741l23.917,0.993l0.072,0.009l-23.99,1c-0.438,0.019-0.812,0.318-0.925,0.741l-4,15
	c-0.1,0.376,0.027,0.776,0.326,1.025C6.543,41.921,6.771,42,7,42c0.145,0,0.291-0.031,0.427-0.096L43.42,24.908
	c0.016-0.007,0.032-0.015,0.048-0.023c0.115-0.062,0.215-0.143,0.296-0.238c0.078-0.092,0.141-0.2,0.182-0.32
	C43.981,24.223,44,24.113,44,24.001C44,24,44,24,44,23.999C44,23.887,43.981,23.777,43.945,23.674z"/>
</svg>
