<?xml version="1.0" encoding="utf-8"?>
<!-- Generator: Adobe Illustrator 16.0.0, SVG Export Plug-In . SVG Version: 6.00 Build 0)  -->
<!DOCTYPE svg PUBLIC "-//W3C//DTD SVG 1.1//EN" "http://www.w3.org/Graphics/SVG/1.1/DTD/svg11.dtd">
<svg version="1.1" id="Layer_1" xmlns="http://www.w3.org/2000/svg" xmlns:xlink="http://www.w3.org/1999/xlink" x="0px" y="0px"
	 width="48px" height="48px" viewBox="0 0 48 48" enable-background="new 0 0 48 48" xml:space="preserve">
<path d="M41.951,18.691C41.817,18.279,41.434,18,41,18H28.737L24.951,6.341C24.817,5.929,24.433,5.65,24,5.65
	s-0.817,0.279-0.951,0.691L19.263,18H7c-0.433,0-0.817,0.279-0.951,0.691s0.013,0.863,0.363,1.118l9.918,7.208L12.544,38.67
	c-0.134,0.411,0.013,0.863,0.363,1.117c0.351,0.256,0.826,0.256,1.175,0.001L24,32.587l9.921,7.203
	c0.176,0.127,0.382,0.19,0.588,0.19s0.413-0.063,0.588-0.191c0.351-0.255,0.497-0.706,0.363-1.118l-3.793-11.654l9.921-7.208
	C41.938,19.554,42.085,19.103,41.951,18.691z"/>
</svg>
