<?xml version="1.0" encoding="utf-8"?>
<!-- Generator: Adobe Illustrator 16.0.0, SVG Export Plug-In . SVG Version: 6.00 Build 0)  -->
<!DOCTYPE svg PUBLIC "-//W3C//DTD SVG 1.1//EN" "http://www.w3.org/Graphics/SVG/1.1/DTD/svg11.dtd">
<svg version="1.1" id="Layer_1" xmlns="http://www.w3.org/2000/svg" xmlns:xlink="http://www.w3.org/1999/xlink" x="0px" y="0px"
	 width="48px" height="48px" viewBox="0 0 48 48" enable-background="new 0 0 48 48" xml:space="preserve">
<g>
	<path d="M37.789,13.333c0.195,0.195,0.451,0.293,0.707,0.293s0.512-0.098,0.707-0.293l0.707-0.707
		c0.188-0.188,0.293-0.442,0.293-0.707s-0.105-0.52-0.293-0.707L37.788,9.09c-0.391-0.391-1.023-0.391-1.414,0l-0.707,0.707
		c-0.188,0.188-0.293,0.442-0.293,0.707s0.105,0.52,0.293,0.707L37.789,13.333z"/>
	<path d="M26,8.128c0-0.71,0-1.664,0-2.128c0-0.787-0.275-1-2-1s-2,0.213-2,1c0,0.464,0,1.418,0,2.128C13.556,9.119,7,16.29,7,25
		c0,9.389,7.612,17,17,17c9.389,0,17-7.611,17-17C41,16.29,34.444,9.119,26,8.128z M25,26.723V28c0,0.553-0.448,1-1,1s-1-0.447-1-1
		v-1.277c-0.595-0.347-1-0.984-1-1.723s0.405-1.376,1-1.723V13c0-0.552,0.448-1,1-1s1,0.448,1,1v10.277c0.596,0.347,1,0.984,1,1.723
		S25.596,26.376,25,26.723z"/>
</g>
</svg>
