<?xml version="1.0" encoding="utf-8"?>
<!-- Generator: Adobe Illustrator 16.0.0, SVG Export Plug-In . SVG Version: 6.00 Build 0)  -->
<!DOCTYPE svg PUBLIC "-//W3C//DTD SVG 1.1//EN" "http://www.w3.org/Graphics/SVG/1.1/DTD/svg11.dtd">
<svg version="1.1" id="Layer_1" xmlns="http://www.w3.org/2000/svg" xmlns:xlink="http://www.w3.org/1999/xlink" x="0px" y="0px"
	 width="48px" height="48px" viewBox="0 0 48 48" enable-background="new 0 0 48 48" xml:space="preserve">
<path d="M34,12H14C7.383,12,2,17.383,2,24c0,6.617,5.383,12,12,12h20c6.617,0,12-5.383,12-12C46,17.383,40.617,12,34,12z M4,24
	c0-5.514,4.486-10,10-10c2.397,0,4.6,0.85,6.324,2.262L6.262,30.324C4.85,28.6,4,26.397,4,24z M14,34c-2.397,0-4.6-0.85-6.324-2.262
	l14.062-14.063C23.15,19.4,24,21.603,24,24C24,29.514,19.514,34,14,34z"/>
</svg>
