<?xml version="1.0" encoding="utf-8"?>
<!-- Generator: Adobe Illustrator 16.0.0, SVG Export Plug-In . SVG Version: 6.00 Build 0)  -->
<!DOCTYPE svg PUBLIC "-//W3C//DTD SVG 1.1//EN" "http://www.w3.org/Graphics/SVG/1.1/DTD/svg11.dtd">
<svg version="1.1" id="Layer_1" xmlns="http://www.w3.org/2000/svg" xmlns:xlink="http://www.w3.org/1999/xlink" x="0px" y="0px"
	 width="48px" height="48px" viewBox="0 0 48 48" enable-background="new 0 0 48 48" xml:space="preserve">
<path d="M34.359,21.713C35.09,21.116,36,20.374,36,19c0-0.552-0.447-1-1-1h-2v-6c0-1.177,0.6-1.667,1.359-2.287
	C35.09,9.116,36,8.374,36,7c0-0.552-0.447-1-1-1h-2c0-2.209-1.791-4-4-4H19c-2.209,0-4,1.791-4,4h-2c-0.552,0-1,0.448-1,1
	c0,1.374,0.91,2.116,1.641,2.713C14.4,10.333,15,10.823,15,12v6h-2c-0.552,0-1,0.448-1,1c0,1.374,0.91,2.116,1.641,2.713
	C14.4,22.333,15,22.823,15,24v6h-2c-0.552,0-1,0.447-1,1c0,1.373,0.91,2.116,1.641,2.713C14.4,34.333,15,34.823,15,36v6
	c0,2.209,1.791,4,4,4h10c2.209,0,4-1.791,4-4v-6c0-1.177,0.6-1.667,1.359-2.287C35.09,33.116,36,32.373,36,31c0-0.553-0.447-1-1-1
	h-2v-6C33,22.823,33.6,22.333,34.359,21.713z M24,40c-2.209,0-4-1.791-4-4s1.791-4,4-4s4,1.791,4,4S26.209,40,24,40z M24,28
	c-2.209,0-4-1.791-4-4s1.791-4,4-4s4,1.791,4,4S26.209,28,24,28z M24,16c-2.209,0-4-1.791-4-4s1.791-4,4-4s4,1.791,4,4
	S26.209,16,24,16z"/>
</svg>
