<?xml version="1.0" encoding="utf-8"?>
<!-- Generator: Adobe Illustrator 16.0.0, SVG Export Plug-In . SVG Version: 6.00 Build 0)  -->
<!DOCTYPE svg PUBLIC "-//W3C//DTD SVG 1.1//EN" "http://www.w3.org/Graphics/SVG/1.1/DTD/svg11.dtd">
<svg version="1.1" id="Layer_1" xmlns="http://www.w3.org/2000/svg" xmlns:xlink="http://www.w3.org/1999/xlink" x="0px" y="0px"
	 width="48px" height="48px" viewBox="0 0 48 48" enable-background="new 0 0 48 48" xml:space="preserve">
<g>
	<path d="M11.003,42.165C11.092,44.308,12.855,46,15,46h18c2.146,0,3.908-1.692,3.997-3.835L38.239,12H9.76L11.003,42.165z
		 M31.001,16.958c0.023-0.552,0.507-0.974,1.041-0.958c0.552,0.023,0.98,0.489,0.957,1.041l-1,24C31.977,41.579,31.534,42,31.001,42
		c-0.015,0-0.028,0-0.043-0.001c-0.552-0.022-0.98-0.489-0.957-1.041L31.001,16.958z M23,17c0-0.552,0.448-1,1-1s1,0.448,1,1v24
		c0,0.553-0.448,1-1,1s-1-0.447-1-1V17z M15.958,16.001c0.557-0.032,1.017,0.406,1.041,0.958l1,24
		c0.023,0.552-0.406,1.019-0.958,1.041C17.027,42,17.013,42,17,42c-0.533,0-0.976-0.421-0.999-0.958l-1-24
		C14.978,16.49,15.407,16.024,15.958,16.001z"/>
	<path d="M37,6h-7V5c0-1.654-1.346-3-3-3h-6c-1.654,0-3,1.346-3,3v1h-7C9.346,6,8,7.346,8,9v1h1.87h28.269H40V9
		C40,7.346,38.654,6,37,6z M28,6h-8V5c0-0.551,0.449-1,1-1h6c0.552,0,1,0.449,1,1V6z"/>
</g>
</svg>
