<?xml version="1.0" encoding="utf-8"?>
<!-- Generator: Adobe Illustrator 16.0.0, SVG Export Plug-In . SVG Version: 6.00 Build 0)  -->
<!DOCTYPE svg PUBLIC "-//W3C//DTD SVG 1.1//EN" "http://www.w3.org/Graphics/SVG/1.1/DTD/svg11.dtd">
<svg version="1.1" id="Layer_1" xmlns="http://www.w3.org/2000/svg" xmlns:xlink="http://www.w3.org/1999/xlink" x="0px" y="0px"
	 width="48px" height="48px" viewBox="0 0 48 48" enable-background="new 0 0 48 48" xml:space="preserve">
<g>
	<path d="M29.707,23.707c0.391-0.391,0.391-1.023,0-1.414l-5-5C24.512,17.098,24.256,17,24,17s-0.512,0.098-0.707,0.293l-5,5
		c-0.391,0.391-0.391,1.023,0,1.414s1.023,0.391,1.414,0L23,20.414V43c0,0.553,0.448,1,1,1s1-0.447,1-1V20.414l3.293,3.293
		C28.684,24.098,29.316,24.098,29.707,23.707z"/>
	<path d="M35,6H13c-1.654,0-3,1.346-3,3v22c0,1.654,1.346,3,3,3h7c0.553,0,1-0.447,1-1s-0.447-1-1-1h-7c-0.552,0-1-0.449-1-1V9
		c0-0.552,0.448-1,1-1h22c0.551,0,1,0.448,1,1v22c0,0.551-0.449,1-1,1h-7c-0.553,0-1,0.447-1,1s0.447,1,1,1h7c1.654,0,3-1.346,3-3V9
		C38,7.346,36.654,6,35,6z"/>
</g>
</svg>
