<?xml version="1.0" encoding="utf-8"?>
<!-- Generator: Adobe Illustrator 16.0.0, SVG Export Plug-In . SVG Version: 6.00 Build 0)  -->
<!DOCTYPE svg PUBLIC "-//W3C//DTD SVG 1.1//EN" "http://www.w3.org/Graphics/SVG/1.1/DTD/svg11.dtd">
<svg version="1.1" id="Layer_1" xmlns="http://www.w3.org/2000/svg" xmlns:xlink="http://www.w3.org/1999/xlink" x="0px" y="0px"
	 width="48px" height="48px" viewBox="0 0 48 48" enable-background="new 0 0 48 48" xml:space="preserve">
<path d="M37.5,33.75c-2.25-2.25-7.844-2.807-8.787-3.853c-0.367-0.406-0.589-0.94-0.727-1.635c3.51-0.499,6.139-1.558,6.139-2.388
	c0-0.592-0.623-3.077-1.214-4.57c-0.531-1.345-1.036-2.639-1.036-4.146v-3.784c0-4.5-1.688-8.945-6.117-8.945
	c-2.355,0-3.617,1.335-3.617,1.335s-0.939-0.271-1.843-0.14c-2.45,0.356-4.173,2.708-4.173,7.75v3.784
	c0,1.506-0.504,2.801-1.036,4.146c-0.591,1.494-1.214,3.979-1.214,4.57c0,0.83,2.629,1.889,6.138,2.388
	c-0.137,0.694-0.359,1.229-0.726,1.635C18.344,30.943,12.75,31.5,10.5,33.75s-2.25,6.75-2.25,7.875S10.5,45,24,45
	s15.75-2.25,15.75-3.375S39.75,36,37.5,33.75z"/>
</svg>
