<?xml version="1.0" encoding="utf-8"?>
<!-- Generator: Adobe Illustrator 16.0.0, SVG Export Plug-In . SVG Version: 6.00 Build 0)  -->
<!DOCTYPE svg PUBLIC "-//W3C//DTD SVG 1.1//EN" "http://www.w3.org/Graphics/SVG/1.1/DTD/svg11.dtd">
<svg version="1.1" id="Layer_1" xmlns="http://www.w3.org/2000/svg" xmlns:xlink="http://www.w3.org/1999/xlink" x="0px" y="0px"
	 width="48px" height="48px" viewBox="0 0 48 48" enable-background="new 0 0 48 48" xml:space="preserve">
<g>
	<path d="M14,18H8c-1.104,0-2,0.896-2,2v6c0,1.104,0.896,2,2,2h6c1.104,0,2-0.896,2-2v-6C16,18.896,15.104,18,14,18z M14,26H8v-6h6
		V26z"/>
	<path d="M21,10h20c0.553,0,1-0.448,1-1s-0.447-1-1-1H21c-0.552,0-1,0.448-1,1S20.448,10,21,10z"/>
	<path d="M14,30H8c-1.104,0-2,0.896-2,2v6c0,1.104,0.896,2,2,2h6c1.104,0,2-0.896,2-2v-6C16,30.896,15.104,30,14,30z M14,38H8v-6h6
		V38z"/>
	<path d="M41,24H21c-0.552,0-1,0.448-1,1c0,0.553,0.448,1,1,1h20c0.553,0,1-0.447,1-1C42,24.448,41.553,24,41,24z"/>
	<path d="M41,20H21c-0.552,0-1,0.448-1,1s0.448,1,1,1h20c0.553,0,1-0.448,1-1S41.553,20,41,20z"/>
	<path d="M14,6H8C6.896,6,6,6.896,6,8v6c0,1.104,0.896,2,2,2h6c1.104,0,2-0.896,2-2V8C16,6.896,15.104,6,14,6z M14,14H8V8h6V14z"/>
	<path d="M41,12H21c-0.552,0-1,0.448-1,1s0.448,1,1,1h20c0.553,0,1-0.448,1-1S41.553,12,41,12z"/>
	<path d="M41,32H21c-0.552,0-1,0.447-1,1s0.448,1,1,1h20c0.553,0,1-0.447,1-1S41.553,32,41,32z"/>
	<path d="M41,36H21c-0.552,0-1,0.447-1,1s0.448,1,1,1h20c0.553,0,1-0.447,1-1S41.553,36,41,36z"/>
</g>
</svg>
