<?xml version="1.0" encoding="utf-8"?>
<!-- Generator: Adobe Illustrator 16.0.0, SVG Export Plug-In . SVG Version: 6.00 Build 0)  -->
<!DOCTYPE svg PUBLIC "-//W3C//DTD SVG 1.1//EN" "http://www.w3.org/Graphics/SVG/1.1/DTD/svg11.dtd">
<svg version="1.1" id="Layer_1" xmlns="http://www.w3.org/2000/svg" xmlns:xlink="http://www.w3.org/1999/xlink" x="0px" y="0px"
	 width="48px" height="48px" viewBox="0 0 48 48" enable-background="new 0 0 48 48" xml:space="preserve">
<g>
	<path d="M20,26H8c-1.104,0-2,0.896-2,2v12c0,1.104,0.896,2,2,2h12c1.104,0,2-0.896,2-2V28C22,26.896,21.104,26,20,26z M20,40H8V28
		h12V40z"/>
	<path d="M20,6H8C6.896,6,6,6.896,6,8v12c0,1.104,0.896,2,2,2h12c1.104,0,2-0.896,2-2V8C22,6.896,21.104,6,20,6z M20,20H8V8h12V20z"
		/>
	<path d="M27,10h14c0.553,0,1-0.448,1-1s-0.447-1-1-1H27c-0.553,0-1,0.448-1,1S26.447,10,27,10z"/>
	<path d="M41,18H27c-0.553,0-1,0.448-1,1s0.447,1,1,1h14c0.553,0,1-0.448,1-1S41.553,18,41,18z"/>
	<path d="M41,38H27c-0.553,0-1,0.447-1,1s0.447,1,1,1h14c0.553,0,1-0.447,1-1S41.553,38,41,38z"/>
	<path d="M41,28H27c-0.553,0-1,0.447-1,1s0.447,1,1,1h14c0.553,0,1-0.447,1-1S41.553,28,41,28z"/>
	<path d="M41,13H27c-0.553,0-1,0.448-1,1s0.447,1,1,1h14c0.553,0,1-0.448,1-1S41.553,13,41,13z"/>
	<path d="M41,33H27c-0.553,0-1,0.447-1,1s0.447,1,1,1h14c0.553,0,1-0.447,1-1S41.553,33,41,33z"/>
</g>
</svg>
