<?xml version="1.0" encoding="utf-8"?>
<!-- Generator: Adobe Illustrator 16.0.0, SVG Export Plug-In . SVG Version: 6.00 Build 0)  -->
<!DOCTYPE svg PUBLIC "-//W3C//DTD SVG 1.1//EN" "http://www.w3.org/Graphics/SVG/1.1/DTD/svg11.dtd">
<svg version="1.1" id="Layer_1" xmlns="http://www.w3.org/2000/svg" xmlns:xlink="http://www.w3.org/1999/xlink" x="0px" y="0px"
	 width="48px" height="48px" viewBox="0 0 48 48" enable-background="new 0 0 48 48" xml:space="preserve">
<g>
	<path d="M14,19H8c-1.104,0-2,0.896-2,2v6c0,1.104,0.896,2,2,2h6c1.104,0,2-0.896,2-2v-6C16,19.896,15.104,19,14,19z M14,27H8v-6h6
		V27z"/>
	<path d="M14,32H8c-1.104,0-2,0.896-2,2v6c0,1.104,0.896,2,2,2h6c1.104,0,2-0.896,2-2v-6C16,32.896,15.104,32,14,32z M14,40H8v-6h6
		V40z"/>
	<path d="M40,6h-6c-1.104,0-2,0.896-2,2v6c0,1.104,0.896,2,2,2h6c1.104,0,2-0.896,2-2V8C42,6.896,41.104,6,40,6z M40,14h-6V8h6V14z"
		/>
	<path d="M40,19h-6c-1.104,0-2,0.896-2,2v6c0,1.104,0.896,2,2,2h6c1.104,0,2-0.896,2-2v-6C42,19.896,41.104,19,40,19z M40,27h-6v-6
		h6V27z"/>
	<path d="M40,32h-6c-1.104,0-2,0.896-2,2v6c0,1.104,0.896,2,2,2h6c1.104,0,2-0.896,2-2v-6C42,32.896,41.104,32,40,32z M40,40h-6v-6
		h6V40z"/>
	<path d="M14,6H8C6.896,6,6,6.896,6,8v6c0,1.104,0.896,2,2,2h6c1.104,0,2-0.896,2-2V8C16,6.896,15.104,6,14,6z M14,14H8V8h6V14z"/>
	<path d="M27,19h-6c-1.104,0-2,0.896-2,2v6c0,1.104,0.896,2,2,2h6c1.104,0,2-0.896,2-2v-6C29,19.896,28.104,19,27,19z M27,27h-6v-6
		h6V27z"/>
	<path d="M27,32h-6c-1.104,0-2,0.896-2,2v6c0,1.104,0.896,2,2,2h6c1.104,0,2-0.896,2-2v-6C29,32.896,28.104,32,27,32z M27,40h-6v-6
		h6V40z"/>
	<path d="M27,6h-6c-1.104,0-2,0.896-2,2v6c0,1.104,0.896,2,2,2h6c1.104,0,2-0.896,2-2V8C29,6.896,28.104,6,27,6z M27,14h-6V8h6V14z"
		/>
</g>
</svg>
