<?xml version="1.0" encoding="utf-8"?>
<!-- Generator: Adobe Illustrator 16.0.0, SVG Export Plug-In . SVG Version: 6.00 Build 0)  -->
<!DOCTYPE svg PUBLIC "-//W3C//DTD SVG 1.1//EN" "http://www.w3.org/Graphics/SVG/1.1/DTD/svg11.dtd">
<svg version="1.1" id="Layer_1" xmlns="http://www.w3.org/2000/svg" xmlns:xlink="http://www.w3.org/1999/xlink" x="0px" y="0px"
	 width="48px" height="48px" viewBox="0 0 48 48" enable-background="new 0 0 48 48" xml:space="preserve">
<g>
	<path d="M20,26H8c-1.104,0-2,0.896-2,2v12c0,1.104,0.896,2,2,2h12c1.104,0,2-0.896,2-2V28C22,26.896,21.104,26,20,26z M20,40H8V28
		h12V40z"/>
	<path d="M40,6H28c-1.104,0-2,0.896-2,2v12c0,1.104,0.896,2,2,2h12c1.104,0,2-0.896,2-2V8C42,6.896,41.104,6,40,6z M40,20H28V8h12
		V20z"/>
	<path d="M40,26H28c-1.104,0-2,0.896-2,2v12c0,1.104,0.896,2,2,2h12c1.104,0,2-0.896,2-2V28C42,26.896,41.104,26,40,26z M40,40H28
		V28h12V40z"/>
	<path d="M20,6H8C6.896,6,6,6.896,6,8v12c0,1.104,0.896,2,2,2h12c1.104,0,2-0.896,2-2V8C22,6.896,21.104,6,20,6z M20,20H8V8h12V20z"
		/>
</g>
</svg>
