<?xml version="1.0" encoding="utf-8"?>
<!-- Generator: Adobe Illustrator 16.0.0, SVG Export Plug-In . SVG Version: 6.00 Build 0)  -->
<!DOCTYPE svg PUBLIC "-//W3C//DTD SVG 1.1//EN" "http://www.w3.org/Graphics/SVG/1.1/DTD/svg11.dtd">
<svg version="1.1" id="Layer_1" xmlns="http://www.w3.org/2000/svg" xmlns:xlink="http://www.w3.org/1999/xlink" x="0px" y="0px"
	 width="48px" height="48px" viewBox="0 0 48 48" enable-background="new 0 0 48 48" xml:space="preserve">
<g>
	<path d="M27,26H7c-0.552,0-1,0.447-1,1s0.448,1,1,1h20c0.553,0,1-0.447,1-1S27.553,26,27,26z"/>
	<path d="M27,20H7c-0.552,0-1,0.448-1,1s0.448,1,1,1h20c0.553,0,1-0.448,1-1S27.553,20,27,20z"/>
	<path d="M27,32H7c-0.552,0-1,0.447-1,1s0.448,1,1,1h20c0.553,0,1-0.447,1-1S27.553,32,27,32z"/>
	<path d="M27,38H7c-0.552,0-1,0.447-1,1s0.448,1,1,1h20c0.553,0,1-0.447,1-1S27.553,38,27,38z"/>
	<path d="M33,10h8c0.553,0,1-0.448,1-1s-0.447-1-1-1h-8c-0.553,0-1,0.448-1,1S32.447,10,33,10z"/>
	<path d="M27,14H7c-0.552,0-1,0.448-1,1s0.448,1,1,1h20c0.553,0,1-0.448,1-1S27.553,14,27,14z"/>
	<path d="M41,20h-8c-0.553,0-1,0.448-1,1s0.447,1,1,1h8c0.553,0,1-0.448,1-1S41.553,20,41,20z"/>
	<path d="M41,14h-8c-0.553,0-1,0.448-1,1s0.447,1,1,1h8c0.553,0,1-0.448,1-1S41.553,14,41,14z"/>
	<path d="M41,26h-8c-0.553,0-1,0.447-1,1s0.447,1,1,1h8c0.553,0,1-0.447,1-1S41.553,26,41,26z"/>
	<path d="M41,38h-8c-0.553,0-1,0.447-1,1s0.447,1,1,1h8c0.553,0,1-0.447,1-1S41.553,38,41,38z"/>
	<path d="M27,8H7C6.448,8,6,8.448,6,9s0.448,1,1,1h20c0.553,0,1-0.448,1-1S27.553,8,27,8z"/>
	<path d="M41,32h-8c-0.553,0-1,0.447-1,1s0.447,1,1,1h8c0.553,0,1-0.447,1-1S41.553,32,41,32z"/>
</g>
</svg>
