<?xml version="1.0" encoding="utf-8"?>
<!-- Generator: Adobe Illustrator 16.0.0, SVG Export Plug-In . SVG Version: 6.00 Build 0)  -->
<!DOCTYPE svg PUBLIC "-//W3C//DTD SVG 1.1//EN" "http://www.w3.org/Graphics/SVG/1.1/DTD/svg11.dtd">
<svg version="1.1" id="Layer_1" xmlns="http://www.w3.org/2000/svg" xmlns:xlink="http://www.w3.org/1999/xlink" x="0px" y="0px"
	 width="48px" height="48px" viewBox="0 0 48 48" enable-background="new 0 0 48 48" xml:space="preserve">
<g>
	<path d="M24,16c-3.309,0-6,2.691-6,6s2.691,6,6,6s6-2.691,6-6S27.309,16,24,16z"/>
	<path d="M40,22c0-8.822-7.178-16-16-16S8,13.178,8,22c0,7.424,5.082,13.683,11.95,15.48c-0.519,3.896-4.877,4.502-5.071,4.527
		c-0.524,0.063-0.909,0.525-0.876,1.053C14.034,43.589,14.471,44,15,44h18c0.527,0,0.963-0.41,0.996-0.937
		c0.034-0.526-0.349-0.988-0.872-1.056c-0.196-0.025-4.555-0.632-5.073-4.527C34.918,35.683,40,29.424,40,22z M28.366,42h-8.733
		c1.112-0.957,2.013-2.302,2.284-4.135c1.364,0.178,2.803,0.178,4.166,0C26.354,39.698,27.254,41.043,28.366,42z M24,30
		c-4.411,0-8-3.589-8-8s3.589-8,8-8s8,3.589,8,8S28.411,30,24,30z"/>
</g>
</svg>
