<?xml version="1.0" encoding="utf-8"?>
<!-- Generator: Adobe Illustrator 16.0.0, SVG Export Plug-In . SVG Version: 6.00 Build 0)  -->
<!DOCTYPE svg PUBLIC "-//W3C//DTD SVG 1.1//EN" "http://www.w3.org/Graphics/SVG/1.1/DTD/svg11.dtd">
<svg version="1.1" id="Layer_1" xmlns="http://www.w3.org/2000/svg" xmlns:xlink="http://www.w3.org/1999/xlink" x="0px" y="0px"
	 width="48px" height="48px" viewBox="0 0 48 48" enable-background="new 0 0 48 48" xml:space="preserve">
<path d="M43,8H5c-1.657,0-3,1.343-3,3v26c0,1.657,1.343,3,3,3h38c1.657,0,3-1.343,3-3V11C46,9.343,44.657,8,43,8z M17,10.5
	c0.828,0,1.5,0.672,1.5,1.5s-0.672,1.5-1.5,1.5s-1.5-0.672-1.5-1.5S16.172,10.5,17,10.5z M12,10.5c0.828,0,1.5,0.672,1.5,1.5
	s-0.672,1.5-1.5,1.5s-1.5-0.672-1.5-1.5S11.172,10.5,12,10.5z M7,10.5c0.828,0,1.5,0.672,1.5,1.5S7.828,13.5,7,13.5
	S5.5,12.828,5.5,12S6.172,10.5,7,10.5z M44,37c0,0.553-0.447,1-1,1H5c-0.552,0-1-0.447-1-1V16h40V37z"/>
</svg>
