<?xml version="1.0" encoding="utf-8"?>
<!-- Generator: Adobe Illustrator 16.0.0, SVG Export Plug-In . SVG Version: 6.00 Build 0)  -->
<!DOCTYPE svg PUBLIC "-//W3C//DTD SVG 1.1//EN" "http://www.w3.org/Graphics/SVG/1.1/DTD/svg11.dtd">
<svg version="1.1" id="Layer_1" xmlns="http://www.w3.org/2000/svg" xmlns:xlink="http://www.w3.org/1999/xlink" x="0px" y="0px"
	 width="48px" height="48px" viewBox="0 0 48 48" enable-background="new 0 0 48 48" xml:space="preserve">
<path d="M43,16h-5V9c0-1.657-1.343-3-3-3H5C3.343,6,2,7.343,2,9v20c0,1.657,1.343,3,3,3h5v7c0,1.657,1.343,3,3,3h30
	c1.657,0,3-1.343,3-3V19C46,17.343,44.657,16,43,16z M17,8.5c0.828,0,1.5,0.672,1.5,1.5s-0.672,1.5-1.5,1.5s-1.5-0.672-1.5-1.5
	S16.172,8.5,17,8.5z M12,8.5c0.828,0,1.5,0.672,1.5,1.5s-0.672,1.5-1.5,1.5s-1.5-0.672-1.5-1.5S11.172,8.5,12,8.5z M7,8.5
	c0.828,0,1.5,0.672,1.5,1.5S7.828,11.5,7,11.5S5.5,10.828,5.5,10S6.172,8.5,7,8.5z M10,19v11H5c-0.552,0-1-0.447-1-1V14h32v2H13
	C11.343,16,10,17.343,10,19z M26.5,20c0,0.828-0.672,1.5-1.5,1.5s-1.5-0.672-1.5-1.5s0.672-1.5,1.5-1.5S26.5,19.172,26.5,20z
	 M21.5,20c0,0.828-0.672,1.5-1.5,1.5s-1.5-0.672-1.5-1.5s0.672-1.5,1.5-1.5S21.5,19.172,21.5,20z M16.5,20
	c0,0.828-0.672,1.5-1.5,1.5s-1.5-0.672-1.5-1.5s0.672-1.5,1.5-1.5S16.5,19.172,16.5,20z M44,39c0,0.553-0.447,1-1,1H13
	c-0.552,0-1-0.447-1-1V24h32V39z"/>
</svg>
