<?xml version="1.0" encoding="utf-8"?>
<!-- Generator: Adobe Illustrator 16.0.0, SVG Export Plug-In . SVG Version: 6.00 Build 0)  -->
<!DOCTYPE svg PUBLIC "-//W3C//DTD SVG 1.1//EN" "http://www.w3.org/Graphics/SVG/1.1/DTD/svg11.dtd">
<svg version="1.1" id="Layer_1" xmlns="http://www.w3.org/2000/svg" xmlns:xlink="http://www.w3.org/1999/xlink" x="0px" y="0px"
	 width="48px" height="48px" viewBox="0 0 48 48" enable-background="new 0 0 48 48" xml:space="preserve">
<path d="M43.707,42.293L19.455,18.041l5.703-0.905c0.428-0.068,0.763-0.404,0.83-0.832c0.068-0.428-0.147-0.851-0.534-1.047
	l-6.241-3.176l1.097-6.924c0.068-0.428-0.148-0.851-0.534-1.048c-0.387-0.197-0.855-0.123-1.161,0.184L13.656,9.25L7.413,6.067
	C7.026,5.871,6.558,5.944,6.251,6.251C5.945,6.558,5.871,7.027,6.068,7.413l3.183,6.243l-4.958,4.959
	c-0.307,0.306-0.381,0.775-0.184,1.161c0.198,0.386,0.624,0.601,1.048,0.534l6.924-1.097l3.176,6.236
	c0.197,0.386,0.623,0.6,1.047,0.534c0.428-0.067,0.764-0.403,0.832-0.831l0.904-5.697l24.252,24.252C42.488,43.902,42.744,44,43,44
	s0.512-0.098,0.707-0.293C44.098,43.316,44.098,42.684,43.707,42.293z M17.214,16.371c-0.205,0.03-0.403,0.124-0.561,0.282
	s-0.252,0.356-0.282,0.562l-0.728,4.584l-2.11-4.143c-0.172-0.338-0.519-0.546-0.891-0.546c-0.052,0-0.104,0.004-0.157,0.012
	l-4.602,0.729l3.296-3.297c0.307-0.307,0.381-0.775,0.184-1.161L9.249,9.249l4.146,2.114c0.385,0.196,0.855,0.123,1.161-0.184
	l3.296-3.295l-0.729,4.603c-0.068,0.428,0.148,0.852,0.534,1.048l4.146,2.11L17.214,16.371z"/>
</svg>
