<?xml version="1.0" encoding="utf-8"?>
<!-- Generator: Adobe Illustrator 16.0.0, SVG Export Plug-In . SVG Version: 6.00 Build 0)  -->
<!DOCTYPE svg PUBLIC "-//W3C//DTD SVG 1.1//EN" "http://www.w3.org/Graphics/SVG/1.1/DTD/svg11.dtd">
<svg version="1.1" id="Layer_1" xmlns="http://www.w3.org/2000/svg" xmlns:xlink="http://www.w3.org/1999/xlink" x="0px" y="0px"
	 width="48px" height="48px" viewBox="0 0 48 48" enable-background="new 0 0 48 48" xml:space="preserve">
<path d="M24,4C12.954,4,4,12.954,4,24s8.954,20,20,20s20-8.954,20-20S35.046,4,24,4z M18.59,6.831
	c-1.494,1.382-2.986,3.28-4.171,5.741c-1.146-0.369-2.201-0.804-3.157-1.288C13.285,9.257,15.79,7.712,18.59,6.831z M9.882,12.855
	c1.121,0.609,2.371,1.147,3.736,1.595c-0.898,2.405-1.501,5.248-1.604,8.55H6.051C6.261,19.178,7.652,15.676,9.882,12.855z
	 M6.051,25h5.964c0.102,3.302,0.706,6.145,1.604,8.55c-1.365,0.448-2.615,0.985-3.736,1.595C7.652,32.324,6.261,28.822,6.051,25z
	 M11.261,36.716c0.956-0.484,2.012-0.919,3.157-1.288c1.186,2.462,2.677,4.359,4.171,5.742
	C15.79,40.288,13.285,38.743,11.261,36.716z M23,41.774c-1.767-0.684-4.579-2.93-6.589-6.904c2.031-0.487,4.259-0.788,6.589-0.855
	V41.774z M23,32.013c-2.655,0.068-5.159,0.409-7.425,0.975c-0.858-2.226-1.453-4.88-1.558-7.987H23V32.013z M23,23h-8.983
	c0.105-3.107,0.7-5.762,1.558-7.987c2.266,0.565,4.77,0.906,7.425,0.975V23z M23,13.985c-2.33-0.067-4.558-0.369-6.589-0.856
	c2.01-3.974,4.822-6.22,6.589-6.903V13.985z M41.949,23h-5.965c-0.102-3.302-0.705-6.145-1.603-8.55
	c1.365-0.448,2.615-0.985,3.736-1.595C40.348,15.676,41.739,19.178,41.949,23z M36.738,11.284c-0.955,0.484-2.012,0.919-3.157,1.288
	c-1.186-2.461-2.677-4.359-4.171-5.742C32.21,7.711,34.715,9.257,36.738,11.284z M25,6.226c1.768,0.684,4.578,2.929,6.589,6.903
	c-2.031,0.487-4.26,0.789-6.589,0.856V6.226z M25,15.987c2.655-0.069,5.159-0.41,7.425-0.975c0.858,2.226,1.452,4.88,1.559,7.987H25
	V15.987z M25,25h8.983c-0.106,3.107-0.7,5.762-1.559,7.987c-2.266-0.565-4.77-0.906-7.425-0.975V25z M25,41.774v-7.76
	c2.329,0.067,4.558,0.368,6.589,0.855C29.578,38.845,26.768,41.091,25,41.774z M29.41,41.17c1.494-1.382,2.985-3.28,4.171-5.742
	c1.146,0.369,2.202,0.805,3.158,1.288C34.715,38.743,32.21,40.289,29.41,41.17z M38.118,35.145
	c-1.121-0.609-2.371-1.147-3.736-1.595c0.897-2.405,1.501-5.248,1.603-8.55h5.965C41.739,28.822,40.348,32.324,38.118,35.145z"/>
</svg>
