<?xml version="1.0" encoding="utf-8"?>
<!-- Generator: Adobe Illustrator 16.0.0, SVG Export Plug-In . SVG Version: 6.00 Build 0)  -->
<!DOCTYPE svg PUBLIC "-//W3C//DTD SVG 1.1//EN" "http://www.w3.org/Graphics/SVG/1.1/DTD/svg11.dtd">
<svg version="1.1" id="Layer_1" xmlns="http://www.w3.org/2000/svg" xmlns:xlink="http://www.w3.org/1999/xlink" x="0px" y="0px"
	 width="48px" height="48px" viewBox="0 0 48 48" enable-background="new 0 0 48 48" xml:space="preserve">
<g>
	<path d="M33.983,25H25v7.013c2.655,0.068,5.159,0.409,7.425,0.975C33.283,30.762,33.877,28.107,33.983,25z"/>
	<path d="M12.015,25H6.051c0.21,3.822,1.602,7.324,3.832,10.145c1.121-0.609,2.371-1.146,3.736-1.595
		C12.721,31.145,12.117,28.302,12.015,25z"/>
	<path d="M13.619,14.45c-1.365-0.448-2.615-0.985-3.736-1.595C7.652,15.676,6.261,19.178,6.051,23h5.964
		C12.117,19.698,12.721,16.855,13.619,14.45z"/>
	<path d="M32.425,15.013c-2.266,0.565-4.77,0.906-7.425,0.975V23h8.983C33.877,19.893,33.283,17.238,32.425,15.013z"/>
	<path d="M35.984,23h5.965c-0.21-3.822-1.602-7.324-3.831-10.145c-1.121,0.609-2.371,1.147-3.736,1.595
		C35.279,16.855,35.883,19.698,35.984,23z"/>
	<path d="M36.738,11.284C34.715,9.257,32.21,7.711,29.41,6.83c1.494,1.382,2.985,3.28,4.171,5.742
		C34.727,12.203,35.783,11.768,36.738,11.284z"/>
	<path d="M25,6.226v7.759c2.329-0.067,4.558-0.369,6.589-0.856C29.578,9.155,26.768,6.91,25,6.226z"/>
	<path d="M18.59,6.831c-2.8,0.881-5.305,2.426-7.329,4.454c0.956,0.484,2.012,0.918,3.157,1.288
		C15.604,10.11,17.096,8.213,18.59,6.831z"/>
	<path d="M29.41,41.17c2.8-0.881,5.305-2.427,7.329-4.454c-0.956-0.483-2.013-0.919-3.158-1.288
		C32.396,37.89,30.904,39.788,29.41,41.17z"/>
	<path d="M16.411,13.129c2.031,0.487,4.259,0.789,6.589,0.856V6.226C21.233,6.91,18.421,9.155,16.411,13.129z"/>
	<path d="M25,34.015v7.76c1.768-0.684,4.578-2.93,6.589-6.904C29.558,34.383,27.329,34.082,25,34.015z"/>
	<path d="M34.382,33.55c1.365,0.447,2.615,0.985,3.736,1.595c2.229-2.82,3.621-6.322,3.831-10.145h-5.965
		C35.883,28.302,35.279,31.145,34.382,33.55z"/>
	<path d="M23,41.774v-7.76c-2.33,0.067-4.558,0.368-6.589,0.855C18.421,38.845,21.233,41.091,23,41.774z"/>
	<path d="M11.261,36.716c2.024,2.027,4.529,3.572,7.329,4.454c-1.494-1.383-2.986-3.28-4.171-5.742
		C13.273,35.797,12.217,36.231,11.261,36.716z"/>
	<path d="M14.017,23H23v-7.013c-2.655-0.069-5.159-0.41-7.425-0.975C14.717,17.238,14.123,19.893,14.017,23z"/>
	<path d="M15.575,32.987c2.266-0.565,4.77-0.906,7.425-0.975V25h-8.983C14.123,28.107,14.717,30.762,15.575,32.987z"/>
</g>
</svg>
