<?xml version="1.0" encoding="utf-8"?>
<!-- Generator: Adobe Illustrator 16.0.0, SVG Export Plug-In . SVG Version: 6.00 Build 0)  -->
<!DOCTYPE svg PUBLIC "-//W3C//DTD SVG 1.1//EN" "http://www.w3.org/Graphics/SVG/1.1/DTD/svg11.dtd">
<svg version="1.1" id="Layer_1" xmlns="http://www.w3.org/2000/svg" xmlns:xlink="http://www.w3.org/1999/xlink" x="0px" y="0px"
	 width="48px" height="48px" viewBox="0 0 48 48" enable-background="new 0 0 48 48" xml:space="preserve">
<path d="M36,28c-0.816,0-1.604,0.123-2.347,0.35c-0.532,0.164-0.976,0.086-1.362-0.301c-3.085-3.085-9.255-9.255-12.339-12.339
	c-0.388-0.388-0.465-0.83-0.302-1.363C19.877,13.604,20,12.816,20,12c0-4.417-3.583-8-8-8c-0.52,0-1.027,0.051-1.518,0.148
	c-0.503,0.099-0.633,0.701-0.281,1.053l4.424,4.423l-1,4l-4,1l-4.423-4.424c-0.353-0.353-0.955-0.222-1.053,0.281
	C4.051,10.973,4,11.48,4,12c0,4.417,3.583,8,8,8c0.816,0,1.604-0.123,2.347-0.35c0.533-0.163,0.976-0.085,1.363,0.302
	c3.084,3.084,9.254,9.254,12.339,12.339c0.387,0.387,0.465,0.83,0.301,1.362C28.123,34.396,28,35.184,28,36c0,4.418,3.582,8,8,8
	c0.52,0,1.027-0.051,1.518-0.148c0.504-0.099,0.634-0.701,0.281-1.053l-4.424-4.424l1-4l4-1l4.424,4.424
	c0.352,0.353,0.954,0.223,1.053-0.281C43.949,37.027,44,36.52,44,36C44,31.582,40.418,28,36,28z"/>
</svg>
