<?xml version="1.0" encoding="utf-8"?>
<!-- Generator: Adobe Illustrator 16.0.0, SVG Export Plug-In . SVG Version: 6.00 Build 0)  -->
<!DOCTYPE svg PUBLIC "-//W3C//DTD SVG 1.1//EN" "http://www.w3.org/Graphics/SVG/1.1/DTD/svg11.dtd">
<svg version="1.1" id="Layer_1" xmlns="http://www.w3.org/2000/svg" xmlns:xlink="http://www.w3.org/1999/xlink" x="0px" y="0px"
	 width="48px" height="48px" viewBox="0 0 48 48" enable-background="new 0 0 48 48" xml:space="preserve">
<g>
	<path d="M27,19h-6v-6c0-0.552-0.448-1-1-1s-1,0.448-1,1v6h-6c-0.552,0-1,0.448-1,1s0.448,1,1,1h6v6c0,0.553,0.448,1,1,1
		s1-0.447,1-1v-6h6c0.553,0,1-0.448,1-1S27.553,19,27,19z"/>
	<path d="M41.414,38.586l-8-8c-0.522-0.522-1.259-0.688-1.925-0.511l-0.921-0.921C32.699,26.697,34,23.5,34,20c0-7.72-6.28-14-14-14
		S6,12.28,6,20s6.28,14,14,14c3.5,0,6.697-1.301,9.154-3.432l0.921,0.921c-0.177,0.666-0.012,1.402,0.511,1.925l8,8
		C38.977,41.805,39.488,42,40,42s1.023-0.195,1.414-0.586C42.195,40.633,42.195,39.367,41.414,38.586z M20,32
		c-6.617,0-12-5.383-12-12c0-6.617,5.383-12,12-12c6.617,0,12,5.383,12,12C32,26.617,26.617,32,20,32z"/>
</g>
</svg>
