<?xml version="1.0" encoding="utf-8"?>
<!-- Generator: Adobe Illustrator 16.0.0, SVG Export Plug-In . SVG Version: 6.00 Build 0)  -->
<svg xmlns="http://www.w3.org/2000/svg" xmlns:xlink="http://www.w3.org/1999/xlink" version="1.1" id="257646858_Capa_1_grid" x="0px" y="0px" width="32px" height="32px" viewBox="0 0 32 32" enable-background="new 0 0 32 32" xml:space="preserve">
<g>
	<g>
		<path d="M21,8c-0.55,0-1,0.45-1,1v1.11C18.74,8.81,16.96,8,15,8c-3.87,0-7,3.13-7,7s3.13,7,7,7c2.13,0,4.04-0.95,5.31-2.45    C21.18,21.45,23.6,22,25,22c0.05,0,5-0.08,5-7c0-0.13-0.16-13-14-13S2,14.87,2,15c0,14.83,13.86,15,14,15    c3.81,0,6.95-0.75,9.31-2.24c0.471-0.3,0.61-0.91,0.311-1.38c-0.29-0.47-0.91-0.61-1.38-0.31C22.2,27.35,19.43,28,16,28    c-0.49,0-12-0.15-12-13C4,14.55,4.18,4,16,4c11.82,0,12,10.55,12,11c0,4.78-2.7,4.99-3,5c-0.12,0-3-0.04-3-2V9    C22,8.45,21.55,8,21,8z M15,20c-2.76,0-5-2.24-5-5s2.24-5,5-5s5,2.24,5,5S17.76,20,15,20z"/>
	</g>
</g>
</svg>
