<?xml version="1.0" encoding="utf-8"?>
<!-- Generator: Adobe Illustrator 16.0.0, SVG Export Plug-In . SVG Version: 6.00 Build 0)  -->
<svg xmlns="http://www.w3.org/2000/svg" xmlns:xlink="http://www.w3.org/1999/xlink" version="1.1" id="257646861_Capa_1_grid" x="0px" y="0px" width="32px" height="32px" viewBox="0 0 32 32" enable-background="new 0 0 32 32" xml:space="preserve">
<g>
	<path d="M32,20v-8h-4.68c-0.15-0.4-0.311-0.79-0.49-1.17l3.31-3.32L24.49,1.86l-3.32,3.31C20.79,4.99,20.4,4.82,20,4.68V0h-8v4.68   c-0.4,0.14-0.79,0.31-1.17,0.49L7.51,1.86L1.86,7.51l3.31,3.32C4.99,11.21,4.82,11.6,4.68,12H0v8h4.68   c0.14,0.4,0.31,0.79,0.49,1.17l-3.31,3.32l5.65,5.649l3.32-3.31c0.38,0.18,0.77,0.34,1.17,0.49V32h8v-4.68   c0.4-0.15,0.79-0.311,1.17-0.49l3.32,3.31l5.649-5.649l-3.31-3.32c0.18-0.38,0.34-0.77,0.49-1.17H32z M27.31,24.49L24.49,27.31   l-2.98-2.97c-1.05,0.7-2.229,1.2-3.51,1.46V30h-4v-4.2c-1.28-0.26-2.46-0.76-3.51-1.46l-2.98,2.97L4.69,24.49L7.17,22H19   c1.73,0,5-1.04,5-5s-3.27-5-5-5h-3.59l2.3-2.29l-1.42-1.42L11.59,13l4.7,4.71l1.42-1.42L15.41,14h3.58C19.5,14.01,22,14.18,22,17   c0,2.82-2.5,2.99-3,3H6.83c-0.27-0.63-0.49-1.3-0.63-2H2v-4h4.2c0.26-1.28,0.76-2.46,1.46-3.51L4.69,7.51l2.82-2.82l2.98,2.97   c1.05-0.7,2.23-1.2,3.51-1.46V2h4v4.2c1.28,0.26,2.46,0.76,3.51,1.46l2.98-2.97l2.819,2.82l-2.97,2.98c0.7,1.05,1.2,2.23,1.46,3.51   H30v4h-4.2c-0.26,1.28-0.76,2.46-1.46,3.51L27.31,24.49z"/>
</g>
</svg>
