<?xml version="1.0" encoding="utf-8"?>
<!-- Generator: Adobe Illustrator 16.0.0, SVG Export Plug-In . SVG Version: 6.00 Build 0)  -->
<svg xmlns="http://www.w3.org/2000/svg" xmlns:xlink="http://www.w3.org/1999/xlink" version="1.1" id="257646864_Capa_1_grid" x="0px" y="0px" width="32px" height="32px" viewBox="0 0 32 32" enable-background="new 0 0 32 32" xml:space="preserve">
<g>
	<g>
		<g>
			<path d="M15,2C6.721,2,0,8.72,0,17c0,8.28,6.721,15,15,15c8.28,0,15-6.72,15-15C30,8.72,23.28,2,15,2z M2,17C2,9.83,7.83,4,15,4     c2.97,0,5.72,1,7.91,2.69L5.109,25.43C3.17,23.16,2,20.21,2,17z M15,30c-3.23,0-6.2-1.19-8.471-3.15L24.4,8.03     c2.229,2.33,3.6,5.5,3.6,8.97C28,24.17,22.17,30,15,30z"/>
		</g>
	</g>
</g>
</svg>
