<?xml version="1.0" encoding="utf-8"?>
<!-- Generator: Adobe Illustrator 16.0.0, SVG Export Plug-In . SVG Version: 6.00 Build 0)  -->
<svg xmlns="http://www.w3.org/2000/svg" xmlns:xlink="http://www.w3.org/1999/xlink" version="1.1" id="257646865_Capa_1_grid" x="0px" y="0px" width="32px" height="32px" viewBox="0 0 32 32" enable-background="new 0 0 32 32" xml:space="preserve">
<g>
	<path d="M28,6V3c0-2.2-1.79-3-3-3H7C4.8,0,4,1.79,4,3v3H2v20h2v3c0,2.2,1.94,3,3.25,3H25c2.2,0,3-1.79,3-3v-3h2V6H28z M6,3.01   C6.01,2.55,6.19,2,7,2h17.99C25.45,2.01,26,2.19,26,3v3H6V3.01z M26,28.99C25.99,29.45,25.81,30,25,30H7.26   C6.88,29.99,6,29.88,6,29v-3h20V28.99z M28,24H4V8h24V24z"/>
</g>
</svg>
