<?xml version="1.0" encoding="utf-8"?>
<!-- Generator: Adobe Illustrator 16.0.0, SVG Export Plug-In . SVG Version: 6.00 Build 0)  -->
<svg xmlns="http://www.w3.org/2000/svg" xmlns:xlink="http://www.w3.org/1999/xlink" version="1.1" id="257646867_Capa_1_grid" x="0px" y="0px" width="32px" height="32px" viewBox="0 0 32 32" enable-background="new 0 0 32 32" xml:space="preserve">
<g>
	<path d="M23,26H0v-2h23c0.283-0.002,7-0.117,7-7s-6.717-6.999-7.003-7H7c-0.508,0.004-5,0.176-5,5c0,4.943,4.796,5,5,5h16   c0.496-0.006,3-0.177,3-3s-2.504-2.994-3.006-3H8v-2h15c1.729,0,5,1.045,5,5s-3.271,5-5,5H7c-2.421,0-7-1.463-7-7s4.579-7,7-7h16   c3.113,0,9,1.881,9,9S26.113,26,23,26z"/>
</g>
</svg>
