<?xml version="1.0" encoding="utf-8"?>
<!-- Generator: Adobe Illustrator 16.0.0, SVG Export Plug-In . SVG Version: 6.00 Build 0)  -->
<svg xmlns="http://www.w3.org/2000/svg" xmlns:xlink="http://www.w3.org/1999/xlink" version="1.1" id="257646868_Capa_1_grid" x="0px" y="0px" width="32px" height="32px" viewBox="0 0 32 32" enable-background="new 0 0 32 32" xml:space="preserve">
<g>
	<path d="M10.978,32c-1.965,0-4.113-0.74-6.184-2.811c-5.034-5.034-2.202-10.527,0-12.729L21.059,0.197l1.414,1.414L6.208,17.875   c-0.199,0.201-4.867,5.033,0,9.9s9.698,0.199,9.901-0.002L27.422,16.46c0.355-0.362,3.41-3.66-0.001-7.07   c-3.413-3.411-6.708-0.357-7.073,0.002L9.037,20.704c-0.347,0.354-1.996,2.247,0,4.243c2.063,2.063,4.025,0.217,4.243,0   L23.887,14.34l1.413,1.414L14.693,26.361c-1.223,1.223-4.273,2.798-7.071,0C6.2,24.939,5.738,23.195,6.32,21.449   C6.736,20.2,7.533,19.38,7.623,19.29L18.938,7.977c1.711-1.712,5.983-3.917,9.898,0c2.553,2.552,2.406,5.137,1.833,6.856   c-0.599,1.794-1.782,2.992-1.832,3.042L17.521,29.189C16.227,30.484,13.79,31.999,10.978,32z"/>
</g>
</svg>
