<?xml version="1.0" encoding="utf-8"?>
<!-- Generator: Adobe Illustrator 16.0.0, SVG Export Plug-In . SVG Version: 6.00 Build 0)  -->
<svg xmlns="http://www.w3.org/2000/svg" xmlns:xlink="http://www.w3.org/1999/xlink" version="1.1" id="257646870_Capa_1_grid" x="0px" y="0px" width="32px" height="32px" viewBox="0 0 32 32" enable-background="new 0 0 32 32" xml:space="preserve">
<g>
	<path d="M6,18v14h20V18H6z M21.7,20L16,23.8L10.3,20H21.7z M24,30H8v-9.14l8,5.34l8-5.34V30z"/>
</g>
<g>
	<g>
		<g>
			<path d="M26.94,13.06C26.6,10.32,24.74,7.8,21.5,7.8c-0.26,0-0.52,0.02-0.79,0.05C19.42,3.76,16.77,2,12,2     C9.24,2,7.03,2.86,5.61,4.5c-1.41,1.62-1.98,3.92-1.7,6.84C1.25,12.5,0,14.63,0,18c0,2.81,1.57,4.95,4,5.7V21.56     C2.75,20.94,2,19.67,2,18c0-2.84,0.93-4.26,3.32-5.05l0.79-0.27l-0.12-0.82C5.6,9.15,5.98,7.12,7.12,5.81C8.42,4.31,10.49,4,12,4     c4.78,0,6.2,1.92,7.03,5.24l0.239,0.97l0.971-0.24C20.68,9.86,21.11,9.8,21.5,9.8c2.4,0,3.5,2.18,3.5,4.2v1h1     c2.32,0,4,1.46,4,3.48c0,1.51-0.94,2.77-2,3.279v2.11c2.22-0.53,4-2.83,4-5.39C32,15.65,29.88,13.45,26.94,13.06z"/>
		</g>
	</g>
</g>
</svg>
