<?xml version="1.0" encoding="utf-8"?>
<!-- Generator: Adobe Illustrator 16.0.0, SVG Export Plug-In . SVG Version: 6.00 Build 0)  -->
<svg xmlns="http://www.w3.org/2000/svg" xmlns:xlink="http://www.w3.org/1999/xlink" version="1.1" id="257646876_Capa_1_grid" x="0px" y="0px" width="32px" height="32px" viewBox="0 0 32 32" enable-background="new 0 0 32 32" xml:space="preserve">
<g>
	<rect y="24" width="32" height="2"/>
</g>
<g>
	<rect y="28" width="32" height="2"/>
</g>
<g>
	<path d="M32,18v-2h-4V4H4v12H0v2h4v2H0v2h32v-2h-4v-2H32z M24.42,6L16,13.65L7.58,6H24.42z M6,7.26l3.93,3.57L6,17.39V7.26z    M6.77,20l4.67-7.79L16,16.35l4.56-4.14L25.23,20H6.77z M26,17.39l-3.93-6.56L26,7.26V17.39z"/>
</g>
</svg>
