<?xml version="1.0" encoding="utf-8"?>
<!-- Generator: Adobe Illustrator 16.0.0, SVG Export Plug-In . SVG Version: 6.00 Build 0)  -->
<svg xmlns="http://www.w3.org/2000/svg" xmlns:xlink="http://www.w3.org/1999/xlink" version="1.1" id="257646878_Capa_1_grid" x="0px" y="0px" width="32px" height="32px" viewBox="0 0 32 32" enable-background="new 0 0 32 32" xml:space="preserve">
<g>
	<path d="M30,29v-5h-2V3c0-1.21-0.8-3-3-3H7.25C5.94,0,4,0.8,4,3v21H2v5c0,2.2,1.79,3,3,3h22C29.2,32,30,30.21,30,29z M26,24H6V3   c0-0.88,0.88-0.99,1.26-1H25c0.81,0,0.99,0.55,1,1.01V24z M28,29c-0.01,0.45-0.19,1-1,1H5c-0.45-0.01-1-0.189-1-1v-3h24V29z"/>
</g>
</svg>
