<?xml version="1.0" encoding="utf-8"?>
<!-- Generator: Adobe Illustrator 16.0.0, SVG Export Plug-In . SVG Version: 6.00 Build 0)  -->
<svg xmlns="http://www.w3.org/2000/svg" xmlns:xlink="http://www.w3.org/1999/xlink" version="1.1" id="257646879_Capa_1_grid" x="0px" y="0px" width="32px" height="32px" viewBox="0 0 32 32" enable-background="new 0 0 32 32" xml:space="preserve">
<g>
	<path d="M27,0H5C3.79,0,2,0.8,2,3v5h2v21c0,2.2,1.94,3,3.25,3H25c2.2,0,3-1.79,3-3V8h2V3C30,1.79,29.2,0,27,0z M26,28.99   C25.99,29.45,25.81,30,25,30H7.26C6.88,29.99,6,29.88,6,29V8h20V28.99z M28,6H4V3c0-0.81,0.55-0.99,1-1h22c0.81,0,0.99,0.55,1,1V6z   "/>
</g>
</svg>
