<?xml version="1.0" encoding="utf-8"?>
<!-- Generator: Adobe Illustrator 16.0.0, SVG Export Plug-In . SVG Version: 6.00 Build 0)  -->
<svg xmlns="http://www.w3.org/2000/svg" xmlns:xlink="http://www.w3.org/1999/xlink" version="1.1" id="257646880_Capa_1_grid" x="0px" y="0px" width="32px" height="32px" viewBox="0 0 32 32" enable-background="new 0 0 32 32" xml:space="preserve">
<g>
	<path d="M16,0C4.14,0,4,10.89,4,11v21h24V11C28,10.89,27.86,0,16,0z M14,2.14C14.62,2.05,15.28,2,16,2s1.38,0.05,2,0.14V4h-4V2.14z    M26,30H6v-2h20V30z M26,26H6V11c0-0.31,0.08-6.47,6-8.41V6h8V2.59c5.89,1.95,6,8.1,6,8.41V26z"/>
</g>
<g>
	<g>
		<path d="M16,8c-6.33,0-8,5.23-8,8c0,2.77,1.67,8,8,8h4v-2h-4c-5.79,0-6-5.39-6-6s0.21-6,6-6c6,0,6,2.94,6,6.99    C21.99,17.45,21.81,18,21,18s-0.99-0.55-1-1v-5h-2v0.54C17.41,12.2,16.73,12,16,12c-2.21,0-4,1.79-4,4s1.79,4,4,4    c1.03,0,1.98-0.4,2.69-1.04C19.16,19.56,19.91,20,21,20c2.2,0,3-1.79,3-3C24,12.99,24,8,16,8z M16,18c-1.1,0-2-0.9-2-2    c0-1.1,0.9-2,2-2c1.1,0,2,0.9,2,2C18,17.1,17.1,18,16,18z"/>
	</g>
</g>
</svg>
