<?xml version="1.0" encoding="utf-8"?>
<!-- Generator: Adobe Illustrator 16.0.0, SVG Export Plug-In . SVG Version: 6.00 Build 0)  -->
<svg xmlns="http://www.w3.org/2000/svg" xmlns:xlink="http://www.w3.org/1999/xlink" version="1.1" id="257646882_Capa_1_grid" x="0px" y="0px" width="32px" height="32px" viewBox="0 0 32 32" enable-background="new 0 0 32 32" xml:space="preserve">
<g>
	<path d="M0,8v24h32V8H0z M30,30H2V19.42l5,4.99l4.07-4.07L16,24.28l4.93-3.94L25,24.41l5-4.99V30z M30,16.58l-5,5.01l-3.93-3.93   L16,21.72l-5.07-4.06L7,21.59l-5-5.01V10h28V16.58z"/>
</g>
<g>
	<polygon points="24,12 24,14 20,14 20,16 18,16 18,12  "/>
</g>
<g>
	<polygon points="14,12 14,16 12,16 12,14 8,14 8,12  "/>
</g>
</svg>
