<?xml version="1.0" encoding="utf-8"?>
<!-- Generator: Adobe Illustrator 16.0.0, SVG Export Plug-In . SVG Version: 6.00 Build 0)  -->
<svg xmlns="http://www.w3.org/2000/svg" xmlns:xlink="http://www.w3.org/1999/xlink" version="1.1" id="257646885_Capa_1_grid" x="0px" y="0px" width="32px" height="32px" viewBox="0 0 32 32" enable-background="new 0 0 32 32" xml:space="preserve">
<g>
	<path d="M0,12v18h24V12H0z M20.42,14L12,21.65L3.58,14H20.42z M2,15.26l3.93,3.57L2,25.39V15.26z M2.77,28l4.67-7.79L12,24.35   l4.56-4.14L21.23,28H2.77z M22,25.39l-3.93-6.56L22,15.26V25.39z"/>
</g>
<g>
	<polygon points="28,28 26,28 26,10 2,10 2,8 28,8  "/>
</g>
<g>
	<polygon points="32,24 30,24 30,6 6,6 6,4 32,4  "/>
</g>
</svg>
