<?xml version="1.0" encoding="utf-8"?>
<!-- Generator: Adobe Illustrator 16.0.0, SVG Export Plug-In . SVG Version: 6.00 Build 0)  -->
<svg xmlns="http://www.w3.org/2000/svg" xmlns:xlink="http://www.w3.org/1999/xlink" version="1.1" id="257646887_Capa_1_grid" x="0px" y="0px" width="32px" height="32px" viewBox="0 0 32 32" enable-background="new 0 0 32 32" xml:space="preserve">
<g>
	<path d="M18,16l-3,3l-3-3c-8,0-8,14-8,14h22C26,30,26,16,18,16z M11.24,18.07L15,21.83l3.76-3.76c3.71,0.72,4.8,6.72,5.11,9.93   H6.12C6.43,24.79,7.51,18.79,11.24,18.07z"/>
</g>
<g>
	<path d="M6,0v14h18V0H6z M20,2l-5,3.75L10,2H20z M22,12H8V3l7,5.25L22,3V12z"/>
</g>
</svg>
