<?xml version="1.0" encoding="utf-8"?>
<!-- Generator: Adobe Illustrator 16.0.0, SVG Export Plug-In . SVG Version: 6.00 Build 0)  -->
<svg xmlns="http://www.w3.org/2000/svg" xmlns:xlink="http://www.w3.org/1999/xlink" version="1.1" id="257646891_Capa_1_grid" x="0px" y="0px" width="32px" height="32px" viewBox="0 0 32 32" enable-background="new 0 0 32 32" xml:space="preserve">
<g>
	<path d="M14,0C7.67,0,6,5.23,6,8s1.67,8,8,8h2v-2h-2c-5.79,0-6-5.39-6-6s0.21-6,6-6c6,0,6,2.94,6,6.99C19.99,9.45,19.81,10,19,10   s-0.99-0.55-1-1V4h-2v0.54C15.41,4.2,14.73,4,14,4c-2.21,0-4,1.79-4,4s1.79,4,4,4c1.03,0,1.98-0.4,2.69-1.04   C17.16,11.56,17.91,12,19,12c2.2,0,3-1.79,3-3C22,4.99,22,0,14,0z M14,10c-1.1,0-2-0.9-2-2s0.9-2,2-2c1.1,0,2,0.9,2,2   S15.1,10,14,10z"/>
</g>
<path d="M11.242,18.07L15,21.828l3.757-3.758c3.716,0.722,4.802,6.724,5.116,9.93H6.124C6.434,24.793,7.511,18.788,11.242,18.07   M18,16l-3,3l-3-3c-8,0-8,14-8,14h22C26,30,26,16,18,16L18,16z"/>
</svg>
