<?xml version="1.0" encoding="utf-8"?>
<!-- Generator: Adobe Illustrator 16.0.0, SVG Export Plug-In . SVG Version: 6.00 Build 0)  -->
<svg xmlns="http://www.w3.org/2000/svg" xmlns:xlink="http://www.w3.org/1999/xlink" version="1.1" id="257646893_Capa_1_grid" x="0px" y="0px" width="32px" height="32px" viewBox="0 0 32 32" enable-background="new 0 0 32 32" xml:space="preserve">
<g>
	<path d="M10,14v18h22V14H10z M12,17.42l3.74,3.74L12,27.39V17.42z M28.58,16L21,23.59L13.42,16H28.58z M30,27.39l-3.74-6.229   L30,17.42V27.39z M12.77,30l4.431-7.39l3.8,3.8l3.8-3.8L29.23,30H12.77z"/>
</g>
<g>
	<g>
		<path d="M0,0v32h8v-2H2V2h16v10h2V0H0z"/>
	</g>
</g>
<g>
	<g>
		<rect x="4" y="26" width="4" height="2"/>
	</g>
</g>
<g>
	<g>
		<path d="M4,4v18h4v-2H6v-2h2v-2H6v-2h2v-2H6v-2h8v2h2V4H4z M6,6h8v2H6V6z"/>
	</g>
</g>
</svg>
