<?xml version="1.0" encoding="utf-8"?>
<!-- Generator: Adobe Illustrator 16.0.0, SVG Export Plug-In . SVG Version: 6.00 Build 0)  -->
<svg xmlns="http://www.w3.org/2000/svg" xmlns:xlink="http://www.w3.org/1999/xlink" version="1.1" id="257646890_Capa_1_grid" x="0px" y="0px" width="32px" height="32px" viewBox="0 0 32 32" enable-background="new 0 0 32 32" xml:space="preserve">
<g>
	<path d="M20,6v2h6.3L15,17.68L3.7,8H10V6H0v22h30V6H20z M2,9.17l7.32,6.28L2,24.24V9.17z M3.14,26l7.7-9.25L15,20.32l4.16-3.57   l7.7,9.25H3.14z M28,24.24l-7.32-8.79L28,9.17V24.24z"/>
</g>
<g>
	<path d="M15,4c-1.65,0-3,1.35-3,3c0,1.3,0.84,2.41,2,2.82V14h2V9.82C17.16,9.41,18,8.3,18,7C18,5.35,16.65,4,15,4z M15,8   c-0.55,0-1-0.45-1-1s0.45-1,1-1s1,0.45,1,1S15.55,8,15,8z"/>
</g>
</svg>
