<?xml version="1.0" encoding="utf-8"?>
<!-- Generator: Adobe Illustrator 16.0.0, SVG Export Plug-In . SVG Version: 6.00 Build 0)  -->
<svg xmlns="http://www.w3.org/2000/svg" xmlns:xlink="http://www.w3.org/1999/xlink" version="1.1" id="257646897_Capa_1_grid" x="0px" y="0px" width="32px" height="32px" viewBox="0 0 32 32" enable-background="new 0 0 32 32" xml:space="preserve">
<g>
	<g>
		<path d="M0,0v22h6v-2H3.14l8-9.61L16,14.28l4.86-3.89l8,9.61H26v2h6V0H0z M2,18.24V3.08l7.58,6.06L2,18.24z M16,11.72L3.85,2h24.3    L16,11.72z M30,18.24l-7.58-9.1L30,3.08V18.24z"/>
	</g>
</g>
<g>
	<rect x="8" y="18" width="2" height="2"/>
</g>
<g>
	<rect x="12" y="18" width="12" height="2"/>
</g>
<g>
	<rect x="8" y="22" width="2" height="2"/>
</g>
<g>
	<rect x="12" y="22" width="12" height="2"/>
</g>
<g>
	<rect x="8" y="26" width="2" height="2"/>
</g>
<g>
	<rect x="12" y="26" width="12" height="2"/>
</g>
<g>
	<rect x="8" y="30" width="2" height="2"/>
</g>
<g>
	<rect x="12" y="30" width="12" height="2"/>
</g>
</svg>
