<?xml version="1.0" encoding="utf-8"?>
<!-- Generator: Adobe Illustrator 16.0.0, SVG Export Plug-In . SVG Version: 6.00 Build 0)  -->
<svg xmlns="http://www.w3.org/2000/svg" xmlns:xlink="http://www.w3.org/1999/xlink" version="1.1" id="257646889_Capa_1_grid" x="0px" y="0px" width="32px" height="32px" viewBox="0 0 32 32" enable-background="new 0 0 32 32" xml:space="preserve">
<g>
	<path d="M0,16v16h22V16H0z M18.15,18L11,23.72L3.85,18H18.15z M2,19.08l4.18,3.34L2,28V19.08z M3,30l4.74-6.33L11,26.28l3.26-2.61   L19,30H3z M20,28l-4.18-5.58L20,19.08V28z"/>
</g>
<g>
	<path d="M28.78,18.78c-1.38,1.38-3.03,2.31-4.78,2.81v-2.1c1.25-0.45,2.4-1.17,3.36-2.13C29.06,15.66,30,13.4,30,11   c0-1.04-0.18-2.05-0.51-3h2.09C32.63,11.71,31.7,15.86,28.78,18.78z"/>
</g>
<g>
	<path d="M30,0v6h-6V4h2.65C25.05,2.71,23.08,2,21,2c-2.4,0-4.66,0.94-6.36,2.64c-2.53,2.53-3.24,6.2-2.12,9.36h-2.1   c-1.05-3.71-0.12-7.86,2.8-10.78C15.37,1.07,18.18,0,21,0c2.49,0,4.98,0.84,7,2.51V0H30z"/>
</g>
</svg>
