<?xml version="1.0" encoding="utf-8"?>
<!-- Generator: Adobe Illustrator 16.0.0, SVG Export Plug-In . SVG Version: 6.00 Build 0)  -->
<svg xmlns="http://www.w3.org/2000/svg" xmlns:xlink="http://www.w3.org/1999/xlink" version="1.1" id="257646896_Capa_1_grid" x="0px" y="0px" width="32px" height="32px" viewBox="0 0 32 32" enable-background="new 0 0 32 32" xml:space="preserve">
<g>
	<path d="M24,18v6h-2V10c0-0.1-0.13-10-11-10S0,8.91,0,9v23h22v-6h7.62L32,21.24V18H24z M8,2.3C8.87,2.11,9.86,2,11,2   s2.13,0.13,3,0.35V8H8V2.3z M20,30H2v-2h18V30z M20,26H2V9c0-0.22,0.06-4.15,4-6.02V10h10V3.13c3.91,2.15,4,6.63,4,6.87V26z    M30,20.76L28.38,24H26v-4h4V20.76z"/>
</g>
</svg>
