<?xml version="1.0" encoding="utf-8"?>
<!-- Generator: Adobe Illustrator 16.0.0, SVG Export Plug-In . SVG Version: 6.00 Build 0)  -->
<svg xmlns="http://www.w3.org/2000/svg" xmlns:xlink="http://www.w3.org/1999/xlink" version="1.1" id="257646894_Capa_1_grid" x="0px" y="0px" width="32px" height="32px" viewBox="0 0 32 32" enable-background="new 0 0 32 32" xml:space="preserve">
<g>
	<g>
		<path d="M28,12V0H6v12H3.75L8.2,32h17.6l4.45-20H28z M21.82,6.42L26,3.08V12L21.82,6.42z M23.5,12h-13l3.24-4.33L17,10.28    l3.26-2.61L23.5,12z M24.15,2L17,7.72L9.85,2H24.15z M8,3.08l4.18,3.34L8,12V3.08z M24.2,30H9.8L6.25,14h21.5L24.2,30z"/>
	</g>
</g>
<g>
	<polygon points="24,16 24,18 22,18 22,28 20,28 20,18 18,18 18,28 16,28 16,18 14,18 14,28 12,28 12,18 10,18 10,16  "/>
</g>
</svg>
