<?xml version="1.0" encoding="utf-8"?>
<!-- Generator: Adobe Illustrator 16.0.0, SVG Export Plug-In . SVG Version: 6.00 Build 0)  -->
<svg xmlns="http://www.w3.org/2000/svg" xmlns:xlink="http://www.w3.org/1999/xlink" version="1.1" id="257646899_Capa_1_grid" x="0px" y="0px" width="32px" height="32px" viewBox="0 0 32 32" enable-background="new 0 0 32 32" xml:space="preserve">
<g>
	<g>
		<path d="M0,0v32h32V0H0z M22.35,11.06L30,3.42v16.82L22.35,11.06z M28.86,22H3.14l7.93-9.52L16,17.41l4.93-4.93L28.86,22z     M28.58,2L16,14.59L3.42,2H28.58z M2,3.42l7.65,7.64L2,20.24V3.42z M30,30H2v-6h28V30z"/>
	</g>
</g>
<g>
	<rect x="4" y="26" width="6" height="2"/>
</g>
<g>
	<rect x="12" y="26" width="8" height="2"/>
</g>
<g>
	<rect x="22" y="26" width="6" height="2"/>
</g>
</svg>
