<?xml version="1.0" encoding="utf-8"?>
<!-- Generator: Adobe Illustrator 16.0.0, SVG Export Plug-In . SVG Version: 6.00 Build 0)  -->
<svg xmlns="http://www.w3.org/2000/svg" xmlns:xlink="http://www.w3.org/1999/xlink" version="1.1" id="257646901_Capa_1_grid" x="0px" y="0px" width="32px" height="32px" viewBox="0 0 32 32" enable-background="new 0 0 32 32" xml:space="preserve">
<g>
	<g>
		<path d="M18,10v2h10.3L17,21.68L12.703,18L4,28.24V16H2v16h30V10H18z M5.14,30l7.7-9.25L17,24.32l4.16-3.57l7.7,9.25H5.14z     M30,28.24l-7.32-8.79L30,13.17V28.24z"/>
	</g>
</g>
<g>
	<polygon points="16,10 11.42,10 14.71,13.29 13.29,14.71 10,11.42 10,16 8,16 8,11.42 4.71,14.71 3.29,13.29 6.58,10 2,10 2,8    6.58,8 3.29,4.71 4.71,3.29 8,6.58 8,2 10,2 10,6.58 13.29,3.29 14.71,4.71 11.42,8 16,8  "/>
</g>
</svg>
