<?xml version="1.0" encoding="utf-8"?>
<!-- Generator: Adobe Illustrator 16.0.0, SVG Export Plug-In . SVG Version: 6.00 Build 0)  -->
<svg xmlns="http://www.w3.org/2000/svg" xmlns:xlink="http://www.w3.org/1999/xlink" version="1.1" id="257646902_Capa_1_grid" x="0px" y="0px" width="32px" height="32px" viewBox="0 0 32 32" enable-background="new 0 0 32 32" xml:space="preserve">
<g>
	<g>
		<rect x="4" y="12" width="10" height="2"/>
	</g>
</g>
<g>
	<g>
		<path d="M26,14v12h-8V14H26L26,14z M28,12H16v16h12V12L28,12z"/>
	</g>
</g>
<g>
	<g>
		<path d="M12,18v4H6v-4H12L12,18z M14,16H4v8h10V16L14,16z"/>
	</g>
</g>
<g>
	<g>
		<rect x="4" y="26" width="10" height="2"/>
	</g>
</g>
<g>
	<g>
		<path d="M32,2V0H0v29c0,2.2,1.79,3,3,3h26c2.2,0,3-1.79,3-3V8H2V6h30V4H2V2H32z M30,10v18.99C29.99,29.45,29.811,30,29,30H3.01    C2.55,29.99,2,29.811,2,29V10H30z"/>
	</g>
</g>
</svg>
