<?xml version="1.0" encoding="utf-8"?>
<!-- Generator: Adobe Illustrator 16.0.0, SVG Export Plug-In . SVG Version: 6.00 Build 0)  -->
<svg xmlns="http://www.w3.org/2000/svg" xmlns:xlink="http://www.w3.org/1999/xlink" version="1.1" id="257646906_Capa_1_grid" x="0px" y="0px" width="32px" height="32px" viewBox="0 0 32 32" enable-background="new 0 0 32 32" xml:space="preserve">
<g>
	<path d="M31.359,7.07c-0.379-0.15-0.819-0.05-1.101,0.26L30,7.62V4H2v4.58L1.71,8.29C1.42,8.01,0.99,7.92,0.62,8.08   C0.24,8.23,0,8.6,0,9v23h32V8C32,7.59,31.75,7.22,31.359,7.07z M4,6h24v3.82L20.561,18H20.46c0.96-1.061,1.54-2.46,1.54-4   c0-3.31-2.689-6-6-6c-3.31,0-6,2.69-6,6c0,1.54,0.58,2.939,1.54,4h-0.13L4,10.58V6z M20,14c0,2.21-1.79,4-4,4s-4-1.79-4-4   s1.79-4,4-4S20,11.79,20,14z M2,11.41l7.64,7.648L2,28.24V11.41z M3.14,30l8.33-10h9.059l8.33,10H3.14z M30,28.24l-7.67-9.21   L30,10.59V28.24z"/>
</g>
</svg>
