<?xml version="1.0" encoding="utf-8"?>
<!-- Generator: Adobe Illustrator 16.0.0, SVG Export Plug-In . SVG Version: 6.00 Build 0)  -->
<svg xmlns="http://www.w3.org/2000/svg" xmlns:xlink="http://www.w3.org/1999/xlink" version="1.1" id="257646907_Capa_1_grid" x="0px" y="0px" width="32px" height="32px" viewBox="0 0 32 32" enable-background="new 0 0 32 32" xml:space="preserve">
<g>
	<polygon points="30,0 30,16 26,16 26,14 28,14 28,2 4,2 4,14 6,14 6,16 2,16 2,0  "/>
</g>
<g>
	<path d="M18,8v0.54C17.41,8.2,16.73,8,16,8c-2.21,0-4,1.79-4,4s1.79,4,4,4c1.03,0,1.98-0.4,2.69-1.04C19.16,15.56,19.91,16,21,16   c2.2,0,3-1.79,3-3c0-4.01,0-9-8-9c-6.33,0-8,5.23-8,8s1.67,8,8,8v8.59l-2.29-2.3l-1.42,1.42l4,4C16.49,31.9,16.74,32,17,32   s0.51-0.1,0.71-0.29l4-4l-1.42-1.42L18,28.59V18h-2c-5.79,0-6-5.39-6-6s0.21-6,6-6c6,0,6,2.94,6,6.99C21.99,13.45,21.81,14,21,14   s-0.99-0.55-1-1V8H18z M16,14c-1.1,0-2-0.9-2-2s0.9-2,2-2c1.1,0,2,0.9,2,2S17.1,14,16,14z"/>
</g>
</svg>
