<?xml version="1.0" encoding="utf-8"?>
<!-- Generator: Adobe Illustrator 16.0.0, SVG Export Plug-In . SVG Version: 6.00 Build 0)  -->
<svg xmlns="http://www.w3.org/2000/svg" xmlns:xlink="http://www.w3.org/1999/xlink" version="1.1" id="257646910_Capa_1_grid" x="0px" y="0px" width="32px" height="32px" viewBox="0 0 32 32" enable-background="new 0 0 32 32" xml:space="preserve">
<g>
	<path d="M20.41,7l-4.7,4.71l-1.42-1.42l2.28-2.28C11.81,8.23,8,12.18,8,17c0,3.45,1.95,6.45,4.8,7.96l-1.47,1.47   C8.14,24.51,6,21.01,6,17c0-5.94,4.7-10.78,10.59-10.99l-2.3-2.3l1.42-1.42L20.41,7z"/>
</g>
<g>
	<path d="M17.41,27.99l2.3,2.3l-1.42,1.42L13.59,27l4.7-4.71l1.42,1.42l-2.29,2.28C22.189,25.77,26,21.82,26,17   c0-3.45-1.95-6.45-4.8-7.96l1.47-1.47C25.859,9.49,28,12.99,28,17C28,22.939,23.3,27.78,17.41,27.99z"/>
</g>
</svg>
