<?xml version="1.0" encoding="utf-8"?>
<!-- Generator: Adobe Illustrator 16.0.0, SVG Export Plug-In . SVG Version: 6.00 Build 0)  -->
<svg xmlns="http://www.w3.org/2000/svg" xmlns:xlink="http://www.w3.org/1999/xlink" version="1.1" id="257646911_Capa_1_grid" x="0px" y="0px" width="32px" height="32px" viewBox="0 0 32 32" enable-background="new 0 0 32 32" xml:space="preserve">
<path d="M28,18c0,7.73-6.27,14-14,14C6.27,32,0,25.73,0,18c0-4.61,2.23-8.7,5.68-11.25l1.54,1.54c-3.06,2.15-5.07,5.7-5.07,9.71  c0,6.53,5.32,11.85,11.85,11.85c6.529,0,11.85-5.318,11.85-11.85c0-6.53-5.318-11.85-11.85-11.85c-0.14,0-0.28,0-0.42,0.01  l2.13,2.13l-1.42,1.42L9.59,5l4.7-4.71l1.42,1.42L13.4,4.02C13.6,4,13.8,4,14,4C21.73,4,28,10.27,28,18z"/>
</svg>
