<?xml version="1.0" encoding="utf-8"?>
<!-- Generator: Adobe Illustrator 16.0.0, SVG Export Plug-In . SVG Version: 6.00 Build 0)  -->
<svg xmlns="http://www.w3.org/2000/svg" xmlns:xlink="http://www.w3.org/1999/xlink" version="1.1" id="257646914_Capa_1_grid" x="0px" y="0px" width="32px" height="32px" viewBox="0 0 32 32" enable-background="new 0 0 32 32" xml:space="preserve">
<g>
	<path d="M28,14v-4h-2V5c0-0.55-0.45-1-1-1s-1,0.45-1,1v5H8V5c0-0.55-0.45-1-1-1S6,4.45,6,5v5H4v4H0v8h4v6h24v-6h4v-8H28z M4,20H2   v-4h2V20z M20,26h-8v-2h8V26z M26,26h-4v-4H10v4H6V12h20V26z M30,20h-2v-4h2V20z"/>
</g>
<g>
	<path d="M11,16c0.551,0,1,0.449,1,1c0,0.552-0.449,1-1,1s-1-0.448-1-1C10,16.449,10.449,16,11,16L11,16z M11,14   c-1.657,0-3,1.344-3,3s1.343,3,3,3s3-1.344,3-3S12.657,14,11,14L11,14z"/>
</g>
<g>
	<path d="M21,16c0.552,0,1,0.449,1,1c0,0.552-0.448,1-1,1s-1-0.448-1-1C20,16.449,20.448,16,21,16L21,16z M21,14   c-1.656,0-3,1.344-3,3s1.344,3,3,3s3-1.344,3-3S22.656,14,21,14L21,14z"/>
</g>
</svg>
