<?xml version="1.0" encoding="utf-8"?>
<!-- Generator: Adobe Illustrator 16.0.0, SVG Export Plug-In . SVG Version: 6.00 Build 0)  -->
<svg xmlns="http://www.w3.org/2000/svg" xmlns:xlink="http://www.w3.org/1999/xlink" version="1.1" id="257646915_Capa_1_grid" x="0px" y="0px" width="32px" height="32px" viewBox="0 0 32 32" enable-background="new 0 0 32 32" xml:space="preserve">
<path d="M0,0v32h32V0H0z M30,30H2V2h28V30z M9,18c-2.761,0-5,2.238-5,5s2.239,5,5,5s5-2.238,5-5S11.761,18,9,18z M9,26  c-1.654,0-3-1.346-3-3s1.346-3,3-3s3,1.346,3,3S10.654,26,9,26z M20,28h-2C18,14.159,4.572,14,4,14v-2C4.16,12,20,12.183,20,28z   M3.999,8L4,6c0.22,0,22,0.251,22,22h-2C24,8.267,4.815,8.001,3.999,8z"/>
</svg>
