<?xml version="1.0" encoding="utf-8"?>
<!-- Generator: Adobe Illustrator 16.0.0, SVG Export Plug-In . SVG Version: 6.00 Build 0)  -->
<svg xmlns="http://www.w3.org/2000/svg" xmlns:xlink="http://www.w3.org/1999/xlink" version="1.1" id="257646920_Capa_1_grid" x="0px" y="0px" width="32px" height="32px" viewBox="0 0 32 32" enable-background="new 0 0 32 32" xml:space="preserve">
<g>
	<path d="M28,16V6H4v10H0v2h4v4h4.18c0.4,1.17,1.51,2,2.82,2s2.42-0.83,2.82-2h4.36c0.4,1.17,1.511,2,2.82,2s2.42-0.83,2.82-2H28v-4   h4v-2H28z M23.92,8L16,13.76L8.08,8H23.92z M11,22c-0.55,0-1-0.45-1-1s0.45-1,1-1s1,0.45,1,1S11.55,22,11,22z M21,22   c-0.55,0-1-0.45-1-1s0.45-1,1-1s1,0.45,1,1S21.55,22,21,22z M26,20h-2.18c-0.4-1.17-1.511-2-2.82-2s-2.42,0.83-2.82,2h-4.36   c-0.4-1.17-1.51-2-2.82-2s-2.42,0.83-2.82,2H6V8.97l10,7.27l10-7.27V20z"/>
</g>
<g>
	<rect y="26" width="32" height="2"/>
</g>
</svg>
