<?xml version="1.0" encoding="utf-8"?>
<!-- Generator: Adobe Illustrator 16.0.0, SVG Export Plug-In . SVG Version: 6.00 Build 0)  -->
<svg xmlns="http://www.w3.org/2000/svg" xmlns:xlink="http://www.w3.org/1999/xlink" version="1.1" id="257646922_Capa_1_grid" x="0px" y="0px" width="32px" height="32px" viewBox="0 0 32 32" enable-background="new 0 0 32 32" xml:space="preserve">
<g>
	<path d="M20,10v2h8.3L17,21.68L12.67,18L4,28.24V20H2v12h30V10H20z M5.14,30l7.7-9.25L17,24.32l4.16-3.57l7.7,9.25H5.14z M30,28.24   l-7.32-8.79L30,13.17V28.24z"/>
</g>
<g>
	<path d="M9,0C4.03,0,0,4.03,0,9s4.03,9,9,9s9-4.03,9-9S13.97,0,9,0z M2,9c0-3.86,3.14-7,7-7c1.57,0,3.01,0.51,4.18,1.4L3.4,13.18   C2.51,12.01,2,10.57,2,9z M9,16c-1.57,0-3.01-0.51-4.18-1.4l9.78-9.78C15.49,5.99,16,7.43,16,9C16,12.86,12.86,16,9,16z"/>
</g>
</svg>
