<?xml version="1.0" encoding="utf-8"?>
<!-- Generator: Adobe Illustrator 16.0.0, SVG Export Plug-In . SVG Version: 6.00 Build 0)  -->
<svg xmlns="http://www.w3.org/2000/svg" xmlns:xlink="http://www.w3.org/1999/xlink" version="1.1" id="257646923_Capa_1_grid" x="0px" y="0px" width="32px" height="32px" viewBox="0 0 32 32" enable-background="new 0 0 32 32" xml:space="preserve">
<g>
	<path d="M29,20h-9.76l2.74-12.79L22,7c0-5.54-3.92-7-6-7s-6,1.46-6,7l2.76,13H3c-2.2,0-3,1.79-3,3v5h4v1c0,1.21,0.8,3,3,3h18   c1.21,0,3-0.8,3-3v-1h4v-5C32,20.8,30.21,20,29,20z M12,6.9c0.05-4.71,3.6-4.89,3.99-4.9C16.4,2.01,19.95,2.19,20,6.9L17.189,20   H14.81L12,6.9z M26,29c0,0.8-0.55,0.99-1.01,1H7c-0.81,0-0.99-0.55-1-1v-1h20V29z M30,26H2v-2.99C2.01,22.55,2.19,22,3,22h25.99   c0.46,0.01,1.01,0.189,1.01,1V26z"/>
</g>
</svg>
