<?xml version="1.0" encoding="utf-8"?>
<!-- Generator: Adobe Illustrator 16.0.0, SVG Export Plug-In . SVG Version: 6.00 Build 0)  -->
<svg xmlns="http://www.w3.org/2000/svg" xmlns:xlink="http://www.w3.org/1999/xlink" version="1.1" id="257646926_Capa_1_grid" x="0px" y="0px" width="32px" height="32px" viewBox="0 0 32 32" enable-background="new 0 0 32 32" xml:space="preserve">
<g>
	<g>
		<path d="M0,0v20h8v-2H2V2.94l13,9.29l13-9.29V18h-6v2h8V0H0z M15,9.77L4.12,2h21.76L15,9.77z"/>
	</g>
</g>
<g>
	<path d="M19.71,18.26l-4.02-3.97C15.5,14.1,15.25,14,14.99,14c-0.01,0-0.01,0-0.01,0c-0.27,0-0.52,0.11-0.71,0.3L10.3,18.32   l1.43,1.41L14,17.43V32h2V17.4l2.31,2.29L19.71,18.26z"/>
</g>
</svg>
