<?xml version="1.0" encoding="utf-8"?>
<!-- Generator: Adobe Illustrator 16.0.0, SVG Export Plug-In . SVG Version: 6.00 Build 0)  -->
<svg xmlns="http://www.w3.org/2000/svg" xmlns:xlink="http://www.w3.org/1999/xlink" version="1.1" id="257646927_Capa_1_grid" x="0px" y="0px" width="32px" height="32px" viewBox="0 0 32 32" enable-background="new 0 0 32 32" xml:space="preserve">
<g>
	<rect x="8" y="4" width="2" height="6"/>
</g>
<g>
	<rect x="8" y="12" width="2" height="2"/>
</g>
<g>
	<path d="M20,10v2h8.3L17,21.68L12.67,18L4,28.24V20H2v12h30V10H20z M5.14,30l7.7-9.25L17,24.32l4.16-3.57l7.7,9.25H5.14z M30,28.24   l-7.32-8.79L30,13.17V28.24z"/>
</g>
<g>
	<path d="M9,0C4.03,0,0,4.03,0,9s4.03,9,9,9s9-4.03,9-9S13.97,0,9,0z M9,16c-3.86,0-7-3.14-7-7s3.14-7,7-7s7,3.14,7,7S12.86,16,9,16   z"/>
</g>
</svg>
