<?xml version="1.0" encoding="utf-8"?>
<!-- Generator: Adobe Illustrator 16.0.0, SVG Export Plug-In . SVG Version: 6.00 Build 0)  -->
<svg xmlns="http://www.w3.org/2000/svg" xmlns:xlink="http://www.w3.org/1999/xlink" version="1.1" id="257646928_Capa_1_grid" x="0px" y="0px" width="32px" height="32px" viewBox="0 0 32 32" enable-background="new 0 0 32 32" xml:space="preserve">
<g>
	<path d="M19,2v2.35L28.18,10H20v2h8.5L19,28.07l-5.37-9.09c-0.05,0-1.88,0.68-1.92,0.68l5.11,8.649L8,22.88V20H6v4l13,8l13-8V10   L19,2z M30,22.88l-8.82,5.43L30,13.38V22.88z"/>
</g>
<g>
	<path d="M9,0C4.03,0,0,4.03,0,9s4.03,9,9,9s9-4.03,9-9S13.97,0,9,0z M9,16c-3.86,0-7-3.14-7-7s3.14-7,7-7s7,3.14,7,7S12.86,16,9,16   z"/>
</g>
<g>
	<rect x="8" y="4" width="2" height="6"/>
</g>
<g>
	<rect x="8" y="12" width="2" height="2"/>
</g>
</svg>
