<?xml version="1.0" encoding="utf-8"?>
<!-- Generator: Adobe Illustrator 16.0.0, SVG Export Plug-In . SVG Version: 6.00 Build 0)  -->
<svg xmlns="http://www.w3.org/2000/svg" xmlns:xlink="http://www.w3.org/1999/xlink" version="1.1" id="257646930_Capa_1_grid" x="0px" y="0px" width="32px" height="32px" viewBox="0 0 32 32" enable-background="new 0 0 32 32" xml:space="preserve">
<g>
	<g>
		<path d="M0,16v10l10,6l10-6V16l-10-6L0,16z M16.12,16H3.88L10,12.33L16.12,16z M13.33,27.67L18,20.41v4.46L13.33,27.67z M10,29.15    L2.83,18h14.34L10,29.15z M2,20.4l4.68,7.279L2,24.87V20.4z"/>
	</g>
</g>
<g>
	<g>
		<rect x="4" y="6" width="22" height="2"/>
	</g>
</g>
<g>
	<g>
		<rect x="10" y="2" width="20" height="2"/>
	</g>
</g>
<g>
	<g>
		<rect x="18" y="10" width="14" height="2"/>
	</g>
</g>
<g>
	<g>
		<rect x="22" y="14" width="6" height="2"/>
	</g>
</g>
<g>
	<g>
		<rect x="22" y="18" width="10" height="2"/>
	</g>
</g>
<g>
	<g>
		<rect x="24" y="22" width="8" height="2"/>
	</g>
</g>
<g>
	<g>
		<rect x="22" y="26" width="10" height="2"/>
	</g>
</g>
<g>
	<rect x="22" y="30" width="6" height="2"/>
</g>
</svg>
