<?xml version="1.0" encoding="utf-8"?>
<!-- Generator: Adobe Illustrator 16.0.0, SVG Export Plug-In . SVG Version: 6.00 Build 0)  -->
<svg xmlns="http://www.w3.org/2000/svg" xmlns:xlink="http://www.w3.org/1999/xlink" version="1.1" id="257646932_Capa_1_grid" x="0px" y="0px" width="32px" height="32px" viewBox="0 0 32 32" enable-background="new 0 0 32 32" xml:space="preserve">
<g>
	<path d="M28,21.92V22h-0.05C27.97,21.97,27.98,21.95,28,21.92z"/>
</g>
<path d="M17,0C9.06,0,2.55,6.18,2.04,14h2.01C4.55,7.3,10.17,2,17,2c7.17,0,13,5.83,13,13c0,2.54-0.73,4.91-2,6.92  c-0.01,0.03-0.03,0.05-0.05,0.08c-1.01,1.58-2.37,2.94-3.95,3.95v2.319c4.76-2.52,8-7.52,8-13.27C32,6.72,25.28,0,17,0z"/>
<path d="M17,4C11.26,4,6.55,8.39,6.05,14h2.01C8.55,9.51,12.38,6,17,6c4.96,0,9,4.04,9,9c0,2.13-0.75,4.1-2,5.64v2.851  c2.44-2.021,4-5.08,4-8.49C28,8.92,23.07,4,17,4z"/>
<path d="M17,8c-3.53,0-6.44,2.6-6.92,6h2.02c0.46-2.28,2.48-4,4.9-4s4.44,1.72,4.9,4h2.02C23.44,10.6,20.53,8,17,8z"/>
<g>
	<path d="M0,16v16h22V16H0z M18.15,18L11,23.72L3.85,18H18.15z M2,19.08l4.18,3.34L2,28V19.08z M3,30l4.74-6.33L11,26.28l3.26-2.61   L19,30H3z M20,28l-4.18-5.58L20,19.08V28z"/>
</g>
</svg>
