<?xml version="1.0" encoding="utf-8"?>
<!-- Generator: Adobe Illustrator 16.0.0, SVG Export Plug-In . SVG Version: 6.00 Build 0)  -->
<svg xmlns="http://www.w3.org/2000/svg" xmlns:xlink="http://www.w3.org/1999/xlink" version="1.1" id="257646933_Capa_1_grid" x="0px" y="0px" width="32px" height="32px" viewBox="0 0 32 32" enable-background="new 0 0 32 32" xml:space="preserve">
<g>
	<path d="M0,16v16h22V16H0z M18.15,18L11,23.72L3.85,18H18.15z M2,19.08l4.18,3.34L2,28V19.08z M3,30l4.74-6.33L11,26.28l3.26-2.61   L19,30H3z M20,28l-4.18-5.58L20,19.08V28z"/>
</g>
<g>
	<g>
		<path d="M17,0C9.06,0,2.55,6.18,2.04,14h2.01c0.16-2.19,0.87-4.24,2-6h2.91c-0.64,2.55-0.85,4.77-0.92,6h2    c0.08-1.23,0.32-3.48,1-6H16v6h2V8h4.96c0.68,2.52,1.04,5,1.04,6v2h5.96c-0.17,2.16-0.86,4.18-1.96,5.92    c-0.02,0.03-0.03,0.05-0.05,0.08H24v2h2.37c-0.71,0.74-1.5,1.39-2.37,1.94v2.329c4.76-2.52,8-7.52,8-13.27C32,6.72,25.28,0,17,0z     M9.53,6h-1.9c0.8-0.84,1.72-1.57,2.72-2.16C10.03,4.56,9.76,5.29,9.53,6z M16,6h-4.34c0.4-1.15,0.91-2.32,1.55-3.43    C14.1,2.29,15.04,2.11,16,2.05V6z M18,6V2.05c0.96,0.06,1.89,0.24,2.78,0.52C21.43,3.68,21.94,4.85,22.33,6H18z M23.66,3.84    c1,0.6,1.91,1.32,2.71,2.16h-1.9C24.24,5.29,23.97,4.56,23.66,3.84z M25.97,14c0.03-1-0.29-3.45-0.92-6h2.9    c1.13,1.76,1.84,3.81,2.01,6H25.97z"/>
	</g>
</g>
<g>
	<path d="M28,21.92V22h-0.05C27.97,21.97,27.98,21.95,28,21.92z"/>
</g>
</svg>
