<?xml version="1.0" encoding="utf-8"?>
<!-- Generator: Adobe Illustrator 16.0.0, SVG Export Plug-In . SVG Version: 6.00 Build 0)  -->
<svg xmlns="http://www.w3.org/2000/svg" xmlns:xlink="http://www.w3.org/1999/xlink" version="1.1" id="257646936_Capa_1_grid" x="0px" y="0px" width="32px" height="32px" viewBox="0 0 32 32" enable-background="new 0 0 32 32" xml:space="preserve">
<g>
	<path d="M19,8H9.41l-2-2H3C1.79,6,0,6.8,0,9v5h2V9c0-0.81,0.55-0.99,1-1h3.59l2,2H19c0.81,0,0.99,0.55,1,1v12   c0,0.8-0.55,0.99-1.01,1H3c-0.81,0-0.99-0.55-1-1v-3H0v3c0,1.21,0.8,3,3,3h16c1.21,0,3-0.8,3-3V11C22,9.79,21.2,8,19,8z"/>
</g>
<g>
	<polygon points="30,12 30,22 32,22 32,24 30,24 30,28 28,28 28,24 26,24 26,27.41 21.41,32 6,32 6,30 20.59,30 24,26.59 24,22    28,22 28,12 24,12 24,7.41 20.59,4 6,4 6,2 21.41,2 26,6.59 26,10 28,10 28,6 30,6 30,10 32,10 32,12  "/>
</g>
<g>
	<polygon points="16.41,17 11.71,21.71 10.29,20.29 12.59,18 0,18 0,16 12.59,16 10.29,13.71 11.71,12.29  "/>
</g>
</svg>
