<?xml version="1.0" encoding="utf-8"?>
<!-- Generator: Adobe Illustrator 16.0.0, SVG Export Plug-In . SVG Version: 6.00 Build 0)  -->
<!DOCTYPE svg PUBLIC "-//W3C//DTD SVG 1.1//EN" "http://www.w3.org/Graphics/SVG/1.1/DTD/svg11.dtd">
<svg version="1.1" id="Capa_1" xmlns="http://www.w3.org/2000/svg" xmlns:xlink="http://www.w3.org/1999/xlink" x="0px" y="0px"
	 width="32px" height="32px" viewBox="0 0 32 32" enable-background="new 0 0 32 32" xml:space="preserve">
<path d="M1,10h11v2H2v6H0v-7C0,10.45,0.45,10,1,10z M30,11v18c0,0.55-0.45,1-1,1H16v-2h12V12H18v-2h11C29.55,10,30,10.45,30,11z
	 M19.71,15.71L15,20.41l-4.71-4.7l1.42-1.42l2.29,2.3V2h2v14.59l2.29-2.3L19.71,15.71z M6,20v10H0v-2h4v-2H0v-2h4v-2H0v-2H6z M11,20
	H8v10h3c1.21,0,3-0.8,3-3v-4C14,21.79,13.2,20,11,20z M12,27c0,0.8-0.55,0.99-1.01,1H10v-6h1c0.81,0,0.99,0.55,1,1V27z"/>
</svg>
