<?xml version="1.0" encoding="utf-8"?>
<!-- Generator: Adobe Illustrator 16.0.0, SVG Export Plug-In . SVG Version: 6.00 Build 0)  -->
<!DOCTYPE svg PUBLIC "-//W3C//DTD SVG 1.1//EN" "http://www.w3.org/Graphics/SVG/1.1/DTD/svg11.dtd">
<svg version="1.1" id="Capa_1" xmlns="http://www.w3.org/2000/svg" xmlns:xlink="http://www.w3.org/1999/xlink" x="0px" y="0px"
	 width="32px" height="32px" viewBox="0 0 32 32" enable-background="new 0 0 32 32" xml:space="preserve">
<path d="M24,22v10h-6v-2h4v-2h-4v-2h4v-2h-4v-2H24z M29,22h-3v10h3c1.21,0,3-0.8,3-3v-4C32,23.79,31.2,22,29,22z M30,29
	c0,0.8-0.55,0.99-1.01,1H28v-6h1c0.811,0,0.99,0.55,1,1V29z M18,17l-4.29,4.71l-1.42-1.42l2.3-2.29H2v-2h12.59l-2.3-2.29l1.42-1.42
	L18,17z M10,30V20H8v10c0,2,2,2,2,2h6v-2C16,30,10.02,30.01,10,30z M25,0H10C8,0,8,2,8,2v12h2V2h12v5c0,1.21,0.8,3,3,3h5v10h2V7
	L25,0z M30,8h-5c-0.811,0-0.99-0.55-1-1V2h0.17L30,7.83V8z"/>
</svg>
