<?xml version="1.0" encoding="utf-8"?>
<!-- Generator: Adobe Illustrator 16.0.0, SVG Export Plug-In . SVG Version: 6.00 Build 0)  -->
<!DOCTYPE svg PUBLIC "-//W3C//DTD SVG 1.1//EN" "http://www.w3.org/Graphics/SVG/1.1/DTD/svg11.dtd">
<svg version="1.1" id="Capa_1" xmlns="http://www.w3.org/2000/svg" xmlns:xlink="http://www.w3.org/1999/xlink" x="0px" y="0px"
	 width="32px" height="32px" viewBox="0 0 32 32" enable-background="new 0 0 32 32" xml:space="preserve">
<path d="M29,6H4V2H0v2h2v28h2v-4h25c3,0,3-3,3-3V9C32,6,29,6,29,6z M30,25c0,1-1,1-1,1H4V8h25c0,0,1,0,1,1V25z M21,10H6v14h15
	c3.87,0,7-3.13,7-7S24.87,10,21,10z M8,22V12h8.11c-1.3,1.26-2.11,3.04-2.11,5s0.81,3.74,2.11,5H8z M21,22c-2.76,0-5-2.24-5-5
	c0-2.42,1.721-4.44,4-4.9V18h5.9C25.439,20.28,23.42,22,21,22z M22,16v-3.9c1.96,0.4,3.5,1.94,3.9,3.9H22z"/>
</svg>
