<?xml version="1.0" encoding="utf-8"?>
<!-- Generator: Adobe Illustrator 16.0.0, SVG Export Plug-In . SVG Version: 6.00 Build 0)  -->
<!DOCTYPE svg PUBLIC "-//W3C//DTD SVG 1.1//EN" "http://www.w3.org/Graphics/SVG/1.1/DTD/svg11.dtd">
<svg version="1.1" id="Capa_1" xmlns="http://www.w3.org/2000/svg" xmlns:xlink="http://www.w3.org/1999/xlink" x="0px" y="0px"
	 width="32px" height="32px" viewBox="0 0 32 32" enable-background="new 0 0 32 32" xml:space="preserve">
<path d="M24,8.56V6H4V2H0v2h2v28h2v-4h20v-2.38l8-4V13L24,8.56z M22,26H4V8h18v0.56L14,13v8.62l8,4V26z M22,23.38l-6-3v-6.27
	l6,3.332V23.38z M23,15.71L18.12,13L23,10.29L27.88,13L23,15.71z M30,20.38l-6,3v-5.94l6-3.331V20.38z"/>
</svg>
