<?xml version="1.0" encoding="utf-8"?>
<!-- Generator: Adobe Illustrator 16.0.0, SVG Export Plug-In . SVG Version: 6.00 Build 0)  -->
<!DOCTYPE svg PUBLIC "-//W3C//DTD SVG 1.1//EN" "http://www.w3.org/Graphics/SVG/1.1/DTD/svg11.dtd">
<svg version="1.1" id="Capa_1" xmlns="http://www.w3.org/2000/svg" xmlns:xlink="http://www.w3.org/1999/xlink" x="0px" y="0px"
	 width="32px" height="32px" viewBox="0 0 32 32" enable-background="new 0 0 32 32" xml:space="preserve">
<path d="M21.6,0H6.46L1.54,7.39l7.29,3.64l-5.3,4.979l5.37,4.92l-7.36,3.68L6.46,32H21.6l8.53-16L21.6,0z M26.109,12.71L16.63,5.94
	l4.07-3.38L26.109,12.71z M7.54,2h10.69l-4.8,4H4.87L7.54,2z M7.24,8H14v3.38L7.24,8z M6.47,15.99l4.26-4h0.01L14,13.62v4.76
	l-3.18,1.601h-0.01L6.47,15.99z M14,20.62V24H7.24L14,20.62z M7.54,30l-2.67-4h9.72l3.99,4H7.54z M20.75,29.34l-4.17-4.17l9.74-6.26
	L20.75,29.34z M16,23.17V7.95l11.221,8.01L16,23.17z"/>
</svg>
