<?xml version="1.0" encoding="utf-8"?>
<!-- Generator: Adobe Illustrator 16.0.0, SVG Export Plug-In . SVG Version: 6.00 Build 0)  -->
<!DOCTYPE svg PUBLIC "-//W3C//DTD SVG 1.1//EN" "http://www.w3.org/Graphics/SVG/1.1/DTD/svg11.dtd">
<svg version="1.1" id="Capa_1" xmlns="http://www.w3.org/2000/svg" xmlns:xlink="http://www.w3.org/1999/xlink" x="0px" y="0px"
	 width="32px" height="32px" viewBox="0 0 32 32" enable-background="new 0 0 32 32" xml:space="preserve">
<path d="M10,0v10.05C4.39,10.55,0,15.26,0,21c0,6.08,4.92,11,11,11c5.74,0,10.45-4.391,10.95-10H32V0H10z M12,12.06
	c1.73,0.19,3.32,0.87,4.609,1.91L12,18.58V12.06z M11,30c-4.96,0-9-4.04-9-9c0-4.62,3.51-8.45,8-8.94V22h9.939
	C19.45,26.49,15.62,30,11,30z M13.42,20l4.609-4.61c1.041,1.29,1.721,2.879,1.91,4.61H13.42z M30,20h-8.05
	c-0.47-5.28-4.671-9.48-9.95-9.95V2h18V20z"/>
</svg>
