<?xml version="1.0" encoding="utf-8"?>
<!-- Generator: Adobe Illustrator 16.0.0, SVG Export Plug-In . SVG Version: 6.00 Build 0)  -->
<!DOCTYPE svg PUBLIC "-//W3C//DTD SVG 1.1//EN" "http://www.w3.org/Graphics/SVG/1.1/DTD/svg11.dtd">
<svg version="1.1" id="Capa_1" xmlns="http://www.w3.org/2000/svg" xmlns:xlink="http://www.w3.org/1999/xlink" x="0px" y="0px"
	 width="32px" height="32px" viewBox="0 0 32 32" enable-background="new 0 0 32 32" xml:space="preserve">
<path d="M29,14h-7.08c-0.16-1.18-0.62-2.27-1.32-3.18l3.11-3.11c0.39-0.39,0.39-1.03,0-1.42s-1.03-0.39-1.42,0L19.18,9.4
	c-0.91-0.7-2-1.16-3.18-1.32V1c0-0.55-0.45-1-1-1s-1,0.45-1,1v7.08c-1.18,0.16-2.27,0.62-3.18,1.32L7.71,6.29
	c-0.39-0.39-1.03-0.39-1.42,0s-0.39,1.03,0,1.42l3.11,3.11c-0.7,0.91-1.16,2-1.32,3.18H1c-0.55,0-1,0.45-1,1s0.45,1,1,1h7.08
	c0.16,1.18,0.62,2.27,1.32,3.18l-3.11,3.11c-0.39,0.39-0.39,1.03,0,1.42C6.49,23.9,6.74,24,7,24s0.51-0.1,0.71-0.29l3.11-3.11
	c0.91,0.7,2,1.16,3.18,1.32V29c0,0.55,0.45,1,1,1s1-0.45,1-1v-7.08c1.18-0.16,2.27-0.62,3.18-1.32l3.11,3.11
	C22.49,23.9,22.74,24,23,24s0.51-0.1,0.71-0.29c0.39-0.39,0.39-1.03,0-1.42l-3.11-3.11c0.7-0.91,1.16-2,1.32-3.18H29
	c0.55,0,1-0.45,1-1S29.55,14,29,14z M15,20c-2.76,0-5-2.24-5-5s2.24-5,5-5s5,2.24,5,5S17.76,20,15,20z"/>
</svg>
