<?xml version="1.0" encoding="utf-8"?>
<!-- Generator: Adobe Illustrator 16.0.0, SVG Export Plug-In . SVG Version: 6.00 Build 0)  -->
<!DOCTYPE svg PUBLIC "-//W3C//DTD SVG 1.1//EN" "http://www.w3.org/Graphics/SVG/1.1/DTD/svg11.dtd">
<svg version="1.1" id="Capa_1" xmlns="http://www.w3.org/2000/svg" xmlns:xlink="http://www.w3.org/1999/xlink" x="0px" y="0px"
	 width="32px" height="32px" viewBox="0 0 32 32" enable-background="new 0 0 32 32" xml:space="preserve">
<path d="M4,10c-2.21,0-4,1.79-4,4s1.79,4,4,4s4-1.79,4-4S6.21,10,4,10z M4,16c-1.1,0-2-0.9-2-2s0.9-2,2-2s2,0.9,2,2S5.1,16,4,16z
	 M12,2C9.79,2,8,3.79,8,6s1.79,4,4,4s4-1.79,4-4S14.21,2,12,2z M12,8c-1.1,0-2-0.9-2-2s0.9-2,2-2s2,0.9,2,2S13.1,8,12,8z M22,4
	c-2.21,0-4,1.79-4,4s1.79,4,4,4s4-1.79,4-4S24.21,4,22,4z M22,10c-1.1,0-2-0.9-2-2s0.9-2,2-2s2,0.9,2,2S23.1,10,22,10z
	 M30.449,13.29c-1.03-1.03-2.221-1.55-3.521-1.55c-2.141,0-3.789,1.45-3.898,1.55l-11,11c-0.18,0.19-0.29,0.44-0.29,0.71v5H0v2
	h18.738c0.271,0,0.521-0.109,0.711-0.29l11.039-11.04C31.68,19.32,33.21,16.061,30.449,13.29z M13.739,30v-4.58l4.58,4.58H13.739z
	 M19.738,28.58L15.159,24l6.579-6.58l4.58,4.58L19.738,28.58z M29.029,19.29l-1.291,1.29L23.159,16l1.25-1.25
	c0.01-0.01,1.159-1.01,2.521-1.01c0.771,0,1.449,0.32,2.1,0.97C31.109,16.79,29.21,19.08,29.029,19.29z"/>
</svg>
