<?xml version="1.0" encoding="utf-8"?>
<!-- Generator: Adobe Illustrator 16.0.0, SVG Export Plug-In . SVG Version: 6.00 Build 0)  -->
<!DOCTYPE svg PUBLIC "-//W3C//DTD SVG 1.1//EN" "http://www.w3.org/Graphics/SVG/1.1/DTD/svg11.dtd">
<svg version="1.1" id="Capa_1" xmlns="http://www.w3.org/2000/svg" xmlns:xlink="http://www.w3.org/1999/xlink" x="0px" y="0px"
	 width="32px" height="32px" viewBox="0 0 32 32" enable-background="new 0 0 32 32" xml:space="preserve">
<path d="M32,24v6h-2v-2h-8v2h-2v-2h-8v2h-2v-2H2v2H0v-6h2v2h8v-2h2v2h8v-2h2v2h8v-2H32z M28,14c-2.21,0-4,1.79-4,4s1.79,4,4,4
	s4-1.79,4-4S30.21,14,28,14z M28,20c-1.1,0-2-0.9-2-2s0.9-2,2-2s2,0.9,2,2S29.1,20,28,20z M22,4c-2.21,0-4,1.79-4,4s1.79,4,4,4
	s4-1.79,4-4S24.21,4,22,4z M22,10c-1.1,0-2-0.9-2-2s0.9-2,2-2s2,0.9,2,2S23.1,10,22,10z M12,2C9.79,2,8,3.79,8,6s1.79,4,4,4
	s4-1.79,4-4S14.21,2,12,2z M12,8c-1.1,0-2-0.9-2-2s0.9-2,2-2s2,0.9,2,2S13.1,8,12,8z M4,10c-2.21,0-4,1.79-4,4s1.79,4,4,4
	s4-1.79,4-4S6.21,10,4,10z M4,16c-1.1,0-2-0.9-2-2s0.9-2,2-2s2,0.9,2,2S5.1,16,4,16z"/>
</svg>
