<?xml version="1.0" encoding="utf-8"?>
<!-- Generator: Adobe Illustrator 16.0.0, SVG Export Plug-In . SVG Version: 6.00 Build 0)  -->
<!DOCTYPE svg PUBLIC "-//W3C//DTD SVG 1.1//EN" "http://www.w3.org/Graphics/SVG/1.1/DTD/svg11.dtd">
<svg version="1.1" id="Capa_1" xmlns="http://www.w3.org/2000/svg" xmlns:xlink="http://www.w3.org/1999/xlink" x="0px" y="0px"
	 width="32px" height="32px" viewBox="0 0 32 32" enable-background="new 0 0 32 32" xml:space="preserve">
<path d="M30,17c0,8.28-6.721,15-15,15H8v-2H6v-2H4v-2h4v2h2v2h5c7.17,0,13-5.83,13-13S22.17,4,15,4h-5v2H8v2H4V6h2V4h2V2h7
	C23.279,2,30,8.72,30,17z M2,12v10h2v4H2v-2H0V10h2V8h2v4H2z"/>
</svg>
