<?xml version="1.0" encoding="utf-8"?>
<!-- Generator: Adobe Illustrator 16.0.0, SVG Export Plug-In . SVG Version: 6.00 Build 0)  -->
<!DOCTYPE svg PUBLIC "-//W3C//DTD SVG 1.1//EN" "http://www.w3.org/Graphics/SVG/1.1/DTD/svg11.dtd">
<svg version="1.1" id="Capa_1" xmlns="http://www.w3.org/2000/svg" xmlns:xlink="http://www.w3.org/1999/xlink" x="0px" y="0px"
	 width="32px" height="32px" viewBox="0 0 32 32" enable-background="new 0 0 32 32" xml:space="preserve">
<path d="M4,24h4v2H4V24z M8,26h4v2H8V26z M15,2h-3v2H8v2H4v2H2v16h2V12h4v2h4v2h2v12h-2v2h3v-0.04l0.02,0.01L15.09,30L28,24V8L15,2z
	 M15,14h-1v-2h-4v-2H4V8h6V6h4V4h1l10.07,4.85L15,14z M26,22.72l-10,4.65V15.62l10-5V22.72z M15.02,29.97L15,30v-0.04L15.02,29.97z"
	/>
</svg>
