<?xml version="1.0" encoding="utf-8"?>
<!-- Generator: Adobe Illustrator 16.0.0, SVG Export Plug-In . SVG Version: 6.00 Build 0)  -->
<!DOCTYPE svg PUBLIC "-//W3C//DTD SVG 1.1//EN" "http://www.w3.org/Graphics/SVG/1.1/DTD/svg11.dtd">
<svg version="1.1" id="Capa_1" xmlns="http://www.w3.org/2000/svg" xmlns:xlink="http://www.w3.org/1999/xlink" x="0px" y="0px"
	 width="32px" height="32px" viewBox="0 0 32 32" enable-background="new 0 0 32 32" xml:space="preserve">
<path d="M4,24h4v2H4V24z M8,26h4v2H8V26z M16,2.46v2.02l9.07,4.37L16,13.49v2.13l10-5v12.1l-10,4.65v2.21L28,24V8L16,2.46z M2,24h2
	V12h4v2h4v2h2v-4h-4v-2H4V8H2V24z M12,4H8v2H4v2h6V6h4V2h-2V4z M12,30h2v-2h-2V30z"/>
</svg>
