<?xml version="1.0" encoding="utf-8"?>
<!-- Generator: Adobe Illustrator 16.0.0, SVG Export Plug-In . SVG Version: 6.00 Build 0)  -->
<!DOCTYPE svg PUBLIC "-//W3C//DTD SVG 1.1//EN" "http://www.w3.org/Graphics/SVG/1.1/DTD/svg11.dtd">
<svg version="1.1" id="Capa_1" xmlns="http://www.w3.org/2000/svg" xmlns:xlink="http://www.w3.org/1999/xlink" x="0px" y="0px"
	 width="32px" height="32px" viewBox="0 0 32 32" enable-background="new 0 0 32 32" xml:space="preserve">
<path d="M0,2v30h30V2H0z M14,12h6v6h-6V12z M14,20h6v6h-6V20z M12,30H2V20h2v8h8V30z M12,26H6v-6h6V26z M12,18H6v-6h6V18z M12,10H4
	v8H2V4h10V10z M28,30H14v-2h8v-8h6V30z M28,18h-6v-8h-8V4h14V18z"/>
</svg>
