<?xml version="1.0" encoding="utf-8"?>
<!-- Generator: Adobe Illustrator 16.0.0, SVG Export Plug-In . SVG Version: 6.00 Build 0)  -->
<!DOCTYPE svg PUBLIC "-//W3C//DTD SVG 1.1//EN" "http://www.w3.org/Graphics/SVG/1.1/DTD/svg11.dtd">
<svg version="1.1" id="Capa_1" xmlns="http://www.w3.org/2000/svg" xmlns:xlink="http://www.w3.org/1999/xlink" x="0px" y="0px"
	 width="32px" height="32px" viewBox="0 0 32 32" enable-background="new 0 0 32 32" xml:space="preserve">
<path d="M6,24H0v-8h8V8h2v10H2v4h4V24z M6,14H0V8h6v2H2v2h4V14z M14,28H0v-2h12v-4H8v-2h6V28z M14,18h-2V6H0V4h14V18z M22,24h-6v-8
	h8V8h2v10h-8v4h4V24z M22,14h-6V8h6v2h-4v2h4V14z M30,28H16v-2h12v-4h-4v-2h6V28z M30,18h-2V6H16V4h14V18z"/>
</svg>
