<?xml version="1.0" encoding="utf-8"?>
<!-- Generator: Adobe Illustrator 16.0.0, SVG Export Plug-In . SVG Version: 6.00 Build 0)  -->
<!DOCTYPE svg PUBLIC "-//W3C//DTD SVG 1.1//EN" "http://www.w3.org/Graphics/SVG/1.1/DTD/svg11.dtd">
<svg version="1.1" id="Capa_1" xmlns="http://www.w3.org/2000/svg" xmlns:xlink="http://www.w3.org/1999/xlink" x="0px" y="0px"
	 width="32px" height="32px" viewBox="0 0 32 32" enable-background="new 0 0 32 32" xml:space="preserve">
<path d="M30.41,6.42c-0.82-0.82-1.95-1.24-3.08-1.17c0.07-1.1-0.32-2.23-1.16-3.08C25.41,1.42,24.41,1,23.34,1s-2.07,0.42-2.83,1.17
	c-2.318,2.32-1.63,4.81-0.63,6.3L8.41,19.93c-0.65-0.43-1.66-0.92-2.85-0.92c-1.25,0-2.4,0.521-3.43,1.551
	c-1.56,1.562-1.56,4.09,0,5.649c0.81,0.82,1.94,1.24,3.07,1.17v0.25c0,1.07,0.41,2.07,1.17,2.83c0.76,0.75,1.76,1.17,2.83,1.17
	c1.07,0,2.07-0.42,2.83-1.17c2.31-2.319,1.63-4.81,0.63-6.3L24.13,12.7c0.649,0.43,1.66,0.92,2.851,0.92
	c1.25,0,2.399-0.52,3.432-1.55C31.971,10.51,31.971,7.98,30.41,6.42z M29,10.66c-0.65,0.65-1.311,0.96-2.02,0.96
	c-1.23,0-2.223-0.96-2.23-0.96c-0.18-0.19-0.439-0.29-0.7-0.29c-0.271,0-0.521,0.1-0.71,0.29l-12.73,12.73
	c-0.19,0.18-0.29,0.438-0.29,0.698c0,0.271,0.1,0.521,0.29,0.71c0.22,0.221,2.06,2.182,0,4.24c-0.76,0.76-2.07,0.76-2.83,0
	C7.4,28.66,7.2,28.16,7.2,27.63c0-0.54,0.2-1.04,0.58-1.42c0.2-0.19,0.3-0.45,0.3-0.7c0-0.26-0.1-0.51-0.3-0.71
	c-0.39-0.39-1.02-0.39-1.41,0c-0.76,0.761-2.07,0.761-2.83,0c-0.78-0.78-0.78-2.05,0-2.83c0.65-0.649,1.31-0.96,2.02-0.96
	c1.22,0,2.22,0.96,2.22,0.96c0.39,0.392,1.03,0.392,1.42,0L21.93,9.24c0.391-0.39,0.391-1.021,0-1.41c-0.22-0.22-2.068-2.18,0-4.24
	c0.75-0.76,2.07-0.76,2.82,0c0.779,0.78,0.779,2.05,0,2.83c-0.189,0.19-0.29,0.45-0.29,0.7c0,0.26,0.101,0.51,0.29,0.71
	c0.391,0.39,1.029,0.39,1.42,0c0.76-0.76,2.07-0.76,2.83,0C29.779,8.61,29.779,9.88,29,10.66z"/>
</svg>
