<?xml version="1.0" encoding="utf-8"?>
<!-- Generator: Adobe Illustrator 16.0.0, SVG Export Plug-In . SVG Version: 6.00 Build 0)  -->
<!DOCTYPE svg PUBLIC "-//W3C//DTD SVG 1.1//EN" "http://www.w3.org/Graphics/SVG/1.1/DTD/svg11.dtd">
<svg version="1.1" id="Capa_1" xmlns="http://www.w3.org/2000/svg" xmlns:xlink="http://www.w3.org/1999/xlink" x="0px" y="0px"
	 width="32px" height="32px" viewBox="0 0 32 32" enable-background="new 0 0 32 32" xml:space="preserve">
<path d="M30.54,9c0.83-0.73,1.45-1.79,1.46-2.99c0-1.06-0.51-2.08-1.27-2.83c-0.76-0.76-1.76-1.17-2.83-1.18
	C24.62,2,23.35,4.24,23,6H9C8.65,4.24,7.38,2,4.1,2C3.03,2.01,2.03,2.42,1.27,3.18C0.51,3.93,0,4.95,0,6.01
	C0.01,7.21,0.63,8.27,1.46,9C0.61,9.75,0,10.85,0,12.01C0,14.21,1.89,16,4.1,16c1.46,0,2.64-0.44,3.52-1.33
	c0.84-0.84,1.21-1.91,1.37-2.67h14.02c0.16,0.76,0.53,1.83,1.37,2.67C25.26,15.56,26.439,16,27.9,16c2.209,0,4.1-1.79,4.1-3.99
	C32,10.85,31.391,9.75,30.54,9z M28,10.01c1,0,2,1,2,2s-1,2.003-2,2c-3-0.01-3-3-3-3S25,10,24,10H8c-1,0-1,1.01-1,1.01s0,2.99-3,3
	c-1,0.003-2-1-2-2s1-2,2-2c0,0,1,0,1-1s-1-1-1-1c-1,0-2-1-2-2s1-1.997,2-2c3-0.01,3,3,3,3S7,8,7.91,8h16.18C25,8,25,7.01,25,7.01
	s0-3.01,3-3c1,0.003,2,1,2,2s-1,2-2,2c0,0-1,0-1,1S28,10.01,28,10.01z M26.54,25c0.83-0.73,1.45-1.79,1.46-2.99
	c0-1.06-0.51-2.08-1.27-2.83c-0.76-0.76-1.76-1.17-2.83-1.18c-3.28,0-4.551,2.24-4.9,4h-6c-0.35-1.76-1.62-4-4.9-4
	c-1.07,0.01-2.07,0.42-2.83,1.18C4.51,19.93,4,20.95,4,22.01c0.01,1.2,0.63,2.26,1.46,2.99C4.61,25.75,4,26.85,4,28.01
	C4,30.21,5.89,32,8.1,32c1.46,0,2.64-0.439,3.52-1.33c0.84-0.84,1.21-1.91,1.37-2.67h6.02c0.16,0.76,0.53,1.83,1.37,2.67
	C21.26,31.561,22.439,32,23.9,32c2.209,0,4.1-1.79,4.1-3.99C28,26.85,27.391,25.75,26.54,25z M24,26.01c1,0,2,1,2,2s-1,2-2,2
	c-3,0-3-3-3-3S21,26,20,26h-8c-1,0-1,1.01-1,1.01s0,3-3,3c-1,0-2-1-2-2s1-2,2-2c0,0,1,0,1-1s-1-1-1-1c-1,0-2-1-2-2s1-2,2-2
	c3.2,0,3,3,3,3S11,24,11.91,24h8.18C21,24,21,23.01,21,23.01s-0.2-3,3-3c1,0,2,1,2,2s-1,2-2,2c0,0-1,0-1,1S24,26.01,24,26.01z"/>
</svg>
