<?xml version="1.0" encoding="utf-8"?>
<!-- Generator: Adobe Illustrator 16.0.0, SVG Export Plug-In . SVG Version: 6.00 Build 0)  -->
<!DOCTYPE svg PUBLIC "-//W3C//DTD SVG 1.1//EN" "http://www.w3.org/Graphics/SVG/1.1/DTD/svg11.dtd">
<svg version="1.1" id="Capa_1" xmlns="http://www.w3.org/2000/svg" xmlns:xlink="http://www.w3.org/1999/xlink" x="0px" y="0px"
	 width="32px" height="32px" viewBox="0 0 32 32" enable-background="new 0 0 32 32" xml:space="preserve">
<path d="M16.59,0L12,4.59V24h15.41L32,19.41V0H16.59z M19.939,22H14v-9.47c3.49,1.229,6,4.56,6,8.47C20,21.34,19.98,21.67,19.939,22
	z M26,22h-4.05c0.04-0.33,0.05-0.66,0.05-1c0-5.04-3.38-9.28-8-10.58V6h12V22z M26.58,4H15.41l2-2h11.17L26.58,4z M30,18.59l-2,2
	V5.42l2-2V18.59z M18.48,26c-1.621,2.41-4.372,4-7.48,4c-4.96,0-9-4.04-9-9c0-4.62,3.51-8.45,8-8.94v-2.01C4.39,10.55,0,15.26,0,21
	c0,6.08,4.92,11,11,11c4.28,0,7.98-2.439,9.8-6H18.48z"/>
</svg>
