<?xml version="1.0" encoding="utf-8"?>
<!-- Generator: Adobe Illustrator 16.0.0, SVG Export Plug-In . SVG Version: 6.00 Build 0)  -->
<!DOCTYPE svg PUBLIC "-//W3C//DTD SVG 1.1//EN" "http://www.w3.org/Graphics/SVG/1.1/DTD/svg11.dtd">
<svg version="1.1" id="Capa_1" xmlns="http://www.w3.org/2000/svg" xmlns:xlink="http://www.w3.org/1999/xlink" x="0px" y="0px"
	 width="32px" height="32px" viewBox="0 0 32 32" enable-background="new 0 0 32 32" xml:space="preserve">
<path d="M0,2v30h30V2H0z M28,30H2V4h26V30z M26,12V6h-6v2h2.58l-4,4h-7.16l-4-4H10V6H4v6h2V9.42l4,4v7.16l-4,4V22H4v6h6v-2H7.42l4-4
	h7.16l4,4H20v2h6v-6h-2v2.58l-4-4v-7.16l4-4V12H26z M18,20h-6v-6h6V20z"/>
</svg>
