<?xml version="1.0" encoding="utf-8"?>
<!-- Generator: Adobe Illustrator 16.0.0, SVG Export Plug-In . SVG Version: 6.00 Build 0)  -->
<!DOCTYPE svg PUBLIC "-//W3C//DTD SVG 1.1//EN" "http://www.w3.org/Graphics/SVG/1.1/DTD/svg11.dtd">
<svg version="1.1" id="Capa_1" xmlns="http://www.w3.org/2000/svg" xmlns:xlink="http://www.w3.org/1999/xlink" x="0px" y="0px"
	 width="32px" height="32px" viewBox="0 0 32 32" enable-background="new 0 0 32 32" xml:space="preserve">
<path d="M15,2C6.72,2,0,8.72,0,17s6.72,15,15,15c8.279,0,15-6.72,15-15S23.279,2,15,2z M27.07,12.18
	c-1.602-0.83-4.051-1.63-7.762-1.99c-0.6-2.78-1.51-4.75-2.25-6.03C21.62,4.89,25.4,8,27.07,12.18z M14.55,29.99
	C7.59,29.75,2,24.02,2,17C2,9.98,7.59,4.25,14.55,4.01C15.39,5.08,18,9.08,18,17S15.39,28.91,14.55,29.99z M17.061,29.84
	c0.75-1.279,1.649-3.25,2.25-6.04c3.709-0.35,6.16-1.149,7.76-1.97C25.4,26,21.62,29.109,17.061,29.84z M19.68,21.75
	C19.88,20.34,20,18.76,20,17s-0.12-3.35-0.32-4.76c5.48,0.62,7.562,2.27,8.19,2.92C27.96,15.76,28,16.38,28,17s-0.04,1.24-0.13,1.84
	C27.2,19.561,25.13,21.15,19.68,21.75z"/>
</svg>
