<?xml version="1.0" encoding="utf-8"?>
<!-- Generator: Adobe Illustrator 16.0.0, SVG Export Plug-In . SVG Version: 6.00 Build 0)  -->
<!DOCTYPE svg PUBLIC "-//W3C//DTD SVG 1.1//EN" "http://www.w3.org/Graphics/SVG/1.1/DTD/svg11.dtd">
<svg version="1.1" id="Capa_1" xmlns="http://www.w3.org/2000/svg" xmlns:xlink="http://www.w3.org/1999/xlink" x="0px" y="0px"
	 width="32px" height="32px" viewBox="0 0 32 32" enable-background="new 0 0 32 32" xml:space="preserve">
<path d="M15,2C6.72,2,0,8.72,0,17s6.72,15,15,15c8.279,0,15-6.72,15-15S23.279,2,15,2z M27.95,15.95
	c-2.72-0.17-9.841-0.99-9.94-4.86c2.24-1.18,3.33-3.31,3.75-5.18C25.221,8.01,27.62,11.69,27.95,15.95z M21.75,16.93
	c-0.54,2.601-2.221,6.36-7.26,6.98c-0.69-2.48-1.85-5.04-5.44-5.73c0.54-0.89,0.89-1.83,1.21-2.67C11.13,13.2,11.69,12,14,12
	c0.75,0,1.44-0.07,2.07-0.21C16.47,14.55,19.02,16.08,21.75,16.93z M2,17C2,9.83,7.83,4,15,4c1.73,0,3.391,0.34,4.91,0.96
	C19.65,6.68,18.54,10,14,10c-3.8,0-4.76,2.55-5.61,4.81c-0.92,2.43-1.79,4.74-6.05,5.129C2.12,19,2,18.01,2,17z M2.95,21.891
	c2.1-0.261,3.54-0.961,4.59-1.871c4,0.19,4.61,2.642,5.36,5.722c0.36,1.46,0.75,3.04,1.64,4.25C9.3,29.811,4.83,26.51,2.95,21.891z
	 M17.45,29.77c-1.42-0.51-1.92-1.828-2.46-3.898c6.17-0.86,8.1-5.7,8.699-8.439c1.689,0.351,3.279,0.489,4.271,0.539
	C27.529,23.87,23.141,28.68,17.45,29.77z"/>
</svg>
