<?xml version="1.0" encoding="utf-8"?>
<!-- Generator: Adobe Illustrator 16.0.0, SVG Export Plug-In . SVG Version: 6.00 Build 0)  -->
<!DOCTYPE svg PUBLIC "-//W3C//DTD SVG 1.1//EN" "http://www.w3.org/Graphics/SVG/1.1/DTD/svg11.dtd">
<svg version="1.1" id="Capa_1" xmlns="http://www.w3.org/2000/svg" xmlns:xlink="http://www.w3.org/1999/xlink" x="0px" y="0px"
	 width="32px" height="32px" viewBox="0 0 32 32" enable-background="new 0 0 32 32" xml:space="preserve">
<path d="M25.605,6.394c-5.854-5.855-15.358-5.855-21.212,0c-5.855,5.854-5.854,15.357,0,21.213c5.854,5.855,15.358,5.854,21.212,0
	C31.461,21.752,31.461,12.249,25.605,6.394z M10.693,12.623c1.415-0.665,3.02-1.407,5.014-3.401c1.768-1.768,2.709-3.387,3.225-4.61
	c1.924,0.608,3.74,1.676,5.262,3.196c1.527,1.527,2.595,3.344,3.203,5.268c-1.225,0.502-2.852,1.449-4.619,3.217
	c-1.993,1.994-2.735,3.6-3.399,5.014c-0.069,0.156-0.142,0.297-0.205,0.445c0,0,0,0-0.008,0.008
	c-2.276-0.029-4.553-0.904-6.285-2.638c-1.74-1.739-2.616-4.017-2.631-6.293C10.397,12.765,10.538,12.694,10.693,12.623z
	 M11.464,20.536c1.846,1.846,4.179,2.891,6.597,3.146c-0.261,0.36-0.564,0.723-0.939,1.098c-0.143,0.142-3.592,3.479-8.485-1.414
	c-4.766-4.768-1.768-8.118-1.415-8.485c0.375-0.375,0.736-0.679,1.096-0.94C8.565,16.35,9.619,18.689,11.464,20.536z M5.808,26.191
	c-5.07-5.069-5.07-13.313,0-18.384c3.034-3.033,7.205-4.25,11.137-3.656c-0.453,0.99-1.251,2.256-2.651,3.656
	c-1.739,1.739-3.111,2.376-4.441,2.998C8.579,11.399,7.271,12,5.807,13.464c-0.049,0.05-4.879,5.021,1.415,11.313
	s11.264,1.464,11.313,1.414c1.465-1.465,2.064-2.771,2.658-4.045c0.623-1.33,1.26-2.701,2.998-4.439
	c1.399-1.399,2.666-2.198,3.656-2.651c0.594,3.932-0.621,8.104-3.656,11.137C19.123,31.264,10.877,31.264,5.808,26.191z"/>
</svg>
