<?xml version="1.0" encoding="utf-8"?>
<!-- Generator: Adobe Illustrator 16.0.0, SVG Export Plug-In . SVG Version: 6.00 Build 0)  -->
<!DOCTYPE svg PUBLIC "-//W3C//DTD SVG 1.1//EN" "http://www.w3.org/Graphics/SVG/1.1/DTD/svg11.dtd">
<svg version="1.1" id="Capa_1" xmlns="http://www.w3.org/2000/svg" xmlns:xlink="http://www.w3.org/1999/xlink" x="0px" y="0px"
	 width="32px" height="32px" viewBox="0 0 32 32" enable-background="new 0 0 32 32" xml:space="preserve">
<path d="M21.32,22c2.83-1.99,4.68-5.28,4.68-9c0-6.08-4.92-11-11-11S4,6.92,4,13c0,3.72,1.85,7.01,4.68,9H0v2h30v-2H21.32z M6,13
	c0-4.96,4.04-9,9-9s9,4.04,9,9s-4.04,9-9,9S6,17.96,6,13z M14,26h2v6h-2V26z M9.78,26.62l-4,5l-1.56-1.24l4-5L9.78,26.62z
	 M25.779,30.38l-1.559,1.24l-4-5l1.559-1.24L25.779,30.38z"/>
</svg>
