<?xml version="1.0" encoding="utf-8"?>
<!-- Generator: Adobe Illustrator 16.0.0, SVG Export Plug-In . SVG Version: 6.00 Build 0)  -->
<!DOCTYPE svg PUBLIC "-//W3C//DTD SVG 1.1//EN" "http://www.w3.org/Graphics/SVG/1.1/DTD/svg11.dtd">
<svg version="1.1" id="Capa_1" xmlns="http://www.w3.org/2000/svg" xmlns:xlink="http://www.w3.org/1999/xlink" x="0px" y="0px"
	 width="32px" height="32px" viewBox="0 0 32 32" enable-background="new 0 0 32 32" xml:space="preserve">
<path d="M16,30c-4.457,0-12-0.843-12-4c0-0.148,0.033-0.297,0.098-0.432l11-23C15.264,2.221,15.615,2,16,2s0.736,0.221,0.902,0.568
	l11,23C27.967,25.703,28,25.852,28,26C28,29.157,20.457,30,16,30z M6.061,26.1C6.626,26.792,10.242,28,16,28
	c5.712,0,9.314-1.188,9.93-1.92L16,5.318L6.061,26.1z"/>
</svg>
