<?xml version="1.0" encoding="utf-8"?>
<!-- Generator: Adobe Illustrator 16.0.0, SVG Export Plug-In . SVG Version: 6.00 Build 0)  -->
<!DOCTYPE svg PUBLIC "-//W3C//DTD SVG 1.1//EN" "http://www.w3.org/Graphics/SVG/1.1/DTD/svg11.dtd">
<svg version="1.1" id="Capa_1" xmlns="http://www.w3.org/2000/svg" xmlns:xlink="http://www.w3.org/1999/xlink" x="0px" y="0px"
	 width="32px" height="32px" viewBox="0 0 32 32" enable-background="new 0 0 32 32" xml:space="preserve">
<path d="M25,0c-3.87,0-7,3.13-7,7c0,1.57,0.51,3.01,1.4,4.18l-8.22,8.22C10.01,18.51,8.57,18,7,18c-3.87,0-7,3.13-7,7s3.13,7,7,7
	s7-3.13,7-7c0-1.57-0.51-3.01-1.4-4.18l8.22-8.22C21.99,13.49,23.43,14,25,14c3.87,0,7-3.13,7-7S28.87,0,25,0z M7,30
	c-2.76,0-5-2.24-5-5s2.24-5,5-5c1.02,0,1.97,0.311,2.76,0.82l-3.47,3.47l1.42,1.42l3.47-3.47C11.69,23.03,12,23.98,12,25
	C12,27.76,9.76,30,7,30z M25,12c-1.02,0-1.971-0.31-2.76-0.82l3.47-3.47l-1.42-1.42l-3.47,3.47C20.311,8.97,20,8.02,20,7
	c0-2.76,2.24-5,5-5s5,2.24,5,5S27.76,12,25,12z"/>
</svg>
