<?xml version="1.0" encoding="utf-8"?>
<!-- Generator: Adobe Illustrator 16.0.0, SVG Export Plug-In . SVG Version: 6.00 Build 0)  -->
<!DOCTYPE svg PUBLIC "-//W3C//DTD SVG 1.1//EN" "http://www.w3.org/Graphics/SVG/1.1/DTD/svg11.dtd">
<svg version="1.1" id="Capa_1" xmlns="http://www.w3.org/2000/svg" xmlns:xlink="http://www.w3.org/1999/xlink" x="0px" y="0px"
	 width="32px" height="32px" viewBox="0 0 32 32" enable-background="new 0 0 32 32" xml:space="preserve">
<path d="M4,16l-4-4v8L4,16z M19,4C11.82,4,6,6.24,6,9c0,0.86,0.15,21,13,21C31.85,30,32,9.86,32,9C32,6.24,26.18,4,19,4z M18,27.95
	c-7.46-0.851-9.36-11.14-9.84-16.19c2.15,1.25,5.73,2.11,9.84,2.22V27.95z M20,27.95V13.98c4.109-0.11,7.689-0.97,9.84-2.22
	C29.359,16.811,27.471,27.1,20,27.95z M19,12C12.15,12,8.13,9.87,8,9c0.13-0.87,4.15-3,11-3c6.85,0,10.87,2.13,11,3
	C29.87,9.87,25.85,12,19,12z"/>
</svg>
