<?xml version="1.0" encoding="utf-8"?>
<!-- Generator: Adobe Illustrator 16.0.0, SVG Export Plug-In . SVG Version: 6.00 Build 0)  -->
<!DOCTYPE svg PUBLIC "-//W3C//DTD SVG 1.1//EN" "http://www.w3.org/Graphics/SVG/1.1/DTD/svg11.dtd">
<svg version="1.1" id="Capa_1" xmlns="http://www.w3.org/2000/svg" xmlns:xlink="http://www.w3.org/1999/xlink" x="0px" y="0px"
	 width="32px" height="32px" viewBox="0 0 32 32" enable-background="new 0 0 32 32" xml:space="preserve">
<path d="M4,16l-4-4v8L4,16z M19,2L6,8v16l13.09,6L32,24V8L19,2z M19,4.2l3.83,1.77L19,7.88l-3.83-1.91L19,4.2z M22.76,12L19,13.88
	L15.24,12L19,10.12L22.76,12z M12,24.55l-4-1.83v-5.1l4,2V24.55z M12,17.391l-4-2v-4.77l4,2V17.391z M8.93,8.85l3.92-1.81L16.77,9
	L13,10.88L8.93,8.85z M18,27.3l-4-1.83v-4.85l4,2V27.3z M14,18.391V13.62l4,2v4.771L14,18.391z M24,25.51l-4,1.86v-4.75l4-2V25.51z
	 M24,18.391l-4,2V15.62l4-2V18.391z M21.23,9l3.92-1.96l3.92,1.81L25,10.88L21.23,9z M30,22.72l-4,1.86v-4.96l4-2V22.72z M30,15.39
	l-4,2V12.62l4-2V15.39z"/>
</svg>
