<?xml version="1.0" encoding="utf-8"?>
<!-- Generator: Adobe Illustrator 16.0.0, SVG Export Plug-In . SVG Version: 6.00 Build 0)  -->
<!DOCTYPE svg PUBLIC "-//W3C//DTD SVG 1.1//EN" "http://www.w3.org/Graphics/SVG/1.1/DTD/svg11.dtd">
<svg version="1.1" id="Capa_1" xmlns="http://www.w3.org/2000/svg" xmlns:xlink="http://www.w3.org/1999/xlink" x="0px" y="0px"
	 width="32px" height="32px" viewBox="0 0 32 32" enable-background="new 0 0 32 32" xml:space="preserve">
<path d="M16,2C11.54,2,4,2.84,4,6v20c0,3.16,7.54,4,12,4s12-0.84,12-4V6C28,2.84,20.46,2,16,2z M16,28c-6.04,0-9.73-1.33-10-2V8.38
	C8.55,9.61,12.98,10,16,10c3.02,0,7.45-0.39,10-1.62l0.01,17.58C25.73,26.67,22.04,28,16,28z M16,8C9.99,8,6.31,6.68,6,6.05V6.02
	C6.34,5.31,10.01,4,16,4c6.04,0,9.73,1.33,10.01,1.96C25.73,6.67,22.04,8,16,8z"/>
</svg>
