<?xml version="1.0" encoding="utf-8"?>
<!-- Generator: Adobe Illustrator 16.0.0, SVG Export Plug-In . SVG Version: 6.00 Build 0)  -->
<!DOCTYPE svg PUBLIC "-//W3C//DTD SVG 1.1//EN" "http://www.w3.org/Graphics/SVG/1.1/DTD/svg11.dtd">
<svg version="1.1" id="Capa_1" xmlns="http://www.w3.org/2000/svg" xmlns:xlink="http://www.w3.org/1999/xlink" x="0px" y="0px"
	 width="32px" height="32px" viewBox="0 0 32 32" enable-background="new 0 0 32 32" xml:space="preserve">
<path d="M15,0C7.62,0,2,13.33,2,20c0,6.62,5.83,12,13,12s13-5.38,13-12C28,13.33,22.38,0,15,0z M21.45,12.43
	c0.87-0.5,1.59-1.07,2.18-1.64c0.99,2.22,1.72,4.54,2.101,6.55c-0.529,0.91-1.689,2.36-4,3.4C21.9,19.55,22,18.3,22,17
	C22,15.45,21.79,13.91,21.45,12.43z M22.689,8.86C22.24,9.39,21.65,9.93,20.9,10.42c-1.021-3.2-2.521-5.99-3.631-7.81
	C19.311,3.68,21.2,6.07,22.689,8.86z M20,17c0,1.58-0.17,3.09-0.43,4.48C18.3,21.8,16.79,22,15,22s-3.3-0.2-4.57-0.52
	C10.16,20.09,10,18.58,10,17c0-1.25,0.16-2.5,0.42-3.73C11.7,13.72,13.21,14,15,14s3.3-0.28,4.58-0.73C19.84,14.5,20,15.75,20,17z
	 M19.07,11.33C17.95,11.74,16.609,12,15,12c-1.61,0-2.96-0.26-4.07-0.67c1.12-3.7,3.01-6.92,4.07-8.56
	C16.06,4.41,17.95,7.63,19.07,11.33z M12.73,2.61c-1.11,1.82-2.61,4.61-3.62,7.81C8.36,9.94,7.77,9.4,7.31,8.86
	C8.8,6.07,10.69,3.68,12.73,2.61z M6.37,10.79c0.59,0.58,1.31,1.15,2.18,1.64C8.21,13.91,8,15.45,8,17c0,1.29,0.1,2.53,0.27,3.71
	c-2.35-1.06-3.5-2.54-3.99-3.37C4.65,15.33,5.38,13.01,6.37,10.79z M4,20.189C5.01,21.2,6.52,22.29,8.71,23.04
	c0.6,2.61,1.48,4.76,2.19,6.24C6.92,27.82,4.09,24.3,4,20.189z M16.51,29.9c-0.5,0.068-1,0.1-1.51,0.1s-1.01-0.03-1.51-0.1
	c-0.56-0.98-1.74-3.24-2.57-6.271C12.12,23.859,13.47,24,15,24c1.52,0,2.87-0.13,4.07-0.37C18.24,26.65,17.07,28.91,16.51,29.9z
	 M19.1,29.28c0.711-1.48,1.592-3.63,2.19-6.23c2.181-0.729,3.69-1.81,4.71-2.84C25.9,24.32,23.07,27.82,19.1,29.28z"/>
</svg>
