<?xml version="1.0" encoding="utf-8"?>
<!-- Generator: Adobe Illustrator 16.0.0, SVG Export Plug-In . SVG Version: 6.00 Build 0)  -->
<!DOCTYPE svg PUBLIC "-//W3C//DTD SVG 1.1//EN" "http://www.w3.org/Graphics/SVG/1.1/DTD/svg11.dtd">
<svg version="1.1" id="Capa_1" xmlns="http://www.w3.org/2000/svg" xmlns:xlink="http://www.w3.org/1999/xlink" x="0px" y="0px"
	 width="32px" height="32px" viewBox="0 0 32 32" enable-background="new 0 0 32 32" xml:space="preserve">
<path d="M0,4v26h30V4H0z M28,28H2v-2.47l5.07-3.38L15,26.12l7.91-3.92L28,25.54V28z M28,23.141l-4.95-3.25L15,23.88l-8.07-4.03
	L2,23.141V6h26V23.141z M14,18h2v4h-2V18z M8,14h4v2H8V14z M18,14h4v2h-4V14z M14,8h2v4h-2V8z"/>
</svg>
