<?xml version="1.0" encoding="utf-8"?>
<!-- Generator: Adobe Illustrator 16.0.0, SVG Export Plug-In . SVG Version: 6.00 Build 0)  -->
<!DOCTYPE svg PUBLIC "-//W3C//DTD SVG 1.1//EN" "http://www.w3.org/Graphics/SVG/1.1/DTD/svg11.dtd">
<svg version="1.1" id="Capa_1" xmlns="http://www.w3.org/2000/svg" xmlns:xlink="http://www.w3.org/1999/xlink" x="0px" y="0px"
	 width="32px" height="32px" viewBox="0 0 32 32" enable-background="new 0 0 32 32" xml:space="preserve">
<path d="M16,0C7.16,0,0,7.16,0,16s7.16,16,16,16s16-7.16,16-16S24.84,0,16,0z M16,30C8.28,30,2,23.72,2,16S8.28,2,16,2
	c7.721,0,14,6.28,14,14S23.721,30,16,30z M26,8h-8l-2,2.67L14,8H6l6,8l-6,8h8l2-2.67L18,24h8l-6-8L26,8z M22,22h-3l-3-4.01L13,22h-3
	l4.5-6L10,10h3l3,4.01L19,10h3l-4.5,6L22,22z"/>
</svg>
