<?xml version="1.0" encoding="utf-8"?>
<!-- Generator: Adobe Illustrator 16.0.0, SVG Export Plug-In . SVG Version: 6.00 Build 0)  -->
<!DOCTYPE svg PUBLIC "-//W3C//DTD SVG 1.1//EN" "http://www.w3.org/Graphics/SVG/1.1/DTD/svg11.dtd">
<svg version="1.1" id="Capa_1" xmlns="http://www.w3.org/2000/svg" xmlns:xlink="http://www.w3.org/1999/xlink" x="0px" y="0px"
	 width="32px" height="32px" viewBox="0 0 32 32" enable-background="new 0 0 32 32" xml:space="preserve">
<path d="M0,2v30h32V2H0z M12,4h8v8h-8V4z M12,14h8v6h-8V14z M12,22h8v4h-8V22z M10,30H2v-2h8V30z M10,26H2v-4h8V26z M10,20H2v-6h8
	V20z M10,12H2V4h8V12z M12,30v-2h8v2H12z M30,30h-8v-2h8V30z M30,26h-8v-4h8V26z M30,20h-8v-6h8V20z M30,12h-8V4h8V12z"/>
</svg>
