<?xml version="1.0" encoding="utf-8"?>
<!-- Generator: Adobe Illustrator 16.0.0, SVG Export Plug-In . SVG Version: 6.00 Build 0)  -->
<!DOCTYPE svg PUBLIC "-//W3C//DTD SVG 1.1//EN" "http://www.w3.org/Graphics/SVG/1.1/DTD/svg11.dtd">
<svg version="1.1" id="Capa_1" xmlns="http://www.w3.org/2000/svg" xmlns:xlink="http://www.w3.org/1999/xlink" x="0px" y="0px"
	 width="32px" height="32px" viewBox="0 0 32 32" enable-background="new 0 0 32 32" xml:space="preserve">
<path d="M30,12v-2h-4V8.59L23.41,6H22V2h-2v4h-2V2h-2v4h-2V2h-2v4h-2V2H8v4H6.59L4,8.59V10H0v2h4v2H0v2h4v2H0v2h4v2H0v2h4v1.41
	L6.59,28H8v4h2v-4h2v4h2v-4h2v4h2v-4h2v4h2v-4h1.41L26,25.41V24h4v-2h-4v-2h4v-2h-4v-2h4v-2h-4v-2H30z M24,24.59L22.59,26H7.41
	L6,24.59V9.41L7.41,8h15.18L24,9.41V24.59z"/>
</svg>
