<?xml version="1.0" encoding="utf-8"?>
<!-- Generator: Adobe Illustrator 16.0.0, SVG Export Plug-In . SVG Version: 6.00 Build 0)  -->
<!DOCTYPE svg PUBLIC "-//W3C//DTD SVG 1.1//EN" "http://www.w3.org/Graphics/SVG/1.1/DTD/svg11.dtd">
<svg version="1.1" id="Capa_1" xmlns="http://www.w3.org/2000/svg" xmlns:xlink="http://www.w3.org/1999/xlink" x="0px" y="0px"
	 width="32px" height="32px" viewBox="0 0 32 32" enable-background="new 0 0 32 32" xml:space="preserve">
<path d="M15,2C6.72,2,0,8.72,0,17s6.72,15,15,15c8.279,0,15-6.72,15-15S23.279,2,15,2z M15,30C8.84,30,3.67,25.689,2.34,19.93
	c2.97-0.33,4.12-1.738,4.99-2.81C7.97,16.32,8.26,16,9,16c0.96,0,1.79,1.24,2.67,2.55C12.74,20.17,13.96,22,16,22
	c1.91,0,3.13-1.22,4.21-2.29C21.12,18.79,21.91,18,23,18c0.95,0,1.43,0.58,2.2,1.6c0.53,0.7,1.1,1.48,1.979,1.94
	C25.34,26.48,20.57,30,15,30z M26.8,18.4C26,17.33,25,16,23,16c-1.91,0-3.13,1.22-4.21,2.29C17.88,19.21,17.09,20,16,20
	c-0.96,0-1.79-1.24-2.67-2.55C12.26,15.83,11.04,14,9,14c-1.72,0-2.52,0.99-3.23,1.86c-0.74,0.92-1.51,1.871-3.73,2.09
	C2.01,17.63,2,17.32,2,17C2,9.83,7.83,4,15,4s13,5.83,13,13c0,0.859-0.08,1.689-0.24,2.51C27.42,19.23,27.12,18.83,26.8,18.4z M19,8
	c-1.66,0-3,1.34-3,3s1.34,3,3,3s3-1.34,3-3S20.66,8,19,8z M19,12c-0.55,0-1-0.45-1-1s0.45-1,1-1s1,0.45,1,1S19.55,12,19,12z"/>
</svg>
