<?xml version="1.0" encoding="utf-8"?>
<!-- Generator: Adobe Illustrator 16.0.0, SVG Export Plug-In . SVG Version: 6.00 Build 0)  -->
<!DOCTYPE svg PUBLIC "-//W3C//DTD SVG 1.1//EN" "http://www.w3.org/Graphics/SVG/1.1/DTD/svg11.dtd">
<svg version="1.1" id="Capa_1" xmlns="http://www.w3.org/2000/svg" xmlns:xlink="http://www.w3.org/1999/xlink" x="0px" y="0px"
	 width="32px" height="32px" viewBox="0 0 32 32" enable-background="new 0 0 32 32" xml:space="preserve">
<path d="M25,0H10C8,0,8,2,8,2v12h2V2.04c0-0.01,0-0.02,0.01-0.04H22v5c0,1.21,0.8,3,3,3h5v19.96c0,0.01,0,0.021-0.01,0.04H10.04
	c-0.01,0-0.02,0-0.04-0.01V20H8v10c0,2,2,2,2,2h20c2,0,2-2,2-2V7L25,0z M30,8h-5c-0.811,0-0.99-0.55-1-1V2h0.17L30,7.83V8z M18,17
	L18,17l-4.29,4.71l-1.42-1.42l2.3-2.29H2v-2h12.59l-2.3-2.29l1.42-1.42L18,17z"/>
</svg>
