<?xml version="1.0" encoding="utf-8"?>
<!-- Generator: Adobe Illustrator 16.0.0, SVG Export Plug-In . SVG Version: 6.00 Build 0)  -->
<!DOCTYPE svg PUBLIC "-//W3C//DTD SVG 1.1//EN" "http://www.w3.org/Graphics/SVG/1.1/DTD/svg11.dtd">
<svg version="1.1" id="Capa_1" xmlns="http://www.w3.org/2000/svg" xmlns:xlink="http://www.w3.org/1999/xlink" x="0px" y="0px"
	 width="32px" height="32px" viewBox="0 0 32 32" enable-background="new 0 0 32 32" xml:space="preserve">
<path d="M15,0c-2.76,0-5,2.24-5,5s2.24,5,5,5s5-2.24,5-5S17.76,0,15,0z M15,8c-1.65,0-3-1.35-3-3s1.35-3,3-3c1.65,0,3,1.35,3,3
	S16.65,8,15,8z M2,10v2h10v20h2V22h2v10h2V12h10v-2H2z M16,20h-2v-8h2V20z"/>
</svg>
