<?xml version="1.0" encoding="utf-8"?>
<!-- Generator: Adobe Illustrator 16.0.0, SVG Export Plug-In . SVG Version: 6.00 Build 0)  -->
<!DOCTYPE svg PUBLIC "-//W3C//DTD SVG 1.1//EN" "http://www.w3.org/Graphics/SVG/1.1/DTD/svg11.dtd">
<svg version="1.1" id="Capa_1" xmlns="http://www.w3.org/2000/svg" xmlns:xlink="http://www.w3.org/1999/xlink" x="0px" y="0px"
	 width="32px" height="32px" viewBox="0 0 32 32" enable-background="new 0 0 32 32" xml:space="preserve">
<path d="M32,7.07L24.93,0l-5.66,5.66L13.61,0L6.54,7.07l5.66,5.65v0.01L0.89,24.04l7.07,7.07L19.28,19.8l5.649,5.66L32,18.39
	l-5.66-5.66L32,7.07z M20.69,7.07l4.239-4.24l4.24,4.24l-4.24,4.24L20.69,7.08V7.07z M9.37,7.07l4.24-4.24l4.25,4.24l-4.24,4.24
	v0.01l-0.01-0.01L9.37,7.07z M7.96,28.29l-4.24-4.25l4.24-4.24l4.24,4.24L7.96,28.29z M13.62,22.63l-4.25-4.25l4.24-4.24l4.25,4.25
	L13.62,22.63z M19.27,16.97l-4.24-4.24l4.24-4.24h0.011l4.229,4.24L19.27,16.97z M29.17,18.39l-4.24,4.24l-4.239-4.24v-0.01
	l4.239-4.24L29.17,18.39z"/>
</svg>
