<?xml version="1.0" encoding="utf-8"?>
<!-- Generator: Adobe Illustrator 16.0.0, SVG Export Plug-In . SVG Version: 6.00 Build 0)  -->
<!DOCTYPE svg PUBLIC "-//W3C//DTD SVG 1.1//EN" "http://www.w3.org/Graphics/SVG/1.1/DTD/svg11.dtd">
<svg version="1.1" id="Capa_1" xmlns="http://www.w3.org/2000/svg" xmlns:xlink="http://www.w3.org/1999/xlink" x="0px" y="0px"
	 width="32px" height="32px" viewBox="0 0 32 32" enable-background="new 0 0 32 32" xml:space="preserve">
<path d="M32,2.96c0,0.55-0.45,1-1,1h-1V5c0,0.55-0.45,1-1,1s-1-0.45-1-1V3.96h-1c-0.55,0-1-0.45-1-1s0.45-1,1-1h1V1
	c0-0.55,0.45-1,1-1s1,0.45,1,1v0.96h1C31.55,1.96,32,2.41,32,2.96z M16,4C8.28,4,2,10.28,2,18s6.28,14,14,14c7.721,0,14-6.28,14-14
	S23.721,4,16,4z M16,30C9.38,30,4,24.62,4,18S9.38,6,16,6s12,5.38,12,12S22.62,30,16,30z M26,15c0,0.55-0.45,1-1,1h-1v1
	c0,0.55-0.45,1-1,1s-1-0.45-1-1v-1h-1c-0.55,0-1-0.45-1-1s0.45-1,1-1h1v-1c0-0.55,0.45-1,1-1s1,0.45,1,1v1h1
	C25.55,14,26,14.45,26,15z M18,11c0,0.55-0.45,1-1,1h-1v1c0,0.55-0.45,1-1,1s-1-0.45-1-1v-1h-1c-0.55,0-1-0.45-1-1s0.45-1,1-1h1V9
	c0-0.55,0.45-1,1-1s1,0.45,1,1v1h1C17.55,10,18,10.45,18,11z"/>
</svg>
