<?xml version="1.0" encoding="utf-8"?>
<!-- Generator: Adobe Illustrator 16.0.0, SVG Export Plug-In . SVG Version: 6.00 Build 0)  -->
<!DOCTYPE svg PUBLIC "-//W3C//DTD SVG 1.1//EN" "http://www.w3.org/Graphics/SVG/1.1/DTD/svg11.dtd">
<svg version="1.1" id="Capa_1" xmlns="http://www.w3.org/2000/svg" xmlns:xlink="http://www.w3.org/1999/xlink" x="0px" y="0px"
	 width="32px" height="32px" viewBox="0 0 32 32" enable-background="new 0 0 32 32" xml:space="preserve">
<path d="M2,4v22l28,4V8L2,4z M28,27.689L4,24.27v-2.55l4.85-1.62l6.18,4.12l7.88-5.899L28,23.421V27.689z M28,20.58l-4.91-4.9
	l-8.12,6.1L9.15,17.9L4,19.609V6.31l24,3.42V20.58z M9,10c-1.66,0-3,1.34-3,3s1.34,3,3,3s3-1.34,3-3S10.66,10,9,10z M9,14
	c-0.55,0-1-0.45-1-1s0.45-1,1-1s1,0.45,1,1S9.55,14,9,14z"/>
</svg>
