<?xml version="1.0" encoding="utf-8"?>
<!-- Generator: Adobe Illustrator 16.0.0, SVG Export Plug-In . SVG Version: 6.00 Build 0)  -->
<!DOCTYPE svg PUBLIC "-//W3C//DTD SVG 1.1//EN" "http://www.w3.org/Graphics/SVG/1.1/DTD/svg11.dtd">
<svg version="1.1" id="Capa_1" xmlns="http://www.w3.org/2000/svg" xmlns:xlink="http://www.w3.org/1999/xlink" x="0px" y="0px"
	 width="32px" height="32px" viewBox="0 0 32 32" enable-background="new 0 0 32 32" xml:space="preserve">
<path d="M29,16h-5.061c-0.189-1.73-0.869-3.32-1.92-4.61l3.689-3.68c0.391-0.39,0.391-1.03,0-1.42s-1.029-0.39-1.42,0l-3.68,3.69
	C19.32,8.93,17.73,8.25,16,8.06V3c0-0.55-0.45-1-1-1s-1,0.45-1,1v5.06c-1.73,0.19-3.32,0.87-4.61,1.92L5.71,6.29
	c-0.39-0.39-1.03-0.39-1.42,0s-0.39,1.03,0,1.42l3.69,3.68C6.93,12.68,6.25,14.27,6.06,16H1c-0.55,0-1,0.45-1,1s0.45,1,1,1h5.06
	c0.19,1.73,0.87,3.32,1.92,4.609L4.29,26.29c-0.39,0.39-0.39,1.03,0,1.42C4.49,27.9,4.74,28,5,28s0.51-0.1,0.71-0.29l3.68-3.69
	c1.29,1.051,2.88,1.73,4.61,1.922V31c0,0.55,0.45,1,1,1s1-0.45,1-1v-5.061c1.73-0.189,3.32-0.869,4.609-1.909l3.681,3.68
	C24.49,27.9,24.74,28,25,28s0.51-0.1,0.71-0.29c0.39-0.39,0.39-1.03,0-1.42l-3.681-3.681C23.07,21.32,23.75,19.73,23.939,18H29
	c0.55,0,1-0.45,1-1S29.55,16,29,16z M15,24c-3.86,0-7-3.141-7-7c0-3.86,3.14-7,7-7c3.859,0,7,3.14,7,7C22,20.859,18.859,24,15,24z"
	/>
</svg>
