<?xml version="1.0" encoding="utf-8"?>
<!-- Generator: Adobe Illustrator 16.0.0, SVG Export Plug-In . SVG Version: 6.00 Build 0)  -->
<!DOCTYPE svg PUBLIC "-//W3C//DTD SVG 1.1//EN" "http://www.w3.org/Graphics/SVG/1.1/DTD/svg11.dtd">
<svg version="1.1" id="Capa_1" xmlns="http://www.w3.org/2000/svg" xmlns:xlink="http://www.w3.org/1999/xlink" x="0px" y="0px"
	 width="32px" height="32px" viewBox="0 0 32 32" enable-background="new 0 0 32 32" xml:space="preserve">
<path d="M26,6v2h-4V6h-2V4H10v2H8v2H4V6h2V4h2V2h14v2h2v2H26z M2,12v10h2v4H2v-2H0V10h2V8h2v4H2z M26,26v2h-2v2h-2v2H8v-2H6v-2H4v-2
	h4v2h2v2h10v-2h2v-2H26z M30,10v14h-2v2h-2v-4h2V12h-2V8h2v2H30z"/>
</svg>
