<?xml version="1.0" encoding="utf-8"?>
<!-- Generator: Adobe Illustrator 16.0.0, SVG Export Plug-In . SVG Version: 6.00 Build 0)  -->
<!DOCTYPE svg PUBLIC "-//W3C//DTD SVG 1.1//EN" "http://www.w3.org/Graphics/SVG/1.1/DTD/svg11.dtd">
<svg version="1.1" id="Capa_1" xmlns="http://www.w3.org/2000/svg" xmlns:xlink="http://www.w3.org/1999/xlink" x="0px" y="0px"
	 width="32px" height="32px" viewBox="0 0 32 32" enable-background="new 0 0 32 32" xml:space="preserve">
<path d="M19,2l-9,4v8.44L2,18v10l9,4l9-4v-8.439L28,16V6L19,2z M10,29.37L4,26.7v-6.08l6,3V29.37z M4.97,18.87L11,16.19l6.029,2.68
	L11,21.88L4.97,18.87z M18,26.7l-6,2.67v-5.75l6-3V26.7z M18,17.109l-6-2.669V8.62l6,3V17.109z M19,9.88l-6.03-3.01L19,4.19
	l6.029,2.68L19,9.88z M26,14.7l-6,2.67v-5.75l6-3V14.7z"/>
</svg>
