<?xml version="1.0" encoding="utf-8"?>
<!-- Generator: Adobe Illustrator 16.0.0, SVG Export Plug-In . SVG Version: 6.00 Build 0)  -->
<!DOCTYPE svg PUBLIC "-//W3C//DTD SVG 1.1//EN" "http://www.w3.org/Graphics/SVG/1.1/DTD/svg11.dtd">
<svg version="1.1" id="Capa_1" xmlns="http://www.w3.org/2000/svg" xmlns:xlink="http://www.w3.org/1999/xlink" x="0px" y="0px"
	 width="32px" height="32px" viewBox="0 0 32 32" enable-background="new 0 0 32 32" xml:space="preserve">
<path d="M4,13c0,2.82,2.5,2.99,3.01,3H10v-2h4v2h-2v2h2v2h-4v-2H7c-1.73,0-5-1.04-5-5s3.27-5,5-5h21v2H7C6.5,10.01,4,10.18,4,13z
	 M28,21c0,3.96-3.27,5-5,5H2v-2h21c0.5-0.01,3-0.18,3-3s-2.5-2.99-3.01-3H20v2h-4v-2h2v-2h-2v-2h4v2h3C24.73,16,28,17.04,28,21z"/>
</svg>
