<?xml version="1.0" encoding="utf-8"?>
<!-- Generator: Adobe Illustrator 16.0.0, SVG Export Plug-In . SVG Version: 6.00 Build 0)  -->
<!DOCTYPE svg PUBLIC "-//W3C//DTD SVG 1.1//EN" "http://www.w3.org/Graphics/SVG/1.1/DTD/svg11.dtd">
<svg version="1.1" id="Capa_1" xmlns="http://www.w3.org/2000/svg" xmlns:xlink="http://www.w3.org/1999/xlink" x="0px" y="0px"
	 width="32px" height="32px" viewBox="0 0 32 32" enable-background="new 0 0 32 32" xml:space="preserve">
<path d="M27.91,4.07c-1.37-1.37-3.16-2.05-4.95-2.05s-3.58,0.68-4.95,2.05c-0.74,0.74-1.279,1.6-1.61,2.52L2.16,28.45
	c-0.26,0.399-0.2,0.92,0.13,1.26C2.49,29.9,2.74,30,3,30c0.19,0,0.38-0.05,0.55-0.16l21.83-14.27l0.04-0.02
	c0.91-0.33,1.76-0.86,2.49-1.59C30.641,11.23,30.641,6.8,27.91,4.07z M22.96,4.02c0.99,0,1.94,0.29,2.75,0.83L22.96,7.6L20.2,4.85
	C21.01,4.31,21.96,4.02,22.96,4.02z M18.79,6.26l2.76,2.76l-2.76,2.75c-0.54-0.81-0.83-1.76-0.83-2.75
	C17.96,8.02,18.25,7.07,18.79,6.26z M6.43,25.57l9.72-14.95c0.28,1.23,0.9,2.39,1.86,3.35c0.95,0.95,2.11,1.57,3.33,1.85L6.43,25.57
	z M22.96,14.02c-1,0-1.95-0.29-2.76-0.84l2.76-2.75l2.761,2.76C24.91,13.73,23.95,14.02,22.96,14.02z M27.13,11.77l-2.76-2.75
	l2.76-2.76C28.23,7.92,28.23,10.1,27.13,11.77z"/>
</svg>
