<?xml version="1.0" encoding="utf-8"?>
<!-- Generator: Adobe Illustrator 16.0.0, SVG Export Plug-In . SVG Version: 6.00 Build 0)  -->
<!DOCTYPE svg PUBLIC "-//W3C//DTD SVG 1.1//EN" "http://www.w3.org/Graphics/SVG/1.1/DTD/svg11.dtd">
<svg version="1.1" id="Capa_1" xmlns="http://www.w3.org/2000/svg" xmlns:xlink="http://www.w3.org/1999/xlink" x="0px" y="0px"
	 width="32px" height="32px" viewBox="0 0 32 32" enable-background="new 0 0 32 32" xml:space="preserve">
<path d="M28.29,11.71l1.42-1.42L25.3,5.88l2.37-2.14l-1.34-1.48L7.85,18.891C7.04,18.33,6.06,18,5,18c-2.76,0-5,2.24-5,5s2.24,5,5,5
	s5-2.24,5-5c0-0.98-0.28-1.9-0.77-2.67l11.411-10.27l3.649,3.65l1.42-1.42l-3.569-3.57l1.659-1.5L28.29,11.71z M5,26
	c-1.65,0-3-1.35-3-3s1.35-3,3-3s3,1.35,3,3S6.65,26,5,26z"/>
</svg>
