<?xml version="1.0" encoding="utf-8"?>
<!-- Generator: Adobe Illustrator 16.0.0, SVG Export Plug-In . SVG Version: 6.00 Build 0)  -->
<!DOCTYPE svg PUBLIC "-//W3C//DTD SVG 1.1//EN" "http://www.w3.org/Graphics/SVG/1.1/DTD/svg11.dtd">
<svg version="1.1" id="Capa_1" xmlns="http://www.w3.org/2000/svg" xmlns:xlink="http://www.w3.org/1999/xlink" x="0px" y="0px"
	 width="32px" height="32px" viewBox="0 0 32 32" enable-background="new 0 0 32 32" xml:space="preserve">
<path d="M17,18c0.552,0,1,0.448,1,1s-0.448,1-1,1c-0.551,0-1-0.448-1-1S16.449,18,17,18L17,18z M17,16c-1.657,0-3,1.343-3,3
	s1.343,3,3,3c1.656,0,3-1.343,3-3S18.656,16,17,16L17,16z M26,22c2.206,0,4,1.794,4,4s-1.794,4-4,4s-4-1.794-4-4S23.794,22,26,22
	L26,22z M26,20c-3.313,0-6,2.688-6,6s2.688,6,6,6s6-2.688,6-6S29.313,20,26,20L26,20z M17,8h-3.1c-0.13-0.64-0.38-1.23-0.72-1.76
	l0.53-0.53c0.39-0.39,0.39-1.03,0-1.42s-1.03-0.39-1.42,0l-0.53,0.53C11.23,4.48,10.64,4.23,10,4.1V1c0-0.55-0.45-1-1-1S8,0.45,8,1
	v3.1C7.36,4.23,6.77,4.48,6.24,4.82L5.71,4.29c-0.39-0.39-1.03-0.39-1.42,0s-0.39,1.03,0,1.42l0.53,0.53C4.48,6.77,4.23,7.36,4.1,8
	H1C0.45,8,0,8.45,0,9s0.45,1,1,1h3.1c0.13,0.64,0.38,1.23,0.73,1.76l-0.54,0.53c-0.39,0.39-0.39,1.03,0,1.42C4.49,13.9,4.74,14,5,14
	s0.51-0.1,0.71-0.29l0.53-0.54c0.53,0.35,1.12,0.6,1.76,0.73V17c0,0.55,0.45,1,1,1s1-0.45,1-1v-3.1c0.64-0.13,1.23-0.38,1.76-0.73
	l0.53,0.54C12.49,13.9,12.74,14,13,14s0.51-0.1,0.71-0.29c0.39-0.39,0.39-1.03,0-1.42l-0.54-0.53c0.35-0.53,0.6-1.12,0.73-1.76H17
	c0.55,0,1-0.45,1-1S17.55,8,17,8z M9,12c-1.65,0-3-1.35-3-3s1.35-3,3-3s3,1.35,3,3S10.65,12,9,12z"/>
</svg>
