<?xml version="1.0" encoding="utf-8"?>
<!-- Generator: Adobe Illustrator 16.0.0, SVG Export Plug-In . SVG Version: 6.00 Build 0)  -->
<!DOCTYPE svg PUBLIC "-//W3C//DTD SVG 1.1//EN" "http://www.w3.org/Graphics/SVG/1.1/DTD/svg11.dtd">
<svg version="1.1" id="Capa_1" xmlns="http://www.w3.org/2000/svg" xmlns:xlink="http://www.w3.org/1999/xlink" x="0px" y="0px"
	 width="32px" height="32px" viewBox="0 0 32 32" enable-background="new 0 0 32 32" xml:space="preserve">
<path d="M18.41,7l-4.7,4.71l-1.42-1.42l2.28-2.28C9.81,8.23,6,12.18,6,17c0,3.45,1.95,6.45,4.8,7.96l-1.47,1.47
	C6.14,24.51,4,21.01,4,17C4,11.06,8.7,6.22,14.59,6.01l-2.3-2.3l1.42-1.42L18.41,7z M15.41,27.99l2.3,2.3l-1.42,1.42L11.59,27
	l4.7-4.71l1.42,1.42l-2.29,2.28C20.189,25.77,24,21.82,24,17c0-3.45-1.95-6.45-4.8-7.96l1.47-1.47C23.859,9.49,26,12.99,26,17
	C26,22.939,21.3,27.779,15.41,27.99z"/>
</svg>
