<?xml version="1.0" encoding="utf-8"?>
<!-- Generator: Adobe Illustrator 16.0.0, SVG Export Plug-In . SVG Version: 6.00 Build 0)  -->
<!DOCTYPE svg PUBLIC "-//W3C//DTD SVG 1.1//EN" "http://www.w3.org/Graphics/SVG/1.1/DTD/svg11.dtd">
<svg version="1.1" id="Capa_1" xmlns="http://www.w3.org/2000/svg" xmlns:xlink="http://www.w3.org/1999/xlink" x="0px" y="0px"
	 width="32px" height="32px" viewBox="0 0 32 32" enable-background="new 0 0 32 32" xml:space="preserve">
<path d="M23.45,9.97C25.05,11.88,26,14.32,26,17c0,5.939-4.7,10.78-10.59,10.99l2.3,2.3l-1.42,1.42L11.59,27l4.7-4.71l1.42,1.42
	l-2.29,2.28C20.189,25.77,24,21.82,24,17c0-2.12-0.74-4.07-1.971-5.61L9.39,24.03c0.44,0.35,0.91,0.659,1.41,0.93l-1.47,1.47
	C8.85,26.141,8.4,25.82,7.97,25.45l-4.26,4.26l-1.42-1.42l4.26-4.26C4.95,22.12,4,19.68,4,17C4,11.06,8.7,6.22,14.59,6.01l-2.3-2.3
	l1.42-1.42L18.41,7l-4.7,4.71l-1.42-1.42l2.28-2.28C9.81,8.23,6,12.18,6,17c0,2.12,0.74,4.07,1.97,5.609L20.609,9.97
	C20.17,9.62,19.7,9.31,19.2,9.04l1.47-1.47c0.48,0.29,0.93,0.61,1.359,0.98l4.261-4.26l1.42,1.42L23.45,9.97z"/>
</svg>
