<?xml version="1.0" encoding="utf-8"?>
<!-- Generator: Adobe Illustrator 16.0.0, SVG Export Plug-In . SVG Version: 6.00 Build 0)  -->
<!DOCTYPE svg PUBLIC "-//W3C//DTD SVG 1.1//EN" "http://www.w3.org/Graphics/SVG/1.1/DTD/svg11.dtd">
<svg version="1.1" id="Capa_1" xmlns="http://www.w3.org/2000/svg" xmlns:xlink="http://www.w3.org/1999/xlink" x="0px" y="0px"
	 width="32px" height="32px" viewBox="0 0 32 32" enable-background="new 0 0 32 32" xml:space="preserve">
<path d="M28,2V0H9C5.04,0,4,3.27,4,5v22c0,1.73,1.04,5,5,5h19V8h-2V2H28z M6,5c0.01-0.52,0.19-3,3-3h15v6H9C6.18,8,6.01,5.5,6,5.01
	V5z M26,30H9c-2.82,0-2.99-2.5-3-3V9.12C6.73,9.65,7.71,10,9,10h17V30z M16,12c-4.42,0-8,3.58-8,8s3.58,8,8,8s8-3.58,8-8
	S20.42,12,16,12z M16,14c1.77,0,3.37,0.77,4.46,2h-8.92C12.63,14.77,14.23,14,16,14z M16,26c-1.77,0-3.37-0.77-4.46-2h8.92
	C19.37,25.23,17.77,26,16,26z M21.65,22h-11.3C10.12,21.37,10,20.7,10,20s0.12-1.37,0.35-2h11.3C21.88,18.63,22,19.3,22,20
	S21.88,21.37,21.65,22z"/>
</svg>
