<?xml version="1.0" encoding="utf-8"?>
<!-- Generator: Adobe Illustrator 16.0.0, SVG Export Plug-In . SVG Version: 6.00 Build 0)  -->
<!DOCTYPE svg PUBLIC "-//W3C//DTD SVG 1.1//EN" "http://www.w3.org/Graphics/SVG/1.1/DTD/svg11.dtd">
<svg version="1.1" id="Capa_1" xmlns="http://www.w3.org/2000/svg" xmlns:xlink="http://www.w3.org/1999/xlink" x="0px" y="0px"
	 width="32px" height="32px" viewBox="0 0 32 32" enable-background="new 0 0 32 32" xml:space="preserve">
<path d="M15,2C6.72,2,0,8.72,0,17s6.72,15,15,15c8.279,0,15-6.72,15-15S23.279,2,15,2z M27.24,12.61c-1.34-0.71-3.26-1.49-5.852-2
	c-0.51-2.59-1.289-4.51-2-5.85C23.029,6.07,25.93,8.97,27.24,12.61z M20,17c0,1.75-0.13,3.3-0.33,4.67C18.3,21.87,16.75,22,15,22
	s-3.3-0.13-4.67-0.33C10.13,20.3,10,18.75,10,17s0.13-3.3,0.33-4.67C11.7,12.13,13.25,12,15,12s3.3,0.13,4.67,0.33
	C19.87,13.7,20,15.25,20,17z M13.38,4.11C13.91,4.03,14.45,4,15,4s1.09,0.03,1.62,0.11c0.601,0.78,1.851,2.75,2.649,6.15
	C17.98,10.09,16.561,10,15,10c-1.56,0-2.98,0.09-4.27,0.26C11.53,6.86,12.78,4.89,13.38,4.11z M10.61,4.76
	c-0.71,1.34-1.49,3.26-2,5.85c-2.59,0.51-4.51,1.29-5.85,2C4.07,8.97,6.97,6.07,10.61,4.76z M2,17c0-0.55,0.03-1.09,0.11-1.62
	c0.78-0.6,2.75-1.85,6.15-2.65C8.09,14.02,8,15.44,8,17c0,1.561,0.09,2.98,0.26,4.27c-3.4-0.8-5.37-2.05-6.15-2.648
	C2.03,18.09,2,17.55,2,17z M2.76,21.391c1.34,0.709,3.26,1.489,5.85,2c0.51,2.59,1.29,4.51,2,5.851
	C6.97,27.93,4.07,25.03,2.76,21.391z M16.62,29.891C16.09,29.97,15.55,30,15,30s-1.09-0.03-1.62-0.109
	c-0.6-0.779-1.85-2.75-2.65-6.149C12.02,23.91,13.44,24,15,24c1.561,0,2.98-0.09,4.27-0.26
	C18.471,27.141,17.221,29.109,16.62,29.891z M19.391,29.24c0.709-1.34,1.489-3.26,2-5.852c2.59-0.51,4.51-1.289,5.851-2
	C25.93,25.03,23.029,27.93,19.391,29.24z M21.74,21.27C21.91,19.98,22,18.561,22,17c0-1.56-0.09-2.98-0.26-4.27
	c3.398,0.8,5.369,2.05,6.148,2.65C27.971,15.91,28,16.45,28,17s-0.029,1.09-0.109,1.62C27.109,19.22,25.141,20.47,21.74,21.27z"/>
</svg>
