<?xml version="1.0" encoding="utf-8"?>
<!-- Generator: Adobe Illustrator 16.0.0, SVG Export Plug-In . SVG Version: 6.00 Build 0)  -->
<!DOCTYPE svg PUBLIC "-//W3C//DTD SVG 1.1//EN" "http://www.w3.org/Graphics/SVG/1.1/DTD/svg11.dtd">
<svg version="1.1" id="Capa_1" xmlns="http://www.w3.org/2000/svg" xmlns:xlink="http://www.w3.org/1999/xlink" x="0px" y="0px"
	 width="32px" height="32px" viewBox="0 0 32 32" enable-background="new 0 0 32 32" xml:space="preserve">
<path d="M21,7.8l-6,3.99L9,7.8l-7,4.66v9.08l7,4.66l6-3.99l6,3.99l7-4.66v-9.08L21,7.8z M8,23.13l-4-2.67v-5.6l4,2.67V23.13z
	 M4.8,13L9,10.2l4.2,2.8L9,15.8L4.8,13z M14,20.46l-4,2.67v-5.6l4-2.67V20.46z M20,23.13l-4-2.67v-5.6l4,2.67V23.13z M16.8,13
	l4.2-2.8l4.2,2.8L21,15.8L16.8,13z M26,20.46l-4,2.67v-5.6l4-2.67V20.46z M12,2h6l-3,4L12,2z M12,30h6l-3-4L12,30z"/>
</svg>
