<?xml version="1.0" encoding="utf-8"?>
<!-- Generator: Adobe Illustrator 16.0.0, SVG Export Plug-In . SVG Version: 6.00 Build 0)  -->
<!DOCTYPE svg PUBLIC "-//W3C//DTD SVG 1.1//EN" "http://www.w3.org/Graphics/SVG/1.1/DTD/svg11.dtd">
<svg version="1.1" id="Capa_1" xmlns="http://www.w3.org/2000/svg" xmlns:xlink="http://www.w3.org/1999/xlink" x="0px" y="0px"
	 width="32px" height="32px" viewBox="0 0 32 32" enable-background="new 0 0 32 32" xml:space="preserve">
<path d="M18,2l-3,4l-3-4H18z M18,30h-6l3-4L18,30z M22,8c-3.02,0-5.65,1.67-7,4.14C13.65,9.67,11.02,8,8,8c-4.42,0-8,3.58-8,8
	s3.58,8,8,8c3.02,0,5.65-1.67,7-4.141C16.35,22.33,18.98,24,22,24c4.42,0,8-3.58,8-8S26.42,8,22,8z M8,22c-3.31,0-6-2.689-6-6
	c0-3.31,2.69-6,6-6s6,2.69,6,6C14,19.311,11.31,22,8,22z M22,22c-3.311,0-6-2.689-6-6c0-3.31,2.689-6,6-6s6,2.69,6,6
	C28,19.311,25.311,22,22,22z"/>
</svg>
