<?xml version="1.0" encoding="utf-8"?>
<!-- Generator: Adobe Illustrator 16.0.0, SVG Export Plug-In . SVG Version: 6.00 Build 0)  -->
<!DOCTYPE svg PUBLIC "-//W3C//DTD SVG 1.1//EN" "http://www.w3.org/Graphics/SVG/1.1/DTD/svg11.dtd">
<svg version="1.1" id="Capa_1" xmlns="http://www.w3.org/2000/svg" xmlns:xlink="http://www.w3.org/1999/xlink" x="0px" y="0px"
	 width="32px" height="32px" viewBox="0 0 32 32" enable-background="new 0 0 32 32" xml:space="preserve">
<path d="M24.043,2C29.649,2,29.989,7.077,30,8.083c0,2.999-1.083,3.295-3.242,3.886C24.979,12.457,22,13.273,22,17
	c0,2.828,1.494,4.323,2.586,5.414C25.566,23.395,26,23.876,26,25c0,2.814-3.341,2.993-4,3c-2.095,0-2.759-0.841-3.601-1.904
	C17.7,25.211,16.743,24,15,24c-1.848,0-2.731,1.536-3.377,2.657C10.677,28.301,9.699,30,6.167,30C2.251,30,2.009,25.999,2,25.206
	c0.001-0.123,0.062-3.018,2.895-4.417C6.048,20.212,8,18.555,8,16c0-2.435-1.977-3.503-3.285-4.21C3.08,10.906,2,10.322,2,8
	c0-3.653,3.073-3.985,4-4c2.048,0,2.423,0.776,3.17,2.323C9.878,7.787,10.947,10,14,10c2.934,0,4.05-2.395,4.865-4.144
	C19.868,3.702,20.66,2,24.043,2 M24.043,0C16.084,0,18,8,14,8c-4,0-2-6-8-6c0,0-6,0-6,6s6,5,6,8c0,2-2,3-2,3
	c-4.047,2-4,6.208-4,6.208S0,32,6.167,32C13.333,32,13,26,15,26c2,0,2,4,7,4c0,0,6,0,6-5c0-4-4-4-4-8c0-5,8-0.833,8-8.917
	C32,8.083,32,0,24.043,0L24.043,0z"/>
</svg>
