<?xml version="1.0" encoding="utf-8"?>
<!-- Generator: Adobe Illustrator 16.0.0, SVG Export Plug-In . SVG Version: 6.00 Build 0)  -->
<!DOCTYPE svg PUBLIC "-//W3C//DTD SVG 1.1//EN" "http://www.w3.org/Graphics/SVG/1.1/DTD/svg11.dtd">
<svg version="1.1" id="Capa_1" xmlns="http://www.w3.org/2000/svg" xmlns:xlink="http://www.w3.org/1999/xlink" x="0px" y="0px"
	 width="32px" height="32px" viewBox="0 0 32 32" enable-background="new 0 0 32 32" xml:space="preserve">
<path d="M9,8c7,0,7,5,10,5s3-2,6-2c2.76,0,5,2.24,5,5s-2.24,5-5,5c-3,0-3-2-6-2c-4,0-4,5-10,5c-4,0-7-3.03-7-8C2,11.03,5,8,9,8 M9,6
	c-5.299,0-9,4.112-9,10s3.701,10,9,10c4.144,0,6.113-2.01,7.551-3.478C17.656,21.395,18.121,21,19,21
	c0.895,0,1.228,0.222,1.891,0.664C21.736,22.228,22.895,23,25,23c3.859,0,7-3.141,7-7c0-3.86-3.141-7-7-7
	c-2.105,0-3.264,0.772-4.109,1.336C20.228,10.778,19.895,11,19,11c-0.278,0-0.608-0.329-1.297-1.08C16.272,8.359,14.11,6,9,6L9,6z"
	/>
</svg>
