<?xml version="1.0" encoding="utf-8"?>
<!-- Generator: Adobe Illustrator 16.0.0, SVG Export Plug-In . SVG Version: 6.00 Build 0)  -->
<!DOCTYPE svg PUBLIC "-//W3C//DTD SVG 1.1//EN" "http://www.w3.org/Graphics/SVG/1.1/DTD/svg11.dtd">
<svg version="1.1" id="Capa_1" xmlns="http://www.w3.org/2000/svg" xmlns:xlink="http://www.w3.org/1999/xlink" x="0px" y="0px"
	 width="32px" height="32px" viewBox="0 0 32 32" enable-background="new 0 0 32 32" xml:space="preserve">
<path d="M0,0v32h32V0H0z M12,2h8v8h-8V2z M12,12h8v8h-8V12z M10,30H2v-8h8V30z M10,20H2v-8h8V20z M10,10H2V2h8V10z M12,30v-8h8v8H12
	z M30,30h-8v-8h8V30z M30,20h-8v-8h8V20z M30,10h-8V2h8V10z"/>
</svg>
