<?xml version="1.0" encoding="utf-8"?>
<!-- Generator: Adobe Illustrator 16.0.0, SVG Export Plug-In . SVG Version: 6.00 Build 0)  -->
<!DOCTYPE svg PUBLIC "-//W3C//DTD SVG 1.1//EN" "http://www.w3.org/Graphics/SVG/1.1/DTD/svg11.dtd">
<svg version="1.1" id="Capa_1" xmlns="http://www.w3.org/2000/svg" xmlns:xlink="http://www.w3.org/1999/xlink" x="0px" y="0px"
	 width="32px" height="32px" viewBox="0 0 32 32" enable-background="new 0 0 32 32" xml:space="preserve">
<path d="M21,24h-3v-2h3c0.807,0,0.988-0.55,1-1.012V11c0-0.805-0.55-0.988-1.012-1H7c-0.805,0-0.988,0.55-1,1.012V14H4v-3
	c0-1.206,0.799-3,3-3h14c1.206,0,3,0.799,3,3v10C24,22.206,23.201,24,21,24z M8,18c3.309,0,6,2.691,6,6s-2.691,6-6,6s-6-2.691-6-6
	S4.691,18,8,18 M8,16c-4.418,0-8,3.582-8,8s3.582,8,8,8s8-3.582,8-8S12.418,16,8,16L8,16z M32,16h-6v-2h4V2H14v4h-2V0h20V16z"/>
</svg>
