<?xml version="1.0" encoding="utf-8"?>
<!-- Generator: Adobe Illustrator 16.0.0, SVG Export Plug-In . SVG Version: 6.00 Build 0)  -->
<!DOCTYPE svg PUBLIC "-//W3C//DTD SVG 1.1//EN" "http://www.w3.org/Graphics/SVG/1.1/DTD/svg11.dtd">
<svg version="1.1" id="Capa_1" xmlns="http://www.w3.org/2000/svg" xmlns:xlink="http://www.w3.org/1999/xlink" x="0px" y="0px"
	 width="32px" height="32px" viewBox="0 0 32 32" enable-background="new 0 0 32 32" xml:space="preserve">
<path d="M23,8H0v2h17.359c-0.709,0.56-1.331,1.24-1.839,2H0v2h14.52c-0.23,0.64-0.39,1.31-0.46,2H0v2h14.06
	c0.07,0.689,0.23,1.359,0.46,2H0v2h15.52c0.51,0.76,1.13,1.439,1.839,2H0v2h23c4.971,0,9-4.03,9-9S27.971,8,23,8z M23,24
	c-3.859,0-7-3.141-7-7c0-3.86,3.141-7,7-7s7,3.14,7,7C30,20.859,26.859,24,23,24z"/>
</svg>
