<?xml version="1.0" encoding="utf-8"?>
<!-- Generator: Adobe Illustrator 16.0.0, SVG Export Plug-In . SVG Version: 6.00 Build 0)  -->
<!DOCTYPE svg PUBLIC "-//W3C//DTD SVG 1.1//EN" "http://www.w3.org/Graphics/SVG/1.1/DTD/svg11.dtd">
<svg version="1.1" id="Capa_1" xmlns="http://www.w3.org/2000/svg" xmlns:xlink="http://www.w3.org/1999/xlink" x="0px" y="0px"
	 width="32px" height="32px" viewBox="0 0 32 32" enable-background="new 0 0 32 32" xml:space="preserve">
<path d="M25,12h-3V8H10v4H7.01C6.5,11.99,4,11.82,4,9V2H2v7c0,3.96,3.27,5,5,5h3v4h12v-4h3c2.82,0,2.99,2.5,3,3v6
	c0,2.82-2.5,2.99-3,3H5.41l2.3-2.29l-1.42-1.42L1.59,27l4.7,4.71l1.42-1.42L5.41,28H25c1.73,0,5-1.04,5-5v-6
	C30,15.27,28.96,12,25,12z M20,16h-8v-6h8V16z"/>
</svg>
