<?xml version="1.0" encoding="utf-8"?>
<!-- Generator: Adobe Illustrator 16.0.0, SVG Export Plug-In . SVG Version: 6.00 Build 0)  -->
<!DOCTYPE svg PUBLIC "-//W3C//DTD SVG 1.1//EN" "http://www.w3.org/Graphics/SVG/1.1/DTD/svg11.dtd">
<svg version="1.1" id="Capa_1" xmlns="http://www.w3.org/2000/svg" xmlns:xlink="http://www.w3.org/1999/xlink" x="0px" y="0px"
	 width="32px" height="32px" viewBox="0 0 32 32" enable-background="new 0 0 32 32" xml:space="preserve">
<path d="M17.05,15l2.341,7h-2.07l-1.311-3.91L14.7,22h-2.059l2.33-7.01L12.641,8H14.7l1.3,3.891L17.3,8h2.091L17.05,15z M10,16H5.13
	l2.58,2.29l-1.42,1.42L1.17,15l5.12-4.71l1.42,1.42L5.13,14H10V16z M30.41,15l-4.7,4.71l-1.42-1.42l2.3-2.29H22v-2h4.59l-2.3-2.29
	l1.42-1.42L30.41,15z"/>
</svg>
