<?xml version="1.0" encoding="utf-8"?>
<!-- Generator: Adobe Illustrator 16.0.0, SVG Export Plug-In . SVG Version: 6.00 Build 0)  -->
<!DOCTYPE svg PUBLIC "-//W3C//DTD SVG 1.1//EN" "http://www.w3.org/Graphics/SVG/1.1/DTD/svg11.dtd">
<svg version="1.1" id="Capa_1" xmlns="http://www.w3.org/2000/svg" xmlns:xlink="http://www.w3.org/1999/xlink" x="0px" y="0px"
	 width="32px" height="32px" viewBox="0 0 32 32" enable-background="new 0 0 32 32" xml:space="preserve">
<path d="M28.41,17l-4.7,4.71l-1.42-1.42l2.3-2.29H16v8.59l2.29-2.3l1.42,1.42L15,30.41l-4.71-4.7l1.42-1.42l2.29,2.3V18H5.41
	l2.3,2.29l-1.42,1.42L1.59,17l4.7-4.71l1.42,1.42L5.41,16H14V7.41l-2.29,2.3l-1.42-1.42L15,3.59l4.71,4.7l-1.42,1.42L16,7.41V16
	h8.59l-2.3-2.29l1.42-1.42L28.41,17z"/>
</svg>
