<?xml version="1.0" encoding="utf-8"?>
<!-- Generator: Adobe Illustrator 16.0.0, SVG Export Plug-In . SVG Version: 6.00 Build 0)  -->
<!DOCTYPE svg PUBLIC "-//W3C//DTD SVG 1.1//EN" "http://www.w3.org/Graphics/SVG/1.1/DTD/svg11.dtd">
<svg version="1.1" id="Capa_1" xmlns="http://www.w3.org/2000/svg" xmlns:xlink="http://www.w3.org/1999/xlink" x="0px" y="0px"
	 width="32px" height="32px" viewBox="0 0 32 32" enable-background="new 0 0 32 32" xml:space="preserve">
<path d="M31.93,24.66c0-0.021-7.99-22-7.99-22h-0.01c-0.06-0.18-0.18-0.34-0.35-0.47c-0.391-0.29-0.939-0.24-1.29,0.1L16,8.58
	L9.71,2.29c-0.35-0.34-0.9-0.39-1.29-0.1c-0.17,0.13-0.29,0.29-0.35,0.47H8.06c0,0-7.99,21.981-7.99,22
	C0.01,24.79-0.01,24.93,0,25.07c0.02,0.289,0.17,0.56,0.4,0.729l8,6C8.57,31.93,8.79,32,9,32c0.08,0,0.15-0.01,0.23-0.03
	c0.29-0.06,0.53-0.26,0.66-0.52L12.62,26h6.771l2.721,5.45c0.13,0.26,0.369,0.46,0.658,0.52C22.85,31.99,22.92,32,23,32
	c0.21,0,0.42-0.07,0.6-0.2l8-6c0.23-0.17,0.381-0.438,0.4-0.729C32.01,24.93,31.99,24.79,31.93,24.66z M22.85,5.52l5.67,15.58
	l-8.97-8.97L22.85,5.52z M19.35,8.06l-1.289,2.58L17.42,10L19.35,8.06z M16,11.41l1.12,1.12L16,14.759l-1.12-2.229L16,11.41z
	 M14.59,10l-0.65,0.64l-1.29-2.58L14.59,10z M9.15,5.52l3.3,6.61L3.48,21.1L9.15,5.52z M8.64,29.48l-6.12-4.59L13.39,14.02L14.88,17
	L8.64,29.48z M13.62,24L16,19.23L18.391,24H13.62z M23.359,29.48L17.12,17l1.489-2.98L29.48,24.891L23.359,29.48z"/>
</svg>
