<?xml version="1.0" encoding="utf-8"?>
<!-- Generator: Adobe Illustrator 16.0.0, SVG Export Plug-In . SVG Version: 6.00 Build 0)  -->
<!DOCTYPE svg PUBLIC "-//W3C//DTD SVG 1.1//EN" "http://www.w3.org/Graphics/SVG/1.1/DTD/svg11.dtd">
<svg version="1.1" id="Capa_1" xmlns="http://www.w3.org/2000/svg" xmlns:xlink="http://www.w3.org/1999/xlink" x="0px" y="0px"
	 width="32px" height="32px" viewBox="0 0 32 32" enable-background="new 0 0 32 32" xml:space="preserve">
<path d="M28,20V10L16,4.46V2h-2v2.46L2,10v10H0v2h2v4l13.09,6L28,26v-4h2v-2H28z M14,29.3L4,24.72V22h6v-2H4v-7.38l10,5V29.3z
	 M15,15.88L4.93,10.85L14,6.66V12h2V6.66l9.07,4.19L15,15.88z M26,24.72l-10,4.65V17.62l10-5V20h-6v2h6V24.72z"/>
</svg>
