<?xml version="1.0" encoding="utf-8"?>
<!-- Generator: Adobe Illustrator 16.0.0, SVG Export Plug-In . SVG Version: 6.00 Build 0)  -->
<!DOCTYPE svg PUBLIC "-//W3C//DTD SVG 1.1//EN" "http://www.w3.org/Graphics/SVG/1.1/DTD/svg11.dtd">
<svg version="1.1" id="Capa_1" xmlns="http://www.w3.org/2000/svg" xmlns:xlink="http://www.w3.org/1999/xlink" x="0px" y="0px"
	 width="32px" height="32px" viewBox="0 0 32 32" enable-background="new 0 0 32 32" xml:space="preserve">
<path d="M6,24c-2.935,0-4-2.393-4-4v-8c0-1.608,1.065-4,4-4s4,2.392,4,4v8C10,21.607,8.935,24,6,24z M6,10c-1.904,0-2,1.666-2,2v8
	c0.007,0.464,0.173,2,2,2c1.904,0,2-1.666,2-2v-8C7.993,11.537,7.827,10,6,10z M16,24c-2.935,0-4-2.393-4-4v-8c0-1.608,1.065-4,4-4
	c2.936,0,4,2.392,4,4h-2c-0.008-0.463-0.174-2-2-2c-1.904,0-2,1.666-2,2v8c0.007,0.464,0.173,2,2,2c1.902,0,2-1.666,2-2v-2h-2v-2h4
	v4C20,21.607,18.936,24,16,24z M28,24h-6V8h2v14h4V24z"/>
</svg>
