<?xml version="1.0" encoding="utf-8"?>
<!-- Generator: Adobe Illustrator 16.0.0, SVG Export Plug-In . SVG Version: 6.00 Build 0)  -->
<!DOCTYPE svg PUBLIC "-//W3C//DTD SVG 1.1//EN" "http://www.w3.org/Graphics/SVG/1.1/DTD/svg11.dtd">
<svg version="1.1" id="Capa_1" xmlns="http://www.w3.org/2000/svg" xmlns:xlink="http://www.w3.org/1999/xlink" x="0px" y="0px"
	 width="32px" height="32px" viewBox="0 0 32 32" enable-background="new 0 0 32 32" xml:space="preserve">
<path d="M8,14c2.206,0,4,1.794,4,4s-1.794,4-4,4s-4-1.794-4-4S5.794,14,8,14 M8,12c-3.313,0-6,2.686-6,6c0,3.314,2.687,6,6,6
	s6-2.686,6-6C14,14.686,11.313,12,8,12L8,12z M21,22c1.654,0,3,1.346,3,3s-1.346,3-3,3s-3-1.346-3-3S19.346,22,21,22 M21,20
	c-2.762,0-5,2.238-5,5s2.238,5,5,5s5-2.238,5-5S23.762,20,21,20L21,20z M21,4c2.757,0,5,2.243,5,5s-2.243,5-5,5s-5-2.243-5-5
	S18.243,4,21,4 M21,2c-3.865,0-7,3.133-7,7s3.135,7,7,7c3.867,0,7-3.133,7-7S24.867,2,21,2L21,2z"/>
</svg>
