<?xml version="1.0" encoding="utf-8"?>
<!-- Generator: Adobe Illustrator 16.0.0, SVG Export Plug-In . SVG Version: 6.00 Build 0)  -->
<!DOCTYPE svg PUBLIC "-//W3C//DTD SVG 1.1//EN" "http://www.w3.org/Graphics/SVG/1.1/DTD/svg11.dtd">
<svg version="1.1" id="Capa_1" xmlns="http://www.w3.org/2000/svg" xmlns:xlink="http://www.w3.org/1999/xlink" x="0px" y="0px"
	 width="32px" height="32px" viewBox="0 0 32 32" enable-background="new 0 0 32 32" xml:space="preserve">
<path d="M15,2C6.72,2,0,8.72,0,17s6.72,15,15,15c8.279,0,15-6.72,15-15S23.279,2,15,2z M11,6c2.76,0,5,2.24,5,5s-2.24,5-5,5
	s-5-2.24-5-5S8.24,6,11,6z M3.45,22.1l-0.51-0.25C2.33,20.35,2,18.71,2,17c0-2.6,0.77-5.02,2.09-7.06C4.03,10.28,4,10.64,4,11
	c0,3.86,3.14,7,7,7s7-3.14,7-7c0-3.28-2.27-6.04-5.32-6.79C13.44,4.07,14.21,4,15,4c3.439,0,6.58,1.34,8.9,3.54l0.119,0.64
	c0.01,0.1,1.76,10.31-5.471,13.929C11.11,25.82,3.52,22.141,3.45,22.1z M15,30c-4.31,0-8.13-2.1-10.49-5.33
	c1.57,0.53,3.97,1.12,6.77,1.12c2.5,0,5.33-0.47,8.17-1.899c6.13-3.061,6.88-9.721,6.771-13.439C27.35,12.37,28,14.62,28,17
	C28,24.17,22.17,30,15,30z"/>
</svg>
