<?xml version="1.0" encoding="utf-8"?>
<!-- Generator: Adobe Illustrator 16.0.0, SVG Export Plug-In . SVG Version: 6.00 Build 0)  -->
<!DOCTYPE svg PUBLIC "-//W3C//DTD SVG 1.1//EN" "http://www.w3.org/Graphics/SVG/1.1/DTD/svg11.dtd">
<svg version="1.1" id="Capa_1" xmlns="http://www.w3.org/2000/svg" xmlns:xlink="http://www.w3.org/1999/xlink" x="0px" y="0px"
	 width="32px" height="32px" viewBox="0 0 32 32" enable-background="new 0 0 32 32" xml:space="preserve">
<path d="M19.37,19.43C19.77,18.71,20,17.88,20,17c0-2.42-1.721-4.44-4-4.9V2h-2v10.1c-2.28,0.46-4,2.48-4,4.9
	c0,0.88,0.23,1.71,0.63,2.43L0.35,28.24l1.3,1.52l10.28-8.81C12.78,21.609,13.84,22,15,22s2.221-0.391,3.07-1.05l10.279,8.81
	l1.301-1.52L19.37,19.43z M15,20c-1.65,0-3-1.35-3-3c0-1.65,1.35-3,3-3c1.65,0,3,1.35,3,3C18,18.65,16.65,20,15,20z"/>
</svg>
