<?xml version="1.0" encoding="utf-8"?>
<!-- Generator: Adobe Illustrator 16.0.0, SVG Export Plug-In . SVG Version: 6.00 Build 0)  -->
<!DOCTYPE svg PUBLIC "-//W3C//DTD SVG 1.1//EN" "http://www.w3.org/Graphics/SVG/1.1/DTD/svg11.dtd">
<svg version="1.1" id="Capa_1" xmlns="http://www.w3.org/2000/svg" xmlns:xlink="http://www.w3.org/1999/xlink" x="0px" y="0px"
	 width="32px" height="32px" viewBox="0 0 32 32" enable-background="new 0 0 32 32" xml:space="preserve">
<path d="M10,2v2H2v8H0V2H10z M9,30v2H0V22h2v8H9z M30,2v9h-2V4h-8V2H30z M30,22v10H20v-2h8v-8H30z M10,2v2H2v8H0V2H10z M9,30v2H0V22
	h2v8H9z M30,2v9h-2V4h-8V2H30z M30,22v10H20v-2h8v-8H30z M18,14v6h-6v-6H18 M20,12H10v10h10V12L20,12z"/>
</svg>
