<?xml version="1.0" encoding="utf-8"?>
<!-- Generator: Adobe Illustrator 16.0.0, SVG Export Plug-In . SVG Version: 6.00 Build 0)  -->
<!DOCTYPE svg PUBLIC "-//W3C//DTD SVG 1.1//EN" "http://www.w3.org/Graphics/SVG/1.1/DTD/svg11.dtd">
<svg version="1.1" id="Capa_1" xmlns="http://www.w3.org/2000/svg" xmlns:xlink="http://www.w3.org/1999/xlink" x="0px" y="0px"
	 width="32px" height="32px" viewBox="0 0 32 32" enable-background="new 0 0 32 32" xml:space="preserve">
<path d="M29.8,10.29c-0.39-0.39-1.021-0.39-1.409,0l-6.371,6.36l-6.58-6.582l6.36-6.36c0.392-0.39,0.392-1.03,0-1.42
	c-0.39-0.39-1.021-0.39-1.409,0L14.02,8.65l-2.83-2.82L7.66,9.36c-0.08,0.08-1.95,1.97-2.9,4.81c-0.72,2.16-1,5.21,1,8.4l-4.47,4.47
	l1.42,1.42l4.27-4.271c0.21,0.24,0.44,0.49,0.68,0.729c0.24,0.24,0.48,0.471,0.73,0.682L4.12,29.87l1.42,1.42l4.47-4.479
	c1.63,1.029,3.36,1.551,5.16,1.551c4.551,0,7.9-3.301,8.04-3.439l3.54-3.54l-3.311-3.312l6.358-6.358
	C30.189,11.32,30.189,10.68,29.8,10.29z M15.17,26.359c-2.15,0-4.21-0.959-6.1-2.852C4.15,18.59,6.8,13.7,8.3,11.71l12.57,12.57
	C19.74,25.12,17.65,26.359,15.17,26.359z M23.92,21.38l-1.561,1.57L9.63,10.22l1.56-1.56L23.92,21.38z"/>
</svg>
