<?xml version="1.0" encoding="utf-8"?>
<!-- Generator: Adobe Illustrator 16.0.0, SVG Export Plug-In . SVG Version: 6.00 Build 0)  -->
<!DOCTYPE svg PUBLIC "-//W3C//DTD SVG 1.1//EN" "http://www.w3.org/Graphics/SVG/1.1/DTD/svg11.dtd">
<svg version="1.1" id="Capa_1" xmlns="http://www.w3.org/2000/svg" xmlns:xlink="http://www.w3.org/1999/xlink" x="0px" y="0px"
	 width="32px" height="32px" viewBox="0 0 32 32" enable-background="new 0 0 32 32" xml:space="preserve">
<path d="M29,16h-9.1c-0.131-0.64-0.381-1.23-0.721-1.76l4.53-4.53c0.39-0.39,0.39-1.03,0-1.42s-1.03-0.39-1.42,0l-4.53,4.53
	c-0.529-0.34-1.12-0.59-1.76-0.72V3c0-0.55-0.45-1-1-1s-1,0.45-1,1v9.1c-0.64,0.13-1.23,0.38-1.76,0.72L7.71,8.29
	c-0.39-0.39-1.03-0.39-1.42,0s-0.39,1.03,0,1.42l4.53,4.53c-0.34,0.53-0.59,1.12-0.72,1.76H1c-0.55,0-1,0.45-1,1s0.45,1,1,1h9.1
	c0.13,0.641,0.38,1.23,0.72,1.76l-4.53,4.53c-0.39,0.39-0.39,1.03,0,1.42C6.49,25.9,6.74,26,7,26s0.51-0.1,0.71-0.29l4.53-4.53
	c0.53,0.34,1.12,0.59,1.76,0.721V31c0,0.55,0.45,1,1,1s1-0.45,1-1v-9.1c0.64-0.131,1.23-0.381,1.76-0.721l4.53,4.53
	C22.49,25.9,22.74,26,23,26s0.51-0.1,0.71-0.29c0.39-0.39,0.39-1.03,0-1.42l-4.53-4.53c0.34-0.529,0.59-1.119,0.721-1.76H29
	c0.55,0,1-0.45,1-1S29.55,16,29,16z M15,20c-1.65,0-3-1.35-3-3c0-1.65,1.35-3,3-3s3,1.35,3,3C18,18.65,16.65,20,15,20z"/>
</svg>
