<?xml version="1.0" encoding="utf-8"?>
<!-- Generator: Adobe Illustrator 16.0.0, SVG Export Plug-In . SVG Version: 6.00 Build 0)  -->
<!DOCTYPE svg PUBLIC "-//W3C//DTD SVG 1.1//EN" "http://www.w3.org/Graphics/SVG/1.1/DTD/svg11.dtd">
<svg version="1.1" id="Capa_1" xmlns="http://www.w3.org/2000/svg" xmlns:xlink="http://www.w3.org/1999/xlink" x="0px" y="0px"
	 width="32px" height="32px" viewBox="0 0 32 32" enable-background="new 0 0 32 32" xml:space="preserve">
<path d="M15,2C6.72,2,0,8.72,0,17s6.72,15,15,15c8.279,0,15-6.72,15-15S23.279,2,15,2z M27,12h-5.48c-0.6-3.11-1.64-5.66-2.459-7.34
	C22.65,5.83,25.561,8.54,27,12z M20,17c0,1.78-0.21,3.47-0.529,5H10.53C10.21,20.47,10,18.78,10,17c0-1.04,0.07-2.04,0.19-3h9.621
	C19.93,14.96,20,15.96,20,17z M15,4c0.51,0,1.01,0.03,1.5,0.09c0.66,1.15,2.17,4.05,2.971,7.91H10.53c0.81-3.85,2.31-6.76,2.97-7.91
	C13.99,4.03,14.49,4,15,4z M10.94,4.66C10.12,6.34,9.08,8.89,8.48,12H3C4.44,8.54,7.35,5.83,10.94,4.66z M2,17
	c0-1.03,0.12-2.04,0.35-3h5.82C8.06,14.96,8,15.96,8,17c0,1.78,0.19,3.46,0.48,5H3C2.36,20.46,2,18.77,2,17z M4.05,24h4.89
	c0.59,2.21,1.36,4.04,2,5.34C8.07,28.41,5.65,26.49,4.05,24z M16.5,29.91C16.01,29.97,15.51,30,15,30s-1.01-0.03-1.5-0.09
	c-0.54-0.94-1.65-3.051-2.47-5.91h7.941C18.15,26.85,17.04,28.97,16.5,29.91z M19.061,29.34c0.641-1.3,1.41-3.13,2-5.34h4.891
	C24.35,26.49,21.93,28.41,19.061,29.34z M21.52,22c0.291-1.54,0.48-3.22,0.48-5c0-1.04-0.061-2.04-0.17-3h5.82
	C27.88,14.96,28,15.97,28,17c0,1.77-0.359,3.46-1,5H21.52z"/>
</svg>
