<?xml version="1.0" encoding="utf-8"?>
<!-- Generator: Adobe Illustrator 16.0.0, SVG Export Plug-In . SVG Version: 6.00 Build 0)  -->
<!DOCTYPE svg PUBLIC "-//W3C//DTD SVG 1.1//EN" "http://www.w3.org/Graphics/SVG/1.1/DTD/svg11.dtd">
<svg version="1.1" id="Capa_1" xmlns="http://www.w3.org/2000/svg" xmlns:xlink="http://www.w3.org/1999/xlink" x="0px" y="0px"
	 width="32px" height="32px" viewBox="0 0 32 32" enable-background="new 0 0 32 32" xml:space="preserve">
<path d="M24,32c-5.354,0-7.613-2.199-7.707-2.293c-0.304-0.305-0.38-0.77-0.188-1.154l7-14c0.34-0.678,1.449-0.678,1.789,0l7,14
	c0.191,0.385,0.117,0.85-0.188,1.154C31.613,29.801,29.354,32,24,32z M18.271,28.691C19.115,29.195,20.938,30,24,30
	c3.059,0,4.881-0.802,5.729-1.311L24,17.236L18.271,28.691z M17,14c-3.86,0-7-3.14-7-7s3.14-7,7-7c3.859,0,7,3.14,7,7
	S20.859,14,17,14z M17,2c-2.757,0-5,2.243-5,5s2.243,5,5,5s5-2.243,5-5S19.757,2,17,2z M7,11.8l-7,4.66v9.08l7,4.66l7-4.66v-9.08
	L7,11.8z M6,27.13l-4-2.67v-5.601l4,2.671V27.13z M2.8,17L7,14.2l4.2,2.8L7,19.8L2.8,17z M12,24.46l-4,2.67v-5.6l4-2.671V24.46z"/>
</svg>
