<?xml version="1.0" encoding="utf-8"?>
<!-- Generator: Adobe Illustrator 16.0.0, SVG Export Plug-In . SVG Version: 6.00 Build 0)  -->
<!DOCTYPE svg PUBLIC "-//W3C//DTD SVG 1.1//EN" "http://www.w3.org/Graphics/SVG/1.1/DTD/svg11.dtd">
<svg version="1.1" id="Capa_1" xmlns="http://www.w3.org/2000/svg" xmlns:xlink="http://www.w3.org/1999/xlink" x="0px" y="0px"
	 width="32px" height="32px" viewBox="0 0 32 32" enable-background="new 0 0 32 32" xml:space="preserve">
<path d="M32,20v-8h-4.68c-0.15-0.4-0.313-0.79-0.49-1.17l3.311-3.32l-5.649-5.65l-3.32,3.31C20.79,4.99,20.4,4.82,20,4.68V0h-8v4.68
	c-0.4,0.14-0.79,0.31-1.17,0.49L7.51,1.86L1.86,7.51l1.42,1.42l4.23-4.24l2.98,2.97c1.05-0.7,2.23-1.2,3.51-1.46V2h4v4.2
	c1.279,0.26,2.46,0.76,3.51,1.46l2.98-2.97l2.818,2.82l-2.971,2.98c0.7,1.05,1.2,2.229,1.46,3.51H30v4h-4.2
	c-0.26,1.28-0.76,2.46-1.46,3.51l2.971,2.98l-4.24,4.24l1.422,1.408l5.648-5.648l-3.311-3.32c0.18-0.38,0.34-0.77,0.49-1.17H32z
	 M22,24v-6h-2.51c-0.11-0.3-0.23-0.6-0.37-0.88l1.78-1.78l-4.24-4.24l-1.78,1.78c-0.28-0.14-0.58-0.26-0.88-0.37V10H8v2.51
	c-0.3,0.11-0.6,0.23-0.88,0.37L5.34,11.1L1.1,15.34l1.78,1.78C2.74,17.4,2.62,17.7,2.51,18H0v6h2.51c0.11,0.3,0.23,0.6,0.37,0.88
	L1.1,26.66l4.24,4.24l1.78-1.78C7.4,29.26,7.7,29.38,8,29.49V32h6v-2.51c0.3-0.11,0.6-0.23,0.88-0.37l1.78,1.78l4.24-4.24
	l-1.78-1.78c0.14-0.28,0.26-0.58,0.37-0.88H22z M18.07,26.66l-1.41,1.41L15.19,26.6c-0.92,0.7-2,1.16-3.19,1.32V30h-2v-2.08
	c-1.19-0.16-2.27-0.62-3.19-1.32L5.34,28.07l-1.41-1.41l1.47-1.471c-0.7-0.92-1.16-2-1.32-3.189H2v-2h2.08
	c0.16-1.189,0.62-2.27,1.32-3.189L3.93,15.34l1.41-1.41l1.47,1.47c0.92-0.7,2-1.16,3.19-1.32V12h2v2.08
	c1.19,0.16,2.27,0.62,3.19,1.32l1.47-1.471l1.41,1.41l-1.471,1.47c0.699,0.922,1.159,2,1.319,3.19H20v2h-2.08
	c-0.16,1.19-0.62,2.271-1.32,3.19L18.07,26.66z M11,16c-2.76,0-5,2.24-5,5s2.24,5,5,5s5-2.24,5-5S13.76,16,11,16z M11,24
	c-1.65,0-3-1.35-3-3s1.35-3,3-3s3,1.35,3,3S12.65,24,11,24z"/>
</svg>
