<?xml version="1.0" encoding="utf-8"?>
<!-- Generator: Adobe Illustrator 16.0.0, SVG Export Plug-In . SVG Version: 6.00 Build 0)  -->
<!DOCTYPE svg PUBLIC "-//W3C//DTD SVG 1.1//EN" "http://www.w3.org/Graphics/SVG/1.1/DTD/svg11.dtd">
<svg version="1.1" id="Capa_1" xmlns="http://www.w3.org/2000/svg" xmlns:xlink="http://www.w3.org/1999/xlink" x="0px" y="0px"
	 width="32px" height="32px" viewBox="0 0 32 32" enable-background="new 0 0 32 32" xml:space="preserve">
<path d="M26,2H2C1.03,2,0,2.7,0,4v24c0,0.97,0.7,2,2,2h23c2.2,0,3-1.79,3-3V4C28,3.03,27.3,2,26,2z M2,4h4v2.99
	C5.99,7.45,5.81,8,5,8H2V4z M2,10h3c2.2,0,3-1.79,3-3V4h2v6.99C9.99,11.45,9.81,12,9,12H2V10z M2,14h7c2.2,0,3-1.79,3-3V4h2v10.99
	C13.99,15.45,13.81,16,13,16H2V14z M2,18h11c2.2,0,3-1.79,3-3V4h2v14.99C17.99,19.45,17.811,20,17,20H2V18z M2,22h15
	c2.2,0,3-1.79,3-3V4h2v18.99C21.99,23.45,21.811,24,21,24H2V22z M26,26.99C25.99,27.45,25.811,28,25,28H2v-2h19c2.2,0,3-1.79,3-3V4
	h2V26.99z"/>
</svg>
