<?xml version="1.0" encoding="utf-8"?>
<!-- Generator: Adobe Illustrator 16.0.0, SVG Export Plug-In . SVG Version: 6.00 Build 0)  -->
<!DOCTYPE svg PUBLIC "-//W3C//DTD SVG 1.1//EN" "http://www.w3.org/Graphics/SVG/1.1/DTD/svg11.dtd">
<svg version="1.1" id="Capa_1" xmlns="http://www.w3.org/2000/svg" xmlns:xlink="http://www.w3.org/1999/xlink" x="0px" y="0px"
	 width="32px" height="32px" viewBox="0 0 32 32" enable-background="new 0 0 32 32" xml:space="preserve">
<path d="M0,4v28h30V4H0z M28,30H2V6h26V30z M24,16v-2h-2v-2h-2v-2h-2v2h-6v-2h-2v2H8v2H6v2h2v4H6v2h2v2h2v2h2v-2h6v2h2v-2h2v-2h2v-2
	h-2v-4H24z M20,22H10v-8h10V22z"/>
</svg>
