<?xml version="1.0" encoding="utf-8"?>
<!-- Generator: Adobe Illustrator 16.0.0, SVG Export Plug-In . SVG Version: 6.00 Build 0)  -->
<!DOCTYPE svg PUBLIC "-//W3C//DTD SVG 1.1//EN" "http://www.w3.org/Graphics/SVG/1.1/DTD/svg11.dtd">
<svg version="1.1" id="Capa_1" xmlns="http://www.w3.org/2000/svg" xmlns:xlink="http://www.w3.org/1999/xlink" x="0px" y="0px"
	 width="32px" height="32px" viewBox="0 0 32 32" enable-background="new 0 0 32 32" xml:space="preserve">
<path d="M0,4v22h2v4h2v-4h4v4h2v-4h4v4h2v-4h4v4h2v-4h4v4h2v-4h2V4H0z M28,24H2v-2h26V24z M15,14c-4.85,0-6.57,3.51-6.93,6h-2
	c0.29-2.35,1.73-8,8.93-8c7.17,0,8.63,5.65,8.93,8h-2C21.57,17.51,19.85,14,15,14z M19.9,20H10.11c0.29-1.46,1.3-4,4.89-4
	C18.62,16,19.62,18.53,19.9,20z M28,20h-2.07C25.6,17.29,23.891,10,15,10C6.11,10,4.4,17.29,4.07,20H2V6h26V20z"/>
</svg>
