<?xml version="1.0" encoding="utf-8"?>
<!-- Generator: Adobe Illustrator 16.0.0, SVG Export Plug-In . SVG Version: 6.00 Build 0)  -->
<!DOCTYPE svg PUBLIC "-//W3C//DTD SVG 1.1//EN" "http://www.w3.org/Graphics/SVG/1.1/DTD/svg11.dtd">
<svg version="1.1" id="Capa_1" xmlns="http://www.w3.org/2000/svg" xmlns:xlink="http://www.w3.org/1999/xlink" x="0px" y="0px"
	 width="32px" height="32px" viewBox="0 0 32 32" enable-background="new 0 0 32 32" xml:space="preserve">
<path d="M22,8V6h-2V4h-5C7.83,4,2,9.83,2,17s5.83,13,13,13h5v-2h2v-2h4v2h-2v2h-2v2h-7C6.72,32,0,25.28,0,17S6.72,2,15,2h7v2h2v2h2
	v2H22z M30,10v14h-2v2h-2v-4h2V12h-2V8h2v2H30z M24.41,17l-4.7,4.71l-1.42-1.42l2.3-2.29H6v-2h14.59l-2.3-2.29l1.42-1.42L24.41,17z"
	/>
</svg>
