<?xml version="1.0" encoding="utf-8"?>
<!-- Generator: Adobe Illustrator 16.0.0, SVG Export Plug-In . SVG Version: 6.00 Build 0)  -->
<!DOCTYPE svg PUBLIC "-//W3C//DTD SVG 1.1//EN" "http://www.w3.org/Graphics/SVG/1.1/DTD/svg11.dtd">
<svg version="1.1" id="Capa_1" xmlns="http://www.w3.org/2000/svg" xmlns:xlink="http://www.w3.org/1999/xlink" x="0px" y="0px"
	 width="32px" height="32px" viewBox="0 0 32 32" enable-background="new 0 0 32 32" xml:space="preserve">
<path d="M16,4c4.411,0,8,3.589,8,8s-3.589,8-8,8s-8-3.589-8-8S11.589,4,16,4 M16,2C10.477,2,6,6.477,6,12c0,5.523,4.477,10,10,10
	c5.521,0,10-4.477,10-10C26,6.477,21.521,2,16,2L16,2z M16,30C8.28,30,2,25.064,2,19c0-0.553,0.448-1,1-1s1,0.447,1,1
	c0,4.963,5.383,9,12,9s12-4.037,12-9c0-0.553,0.447-1,1-1s1,0.447,1,1C30,25.064,23.721,30,16,30z"/>
</svg>
