<?xml version="1.0" encoding="utf-8"?>
<!-- Generator: Adobe Illustrator 16.0.0, SVG Export Plug-In . SVG Version: 6.00 Build 0)  -->
<!DOCTYPE svg PUBLIC "-//W3C//DTD SVG 1.1//EN" "http://www.w3.org/Graphics/SVG/1.1/DTD/svg11.dtd">
<svg version="1.1" id="Capa_1" xmlns="http://www.w3.org/2000/svg" xmlns:xlink="http://www.w3.org/1999/xlink" x="0px" y="0px"
	 width="32px" height="32px" viewBox="0 0 32 32" enable-background="new 0 0 32 32" xml:space="preserve">
<path d="M24,2c-2,0-3.84,0.74-5.24,1.95C17.55,5,16.66,6.4,16.25,8.01C16.17,8,16.08,8,16,8c-1.99,0-3.81,0.72-5.21,1.92
	c-1.23,1.05-2.13,2.47-2.54,4.09C8.17,14,8.08,14,8,14c-4.42,0-8,3.58-8,8s3.58,8,8,8c3.73,0,6.87-2.55,7.75-6.01
	C15.83,24,15.92,24,16,24c3.73,0,6.87-2.55,7.75-6.01C23.83,18,23.92,18,24,18c4.42,0,8-3.58,8-8S28.42,2,24,2z M8,28
	c-3.31,0-6-2.69-6-6s2.69-6,6-6s6,2.69,6,6S11.31,28,8,28z M16,22c0-3.64-2.43-6.71-5.75-7.68C10.97,11.82,13.28,10,16,10
	c1.66,0,3.16,0.67,4.24,1.76C21.33,12.84,22,14.34,22,16C22,19.31,19.31,22,16,22z M24,16c0-3.64-2.43-6.71-5.75-7.68
	C18.97,5.83,21.27,4,24,4c1.66,0,3.16,0.67,4.24,1.76C29.33,6.84,30,8.34,30,10C30,13.31,27.31,16,24,16z"/>
</svg>
