<?xml version="1.0" encoding="utf-8"?>
<!-- Generator: Adobe Illustrator 16.0.0, SVG Export Plug-In . SVG Version: 6.00 Build 0)  -->
<!DOCTYPE svg PUBLIC "-//W3C//DTD SVG 1.1//EN" "http://www.w3.org/Graphics/SVG/1.1/DTD/svg11.dtd">
<svg version="1.1" id="Capa_1" xmlns="http://www.w3.org/2000/svg" xmlns:xlink="http://www.w3.org/1999/xlink" x="0px" y="0px"
	 width="32px" height="32px" viewBox="0 0 32 32" enable-background="new 0 0 32 32" xml:space="preserve">
<path d="M16,8c6.505,0,12,3.664,12,8c0,4.337-5.495,8-12,8S4,20.337,4,16C4,11.664,9.495,8,16,8 M16,6C8.268,6,2,10.477,2,16
	c0,5.521,6.268,10,14,10c7.732,0,14-4.479,14-10C30,10.477,23.732,6,16,6L16,6z M16,14c3.872,0,6,1.502,6,2s-2.128,2-6,2
	s-6-1.502-6-2S12.128,14,16,14 M16,12c-4.418,0-8,1.791-8,4s3.582,4,8,4s8-1.791,8-4S20.418,12,16,12L16,12z"/>
</svg>
