<?xml version="1.0" encoding="utf-8"?>
<!-- Generator: Adobe Illustrator 16.0.0, SVG Export Plug-In . SVG Version: 6.00 Build 0)  -->
<!DOCTYPE svg PUBLIC "-//W3C//DTD SVG 1.1//EN" "http://www.w3.org/Graphics/SVG/1.1/DTD/svg11.dtd">
<svg version="1.1" id="Capa_1" xmlns="http://www.w3.org/2000/svg" xmlns:xlink="http://www.w3.org/1999/xlink" x="0px" y="0px"
	 width="32px" height="32px" viewBox="0 0 32 32" enable-background="new 0 0 32 32" xml:space="preserve">
<path d="M0,0v32h32V0H0z M20,2h4v16h-4V2z M20,20h4v4h-4V20z M18,30H2v-4h16V30z M18,24H2v-4h16V24z M18,18H2V2h16V18z M20,30v-4h4
	v4H20z M30,30h-4v-4h4V30z M30,24h-4v-4h4V24z M30,18h-4V2h4V18z"/>
</svg>
