<?xml version="1.0" encoding="utf-8"?>
<!-- Generator: Adobe Illustrator 16.0.0, SVG Export Plug-In . SVG Version: 6.00 Build 0)  -->
<!DOCTYPE svg PUBLIC "-//W3C//DTD SVG 1.1//EN" "http://www.w3.org/Graphics/SVG/1.1/DTD/svg11.dtd">
<svg version="1.1" id="Capa_1" xmlns="http://www.w3.org/2000/svg" xmlns:xlink="http://www.w3.org/1999/xlink" x="0px" y="0px"
	 width="32px" height="32px" viewBox="0 0 32 32" enable-background="new 0 0 32 32" xml:space="preserve">
<path d="M18,13c0,4.96-4.04,9-9,9s-9-4.04-9-9v-1h2v1c0,3.859,3.14,7,7,7s7-3.141,7-7c0-3.71-2.9-6.76-6.56-6.98l2.27,2.27
	l-1.42,1.42L5.59,5l4.7-4.71l1.42,1.42L9.4,4.01C14.18,4.22,18,8.17,18,13z M26,18h-2v-4h-4v2h2v10H2v-4H0v10h24v-4h2l6,4V14L26,18z
	 M22,30H2v-2h20V30z M26,26h-2v-6h2V26z M30,28.26l-2-1.33V19.07l2-1.33V28.26z"/>
</svg>
