<?xml version="1.0" encoding="utf-8"?>
<!-- Generator: Adobe Illustrator 16.0.0, SVG Export Plug-In . SVG Version: 6.00 Build 0)  -->
<!DOCTYPE svg PUBLIC "-//W3C//DTD SVG 1.1//EN" "http://www.w3.org/Graphics/SVG/1.1/DTD/svg11.dtd">
<svg version="1.1" id="Capa_1" xmlns="http://www.w3.org/2000/svg" xmlns:xlink="http://www.w3.org/1999/xlink" x="0px" y="0px"
	 width="32px" height="32px" viewBox="0 0 32 32" enable-background="new 0 0 32 32" xml:space="preserve">
<path d="M28,19c0,7.18-5.82,13-13,13C7.82,32,2,26.18,2,19C2,11.95,7.6,6.22,14.6,6.01l-2.31-2.3l1.42-1.42L18.41,7l-4.7,4.71
	l-1.42-1.42l2.29-2.28C8.71,8.23,4,13.07,4,19c0,6.07,4.93,11,11,11c6.07,0,11-4.93,11-11c0-4.07-2.21-7.62-5.49-9.51l1.461-1.46
	C25.59,10.33,28,14.38,28,19z M20,15.43L13.41,22H20v2H10v-1.391L16.59,16H10v-2h10V15.43z"/>
</svg>
