<?xml version="1.0" encoding="utf-8"?>
<!-- Generator: Adobe Illustrator 16.0.0, SVG Export Plug-In . SVG Version: 6.00 Build 0)  -->
<!DOCTYPE svg PUBLIC "-//W3C//DTD SVG 1.1//EN" "http://www.w3.org/Graphics/SVG/1.1/DTD/svg11.dtd">
<svg version="1.1" id="Capa_1" xmlns="http://www.w3.org/2000/svg" xmlns:xlink="http://www.w3.org/1999/xlink" x="0px" y="0px"
	 width="32px" height="32px" viewBox="0 0 32 32" enable-background="new 0 0 32 32" xml:space="preserve">
<path d="M0,4v26h32V4H0z M6,28H2v-4h4V28z M6,22H2v-4h4V22z M6,16H2v-4h4V16z M6,10H2V6h4V10z M24,28H8v-4.58l3-3.01l4,4l6-6l3,3.01
	V28z M24,18.58l-3-2.99l-6,6l-4-4l-3,2.99V6h16V18.58z M30,28h-4v-4h4V28z M30,22h-4v-4h4V22z M30,16h-4v-4h4V16z M30,10h-4V6h4V10z
	 M13,8c-1.66,0-3,1.34-3,3s1.34,3,3,3s3-1.34,3-3S14.66,8,13,8z M13,12c-0.55,0-1-0.45-1-1s0.45-1,1-1s1,0.45,1,1S13.55,12,13,12z"
	/>
</svg>
