<?xml version="1.0" encoding="utf-8"?>
<!-- Generator: Adobe Illustrator 16.0.0, SVG Export Plug-In . SVG Version: 6.00 Build 0)  -->
<!DOCTYPE svg PUBLIC "-//W3C//DTD SVG 1.1//EN" "http://www.w3.org/Graphics/SVG/1.1/DTD/svg11.dtd">
<svg version="1.1" id="Capa_1" xmlns="http://www.w3.org/2000/svg" xmlns:xlink="http://www.w3.org/1999/xlink" x="0px" y="0px"
	 width="32px" height="32px" viewBox="0 0 32 32" enable-background="new 0 0 32 32" xml:space="preserve">
<path d="M12,10h8l-4,6L12,10z M29,16c-1.311,0-2.42,0.83-2.82,2H5.82c-0.4-1.17-1.51-2-2.82-2c-1.66,0-3,1.34-3,3s1.34,3,3,3
	c1.31,0,2.42-0.83,2.82-2h20.36c0.4,1.17,1.512,2,2.82,2c1.66,0,3-1.34,3-3S30.66,16,29,16z M3,20c-0.55,0-1-0.45-1-1s0.45-1,1-1
	s1,0.45,1,1S3.55,20,3,20z M29,20c-0.55,0-1-0.45-1-1s0.45-1,1-1s1,0.45,1,1S29.55,20,29,20z"/>
</svg>
