<?xml version="1.0" encoding="utf-8"?>
<!-- Generator: Adobe Illustrator 16.0.0, SVG Export Plug-In . SVG Version: 6.00 Build 0)  -->
<!DOCTYPE svg PUBLIC "-//W3C//DTD SVG 1.1//EN" "http://www.w3.org/Graphics/SVG/1.1/DTD/svg11.dtd">
<svg version="1.1" id="Capa_1" xmlns="http://www.w3.org/2000/svg" xmlns:xlink="http://www.w3.org/1999/xlink" x="0px" y="0px"
	 width="32px" height="32px" viewBox="0 0 32 32" enable-background="new 0 0 32 32" xml:space="preserve">
<path d="M15,2C6.72,2,0,8.72,0,17s6.72,15,15,15c8.279,0,15-6.72,15-15S23.279,2,15,2z M4.05,24C2.75,21.98,2,19.57,2,17
	C2,9.83,7.83,4,15,4c2.57,0,4.98,0.75,7,2.05v6.54L10.59,24H4.05z M15,30c-3.68,0-7.01-1.54-9.37-4h5.78L24,13.41V7.63
	c2.46,2.36,4,5.69,4,9.37C28,24.17,22.17,30,15,30z"/>
</svg>
