<?xml version="1.0" encoding="utf-8"?>
<!-- Generator: Adobe Illustrator 16.0.0, SVG Export Plug-In . SVG Version: 6.00 Build 0)  -->
<!DOCTYPE svg PUBLIC "-//W3C//DTD SVG 1.1//EN" "http://www.w3.org/Graphics/SVG/1.1/DTD/svg11.dtd">
<svg version="1.1" id="Capa_1" xmlns="http://www.w3.org/2000/svg" xmlns:xlink="http://www.w3.org/1999/xlink" x="0px" y="0px"
	 width="32px" height="32px" viewBox="0 0 32 32" enable-background="new 0 0 32 32" xml:space="preserve">
<path d="M24,13.2V13c0-6.08-4.92-11-11-11S2,6.92,2,13c0,3.43,1.56,6.49,4.02,8.51C6.37,26.24,11.61,30,18,30c6.62,0,12-4.04,12-9
	C30,17.74,27.721,14.8,24,13.2z M4,13c0-4.96,4.04-9,9-9s9,4.04,9,9s-4.04,9-9,9S4,17.96,4,13z M18,28c-4.51,0-8.34-2.109-9.58-4.99
	C9.81,23.641,11.36,24,13,24c5.29,0,9.7-3.73,10.76-8.7C26.4,16.6,28,18.72,28,21C28,24.859,23.51,28,18,28z"/>
</svg>
