<?xml version="1.0" encoding="utf-8"?>
<!-- Generator: Adobe Illustrator 16.0.0, SVG Export Plug-In . SVG Version: 6.00 Build 0)  -->
<!DOCTYPE svg PUBLIC "-//W3C//DTD SVG 1.1//EN" "http://www.w3.org/Graphics/SVG/1.1/DTD/svg11.dtd">
<svg version="1.1" id="Capa_1" xmlns="http://www.w3.org/2000/svg" xmlns:xlink="http://www.w3.org/1999/xlink" x="0px" y="0px"
	 width="32px" height="32px" viewBox="0 0 32 32" enable-background="new 0 0 32 32" xml:space="preserve">
<path d="M15,2L2,8v16l13.09,6L28,24V8L15,2z M15,4.2l3.83,1.77L15,7.88l-3.83-1.91L15,4.2z M8,24.55l-4-1.83v-5.1l4,2V24.55z
	 M8,17.391l-4-2v-4.77l4,2V17.391z M4.93,8.85l3.92-1.81L12.77,9L9,10.88L4.93,8.85z M14,27.3l-4-1.83v-4.85l4,2V27.3z M14,20.391
	l-4-2V13.62l4,2V20.391z M15,13.88L11.24,12L15,10.12L18.76,12L15,13.88z M20,25.51l-4,1.86v-4.75l4-2V25.51z M20,18.391l-4,2V15.62
	l4-2V18.391z M17.23,9l3.92-1.96l3.92,1.81L21,10.88L17.23,9z M26,22.72l-4,1.86v-4.96l4-2V22.72z M26,15.39l-4,2V12.62l4-2V15.39z"
	/>
</svg>
