<?xml version="1.0" encoding="utf-8"?>
<!-- Generator: Adobe Illustrator 16.0.0, SVG Export Plug-In . SVG Version: 6.00 Build 0)  -->
<!DOCTYPE svg PUBLIC "-//W3C//DTD SVG 1.1//EN" "http://www.w3.org/Graphics/SVG/1.1/DTD/svg11.dtd">
<svg version="1.1" id="Capa_1" xmlns="http://www.w3.org/2000/svg" xmlns:xlink="http://www.w3.org/1999/xlink" x="0px" y="0px"
	 width="32px" height="32px" viewBox="0 0 32 32" enable-background="new 0 0 32 32" xml:space="preserve">
<path d="M15,2L2,8v16l13.09,6L28,24V8L15,2z M15,4.2l10.07,4.65L21,10.88l-9.83-4.91L15,4.2z M8,24.55l-4-1.83v-12.1l4,2V24.55z
	 M14,27.3l-4-1.83V13.62l4,2V27.3z M15,13.88L4.93,8.85l3.92-1.81L18.77,12L15,13.88z M26,22.72l-10,4.65v-4.75l10-5V22.72z
	 M26,15.39l-10,5V15.62l10-5V15.39z"/>
</svg>
