<?xml version="1.0" encoding="utf-8"?>
<!-- Generator: Adobe Illustrator 16.0.0, SVG Export Plug-In . SVG Version: 6.00 Build 0)  -->
<!DOCTYPE svg PUBLIC "-//W3C//DTD SVG 1.1//EN" "http://www.w3.org/Graphics/SVG/1.1/DTD/svg11.dtd">
<svg version="1.1" id="Capa_1" xmlns="http://www.w3.org/2000/svg" xmlns:xlink="http://www.w3.org/1999/xlink" x="0px" y="0px"
	 width="32px" height="32px" viewBox="0 0 32 32" enable-background="new 0 0 32 32" xml:space="preserve">
<path d="M16,10V9.9c2.279-0.46,4-2.48,4-4.9c0-2.76-2.24-5-5-5s-5,2.24-5,5c0,2.42,1.72,4.44,4,4.9V10H2v2h2v2h2v-2h8v8h-2v10h-2v2
	h4V22h2v10h4v-2h-2V20h-2v-8h8v2h2v-2h2v-2H16z M15,8c-1.65,0-3-1.35-3-3s1.35-3,3-3c1.65,0,3,1.35,3,3S16.65,8,15,8z"/>
</svg>
