<?xml version="1.0" encoding="utf-8"?>
<!-- Generator: Adobe Illustrator 16.0.0, SVG Export Plug-In . SVG Version: 6.00 Build 0)  -->
<!DOCTYPE svg PUBLIC "-//W3C//DTD SVG 1.1//EN" "http://www.w3.org/Graphics/SVG/1.1/DTD/svg11.dtd">
<svg version="1.1" id="Capa_1" xmlns="http://www.w3.org/2000/svg" xmlns:xlink="http://www.w3.org/1999/xlink" x="0px" y="0px"
	 width="32px" height="32px" viewBox="0 0 32 32" enable-background="new 0 0 32 32" xml:space="preserve">
<path d="M15,2C6.72,2,0,8.72,0,17c0,8.28,6.72,15,15,15c8.28,0,15-6.72,15-15C30,8.72,23.28,2,15,2z M3.1,12.53
	c0.21-1.07,0.72-2.18,1.45-3.22c0.1-0.15,0.21-0.29,0.32-0.44C5,8.7,5.14,8.54,5.28,8.38c0.17-0.2,0.34-0.39,0.53-0.57
	c0.22-0.22,0.44-0.42,0.67-0.62c1.62-1.37,3.51-2.2,5.1-2.2c0.6,0,1.43,0.12,2.01,0.7c1.33,1.33,0.79,4.86-2.13,7.77
	c-1.73,1.75-3.95,2.83-5.77,2.83c-0.6,0-1.42-0.13-2-0.7C2.82,14.72,2.94,13.3,3.1,12.53z M15,30C7.83,30,2,24.17,2,17
	c0-0.1,0-0.2,0.01-0.3c0.09,0.11,0.18,0.22,0.28,0.319c0.85,0.83,2.02,1.271,3.4,1.271c2.38,0,5.07-1.28,7.18-3.41
	c2.13-2.13,3.41-4.81,3.41-7.18c0-1.4-0.44-2.59-1.28-3.42c-0.1-0.1-0.2-0.19-0.3-0.27C14.8,4,14.9,4,15,4c7.17,0,13,5.83,13,13
	S22.17,30,15,30z"/>
</svg>
