<?xml version="1.0" encoding="utf-8"?>
<!-- Generator: Adobe Illustrator 16.0.0, SVG Export Plug-In . SVG Version: 6.00 Build 0)  -->
<!DOCTYPE svg PUBLIC "-//W3C//DTD SVG 1.1//EN" "http://www.w3.org/Graphics/SVG/1.1/DTD/svg11.dtd">
<svg version="1.1" id="Capa_1" xmlns="http://www.w3.org/2000/svg" xmlns:xlink="http://www.w3.org/1999/xlink" x="0px" y="0px"
	 width="32px" height="32px" viewBox="0 0 32 32" enable-background="new 0 0 32 32" xml:space="preserve">
<path d="M15,2C6.72,2,0,8.72,0,17s6.72,15,15,15c8.279,0,15-6.72,15-15S23.279,2,15,2z M2,17c0-5.63,3.6-10.44,8.61-12.24
	C9.41,7.03,8,10.98,8,17c0,1.561,0.09,2.98,0.26,4.27c-3.4-0.8-5.37-2.05-6.15-2.648C2.03,18.09,2,17.55,2,17z M2.76,21.391
	c1.34,0.709,3.26,1.489,5.85,2c0.51,2.59,1.29,4.51,2,5.851C6.97,27.93,4.07,25.03,2.76,21.391z M15,30
	c-0.55,0-1.09-0.03-1.62-0.109c-0.6-0.779-1.85-2.75-2.65-6.149C12.02,23.91,13.44,24,15,24c6.02,0,9.971-1.41,12.24-2.609
	C25.439,26.4,20.63,30,15,30z M15,22c-1.75,0-3.3-0.13-4.67-0.33C10.13,20.3,10,18.75,10,17c0-7.7,2.47-11.69,3.38-12.89
	C13.91,4.03,14.45,4,15,4c7.17,0,13,5.83,13,13c0,0.55-0.029,1.09-0.109,1.62C26.689,19.53,22.7,22,15,22z"/>
</svg>
