<?xml version="1.0" encoding="utf-8"?>
<!-- Generator: Adobe Illustrator 16.0.0, SVG Export Plug-In . SVG Version: 6.00 Build 0)  -->
<!DOCTYPE svg PUBLIC "-//W3C//DTD SVG 1.1//EN" "http://www.w3.org/Graphics/SVG/1.1/DTD/svg11.dtd">
<svg version="1.1" id="Capa_1" xmlns="http://www.w3.org/2000/svg" xmlns:xlink="http://www.w3.org/1999/xlink" x="0px" y="0px"
	 width="32px" height="32px" viewBox="0 0 32 32" enable-background="new 0 0 32 32" xml:space="preserve">
<path d="M16,2c0,0-8,0-8,6v18c0,6,8,6,8,6c8,0,8-6,8-6V8C24,8,24,2,16,2z M22,26c0,0.16-0.07,4-5.99,4C15.76,30,10,29.92,10,26v-3.2
	c1.24,0.591,3.19,1.2,6,1.2c2.811,0,4.76-0.609,6-1.2V26z M22,20.51C21.32,20.98,19.439,22,16,22c-3.44,0-5.32-1.02-6-1.49V12.8
	c1.24,0.59,3.19,1.2,6,1.2c2.811,0,4.76-0.61,6-1.2V20.51z M22,10.51C21.32,10.98,19.439,12,16,12c-3.44,0-5.32-1.02-6-1.49V8
	c0-3.91,5.74-4,6-4c5.6,0,5.98,3.35,6,4V10.51z"/>
</svg>
