<?xml version="1.0" encoding="utf-8"?>
<!-- Generator: Adobe Illustrator 16.0.0, SVG Export Plug-In . SVG Version: 6.00 Build 0)  -->
<!DOCTYPE svg PUBLIC "-//W3C//DTD SVG 1.1//EN" "http://www.w3.org/Graphics/SVG/1.1/DTD/svg11.dtd">
<svg version="1.1" id="Capa_1" xmlns="http://www.w3.org/2000/svg" xmlns:xlink="http://www.w3.org/1999/xlink" x="0px" y="0px"
	 width="32px" height="32px" viewBox="0 0 32 32" enable-background="new 0 0 32 32" xml:space="preserve">
<path d="M30.811,24.939L16.83,4.44C16.641,4.16,16.33,4,16,4s-0.64,0.16-0.83,0.44L1.2,24.93C0.44,25.52,0,26.21,0,27
	c0,3.439,8.29,5,16,5s16-1.561,16-5C32,26.21,31.57,25.53,30.811,24.939z M16,6.77l11.279,16.55C24.2,22.42,20.02,22,16,22
	c-4.03,0-8.21,0.43-11.29,1.32L16,6.77z M16,30c-9.24,0-14-2.1-14-3s4.76-3,14-3s14,2.1,14,3S25.24,30,16,30z M22,1v5h-2V2h-8v4h-2
	V1c0-0.55,0.45-1,1-1h10C21.55,0,22,0.45,22,1z"/>
</svg>
