<?xml version="1.0" encoding="utf-8"?>
<!-- Generator: Adobe Illustrator 16.0.0, SVG Export Plug-In . SVG Version: 6.00 Build 0)  -->
<!DOCTYPE svg PUBLIC "-//W3C//DTD SVG 1.1//EN" "http://www.w3.org/Graphics/SVG/1.1/DTD/svg11.dtd">
<svg version="1.1" id="Capa_1" xmlns="http://www.w3.org/2000/svg" xmlns:xlink="http://www.w3.org/1999/xlink" x="0px" y="0px"
	 width="32px" height="32px" viewBox="0 0 32 32" enable-background="new 0 0 32 32" xml:space="preserve">
<path d="M16.98,17.439c2.81-2.339,6.6-5.5,6.99-11.439H30V0H0v32h24v-6h-6.74C16.54,25.57,14,23.859,14,21
	C14,19.92,15.38,18.77,16.98,17.439z M2,2h26v2H2V2z M22,28v2H2v-2H22z M14.1,26H2V6h19.96c-0.38,5.01-3.62,7.7-6.26,9.9
	C13.71,17.55,12,18.98,12,21C12,23.2,13.02,24.859,14.1,26z"/>
</svg>
