<?xml version="1.0" encoding="utf-8"?>
<!-- Generator: Adobe Illustrator 16.0.0, SVG Export Plug-In . SVG Version: 6.00 Build 0)  -->
<!DOCTYPE svg PUBLIC "-//W3C//DTD SVG 1.1//EN" "http://www.w3.org/Graphics/SVG/1.1/DTD/svg11.dtd">
<svg version="1.1" id="Capa_1" xmlns="http://www.w3.org/2000/svg" xmlns:xlink="http://www.w3.org/1999/xlink" x="0px" y="0px"
	 width="32px" height="32px" viewBox="0 0 32 32" enable-background="new 0 0 32 32" xml:space="preserve">
<path d="M31.001,22c-0.294,0-0.584-0.128-0.782-0.375L23,12.601l-7.219,9.024c-0.178,0.223-0.441,0.357-0.726,0.373
	c-0.283,0.02-0.561-0.089-0.762-0.291L9,16.414l-5.293,5.293c-0.391,0.391-1.023,0.391-1.414,0s-0.391-1.023,0-1.414l6-6
	c0.391-0.391,1.023-0.391,1.414,0l5.21,5.21l7.302-9.127c0.381-0.475,1.182-0.475,1.563,0l8,10c0.345,0.433,0.274,1.062-0.156,1.406
	C31.439,21.93,31.221,22,31.001,22z M7,4c1.654,0,3,1.346,3,3s-1.346,3-3,3S4,8.654,4,7S5.346,4,7,4 M7,2C4.239,2,2,4.239,2,7
	s2.239,5,5,5s5-2.239,5-5S9.761,2,7,2L7,2z M27,28c-0.256,0-0.512-0.098-0.707-0.293L21,22.414l-5.293,5.293
	c-0.391,0.391-1.023,0.391-1.414,0L11,24.414l-3.293,3.293c-0.391,0.391-1.023,0.391-1.414,0s-0.391-1.023,0-1.414l4-4
	c0.391-0.391,1.023-0.391,1.414,0L15,25.586l5.293-5.293c0.391-0.391,1.023-0.391,1.414,0l6,6c0.391,0.391,0.391,1.023,0,1.414
	C27.512,27.902,27.256,28,27,28z"/>
</svg>
