<?xml version="1.0" encoding="utf-8"?>
<!-- Generator: Adobe Illustrator 16.0.0, SVG Export Plug-In . SVG Version: 6.00 Build 0)  -->
<!DOCTYPE svg PUBLIC "-//W3C//DTD SVG 1.1//EN" "http://www.w3.org/Graphics/SVG/1.1/DTD/svg11.dtd">
<svg version="1.1" id="Capa_1" xmlns="http://www.w3.org/2000/svg" xmlns:xlink="http://www.w3.org/1999/xlink" x="0px" y="0px"
	 width="32px" height="32px" viewBox="0 0 32 32" enable-background="new 0 0 32 32" xml:space="preserve">
<path d="M28,13.62V8.38l-5-2.5l-4,2l-4-2l-4,2l-4-2l-5,2.5v5.24l4,2v2.76l-4,2v5.24l5,2.5l4-2l4,2l4-2l4,2l5-2.5v-5.24l-4-2v-2.76
	L28,13.62z M12,9.62l3-1.5l3,1.5v2.76l-3,1.5l-3-1.5V9.62z M4,12.38V9.62l3-1.5l3,1.5v2.76l-3,1.5L4,12.38z M10,24.38l-3,1.5l-3-1.5
	v-2.76l3-1.5l3,1.5V24.38z M8,18.38v-2.76l3-1.5l3,1.5v2.76l-3,1.5L8,18.38z M18,24.38l-3,1.5l-3-1.5v-2.76l3-1.5l3,1.5V24.38z
	 M16,18.38v-2.76l3-1.5l3,1.5v2.76l-3,1.5L16,18.38z M26,21.62v2.76l-3,1.5l-3-1.5v-2.76l3-1.5L26,21.62z M23,13.88l-3-1.5V9.62
	l3-1.5l3,1.5v2.76L23,13.88z"/>
</svg>
