<?xml version="1.0" encoding="utf-8"?>
<!-- Generator: Adobe Illustrator 16.0.0, SVG Export Plug-In . SVG Version: 6.00 Build 0)  -->
<!DOCTYPE svg PUBLIC "-//W3C//DTD SVG 1.1//EN" "http://www.w3.org/Graphics/SVG/1.1/DTD/svg11.dtd">
<svg version="1.1" id="Capa_1" xmlns="http://www.w3.org/2000/svg" xmlns:xlink="http://www.w3.org/1999/xlink" x="0px" y="0px"
	 width="32px" height="32px" viewBox="0 0 32 32" enable-background="new 0 0 32 32" xml:space="preserve">
<path d="M28.71,13.29c-1.03-1.03-2.22-1.55-3.521-1.55c-2.141,0-3.789,1.45-3.899,1.55l-11,11C10.11,24.48,10,24.73,10,25v7h7
	c0.27,0,0.52-0.109,0.71-0.29l11.04-11.04C29.939,19.32,31.471,16.06,28.71,13.29z M12,30v-4.58L16.58,30H12z M18,28.58L13.42,24
	L20,17.42L24.58,22L18,28.58z M27.29,19.29L26,20.58L21.42,16l1.25-1.25c0.01-0.01,1.16-1.01,2.521-1.01c0.77,0,1.449,0.32,2.1,0.97
	C29.37,16.79,27.471,19.08,27.29,19.29z M30,10V0H0v26h8v-2H2v-6h12l2-2h-6v-6H30z M16,2h12v6H16V2z M8,16H2v-6h6V16z M2,8V2h12v6H2
	z"/>
</svg>
