<?xml version="1.0" encoding="utf-8"?>
<!-- Generator: Adobe Illustrator 16.0.0, SVG Export Plug-In . SVG Version: 6.00 Build 0)  -->
<!DOCTYPE svg PUBLIC "-//W3C//DTD SVG 1.1//EN" "http://www.w3.org/Graphics/SVG/1.1/DTD/svg11.dtd">
<svg version="1.1" id="Capa_1" xmlns="http://www.w3.org/2000/svg" xmlns:xlink="http://www.w3.org/1999/xlink" x="0px" y="0px"
	 width="32px" height="32px" viewBox="0 0 32 32" enable-background="new 0 0 32 32" xml:space="preserve">
<path d="M26,8h2v2h-2V8z M22,8h2v2h-2V8z M18,8h2v2h-2V8z M4,16v10h24V16H4z M6,18h6v2H6V18z M6,24v-2h12v2H6z M26,24h-6v-2h6V24z
	 M26,20H14v-2h12V20z M0,4v26h32V4H0z M30,28H2V14h28V28z M30,12H2V6h28V12z"/>
</svg>
