<?xml version="1.0" encoding="utf-8"?>
<!-- Generator: Adobe Illustrator 16.0.0, SVG Export Plug-In . SVG Version: 6.00 Build 0)  -->
<!DOCTYPE svg PUBLIC "-//W3C//DTD SVG 1.1//EN" "http://www.w3.org/Graphics/SVG/1.1/DTD/svg11.dtd">
<svg version="1.1" id="Capa_1" xmlns="http://www.w3.org/2000/svg" xmlns:xlink="http://www.w3.org/1999/xlink" x="0px" y="0px"
	 width="32px" height="32px" viewBox="0 0 32 32" enable-background="new 0 0 32 32" xml:space="preserve">
<path d="M10,12H8c0,6.63,5.37,12,12,12v-2C14.49,22,10,17.51,10,12z M20,0c-5.23,0-9.67,3.34-11.31,8H0v24h24v-8.69
	c4.66-1.64,8-6.079,8-11.31C32,5.37,26.63,0,20,0z M22,30H2V10h20V30z M24,21.16V8H10.84c1.54-3.53,5.07-6,9.16-6
	c5.51,0,10,4.49,10,10C30,16.09,27.53,19.62,24,21.16z M20,24v-2c-5.51,0-10-4.49-10-10H8C8,18.63,13.37,24,20,24z M10,12H8
	c0,6.63,5.37,12,12,12v-2C14.49,22,10,17.51,10,12z"/>
</svg>
