<?xml version="1.0" encoding="utf-8"?>
<!-- Generator: Adobe Illustrator 16.0.0, SVG Export Plug-In . SVG Version: 6.00 Build 0)  -->
<!DOCTYPE svg PUBLIC "-//W3C//DTD SVG 1.1//EN" "http://www.w3.org/Graphics/SVG/1.1/DTD/svg11.dtd">
<svg version="1.1" id="Capa_1" xmlns="http://www.w3.org/2000/svg" xmlns:xlink="http://www.w3.org/1999/xlink" x="0px" y="0px"
	 width="32px" height="32px" viewBox="0 0 32 32" enable-background="new 0 0 32 32" xml:space="preserve">
<path d="M0,2v30h30V2H0z M16,8h8v8h-2v-6h-6V8z M16,12h4v4h-4V12z M16,18h4v4h-4V18z M16,24h6v-6h2v8h-8V24z M14,30H2V18h2v10h10V30
	z M14,26H6v-8h2v6h6V26z M14,22h-4v-4h4V22z M14,16h-4v-4h4V16z M14,10H8v6H6V8h8V10z M14,6H4v10H2V4h12V6z M28,30H16v-2h10V18h2V30
	z M28,16h-2V6H16V4h12V16z"/>
</svg>
