<?xml version="1.0" encoding="utf-8"?>
<!-- Generator: Adobe Illustrator 16.0.0, SVG Export Plug-In . SVG Version: 6.00 Build 0)  -->
<!DOCTYPE svg PUBLIC "-//W3C//DTD SVG 1.1//EN" "http://www.w3.org/Graphics/SVG/1.1/DTD/svg11.dtd">
<svg version="1.1" id="Capa_1" xmlns="http://www.w3.org/2000/svg" xmlns:xlink="http://www.w3.org/1999/xlink" x="0px" y="0px"
	 width="32px" height="32px" viewBox="0 0 32 32" enable-background="new 0 0 32 32" xml:space="preserve">
<path d="M0,0v32h32V0H0z M2,2h6v6H2V2z M12,18H8v-4h4V18z M18,30h-4v-4h4V30z M18,24h-4v-4h4V24z M18,18h-4v-4h4V18z M18,12h-4V8h4
	V12z M30,30H20V20h6v-8h-6V6h-8v6H6v8h6v10H2V10h8V2h12v8h8V30z M20,18v-4h4v4H20z M30,8h-6V2h6V8z"/>
</svg>
