<?xml version="1.0" encoding="utf-8"?>
<!-- Generator: Adobe Illustrator 16.0.0, SVG Export Plug-In . SVG Version: 6.00 Build 0)  -->
<!DOCTYPE svg PUBLIC "-//W3C//DTD SVG 1.1//EN" "http://www.w3.org/Graphics/SVG/1.1/DTD/svg11.dtd">
<svg version="1.1" id="Capa_1" xmlns="http://www.w3.org/2000/svg" xmlns:xlink="http://www.w3.org/1999/xlink" x="0px" y="0px"
	 width="32px" height="32px" viewBox="0 0 32 32" enable-background="new 0 0 32 32" xml:space="preserve">
<path d="M15,4C0.17,4,0,17.859,0,18v10h30V18C30,17.859,29.83,4,15,4z M28,26H2v-6h26V26z M15,12c-5.54,0-7,3.92-7,6H6
	c0-0.33,0.1-8,9-8c8.85,0,9,7.68,9,8h-2C22,15.92,20.54,12,15,12z M20,18H10c0.01-0.439,0.22-4,5-4C19.811,14,20,17.6,20,18z M26,18
	c0-0.1-0.13-10-11-10S4,17.9,4,18H2C2,17.51,2.15,6,15,6c12.811,0,13,11.51,13,12H26z"/>
</svg>
