<?xml version="1.0" encoding="utf-8"?>
<!-- Generator: Adobe Illustrator 16.0.0, SVG Export Plug-In . SVG Version: 6.00 Build 0)  -->
<!DOCTYPE svg PUBLIC "-//W3C//DTD SVG 1.1//EN" "http://www.w3.org/Graphics/SVG/1.1/DTD/svg11.dtd">
<svg version="1.1" id="Capa_1" xmlns="http://www.w3.org/2000/svg" xmlns:xlink="http://www.w3.org/1999/xlink" x="0px" y="0px"
	 width="32px" height="32px" viewBox="0 0 32 32" enable-background="new 0 0 32 32" xml:space="preserve">
<path d="M15,4L4,11v10.57l11,6.6l11-6.6V11L15,4z M14,25.23L6,20.43v-8.16l8,5.089V25.23z M7.73,11L15,6.37L22.27,11L15,15.63
	L7.73,11z M24,20.43l-8,4.801v-7.869l8-5.09V20.43z M6,2v2H2v4H0V2H6z M30,2v6h-2V4h-4V2H30z M6,28v2H0v-6h2v4H6z M30,24v6h-6v-2h4
	v-4H30z"/>
</svg>
