<?xml version="1.0" encoding="utf-8"?>
<!-- Generator: Adobe Illustrator 16.0.0, SVG Export Plug-In . SVG Version: 6.00 Build 0)  -->
<!DOCTYPE svg PUBLIC "-//W3C//DTD SVG 1.1//EN" "http://www.w3.org/Graphics/SVG/1.1/DTD/svg11.dtd">
<svg version="1.1" id="Capa_1" xmlns="http://www.w3.org/2000/svg" xmlns:xlink="http://www.w3.org/1999/xlink" x="0px" y="0px"
	 width="32px" height="32px" viewBox="0 0 32 32" enable-background="new 0 0 32 32" xml:space="preserve">
<path d="M3.876,29.82c1.655-0.108,3.32-0.797,4.605-1.844c1.296-1.037,2.293-2.293,3.22-3.529c0.788-1.047,1.535-2.094,2.323-3.1
	c1.794-0.209,3.519,0.039,5.144,0.459c2.073,0.558,3.867,1.454,5.373,2.381c1.506,0.928,2.662,1.984,3.539,2.871
	c0.887,0.907,1.445,1.727,1.785,2.305c0.188,0.277,0.498,0.896,0.498,0.896l1.275-0.518c0,0-0.27-0.748-0.438-1.087
	c-0.319-0.698-0.877-1.676-1.765-2.781c-0.896-1.107-2.123-2.305-3.719-3.439c-1.585-1.156-3.568-2.203-5.912-2.892
	c-1.105-0.329-2.343-0.599-3.629-0.688c0.42-0.438,0.848-0.867,1.297-1.285c1.047-0.978,2.133-1.924,3.25-2.792
	c0.389,0.18,0.797,0.358,1.227,0.538c0.617,0.259,1.227,0.608,2.072,0.728c2.881,0.419,3.529-1.386,3.699-1.834
	c0.159-0.469,0.26-0.867,0.189-1.465c-0.061-0.468-0.209-0.917-0.479-1.356c-0.279-0.438-0.732-0.803-1.227-1.007
	c-1.454-0.604-2.423,0.219-2.771,0.409c-0.639,0.379-1.235,0.788-1.824,1.206c-0.871-0.538-2.303-1.206-3.528-1.515
	c-1.216-0.309-2.403-0.399-3.569-0.418c-0.628-0.01-1.027,0.02-1.635,0.04c-0.548,0.03-1.076,0.13-1.575,0.239
	c-2.044,0.499-3.509,1.665-4.466,2.712c-0.947,1.077-1.476,2.054-1.804,2.731c-0.329,0.678-0.449,1.086-0.449,1.086L5.58,17.21
	c0,0,0.192-0.512,0.438-0.927c0.342-0.575,0.857-1.456,1.765-2.313c0.897-0.857,2.67-2.068,5.134-1.944
	c1.889,0.096,3.3,0.748,4.257,1.167c0.6,0.259,1.217,0.528,1.864,0.817c-0.917,0.768-1.813,1.556-2.682,2.383
	c-0.837,0.768-1.615,1.605-2.363,2.472c-0.708,0.05-1.416,0.18-2.113,0.389c-2.702,0.729-5.284,1.975-7.786,3.579
	c-0.628,0.419-1.246,0.849-1.854,1.325c-0.598,0.51-1.206,0.978-1.734,1.846c0,0-0.456,0.574-0.209,1.704
	c0.108,0.497,0.378,1.047,0.807,1.416c0.429,0.378,0.927,0.578,1.406,0.677C2.51,29.801,2.887,29.919,3.876,29.82z M25.021,12.057
	c1.026,0,0.996,0.987,0.996,0.987s0,1.006-0.996,1.006c-0.998,0-1.994-0.997-1.994-0.997S24.023,12.057,25.021,12.057z
	 M10.406,23.462c-0.917,1.195-1.854,2.343-2.96,3.209c-1.087,0.856-2.353,1.354-3.708,1.446c-1.047,0.096-1.346-0.16-1.476-0.289
	c-0.249-0.189-0.327-0.723-0.209-0.928c0.25-0.398,0.797-0.879,1.326-1.275c0.548-0.398,1.126-0.777,1.734-1.107
	c2.133-1.187,4.376-2.093,6.52-2.682C11.213,22.374,10.805,22.923,10.406,23.462z M19,4c0.807,0,2.154,0.543,2.771,1
	C21.154,5.457,19.807,6,19,6c-0.552,0-1-0.449-1-1S18.448,4,19,4 M19,2c-1.657,0-3,1.343-3,3s1.343,3,3,3s5-1.343,5-3S20.657,2,19,2
	L19,2z"/>
</svg>
