<?xml version="1.0" encoding="utf-8"?>
<!-- Generator: Adobe Illustrator 16.0.0, SVG Export Plug-In . SVG Version: 6.00 Build 0)  -->
<!DOCTYPE svg PUBLIC "-//W3C//DTD SVG 1.1//EN" "http://www.w3.org/Graphics/SVG/1.1/DTD/svg11.dtd">
<svg version="1.1" id="Capa_1" xmlns="http://www.w3.org/2000/svg" xmlns:xlink="http://www.w3.org/1999/xlink" x="0px" y="0px"
	 width="32px" height="32px" viewBox="0 0 32 32" enable-background="new 0 0 32 32" xml:space="preserve">
<path d="M15,2C6.72,2,0,8.72,0,17s6.72,15,15,15c8.279,0,15-6.72,15-15S23.279,2,15,2z M15,4c6.52,0,11.93,4.82,12.859,11.08
	C27.16,16.34,24.32,20,15,20c-9.32,0-12.16-3.66-12.86-4.91C3.06,8.82,8.48,4,15,4z M15,30C8.2,30,2.61,24.76,2.05,18.1
	C4.03,19.939,7.86,22,15,22c7.141,0,10.96-2.07,12.95-3.9C27.391,24.76,21.8,30,15,30z M12,18h6l-3-4L12,18z M12,24h6l-3,4L12,24z"
	/>
</svg>
