<?xml version="1.0" encoding="utf-8"?>
<!-- Generator: Adobe Illustrator 16.0.0, SVG Export Plug-In . SVG Version: 6.00 Build 0)  -->
<svg xmlns="http://www.w3.org/2000/svg" xmlns:xlink="http://www.w3.org/1999/xlink" version="1.1" id="257185351_Capa_1_grid" x="0px" y="0px" width="32px" height="32px" viewBox="0 0 32 32" style="enable-background:new 0 0 32 32;" xml:space="preserve">
<path d="M28,17c0-7.168-5.832-13-13-13C7.832,4,2,9.832,2,17c0,4.543,2.347,8.543,5.887,10.868l-1.719,2.577l1.664,1.109  l1.815-2.722C11.282,29.576,13.091,30,15,30c1.912,0,3.724-0.426,5.36-1.17l1.818,2.725l1.664-1.109l-1.723-2.582  C25.656,25.538,28,21.54,28,17z M15,28C8.935,28,4,23.065,4,17S8.935,6,15,6s11,4.935,11,11S21.065,28,15,28z M3.555,7.833  L2.446,6.168l6-3.999l1.109,1.664L3.555,7.833z M26.444,7.832l-6-3.999l1.109-1.664l6,3.999L26.444,7.832z M16,16h6v2h-8V8h2V16z"/>
</svg>
