<?xml version="1.0" encoding="utf-8"?>
<!-- Generator: Adobe Illustrator 16.0.0, SVG Export Plug-In . SVG Version: 6.00 Build 0)  -->
<svg xmlns="http://www.w3.org/2000/svg" xmlns:xlink="http://www.w3.org/1999/xlink" version="1.1" id="257185352_Capa_1_grid" x="0px" y="0px" width="32px" height="32px" viewBox="0 0 32 32" style="enable-background:new 0 0 32 32;" xml:space="preserve">
<path d="M10,10H2V2h8V10z M4,8h4V4H4V8z M20,10h-8V2h8V10z M14,8h4V4h-4V8z M30,10h-8V2h8V10z M24,8h4V4h-4V8z M10,20H2v-8h8V20z   M4,18h4v-4H4V18z M20,20h-8v-8h8V20z M14,18h4v-4h-4V18z M30,20h-8v-8h8V20z M24,18h4v-4h-4V18z M10,30H2v-8h8V30z M4,28h4v-4H4V28  z M20,30h-8v-8h8V30z M14,28h4v-4h-4V28z M30,30h-8v-8h8V30z M24,28h4v-4h-4V28z"/>
</svg>
