<?xml version="1.0" encoding="utf-8"?>
<!-- Generator: Adobe Illustrator 16.0.0, SVG Export Plug-In . SVG Version: 6.00 Build 0)  -->
<svg xmlns="http://www.w3.org/2000/svg" xmlns:xlink="http://www.w3.org/1999/xlink" version="1.1" id="257185354_Capa_1_grid" x="0px" y="0px" width="32px" height="32px" viewBox="0 0 32 32" enable-background="new 0 0 32 32" xml:space="preserve">
<g>
	<g>
		<g>
			<path d="M15,2C6.721,2,0,8.72,0,17c0,8.28,6.721,15,15,15c8.28,0,15-6.72,15-15C30,8.72,23.28,2,15,2z M15,30     C7.83,30,2,24.17,2,17S7.83,4,15,4s13,5.83,13,13S22.17,30,15,30z"/>
		</g>
		<g>
			<polygon points="15,5.59 21.71,12.29 20.29,13.71 16,9.41 16,24.59 20.29,20.29 21.71,21.71 15,28.41 8.29,21.71 9.71,20.29      14,24.59 14,9.41 9.71,13.71 8.29,12.29    "/>
		</g>
	</g>
</g>
</svg>
