<?xml version="1.0" encoding="utf-8"?>
<!-- Generator: Adobe Illustrator 16.0.0, SVG Export Plug-In . SVG Version: 6.00 Build 0)  -->
<svg xmlns="http://www.w3.org/2000/svg" xmlns:xlink="http://www.w3.org/1999/xlink" version="1.1" id="257185363_Capa_1_grid" x="0px" y="0px" width="32px" height="32px" viewBox="0 0 32 32" enable-background="new 0 0 32 32" xml:space="preserve">
<g>
	<path d="M14,20H7c-2.421,0-7-1.463-7-7s4.579-7,7-7h6c3.955,0,5,3.271,5,5c0,3.955-3.271,5-5,5H7c-1.206,0-3-0.799-3-3s1.794-3,3-3   h7v2H7c-0.45,0.012-1,0.195-1,1s0.55,0.988,1.012,1H13c0.497-0.006,3-0.177,3-3c-0.006-0.497-0.177-3-3-3H7   c-0.508,0.004-5,0.176-5,5c0,4.943,4.796,5,5,5h7V20z"/>
</g>
<g>
	<polygon points="30,2 30,32 8,32 8,22 10,22 10,30 28,30 28,4 8,4 8,2  "/>
</g>
</svg>
