<?xml version="1.0" encoding="utf-8"?>
<!-- Generator: Adobe Illustrator 16.0.0, SVG Export Plug-In . SVG Version: 6.00 Build 0)  -->
<svg xmlns="http://www.w3.org/2000/svg" xmlns:xlink="http://www.w3.org/1999/xlink" version="1.1" id="257185365_Capa_1_grid" x="0px" y="0px" width="32px" height="32px" viewBox="0 0 32 32" style="enable-background:new 0 0 32 32;" xml:space="preserve">
<g>
	<path d="M12,10.351V3.59L4.59,11H2c-2,0-2,2-2,2v6c0,2,2,2,2,2h2.59L12,28.41v-6.761c2.326-0.826,3.999-3.043,3.999-5.649   C15.999,13.394,14.326,11.177,12,10.351z M4,19H2.04C2.03,19,2.02,19,2,18.99v-5.95c0-0.01,0-0.02,0.01-0.04H4V19z M10,23.59l-4-4   v-7.18l4-4V23.59z M12,19.443v-6.886c1.189,0.694,1.999,1.969,1.999,3.443S13.189,18.749,12,19.443z"/>
	<path d="M19.452,9.331l-1.49,1.334c1.315,1.468,2.039,3.362,2.039,5.335s-0.724,3.867-2.037,5.335l1.49,1.334   c1.643-1.835,2.547-4.203,2.547-6.669S21.096,11.166,19.452,9.331z"/>
</g>
</svg>
