<?xml version="1.0" encoding="utf-8"?>
<!-- Generator: Adobe Illustrator 16.0.0, SVG Export Plug-In . SVG Version: 6.00 Build 0)  -->
<svg xmlns="http://www.w3.org/2000/svg" xmlns:xlink="http://www.w3.org/1999/xlink" version="1.1" id="257146623_Capa_1_grid" x="0px" y="0px" width="32px" height="32px" viewBox="0 0 32 32" enable-background="new 0 0 32 32" xml:space="preserve">
<path d="M25,10h-7V8h-4v2H7c-3.87,0-7,3.13-7,7s3.13,7,7,7c2.8,0,5.2-1.63,6.32-4h5.36c1.12,2.37,3.521,4,6.32,4c3.87,0,7-3.13,7-7  S28.87,10,25,10z M7,22c-2.76,0-5-2.24-5-5s2.24-5,5-5s5,2.24,5,5S9.76,22,7,22z M18.08,18h-4.16c0.06-0.32,0.08-0.66,0.08-1  s-0.02-0.68-0.08-1h4.16C18.02,16.32,18,16.66,18,17S18.02,17.68,18.08,18z M18.68,14h-5.36c-0.35-0.75-0.84-1.43-1.43-2h8.22  C19.52,12.57,19.03,13.25,18.68,14z M25,22c-2.76,0-5-2.24-5-5s2.24-5,5-5s5,2.24,5,5S27.76,22,25,22z"/>
</svg>
