<?xml version="1.0" encoding="utf-8"?>
<!-- Generator: Adobe Illustrator 16.0.0, SVG Export Plug-In . SVG Version: 6.00 Build 0)  -->
<svg xmlns="http://www.w3.org/2000/svg" xmlns:xlink="http://www.w3.org/1999/xlink" version="1.1" id="257146622_Capa_1_grid" x="0px" y="0px" width="32px" height="32px" viewBox="0 0 32 32" enable-background="new 0 0 32 32" xml:space="preserve">
<path d="M26,8h-8v2h-4V8H6c0,0-4,3-4,12.2V24h2c0.74,1.21,1.939,2,4,2s3.26-0.79,4-2h2v-6h4v6h2c0.75,1.21,1.939,2,4,2  s3.262-0.79,4-2h2v-3.8C30,11,26,8,26,8z M12,22H4v-1.8c0-6.16,2.07-9.11,3.109-10.2H12V22z M18,16h-4v-4h4V16z M28,22h-8V10h4.891  C25.93,11.09,28,14.04,28,20.2V22z M6,4h8v2H6V4z M18,4h8v2h-8V4z"/>
</svg>
