<?xml version="1.0" encoding="utf-8"?>
<!-- Generator: Adobe Illustrator 16.0.0, SVG Export Plug-In . SVG Version: 6.00 Build 0)  -->
<svg xmlns="http://www.w3.org/2000/svg" xmlns:xlink="http://www.w3.org/1999/xlink" version="1.1" id="257185378_Capa_1_grid" x="0px" y="0px" width="32px" height="32px" viewBox="0 0 32 32" style="enable-background:new 0 0 32 32;" xml:space="preserve">
<path d="M24,6v2h4v4H2V8h4V6H0v24h30V6H24z M28,28H2V14h26V28z M8,4h2v4H8V4z M20,4h2v4h-2V4z M12,6h6v2h-6V6z M6,20H4v-2h2V20z   M10,20H8v-2h2V20z M14,20h-2v-2h2V20z M18,20h-2v-2h2V20z M22,20h-2v-2h2V20z M26,20h-2v-2h2V20z M6,24H4v-2h2V24z M10,24H8v-2h2  V24z M14,24h-2v-2h2V24z M18,24h-2v-2h2V24z M22,24h-2v-2h2V24z M26,24h-2v-2h2V24z"/>
</svg>
