<?xml version="1.0" encoding="utf-8"?>
<!-- Generator: Adobe Illustrator 16.0.0, SVG Export Plug-In . SVG Version: 6.00 Build 0)  -->
<svg xmlns="http://www.w3.org/2000/svg" xmlns:xlink="http://www.w3.org/1999/xlink" version="1.1" id="257185383_Capa_1_grid" x="0px" y="0px" width="32px" height="32px" viewBox="0 0 32 32" enable-background="new 0 0 32 32" xml:space="preserve">
<path d="M17,2C9.82,2,4,7.37,4,14c0,3.04,1.22,5.81,3.23,7.92L4,30l9.1-4.55C14.33,25.81,15.64,26,17,26c7.18,0,13-5.37,13-12  S24.18,2,17,2z M17,24c-1.15,0-2.27-0.16-3.34-0.47l-0.75-0.221l-0.7,0.351l-4.4,2.2l1.28-3.2l0.47-1.19l-0.88-0.93  C6.95,18.73,6,16.4,6,14C6,8.49,10.93,4,17,4c6.07,0,11,4.49,11,10S23.07,24,17,24z"/>
<rect x="16" y="18" width="2" height="2"/>
<rect x="16" y="8" width="2" height="8"/>
</svg>
