<?xml version="1.0" encoding="utf-8"?>
<!-- Generator: Adobe Illustrator 16.0.0, SVG Export Plug-In . SVG Version: 6.00 Build 0)  -->
<svg xmlns="http://www.w3.org/2000/svg" xmlns:xlink="http://www.w3.org/1999/xlink" version="1.1" id="257146638_Capa_1_grid" x="0px" y="0px" width="32px" height="32px" viewBox="0 0 32 32" enable-background="new 0 0 32 32" xml:space="preserve">
<g>
	<g>
		<path d="M0,2v30h30V2H0z M28,30H2V4h26V30z"/>
	</g>
	<path d="M15,8c-4.97,0-9,4.03-9,9c0,4.97,4.03,9,9,9c4.97,0,9-4.03,9-9C24,12.03,19.97,8,15,8z M15,24c-3.86,0-7-3.14-7-7   c0-3.86,3.14-7,7-7c3.86,0,7,3.14,7,7C22,20.86,18.86,24,15,24z"/>
</g>
</svg>
