<?xml version="1.0" encoding="utf-8"?>
<!-- Generator: Adobe Illustrator 16.0.0, SVG Export Plug-In . SVG Version: 6.00 Build 0)  -->
<svg xmlns="http://www.w3.org/2000/svg" xmlns:xlink="http://www.w3.org/1999/xlink" version="1.1" id="257185392_Capa_1_grid" x="0px" y="0px" width="32px" height="32px" viewBox="0 0 32 32" enable-background="new 0 0 32 32" xml:space="preserve">
<g>
	<path d="M15,2C6.73,2,0,8.73,0,17c0,4.01,1.56,7.77,4.39,10.61C7.23,30.44,10.99,32,15,32c8.27,0,15-6.73,15-15   C30,8.73,23.27,2,15,2z M15,30c-3.47,0-6.74-1.35-9.19-3.81C3.35,23.74,2,20.47,2,17C2,9.83,7.83,4,15,4s13,5.83,13,13   S22.17,30,15,30z"/>
</g>
<g>
	<polygon points="20.657,9.929 22.071,11.343 16.414,17 22.071,22.656 20.657,24.07 15,18.414 9.343,24.071 7.929,22.657 13.586,17    7.929,11.343 9.343,9.929 15,15.586  "/>
</g>
</svg>
