<?xml version="1.0" encoding="utf-8"?>
<!-- Generator: Adobe Illustrator 16.0.0, SVG Export Plug-In . SVG Version: 6.00 Build 0)  -->
<svg xmlns="http://www.w3.org/2000/svg" xmlns:xlink="http://www.w3.org/1999/xlink" version="1.1" id="257185396_Capa_1_grid" x="0px" y="0px" width="32px" height="32px" viewBox="0 0 32 32" enable-background="new 0 0 32 32" xml:space="preserve">
<g>
	<path d="M21.46,12H12v20h16V19.63L21.46,12z M22,15.7l3.68,4.3H23c-0.81,0-0.99-0.55-1-1V15.7z M26,30H14V14h6v5   c0,0.31,0.05,0.65,0.17,1H16v2h10V30z"/>
</g>
<rect x="16" y="24" width="8" height="2"/>
<rect x="8" y="12" width="2" height="2"/>
<path d="M8,10h12V7.63L13.46,0H4v20h6v-2H6V2h6v5c0,0.31,0.05,0.65,0.17,1H8V10z M14,3.7L17.68,8H15c-0.81,0-0.99-0.55-1-1V3.7z"/>
</svg>
