<?xml version="1.0" encoding="utf-8"?>
<!-- Generator: Adobe Illustrator 16.0.0, SVG Export Plug-In . SVG Version: 6.00 Build 0)  -->
<svg xmlns="http://www.w3.org/2000/svg" xmlns:xlink="http://www.w3.org/1999/xlink" version="1.1" id="257146647_Capa_1_grid" x="0px" y="0px" width="32px" height="32px" viewBox="0 0 32 32" enable-background="new 0 0 32 32" xml:space="preserve">
<g>
	<g>
		<path d="M21.95,22.08c-0.04,1.96-1.34,5.41-5.95,5.87V30h-2v-2.06c-3.9-0.381-5.641-3.171-6.02-4.7l1.939-0.48    C9.95,22.88,10.83,26,14.95,26c4.81,0,5-3.6,5-4.01l0.02-0.19c0,0,0.23-1.34-0.63-2.37C18.55,18.48,17.07,18,14.95,18    c-5.54,0-7-3.92-7-6c0-1.96,1.29-5.54,6.05-5.96V4h2v2.07c3.83,0.42,5.54,3.17,5.92,4.689l-1.939,0.49    C19.95,11.12,19.07,8,14.95,8c-4.81,0-4.99,3.6-5,4.01c0.01,0.391,0.19,3.99,5,3.99c2.77,0,4.77,0.73,5.95,2.18    C22.19,19.75,22.02,21.61,21.95,22.08z"/>
	</g>
</g>
</svg>
