<?xml version="1.0" encoding="utf-8"?>
<!-- Generator: Adobe Illustrator 16.0.0, SVG Export Plug-In . SVG Version: 6.00 Build 0)  -->
<svg xmlns="http://www.w3.org/2000/svg" xmlns:xlink="http://www.w3.org/1999/xlink" version="1.1" id="257185402_Capa_1_grid" x="0px" y="0px" width="32px" height="32px" viewBox="0 0 32 32" enable-background="new 0 0 32 32" xml:space="preserve">
<g>
	<g>
		<path d="M28,2V0H9C5.04,0,4,3.27,4,5v22c0,1.73,1.04,5,5,5h19V8h-2V2H28z M6,5c0.01-0.52,0.19-3,3-3h15v6H9    C6.18,8,6.01,5.5,6,5.01V5z M26,30H9c-2.82,0-2.99-2.5-3-3V9.12C6.73,9.65,7.71,10,9,10h17V30z"/>
	</g>
</g>
<g>
	<path d="M17,12c-2.76,0-5,2.24-5,5c0,2.42,1.72,4.44,4,4.9V26h2v-4.1c2.28-0.46,4-2.48,4-4.9C22,14.24,19.76,12,17,12z M17,20   c-1.65,0-3-1.35-3-3c0-1.65,1.35-3,3-3c1.65,0,3,1.35,3,3C20,18.65,18.65,20,17,20z"/>
</g>
</svg>
