<?xml version="1.0"?>
<svg xmlns="http://www.w3.org/2000/svg" id="Layer_1" data-name="Layer 1" viewBox="0 0 32 32"><title>dish_win_10</title><path d="M16,9.42A6.58,6.58,0,1,0,22.58,16,6.59,6.59,0,0,0,16,9.42Zm0,11.16A4.58,4.58,0,1,1,20.58,16,4.58,4.58,0,0,1,16,20.58Z" fill="#231f20"/><path d="M30.17,6.09A4.91,4.91,0,0,0,27,5H26l0,4.53A11.91,11.91,0,0,0,16,4.08a11.72,11.72,0,0,0-7,2.3V5.08H7V11a1,1,0,0,1-1,1H6v-7H4v7A1,1,0,0,1,3,11V5.08H1V11a3,3,0,0,0,2.88,3H4V27H6V22.41a11.9,11.9,0,0,0,20,.19l0,4.42h2l0-7a2.92,2.92,0,0,0,3-3V7.91A2.52,2.52,0,0,0,30.17,6.09ZM16,25.92A9.93,9.93,0,0,1,6.08,16a10.4,10.4,0,0,1,.1-1.37c0-.21.08-.41.12-.62A3,3,0,0,0,9,11V9a9.79,9.79,0,0,1,7-2.93,9.92,9.92,0,0,1,0,19.84ZM28.92,17a.92.92,0,0,1-1,1L28,7.12a2,2,0,0,1,.77.38.54.54,0,0,1,.16.41Z" fill="#231f20"/></svg>
