<?xml version="1.0" encoding="utf-8"?>
<!-- Generator: Adobe Illustrator 16.0.0, SVG Export Plug-In . SVG Version: 6.00 Build 0)  -->
<svg xmlns="http://www.w3.org/2000/svg" xmlns:xlink="http://www.w3.org/1999/xlink" version="1.1" id="257146653_Capa_1_grid" x="0px" y="0px" width="32px" height="32px" viewBox="0 0 32 32" enable-background="new 0 0 32 32" xml:space="preserve">
<g>
	<path d="M28.41,0H0v30c0,1.1,0.9,2,2,2h28c1.1,0,2-0.9,2-2V3.59L28.41,0z M14,2h4v8h4V2h2v10H14V2z M8,2h4v10H8V2z M22,30H10V20h12   V30z M30,30h-6V18H8v12H2V2h4v12h20V2h1.59L30,4.41V30z"/>
</g>
<g>
	<rect x="4" y="26" width="2" height="2"/>
</g>
<g>
	<rect x="26" y="26" width="2" height="2"/>
</g>
</svg>
