<?xml version="1.0" encoding="utf-8"?>
<!-- Generator: Adobe Illustrator 16.0.0, SVG Export Plug-In . SVG Version: 6.00 Build 0)  -->
<svg xmlns="http://www.w3.org/2000/svg" xmlns:xlink="http://www.w3.org/1999/xlink" version="1.1" id="257185408_Capa_1_grid" x="0px" y="0px" width="32px" height="32px" viewBox="0 0 32 32" enable-background="new 0 0 32 32" xml:space="preserve">
<g>
	<g>
		<g>
			<path d="M30,17c0,8.28-6.72,15-15,15C6.72,32,0,25.28,0,17C0,9.75,5.15,3.69,12,2.3v2.05C6.27,5.71,2,10.86,2,17     c0,7.17,5.83,13,13,13s13-5.83,13-13c0-6.14-4.27-11.29-10-12.65V2.3C24.85,3.69,30,9.75,30,17z"/>
		</g>
		<g>
			<path d="M21.71,15.71L15,22.41l-6.71-6.7l1.42-1.42l4.29,4.3V2.04C14.33,2.01,14.66,2,15,2s0.67,0.01,1,0.04v16.55l4.29-4.3     L21.71,15.71z"/>
		</g>
	</g>
	<g>
		<rect x="8" y="24" width="14" height="2"/>
	</g>
</g>
</svg>
