<?xml version="1.0" encoding="utf-8"?>
<!-- Generator: Adobe Illustrator 16.0.0, SVG Export Plug-In . SVG Version: 6.00 Build 0)  -->
<svg xmlns="http://www.w3.org/2000/svg" xmlns:xlink="http://www.w3.org/1999/xlink" version="1.1" id="257146667_Capa_1_grid" x="0px" y="0px" width="32px" height="32px" viewBox="0 0 32 32" enable-background="new 0 0 32 32" xml:space="preserve">
<g>
	<g>
		<path d="M15.56,2.21c-0.34-0.23-0.78-0.23-1.12,0C12.36,3.63,2,11.1,2,19c0,6.8,4.72,9,7,9c2.25,0,3.88-0.76,5-1.73V30h-4v2h10v-2    h-4v-3.73C17.12,27.24,18.75,28,21,28c2.28,0,7-2.2,7-9C28,11.1,17.64,3.63,15.56,2.21z M21,26c-4.12,0-5-3.12-5.03-3.24    C15.86,22.31,15.46,22,15,22s-0.86,0.31-0.97,0.76C14.02,22.79,13.17,26,9,26c-1.63,0-5-1.71-5-7c0-5.48,6.66-11.65,11-14.74    C19.34,7.35,26,13.52,26,19C26,24.29,22.63,26,21,26z"/>
	</g>
</g>
</svg>
