<?xml version="1.0" encoding="utf-8"?>
<!-- Generator: Adobe Illustrator 16.0.0, SVG Export Plug-In . SVG Version: 6.00 Build 0)  -->
<svg xmlns="http://www.w3.org/2000/svg" xmlns:xlink="http://www.w3.org/1999/xlink" version="1.1" id="257185419_Capa_1_grid" x="0px" y="0px" width="32px" height="32px" viewBox="0 0 32 32" enable-background="new 0 0 32 32" xml:space="preserve">
<g>
	<g>
		<path d="M21.77,12.044c0.15-0.659,0.23-1.35,0.23-2.049c0-4.41-3.14-8-7-8c-3.859,0-7,3.59-7,8c0,0.699,0.08,1.39,0.23,2.049    C4.73,12.485,2,15.885,2,19.995c0,4.41,3.141,8,7,8c1.66,0,3.59-0.561,5.01-1.391v3.4h-4v2h10v-2h-4v-3.32    c1.66,1.01,3.84,1.311,4.99,1.311c3.86,0,7-3.59,7-8C28,15.885,25.27,12.485,21.77,12.044z M21,25.995    c-1.39,0-3.78-0.51-4.74-1.65c-0.189-0.221-0.47-0.35-0.76-0.35h-1c-0.26,0-0.51,0.1-0.7,0.279c-0.95,0.93-3.149,1.721-4.8,1.721    c-2.76,0-5-2.691-5-6c0-3.311,2.24-6,5-6c0.15,0,0.3,0.01,0.439,0.029c0.36,0.061,0.721-0.09,0.951-0.369    c0.219-0.291,0.27-0.681,0.129-1.011C10.18,11.825,10,10.935,10,9.995c0-3.311,2.24-6,5-6s5,2.689,5,6    c0,0.939-0.17,1.83-0.52,2.649c-0.141,0.33-0.091,0.72,0.13,1.011c0.229,0.279,0.59,0.43,0.949,0.369    c0.141-0.02,0.29-0.029,0.44-0.029c2.76,0,5,2.689,5,6C26,23.304,23.76,25.995,21,25.995z"/>
	</g>
</g>
</svg>
