<?xml version="1.0" encoding="utf-8"?>
<!-- Generator: Adobe Illustrator 16.0.0, SVG Export Plug-In . SVG Version: 6.00 Build 0)  -->
<svg xmlns="http://www.w3.org/2000/svg" xmlns:xlink="http://www.w3.org/1999/xlink" version="1.1" id="257185423_Capa_1_grid" x="0px" y="0px" width="32px" height="32px" viewBox="0 0 32 32" enable-background="new 0 0 32 32" xml:space="preserve">
<g>
	<path d="M27,2H3C0.8,2,0,3.79,0,5v24c0,2.2,1.79,3,3,3h24c2.2,0,3-1.79,3-3V5C30,2.8,28.21,2,27,2z M28,28.99   C27.99,29.45,27.81,30,27,30H3.01C2.55,29.99,2,29.81,2,29V5.01C2.01,4.55,2.19,4,3,4h23.99C27.45,4.01,28,4.19,28,5V28.99z"/>
</g>
<g>
	<path d="M9,8c-1.65,0-3,1.35-3,3s1.35,3,3,3s3-1.35,3-3S10.65,8,9,8z M9,12c-0.55,0-1-0.45-1-1s0.45-1,1-1s1,0.45,1,1S9.55,12,9,12   z"/>
</g>
<g>
	<path d="M21,8c-1.65,0-3,1.35-3,3s1.35,3,3,3s3-1.35,3-3S22.65,8,21,8z M21,12c-0.55,0-1-0.45-1-1s0.45-1,1-1s1,0.45,1,1   S21.55,12,21,12z"/>
</g>
<g>
	<path d="M9,20c-1.65,0-3,1.35-3,3s1.35,3,3,3s3-1.35,3-3S10.65,20,9,20z M9,24c-0.55,0-1-0.45-1-1s0.45-1,1-1s1,0.45,1,1   S9.55,24,9,24z"/>
</g>
<g>
	<path d="M21,26c-1.654,0-3-1.346-3-3s1.346-3,3-3s3,1.346,3,3S22.654,26,21,26z M21,22c-0.552,0-1,0.448-1,1s0.448,1,1,1   s1-0.448,1-1S21.552,22,21,22z"/>
</g>
<g>
	<path d="M15,14c-1.65,0-3,1.35-3,3c0,1.65,1.35,3,3,3s3-1.35,3-3C18,15.35,16.65,14,15,14z M15,18c-0.55,0-1-0.45-1-1s0.45-1,1-1   s1,0.45,1,1S15.55,18,15,18z"/>
</g>
</svg>
