<?xml version="1.0" encoding="utf-8"?>
<!-- Generator: Adobe Illustrator 16.0.0, SVG Export Plug-In . SVG Version: 6.00 Build 0)  -->
<svg xmlns="http://www.w3.org/2000/svg" xmlns:xlink="http://www.w3.org/1999/xlink" version="1.1" id="257146666_Capa_1_grid" x="0px" y="0px" width="32px" height="32px" viewBox="0 0 32 32" enable-background="new 0 0 32 32" xml:space="preserve">
<g>
	<g>
		<path d="M15,30c-0.197,0-0.394-0.058-0.563-0.174C12.36,28.409,2,20.941,2,13.04c0-6.8,4.716-9,7-9c3.052,0,4.952,1.386,6,2.797    c1.048-1.411,2.948-2.797,6-2.797c2.284,0,7,2.2,7,9c0,8.087-11.164,15.92-12.438,16.786C15.393,29.942,15.196,30,15,30z M9,6.04    c-1.631,0-5,1.711-5,7c0,5.477,6.664,11.654,11,14.741c4.336-3.081,11-9.252,11-14.741c0-5.289-3.368-7-5-7    c-4.171,0-5.022,3.21-5.03,3.243C15.859,9.728,15.459,10.04,15,10.04s-0.859-0.313-0.97-0.757C13.997,9.157,13.119,6.04,9,6.04z"/>
	</g>
</g>
</svg>
