<?xml version="1.0" encoding="utf-8"?>
<!-- Generator: Adobe Illustrator 16.0.0, SVG Export Plug-In . SVG Version: 6.00 Build 0)  -->
<svg xmlns="http://www.w3.org/2000/svg" xmlns:xlink="http://www.w3.org/1999/xlink" version="1.1" id="257185427_Capa_1_grid" x="0px" y="0px" width="32px" height="32px" viewBox="0 0 32 32" enable-background="new 0 0 32 32" xml:space="preserve">
<g>
	<path d="M29,14c-0.16,0-0.31,0.04-0.45,0.11C28.51,14.12,24.72,16,21,16c-1.88,0-2.58-1.11-2.85-2H23c1.21,0,3-0.8,3-3s-1.79-3-3-3   H13c-4.96,0-6.41,2.55-6.83,4H0v12h6.82c0.98,0.37,5.74,2,12.18,2c5.45,0,13-6.25,13-9C32,14.8,30.21,14,29,14z M6,22H2v-8h4V22z    M19,24c-5.31,0-9.47-1.2-11-1.71v-9.28C8.01,12.7,8.22,10,13,10h9.99c0.46,0.01,1.01,0.19,1.01,1s-0.55,0.99-1,1h-6   c-0.55,0-1,0.45-1,1c0,1.73,1.04,5,5,5c3.64,0,7.21-1.53,8.19-1.98C29.6,16.08,30,16.31,30,16.99C29.91,18.23,23.72,24,19,24z"/>
</g>
</svg>
