<?xml version="1.0" encoding="utf-8"?>
<!-- Generator: Adobe Illustrator 16.0.0, SVG Export Plug-In . SVG Version: 6.00 Build 0)  -->
<svg xmlns="http://www.w3.org/2000/svg" xmlns:xlink="http://www.w3.org/1999/xlink" version="1.1" id="257185426_Capa_1_grid" x="0px" y="0px" width="32px" height="32px" viewBox="0 0 32 32" enable-background="new 0 0 32 32" xml:space="preserve">
<g>
	<path d="M28,10L18,8.33V3c0-1.65-1.35-3-3-3s-3,1.35-3,3v15l-6-2c-4,0-4,4-4,4l12,10h16V14C30,12,30,11,28,10z M28,27.99   C27.98,28,27.97,28,27.96,28H14.721l-10.58-8.82C4.34,18.6,4.779,18.1,5.71,18.01l5.66,1.891c0.61,0.199,1.28,0.1,1.8-0.28   C13.689,19.25,14,18.64,14,18V3c0-0.55,0.45-1,1-1s1,0.45,1,1v11h2v-3.64l2,0.33V14h2v-2.97l2,0.33V14h2v-2.31l1.37,0.23   C28,12.26,28,12.43,28,14V27.99z"/>
</g>
</svg>
