<?xml version="1.0" encoding="utf-8"?>
<!-- Generator: Adobe Illustrator 16.0.0, SVG Export Plug-In . SVG Version: 6.00 Build 0)  -->
<svg xmlns="http://www.w3.org/2000/svg" xmlns:xlink="http://www.w3.org/1999/xlink" version="1.1" id="257146677_Capa_1_grid" x="0px" y="0px" width="32px" height="32px" viewBox="0 0 32 32" enable-background="new 0 0 32 32" xml:space="preserve">
<path d="M11.27,26.39l-1.11,1.67c1.72,1.061,3.7,1.74,5.84,1.9v-2.01C14.28,27.8,12.67,27.25,11.27,26.39z M6.89,21.35l-1.5,1.5  c0.78,1.551,1.86,2.92,3.16,4.03l1.12-1.68C8.48,24.14,7.53,22.82,6.89,21.35z"/>
<polygon points="22,16 22,18 16,18 16,8 18,8 18,16 "/>
<g>
	<path d="M30,17c0,6.84-5.29,12.45-12,12.96v-2.01c5.6-0.5,10-5.22,10-10.95c0-6.07-4.93-11-11-11C11.07,6,6.23,10.71,6.01,16.58   l2.28-2.29l1.42,1.42L5,20.41l-4.71-4.7l1.42-1.42l2.3,2.31C4.22,9.6,9.95,4,17,4C24.18,4,30,9.82,30,17z"/>
</g>
</svg>
