<?xml version="1.0" encoding="utf-8"?>
<!-- Generator: Adobe Illustrator 16.0.0, SVG Export Plug-In . SVG Version: 6.00 Build 0)  -->
<svg xmlns="http://www.w3.org/2000/svg" xmlns:xlink="http://www.w3.org/1999/xlink" version="1.1" id="257146679_Capa_1_grid" x="0px" y="0px" width="32px" height="32px" viewBox="0 0 32 32" enable-background="new 0 0 32 32" xml:space="preserve">
<g>
	<path d="M26,2h2V0H4v2h2c0,0.12,0.09,10.36,7.1,14C6.09,19.64,6,29.88,6,30H4v2h24v-2h-2c0-0.12-0.09-10.36-7.1-14   C25.91,12.36,26,2.12,26,2z M8,2h16c0,0.06-0.03,2.93-1.11,6H9.11C8.03,4.93,8,2.06,8,2z M24,30H8c0-0.04,0.01-1.03,0.24-2.46   L16,24.09l7.76,3.45C23.99,28.97,24,29.96,24,30z M23.24,25.13L16,21.91l-7.24,3.22c0.9-3.21,2.88-7.02,7.24-8.1   C20.36,18.11,22.34,21.92,23.24,25.13z M16,14.97c-2.97-0.73-4.84-2.74-6.02-4.97h12.04C20.84,12.23,18.97,14.24,16,14.97z"/>
</g>
</svg>
