<?xml version="1.0" encoding="utf-8"?>
<!-- Generator: Adobe Illustrator 16.0.0, SVG Export Plug-In . SVG Version: 6.00 Build 0)  -->
<svg xmlns="http://www.w3.org/2000/svg" xmlns:xlink="http://www.w3.org/1999/xlink" version="1.1" id="257146681_Capa_1_grid" x="0px" y="0px" width="32px" height="32px" viewBox="0 0 32 32" enable-background="new 0 0 32 32" xml:space="preserve">
<g>
	<g>
		<g>
			<path d="M26,2h2V0H4v2h2c0,0.12,0.09,10.36,7.1,14C6.09,19.64,6,29.88,6,30H4v2h24v-2h-2c0-0.12-0.09-10.36-7.1-14     C25.91,12.36,26,2.12,26,2z M23.76,27.54C23.99,28.97,24,29.96,24,30H8c0-0.04,0.01-1.03,0.24-2.46l0.369-1.73L16,22.12     l7.39,3.689L23.76,27.54z M22.56,23.16l-6.109-3.05c-0.28-0.15-0.62-0.15-0.9,0l-6.11,3.05c1.11-2.65,3.07-5.271,6.561-6.13     C19.49,17.89,21.45,20.51,22.56,23.16z M16,14.971C13.029,14.24,11.16,12.23,9.98,10L9.109,8C8.029,4.93,8,2.06,8,2h16     c0,0.06-0.03,2.93-1.11,6l-0.87,2C20.84,12.23,18.97,14.24,16,14.971z"/>
		</g>
	</g>
</g>
</svg>
