<?xml version="1.0" encoding="utf-8"?>
<!-- Generator: Adobe Illustrator 16.0.0, SVG Export Plug-In . SVG Version: 6.00 Build 0)  -->
<svg xmlns="http://www.w3.org/2000/svg" xmlns:xlink="http://www.w3.org/1999/xlink" version="1.1" id="257146680_Capa_1_grid" x="0px" y="0px" width="32px" height="32px" viewBox="0 0 32 32" enable-background="new 0 0 32 32" xml:space="preserve">
<path d="M26,2h2V0H4v2h2c0,0.12,0.09,10.36,7.1,14C6.09,19.641,6,29.88,6,30H4v2h24v-2h-2c0-0.12-0.09-10.359-7.1-14  C25.91,12.36,26,2.12,26,2z M8,2h16c0,0.03-0.01,0.82-0.17,2H8.17C8.01,2.82,8,2.03,8,2z M23.24,25.13l0.52,2.41  C23.99,28.97,24,29.96,24,30H8c0-0.04,0.01-1.03,0.24-2.46l0.52-2.41c0.9-3.21,2.881-7.021,7.24-8.1  C20.359,18.109,22.34,21.92,23.24,25.13z M16,14.971C13.029,14.24,11.16,12.23,9.98,10L9.109,8C8.87,7.31,8.68,6.64,8.54,6h14.92  c-0.14,0.64-0.33,1.31-0.569,2l-0.871,2C20.84,12.23,18.971,14.24,16,14.971z"/>
</svg>
