<?xml version="1.0" encoding="utf-8"?>
<!-- Generator: Adobe Illustrator 16.0.0, SVG Export Plug-In . SVG Version: 6.00 Build 0)  -->
<svg xmlns="http://www.w3.org/2000/svg" xmlns:xlink="http://www.w3.org/1999/xlink" version="1.1" id="257146690_Capa_1_grid" x="0px" y="0px" width="32px" height="32px" viewBox="0 0 32 32" enable-background="new 0 0 32 32" xml:space="preserve">
<g>
	<g>
		<path d="M16,0c-4.42,0-8,3.58-8,8c0,2.05,0.77,3.92,2.04,5.33L12.12,30H16v2h2v-2h1.88l2.08-16.67C23.23,11.92,24,10.05,24,8    C24,3.58,20.42,0,16,0z M18.12,28h-4.24l-0.25-2h4.74L18.12,28z M18.62,24h-5.24l-1.12-8.93C13.37,15.66,14.65,16,16,16    s2.63-0.34,3.74-0.93L18.62,24z M16,14c-2.609,0-4.84-1.67-5.65-4H21.65C20.84,12.33,18.61,14,16,14z M10,8c0-3.31,2.689-6,6-6    c3.31,0,6,2.69,6,6H10z"/>
	</g>
</g>
</svg>
