<?xml version="1.0" encoding="utf-8"?>
<!-- Generator: Adobe Illustrator 16.0.0, SVG Export Plug-In . SVG Version: 6.00 Build 0)  -->
<svg xmlns="http://www.w3.org/2000/svg" xmlns:xlink="http://www.w3.org/1999/xlink" version="1.1" id="257185455_Capa_1_grid" x="0px" y="0px" width="32px" height="32px" viewBox="0 0 32 32" enable-background="new 0 0 32 32" xml:space="preserve">
<g>
	<path d="M16,30c-2.206,0-4-1.794-4-4s1.794-4,4-4c2.206,0,4,1.794,4,4S18.206,30,16,30z M16,24c-1.103,0-2,0.897-2,2s0.897,2,2,2   c1.103,0,2-0.897,2-2S17.103,24,16,24z"/>
</g>
<g>
	<path d="M16,20c-2.206,0-4-1.794-4-4c0-2.206,1.794-4,4-4c2.206,0,4,1.794,4,4C20,18.206,18.206,20,16,20z M16,14   c-1.103,0-2,0.897-2,2c0,1.103,0.897,2,2,2c1.103,0,2-0.897,2-2C18,14.897,17.103,14,16,14z"/>
</g>
<g>
	<path d="M16,10c-2.206,0-4-1.794-4-4s1.794-4,4-4c2.206,0,4,1.794,4,4S18.206,10,16,10z M16,4c-1.103,0-2,0.897-2,2s0.897,2,2,2   c1.103,0,2-0.897,2-2S17.103,4,16,4z"/>
</g>
</svg>
