<?xml version="1.0" encoding="utf-8"?>
<!-- Generator: Adobe Illustrator 16.0.0, SVG Export Plug-In . SVG Version: 6.00 Build 0)  -->
<svg xmlns="http://www.w3.org/2000/svg" xmlns:xlink="http://www.w3.org/1999/xlink" version="1.1" id="257185460_Capa_1_grid" x="0px" y="0px" width="32px" height="32px" viewBox="0 0 32 32" style="enable-background:new 0 0 32 32;" xml:space="preserve">
<path d="M22.996,14H7.001c-0.552,0-1-0.448-1-1s0.448-1,1-1h15.995c0.553,0,1,0.448,1,1S23.549,14,22.996,14z M23.996,21  c0-0.553-0.447-1-1-1H7.001c-0.552,0-1,0.447-1,1s0.448,1,1,1h15.995C23.549,22,23.996,21.553,23.996,21z M23.996,17  c0-0.552-0.447-1-1-1H7.001c-0.552,0-1,0.448-1,1c0,0.553,0.448,1,1,1h15.995C23.549,18,23.996,17.553,23.996,17z M15,32  C6.729,32,0,25.271,0,17C0,8.729,6.729,2,15,2c8.271,0,15,6.729,15,15C30,25.271,23.271,32,15,32z M15,4C7.832,4,2,9.832,2,17  c0,7.168,5.832,13,13,13c7.168,0,13-5.832,13-13C28,9.832,22.168,4,15,4z"/>
</svg>
