<?xml version="1.0"?>
<svg xmlns="http://www.w3.org/2000/svg" id="257197626_Layer_1_grid" data-name="Layer 1" viewBox="0 0 32 32"><title>paper_planesocial_care_win_10</title><path d="M31.66,4.13a1,1,0,0,0-.91-.21h0l-30,7.61A1,1,0,0,0,.5,13.37L6.82,17.1,8.29,27.25a1,1,0,0,0,.89.86h.1a1,1,0,0,0,.66-.25h0l7.12-6.15,6.84,2.81a1.07,1.07,0,0,0,.39.07,1.15,1.15,0,0,0,.41-.08,1.08,1.08,0,0,0,.54-.59l6.7-18.7A1,1,0,0,0,31.66,4.13Zm-28,8.74,18.6-4.72L7.85,15.36Zm8.11,5a1,1,0,0,0-.36.48h0L9.71,23l-.85-5.86L22,10.51Zm-.2,5.95L12.92,20l2.05.84Zm12.15-1.56L14.4,18.45,28.73,8.2Z" fill="#231f20"/></svg>
