<?xml version="1.0" encoding="utf-8"?>
<!-- Generator: Adobe Illustrator 16.0.0, SVG Export Plug-In . SVG Version: 6.00 Build 0)  -->
<svg xmlns="http://www.w3.org/2000/svg" xmlns:xlink="http://www.w3.org/1999/xlink" version="1.1" id="257146702_Capa_1_grid" x="0px" y="0px" width="32px" height="32px" viewBox="0 0 32 32" enable-background="new 0 0 32 32" xml:space="preserve">
<path d="M28,4h-2.1C25.56,2.25,24.28,0,21,0s-4.56,2.25-4.9,4c0,0-0.1,0-2.1,0s-2,2-2,2v6H2v20h18v-4h10V6C30,6,30,4,28,4z M18,30H4  V14h14V30z M28,26h-8V12h-6v-2h14V26z M28,8H14V7.01C14.01,6.55,14.19,6,15,6h3V5.01C18.01,4.5,18.18,2,21,2s2.99,2.5,3,3v1h3  c0.46,0.01,1,0.2,1,1V8z"/>
<g>
	<rect x="20" y="4" width="2" height="2"/>
</g>
<rect x="6" y="18" width="10" height="2"/>
<rect x="6" y="22" width="10" height="2"/>
<rect x="6" y="26" width="10" height="2"/>
</svg>
