<?xml version="1.0" encoding="utf-8"?>
<!-- Generator: Adobe Illustrator 16.0.0, SVG Export Plug-In . SVG Version: 6.00 Build 0)  -->
<svg xmlns="http://www.w3.org/2000/svg" xmlns:xlink="http://www.w3.org/1999/xlink" version="1.1" id="257146704_Capa_1_grid" x="0px" y="0px" width="32px" height="32px" viewBox="0 0 32 32" enable-background="new 0 0 32 32" xml:space="preserve">
<g>
	<path d="M28,2V0H8C4.04,0,4,4,4,4v23c0,1.73,1.04,5,5,5h19V6h-2V2H28z M8,2h16v4H8c0,0-2,0-2-2C6,4,6,2,8,2z M26,30H9   c-2.82,0-2.99-2.5-3-3V7.12C6.73,7.65,7.71,8,9,8h17V30z"/>
	<path d="M22,18v-8h-7c-2.2,0-3,1.79-3,3v12c0,2.2,1.79,3,3,3h7v-8h-4v-2H22z M20,22v4h-4.99C14.55,25.99,14,25.81,14,25V13.01   c0.01-0.46,0.19-1.01,1-1.01h5v4h-4v6H20z"/>
</g>
</svg>
