<?xml version="1.0"?>
<svg xmlns="http://www.w3.org/2000/svg" viewBox="0 0 32 32"><title>phone_vintage_win10</title><g id="257197624_linea_guia_grid" data-name="linea guia"><path d="M30.43,13.89A1,1,0,0,0,31,13V5a4.82,4.82,0,0,0-5-5H6A4.82,4.82,0,0,0,1,5v8a1,1,0,0,0,.57.9A11.66,11.66,0,0,0,0,19.73V31a1,1,0,0,0,1,1H31a1,1,0,0,0,1-1V19.73A11.64,11.64,0,0,0,30.43,13.89ZM3,5A2.86,2.86,0,0,1,6,2H26a2.86,2.86,0,0,1,3,3v7H23V7a1,1,0,0,0-1-1H10A1,1,0,0,0,9,7v5H3ZM30,30H2V19.73A9.58,9.58,0,0,1,3.89,14H10a1,1,0,0,0,1-1V8H21v5a1,1,0,0,0,.29.71A1.05,1.05,0,0,0,22,14h6.11A9.58,9.58,0,0,1,30,19.73Z"/><path d="M16,14a6.93,6.93,0,1,0,6.93,6.93A6.94,6.94,0,0,0,16,14Zm0,11.86a4.93,4.93,0,1,1,4.93-4.93A4.94,4.94,0,0,1,16,25.83Z"/></g></svg>
