<?xml version="1.0" encoding="utf-8"?>
<!-- Generator: Adobe Illustrator 16.0.0, SVG Export Plug-In . SVG Version: 6.00 Build 0)  -->
<svg xmlns="http://www.w3.org/2000/svg" xmlns:xlink="http://www.w3.org/1999/xlink" version="1.1" id="257146705_Capa_1_grid" x="0px" y="0px" width="32px" height="32px" viewBox="0 0 32 32" enable-background="new 0 0 32 32" xml:space="preserve">
<g>
	<g>
		<g>
			<path d="M21,0H6C4,0,4,2,4,2v28c0,2,2,2,2,2h20c2,0,2-2,2-2V7L21,0z M20,2h0.17L26,7.83V8h-5c-0.81,0-0.99-0.55-1-1V2z M26,29.96     c0,0.01,0,0.021-0.01,0.04H6.04C6.03,30,6.02,30,6,29.99V2.04C6,2.029,6,2.02,6.01,2H18v5c0,1.21,0.8,3,3,3h5V29.96z"/>
		</g>
	</g>
</g>
<g>
	<path d="M20.6,21.18C21.49,20.01,22,18.57,22,17c0-3.87-3.13-7-7-7s-7,3.13-7,7s3.13,7,7,7c1.57,0,3.01-0.51,4.18-1.4l3.11,3.11   l1.42-1.42L20.6,21.18z M15,22c-2.76,0-5-2.24-5-5s2.24-5,5-5s5,2.24,5,5S17.76,22,15,22z"/>
</g>
</svg>
