<?xml version="1.0" encoding="utf-8"?>
<!-- Generator: Adobe Illustrator 16.0.0, SVG Export Plug-In . SVG Version: 6.00 Build 0)  -->
<svg xmlns="http://www.w3.org/2000/svg" xmlns:xlink="http://www.w3.org/1999/xlink" version="1.1" id="257146707_Capa_1_grid" x="0px" y="0px" width="32px" height="32px" viewBox="0 0 32 32" enable-background="new 0 0 32 32" xml:space="preserve">
<g>
	<path d="M29,8h-3V0H6v8H3c-2.2,0-3,1.79-3,3v15h6v6h20v-6h6V11C32,9.79,31.2,8,29,8z M8,2h16v6H8V2z M24,30H8v-8h16V30z M30,24h-4   v-2h2v-2H4v2h2v2H2V11.01C2.01,10.55,2.19,10,3,10h26c0.81,0,0.99,0.55,1,1V24z"/>
</g>
<rect x="4" y="12" width="2" height="2"/>
<rect x="8" y="12" width="2" height="2"/>
<rect x="12" y="12" width="2" height="2"/>
</svg>
