<?xml version="1.0" encoding="utf-8"?>
<!-- Generator: Adobe Illustrator 16.0.0, SVG Export Plug-In . SVG Version: 6.00 Build 0)  -->
<svg xmlns="http://www.w3.org/2000/svg" xmlns:xlink="http://www.w3.org/1999/xlink" version="1.1" id="257146706_Capa_1_grid" x="0px" y="0px" width="32px" height="32px" viewBox="0 0 32 32" enable-background="new 0 0 32 32" xml:space="preserve">
<g>
	<path d="M29,6h-3V0H6v6H3C0.8,6,0,7.79,0,9v15h6v8h20v-8h6V9C32,7.79,31.2,6,29,6z M8,2h16v4H8V2z M24,30H8V20h16V30z M30,22h-4v-2   h2v-2H4v2h2v2H2V9.01C2.01,8.55,2.19,8,3,8h26c0.81,0,0.99,0.55,1,1V22z"/>
</g>
<rect x="4" y="10" width="2" height="2"/>
<rect x="8" y="10" width="2" height="2"/>
<rect x="12" y="10" width="2" height="2"/>
<rect x="10" y="22" width="12" height="2"/>
<rect x="10" y="26" width="12" height="2"/>
</svg>
