<?xml version="1.0" encoding="utf-8"?>
<!-- Generator: Adobe Illustrator 16.0.0, SVG Export Plug-In . SVG Version: 6.00 Build 0)  -->
<svg xmlns="http://www.w3.org/2000/svg" xmlns:xlink="http://www.w3.org/1999/xlink" version="1.1" id="257146708_Capa_1_grid" x="0px" y="0px" width="32px" height="32px" viewBox="0 0 32 32" enable-background="new 0 0 32 32" xml:space="preserve">
<g>
	<path d="M29.8,28.37L15.88,2.53c-0.35-0.65-1.41-0.65-1.76,0l-14,26c-0.17,0.31-0.16,0.68,0.02,0.979C0.32,29.82,0.65,30,1,30h28   c0.01,0,0.01,0,0.02,0c0.551,0,1-0.45,1-1C30.02,28.76,29.94,28.54,29.8,28.37z M15,5.11L17.63,10h-5.26L15,5.11z M11.29,12h7.42   l2.16,4H9.13L11.29,12z M8.06,18h13.88l2.159,4H5.9L8.06,18z M2.67,28l2.15-4h20.36l2.15,4H2.67z"/>
</g>
</svg>
