<?xml version="1.0" encoding="utf-8"?>
<!-- Generator: Adobe Illustrator 16.0.0, SVG Export Plug-In . SVG Version: 6.00 Build 0)  -->
<svg xmlns="http://www.w3.org/2000/svg" xmlns:xlink="http://www.w3.org/1999/xlink" version="1.1" id="257146709_Capa_1_grid" x="0px" y="0px" width="32px" height="32px" viewBox="0 0 32 32" enable-background="new 0 0 32 32" xml:space="preserve">
<g>
	<path d="M15,4c7.168,0,13,5.832,13,13c0,7.168-5.832,13-13,13C7.832,30,2,24.168,2,17C2,9.832,7.832,4,15,4 M15,2   C6.716,2,0,8.716,0,17s6.716,15,15,15s15-6.716,15-15S23.284,2,15,2L15,2z"/>
</g>
<g>
	<path d="M15,24c-3.86,0-7-3.141-7-7c0-3.86,3.14-7,7-7c3.859,0,7,3.14,7,7C22,20.859,18.859,24,15,24z M15,12c-2.757,0-5,2.243-5,5   s2.243,5,5,5s5-2.243,5-5S17.757,12,15,12z"/>
</g>
</svg>
