<?xml version="1.0" encoding="utf-8"?>
<!-- Generator: Adobe Illustrator 16.0.0, SVG Export Plug-In . SVG Version: 6.00 Build 0)  -->
<svg xmlns="http://www.w3.org/2000/svg" xmlns:xlink="http://www.w3.org/1999/xlink" version="1.1" id="257146713_Capa_1_grid" x="0px" y="0px" width="32px" height="32px" viewBox="0 0 32 32" enable-background="new 0 0 32 32" xml:space="preserve">
<g>
	<path d="M15,4c7.168,0,13,5.832,13,13c0,7.168-5.832,13-13,13C7.832,30,2,24.168,2,17C2,9.832,7.832,4,15,4 M15,2   C6.716,2,0,8.716,0,17s6.716,15,15,15s15-6.716,15-15S23.284,2,15,2L15,2z"/>
</g>
<g>
	<path d="M15,28C8.935,28,4,23.065,4,17S8.935,6,15,6s11,4.935,11,11S21.065,28,15,28z M15,8c-4.962,0-9,4.038-9,9   c0,4.963,4.038,9,9,9c4.963,0,9-4.037,9-9C24,12.038,19.963,8,15,8z"/>
</g>
</svg>
