<?xml version="1.0" encoding="utf-8"?>
<!-- Generator: Adobe Illustrator 16.0.0, SVG Export Plug-In . SVG Version: 6.00 Build 0)  -->
<svg xmlns="http://www.w3.org/2000/svg" xmlns:xlink="http://www.w3.org/1999/xlink" version="1.1" id="257146714_Capa_1_grid" x="0px" y="0px" width="32px" height="32px" viewBox="0 0 32 32" enable-background="new 0 0 32 32" xml:space="preserve">
<g>
	<g>
		<path d="M23,10c2.76,0,5-2.24,5-5s-2.24-5-5-5s-5,2.24-5,5c0,0.94,0.26,1.82,0.71,2.57L16,13.44l-2.71-5.87    C13.74,6.82,14,5.94,14,5c0-2.76-2.24-5-5-5S4,2.24,4,5s2.24,5,5,5c1.04,0,2.01-0.32,2.81-0.86l3.09,6.69L8.09,30.58    c-0.23,0.5-0.01,1.1,0.49,1.33C8.72,31.97,8.86,32,9,32c0.38,0,0.74-0.21,0.91-0.58L16,18.22l6.09,13.2    C22.26,31.79,22.62,32,23,32c0.14,0,0.28-0.03,0.42-0.09c0.5-0.23,0.72-0.83,0.49-1.33L17.1,15.83l3.091-6.69    C20.99,9.68,21.96,10,23,10z M9,8C7.35,8,6,6.65,6,5s1.35-3,3-3s3,1.35,3,3S10.65,8,9,8z M23,2c1.65,0,3,1.35,3,3s-1.35,3-3,3    s-3-1.35-3-3S21.35,2,23,2z"/>
	</g>
</g>
</svg>
