<?xml version="1.0" encoding="utf-8"?>
<!-- Generator: Adobe Illustrator 16.0.0, SVG Export Plug-In . SVG Version: 6.00 Build 0)  -->
<svg xmlns="http://www.w3.org/2000/svg" xmlns:xlink="http://www.w3.org/1999/xlink" version="1.1" id="257185482_Capa_1_grid" x="0px" y="0px" width="32px" height="32px" viewBox="0 0 32 32" enable-background="new 0 0 32 32" xml:space="preserve">
<g>
	<g>
		<path d="M3.501,28.869l1.789-7.143C3.164,19.569,2,16.848,2,14C2,7.383,8.28,2,16,2s14,5.383,14,12s-6.28,12-14,12    c-1.781,0-3.503-0.277-5.122-0.825L3.501,28.869z M16,4C9.383,4,4,8.486,4,14c0,2.47,1.094,4.841,3.079,6.676l0.436,0.402    l-1.016,4.053l4.252-2.13l0.407,0.151C12.675,23.715,14.304,24,16,24c6.617,0,12-4.486,12-10S22.617,4,16,4z"/>
	</g>
</g>
</svg>
