<?xml version="1.0" encoding="utf-8"?>
<!-- Generator: Adobe Illustrator 16.0.0, SVG Export Plug-In . SVG Version: 6.00 Build 0)  -->
<svg xmlns="http://www.w3.org/2000/svg" xmlns:xlink="http://www.w3.org/1999/xlink" version="1.1" id="257185483_Capa_1_grid" x="0px" y="0px" width="32px" height="32px" viewBox="0 0 32 32" enable-background="new 0 0 32 32" xml:space="preserve">
<path d="M15,2C6.72,2,0,8.72,0,17c0,8.28,6.72,15,15,15c8.28,0,15-6.72,15-15C30,8.72,23.28,2,15,2z M15.51,4.02  c6.19,0.23,11.28,4.81,12.3,10.77c-1.369,1.25-6.18,4.95-15.78,5.19C12.01,19.66,12,19.33,12,19C12,10.22,14.65,5.38,15.51,4.02z   M13.14,4.14C11.88,6.51,10,11.36,10,19c0,0.33,0.01,0.65,0.03,0.97c-4.84-0.279-7.34-2.59-8.02-3.34  C2.18,10.26,6.97,5.02,13.14,4.14z M2.23,19.46c1.62,1.12,4.23,2.37,8,2.521c0.51,3.439,1.83,6.199,2.81,7.869  C7.6,29.03,3.26,24.83,2.23,19.46z M15.5,29.99c-0.71-1.021-2.57-3.99-3.24-8.01c8.38-0.25,13.34-2.94,15.73-4.74  C27.87,24.13,22.36,29.73,15.5,29.99z"/>
</svg>
