<?xml version="1.0" encoding="utf-8"?>
<!-- Generator: Adobe Illustrator 16.0.0, SVG Export Plug-In . SVG Version: 6.00 Build 0)  -->
<svg xmlns="http://www.w3.org/2000/svg" xmlns:xlink="http://www.w3.org/1999/xlink" version="1.1" id="257185485_Capa_1_grid" x="0px" y="0px" width="32px" height="32px" viewBox="0 0 32 32" enable-background="new 0 0 32 32" xml:space="preserve">
<g>
	<path d="M23,0H6C4,0,4,2,4,2v28c0,2,2,2,2,2h22c2,0,2-2,2-2V7L23,0z M22,2h0.17L28,7.83V8h-5c-0.81,0-0.99-0.55-1-1V2z M28,29.96   c0,0.01,0,0.021-0.01,0.04H6.04C6.03,30,6.02,30,6,29.99V2.04C6,2.03,6,2.02,6.01,2H20v5c0,1.21,0.8,3,3,3h5V29.96z"/>
</g>
<path d="M24,20v-2h-2.1c-0.131-0.64-0.381-1.23-0.721-1.76l1.48-1.48l-1.42-1.42l-1.48,1.48c-0.529-0.34-1.12-0.59-1.76-0.72V12h-2  v2.1c-0.64,0.13-1.23,0.38-1.76,0.72l-1.48-1.48l-1.42,1.42l1.48,1.48c-0.34,0.53-0.59,1.12-0.72,1.76H10v2h2.1  c0.13,0.64,0.38,1.23,0.72,1.76l-1.48,1.48l1.42,1.42l1.48-1.48c0.53,0.34,1.12,0.59,1.76,0.721V26h2v-2.1  c0.64-0.131,1.23-0.381,1.76-0.721l1.48,1.48l1.42-1.42l-1.48-1.48c0.34-0.529,0.59-1.12,0.721-1.76H24z M17,22c-1.65,0-3-1.35-3-3  s1.35-3,3-3c1.65,0,3,1.35,3,3S18.65,22,17,22z"/>
</svg>
