<?xml version="1.0"?>
<svg xmlns="http://www.w3.org/2000/svg" id="257197625_Layer_1_grid" data-name="Layer 1" viewBox="0 0 32 32"><title>tools_equipement_line_win10</title><path d="M29.44,19.54l-2.83-2.83a3.92,3.92,0,0,0-5.66,0l-1.17-1.17,4.09-4.09h3l3.38-6.07A1.94,1.94,0,0,0,30,3.08L28.92,2a2,2,0,0,0-2.3-.32L20.55,5.09v3l-4.09,4.09-1.17-1.17a3.92,3.92,0,0,0,0-5.66L12.46,2.56a3.92,3.92,0,0,0-5.65,0L5.39,4,6.81,5.39,8.88,7.46,8.64,8.64l-1.17.24L5.39,6.81,4,5.39,2.57,6.81a3.9,3.9,0,0,0,0,5.65l2.82,2.83a4.11,4.11,0,0,0,3.26,1.18l-.15.15.8.81-7,7a3.76,3.76,0,0,0-1,3.35A3.72,3.72,0,0,0,4.23,30.7a3.49,3.49,0,0,0,.71.07,3.77,3.77,0,0,0,2.65-1.09l7-7,.81.8.15-.15a4.07,4.07,0,0,0,1.18,3.26l2.83,2.82a3.9,3.9,0,0,0,5.65,0L26.61,28l-1.42-1.41-2.07-2.08.24-1.17,1.17-.24,2.08,2.07L28,26.61l1.42-1.42A3.92,3.92,0,0,0,29.44,19.54Zm-7-10.61V6.22L27.56,3.4l1,1L25.78,9.52H23.07L15.55,17,15,16.45Zm-15.67,5L4,11.05A2,2,0,0,1,4,8.22l2.83,2.83,3.53-.71.71-3.53L8.22,4a2,2,0,0,1,2.83,0l2.83,2.83a2,2,0,0,1,0,2.83l-1.42,1.41,2.59,2.59-1.41,1.41-2.59-2.59L9.64,13.88A2,2,0,0,1,6.81,13.88ZM14.57,20,6.23,28.32a1.82,1.82,0,0,1-1.64.49,1.8,1.8,0,0,1-.91-3L12,17.43l-.81-.81.59-.59L16,20.19l-.59.59ZM28,23.78,25.19,21l-3.53.71L21,25.19,23.78,28A2,2,0,0,1,21,28l-2.83-2.83a2,2,0,0,1,0-2.83L19.54,21,17,18.36,18.36,17,21,19.54l1.41-1.42a2,2,0,0,1,2.83,0L28,21A2,2,0,0,1,28,23.78Z"/></svg>
