<?xml version="1.0" encoding="utf-8"?>
<!-- Generator: Adobe Illustrator 16.0.0, SVG Export Plug-In . SVG Version: 6.00 Build 0)  -->
<svg xmlns="http://www.w3.org/2000/svg" xmlns:xlink="http://www.w3.org/1999/xlink" version="1.1" id="257146725_Capa_1_grid" x="0px" y="0px" width="32px" height="32px" viewBox="0 0 32 32" enable-background="new 0 0 32 32" xml:space="preserve">
<g>
	<path d="M21.956,2C21.97,2.001,21.984,2.004,22,2.007v25.949c-0.002,0.014-0.004,0.028-0.007,0.044H16h-2H8.043   C8.03,27.998,8.015,27.996,8,27.993V2.043C8.001,2.03,8.004,2.015,8.007,2H21.956 M22,0H8C6,0,6,2,6,2v26c0,2,2,2,2,2h6v2h2v-2h6   c2,0,2-2,2-2V2C24,0,22,0,22,0L22,0z"/>
</g>
<g>
	<circle cx="15" cy="7" r="3"/>
</g>
<g>
	<circle cx="15" cy="15" r="3"/>
</g>
<g>
	<circle cx="15" cy="23" r="3"/>
</g>
</svg>
