<?xml version="1.0" encoding="utf-8"?>
<!-- Generator: Adobe Illustrator 16.0.0, SVG Export Plug-In . SVG Version: 6.00 Build 0)  -->
<svg xmlns="http://www.w3.org/2000/svg" xmlns:xlink="http://www.w3.org/1999/xlink" version="1.1" id="257146726_Capa_1_grid" x="0px" y="0px" width="32px" height="32px" viewBox="0 0 32 32" enable-background="new 0 0 32 32" xml:space="preserve">
<g>
	<path d="M22,4V0H8v4H2v2h2.07l2,26h17.86l2-26H28V4H22z M10,2h10v2H10V2z M22.07,30H7.93L6.08,6h17.84L22.07,30z"/>
</g>
<g>
	<polygon points="22,10 22,12 20,12 20,26 18,26 18,12 16,12 16,26 14,26 14,12 12,12 12,26 10,26 10,12 8,12 8,10  "/>
</g>
</svg>
