<?xml version="1.0" encoding="utf-8"?>
<!-- Generator: Adobe Illustrator 16.0.0, SVG Export Plug-In . SVG Version: 6.00 Build 0)  -->
<svg xmlns="http://www.w3.org/2000/svg" xmlns:xlink="http://www.w3.org/1999/xlink" version="1.1" id="257185490_Capa_1_grid" x="0px" y="0px" width="32px" height="32px" viewBox="0 0 32 32" enable-background="new 0 0 32 32" xml:space="preserve">
<g>
	<g>
		<g>
			<path d="M26.94,11.06C26.6,8.32,24.74,5.8,21.5,5.8c-0.26,0-0.52,0.02-0.79,0.05C19.42,1.76,16.77,0,12,0     C9.24,0,7.03,0.86,5.61,2.5C4.2,4.12,3.63,6.42,3.91,9.34C1.25,10.5,0,12.63,0,16c0,3.53,2.47,6,6,6h6v-2H6c-2.43,0-4-1.57-4-4     c0-2.84,0.93-4.26,3.32-5.05l0.79-0.27L5.99,9.86C5.6,7.15,5.98,5.12,7.12,3.81C8.42,2.31,10.49,2,12,2     c4.78,0,6.2,1.92,7.03,5.24l0.239,0.97l0.971-0.24C20.68,7.86,21.11,7.8,21.5,7.8c2.4,0,3.5,2.18,3.5,4.2v1h1     c2.32,0,4,1.46,4,3.48C30,18.46,28.39,20,27,20h-9v2h9c2.66,0,5-2.58,5-5.52C32,13.65,29.88,11.45,26.94,11.06z"/>
		</g>
	</g>
</g>
<g>
	<polygon points="19.71,16.29 18.29,17.71 16,15.41 16,30 14,30 14,15.41 11.71,17.71 10.29,16.29 15,11.59  "/>
</g>
</svg>
