<?xml version="1.0" encoding="utf-8"?>
<!-- Generator: Adobe Illustrator 16.0.0, SVG Export Plug-In . SVG Version: 6.00 Build 0)  -->
<svg xmlns="http://www.w3.org/2000/svg" xmlns:xlink="http://www.w3.org/1999/xlink" version="1.1" id="257185493_Capa_1_grid" x="0px" y="0px" width="32px" height="32px" viewBox="0 0 32 32" style="enable-background:new 0 0 32 32;" xml:space="preserve">
<path d="M10,10H2V2h8V10z M4,8h4V4H4V8z M10,20H2v-8h8V20z M4,18h4v-4H4V18z M10,30H2v-8h8V30z M4,28h4v-4H4V28z M20,8h-8v2h8V8z   M30,8h-8v2h8V8z M20,18h-8v2h8V18z M30,18h-8v2h8V18z M20,28h-8v2h8V28z M30,28h-8v2h8V28z"/>
</svg>
