<?xml version="1.0" encoding="utf-8"?>
<!-- Generator: Adobe Illustrator 16.0.0, SVG Export Plug-In . SVG Version: 6.00 Build 0)  -->
<svg xmlns="http://www.w3.org/2000/svg" xmlns:xlink="http://www.w3.org/1999/xlink" version="1.1" id="257185495_Capa_1_grid" x="0px" y="0px" width="32px" height="32px" viewBox="0 0 32 32" style="enable-background:new 0 0 32 32;" xml:space="preserve">
<path d="M8,8H2V2h6V8z M4,6h2V4H4V6z M8,16H2v-6h6V16z M4,14h2v-2H4V14z M8,24H2v-6h6V24z M4,22h2v-2H4V22z M8,32H2v-6h6V32z M4,30  h2v-2H4V30z M30,6H10v2h20V6z M30,14H10v2h20V14z M30,30H10v2h20V30z M30,22H10v2h20V22z"/>
</svg>
