<?xml version="1.0" encoding="utf-8"?>
<!-- Generator: Adobe Illustrator 16.0.0, SVG Export Plug-In . SVG Version: 6.00 Build 0)  -->
<svg xmlns="http://www.w3.org/2000/svg" xmlns:xlink="http://www.w3.org/1999/xlink" version="1.1" id="257185496_Capa_1_grid" x="0px" y="0px" width="32px" height="32px" viewBox="0 0 32 32" enable-background="new 0 0 32 32" xml:space="preserve">
<path d="M28,12c0-6.63-5.37-12-12-12S4,5.37,4,12c0,5.39,3.55,9.95,8.45,11.47L10,30H8v2h16v-2h-2l-2.45-6.53  C24.45,21.95,28,17.39,28,12z M19.86,30h-7.72l0.75-2h6.22L19.86,30z M13.64,26l0.75-2h3.22l0.75,2H13.64z M16,22  c-5.51,0-10-4.49-10-10S10.49,2,16,2s10,4.49,10,10S21.51,22,16,22z"/>
<path d="M16,4c-4.42,0-8,3.58-8,8s3.58,8,8,8s8-3.58,8-8S20.42,4,16,4z M16,18c-3.31,0-6-2.69-6-6s2.69-6,6-6c3.31,0,6,2.69,6,6  S19.31,18,16,18z"/>
</svg>
