<?xml version="1.0" encoding="utf-8"?>
<!-- Generator: Adobe Illustrator 16.0.0, SVG Export Plug-In . SVG Version: 6.00 Build 0)  -->
<svg xmlns="http://www.w3.org/2000/svg" xmlns:xlink="http://www.w3.org/1999/xlink" version="1.1" id="257185499_Capa_1_grid" x="0px" y="0px" width="32px" height="32px" viewBox="0 0 32 32" enable-background="new 0 0 32 32" xml:space="preserve">
<g>
	<path d="M29.65,28.24L17.09,17.48l3.32-0.37c0.88-0.101,1.59-0.76,1.75-1.63s-0.271-1.74-1.05-2.14l-4.55-2.33l0.66-4.81   c0.12-0.85-0.32-1.68-1.09-2.06C15.85,4,15.54,3.93,15.24,3.93c-0.52,0-1.03,0.2-1.41,0.59L10.6,7.74L6.24,5.55   c-0.29-0.14-0.59-0.21-0.9-0.21c-0.51,0-1.03,0.2-1.41,0.59C3.32,6.54,3.17,7.47,3.55,8.24l2.19,4.36l-3.22,3.23   c-0.61,0.61-0.76,1.53-0.38,2.3c0.34,0.69,1.04,1.11,1.79,1.11c0.09,0,0.18,0,0.27-0.021l4.81-0.66l2.33,4.54   c0.35,0.681,1.04,1.091,1.78,1.091c0.12,0,0.24-0.011,0.36-0.03c0.87-0.16,1.53-0.87,1.63-1.75l0.41-3.65l12.83,11   C28.54,29.92,28.77,30,29,30c0.28,0,0.56-0.12,0.76-0.35C30.12,29.23,30.07,28.6,29.65,28.24z M13.83,15.83l-0.71,6.36l-2.98-5.8   l-6.21,0.85L8.17,13L5.34,7.34L11,10.17l4.24-4.24l-0.85,6.21l5.8,2.98L13.83,15.83z"/>
</g>
</svg>
