<?xml version="1.0" encoding="utf-8"?>
<!-- Generator: Adobe Illustrator 16.0.0, SVG Export Plug-In . SVG Version: 6.00 Build 0)  -->
<svg xmlns="http://www.w3.org/2000/svg" xmlns:xlink="http://www.w3.org/1999/xlink" version="1.1" id="257185503_Capa_1_grid" x="0px" y="0px" width="32px" height="32px" viewBox="0 0 32 32" style="enable-background:new 0 0 32 32;" xml:space="preserve">
<path d="M16,2C8.268,2,2,8.268,2,16c0,7.732,6.268,14,14,14c7.732,0,14-6.268,14-14C30,8.268,23.732,2,16,2z M20,27.3V25  c0-0.81,0.55-0.99,1-1c1.33,0,2.5-0.56,3.34-1.13c0.84-0.561,1.351-1.13,1.37-1.16c0.46-0.47,0.92-0.8,1.35-1.05  C25.75,23.75,23.18,26.17,20,27.3z M24.25,20.34C24.24,20.35,22.75,22,21,22c-0.6,0-1.36,0.2-1.95,0.68C18.45,23.15,18,23.9,18,25  v2.82C17.35,27.93,16.68,28,16,28C9.41,28,4.05,22.66,4,16.08C5.52,17.99,7.47,20,9,20c1.62,0,2.36-1.48,2.89-2.55  C12.32,16.6,12.65,16,13,16c0.59,0,1.53,0.95,2.29,1.71C16.42,18.83,17.59,20,19,20c1.21,0,3-0.8,3-3c0-1.41-0.75-2.16-1.29-2.71  C20.22,13.8,20,13.56,20,13v-1h3c1.14,0,2.79-0.73,2.97-2.67C27.25,11.24,28,13.53,28,16c0,0.75-0.08,1.49-0.21,2.21  C26.87,18.46,25.56,19.02,24.25,20.34z M16,4c3.08,0,5.87,1.17,8,3.08V9c0,0.81-0.55,0.99-1,1h-5v3c0,1.41,0.75,2.16,1.29,2.71  C19.78,16.2,20,16.44,20,17c0,0.81-0.55,0.99-1,1c-0.59,0-1.53-0.95-2.29-1.71C15.58,15.17,14.41,14,13,14  c-1.62,0-2.36,1.48-2.89,2.55C9.68,17.4,9.35,18,9,18c-0.7,0-2.81-2.21-4.65-4.81C5.62,7.93,10.35,4,16,4z"/>
</svg>
