<?xml version="1.0" encoding="utf-8"?>
<!-- Generator: Adobe Illustrator 16.0.0, SVG Export Plug-In . SVG Version: 6.00 Build 0)  -->
<svg xmlns="http://www.w3.org/2000/svg" xmlns:xlink="http://www.w3.org/1999/xlink" version="1.1" id="257185500_Capa_1_grid" x="0px" y="0px" width="32px" height="32px" viewBox="0 0 32 32" enable-background="new 0 0 32 32" xml:space="preserve">
<g>
	<path d="M15,2C6.72,2,0,8.72,0,17c0,8.28,6.72,15,15,15c8.28,0,15-6.72,15-15C30,8.72,23.28,2,15,2z M25.95,10   c1.13,1.76,1.84,3.81,2.01,6h-3.99c-0.069-1.22-0.29-3.45-0.92-6H25.95z M24.37,8h-1.9c-0.229-0.71-0.5-1.44-0.81-2.16   C22.66,6.44,23.57,7.16,24.37,8z M21.96,16H16v-6h4.96C21.64,12.52,21.88,14.77,21.96,16z M20.33,8H16V4.05   c0.96,0.06,1.89,0.24,2.78,0.52C19.43,5.68,19.94,6.85,20.33,8z M11.21,4.57C12.1,4.29,13.04,4.11,14,4.05V8H9.66   C10.06,6.85,10.57,5.68,11.21,4.57z M14,10v6H8.04c0.08-1.23,0.32-3.48,1-6H14z M8.35,5.84C8.03,6.56,7.76,7.29,7.53,8h-1.9   C6.43,7.16,7.35,6.43,8.35,5.84z M4.05,10h2.91c-0.64,2.55-0.85,4.77-0.92,6H2.05C2.21,13.81,2.92,11.76,4.05,10z M4.05,24   c-1.13-1.76-1.84-3.81-2-6h3.99c0.07,1.23,0.28,3.45,0.92,6H4.05z M5.63,26h1.9c0.23,0.71,0.5,1.44,0.82,2.16   C7.35,27.57,6.43,26.84,5.63,26z M8.04,18H14v6H9.04C8.36,21.48,8.12,19.23,8.04,18z M9.66,26H14v3.96   c-0.96-0.07-1.89-0.25-2.78-0.53C10.57,28.32,10.06,27.15,9.66,26z M18.78,29.43c-0.891,0.28-1.82,0.46-2.78,0.53V26h4.34   C19.94,27.15,19.43,28.32,18.78,29.43z M16,24v-6h5.96c-0.08,1.23-0.32,3.48-1,6H16z M21.66,28.16c0.31-0.72,0.58-1.45,0.81-2.16   h1.9C23.57,26.84,22.66,27.56,21.66,28.16z M25.95,24h-2.9c0.63-2.55,0.851-4.78,0.92-6h3.99C27.79,20.19,27.08,22.24,25.95,24z"/>
</g>
</svg>
