<?xml version="1.0" encoding="utf-8"?>
<!-- Generator: Adobe Illustrator 16.0.0, SVG Export Plug-In . SVG Version: 6.00 Build 0)  -->
<svg xmlns="http://www.w3.org/2000/svg" xmlns:xlink="http://www.w3.org/1999/xlink" version="1.1" id="257185502_Capa_1_grid" x="0px" y="0px" width="32px" height="32px" viewBox="0 0 32 32" style="enable-background:new 0 0 32 32;" xml:space="preserve">
<path d="M16,2C8.28,2,2,8.28,2,16s6.28,14,14,14s14-6.28,14-14S23.72,2,16,2z M28,16c0,0.682-0.07,1.347-0.181,1.998l-1.962,0.001  c-0.449-1.448-1.857-2-2.861-2.001h-5.695L12,12.465V10h3.001c1.639,0,2.5-0.994,2.833-2H19c1.09,0,2.646-0.664,2.938-2.414  C25.554,7.656,28,11.544,28,16z M4,16c0-0.369,0.022-0.733,0.056-1.094L14,21.537L14,23c0,1.002,0.551,2.409,2,2.857V28  C9.383,28,4,22.617,4,16z M18,27.819V24h-1c-0.805,0-0.988-0.55-1-0.999l0.001-2.534L4.455,12.769C5.87,7.719,10.504,4,16,4  c1.404,0,2.747,0.255,4,0.7V5c0,0.805-0.55,0.988-1,1l-2.974,0.014l-0.025,0.975C15.989,7.45,15.806,8,15.001,8H10v5.535  l6.696,4.463h6.299C23.297,17.998,24,18.097,24,19v1.001l3.301-0.003C25.865,24.043,22.326,27.089,18,27.819z"/>
</svg>
