<?xml version="1.0" encoding="utf-8"?>
<!-- Generator: Adobe Illustrator 16.0.0, SVG Export Plug-In . SVG Version: 6.00 Build 0)  -->
<svg xmlns="http://www.w3.org/2000/svg" xmlns:xlink="http://www.w3.org/1999/xlink" version="1.1" id="257185501_Capa_1_grid" x="0px" y="0px" width="32px" height="32px" viewBox="0 0 32 32" style="enable-background:new 0 0 32 32;" xml:space="preserve">
<g>
	<path d="M16,2C8.28,2,2,8.28,2,16c0,7.72,6.28,14,14,14c7.72,0,14-6.28,14-14C30,8.28,23.72,2,16,2z M12,4.69   C13.25,4.24,14.6,4,16,4c5.94,0,10.88,4.33,11.83,10H23c-0.55,0-1,0.45-1,1v1.59l-3.71,3.7C18.11,20.48,18,20.74,18,21v1.99   C17.99,23.45,17.81,24,17,24c-0.81,0-0.99-0.55-1-1v-4c0-0.55-0.45-1-1-1h-2c-0.31,0-3-0.08-3-3c0-2.82,2.5-2.99,3-3h4   c0.55,0,1-0.45,1-1V7c0-0.55-0.45-1-1-1h-5V4.69z M16,28C9.38,28,4,22.62,4,16c0-4.44,2.42-8.31,6-10.39V7c0,0.55,0.45,1,1,1h5v2   h-3c-1.73,0-5,1.05-5,5c0,3.96,3.27,5,5,5h1v3c0,1.21,0.8,3,3,3s3-1.79,3-3v-1.58l3.71-3.71C23.89,17.52,24,17.27,24,17v-1h4   C28,22.62,22.62,28,16,28z"/>
</g>
</svg>
