<?xml version="1.0" encoding="utf-8"?>
<!-- Generator: Adobe Illustrator 16.0.0, SVG Export Plug-In . SVG Version: 6.00 Build 0)  -->
<svg xmlns="http://www.w3.org/2000/svg" xmlns:xlink="http://www.w3.org/1999/xlink" version="1.1" id="257185504_Capa_1_grid" x="0px" y="0px" width="32px" height="32px" viewBox="0 0 32 32" enable-background="new 0 0 32 32" xml:space="preserve">
<path d="M28,12c0,0,2,0,2,2h-4l-2,3l2,3h4c0,0,0,2-2,2s-4,0-4,0s-2,0-2-2v-2H10c0,2,0,2,0,2c0,2-2,2-2,2s-2,0-4,0s-2-2-2-2h4l2-3  l-2-3H2c0-2,2-2,2-2h4c0,0,2,0,2,2c0,1,0,2,0,2h12v-2c0-2,2-2,2-2H28 M28,10h-4c-1.939,0-4,1.402-4,4h-8c0-2.598-2.061-4-4-4H4  c-1.939,0-4,1.402-4,4v2h2h2.93l0.667,1L4.93,18H2H0v2c0,1.939,1.402,4,4,4h4c1.939,0,4-1.402,4-4h8c0,2.598,2.061,4,4,4h4  c2.598,0,4-2.061,4-4v-2h-2h-2.93l-0.667-1l0.667-1H30h2v-2C32,11.402,29.939,10,28,10L28,10z"/>
</svg>
