<?xml version="1.0" encoding="utf-8"?>
<!-- Generator: Adobe Illustrator 16.0.0, SVG Export Plug-In . SVG Version: 6.00 Build 0)  -->
<svg xmlns="http://www.w3.org/2000/svg" xmlns:xlink="http://www.w3.org/1999/xlink" version="1.1" id="257185506_Layer_1_grid" x="0px" y="0px" width="32px" height="32px" viewBox="0 0 32 32" enable-background="new 0 0 32 32" xml:space="preserve">
<g>
	<path d="M21.45,20.04C23.04,18.13,24,15.67,24,13c0-6.07-4.93-11-11-11C6.93,2,2,6.93,2,13c0,6.07,4.93,11,11,11   c2.67,0,5.13-0.96,7.04-2.55l7.25,7.26l1.42-1.42L21.45,20.04z M13,22c-4.96,0-9-4.04-9-9s4.04-9,9-9s9,4.04,9,9S17.96,22,13,22z"/>
</g>
<g>
	<polygon points="18,12 18,14 14,14 14,18 12,18 12,14 8,14 8,12 12,12 12,8 14,8 14,12  "/>
</g>
</svg>
