<?xml version="1.0" encoding="utf-8"?>
<!-- Generator: Adobe Illustrator 16.0.0, SVG Export Plug-In . SVG Version: 6.00 Build 0)  -->
<!DOCTYPE svg PUBLIC "-//W3C//DTD SVG 1.1//EN" "http://www.w3.org/Graphics/SVG/1.1/DTD/svg11.dtd">
<svg xmlns="http://www.w3.org/2000/svg" xmlns:xlink="http://www.w3.org/1999/xlink" version="1.1" id="Capa_1" x="0px" y="0px" width="32px" height="32px" viewBox="0 0 32 32" enable-background="new 0 0 32 32" xml:space="preserve">
<g>
	<g>
		<path d="M22,4c-2.25,0-4.33,0.3-6,0.8V3c0-0.31-0.15-0.61-0.4-0.8c-0.25-0.19-0.57-0.25-0.87-0.16l-14,4C0.3,6.16,0,6.55,0,7v20    c0,0.45,0.3,0.84,0.73,0.96l14,4C14.82,31.99,14.91,32,15,32c0.21,0,0.43-0.07,0.6-0.2c0.25-0.19,0.4-0.489,0.4-0.8v-1.8    c1.67,0.5,3.75,0.8,6,0.8c5.52,0,10-1.79,10-4V8C32,5.79,27.52,4,22,4z M14,29.67L2,26.25V7.75l12-3.42V29.67z M16,6.91    C17.359,6.42,19.37,6,22,6c4.689,0,7.43,1.35,7.95,2c-0.521,0.65-3.261,2-7.95,2c-2.63,0-4.641-0.42-6-0.91V6.91z M30,26    c-0.52,0.65-3.311,2-8,2c-2.609,0-4.641-0.42-6-0.91v-3.9C17.67,23.7,19.75,24,22,24c2.529,0,4.85-0.38,6.609-1    c0.511-0.18,0.979-0.38,1.391-0.6V26z M30,20c-0.52,0.65-3.311,2-8,2c-2.609,0-4.641-0.42-6-0.91v-3.9C17.67,17.7,19.75,18,22,18    c2.529,0,4.85-0.38,6.609-1c0.511-0.18,0.979-0.38,1.391-0.6V20z M30,14c-0.52,0.65-3.311,2-8,2c-2.609,0-4.641-0.42-6-0.91v-3.9    C17.67,11.7,19.75,12,22,12c2.529,0,4.85-0.38,6.609-1c0.511-0.18,0.979-0.38,1.391-0.6V14z"/>
	</g>
</g>
<g>
	<path d="M8.97,10H7.03l-3,12.76l1.94,0.48L6.77,20h2.46l0.8,3.24l1.94-0.48L8.97,10z M7.26,18L8,15l0.74,3H7.26z"/>
</g>
</svg>
