<?xml version="1.0" encoding="utf-8"?>
<!-- Generator: Adobe Illustrator 16.0.0, SVG Export Plug-In . SVG Version: 6.00 Build 0)  -->
<!DOCTYPE svg PUBLIC "-//W3C//DTD SVG 1.1//EN" "http://www.w3.org/Graphics/SVG/1.1/DTD/svg11.dtd">
<svg xmlns="http://www.w3.org/2000/svg" xmlns:xlink="http://www.w3.org/1999/xlink" version="1.1" id="Capa_1" x="0px" y="0px" width="32px" height="32px" viewBox="0 0 32 32" enable-background="new 0 0 32 32" xml:space="preserve">
<path d="M20,4v2c6.561,0,10,2.23,10,3c0,0.42-1.01,1.26-2.98,1.95C25.359,11.53,23,12,20,12v2c2.62,0,5.05-0.35,7.02-0.95  C28,12.76,28.87,12.41,29.6,12c0.142-0.07,0.28-0.15,0.4-0.23V15c0,0.42-1.01,1.26-2.98,1.95C25.359,17.529,23,18,20,18  c-1.49,0-2.83-0.12-4-0.32v2.03C17.25,19.9,18.6,20,20,20c2.62,0,5.05-0.35,7.02-0.95C28,18.76,28.87,18.41,29.6,18  c0.142-0.07,0.28-0.15,0.4-0.23V21c0,0.42-1.01,1.26-2.98,1.95C25.359,23.529,23,24,20,24s-5.36-0.471-7.02-1.05  C11.01,22.26,10,21.42,10,21v-1H8v7c0,2.76,5.37,5,12,5s12-2.24,12-5V9C32,6.24,26.63,4,20,4z M30,27c0,0.77-3.439,3-10,3  c-6.56,0-10-2.23-10-3v-3.23c0.12,0.08,0.26,0.16,0.4,0.23c0.73,0.41,1.6,0.76,2.58,1.05C14.95,25.65,17.38,26,20,26  s5.05-0.35,7.02-0.95C28,24.76,28.87,24.41,29.6,24c0.142-0.07,0.28-0.15,0.4-0.23V27z"/>
<g>
	<g>
		<path d="M9,0C4.03,0,0,4.03,0,9s4.03,9,9,9s9-4.03,9-9S13.97,0,9,0z M9,16c-1.9,0-3.63-0.76-4.89-2h1.53l1.44-3h3.84l1.44,3h1.53    C12.63,15.24,10.9,16,9,16z M8.04,9L9,7l0.96,2H8.04z M14.3,13.56L10,4H8l-4.3,9.56C2.63,12.33,2,10.74,2,9c0-3.86,3.14-7,7-7    s7,3.14,7,7C16,10.74,15.37,12.33,14.3,13.56z"/>
	</g>
</g>
</svg>
