<?xml version="1.0" encoding="utf-8"?>
<!-- Generator: Adobe Illustrator 16.0.0, SVG Export Plug-In . SVG Version: 6.00 Build 0)  -->
<!DOCTYPE svg PUBLIC "-//W3C//DTD SVG 1.1//EN" "http://www.w3.org/Graphics/SVG/1.1/DTD/svg11.dtd">
<svg xmlns="http://www.w3.org/2000/svg" xmlns:xlink="http://www.w3.org/1999/xlink" version="1.1" id="Capa_1" x="0px" y="0px" width="32px" height="32px" viewBox="0 0 32 32" enable-background="new 0 0 32 32" xml:space="preserve">
<g>
	<path d="M14.828,14c1.104,0,2,0.897,2,2c0,1.104-0.896,2-2,2c-1.103,0-2-0.896-2-2C12.828,14.897,13.725,14,14.828,14L14.828,14z    M14.828,12c-2.209,0-4,1.791-4,4s1.791,4,4,4s4-1.791,4-4S17.037,12,14.828,12L14.828,12z"/>
</g>
<g>
	<path d="M28.688,8c-1.33-2.29-3.5-3.5-6.289-3.5c-0.33,0-0.65,0.02-0.971,0.05c-1.17-2.5-3.22-4.55-6.6-4.55s-5.43,2.05-6.6,4.55   c-0.32-0.03-0.64-0.05-0.96-0.05c-2.8,0-4.97,1.21-6.3,3.5c-1.48,2.57-1.26,5.32,0.64,8c-1.9,2.68-2.12,5.43-0.64,8   c1.32,2.29,3.5,3.5,6.29,3.5c0,0,0,0,0.01,0c0.32,0,0.64-0.02,0.96-0.05c1.17,2.5,3.22,4.55,6.6,4.55s5.43-2.05,6.6-4.55   c0.32,0.03,0.642,0.05,0.971,0.05c2.791,0,4.971-1.21,6.291-3.5c1.688-2.93,0.93-5.73-0.631-8C29.618,13.73,30.378,10.93,28.688,8z    M7.268,25.5h-0.01c-2.09,0-3.58-0.82-4.55-2.5c-1.15-1.98-0.73-3.859,0.21-5.42c1.69,1.74,3.5,2.8,3.58,2.85l0.33,0.19V21   c0,1.25,0.18,2.88,0.66,4.49C7.418,25.5,7.338,25.5,7.268,25.5z M4.138,16c0.96-1.03,2.02-1.82,2.69-2.28v4.559   C6.158,17.82,5.098,17.029,4.138,16z M6.828,11v0.38l-0.33,0.19c-0.08,0.05-1.89,1.11-3.58,2.85c-0.94-1.56-1.36-3.44-0.21-5.42   c0.97-1.68,2.46-2.5,4.56-2.5c0.07,0,0.15,0,0.22,0.01C7.008,8.12,6.828,9.75,6.828,11z M20.178,6.77   c0.41,1.33,0.562,2.63,0.61,3.43l-3.92-2.26C17.588,7.6,18.809,7.08,20.178,6.77z M14.828,2c2.29,0,3.71,1.29,4.58,2.9   c-2.34,0.58-4.14,1.61-4.25,1.67l-0.33,0.19l-0.33-0.19c-0.11-0.06-1.89-1.08-4.21-1.66C11.158,3.3,12.568,2,14.828,2z M9.508,6.78   c1.35,0.31,2.56,0.82,3.28,1.16l-3.91,2.26C8.928,9.4,9.098,8.1,9.508,6.78z M9.478,25.23c-0.41-1.33-0.56-2.631-0.61-3.432   l3.92,2.26C12.068,24.4,10.848,24.92,9.478,25.23z M14.828,30c-2.29,0-3.71-1.29-4.58-2.9c2.34-0.58,4.14-1.608,4.25-1.67   l0.33-0.189l0.33,0.189c0.11,0.061,1.891,1.079,4.21,1.659C18.498,28.7,17.088,30,14.828,30z M20.148,25.221h-0.01   c-1.351-0.311-2.551-0.82-3.271-1.16l3.91-2.261C20.729,22.6,20.559,23.9,20.148,25.221z M20.828,19.471l-6,3.459l-6-3.459V12.53   l6.01-3.46l5.99,3.46V19.471z M26.948,23c-0.479,0.84-1.101,1.46-1.86,1.88c-0.75,0.42-1.64,0.62-2.689,0.62   c-0.079,0-0.149,0-0.229-0.01c0.479-1.61,0.659-3.24,0.659-4.49v-0.38l0.33-0.19c1.09-0.63,2.41-1.609,3.59-2.83   C27.688,19.16,28.088,21.029,26.948,23z M22.828,18.279V13.72c0.67,0.46,1.73,1.25,2.689,2.28   C24.559,17.029,23.498,17.82,22.828,18.279z M26.748,14.4c-1.18-1.22-2.5-2.2-3.59-2.83l-0.33-0.19V11c0-1.25-0.18-2.88-0.66-4.49   c0.08-0.01,0.15-0.01,0.23-0.01c2.09,0,3.58,0.82,4.55,2.5C28.088,10.97,27.688,12.84,26.748,14.4z"/>
</g>
</svg>
