<?xml version="1.0" encoding="utf-8"?>
<!-- Generator: Adobe Illustrator 16.0.0, SVG Export Plug-In . SVG Version: 6.00 Build 0)  -->
<!DOCTYPE svg PUBLIC "-//W3C//DTD SVG 1.1//EN" "http://www.w3.org/Graphics/SVG/1.1/DTD/svg11.dtd">
<svg xmlns="http://www.w3.org/2000/svg" xmlns:xlink="http://www.w3.org/1999/xlink" version="1.1" id="Capa_1" x="0px" y="0px" width="32px" height="32px" viewBox="0 0 32 32" enable-background="new 0 0 32 32" xml:space="preserve">
<g>
	<path d="M24,20v-2h-2.08c-0.16-1.189-0.62-2.27-1.32-3.19l1.471-1.47l-1.409-1.41l-1.472,1.47c-0.92-0.7-2-1.16-3.189-1.32V10h-2   v2.08c-1.19,0.16-2.27,0.62-3.19,1.32l-1.47-1.47l-1.41,1.41l1.47,1.47c-0.7,0.92-1.16,2-1.32,3.19H6v2h2.08   c0.16,1.189,0.62,2.27,1.32,3.189L7.93,24.66l1.41,1.41l1.47-1.471c0.92,0.7,2,1.16,3.19,1.32V28h2v-2.08   c1.189-0.16,2.27-0.62,3.189-1.32l1.471,1.471l1.41-1.41L20.6,23.189c0.7-0.92,1.16-2,1.32-3.189H24z M15,24c-2.76,0-5-2.24-5-5   s2.24-5,5-5s5,2.24,5,5S17.76,24,15,24z"/>
</g>
<g>
	<path d="M15,4C7.82,4,2,6.24,2,9v18c0,2.76,5.82,5,13,5c7.18,0,13-2.24,13-5V9C28,6.24,22.18,4,15,4z M26,14h-2v2h2v6h-2v2h2v3   c-0.13,0.87-4.15,3-11,3c-6.85,0-10.87-2.13-11-3v-3h2v-2H4v-6h2v-2H4V9c0.13-0.87,4.15-3,11-3c6.85,0,10.87,2.14,11,3V14z"/>
</g>
</svg>
