<?xml version="1.0" encoding="utf-8"?>
<!-- Generator: Adobe Illustrator 16.0.0, SVG Export Plug-In . SVG Version: 6.00 Build 0)  -->
<!DOCTYPE svg PUBLIC "-//W3C//DTD SVG 1.1//EN" "http://www.w3.org/Graphics/SVG/1.1/DTD/svg11.dtd">
<svg xmlns="http://www.w3.org/2000/svg" xmlns:xlink="http://www.w3.org/1999/xlink" version="1.1" id="Capa_1" x="0px" y="0px" width="32px" height="32px" viewBox="0 0 32 32" enable-background="new 0 0 32 32" xml:space="preserve">
<g>
	<path d="M29.971,16c-0.5-7.91-6.9-8-6.971-8h-5v4h-4V8H9c-0.07,0-6.47,0.09-6.96,8H0v2h2.04c0.49,7.91,6.89,8,6.96,8h5v-4h4v4h5   c0.07,0,6.471-0.09,6.971-8H32v-2H29.971z M12,24H9c-0.2,0-5-0.08-5-7c0-6.74,4.49-6.99,5-7h3V24z M18,20h-4v-6h4V20z M23,24h-3V10   h3c0.2,0,5,0.08,5,7C28,23.73,23.52,23.99,23,24z"/>
</g>
</svg>
