<?xml version="1.0" encoding="utf-8"?>
<!-- Generator: Adobe Illustrator 16.0.0, SVG Export Plug-In . SVG Version: 6.00 Build 0)  -->
<!DOCTYPE svg PUBLIC "-//W3C//DTD SVG 1.1//EN" "http://www.w3.org/Graphics/SVG/1.1/DTD/svg11.dtd">
<svg xmlns="http://www.w3.org/2000/svg" xmlns:xlink="http://www.w3.org/1999/xlink" version="1.1" id="Capa_1" x="0px" y="0px" width="32px" height="32px" viewBox="0 0 32 32" enable-background="new 0 0 32 32" xml:space="preserve">
<g>
	<path d="M15,4C7.82,4,2,6.24,2,9v18c0,2.36,4.27,4.34,10,4.86V29.85C6.99,29.36,4.11,27.74,4,27v-3.34   C4.19,23.78,4.39,23.89,4.61,24c0.77,0.4,1.71,0.75,2.76,1.05C7.58,25.11,7.79,25.16,8,25.21v-2.08c-0.22-0.06-0.42-0.12-0.62-0.18   C5.25,22.28,4.07,21.46,4,21v-3.34C4.19,17.78,4.39,17.89,4.61,18c0.77,0.4,1.71,0.75,2.76,1.05C7.58,19.11,7.79,19.16,8,19.21   v-2.08c-0.22-0.06-0.42-0.12-0.62-0.18C5.25,16.28,4.07,15.46,4,15v-3.34c0.19,0.12,0.39,0.23,0.61,0.34   c0.77,0.4,1.71,0.75,2.76,1.05C9.51,13.65,12.15,14,15,14c2.85,0,5.48-0.35,7.62-0.95c1.06-0.29,1.99-0.65,2.77-1.05   c0.221-0.11,0.42-0.22,0.61-0.34V15c-0.07,0.46-1.25,1.29-3.37,1.95c-0.2,0.06-0.41,0.12-0.63,0.18v2.08   c0.21-0.05,0.42-0.1,0.62-0.16c1.06-0.29,1.99-0.649,2.77-1.05c0.221-0.11,0.42-0.22,0.61-0.34V21c-0.07,0.46-1.25,1.29-3.37,1.95   c-0.2,0.06-0.41,0.13-0.63,0.18v2.08c0.21-0.05,0.42-0.1,0.62-0.16c1.06-0.29,1.99-0.649,2.77-1.05c0.221-0.11,0.42-0.22,0.61-0.34   V27c-0.11,0.74-2.99,2.36-8,2.85v2.011c5.73-0.521,10-2.5,10-4.86V9C28,6.24,22.18,4,15,4z M22.63,10.95   C20.77,11.54,18.19,12,15,12c-3.18,0-5.76-0.47-7.62-1.05C5.25,10.28,4.07,9.46,4,9c0.13-0.87,4.15-3,11-3c6.85,0,10.87,2.14,11,3   C25.93,9.46,24.75,10.29,22.63,10.95z M20,23v-3h-2v-4h-2v4h-2v-4h-2v4h-2v3c0,1.57,0.86,4.42,4,4.91v4.07C14.33,32,14.66,32,15,32   s0.67,0,1-0.02v-4.07C19.14,27.42,20,24.57,20,23z M18,22.99C17.99,23.5,17.82,26,15,26c-2.82,0-2.99-2.5-3-3v-1h6V22.99z"/>
</g>
</svg>
