<?xml version="1.0" encoding="utf-8"?>
<!-- Generator: Adobe Illustrator 16.0.0, SVG Export Plug-In . SVG Version: 6.00 Build 0)  -->
<!DOCTYPE svg PUBLIC "-//W3C//DTD SVG 1.1//EN" "http://www.w3.org/Graphics/SVG/1.1/DTD/svg11.dtd">
<svg xmlns="http://www.w3.org/2000/svg" xmlns:xlink="http://www.w3.org/1999/xlink" version="1.1" id="Capa_1" x="0px" y="0px" width="32px" height="32px" viewBox="0 0 32 32" enable-background="new 0 0 32 32" xml:space="preserve">
<g>
	<g>
		<path d="M32,20V0H2v16h28v2H16v6h6v-2h-4v-2H32z M4,14V2h26v12H4z"/>
	</g>
</g>
<path d="M7,18c-3.87,0-7,1.34-7,3v8c0,1.66,3.13,3,7,3s7-1.34,7-3v-8C14,19.34,10.87,18,7,18z M12,29c-0.67,0.41-2.52,1-5,1  s-4.33-0.59-5-1v-1.9C3.27,27.66,5.04,28,7,28s3.73-0.34,5-0.9V29z M12,25c-0.67,0.41-2.52,1-5,1s-4.33-0.59-5-1v-1.9  C3.27,23.66,5.04,24,7,24s3.73-0.34,5-0.9V25z M7,22c-2.48,0-4.33-0.59-5-1c0.67-0.41,2.52-1,5-1s4.33,0.59,5,1  C11.33,21.41,9.48,22,7,22z"/>
</svg>
