<?xml version="1.0" encoding="utf-8"?>
<!-- Generator: Adobe Illustrator 16.0.0, SVG Export Plug-In . SVG Version: 6.00 Build 0)  -->
<!DOCTYPE svg PUBLIC "-//W3C//DTD SVG 1.1//EN" "http://www.w3.org/Graphics/SVG/1.1/DTD/svg11.dtd">
<svg xmlns="http://www.w3.org/2000/svg" xmlns:xlink="http://www.w3.org/1999/xlink" version="1.1" id="Capa_1" x="0px" y="0px" width="32px" height="32px" viewBox="0 0 32 32" enable-background="new 0 0 32 32" xml:space="preserve">
<g>
	<path d="M12,0v10h2V2h16v24H20v2h12V0H12z"/>
</g>
<g>
	<rect x="20" y="22" width="8" height="2"/>
</g>
<g>
	<path d="M16,4v8h2v-2h8v2h-6v2h6v2h-6v2h8V4H16z M26,8h-8V6h8V8z"/>
</g>
<path d="M9,12c-4.97,0-9,1.79-9,4v12c0,2.21,4.03,4,9,4c4.971,0,9-1.79,9-4V16C18,13.79,13.971,12,9,12z M9,14  c4.29,0,6.71,1.41,6.99,2c-0.28,0.59-2.7,2-6.99,2s-6.71-1.41-6.99-2C2.29,15.41,4.71,14,9,14z M16,28c-0.279,0.59-2.71,2-7,2  s-6.72-1.41-7-2v-3.49C2.32,24.69,2.67,24.85,3.06,25c1.58,0.62,3.67,1,5.94,1s4.359-0.38,5.939-1c0.391-0.15,0.74-0.31,1.061-0.49  V28z M16,22c-0.279,0.59-2.71,2-7,2s-6.72-1.41-7-2v-3.49C2.32,18.69,2.67,18.85,3.06,19c1.58,0.62,3.67,1,5.94,1  s4.359-0.38,5.939-1c0.391-0.15,0.74-0.31,1.061-0.49V22z"/>
</svg>
