<?xml version="1.0" encoding="utf-8"?>
<!-- Generator: Adobe Illustrator 16.0.0, SVG Export Plug-In . SVG Version: 6.00 Build 0)  -->
<!DOCTYPE svg PUBLIC "-//W3C//DTD SVG 1.1//EN" "http://www.w3.org/Graphics/SVG/1.1/DTD/svg11.dtd">
<svg xmlns="http://www.w3.org/2000/svg" xmlns:xlink="http://www.w3.org/1999/xlink" version="1.1" id="Capa_1" x="0px" y="0px" width="32px" height="32px" viewBox="0 0 32 32" enable-background="new 0 0 32 32" xml:space="preserve">
<g>
	<path d="M24,5.39v2.16c1.26,0.54,1.95,1.1,2,1.45c-0.07,0.46-1.25,1.29-3.37,1.95c-0.32,0.1-0.67,0.2-1.04,0.29   c-0.649,0.17-1.37,0.32-2.16,0.44c-0.449,0.07-0.93,0.13-1.43,0.17v2.02c1.69-0.16,3.26-0.44,4.62-0.82   c1.06-0.29,1.99-0.65,2.77-1.05c0.221-0.11,0.42-0.22,0.61-0.34V15c-0.07,0.46-1.25,1.29-3.37,1.95   c-1.24,0.39-2.79,0.729-4.63,0.899v2.021c1.69-0.16,3.26-0.44,4.62-0.82c1.06-0.29,1.99-0.649,2.77-1.05   c0.221-0.11,0.42-0.22,0.61-0.34V21c-0.07,0.46-1.25,1.29-3.37,1.95c-1.66,0.53-3.899,0.95-6.63,1.03V5.41l4.29,4.3l1.42-1.42   L15,1.59l-6.71,6.7l1.42,1.42L14,5.41v18.57c-2.72-0.08-4.96-0.511-6.62-1.03C5.25,22.28,4.07,21.46,4,21v-3.34   C4.19,17.78,4.39,17.89,4.61,18c0.77,0.4,1.71,0.75,2.76,1.05c1.36,0.38,2.93,0.66,4.63,0.82V17.85   c-1.83-0.18-3.39-0.52-4.62-0.899C5.25,16.28,4.07,15.46,4,15v-3.34c0.19,0.12,0.39,0.23,0.61,0.34c0.77,0.4,1.71,0.75,2.76,1.05   c1.36,0.38,2.93,0.66,4.63,0.82v-2.02c-0.49-0.05-0.97-0.11-1.42-0.18c-0.79-0.12-1.52-0.27-2.18-0.44   c-0.36-0.08-0.7-0.18-1.02-0.28C5.25,10.28,4.07,9.46,4,9c0.05-0.36,0.74-0.91,2-1.45V5.39C3.53,6.3,2,7.58,2,9v18   c0,2.76,5.82,5,13,5c7.18,0,13-2.24,13-5V9C28,7.58,26.47,6.3,24,5.39z M26,27c-0.13,0.87-4.15,3-11,3c-6.85,0-10.87-2.13-11-3   v-3.34C4.19,23.78,4.39,23.89,4.61,24c0.77,0.4,1.71,0.75,2.76,1.05C9.51,25.65,12.15,26,15,26c2.85,0,5.48-0.35,7.62-0.95   c1.06-0.29,1.99-0.649,2.77-1.05c0.221-0.11,0.42-0.22,0.61-0.34V27z"/>
</g>
</svg>
