<?xml version="1.0" encoding="utf-8"?>
<!-- Generator: Adobe Illustrator 16.0.0, SVG Export Plug-In . SVG Version: 6.00 Build 0)  -->
<!DOCTYPE svg PUBLIC "-//W3C//DTD SVG 1.1//EN" "http://www.w3.org/Graphics/SVG/1.1/DTD/svg11.dtd">
<svg xmlns="http://www.w3.org/2000/svg" xmlns:xlink="http://www.w3.org/1999/xlink" version="1.1" id="Capa_1" x="0px" y="0px" width="32px" height="32px" viewBox="0 0 32 32" enable-background="new 0 0 32 32" xml:space="preserve">
<g>
	<path d="M15,4C7.82,4,2,6.24,2,9v18c0,2.76,5.82,5,13,5c7.18,0,13-2.24,13-5V9C28,6.24,22.18,4,15,4z M26,27   c-0.13,0.87-4.15,3-11,3c-6.85,0-10.87-2.13-11-3v-3.34C4.19,23.78,4.39,23.89,4.61,24c0.77,0.4,1.71,0.75,2.76,1.05   C9.51,25.65,12.15,26,15,26c2.85,0,5.48-0.35,7.62-0.95c1.06-0.29,1.99-0.649,2.77-1.05c0.221-0.11,0.42-0.22,0.61-0.34V27z M26,21   c-0.07,0.46-1.25,1.29-3.37,1.95C20.77,23.54,18.19,24,15,24c-3.18,0-5.76-0.47-7.62-1.05C5.25,22.28,4.07,21.46,4,21v-3.34   c0.19,0.119,0.39,0.23,0.61,0.34c0.77,0.4,1.71,0.75,2.76,1.05C9.51,19.65,12.15,20,15,20c2.85,0,5.48-0.35,7.62-0.95   c1.06-0.29,1.99-0.649,2.77-1.05c0.221-0.109,0.42-0.221,0.61-0.34V21z M26,15c-0.07,0.46-1.25,1.29-3.37,1.95   C20.77,17.54,18.19,18,15,18c-3.18,0-5.76-0.471-7.62-1.05C5.25,16.28,4.07,15.46,4,15v-3.34c0.19,0.12,0.39,0.23,0.61,0.34   c0.77,0.4,1.71,0.75,2.76,1.05C9.51,13.65,12.15,14,15,14c2.85,0,5.48-0.35,7.62-0.95c1.06-0.29,1.99-0.65,2.77-1.05   c0.221-0.11,0.42-0.22,0.61-0.34V15z M22.63,10.95C20.77,11.54,18.19,12,15,12c-3.18,0-5.76-0.47-7.62-1.05   C5.25,10.28,4.07,9.46,4,9c0.13-0.87,4.15-3,11-3c6.85,0,10.87,2.14,11,3C25.93,9.46,24.75,10.29,22.63,10.95z"/>
</g>
</svg>
