<?xml version="1.0" encoding="utf-8"?>
<!-- Generator: Adobe Illustrator 16.0.0, SVG Export Plug-In . SVG Version: 6.00 Build 0)  -->
<!DOCTYPE svg PUBLIC "-//W3C//DTD SVG 1.1//EN" "http://www.w3.org/Graphics/SVG/1.1/DTD/svg11.dtd">
<svg xmlns="http://www.w3.org/2000/svg" xmlns:xlink="http://www.w3.org/1999/xlink" version="1.1" id="Capa_1" x="0px" y="0px" width="32px" height="32px" viewBox="0 0 32 32" enable-background="new 0 0 32 32" xml:space="preserve">
<path d="M29.72,4C28.43,1.72,22.77,0,16,0C8.27,0,2,2.24,2,5v18c0,1.36,1.53,2.6,4,3.5v-2.16C4.81,23.83,4.14,23.33,4,23v-3.43  c0.25,0.149,0.51,0.3,0.8,0.43c0.83,0.4,1.83,0.75,2.95,1.04C7.83,21.06,7.91,21.08,8,21.1V19.03c-0.08-0.021-0.17-0.05-0.25-0.07  C5.45,18.29,4.19,17.46,4,17v-3.43c0.25,0.15,0.51,0.3,0.8,0.43c0.83,0.4,1.83,0.75,2.95,1.04c0.7,0.18,1.46,0.34,2.25,0.47v-2.03  c-0.83-0.14-1.58-0.33-2.25-0.52C5.45,12.29,4.19,11.46,4,11V7.57C4.25,7.72,4.51,7.87,4.8,8c0.83,0.4,1.83,0.75,2.95,1.04  C10.07,9.64,12.92,10,16,10s5.93-0.36,8.25-0.96C25.37,8.75,26.37,8.4,27.2,8c0.29-0.13,0.55-0.28,0.8-0.43V11  c-0.19,0.46-1.45,1.29-3.75,1.96c-0.67,0.19-1.42,0.38-2.25,0.52v2.03c0.79-0.13,1.55-0.29,2.25-0.47c1.12-0.29,2.12-0.64,2.95-1.04  c0.29-0.13,0.55-0.28,0.8-0.43V17c-0.19,0.46-1.45,1.29-3.75,1.96c-0.08,0.021-0.17,0.05-0.25,0.07V21.1  c0.09-0.02,0.17-0.04,0.25-0.06c1.12-0.29,2.12-0.64,2.95-1.04c0.29-0.13,0.55-0.28,0.8-0.43V23c-0.14,0.33-0.81,0.83-2,1.34v2.16  c2.47-0.9,4-2.14,4-3.5V5C30,4.66,29.9,4.32,29.72,4z M24.25,6.96C22.27,7.54,19.51,8,16,8S9.73,7.54,7.75,6.96  C5.45,6.29,4.19,5.46,4,5c0.35-0.86,4.42-3,12-3s11.65,2.14,12,3C27.81,5.46,26.55,6.29,24.25,6.96z"/>
<g>
	<path d="M16,14c1.065,0,2,1.402,2,3c0,1.598-0.935,3-2,3s-2-1.402-2-3C14,15.402,14.935,14,16,14 M16,12c-2.209,0-4,2.238-4,5   s1.791,5,4,5s4-2.238,4-5S18.209,12,16,12L16,12z"/>
</g>
<g>
	<path d="M24,32H8v-1c0-8.897,4.796-9,5-9h0.414L16,24.586L18.586,22H19c0.204,0,5,0.103,5,9V32z M10.022,30h11.955   c-0.214-4.576-1.891-5.663-2.643-5.921L16,27.414l-3.338-3.338C11.926,24.327,10.237,25.404,10.022,30z"/>
</g>
</svg>
