<?xml version="1.0" encoding="utf-8"?>
<!-- Generator: Adobe Illustrator 16.0.0, SVG Export Plug-In . SVG Version: 6.00 Build 0)  -->
<!DOCTYPE svg PUBLIC "-//W3C//DTD SVG 1.1//EN" "http://www.w3.org/Graphics/SVG/1.1/DTD/svg11.dtd">
<svg xmlns="http://www.w3.org/2000/svg" xmlns:xlink="http://www.w3.org/1999/xlink" version="1.1" id="Capa_1" x="0px" y="0px" width="32px" height="32px" viewBox="0 0 32 32" enable-background="new 0 0 32 32" xml:space="preserve">
<g>
	<g>
		<path d="M28,24v3c0,2.76-5.82,5-13,5c-7.18,0-13-2.24-13-5v-5h2v5c0.13,0.87,4.15,3,11,3c6.85,0,10.87-2.13,11-3v-1L28,24z"/>
		<path d="M15,4C7.82,4,2,6.24,2,9v7h2v-4.34c0.19,0.12,0.39,0.23,0.61,0.34c0.77,0.4,1.71,0.75,2.76,1.05    C9.51,13.65,12.15,14,15,14c2.85,0,5.48-0.35,7.62-0.95c1.06-0.29,1.99-0.65,2.77-1.05c0.221-0.11,0.42-0.22,0.61-0.34V16l2,2V9    C28,6.24,22.18,4,15,4z M22.63,10.95C20.77,11.54,18.19,12,15,12c-3.18,0-5.76-0.47-7.62-1.05C5.25,10.28,4.07,9.46,4,9    c0.13-0.87,4.15-3,11-3c6.85,0,10.87,2.14,11,3C25.93,9.46,24.75,10.29,22.63,10.95z"/>
	</g>
</g>
<g>
	<polygon points="28.41,21 23.71,25.71 22.29,24.29 24.59,22 16,22 16,24 14,24 14,20 2,20 2,18 14,18 14,16 16,16 16,20 24.59,20    22.29,17.71 23.71,16.29  "/>
</g>
</svg>
