<?xml version="1.0" encoding="utf-8"?>
<!-- Generator: Adobe Illustrator 16.0.0, SVG Export Plug-In . SVG Version: 6.00 Build 0)  -->
<!DOCTYPE svg PUBLIC "-//W3C//DTD SVG 1.1//EN" "http://www.w3.org/Graphics/SVG/1.1/DTD/svg11.dtd">
<svg xmlns="http://www.w3.org/2000/svg" xmlns:xlink="http://www.w3.org/1999/xlink" version="1.1" id="Capa_1" x="0px" y="0px" width="32px" height="32px" viewBox="0 0 32 32" enable-background="new 0 0 32 32" xml:space="preserve">
<path d="M9,12c-4.971,0-9,1.79-9,4v12c0,2.21,4.029,4,9,4s9-1.79,9-4V16C18,13.79,13.971,12,9,12z M9,14c4.29,0,6.71,1.41,6.99,2  c-0.28,0.59-2.7,2-6.99,2s-6.71-1.41-6.99-2C2.29,15.41,4.71,14,9,14z M16,28c-0.279,0.59-2.71,2-7,2s-6.721-1.41-7-2v-3.49  C2.32,24.69,2.67,24.85,3.061,25c1.58,0.62,3.67,1,5.939,1s4.359-0.38,5.939-1c0.391-0.15,0.74-0.31,1.061-0.49V28z M16,22  c-0.279,0.59-2.71,2-7,2s-6.721-1.41-7-2v-3.49C2.32,18.69,2.67,18.85,3.061,19c1.58,0.62,3.67,1,5.939,1s4.359-0.38,5.939-1  c0.391-0.15,0.74-0.31,1.061-0.49V22z"/>
<path d="M30,2H20l-2-2h-8c0,0-2,0-2,2v8h2c0-3.23,0-8,0-8h7.17l2,2C19.17,4,30,3.99,30,4v14c0,0-5,0-10,0v2h10c0,0,2,0,2-2V4  C32,4,32,2,30,2z"/>
</svg>
