<?xml version="1.0" encoding="utf-8"?>
<!-- Generator: Adobe Illustrator 16.0.0, SVG Export Plug-In . SVG Version: 6.00 Build 0)  -->
<!DOCTYPE svg PUBLIC "-//W3C//DTD SVG 1.1//EN" "http://www.w3.org/Graphics/SVG/1.1/DTD/svg11.dtd">
<svg xmlns="http://www.w3.org/2000/svg" xmlns:xlink="http://www.w3.org/1999/xlink" version="1.1" id="Capa_1" x="0px" y="0px" width="32px" height="32px" viewBox="0 0 32 32" enable-background="new 0 0 32 32" xml:space="preserve">
<path d="M15,2c-4.971,0-9,1.79-9,4v12c0,2.21,4.029,4,9,4s9-1.79,9-4V6C24,3.79,19.971,2,15,2z M15,4c4.29,0,6.71,1.41,6.99,2  c-0.28,0.59-2.7,2-6.99,2S8.29,6.59,8.01,6C8.29,5.41,10.71,4,15,4z M22,18c-0.279,0.59-2.71,2-7,2s-6.721-1.41-7-2v-3.49  C8.32,14.69,8.67,14.85,9.061,15c1.58,0.62,3.67,1,5.939,1s4.359-0.38,5.939-1c0.391-0.15,0.74-0.31,1.061-0.49V18z M22,12  c-0.279,0.59-2.71,2-7,2s-6.721-1.41-7-2V8.51C8.32,8.69,8.67,8.85,9.061,9c1.58,0.62,3.67,1,5.939,1s4.359-0.38,5.939-1  C21.33,8.85,21.68,8.69,22,8.51V12z"/>
<g>
	<path d="M26,16v2h2v6H2v-6h2v-2H0v14h30V16H26z M28,28H2v-2h26V28z"/>
</g>
</svg>
