<?xml version="1.0" encoding="utf-8"?>
<!-- Generator: Adobe Illustrator 16.0.0, SVG Export Plug-In . SVG Version: 6.00 Build 0)  -->
<!DOCTYPE svg PUBLIC "-//W3C//DTD SVG 1.1//EN" "http://www.w3.org/Graphics/SVG/1.1/DTD/svg11.dtd">
<svg xmlns="http://www.w3.org/2000/svg" xmlns:xlink="http://www.w3.org/1999/xlink" version="1.1" id="Capa_1" x="0px" y="0px" width="32px" height="32px" viewBox="0 0 32 32" enable-background="new 0 0 32 32" xml:space="preserve">
<g>
	<polygon points="21.71,15.71 15,22.41 8.29,15.71 9.71,14.29 14,18.59 14,0 16,0 16,18.59 20.29,14.29  "/>
</g>
<g>
	<path d="M18,4.14v2.01c5.01,0.49,7.89,2.12,8,2.85c-0.07,0.46-1.25,1.29-3.37,1.95c-0.2,0.06-0.41,0.13-0.63,0.19v2.03l0.03,0.03   c0.2-0.04,0.399-0.1,0.59-0.15c1.06-0.29,1.99-0.65,2.77-1.05c0.221-0.11,0.42-0.22,0.61-0.34V15c-0.06,0.35-0.74,0.91-2,1.45v2.16   c0.51-0.19,0.97-0.391,1.39-0.61c0.221-0.11,0.42-0.22,0.61-0.34V21c-0.07,0.46-1.25,1.29-3.37,1.95C20.77,23.54,18.19,24,15,24   c-3.18,0-5.76-0.47-7.62-1.05C5.25,22.28,4.07,21.46,4,21v-3.34C4.19,17.78,4.39,17.89,4.61,18c0.42,0.22,0.88,0.42,1.39,0.6V16.43   C4.74,15.9,4.06,15.35,4,15v-3.34c0.19,0.12,0.39,0.23,0.61,0.34c0.77,0.4,1.71,0.75,2.76,1.05c0.2,0.05,0.4,0.11,0.6,0.15L8,13.17   v-2.04c-0.22-0.06-0.42-0.12-0.62-0.18C5.25,10.28,4.07,9.46,4,9c0.11-0.73,2.99-2.36,8-2.85V4.14C6.27,4.66,2,6.64,2,9v18   c0,2.76,5.82,5,13,5c7.18,0,13-2.24,13-5V9C28,6.64,23.73,4.66,18,4.14z M26,27c-0.13,0.87-4.15,3-11,3c-6.85,0-10.87-2.13-11-3   v-3.34C4.19,23.78,4.39,23.89,4.61,24c0.77,0.4,1.71,0.75,2.76,1.05C9.51,25.65,12.15,26,15,26c2.85,0,5.48-0.35,7.62-0.95   c1.06-0.29,1.99-0.649,2.77-1.05c0.221-0.11,0.42-0.22,0.61-0.34V27z"/>
</g>
</svg>
