<?xml version="1.0" encoding="utf-8"?>
<!-- Generator: Adobe Illustrator 16.0.0, SVG Export Plug-In . SVG Version: 6.00 Build 0)  -->
<!DOCTYPE svg PUBLIC "-//W3C//DTD SVG 1.1//EN" "http://www.w3.org/Graphics/SVG/1.1/DTD/svg11.dtd">
<svg xmlns="http://www.w3.org/2000/svg" xmlns:xlink="http://www.w3.org/1999/xlink" version="1.1" id="Capa_1" x="0px" y="0px" width="32px" height="32px" viewBox="0 0 32 32" enable-background="new 0 0 32 32" xml:space="preserve">
<path d="M15,6c-4.97,0-9,1.79-9,4h2.01c0.28-0.59,2.7-2,6.99-2s6.71,1.41,6.99,2c-0.23,0.48-1.87,1.5-4.78,1.87  c0.8,0.47,1.47,1.03,1.95,1.67c0.64-0.15,1.24-0.33,1.78-0.54c0.39-0.15,0.739-0.31,1.06-0.49V16c-0.14,0.3-0.82,0.8-2,1.22v2.101  c0.33-0.101,0.64-0.2,0.94-0.32c0.39-0.15,0.739-0.31,1.06-0.49V22c-0.14,0.3-0.82,0.8-2,1.22v2.11c2.41-0.72,4-1.94,4-3.33V10  C24,7.79,19.97,6,15,6z"/>
<path d="M21,0c-4.97,0-9,1.79-9,4h2.01c0.28-0.59,2.7-2,6.99-2s6.71,1.41,6.99,2c-0.23,0.48-1.87,1.5-4.78,1.87  c0.8,0.47,1.47,1.03,1.95,1.67C25.8,7.39,26.4,7.21,26.94,7C27.33,6.85,27.68,6.69,28,6.51V10c-0.14,0.3-0.82,0.8-2,1.22v2.1  c0.33-0.1,0.64-0.2,0.94-0.32c0.39-0.15,0.739-0.31,1.06-0.49V16c-0.14,0.3-0.82,0.8-2,1.22v2.11c2.41-0.72,4-1.94,4-3.33V4  C30,1.79,25.97,0,21,0z"/>
<path d="M9,12c-4.97,0-9,1.79-9,4v12c0,2.21,4.03,4,9,4s9-1.79,9-4V16C18,13.79,13.97,12,9,12z M9,14c4.29,0,6.71,1.41,6.99,2  c-0.28,0.59-2.7,2-6.99,2s-6.71-1.41-6.99-2C2.29,15.41,4.71,14,9,14z M16,28c-0.28,0.59-2.71,2-7,2s-6.72-1.41-7-2v-3.49  C2.32,24.69,2.67,24.85,3.06,25c1.58,0.62,3.67,1,5.94,1s4.36-0.38,5.94-1c0.39-0.15,0.74-0.31,1.06-0.49V28z M16,22  c-0.28,0.59-2.71,2-7,2s-6.72-1.41-7-2v-3.49C2.32,18.69,2.67,18.85,3.06,19c1.58,0.62,3.67,1,5.94,1s4.36-0.38,5.94-1  c0.39-0.15,0.74-0.31,1.06-0.49V22z"/>
</svg>
