<?xml version="1.0" encoding="utf-8"?>
<!-- Generator: Adobe Illustrator 16.0.0, SVG Export Plug-In . SVG Version: 6.00 Build 0)  -->
<!DOCTYPE svg PUBLIC "-//W3C//DTD SVG 1.1//EN" "http://www.w3.org/Graphics/SVG/1.1/DTD/svg11.dtd">
<svg xmlns="http://www.w3.org/2000/svg" xmlns:xlink="http://www.w3.org/1999/xlink" version="1.1" id="Capa_1" x="0px" y="0px" width="32px" height="32px" viewBox="0 0 32 32" enable-background="new 0 0 32 32" xml:space="preserve">
<g>
	<path d="M30,19l-4-4v-5H16V8h6V0H8v8h6v2H4v5l-4,4l4,4l-4,4l5,5l5-5l-4-4l4-4l-4-4v-3h8v3l-4,4l4,4l-4,4l5,5l5-5l-4-4l4-4l-4-4v-3   h8v3l-4,4l4,4l-4,4l5,5l5-5l-4-4L30,19z M7.17,27L5,29.17L2.83,27L5,24.83L7.17,27z M7.17,19L5,21.17L2.83,19L5,16.83L7.17,19z    M17.17,27L15,29.17L12.83,27L15,24.83L17.17,27z M17.17,19L15,21.17L12.83,19L15,16.83L17.17,19z M10,6V2h10v4H10z M22.83,19   L25,16.83L27.17,19L25,21.17L22.83,19z M27.17,27L25,29.17L22.83,27L25,24.83L27.17,27z"/>
</g>
</svg>
