<?xml version="1.0" encoding="utf-8"?>
<!-- Generator: Adobe Illustrator 16.0.0, SVG Export Plug-In . SVG Version: 6.00 Build 0)  -->
<!DOCTYPE svg PUBLIC "-//W3C//DTD SVG 1.1//EN" "http://www.w3.org/Graphics/SVG/1.1/DTD/svg11.dtd">
<svg xmlns="http://www.w3.org/2000/svg" xmlns:xlink="http://www.w3.org/1999/xlink" version="1.1" id="Capa_1" x="0px" y="0px" width="32px" height="32px" viewBox="0 0 32 32" enable-background="new 0 0 32 32" xml:space="preserve">
<g>
	<path d="M19.89,12.55l-6-12C13.73,0.21,13.38,0,13,0H1C0.65,0,0.33,0.18,0.15,0.47c-0.18,0.3-0.2,0.67-0.04,0.98l6,12   C6.27,13.79,6.62,14,7,14h12c0.35,0,0.67-0.18,0.85-0.47C20.03,13.23,20.05,12.86,19.89,12.55z M2.62,2h9.76l2,4H4.62L2.62,2z    M7.62,12l-2-4h9.76l2,4H7.62z"/>
</g>
<g>
	<g>
		<path d="M19,4h-1l1,2c6.85,0,10.87,2.14,11,3c-0.07,0.46-1.25,1.29-3.37,1.95c-1.24,0.39-2.79,0.72-4.63,0.9v2.01    c1.7-0.15,3.26-0.43,4.62-0.81c1.06-0.29,1.99-0.65,2.77-1.05c0.221-0.11,0.42-0.22,0.61-0.34V15c-0.07,0.46-1.25,1.29-3.37,1.95    C24.77,17.54,22.19,18,19,18c-3.18,0-5.76-0.47-7.62-1.05C10.43,16.65,9.56,16.32,9,16H6v11c0,2.76,5.82,5,13,5    c7.18,0,13-2.24,13-5V9C32,6.24,26.18,4,19,4z M30,27c-0.13,0.87-4.15,3-11,3c-6.85,0-10.87-2.13-11-3v-3.34    C8.19,23.78,8.39,23.89,8.61,24c0.77,0.4,1.71,0.75,2.76,1.05C13.51,25.65,16.15,26,19,26c2.85,0,5.48-0.35,7.62-0.95    c1.06-0.29,1.99-0.649,2.77-1.05c0.221-0.11,0.42-0.22,0.61-0.34V27z M30,21c-0.07,0.46-1.25,1.29-3.37,1.95    C24.77,23.54,22.19,24,19,24c-3.18,0-5.76-0.47-7.62-1.05C9.25,22.28,8.07,21.46,8,21v-3.34C8.19,17.78,8.39,17.89,8.61,18    c0.77,0.4,1.71,0.75,2.76,1.05C13.51,19.65,16.15,20,19,20c2.85,0,5.48-0.35,7.62-0.95c1.06-0.29,1.99-0.649,2.77-1.05    c0.221-0.11,0.42-0.22,0.61-0.34V21z"/>
	</g>
</g>
</svg>
