<?xml version="1.0" encoding="utf-8"?>
<!-- Generator: Adobe Illustrator 16.0.0, SVG Export Plug-In . SVG Version: 6.00 Build 0)  -->
<!DOCTYPE svg PUBLIC "-//W3C//DTD SVG 1.1//EN" "http://www.w3.org/Graphics/SVG/1.1/DTD/svg11.dtd">
<svg xmlns="http://www.w3.org/2000/svg" xmlns:xlink="http://www.w3.org/1999/xlink" version="1.1" id="Capa_1" x="0px" y="0px" width="32px" height="32px" viewBox="0 0 32 32" enable-background="new 0 0 32 32" xml:space="preserve">
<path d="M0,4v26h32V4H0z M30,28H2v-4.5l6.91-5.18L15,24.41l8-8l7,7.01V28z M30,20.58l-7-6.99l-8,8l-5.91-5.91L2,21V6h28V20.58z"/>
<path d="M7,8c-1.66,0-3,1.34-3,3s1.34,3,3,3s3-1.34,3-3S8.66,8,7,8z M7,12c-0.55,0-1-0.45-1-1s0.45-1,1-1s1,0.45,1,1S7.55,12,7,12z"/>
</svg>
