<?xml version="1.0" encoding="utf-8"?>
<!-- Generator: Adobe Illustrator 16.0.0, SVG Export Plug-In . SVG Version: 6.00 Build 0)  -->
<!DOCTYPE svg PUBLIC "-//W3C//DTD SVG 1.1//EN" "http://www.w3.org/Graphics/SVG/1.1/DTD/svg11.dtd">
<svg xmlns="http://www.w3.org/2000/svg" xmlns:xlink="http://www.w3.org/1999/xlink" version="1.1" id="Capa_1" x="0px" y="0px" width="32px" height="32px" viewBox="0 0 32 32" enable-background="new 0 0 32 32" xml:space="preserve">
<path d="M0,4v26h32V4H0z M30,28H2V6h28V28z"/>
<g>
	<path d="M14,8H8c-2,0-2,2-2,2s0,12,0,14s2,2,2,2s4,0,6,0s2-2,2-2V10C16,8,14,8,14,8z M8,10.04c0-0.01,0-0.02,0.01-0.04h5.38   L8,20.77V10.04z M14,23.96c0,0.01,0,0.021-0.01,0.04H8.62L14,13.23V23.96z"/>
</g>
<g>
	<path d="M26,25c0,0.55-0.45,1-1,1h-4c-0.55,0-1-0.45-1-1s0.45-1,1-1h1V10h-1c-0.55,0-1-0.45-1-1s0.45-1,1-1h2c0.55,0,1,0.45,1,1v15   h1C25.55,24,26,24.45,26,25z"/>
</g>
</svg>
