<?xml version="1.0" encoding="utf-8"?>
<!-- Generator: Adobe Illustrator 16.0.0, SVG Export Plug-In . SVG Version: 6.00 Build 0)  -->
<!DOCTYPE svg PUBLIC "-//W3C//DTD SVG 1.1//EN" "http://www.w3.org/Graphics/SVG/1.1/DTD/svg11.dtd">
<svg xmlns="http://www.w3.org/2000/svg" xmlns:xlink="http://www.w3.org/1999/xlink" version="1.1" id="Capa_1" x="0px" y="0px" width="32px" height="32px" viewBox="0 0 32 32" enable-background="new 0 0 32 32" xml:space="preserve">
<path d="M22,14h-8l-2-2H2c0,0-2,0-2,2v14c0,0,0,2,2,2h20c0,0,2,0,2-2V16C24,16,24,14,22,14z M22,28H2V14h9l2,2c0,0,9-0.01,9,0V28z"/>
<path d="M28,12v12c0,2-2,2-2,2V12c0-0.01-9,0-9,0l-2-2H6c0-2,2-2,2-2h8l2,2h8C28,10,28,12,28,12z"/>
<path d="M32,8v12c0,2-2,2-2,2V8c0-0.01-9,0-9,0l-2-2h-9c0-2,2-2,2-2h8l2,2h8C32,6,32,8,32,8z"/>
</svg>
