<?xml version="1.0" encoding="utf-8"?>
<!-- Generator: Adobe Illustrator 16.0.0, SVG Export Plug-In . SVG Version: 6.00 Build 0)  -->
<!DOCTYPE svg PUBLIC "-//W3C//DTD SVG 1.1//EN" "http://www.w3.org/Graphics/SVG/1.1/DTD/svg11.dtd">
<svg xmlns="http://www.w3.org/2000/svg" xmlns:xlink="http://www.w3.org/1999/xlink" version="1.1" id="Capa_1" x="0px" y="0px" width="32px" height="32px" viewBox="0 0 32 32" enable-background="new 0 0 32 32" xml:space="preserve">
<g>
	<path d="M21,2c-4.96,0-9,4.04-9,9c0,1.06,0.18,2.09,0.53,3.05L4,22.59V30h8v-2h2v-2h2v-2h2v-2h2v-2.06c0.33,0.04,0.67,0.06,1,0.06   c4.96,0,9-4.04,9-9S25.96,2,21,2z M21,18c-0.58,0-1.17-0.07-1.76-0.22L18,17.47V20h-2v2h-2v2h-2v2h-2v2H6v-4.59l8.91-8.91   l-0.29-0.63C14.21,12.98,14,12.01,14,11c0-3.86,3.14-7,7-7c1.57,0,3.01,0.51,4.18,1.4L20,10.58V8h-2v6h6v-2h-2.58l5.18-5.18   C27.49,7.99,28,9.43,28,11C28,14.86,24.86,18,21,18z"/>
</g>
</svg>
