<?xml version="1.0" encoding="utf-8"?>
<!-- Generator: Adobe Illustrator 16.0.0, SVG Export Plug-In . SVG Version: 6.00 Build 0)  -->
<!DOCTYPE svg PUBLIC "-//W3C//DTD SVG 1.1//EN" "http://www.w3.org/Graphics/SVG/1.1/DTD/svg11.dtd">
<svg xmlns="http://www.w3.org/2000/svg" xmlns:xlink="http://www.w3.org/1999/xlink" version="1.1" id="Capa_1" x="0px" y="0px" width="32px" height="32px" viewBox="0 0 32 32" enable-background="new 0 0 32 32" xml:space="preserve">
<g>
	<g>
		<g>
			<g>
				<path d="M15,2C6.72,2,0,8.72,0,17c0,8.279,6.72,15,15,15c8.279,0,15-6.721,15-15C30,8.72,23.279,2,15,2z M15,30      C7.83,30,2,24.17,2,17S7.83,4,15,4s13,5.83,13,13S22.17,30,15,30z"/>
			</g>
		</g>
	</g>
	<g>
		<path d="M20,13c0,0.12,0,3.13-2.43,4.82C16.07,18.859,16,19.98,16,20.02V22h-2v-2c0-0.221,0.07-2.18,2.43-3.82    C17.98,15.1,18,13.02,18,13c-0.01-0.5-0.18-3-3-3c-2.82,0-2.99,2.5-3,3.01V14h-2v-1c0-1.73,1.04-5,5-5S20,11.27,20,13z"/>
	</g>
	<g>
		<rect x="14" y="24" width="2" height="2"/>
	</g>
</g>
</svg>
