<?xml version="1.0" encoding="utf-8"?>
<!-- Generator: Adobe Illustrator 16.0.0, SVG Export Plug-In . SVG Version: 6.00 Build 0)  -->
<!DOCTYPE svg PUBLIC "-//W3C//DTD SVG 1.1//EN" "http://www.w3.org/Graphics/SVG/1.1/DTD/svg11.dtd">
<svg xmlns="http://www.w3.org/2000/svg" xmlns:xlink="http://www.w3.org/1999/xlink" version="1.1" id="Capa_1" x="0px" y="0px" width="32px" height="32px" viewBox="0 0 32 32" enable-background="new 0 0 32 32" xml:space="preserve">
<g>
	<g>
		<path d="M0,0v26h32V0H0z M10,24H2v-4h8V24z M10,18H2v-4h8V18z M10,12H2V8h8V12z M20,24h-8v-4h8V24z M20,18h-8v-4h8V18z M20,12h-8    V8h8V12z M30,24h-8v-4h8V24z M30,18h-8v-4h8V18z M30,12h-8V8h8V12z M30,6H2V2h28V6z"/>
	</g>
</g>
<polygon points="12,28 20,28 16,32 "/>
</svg>
