<?xml version="1.0" encoding="utf-8"?>
<!-- Generator: Adobe Illustrator 16.0.0, SVG Export Plug-In . SVG Version: 6.00 Build 0)  -->
<!DOCTYPE svg PUBLIC "-//W3C//DTD SVG 1.1//EN" "http://www.w3.org/Graphics/SVG/1.1/DTD/svg11.dtd">
<svg xmlns="http://www.w3.org/2000/svg" xmlns:xlink="http://www.w3.org/1999/xlink" version="1.1" id="Capa_1" x="0px" y="0px" width="32px" height="32px" viewBox="0 0 32 32" enable-background="new 0 0 32 32" xml:space="preserve">
<g>
	<g>
		<path d="M26,12V6h-6V0H0v20h6v6h6v6h20V12H26z M6,18H2v-4h4V18z M6,12H2V8h4V12z M6,6H2V2h4V6z M12,24H8v-4h4V24z M12,18H8v-4h4    V18z M12,12H8V8h4V12z M12,6H8V2h4V6z M18,30h-4v-4h4V30z M18,24h-4v-4h4V24z M18,18h-4v-4h4V18z M18,12h-4V8h4V12z M18,6h-4V2h4    V6z M24,30h-4v-4h4V30z M24,24h-4v-4h4V24z M24,18h-4v-4h4V18z M24,12h-4V8h4V12z M30,30h-4v-4h4V30z M30,24h-4v-4h4V24z M30,18    h-4v-4h4V18z"/>
	</g>
</g>
</svg>
