<?xml version="1.0" encoding="utf-8"?>
<!-- Generator: Adobe Illustrator 16.0.0, SVG Export Plug-In . SVG Version: 6.00 Build 0)  -->
<!DOCTYPE svg PUBLIC "-//W3C//DTD SVG 1.1//EN" "http://www.w3.org/Graphics/SVG/1.1/DTD/svg11.dtd">
<svg xmlns="http://www.w3.org/2000/svg" xmlns:xlink="http://www.w3.org/1999/xlink" version="1.1" id="Capa_1" x="0px" y="0px" width="32px" height="32px" viewBox="0 0 32 32" enable-background="new 0 0 32 32" xml:space="preserve">
<g>
	<polygon points="30,10 30,24 22,24 22,22 28,22 28,12 18,12 18,16 16,16 16,10  "/>
</g>
<g>
	<path d="M13,18c-3.87,0-7,3.13-7,7s3.13,7,7,7s7-3.13,7-7S16.87,18,13,18z M13,30c-2.76,0-5-2.24-5-5s2.24-5,5-5s5,2.24,5,5   S15.76,30,13,30z"/>
</g>
<g>
	<path d="M14,16H3c-0.356,0-0.686-0.19-0.865-0.498c-0.179-0.308-0.18-0.688-0.003-0.998l8-14c0.169-0.296,0.477-0.485,0.818-0.502   c0.341-0.016,0.666,0.14,0.864,0.417l5,7l-1.628,1.162l-4.092-5.729L4.723,14H14V16z"/>
</g>
</svg>
