<?xml version="1.0" encoding="utf-8"?>
<!-- Generator: Adobe Illustrator 16.0.0, SVG Export Plug-In . SVG Version: 6.00 Build 0)  -->
<!DOCTYPE svg PUBLIC "-//W3C//DTD SVG 1.1//EN" "http://www.w3.org/Graphics/SVG/1.1/DTD/svg11.dtd">
<svg xmlns="http://www.w3.org/2000/svg" xmlns:xlink="http://www.w3.org/1999/xlink" version="1.1" id="Capa_1" x="0px" y="0px" width="32px" height="32px" viewBox="0 0 32 32" enable-background="new 0 0 32 32" xml:space="preserve">
<g>
	<path d="M27.67,8.58l-1.71,1.71C25.99,10.52,26,10.76,26,11c0,3.86-3.14,7-7,7c-0.58,0-1.17-0.07-1.76-0.22L16,17.47V20h-2v2h-2v2   h-2v2H8v2H4v-4.59l8.91-8.91l-0.29-0.63C12.21,12.98,12,12.01,12,11c0-3.86,3.14-7,7-7c1.36,0,2.63,0.39,3.7,1.06l1.439-1.44   C22.68,2.6,20.91,2,19,2c-4.96,0-9,4.04-9,9c0,1.06,0.18,2.09,0.53,3.05L2,22.59V30h8v-2h2v-2h2v-2h2v-2h2v-2.06   c0.33,0.04,0.67,0.06,1,0.06c4.96,0,9-4.04,9-9C28,10.16,27.88,9.35,27.67,8.58z"/>
</g>
<g>
	<polygon points="19,14.414 14.293,9.707 15.707,8.293 19,11.586 28.293,2.293 29.707,3.707  "/>
</g>
</svg>
