<?xml version="1.0" encoding="utf-8"?>
<!-- Generator: Adobe Illustrator 16.0.0, SVG Export Plug-In . SVG Version: 6.00 Build 0)  -->
<!DOCTYPE svg PUBLIC "-//W3C//DTD SVG 1.1//EN" "http://www.w3.org/Graphics/SVG/1.1/DTD/svg11.dtd">
<svg xmlns="http://www.w3.org/2000/svg" xmlns:xlink="http://www.w3.org/1999/xlink" version="1.1" id="Capa_1" x="0px" y="0px" width="32px" height="32px" viewBox="0 0 32 32" enable-background="new 0 0 32 32" xml:space="preserve">
<g>
	<path d="M28,6v2h2v4h-4v2h4v4H20v6h-8v-2h-2v2H2v-4h4v-2H2v-4h4v-2H2V8h8V6H0v26h32V6H28z M10,30H2v-4h8V30z M20,30h-8v-4h8V30z    M30,30h-8v-4h8V30z M30,24h-8v-4h8V24z"/>
</g>
<g>
	<g>
		<path d="M24.71,3.29c-1.03-1.03-2.22-1.55-3.521-1.55c-2.141,0-3.789,1.45-3.899,1.55l-9,9C8.11,12.48,8,12.73,8,13v7h7    c0.27,0,0.52-0.109,0.71-0.29l9.04-9.04C25.939,9.32,27.471,6.061,24.71,3.29z M10,18v-4.58L14.58,18H10z M16,16.58L11.42,12    L16,7.42L20.58,12L16,16.58z M23.29,9.29L22,10.58L17.42,6l1.25-1.25c0.01-0.01,1.16-1.01,2.521-1.01c0.77,0,1.449,0.32,2.1,0.97    C25.37,6.79,23.471,9.08,23.29,9.29z"/>
	</g>
</g>
</svg>
