<?xml version="1.0" encoding="utf-8"?>
<!-- Generator: Adobe Illustrator 16.0.0, SVG Export Plug-In . SVG Version: 6.00 Build 0)  -->
<!DOCTYPE svg PUBLIC "-//W3C//DTD SVG 1.1//EN" "http://www.w3.org/Graphics/SVG/1.1/DTD/svg11.dtd">
<svg xmlns="http://www.w3.org/2000/svg" xmlns:xlink="http://www.w3.org/1999/xlink" version="1.1" id="Capa_1" x="0px" y="0px" width="32px" height="32px" viewBox="0 0 32 32" enable-background="new 0 0 32 32" xml:space="preserve">
<g>
	<path d="M15,4c7.168,0,13,5.832,13,13c0,7.168-5.832,13-13,13C7.832,30,2,24.168,2,17C2,9.832,7.832,4,15,4 M15,2   C6.716,2,0,8.716,0,17s6.716,15,15,15s15-6.716,15-15S23.284,2,15,2L15,2z"/>
</g>
<g>
	<path d="M11,26c-0.162,0-0.324-0.039-0.472-0.118C10.203,25.708,10,25.369,10,25V9c0-0.369,0.203-0.708,0.528-0.882   c0.324-0.174,0.719-0.156,1.026,0.05l12,8C23.833,16.354,24,16.666,24,17c0,0.334-0.167,0.646-0.445,0.832l-12,8   C11.387,25.943,11.194,26,11,26z M12,10.869v12.263L21.197,17L12,10.869z"/>
</g>
</svg>
