<?xml version="1.0" encoding="utf-8"?>
<!-- Generator: Adobe Illustrator 16.0.0, SVG Export Plug-In . SVG Version: 6.00 Build 0)  -->
<!DOCTYPE svg PUBLIC "-//W3C//DTD SVG 1.1//EN" "http://www.w3.org/Graphics/SVG/1.1/DTD/svg11.dtd">
<svg xmlns="http://www.w3.org/2000/svg" xmlns:xlink="http://www.w3.org/1999/xlink" version="1.1" id="Capa_1" x="0px" y="0px" width="32px" height="32px" viewBox="0 0 32 32" enable-background="new 0 0 32 32" xml:space="preserve">
<g>
	<path d="M14,0v32h2V0H14z"/>
	<polygon points="30,16 26,20 26,32 18,32 18,30 24,30 24,22 18,22 18,20 24,20 24,12 18,12 18,10 24,10 24,2 18,2 18,0 26,0 26,12     "/>
</g>
<g>
	<polygon points="6,2 6,10 12,10 12,12 6,12 6,20 12,20 12,22 6,22 6,30 12,30 12,32 4,32 4,20 0,16 4,12 4,0 12,0 12,2  "/>
</g>
</svg>
