<?xml version="1.0" encoding="utf-8"?>
<!-- Generator: Adobe Illustrator 16.0.0, SVG Export Plug-In . SVG Version: 6.00 Build 0)  -->
<!DOCTYPE svg PUBLIC "-//W3C//DTD SVG 1.1//EN" "http://www.w3.org/Graphics/SVG/1.1/DTD/svg11.dtd">
<svg xmlns="http://www.w3.org/2000/svg" xmlns:xlink="http://www.w3.org/1999/xlink" version="1.1" id="Capa_1" x="0px" y="0px" width="32px" height="32px" viewBox="0 0 32 32" enable-background="new 0 0 32 32" xml:space="preserve">
<g>
	<path d="M21.45,20.04C23.04,18.13,24,15.67,24,13c0-6.06-4.94-11-11-11C6.94,2,2,6.94,2,13c0,6.06,4.94,11,11,11   c2.67,0,5.13-0.96,7.04-2.55l7.25,7.26l1.42-1.42L21.45,20.04z M13,22c-4.96,0-9-4.04-9-9s4.04-9,9-9s9,4.04,9,9S17.96,22,13,22z"/>
</g>
<path d="M13,6c-3.87,0-7,3.13-7,7s3.13,7,7,7s7-3.13,7-7S16.87,6,13,6z M10.5,9c0.83,0,1.5,0.67,1.5,1.5S11.33,12,10.5,12  S9,11.33,9,10.5S9.67,9,10.5,9z M13,18c-2.76,0-5-2.24-5-5v-0.06C8.63,13.6,9.52,14,10.5,14c1.93,0,3.5-1.57,3.5-3.5  c0-0.98-0.4-1.87-1.06-2.5H13c2.76,0,5,2.24,5,5S15.76,18,13,18z"/>
</svg>
