<?xml version="1.0" encoding="utf-8"?>
<!-- Generator: Adobe Illustrator 16.0.0, SVG Export Plug-In . SVG Version: 6.00 Build 0)  -->
<svg xmlns="http://www.w3.org/2000/svg" xmlns:xlink="http://www.w3.org/1999/xlink" version="1.1" id="Capa_1" x="0px" y="0px" width="48px" height="48px" viewBox="0 0 48 48" enable-background="new 0 0 48 48" xml:space="preserve">
<path d="M24,6C15.27,6,6,8.45,6,13v24c0,4.55,9.27,7,18,7c8.73,0,18-2.45,18-7V13C42,8.45,32.73,6,24,6z M40,19  c0,1.88-4.96,4.43-13.2,4.91l5.55,13.33c3.15-0.61,5.91-1.601,7.65-2.91V37c0,2.09-6.09,5-16,5S8,39.09,8,37v-2.67  c1.74,1.31,4.49,2.29,7.65,2.9l5.55-13.32C12.96,23.43,8,20.88,8,19v-2.68C11.19,18.73,17.73,20,24,20c6.27,0,12.81-1.27,16-3.68V19  z M24,18c-9.91,0-16-2.91-16-5s6.09-5,16-5s16,2.91,16,5S33.91,18,24,18z M29.924,36.617l-5.001-12.003  c-0.155-0.373-0.519-0.615-0.923-0.615s-0.768,0.243-0.923,0.615l-5,12.003c-0.212,0.51,0.029,1.096,0.539,1.308  c0.126,0.053,0.256,0.077,0.384,0.077c0.392,0,0.764-0.231,0.924-0.615L21.333,34h5.333l1.411,3.387  c0.213,0.511,0.799,0.751,1.308,0.538C29.896,37.713,30.137,37.127,29.924,36.617z M22.167,32L24,27.599L25.834,32H22.167z"/>
</svg>
