<?xml version="1.0" encoding="utf-8"?>
<!-- Generator: Adobe Illustrator 16.0.0, SVG Export Plug-In . SVG Version: 6.00 Build 0)  -->
<svg xmlns="http://www.w3.org/2000/svg" xmlns:xlink="http://www.w3.org/1999/xlink" version="1.1" id="Capa_1" x="0px" y="0px" width="48px" height="48px" viewBox="0 0 48 48" enable-background="new 0 0 48 48" xml:space="preserve">
<path d="M32,10c-1.35,0-2.71,0.09-4,0.27V5c0-0.3-0.14-0.59-0.38-0.78c-0.23-0.19-0.55-0.26-0.84-0.2l-22,5.01  C4.32,9.13,4,9.53,4,10v28c0,0.47,0.32,0.87,0.78,0.97l22,5.011C26.85,43.99,26.93,44,27,44c0.22,0,0.45-0.08,0.62-0.22  C27.86,43.59,28,43.3,28,43v-5.25c1.29,0.18,2.65,0.27,4,0.27c5.96,0,12-1.72,12-5.01V15C44,11.72,37.96,10,32,10z M20.38,30.921  c-0.12,0.061-0.25,0.08-0.38,0.08c-0.39,0-0.76-0.23-0.92-0.62l-1-2.39c-0.03,0.01-0.05,0.01-0.08,0.01h-6c-0.03,0-0.05,0-0.08-0.01  l-1,2.39c-0.21,0.51-0.79,0.76-1.3,0.54c-0.51-0.21-0.76-0.8-0.54-1.3l5-12C14.23,17.241,14.601,17,15,17s0.77,0.24,0.92,0.62l5,12  c0.05,0.12,0.08,0.25,0.08,0.38C21,30.391,20.76,30.761,20.38,30.921z M42,33.01c0,1.2-3.99,3.01-10,3.01c-1.46,0-2.8-0.109-4-0.289  v-3.99c1.29,0.18,2.65,0.27,4,0.27c3.85,0,7.73-0.72,10-2.109V33.01z M42,27.01c0,1.19-3.99,3-10,3c-1.46,0-2.8-0.109-4-0.29V25.73  c1.29,0.18,2.65,0.27,4,0.27c3.85,0,7.73-0.71,10-2.1V27.01z M42,21c0,1.2-3.99,3-10,3c-1.46,0-2.8-0.11-4-0.29v-3.98  c1.29,0.18,2.65,0.27,4,0.27c3.85,0,7.73-0.72,10-2.11V21z M32,18c-1.46,0-2.8-0.11-4-0.29v-5.42c1.2-0.18,2.54-0.29,4-0.29  c6.01,0,10,1.81,10,3C42,16.2,38.01,18,32,18z M17.25,26.001h-4.5l2.25-5.4L17.25,26.001z"/>
</svg>
