<?xml version="1.0" encoding="utf-8"?>
<!-- Generator: Adobe Illustrator 16.0.0, SVG Export Plug-In . SVG Version: 6.00 Build 0)  -->
<svg xmlns="http://www.w3.org/2000/svg" xmlns:xlink="http://www.w3.org/1999/xlink" version="1.1" id="Capa_1" x="0px" y="0px" width="48px" height="48px" viewBox="0 0 48 48" enable-background="new 0 0 48 48" xml:space="preserve">
<path d="M24,20c-2.206,0-4,1.794-4,4c0,2.206,1.794,4,4,4c2.206,0,4-1.794,4-4C28,21.794,26.206,20,24,20z M24,26  c-1.103,0-2-0.897-2-2c0-1.103,0.897-2,2-2c1.103,0,2,0.897,2,2C26,25.103,25.103,26,24,26z M43,24c0-2.84-2.146-5.366-5.645-7.169  c0.035-0.327,0.076-0.656,0.095-0.975c0.259-4.373-0.993-7.586-3.523-9.047C32.997,6.272,31.938,6,30.776,6  C28.666,6,26.329,6.906,24,8.504C21.672,6.906,19.334,6,17.224,6c-1.161,0-2.221,0.272-3.15,0.808  c-2.531,1.461-3.782,4.674-3.523,9.047c0.019,0.319,0.06,0.648,0.094,0.975C7.147,18.634,5,21.16,5,24  c0,2.836,2.14,5.358,5.629,7.162c-0.492,4.657,0.636,8.407,3.446,10.03C15.004,41.729,16.063,42,17.224,42  c2.11,0,4.448-0.905,6.776-2.504C26.328,41.095,28.666,42,30.776,42c1.16,0,2.22-0.271,3.148-0.808  c2.811-1.623,3.938-5.373,3.446-10.03C40.86,29.358,43,26.836,43,24z M30.776,8c0.806,0,1.529,0.182,2.15,0.541  c1.814,1.047,2.735,3.67,2.526,7.197c-0.005,0.077-0.018,0.158-0.023,0.236c-1.566-0.613-3.32-1.102-5.224-1.438  c-1.43-1.849-2.962-3.451-4.526-4.756C27.471,8.642,29.222,8,30.776,8z M31.316,28.225c-0.692,1.199-1.44,2.331-2.224,3.391  C27.477,31.863,25.766,32,24,32s-3.477-0.137-5.093-0.385c-0.782-1.06-1.531-2.191-2.223-3.391  c-0.804-1.393-1.492-2.807-2.075-4.215c0.578-1.407,1.263-2.829,2.075-4.235c0.692-1.199,1.441-2.331,2.224-3.39  C20.523,16.137,22.234,16,24,16s3.478,0.137,5.094,0.385c0.782,1.06,1.53,2.191,2.223,3.39c0.812,1.406,1.497,2.828,2.074,4.234  C32.808,25.417,32.12,26.832,31.316,28.225z M34.365,26.716c0.345,1.117,0.61,2.206,0.794,3.252  c-0.989,0.412-2.069,0.776-3.234,1.073c0.385-0.59,0.763-1.191,1.124-1.816C33.527,28.396,33.958,27.557,34.365,26.716z   M27.296,33.846c-1.071,1.214-2.182,2.276-3.296,3.167c-1.115-0.891-2.225-1.953-3.296-3.167C21.774,33.94,22.871,34,24,34  C25.13,34,26.226,33.94,27.296,33.846z M16.076,31.042c-1.166-0.298-2.245-0.662-3.234-1.074c0.184-1.046,0.449-2.135,0.794-3.252  c0.407,0.841,0.838,1.68,1.316,2.509C15.313,29.85,15.69,30.451,16.076,31.042z M13.625,21.301c-0.345-1.11-0.61-2.202-0.794-3.265  c0.992-0.414,2.075-0.779,3.244-1.078c-0.385,0.59-0.763,1.191-1.124,1.816C14.465,19.618,14.033,20.46,13.625,21.301z   M20.704,14.154c1.071-1.214,2.182-2.276,3.296-3.167c1.115,0.89,2.225,1.953,3.296,3.167C26.226,14.06,25.129,14,24,14  C22.871,14,21.774,14.06,20.704,14.154z M33.049,18.775c-0.36-0.625-0.738-1.226-1.124-1.816c1.169,0.298,2.252,0.664,3.244,1.078  c-0.185,1.063-0.45,2.154-0.795,3.265C33.967,20.46,33.535,19.617,33.049,18.775z M12.546,15.738  c-0.208-3.526,0.713-6.149,2.527-7.197C15.695,8.182,16.418,8,17.224,8c1.554,0,3.306,0.642,5.097,1.78  c-1.564,1.305-3.097,2.907-4.527,4.756c-1.903,0.336-3.658,0.824-5.225,1.438C12.564,15.896,12.551,15.815,12.546,15.738z M7,24  c0-1.901,1.498-3.673,3.956-5.064c0.324,1.645,0.824,3.346,1.486,5.059c-0.675,1.741-1.171,3.442-1.492,5.066  C8.496,27.671,7,25.9,7,24z M17.224,40c-0.805,0-1.528-0.182-2.148-0.54c-1.959-1.131-2.766-3.906-2.502-7.433  c1.566,0.613,3.319,1.101,5.221,1.437c1.43,1.849,2.962,3.452,4.527,4.757C20.53,39.358,18.778,40,17.224,40z M32.925,39.46  C32.304,39.818,31.581,40,30.776,40c-1.555,0-3.307-0.642-5.098-1.779c1.564-1.306,3.098-2.908,4.527-4.757  c1.902-0.336,3.656-0.823,5.222-1.437C35.691,35.554,34.884,38.329,32.925,39.46z M37.05,29.062  c-0.321-1.624-0.817-3.325-1.492-5.066c0.662-1.714,1.162-3.415,1.486-5.06C39.502,20.327,41,22.099,41,24  C41,25.9,39.505,27.671,37.05,29.062z"/>
</svg>
