<?xml version="1.0" encoding="utf-8"?>
<!-- Generator: Adobe Illustrator 16.0.0, SVG Export Plug-In . SVG Version: 6.00 Build 0)  -->
<svg xmlns="http://www.w3.org/2000/svg" xmlns:xlink="http://www.w3.org/1999/xlink" version="1.1" id="Capa_1" x="0px" y="0px" width="48px" height="48px" viewBox="0 0 48 48" enable-background="new 0 0 48 48" xml:space="preserve">
<path d="M14.6,24.2l-4-3c-0.3-0.23-0.71-0.26-1.05-0.09C9.21,21.27,9,21.62,9,22v6c0,0.38,0.21,0.72,0.55,0.89  C9.69,28.96,9.85,29,10,29c0.21,0,0.42-0.07,0.6-0.2l4-3C14.85,25.61,15,25.31,15,25C15,24.69,14.85,24.39,14.6,24.2z M14.6,34.21  l-4-3c-0.3-0.229-0.71-0.26-1.05-0.1C9.21,31.28,9,31.63,9,32.01v6c0,0.38,0.21,0.721,0.55,0.891C9.69,38.97,9.85,39.01,10,39.01  c0.21,0,0.42-0.069,0.6-0.2l4-3c0.25-0.189,0.4-0.489,0.4-0.8C15,34.7,14.85,34.4,14.6,34.21z M41,30v6.99  C40.99,37.45,40.81,38,40,38H20.01C19.55,37.99,19,37.81,19,37v-7H41z M41,20v8H19v-8H41z M41,11v7H8.01C7.55,17.99,7,17.81,7,17v-6  c0-0.3,0.1-1,1-1h31.99C40.45,10.01,41,10.19,41,11z"/>
</svg>
