<?xml version="1.0" encoding="utf-8"?>
<!-- Generator: Adobe Illustrator 16.0.0, SVG Export Plug-In . SVG Version: 6.00 Build 0)  -->
<svg xmlns="http://www.w3.org/2000/svg" xmlns:xlink="http://www.w3.org/1999/xlink" version="1.1" id="Capa_1" x="0px" y="0px" width="48px" height="48px" viewBox="0 0 48 48" enable-background="new 0 0 48 48" xml:space="preserve">
<path d="M40,8H8c-2.2,0-3,1.79-3,3v6c0,2.2,1.79,3,3,3h9v17c0,2.2,1.79,3,3,3h20c2.2,0,3-1.79,3-3V11C43,8.8,41.21,8,40,8z   M41,36.99C40.99,37.45,40.81,38,40,38H20.01C19.55,37.99,19,37.81,19,37v-7h22V36.99z M41,28H19v-8h22V28z M41,18H8.01  C7.55,17.99,7,17.81,7,17v-6c0-0.3,0.1-1,1-1h31.99c0.46,0.01,1.01,0.19,1.01,1V18z M15,25c0,0.31-0.15,0.61-0.4,0.8l-4,3  C10.42,28.93,10.21,29,10,29c-0.15,0-0.31-0.04-0.45-0.11C9.21,28.72,9,28.38,9,28v-6c0-0.38,0.21-0.73,0.55-0.89  c0.34-0.17,0.75-0.14,1.05,0.09l4,3C14.85,24.39,15,24.69,15,25z M15,35.01c0,0.311-0.15,0.61-0.4,0.8l-4,3  c-0.18,0.131-0.39,0.2-0.6,0.2c-0.15,0-0.31-0.04-0.45-0.109C9.21,38.73,9,38.39,9,38.01v-6c0-0.38,0.21-0.729,0.55-0.899  c0.34-0.16,0.75-0.13,1.05,0.1l4,3C14.85,34.4,15,34.7,15,35.01z"/>
</svg>
