<?xml version="1.0" encoding="utf-8"?>
<!-- Generator: Adobe Illustrator 16.0.0, SVG Export Plug-In . SVG Version: 6.00 Build 0)  -->
<svg xmlns="http://www.w3.org/2000/svg" xmlns:xlink="http://www.w3.org/1999/xlink" version="1.1" id="Capa_1" x="0px" y="0px" width="48px" height="48px" viewBox="0 0 48 48" enable-background="new 0 0 48 48" xml:space="preserve">
<path d="M24,6C15.27,6,6,8.45,6,13v24c0,4.55,9.27,7,18,7c8.73,0,18-2.45,18-7V13C42,8.45,32.73,6,24,6z M40,19  c0,1.46-2.98,3.32-8.16,4.3C33.8,25.28,35,28,35,31c0,2.25-0.67,4.33-1.83,6.07c2.811-0.62,5.23-1.54,6.83-2.74V37  c0,2.09-6.09,5-16,5S8,39.09,8,37v-2.67c1.59,1.2,4.01,2.11,6.81,2.729C13.67,35.32,13,33.24,13,31c0-3,1.2-5.72,3.15-7.7  C10.98,22.31,8,20.45,8,19v-2.68C11.19,18.73,17.73,20,24,20c6.27,0,12.81-1.27,16-3.68V19z M24,18c-9.91,0-16-2.91-16-5  s6.09-5,16-5s16,2.91,16,5S33.91,18,24,18z M32.52,29.78l-1.25-0.391c-0.26-0.08-0.52-0.27-0.569-0.39  c-0.13-0.46-0.32-0.92-0.54-1.33c-0.061-0.12,0-0.42,0.13-0.66l0.61-1.16c0.119-0.25,0.069-0.6-0.12-0.8l-0.83-0.82  c-0.19-0.2-0.55-0.25-0.79-0.12L28,24.72c-0.25,0.13-0.54,0.18-0.66,0.12c-0.42-0.22-0.88-0.41-1.34-0.55  c-0.13-0.04-0.3-0.29-0.38-0.56l-0.39-1.25C25.15,22.22,24.86,22,24.58,22h-1.16c-0.28,0-0.57,0.22-0.65,0.48l-0.39,1.25  c-0.08,0.27-0.26,0.53-0.39,0.57c-0.46,0.14-0.91,0.32-1.33,0.54c-0.12,0.06-0.41,0.01-0.66-0.12l-1.16-0.61  c-0.24-0.13-0.6-0.08-0.79,0.12l-0.83,0.82c-0.19,0.2-0.24,0.55-0.12,0.8l0.61,1.16c0.13,0.24,0.19,0.54,0.13,0.66  c-0.22,0.41-0.41,0.87-0.54,1.33c-0.05,0.12-0.31,0.31-0.57,0.39l-1.25,0.391C15.21,29.86,15,30.15,15,30.42v1.17  c0,0.271,0.21,0.57,0.48,0.65l1.25,0.38c0.26,0.09,0.51,0.26,0.56,0.38c0.13,0.46,0.33,0.93,0.55,1.34c0.06,0.12,0,0.42-0.13,0.66  l-0.61,1.16c-0.12,0.25-0.07,0.6,0.12,0.8l0.83,0.82c0.19,0.2,0.55,0.25,0.79,0.12L20,37.29c0.25-0.13,0.56-0.18,0.68-0.12  c0.41,0.22,0.85,0.4,1.31,0.54c0.13,0.04,0.31,0.3,0.39,0.57l0.39,1.25c0.08,0.26,0.37,0.479,0.65,0.479h1.16  c0.28,0,0.57-0.22,0.65-0.479l0.39-1.25c0.08-0.271,0.26-0.53,0.39-0.57c0.46-0.14,0.9-0.32,1.311-0.54  c0.13-0.06,0.43-0.01,0.68,0.12l1.16,0.61c0.24,0.13,0.6,0.08,0.79-0.12l0.83-0.82c0.189-0.2,0.239-0.55,0.12-0.8L30.29,35  c-0.13-0.24-0.19-0.55-0.13-0.67c0.229-0.41,0.41-0.85,0.54-1.311c0.05-0.13,0.31-0.31,0.569-0.399l1.25-0.38  C32.79,32.16,33,31.86,33,31.59v-1.17C33,30.15,32.79,29.86,32.52,29.78z M24,36c-2.76,0-5-2.24-5-5s2.24-5,5-5s5,2.24,5,5  S26.76,36,24,36z M26.5,31.01c0,1.38-1.12,2.5-2.5,2.5s-2.5-1.12-2.5-2.5s1.12-2.51,2.5-2.51S26.5,29.63,26.5,31.01z"/>
</svg>
