<?xml version="1.0" encoding="utf-8"?>
<!-- Generator: Adobe Illustrator 16.0.0, SVG Export Plug-In . SVG Version: 6.00 Build 0)  -->
<svg xmlns="http://www.w3.org/2000/svg" xmlns:xlink="http://www.w3.org/1999/xlink" version="1.1" id="Capa_1" x="0px" y="0px" width="48px" height="48px" viewBox="0 0 48 48" enable-background="new 0 0 48 48" xml:space="preserve">
<path d="M24,6C15.27,6,6,8.45,6,13v24c0,4.55,9.27,7,18,7c8.73,0,18-2.45,18-7V13C42,8.45,32.73,6,24,6z M40,19  c0,1.57-3.45,3.6-9.38,4.51C32.689,25.34,34,28.02,34,31c0,2.41-0.85,4.62-2.27,6.35c3.408-0.6,6.408-1.619,8.27-3.02V37  c0,2.09-6.09,5-16,5S8,39.09,8,37v-2.67c1.86,1.4,4.86,2.42,8.27,3.02C14.85,35.62,14,33.41,14,31c0-2.98,1.31-5.66,3.38-7.49  C11.45,22.6,8,20.57,8,19v-2.68C11.19,18.73,17.73,20,24,20c6.27,0,12.811-1.27,16-3.68V19z M24,18c-9.91,0-16-2.91-16-5  s6.09-5,16-5s16,2.91,16,5S33.91,18,24,18z M24.391,36.546c0,0.104-0.035,0.156-0.126,0.192C23.799,36.93,23.054,37,22.281,37  C19.479,37,17,35.216,17,31.018c0-3.604,2.191-6.02,5.532-6.02c0.88,0,1.519,0.086,1.86,0.245c0.09,0.034,0.107,0.087,0.107,0.192  v1.504c0,0.142-0.072,0.142-0.125,0.123c-0.432-0.211-1.071-0.334-1.824-0.334c-2.102,0-3.503,1.559-3.503,4.234  c0,3.309,1.922,4.288,3.503,4.288c0.718,0,1.193-0.053,1.714-0.229c0.073-0.033,0.126-0.033,0.126,0.088L24.391,36.546  L24.391,36.546z M30.086,25.251v1.465c0,0.091-0.035,0.132-0.131,0.11c-0.145-0.04-0.35-0.055-0.5-0.055  c-0.641,0-0.955,0.455-0.955,1.336v0.64h1.375c0.07,0,0.125,0.055,0.125,0.125v1.501c0,0.07-0.055,0.125-0.125,0.125H28.5v6.376  c0,0.069-0.055,0.125-0.125,0.125h-1.75c-0.068,0-0.125-0.056-0.125-0.125v-6.376h-0.875c-0.068,0-0.125-0.055-0.125-0.125v-1.501  c0-0.07,0.057-0.125,0.125-0.125H26.5v-0.646c0-0.676,0.121-1.256,0.375-1.75c0.455-0.937,1.26-1.355,2.359-1.355  c0.33,0,0.557,0.02,0.74,0.089C30.064,25.126,30.086,25.161,30.086,25.251z"/>
</svg>
