<?xml version="1.0" encoding="utf-8"?>
<!-- Generator: Adobe Illustrator 16.0.0, SVG Export Plug-In . SVG Version: 6.00 Build 0)  -->
<svg xmlns="http://www.w3.org/2000/svg" xmlns:xlink="http://www.w3.org/1999/xlink" version="1.1" id="Capa_1" x="0px" y="0px" width="48px" height="48px" viewBox="0 0 48 48" enable-background="new 0 0 48 48" xml:space="preserve">
<path d="M39,6H9C6.8,6,6,7.79,6,9v30c0,2.2,1.79,3,3,3h30c2.2,0,3-1.8,3-3V9C42,6.8,40.2,6,39,6z M26,15.88  c0,0.28-0.14,0.28-0.25,0.25c-0.86-0.42-2.14-0.67-3.65-0.67c-4.2,0-7,3.12-7,8.47c0,6.61,3.84,8.57,7,8.57  c1.44,0,2.39-0.1,3.43-0.46c0.14-0.06,0.25-0.06,0.25,0.18v2.87c0,0.21-0.07,0.311-0.25,0.391C24.6,35.86,23.11,36,21.56,36  C15.96,36,11,32.43,11,24.03C11,16.83,15.38,12,22.06,12c1.77,0,3.04,0.17,3.72,0.49c0.18,0.07,0.22,0.18,0.22,0.38V15.88z   M36.17,15.44c0,0.18-0.07,0.26-0.26,0.22c-0.29-0.08-0.7-0.11-1-0.11c-1.28,0-1.91,0.91-1.91,2.67v1.28h2.75  c0.14,0,0.25,0.11,0.25,0.25v3c0,0.14-0.11,0.25-0.25,0.25H33v12.75c0,0.14-0.11,0.25-0.25,0.25h-3.5C29.11,36,29,35.89,29,35.75V23  h-1.75C27.11,23,27,22.89,27,22.75v-3c0-0.14,0.11-0.25,0.25-0.25H29v-1.29c0-1.35,0.24-2.51,0.75-3.5  c0.91-1.87,2.52-2.71,4.72-2.71c0.66,0,1.11,0.04,1.48,0.18c0.18,0.08,0.22,0.15,0.22,0.33V15.44z"/>
</svg>
