<?xml version="1.0" encoding="utf-8"?>
<!-- Generator: Adobe Illustrator 16.0.0, SVG Export Plug-In . SVG Version: 6.00 Build 0)  -->
<svg xmlns="http://www.w3.org/2000/svg" xmlns:xlink="http://www.w3.org/1999/xlink" version="1.1" id="Capa_1" x="0px" y="0px" width="48px" height="48px" viewBox="0 0 48 48" enable-background="new 0 0 48 48" xml:space="preserve">
<path d="M16.001,5v38.003c0,2.201,1.794,2.997,3,2.997h9.997c2.201,0,3-1.791,3-2.997V5c0-2.201-1.794-3-3-3h-9.997  C16.8,2,16.001,3.794,16.001,5z M18,18h12.001v12H18L18,18z M28.998,44.003h-9.985C18.551,43.991,18,43.806,18,43V32h12v11  C29.988,43.462,29.804,44.003,28.998,44.003z M28.986,4C29.448,4.012,30,4.194,30,5v11H18V5c0.012-0.462,0.196-1,1.001-1H28.986z"/>
</svg>
