<?xml version="1.0" encoding="utf-8"?>
<!-- Generator: Adobe Illustrator 16.0.0, SVG Export Plug-In . SVG Version: 6.00 Build 0)  -->
<svg xmlns="http://www.w3.org/2000/svg" xmlns:xlink="http://www.w3.org/1999/xlink" version="1.1" id="Capa_1" x="0px" y="0px" width="48px" height="48px" viewBox="0 0 48 48" enable-background="new 0 0 48 48" xml:space="preserve">
<path d="M22,28c-1.66,0-3,1.35-3,3s1.34,3,3,3h1v-6H22z M22,28c-1.66,0-3,1.35-3,3s1.34,3,3,3h1v-6H22z M22,28c-1.66,0-3,1.35-3,3  s1.34,3,3,3h1v-6H22z M22,28c-1.66,0-3,1.35-3,3s1.34,3,3,3h1v-6H22z M22,28c-1.66,0-3,1.35-3,3s1.34,3,3,3h1v-6H22z M22,28  c-1.66,0-3,1.35-3,3s1.34,3,3,3h1v-6H22z M22,28c-1.66,0-3,1.35-3,3s1.34,3,3,3h1v-6H22z M24,6C15.27,6,6,8.45,6,13v24  c0,4.55,9.27,7,18,7c8.73,0,18-2.45,18-7V13C42,8.45,32.73,6,24,6z M8,25c0,1.56,3.39,3.58,9.23,4.49C17.87,27.47,19.76,26,22,26h2  c0.55,0,1,0.45,1,1v1h3c0.55,0,1,0.45,1,1s-0.45,1-1,1h-3v2h3c0.55,0,1,0.45,1,1s-0.45,1-1,1h-3v1c0,0.55-0.45,1-1,1h-2  c-2.6,0-4.74-1.99-4.97-4.53C13.3,30.89,10,29.83,8,28.32V25z M40,37c0,2.09-6.09,5-16,5S8,39.09,8,37v-2.67  c3.19,2.4,9.73,3.68,16,3.68c6.27,0,12.81-1.279,16-3.68V37z M40,19c0,2.08-6.09,4.99-16,4.99S8,21.08,8,19v-2.68  C11.19,18.73,17.73,20,24,20c6.27,0,12.81-1.27,16-3.68V19z M24,18c-9.91,0-16-2.91-16-5s6.09-5,16-5s16,2.91,16,5S33.91,18,24,18z"/>
</svg>
