<?xml version="1.0" encoding="utf-8"?>
<!-- Generator: Adobe Illustrator 16.0.0, SVG Export Plug-In . SVG Version: 6.00 Build 0)  -->
<svg xmlns="http://www.w3.org/2000/svg" xmlns:xlink="http://www.w3.org/1999/xlink" version="1.1" id="Capa_1" x="0px" y="0px" width="48px" height="48px" viewBox="0 0 48 48" enable-background="new 0 0 48 48" xml:space="preserve">
<path d="M34.79,22c-1.12-5.21-6.45-8.01-8.79-8.01c-0.88,0-1.53,0.29-2,0.71c-0.47-0.42-1.12-0.71-2-0.71  c-2.33,0-7.67,2.8-8.79,8.01H4v4h9.22c1.12,5.21,6.45,7.99,8.78,7.99c0.88,0,1.53-0.29,2-0.711c0.47,0.421,1.12,0.711,2,0.711  c2.34,0,7.66-2.78,8.779-7.99H44v-4H34.79z M26,31.99c-0.8,0-0.98-0.551-1-1v-14c0.02-0.46,0.21-1,1-1c1.391,0,7,2.57,7,8  C33,29.42,27.391,31.99,26,31.99z"/>
</svg>
