<?xml version="1.0" encoding="utf-8"?>
<!-- Generator: Adobe Illustrator 16.0.0, SVG Export Plug-In . SVG Version: 6.00 Build 0)  -->
<svg xmlns="http://www.w3.org/2000/svg" xmlns:xlink="http://www.w3.org/1999/xlink" version="1.1" id="Capa_1" x="0px" y="0px" width="48px" height="48px" viewBox="0 0 48 48" enable-background="new 0 0 48 48" xml:space="preserve">
<path d="M24,6C15.274,6,6,8.453,6,13v24c0,4.547,9.274,7,18,7c8.726,0,18-2.453,18-7V13C42,8.453,32.726,6,24,6z M40,31.006  c0,2.088-6.087,5-16,5s-16-2.912-16-5v-2.682C11.19,30.726,17.728,32,24,32s12.81-1.274,16-3.676V31.006z M40,25  c0,2.088-6.087,5-16,5S8,27.088,8,25v-2.68c3.19,2.401,9.728,3.675,16,3.675s12.81-1.274,16-3.675V25z M40,18.997  c0,2.087-6.087,4.998-16,4.998S8,21.084,8,18.997v-2.673C11.19,18.726,17.728,20,24,20s12.81-1.274,16-3.676V18.997z M24,8  c9.913,0,16,2.912,16,5s-6.087,5-16,5S8,15.088,8,13S14.087,8,24,8z M24,42c-9.913,0-16-2.912-16-5v-2.67  c3.19,2.401,9.728,3.676,16,3.676s12.81-1.274,16-3.676V37C40,39.088,33.913,42,24,42z"/>
</svg>
