<?xml version="1.0" encoding="utf-8"?>
<!-- Generator: Adobe Illustrator 16.0.0, SVG Export Plug-In . SVG Version: 6.00 Build 0)  -->
<svg xmlns="http://www.w3.org/2000/svg" xmlns:xlink="http://www.w3.org/1999/xlink" version="1.1" id="Capa_1" x="0px" y="0px" width="48px" height="48px" viewBox="0 0 48 48" enable-background="new 0 0 48 48" xml:space="preserve">
<path d="M24,6C15.27,6,6,8.45,6,13v24c0,4.55,9.27,7,18,7c8.73,0,18-2.45,18-7V13C42,8.45,32.73,6,24,6z M8,25c0,2.09,6.09,5,16,5  c0.199,0,0.381-0.01,0.576-0.012l-2.282-2.282c-0.391-0.391-0.391-1.023,0-1.414s1.023-0.391,1.414,0l4.001,4.001  c0.391,0.391,0.391,1.023,0,1.414l-4.001,4.001c-0.195,0.195-0.451,0.293-0.707,0.293s-0.512-0.098-0.707-0.293  c-0.391-0.391-0.391-1.023,0-1.414l2.306-2.306C24.4,31.99,24.201,32,24,32c-6.27,0-12.81-1.27-16-3.68V25z M40,37  c0,2.09-6.09,5-16,5S8,39.09,8,37v-2.67c3.19,2.4,9.73,3.68,16,3.68c6.27,0,12.81-1.279,16-3.68V37z M40,19  c0,2.08-6.09,4.99-16,4.99S8,21.08,8,19v-2.68C11.19,18.73,17.73,20,24,20c6.27,0,12.81-1.27,16-3.68V19z M24,18  c-9.91,0-16-2.91-16-5s6.09-5,16-5s16,2.91,16,5S33.91,18,24,18z"/>
</svg>
