<?xml version="1.0" encoding="utf-8"?>
<!-- Generator: Adobe Illustrator 16.0.0, SVG Export Plug-In . SVG Version: 6.00 Build 0)  -->
<svg xmlns="http://www.w3.org/2000/svg" xmlns:xlink="http://www.w3.org/1999/xlink" version="1.1" id="Capa_1" x="0px" y="0px" width="48px" height="48px" viewBox="0 0 48 48" enable-background="new 0 0 48 48" xml:space="preserve">
<path d="M24,6C15.27,6,6,8.45,6,13v24c0,4.55,9.27,7,18,7c8.73,0,18-2.45,18-7V13C42,8.45,32.73,6,24,6z M24,8c9.91,0,16,2.91,16,5  s-6.09,5-16,5S8,15.09,8,13S14.09,8,24,8z M8,16.32C11.19,18.73,17.73,20,24,20c6.27,0,12.81-1.27,16-3.68V19  c0,2.08-6.09,4.99-16,4.99S8,21.08,8,19V16.32z M25,26v10.01h-2V26H25z M8,25c0,1.87,4.87,4.39,13,4.91v1.99  c-5.26-0.341-10.32-1.561-13-3.58V25z M40,37c0,2.09-6.09,5-16,5S8,39.09,8,37v-2.67c3.19,2.4,9.73,3.68,16,3.68  c6.27,0,12.81-1.279,16-3.68V37z M39.936,28.104l-1.986,5.249c-0.151,0.4-0.532,0.646-0.936,0.646c-0.118,0-0.237-0.021-0.354-0.064  c-0.517-0.195-0.777-0.772-0.582-1.289l1.056-2.79C34.378,30.961,30.747,31.657,27,31.9v-1.99c4.28-0.273,7.644-1.104,9.882-2.101  l-2.829-1.414c-0.494-0.247-0.694-0.848-0.447-1.342c0.246-0.494,0.847-0.694,1.342-0.447l4.5,2.249  C39.906,27.085,40.117,27.624,39.936,28.104z"/>
</svg>
