<?xml version="1.0" encoding="utf-8"?>
<!-- Generator: Adobe Illustrator 16.0.0, SVG Export Plug-In . SVG Version: 6.00 Build 0)  -->
<svg xmlns="http://www.w3.org/2000/svg" xmlns:xlink="http://www.w3.org/1999/xlink" version="1.1" id="Capa_1" x="0px" y="0px" width="48px" height="48px" viewBox="0 0 48 48" enable-background="new 0 0 48 48" xml:space="preserve">
<path d="M36,34.029V31c0-0.553-0.447-1-1-1H25v-2.358l10.414-4.731C35.771,22.748,36,22.392,36,22s-0.229-0.748-0.586-0.91  L25,16.356V14h7c0.71,0,1.159-0.301,1.411-0.553c0.561-0.562,0.586-1.307,0.586-1.447V6.003c0-0.144-0.025-0.888-0.586-1.45  C33.159,4.301,32.71,4,32,4H16c-1.299,0-2,1.03-2,2l0.001,5.999c0,0.144,0.027,0.888,0.587,1.449C14.841,13.699,15.29,14,16,14h7  v2.356l-10.414,4.733C12.229,21.251,12,21.607,12,22s0.229,0.748,0.586,0.911L23,27.642V30H13c-0.552,0-1,0.447-1,1v3.029  C7.375,34.289,4,36.338,4,39c0,2.851,3.869,5,9,5s9-2.149,9-5c0-2.662-3.375-4.711-8-4.971V32h20v2.029c-4.625,0.26-8,2.309-8,4.971  c0,2.851,3.869,5,9,5s9-2.149,9-5C44,36.338,40.625,34.289,36,34.029z M16,12V6h16l0.055,5.996c0,0-0.017,0.004-0.055,0.004H16z   M24,18.099L32.583,22L24,25.899L15.417,22L24,18.099z M20,39c0,1.416-2.994,3-7,3s-7-1.584-7-3s2.994-3,7-3S20,37.584,20,39z   M35,42c-4.007,0-7-1.584-7-3s2.993-3,7-3s7,1.584,7,3S39.007,42,35,42z"/>
</svg>
