<?xml version="1.0" encoding="utf-8"?>
<!-- Generator: Adobe Illustrator 16.0.0, SVG Export Plug-In . SVG Version: 6.00 Build 0)  -->
<svg xmlns="http://www.w3.org/2000/svg" xmlns:xlink="http://www.w3.org/1999/xlink" version="1.1" id="Capa_1" x="0px" y="0px" width="48px" height="48px" viewBox="0 0 48 48" enable-background="new 0 0 48 48" xml:space="preserve">
<path d="M44,39c0,2.85-3.87,5-9,5s-9-2.15-9-5c0-2.66,3.38-4.71,8-4.971V32H14v2.029c4.62,0.261,8,2.311,8,4.971c0,2.85-3.87,5-9,5  s-9-2.15-9-5c0-2.66,3.38-4.71,8-4.971V31c0-0.55,0.45-1,1-1h10v-2.359l-10.41-4.73C12.23,22.75,12,22.39,12,22s0.23-0.75,0.59-0.91  L23,16.36V14h-7c-0.71,0-1.16-0.3-1.41-0.55C14.03,12.89,14,12.14,14,12V6c0-0.97,0.7-2,2-2h16c0.71,0,1.16,0.3,1.41,0.55  C33.971,5.11,34,5.86,34,6v6c0,0.14-0.029,0.88-0.59,1.45C33.16,13.7,32.71,14,32,14h-7v2.36l10.41,4.73C35.77,21.25,36,21.61,36,22  s-0.23,0.75-0.59,0.91L25,27.641V30h10c0.55,0,1,0.45,1,1v3.029C40.62,34.29,44,36.34,44,39z"/>
</svg>
