<?xml version="1.0" encoding="utf-8"?>
<!-- Generator: Adobe Illustrator 16.0.0, SVG Export Plug-In . SVG Version: 6.00 Build 0)  -->
<svg xmlns="http://www.w3.org/2000/svg" xmlns:xlink="http://www.w3.org/1999/xlink" version="1.1" id="Capa_1" x="0px" y="0px" width="48px" height="48px" viewBox="0 0 48 48" enable-background="new 0 0 48 48" xml:space="preserve">
<path d="M24,6C15.27,6,6,8.45,6,13v24c0,4.55,9.27,7,18,7c8.73,0,18-2.45,18-7V13C42,8.45,32.73,6,24,6z M40,19  c0,1.5-3.15,3.42-8.61,4.38l1.69,1.7l0.439,0.439c0.87,0.881,1.37,1.91,1.471,3c0.06,0.631-0.021,1.28-0.23,1.921  c-0.029,0.079-0.06,0.159-0.1,0.239c-0.24,0.62-0.59,1.17-1.05,1.681l-0.091,0.1l-3.1,3.1l-2.27,2.261  C32.99,37.39,37.51,36.2,40,34.33V37c0,2.09-6.09,5-16,5S8,39.09,8,37v-2.67c1.65,1.24,4.19,2.18,7.13,2.8l-0.65-0.649  c-0.58-0.58-0.97-1.211-1.2-1.86c-0.49-1.33-0.3-2.73,0.32-3.86c0.23-0.45,0.53-0.85,0.88-1.2l0.5-0.5l3.4-3.399l1.82-1.82  C12.56,23.22,8,20.8,8,19v-2.68C11.19,18.73,17.73,20,24,20c6.27,0,12.81-1.27,16-3.68V19z M24,18c-9.91,0-16-2.91-16-5s6.09-5,16-5  s16,2.91,16,5S33.91,18,24,18z M32.11,26.93l-4.04-4.04C27.98,22.8,27.15,22,25.97,22c-0.51,0-1.27,0.16-2,0.89l-8.08,8.08  c-0.82,0.82-1.5,2.601,0,4.101l4.04,4.04c0.09,0.09,0.92,0.89,2.1,0.89c0.51,0,1.27-0.15,2-0.89l8.081-8.07  c0.08-0.09,0.51-0.54,0.75-1.23C33.2,28.78,32.93,27.76,32.11,26.93z M30.69,29.62l-3.33,3.33L22.05,27.64l3.33-3.33  C25.68,24,25.9,24,25.97,24c0.3,0,0.601,0.23,0.69,0.31l4.03,4.04C31.11,28.76,31.1,29.19,30.69,29.62z"/>
</svg>
