<?xml version="1.0" encoding="utf-8"?>
<!-- Generator: Adobe Illustrator 16.0.0, SVG Export Plug-In . SVG Version: 6.00 Build 0)  -->
<svg xmlns="http://www.w3.org/2000/svg" xmlns:xlink="http://www.w3.org/1999/xlink" version="1.1" id="Capa_1" x="0px" y="0px" width="48px" height="48px" viewBox="0 0 48 48" enable-background="new 0 0 48 48" xml:space="preserve">
<path d="M6,6v36h36V6H6z M36.586,10H11.414l-2-2h29.172L36.586,10z M36,12v24H12V12H36z M10,11.414v25.172l-2,2V9.414L10,11.414z   M11.414,38h25.172l2,2H9.414L11.414,38z M38,36.586V11.414l2-2v29.172L38,36.586z M16.293,25.708c-0.391-0.391-0.391-1.024,0-1.414  c0.391-0.391,1.023-0.391,1.414,0l3.226,3.227l9.299-11.161c0.354-0.423,0.984-0.482,1.408-0.128  c0.425,0.354,0.482,0.984,0.129,1.408l-10,12.001c-0.18,0.217-0.442,0.347-0.723,0.359c-0.015,0.001-0.03,0.001-0.045,0.001  c-0.265,0-0.519-0.104-0.707-0.293L16.293,25.708z"/>
</svg>
