<?xml version="1.0" encoding="utf-8"?>
<!-- Generator: Adobe Illustrator 16.0.0, SVG Export Plug-In . SVG Version: 6.00 Build 0)  -->
<svg xmlns="http://www.w3.org/2000/svg" xmlns:xlink="http://www.w3.org/1999/xlink" version="1.1" id="Capa_1" x="0px" y="0px" width="48px" height="48px" viewBox="0 0 48 48" enable-background="new 0 0 48 48" xml:space="preserve">
<path d="M6,6v36h36V6H6z M36.586,10H11.414l-2-2h29.172L36.586,10z M36,12v24H12V12H36z M10,11.414v25.172l-2,2V9.414L10,11.414z   M11.414,38h25.172l2,2H9.414L11.414,38z M38,36.586V11.414l2-2v29.172L38,36.586z M17,27c-0.552,0-1,0.447-1,1s0.448,1,1,1h2v2  c0,0.553,0.448,1,1,1s1-0.447,1-1v-2h6v2c0,0.553,0.447,1,1,1s1-0.447,1-1v-2h2c0.553,0,1-0.447,1-1s-0.447-1-1-1h-2v-6h2  c0.553,0,1-0.448,1-1s-0.447-1-1-1h-2v-2c0-0.552-0.447-1-1-1s-1,0.448-1,1v2h-6v-2c0-0.552-0.448-1-1-1s-1,0.448-1,1v2h-2  c-0.552,0-1,0.448-1,1s0.448,1,1,1h2v6H17z M21,21h6v6h-6V21z"/>
</svg>
