<?xml version="1.0" encoding="utf-8"?>
<!-- Generator: Adobe Illustrator 16.0.0, SVG Export Plug-In . SVG Version: 6.00 Build 0)  -->
<svg xmlns="http://www.w3.org/2000/svg" xmlns:xlink="http://www.w3.org/1999/xlink" version="1.1" id="Capa_1" x="0px" y="0px" width="48px" height="48px" viewBox="0 0 48 48" enable-background="new 0 0 48 48" xml:space="preserve">
<path d="M6,6v36h36V6H6z M36.586,10H11.414l-2-2h29.172L36.586,10z M36,12v24H12V12H36z M10,11.414v25.172l-2,2V9.414L10,11.414z   M11.414,38h25.172l2,2H9.414L11.414,38z M38,36.586V11.414l2-2v29.172L38,36.586z M14,24c0-0.552,0.448-1,1-1h1.999  c0.552,0,1,0.448,1,1s-0.448,1-1,1H15C14.448,25,14,24.553,14,24z M22,24c0-0.552,0.448-1,1-1h1.999c0.552,0,1,0.448,1,1  s-0.447,1-1,1H23C22.448,25,22,24.553,22,24z M30,24c0-0.552,0.447-1,1-1h1.998c0.553,0,1,0.448,1,1s-0.447,1-1,1H31  C30.447,25,30,24.553,30,24z M18.051,26.684l1.999-5.999c0.175-0.524,0.74-0.81,1.265-0.633c0.524,0.175,0.808,0.741,0.633,1.265  l-1.999,6C19.809,27.735,19.419,28,19,28c-0.104,0-0.211-0.017-0.316-0.052C18.16,27.774,17.876,27.208,18.051,26.684z   M26.051,26.684l1.998-5.999c0.174-0.524,0.737-0.81,1.266-0.633c0.523,0.174,0.807,0.741,0.633,1.265l-1.998,6  C27.81,27.735,27.419,28,27,28c-0.104,0-0.211-0.017-0.316-0.051C26.16,27.774,25.877,27.208,26.051,26.684z"/>
</svg>
