<?xml version="1.0" encoding="utf-8"?>
<!-- Generator: Adobe Illustrator 16.0.0, SVG Export Plug-In . SVG Version: 6.00 Build 0)  -->
<svg xmlns="http://www.w3.org/2000/svg" xmlns:xlink="http://www.w3.org/1999/xlink" version="1.1" id="Capa_1" x="0px" y="0px" width="48px" height="48px" viewBox="0 0 48 48" enable-background="new 0 0 48 48" xml:space="preserve">
<path d="M6,6v36h36V6H6z M36.586,10H11.414l-2-2h29.172L36.586,10z M36,12v15.33c-0.2-0.21-0.4-0.45-0.61-0.68  C34.38,25.47,33.11,24,31,24c-2,0-3,1.33-3.8,2.4C26.43,27.42,25.95,28,25,28c-0.96,0-1.79-1.24-2.67-2.55  C21.26,23.83,20.04,22,18,22c-1.91,0-3.13,1.22-4.21,2.29c-0.61,0.61-1.17,1.16-1.79,1.47V12H36z M8,9.414l2,2V36.59l-2,2V9.414z   M9.41,40l2-2h25.18l2,2H9.41z M38,36.59V11.414l2-2V38.59L38,36.59z M26,18c0-2.21,1.79-4,4-4s4,1.79,4,4s-1.79,4-4,4  S26,20.21,26,18z"/>
</svg>
