<?xml version="1.0" encoding="utf-8"?>
<!-- Generator: Adobe Illustrator 16.0.0, SVG Export Plug-In . SVG Version: 6.00 Build 0)  -->
<svg xmlns="http://www.w3.org/2000/svg" xmlns:xlink="http://www.w3.org/1999/xlink" version="1.1" id="Capa_1" x="0px" y="0px" width="48px" height="48px" viewBox="0 0 48 48" enable-background="new 0 0 48 48" xml:space="preserve">
<path d="M31,4c-6.62,0-12,5.38-12,12c0,1.78,0.39,3.46,1.08,4.98C8,35.74,8,35.89,8,37.5V41c0,1.21,0.8,3,3,3h2c1.21,0,3-0.8,3-3v-3  h4c0.97,0,2-0.7,2-2v-4h4c0.97,0,2-0.7,2-2v-2.38c0.96,0.25,1.97,0.38,3,0.38c6.62,0,12-5.38,12-12S37.62,4,31,4z M31,26  c-0.853,0-1.692-0.106-2.496-0.315C28.338,25.642,28.168,25.62,28,25.62c-0.438,0-0.869,0.144-1.223,0.418  C26.287,26.416,26,27.001,26,27.62V30h-4c-1.104,0-2,0.896-2,2v4h-4c-1.104,0-2,0.896-2,2v3c0,0.902-0.699,1-1,1h-2  c-0.902,0-1-0.699-1-1v-3.5c0-0.888,0.861-2.098,11.628-15.253c0.482-0.589,0.588-1.4,0.273-2.093C21.303,18.836,21,17.438,21,16  h13.59l-2.293,2.293c-0.391,0.391-0.391,1.023,0,1.414C32.492,19.902,32.748,20,33.004,20s0.512-0.098,0.707-0.293l4-4  c0.391-0.391,0.391-1.023,0-1.414l-4-4c-0.391-0.391-1.023-0.391-1.414,0s-0.391,1.023,0,1.414L34.59,14H21.202  C22.131,9.441,26.171,6,31,6c5.514,0,10,4.486,10,10S36.514,26,31,26z"/>
</svg>
