<?xml version="1.0" encoding="utf-8"?>
<!-- Generator: Adobe Illustrator 16.0.0, SVG Export Plug-In . SVG Version: 6.00 Build 0)  -->
<svg xmlns="http://www.w3.org/2000/svg" xmlns:xlink="http://www.w3.org/1999/xlink" version="1.1" id="Capa_1" x="0px" y="0px" width="48px" height="48px" viewBox="0 0 48 48" enable-background="new 0 0 48 48" xml:space="preserve">
<path d="M42.999,12H4.996C2.795,12,2,13.794,2,15l0,10c0,2.201,1.79,2.995,2.996,2.995h38.003c2.201,0,3-1.794,3-3V15  C45.999,12.799,44.205,12,42.999,12z M30.001,14L30,26H18V14H30.001z M4,25l-0.004-9.988C4.008,14.55,4.191,14,4.996,14H16v12H5.008  C4.546,25.988,4,25.805,4,25z M44.001,24.984C43.989,25.445,43.805,26,42.999,26L32,26.001V14h10.987  c0.462,0.012,1.015,0.195,1.015,1L44.001,24.984z M29.769,33.641l-5,6c-0.19,0.23-0.47,0.36-0.77,0.36s-0.58-0.13-0.77-0.36l-5-6  c-0.25-0.3-0.3-0.71-0.14-1.06c0.17-0.36,0.52-0.58,0.91-0.58h10c0.39,0,0.74,0.22,0.91,0.58  C30.069,32.931,30.019,33.341,29.769,33.641z"/>
</svg>
