<?xml version="1.0" encoding="utf-8"?>
<!-- Generator: Adobe Illustrator 16.0.0, SVG Export Plug-In . SVG Version: 6.00 Build 0)  -->
<svg xmlns="http://www.w3.org/2000/svg" xmlns:xlink="http://www.w3.org/1999/xlink" version="1.1" id="Capa_1" x="0px" y="0px" width="48px" height="48px" viewBox="0 0 48 48" enable-background="new 0 0 48 48" xml:space="preserve">
<path d="M10,18h12v12H10V18z M21,44H11c-0.461-0.012-1-0.189-1-0.995V32h12v11C21.988,43.462,21.805,44,21,44z M21,4  c0.461,0.012,1,0.193,1,0.999V16H10V5.014C10.012,4.552,10.195,4,11,4H21z M39.767,23.64l-4.999,6c-0.19,0.23-0.471,0.36-0.771,0.36  s-0.58-0.13-0.77-0.36l-5-6c-0.25-0.3-0.301-0.71-0.141-1.06c0.17-0.36,0.52-0.58,0.91-0.58h10c0.39,0,0.74,0.22,0.91,0.58  C40.067,22.93,40.017,23.34,39.767,23.64z"/>
</svg>
