<?xml version="1.0" encoding="utf-8"?>
<!-- Generator: Adobe Illustrator 16.0.0, SVG Export Plug-In . SVG Version: 6.00 Build 0)  -->
<svg xmlns="http://www.w3.org/2000/svg" xmlns:xlink="http://www.w3.org/1999/xlink" version="1.1" id="Capa_1" x="0px" y="0px" width="48px" height="48px" viewBox="0 0 48 48" enable-background="new 0 0 48 48" xml:space="preserve">
<path d="M40,5.999H8c-2.201,0-3,1.794-3,3v19.993c0,2.201,1.794,3,3,3h32c2.201,0,3-1.794,3-3V8.999C43,6.798,41.206,5.999,40,5.999  z M17,29.992H8.012C7.55,29.98,7,29.798,7,28.992v-4.997h10V29.992z M17,21.996H7v-5.998h10V21.996z M17,13.999H7v-5  c0-0.301,0.098-1,1-1h9V13.999z M29,29.992H19v-5.997h10V29.992z M29,21.996H19v-5.998h10V21.996z M29,13.999H19v-6h10V13.999z   M41,28.98c-0.012,0.462-0.194,1.012-1,1.012h-9v-5.997h10V28.98z M41,21.996H31v-5.998h10V21.996z M41,13.999H31v-6h8.988  C40.45,8.01,41,8.193,41,8.999V13.999z M29.757,37.635l-4.999,6.001c-0.19,0.23-0.471,0.36-0.77,0.36c-0.3,0-0.58-0.13-0.77-0.36  l-4.998-6.001c-0.25-0.3-0.3-0.711-0.141-1.061c0.17-0.36,0.52-0.58,0.91-0.58h9.997c0.39,0,0.74,0.22,0.91,0.58  C30.058,36.924,30.007,37.335,29.757,37.635z"/>
</svg>
