<?xml version="1.0" encoding="utf-8"?>
<!-- Generator: Adobe Illustrator 16.0.0, SVG Export Plug-In . SVG Version: 6.00 Build 0)  -->
<svg xmlns="http://www.w3.org/2000/svg" xmlns:xlink="http://www.w3.org/1999/xlink" version="1.1" id="Capa_1" x="0px" y="0px" width="48px" height="48px" viewBox="0 0 48 48" enable-background="new 0 0 48 48" xml:space="preserve">
<path d="M29.9,36.57C29.73,36.21,29.39,36,29,36H19c-0.39,0-0.75,0.21-0.92,0.57c-0.16,0.35-0.11,0.76,0.14,1.06l5,6.01  c0.19,0.23,0.47,0.36,0.77,0.36c0.3,0,0.58-0.13,0.77-0.36l5-6.01C30.01,37.33,30.06,36.92,29.9,36.57z M11,6v26h26V6H11z M33.59,8  l-2,2H16.41l-2-2H33.59z M13,9.41l2,2v15.18l-2,2V9.41z M14.41,30l2-2h15.18l2,2H14.41z M35,28.59l-2-2V11.41l2-2V28.59z"/>
</svg>
