<?xml version="1.0" encoding="utf-8"?>
<!-- Generator: Adobe Illustrator 16.0.0, SVG Export Plug-In . SVG Version: 6.00 Build 0)  -->
<svg xmlns="http://www.w3.org/2000/svg" xmlns:xlink="http://www.w3.org/1999/xlink" version="1.1" id="Capa_1" x="0px" y="0px" width="48px" height="48px" viewBox="0 0 48 48" enable-background="new 0 0 48 48" xml:space="preserve">
<path d="M8,5.002v38.003C8,45.206,9.794,46,11,46h9.996c2.2,0,2.999-1.789,2.999-2.995V5.002c0-2.201-1.793-3-2.999-3H11  C8.799,2.002,8,3.796,8,5.002z M10,18h12v12l-12,0.003V18z M20.996,44.005h-9.984c-0.461-0.012-1.012-0.194-1.012-1V32h12l0,10.993  C21.989,43.455,21.801,44.005,20.996,44.005z M20.984,3.999C21.445,4.011,22,4.193,22,4.999V16l-12,0.003V5.014  c0.012-0.462,0.195-1.015,1-1.015H20.984z M39.767,23.64l-4.999,6c-0.19,0.23-0.471,0.36-0.771,0.36s-0.58-0.13-0.77-0.36l-5-6  c-0.25-0.3-0.301-0.71-0.141-1.06c0.17-0.36,0.52-0.58,0.91-0.58h10c0.39,0,0.74,0.22,0.91,0.58  C40.067,22.93,40.017,23.34,39.767,23.64z"/>
</svg>
