<?xml version="1.0" encoding="utf-8"?>
<!-- Generator: Adobe Illustrator 16.0.0, SVG Export Plug-In . SVG Version: 6.00 Build 0)  -->
<svg xmlns="http://www.w3.org/2000/svg" xmlns:xlink="http://www.w3.org/1999/xlink" version="1.1" id="Capa_1" x="0px" y="0px" width="48px" height="48px" viewBox="0 0 48 48" enable-background="new 0 0 48 48" xml:space="preserve">
<path d="M29.897,36.574c0.16,0.35,0.109,0.761-0.141,1.061l-4.999,6.001c-0.19,0.23-0.471,0.36-0.77,0.36  c-0.3,0-0.58-0.13-0.77-0.36l-4.998-6.001c-0.25-0.3-0.3-0.711-0.141-1.061C18.25,36.214,18.609,36,19,36h10  C29.39,36,29.728,36.214,29.897,36.574z M37,6v26H11V6H37z M33.586,8H14.414l2,2h15.172L33.586,8z M17,12v14h14V12H17z M13,9.414  v19.172l2-2V11.414L13,9.414z M14.414,30h19.172l-2-2H16.414L14.414,30z M35,28.586V9.414l-2,2v15.172L35,28.586z"/>
</svg>
