<?xml version="1.0" encoding="utf-8"?>
<!-- Generator: Adobe Illustrator 16.0.0, SVG Export Plug-In . SVG Version: 6.00 Build 0)  -->
<svg xmlns="http://www.w3.org/2000/svg" xmlns:xlink="http://www.w3.org/1999/xlink" version="1.1" id="Capa_1" x="0px" y="0px" width="48px" height="48px" viewBox="0 0 48 48" enable-background="new 0 0 48 48" xml:space="preserve">
<path d="M29.91,32.58C29.74,32.22,29.39,32,29,32H19c-0.39,0-0.74,0.22-0.91,0.58c-0.16,0.35-0.11,0.76,0.14,1.06l5,6  C23.42,39.87,23.7,40,24,40s0.58-0.13,0.77-0.36l5-6C30.02,33.34,30.07,32.93,29.91,32.58z M44,15.01v9.98  C43.99,25.45,43.8,26,43,26H32V14l10.99,0.01C43.45,14.02,44,14.2,44,15.01z M30,14v11.99H18V14H30z M16,14v12H5  c-0.46-0.01-1-0.19-1-1l0-10c0.01-0.46,0.18-0.99,0.99-0.99L16,14z"/>
</svg>
