<?xml version="1.0" encoding="utf-8"?>
<!-- Generator: Adobe Illustrator 16.0.0, SVG Export Plug-In . SVG Version: 6.00 Build 0)  -->
<svg xmlns="http://www.w3.org/2000/svg" xmlns:xlink="http://www.w3.org/1999/xlink" version="1.1" id="Capa_1" x="0px" y="0px" width="48px" height="48px" viewBox="0 0 48 48" enable-background="new 0 0 48 48" xml:space="preserve">
<path d="M31,29.99h9c0.81,0,0.99-0.55,1-1.01V24H31V29.99z M31,22h10v-6H31V22z M39.99,8H31v6h10V9C41,8.19,40.45,8.01,39.99,8z   M19,29.99h10V24H19V29.99z M19,22h10v-6H19V22z M19,14h10V8H19V14z M7,28.99c0,0.81,0.55,0.99,1.01,1H17V24H7V28.99z M7,22h10v-6H7  V22z M7,24v4.99c0,0.81,0.55,0.99,1.01,1H17V24H7z M7,16v6h10v-6H7z M19,24v5.99h10V24H19z M19,16v6h10v-6H19z M19,8v6h10V8H19z   M31,24v5.99h9c0.81,0,0.99-0.55,1-1.01V24H31z M31,16v6h10v-6H31z M39.99,8H31v6h10V9C41,8.19,40.45,8.01,39.99,8z M29.9,36.57  C29.73,36.21,29.39,36,29,36H19c-0.39,0-0.75,0.21-0.92,0.57c-0.16,0.35-0.11,0.76,0.14,1.06l5,6.01c0.19,0.23,0.47,0.36,0.77,0.36  c0.3,0,0.58-0.13,0.77-0.36l5-6.01C30.01,37.33,30.06,36.92,29.9,36.57z M17,8v6H7V9c0-0.3,0.1-1,1-1H17z"/>
</svg>
