<?xml version="1.0" encoding="utf-8"?>
<!-- Generator: Adobe Illustrator 16.0.0, SVG Export Plug-In . SVG Version: 6.00 Build 0)  -->
<svg xmlns="http://www.w3.org/2000/svg" xmlns:xlink="http://www.w3.org/1999/xlink" version="1.1" id="Capa_1" x="0px" y="0px" width="48px" height="48px" viewBox="0 0 48 48" enable-background="new 0 0 48 48" xml:space="preserve">
<path d="M42.99,16H32v16h11c0.81,0,0.99-0.55,1-1.01V17C44,16.19,43.45,16.01,42.99,16z M41.64,28.23  c0.42,0.35,0.48,0.989,0.13,1.409C41.57,29.88,41.29,30,41,30c-0.23,0-0.45-0.08-0.64-0.23l-6-5C34.13,24.58,34,24.3,34,24  s0.13-0.58,0.36-0.77l6-5c0.43-0.35,1.05-0.29,1.409,0.13c0.351,0.42,0.29,1.05-0.13,1.41L36.56,24L41.64,28.23z M30,16v16H18V16H30  z M5,16c-0.81,0-0.99,0.55-1,1.01V31c0,0.81,0.55,0.99,1.01,1H16V16H5z M13.62,24.77l-6,5C7.44,29.92,7.21,30,6.98,30  c-0.28,0-0.57-0.12-0.77-0.36c-0.35-0.42-0.29-1.05,0.13-1.409L11.42,24l-5.08-4.23c-0.42-0.36-0.48-0.99-0.13-1.41  c0.36-0.42,0.99-0.48,1.41-0.13l6,5c0.23,0.19,0.36,0.47,0.36,0.77S13.85,24.58,13.62,24.77z"/>
</svg>
