<?xml version="1.0" encoding="utf-8"?>
<!-- Generator: Adobe Illustrator 16.0.0, SVG Export Plug-In . SVG Version: 6.00 Build 0)  -->
<svg xmlns="http://www.w3.org/2000/svg" xmlns:xlink="http://www.w3.org/1999/xlink" version="1.1" id="Capa_1" x="0px" y="0px" width="48px" height="48px" viewBox="0 0 48 48" enable-background="new 0 0 48 48" xml:space="preserve">
<path d="M29,2H19c-2.2,0-3,1.799-3,2.999v38.003c0,2.2,1.79,3,3,3h10.002c2.201,0,2.991-1.79,2.991-3V4.999  C31.993,2.799,30.201,2,29,2z M30.003,42.992c-0.011,0.46-0.201,1.01-1.001,1.01H19.01c-0.46-0.01-1.01-0.19-1.01-1V32h12.003  V42.992z M30.003,30H18V18h12.003V30z M30.003,16H18V5.009c0.01-0.46,0.19-1.01,1-1.01h9.981c0.471,0.01,1.021,0.19,1.021,1V16z   M40.36,29.768l-6-4.998C34.13,24.579,34,24.299,34,23.999c0-0.3,0.13-0.58,0.36-0.77l6-5c0.3-0.25,0.71-0.301,1.06-0.141  c0.36,0.17,0.58,0.52,0.58,0.91v10c0,0.391-0.22,0.74-0.58,0.91C41.07,30.068,40.66,30.018,40.36,29.768z M7.643,18.229l5.997,4.998  c0.23,0.191,0.36,0.471,0.36,0.771c0,0.3-0.13,0.58-0.36,0.77l-5.997,5c-0.3,0.25-0.709,0.301-1.059,0.141  c-0.36-0.17-0.58-0.52-0.58-0.91v-10c0-0.391,0.22-0.74,0.58-0.91C6.933,17.928,7.343,17.979,7.643,18.229z"/>
</svg>
