<?xml version="1.0" encoding="utf-8"?>
<!-- Generator: Adobe Illustrator 16.0.0, SVG Export Plug-In . SVG Version: 6.00 Build 0)  -->
<svg xmlns="http://www.w3.org/2000/svg" xmlns:xlink="http://www.w3.org/1999/xlink" version="1.1" id="Capa_1" x="0px" y="0px" width="48px" height="48px" viewBox="0 0 48 48" enable-background="new 0 0 48 48" xml:space="preserve">
<path d="M41.42,18.09c-0.35-0.16-0.76-0.11-1.06,0.14l-6,5C34.13,23.42,34,23.7,34,24s0.13,0.58,0.36,0.77l6,5  c0.3,0.25,0.71,0.301,1.06,0.141C41.78,29.74,42,29.39,42,29V19C42,18.61,41.78,18.26,41.42,18.09z M13.64,23.23l-6-5  c-0.3-0.25-0.71-0.3-1.06-0.14C6.22,18.26,6,18.61,6,19v10c0,0.39,0.22,0.74,0.58,0.91c0.35,0.16,0.76,0.109,1.06-0.141l6-5  C13.87,24.58,14,24.3,14,24S13.87,23.42,13.64,23.23z M30,32v10.992c-0.01,0.46-0.2,1.01-1,1.01h-9.99c-0.46-0.01-1.01-0.19-1.01-1  V32H30z M30,4.999V16H18V5.009c0.01-0.46,0.19-1.01,1-1.01h9.98C29.45,4.009,30,4.189,30,4.999z M30,18v12H18V18H30z"/>
</svg>
