<?xml version="1.0" encoding="utf-8"?>
<!-- Generator: Adobe Illustrator 16.0.0, SVG Export Plug-In . SVG Version: 6.00 Build 0)  -->
<svg xmlns="http://www.w3.org/2000/svg" xmlns:xlink="http://www.w3.org/1999/xlink" version="1.1" id="Capa_1" x="0px" y="0px" width="48px" height="48px" viewBox="0 0 48 48" enable-background="new 0 0 48 48" xml:space="preserve">
<path d="M40,18h-9v-7c0-2.2-1.79-3-3-3H8c-2.2,0-3,1.79-3,3v16c0,2.2,1.79,3,3,3h9v7c0,2.2,1.79,3,3,3h20c2.2,0,3-1.79,3-3V21  C43,18.8,41.21,18,40,18z M17,28H8.01C7.55,27.99,7,27.81,7,27v-7h10V28z M17,18H7v-7c0-0.3,0.1-1,1-1h9V18z M29,38h-8.99  C19.55,37.99,19,37.81,19,37v-7h10V38z M29,18H19v-8h8.99c0.46,0.01,1.01,0.19,1.01,1V18z M41,36.99C40.99,37.45,40.81,38,40,38h-9  v-8h10V36.99z M41,28H31v-8h8.99c0.46,0.01,1.01,0.19,1.01,1V28z"/>
</svg>
