<?xml version="1.0" encoding="utf-8"?>
<!-- Generator: Adobe Illustrator 16.0.0, SVG Export Plug-In . SVG Version: 6.00 Build 0)  -->
<svg xmlns="http://www.w3.org/2000/svg" xmlns:xlink="http://www.w3.org/1999/xlink" version="1.1" id="Capa_1" x="0px" y="0px" width="48px" height="48px" viewBox="0 0 48 48" enable-background="new 0 0 48 48" xml:space="preserve">
<path d="M40,38c0.811,0,0.99-0.55,1-1.01V30H31v8H40z M41,28v-7c0-0.81-0.55-0.99-1.01-1H31v-2h-2v-7c0-0.81-0.55-0.99-1.01-1H19v8  h-2v2H7v7c0,0.811,0.55,0.99,1.01,1H17v2h2v7c0,0.811,0.55,0.99,1.01,1H29v-8h2v-2H41z M29,28H19v-8h10V28z M8,10c-0.9,0-1,0.7-1,1  v7h10v-8H8z"/>
</svg>
