<?xml version="1.0" encoding="utf-8"?>
<!-- Generator: Adobe Illustrator 16.0.0, SVG Export Plug-In . SVG Version: 6.00 Build 0)  -->
<svg xmlns="http://www.w3.org/2000/svg" xmlns:xlink="http://www.w3.org/1999/xlink" version="1.1" id="Capa_1" x="0px" y="0px" width="48px" height="48px" viewBox="0 0 48 48" enable-background="new 0 0 48 48" xml:space="preserve">
<path d="M43,14H4.997C2.796,14,2,15.794,2,17v14c0,2.201,1.791,3,2.997,3H43c2.201,0,3-1.794,3-3V17C46,14.799,44.206,14,43,14z   M30,16v16H17.999V16H30z M3.997,31V17.012C4.009,16.55,4.192,16,4.997,16H16v16H5.009C4.547,31.988,3.997,31.806,3.997,31z   M44,30.988C43.988,31.45,43.806,32,43,32H31.998V16h10.99C43.45,16.012,44,16.195,44,17V30.988z M6.982,30  c-0.287,0-0.571-0.122-0.769-0.359c-0.354-0.425-0.296-1.055,0.128-1.409L11.417,24l-5.076-4.232  c-0.424-0.354-0.481-0.984-0.128-1.408c0.353-0.425,0.985-0.481,1.408-0.128l5.997,5c0.228,0.19,0.36,0.471,0.36,0.768  s-0.132,0.578-0.36,0.768l-5.997,5C7.436,29.924,7.208,30,6.982,30z M40.999,30c-0.226,0-0.452-0.076-0.64-0.231l-6-5  C34.132,24.578,34,24.297,34,24s0.132-0.578,0.359-0.768l6-5c0.427-0.354,1.055-0.295,1.409,0.128  c0.354,0.424,0.296,1.055-0.128,1.408L36.563,24l5.078,4.231c0.424,0.354,0.481,0.984,0.128,1.409C41.57,29.878,41.286,30,40.999,30  z"/>
</svg>
