<?xml version="1.0" encoding="utf-8"?>
<!-- Generator: Adobe Illustrator 16.0.0, SVG Export Plug-In . SVG Version: 6.00 Build 0)  -->
<svg xmlns="http://www.w3.org/2000/svg" xmlns:xlink="http://www.w3.org/1999/xlink" version="1.1" id="Capa_1" x="0px" y="0px" width="48px" height="48px" viewBox="0 0 48 48" enable-background="new 0 0 48 48" xml:space="preserve">
<path d="M24,6C15.27,6,6,8.45,6,13v24c0,4.55,9.27,7,18,7c8.73,0,18-2.45,18-7V13C42,8.45,32.73,6,24,6z M40,19  c0,1.53-3.3,3.51-9,4.45v14.03c3.72-0.591,7.01-1.65,9-3.15V37c0,2.09-6.09,5-16,5S8,39.09,8,37v-2.67c1.99,1.5,5.28,2.56,9,3.15  V23.45c-5.7-0.94-9-2.92-9-4.45v-2.68C11.19,18.73,17.73,20,24,20c6.27,0,12.81-1.27,16-3.68V19z M24,18c-9.91,0-16-2.91-16-5  s6.09-5,16-5s16,2.91,16,5S33.91,18,24,18z M23,30h-4v-4h4V30z M23,32h-4v4h4V32z M29,32h-4v4h4V32z M29,26h-4v4h4V26z"/>
</svg>
