<?xml version="1.0" encoding="utf-8"?>
<!-- Generator: Adobe Illustrator 16.0.0, SVG Export Plug-In . SVG Version: 6.00 Build 0)  -->
<svg xmlns="http://www.w3.org/2000/svg" xmlns:xlink="http://www.w3.org/1999/xlink" version="1.1" id="Capa_1" x="0px" y="0px" width="48px" height="48px" viewBox="0 0 48 48" enable-background="new 0 0 48 48" xml:space="preserve">
<path d="M21.85,21.53C21.67,21.82,21.35,22,21,22H7c-0.35,0-0.67-0.18-0.85-0.47c-0.18-0.3-0.2-0.67-0.04-0.98l7-14  c0.33-0.67,1.45-0.67,1.78,0l7,14C22.05,20.86,22.03,21.23,21.85,21.53z M41,6H27c-0.55,0-1,0.45-1,1v14c0,0.55,0.45,1,1,1h14  c0.55,0,1-0.45,1-1V7C42,6.45,41.55,6,41,6z M20.98,28H6.99c-0.55,0-1,0.45-1,1v10c0,0.55,0.45,1,1,1h13.99c0.56,0,1-0.45,1-1V29  C21.98,28.45,21.54,28,20.98,28z M34.01,26c-4.41,0-8,3.59-8,8s3.59,8,8,8c4.42,0,8.01-3.59,8.01-8S38.43,26,34.01,26z"/>
</svg>
