<?xml version="1.0" encoding="utf-8"?>
<!-- Generator: Adobe Illustrator 16.0.0, SVG Export Plug-In . SVG Version: 6.00 Build 0)  -->
<svg xmlns="http://www.w3.org/2000/svg" xmlns:xlink="http://www.w3.org/1999/xlink" version="1.1" id="Capa_1" x="0px" y="0px" width="48px" height="48px" viewBox="0 0 48 48" enable-background="new 0 0 48 48" xml:space="preserve">
<path d="M47,39c0,2.76-2.24,5-5,5s-5-2.24-5-5c0-2.41,1.72-4.43,4-4.9V31H31v3.1c2.28,0.471,4,2.48,4,4.9c0,2.76-2.24,5-5,5  s-5-2.24-5-5c0-2.41,1.72-4.43,4-4.9V31H19v3.1c2.28,0.471,4,2.49,4,4.9c0,2.76-2.24,5-5,5s-5-2.24-5-5c0-2.41,1.72-4.43,4-4.9V31H7  v3.1c2.28,0.471,4,2.49,4,4.9c0,2.76-2.24,5-5,5s-5-2.24-5-5c0-2.41,1.72-4.43,4-4.9V31c0-0.97,0.7-2,2-2h16v-3h-2  c-3.96,0-5-3.27-5-5c0-3.96,3.27-5,5-5h2v-2h-6c-2.2,0-3-1.79-3-3V7c0-2.2,1.79-3,3-3h14c2.2,0,3,1.79,3,3v4c0,2.2-1.79,3-3,3h-6v2  h2c1.73,0,5,1.04,5,5s-3.27,5-5,5h-2v3h16c0.97,0,2,0.7,2,2v3.1C45.28,34.57,47,36.58,47,39z"/>
</svg>
