<?xml version="1.0" encoding="utf-8"?>
<!-- Generator: Adobe Illustrator 16.0.0, SVG Export Plug-In . SVG Version: 6.00 Build 0)  -->
<svg xmlns="http://www.w3.org/2000/svg" xmlns:xlink="http://www.w3.org/1999/xlink" version="1.1" id="Capa_1" x="0px" y="0px" width="48px" height="48px" viewBox="0 0 48 48" enable-background="new 0 0 48 48" xml:space="preserve">
<path d="M43,34.101v-3.102c0-1.299-1.03-2-2-2H25V26h2c1.729,0,5-1.045,5-5s-3.271-5-5-5h-2v-2h6c1.206,0,3-0.799,3-3V7  c0-1.206-0.799-3-3-3H17c-1.206,0-3,0.799-3,3v4c0,1.206,0.799,3,3,3h6v2h-2c-1.729,0-5,1.045-5,5c0,1.729,1.045,5,5,5h2v2.999H7  c-1.299,0-2,1.03-2,2l0,3.103C2.721,34.565,1,36.586,1,39c0,2.757,2.243,5,5,5s5-2.243,5-5c0-2.414-1.721-4.435-4-4.898l0-3.103h10  v3.103c-2.279,0.464-4,2.484-4,4.898c0,2.757,2.243,5,5,5s5-2.243,5-5c0-2.414-1.721-4.435-4-4.898v-3.103h10v3.103  c-2.278,0.465-3.999,2.484-3.999,4.898c0,2.757,2.243,5,5,5s5-2.243,5-5c0-2.415-1.722-4.435-4.001-4.899v-3.102h10v3.103  c-2.278,0.465-3.999,2.484-3.999,4.898c0,2.757,2.243,5,5,5s5-2.243,5-5C47.001,36.585,45.279,34.565,43,34.101z M16,11V7  c0-0.805,0.55-0.988,1-1h14c0.806,0,0.988,0.55,1,1v4c0,0.803-0.547,0.987-1.008,1H17C16.195,12,16.012,11.45,16,11z M18,21  c0-2.823,2.503-2.994,3-3h5.994C27.496,18.006,30,18.177,30,21c0,2.82-2.498,2.994-3.004,3H21C18.177,24,18.006,21.497,18,21z M9,39  c0,1.654-1.346,3-3,3s-3-1.346-3-3s1.346-3,3-3S9,37.346,9,39z M21,39c0,1.654-1.346,3-3,3s-3-1.346-3-3s1.346-3,3-3  S21,37.346,21,39z M33.001,39c0,1.654-1.346,3-3,3s-3-1.346-3-3s1.346-3,3-3S33.001,37.346,33.001,39z M42.001,42  c-1.654,0-3-1.346-3-3s1.346-3,3-3s3,1.346,3,3S43.655,42,42.001,42z"/>
</svg>
