<?xml version="1.0" encoding="utf-8"?>
<!-- Generator: Adobe Illustrator 16.0.0, SVG Export Plug-In . SVG Version: 6.00 Build 0)  -->
<svg xmlns="http://www.w3.org/2000/svg" xmlns:xlink="http://www.w3.org/1999/xlink" version="1.1" id="Capa_1" x="0px" y="0px" width="48px" height="48px" viewBox="0 0 48 48" enable-background="new 0 0 48 48" xml:space="preserve">
<path d="M31,6c5.514,0,10,4.486,10,10s-4.486,10-10,10c-0.853,0-1.692-0.106-2.496-0.315C28.338,25.642,28.168,25.62,28,25.62  c-0.438,0-0.869,0.144-1.223,0.418C26.287,26.416,26,27.001,26,27.62V30h-4c-1.104,0-2,0.896-2,2v4h-4c-1.104,0-2,0.896-2,2v3  c0,0.902-0.699,1-1,1h-2c-0.902,0-1-0.699-1-1v-3.5c0-0.888,0.861-2.098,11.628-15.253c0.482-0.589,0.588-1.4,0.273-2.093  C21.303,18.836,21,17.438,21,16C21,10.486,25.486,6,31,6 M31,4c-6.62,0-12,5.38-12,12c0,1.78,0.39,3.46,1.08,4.98  C8,35.74,8,35.89,8,37.5V41c0,1.21,0.8,3,3,3h2c1.21,0,3-0.8,3-3v-3h4c0.97,0,2-0.7,2-2v-4h4c0.97,0,2-0.7,2-2v-2.38  c0.96,0.25,1.97,0.38,3,0.38c6.62,0,12-5.38,12-12S37.62,4,31,4L31,4z M37,21H25c-0.552,0-1-0.448-1-1v-9  c0-0.425,0.268-0.803,0.669-0.944c0.398-0.139,0.847-0.014,1.112,0.319l2.852,3.565l1.419-4.257C30.188,9.276,30.569,9,31,9  s0.813,0.275,0.948,0.684l1.419,4.257l2.852-3.565c0.266-0.332,0.712-0.46,1.112-0.319S38,10.575,38,11v9C38,20.553,37.553,21,37,21  z M26,19h10v-5.149l-2.219,2.774c-0.229,0.286-0.597,0.426-0.957,0.36c-0.36-0.064-0.657-0.321-0.772-0.668L31,13.163l-1.052,3.155  c-0.115,0.347-0.412,0.604-0.772,0.668c-0.359,0.067-0.727-0.073-0.957-0.36L26,13.852V19z"/>
</svg>
