<?xml version="1.0" encoding="utf-8"?>
<!-- Generator: Adobe Illustrator 16.0.0, SVG Export Plug-In . SVG Version: 6.00 Build 0)  -->
<svg xmlns="http://www.w3.org/2000/svg" xmlns:xlink="http://www.w3.org/1999/xlink" version="1.1" id="Capa_1" x="0px" y="0px" width="48px" height="48px" viewBox="0 0 48 48" enable-background="new 0 0 48 48" xml:space="preserve">
<path d="M41.41,12.08c-0.36-0.16-0.78-0.09-1.08,0.17l-8.21,7.3c-1.9-2.38-7.26-9.08-7.34-9.18C24.59,10.14,24.31,10,24,10  c-0.3,0-0.59,0.13-0.78,0.37l-7.34,9.18l-8.22-7.3c-0.29-0.26-0.71-0.33-1.07-0.17C6.23,12.25,6,12.6,6,13v23c0,0.97,0.7,2,2,2h32  c0.97,0,2-0.71,2-2V13C42,12.6,41.77,12.25,41.41,12.08z M40,20.14c-1.72,0.45-3,2-3,3.86c0,1.86,1.28,3.41,3,3.86V30H8v-2.14  c1.72-0.45,3-2,3-3.86c0-1.86-1.28-3.41-3-3.86v-4.92l7.33,6.52c0.21,0.19,0.48,0.28,0.75,0.25c0.28-0.02,0.53-0.15,0.7-0.37  l7.24-9.04c0.63,0.83,1.64,2.09,3.2,4.04l4,5c0.17,0.22,0.42,0.35,0.7,0.37c0.271,0.03,0.54-0.06,0.74-0.25L40,15.22V20.14z M28,24  c0,2.21-1.79,4-4,4s-4-1.79-4-4s1.79-4,4-4S28,21.79,28,24z"/>
</svg>
