<?xml version="1.0" encoding="utf-8"?>
<!-- Generator: Adobe Illustrator 16.0.0, SVG Export Plug-In . SVG Version: 6.00 Build 0)  -->
<svg xmlns="http://www.w3.org/2000/svg" xmlns:xlink="http://www.w3.org/1999/xlink" version="1.1" id="Capa_1" x="0px" y="0px" width="48px" height="48px" viewBox="0 0 48 48" enable-background="new 0 0 48 48" xml:space="preserve">
<path d="M19,10h10v8H19V10z M17,38H8.01C7.55,37.99,7,37.81,7,37v-7h10V38z M17,28H7v-8h10V28z M17,18H7v-7c0-0.3,0.1-1,1-1h9V18z   M41,36.99C40.99,37.45,40.81,38,40,38h-9v-8h10V36.99z M41,19.33V28h-8.67L29,31.33V38H19v-8h1.92l0.61-2H19v-8h8.6l3.4-3.4V10h6.6  l2-2H8c-2.2,0-3,1.79-3,3v26c0,2.2,1.79,3,3,3h32c2.2,0,3-1.79,3-3V17.33L41,19.33z M40.758,9.671L24.146,26.284l-1.553,5.089  l5.088-1.554l16.612-16.612L40.758,9.671z M45.707,11.793l1.707-1.707C47.792,9.708,48,9.206,48,8.671  c0-0.534-0.208-1.036-0.586-1.414L46.707,6.55c-0.756-0.756-2.072-0.756-2.828,0l-1.707,1.707L45.707,11.793z"/>
</svg>
