<?xml version="1.0" encoding="utf-8"?>
<!-- Generator: Adobe Illustrator 16.0.0, SVG Export Plug-In . SVG Version: 6.00 Build 0)  -->
<svg xmlns="http://www.w3.org/2000/svg" xmlns:xlink="http://www.w3.org/1999/xlink" version="1.1" id="Capa_1" x="0px" y="0px" width="48px" height="48px" viewBox="0 0 48 48" enable-background="new 0 0 48 48" xml:space="preserve">
<path d="M31,30v8h9c0.81,0,0.99-0.55,1-1.01V30H31z M28.26,31.73l-5.08,1.56c-0.2,0.05-0.39,0.08-0.59,0.08  c-0.52,0-1.03-0.2-1.41-0.58c-0.52-0.53-0.72-1.29-0.5-2L20.92,30H19v8h10v-6.69C28.79,31.5,28.54,31.65,28.26,31.73z M7,30v7  c0,0.81,0.55,0.99,1.01,1H17v-8H7z M7,20v8h10v-8H7z M19,20v8h2.53l0.7-2.3c0.1-0.311,0.27-0.601,0.5-0.83L27.6,20H19z M40.33,20  l-8.01,8H41v-8H40.33z M31,10v6.6l6.6-6.6H31z M19,10v8h10v-8H19z M8,10c-0.9,0-1,0.7-1,1v7h10v-8H8z M40.758,9.671L24.146,26.284  l-1.553,5.089l5.088-1.554l16.612-16.612L40.758,9.671z M45.707,11.793l1.707-1.707C47.792,9.708,48,9.206,48,8.671  c0-0.534-0.208-1.036-0.586-1.414L46.707,6.55c-0.756-0.756-2.072-0.756-2.828,0l-1.707,1.707L45.707,11.793z"/>
</svg>
