<?xml version="1.0" encoding="utf-8"?>
<!-- Generator: Adobe Illustrator 16.0.0, SVG Export Plug-In . SVG Version: 6.00 Build 0)  -->
<svg xmlns="http://www.w3.org/2000/svg" xmlns:xlink="http://www.w3.org/1999/xlink" version="1.1" id="Capa_1" x="0px" y="0px" width="48px" height="48px" viewBox="0 0 48 48" enable-background="new 0 0 48 48" xml:space="preserve">
<path d="M43,16.001H4.997c-2.201,0-2.997,1.794-2.997,3v9.997c0,2.201,1.791,3,2.997,3H43c2.201,0,3-1.794,3-3v-9.997  C46,16.8,44.206,16.001,43,16.001z M30,18v12H18V18H30z M3.997,28.998v-9.985C4.009,18.551,4.192,18,4.997,18H16v12L5.009,30.001  C4.547,29.989,3.997,29.804,3.997,28.998z M44,28.986C43.988,29.448,43.806,30,43,30H32V18h10.988C43.45,18.012,44,18.196,44,19.001  V28.986z"/>
</svg>
