<?xml version="1.0" encoding="utf-8"?>
<!-- Generator: Adobe Illustrator 16.0.0, SVG Export Plug-In . SVG Version: 6.00 Build 0)  -->
<svg xmlns="http://www.w3.org/2000/svg" xmlns:xlink="http://www.w3.org/1999/xlink" version="1.1" id="Capa_1" x="0px" y="0px" width="48px" height="48px" viewBox="0 0 48 48" enable-background="new 0 0 48 48" xml:space="preserve">
<path d="M24,6C14.07,6,6,14.07,6,24c0,9.92,8.07,18,18,18c9.92,0,18-8.08,18-18C42,14.07,33.92,6,24,6z M24,40  c-8.82,0-16-7.18-16-16c0-8.82,7.18-16,16-16c8.82,0,16,7.18,16,16C40,32.82,32.82,40,24,40z M24,10c-7.72,0-14,6.28-14,14  c0,7.72,6.28,14,14,14c7.72,0,14-6.28,14-14C38,16.28,31.72,10,24,10z M30.57,24.82l-10,7C20.4,31.94,20.2,32,20,32  c-0.16,0-0.32-0.04-0.46-0.11C19.21,31.72,19,31.38,19,31V17c0-0.37,0.21-0.71,0.54-0.89c0.33-0.17,0.73-0.14,1.03,0.07l10,7  C30.84,23.37,31,23.67,31,24S30.84,24.63,30.57,24.82z"/>
</svg>
