<?xml version="1.0" encoding="utf-8"?>
<!-- Generator: Adobe Illustrator 16.0.0, SVG Export Plug-In . SVG Version: 6.00 Build 0)  -->
<svg xmlns="http://www.w3.org/2000/svg" xmlns:xlink="http://www.w3.org/1999/xlink" version="1.1" id="Capa_1" x="0px" y="0px" width="48px" height="48px" viewBox="0 0 48 48" enable-background="new 0 0 48 48" xml:space="preserve">
<path d="M40,41c0,1.657-1.343,3-3,3H11c-1.657,0-3-1.343-3-3V7c0-1.657,1.343-3,3-3h26c1.657,0,3,1.343,3,3V41z M38,10H10v31  c0,0.553,0.448,1,1,1h26c0.553,0,1-0.447,1-1V10z M17.635,31.771c0.426-0.352,0.487-0.981,0.135-1.408L14.17,26l3.6-4.364  c0.352-0.426,0.291-1.056-0.135-1.408c-0.425-0.351-1.056-0.291-1.408,0.135l-4.125,5c-0.305,0.37-0.305,0.903,0,1.273l4.125,5  C16.425,31.876,16.711,32,17,32C17.224,32,17.449,31.925,17.635,31.771z M31.657,31.637l4.127-5c0.305-0.37,0.305-0.903,0-1.273  l-4.127-5c-0.352-0.425-0.98-0.485-1.408-0.134c-0.426,0.352-0.486,0.981-0.135,1.408L33.716,26l-3.602,4.363  c-0.352,0.426-0.291,1.057,0.135,1.408C30.436,31.925,30.661,32,30.885,32C31.173,32,31.459,31.876,31.657,31.637z M27.31,16.05  c-0.52-0.18-1.09,0.11-1.26,0.63l-6,18c-0.17,0.53,0.11,1.09,0.64,1.271C20.79,35.98,20.9,36,21,36c0.42,0,0.81-0.26,0.95-0.68l6-18  C28.12,16.79,27.84,16.23,27.31,16.05z"/>
</svg>
