<?xml version="1.0" encoding="utf-8"?>
<!-- Generator: Adobe Illustrator 16.0.0, SVG Export Plug-In . SVG Version: 6.00 Build 0)  -->
<svg xmlns="http://www.w3.org/2000/svg" xmlns:xlink="http://www.w3.org/1999/xlink" version="1.1" id="Capa_1" x="0px" y="0px" width="48px" height="48px" viewBox="0 0 48 48" enable-background="new 0 0 48 48" xml:space="preserve">
<path d="M42.99,16H32v16h11c0.81,0,0.99-0.55,1-1.01V17C44,16.19,43.45,16.01,42.99,16z M41.64,24.77l-6,5  C35.45,29.92,35.23,30,35,30c-0.29,0-0.57-0.12-0.77-0.36c-0.351-0.42-0.29-1.06,0.13-1.409L39.44,24l-5.08-4.23  c-0.42-0.36-0.48-0.99-0.13-1.41c0.35-0.42,0.979-0.48,1.409-0.13l6,5C41.87,23.42,42,23.7,42,24S41.87,24.58,41.64,24.77z M30,16  v16H18V16H30z M5,16c-0.81,0-0.99,0.55-1,1.01V31c0,0.81,0.55,0.99,1.01,1H16V16H5z M13.62,28.23c0.42,0.359,0.48,0.989,0.13,1.409  c-0.2,0.24-0.48,0.36-0.77,0.36c-0.23,0-0.45-0.08-0.64-0.23l-6-5C6.11,24.58,5.98,24.3,5.98,24s0.13-0.58,0.36-0.77l6-5  c0.42-0.35,1.05-0.29,1.41,0.13c0.35,0.42,0.29,1.05-0.13,1.41L8.54,24L13.62,28.23z"/>
</svg>
