<?xml version="1.0" encoding="utf-8"?>
<!-- Generator: Adobe Illustrator 16.0.0, SVG Export Plug-In . SVG Version: 6.00 Build 0)  -->
<svg xmlns="http://www.w3.org/2000/svg" xmlns:xlink="http://www.w3.org/1999/xlink" version="1.1" id="Capa_1" x="0px" y="0px" width="48px" height="48px" viewBox="0 0 48 48" enable-background="new 0 0 48 48" xml:space="preserve">
<path d="M13.42,18.09c-0.35-0.16-0.76-0.11-1.06,0.14l-6,5C6.13,23.42,6,23.7,6,24s0.13,0.58,0.36,0.77l6,5  c0.3,0.25,0.71,0.301,1.06,0.141C13.78,29.74,14,29.39,14,29V19C14,18.61,13.78,18.26,13.42,18.09z M41.64,23.23l-6-5  c-0.3-0.25-0.71-0.3-1.06-0.14C34.22,18.26,34,18.61,34,19v10c0,0.39,0.22,0.74,0.58,0.91c0.35,0.16,0.76,0.109,1.06-0.141l6-5  C41.87,24.58,42,24.3,42,24S41.87,23.42,41.64,23.23z M30,32v10.992C29.99,43.452,29.8,44,29,44H19c-0.46-0.01-1-0.188-1-0.998V32  H30z M30,4.999V16H18V5.009C18.01,4.549,18.19,4,19,4h10C29.47,4.01,30,4.189,30,4.999z M30,18v12H18V18H30z"/>
</svg>
