<?xml version="1.0" encoding="utf-8"?>
<!-- Generator: Adobe Illustrator 16.0.0, SVG Export Plug-In . SVG Version: 6.00 Build 0)  -->
<svg xmlns="http://www.w3.org/2000/svg" xmlns:xlink="http://www.w3.org/1999/xlink" version="1.1" id="Capa_1" x="0px" y="0px" width="48px" height="48px" viewBox="0 0 48 48" enable-background="new 0 0 48 48" xml:space="preserve">
<path d="M43,14H4.997C2.796,14,2,15.794,2,17v14c0,2.201,1.791,3,2.997,3H43c2.201,0,3-1.794,3-3V17C46,14.799,44.206,14,43,14z   M30,16v16H17.999V16H30z M3.997,31V17.012C4.009,16.55,4.192,16,4.997,16H16v16H5.009C4.547,31.988,3.997,31.806,3.997,31z   M44,30.988C43.988,31.45,43.806,32,43,32H31.998V16h10.99C43.45,16.012,44,16.195,44,17V30.988z M35.001,30  c-0.287,0-0.571-0.122-0.77-0.359c-0.354-0.425-0.296-1.056,0.128-1.409L39.438,24l-5.078-4.232  c-0.424-0.354-0.481-0.984-0.128-1.408c0.354-0.423,0.982-0.482,1.409-0.128l6,5C41.868,23.422,42,23.703,42,24  s-0.132,0.578-0.359,0.768l-6,5C35.453,29.924,35.227,30,35.001,30z M12.979,30c-0.226,0-0.453-0.076-0.64-0.231l-5.997-5  c-0.228-0.19-0.36-0.471-0.36-0.768s0.132-0.578,0.36-0.768l5.997-5c0.423-0.354,1.054-0.296,1.408,0.128  c0.354,0.424,0.296,1.055-0.128,1.408L8.543,24l5.076,4.231c0.424,0.354,0.481,0.984,0.128,1.409C13.549,29.878,13.265,30,12.979,30  z"/>
</svg>
