<?xml version="1.0" encoding="utf-8"?>
<!-- Generator: Adobe Illustrator 16.0.0, SVG Export Plug-In . SVG Version: 6.00 Build 0)  -->
<svg xmlns="http://www.w3.org/2000/svg" xmlns:xlink="http://www.w3.org/1999/xlink" version="1.1" id="Capa_1" x="0px" y="0px" width="48px" height="48px" viewBox="0 0 48 48" enable-background="new 0 0 48 48" xml:space="preserve">
<path d="M41,30v6.99C40.99,37.45,40.81,38,40,38h-9v-8H41z M19,30v8h10v-8H19z M7,30v7c0,0.81,0.55,0.99,1.01,1H17v-8H7z M7,20v8h10  v-8H7z M19,20v8h10v-8H19z M31,20v8h10v-8H31z M39.99,10H31v8h10v-7C41,10.19,40.45,10.01,39.99,10z M19,10v8h10v-8H19z M8,10  c-0.9,0-1,0.7-1,1v7h10v-8H8z"/>
</svg>
