<?xml version="1.0" encoding="utf-8"?>
<!-- Generator: Adobe Illustrator 16.0.0, SVG Export Plug-In . SVG Version: 6.00 Build 0)  -->
<svg xmlns="http://www.w3.org/2000/svg" xmlns:xlink="http://www.w3.org/1999/xlink" version="1.1" id="Capa_1" x="0px" y="0px" width="48px" height="48px" viewBox="0 0 48 48" enable-background="new 0 0 48 48" xml:space="preserve">
<path d="M40,8H8c-2.2,0-3,1.79-3,3v26c0,2.2,1.79,3,3,3h32c2.2,0,3-1.79,3-3V11C43,8.8,41.21,8,40,8z M17,38H8.01  C7.55,37.99,7,37.81,7,37v-7h10V38z M17,28H7v-8h10V28z M29,38H19v-8h10V38z M29,28H19v-8h10V28z M41,36.99  C40.99,37.45,40.81,38,40,38h-9v-8h10V36.99z M41,28H31v-8h10V28z"/>
</svg>
