<?xml version="1.0" encoding="utf-8"?>
<!-- Generator: Adobe Illustrator 16.0.0, SVG Export Plug-In . SVG Version: 6.00 Build 0)  -->
<svg xmlns="http://www.w3.org/2000/svg" xmlns:xlink="http://www.w3.org/1999/xlink" version="1.1" id="Capa_1" x="0px" y="0px" width="48px" height="48px" viewBox="0 0 48 48" enable-background="new 0 0 48 48" xml:space="preserve">
<path d="M40,8H8c-2.2,0-3,1.79-3,3v26c0,2.2,1.79,3,3,3h32c2.2,0,3-1.79,3-3V11C43,8.8,41.21,8,40,8z M17,28H7v-8h10V28z M17,18H7  v-7c0-0.3,0.1-1,1-1h9V18z M29,28H19v-8h10V28z M29,18H19v-8h10V18z M41,28H31v-8h10V28z M41,18H31v-8h8.99  c0.46,0.01,1.01,0.19,1.01,1V18z"/>
</svg>
