<?xml version="1.0" encoding="utf-8"?>
<!-- Generator: Adobe Illustrator 16.0.0, SVG Export Plug-In . SVG Version: 6.00 Build 0)  -->
<svg xmlns="http://www.w3.org/2000/svg" xmlns:xlink="http://www.w3.org/1999/xlink" version="1.1" id="Capa_1" x="0px" y="0px" width="48px" height="48px" viewBox="0 0 48 48" enable-background="new 0 0 48 48" xml:space="preserve">
<path d="M29,30h12v6.99C40.99,37.45,40.81,38,40,38H29H19H8.01C7.55,37.99,7,37.81,7,37v-7h12H29z M17,20H7v8h10V20z M29,20H19v8h10  V20z M31,28h10v-8H31V28z M39.99,10H31v8h10v-7C41,10.19,40.45,10.01,39.99,10z M29,10H19v8h10V10z M17,10H8c-0.9,0-1,0.7-1,1v7h10  V10z"/>
</svg>
