<?xml version="1.0" encoding="utf-8"?>
<!-- Generator: Adobe Illustrator 16.0.0, SVG Export Plug-In . SVG Version: 6.00 Build 0)  -->
<svg xmlns="http://www.w3.org/2000/svg" xmlns:xlink="http://www.w3.org/1999/xlink" version="1.1" id="Capa_1" x="0px" y="0px" width="48px" height="48px" viewBox="0 0 48 48" enable-background="new 0 0 48 48" xml:space="preserve">
<path d="M41.414,38.586l-8-8c-0.522-0.522-1.259-0.688-1.925-0.511l-0.921-0.921C32.699,26.697,34,23.5,34,20c0-7.72-6.28-14-14-14  S6,12.28,6,20s6.28,14,14,14c3.5,0,6.697-1.301,9.154-3.432l0.921,0.921c-0.177,0.666-0.012,1.402,0.511,1.925l8,8  C38.977,41.805,39.488,42,40,42s1.023-0.195,1.414-0.586C42.195,40.633,42.195,39.367,41.414,38.586z M8,20c0-6.617,5.383-12,12-12  c6.617,0,12,5.383,12,12c0,6.617-5.383,12-12,12C13.383,32,8,26.617,8,20z M29.78,19.37C29.6,19.15,25.39,14,20,14  c-5.39,0-9.6,5.15-9.78,5.37c-0.29,0.37-0.29,0.89,0,1.26C10.4,20.85,14.61,26,20,26c5.39,0,9.6-5.15,9.78-5.37  C30.07,20.26,30.07,19.74,29.78,19.37z M20,24c-3.42,0-6.44-2.74-7.66-4c0.72-0.75,2.07-2.02,3.77-2.92C16.04,17.37,16,17.68,16,18  c0,2.21,1.79,4,4,4s4-1.79,4-4c0-0.32-0.04-0.63-0.11-0.92c1.69,0.91,3.05,2.17,3.77,2.92C26.44,21.27,23.43,24,20,24z"/>
</svg>
