<?xml version="1.0" encoding="utf-8"?>
<!-- Generator: Adobe Illustrator 16.0.0, SVG Export Plug-In . SVG Version: 6.00 Build 0)  -->
<svg xmlns="http://www.w3.org/2000/svg" xmlns:xlink="http://www.w3.org/1999/xlink" version="1.1" id="Capa_1" x="0px" y="0px" width="32px" height="32px" viewBox="0 0 32 32" enable-background="new 0 0 32 32" xml:space="preserve">
<g>
	<rect y="4" width="8" height="2"/>
	<rect y="8" width="8" height="2"/>
	<rect x="22" y="4" width="8" height="2"/>
	<rect x="22" y="8" width="8" height="2"/>
	<path d="M23,12h-7v-2h4V4H10v6h4v2H7c-3.955,0-5,3.271-5,5v10c0,2.201,1.794,3,3,3h20c2.201,0,3-1.794,3-3V17   C28,13.045,24.729,12,23,12z M12,6h6v2h-6V6z M26,17v3h-6v-6h2.994C23.496,14.006,26,14.177,26,17z M12,20v-6h6v6H12z M7,14h3v6H4   v-2.994C4.006,16.503,4.177,14,7,14z M25,28H5.012C4.55,27.988,4,27.806,4,27v-5h22v4.988C25.988,27.45,25.806,28,25,28z"/>
</g>
</svg>
