<?xml version="1.0" encoding="utf-8"?>
<!-- Generator: Adobe Illustrator 16.0.0, SVG Export Plug-In . SVG Version: 6.00 Build 0)  -->
<svg xmlns="http://www.w3.org/2000/svg" xmlns:xlink="http://www.w3.org/1999/xlink" version="1.1" id="Capa_1" x="0px" y="0px" width="32px" height="32px" viewBox="0 0 32 32" enable-background="new 0 0 32 32" xml:space="preserve">
<g>
	<rect x="8" y="26" width="10" height="2"/>
	<path d="M28.663,19.161C30.711,17.627,32,16.057,32,15c0-1.096-1.394-2.744-3.576-4.332l3.408-5.113   c0.204-0.307,0.224-0.701,0.05-1.026S31.369,4,31,4h-6c-0.099,0-2.44,0.026-4.707,2.293L19.916,6.67C18.308,6.254,16.646,6,15,6   C3.135,6,0,11.887,0,15c0,3.113,3.135,9,15,9c1.646,0,3.308-0.254,4.916-0.67l0.377,0.377C22.56,25.974,24.901,26,25,26h6   c0.36,0,0.692-0.193,0.87-0.507c0.178-0.314,0.173-0.699-0.013-1.008L28.663,19.161z M25,6h4.132l-2.374,3.561   c-1.384-0.833-2.966-1.598-4.654-2.208C23.604,6.063,24.949,6.001,25,6z M2,15c0-0.07,0.148-7,13-7   c7.674,0,14.792,5.645,15.001,6.979C29.792,16.355,22.674,22,15,22C2.148,22,2,15.07,2,15z M25.011,24   c-0.062-0.001-1.407-0.063-2.907-1.353c1.792-0.648,3.459-1.472,4.9-2.364L29.233,24H25.011z"/>
</g>
</svg>
