<?xml version="1.0" encoding="utf-8"?>
<!-- Generator: Adobe Illustrator 16.0.0, SVG Export Plug-In . SVG Version: 6.00 Build 0)  -->
<svg xmlns="http://www.w3.org/2000/svg" xmlns:xlink="http://www.w3.org/1999/xlink" version="1.1" id="Capa_1" x="0px" y="0px" width="32px" height="32px" viewBox="0 0 32 32" enable-background="new 0 0 32 32" xml:space="preserve">
<g>
	<path d="M27,0H3C0.799,0,0,1.794,0,3v26c0,2.201,1.794,3,3,3h24c2.201,0,3-1.794,3-3V3C30,0.799,28.206,0,27,0z M28,28.988   C27.988,29.45,27.806,30,27,30H3.012C2.55,29.988,2,29.806,2,29V3.012C2.012,2.55,2.195,2,3,2h23.988C27.45,2.012,28,2.195,28,3   V28.988z"/>
	<path d="M18,7c0-1.206-0.799-3-3-3s-3,1.794-3,3v3.446l-8,5v4.835l8-2v2.305l-2,2v6.032l5-2.5l5,2.5v-6.032l-2-2v-2.305l8,2v-4.835   l-8-5V7z M24,16.554v1.165l-8-2v5.695l2,2v1.968l-3-1.5l-3,1.5v-1.968l2-2v-5.695l-8,2v-1.165l8-5V7.012C14.012,6.55,14.195,6,15,6   s0.988,0.55,1,1v4.554L24,16.554z"/>
</g>
</svg>
