<?xml version="1.0" encoding="utf-8"?>
<!-- Generator: Adobe Illustrator 16.0.0, SVG Export Plug-In . SVG Version: 6.00 Build 0)  -->
<svg xmlns="http://www.w3.org/2000/svg" xmlns:xlink="http://www.w3.org/1999/xlink" version="1.1" id="Capa_1" x="0px" y="0px" width="32px" height="32px" viewBox="0 0 32 32" enable-background="new 0 0 32 32" xml:space="preserve">
<g>
	<path d="M29,14c-0.927,0-1.314-0.657-2.109-2.396C25.81,9.239,24.329,6,19,6h-1V4h-4v2H3C0.799,6,0,7.794,0,9v14   c0,2.201,1.794,3,3,3h1.555C5.248,27.19,6.523,28,8,28s2.752-0.81,3.445-2h9.109c0.693,1.19,1.969,2,3.445,2s2.752-0.81,3.445-2H29   c2.201,0,3-1.794,3-3v-6C32,14.799,30.206,14,29,14z M19,8c4.044,0,5.074,2.255,6.071,4.435c0.239,0.523,0.494,1.063,0.794,1.565   h-6.854C18.55,13.988,18,13.805,18,13V8H19z M8,26c-1.103,0-2-0.897-2-2s0.897-2,2-2s2,0.897,2,2S9.103,26,8,26z M24,26   c-1.103,0-2-0.897-2-2s0.897-2,2-2s2,0.897,2,2S25.103,26,24,26z M30,22.988C29.988,23.45,29.806,24,29,24h-1c0-2.209-1.791-4-4-4   s-4,1.791-4,4h-8c0-2.209-1.791-4-4-4s-4,1.791-4,4H3.012C2.55,23.988,2,23.806,2,23V9.012C2.012,8.55,2.195,8,3,8h13v5   c0,2.201,1.794,3,3,3h9.988C29.45,16.012,30,16.195,30,17V22.988z"/>
	<polygon points="10,12 8,12 8,14 6,14 6,16 8,16 8,18 10,18 10,16 12,16 12,14 10,14  "/>
</g>
</svg>
