<?xml version="1.0" encoding="utf-8"?>
<!-- Generator: Adobe Illustrator 16.0.0, SVG Export Plug-In . SVG Version: 6.00 Build 0)  -->
<svg xmlns="http://www.w3.org/2000/svg" xmlns:xlink="http://www.w3.org/1999/xlink" version="1.1" id="Capa_1" x="0px" y="0px" width="32px" height="32px" viewBox="0 0 32 32" enable-background="new 0 0 32 32" xml:space="preserve">
<path d="M32,22.92c0-6.47-6.08-8.78-8.64-8.98l-3.65-3.65c-0.39-0.39-1.03-0.39-1.42,0s-0.39,1.03,0,1.42l2.67,2.66  c-0.38,0.15-0.77,0.31-1.16,0.49c-1.16,0.52-2.359,1.06-3.8,1.06c-1.7,0-2.25-0.37-2.95-0.83c-0.68-0.46-1.46-0.97-3.05-1.12V9  c0-0.55-0.45-1-1-1H7c-3.49,0-4.71,3.56-4.95,6.07C0.57,14.5,0,15.91,0,16.92V21c0,1.781,0.48,3.766,1.7,4.601  C1.235,25.847,0.701,26,0,26v2c2.414,0,3.686-1.271,4.707-2.293C5.661,24.753,6.414,24,8,24s2.339,0.753,3.293,1.707  C12.314,26.729,13.586,28,16,28s3.686-1.271,4.707-2.293C21.661,24.753,22.414,24,24,24s2.339,0.753,3.293,1.707  C28.314,26.729,29.586,28,32,28v-2c-0.676,0-1.196-0.143-1.65-0.374C31.53,25.074,32,23.833,32,22.92z M7,10h1v3.92H4.09  C4.29,12.45,4.92,10,7,10z M4.062,23.558C4.025,23.375,4,23.188,4,23c0-1.65,1.35-3,3-3c1.417,0,2.592,0.996,2.903,2.32  C9.355,22.127,8.735,22,8,22C6.148,22,4.971,22.748,4.062,23.558z M12.707,24.293c-0.234-0.234-0.484-0.481-0.755-0.724  C11.974,23.382,12,23.194,12,23c0-2.76-2.24-5-5-5c-2.45,0-4.48,1.77-4.91,4.09C2.03,21.72,2,21.34,2,21v-4.07  c0.01-0.46,0.19-1.01,1-1.01h6c1.7,0,2.25,0.37,2.95,0.83c0.82,0.55,1.75,1.17,4.05,1.17c1.87,0,3.33-0.66,4.62-1.24  c0.91-0.41,1.7-0.76,2.38-0.76c1.54,0,7,1.68,7,6.99c-0.01,0.46-0.19,1.01-1,1.01h-0.671c-0.122-0.119-0.251-0.238-0.384-0.356  C27.97,23.377,28,23.192,28,23c0-2.76-2.24-5-5-5s-5,2.24-5,5c0,0.746,0.172,1.447,0.458,2.08C17.81,25.628,17.109,26,16,26  C14.414,26,13.661,25.247,12.707,24.293z M20.062,23.558C20.025,23.375,20,23.188,20,23c0-1.65,1.35-3,3-3  c1.418,0,2.592,0.996,2.903,2.32C25.354,22.127,24.735,22,24,22C22.148,22,20.972,22.748,20.062,23.558z"/>
</svg>
