<?xml version="1.0" encoding="utf-8"?>
<!-- Generator: Adobe Illustrator 16.0.0, SVG Export Plug-In . SVG Version: 6.00 Build 0)  -->
<svg xmlns="http://www.w3.org/2000/svg" xmlns:xlink="http://www.w3.org/1999/xlink" version="1.1" id="Capa_1" x="0px" y="0px" width="32px" height="32px" viewBox="0 0 32 32" enable-background="new 0 0 32 32" xml:space="preserve">
<path d="M32,10H19.721l-1.772-5.316l-1.897,0.633L18,11.161V16h-6V8H6v2H0v14h2.101C2.564,26.282,4.582,28,7,28s4.436-1.718,4.899-4  h8.201c0.464,2.282,2.48,4,4.899,4s4.436-1.718,4.899-4H32V10z M10,10v4.586l-2-2V10H10z M7,26c-1.654,0-3-1.346-3-3s1.346-3,3-3  s3,1.346,3,3S8.654,26,7,26z M25,26c-1.654,0-3-1.346-3-3s1.346-3,3-3s3,1.346,3,3S26.654,26,25,26z M29.899,22  c-0.464-2.282-2.48-4-4.899-4s-4.436,1.718-4.899,4h-8.201C11.436,19.718,9.418,18,7,18s-4.436,1.718-4.899,4H2V12h4v1.414  L10.586,18H20v-6h10v2h-2v2h2v6H29.899z"/>
</svg>
