<?xml version="1.0" encoding="utf-8"?>
<!-- Generator: Adobe Illustrator 16.0.0, SVG Export Plug-In . SVG Version: 6.00 Build 0)  -->
<svg xmlns="http://www.w3.org/2000/svg" xmlns:xlink="http://www.w3.org/1999/xlink" version="1.1" id="Capa_1" x="0px" y="0px" width="32px" height="32px" viewBox="0 0 32 32" enable-background="new 0 0 32 32" xml:space="preserve">
<path d="M32,16c0-0.97-0.701-2-2-2h-4.279l-2-6H14V6h8V4H12v4H8.667L0,14.5V24h2.101C2.564,26.282,4.582,28,7,28  s4.436-1.718,4.899-4h8.201c0.464,2.282,2.48,4,4.899,4s4.436-1.718,4.899-4H32V16z M23.612,14H19h-1v-4h4.279L23.612,14z M12,10h4  v4h-3.001c-0.805,0-0.988-0.55-0.999-1V10z M7,26c-1.654,0-3-1.346-3-3s1.346-3,3-3s3,1.346,3,3S8.654,26,7,26z M25,26  c-1.654,0-3-1.346-3-3s1.346-3,3-3s3,1.346,3,3S26.654,26,25,26z M30,22h-0.101c-0.464-2.282-2.48-4-4.899-4s-4.436,1.718-4.899,4  h-8.201C11.436,19.718,9.418,18,7,18s-4.436,1.718-4.899,4H2v-4h2v-2H2v-0.5L9.333,10H10v3c0,0.123,0.017,0.771,0.355,1.447  c0.5,1.001,1.439,1.553,2.644,1.553H16h3h5.279H25h5V22z"/>
</svg>
