<?xml version="1.0" encoding="utf-8"?>
<!-- Generator: Adobe Illustrator 16.0.0, SVG Export Plug-In . SVG Version: 6.00 Build 0)  -->
<svg xmlns="http://www.w3.org/2000/svg" xmlns:xlink="http://www.w3.org/1999/xlink" version="1.1" id="Capa_1" x="0px" y="0px" width="32px" height="32px" viewBox="0 0 32 32" enable-background="new 0 0 32 32" xml:space="preserve">
<path d="M21.414,6H16v2h4.586l2,2H19c-1.236,0-2.36,0.562-3.447,1.105C14.633,11.565,13.764,12,13,12  c-0.877,0-2.938-0.516-4.757-0.97C6.124,10.5,4.123,10,3,10H0v5c0,1.874,1.917,4.008,2.982,5.049C2.372,20.878,2,21.893,2,23  c0,2.761,2.239,5,5,5c2.418,0,4.436-1.719,4.899-4h8.201c0.464,2.281,2.48,4,4.899,4c2.762,0,5-2.239,5-5v-8.414L21.414,6z M7,26  c-1.654,0-3-1.346-3-3s1.346-3,3-3s3,1.346,3,3S8.654,26,7,26z M7,18c-0.926,0-1.782,0.269-2.526,0.708C3.333,17.604,2,15.945,2,15  v-3h1c0.877,0,2.938,0.516,4.757,0.97C9.876,13.5,11.877,14,13,14c1.236,0,2.36-0.562,3.447-1.105C17.367,12.435,18.236,12,19,12  h5.586l2,2H20.5l-6,8h-2.601C11.436,19.719,9.418,18,7,18z M20.101,22H17l4.5-6H28v3.022C27.162,18.39,26.131,18,25,18  C22.581,18,20.564,19.719,20.101,22z M25,26c-1.654,0-3-1.346-3-3s1.346-3,3-3s3,1.346,3,3S26.654,26,25,26z"/>
</svg>
