<?xml version="1.0" encoding="utf-8"?>
<!-- Generator: Adobe Illustrator 16.0.0, SVG Export Plug-In . SVG Version: 6.00 Build 0)  -->
<svg xmlns="http://www.w3.org/2000/svg" xmlns:xlink="http://www.w3.org/1999/xlink" version="1.1" id="Capa_1" x="0px" y="0px" width="32px" height="32px" viewBox="0 0 32 32" enable-background="new 0 0 32 32" xml:space="preserve">
<path d="M28,10c0-0.1-0.138-10-12-10C4.137,0,4,9.9,4,10c0,5.369,3.686,10.133,7.482,12.471C10.87,24.466,10,27.556,10,29  c0,1.206,0.799,3,3,3h6c1.206,0,3-0.799,3-3c0-1.444-0.87-4.534-1.482-6.529C24.313,20.133,28,15.369,28,10z M16.673,2.034  C17.517,2.794,20,5.422,20,10c0,4.741-2.682,10.254-3.576,11.96C16.28,21.978,16.134,22,16,22s-0.281-0.023-0.424-0.04  C14.681,20.255,12,14.75,12,10c0-4.614,2.524-7.249,3.345-7.984C15.561,2.008,15.775,2,16,2C16.239,2,16.446,2.025,16.673,2.034z   M6,10c0-0.28,0.09-5.962,6.353-7.574C11.204,4.053,10,6.567,10,10c0,3.985,1.638,8.297,2.853,10.95C9.604,19.067,6,14.846,6,10z   M19,30h-6c-0.805,0-0.988-0.55-1-1c0-0.255,0.042-0.601,0.112-1h7.776C19.957,28.399,20,28.745,20,29C20,29.806,19.45,29.988,19,30  z M19.44,26H12.56c0.224-0.867,0.484-1.778,0.732-2.6C14.243,23.785,15.167,24,16,24c0.833,0,1.757-0.215,2.709-0.6  C18.956,24.221,19.217,25.133,19.44,26z M19.147,20.95C20.362,18.296,22,13.985,22,10c0-3.417-1.193-5.924-2.338-7.551  C25.854,4.078,25.998,9.724,26,10C26,14.846,22.396,19.067,19.147,20.95z"/>
</svg>
