<?xml version="1.0" encoding="utf-8"?>
<!-- Generator: Adobe Illustrator 16.0.0, SVG Export Plug-In . SVG Version: 6.00 Build 0)  -->
<svg xmlns="http://www.w3.org/2000/svg" xmlns:xlink="http://www.w3.org/1999/xlink" version="1.1" id="Capa_1" x="0px" y="0px" width="32px" height="32px" viewBox="0 0 32 32" enable-background="new 0 0 32 32" xml:space="preserve">
<path d="M28.132,23.736L32,16h-4c0-0.97-0.27-2.34-1.06-3.52l2.77-2.77l-1.42-1.42l-2.73,2.73C24.69,10.4,23.52,10,22,10V8h-2v8h-2  v-6h-2v6h-2V8h2V6h-2V4h-2v2h-2v2h2v7c0-1.21-0.8-3-3-3H2v2h4v2H0l3.868,7.736c-0.201,0.188-0.395,0.376-0.575,0.557  C2.339,25.247,1.586,26,0,26v2c2.414,0,3.686-1.271,4.707-2.293C5.661,24.753,6.414,24,8,24s2.339,0.753,3.293,1.707  C12.314,26.729,13.586,28,16,28s3.686-1.271,4.707-2.293C21.661,24.753,22.414,24,24,24s2.339,0.753,3.293,1.707  C28.314,26.729,29.586,28,32,28v-2c-1.586,0-2.339-0.753-3.293-1.707C28.526,24.112,28.333,23.924,28.132,23.736z M22,12  c3.85,0,4,3.59,4,4h-4V12z M8,14h1c0.81,0,0.99,0.55,1,1v1H8V14z M26.477,22.558C25.804,22.227,25.005,22,24,22  c-2.414,0-3.686,1.271-4.707,2.293C18.339,25.247,17.586,26,16,26s-2.339-0.753-3.293-1.707C11.686,23.271,10.414,22,8,22  c-1.005,0-1.804,0.227-2.477,0.558L3.24,18h25.52L26.477,22.558z"/>
</svg>
