<?xml version="1.0" encoding="utf-8"?>
<!-- Generator: Adobe Illustrator 16.0.0, SVG Export Plug-In . SVG Version: 6.00 Build 0)  -->
<svg xmlns="http://www.w3.org/2000/svg" xmlns:xlink="http://www.w3.org/1999/xlink" version="1.1" id="Capa_1" x="0px" y="0px" width="32px" height="32px" viewBox="0 0 32 32" enable-background="new 0 0 32 32" xml:space="preserve">
<path d="M30,17.379V14h-2v1.64c-1.691-1.104-3.519-1.613-4.655-1.699c-0.01-0.01-0.012-0.022-0.021-0.032l-3.616-3.616  c-0.391-0.391-1.023-0.391-1.414,0s-0.391,1.023,0,1.414l2.857,2.857c-0.543,0.358-1.067,0.827-1.606,1.312  c-1.119,1.006-2.275,2.046-3.544,2.046c-1.5,0-1.978-0.637-2.7-1.6c-0.684-0.912-1.52-2.007-3.3-2.312V8H7  c-3.491,0-4.713,3.565-4.952,6.067C0.573,14.503,0,15.912,0,16.922V21c0,1.02,0.582,2.447,2.087,2.868C2.5,26.214,4.536,28,7,28  c1.644,0,3.089-0.804,4-2.027V26h9.555c0.693,1.19,1.969,2,3.445,2c1.509,0,2.806-0.845,3.487-2.078H29c2.201,0,3-1.794,3-3  C32,20.543,31.169,18.735,30,17.379z M7,10h1v3.922H4.089C4.285,12.452,4.922,10,7,10z M7,26c-1.654,0-3-1.346-3-3s1.346-3,3-3  s3,1.346,3,3S8.654,26,7,26z M24,26c-1.103,0-2-0.897-2-2s0.897-2,2-2s2,0.897,2,2S25.103,26,24,26z M29,23.922h-1.008  C27.949,21.75,26.183,20,24,20c-2.209,0-4,1.791-4,4h-8.101C11.965,23.677,12,23.343,12,23c0-2.762-2.238-5-5-5  c-2.297,0-4.212,1.558-4.798,3.668C2.055,21.475,2.006,21.225,2,21v-4.066c0.012-0.461,0.195-1.012,1-1.012h6  c1.5,0,1.978,0.637,2.7,1.6c0.802,1.069,1.8,2.4,4.3,2.4c2.035,0,3.613-1.419,4.881-2.559c0.752-0.675,1.604-1.441,2.119-1.441  c1.544,0,7,1.677,7,6.988C29.988,23.372,29.806,23.922,29,23.922z"/>
</svg>
