<?xml version="1.0" encoding="utf-8"?>
<!-- Generator: Adobe Illustrator 16.0.0, SVG Export Plug-In . SVG Version: 6.00 Build 0)  -->
<svg xmlns="http://www.w3.org/2000/svg" xmlns:xlink="http://www.w3.org/1999/xlink" version="1.1" id="Capa_1" x="0px" y="0px" width="32px" height="32px" viewBox="0 0 32 32" enable-background="new 0 0 32 32" xml:space="preserve">
<path d="M26,16c-0.24,0-0.476,0.018-0.708,0.045l-3.351-9.382C21.8,6.266,21.423,6,21,6h-4c-0.552,0-1,0.448-1,1s0.448,1,1,1h3.295  l1.429,4h-9.522l-1.333-2H12c0.552,0,1-0.448,1-1s-0.448-1-1-1H7C6.448,8,6,8.448,6,9s0.448,1,1,1h1.465l1.664,2.496l-2.752,3.669  C6.934,16.061,6.475,16,6,16c-3.313,0-6,2.687-6,6s2.687,6,6,6s6-2.687,6-6h5l0,0c0.001,0,0.001,0,0.001,0  c0.135,0,0.268-0.038,0.396-0.094c0.028-0.013,0.056-0.023,0.083-0.039c0.024-0.014,0.052-0.02,0.075-0.035  c0.067-0.045,0.112-0.108,0.165-0.165c0.024-0.026,0.059-0.039,0.08-0.067l4.98-6.641l0.591,1.654C21.377,17.588,20,19.631,20,22  c0,3.313,2.687,6,6,6s6-2.687,6-6S29.313,16,26,16z M6,26c-2.206,0-4-1.794-4-4s1.794-4,4-4c0,0,0,0,0,0l-1.8,2.4  c-0.228,0.303-0.264,0.708-0.095,1.047S4.621,22,5,22h5C10,24.206,8.206,26,6,26z M9.444,20H7l1.059-1.412  C8.632,18.936,9.105,19.42,9.444,20z M11.651,20c-0.443-1.252-1.287-2.313-2.381-3.026l2.035-2.713L15.131,20H11.651z M17.048,19.27  L13.535,14H21L17.048,19.27z M26,26c-2.206,0-4-1.794-4-4c0-1.496,0.835-2.788,2.055-3.474l1.004,2.81  C25.204,21.745,25.589,22,26,22c0.111,0,0.226-0.019,0.336-0.059c0.521-0.186,0.792-0.758,0.605-1.277l-0.951-2.663  C25.994,18.001,25.997,18,26,18c2.206,0,4,1.794,4,4S28.206,26,26,26z"/>
</svg>
