<?xml version="1.0" encoding="utf-8"?>
<!-- Generator: Adobe Illustrator 16.0.0, SVG Export Plug-In . SVG Version: 6.00 Build 0)  -->
<svg xmlns="http://www.w3.org/2000/svg" xmlns:xlink="http://www.w3.org/1999/xlink" version="1.1" id="Capa_1" x="0px" y="0px" width="32px" height="32px" viewBox="0 0 32 32" enable-background="new 0 0 32 32" xml:space="preserve">
<g>
	<path d="M32,15c0-1.528-1.032-2.953-2.732-4.198C30.553,9.898,32,8.539,32,7c0-2.201-1.794-3-3-3h-4   c-1.745,0-3.258,1.858-4.14,3.234C17.723,6.448,14.272,6,11,6C0.126,6,0,14.91,0,15s0.126,9,11,9c3.272,0,6.723-0.448,9.86-1.233   C21.742,24.143,23.255,26,25,26h4c1.206,0,3-0.799,3-3c0-1.539-1.446-2.898-2.732-3.803C30.969,17.952,32,16.528,32,15z M25,6   h3.988C29.45,6.012,30,6.195,30,7c0,0.733-1.336,1.852-2.614,2.635C26.077,8.94,24.555,8.324,22.9,7.807   C23.604,6.831,24.423,6,25,6z M30,23c0,0.806-0.55,0.988-1,1h-4c-0.577,0-1.396-0.83-2.1-1.807   c1.654-0.518,3.177-1.133,4.485-1.828C28.664,21.147,30,22.267,30,23z M11,22c-8.838,0-8.998-6.718-9-7c0-0.286,0.103-7,9-7   c9.786,0,19,3.943,19,7S20.786,22,11,22z"/>
	<path d="M27,14h-6c-0.553,0-1,0.448-1,1s0.447,1,1,1h6c0.553,0,1-0.448,1-1S27.553,14,27,14z"/>
	<path d="M17,26H9c-0.552,0-1,0.447-1,1s0.448,1,1,1h8c0.553,0,1-0.447,1-1S17.553,26,17,26z"/>
</g>
</svg>
