<?xml version="1.0" encoding="utf-8"?>
<!-- Generator: Adobe Illustrator 16.0.0, SVG Export Plug-In . SVG Version: 6.00 Build 0)  -->
<svg xmlns="http://www.w3.org/2000/svg" xmlns:xlink="http://www.w3.org/1999/xlink" version="1.1" id="Outlined_2_" x="0px" y="0px" width="32px" height="32px" viewBox="0 0 32 32" enable-background="new 0 0 32 32" xml:space="preserve">
<g>
	<rect y="6" width="32" height="2"/>
</g>
<path d="M0,10v15c0,0.48,0.34,0.89,0.81,0.98c0.47,0.1,0.94-0.16,1.12-0.61C2.08,24.99,5.83,16,16,16s13.92,8.99,14.07,9.37  C30.23,25.76,30.6,26,31,26c0.06,0,0.13-0.01,0.19-0.02C31.66,25.89,32,25.48,32,25V10H0z M6,17.27c-1.74,1.29-3.06,2.771-4,4.07V12  h4V17.27z M12,14.46c-1.49,0.35-2.82,0.88-4,1.52V12h4V14.46z M18,14.12C17.36,14.05,16.7,14,16,14s-1.36,0.05-2,0.12V12h4V14.12z   M24,15.98c-1.18-0.64-2.51-1.17-4-1.52V12h4V15.98z M30,21.34c-0.94-1.3-2.26-2.78-4-4.07V12h4V21.34z"/>
</svg>
