<?xml version="1.0" encoding="utf-8"?>
<!-- Generator: Adobe Illustrator 16.0.0, SVG Export Plug-In . SVG Version: 6.00 Build 0)  -->
<svg xmlns="http://www.w3.org/2000/svg" xmlns:xlink="http://www.w3.org/1999/xlink" version="1.1" id="Outlined_2_" x="0px" y="0px" width="32px" height="32px" viewBox="0 0 32 32" enable-background="new 0 0 32 32" xml:space="preserve">
<path d="M32,18h-4.666l-0.257-0.614C25.201,12.899,20.853,10,16,10c-4.853,0-9.201,2.899-11.078,7.386L4.666,18H0v-2h3.352  C5.669,11.118,10.563,8,16,8c5.437,0,10.33,3.118,12.648,8H32V18z M32,22h-8c0-4.411-3.589-8-8-8s-8,3.589-8,8H0v2h10v-2  c0-3.309,2.691-6,6-6s6,2.691,6,6v2h10V22z"/>
</svg>
