<?xml version="1.0" encoding="utf-8"?>
<!-- Generator: Adobe Illustrator 16.0.0, SVG Export Plug-In . SVG Version: 6.00 Build 0)  -->
<svg xmlns="http://www.w3.org/2000/svg" xmlns:xlink="http://www.w3.org/1999/xlink" version="1.1" id="Capa_1" x="0px" y="0px" width="32px" height="32px" viewBox="0 0 32 32" enable-background="new 0 0 32 32" xml:space="preserve">
<g>
	<path d="M25.45,12.11c-1.34-0.67-2.181-1.6-3.061-2.57C20.81,7.8,19.18,6,15,6H0v2h4v4H0v2h9c2.2,0,3-1.79,3-3V8h2v3   c0,1.21,0.8,3,3,3h7.76c5.23,2.66,5.24,4.24,5.24,5c0,2.82-2.5,2.99-3,3H0v2h27c1.73,0,5-1.04,5-5   C32,17.12,31.21,14.98,25.45,12.11z M10,10.99C9.99,11.45,9.81,12,9,12H6V8h4V10.99z M17,12c-0.81,0-0.99-0.55-1-1V8.05   c2.54,0.24,3.61,1.4,4.91,2.83c0.33,0.36,0.67,0.74,1.05,1.12H17z"/>
	<path d="M16,17c0,0.55-0.45,1-1,1H0v-2h15C15.55,16,16,16.45,16,17z"/>
	<path d="M32,27c0,0.55-0.45,1-1,1H0v-2h31C31.55,26,32,26.45,32,27z"/>
</g>
</svg>
