<?xml version="1.0" encoding="utf-8"?>
<!-- Generator: Adobe Illustrator 16.0.0, SVG Export Plug-In . SVG Version: 6.00 Build 0)  -->
<svg xmlns="http://www.w3.org/2000/svg" xmlns:xlink="http://www.w3.org/1999/xlink" version="1.1" id="Capa_1" x="0px" y="0px" width="32px" height="32px" viewBox="0 0 32 32" enable-background="new 0 0 32 32" xml:space="preserve">
<path d="M32,18v-4h-5.41L24,16.59V20h-2v-3c0-0.38-0.21-0.73-0.55-0.89l-3.63-1.82L16.39,10H18V8H4.28l-2,6H0v11c0,1.21,0.8,3,3,3  h16c1,0,2.39-0.56,2.84-2h2.75l2,2H32v-4h-2v2h-2.59L26,24.59v-7.18L27.41,16H30v2H32z M10,10h4.28l1.33,4H11c-0.81,0-0.99-0.55-1-1  V10z M18.99,26H3c-0.81,0-0.99-0.55-1-1c0-0.81,0.55-0.99,1-1h15.99c0.46,0.01,1.01,0.19,1.01,1C20,25.8,19.45,25.99,18.99,26z   M20,22H2v-6h1.72l2-6H8v3c0,1.21,0.8,3,3,3h5.76L20,17.62V22z M24,24h-2v-2h2V24z"/>
</svg>
