<?xml version="1.0" encoding="utf-8"?>
<!-- Generator: Adobe Illustrator 16.0.0, SVG Export Plug-In . SVG Version: 6.00 Build 0)  -->
<svg xmlns="http://www.w3.org/2000/svg" xmlns:xlink="http://www.w3.org/1999/xlink" version="1.1" id="Capa_1" x="0px" y="0px" width="32px" height="32px" viewBox="0 0 32 32" enable-background="new 0 0 32 32" xml:space="preserve">
<path d="M23,8H3c-2.201,0-3,1.794-3,3v12c0,2.201,1.794,3,3,3h1.555C5.248,27.19,6.523,28,8,28s2.752-0.81,3.445-2h9.109  c0.693,1.19,1.969,2,3.445,2s2.752-0.81,3.445-2H29c2.201,0,3-1.794,3-3C32,15.534,29.217,8,23,8z M29.022,16H20v-6h3  C26.204,10,28.04,12.751,29.022,16z M10,16v-6h8v6H10z M3,10h5v6H2v-4.988C2.012,10.55,2.195,10,3,10z M8,26c-1.103,0-2-0.897-2-2  s0.897-2,2-2s2,0.897,2,2S9.103,26,8,26z M24,26c-1.103,0-2-0.897-2-2s0.897-2,2-2s2,0.897,2,2S25.103,26,24,26z M29,24h-1  c0-2.209-1.791-4-4-4s-4,1.791-4,4h-8c0-2.209-1.791-4-4-4s-4,1.791-4,4H3.012C2.55,23.988,2,23.806,2,23v-5h27.518  C29.861,19.757,30,21.527,30,22.988C29.988,23.45,29.806,24,29,24z"/>
</svg>
