<?xml version="1.0" encoding="utf-8"?>
<!-- Generator: Adobe Illustrator 16.0.0, SVG Export Plug-In . SVG Version: 6.00 Build 0)  -->
<svg xmlns="http://www.w3.org/2000/svg" xmlns:xlink="http://www.w3.org/1999/xlink" version="1.1" id="Outlined_2_" x="0px" y="0px" width="32px" height="32px" viewBox="0 0 32 32" enable-background="new 0 0 32 32" xml:space="preserve">
<path d="M30.43,6.53c-1.46-0.902-3.588-1.16-5.179-0.692l-1.544-1.545l-1.414,1.414l1.19,1.191  c-0.675,0.649-1.308,1.521-1.963,2.431C20.801,10.328,19.597,12,18.998,12c-0.215,0-0.404-0.26-0.831-0.993  C17.471,9.81,16.418,8,13.5,8c-3.021,0-4.089,1.75-4.795,2.909c-0.387,0.634-0.642,1.028-0.992,1.132  c-1.979,0.589-2.717,2.388-3.256,3.702c-0.119,0.291-0.231,0.567-0.351,0.807c-0.7,1.398-2.061,1.446-2.106,1.447l-0.001,2h0  c0.111,0,2.632-0.03,3.896-2.553c0.141-0.281,0.273-0.603,0.413-0.943c0.449-1.095,0.914-2.228,1.975-2.543  c1.106-0.328,1.65-1.221,2.13-2.008C11.077,10.86,11.602,10,13.5,10c1.768,0,2.311,0.933,2.938,2.012  C16.953,12.898,17.595,14,18.998,14c1.623,0,2.849-1.701,4.146-3.502c0.766-1.064,1.634-2.27,2.303-2.604  c0.979-0.49,2.854-0.33,3.932,0.336C29.61,8.374,29.999,8.665,29.999,9c0,0.449-0.552,1-1,1h-2c-0.408,0-0.776,0.249-0.929,0.628  c-0.028,0.071-2.183,5.35-5.488,7.952l-0.632-1.896l-1.896,0.633l0.769,2.308C18.238,19.859,17.629,20,16.998,20  c-4.652,0-7.146-0.696-8.346-1.199l-0.706-2.117l-1.897,0.633l1.869,5.606l-1.815,3.63C6.034,26.691,6,26.845,6,27v3h1.998v-2.764  l1.895-3.789c0.119-0.237,0.138-0.512,0.054-0.764l-0.503-1.51C11.088,21.623,13.502,22,16.998,22c0.862,0,1.677-0.189,2.452-0.493  l0.472,1.416l-1.814,3.63c-0.069,0.139-0.105,0.292-0.105,0.447v3H20v-2.764l1.896-3.789c0.118-0.237,0.138-0.512,0.054-0.764  l-0.712-2.136c3.393-2.343,5.666-6.871,6.419-8.548h1.342c1.542,0,3-1.458,3-3C31.999,8.032,31.441,7.155,30.43,6.53z"/>
</svg>
