<?xml version="1.0" encoding="utf-8"?>
<!-- Generator: Adobe Illustrator 16.0.0, SVG Export Plug-In . SVG Version: 6.00 Build 0)  -->
<svg xmlns="http://www.w3.org/2000/svg" xmlns:xlink="http://www.w3.org/1999/xlink" version="1.1" id="Outlined_2_" x="0px" y="0px" width="32px" height="32px" viewBox="0 0 32 32" enable-background="new 0 0 32 32" xml:space="preserve">
<g>
	<path d="M27.335,4.666c-1.511-1.511-3.52-2.343-5.656-2.343s-4.146,0.832-5.657,2.343l-4.95,4.95c-0.853,0.853-1.556,2.686,0,4.242   l0.708,0.707L2,24.344V30h5.656l9.779-9.779l0.707,0.707c0.095,0.095,0.957,0.922,2.174,0.922c0.524,0,1.309-0.16,2.069-0.922   l4.949-4.949c1.512-1.511,2.344-3.52,2.344-5.657C29.679,8.185,28.847,6.176,27.335,4.666z M11.118,23.71l-1.411-1.411   l-1.414,1.414l1.411,1.411L6.828,28H4v-2.828l5.878-5.879l1.415,1.415l1.414-1.414l-1.415-1.415l1.9-1.9l2.829,2.829L11.118,23.71z    M25.921,14.565l-4.949,4.949c-0.336,0.336-0.576,0.336-0.654,0.336c-0.001,0-0.001,0-0.001,0c-0.333,0-0.667-0.249-0.76-0.336   l-7.071-7.07c-0.569-0.569-0.31-1.088,0-1.414l4.95-4.95c1.134-1.133,2.641-1.757,4.243-1.757s3.109,0.624,4.242,1.757   c1.134,1.133,1.758,2.64,1.758,4.243S27.055,13.432,25.921,14.565z"/>
	<path d="M24.508,7.493c-0.97-0.97-1.976-1.462-2.989-1.462c-1.173,0-1.884,0.678-1.961,0.755l-2.121,2.121l5.657,5.657l2.121-2.122   c0.099-0.098,0.596-0.635,0.725-1.538C26.053,10.114,25.896,8.881,24.508,7.493z M23.801,11.028l-0.707,0.708l-2.829-2.829   l0.687-0.687c0.009-0.008,0.219-0.189,0.567-0.189c0.457,0,1.002,0.303,1.575,0.876C24.395,10.208,23.895,10.919,23.801,11.028z"/>
</g>
</svg>
