<?xml version="1.0" encoding="utf-8"?>
<!-- Generator: Adobe Illustrator 16.0.0, SVG Export Plug-In . SVG Version: 6.00 Build 0)  -->
<svg xmlns="http://www.w3.org/2000/svg" xmlns:xlink="http://www.w3.org/1999/xlink" version="1.1" id="Capa_1" x="0px" y="0px" width="32px" height="32px" viewBox="0 0 32 32" enable-background="new 0 0 32 32" xml:space="preserve">
<path d="M24,16c0-1.104,0.896-2,2-2s2,0.896,2,2s-0.896,2-2,2S24,17.104,24,16z M32,14.81V19v3c0,0,0,2-2,2h-2c0,0-2,0-2-2H16v-2h6  v-2h-6v-2h8v4h4.99c0.46-0.01,1.01-0.2,1.01-1v-3.81L28.72,12H5.12l2.95-7.37C8.16,4.45,9.42,2,13,2h10c3.58,0,4.84,2.45,4.89,2.55  L32,14.81z M27.92,10l-1.85-4.63c-0.011,0-0.21-0.34-0.69-0.69C24.9,4.34,24.14,4,23,4H13c-2.3,0-3.08,1.4-3.11,1.46L8.07,10H27.92z   M8.001,14.08v6.51l-1,1l-1-1v-6.51c-3.391,0.48-6,3.4-6,6.92c0,2.791,1.641,5.201,4,6.311V32h2v-6.1c-2.279-0.459-4-2.48-4-4.9  c0-1.64,0.79-3.09,2-4v4.41l3,3l3-3V17c1.21,0.91,2,2.36,2,4c0,2.42-1.721,4.441-4,4.9V32h2v-4.689c2.359-1.109,4-3.52,4-6.311  C14.001,17.48,11.392,14.56,8.001,14.08z"/>
</svg>
