<?xml version="1.0" encoding="utf-8"?>
<!-- Generator: Adobe Illustrator 16.0.0, SVG Export Plug-In . SVG Version: 6.00 Build 0)  -->
<svg xmlns="http://www.w3.org/2000/svg" xmlns:xlink="http://www.w3.org/1999/xlink" version="1.1" id="Capa_1" x="0px" y="0px" width="32px" height="32px" viewBox="0 0 32 32" enable-background="new 0 0 32 32" xml:space="preserve">
<path d="M20,10.167V4c0-1.608-1.065-4-4-4s-4,2.392-4,4v6.167C6.821,11.199,0,14.042,0,17c0,2.201,1.794,3,3,3h1v2h2v-2h2v2h2v-2h2  v4l-2,1v7l6-2l6,2v-7l-2-1v-4h2v2h2v-2h2v2h2v-2h1c1.206,0,3-0.799,3-3C32,14.042,25.179,11.199,20,10.167z M16,2  c1.826,0,1.992,1.537,2,2h-4C14,3.666,14.096,2,16,2z M29,18H18v7.23l2,1v2.989C19.33,29,16.67,28.24,16,28  c-0.67,0.24-3.33,1-4,1.22V26.23l2-1V18H3.012C2.55,17.988,2,17.806,2,17c0-0.94,4.714-3.938,11.165-5.014L14,11.847V6h4v5.847  l0.836,0.139C25.285,13.062,30,16.06,30,17C30,17.806,29.45,17.988,29,18z"/>
</svg>
