<?xml version="1.0" encoding="utf-8"?>
<!-- Generator: Adobe Illustrator 16.0.0, SVG Export Plug-In . SVG Version: 6.00 Build 0)  -->
<svg xmlns="http://www.w3.org/2000/svg" xmlns:xlink="http://www.w3.org/1999/xlink" version="1.1" id="Capa_1" x="0px" y="0px" width="32px" height="32px" viewBox="0 0 32 32" enable-background="new 0 0 32 32" xml:space="preserve">
<path d="M29,12h-4c-0.465,0-1.615-1.726-2.168-2.555C21.65,7.673,20.535,6,19,6h-8C0.126,6,0,16.89,0,17v5.75h0.015  C0.009,22.834,0,22.922,0,23c0,2.201,1.794,3,3,3h1.555C5.248,27.19,6.523,28,8,28s2.752-0.81,3.445-2h9.109  c0.693,1.19,1.969,2,3.445,2s2.752-0.81,3.445-2H29c2.201,0,3-1.794,3-3v-8C32,12.799,30.206,12,29,12z M21.168,10.555  c0.336,0.503,0.667,0.994,1.003,1.445H16V8h3C19.465,8,20.615,9.726,21.168,10.555z M14,8v4h-3c-0.805,0-0.988-0.55-1-1V8.062  C10.327,8.036,10.645,8,11,8H14z M8,26c-1.103,0-2-0.897-2-2s0.897-2,2-2s2,0.897,2,2S9.103,26,8,26z M12,24c0-2.209-1.791-4-4-4  s-4,1.791-4,4H3.012C2.55,23.988,2,23.806,2,23c0-1.632,1.711-5,7-5c4.916,0,4.999,5.757,5,6H12z M24,26c-1.103,0-2-0.897-2-2  s0.897-2,2-2s2,0.897,2,2S25.103,26,24,26z M29,24h-1c0-2.209-1.791-4-4-4s-4,1.791-4,4h-4c0-2.767-1.463-8-7-8  c-3.362,0-5.597,1.154-7,2.596V17c0-0.32,0.082-6.921,6-8.607V11c0,1.206,0.799,3,3,3h14h3.988C29.45,14.012,30,14.195,30,15v1h-2v2  h2v4.988C29.988,23.45,29.806,24,29,24z"/>
</svg>
