<?xml version="1.0" encoding="utf-8"?>
<!-- Generator: Adobe Illustrator 16.0.0, SVG Export Plug-In . SVG Version: 6.00 Build 0)  -->
<svg xmlns="http://www.w3.org/2000/svg" xmlns:xlink="http://www.w3.org/1999/xlink" version="1.1" id="Outlined_2_" x="0px" y="0px" width="32px" height="32px" viewBox="0 0 32 32" enable-background="new 0 0 32 32" xml:space="preserve">
<path d="M19.99,15.88c-0.021-1.02-0.44-1.98-1.16-2.71c-0.69-0.69-1.64-1.07-2.6-1.12L9.25,9.26l2.76,6.88  c0.03,0.971,0.42,1.95,1.16,2.69c0.71,0.71,1.67,1.13,2.68,1.16l6.9,2.76L19.99,15.88z M16,18c-1.1,0-2-0.9-2-2c0-1.1,0.9-2,2-2  c1.1,0,2,0.9,2,2C18,17.1,17.1,18,16,18z M19.99,15.88c-0.021-1.02-0.44-1.98-1.16-2.71c-0.69-0.69-1.64-1.07-2.6-1.12L9.25,9.26  l2.76,6.88c0.03,0.971,0.42,1.95,1.16,2.69c0.71,0.71,1.67,1.13,2.68,1.16l6.9,2.76L19.99,15.88z M16,18c-1.1,0-2-0.9-2-2  c0-1.1,0.9-2,2-2c1.1,0,2,0.9,2,2C18,17.1,17.1,18,16,18z M16,2C8.28,2,2,8.28,2,16c0,7.72,6.28,14,14,14c7.72,0,14-6.28,14-14  C30,8.28,23.72,2,16,2z M16,28C9.38,28,4,22.62,4,16S9.38,4,16,4s12,5.38,12,12S22.62,28,16,28z M18.83,13.17  c-0.69-0.69-1.64-1.07-2.6-1.12L9.25,9.26l2.76,6.88c0.03,0.971,0.42,1.95,1.16,2.69c0.71,0.71,1.67,1.13,2.68,1.16l6.9,2.76  l-2.76-6.87C19.97,14.86,19.55,13.9,18.83,13.17z M16,18c-1.1,0-2-0.9-2-2c0-1.1,0.9-2,2-2c1.1,0,2,0.9,2,2C18,17.1,17.1,18,16,18z"/>
</svg>
