<?xml version="1.0" encoding="utf-8"?>
<!-- Generator: Adobe Illustrator 16.0.0, SVG Export Plug-In . SVG Version: 6.00 Build 0)  -->
<svg xmlns="http://www.w3.org/2000/svg" xmlns:xlink="http://www.w3.org/1999/xlink" version="1.1" id="Capa_1" x="0px" y="0px" width="32px" height="32px" viewBox="0 0 32 32" enable-background="new 0 0 32 32" xml:space="preserve">
<path d="M17,8H7c-2.571,0-7,4.447-7,9v6c0,2.201,1.794,3,3,3h1.555C5.248,27.19,6.523,28,8,28s2.752-0.81,3.445-2h7.109  c0.693,1.19,1.969,2,3.445,2s2.752-0.81,3.445-2H27c2.201,0,3-1.794,3-3v-4C30,16.402,21.404,8,17,8z M23.865,14h-8.854  C14.55,13.988,14,13.805,14,13v-3h3C18.761,10,21.539,11.909,23.865,14z M7,10h1v3c0,0.805-0.55,0.988-1,1H2.803  C3.961,11.74,6.065,10,7,10z M8,26c-1.103,0-2-0.897-2-2s0.897-2,2-2s2,0.897,2,2S9.103,26,8,26z M22,26c-1.103,0-2-0.897-2-2  s0.897-2,2-2s2,0.897,2,2S23.103,26,22,26z M28,22.988C27.988,23.45,27.806,24,27,24h-1c0-2.209-1.791-4-4-4s-4,1.791-4,4h-6  c0-2.209-1.791-4-4-4s-4,1.791-4,4H3.012C2.55,23.988,2,23.806,2,23v-6c0-0.335,0.042-0.668,0.104-1H7c1.206,0,3-0.799,3-3v-3h2v3  c0,2.201,1.794,3,3,3h10.902c1.206,1.301,2.039,2.453,2.098,3V22.988z"/>
</svg>
