<?xml version="1.0" encoding="utf-8"?>
<!-- Generator: Adobe Illustrator 16.0.0, SVG Export Plug-In . SVG Version: 6.00 Build 0)  -->
<svg xmlns="http://www.w3.org/2000/svg" xmlns:xlink="http://www.w3.org/1999/xlink" version="1.1" id="Capa_1" x="0px" y="0px" width="32px" height="32px" viewBox="0 0 32 32" enable-background="new 0 0 32 32" xml:space="preserve">
<path d="M21.637,14.037l-1.742-3.484c-0.248-0.494-0.848-0.695-1.342-0.447c-0.494,0.247-0.694,0.848-0.447,1.342l1.436,2.87  c-0.381,0.176-0.701,0.399-1.001,0.611C17.796,15.456,17.025,16,15,16c-1.25,0-2.206-0.096-3-0.243V14c0-1.206-0.799-3-3-3  c-2.131,0-2.94,1.776-2.99,3.049C5.695,14.02,5.365,14,5,14H3c-2.201,0-3,1.794-3,3v6c0,2.201,1.794,3,3,3h1.555  C5.248,27.19,6.523,28,8,28s2.752-0.81,3.445-2h9.109c0.693,1.19,1.969,2,3.445,2s2.752-0.81,3.445-2H29c2.373,0,3-2.616,3-4  C32,18.467,25.964,14.415,21.637,14.037z M8,14.177C8,13.901,8.072,13,9,13c0.805,0,0.988,0.55,1,1v1.196  c-0.233-0.088-0.461-0.177-0.685-0.267C8.896,14.761,8.47,14.59,8,14.442V14.177z M8,26c-1.103,0-2-0.897-2-2s0.897-2,2-2  s2,0.897,2,2S9.103,26,8,26z M24,26c-1.103,0-2-0.897-2-2s0.897-2,2-2s2,0.897,2,2S25.103,26,24,26z M29,24h-1c0-2.209-1.791-4-4-4  s-4,1.791-4,4h-8c0-2.209-1.791-4-4-4s-4,1.791-4,4H3.012C2.55,23.988,2,23.806,2,23v-5.988C2.012,16.55,2.195,16,3,16h2  c1.616,0,2.478,0.347,3.569,0.785C9.987,17.354,11.593,18,15,18c2.661,0,3.837-0.831,4.695-1.438C20.246,16.172,20.51,16,21,16  c3.797,0,9,3.827,9,5.997C30,22.017,29.944,24,29,24z"/>
</svg>
