<?xml version="1.0" encoding="utf-8"?>
<!-- Generator: Adobe Illustrator 16.0.0, SVG Export Plug-In . SVG Version: 6.00 Build 0)  -->
<svg xmlns="http://www.w3.org/2000/svg" xmlns:xlink="http://www.w3.org/1999/xlink" version="1.1" id="Capa_1" x="0px" y="0px" width="32px" height="32px" viewBox="0 0 32 32" enable-background="new 0 0 32 32" xml:space="preserve">
<path d="M27,10h-7V8h-2v10h-6v-3c0-1.136-0.526-2.793-1.372-4.211L24,2.766V5c0,1.206,0.799,3,3,3s3-1.794,3-3  c0-0.547-0.44-0.986-0.987-0.993c-0.005,0-0.009,0-0.013,0c-0.542,0-0.986,0.438-1,0.981C27.988,5.45,27.806,6,27,6s-0.988-0.55-1-1  V1c0-0.36-0.193-0.693-0.507-0.87c-0.313-0.178-0.698-0.174-1.008,0.013L9.41,9.188C8.692,8.472,7.871,8,7,8H0v15  c0,2.201,1.794,3,3,3h1.555C5.248,27.19,6.523,28,8,28s2.752-0.81,3.445-2h9.109c0.693,1.19,1.969,2,3.445,2s2.752-0.81,3.445-2H29  c2.201,0,3-1.794,3-3v-4C32,18.241,29.139,10,27,10z M28.894,16H25c-0.806,0-0.988-0.55-1-1v-3h2.75  C27.256,12.53,28.164,14.338,28.894,16z M7,10c0.631,0,1.42,0.898,2.032,2H4v2h5.851C9.944,14.362,10,14.705,10,15v3H3  c-0.378,0-0.701,0.068-1,0.162V10H7z M8,26c-1.103,0-2-0.897-2-2s0.897-2,2-2s2,0.897,2,2S9.103,26,8,26z M24,26  c-1.103,0-2-0.897-2-2s0.897-2,2-2s2,0.897,2,2S25.103,26,24,26z M30,22.988C29.988,23.45,29.806,24,29,24h-1c0-2.209-1.791-4-4-4  s-4,1.791-4,4h-8c0-2.209-1.791-4-4-4s-4,1.791-4,4H3c-1,0-1-1-1-1v-2c0,0,0-1,1-1h5h12v-8h2v3c0,1.206,0.799,3,3,3h4.705  c0.167,0.462,0.277,0.822,0.295,1V22.988z"/>
</svg>
