<?xml version="1.0" encoding="utf-8"?>
<!-- Generator: Adobe Illustrator 16.0.0, SVG Export Plug-In . SVG Version: 6.00 Build 0)  -->
<svg xmlns="http://www.w3.org/2000/svg" xmlns:xlink="http://www.w3.org/1999/xlink" version="1.1" id="Capa_1" x="0px" y="0px" width="32px" height="32px" viewBox="0 0 32 32" enable-background="new 0 0 32 32" xml:space="preserve">
<path d="M3.293,24.293C2.339,25.247,1.586,26,0,26v2c2.414,0,3.686-1.271,4.707-2.293C5.661,24.753,6.414,24,8,24  s2.339,0.753,3.293,1.707C12.314,26.729,13.586,28,16,28s3.686-1.271,4.707-2.293C21.66,24.753,22.414,24,24,24  s2.34,0.753,3.293,1.707C28.314,26.729,29.586,28,32,28v-2c-1.586,0-2.34-0.753-3.293-1.707c-0.181-0.181-0.374-0.369-0.575-0.557  L32,16h-4.322l-4-10H18c-0.774,0-1.373,0.496-1.952,0.975C15.44,7.479,14.812,8,14,8h-4V6H8v2H6V4H4v4v1v7H0l3.868,7.736  C3.667,23.924,3.474,24.112,3.293,24.293z M23.923,12H6v-2h8c1.532,0,2.568-0.858,3.324-1.485c0.232-0.192,0.583-0.483,0.717-0.519  L22.322,8L23.923,12z M25.523,16H6v-2h18.723L25.523,16z M8,22c-1.005,0-1.804,0.227-2.477,0.558L3.24,18h25.52l-2.283,4.558  C25.804,22.227,25.005,22,24,22c-2.414,0-3.686,1.271-4.707,2.293C18.34,25.247,17.586,26,16,26s-2.339-0.753-3.293-1.707  C11.686,23.271,10.414,22,8,22z"/>
</svg>
