<?xml version="1.0" encoding="utf-8"?>
<!-- Generator: Adobe Illustrator 16.0.0, SVG Export Plug-In . SVG Version: 6.00 Build 0)  -->
<svg xmlns="http://www.w3.org/2000/svg" xmlns:xlink="http://www.w3.org/1999/xlink" version="1.1" id="Capa_1" x="0px" y="0px" width="32px" height="32px" viewBox="0 0 32 32" enable-background="new 0 0 32 32" xml:space="preserve">
<path d="M27,18c-0.267,0-0.522,0.038-0.777,0.078L25.443,16H26c1.299,0,2-1.03,2-2v-4c0-0.97-0.701-2-2-2h-3.557l-0.507-1.351  C21.79,6.259,21.417,6,21,6h-4c-0.552,0-1,0.448-1,1s0.448,1,1,1h3.307l0.915,2.439C20.609,10.168,19.88,10,19,10  c-2.215,0-3.624,1.03-4.986,2.026C12.625,13.041,11.313,14,9,14H8v-3c0-1.206-0.799-3-3-3s-3,1.794-3,3v5.47  C0.501,18.453,0,21.191,0,23v1h2.101C2.566,26.279,4.585,28,7,28s4.434-1.721,4.899-4H15c2.041,0,7.507-1.741,8.742-6.84  l0.605,1.616C22.941,19.661,22,21.216,22,23c0,2.762,2.238,5,5,5s5-2.238,5-5S29.762,18,27,18z M26,10v4h-1.307l-1.5-4H26z   M11.936,22H2.064C2.275,20.059,3.173,16,7,16S11.725,20.059,11.936,22z M5,10c0.805,0,0.988,0.55,1,1v3.069  c-0.755,0.106-1.412,0.343-2,0.661v-3.718C4.012,10.55,4.195,10,5,10z M7,26c-1.302,0-2.401-0.839-2.815-2h5.631  C9.401,25.161,8.302,26,7,26z M15,22h-1.046c-0.177-2.005-0.895-4.612-2.613-6.295c1.627-0.437,2.79-1.287,3.853-2.064  C16.448,12.724,17.438,12,19,12c2.823,0,2.994,2.503,3,3C22,20.323,16.543,22,15,22z M27,26c-1.654,0-3-1.346-3-3  c0-0.918,0.424-1.731,1.076-2.282l0.987,2.634C26.214,23.753,26.596,24,27,24c0.117,0,0.235-0.021,0.352-0.063  c0.517-0.194,0.778-0.771,0.585-1.288l-0.991-2.643C26.964,20.005,26.981,20,27,20c1.654,0,3,1.346,3,3S28.654,26,27,26z"/>
</svg>
