<?xml version="1.0" encoding="utf-8"?>
<!-- Generator: Adobe Illustrator 16.0.0, SVG Export Plug-In . SVG Version: 6.00 Build 0)  -->
<svg xmlns="http://www.w3.org/2000/svg" xmlns:xlink="http://www.w3.org/1999/xlink" version="1.1" id="Capa_1" x="0px" y="0px" width="32px" height="32px" viewBox="0 0 32 32" enable-background="new 0 0 32 32" xml:space="preserve">
<path d="M27,18c-0.203,0-0.396,0.036-0.593,0.06l-2.459-7.376C23.813,10.275,23.431,10,23,10h-4c-0.553,0-1,0.448-1,1s0.447,1,1,1  h3.279l1.059,3.177L16.583,22H16v-7c0-2.201-1.794-3-3-3H9c-0.805,0-0.988-0.55-1-1V8h6V6H3C0.799,6,0,7.794,0,9v15h2.101  c0.463,2.282,2.48,4,4.899,4s4.436-1.718,4.899-4h5.518l6.631-6.696l0.461,1.385C23.016,19.553,22,21.15,22,23c0,2.762,2.238,5,5,5  s5-2.238,5-5S29.762,18,27,18z M2.101,22H2V9.012C2.012,8.55,2.195,8,3,8h3v3c0,1.206,0.799,3,3,3h3.988  C13.45,14.012,14,14.195,14,15v7h-2.101c-0.463-2.282-2.48-4-4.899-4S2.564,19.718,2.101,22z M7,26c-1.654,0-3-1.346-3-3  s1.346-3,3-3s3,1.346,3,3S8.654,26,7,26z M27,26c-1.654,0-3-1.346-3-3c0-0.959,0.46-1.804,1.162-2.354l0.89,2.67  C26.191,23.735,26.581,24,27,24c0.104,0,0.211-0.017,0.316-0.052c0.523-0.174,0.807-0.74,0.632-1.265l-0.893-2.678  C28.684,20.036,30,21.365,30,23C30,24.654,28.654,26,27,26z"/>
</svg>
