<?xml version="1.0" encoding="utf-8"?>
<!-- Generator: Adobe Illustrator 16.0.0, SVG Export Plug-In . SVG Version: 6.00 Build 0)  -->
<svg xmlns="http://www.w3.org/2000/svg" xmlns:xlink="http://www.w3.org/1999/xlink" version="1.1" id="Capa_1" x="0px" y="0px" width="32px" height="32px" viewBox="0 0 32 32" enable-background="new 0 0 32 32" xml:space="preserve">
<g>
	<path d="M0,26v2c2.41,0,3.69-1.27,4.71-2.29C5.66,24.75,6.41,24,8,24s2.34,0.75,3.29,1.71C12.31,26.73,13.59,28,16,28   s3.689-1.27,4.71-2.29C21.66,24.75,22.41,24,24,24s2.34,0.75,3.29,1.71C28.311,26.73,29.59,28,32,28v-2   c-1.59,0-2.34-0.75-3.29-1.71c-0.181-0.18-0.38-0.37-0.58-0.55L32,16h-4.59l-4-4H20v-1c0-1.54-1.46-3-3-3h-1V6h2V4h-2V2h-2v6h-2v2   c-1.29,0-2.49,0.41-3.47,1.11L5.71,8.29L4.29,9.71l2.82,2.82C6.41,13.51,6,14.71,6,16H0l3.87,7.74c-0.2,0.18-0.4,0.37-0.58,0.55   C2.34,25.25,1.59,26,0,26z M12,16H8c0-2.21,1.79-4,4-4V16z M18,16h-4v-6h3c0.45,0,1,0.55,1,1V16z M24.59,16H20v-2h2.59L24.59,16z    M3.24,18h25.52l-2.279,4.56C25.8,22.23,25,22,24,22c-2.41,0-3.689,1.27-4.71,2.29C18.34,25.25,17.59,26,16,26   s-2.34-0.75-3.29-1.71C11.69,23.27,10.41,22,8,22c-1,0-1.8,0.23-2.48,0.56L3.24,18z"/>
</g>
</svg>
