<?xml version="1.0" encoding="utf-8"?>
<!-- Generator: Adobe Illustrator 16.0.0, SVG Export Plug-In . SVG Version: 6.00 Build 0)  -->
<svg xmlns="http://www.w3.org/2000/svg" xmlns:xlink="http://www.w3.org/1999/xlink" version="1.1" id="Capa_1" x="0px" y="0px" width="32px" height="32px" viewBox="0 0 32 32" enable-background="new 0 0 32 32" xml:space="preserve">
<g>
	<path d="M31.89,26.55L26,14.76V11c0-0.22-0.07-0.43-0.2-0.6l-6-8C19.61,2.15,19.31,2,19,2H0v2h10v5c0,1.21,0.8,3,3,3h11v2H0v2   h24.38l5,10H17v-5c0-0.55-0.45-1-1-1H0v2.27C0.29,22.1,0.64,22,1,22c1.1,0,2,0.9,2,2s-0.9,2-2,2c-0.36,0-0.71-0.1-1-0.27v2.14   C0.32,27.96,0.65,28,1,28c1.2,0,2.27-0.54,3-1.38C4.73,27.46,5.8,28,7,28s2.27-0.54,3-1.38c0.73,0.84,1.8,1.38,3,1.38   c0.77,0,1.48-0.23,2.08-0.6C15.24,27.75,15.59,28,16,28h15c0.35,0,0.67-0.18,0.85-0.47C32.03,27.23,32.05,26.86,31.89,26.55z    M13,10c-0.81,0-0.99-0.55-1-1V4h6.5l4.5,6H13z M7,26c-1.1,0-2-0.9-2-2s0.9-2,2-2s2,0.9,2,2S8.1,26,7,26z M13,26c-1.1,0-2-0.9-2-2   s0.9-2,2-2s2,0.9,2,2S14.1,26,13,26z"/>
	<rect y="10" width="6" height="2"/>
</g>
</svg>
