<?xml version="1.0" encoding="utf-8"?>
<!-- Generator: Adobe Illustrator 16.0.0, SVG Export Plug-In . SVG Version: 6.00 Build 0)  -->
<svg xmlns="http://www.w3.org/2000/svg" xmlns:xlink="http://www.w3.org/1999/xlink" version="1.1" id="Capa_1" x="0px" y="0px" width="32px" height="32px" viewBox="0 0 32 32" enable-background="new 0 0 32 32" xml:space="preserve">
<path d="M28.63,24.217C30.602,21.157,32,17.178,32,16c0,0,0-2-2-2H12c-4,0-5-2-8-2H2c-2,0-2,2-2,2s0.944,6.604,2.836,10.74  C2.07,25.471,1.326,26,0,26v2c2.414,0,3.686-1.271,4.707-2.293C5.661,24.753,6.414,24,8,24s2.339,0.753,3.293,1.707  C12.314,26.729,13.586,28,16,28s3.686-1.271,4.707-2.293C21.661,24.753,22.414,24,24,24s2.339,0.753,3.293,1.707  C28.314,26.729,29.586,28,32,28v-2c-1.586,0-2.339-0.753-3.293-1.707C28.682,24.268,28.654,24.241,28.63,24.217z M4,14  c0.96,0,1.64,0.3,2.57,0.72C7.84,15.29,9.43,16,12,16h17.99C30,16.01,30,16.02,30,16.03c-0.03,0.45-0.22,1.15-0.51,1.97H2.79  c-0.31-1.29-0.57-2.65-0.77-4H4z M19.293,24.293C18.339,25.247,17.586,26,16,26s-2.339-0.753-3.293-1.707  C11.686,23.271,10.414,22,8,22c-1.642,0-2.749,0.591-3.615,1.288C4.012,22.354,3.647,21.237,3.3,20h25.36  c-0.462,0.98-0.999,1.99-1.569,2.907C26.305,22.391,25.329,22,24,22C21.586,22,20.314,23.271,19.293,24.293z"/>
</svg>
