<?xml version="1.0" encoding="utf-8"?>
<!-- Generator: Adobe Illustrator 16.0.0, SVG Export Plug-In . SVG Version: 6.00 Build 0)  -->
<svg xmlns="http://www.w3.org/2000/svg" xmlns:xlink="http://www.w3.org/1999/xlink" version="1.1" id="Capa_1" x="0px" y="0px" width="32px" height="32px" viewBox="0 0 32 32" enable-background="new 0 0 32 32" xml:space="preserve">
<path d="M23,4H3C0.799,4,0,5.794,0,7v16c0,2.201,1.794,3,3,3h1.555C5.248,27.19,6.523,28,8,28s2.752-0.81,3.445-2h9.109  c0.693,1.19,1.969,2,3.445,2s2.752-0.81,3.445-2H29c2.201,0,3-1.794,3-3C32,18.071,30.347,4,23,4z M2,16v-4h6v4H2z M10,12h8v4h-8V12  z M10,10V6h8v4H10z M20,12h8.262c0.424,1.262,0.766,2.626,1.029,4H20V12z M27.473,10H20V6h3C24.904,6,26.378,7.644,27.473,10z M3,6  h5v4H2V7.012C2.012,6.55,2.195,6,3,6z M8,26c-1.103,0-2-0.897-2-2s0.897-2,2-2s2,0.897,2,2S9.103,26,8,26z M24,26  c-1.103,0-2-0.897-2-2s0.897-2,2-2s2,0.897,2,2S25.103,26,24,26z M29,24h-1c0-2.209-1.791-4-4-4s-4,1.791-4,4h-8  c0-2.209-1.791-4-4-4s-4,1.791-4,4H3.012C2.55,23.988,2,23.806,2,23v-5h27.624C29.878,19.812,30,21.552,30,22.988  C29.988,23.45,29.806,24,29,24z"/>
</svg>
