<?xml version="1.0" encoding="utf-8"?>
<!-- Generator: Adobe Illustrator 16.0.0, SVG Export Plug-In . SVG Version: 6.00 Build 0)  -->
<svg xmlns="http://www.w3.org/2000/svg" xmlns:xlink="http://www.w3.org/1999/xlink" version="1.1" id="Capa_1" x="0px" y="0px" width="32px" height="32px" viewBox="0 0 32 32" enable-background="new 0 0 32 32" xml:space="preserve">
<g>
	<path d="M25,10h-1V8h5c0.553,0,1-0.448,1-1s-0.447-1-1-1H17c-0.552,0-1,0.448-1,1s0.448,1,1,1h5v2h-3   c-1.414,0-2.162,0.747-2.707,1.293C15.803,11.783,15.562,12,15,12h-4c-0.562,0-0.803-0.217-1.293-0.707C9.162,10.747,8.414,10,7,10   H6V8h3c0.552,0,1-0.448,1-1S9.552,6,9,6H1C0.448,6,0,6.448,0,7s0.448,1,1,1h3v2H3c-1.206,0-3,0.799-3,3v2c0,0.11,0.126,11,11,11h16   c3.955,0,5-3.271,5-5C32,16.682,27.748,10,25,10z M29.377,18H23c-0.806,0-0.988-0.55-1-1v-5h3C25.783,12,28.22,14.917,29.377,18z    M27,24H11c-8.859,0-8.999-8.635-9-9v-2c0-0.805,0.55-0.988,1-1h4c0.562,0,0.803,0.217,1.293,0.707C8.838,13.253,9.586,14,11,14h4   c1.414,0,2.161-0.747,2.707-1.293C18.197,12.217,18.438,12,19,12h1v5c0,1.206,0.799,3,3,3h6.912C29.963,20.337,30,20.671,30,20.994   C29.994,21.496,29.823,24,27,24z"/>
	<circle cx="16" cy="18" r="2"/>
	<circle cx="10" cy="18" r="2"/>
</g>
</svg>
