<?xml version="1.0" encoding="utf-8"?>
<!-- Generator: Adobe Illustrator 16.0.0, SVG Export Plug-In . SVG Version: 6.00 Build 0)  -->
<svg xmlns="http://www.w3.org/2000/svg" xmlns:xlink="http://www.w3.org/1999/xlink" version="1.1" id="Capa_1" x="0px" y="0px" width="32px" height="32px" viewBox="0 0 32 32" enable-background="new 0 0 32 32" xml:space="preserve">
<path d="M32,24h-2c0-1.475-0.808-2.749-1.995-3.442l-0.598-0.548C26.383,19.068,22.747,16,19,16h-1.143  c-0.448-1.449-1.855-2-2.857-2h-1v-2h-1c-4.156,0-7.027,1.322-9,2.936V4H0v2h2v2H0v2h2v7l0,0c-1.482,1.941-1.99,3.719-2,3.758V23  c0,2.762,2.238,5,5,5c1.644,0,3.089-0.804,4-2.027V26h13.555c0.693,1.19,1.969,2,3.445,2s2.752-0.81,3.445-2H32V24z M14.988,16  C15.45,16.012,16,16.195,16,17v1h-2v-2H14.988z M5,26c-1.654,0-3-1.346-3-3s1.346-3,3-3s3,1.346,3,3S6.654,26,5,26z M22,24H9.899  C9.965,23.677,10,23.343,10,23c0-2.762-2.238-5-5-5c-0.509,0-0.99,0.099-1.452,0.239C4.96,16.382,7.518,14.301,12,14.03V16v4h6v-2h1  c1.824,0,3.885,1.037,5.576,2.273C23.072,20.849,22,22.295,22,24z M26,26c-1.103,0-2-0.897-2-2s0.897-2,2-2s2,0.897,2,2  S27.103,26,26,26z"/>
</svg>
