<?xml version="1.0" encoding="utf-8"?>
<!-- Generator: Adobe Illustrator 16.0.0, SVG Export Plug-In . SVG Version: 6.00 Build 0)  -->
<svg xmlns="http://www.w3.org/2000/svg" xmlns:xlink="http://www.w3.org/1999/xlink" version="1.1" id="Capa_1" x="0px" y="0px" width="32px" height="32px" viewBox="0 0 32 32" enable-background="new 0 0 32 32" xml:space="preserve">
<path d="M27,8h-7V6H0v9.236l2,4V23c0,2.762,2.238,5,5,5c2.419,0,4.436-1.718,4.899-4h8.201c0.464,2.282,2.48,4,4.899,4  c2.464,0,4.5-1.786,4.912-4.132C31.418,23.447,32,22.02,32,21v-4C32,16.241,29.139,8,27,8z M28.894,14H25c-0.806,0-0.988-0.55-1-1  v-3h2.75C27.256,10.53,28.164,12.338,28.894,14z M2,8h16v10H3.618L2,14.764V8z M7,26c-1.654,0-3-1.346-3-3s1.346-3,3-3s3,1.346,3,3  S8.654,26,7,26z M25,26c-1.654,0-3-1.346-3-3s1.346-3,3-3s3,1.346,3,3S26.654,26,25,26z M30,20.988  c-0.006,0.231-0.055,0.484-0.202,0.68C29.212,19.558,27.297,18,25,18c-2.419,0-4.436,1.718-4.899,4h-8.201  c-0.151-0.744-0.48-1.416-0.922-2H20V10h2v3c0,1.206,0.799,3,3,3h4.705c0.167,0.461,0.277,0.822,0.295,1V20.988z"/>
</svg>
