<?xml version="1.0" encoding="utf-8"?>
<!-- Generator: Adobe Illustrator 16.0.0, SVG Export Plug-In . SVG Version: 6.00 Build 0)  -->
<svg xmlns="http://www.w3.org/2000/svg" xmlns:xlink="http://www.w3.org/1999/xlink" version="1.1" id="Capa_1" x="0px" y="0px" width="32px" height="32px" viewBox="0 0 32 32" enable-background="new 0 0 32 32" xml:space="preserve">
<path d="M27,8h-4.198l0.857-2H28V4h-5.659l-0.857,2H0v9.781l17.584,4.396L21.945,10H22v6h7.705c0.167,0.461,0.277,0.822,0.295,1  v3.988c-0.006,0.231-0.055,0.484-0.202,0.68C29.212,19.558,27.297,18,25,18c-2.419,0-4.436,1.718-4.899,4h-8.201  c-0.463-2.282-2.48-4-4.899-4c-2.762,0-5,2.238-5,5s2.238,5,5,5c2.419,0,4.436-1.718,4.899-4h8.201c0.464,2.282,2.48,4,4.899,4  c2.464,0,4.5-1.786,4.912-4.132C31.418,23.447,32,22.02,32,21v-4C32,16.241,29.139,8,27,8z M7,26c-1.654,0-3-1.346-3-3s1.346-3,3-3  s3,1.346,3,3S8.654,26,7,26z M25,26c-1.654,0-3-1.346-3-3s1.346-3,3-3s3,1.346,3,3S26.654,26,25,26z M16.417,17.823L2,14.219V8  h18.626L16.417,17.823z M24,14v-4h2.75c0.506,0.53,1.414,2.338,2.144,4H24z"/>
</svg>
