<?xml version="1.0" encoding="utf-8"?>
<!-- Generator: Adobe Illustrator 16.0.0, SVG Export Plug-In . SVG Version: 6.00 Build 0)  -->
<svg xmlns="http://www.w3.org/2000/svg" xmlns:xlink="http://www.w3.org/1999/xlink" version="1.1" id="Capa_1" x="0px" y="0px" width="32px" height="32px" viewBox="0 0 32 32" enable-background="new 0 0 32 32" xml:space="preserve">
<g>
	<rect y="20" width="18" height="2"/>
	<path d="M10.279,6l1.334,4H0v2h2v4H0v2h13c2.201,0,3-1.794,3-3v-3h2v3c0,2.201,1.794,3,3,3h7.117C29.305,20.16,30,22.251,30,23   c-0.006,0.496-0.178,3-3,3H0v2h27c3.955,0,5-3.271,5-5c0-2.515-4.391-13-11-13h-3.279l-1.333-4H32V4H0v2H10.279z M20,12h1   c2.291,0,4.318,1.821,5.869,4H21c-0.449-0.012-1-0.195-1-1V12z M13,16h-3v-4h4v3C13.988,15.45,13.806,16,13,16z M4,12h4v4H4V12z    M12.387,6h1.893l1.333,4h-1.892L12.387,6z"/>
</g>
</svg>
