<?xml version="1.0" encoding="utf-8"?>
<!-- Generator: Adobe Illustrator 16.0.0, SVG Export Plug-In . SVG Version: 6.00 Build 0)  -->
<svg xmlns="http://www.w3.org/2000/svg" xmlns:xlink="http://www.w3.org/1999/xlink" version="1.1" id="Capa_1" x="0px" y="0px" width="32px" height="32px" viewBox="0 0 32 32" enable-background="new 0 0 32 32" xml:space="preserve">
<g>
	<path d="M25.316,14.051c-0.38-0.126-0.78-0.814-1.204-1.542C23.066,10.713,21.487,8,17,8H7c-1.729,0-5,1.045-5,5   c0,0.49-0.172,0.754-0.562,1.305C0.832,15.164,0,16.339,0,19v4c0,2.201,1.794,3,3,3h1.555C5.248,27.19,6.523,28,8,28   s2.752-0.81,3.445-2h7.109c0.693,1.19,1.969,2,3.445,2s2.752-0.81,3.445-2H27c2.201,0,3-1.794,3-3v-4   C30,16.179,28.208,15.015,25.316,14.051z M22.384,13.515c0.096,0.164,0.19,0.326,0.287,0.485H16v-4h1   C20.337,10,21.377,11.787,22.384,13.515z M10,10h4v4h-3c-0.805,0-0.988-0.55-1-1V10z M8,26c-1.103,0-2-0.897-2-2s0.897-2,2-2   s2,0.897,2,2S9.103,26,8,26z M22,26c-1.103,0-2-0.897-2-2s0.897-2,2-2s2,0.897,2,2S23.103,26,22,26z M28,22.988   C27.988,23.45,27.806,24,27,24h-1c0-2.209-1.791-4-4-4s-4,1.791-4,4h-6c0-2.209-1.791-4-4-4s-4,1.791-4,4H3.012   C2.55,23.988,2,23.806,2,23v-4c0-2.025,0.544-2.795,1.071-3.541C3.507,14.844,4,14.146,4,13c0-2.823,2.503-2.994,3-3h1v3   c0,1.206,0.799,3,3,3h13.83c2.94,1.005,3.17,1.844,3.17,3V22.988z"/>
	<path d="M25,6h2.382l-1.276,2.553c-0.247,0.494-0.047,1.095,0.447,1.342C26.696,9.966,26.849,10,26.999,10   c0.367,0,0.72-0.202,0.896-0.553l2-4c0.155-0.31,0.139-0.678-0.044-0.973C29.668,4.18,29.347,4,29,4h-2.382l1.276-2.553   c0.247-0.494,0.047-1.095-0.447-1.342c-0.494-0.248-1.095-0.047-1.342,0.447l-2,4c-0.155,0.31-0.139,0.678,0.044,0.973   C24.332,5.82,24.653,6,25,6z"/>
</g>
</svg>
