<?xml version="1.0" encoding="utf-8"?>
<!-- Generator: Adobe Illustrator 16.0.0, SVG Export Plug-In . SVG Version: 6.00 Build 0)  -->
<svg xmlns="http://www.w3.org/2000/svg" xmlns:xlink="http://www.w3.org/1999/xlink" version="1.1" id="Outlined_2_" x="0px" y="0px" width="32px" height="32px" viewBox="0 0 32 32" enable-background="new 0 0 32 32" xml:space="preserve">
<path d="M27,8h-3V6h2V4H16v2h2v2H9c-2.201,0-3,1.794-3,3v3H4v-2H2v10h2v-2h2v3c0,2.201,1.794,3,3,3h7v1c0,0.553,0.447,1,1,1  s1-0.447,1-1v-1h2v1c0,0.553,0.447,1,1,1s1-0.447,1-1v-1h2v1c0,0.553,0.447,1,1,1s1-0.447,1-1v-1h1c1.206,0,3-0.799,3-3V11  C30,8.799,28.206,8,27,8z M4,18v-2h2v2H4z M12,24H9.012C8.55,23.988,8,23.806,8,23V11.012C8.012,10.55,8.195,10,9,10h3V24z M20,6h2  v2h-2V6z M28,23c0,0.806-0.55,0.988-1,1h-1v-3c0-0.553-0.447-1-1-1s-1,0.447-1,1v3h-2v-3c0-0.553-0.447-1-1-1s-1,0.447-1,1v3h-2v-3  c0-0.553-0.447-1-1-1s-1,0.447-1,1v3h-2v-8h14V23z M14,14v-4h12.988C27.45,10.012,28,10.195,28,11v3H14z"/>
</svg>
