<?xml version="1.0" encoding="utf-8"?>
<!-- Generator: Adobe Illustrator 16.0.0, SVG Export Plug-In . SVG Version: 6.00 Build 0)  -->
<svg xmlns="http://www.w3.org/2000/svg" xmlns:xlink="http://www.w3.org/1999/xlink" version="1.1" id="Outlined_2_" x="0px" y="0px" width="32px" height="32px" viewBox="0 0 32 32" enable-background="new 0 0 32 32" xml:space="preserve">
<path d="M31.89,18L29.98,2.63c-0.131-1.04-0.78-1.92-1.73-2.36c-0.94-0.43-2.06-0.33-2.91,0.23L13,8.72C12.28,8.25,11.58,8,11,8H7  c-1.21,0-3,0.8-3,3v1H2c-0.97,0-2,0.7-2,2v11c0,2.2,1.79,3,3,3h14c0.97,0,2-0.7,2-2c0-1.52-0.84-2.57-1.56-3.2  C17.78,22.35,18,21.76,18,21c0-3.03-0.56-5.52-1.38-7.49l8.37-5.56L29.46,18H20v3c0,1.73,1.25,5,6,5s6-3.27,6-5v-2.12L31.89,18z   M6,11c0-0.81,0.55-0.99,1-1h4c0.9,0,3.25,1.85,4.38,6H7c-0.81,0-0.99-0.55-1-1V11z M2,14h2v1c0,0.12,0.02,0.77,0.36,1.45  C4.86,17.45,5.79,18,7,18h8.78c0.14,0.92,0.22,1.91,0.22,3c0,0.8-0.55,0.99-1.01,1H2V14z M17,26H3.01C2.55,25.99,2,25.81,2,25v-1  h13.72C16.11,24.24,17,24.94,17,26z M26.33,6.05c-0.12-0.27-0.35-0.47-0.63-0.55c-0.29-0.08-0.59-0.04-0.84,0.13l-9.14,6.08  c-0.38-0.62-0.77-1.16-1.18-1.62l11.91-7.92c0.28-0.19,0.649-0.22,0.97-0.08c0.32,0.15,0.53,0.44,0.57,0.79l1.189,9.57L26.33,6.05z   M30,21c0,0.12-0.05,3-4,3c-3.83,0-4-2.7-4-3v-1h8V21z"/>
</svg>
