<?xml version="1.0" encoding="utf-8"?>
<!-- Generator: Adobe Illustrator 16.0.0, SVG Export Plug-In . SVG Version: 6.00 Build 0)  -->
<svg xmlns="http://www.w3.org/2000/svg" xmlns:xlink="http://www.w3.org/1999/xlink" version="1.1" id="Capa_1" x="0px" y="0px" width="32px" height="32px" viewBox="0 0 32 32" enable-background="new 0 0 32 32" xml:space="preserve">
<path d="M27,10h-1V8h-4v2h-2V8h-4V6h2V4H0v2h2v2H0v2h18v10h2v-8h2v3c0,1.206,0.799,3,3,3h4.705c0.167,0.462,0.277,0.822,0.295,1  v3.988C29.988,23.45,29.806,24,29,24h-1c0-2.209-1.791-4-4-4s-4,1.791-4,4h-4v-8H2v-4H0v11c0,2.201,1.794,3,3,3h1.555  C5.248,27.19,6.523,28,8,28s2.752-0.81,3.445-2h9.109c0.693,1.19,1.969,2,3.445,2s2.752-0.81,3.445-2H29c2.201,0,3-1.794,3-3v-4  C32,18.241,29.139,10,27,10z M6,8H4V6h2V8z M10,8H8V6h2V8z M14,8h-2V6h2V8z M25,16c-0.806,0-0.988-0.55-1-1v-3h2.75  c0.506,0.53,1.414,2.338,2.144,4H25z M8,26c-1.103,0-2-0.897-2-2s0.897-2,2-2s2,0.897,2,2S9.103,26,8,26z M14,24h-2  c0-2.209-1.791-4-4-4s-4,1.791-4,4H3.012C2.55,23.988,2,23.806,2,23v-5h12V24z M24,26c-1.103,0-2-0.897-2-2s0.897-2,2-2s2,0.897,2,2  S25.103,26,24,26z"/>
</svg>
