<?xml version="1.0" encoding="utf-8"?>
<!-- Generator: Adobe Illustrator 16.0.0, SVG Export Plug-In . SVG Version: 6.00 Build 0)  -->
<svg xmlns="http://www.w3.org/2000/svg" xmlns:xlink="http://www.w3.org/1999/xlink" version="1.1" id="Capa_1" x="0px" y="0px" width="32px" height="32px" viewBox="0 0 32 32" enable-background="new 0 0 32 32" xml:space="preserve">
<path d="M0,18v6h0.051c0.252,2.244,2.139,4,4.449,4c1.421,0,2.675-0.675,3.5-1.706C8.825,27.325,10.079,28,11.5,28  c2.31,0,4.197-1.756,4.449-4h0.102c0.252,2.244,2.139,4,4.449,4c1.421,0,2.675-0.675,3.5-1.706C24.825,27.325,26.079,28,27.5,28  c2.311,0,4.197-1.756,4.449-4H32v-6H0z M2,20h28v2H2V20z M4.5,26c-1.207,0-2.217-0.86-2.449-2h4.898C6.717,25.14,5.707,26,4.5,26z   M11.5,26c-1.207,0-2.217-0.86-2.449-2h4.898C13.717,25.14,12.707,26,11.5,26z M20.5,26c-1.208,0-2.217-0.86-2.449-2h4.898  C22.717,25.14,21.708,26,20.5,26z M27.5,26c-1.208,0-2.217-0.86-2.449-2h4.898C29.717,25.14,28.708,26,27.5,26z"/>
</svg>
