<?xml version="1.0" encoding="utf-8"?>
<!-- Generator: Adobe Illustrator 16.0.0, SVG Export Plug-In . SVG Version: 6.00 Build 0)  -->
<svg xmlns="http://www.w3.org/2000/svg" xmlns:xlink="http://www.w3.org/1999/xlink" version="1.1" id="Capa_1" x="0px" y="0px" width="32px" height="32px" viewBox="0 0 32 32" enable-background="new 0 0 32 32" xml:space="preserve">
<path d="M32,22v-2h-8V8h-2v8h-4.188C16.417,9.37,14.799,6,13,6H7C5.794,6,4,6.799,4,9v7H3c-2.201,0-3,1.744-3,2.916V26h2.555  C3.248,27.19,4.523,28,6,28s2.752-0.81,3.445-2h7.109c0.693,1.19,1.969,2,3.445,2s2.752-0.81,3.445-2H32v-2h-8v-2H32z M6,9  c0-0.805,0.55-0.988,1-1h5.909c0.72,0.506,1.972,4.054,2.856,8H6V9z M6,26c-1.103,0-2-0.897-2-2s0.897-2,2-2s2,0.897,2,2  S7.103,26,6,26z M16,24h-6c0-2.209-1.791-4-4-4s-4,1.791-4,4v-5.07C2.012,18.506,2.196,18,3,18h19v2.555  C21.409,20.211,20.732,20,20,20C17.791,20,16,21.791,16,24z M20,26c-1.103,0-2-0.897-2-2s0.897-2,2-2s2,0.897,2,2S21.103,26,20,26z"/>
</svg>
