<?xml version="1.0" encoding="utf-8"?>
<!-- Generator: Adobe Illustrator 16.0.0, SVG Export Plug-In . SVG Version: 6.00 Build 0)  -->
<svg xmlns="http://www.w3.org/2000/svg" xmlns:xlink="http://www.w3.org/1999/xlink" version="1.1" id="Capa_1" x="0px" y="0px" width="32px" height="32px" viewBox="0 0 32 32" enable-background="new 0 0 32 32" xml:space="preserve">
<path d="M15.861,16.011C15.417,14.554,14.004,14,13,14h-1v-2h-1c-4.769,0-7.47,1.713-9,3.645V12H0v9v2.167V24c0,2.209,1.791,4,4,4  c1.477,0,2.752-0.81,3.445-2h13.109c0.693,1.19,1.969,2,3.445,2s2.752-0.81,3.445-2H29c2.201,0,3-1.794,3-3  C32,16.856,19.555,16.1,15.861,16.011z M12.988,16C13.45,16.012,14,16.195,14,17v1h-2v-2H12.988z M4,26c-1.103,0-2-0.897-2-2  s0.897-2,2-2s2,0.897,2,2S5.103,26,4,26z M24,26c-1.103,0-2-0.897-2-2s0.897-2,2-2s2,0.897,2,2S25.103,26,24,26z M29,24h-1  c0-2.209-1.791-4-4-4s-4,1.791-4,4H8c0-2.209-1.791-4-4-4c-0.719,0-1.385,0.205-1.968,0.537c0.16-1.49,1.2-6.093,7.968-6.507V16v4h6  v-1.982c4.508,0.14,14,1.208,14,4.971C29.988,23.45,29.806,24,29,24z"/>
</svg>
