<?xml version="1.0" encoding="utf-8"?>
<!-- Generator: Adobe Illustrator 16.0.0, SVG Export Plug-In . SVG Version: 6.00 Build 0)  -->
<svg xmlns="http://www.w3.org/2000/svg" xmlns:xlink="http://www.w3.org/1999/xlink" version="1.1" id="Capa_1" x="0px" y="0px" width="32px" height="32px" viewBox="0 0 32 32" enable-background="new 0 0 32 32" xml:space="preserve">
<path d="M32,4H0v9c0,1.478,1.479,3.531,2.725,5H0v5.5c0,0.169,0.009,0.336,0.028,0.5c0.249,2.247,2.159,4,4.472,4  c1.412,0,2.674-0.654,3.5-1.675v-0.001C8.826,27.346,10.088,28,11.5,28c2.313,0,4.222-1.753,4.472-4h0.057  c0.25,2.247,2.159,4,4.472,4c1.412,0,2.674-0.654,3.5-1.676v0.001C24.826,27.346,26.088,28,27.5,28c2.313,0,4.223-1.753,4.472-4  C31.991,23.836,32,23.669,32,23.5V18h-2.725C30.521,16.531,32,14.478,32,13V4z M10,18v-8h12v8H10z M10,8V6h12v2H10z M2,6h6v2H2V6z   M2,13v-3h6v8H5.42C3.724,16.242,2,13.925,2,13z M4.5,26c-1.208,0-2.218-0.86-2.45-2h4.9C6.718,25.14,5.708,26,4.5,26z M11.5,26  c-1.208,0-2.218-0.86-2.449-2h4.898C13.718,25.14,12.708,26,11.5,26z M20.5,26c-1.208,0-2.218-0.86-2.449-2h4.898  C22.718,25.14,21.708,26,20.5,26z M27.5,26c-1.208,0-2.218-0.86-2.45-2h4.9C29.718,25.14,28.708,26,27.5,26z M30,20v2H2v-2h2.586  h22.828H30z M30,13c0,0.925-1.724,3.242-3.42,5H24v-8h6V13z M30,8h-6V6h6V8z"/>
</svg>
