<?xml version="1.0" encoding="utf-8"?>
<!-- Generator: Adobe Illustrator 16.0.0, SVG Export Plug-In . SVG Version: 6.00 Build 0)  -->
<svg xmlns="http://www.w3.org/2000/svg" xmlns:xlink="http://www.w3.org/1999/xlink" version="1.1" id="Capa_1" x="0px" y="0px" width="32px" height="32px" viewBox="0 0 32 32" enable-background="new 0 0 32 32" xml:space="preserve">
<path d="M32,14h-4V8h2V6h-2V4h-2v10h-4V8H2v8c-1.22,0-2,0-2,0v4l3.252,4.333C2.318,25.268,1.563,26,0,26v2  c2.414,0,3.686-1.271,4.707-2.293C5.661,24.753,6.414,24,8,24s2.339,0.753,3.293,1.707C12.314,26.729,13.586,28,16,28  s3.686-1.271,4.707-2.293C21.661,24.753,22.414,24,24,24s2.339,0.753,3.293,1.707C28.314,26.729,29.586,28,32,28v-2  c-1.586,0-2.339-0.753-3.293-1.707c-0.046-0.046-0.097-0.095-0.144-0.143L32,19V14z M20,10v2h-4v-2H20z M10,14h4v2h-4V14z M16,14h4  v0.41C18.75,14.99,18.13,16,16,16V14z M14,10v2h-4v-2H14z M4,10h4v2H4V10z M4,14h4v2H4V14z M30,18.39l-2.978,4.472  C26.248,22.367,25.291,22,24,22c-2.414,0-3.686,1.271-4.707,2.293C18.339,25.247,17.586,26,16,26s-2.339-0.753-3.293-1.707  C11.686,23.271,10.414,22,8,22c-1.415,0-2.432,0.441-3.241,1.009L2,19.33V18h14c2.11,0,3.26-0.77,4.11-1.34  C20.77,16.22,21.11,16,22,16h8V18.39z"/>
</svg>
