<?xml version="1.0" encoding="utf-8"?>
<!-- Generator: Adobe Illustrator 16.0.0, SVG Export Plug-In . SVG Version: 6.00 Build 0)  -->
<svg xmlns="http://www.w3.org/2000/svg" xmlns:xlink="http://www.w3.org/1999/xlink" version="1.1" id="Outlined_2_" x="0px" y="0px" width="32px" height="32px" viewBox="0 0 32 32" enable-background="new 0 0 32 32" xml:space="preserve">
<path d="M28,2v3.18C27.69,5.06,27.35,5,27,5c-1.65,0-3,1.34-3,3c0,1.3,0.84,2.41,2,2.82v12.17C25.99,23.45,25.81,24,25,24  s-0.99-0.55-1-1v-6c0-2.2-1.79-3-3-3h-1V7c0-3.96-3.27-5-5-5H7C3.04,2,2,5.27,2,7v23h18V16h0.99c0.46,0.01,1.01,0.19,1.01,1v6  c0,1.21,0.8,3,3,3s3-1.79,3-3V10.82c1.16-0.41,2-1.52,2-2.82V2H28z M18,28H4V14h14V28z M18,12H4V7.01C4.01,6.5,4.18,4,7,4h7.99  C15.5,4.01,18,4.18,18,7V12z M27,9.5c-0.83,0-1.5-0.67-1.5-1.5s0.67-1.5,1.5-1.5s1.5,0.67,1.5,1.5S27.83,9.5,27,9.5z M15.71,17.71  l-8,8l-1.42-1.42l8-8L15.71,17.71z"/>
</svg>
