<?xml version="1.0" encoding="utf-8"?>
<!-- Generator: Adobe Illustrator 16.0.0, SVG Export Plug-In . SVG Version: 6.00 Build 0)  -->
<svg xmlns="http://www.w3.org/2000/svg" xmlns:xlink="http://www.w3.org/1999/xlink" version="1.1" id="Outlined_2_" x="0px" y="0px" width="32px" height="32px" viewBox="0 0 32 32" enable-background="new 0 0 32 32" xml:space="preserve">
<path d="M30,23v1h-9.997v-2h7.959c-0.217-2.834-1.354-5.41-3.101-7.447l-2.154,2.154l-1.414-1.414l2.151-2.151  c-2.036-1.747-4.611-2.876-7.444-3.093V14h-2v-3.952c-2.833,0.217-5.408,1.346-7.444,3.093l2.151,2.151l-1.414,1.414l-2.154-2.154  C3.391,16.59,2.255,19.166,2.038,22h5.96v2H0v-1C0,14.729,6.729,8,15,8C23.271,8,30,14.729,30,23z M18,23c0,1.654-1.346,3-3,3  c-1.278,0-3.621-1.522-4.568-2.177L9.24,23l1.191-0.823C11.379,21.522,13.722,20,15,20C16.654,20,18,21.346,18,23z M16,23  c0-0.552-0.449-1-1-1c-0.306,0.008-1.177,0.424-2.146,1c0.97,0.575,1.841,0.991,2.147,1C15.552,24,16,23.551,16,23z"/>
</svg>
