<?xml version="1.0" encoding="utf-8"?>
<!-- Generator: Adobe Illustrator 16.0.0, SVG Export Plug-In . SVG Version: 6.00 Build 0)  -->
<svg xmlns="http://www.w3.org/2000/svg" xmlns:xlink="http://www.w3.org/1999/xlink" version="1.1" id="Outlined_2_" x="0px" y="0px" width="32px" height="32px" viewBox="0 0 32 32" enable-background="new 0 0 32 32" xml:space="preserve">
<path d="M30,23v1h-9.997v-2h7.959c-0.217-2.834-1.354-5.41-3.101-7.447l-2.154,2.154l-1.414-1.414l2.151-2.151  c-2.036-1.747-4.611-2.876-7.444-3.093V14h-2v-3.952c-2.833,0.217-5.408,1.346-7.444,3.093l2.151,2.151l-1.414,1.414l-2.154-2.154  C3.391,16.59,2.255,19.166,2.038,22h7.961v2H0v-1C0,14.729,6.729,8,15,8C23.271,8,30,14.729,30,23z M17.648,19.187l1.424-0.261  l-0.261,1.424c-0.207,1.134-0.786,3.867-1.69,4.771C16.554,25.688,15.8,25.999,15,25.999s-1.554-0.312-2.12-0.877  c-1.17-1.171-1.171-3.074-0.002-4.245C13.782,19.973,16.516,19.394,17.648,19.187z M16.518,21.48  c-1.094,0.279-2.004,0.601-2.227,0.812c-0.389,0.39-0.388,1.024,0.002,1.415c0.376,0.375,1.036,0.375,1.415-0.001  C15.917,23.485,16.239,22.574,16.518,21.48z"/>
</svg>
