<?xml version="1.0" encoding="utf-8"?>
<!-- Generator: Adobe Illustrator 16.0.0, SVG Export Plug-In . SVG Version: 6.00 Build 0)  -->
<svg xmlns="http://www.w3.org/2000/svg" xmlns:xlink="http://www.w3.org/1999/xlink" version="1.1" id="Outlined_2_" x="0px" y="0px" width="32px" height="32px" viewBox="0 0 32 32" enable-background="new 0 0 32 32" xml:space="preserve">
<path d="M30,23v1h-7.995v-2h5.957c-0.217-2.834-1.354-5.41-3.101-7.447l-2.154,2.154l-1.414-1.414l2.151-2.151  c-2.036-1.747-4.611-2.876-7.444-3.093V14h-2v-3.952c-2.833,0.217-5.408,1.346-7.444,3.093l2.151,2.151l-1.414,1.414l-2.154-2.154  C3.391,16.59,2.255,19.166,2.038,22h7.961v2H0v-1C0,14.729,6.729,8,15,8C23.271,8,30,14.729,30,23z M19.568,22.175l1.19,0.823  l-1.19,0.822c-0.947,0.655-3.29,2.179-4.569,2.179h-0.001c-1.654-0.002-2.999-1.347-2.999-2.999c0.001-1.655,1.347-3.002,3-3.002  C16.278,19.998,18.62,21.521,19.568,22.175z M17.146,22.998c-0.971-0.576-1.843-0.992-2.148-1c-0.55,0-0.999,0.45-0.999,1.003  c0,0.549,0.448,0.997,1,0.998C15.305,23.99,16.176,23.574,17.146,22.998z"/>
</svg>
