<?xml version="1.0" encoding="utf-8"?>
<!-- Generator: Adobe Illustrator 16.0.0, SVG Export Plug-In . SVG Version: 6.00 Build 0)  -->
<svg xmlns="http://www.w3.org/2000/svg" xmlns:xlink="http://www.w3.org/1999/xlink" version="1.1" id="Capa_1" x="0px" y="0px" width="32px" height="32px" viewBox="0 0 32 32" enable-background="new 0 0 32 32" xml:space="preserve">
<g>
	<path d="M28.707,24.293c-0.167-0.167-0.345-0.341-0.529-0.515c2.476-2.657,3.703-6.263,3.772-6.458c0.12-0.36,0.02-0.76-0.24-1.03   c-0.27-0.27-0.67-0.36-1.03-0.24C30.62,16.07,24.79,18,21,18h-7v-3c0-0.552-0.448-1-1-1H4V9c0-2.201-1.794-3-3-3H0v2h0.988   C1.45,8.012,2,8.195,2,9v1H0v2h2v4c0,2.077,0.531,5.26,2.153,7.477c-0.313,0.271-0.596,0.552-0.86,0.816   C2.339,25.247,1.586,26,0,26v2c2.414,0,3.686-1.271,4.707-2.293C5.661,24.753,6.414,24,8,24s2.339,0.753,3.293,1.707   C12.314,26.729,13.586,28,16,28s3.686-1.271,4.707-2.293C21.661,24.753,22.414,24,24,24s2.339,0.753,3.293,1.707   C28.314,26.729,29.586,28,32,28v-2C30.414,26,29.661,25.247,28.707,24.293z M12,16v2H9c-1.69,0-3.47-1.19-4.47-2H12z    M19.293,24.293C18.339,25.247,17.586,26,16,26s-2.339-0.753-3.293-1.707C11.686,23.271,10.414,22,8,22   c-0.843,0-1.539,0.161-2.142,0.406C4.932,21.225,4.46,19.602,4.23,18.27C5.49,19.12,7.22,20,9,20h12c2.66,0,6.1-0.83,8.26-1.43   c-0.587,1.213-1.507,2.772-2.717,4.021C25.856,22.242,25.038,22,24,22C21.586,22,20.314,23.271,19.293,24.293z"/>
</g>
</svg>
