<?xml version="1.0" encoding="utf-8"?>
<!-- Generator: Adobe Illustrator 16.0.0, SVG Export Plug-In . SVG Version: 6.00 Build 0)  -->
<svg xmlns="http://www.w3.org/2000/svg" xmlns:xlink="http://www.w3.org/1999/xlink" version="1.1" id="Outlined_2_" x="0px" y="0px" width="32px" height="32px" viewBox="0 0 32 32" enable-background="new 0 0 32 32" xml:space="preserve">
<g>
	<rect y="4" width="8" height="2"/>
	<rect y="8" width="8" height="2"/>
	<rect x="22" y="4" width="8" height="2"/>
	<rect x="22" y="8" width="8" height="2"/>
	<path d="M19.005,12H16v-2h4V4H10v6h4v2h-2.999C6.493,12,4,17.321,4,21c0,3.479,2.443,9,9,9h4.005c6.56,0,9.004-5.521,9.004-9   C26.009,17.321,23.515,12,19.005,12z M12,8V6h6v2H12z M19.005,14c2.924,0,4.569,3.456,4.928,6H16v-6H19.005z M11.001,14H14v6H6.076   C6.435,17.456,8.079,14,11.001,14z M17.005,28H13c-4.926,0-6.548-3.714-6.91-6h17.829C23.557,24.286,21.934,28,17.005,28z"/>
</g>
</svg>
