<?xml version="1.0" encoding="utf-8"?>
<!-- Generator: Adobe Illustrator 16.0.0, SVG Export Plug-In . SVG Version: 6.00 Build 0)  -->
<svg xmlns="http://www.w3.org/2000/svg" xmlns:xlink="http://www.w3.org/1999/xlink" version="1.1" id="Capa_1" x="0px" y="0px" width="32px" height="32px" viewBox="0 0 32 32" enable-background="new 0 0 32 32" xml:space="preserve">
<path d="M22.153,22L23.99,9.142c0.041-0.287-0.045-0.578-0.234-0.797C23.565,8.126,23.29,8,23,8H1C0.71,8,0.435,8.126,0.245,8.345  c-0.19,0.219-0.275,0.51-0.234,0.797l2,14C2.081,23.634,2.502,24,3,24h3.349c0.825,2.329,3.04,4,5.651,4s4.827-1.671,5.651-4H32v-2  H22.153z M21.847,10l-0.286,2H2.438l-0.286-2H21.847z M12,26c-2.206,0-4-1.794-4-4s1.794-4,4-4s4,1.794,4,4S14.206,26,12,26z   M20.133,22H18c0-3.313-2.687-6-6-6s-6,2.687-6,6H3.867l-1.143-8h18.551L20.133,22z"/>
</svg>
