<?xml version="1.0" encoding="utf-8"?>
<!-- Generator: Adobe Illustrator 16.0.0, SVG Export Plug-In . SVG Version: 6.00 Build 0)  -->
<svg xmlns="http://www.w3.org/2000/svg" xmlns:xlink="http://www.w3.org/1999/xlink" version="1.1" id="Capa_1" x="0px" y="0px" width="32px" height="32px" viewBox="0 0 32 32" enable-background="new 0 0 32 32" xml:space="preserve">
<path d="M29,14c-1.262,0-1.967-0.788-3.103-2.179C24.507,10.119,22.777,8,19,8h-8C9.729,8,8.777,8.478,8.04,9.158l-4.485-2.99  C3.159,5.903,2.63,5.956,2.293,6.293l-2,2c-0.391,0.391-0.391,1.023,0,1.414s1.023,0.391,1.414,0l1.42-1.42l3.675,2.451  c-0.328,0.552-0.595,1.111-0.825,1.601C5.703,12.922,5.242,13.899,5,14c-2.201,0-3,1.794-3,3v6c0,2.201,1.794,3,3,3h1.555  c0.693,1.19,1.969,2,3.445,2s2.752-0.81,3.445-2h7.109c0.693,1.19,1.969,2,3.445,2s2.752-0.81,3.445-2H29c2.201,0,3-1.794,3-3v-6  C32,14.799,30.206,14,29,14z M20,10.07c2.139,0.312,3.217,1.63,4.348,3.016c0.247,0.303,0.504,0.613,0.775,0.915H20V10.07z M14,10h4  v4h-4V10z M10,26c-1.103,0-2-0.897-2-2s0.897-2,2-2s2,0.897,2,2S11.103,26,10,26z M24,26c-1.103,0-2-0.897-2-2s0.897-2,2-2  s2,0.897,2,2S25.103,26,24,26z M30,22.988C29.988,23.45,29.806,24,29,24h-1c0-2.209-1.791-4-4-4s-4,1.791-4,4h-6  c0-2.209-1.791-4-4-4s-4,1.791-4,4H5.012C4.55,23.988,4,23.806,4,23v-5.988C4.012,16.55,4.195,16,5,16  c1.462,0,2.136-1.428,2.787-2.809C8.695,11.263,9.41,10,11,10h1v6h16.988C29.45,16.012,30,16.195,30,17V22.988z"/>
</svg>
