<?xml version="1.0" encoding="utf-8"?>
<!-- Generator: Adobe Illustrator 16.0.0, SVG Export Plug-In . SVG Version: 6.00 Build 0)  -->
<svg xmlns="http://www.w3.org/2000/svg" xmlns:xlink="http://www.w3.org/1999/xlink" version="1.1" id="Capa_1" x="0px" y="0px" width="32px" height="32px" viewBox="0 0 32 32" enable-background="new 0 0 32 32" xml:space="preserve">
<path d="M29,24h-3v-2.074c2.498-0.357,6-2.083,6-6.926c0-5.537-4.579-7-7-7h-5V6h7c0.553,0,1-0.448,1-1s-0.447-1-1-1H11  c-0.552,0-1,0.448-1,1s0.448,1,1,1h7v2h-4c-1.303,0-2.233,0.621-3.055,1.168C10.275,9.614,9.697,10,9,10H4V8H2v2H0v2h2v2h2v-2h5  c1.303,0,2.233-0.621,3.055-1.168C12.725,10.386,13.303,10,14,10h2v3c0,1.206,0.799,3,3,3h10.921c-0.578,3.841-4.45,3.996-4.921,4  h-8c-5.161,0-6.965-6.02-7.039-6.276l-1.922,0.551c0.085,0.299,2.068,6.961,7.961,7.656V24h-2.988C12.55,23.988,12,23.806,12,23h-2  c0,2.201,1.794,3,3,3h16c1.206,0,3-0.799,3-3h-2C30,23.806,29.45,23.988,29,24z M29.92,14H24v-4h1C25.189,10,29.317,10.056,29.92,14  z M18,13v-3h4v4h-3C18.194,14,18.012,13.45,18,13z M18,22h6v2h-6V22z"/>
</svg>
