<?xml version="1.0" encoding="utf-8"?>
<!-- Generator: Adobe Illustrator 16.0.0, SVG Export Plug-In . SVG Version: 6.00 Build 0)  -->
<svg xmlns="http://www.w3.org/2000/svg" xmlns:xlink="http://www.w3.org/1999/xlink" version="1.1" id="Capa_1" x="0px" y="0px" width="32px" height="32px" viewBox="0 0 32 32" enable-background="new 0 0 32 32" xml:space="preserve">
<path d="M32,4H0l0,5.194l0.072,0.179C0.104,9.451,2.435,15.281,3.523,18H0v6h0.051c0.252,2.244,2.139,4,4.449,4  c1.421,0,2.675-0.675,3.5-1.706C8.825,27.325,10.079,28,11.5,28c2.31,0,4.197-1.756,4.449-4h0.102c0.252,2.244,2.139,4,4.449,4  c1.421,0,2.675-0.675,3.5-1.706C24.825,27.325,26.079,28,27.5,28c2.311,0,4.197-1.756,4.449-4H32v-6h-3.523L32,9.192V4z   M3.929,13.629C3.276,11.998,2.811,10.836,2.457,10h12.199l-2.4,8H5.677L3.929,13.629z M16,12.48L17.656,18h-3.312L16,12.48z   M4.5,26c-1.207,0-2.217-0.86-2.449-2h4.898C6.717,25.14,5.707,26,4.5,26z M11.5,26c-1.207,0-2.217-0.86-2.449-2h4.898  C13.717,25.14,12.707,26,11.5,26z M20.5,26c-1.208,0-2.217-0.86-2.449-2h4.898C22.717,25.14,21.708,26,20.5,26z M27.5,26  c-1.208,0-2.217-0.86-2.449-2h4.898C29.717,25.14,28.708,26,27.5,26z M30,20v2H2v-2h2.323h23.354H30z M19.744,18l-2.399-8h12.178  l-3.199,8H19.744z M30,8H2V6h28V8z"/>
</svg>
