<?xml version="1.0" encoding="utf-8"?>
<!-- Generator: Adobe Illustrator 16.0.0, SVG Export Plug-In . SVG Version: 6.00 Build 0)  -->
<svg xmlns="http://www.w3.org/2000/svg" xmlns:xlink="http://www.w3.org/1999/xlink" version="1.1" id="Outlined_2_" x="0px" y="0px" width="32px" height="32px" viewBox="0 0 32 32" enable-background="new 0 0 32 32" xml:space="preserve">
<path d="M26.32,14.72c-0.28,0.56-0.65,1.24-1.12,1.959l4.12,1.37c0.27,0.09,0.489,0.3,0.609,0.57c0.11,0.26,0.101,0.57-0.029,0.83  l-2,4l-1.79-0.9l1.479-2.97l-3.649-1.21c-0.83,0.97-1.83,1.88-3.021,2.55l-0.86,3.03l1.87,4.68l-1.85,0.74l-2.01-5  c-0.08-0.2-0.09-0.43-0.03-0.64l0.55-1.91C18.08,21.92,17.56,22,17,22c-3.75,0-6.56-0.22-8.21-0.63l-0.74,2.58l1.88,4.68l-1.86,0.74  l-2-5c-0.08-0.2-0.09-0.43-0.03-0.64l2-7.011l1.92,0.561l-0.62,2.16C10.33,19.68,12.49,20,17,20c0.81,0,1.55-0.19,2.25-0.48  l0.79-2.8l2.13,0.62c1.311-1.44,2.18-3.11,2.6-4.02c-0.359-0.42-0.569-0.72-0.6-0.77l1.66-1.11C25.85,11.47,27.58,14,30,14  c0-2.74-0.87-6-5-6c-0.73,0-1.64,0.95-2.45,1.78C21.49,10.87,20.4,12,19,12h-9c-2.18,0-2.98,2.42-3.62,4.9  c-0.17,0.659-0.3,1.18-0.48,1.55c-1.18,2.34-4.44,3.45-4.58,3.5l-0.64-1.9c0.73-0.24,2.76-1.17,3.43-2.5  c0.09-0.18,0.21-0.67,0.34-1.149C5.02,14.16,6.09,10,10,10h9c0.55,0,1.38-0.86,2.11-1.61C21.57,7.91,22.06,7.42,22.58,7l-1.29-1.29  l1.42-1.42l1.76,1.76C24.64,6.02,24.82,6,25,6c4.38,0,7,2.99,7,8c0,1.3-1.03,2-2,2C28.53,16,27.28,15.41,26.32,14.72z"/>
</svg>
