<?xml version="1.0" encoding="utf-8"?>
<!-- Generator: Adobe Illustrator 16.0.0, SVG Export Plug-In . SVG Version: 6.00 Build 0)  -->
<svg xmlns="http://www.w3.org/2000/svg" xmlns:xlink="http://www.w3.org/1999/xlink" version="1.1" id="Capa_1" x="0px" y="0px" width="32px" height="32px" viewBox="0 0 32 32" enable-background="new 0 0 32 32" xml:space="preserve">
<path d="M32,21c0-3.347-2.339-4.606-4.107-4.915C27.237,12.957,23.275,10,17,10h-1v6h-6V9c0-2.201-1.794-3-3-3H0v13  c0,1.641,1.821,3.988,3.125,5.46C2.248,25.332,1.491,26,0,26v2c2.414,0,3.686-1.271,4.707-2.293C5.661,24.753,6.414,24,8,24  s2.339,0.753,3.293,1.707C12.314,26.729,13.586,28,16,28s3.686-1.271,4.707-2.293C21.661,24.753,22.414,24,24,24  s2.339,0.753,3.293,1.707C28.314,26.729,29.586,28,32,28v-2c-1.003,0-1.672-0.302-2.27-0.764C31.187,24.388,32,22.912,32,21z   M18,12.03c4.117,0.252,7.023,2.044,7.791,3.97H18V12.03z M6.988,8C7.45,8.012,8,8.195,8,9v7H3c-0.308,0-0.655,0.054-1,0.168V8  H6.988z M24,22c-2.414,0-3.686,1.271-4.707,2.293C18.339,25.247,17.586,26,16,26s-2.339-0.753-3.293-1.707  C11.686,23.271,10.414,22,8,22c-1.502,0-2.561,0.492-3.394,1.11C3.215,21.527,2,19.775,2,19c0-0.806,0.55-0.988,1-1h23.994  C27.496,18.006,30,18.177,30,21c0,1.409-0.621,2.334-1.837,2.765C27.223,22.881,26.009,22,24,22z"/>
</svg>
