<?xml version="1.0" encoding="utf-8"?>
<!-- Generator: Adobe Illustrator 16.0.0, SVG Export Plug-In . SVG Version: 6.00 Build 0)  -->
<svg xmlns="http://www.w3.org/2000/svg" xmlns:xlink="http://www.w3.org/1999/xlink" version="1.1" id="Capa_1" x="0px" y="0px" width="32px" height="32px" viewBox="0 0 32 32" enable-background="new 0 0 32 32" xml:space="preserve">
<path d="M32,14c0-0.97-0.701-2-2-2h-4.279l-2-6H0v18h2.101C2.564,26.282,4.582,28,7,28s4.436-1.718,4.899-4h8.201  c0.464,2.282,2.48,4,4.899,4s4.436-1.718,4.899-4H32V14z M23.612,12H18V8h4.279L23.612,12z M10,12V8h6v4H10z M2,8h6v4H2V8z M7,26  c-1.654,0-3-1.346-3-3s1.346-3,3-3s3,1.346,3,3S8.654,26,7,26z M25,26c-1.654,0-3-1.346-3-3s1.346-3,3-3s3,1.346,3,3  S26.654,26,25,26z M30,22h-0.101c-0.464-2.282-2.48-4-4.899-4s-4.436,1.718-4.899,4h-8.201C11.436,19.718,9.418,18,7,18  s-4.436,1.718-4.899,4H2v-8h28V22z"/>
</svg>
