<?xml version="1.0" encoding="utf-8"?>
<!-- Generator: Adobe Illustrator 16.0.0, SVG Export Plug-In . SVG Version: 6.00 Build 0)  -->
<svg xmlns="http://www.w3.org/2000/svg" xmlns:xlink="http://www.w3.org/1999/xlink" version="1.1" id="Capa_1" x="0px" y="0px" width="32px" height="32px" viewBox="0 0 32 32" enable-background="new 0 0 32 32" xml:space="preserve">
<path d="M19.72,10l-1.33-4H20V4H7H6H3C0.799,4,0,5.794,0,7v3v1v13h2.1c0.46,2.28,2.48,4,4.9,4s4.44-1.72,4.9-4h8.2  c0.46,2.28,2.48,4,4.9,4s4.44-1.72,4.9-4H32V10H19.72z M8,6h8.277L18,11.16V16h-6.586L8,12.586V6z M2,7.012C2.012,6.55,2.195,6,3,6  h3v4H2V7.012z M7,26c-1.65,0-3-1.35-3-3s1.35-3,3-3s3,1.35,3,3S8.65,26,7,26z M25,26c-1.65,0-3-1.35-3-3s1.35-3,3-3s3,1.35,3,3  S26.65,26,25,26z M30,14h-2v2h2v6h-0.1c-0.46-2.28-2.48-4-4.9-4s-4.44,1.72-4.9,4h-8.2c-0.46-2.28-2.48-4-4.9-4s-4.44,1.72-4.9,4H2  V12h4v1.414L10.586,18H20v-6h10V14z"/>
</svg>
