<?xml version="1.0" encoding="utf-8"?>
<!-- Generator: Adobe Illustrator 16.0.0, SVG Export Plug-In . SVG Version: 6.00 Build 0)  -->
<svg xmlns="http://www.w3.org/2000/svg" xmlns:xlink="http://www.w3.org/1999/xlink" version="1.1" id="Outlined_2_" x="0px" y="0px" width="32px" height="32px" viewBox="0 0 32 32" enable-background="new 0 0 32 32" xml:space="preserve">
<path d="M18.998,12.001h-5.997c-1.206,0-3,0.799-3,3V21c0,1.206,0.799,3,3,3h5.997c1.206,0,3-0.799,3-3v-5.999  C21.998,13.795,21.199,12.001,18.998,12.001z M19.998,21c0,0.803-0.547,0.987-1.008,1h-5.989c-0.805,0-0.988-0.55-1-1v-5.999  c0-0.805,0.55-0.988,1-1h5.997c0.806,0,0.988,0.55,1,1V21z M25,2H15c-1.206,0-3,0.799-3,3v1h-1c-0.265,0-0.52,0.105-0.707,0.293  L9.501,7.085L7.708,5.292c-0.391-0.391-1.023-0.391-1.414,0L3.292,8.294c-0.391,0.391-0.391,1.023,0,1.414l1.793,1.793l-0.792,0.792  C4.105,12.48,4,12.735,4,13v14c0,1.206,0.799,3,3,3h18c1.206,0,3-0.799,3-3V5C28,3.794,27.201,2,25,2z M15,4h5.586l-2,2H14V5  C14,4.195,14.55,4.012,15,4z M5.413,9.001l1.588-1.588l1.086,1.086l-1.588,1.588L5.413,9.001z M26,27c0,0.803-0.547,0.987-1.008,1H7  c-0.805,0-0.988-0.55-1-1V13.414L11.414,8H19c0.266,0,0.52-0.105,0.707-0.293L23.414,4H25c0.806,0,0.988,0.55,1,1V27z"/>
</svg>
