<?xml version="1.0" encoding="utf-8"?>
<!-- Generator: Adobe Illustrator 16.0.0, SVG Export Plug-In . SVG Version: 6.00 Build 0)  -->
<svg xmlns="http://www.w3.org/2000/svg" xmlns:xlink="http://www.w3.org/1999/xlink" version="1.1" id="Capa_1" x="0px" y="0px" width="32px" height="32px" viewBox="0 0 32 32" enable-background="new 0 0 32 32" xml:space="preserve">
<path d="M20,12.17V7c0-2.221-2.666-5.888-3.2-6.6c-0.377-0.504-1.223-0.504-1.6,0C14.666,1.112,12,4.779,12,7v5.17  C6.82,13.2,0,14.04,0,17v5h2v-2h2v2h2v-2h6.153l0.785,4.712l-4.706,5.647c-0.281,0.338-0.31,0.818-0.07,1.187  c0.239,0.367,0.69,0.533,1.113,0.416L16,30.04l6.726,1.922C22.816,31.987,22.908,32,23,32c0.332,0,0.65-0.166,0.838-0.454  c0.239-0.368,0.211-0.849-0.069-1.187l-4.707-5.647L19.847,20H26v2h2v-2h2v2h2v-5C32,14.04,25.18,13.2,20,12.17z M19,18  c-0.489,0-0.906,0.354-0.986,0.836l-1,6c-0.048,0.287,0.031,0.581,0.218,0.805l2.923,3.506l-3.879-1.108  c-0.18-0.051-0.37-0.051-0.55,0l-3.879,1.108l2.922-3.506c0.187-0.224,0.266-0.518,0.218-0.805l-1-6C13.906,18.354,13.489,18,13,18  H3.01C2.55,17.99,2,17.81,2,17c0-0.94,4.71-1.94,11.16-3.01L14,13.85V7c0-0.899,1.005-2.752,2-4.259C16.995,4.247,18,6.099,18,7  v6.85l0.84,0.14C25.29,15.06,30,16.06,30,17c0,0.81-0.55,0.99-1,1H19z"/>
</svg>
