<?xml version="1.0" encoding="utf-8"?>
<!-- Generator: Adobe Illustrator 16.0.0, SVG Export Plug-In . SVG Version: 6.00 Build 0)  -->
<svg xmlns="http://www.w3.org/2000/svg" xmlns:xlink="http://www.w3.org/1999/xlink" version="1.1" id="Capa_1" x="0px" y="0px" width="32px" height="32px" viewBox="0 0 32 32" enable-background="new 0 0 32 32" xml:space="preserve">
<path d="M20,10.427V7c0-0.082-0.01-0.163-0.03-0.243c-1.055-4.22-3.173-6.375-3.263-6.464c-0.391-0.391-1.023-0.391-1.414,0  c-0.09,0.089-2.208,2.244-3.263,6.464C12.01,6.837,12,6.918,12,7v3.427C6.409,13.714,0,17.934,0,20v4h2v-2  c0.06,0,0.12-0.006,0.179-0.017L4,21.652V24h2v-2.711l6.181-1.124l0.757,4.547l-4.706,5.647c-0.249,0.299-0.302,0.714-0.138,1.064  C8.259,31.775,8.612,32,9,32h14c0.388,0,0.741-0.225,0.905-0.576c0.165-0.351,0.111-0.766-0.137-1.064l-4.707-5.647l0.758-4.547  L26,21.289V24h2v-2.348l1.821,0.331C29.88,21.994,29.94,22,30,22v2h2v-4C32,17.934,25.591,13.714,20,10.427z M16,2.612  c0.489,0.713,1.139,1.85,1.66,3.388h-3.321C14.861,4.461,15.512,3.324,16,2.612z M19.179,18.017  c-0.265-0.054-0.535,0.011-0.754,0.165s-0.367,0.39-0.411,0.654l-1,6c-0.048,0.287,0.031,0.581,0.218,0.805L20.865,30h-9.73  l3.633-4.359c0.187-0.224,0.266-0.518,0.218-0.805l-1-6c-0.044-0.265-0.192-0.5-0.411-0.654c-0.219-0.154-0.492-0.216-0.754-0.165  L2.045,19.976c0.73-1.31,6.404-5.163,11.459-8.112C13.811,11.685,14,11.355,14,11V8h4v3c0,0.355,0.188,0.685,0.496,0.864  c5.055,2.949,10.729,6.802,11.459,8.112L19.179,18.017z"/>
</svg>
