<?xml version="1.0" encoding="utf-8"?>
<!-- Generator: Adobe Illustrator 16.0.0, SVG Export Plug-In . SVG Version: 6.00 Build 0)  -->
<svg xmlns="http://www.w3.org/2000/svg" xmlns:xlink="http://www.w3.org/1999/xlink" version="1.1" id="Outlined_2_" x="0px" y="0px" width="32px" height="32px" viewBox="0 0 32 32" enable-background="new 0 0 32 32" xml:space="preserve">
<g>
	<circle cx="15" cy="21.004" r="2"/>
	<circle cx="10" cy="18.002" r="2"/>
	<circle cx="20" cy="18.002" r="2"/>
	<path d="M16,12V7.34l8.71,2.62l0.58-1.92L18.48,6l6.81-2.04l-0.58-1.92L15,4.96L5.29,2.04L4.71,3.96L11.52,6L4.71,8.04l0.58,1.92   L14,7.34V12H4v14h8v2h2v-2h2v2h2v-2h8V12H16z M24,24H6V14h18V24z"/>
</g>
</svg>
