<?xml version="1.0" encoding="utf-8"?>
<!-- Generator: Adobe Illustrator 16.0.0, SVG Export Plug-In . SVG Version: 6.00 Build 0)  -->
<svg xmlns="http://www.w3.org/2000/svg" xmlns:xlink="http://www.w3.org/1999/xlink" version="1.1" id="Capa_1" x="0px" y="0px" width="32px" height="32px" viewBox="0 0 32 32" enable-background="new 0 0 32 32" xml:space="preserve">
<path d="M28.146,23.749C29.935,22.069,32,19.59,32,17c0-1.749-1.138-2.619-2.207-2.889C29.173,11.995,27.059,6,23,6h-7H9  c-4.058,0-6.173,5.996-6.793,8.111C1.138,14.382,0,15.251,0,17c0,2.59,2.065,5.069,3.854,6.749  c-0.196,0.184-0.384,0.367-0.561,0.544C2.339,25.247,1.586,26,0,26v2c2.414,0,3.686-1.271,4.707-2.293C5.661,24.753,6.414,24,8,24  s2.339,0.753,3.293,1.707C12.314,26.729,13.586,28,16,28s3.686-1.271,4.707-2.293C21.661,24.753,22.414,24,24,24  s2.339,0.753,3.293,1.707C28.314,26.729,29.586,28,32,28v-2c-1.586,0-2.339-0.753-3.293-1.707  C28.53,24.116,28.342,23.933,28.146,23.749z M9,8h7h7c2.169,0,3.866,3.668,4.656,6H4.344C5.134,11.668,6.832,8,9,8z M26.844,16  c-0.262,0.89-0.963,2-2.844,2s-2.582-1.11-2.844-2H26.844z M18.844,16c-0.262,0.89-0.963,2-2.844,2c-1.88,0-2.582-1.11-2.844-2  H18.844z M10.844,16C10.582,16.89,9.88,18,8,18s-2.582-1.11-2.844-2H10.844z M19.293,24.293C18.339,25.247,17.586,26,16,26  s-2.339-0.753-3.293-1.707C11.686,23.271,10.414,22,8,22c-1.008,0-1.808,0.229-2.483,0.561C3.845,21.064,2,18.932,2,17  c0-0.81,0.55-0.99,1-1h0.104C3.445,17.754,4.721,20,8,20c1.994,0,3.246-0.831,4-1.877C12.754,19.169,14.006,20,16,20  c1.993,0,3.246-0.831,4-1.877C20.754,19.169,22.007,20,24,20c3.279,0,4.555-2.246,4.896-4h0.094c0.46,0.01,1.01,0.19,1.01,1  c0,1.922-1.846,4.064-3.518,5.561C25.809,22.228,25.008,22,24,22C21.586,22,20.314,23.271,19.293,24.293z"/>
</svg>
