<?xml version="1.0" encoding="utf-8"?>
<!-- Generator: Adobe Illustrator 16.0.0, SVG Export Plug-In . SVG Version: 6.00 Build 0)  -->
<svg xmlns="http://www.w3.org/2000/svg" xmlns:xlink="http://www.w3.org/1999/xlink" version="1.1" id="Capa_1" x="0px" y="0px" width="32px" height="32px" viewBox="0 0 32 32" enable-background="new 0 0 32 32" xml:space="preserve">
<path d="M16,0C7.178,0,0,7.178,0,16s7.178,16,16,16s16-7.178,16-16S24.822,0,16,0z M30,16c0,1.415-0.215,2.779-0.607,4.067  l-7.788-1.947c0.251-0.66,0.395-1.373,0.395-2.12s-0.144-1.46-0.394-2.12l7.787-1.947C29.785,13.221,30,14.585,30,16z M2,16  c0-1.415,0.215-2.779,0.607-4.067l7.786,1.947c-0.25,0.66-0.394,1.373-0.394,2.121c0,0.747,0.144,1.46,0.395,2.121l-7.787,1.946  C2.215,18.779,2,17.415,2,16z M11.999,16c0-2.206,1.795-4.001,4.001-4.001c2.205,0,3.999,1.795,3.999,4.001  c0,2.205-1.794,3.999-3.999,3.999C13.794,19.999,11.999,18.205,11.999,16z M28.656,10.055l-8.12,2.03  c-0.191-0.222-0.399-0.43-0.621-0.622l2.03-8.12C24.889,4.732,27.268,7.111,28.656,10.055z M20.067,2.607l-1.946,7.787  C17.46,10.143,16.747,9.999,16,9.999c-0.748,0-1.46,0.144-2.121,0.394l-1.947-7.786C13.221,2.215,14.585,2,16,2  C17.415,2,18.779,2.215,20.067,2.607z M10.055,3.344l2.03,8.118c-0.223,0.192-0.431,0.4-0.623,0.623l-8.118-2.03  C4.732,7.111,7.111,4.732,10.055,3.344z M3.344,21.945l8.12-2.03c0.192,0.222,0.399,0.43,0.622,0.621l-2.03,8.12  C7.111,27.268,4.732,24.889,3.344,21.945z M11.933,29.393l1.947-7.787c0.66,0.25,1.373,0.394,2.12,0.394s1.46-0.144,2.12-0.395  l1.947,7.788C18.779,29.785,17.415,30,16,30C14.585,30,13.221,29.785,11.933,29.393z M21.945,28.656l-2.03-8.121  c0.222-0.191,0.429-0.398,0.62-0.62l8.121,2.03C27.268,24.889,24.889,27.268,21.945,28.656z"/>
</svg>
