<?xml version="1.0" encoding="utf-8"?>
<!-- Generator: Adobe Illustrator 16.0.0, SVG Export Plug-In . SVG Version: 6.00 Build 0)  -->
<svg xmlns="http://www.w3.org/2000/svg" xmlns:xlink="http://www.w3.org/1999/xlink" version="1.1" id="Capa_1" x="0px" y="0px" width="32px" height="32px" viewBox="0 0 32 32" enable-background="new 0 0 32 32" xml:space="preserve">
<path d="M20,10.286V7c0-3.125-1.632-4.429-3-4.841V2h2c0.553,0,1-0.448,1-1s-0.447-1-1-1h-6c-0.552,0-1,0.448-1,1s0.448,1,1,1h2  v0.159C13.632,2.571,12,3.875,12,7v3.286C8.903,11.377,0,14.875,0,19c0,2.201,1.794,3,3,3c1.638,0,6.605-1.147,9-1.726V24l-2,1v7  l6-2l6,2v-7l-2-1v-3.726C22.396,20.853,27.362,22,29,22c1.206,0,3-0.799,3-3C32,14.875,23.097,11.377,20,10.286z M29,20  c-1.539,0-7.565-1.422-9.758-1.97c-0.298-0.075-0.614-0.008-0.857,0.182S18,18.692,18,19v6.23l2,1v2.989C19.33,29,16.67,28.24,16,28  c-0.67,0.24-3.33,1-4,1.22V26.23l2-1V19c0-0.308-0.142-0.599-0.385-0.788c-0.242-0.189-0.561-0.259-0.858-0.182  C10.565,18.578,4.539,20,3.012,20C2.55,19.988,2,19.806,2,19c0-2.259,6.618-5.483,11.316-7.051l-0.004-0.012  C13.709,11.804,14,11.441,14,11V7c0-2.799,1.678-2.99,2-3c0.082,0,2,0.034,2,3v4c0,0.441,0.291,0.804,0.688,0.937l-0.004,0.012  C23.383,13.517,30,16.741,30,19C30,19.806,29.45,19.988,29,20z"/>
</svg>
