<?xml version="1.0" encoding="utf-8"?>
<!-- Generator: Adobe Illustrator 16.0.0, SVG Export Plug-In . SVG Version: 6.00 Build 0)  -->
<svg xmlns="http://www.w3.org/2000/svg" xmlns:xlink="http://www.w3.org/1999/xlink" version="1.1" id="Capa_1" x="0px" y="0px" width="32px" height="32px" viewBox="0 0 32 32" enable-background="new 0 0 32 32" xml:space="preserve">
<path d="M29,16c-1.262,0-1.967-0.788-3.103-2.179C24.507,12.119,22.777,10,19,10H9c-2.977,0-4.208,2.611-5.022,4.338  C3.703,14.922,3.242,15.899,3,16c-2.201,0-3,1.794-3,3v4c0,1.932,1.381,2.782,2.534,2.962C3.222,27.173,4.508,28,6,28  c1.477,0,2.752-0.81,3.445-2h13.109c0.693,1.19,1.969,2,3.445,2c1.497,0,2.786-0.832,3.472-2.049C31.306,25.707,32,24.112,32,23v-4  C32,16.799,30.206,16,29,16z M24.348,15.085c0.247,0.303,0.504,0.613,0.775,0.915H18v-4h1C21.828,12,23.053,13.499,24.348,15.085z   M12,16v-4h4v4H12z M5.787,15.191C6.695,13.263,7.41,12,9,12h1v4H5.391C5.527,15.735,5.658,15.463,5.787,15.191z M6,26  c-1.103,0-2-0.897-2-2s0.897-2,2-2s2,0.897,2,2S7.103,26,6,26z M26,26c-1.103,0-2-0.897-2-2s0.897-2,2-2s2,0.897,2,2  S27.103,26,26,26z M30,22.988c-0.003,0.129-0.022,0.265-0.063,0.394C29.639,21.468,27.997,20,26,20c-2.209,0-4,1.791-4,4H10  c0-2.209-1.791-4-4-4c-2.001,0-3.644,1.474-3.938,3.392C2.025,23.28,2,23.154,2,23v-3.988C2.012,18.55,2.195,18,3,18h25.988  C29.45,18.012,30,18.194,30,19V22.988z"/>
</svg>
