<?xml version="1.0" encoding="utf-8"?>
<!-- Generator: Adobe Illustrator 16.0.0, SVG Export Plug-In . SVG Version: 6.00 Build 0)  -->
<svg xmlns="http://www.w3.org/2000/svg" xmlns:xlink="http://www.w3.org/1999/xlink" version="1.1" id="Capa_1" x="0px" y="0px" width="32px" height="32px" viewBox="0 0 32 32" enable-background="new 0 0 32 32" xml:space="preserve">
<path d="M22,8.125V0H10v8.103C6.872,8.708,6,12.113,6,14v13v3c0,0,0,2,2,2c0,0,2,0,2-2h12c0,2,2,2,2,2c2,0,2-2,2-2v-3V14  C26,10.065,23.754,8.535,22,8.125z M20,2v6h-8V2H20z M11,10h10c0.122,0,3,0.045,3,4v4H8v-4C8,13.837,8.034,10,11,10z M10,28H9.012  C8.55,27.988,8,27.806,8,27v-7h16v6.988C23.988,27.45,23.806,28,23,28h-1H10z"/>
</svg>
