<?xml version="1.0" encoding="utf-8"?>
<!-- Generator: Adobe Illustrator 16.0.0, SVG Export Plug-In . SVG Version: 6.00 Build 0)  -->
<svg xmlns="http://www.w3.org/2000/svg" xmlns:xlink="http://www.w3.org/1999/xlink" version="1.1" id="Outlined_2_" x="0px" y="0px" width="32px" height="32px" viewBox="0 0 32 32" enable-background="new 0 0 32 32" xml:space="preserve">
<path d="M28.6,5.01L28.59,5l-0.01-0.029l-0.01,0.01L23.76,9.8H22.2V8.24L27,3.42l0.01-0.01L26.99,3.4h-0.01  C25.74,2.49,24.25,2,22.69,2c-1.95,0-3.78,0.76-5.171,2.141c-1.379,1.379-2.14,3.219-2.14,5.17c0,0.859,0.149,1.699,0.44,2.479  l-4.03,4.021c-0.78-0.281-1.62-0.431-2.479-0.431c-1.951,0-3.791,0.761-5.17,2.14C2.76,18.9,2,20.74,2,22.69  C2,24.26,2.49,25.76,3.41,27l0.01,0.02L8.24,22.2H9.8v1.56L4.98,28.58L5,28.59C6.24,29.51,7.74,30,9.311,30  c1.949,0,3.789-0.76,5.17-2.14c1.379-1.38,2.14-3.221,2.14-5.17c0-0.86-0.149-1.7-0.44-2.49l4.03-4.021  c0.78,0.291,1.62,0.44,2.48,0.44c1.949,0,3.79-0.761,5.17-2.14C30.44,11.9,30.68,7.87,28.6,5.01z M26.45,13.061  c-1.01,1-2.34,1.56-3.76,1.56c-1.04,0-2.04-0.3-2.891-0.86l-6.03,6.04c0.551,0.86,0.851,1.851,0.851,2.891  c0,1.42-0.55,2.75-1.55,3.75c-1.01,1.01-2.34,1.56-3.76,1.56c-0.291,0-0.57-0.02-0.851-0.07l3.34-3.34V20.2H7.41l-3.34,3.34  C4.02,23.26,4,22.98,4,22.69c0-1.421,0.55-2.75,1.561-3.761c1-1,2.34-1.55,3.75-1.55c1.049,0,2.049,0.3,2.91,0.86l6.039-6.01  c-0.569-0.86-0.88-1.86-0.88-2.92c0-1.42,0.561-2.75,1.561-3.761c1-1,2.329-1.55,3.75-1.55c0.29,0,0.569,0.02,0.85,0.07L20.2,7.41  v4.39h4.39l3.34-3.34C28.19,10.09,27.7,11.811,26.45,13.061z"/>
</svg>
