<?xml version="1.0" encoding="utf-8"?>
<!-- Generator: Adobe Illustrator 16.0.0, SVG Export Plug-In . SVG Version: 6.00 Build 0)  -->
<svg xmlns="http://www.w3.org/2000/svg" xmlns:xlink="http://www.w3.org/1999/xlink" version="1.1" id="Capa_1" x="0px" y="0px" width="32px" height="32px" viewBox="0 0 32 32" enable-background="new 0 0 32 32" xml:space="preserve">
<path d="M27.447,15.105c-2.319-1.16-3.706-2.493-4.929-3.67C20.602,9.592,18.947,8,15,8H7c-2.201,0-3,1.794-3,3v2  c0,0.562-0.217,0.803-0.707,1.293C2.747,14.838,2,15.586,2,17v6c0,2.201,1.794,3,3,3h1.555c0.693,1.19,1.969,2,3.445,2  s2.752-0.81,3.445-2h5.109c0.693,1.19,1.969,2,3.445,2s2.752-0.81,3.445-2H27c2.201,0,3-1.794,3-3v-5  C30,16.499,28.046,15.405,27.447,15.105z M22.334,14H16v-3.952c2.415,0.226,3.537,1.294,5.132,2.829  C21.498,13.23,21.896,13.609,22.334,14z M10,10h4v4h-3c-0.805,0-0.988-0.55-1-1V10z M10,26c-1.103,0-2-0.897-2-2s0.897-2,2-2  s2,0.897,2,2S11.103,26,10,26z M22,26c-1.103,0-2-0.897-2-2s0.897-2,2-2s2,0.897,2,2S23.103,26,22,26z M28,22.988  C27.988,23.45,27.806,24,27,24h-1c0-2.209-1.791-4-4-4s-4,1.791-4,4h-4c0-2.209-1.791-4-4-4s-4,1.791-4,4H5.012  C4.55,23.988,4,23.806,4,23v-6c0-0.562,0.217-0.803,0.707-1.293C5.253,15.162,6,14.414,6,13v-1.988C6.012,10.55,6.195,10,7,10h1v3  c0,1.206,0.799,3,3,3h13.971c0.483,0.304,1.004,0.604,1.581,0.894C27.208,17.225,27.928,17.795,28,18V22.988z"/>
</svg>
