<?xml version="1.0" encoding="utf-8"?>
<!-- Generator: Adobe Illustrator 16.0.0, SVG Export Plug-In . SVG Version: 6.00 Build 0)  -->
<svg xmlns="http://www.w3.org/2000/svg" xmlns:xlink="http://www.w3.org/1999/xlink" version="1.1" id="Capa_1" x="0px" y="0px" width="32px" height="32px" viewBox="0 0 32 32" enable-background="new 0 0 32 32" xml:space="preserve">
<path d="M26,20h-4v-2c0-2.035,0.556-3.123,0.984-3.66c1.363,1.152,2.775,1.74,4.208,1.74c2.117,0,3.459-1.317,3.515-1.373l1-1  c0.391-0.391,0.391-1.023,0-1.414L28.414,9l1.293-1.293c0.391-0.391,0.391-1.023,0-1.414s-1.023-0.391-1.414,0L27,7.586  l-3.293-3.293c-0.391-0.391-1.023-0.391-1.414,0l-1,1c-0.035,0.035-3.241,3.344,0.28,7.618C20.85,13.729,20,15.266,20,18v2h-4v-3  c0-2.201-1.794-3-3-3h-1v-1c0-2.201-1.794-3-3-3H4V6H2v8.162C0.562,14.615,0,16.001,0,17v6c0,2.762,2.239,5,5,5  c1.643,0,3.088-0.804,4-2.027V26h13.555c0.693,1.19,1.969,2,3.445,2s2.752-0.81,3.445-2H32v-2h-2C30,21.791,28.209,20,26,20z   M22.707,6.707L23,6.414L29.586,13l-0.293,0.293c-0.008,0.008-0.823,0.787-2.101,0.787c-1.127,0-2.3-0.602-3.485-1.787  C20.551,9.136,22.483,6.94,22.707,6.707z M8.988,12C9.45,12.012,10,12.195,10,13v1H4v-2H8.988z M5,26c-1.654,0-3-1.346-3-3  s1.346-3,3-3s3,1.346,3,3S6.654,26,5,26z M5,18c-1.131,0-2.162,0.39-3,1.022v-2.011C2.012,16.55,2.195,16,3,16h9.988  C13.45,16.012,14,16.195,14,17v7H9.899C9.965,23.677,10,23.343,10,23C10,20.238,7.761,18,5,18z M16,24v-2h6.555  C22.211,22.591,22,23.268,22,24H16z M26,26c-1.103,0-2-0.897-2-2s0.897-2,2-2s2,0.897,2,2S27.103,26,26,26z"/>
</svg>
