<?xml version="1.0" encoding="utf-8"?>
<!-- Generator: Adobe Illustrator 16.0.0, SVG Export Plug-In . SVG Version: 6.00 Build 0)  -->
<svg xmlns="http://www.w3.org/2000/svg" xmlns:xlink="http://www.w3.org/1999/xlink" version="1.1" id="Capa_1" x="0px" y="0px" width="32px" height="32px" viewBox="0 0 32 32" enable-background="new 0 0 32 32" xml:space="preserve">
<path d="M28.981,11.747C29.558,11.437,30,10.849,30,10V9c0-1.206-0.799-3-3-3H3C1.794,6,0,6.799,0,9v14c0,2.201,1.794,3,3,3h1.555  C5.248,27.19,6.523,28,8,28s2.752-0.81,3.445-2h9.109c0.693,1.19,1.969,2,3.445,2s2.752-0.81,3.445-2H29c2.201,0,3-1.794,3-3v-4  C32,18.464,30.573,14.208,28.981,11.747z M24,12h2.75c0.506,0.53,1.414,2.338,2.144,4H25c-0.806,0-0.988-0.55-1-1V12z M2,12h6v4H2  V12z M8,26c-1.103,0-2-0.897-2-2s0.897-2,2-2s2,0.897,2,2S9.103,26,8,26z M8,20c-2.209,0-4,1.791-4,4H3.012  C2.55,23.988,2,23.806,2,23v-5h6h2v-6h4v12h-2C12,21.791,10.209,20,8,20z M24,26c-1.103,0-2-0.897-2-2s0.897-2,2-2s2,0.897,2,2  S25.103,26,24,26z M30,22.988C29.988,23.45,29.806,24,29,24h-1c0-2.209-1.791-4-4-4s-4,1.791-4,4h-4V10H2V9c0-0.805,0.55-0.988,1-1  h24c0.806,0,0.988,0.55,1,1v1H18v10h2v-8h2v3c0,1.206,0.799,3,3,3h4.705c0.167,0.462,0.277,0.822,0.295,1V22.988z"/>
</svg>
