<?xml version="1.0" encoding="utf-8"?>
<!-- Generator: Adobe Illustrator 16.0.0, SVG Export Plug-In . SVG Version: 6.00 Build 0)  -->
<svg xmlns="http://www.w3.org/2000/svg" xmlns:xlink="http://www.w3.org/1999/xlink" version="1.1" id="Capa_1" x="0px" y="0px" width="32px" height="32px" viewBox="0 0 32 32" enable-background="new 0 0 32 32" xml:space="preserve">
<g>
	<path d="M27,18c-0.267,0-0.522,0.038-0.777,0.078L24.693,14H25c2.278,0,3.066,1.375,3.111,1.458C28.288,15.802,28.638,16,29.001,16   c0.15,0,0.303-0.034,0.446-0.105c0.494-0.247,0.694-0.848,0.447-1.342C29.843,14.449,28.577,12,25,12h-1   c-0.019,0-0.034,0.01-0.053,0.011l-2.011-5.362C21.79,6.259,21.417,6,21,6h-4c-0.552,0-1,0.448-1,1s0.448,1,1,1h3.307l1.505,4.013   c-1.288,0.065-1.998,0.76-2.519,1.28C18.803,13.783,18.563,14,18,14h-4c-0.697,0-1.275-0.386-1.945-0.832   C11.233,12.621,10.303,12,9,12c-2.651,0-5.418-1.814-5.446-1.833c-0.307-0.204-0.703-0.223-1.026-0.048C2.203,10.293,2,10.632,2,11   c0,0.228,0.048,4.78,2.751,7.557C3.125,19.382,2,21.052,2,23c0,2.762,2.239,5,5,5s5-2.238,5-5c0-2.647-2.064-4.792-4.667-4.967   c-2.043-1.101-2.838-3.546-3.143-5.246C5.436,13.369,7.201,14,9,14c0.697,0,1.275,0.386,1.945,0.832C11.767,15.379,12.697,16,14,16   h4c1.414,0,2.161-0.747,2.707-1.293C21.197,14.217,21.438,14,22,14h0.557l1.791,4.776C22.941,19.661,22,21.216,22,23   c0,2.762,2.238,5,5,5s5-2.238,5-5S29.762,18,27,18z M10,23c0,1.654-1.346,3-3,3s-3-1.346-3-3s1.346-3,3-3S10,21.346,10,23z M27,26   c-1.654,0-3-1.346-3-3c0-0.918,0.424-1.731,1.076-2.282l0.987,2.634C26.214,23.753,26.596,24,27,24   c0.117,0,0.235-0.021,0.352-0.063c0.517-0.194,0.778-0.771,0.585-1.288l-0.991-2.643C26.964,20.005,26.981,20,27,20   c1.654,0,3,1.346,3,3S28.654,26,27,26z"/>
	<path d="M20,18c0,0.163-0.034,4-3,4h-3v2h3c3.955,0,5-3.925,5-6H20z"/>
</g>
</svg>
