<?xml version="1.0" encoding="utf-8"?>
<!-- Generator: Adobe Illustrator 16.0.0, SVG Export Plug-In . SVG Version: 6.00 Build 0)  -->
<svg xmlns="http://www.w3.org/2000/svg" xmlns:xlink="http://www.w3.org/1999/xlink" version="1.1" id="Capa_1" x="0px" y="0px" width="32px" height="32px" viewBox="0 0 32 32" enable-background="new 0 0 32 32" xml:space="preserve">
<path d="M2.893,24.688C2.106,25.445,1.358,26,0,26v2c2.414,0,3.686-1.271,4.707-2.293C5.661,24.753,6.414,24,8,24  s2.339,0.753,3.293,1.707C12.314,26.729,13.586,28,16,28s3.686-1.271,4.707-2.293C21.66,24.753,22.414,24,24,24  s2.34,0.753,3.293,1.707C28.314,26.729,29.586,28,32,28v-2c-1.586,0-2.34-0.753-3.293-1.707c-0.181-0.181-0.374-0.369-0.575-0.557  L32,16h-4.465l-4-6H16V6h-2v4h-2V6h-2v4H8V6H6v4H4v6H0L2.893,24.688z M25.131,16H6v-4h16.465L25.131,16z M4.502,23.194L2.77,18  h25.99l-2.283,4.558C25.804,22.227,25.005,22,24,22c-2.414,0-3.686,1.271-4.707,2.293C18.34,25.247,17.586,26,16,26  s-2.339-0.753-3.293-1.707C11.686,23.271,10.414,22,8,22C6.432,22,5.35,22.538,4.502,23.194z"/>
</svg>
