<?xml version="1.0" encoding="utf-8"?>
<!-- Generator: Adobe Illustrator 16.0.0, SVG Export Plug-In . SVG Version: 6.00 Build 0)  -->
<svg xmlns="http://www.w3.org/2000/svg" xmlns:xlink="http://www.w3.org/1999/xlink" version="1.1" id="Capa_1" x="0px" y="0px" width="32px" height="32px" viewBox="0 0 32 32" enable-background="new 0 0 32 32" xml:space="preserve">
<path d="M32,12h-4V4h-2v8h-4l-2,2h-6V6H8v4H4v4H0l4.086,9.535c-0.286,0.253-0.548,0.513-0.793,0.758C2.339,25.247,1.586,26,0,26v2  c2.414,0,3.686-1.271,4.707-2.293C5.661,24.753,6.414,24,8,24s2.339,0.753,3.293,1.707C12.314,26.729,13.586,28,16,28  s3.686-1.271,4.707-2.293C21.661,24.753,22.414,24,24,24s2.339,0.753,3.293,1.707C28.314,26.729,29.586,28,32,28v-2  c-1.485,0-2.241-0.663-3.115-1.53L32,12z M6,12h4V8h2v6H6V12z M20.83,16l2-2h6.61l-1,4H3.89l-0.86-2H20.83z M19.293,24.293  C18.339,25.247,17.586,26,16,26s-2.339-0.753-3.293-1.707C11.686,23.271,10.414,22,8,22c-0.872,0-1.591,0.17-2.208,0.43L4.75,20  h23.19l-0.749,2.975C26.39,22.424,25.387,22,24,22C21.586,22,20.314,23.271,19.293,24.293z"/>
</svg>
