<?xml version="1.0" encoding="utf-8"?>
<!-- Generator: Adobe Illustrator 16.0.0, SVG Export Plug-In . SVG Version: 6.00 Build 0)  -->
<svg xmlns="http://www.w3.org/2000/svg" xmlns:xlink="http://www.w3.org/1999/xlink" version="1.1" id="Outlined_2_" x="0px" y="0px" width="32px" height="32px" viewBox="0 0 32 32" enable-background="new 0 0 32 32" xml:space="preserve">
<path d="M27.002,0c-0.106,0-10.321,0.122-10.97,10H8.001c-0.107,0-0.214,0.017-0.316,0.051c-3.376,1.125-5.411,6.968-5.632,7.63  c-0.098,0.293-0.055,0.614,0.117,0.871l2,3.001l1.664-1.109l-1.722-2.583C4.744,16.185,6.36,12.748,8.179,12H12v2.398  c-1.3,0.729-4,2.498-4,4.6v10.415l0.293,0.293c0.234,0.234,2.473,2.293,8.707,2.293s8.473-2.059,8.707-2.293L26,29.413V18.998  c0-2.103-2.699-3.871-4-4.6V10h-3.938c0.64-7.845,8.589-7.999,8.939-8h1V0H27.002z M17,29.999c-4.215,0-6.29-1.037-7-1.494v-7.74  c1.341,0.602,3.56,1.229,7,1.229c3.44,0,5.658-0.627,7-1.229v7.738C23.278,28.968,21.204,29.999,17,29.999z M23.873,18.574  c-0.819,0.492-2.887,1.419-6.873,1.419s-6.054-0.927-6.873-1.419c0.426-0.844,1.916-1.936,3.125-2.576h7.496  C21.957,16.639,23.446,17.73,23.873,18.574z M20,14h-6v-2h6V14z"/>
</svg>
