<?xml version="1.0" encoding="utf-8"?>
<!-- Generator: Adobe Illustrator 16.0.0, SVG Export Plug-In . SVG Version: 6.00 Build 0)  -->
<svg xmlns="http://www.w3.org/2000/svg" xmlns:xlink="http://www.w3.org/1999/xlink" version="1.1" id="Capa_1" x="0px" y="0px" width="32px" height="32px" viewBox="0 0 32 32" enable-background="new 0 0 32 32" xml:space="preserve">
<path d="M28.165,23.768C30.799,20.878,32,16.622,32,15c0-1.21-0.8-3-3-3c-0.81,0-1.67,0.25-2.76,0.56C24.23,13.13,21.19,14,16,14  c-5.19,0-8.23-0.87-10.24-1.44C4.67,12.25,3.81,12,3,12c-2.2,0-3,1.79-3,3c0,1.622,1.202,5.878,3.835,8.767  c-0.189,0.178-0.371,0.355-0.542,0.526C2.339,25.247,1.586,26,0,26v2c2.414,0,3.686-1.271,4.707-2.293C5.661,24.753,6.414,24,8,24  s2.339,0.753,3.293,1.707C12.314,26.729,13.586,28,16,28s3.686-1.271,4.707-2.293C21.661,24.753,22.414,24,24,24  s2.339,0.753,3.293,1.707C28.314,26.729,29.586,28,32,28v-2c-1.586,0-2.339-0.753-3.293-1.707  C28.536,24.122,28.354,23.945,28.165,23.768z M22,15.58c2.08-0.32,3.6-0.76,4.79-1.1C27.73,14.21,28.47,14,29,14  c0.81,0,0.99,0.55,1,1c0,1.47-1.207,5.216-3.466,7.587c-0.508-0.257-1.089-0.453-1.778-0.537C25.455,20.996,26,19.896,26,19  c0-0.55-0.45-1-1-1h-3V15.58z M12,15.82c1.18,0.11,2.5,0.18,4,0.18s2.82-0.07,4-0.18V18h-8V15.82z M2,15.01C2.01,14.55,2.19,14,3,14  c0.53,0,1.27,0.21,2.21,0.48c1.19,0.34,2.71,0.78,4.79,1.1V18H7c-0.55,0-1,0.45-1,1c0,0.896,0.545,1.996,1.244,3.05  c-0.689,0.084-1.271,0.28-1.778,0.537C3.207,20.216,2,16.47,2,15.01z M19.293,24.293C18.339,25.247,17.586,26,16,26  s-2.339-0.753-3.293-1.707c-0.702-0.702-1.533-1.514-2.761-1.958C9.27,21.498,8.678,20.669,8.33,20h15.34  c-0.348,0.669-0.939,1.498-1.616,2.336C20.825,22.779,19.995,23.591,19.293,24.293z"/>
</svg>
