<?xml version="1.0" encoding="utf-8"?>
<!-- Generator: Adobe Illustrator 16.0.0, SVG Export Plug-In . SVG Version: 6.00 Build 0)  -->
<svg xmlns="http://www.w3.org/2000/svg" xmlns:xlink="http://www.w3.org/1999/xlink" version="1.1" id="Capa_1" x="0px" y="0px" width="32px" height="32px" viewBox="0 0 32 32" enable-background="new 0 0 32 32" xml:space="preserve">
<path d="M28.082,23.69C29.894,21.752,32,18.797,32,17c0-1.205-0.797-2.996-3.083-2.996c-0.002,0-0.005,0-0.008,0L12,15.541V13  c0-2.201-1.794-3-3-3c-2.236,0-4.377,1.07-6.447,2.105C0.029,13.368,0,15.893,0,16v2c0,2.959,2.86,3.882,4.645,3.988  c0.092,0.277,0.205,0.582,0.316,0.885c-0.666,0.428-1.197,0.948-1.668,1.42C2.339,25.247,1.586,26,0,26v2  c2.414,0,3.686-1.271,4.707-2.293C5.661,24.753,6.414,24,8,24s2.339,0.753,3.293,1.707C12.314,26.729,13.586,28,16,28  s3.686-1.271,4.707-2.293C21.661,24.753,22.414,24,24,24s2.339,0.753,3.293,1.707C28.314,26.729,29.586,28,32,28v-2  c-1.586,0-2.339-0.753-3.293-1.707C28.512,24.098,28.302,23.894,28.082,23.69z M2,18v-2c0-0.014,0.017-1.39,1.447-2.105  C5.396,12.92,7.236,12,8.988,12C9.45,12.012,10,12.195,10,13v2.723l-3.09,0.281L6.804,16.02C4.632,16.454,4.021,18.144,4,19.012  c0.003,0.26,0.036,0.559,0.092,0.889C3.208,19.731,2,19.27,2,18z M19.293,24.293C18.339,25.247,17.586,26,16,26  s-2.339-0.753-3.293-1.707C11.686,23.271,10.414,22,8,22c-0.436,0-0.823,0.053-1.19,0.127C6.126,20.266,6.004,19.371,6,19.024  c0-0.008,0.032-0.789,1.148-1.034L29,16c0.806,0,0.988,0.55,1,1c0,0.888-1.566,3.449-3.581,5.527C25.758,22.213,24.976,22,24,22  C21.586,22,20.314,23.271,19.293,24.293z"/>
</svg>
