<?xml version="1.0" encoding="utf-8"?>
<!-- Generator: Adobe Illustrator 16.0.0, SVG Export Plug-In . SVG Version: 6.00 Build 0)  -->
<svg xmlns="http://www.w3.org/2000/svg" xmlns:xlink="http://www.w3.org/1999/xlink" version="1.1" id="Capa_1" x="0px" y="0px" width="32px" height="32px" viewBox="0 0 32 32" enable-background="new 0 0 32 32" xml:space="preserve">
<path d="M27,4H3C0.799,4,0,5.794,0,7v16c0,2.201,1.794,3,3,3h1.555C5.248,27.19,6.523,28,8,28s2.752-0.81,3.445-2h7.109  c0.693,1.19,1.969,2,3.445,2s2.752-0.81,3.445-2H27c2.201,0,3-1.794,3-3V7C30,4.799,28.206,4,27,4z M8,26c-1.103,0-2-0.897-2-2  s0.897-2,2-2s2,0.897,2,2S9.103,26,8,26z M22,26c-1.103,0-2-0.897-2-2s0.897-2,2-2s2,0.897,2,2S23.103,26,22,26z M28,22.988  C27.988,23.45,27.806,24,27,24h-1c0-2.209-1.791-4-4-4s-4,1.791-4,4h-6c0-2.209-1.791-4-4-4s-4,1.791-4,4H3.012  C2.55,23.988,2,23.806,2,23V10h2v3c0,1.206,0.799,3,3,3h16c1.206,0,3-0.799,3-3v-3h2V22.988z M16,10h8v3c0,0.805-0.55,0.988-1,1h-7  V10z M14,14H7c-0.805,0-0.988-0.55-1-1v-3h8V14z M28,8H2V7.012C2.012,6.55,2.195,6,3,6h23.988C27.45,6.012,28,6.195,28,7V8z"/>
</svg>
