<?xml version="1.0" encoding="utf-8"?>
<!-- Generator: Adobe Illustrator 16.0.0, SVG Export Plug-In . SVG Version: 6.00 Build 0)  -->
<svg xmlns="http://www.w3.org/2000/svg" xmlns:xlink="http://www.w3.org/1999/xlink" version="1.1" id="Outlined_2_" x="0px" y="0px" width="32px" height="32px" viewBox="0 0 32 32" enable-background="new 0 0 32 32" xml:space="preserve">
<g>
	<path d="M23.291,11.293l-2.294,2.294l-3.289-3.294C17.52,10.105,17.266,10,17,10h-0.999h-3c-0.266,0-0.52,0.105-0.708,0.293   l-3.998,4.002c-0.187,0.187-0.292,0.441-0.292,0.706L8,19h2v-3.584l2.001-2v10.907l-4.373,1.75l0.743,1.857l5.629-2.254V22h2.349   L18,25.713L18.002,30H20v-4.713l-2-4.5v-7.37l2.289,2.292c0.188,0.188,0.442,0.293,0.708,0.293s0.52-0.105,0.707-0.293l3.001-3.002   L23.291,11.293z M14,20v-8h2v8H14z"/>
	<path d="M20.002,6c0-2.206-1.795-4-4.001-4c-2.206,0-4,1.794-4,4s1.794,4,4,4C18.207,10,20.002,8.206,20.002,6z M16.001,8   c-1.103,0-2-0.897-2-2s0.897-2,2-2c1.104,0,2.001,0.897,2.001,2S17.104,8,16.001,8z"/>
</g>
</svg>
