<?xml version="1.0" encoding="utf-8"?>
<!-- Generator: Adobe Illustrator 16.0.0, SVG Export Plug-In . SVG Version: 6.00 Build 0)  -->
<svg xmlns="http://www.w3.org/2000/svg" xmlns:xlink="http://www.w3.org/1999/xlink" version="1.1" id="Outlined_2_" x="0px" y="0px" width="32px" height="32px" viewBox="0 0 32 32" enable-background="new 0 0 32 32" xml:space="preserve">
<g>
	<path d="M23.291,11.293l-2.294,2.294l-3.289-3.294C17.52,10.105,17.266,10,17,10h-0.999h-3c-0.266,0-0.52,0.105-0.708,0.293   l-3.998,4.002c-0.187,0.187-0.292,0.441-0.292,0.706L8,18.999l2,0.002l0.002-3.585l1.999-2v11.365L8.196,24.02L7.804,25.98   c0,0,5.132,1.021,5.197,1.021c0.229,0,0.454-0.079,0.634-0.227c0.232-0.19,0.366-0.474,0.366-0.773V22h2.349L18,25.713L18.002,30h2   L20,25.287l-2-4.5v-7.37l2.289,2.292c0.188,0.188,0.442,0.293,0.708,0.293s0.52-0.105,0.707-0.293l3.001-3.002L23.291,11.293z    M14.001,20v-8H16v8H14.001z"/>
	<path d="M20.002,6c0-2.206-1.795-4-4.001-4c-2.206,0-4,1.794-4,4s1.794,4,4,4C18.207,10,20.002,8.206,20.002,6z M16.001,8   c-1.103,0-2-0.897-2-2s0.897-2,2-2c1.104,0,2.001,0.897,2.001,2S17.104,8,16.001,8z"/>
	<rect x="2" y="28" width="14" height="2"/>
	<rect x="22" y="28" width="8" height="2"/>
</g>
</svg>
