<?xml version="1.0" encoding="utf-8"?>
<!-- Generator: Adobe Illustrator 16.0.0, SVG Export Plug-In . SVG Version: 6.00 Build 0)  -->
<svg xmlns="http://www.w3.org/2000/svg" xmlns:xlink="http://www.w3.org/1999/xlink" version="1.1" id="Outlined_2_" x="0px" y="0px" width="32px" height="32px" viewBox="0 0 32 32" enable-background="new 0 0 32 32" xml:space="preserve">
<path d="M28,30h-2l0.004-18.999c-0.012-0.45-0.194-1-1-1S24.012,10.539,24,11v7h-2V9c-0.012-0.449-0.194-1-1-1s-0.988,0.551-1,1.012  V18h-2V7c-0.012-0.449-0.198-1.001-1.004-1.001C16.095,5.999,16,6.699,16,7v11h-2V9c-0.018-0.445-0.219-1-1-1c-0.9,0-1,0.7-1,1  v14.998h-1c-1.029,0-4.5-1.33-6.16-1.99C4.43,22.058,4,22.288,4,22.998c0.141,0.88,3,3.97,6.189,7H7.311  c-2.75-2.7-5.311-5.59-5.311-7c0-2.2,1.79-3,3-3h0.189l0.181,0.07c1.61,0.64,3.47,1.33,4.63,1.68V9.02C10,7.811,10.8,6,13,6  c0.428,0,0.787,0.083,1.113,0.201c0.281-1.07,1.135-2.202,2.883-2.202c1.751,0,2.604,1.133,2.885,2.204C20.208,6.084,20.57,6,21,6  c1.75,0,2.604,1.133,2.885,2.204c0.327-0.119,0.689-0.203,1.119-0.203C27.205,8.001,28,9.794,28,11V30z"/>
</svg>
