<?xml version="1.0" encoding="utf-8"?>
<!-- Generator: Adobe Illustrator 16.0.0, SVG Export Plug-In . SVG Version: 6.00 Build 0)  -->
<svg xmlns="http://www.w3.org/2000/svg" xmlns:xlink="http://www.w3.org/1999/xlink" version="1.1" id="Outlined_2_" x="0px" y="0px" width="32px" height="32px" viewBox="0 0 32 32" enable-background="new 0 0 32 32" xml:space="preserve">
<g>
	<path d="M25.707,16.297L19.414,10H16h-3.415l-6.293,6.297l1.415,1.414L12,13.416V30h2v-8h4v8h2V13.415l4.293,4.296L25.707,16.297z    M14,12h4v8h-4V12z"/>
	<path d="M20,6c0-2.206-1.794-4-4-4c-2.206,0-4,1.794-4,4s1.794,4,4,4C18.206,10,20,8.206,20,6z M16,8c-1.103,0-2-0.897-2-2   s0.897-2,2-2c1.103,0,2,0.897,2,2S17.103,8,16,8z"/>
</g>
</svg>
