<?xml version="1.0" encoding="utf-8"?>
<!-- Generator: Adobe Illustrator 16.0.0, SVG Export Plug-In . SVG Version: 6.00 Build 0)  -->
<svg xmlns="http://www.w3.org/2000/svg" xmlns:xlink="http://www.w3.org/1999/xlink" version="1.1" id="Outlined_2_" x="0px" y="0px" width="32px" height="32px" viewBox="0 0 32 32" enable-background="new 0 0 32 32" xml:space="preserve">
<path d="M27.46,22.126c-0.479-0.255-1.083-0.066-1.346,0.411c-0.009,0.018-0.508,0.869-2.114,1.724V13c0-4.962-4.037-9-9-9  c-4.962,0-9,4.038-9,9v11.26c-1.575-0.839-2.087-1.675-2.114-1.721c-0.251-0.482-0.844-0.674-1.333-0.432  c-0.494,0.247-0.694,0.848-0.447,1.342C2.199,23.635,4.502,28.002,15,28.002c10.497,0,12.802-4.367,12.895-4.553  C28.138,22.962,27.942,22.379,27.46,22.126z M15,6c3.859,0,7,3.14,7,7v5.002h-2.102c-0.464-2.28-2.484-4.001-4.898-4.001  c-2.415,0-4.435,1.721-4.899,4.001H8V13C8,9.14,11.14,6,15,6z M18,19.002c0,1.654-1.346,3-3,3s-3-1.346-3-3s1.346-3.001,3-3.001  S18,17.348,18,19.002z M8,25.079v-5.077h2.101c0.465,2.279,2.484,4,4.899,4c2.414,0,4.435-1.721,4.898-4H22v5.077  c-1.652,0.523-3.909,0.923-7,0.923C11.909,26.002,9.653,25.603,8,25.079z"/>
</svg>
