<?xml version="1.0" encoding="utf-8"?>
<!-- Generator: Adobe Illustrator 16.0.0, SVG Export Plug-In . SVG Version: 6.00 Build 0)  -->
<svg xmlns="http://www.w3.org/2000/svg" xmlns:xlink="http://www.w3.org/1999/xlink" version="1.1" id="Capa_1" x="0px" y="0px" width="32px" height="32px" viewBox="0 0 32 32" enable-background="new 0 0 32 32" xml:space="preserve">
<g>
	<g>
		<path d="M29,14c-1.26,0-1.97-0.79-3.1-2.18C24.51,10.12,22.78,8,19,8h-1V6h-6v2H9c-2.98,0-4.21,2.61-5.02,4.34    C3.7,12.92,3.24,13.9,3,14c-2.2,0-3,1.79-3,3v6c0,2.2,1.79,3,3,3h1.54c0.69,1.2,1.98,2,3.46,2s2.77-0.8,3.46-2h9.08    c0.69,1.2,1.979,2,3.46,2s2.77-0.8,3.46-2H29c2.2,0,3-1.79,3-3v-6C32,14.8,30.21,14,29,14z M18,10h1c2.83,0,4.05,1.5,5.35,3.09    c0.24,0.3,0.5,0.61,0.761,0.91H18V10z M12,10h4v4h-4V10z M8,26c-1.1,0-2-0.9-2-2s0.9-2,2-2s2,0.9,2,2S9.1,26,8,26z M24,26    c-1.1,0-2-0.9-2-2s0.9-2,2-2s2,0.9,2,2S25.1,26,24,26z M30,22.99C29.99,23.45,29.81,24,29,24h-1c0-2.21-1.79-4-4-4s-4,1.79-4,4h-8    c0-2.21-1.79-4-4-4s-4,1.79-4,4H3.01C2.55,23.99,2,23.81,2,23v-5.99C2.01,16.55,2.19,16,3,16c1.46,0,2.14-1.43,2.79-2.81    C6.7,11.26,7.41,10,9,10h1v6h19c0.46,0.01,1,0.2,1,1V22.99z"/>
	</g>
</g>
<g>
	<rect x="14" width="2" height="4"/>
</g>
<g>
	<rect x="7.379" y="2.5" transform="matrix(0.7071 0.7071 -0.7071 0.7071 5.2574 -5.6924)" width="4.243" height="2"/>
</g>
<g>
	<rect x="19.5" y="1.379" transform="matrix(0.7071 0.7071 -0.7071 0.7071 8.4792 -13.4706)" width="2" height="4.243"/>
</g>
</svg>
