<?xml version="1.0" encoding="utf-8"?>
<!-- Generator: Adobe Illustrator 16.0.0, SVG Export Plug-In . SVG Version: 6.00 Build 0)  -->
<svg xmlns="http://www.w3.org/2000/svg" xmlns:xlink="http://www.w3.org/1999/xlink" version="1.1" id="Capa_1" x="0px" y="0px" width="32px" height="32px" viewBox="0 0 32 32" enable-background="new 0 0 32 32" xml:space="preserve">
<g>
	<path d="M27,18c-0.369,0-0.727,0.046-1.073,0.122L23.206,12H26v4h2v-5c0-0.552-0.447-1-1-1h-4.684l-2.402-5.406   c-0.225-0.504-0.814-0.732-1.32-0.507c-0.505,0.224-0.731,0.815-0.508,1.32L19.238,8H17c-0.552,0-1,0.448-1,1s0.448,1,1,1h3   c0.042,0,0.077-0.019,0.117-0.023l1.001,2.251C20.535,12.088,19.844,12,19,12c-2.065,0-3.425,0.497-4.739,0.977   C12.885,13.48,11.462,14,9,14H8v-1c0-1.206-0.799-3-3-3s-3,1.794-3,3v3.47C0.501,18.453,0,21.191,0,23v1h2.101   C2.566,26.279,4.585,28,7,28s4.434-1.721,4.899-4H13c5.119,0,8.589-2.276,10.341-6.771l0.76,1.71C22.833,19.847,22,21.322,22,23   c0,2.762,2.238,5,5,5s5-2.238,5-5S29.762,18,27,18z M11.936,22H2.064C2.275,20.059,3.173,16,7,16S11.725,20.059,11.936,22z M5,12   c0.805,0,0.988,0.55,1,1v1.069c-0.755,0.106-1.412,0.343-2,0.661v-1.718C4.012,12.55,4.195,12,5,12z M7,26   c-1.302,0-2.401-0.839-2.815-2h5.631C9.401,25.161,8.302,26,7,26z M13.953,21.982c-0.175-1.956-0.865-4.479-2.493-6.159   c1.44-0.22,2.507-0.61,3.488-0.968C16.204,14.396,17.288,14,19,14c2.122,0,2.861,0.607,2.983,0.938   C20.382,21.047,16.294,21.871,13.953,21.982z M27,26c-1.654,0-3-1.346-3-3c0-0.855,0.364-1.624,0.94-2.171l1.146,2.577   C26.252,23.779,26.617,24,27.001,24c0.136,0,0.273-0.027,0.405-0.086c0.505-0.225,0.731-0.815,0.508-1.32l-1.143-2.57   C26.849,20.018,26.922,20,27,20c1.654,0,3,1.346,3,3S28.654,26,27,26z"/>
	<rect x="4" y="4" width="2" height="3"/>
	<rect x="7" y="6.586" transform="matrix(0.7071 0.7071 -0.7071 0.7071 8 -3.3137)" width="2" height="2.828"/>
	<rect x="0.586" y="7" transform="matrix(0.7071 0.7071 -0.7071 0.7071 6.2426 0.9289)" width="2.828" height="2"/>
</g>
</svg>
