<?xml version="1.0" encoding="utf-8"?>
<!-- Generator: Adobe Illustrator 16.0.0, SVG Export Plug-In . SVG Version: 6.00 Build 0)  -->
<svg xmlns="http://www.w3.org/2000/svg" xmlns:xlink="http://www.w3.org/1999/xlink" version="1.1" id="Capa_1" x="0px" y="0px" width="32px" height="32px" viewBox="0 0 32 32" enable-background="new 0 0 32 32" xml:space="preserve">
<path d="M29,14c-0.997,0-1.384-0.792-2.089-2.737C26.106,9.042,25.004,6,21,6h-6H3H1v0.011c-0.142,0-0.284,0.02-0.418,0.081  C0.228,6.255,0,6.609,0,7v2v8v6c0,2.201,1.794,3,3,3h1.555C5.248,27.19,6.523,28,8,28s2.752-0.81,3.445-2h9.109  c0.693,1.19,1.969,2,3.445,2s2.752-0.81,3.445-2H29c2.201,0,3-1.794,3-3v-6C32,14.799,30.206,14,29,14z M25.031,11.945  c0.243,0.67,0.509,1.401,0.873,2.055h-4.893C20.55,13.988,20,13.805,20,13V8h1C23.427,8,24.142,9.49,25.031,11.945z M2,9.174  l5.349,4.585c0.375,0.321,0.927,0.321,1.302,0L14,9.174V16H2V9.174z M8,11.683L3.703,8h8.594L8,11.683z M8,26c-1.103,0-2-0.897-2-2  s0.897-2,2-2s2,0.897,2,2S9.103,26,8,26z M24,26c-1.103,0-2-0.897-2-2s0.897-2,2-2s2,0.897,2,2S25.103,26,24,26z M30,22.988  C29.988,23.45,29.806,24,29,24h-1c0-2.209-1.791-4-4-4s-4,1.791-4,4h-8c0-2.209-1.791-4-4-4s-4,1.791-4,4H3.012  C2.55,23.988,2,23.806,2,23v-5h13c0.552,0,1-0.447,1-1V8h2v5c0,2.201,1.794,3,3,3h7.988C29.45,16.012,30,16.195,30,17V22.988z"/>
</svg>
