<?xml version="1.0" encoding="utf-8"?>
<!-- Generator: Adobe Illustrator 16.0.0, SVG Export Plug-In . SVG Version: 6.00 Build 0)  -->
<svg xmlns="http://www.w3.org/2000/svg" xmlns:xlink="http://www.w3.org/1999/xlink" version="1.1" id="Outlined_2_" x="0px" y="0px" width="32px" height="32px" viewBox="0 0 32 32" enable-background="new 0 0 32 32" xml:space="preserve">
<path d="M24,6V4h-2V2h-2v2h-8V2h-2v2H8v2h2v4H8v2h2v4H8v2h2v4H8v2h2v4H8v2h2v2h2v-2h8v2h2v-2h2v-2h-2v-4h2v-2h-2v-4h2v-2h-2v-4h2v-2  h-2V6H24z M20,28h-8v-4h8V28z M20,22h-8v-4h8V22z M20,16h-8v-4h8V16z M20,10h-8V6h8V10z"/>
</svg>
