<?xml version="1.0" encoding="utf-8"?>
<!-- Generator: Adobe Illustrator 16.0.0, SVG Export Plug-In . SVG Version: 6.00 Build 0)  -->
<svg xmlns="http://www.w3.org/2000/svg" xmlns:xlink="http://www.w3.org/1999/xlink" version="1.1" id="Capa_1" x="0px" y="0px" width="32px" height="32px" viewBox="0 0 32 32" enable-background="new 0 0 32 32" xml:space="preserve">
<path d="M29,24h-3v-2.084c2.9-0.216,6-1.005,6-3.916c0-2.307-4.255-10-9-10h-3V6h7c0.553,0,1-0.448,1-1s-0.447-1-1-1H11  c-0.552,0-1,0.448-1,1s0.448,1,1,1h7v2h-4c-1.303,0-2.233,0.621-3.055,1.168C10.275,9.614,9.697,10,9,10H4V8H2v2H0v2h2v2h2v-2h5  c1.303,0,2.233-0.621,3.055-1.168C12.725,10.386,13.303,10,14,10h6v3c0,1.206,0.799,3,3,3h6.327C29.75,16.856,30,17.588,30,18  c0,2-4.554,2-7,2h-6c-3.311,0-7-2.464-7-6H8c0,4.419,3.97,7.493,8,7.938V24h-2.988C12.55,23.988,12,23.806,12,23h-2  c0,2.201,1.794,3,3,3h16c1.206,0,3-0.799,3-3h-2C30,23.806,29.45,23.988,29,24z M23,14c-0.806,0-0.988-0.55-1-1v-3h1  c1.813,0,3.768,1.972,5.15,4H23z M18,22h5c0.309,0,0.647-0.001,1-0.005V24h-6V22z"/>
</svg>
