<?xml version="1.0" encoding="utf-8"?>
<!-- Generator: Adobe Illustrator 16.0.0, SVG Export Plug-In . SVG Version: 6.00 Build 0)  -->
<svg xmlns="http://www.w3.org/2000/svg" xmlns:xlink="http://www.w3.org/1999/xlink" version="1.1" id="Capa_1" x="0px" y="0px" width="32px" height="32px" viewBox="0 0 32 32" enable-background="new 0 0 32 32" xml:space="preserve">
<path d="M32,15c0-0.55-0.45-1-1-1h-3.382l-3.724-7.447C23.725,6.214,23.379,6,23,6h-5V5c0-2.201-1.794-3-3-3h-2  c-2.201,0-3,1.794-3,3v1H7C6.523,6,6.113,6.336,6.02,6.804L4.18,16H3c-1.21,0-3,0.8-3,3c0,1.703,1.18,5.021,1.759,6.569  C1.281,25.835,0.731,26,0,26v2c2.414,0,3.686-1.271,4.707-2.293C5.661,24.753,6.414,24,8,24s2.339,0.753,3.293,1.707  C12.314,26.729,13.586,28,16,28s3.686-1.271,4.707-2.293C21.661,24.753,22.414,24,24,24s2.339,0.753,3.293,1.707  C28.314,26.729,29.586,28,32,28v-2c-1.514,0-2.27-0.688-3.164-1.58C31.955,20.308,32,15.237,32,15z M12,5.012  C12.012,4.55,12.195,4,13,4h1.988C15.45,4.012,16,4.195,16,5v1h-4V5.012z M7.82,8h14.562l1,2H13c-0.552,0-1,0.448-1,1s0.448,1,1,1  h11.382l1,2H17c-0.16,0-0.31,0.04-0.45,0.11L12.76,16H6.22L7.82,8z M19.293,24.293C18.339,25.247,17.586,26,16,26  s-2.339-0.753-3.293-1.707C11.686,23.271,10.414,22,8,22c-2.342,0-3.606,1.195-4.612,2.199C2.768,22.497,2,20.107,2,19  c0-0.81,0.55-0.99,1-1h10c0.16,0,0.31-0.04,0.45-0.11L17.24,16H29.93c-0.166,1.526-0.725,4.519-2.605,7.064  C26.502,22.469,25.463,22,24,22C21.586,22,20.314,23.271,19.293,24.293z"/>
</svg>
