<?xml version="1.0" encoding="utf-8"?>
<!-- Generator: Adobe Illustrator 16.0.0, SVG Export Plug-In . SVG Version: 6.00 Build 0)  -->
<svg xmlns="http://www.w3.org/2000/svg" xmlns:xlink="http://www.w3.org/1999/xlink" version="1.1" id="Capa_1" x="0px" y="0px" width="32px" height="32px" viewBox="0 0 32 32" enable-background="new 0 0 32 32" xml:space="preserve">
<path d="M25,14c-2.73,0-5.15,1.56-6.3,4h-1.85c-0.76-2.08-1.97-4-3.85-4h-1.22l-1.5-6H12V6H2v8H0v7c0,1.65,1,2.51,2.02,2.84  C2.01,23.89,2,23.94,2,24c0,2.21,1.79,4,4,4s4-1.79,4-4h8.69c1.159,2.43,3.6,4,6.31,4c3.87,0,7-3.13,7-7S28.87,14,25,14z M4,8h4.22  l1.5,6H4V8z M6,26c-1.1,0-2-0.9-2-2s0.9-2,2-2s2,0.9,2,2S7.1,26,6,26z M9.45,22c-0.7-1.19-1.97-2-3.45-2c-1.45,0-2.7,0.78-3.41,1.93  C2.27,21.82,2,21.57,2,21v-5h11c1.21,0,2.33,3.2,2.83,6H9.45z M25,16c1.61,0,3.06,0.76,3.99,2h-7.98C21.93,16.76,23.39,16,25,16z   M25,26c-1.6,0-3.06-0.76-3.99-2h7.98C28.05,25.24,26.59,26,25,26z M29,22H17.86c-0.08-0.54-0.221-1.24-0.4-2H29c0,0,1,0,1,1  S29,22,29,22z"/>
</svg>
