<?xml version="1.0" encoding="utf-8"?>
<!-- Generator: Adobe Illustrator 16.0.0, SVG Export Plug-In . SVG Version: 6.00 Build 0)  -->
<svg xmlns="http://www.w3.org/2000/svg" xmlns:xlink="http://www.w3.org/1999/xlink" version="1.1" id="Capa_1" x="0px" y="0px" width="32px" height="32px" viewBox="0 0 32 32" enable-background="new 0 0 32 32" xml:space="preserve">
<path d="M29,14L29,14h-0.002c-0.227-0.05-0.696-0.922-0.922-1.34C27.437,11.475,26.642,10,25,10h-1V8h-2v2h-2V8H3  c-2.201,0-3,1.794-3,3v14c0,1.657,1.343,3,3,3c0.772,0,1.469-0.3,2-0.778C5.532,27.7,6.229,28,7,28c1.305,0,2.403-0.837,2.816-2  h2.367c0.414,1.163,1.513,2,2.816,2c0.772,0,1.469-0.3,2-0.778C17.532,27.7,18.229,28,19,28c1.305,0,2.403-0.837,2.816-2h1.367  c0.413,1.163,1.513,2,2.816,2c1.305,0,2.403-0.837,2.816-2H29c2.201,0,3-1.794,3-3v-6C32,15.794,31.201,14.001,29,14z M25,12  c0.448,0,0.909,0.854,1.315,1.609c0.068,0.127,0.14,0.259,0.214,0.391h-1.518C24.55,13.988,24,13.805,24,13v-1H25z M3,26  c-0.551,0-1-0.448-1-1s0.449-1,1-1s1,0.448,1,1S3.551,26,3,26z M7,26c-0.551,0-1-0.448-1-1s0.449-1,1-1s1,0.448,1,1S7.551,26,7,26z   M15,26c-0.551,0-1-0.448-1-1s0.449-1,1-1s1,0.448,1,1S15.551,26,15,26z M19,26c-0.552,0-1-0.448-1-1s0.448-1,1-1s1,0.448,1,1  S19.552,26,19,26z M26,26c-0.552,0-1-0.448-1-1s0.448-1,1-1s1,0.448,1,1S26.552,26,26,26z M30,22.988C29.988,23.45,29.806,24,29,24  h-0.184c-0.413-1.163-1.512-2-2.816-2c-1.304,0-2.403,0.837-2.816,2h-1.367c-0.413-1.163-1.512-2-2.816-2  c-0.771,0-1.468,0.3-2,0.778C16.469,22.3,15.772,22,15,22c-1.304,0-2.403,0.837-2.816,2H9.816C9.403,22.837,8.305,22,7,22  c-0.771,0-1.468,0.3-2,0.778C4.469,22.3,3.772,22,3,22c-0.353,0-0.686,0.072-1,0.184V11.012C2.012,10.55,2.195,10,3,10h7v10h2V10h6  v10h2v-8h2v1c0,2.201,1.794,3,3,3h4c0.806,0,0.988,0.55,1,1V22.988z"/>
</svg>
