<?xml version="1.0" encoding="utf-8"?>
<!-- Generator: Adobe Illustrator 16.0.0, SVG Export Plug-In . SVG Version: 6.00 Build 0)  -->
<svg xmlns="http://www.w3.org/2000/svg" xmlns:xlink="http://www.w3.org/1999/xlink" version="1.1" id="Capa_1" x="0px" y="0px" width="32px" height="32px" viewBox="0 0 32 32" enable-background="new 0 0 32 32" xml:space="preserve">
<g>
	<circle cx="16" cy="10" r="2"/>
	<circle cx="16" cy="16" r="2"/>
	<path d="M28,16.667l-6.025-8.034c-0.271-4.29-5.137-8.243-5.35-8.413c-0.365-0.292-0.884-0.292-1.249,0   c-0.213,0.17-5.079,4.123-5.35,8.413L4,16.667v12.202l6.243-4.161c1.018,3.74,4.942,6.921,5.133,7.074   C15.558,31.927,15.779,32,16,32s0.442-0.073,0.625-0.219c0.191-0.153,4.115-3.334,5.133-7.074L28,28.868V16.667z M6,17.333L10,12   v10.465l-4,2.667V17.333z M16,29.672c-1.106-1.019-3.344-3.315-3.881-5.672h7.763C19.344,26.356,17.107,28.653,16,29.672z M20,22   h-8V9c0-2.681,2.737-5.509,4-6.672C17.264,3.491,20,6.319,20,9V22z M26,25.132l-4-2.667V12l4,5.333V25.132z"/>
</g>
</svg>
