<?xml version="1.0" encoding="utf-8"?>
<!-- Generator: Adobe Illustrator 16.0.0, SVG Export Plug-In . SVG Version: 6.00 Build 0)  -->
<svg xmlns="http://www.w3.org/2000/svg" xmlns:xlink="http://www.w3.org/1999/xlink" version="1.1" id="Outlined_2_" x="0px" y="0px" width="32px" height="32px" viewBox="0 0 32 32" enable-background="new 0 0 32 32" xml:space="preserve">
<g>
	<path d="M20,10c0-2.206-1.794-4-4-4c-2.206,0-4,1.794-4,4s1.794,4,4,4C18.206,14,20,12.206,20,10z M14,10c0-1.103,0.897-2,2-2   c1.103,0,2,0.897,2,2s-0.897,2-2,2C14.897,12,14,11.103,14,10z"/>
	<path d="M25.721,16.001L21.828,16C23.045,13.796,24,11.569,24,10c0-4.411-3.589-8-8-8s-8,3.589-8,8c0,1.569,0.956,3.796,2.172,6   l-3.893,0.001L1.612,30h28.775L25.721,16.001z M10,10c0-3.309,2.691-6,6-6s6,2.691,6,6c0,2.545-3.802,8.302-6,11.326   C13.801,18.302,10,12.545,10,10z M7.721,18.001L11.342,18c1.705,2.761,3.497,5.128,3.864,5.608L16,24.644l0.794-1.035   c0.367-0.48,2.159-2.848,3.864-5.608l3.621,0.001L27.612,28H4.388L7.721,18.001z"/>
</g>
</svg>
