<?xml version="1.0" encoding="utf-8"?>
<!-- Generator: Adobe Illustrator 16.0.0, SVG Export Plug-In . SVG Version: 6.00 Build 0)  -->
<svg xmlns="http://www.w3.org/2000/svg" xmlns:xlink="http://www.w3.org/1999/xlink" version="1.1" id="Outlined_2_" x="0px" y="0px" width="32px" height="32px" viewBox="0 0 32 32" enable-background="new 0 0 32 32" xml:space="preserve">
<path d="M24,2c-3.31,0-6,2.69-6,6c0,3.13,4.81,7.3,5.36,7.76l0.649,0.55l0.65-0.56C25.55,14.99,30,11.02,30,8C30,4.69,27.31,2,24,2z   M24,13.66c-1.76-1.62-4-4.18-4-5.66c0-2.21,1.8-4,4-4c2.21,0,4,1.79,4,4C28,9.47,25.8,11.99,24,13.66z M26.01,8c0,1.1-0.899,2-2,2  c-1.109,0-2-0.9-2-2s0.891-2,2-2C25.11,6,26.01,6.9,26.01,8z M26,16l0.003,9.382l-6.003-3V14h-2v8.382l-6,3V9.618l4.447-2.224  l-0.895-1.789L11,7.882l-9-4.5v20.236l9,4.5l8.002-4l8.998,4.5V16H26z M4,6.618l6,3v15.764l-6-3V6.618z"/>
</svg>
