<?xml version="1.0" encoding="utf-8"?>
<!-- Generator: Adobe Illustrator 16.0.0, SVG Export Plug-In . SVG Version: 6.00 Build 0)  -->
<svg xmlns="http://www.w3.org/2000/svg" xmlns:xlink="http://www.w3.org/1999/xlink" version="1.1" id="Capa_1" x="0px" y="0px" width="32px" height="32px" viewBox="0 0 32 32" enable-background="new 0 0 32 32" xml:space="preserve">
<path d="M32,13.675l-1.274,0.363c-0.051,0.015-3.86,1.084-8.987,1.638l1.969-1.969l-1.414-1.414l-3.632,3.631  C17.791,15.972,16.902,16,16,16c-7.756,0-14.657-1.942-14.726-1.961L0,13.675V15c0,4.303,1.889,7.603,3.201,9.384  C2.291,25.294,1.534,26,0,26v2c2.414,0,3.686-1.271,4.707-2.293c0.899-0.899,1.63-1.612,3.039-1.691l-1.161,1.16l4.239,4.237  l2.233-2.232C13.942,27.726,14.889,28,16,28c2.414,0,3.686-1.271,4.707-2.293C21.661,24.753,22.414,24,24,24  s2.339,0.753,3.293,1.707C28.314,26.729,29.586,28,32,28v-2c-1.534,0-2.29-0.707-3.201-1.616C30.085,22.635,32,19.319,32,15V13.675z   M8,22c-1.45,0-2.482,0.461-3.301,1.049c-1.003-1.4-2.32-3.747-2.631-6.742C4.501,16.89,9.935,18,16,18  c0.199,0,0.396-0.004,0.593-0.007l-2.733,2.733l-3.528,0.705l-0.79,0.789C9.058,22.09,8.555,22,8,22z M9.415,25.176l1.902-1.902  l1.761-0.352l-0.353,1.761l-1.901,1.902L9.415,25.176z M27.3,23.048C26.481,22.461,25.449,22,24,22  c-2.414,0-3.686,1.271-4.707,2.293C18.339,25.247,17.586,26,16,26c-0.558,0-1.026-0.101-1.469-0.294l0.037-0.037l0.706-3.528  l4.262-4.262c4.576-0.303,8.448-1.105,10.396-1.572C29.618,19.315,28.288,21.668,27.3,23.048z"/>
</svg>
