<?xml version="1.0" encoding="utf-8"?>
<!-- Generator: Adobe Illustrator 16.0.0, SVG Export Plug-In . SVG Version: 6.00 Build 0)  -->
<svg xmlns="http://www.w3.org/2000/svg" xmlns:xlink="http://www.w3.org/1999/xlink" version="1.1" id="Capa_1" x="0px" y="0px" width="32px" height="32px" viewBox="0 0 32 32" enable-background="new 0 0 32 32" xml:space="preserve">
<path d="M28.406,23.996C30.383,22.028,32,19.152,32,15c0-0.35-0.18-0.67-0.47-0.85c-0.3-0.18-0.67-0.2-0.98-0.04  C30.51,14.12,26.72,16,23,16h-1v-2h5c0.29,0,0.57-0.13,0.76-0.35c0.19-0.23,0.28-0.52,0.23-0.81C25.87,0.15,15.11,0,15,0  c-0.37,0-0.71,0.2-0.88,0.53c-0.18,0.32-0.16,0.72,0.05,1.02c0.02,0.05,2.27,3.48,1.4,7.59C12.91,0.11,5.09,0,5,0  C4.68,0,4.38,0.15,4.19,0.42C4,0.68,3.95,1.01,4.05,1.32c0.02,0.05,1.85,5.64,0.06,9.23c-0.16,0.31-0.14,0.68,0.04,0.98  C4.33,11.82,4.65,12,5,12h5v3.89c-0.58-0.14-0.98-0.41-1.45-0.72C7.77,14.65,6.8,14,5,14H2c-0.97,0-2,0.7-2,2  c0,1.219,0.544,5.911,2.49,9.053C1.833,25.615,1.127,26,0,26v2c2.414,0,3.686-1.271,4.707-2.293C5.661,24.753,6.414,24,8,24  s2.339,0.753,3.293,1.707C12.314,26.729,13.586,28,16,28s3.686-1.271,4.707-2.293C21.661,24.753,22.414,24,24,24  s2.339,0.753,3.293,1.707C28.314,26.729,29.586,28,32,28v-2c-1.586,0-2.339-0.753-3.293-1.707  C28.61,24.196,28.509,24.096,28.406,23.996z M16.75,2.23c2.62,0.58,7.41,2.61,9.04,9.77h-9.08C18.58,8.06,17.64,4.34,16.75,2.23z   M14.12,13.47C14.29,13.8,14.63,14,15,14h5v2h-8v-4h2.44c-0.08,0.15-0.17,0.3-0.27,0.45C13.96,12.75,13.94,13.15,14.12,13.47z   M6.45,10c0.81-2.8,0.33-5.97-0.09-7.8c2.04,0.48,5.82,2.13,7.38,7.8H6.45z M19.293,24.293C18.339,25.247,17.586,26,16,26  s-2.339-0.753-3.293-1.707C11.686,23.271,10.414,22,8,22c-1.913,0-3.104,0.799-4.026,1.639C2.491,20.899,2,16.685,2,16h3  c1.2,0,1.75,0.37,2.45,0.83C8.23,17.35,9.2,18,11,18h12c2.67,0,5.31-0.82,6.91-1.44c-0.339,2.785-1.585,4.778-3.042,6.2  C26.122,22.316,25.203,22,24,22C21.586,22,20.314,23.271,19.293,24.293z"/>
</svg>
