<?xml version="1.0" encoding="utf-8"?>
<!-- Generator: Adobe Illustrator 16.0.0, SVG Export Plug-In . SVG Version: 6.00 Build 0)  -->
<svg xmlns="http://www.w3.org/2000/svg" xmlns:xlink="http://www.w3.org/1999/xlink" version="1.1" id="Capa_1" x="0px" y="0px" width="32px" height="32px" viewBox="0 0 32 32" enable-background="new 0 0 32 32" xml:space="preserve">
<path d="M28,14v-3c0-2.201-1.794-3-3-3H3c-2.201,0-3,1.794-3,3v12c0,2.201,1.794,3,3,3h1.555C5.248,27.19,6.523,28,8,28  s2.752-0.81,3.445-2h9.109c0.693,1.19,1.969,2,3.445,2s2.752-0.81,3.445-2H29c2.201,0,3-1.794,3-3v-5C32,16.392,30.935,14,28,14z   M26,11v3h-6v-4h4.988C25.45,10.012,26,10.195,26,11z M10,14v-4h8v4H10z M3,10h5v4H2v-2.988C2.012,10.55,2.195,10,3,10z M8,26  c-1.103,0-2-0.897-2-2s0.897-2,2-2s2,0.897,2,2S9.103,26,8,26z M24,26c-1.103,0-2-0.897-2-2s0.897-2,2-2s2,0.897,2,2  S25.103,26,24,26z M30,22.988C29.988,23.45,29.806,24,29,24h-1c0-2.209-1.791-4-4-4s-4,1.791-4,4h-8c0-2.209-1.791-4-4-4  s-4,1.791-4,4H3.012C2.55,23.988,2,23.806,2,23v-3h6h10v-2H2v-2h24h2c1.826,0,1.992,1.536,2,2V22.988z"/>
</svg>
