<?xml version="1.0" encoding="utf-8"?>
<!-- Generator: Adobe Illustrator 16.0.0, SVG Export Plug-In . SVG Version: 6.00 Build 0)  -->
<svg xmlns="http://www.w3.org/2000/svg" xmlns:xlink="http://www.w3.org/1999/xlink" version="1.1" id="Capa_1" x="0px" y="0px" width="32px" height="32px" viewBox="0 0 32 32" enable-background="new 0 0 32 32" xml:space="preserve">
<path d="M27,18c-0.203,0-0.396,0.036-0.593,0.06l-2.179-6.535C25.168,11.846,26.166,12,27,12c2.201,0,3-1.794,3-3V7  c0-2.201-1.794-3-3-3c-1.391,0-3.455,0.446-4.765,1.544l-0.287-0.861C21.813,4.275,21.431,4,21,4h-4c-0.552,0-1,0.448-1,1  s0.448,1,1,1h3.279l4,12h-8.499l-1.5-6H15c0.552,0,1-0.448,1-1s-0.448-1-1-1H9c-6.328,0-8,5.887-8,9  c0,0.066,0.025,0.124,0.038,0.188C0.276,20.498,0,21.951,0,23v1h2.101C2.566,26.279,4.585,28,7,28s4.434-1.721,4.899-4h10.203  c0.464,2.279,2.484,4,4.898,4c2.757,0,5-2.243,5-5S29.757,18,27,18z M23.024,7.79C23.261,6.782,25.355,6,26.988,6  C27.45,6.012,28,6.195,28,7v1.988C27.988,9.45,27.806,10,27,10c-1.27,0-3.004-0.487-3.711-1.303  c-0.001-0.001-0.003-0.002-0.004-0.003l-0.284-0.852C23.007,7.824,23.02,7.809,23.024,7.79z M2.11,22c0.284-1.462,1.293-4,4.89-4  c3.613,0,4.617,2.52,4.895,4H2.11z M7,26c-1.302,0-2.401-0.839-2.815-2h5.631C9.401,25.161,8.302,26,7,26z M7,16  c-1.54,0-2.754,0.362-3.72,0.925C3.773,14.858,5.146,12,9,12h3.219l1.811,7.242C14.141,19.688,14.541,20,15,20h8.025  c-0.442,0.584-0.772,1.257-0.924,2h-8.176C13.569,19.502,11.842,16,7,16z M27,26c-1.654,0-3-1.346-3-3  c0-0.959,0.46-1.804,1.162-2.354l0.89,2.67C26.191,23.735,26.581,24,27,24c0.104,0,0.211-0.017,0.316-0.052  c0.523-0.174,0.807-0.74,0.632-1.265l-0.893-2.678C28.684,20.036,30,21.365,30,23C30,24.654,28.654,26,27,26z"/>
</svg>
