<?xml version="1.0" encoding="utf-8"?>
<!-- Generator: Adobe Illustrator 16.0.0, SVG Export Plug-In . SVG Version: 6.00 Build 0)  -->
<svg xmlns="http://www.w3.org/2000/svg" xmlns:xlink="http://www.w3.org/1999/xlink" version="1.1" id="Capa_1" x="0px" y="0px" width="32px" height="32px" viewBox="0 0 32 32" enable-background="new 0 0 32 32" xml:space="preserve">
<path d="M28,12.603V9c0-1.206-0.799-3-3-3s-3,1.794-3,3v1.59c-0.773-0.183-1.462-0.325-2-0.427V7c0-3.125-1.632-4.429-3-4.841V2h3  c0.553,0,1-0.448,1-1s-0.447-1-1-1h-8c-0.552,0-1,0.448-1,1s0.448,1,1,1h3v0.159C13.632,2.571,12,3.875,12,7v3.163  c-0.538,0.102-1.227,0.244-2,0.427V9c0-1.206-0.799-3-3-3S4,7.794,4,9v3.603C1.763,13.682,0,15.127,0,17c0,2.201,1.794,3,3,3h1v1  c0,1.206,0.799,3,3,3s3-1.794,3-3v-1h2v4l-2,1v7l6-2l6,2v-7l-2-1v-4h2v1c0,1.206,0.799,3,3,3s3-1.794,3-3v-1h1c1.206,0,3-0.799,3-3  C32,15.127,30.237,13.682,28,12.603z M24,9.012C24.012,8.55,24.194,8,25,8s0.988,0.55,1,1v2.768c-0.668-0.244-1.343-0.46-2-0.652  V9.012z M6,9.012C6.012,8.55,6.195,8,7,8s0.988,0.55,1,1v2.116c-0.657,0.191-1.332,0.408-2,0.652V9.012z M8,20.988  C7.988,21.45,7.805,22,7,22s-0.988-0.55-1-1v-1h2V20.988z M26,20.988C25.988,21.45,25.806,22,25,22s-0.988-0.55-1-1v-1h2V20.988z   M29,18H18v7.23l2,1v2.989C19.33,29,16.67,28.24,16,28c-0.67,0.24-3.33,1-4,1.22V26.23l2-1V18H3.012C2.55,17.988,2,17.806,2,17  c0-2.148,6.662-4.262,11.165-5.014l-0.003-0.019C13.634,11.888,14,11.495,14,11V7c0-2.799,1.678-2.99,2-3c0.082,0,2,0.034,2,3v4  c0,0.495,0.366,0.887,0.838,0.967l-0.003,0.019C23.338,12.738,30,14.852,30,17C30,17.806,29.45,17.988,29,18z"/>
</svg>
