<?xml version="1.0" encoding="utf-8"?>
<!-- Generator: Adobe Illustrator 16.0.0, SVG Export Plug-In . SVG Version: 6.00 Build 0)  -->
<svg xmlns="http://www.w3.org/2000/svg" xmlns:xlink="http://www.w3.org/1999/xlink" version="1.1" id="Capa_1" x="0px" y="0px" width="32px" height="32px" viewBox="0 0 32 32" enable-background="new 0 0 32 32" xml:space="preserve">
<path d="M27,14c-1.12,0-1.46-0.61-2.13-1.98C24.05,10.32,22.93,8,19,8H9c-2.98,0-4.21,2.61-5.02,4.34C3.7,12.92,3.24,13.9,3,14  c-2.2,0-3,1.79-3,3v6c0,2.2,1.79,3,3,3h1.55c0.7,1.19,1.97,2,3.45,2s2.75-0.81,3.45-2h9.1c0.7,1.19,1.97,2,3.45,2s2.75-0.81,3.45-2  H29c2.2,0,3-1.79,3-3v-4C32,15.04,28.73,14,27,14z M18,10h1c2.68,0,3.29,1.27,4.07,2.89c0.18,0.36,0.359,0.74,0.58,1.11H18V10z   M12,10h4v4h-4V10z M5.79,13.19C6.7,11.26,7.41,10,9,10h1v4H5.39C5.53,13.74,5.66,13.46,5.79,13.19z M8,26c-1.1,0-2-0.9-2-2  s0.9-2,2-2s2,0.9,2,2S9.1,26,8,26z M24,26c-1.1,0-2-0.9-2-2s0.9-2,2-2s2,0.9,2,2S25.1,26,24,26z M30,22.99  C29.99,23.45,29.81,24,29,24h-1c0-2.21-1.79-4-4-4s-4,1.79-4,4h-8c0-2.21-1.79-4-4-4s-4,1.79-4,4H3.01C2.55,23.99,2,23.81,2,23  v-5.99C2.01,16.55,2.19,16,3,16h23.99C27.5,16.01,30,16.18,30,19V22.99z"/>
</svg>
