<?xml version="1.0" encoding="utf-8"?>
<!-- Generator: Adobe Illustrator 16.0.0, SVG Export Plug-In . SVG Version: 6.00 Build 0)  -->
<svg xmlns="http://www.w3.org/2000/svg" xmlns:xlink="http://www.w3.org/1999/xlink" version="1.1" id="Capa_1" x="0px" y="0px" width="32px" height="32px" viewBox="0 0 32 32" enable-background="new 0 0 32 32" xml:space="preserve">
<path d="M29,14L29,14h-0.002c-0.227-0.05-0.696-0.922-0.922-1.34C27.437,11.475,26.642,10,25,10h-1V8h-2v2h-2V8H3  c-2.201,0-3,1.794-3,3v13c0,2.209,1.791,4,4,4c1.202,0,2.267-0.541,3-1.38C7.733,27.459,8.798,28,10,28c1.477,0,2.752-0.81,3.445-2  h7.109c0.693,1.19,1.969,2,3.445,2s2.752-0.81,3.445-2H29c2.201,0,3-1.794,3-3v-6C32,15.794,31.201,14.001,29,14z M25,12  c0.448,0,0.909,0.854,1.315,1.609c0.068,0.127,0.14,0.259,0.214,0.391H24v-2H25z M4,26c-1.103,0-2-0.897-2-2s0.897-2,2-2  s2,0.897,2,2S5.103,26,4,26z M10,26c-1.103,0-2-0.897-2-2s0.897-2,2-2s2,0.897,2,2S11.103,26,10,26z M24,26c-1.103,0-2-0.897-2-2  s0.897-2,2-2s2,0.897,2,2S25.103,26,24,26z M30,22.988C29.988,23.45,29.806,24,29,24h-1c0-2.209-1.791-4-4-4s-4,1.791-4,4h-6  c0-2.209-1.791-4-4-4c-1.202,0-2.267,0.541-3,1.38C6.267,20.541,5.202,20,4,20c-0.732,0-1.41,0.211-2,0.555v-9.543  C2.012,10.55,2.195,10,3,10h15v10h2v-8h2v4h7c0.806,0,0.988,0.55,1,1V22.988z"/>
</svg>
