<?xml version="1.0" encoding="utf-8"?>
<!-- Generator: Adobe Illustrator 16.0.0, SVG Export Plug-In . SVG Version: 6.00 Build 0)  -->
<svg xmlns="http://www.w3.org/2000/svg" xmlns:xlink="http://www.w3.org/1999/xlink" version="1.1" id="Outlined_2_" x="0px" y="0px" width="32px" height="32px" viewBox="0 0 32 32" enable-background="new 0 0 32 32" xml:space="preserve">
<path d="M24.99,16c-0.55,0-1,0.44-1,1c0,4.62-3.5,8.44-8,8.94V12h3c0.56,0,1-0.45,1-1c0-0.56-0.44-1-1-1h-3V7.81  c1.17-0.41,2-1.51,2-2.81c0-1.66-1.34-3-3-3C13.34,2,12,3.34,12,5c0,1.3,0.84,2.4,2,2.81V10h-3c-0.56,0-1,0.44-1,1  c0,0.55,0.44,1,1,1h3v13.94c-4.49-0.5-8-4.32-8-8.94c0-0.56-0.45-1-1-1s-1,0.44-1,1c0,5.72,4.4,10.44,9.99,10.95V29  c0,0.55,0.45,1,1,1c0.56,0,1-0.45,1-1v-1.05c5.6-0.51,10-5.23,10-10.95C25.99,16.44,25.55,16,24.99,16z M15,6.5  c-0.83,0-1.5-0.67-1.5-1.5s0.67-1.5,1.5-1.5s1.5,0.67,1.5,1.5S15.83,6.5,15,6.5z"/>
</svg>
