<?xml version="1.0" encoding="utf-8"?>
<!-- Generator: Adobe Illustrator 16.0.0, SVG Export Plug-In . SVG Version: 6.00 Build 0)  -->
<svg xmlns="http://www.w3.org/2000/svg" xmlns:xlink="http://www.w3.org/1999/xlink" version="1.1" id="Outlined_2_" x="0px" y="0px" width="32px" height="32px" viewBox="0 0 32 32" enable-background="new 0 0 32 32" xml:space="preserve">
<path d="M10,20c0,1.104-0.896,2-2,2s-2-0.896-2-2s0.896-2,2-2S10,18.896,10,20z M30,18.81V23v3c0,0-0.005,1.149-0.881,1.705  l0.588,0.588l-1.414,1.414l-26-26l1.414-1.414l4.392,4.392C8.827,6.297,9.771,6,11,6h10c3.58,0,4.84,2.45,4.89,2.55L30,18.81z   M9.614,8.2l5.8,5.8H25.92l-1.85-4.63c-0.011,0-0.21-0.34-0.69-0.69C22.9,8.34,22.14,8,21,8H11C10.456,8,9.998,8.079,9.614,8.2z   M25.414,24h1.576c0.46-0.01,1.01-0.2,1.01-1v-3.81L26.72,16h-9.306l4.728,4.728C22.053,20.501,22,20.257,22,20c0-1.104,0.896-2,2-2  s2,0.896,2,2s-0.896,2-2,2c-0.257,0-0.501-0.053-0.728-0.142L25.414,24z M19.75,24H12v-2h5.75l-2-2H10v4H8H5.01  C4.55,23.99,4,23.8,4,23v-3.81L5.28,16h6.47l-2-2H6.07l1.05-2.63L5.59,9.84L2,18.81V23c0,0,0,1,0,3s2,2,2,2h2c2,0,2-2,2-2h13.75  L19.75,24z"/>
</svg>
