<?xml version="1.0" encoding="utf-8"?>
<!-- Generator: Adobe Illustrator 16.0.0, SVG Export Plug-In . SVG Version: 6.00 Build 0)  -->
<svg xmlns="http://www.w3.org/2000/svg" xmlns:xlink="http://www.w3.org/1999/xlink" version="1.1" id="Outlined_2_" x="0px" y="0px" width="32px" height="32px" viewBox="0 0 32 32" enable-background="new 0 0 32 32" xml:space="preserve">
<path d="M25.447,22.105l-6.603-3.301l3.574-2.859C23.979,15.677,24,14.001,24,14.001v-1v-4c0-1.729-1.045-5-5-5h-6  c-1.729,0-5,1.045-5,5v4v1c0,0,0.009,0.553,0.301,1.078l-3.925,3.14c-0.267,0.214-0.406,0.548-0.37,0.887  c0.036,0.339,0.242,0.637,0.547,0.789l6.602,3.301l-8.779,7.022l1.249,1.563l10-7.999c0.267-0.213,0.406-0.548,0.37-0.887  c-0.036-0.339-0.242-0.637-0.547-0.789l-6.602-3.301l3.573-2.859C11.979,15.677,12,14.001,12,14.001h8c0,0,0.009,0.553,0.301,1.078  l-3.926,3.14c-0.266,0.214-0.405,0.548-0.369,0.887c0.035,0.339,0.242,0.637,0.547,0.789l6.602,3.301l-8.779,7.022l1.249,1.563  l10-7.999c0.266-0.213,0.405-0.548,0.369-0.887C25.959,22.556,25.752,22.258,25.447,22.105z M18,12.001v-1.999h-4v1.999h-4v-3  c0-2.823,2.503-2.994,3-3h6c2.823,0,2.994,2.503,3,3v3H18z"/>
</svg>
