<?xml version="1.0" encoding="utf-8"?>
<!-- Generator: Adobe Illustrator 16.0.0, SVG Export Plug-In . SVG Version: 6.00 Build 0)  -->
<svg xmlns="http://www.w3.org/2000/svg" xmlns:xlink="http://www.w3.org/1999/xlink" version="1.1" id="Outlined_2_" x="0px" y="0px" width="32px" height="32px" viewBox="0 0 32 32" enable-background="new 0 0 32 32" xml:space="preserve">
<path d="M16,4h2l-4.2,5.6L12.2,8.4l1.62-2.16C9.35,7.24,6,11.23,6,16c0,0.85,0.11,1.67,0.31,2.46L4.2,18.21C4.07,17.49,4,16.75,4,16  C4,9.38,9.38,4,16,4z M4.61,20.27l1,1.73c1.6,2.78,4.189,4.76,7.279,5.59C13.93,27.87,14.98,28,16.02,28  c2.08,0,4.131-0.54,5.98-1.61c0.65-0.37,1.25-0.8,1.811-1.279l-0.83-1.94c-0.59,0.57-1.25,1.08-1.98,1.49  c-2.311,1.34-5.01,1.689-7.59,1c-1.86-0.5-3.5-1.5-4.78-2.891l2.69,0.32l0.239-1.99L4.61,20.27z M25.79,14  c0.33,1.63,0.26,3.35-0.25,4.99l-1.06-2.48l-0.51,0.221l-1.33,0.56l0.75,1.76l2,4.681l1-1.73c1.449-2.51,1.889-5.34,1.439-8  c-0.58-3.4-2.62-6.529-5.83-8.391c-0.65-0.379-1.32-0.689-2.01-0.93l-1.27,1.69C19.51,6.6,20.27,6.92,21,7.34  C23.58,8.83,25.25,11.29,25.79,14z"/>
</svg>
