<?xml version="1.0" encoding="utf-8"?>
<!-- Generator: Adobe Illustrator 16.0.0, SVG Export Plug-In . SVG Version: 6.00 Build 0)  -->
<svg xmlns="http://www.w3.org/2000/svg" xmlns:xlink="http://www.w3.org/1999/xlink" version="1.1" id="Outlined_2_" x="0px" y="0px" width="32px" height="32px" viewBox="0 0 32 32" enable-background="new 0 0 32 32" xml:space="preserve">
<path d="M24,20v10h6V20H24z M28,28h-2v-6h2V28z M16,6C10.49,6,6,10.49,6,16c0,4.82,3.44,8.87,8,9.8v-2.05c-3.45-0.9-6-4.03-6-7.75  c0-4.41,3.59-8,8-8s8,3.59,8,8c0,0.69-0.09,1.36-0.25,2h2.05c0.13-0.64,0.2-1.31,0.2-2C26,10.49,21.52,6,16,6z M16,2  C8.28,2,2,8.28,2,16c0,7.04,5.22,12.88,12,13.86v-2.03C8.33,26.88,4,21.94,4,16C4,9.38,9.38,4,16,4s12,5.38,12,12  c0,0.68-0.06,1.35-0.17,2h2.03c0.09-0.65,0.14-1.32,0.14-2C30,8.28,23.72,2,16,2z M22,22v-2h-6v10h6v-6h-4v-2H22z M20,26v2h-2v-2H20  z"/>
</svg>
