<?xml version="1.0" encoding="utf-8"?>
<!-- Generator: Adobe Illustrator 16.0.0, SVG Export Plug-In . SVG Version: 6.00 Build 0)  -->
<svg xmlns="http://www.w3.org/2000/svg" xmlns:xlink="http://www.w3.org/1999/xlink" version="1.1" id="Outlined_2_" x="0px" y="0px" width="32px" height="32px" viewBox="0 0 32 32" enable-background="new 0 0 32 32" xml:space="preserve">
<g>
	<g>
		<polygon points="8,20 2,20 2,18.002 6,18.002 6,16 2,16 2,10.001 8,10.001 8,12 4,12 4,14.001 8,14.001   "/>
	</g>
	<g>
		<polygon points="16,10 16,12 14,12 14,20 12,20 12,12 10,12 10,10   "/>
	</g>
	<g>
		<path d="M24,20h-6v-9.999h6V20z M20,18l2,0.002V12h-2V18z"/>
	</g>
	<g>
		<path d="M28,20h-2v-9.999h6V16h-4V20z M28,14.001h2V12h-2V14.001z"/>
	</g>
</g>
</svg>
