<?xml version="1.0" encoding="utf-8"?>
<!-- Generator: Adobe Illustrator 16.0.0, SVG Export Plug-In . SVG Version: 6.00 Build 0)  -->
<svg xmlns="http://www.w3.org/2000/svg" xmlns:xlink="http://www.w3.org/1999/xlink" version="1.1" id="Outlined_2_" x="0px" y="0px" width="32px" height="32px" viewBox="0 0 32 32" enable-background="new 0 0 32 32" xml:space="preserve">
<path d="M2.29,28.29l1.42,1.42l26-26l-1.42-1.42l-6.83,6.83C20.3,6.13,17.391,4,14,4c-4.41,0-8,3.59-8,8v12.58L2.29,28.29z   M19.859,10.721L8,22.58V12c0-3.311,2.69-6,6-6C16.87,6,19.279,8.02,19.859,10.721z M20,20.24v-3.99l2-2v5.99l3.23-3.881l1.539,1.28  L21,24.56l-4.23-5.079l1.42-1.421L20,20.24z"/>
</svg>
