<?xml version="1.0" encoding="utf-8"?>
<!-- Generator: Adobe Illustrator 16.0.0, SVG Export Plug-In . SVG Version: 6.00 Build 0)  -->
<svg xmlns="http://www.w3.org/2000/svg" xmlns:xlink="http://www.w3.org/1999/xlink" version="1.1" id="Outlined_2_" x="0px" y="0px" width="32px" height="32px" viewBox="0 0 32 32" enable-background="new 0 0 32 32" xml:space="preserve">
<path d="M15.59,19.84l-6.92,6.91l-1.42-1.42l6.92-6.91L15.59,19.84z M15.58,17.01L17,18.43v-0.01L15.58,17.01z M29.01,10.1  c-0.16,1.42-0.859,2.82-1.96,3.92c-1.27,1.27-2.92,1.99-4.53,1.99c-0.899,0-1.739-0.23-2.449-0.66L18.42,17l8.29,8.29l-1.42,1.42  l-12.4-12.4c-0.72,0.43-1.57,0.65-2.45,0.65c-1.55,0-3.22-0.67-4.53-1.98L2.67,9.74l1.41-1.42l3.24,3.24  c1.23,1.23,2.87,1.69,4.08,1.26L5.49,6.91l1.42-1.42l5.91,5.91c0.43-1.21-0.03-2.85-1.25-4.08L8.32,4.08l1.42-1.41l3.24,3.24  c2.05,2.05,2.55,4.98,1.33,6.98L17,15.58l1.65-1.65c-1.221-2-0.721-4.93,1.33-6.98c1.27-1.27,2.92-1.99,4.529-1.99  c1.271,0,2.42,0.45,3.25,1.28C28.73,7.22,29.18,8.59,29.01,10.1z M26.34,7.66c-0.58-0.58-1.31-0.7-1.83-0.7  c-1.09,0-2.22,0.51-3.12,1.4c-1.56,1.56-1.87,3.78-0.699,4.95c0.569,0.58,1.31,0.7,1.829,0.7c1.091,0,2.221-0.51,3.12-1.4  c0.78-0.79,1.271-1.76,1.38-2.73C27.12,8.98,26.88,8.19,26.34,7.66z"/>
</svg>
