<?xml version="1.0" encoding="utf-8"?>
<!-- Generator: Adobe Illustrator 16.0.0, SVG Export Plug-In . SVG Version: 6.00 Build 0)  -->
<svg xmlns="http://www.w3.org/2000/svg" xmlns:xlink="http://www.w3.org/1999/xlink" version="1.1" id="Outlined_2_" x="0px" y="0px" width="32px" height="32px" viewBox="0 0 32 32" enable-background="new 0 0 32 32" xml:space="preserve">
<path d="M16,2C8.28,2,1.999,8.28,1.999,16S8.28,30,16,30c7.72,0,14.001-6.28,14.001-14S23.72,2,16,2z M16,28  C9.383,28,3.999,22.617,3.999,16C3.999,9.383,9.383,4,16,4s12.001,5.383,12.001,12C28.001,22.617,22.617,28,16,28z M8,20h16v-8H8V20  z M10,14h12v4H10V14z"/>
</svg>
