<?xml version="1.0" encoding="utf-8"?>
<!-- Generator: Adobe Illustrator 16.0.0, SVG Export Plug-In . SVG Version: 6.00 Build 0)  -->
<svg xmlns="http://www.w3.org/2000/svg" xmlns:xlink="http://www.w3.org/1999/xlink" version="1.1" id="Outlined_2_" x="0px" y="0px" width="32px" height="32px" viewBox="0 0 32 32" enable-background="new 0 0 32 32" xml:space="preserve">
<path d="M26,24.58V12c0-4.41-3.59-8-8-8c-3.391,0-6.3,2.13-7.46,5.12L3.71,2.29L2.29,3.71l26,26l1.42-1.42L26,24.58z M18,6  c3.31,0,6,2.689,6,6v10.58L12.141,10.721C12.721,8.02,15.13,6,18,6z M13.811,18.06l1.42,1.421L11,24.56l-5.77-6.92l1.539-1.28  L10,20.24v-5.99l2,2v3.99L13.811,18.06z"/>
</svg>
