<?xml version="1.0" encoding="utf-8"?>
<!-- Generator: Adobe Illustrator 16.0.0, SVG Export Plug-In . SVG Version: 6.00 Build 0)  -->
<svg xmlns="http://www.w3.org/2000/svg" xmlns:xlink="http://www.w3.org/1999/xlink" version="1.1" id="Outlined_2_" x="0px" y="0px" width="32px" height="32px" viewBox="0 0 32 32" enable-background="new 0 0 32 32" xml:space="preserve">
<path d="M30,16c0-7.72-6.28-14-14-14S2,8.28,2,16s6.28,14,14,14S30,23.72,30,16z M26.791,21.215L22.317,16l4.474-5.216  C27.558,12.364,28,14.129,28,16C28,17.87,27.558,19.636,26.791,21.215z M5.206,10.791L9.676,16l-4.47,5.208  C4.441,19.63,4,17.868,4,16S4.441,12.369,5.206,10.791z M6.287,23.019L12.311,16L6.288,8.98C8.47,5.97,12.005,4,16,4  c3.992,0,7.525,1.967,9.707,4.975L19.683,16l6.026,7.024C23.525,26.033,19.992,28,16,28C12.005,28,8.47,26.03,6.287,23.019z"/>
</svg>
