<?xml version="1.0" encoding="utf-8"?>
<!-- Generator: Adobe Illustrator 16.0.0, SVG Export Plug-In . SVG Version: 6.00 Build 0)  -->
<svg xmlns="http://www.w3.org/2000/svg" xmlns:xlink="http://www.w3.org/1999/xlink" version="1.1" id="Outlined_2_" x="0px" y="0px" width="32px" height="32px" viewBox="0 0 32 32" enable-background="new 0 0 32 32" xml:space="preserve">
<path d="M19.775,22.759l1.936,0.5c-1.025,3.97-4.608,6.742-8.713,6.742c-4.963,0-9-4.037-9-8.999c0-3.689,2.21-6.967,5.63-8.349  l0.749,1.854c-2.66,1.075-4.379,3.624-4.379,6.494c0,3.859,3.141,6.999,7,6.999C16.19,28.001,18.978,25.846,19.775,22.759z   M28.316,26.945l-4.024,1.343L22.22,20H12.002V5c0-1.654,1.346-3,3-3s3,1.346,3,3s-1.346,3-3,3c-0.353,0-0.686-0.072-1-0.185v4.184  h8.001v2h-8.001V18h9.778l1.928,7.708l1.976-0.659L28.316,26.945z M14.002,5c0,0.551,0.449,1,1,1s1-0.449,1-1s-0.449-1-1-1  S14.002,4.449,14.002,5z"/>
</svg>
