<?xml version="1.0" encoding="utf-8"?>
<!-- Generator: Adobe Illustrator 16.0.0, SVG Export Plug-In . SVG Version: 6.00 Build 0)  -->
<svg xmlns="http://www.w3.org/2000/svg" xmlns:xlink="http://www.w3.org/1999/xlink" version="1.1" id="Outlined_2_" x="0px" y="0px" width="32px" height="32px" viewBox="0 0 32 32" enable-background="new 0 0 32 32" xml:space="preserve">
<path d="M16,7.41V9c0,1.2,0.37,1.75,0.83,2.45C17.35,12.23,18,13.2,18,15c0,2-1.33,3-2.4,3.8C14.58,19.57,14,20.04,14,21  c0,1.2,0.37,1.75,0.83,2.45C15.35,24.23,16,25.2,16,27v1h-2v-1c0-1.2-0.37-1.75-0.83-2.45C12.65,23.77,12,22.8,12,21  c0-2,1.33-3,2.4-3.8C15.42,16.43,16,15.95,16,15c0-1.2-0.37-1.75-0.83-2.45C14.65,11.77,14,10.8,14,9V7.41l-2.29,2.3l-1.42-1.42  L15,3.59l4.71,4.7l-1.42,1.42L16,7.41z"/>
</svg>
