<?xml version="1.0" encoding="utf-8"?>
<!-- Generator: Adobe Illustrator 16.0.0, SVG Export Plug-In . SVG Version: 6.00 Build 0)  -->
<svg xmlns="http://www.w3.org/2000/svg" xmlns:xlink="http://www.w3.org/1999/xlink" version="1.1" id="Outlined_2_" x="0px" y="0px" width="32px" height="32px" viewBox="0 0 32 32" enable-background="new 0 0 32 32" xml:space="preserve">
<path d="M32,12c0,1.21-0.8,3-3,3c-1.15,0-2.15-0.26-3-0.6V19c0,3.96-2.62,5-4,5h-2v4h-2l0.01-4H13c-2.37,0-3.95-0.43-5-0.94V28H6  l0.02-6.2l1-5l1.96,0.4l-0.74,3.68C8.8,21.31,10.15,22,13,22h5.02v-0.2l1-5l1.961,0.4L20.02,22H22c0.32-0.01,2-0.2,2-3v-5.71  c-0.42-0.31-0.68-0.55-0.71-0.58c-0.39-0.39-0.39-1.03,0-1.42s1.03-0.39,1.42,0C24.72,11.31,26.47,13,29,13c0.9,0,1-0.7,1-1  c0-0.03-0.13-1.53-0.82-3.02C28.48,7.48,27.24,6,25,6c-1.19,0-2.01,0.95-2.88,1.95C21.25,8.96,20.36,10,19,10h-9  c-0.74,0-1.38-0.32-1.95-0.61C7.67,9.2,7.26,9,7,9c-2.97,0-3,3.84-3,4c0,6.16-2.02,10.28-2.11,10.45C1.72,23.8,1.37,24,1,24  c-0.15,0-0.3-0.03-0.45-0.11c-0.49-0.239-0.69-0.84-0.45-1.34C0.12,22.52,2,18.66,2,13c0-2.08,1.04-6,5-6c0.74,0,1.38,0.32,1.95,0.6  C9.33,7.8,9.74,8,10,8h9c0.44,0,1.03-0.69,1.61-1.35c0.3-0.35,0.63-0.72,0.989-1.08l1.5-3.01c0.24-0.5,0.841-0.7,1.341-0.46  c0.489,0.25,0.699,0.85,0.449,1.34L24.6,4.03C24.73,4.02,24.86,4,25,4c0.47,0,0.9,0.06,1.31,0.14l0.801-1.59  c0.239-0.49,0.85-0.69,1.34-0.44c0.49,0.24,0.689,0.84,0.45,1.34l-0.71,1.41C31.25,6.7,32,10.97,32,12z"/>
</svg>
