<?xml version="1.0" encoding="utf-8"?>
<!-- Generator: Adobe Illustrator 16.0.0, SVG Export Plug-In . SVG Version: 6.00 Build 0)  -->
<svg xmlns="http://www.w3.org/2000/svg" xmlns:xlink="http://www.w3.org/1999/xlink" version="1.1" id="Outlined_2_" x="0px" y="0px" width="32px" height="32px" viewBox="0 0 32 32" enable-background="new 0 0 32 32" xml:space="preserve">
<path d="M28,16c0,0.75-0.07,1.49-0.2,2.21l-2.109,0.25C25.89,17.67,26,16.85,26,16c0-4.77-3.35-8.76-7.82-9.76L19.8,8.4L18.2,9.6  L14,4h2C22.62,4,28,9.38,28,16z M20.44,21.1l0.239,1.99l2.69-0.32c-1.28,1.391-2.92,2.391-4.78,2.891c-2.58,0.689-5.279,0.34-7.59-1  c-0.73-0.41-1.391-0.92-1.98-1.49l-0.83,1.94C8.75,25.59,9.35,26.02,10,26.39c1.85,1.07,3.9,1.61,5.98,1.61  c1.039,0,2.09-0.13,3.13-0.41c3.09-0.83,5.68-2.81,7.279-5.59l1-1.73L20.44,21.1z M11,7.34c0.73-0.42,1.49-0.74,2.279-0.97  l-1.27-1.69C11.32,4.92,10.65,5.23,10,5.609C6.79,7.471,4.75,10.6,4.17,14c-0.449,2.66-0.01,5.49,1.439,8l1,1.73l2-4.681l0.75-1.76  l-1.33-0.56L7.52,16.51l-1.06,2.48C5.95,17.35,5.88,15.63,6.21,14C6.75,11.29,8.42,8.83,11,7.34z"/>
</svg>
