<?xml version="1.0" encoding="utf-8"?>
<!-- Generator: Adobe Illustrator 16.0.0, SVG Export Plug-In . SVG Version: 6.00 Build 0)  -->
<svg xmlns="http://www.w3.org/2000/svg" xmlns:xlink="http://www.w3.org/1999/xlink" version="1.1" id="Outlined_2_" x="0px" y="0px" width="32px" height="32px" viewBox="0 0 32 32" enable-background="new 0 0 32 32" xml:space="preserve">
<path d="M11.99,16.23l2,2v0.01C13.87,19.38,12.91,20,12,20v1c0,0.553-0.447,1-1,1s-1-0.447-1-1v-1H6v1c0,0.553-0.447,1-1,1  s-1-0.447-1-1v-1c-1.3,0-2-1.03-2-2v-3c0-1.54,1.46-3,3-3h2.76l2,2H5c-0.45,0-1,0.55-1,1v3h7.971L11.99,16.23z M25.997,21v-1h-3.999  v0.584l7.728,7.728l-1.414,1.414L2.275,3.689l1.414-1.414l14.309,14.309V15c0.003-1.543,1.461-3,3-3h5.999  c0.744,0,1.506,0.336,2.091,0.923c0.582,0.583,0.914,1.342,0.912,2.08l-0.003,2.998c0,1.298-1.03,1.999-2,1.999v1  c0,0.553-0.447,1-1,1S25.997,21.553,25.997,21z M19.998,18h7.971L28,14.999c0.001-0.206-0.125-0.46-0.328-0.664  C27.466,14.129,27.207,14,26.997,14h-5.999c-0.447,0-0.999,0.553-1,1.002V18z"/>
</svg>
