<?xml version="1.0" encoding="utf-8"?>
<!-- Generator: Adobe Illustrator 16.0.0, SVG Export Plug-In . SVG Version: 6.00 Build 0)  -->
<svg xmlns="http://www.w3.org/2000/svg" xmlns:xlink="http://www.w3.org/1999/xlink" version="1.1" id="Outlined_2_" x="0px" y="0px" width="32px" height="32px" viewBox="0 0 32 32" enable-background="new 0 0 32 32" xml:space="preserve">
<path d="M16,2C8.28,2,2,8.28,2,16c0,5.58,3.28,10.4,8,12.65V26.39C6.42,24.31,4,20.44,4,16C4,9.38,9.38,4,16,4s12,5.38,12,12  c0,0.68-0.06,1.35-0.17,2h2.03c0.09-0.65,0.14-1.32,0.14-2C30,8.28,23.72,2,16,2z M16,6C10.49,6,6,10.49,6,16  c0,3.26,1.57,6.17,4,7.99v-2.71C8.76,19.87,8,18.02,8,16c0-4.41,3.59-8,8-8s8,3.59,8,8c0,0.69-0.09,1.36-0.25,2h2.05  c0.13-0.64,0.2-1.31,0.2-2C26,10.49,21.51,6,16,6z M30,30h-6V20h6V30z M26,28h2v-6h-2V28z M22,30h-6V20h6V30z M18,28h2v-6h-2V28z   M14,30h-2V20h2V30z"/>
</svg>
