<?xml version="1.0" encoding="utf-8"?>
<!-- Generator: Adobe Illustrator 16.0.0, SVG Export Plug-In . SVG Version: 6.00 Build 0)  -->
<svg xmlns="http://www.w3.org/2000/svg" xmlns:xlink="http://www.w3.org/1999/xlink" version="1.1" id="Outlined_2_" x="0px" y="0px" width="32px" height="32px" viewBox="0 0 32 32" enable-background="new 0 0 32 32" xml:space="preserve">
<g>
	<path d="M20.67,18L30,25V5l-9.33,7h-7.256L3.707,2.293L2.293,3.707l26,26l1.414-1.414L20,18.586V18H20.67z M15.414,14h5.916L28,9   v12l-6.67-5h-3.916L15.414,14z"/>
	<path d="M8,21v-3h5.75l-2-2H4v-2h5.75l-2-2H4v-2H2v10h2v-2h2v3c0,1.206,0.799,3,3,3h9v-2H9C8.195,22,8.012,21.45,8,21z"/>
</g>
</svg>
