<?xml version="1.0" encoding="utf-8"?>
<!-- Generator: Adobe Illustrator 16.0.0, SVG Export Plug-In . SVG Version: 6.00 Build 0)  -->
<svg xmlns="http://www.w3.org/2000/svg" xmlns:xlink="http://www.w3.org/1999/xlink" version="1.1" id="Outlined_2_" x="0px" y="0px" width="32px" height="32px" viewBox="0 0 32 32" enable-background="new 0 0 32 32" xml:space="preserve">
<path d="M16,2C8.28,2,2,8.28,2,16s6.28,14,14,14s14-6.28,14-14S23.72,2,16,2z M21.215,5.209L16,9.683l-5.216-4.473  C12.364,4.442,14.129,4,16,4C17.87,4,19.636,4.442,21.215,5.209z M10.791,26.794L16,22.324l5.208,4.47C19.63,27.559,17.868,28,16,28  S12.369,27.559,10.791,26.794z M23.019,25.713L16,19.689l-7.02,6.022C5.97,23.53,4,19.995,4,16c0-3.992,1.967-7.525,4.975-9.708  L16,12.317l7.024-6.026C26.033,8.475,28,12.008,28,16C28,19.995,26.03,23.53,23.019,25.713z"/>
</svg>
