<?xml version="1.0" encoding="utf-8"?>
<!-- Generator: Adobe Illustrator 16.0.0, SVG Export Plug-In . SVG Version: 6.00 Build 0)  -->
<svg xmlns="http://www.w3.org/2000/svg" xmlns:xlink="http://www.w3.org/1999/xlink" version="1.1" id="Outlined_2_" x="0px" y="0px" width="32px" height="32px" viewBox="0 0 32 32" enable-background="new 0 0 32 32" xml:space="preserve">
<path d="M25,8c-1.225,0-2.202,0.327-3.021,0.784L20,7.465V3c0-0.552-0.447-1-1-1s-1,0.448-1,1v1h-1c-0.553,0-1,0.448-1,1  s0.447,1,1,1h1v2c0,0.334,0.167,0.646,0.445,0.832l1.842,1.228c-0.271,0.259-0.524,0.518-0.755,0.758  C18.95,11.426,18.4,12,17.999,12H7c-2.201,0-3,1.794-3,3c0,3.491-1.643,5.227-1.707,5.293l1.414,1.414  C3.801,21.613,6,19.364,6,15.012C6.012,14.55,6.195,14,7,14h10.999c1.256,0,2.131-0.915,2.978-1.799C22.013,11.119,23.084,10,25,10  c1.01,0,3,3.981,3,6c-0.75,0-3.497-0.911-4.293-1.707c-0.286-0.286-0.715-0.371-1.09-0.217C22.243,14.231,22,14.596,22,15v6  c0,0.806-0.55,0.988-1,1h-0.578l0.561-2.804l-1.961-0.393L18.383,22H13c-1.622,0-3.283-0.678-4.338-1.209l0.319-1.595L7.02,18.804  L6,23.806V30h2v-5.899l0.257-1.284C9.499,23.39,11.231,24,13,24h5.021L18,30h2v-6h1c1.206,0,3-0.799,3-3v-4.179  C25.408,17.504,27.142,18,28,18c1.299,0,2-1.03,2-2C30,14.006,27.98,8,25,8z"/>
</svg>
