<?xml version="1.0" encoding="utf-8"?>
<!-- Generator: Adobe Illustrator 16.0.0, SVG Export Plug-In . SVG Version: 6.00 Build 0)  -->
<svg xmlns="http://www.w3.org/2000/svg" xmlns:xlink="http://www.w3.org/1999/xlink" version="1.1" id="Capa_1" x="0px" y="0px" width="32px" height="32px" viewBox="0 0 32 32" enable-background="new 0 0 32 32" xml:space="preserve">
<path d="M30,4v10h-2V4h-2v10h-2v-4h-4V4h-8v6H8v4H6V4H4v10H2V4H0v22h2V16h2v10h2V16h2v4h4v6h8v-6h4v-4h2v10h2V16h2v10h2V4H30z M14,6  h4v4h-4V6z M18,24h-4v-4h4V24z M22,18H10v-6h12V18z"/>
</svg>
