<?xml version="1.0" encoding="utf-8"?>
<!-- Generator: Adobe Illustrator 16.0.0, SVG Export Plug-In . SVG Version: 6.00 Build 0)  -->
<svg xmlns="http://www.w3.org/2000/svg" xmlns:xlink="http://www.w3.org/1999/xlink" version="1.1" id="Capa_1" x="0px" y="0px" width="32px" height="32px" viewBox="0 0 32 32" enable-background="new 0 0 32 32" xml:space="preserve">
<path d="M28,20.649l-8-10V7c0-2.421-1.045-7-5-7s-5,4.579-5,7v3.649l-8,10V28h8v2h4v2h2v-2h4v-2h8V20.649z M15,2  c2.116,0,2.737,2.542,2.921,4h-5.842C12.263,4.541,12.884,2,15,2z M4,26v-4.649l6-7.5V26H4z M18,28h-2v-2h-2v2h-2V8h6V28z M26,26h-6  V13.851l6,7.5V26z"/>
</svg>
