<?xml version="1.0" encoding="utf-8"?>
<!-- Generator: Adobe Illustrator 16.0.0, SVG Export Plug-In . SVG Version: 6.00 Build 0)  -->
<svg xmlns="http://www.w3.org/2000/svg" xmlns:xlink="http://www.w3.org/1999/xlink" version="1.1" id="Outlined_2_" x="0px" y="0px" width="32px" height="32px" viewBox="0 0 32 32" enable-background="new 0 0 32 32" xml:space="preserve">
<path d="M15,2C6.729,2,0,8.729,0,17c0,8.271,6.729,15,15,15c8.271,0,15-6.729,15-15C30,8.729,23.271,2,15,2z M15,30  C7.832,30,2,24.168,2,17C2,9.832,7.832,4,15,4c7.168,0,13,5.832,13,13C28,24.168,22.168,30,15,30z M19,18h-4c-0.552,0-1-0.447-1-1  s0.448-1,1-1h4c0.553,0,1,0.447,1,1S19.553,18,19,18z M15,6C8.935,6,4,10.935,4,17c0,6.064,4.935,10.999,11,11  c6.065,0,11-4.935,11-11S21.065,6,15,6z M9.39,24.024l1.368-1.367l-1.414-1.414l-1.368,1.368C6.939,21.316,6.252,19.732,6.059,18H8  v-2H6.059c0.192-1.732,0.88-3.316,1.916-4.611l1.318,1.318l1.414-1.414L9.389,9.975C10.684,8.939,12.268,8.251,14,8.059V10h2V8.059  c1.732,0.192,3.316,0.88,4.611,1.916l-1.318,1.318l1.414,1.414l1.318-1.318c1.036,1.294,1.723,2.878,1.916,4.611H22v2h1.941  c-0.193,1.732-0.88,3.316-1.916,4.611l-1.369-1.369l-1.414,1.414l1.369,1.369C19.071,25.258,17.122,26,15,26  C12.879,26,10.93,25.257,9.39,24.024z"/>
</svg>
