<?xml version="1.0" encoding="utf-8"?>
<!-- Generator: Adobe Illustrator 16.0.0, SVG Export Plug-In . SVG Version: 6.00 Build 0)  -->
<svg xmlns="http://www.w3.org/2000/svg" xmlns:xlink="http://www.w3.org/1999/xlink" version="1.1" id="Outlined_2_" x="0px" y="0px" width="32px" height="32px" viewBox="0 0 32 32" enable-background="new 0 0 32 32" xml:space="preserve">
<path d="M15,2C6.729,2,0,8.729,0,17c0,8.271,6.729,15,15,15c8.271,0,15-6.729,15-15C30,8.729,23.271,2,15,2z M15,30  C7.832,30,2,24.168,2,17C2,9.832,7.832,4,15,4c7.168,0,13,5.832,13,13C28,24.168,22.168,30,15,30z M18.707,13.293  c0.391,0.391,0.391,1.023,0,1.414l-3,3C15.512,17.902,15.256,18,15,18s-0.512-0.098-0.707-0.293c-0.391-0.391-0.391-1.023,0-1.414  l3-3C17.684,12.902,18.316,12.902,18.707,13.293z M15,5.999C8.935,6,4,10.935,3.999,17c0,6.064,4.935,10.999,11.001,11  c6.065,0,11-4.935,11-11C26,10.934,21.065,5.999,15,5.999z M9.389,24.025l1.368-1.368l-1.414-1.414l-1.368,1.368  C6.938,21.316,6.251,19.732,6.058,18H8v-2H6.058c0.193-1.732,0.88-3.316,1.917-4.611l1.318,1.318l1.414-1.414L9.389,9.975  C10.684,8.938,12.268,8.251,14,8.058V10h2V8.058c1.733,0.192,3.316,0.88,4.611,1.917l-1.318,1.318l1.414,1.414l1.318-1.318  c1.036,1.295,1.723,2.878,1.916,4.611H22v2h1.941c-0.193,1.732-0.88,3.316-1.916,4.611l-1.369-1.369l-1.414,1.414l1.369,1.369  C19.071,25.258,17.122,26,15,26C12.878,26,10.93,25.258,9.389,24.025z"/>
</svg>
