<?xml version="1.0" encoding="utf-8"?>
<!-- Generator: Adobe Illustrator 16.0.0, SVG Export Plug-In . SVG Version: 6.00 Build 0)  -->
<svg xmlns="http://www.w3.org/2000/svg" xmlns:xlink="http://www.w3.org/1999/xlink" version="1.1" id="Capa_1" x="0px" y="0px" width="32px" height="32px" viewBox="0 0 32 32" enable-background="new 0 0 32 32" xml:space="preserve">
<path d="M32,17c0-4.291-7.444-11.858-8.293-12.707l-1.414,1.414C25.272,8.688,30,14.39,30,17c0,1.633-0.701,2.49-1.132,2.867  C27.951,18.737,26.568,18,25,18c-1.633,0-3.068,0.794-3.98,2.004C21.013,20.004,21.007,20,21,20h-6c-0.552,0-1,0.447-1,1  s0.448,1,1,1h5.101C20.035,22.323,20,22.657,20,23s0.035,0.677,0.101,1h-8.201C11.965,23.677,12,23.343,12,23c0-2.762-2.238-5-5-5  c-1.081,0-2.075,0.351-2.893,0.934c-1.463-1.897-1.915-5.054-2.049-6.761c0.481,0.128,1.027,0.316,1.617,0.518  C5.375,13.274,7.49,14,10,14c2.215,0,3.624-1.03,4.986-2.026C16.375,10.959,17.688,10,20,10c2.526,0,4.278,1.693,4.293,1.707  l1.414-1.414C25.613,10.199,23.375,8,20,8c-2.966,0-4.681,1.253-6.194,2.36C12.552,11.276,11.562,12,10,12  c-2.176,0-4.035-0.638-5.675-1.201C3.075,10.371,1.995,10,1,10c-0.552,0-1,0.448-1,1c0,0.268,0.035,6.229,2.732,9.429  C2.277,21.183,2,22.056,2,23c0,2.762,2.238,5,5,5c1.644,0,3.089-0.804,4-2.027V26h10v-0.027C21.911,27.196,23.356,28,25,28  c2.762,0,5-2.238,5-5c0-0.462-0.083-0.9-0.2-1.325C30.501,21.182,32,19.803,32,17z M7,26c-1.654,0-3-1.346-3-3s1.346-3,3-3  s3,1.346,3,3S8.654,26,7,26z M25,26c-1.654,0-3-1.346-3-3s1.346-3,3-3s3,1.346,3,3S26.654,26,25,26z"/>
</svg>
