<?xml version="1.0" encoding="utf-8"?>
<!-- Generator: Adobe Illustrator 16.0.0, SVG Export Plug-In . SVG Version: 6.00 Build 0)  -->
<svg xmlns="http://www.w3.org/2000/svg" xmlns:xlink="http://www.w3.org/1999/xlink" version="1.1" id="Outlined_2_" x="0px" y="0px" width="32px" height="32px" viewBox="0 0 32 32" enable-background="new 0 0 32 32" xml:space="preserve">
<path d="M30,10c0-4.411-3.589-8-8-8c-2.157,0-4.113,0.862-5.554,2.255L2.612,10.08l0.776,1.843L14.5,7.244  C14.182,8.104,14,9.03,14,10c0,1.846,0.635,3.543,1.689,4.899L2.293,28.293l1.414,1.414l13.396-13.395  C18.458,17.366,20.155,18,22,18c0.969,0,1.894-0.182,2.753-0.498L20.07,28.61l1.844,0.777l5.832-13.834  C29.139,14.113,30,12.157,30,10z M18.53,14.886l5.183-5.182L22.299,8.29l-5.183,5.182C16.416,12.491,16,11.294,16,10  c0-3.309,2.691-6,6-6s6,2.691,6,6s-2.691,6-6,6C20.707,16,19.511,15.584,18.53,14.886z"/>
</svg>
