<?xml version="1.0" encoding="utf-8"?>
<!-- Generator: Adobe Illustrator 16.0.0, SVG Export Plug-In . SVG Version: 6.00 Build 0)  -->
<svg xmlns="http://www.w3.org/2000/svg" xmlns:xlink="http://www.w3.org/1999/xlink" version="1.1" id="Capa_1" x="0px" y="0px" width="32px" height="32px" viewBox="0 0 32 32" enable-background="new 0 0 32 32" xml:space="preserve">
<path d="M29,16h-3.797c-0.32-0.283-0.97-1.167-1.456-1.828C22.237,12.121,20.678,10,19,10H6.586L0,16.586V21  c0,3.722,4.052,4.865,6.548,4.988C7.24,27.185,8.519,28,10,28c1.477,0,2.752-0.81,3.445-2h7.109c0.693,1.19,1.969,2,3.445,2  s2.752-0.81,3.445-2H29c2.201,0,3-1.794,3-3v-4C32,16.799,30.206,16,29,16z M22.136,15.357c0.169,0.229,0.325,0.442,0.476,0.643H19  c-0.806,0-0.988-0.55-1-1v-3h1C19.666,12,21.396,14.353,22.136,15.357z M12,12v3c0,0.805-0.55,0.988-1,1h-1v-4H12z M7.414,12H8v4  H3.414L7.414,12z M10,26c-1.103,0-2-0.897-2-2s0.897-2,2-2s2,0.897,2,2S11.103,26,10,26z M24,26c-1.103,0-2-0.897-2-2s0.897-2,2-2  s2,0.897,2,2S25.103,26,24,26z M30,22.988C29.988,23.45,29.806,24,29,24h-1c0-2.209-1.791-4-4-4s-4,1.791-4,4h-6  c0-2.209-1.791-4-4-4c-2.182,0-3.95,1.75-3.992,3.922C4.55,23.74,2,23.12,2,21v-3h9c1.206,0,3-0.799,3-3v-3h2v3c0,1.206,0.799,3,3,3  h6h3.988C29.45,18.012,30,18.194,30,19V22.988z"/>
</svg>
