<?xml version="1.0" encoding="utf-8"?>
<!-- Generator: Adobe Illustrator 16.0.0, SVG Export Plug-In . SVG Version: 6.00 Build 0)  -->
<svg xmlns="http://www.w3.org/2000/svg" xmlns:xlink="http://www.w3.org/1999/xlink" version="1.1" id="Outlined_2_" x="0px" y="0px" width="32px" height="32px" viewBox="0 0 32 32" enable-background="new 0 0 32 32" xml:space="preserve">
<path d="M31.814,26.393l-3.919-7.838c-0.17-0.339-0.516-0.553-0.895-0.553h-2.383C25.399,16.966,26,15.401,26,13  c0-6.256-4.046-6.93-4.859-7C21.095,5.993,18,6,18,6V2h-5.996L12,6H1C0.448,6,0,6.447,0,6.999V23c0,2.757,2.243,5,5,5  c1.641,0,3.088-0.806,4-2.031C9.912,27.194,11.359,28,13,28c1.628,0,3.063-0.794,3.977-2.003c0.009,0,0.016,0.005,0.023,0.005  c0,0,0,0,0.001,0L19.998,26v1c0,0.265,0.105,0.52,0.293,0.707S20.732,28,20.998,28H31c0.008,0.001,0.016,0.001,0.02,0  c0.553,0,1-0.447,1-1C32.02,26.771,31.943,26.561,31.814,26.393z M21.998,8.283C22.879,8.738,24,9.922,24,13  c0,3.081-1.124,4.264-2.002,4.718V8.283z M14,4h2.002L16,6h-2V4z M5,26c-1.654,0-3-1.346-3-3s1.346-3,3-3  c1.302,0,2.401,0.839,2.816,2H5c-0.552,0-1,0.447-1,1s0.448,1,1,1h2.816C7.401,25.161,6.302,26,5,26z M13,26  c-1.302,0-2.401-0.839-2.815-2H13c0.552,0,1-0.447,1-1s-0.448-1-1-1h-2.816c0.415-1.161,1.514-2,2.816-2c1.654,0,3,1.346,3,3  S14.654,26,13,26z M17.898,24.002C17.965,23.678,18,23.343,18,23c0-2.757-2.243-5-5-5c-1.641,0-3.088,0.806-4,2.031  C8.088,18.806,6.641,18,5,18c-1.13,0-2.162,0.391-3,1.025V16h14v-2H2V7.999h4V10h2V7.999L20,8v16L17.898,24.002z M22,26v-6h4.383  l2.999,6H22z"/>
</svg>
