<?xml version="1.0" encoding="utf-8"?>
<!-- Generator: Adobe Illustrator 16.0.0, SVG Export Plug-In . SVG Version: 6.00 Build 0)  -->
<svg xmlns="http://www.w3.org/2000/svg" xmlns:xlink="http://www.w3.org/1999/xlink" version="1.1" id="Capa_1" x="0px" y="0px" width="32px" height="32px" viewBox="0 0 32 32" enable-background="new 0 0 32 32" xml:space="preserve">
<path d="M2.08,25.369C1.527,25.753,0.899,26,0,26v2c2.414,0,3.686-1.271,4.707-2.293C5.661,24.753,6.414,24,8,24  s2.339,0.753,3.293,1.707C12.314,26.729,13.586,28,16,28s3.686-1.271,4.707-2.293C21.66,24.753,22.414,24,24,24  s2.34,0.753,3.293,1.707C28.314,26.729,29.586,28,32,28v-2c-1.586,0-2.34-0.753-3.293-1.707c-0.051-0.051-0.104-0.104-0.156-0.154  l3.34-6.688c0.159-0.311,0.139-0.68-0.041-0.98C31.67,16.18,31.35,16,31,16h-3.5l-5.7-7.6C21.611,8.148,21.314,8,21,8H10V6H8v2H6V4  H4v4H3C2.447,8,2,8.448,2,9v5.72C0.76,16.13,0,17.98,0,20C0,21.983,0.754,23.906,2.08,25.369z M25,16H14.92  c-1.38-2.39-3.97-4-6.92-4c-1.45,0-2.82,0.39-4,1.08V10h16.5l1.5,2h-6v2h7.5L25,16z M16,26c-0.899,0-1.527-0.247-2.08-0.631  C15.246,23.907,16,21.992,16,20c0-0.69-0.09-1.36-0.25-2h13.63l-2.409,4.827C26.206,22.35,25.262,22,24,22  c-2.414,0-3.686,1.271-4.707,2.293C18.34,25.247,17.586,26,16,26z M8,22c-1.1,0-2-0.9-2-2s0.9-2,2-2s2,0.9,2,2S9.1,22,8,22z   M3.568,24.021C2.564,22.918,2,21.483,2,20c0-3.31,2.69-6,6-6s6,2.69,6,6c0,1.492-0.572,2.936-1.568,4.021  c-0.443-0.437-0.941-0.892-1.561-1.261C11.566,22.042,12,21.079,12,20c0-2.21-1.79-4-4-4s-4,1.79-4,4  c0,1.079,0.434,2.042,1.129,2.761C4.51,23.13,4.013,23.584,3.568,24.021z"/>
</svg>
