<?xml version="1.0" encoding="utf-8"?>
<!-- Generator: Adobe Illustrator 16.0.0, SVG Export Plug-In . SVG Version: 6.00 Build 0)  -->
<svg xmlns="http://www.w3.org/2000/svg" xmlns:xlink="http://www.w3.org/1999/xlink" version="1.1" id="Outlined_2_" x="0px" y="0px" width="32px" height="32px" viewBox="0 0 32 32" enable-background="new 0 0 32 32" xml:space="preserve">
<path d="M15,2C6.729,2,0,8.729,0,17c0,8.271,6.729,15,15,15c8.271,0,15-6.729,15-15C30,8.729,23.271,2,15,2z M15,4  c5.396,0,10.034,3.307,11.997,8H3.003C4.966,7.307,9.603,4,15,4z M2.051,18H9c2.823,0,2.994,2.504,3,3v8.637  C6.591,28.352,2.487,23.687,2.051,18z M14,29.949V21c0-1.729-1.045-5-5-5H2.051c0.052-0.683,0.158-1.35,0.313-2h25.273  c0.154,0.65,0.26,1.317,0.313,2H21c-1.729,0-5,1.045-5,5v8.949C15.669,29.975,15.337,30,15,30S14.331,29.975,14,29.949z M18,29.637  V21c0-2.823,2.504-2.994,3-3h6.949C27.514,23.687,23.409,28.352,18,29.637z"/>
</svg>
