<?xml version="1.0" encoding="utf-8"?>
<!-- Generator: Adobe Illustrator 16.0.0, SVG Export Plug-In . SVG Version: 6.00 Build 0)  -->
<svg xmlns="http://www.w3.org/2000/svg" xmlns:xlink="http://www.w3.org/1999/xlink" version="1.1" id="Outlined_2_" x="0px" y="0px" width="32px" height="32px" viewBox="0 0 32 32" enable-background="new 0 0 32 32" xml:space="preserve">
<path d="M29,16h-3.05c-0.28-3.05-1.8-5.75-4.07-7.57l1.95-2.87c0.31-0.46,0.189-1.08-0.271-1.39c-0.449-0.31-1.079-0.19-1.39,0.27  l-1.95,2.88C18.67,6.48,16.89,6,15,6c-1.89,0-3.67,0.48-5.22,1.32L7.83,4.44C7.52,3.98,6.9,3.86,6.44,4.17S5.86,5.1,6.17,5.56  l1.95,2.87C5.85,10.25,4.33,12.95,4.05,16H1c-0.55,0-1,0.45-1,1s0.45,1,1,1h3.05c0.28,3.05,1.81,5.75,4.07,7.57l-1.95,2.87  c-0.31,0.46-0.19,1.079,0.27,1.39C6.61,29.95,6.81,30,7,30c0.32,0,0.63-0.15,0.83-0.44l1.95-2.88C11.33,27.52,13.11,28,15,28  c1.89,0,3.67-0.48,5.22-1.32l1.95,2.88C22.37,29.85,22.68,30,23,30c0.2,0,0.39-0.05,0.56-0.17c0.46-0.311,0.58-0.93,0.271-1.39  l-1.95-2.87c2.271-1.82,3.79-4.521,4.07-7.57H29c0.55,0,1-0.45,1-1S29.55,16,29,16z M15,8c1.47,0,2.86,0.36,4.09,0.99l-3.45,5.08  C15.44,14.03,15.22,14,15,14s-0.44,0.03-0.64,0.07l-3.45-5.08C12.14,8.36,13.53,8,15,8z M16.5,17c0,0.83-0.67,1.5-1.5,1.5  s-1.5-0.67-1.5-1.5s0.67-1.5,1.5-1.5S16.5,16.17,16.5,17z M9.24,10.09l3.42,5.05c-0.2,0.26-0.36,0.54-0.48,0.86H6.06  C6.32,13.63,7.5,11.54,9.24,10.09z M9.24,23.91C7.5,22.46,6.32,20.37,6.06,18h6.12c0.12,0.32,0.28,0.6,0.49,0.86L9.24,23.91z M15,26  c-1.47,0-2.86-0.36-4.09-0.99l3.45-5.08C14.57,19.97,14.78,20,15,20s0.44-0.03,0.64-0.07l3.45,5.08C17.86,25.64,16.47,26,15,26z   M20.76,23.91l-3.42-5.05c0.2-0.261,0.36-0.54,0.48-0.86h6.12C23.68,20.37,22.5,22.46,20.76,23.91z M17.82,16  c-0.12-0.32-0.28-0.6-0.48-0.86l3.42-5.05c1.74,1.45,2.92,3.54,3.181,5.91H17.82z"/>
</svg>
