<?xml version="1.0" encoding="utf-8"?>
<!-- Generator: Adobe Illustrator 16.0.0, SVG Export Plug-In . SVG Version: 6.00 Build 0)  -->
<svg xmlns="http://www.w3.org/2000/svg" xmlns:xlink="http://www.w3.org/1999/xlink" version="1.1" id="Capa_1" x="0px" y="0px" width="32px" height="32px" viewBox="0 0 32 32" enable-background="new 0 0 32 32" xml:space="preserve">
<path d="M22,24c-0.508,0-0.989,0.104-1.436,0.276c-0.405-0.777-0.796-1.535-1.176-2.276H23c0.553,0,1-0.447,1-1s-0.447-1-1-1h-4.628  c-1.7-3.375-3.1-6.3-4.148-8.668L21.6,5.8c0.345-0.258,0.485-0.708,0.349-1.116C21.813,4.275,21.431,4,21,4h-8.872  C12.642,2.138,14.57,2.005,15,2h3V0h-3c-1.626,0-4.614,0.925-4.964,4.324C8.354,5.126,4,7.888,4,15c0,2.421,1.045,7,5,7h0.382  l-1.238,2.477C6.875,25.147,6,26.465,6,28c0,2.209,1.791,4,4,4s4-1.791,4-4c0-2.008-1.484-3.654-3.412-3.94l1.03-2.06h5.522  c0.563,1.104,1.158,2.261,1.787,3.467C18.357,26.158,18,27.033,18,28c0,2.209,1.791,4,4,4s4-1.791,4-4S24.209,24,22,24z M12,28  c0,1.103-0.897,2-2,2s-2-0.897-2-2s0.897-2,2-2S12,26.897,12,28z M13.411,9.441C12.807,7.981,12.387,6.82,12.171,6H18L13.411,9.441z   M9,20c-2.95,0-3-4.952-3-5c0-5.192,2.696-7.575,4.25-8.52c0.652,2.485,2.617,7.005,5.879,13.52H9z M22,30c-1.103,0-2-0.897-2-2  s0.897-2,2-2s2,0.897,2,2S23.103,30,22,30z"/>
</svg>
