<?xml version="1.0" encoding="utf-8"?>
<!-- Generator: Adobe Illustrator 16.0.0, SVG Export Plug-In . SVG Version: 6.00 Build 0)  -->
<svg xmlns="http://www.w3.org/2000/svg" xmlns:xlink="http://www.w3.org/1999/xlink" version="1.1" id="Capa_1" x="0px" y="0px" width="32px" height="32px" viewBox="0 0 32 32" enable-background="new 0 0 32 32" xml:space="preserve">
<path d="M32,5c0-0.552-0.447-1-1-1h-4c-0.553,0-1,0.448-1,1s0.447,1,1,1h2.583c-0.854,1.433-2.921,3.92-5.269,6.271  C23.945,12.105,23.515,12,23,12h-7V5c0-1.206-0.799-3-3-3C8.684,2,0.698,4.135,0.062,12H0v1v1v5c0,0.122,0.031,2.764,2.088,4.171  C2.032,23.438,2,23.715,2,24c0,2.209,1.791,4,4,4s4-1.791,4-4h6c0,2.209,1.791,4,4,4s4-1.791,4-4c0-0.582-0.131-1.132-0.354-1.631  C24.848,21.405,26,19.77,26,17v-2c0-0.396-0.098-0.855-0.292-1.294C27.187,12.228,32,7.24,32,5z M14,5v7h-2V4.054  C12.554,4.005,12.924,4,13,4C13.805,4,13.988,4.55,14,5z M10,4.354V12H2.053C2.556,6.827,6.93,4.998,10,4.354z M6,26  c-1.103,0-2-0.897-2-2s0.897-2,2-2s2,0.897,2,2S7.103,26,6,26z M20,26c-1.103,0-2-0.897-2-2s0.897-2,2-2s2,0.897,2,2  S21.103,26,20,26z M24,17c0,1.679-0.54,2.958-1.604,3.815C21.728,20.311,20.903,20,20,20c-1.477,0-2.752,0.81-3.445,2H9.445  C8.752,20.81,7.477,20,6,20c-1.194,0-2.253,0.533-2.986,1.363C2.034,20.513,2.001,19.066,2,19v-5h21c0.806,0,0.988,0.55,1,1V17z"/>
</svg>
