<?xml version="1.0" encoding="utf-8"?>
<!-- Generator: Adobe Illustrator 16.0.0, SVG Export Plug-In . SVG Version: 6.00 Build 0)  -->
<svg xmlns="http://www.w3.org/2000/svg" xmlns:xlink="http://www.w3.org/1999/xlink" version="1.1" id="Outlined_2_" x="0px" y="0px" width="32px" height="32px" viewBox="0 0 32 32" enable-background="new 0 0 32 32" xml:space="preserve">
<path d="M31.998,21c0-1.879-0.794-4.018-6.553-6.896c-1.338-0.669-2.173-1.591-3.057-2.566C20.813,9.797,19.184,8,15,8H0  l0.002,1.998H4V14H0l0.002,1.998h9c2.2,0,2.998-1.794,2.998-3V10h2v3c0,1.206,0.798,2.998,2.999,2.998h7.755  c5.233,2.659,5.244,4.238,5.244,5.002c0,2.824-2.502,2.994-2.998,3L0.002,24.002L0,26h27C28.729,26,31.998,24.957,31.998,21z   M10.001,12.986C9.989,13.447,9.805,14,9,14H6V9.998h4.001V12.986z M15.999,12.998v-2.949c2.543,0.238,3.608,1.397,4.907,2.831  c0.328,0.362,0.674,0.742,1.056,1.118h-4.963C16.193,13.998,16.011,13.447,15.999,12.998z M15,20H0v-2h15c0.55,0,1,0.45,1,1  S15.55,20,15,20z M0,28h32v2H0V28z M32,4v2H0V4H32z"/>
</svg>
