<?xml version="1.0" encoding="utf-8"?>
<!-- Generator: Adobe Illustrator 16.0.0, SVG Export Plug-In . SVG Version: 6.00 Build 0)  -->
<svg xmlns="http://www.w3.org/2000/svg" xmlns:xlink="http://www.w3.org/1999/xlink" version="1.1" id="Capa_1" x="0px" y="0px" width="32px" height="32px" viewBox="0 0 32 32" enable-background="new 0 0 32 32" xml:space="preserve">
<path d="M29,14c-1.123,0-1.464-0.607-2.128-1.982C26.053,10.322,24.931,8,21,8H5c-2.201,0-3,1.794-3,3v3.219H0V22h2v1  c0,2.201,1.794,3,3,3h1.555c0.693,1.19,1.969,2,3.445,2s2.752-0.81,3.445-2h7.109c0.693,1.19,1.969,2,3.445,2s2.752-0.81,3.445-2H29  c2.201,0,3-1.794,3-3v-6C32,14.799,30.206,14,29,14z M25.071,12.888c0.174,0.36,0.361,0.742,0.582,1.112h-4.642  C20.55,13.988,20,13.805,20,13v-3h1C23.676,10,24.291,11.274,25.071,12.888z M10,10h4v3c0,0.805-0.55,0.988-1,1h-3V10z M5,10h3v4H4  v-2.988C4.012,10.55,4.195,10,5,10z M10,26c-1.103,0-2-0.897-2-2s0.897-2,2-2s2,0.897,2,2S11.103,26,10,26z M24,26  c-1.103,0-2-0.897-2-2s0.897-2,2-2s2,0.897,2,2S25.103,26,24,26z M30,22.988C29.988,23.45,29.806,24,29,24h-1c0-2.209-1.791-4-4-4  s-4,1.791-4,4h-6c0-2.209-1.791-4-4-4s-4,1.791-4,4H5.012C4.55,23.988,4,23.806,4,23v-7h9c1.206,0,3-0.799,3-3v-3h2v3  c0,2.201,1.794,3,3,3h7.988C29.45,16.012,30,16.195,30,17V22.988z"/>
</svg>
