<?xml version="1.0" encoding="utf-8"?>
<!-- Generator: Adobe Illustrator 16.0.0, SVG Export Plug-In . SVG Version: 6.00 Build 0)  -->
<svg xmlns="http://www.w3.org/2000/svg" xmlns:xlink="http://www.w3.org/1999/xlink" version="1.1" id="Outlined_2_" x="0px" y="0px" width="32px" height="32px" viewBox="0 0 32 32" enable-background="new 0 0 32 32" xml:space="preserve">
<path d="M15,2C6.729,2,0,8.729,0,17c0,8.271,6.729,15,15,15c8.271,0,15-6.729,15-15C30,8.729,23.271,2,15,2z M15,30  C7.832,30,2,24.168,2,17C2,9.832,7.832,4,15,4c7.168,0,13,5.832,13,13C28,24.168,22.168,30,15,30z M26,17  c0,2.938-1.145,5.7-3.223,7.777l-0.707,0.707l-2.828-2.828l1.414-1.414l1.376,1.376c1.067-1.331,1.72-2.923,1.906-4.618H22v-2h1.941  c-0.193-1.733-0.88-3.316-1.916-4.611l-1.318,1.318l-1.414-1.414l1.318-1.318C19.316,8.939,17.732,8.251,16,8.059V10h-2V8.061  c-1.732,0.192-3.314,0.88-4.609,1.916l1.316,1.316l-1.414,1.414l-1.318-1.318C6.938,12.684,6.248,14.267,6.055,16H8v2H4v-1  C4,10.935,8.935,6,15,6S26,10.935,26,17z M12.878,14.878c-1.168,1.169-1.168,3.073,0,4.241c0.566,0.567,1.319,0.88,2.122,0.88  c0.802,0,1.556-0.312,2.122-0.879c0.903-0.903,1.483-3.636,1.691-4.769l0.262-1.425l-1.426,0.262  C16.516,13.395,13.783,13.976,12.878,14.878z M15.707,17.706c-0.377,0.378-1.035,0.38-1.414,0c-0.39-0.39-0.39-1.024-0.002-1.412  c0.222-0.21,1.133-0.532,2.227-0.812C16.239,16.574,15.917,17.484,15.707,17.706z"/>
</svg>
