<?xml version="1.0" encoding="utf-8"?>
<!-- Generator: Adobe Illustrator 16.0.0, SVG Export Plug-In . SVG Version: 6.00 Build 0)  -->
<svg xmlns="http://www.w3.org/2000/svg" xmlns:xlink="http://www.w3.org/1999/xlink" version="1.1" id="Outlined_2_" x="0px" y="0px" width="32px" height="32px" viewBox="0 0 32 32" enable-background="new 0 0 32 32" xml:space="preserve">
<path d="M15,2C6.729,2,0,8.729,0,17c0,8.271,6.729,15,15,15c8.271,0,15-6.729,15-15C30,8.729,23.271,2,15,2z M15,30  C7.832,30,2,24.168,2,17C2,9.832,7.832,4,15,4c7.168,0,13,5.832,13,13C28,24.168,22.168,30,15,30z M26,17  c0,2.938-1.145,5.7-3.223,7.777l-0.707,0.707l-2.828-2.828l1.414-1.414l1.376,1.376c1.067-1.331,1.72-2.923,1.906-4.618H22v-2h1.941  c-0.193-1.733-0.88-3.316-1.916-4.611l-1.318,1.318l-1.414-1.414l1.318-1.318C19.316,8.939,17.732,8.251,16,8.059V10h-2V8.061  c-1.732,0.192-3.314,0.88-4.609,1.916l1.316,1.316l-1.414,1.414l-1.318-1.318C6.938,12.684,6.248,14.267,6.055,16H8v2H4v-1  C4,10.935,8.935,6,15,6S26,10.935,26,17z M17.122,14.878c-1.131-1.133-3.11-1.129-4.241-0.001c-0.567,0.564-0.88,1.316-0.881,2.118  c-0.001,0.803,0.312,1.558,0.878,2.125c0.903,0.904,3.637,1.484,4.77,1.692l1.426,0.262l-0.262-1.426  C18.604,18.516,18.023,15.783,17.122,14.878z M14.293,17.706C14.104,17.517,14,17.266,14,16.997c0-0.266,0.104-0.516,0.293-0.704  C14.483,16.104,14.734,16,15.002,16c0.267,0,0.517,0.104,0.703,0.29c0.21,0.222,0.532,1.133,0.812,2.228  C15.424,18.238,14.515,17.916,14.293,17.706z"/>
</svg>
