<?xml version="1.0" encoding="utf-8"?>
<!-- Generator: Adobe Illustrator 16.0.0, SVG Export Plug-In . SVG Version: 6.00 Build 0)  -->
<svg xmlns="http://www.w3.org/2000/svg" xmlns:xlink="http://www.w3.org/1999/xlink" version="1.1" id="Outlined_2_" x="0px" y="0px" width="32px" height="32px" viewBox="0 0 32 32" enable-background="new 0 0 32 32" xml:space="preserve">
<path d="M15,2C6.729,2,0,8.729,0,17c0,8.271,6.729,15,15,15c8.271,0,15-6.729,15-15C30,8.729,23.271,2,15,2z M15,30  C7.832,30,2,24.168,2,17C2,9.832,7.832,4,15,4c7.168,0,13,5.832,13,13C28,24.168,22.168,30,15,30z M26,17  c0,2.938-1.145,5.7-3.223,7.777l-0.707,0.707l-2.828-2.828l1.414-1.414l1.376,1.376c1.067-1.331,1.72-2.923,1.906-4.618H22v-2h1.941  c-0.193-1.733-0.88-3.316-1.916-4.611l-1.318,1.318l-1.414-1.414l1.318-1.318C19.316,8.939,17.732,8.251,16,8.059V10h-2V8.061  c-1.732,0.192-3.314,0.88-4.609,1.916l1.316,1.316l-1.414,1.414l-1.318-1.318C6.938,12.684,6.248,14.267,6.055,16H8v2H4v-1  C4,10.935,8.935,6,15,6S26,10.935,26,17z M15,11.239l-0.823,1.192C13.522,13.379,12,15.722,12,17c0,1.654,1.346,2.999,2.998,2.999  h0.005h0c0.8,0,1.553-0.313,2.12-0.879C17.688,18.553,18,17.8,18,16.999c0-1.277-1.522-3.62-2.177-4.568L15,11.239z M15.708,17.707  c-0.188,0.188-0.438,0.292-0.704,0.292H15c-0.551,0-1-0.448-1-0.997c0.008-0.306,0.424-1.178,1-2.148  c0.576,0.97,0.992,1.841,1,2.146C16,17.267,15.896,17.518,15.708,17.707z"/>
</svg>
