<?xml version="1.0" encoding="utf-8"?>
<!-- Generator: Adobe Illustrator 16.0.0, SVG Export Plug-In . SVG Version: 6.00 Build 0)  -->
<svg xmlns="http://www.w3.org/2000/svg" xmlns:xlink="http://www.w3.org/1999/xlink" version="1.1" id="Outlined_2_" x="0px" y="0px" width="32px" height="32px" viewBox="0 0 32 32" enable-background="new 0 0 32 32" xml:space="preserve">
<path d="M15,2C6.729,2,0,8.729,0,17c0,8.271,6.729,15,15,15c8.271,0,15-6.729,15-15C30,8.729,23.271,2,15,2z M15,30  C7.832,30,2,24.168,2,17C2,9.832,7.832,4,15,4c7.168,0,13,5.832,13,13C28,24.168,22.168,30,15,30z M26,17  c0,2.938-1.145,5.7-3.223,7.777l-0.707,0.707l-2.828-2.828l1.414-1.414l1.376,1.376c1.067-1.331,1.72-2.923,1.906-4.618H22v-2h1.941  c-0.193-1.733-0.88-3.316-1.916-4.611l-1.318,1.318l-1.414-1.414l1.318-1.318C19.316,8.939,17.732,8.251,16,8.059V10h-2V8.061  c-1.732,0.192-3.314,0.88-4.609,1.916l1.316,1.316l-1.414,1.414l-1.318-1.318C6.938,12.684,6.248,14.267,6.055,16H8v2H4v-1  C4,10.935,8.935,6,15,6S26,10.935,26,17z M12.352,13.187l-1.424-0.261l0.26,1.425c0.208,1.133,0.787,3.866,1.691,4.77  c0.566,0.566,1.32,0.878,2.121,0.878s1.555-0.312,2.121-0.877C17.688,18.556,18,17.802,18,17s-0.313-1.555-0.879-2.121  C16.217,13.975,13.484,13.395,12.352,13.187z M15.707,17.707c-0.377,0.377-1.038,0.376-1.413,0.001  c-0.21-0.222-0.533-1.133-0.812-2.226c1.093,0.279,2.003,0.601,2.225,0.812C15.896,16.482,16,16.732,16,17  S15.896,17.519,15.707,17.707z"/>
</svg>
