<?xml version="1.0" encoding="utf-8"?>
<!-- Generator: Adobe Illustrator 16.0.0, SVG Export Plug-In . SVG Version: 6.00 Build 0)  -->
<svg xmlns="http://www.w3.org/2000/svg" xmlns:xlink="http://www.w3.org/1999/xlink" version="1.1" id="Capa_1" x="0px" y="0px" width="32px" height="32px" viewBox="0 0 32 32" enable-background="new 0 0 32 32" xml:space="preserve">
<path d="M32,7c0-3.955-3.271-5-5-5H5C1.045,2,0,5.271,0,7v8c0,0.824,0.243,1.997,0.919,3H0v6h0.051c0.252,2.244,2.139,4,4.449,4  c1.421,0,2.675-0.675,3.5-1.706C8.825,27.325,10.079,28,11.5,28c2.31,0,4.197-1.756,4.449-4h0.102c0.252,2.244,2.139,4,4.449,4  c1.421,0,2.675-0.675,3.5-1.706C24.825,27.325,26.079,28,27.5,28c2.311,0,4.197-1.756,4.449-4H32v-6h-0.879  C31.649,17.265,32,16.289,32,15V7z M30,20v2H2v-2H30z M8,18V4h16v14H8z M2,15V7.005C2.006,6.503,2.177,4,5,4h1v14H5  C2.177,18,2.006,15.497,2,15z M4.5,26c-1.207,0-2.217-0.86-2.449-2h4.898C6.717,25.14,5.707,26,4.5,26z M11.5,26  c-1.207,0-2.217-0.86-2.449-2h4.898C13.717,25.14,12.707,26,11.5,26z M20.5,26c-1.208,0-2.217-0.86-2.449-2h4.898  C22.717,25.14,21.708,26,20.5,26z M27.5,26c-1.208,0-2.217-0.86-2.449-2h4.898C29.717,25.14,28.708,26,27.5,26z M26,18V4h0.994  C27.496,4.006,30,4.177,30,7v8c0,2.819-2.498,2.994-3.004,3H26z"/>
</svg>
