<?xml version="1.0" encoding="utf-8"?>
<!-- Generator: Adobe Illustrator 16.0.0, SVG Export Plug-In . SVG Version: 6.00 Build 0)  -->
<svg xmlns="http://www.w3.org/2000/svg" xmlns:xlink="http://www.w3.org/1999/xlink" version="1.1" id="Capa_1" x="0px" y="0px" width="32px" height="32px" viewBox="0 0 32 32" enable-background="new 0 0 32 32" xml:space="preserve">
<g>
	<path d="M27,8h-7V6H3C0.799,6,0,7.794,0,9v14c0,2.201,1.794,3,3,3h1.555C5.248,27.19,6.523,28,8,28s2.752-0.81,3.445-2h9.109   c0.693,1.19,1.969,2,3.445,2s2.752-0.81,3.445-2H29c2.201,0,3-1.794,3-3v-6C32,16.241,29.139,8,27,8z M28.894,14H25   c-0.806,0-0.988-0.55-1-1v-3h2.75C27.256,10.53,28.164,12.338,28.894,14z M8,26c-1.103,0-2-0.897-2-2s0.897-2,2-2s2,0.897,2,2   S9.103,26,8,26z M24,26c-1.103,0-2-0.897-2-2s0.897-2,2-2s2,0.897,2,2S25.103,26,24,26z M30,22.988C29.988,23.45,29.806,24,29,24   h-1c0-2.209-1.791-4-4-4s-4,1.791-4,4h-8c0-2.209-1.791-4-4-4s-4,1.791-4,4H3.012C2.55,23.988,2,23.806,2,23V9.012   C2.012,8.55,2.195,8,3,8h15v12h2V10h2v3c0,1.206,0.799,3,3,3h4.705c0.167,0.461,0.277,0.822,0.295,1V22.988z"/>
	<path d="M8,15c0,3,3,3,3,3s3,0,3-3c0-2-3-5-3-5S8,13,8,15z"/>
</g>
</svg>
