<?xml version="1.0" encoding="utf-8"?>
<!-- Generator: Adobe Illustrator 16.0.0, SVG Export Plug-In . SVG Version: 6.00 Build 0)  -->
<svg xmlns="http://www.w3.org/2000/svg" xmlns:xlink="http://www.w3.org/1999/xlink" version="1.1" id="Capa_1" x="0px" y="0px" width="32px" height="32px" viewBox="0 0 32 32" enable-background="new 0 0 32 32" xml:space="preserve">
<g>
	<path d="M32,12v-2h-8V9c0-1.206-0.799-3-3-3C9.72,6,4,7.682,4,11c0,0.625,0.222,1.405,0.735,2.014L2,14.382v4.497   C0.479,19.972,0,21.834,0,23c0,3.955,3.271,5,5,5h20c3.955,0,5-3.271,5-5c0-2.07-0.898-3.338-2-4.081v-2.333l-4-4V12H32z M25,26   H5.005C4.503,25.994,2,25.823,2,23.006C2.006,22.504,2.177,20,5,20h19.994C25.496,20.006,28,20.177,28,22.994   C27.994,23.496,27.823,26,25,26z M26,18.104C25.639,18.033,25.296,18,25,18H5c-0.359,0-0.687,0.035-1,0.086v-2.468L7.236,14h15.35   L26,17.414V18.104z M7,12c-0.805,0-0.988-0.55-1-1c0-1.491,5.152-3,15-3c0.806,0,0.988,0.55,1,1v1v2H7z"/>
	<path d="M25,22H5c-0.552,0-1,0.447-1,1s0.448,1,1,1h20c0.553,0,1-0.447,1-1S25.553,22,25,22z"/>
</g>
</svg>
