<?xml version="1.0" encoding="utf-8"?>
<!-- Generator: Adobe Illustrator 16.0.0, SVG Export Plug-In . SVG Version: 6.00 Build 0)  -->
<svg xmlns="http://www.w3.org/2000/svg" xmlns:xlink="http://www.w3.org/1999/xlink" version="1.1" id="Capa_1" x="0px" y="0px" width="32px" height="32px" viewBox="0 0 32 32" enable-background="new 0 0 32 32" xml:space="preserve">
<path d="M27,14c-1.262,0-1.967-0.788-3.103-2.179c-1.26-1.542-2.813-3.408-5.897-3.75V8c0,0,0-2-2-2h-2c0,0-2,0-2,2H9  c-5.537,0-7,4.579-6.996,6.959c-0.036,0.133-0.327,0.484-0.519,0.716C0.858,16.432,0,17.468,0,19v4c0,2.201,1.794,3,3,3h1.555  C5.248,27.19,6.523,28,8,28s2.752-0.81,3.445-2h9.109c0.693,1.19,1.969,2,3.445,2s2.752-0.81,3.445-2H29c2.201,0,3-1.794,3-3v-4  C32,15.045,28.729,14,27,14z M22.348,13.085c0.247,0.303,0.504,0.613,0.775,0.915H16v-4h1C19.828,10,21.053,11.499,22.348,13.085z   M14,10v4h-3c-0.805,0-0.988-0.55-1-1v-3H14z M8,26c-1.103,0-2-0.897-2-2s0.897-2,2-2s2,0.897,2,2S9.103,26,8,26z M24,26  c-1.103,0-2-0.897-2-2s0.897-2,2-2s2,0.897,2,2S25.103,26,24,26z M30,22.988C29.988,23.45,29.806,24,29,24h-1c0-2.209-1.791-4-4-4  s-4,1.791-4,4h-8c0-2.209-1.791-4-4-4s-4,1.791-4,4H3.012C2.55,23.988,2,23.806,2,23v-4c0-0.812,0.521-1.44,1.025-2.048  C3.504,16.373,4,15.774,4,15c0-0.189,0.056-4.317,4-4.92V13c0,1.206,0.799,3,3,3h15.994C27.496,16.006,30,16.177,30,19V22.988z"/>
</svg>
