<?xml version="1.0" encoding="utf-8"?>
<!-- Generator: Adobe Illustrator 16.0.0, SVG Export Plug-In . SVG Version: 6.00 Build 0)  -->
<svg xmlns="http://www.w3.org/2000/svg" xmlns:xlink="http://www.w3.org/1999/xlink" version="1.1" id="Capa_1" x="0px" y="0px" width="32px" height="32px" viewBox="0 0 32 32" enable-background="new 0 0 32 32" xml:space="preserve">
<g>
	<path d="M29,14c-1.262,0-1.967-0.788-3.103-2.179C24.507,10.119,22.777,8,19,8h-1V6h-4v2H9c-2.977,0-4.208,2.611-5.022,4.338   C3.703,12.922,3.242,13.899,3,14c-2.201,0-3,1.794-3,3v6c0,2.201,1.794,3,3,3h1.555C5.248,27.19,6.523,28,8,28s2.752-0.81,3.445-2   h9.109c0.693,1.19,1.969,2,3.445,2s2.752-0.81,3.445-2H29c2.201,0,3-1.794,3-3v-6C32,14.799,30.206,14,29,14z M24.348,13.085   c0.247,0.303,0.504,0.613,0.775,0.915H18v-4h1C21.828,10,23.053,11.499,24.348,13.085z M16,10v4h-4v-4H16z M8,26   c-1.103,0-2-0.897-2-2s0.897-2,2-2s2,0.897,2,2S9.103,26,8,26z M24,26c-1.103,0-2-0.897-2-2s0.897-2,2-2s2,0.897,2,2   S25.103,26,24,26z M30,22.988C29.988,23.45,29.806,24,29,24h-1c0-2.209-1.791-4-4-4s-4,1.791-4,4h-8c0-2.209-1.791-4-4-4   s-4,1.791-4,4H3.012C2.55,23.988,2,23.806,2,23v-5.988C2.012,16.55,2.195,16,3,16c1.462,0,2.136-1.428,2.787-2.809   C6.695,11.263,7.41,10,9,10h1v6h18.988C29.45,16.012,30,16.195,30,17V22.988z"/>
	<rect x="10" y="18" width="4" height="2"/>
	<rect x="14" y="20" width="4" height="2"/>
	<rect x="18" y="18" width="4" height="2"/>
</g>
</svg>
