<?xml version="1.0" encoding="utf-8"?>
<!-- Generator: Adobe Illustrator 16.0.0, SVG Export Plug-In . SVG Version: 6.00 Build 0)  -->
<svg xmlns="http://www.w3.org/2000/svg" xmlns:xlink="http://www.w3.org/1999/xlink" version="1.1" id="Outlined_2_" x="0px" y="0px" width="32px" height="32px" viewBox="0 0 32 32" enable-background="new 0 0 32 32" xml:space="preserve">
<path d="M16,12c-2.206,0-4,1.794-4,4c0,2.206,1.794,4,4,4c2.206,0,4-1.794,4-4C20,13.794,18.206,12,16,12z M16,18  c-1.103,0-2-0.897-2-2c0-1.103,0.897-2,2-2c1.103,0,2,0.897,2,2C18,17.103,17.103,18,16,18z M25.899,6.101  C23.256,3.456,19.739,2,16,2C8.28,2,2,8.28,2,16s6.28,14,14,14c7.719,0,13.999-6.28,14-14C30.001,12.261,28.544,8.745,25.899,6.101z   M16,24c-4.411,0-8-3.589-8-8s3.589-8,8-8s8,3.589,8,8S20.411,24,16,24z M22.324,8.262C20.843,7.048,19.009,6.251,17,6.051V4.049  c2.496,0.205,4.834,1.173,6.744,2.793L22.324,8.262z M15,6.051c-2.008,0.2-3.842,0.998-5.324,2.211L8.259,6.845  C10.112,5.277,12.442,4.263,15,4.051V6.051z M8.262,9.676C7.048,11.158,6.251,12.992,6.051,15h-2  c0.212-2.558,1.226-4.888,2.794-6.741L8.262,9.676z M6.051,17c0.2,2.008,0.998,3.842,2.21,5.324L6.845,23.74  C5.277,21.889,4.263,19.558,4.051,17H6.051z M9.675,23.738c1.482,1.213,3.316,2.011,5.325,2.211v2  c-2.558-0.213-4.889-1.227-6.741-2.795L9.675,23.738z M17,25.949c2.008-0.2,3.842-0.998,5.323-2.211l1.417,1.416  c-1.853,1.569-4.183,2.582-6.74,2.795V25.949z M23.738,22.324c1.213-1.481,2.011-3.316,2.211-5.324h2  c-0.213,2.558-1.227,4.889-2.795,6.74L23.738,22.324z M27.951,15h-2.002c-0.2-2.008-0.998-3.842-2.211-5.324l1.42-1.42  C26.778,10.167,27.746,12.504,27.951,15z"/>
</svg>
