<?xml version="1.0" encoding="utf-8"?>
<!-- Generator: Adobe Illustrator 16.0.0, SVG Export Plug-In . SVG Version: 6.00 Build 0)  -->
<svg xmlns="http://www.w3.org/2000/svg" xmlns:xlink="http://www.w3.org/1999/xlink" version="1.1" id="Outlined_2_" x="0px" y="0px" width="32px" height="32px" viewBox="0 0 32 32" enable-background="new 0 0 32 32" xml:space="preserve">
<path d="M16,12c-2.206,0-4,1.794-4,4c0,2.206,1.794,4,4,4c2.206,0,4-1.794,4-4C20,13.794,18.206,12,16,12z M16,18  c-1.103,0-2-0.897-2-2c0-1.103,0.897-2,2-2c1.103,0,2,0.897,2,2C18,17.103,17.103,18,16,18z M25.899,6.101  C23.256,3.456,19.739,2,16,2C8.28,2,2,8.28,2,16s6.28,14,14,14c7.719,0,13.999-6.28,14-14C30.001,12.261,28.544,8.745,25.899,6.101z   M20.004,25.157v2.142c-0.646,0.229-1.313,0.404-2.004,0.521v-2.021C18.697,25.656,19.367,25.437,20.004,25.157z M16,24  c-4.411,0-8-3.589-8-8s3.589-8,8-8s8,3.589,8,8S20.411,24,16,24z M4.702,20.004h2.141c0.315,0.717,0.716,1.386,1.182,2.004H5.628  C5.26,21.374,4.95,20.704,4.702,20.004z M6,16.001c0,0.686,0.07,1.355,0.202,2.003H4.181C4.071,17.352,4,16.685,4,16.001H6z   M9.996,8.022V5.626c0.633-0.368,1.303-0.677,2.002-0.925v2.141C11.282,7.156,10.613,7.556,9.996,8.022z M23.978,9.996h2.403  c0.371,0.639,0.679,1.308,0.924,2.002L25.159,12C24.845,11.283,24.444,10.614,23.978,9.996z M25.799,14l2.023-0.001  C27.932,14.654,28,15.321,28,16h-2C26,15.315,25.93,14.646,25.799,14z M24.922,7.996h-2.953c-1.157-0.866-2.501-1.495-3.968-1.794  V4.178c2.443,0.408,4.697,1.55,6.484,3.337C24.64,7.669,24.777,7.835,24.922,7.996z M16.001,4v2H16c-0.686,0-1.355,0.07-2.002,0.202  V4.181C14.65,4.071,15.316,4,16.001,4L16.001,4z M7.996,7.085v2.946c-0.866,1.158-1.496,2.503-1.795,3.97H4.181  C4.641,11.272,6.021,8.859,7.996,7.085z M7.088,24.008h2.948c0.606,0.453,1.261,0.843,1.962,1.15v2.141  C10.094,26.623,8.414,25.481,7.088,24.008z M13.998,27.819v-2.021C14.645,25.93,15.314,26,16,26v2  C15.316,28,14.65,27.93,13.998,27.819z M22.004,26.374v-2.396c1.912-1.442,3.299-3.547,3.795-5.978h2.021  C27.215,21.576,25.03,24.615,22.004,26.374z"/>
</svg>
