<?xml version="1.0" encoding="utf-8"?>
<!-- Generator: Adobe Illustrator 16.0.0, SVG Export Plug-In . SVG Version: 6.00 Build 0)  -->
<svg xmlns="http://www.w3.org/2000/svg" xmlns:xlink="http://www.w3.org/1999/xlink" version="1.1" id="Outlined_2_" x="0px" y="0px" width="32px" height="32px" viewBox="0 0 32 32" enable-background="new 0 0 32 32" xml:space="preserve">
<path d="M16,30C8.28,30,2,23.72,2,16S8.28,2,16,2s14,6.28,14,14S23.72,30,16,30z M16,4C9.383,4,4,9.383,4,16c0,6.617,5.383,12,12,12  c6.617,0,12-5.383,12-12C28,9.383,22.617,4,16,4z M16,26c-5.514,0-10-4.486-10-10c0-5.514,4.486-10,10-10c5.514,0,10,4.486,10,10  C26,21.514,21.514,26,16,26z M16,8c-4.411,0-8,3.589-8,8s3.589,8,8,8s8-3.589,8-8S20.411,8,16,8z M16,20c-2.206,0-4-1.794-4-4  c0-2.206,1.794-4,4-4c2.206,0,4,1.794,4,4C20,18.206,18.206,20,16,20z M16,14c-1.103,0-2,0.897-2,2c0,1.103,0.897,2,2,2  c1.103,0,2-0.897,2-2C18,14.897,17.103,14,16,14z"/>
</svg>
