<?xml version="1.0" encoding="utf-8"?>
<!-- Generator: Adobe Illustrator 16.0.0, SVG Export Plug-In . SVG Version: 6.00 Build 0)  -->
<svg xmlns="http://www.w3.org/2000/svg" xmlns:xlink="http://www.w3.org/1999/xlink" version="1.1" id="Capa_1" x="0px" y="0px" width="32px" height="32px" viewBox="0 0 32 32" enable-background="new 0 0 32 32" xml:space="preserve">
<path d="M27,8h-7V6h-2v4c-1.543,0-2.711,0.418-3.593,1.05L5.614,4.21c-0.301-0.234-0.71-0.276-1.053-0.109C4.218,4.27,4,4.618,4,5  v5.988C3.988,11.45,3.805,12,3,12s-0.988-0.55-1-1c0-0.552-0.448-1-1-1s-1,0.448-1,1c0,1.206,0.799,3,3,3s3-1.794,3-3V7.044  l7.029,5.468C12.274,13.691,12,15.042,12,16H3c-2.201,0-3,1.794-3,3v4c0,2.201,1.794,3,3,3h1.555C5.248,27.19,6.523,28,8,28  s2.752-0.81,3.445-2h9.109c0.693,1.19,1.969,2,3.445,2s2.752-0.81,3.445-2H29c2.201,0,3-1.794,3-3v-6C32,16.241,29.139,8,27,8z   M28.894,14H25c-0.806,0-0.988-0.55-1-1v-3h2.75C27.256,10.53,28.164,12.338,28.894,14z M18,12v4h-4C14,15.837,14.045,12,18,12z   M8,26c-1.103,0-2-0.897-2-2s0.897-2,2-2s2,0.897,2,2S9.103,26,8,26z M24,26c-1.103,0-2-0.897-2-2s0.897-2,2-2s2,0.897,2,2  S25.103,26,24,26z M30,22.988C29.988,23.45,29.806,24,29,24h-1c0-2.209-1.791-4-4-4s-4,1.791-4,4h-8c0-2.209-1.791-4-4-4  s-4,1.791-4,4H3.012C2.55,23.988,2,23.806,2,23v-3.988C2.012,18.55,2.195,18,3,18h15v2h2V10h2v3c0,1.206,0.799,3,3,3h4.705  c0.167,0.461,0.277,0.822,0.295,1V22.988z"/>
</svg>
