<?xml version="1.0" encoding="utf-8"?>
<!-- Generator: Adobe Illustrator 16.0.0, SVG Export Plug-In . SVG Version: 6.00 Build 0)  -->
<svg xmlns="http://www.w3.org/2000/svg" xmlns:xlink="http://www.w3.org/1999/xlink" version="1.1" id="Capa_1" x="0px" y="0px" width="32px" height="32px" viewBox="0 0 32 32" enable-background="new 0 0 32 32" xml:space="preserve">
<path d="M32,12.153l-4-0.667V8h2V6h-4v5.153l-2-0.333V8h-2v2.486l-2.242-0.374L18.387,6H20V4H8v6H0v4.914l1.615,1.615  C0.607,17.742,0,19.3,0,21c0,3.865,3.135,7,7,7c1.906,0,3.631-0.765,4.894-2h11.128c0.913,1.208,2.347,2,3.978,2  c2.762,0,5-2.238,5-5c0-1.257-0.479-2.392-1.245-3.271L32,17.236V12.153z M7,26c-2.757,0-5-2.243-5-5s2.243-5,5-5s5,2.243,5,5  S9.757,26,7,26z M13.317,24C13.75,23.09,14,22.075,14,21c0-3.865-3.135-7-7-7c-1.443,0-2.785,0.438-3.899,1.187L2,14.086V12h6h2V6  h6.279L18,11.161V14h-4v2h6v-3.82l10,1.667v2.917l-0.865,1.731C28.485,18.187,27.768,18,27,18c-2.762,0-5,2.238-5,5  c0,0.343,0.035,0.677,0.101,1H13.317z M27,26c-1.654,0-3-1.346-3-3s1.346-3,3-3s3,1.346,3,3S28.654,26,27,26z"/>
</svg>
