<?xml version="1.0" encoding="utf-8"?>
<!-- Generator: Adobe Illustrator 16.0.0, SVG Export Plug-In . SVG Version: 6.00 Build 0)  -->
<svg xmlns="http://www.w3.org/2000/svg" xmlns:xlink="http://www.w3.org/1999/xlink" version="1.1" id="Outlined_2_" x="0px" y="0px" width="32px" height="32px" viewBox="0 0 32 32" enable-background="new 0 0 32 32" xml:space="preserve">
<path d="M22,0H8C6,0,6,2,6,2v26c0,2,2,2,2,2h6v2h2v-2h6c2,0,2-2,2-2V2C24,0,22,0,22,0z M22,28H8V2h14V28z M18,7c0,1.66-1.34,3-3,3  s-3-1.34-3-3s1.34-3,3-3S18,5.34,18,7z M18,15c0,1.66-1.34,3-3,3s-3-1.34-3-3s1.34-3,3-3S18,13.34,18,15z M18,23c0,1.66-1.34,3-3,3  s-3-1.34-3-3s1.34-3,3-3S18,21.34,18,23z"/>
</svg>
