<?xml version="1.0" encoding="utf-8"?>
<!-- Generator: Adobe Illustrator 16.0.0, SVG Export Plug-In . SVG Version: 6.00 Build 0)  -->
<svg xmlns="http://www.w3.org/2000/svg" xmlns:xlink="http://www.w3.org/1999/xlink" version="1.1" id="Outlined_2_" x="0px" y="0px" width="32px" height="32px" viewBox="0 0 32 32" enable-background="new 0 0 32 32" xml:space="preserve">
<path d="M15,20c-1.66,0-3,1.34-3,3s1.34,3,3,3s3-1.34,3-3S16.66,20,15,20z M15,24.5c-0.83,0-1.5-0.67-1.5-1.5s0.67-1.5,1.5-1.5  s1.5,0.67,1.5,1.5S15.83,24.5,15,24.5z M15,20c-1.66,0-3,1.34-3,3s1.34,3,3,3s3-1.34,3-3S16.66,20,15,20z M15,24.5  c-0.83,0-1.5-0.67-1.5-1.5s0.67-1.5,1.5-1.5s1.5,0.67,1.5,1.5S15.83,24.5,15,24.5z M15,20c-1.66,0-3,1.34-3,3s1.34,3,3,3s3-1.34,3-3  S16.66,20,15,20z M15,24.5c-0.83,0-1.5-0.67-1.5-1.5s0.67-1.5,1.5-1.5s1.5,0.67,1.5,1.5S15.83,24.5,15,24.5z M15,20  c-1.66,0-3,1.34-3,3s1.34,3,3,3s3-1.34,3-3S16.66,20,15,20z M15,24.5c-0.83,0-1.5-0.67-1.5-1.5s0.67-1.5,1.5-1.5s1.5,0.67,1.5,1.5  S15.83,24.5,15,24.5z M15,12c-1.66,0-3,1.34-3,3s1.34,3,3,3s3-1.34,3-3S16.66,12,15,12z M15,18c1.66,0,3-1.34,3-3s-1.34-3-3-3  s-3,1.34-3,3S13.34,18,15,18z M15,20c-1.66,0-3,1.34-3,3s1.34,3,3,3s3-1.34,3-3S16.66,20,15,20z M15,24.5c-0.83,0-1.5-0.67-1.5-1.5  s0.67-1.5,1.5-1.5s1.5,0.67,1.5,1.5S15.83,24.5,15,24.5z M22,0H8C6,0,6,2,6,2v26c0,2,2,2,2,2h6v2h2v-2h6c2,0,2-2,2-2V2  C24,0,22,0,22,0z M22,28H8V2h14V28z M15,18c1.66,0,3-1.34,3-3s-1.34-3-3-3s-3,1.34-3,3S13.34,18,15,18z M15,26c1.66,0,3-1.34,3-3  s-1.34-3-3-3s-3,1.34-3,3S13.34,26,15,26z M15,21.5c0.83,0,1.5,0.67,1.5,1.5s-0.67,1.5-1.5,1.5s-1.5-0.67-1.5-1.5  S14.17,21.5,15,21.5z M15,20c-1.66,0-3,1.34-3,3s1.34,3,3,3s3-1.34,3-3S16.66,20,15,20z M15,24.5c-0.83,0-1.5-0.67-1.5-1.5  s0.67-1.5,1.5-1.5s1.5,0.67,1.5,1.5S15.83,24.5,15,24.5z M15,12c-1.66,0-3,1.34-3,3s1.34,3,3,3s3-1.34,3-3S16.66,12,15,12z M15,20  c-1.66,0-3,1.34-3,3s1.34,3,3,3s3-1.34,3-3S16.66,20,15,20z M15,24.5c-0.83,0-1.5-0.67-1.5-1.5s0.67-1.5,1.5-1.5s1.5,0.67,1.5,1.5  S15.83,24.5,15,24.5z M15,20c-1.66,0-3,1.34-3,3s1.34,3,3,3s3-1.34,3-3S16.66,20,15,20z M15,24.5c-0.83,0-1.5-0.67-1.5-1.5  s0.67-1.5,1.5-1.5s1.5,0.67,1.5,1.5S15.83,24.5,15,24.5z M15,12c-1.66,0-3,1.34-3,3s1.34,3,3,3s3-1.34,3-3S16.66,12,15,12z M18,7  c0,1.66-1.34,3-3,3s-3-1.34-3-3s1.34-3,3-3S18,5.34,18,7z"/>
</svg>
