<?xml version="1.0" encoding="utf-8"?>
<!-- Generator: Adobe Illustrator 16.0.0, SVG Export Plug-In . SVG Version: 6.00 Build 0)  -->
<svg xmlns="http://www.w3.org/2000/svg" xmlns:xlink="http://www.w3.org/1999/xlink" version="1.1" id="Outlined_2_" x="0px" y="0px" width="32px" height="32px" viewBox="0 0 32 32" enable-background="new 0 0 32 32" xml:space="preserve">
<path d="M2,2v13.54l8,5.33v-2.4l-6-4.01V4h16v2h2V2H2z M27,12c-0.43,0-0.79,0.08-1.12,0.2C25.6,11.13,24.75,10,23,10  c-0.43,0-0.79,0.08-1.12,0.2C21.6,9.13,20.75,8,19,8s-2.61,1.13-2.89,2.2C15.79,10.08,15.43,10,15,10c-2.2,0-3,1.81-3,3.02v12.73  c-1.16-0.35-3.02-1.04-4.63-1.68L7.19,24H7c-1.21,0-3,0.8-3,3c0,1.06,1.46,2.97,3.36,5h2.79C7.87,29.71,6.11,27.68,6,27  c0-0.71,0.43-0.94,0.84-0.99C8.5,26.67,11.97,28,13,28h1V13c0-0.3,0.1-1,1-1c0.78,0,0.98,0.56,1,1v11h10v-9c0.01-0.46,0.2-1,1-1  c0.81,0,0.99,0.55,1,1v17h2V15C30,13.79,29.21,12,27,12z M20,22h-2V11c0-0.3,0.09-1,1-1c0.8,0,0.99,0.55,1,1V22z M24,22h-2v-8.99  c0.01-0.46,0.19-1.01,1-1.01s0.99,0.55,1,1V22z"/>
</svg>
