<?xml version="1.0" encoding="utf-8"?>
<!-- Generator: Adobe Illustrator 16.0.0, SVG Export Plug-In . SVG Version: 6.00 Build 0)  -->
<svg xmlns="http://www.w3.org/2000/svg" xmlns:xlink="http://www.w3.org/1999/xlink" version="1.1" id="Outlined_2_" x="0px" y="0px" width="32px" height="32px" viewBox="0 0 32 32" enable-background="new 0 0 32 32" xml:space="preserve">
<path d="M25.51,22.66C25.84,22.12,26,21.51,26,21V7c0-3.96-3.27-5-5-5H9C5.05,2,4,5.27,4,7v14c0,0.7,0.2,1.24,0.48,1.68l-4.35,7.83  l1.74,0.971L3.81,28h22.38l1.939,3.49l1.74-0.98L25.51,22.66z M16,4h4.99C21.49,4.01,24,4.18,24,7v5h-8V4z M6,7.01  C6.01,6.5,6.18,4,9,4h5v8H6V7.01z M6,14h18v6.99C23.99,21.45,23.8,22,23,22h-5v-2h-6v2H7.01C6.55,21.99,6,21.81,6,21V14z M4.92,26  l1.11-2h17.93l1.12,2H4.92z M11.5,18c0,0.828-0.672,1.5-1.5,1.5S8.5,18.828,8.5,18s0.672-1.5,1.5-1.5S11.5,17.172,11.5,18z M18.5,18  c0-0.828,0.672-1.5,1.5-1.5s1.5,0.672,1.5,1.5s-0.672,1.5-1.5,1.5S18.5,18.828,18.5,18z"/>
</svg>
