<?xml version="1.0" encoding="utf-8"?>
<!-- Generator: Adobe Illustrator 16.0.0, SVG Export Plug-In . SVG Version: 6.00 Build 0)  -->
<svg xmlns="http://www.w3.org/2000/svg" xmlns:xlink="http://www.w3.org/1999/xlink" version="1.1" id="Capa_1" x="0px" y="0px" width="32px" height="32px" viewBox="0 0 32 32" enable-background="new 0 0 32 32" xml:space="preserve">
<g>
	<path d="M19,6H0v2h4v4H0v2h9c2.2,0,3-1.79,3-3V8h2v3c0,1.21,0.8,3,3,3h9.56C28.61,17.06,30,20.28,30,21c0,0.81-0.55,0.99-1,1H0v2   h29c1.21,0,3-0.8,3-3C32,18.32,25.68,6,19,6z M10,10.99C9.99,11.45,9.81,12,9,12H6V8h4V10.99z M17,12c-0.81,0-0.99-0.55-1-1V8h3   c2.11,0,4.25,1.77,6.08,4H17z"/>
	<path d="M16,17c0,0.55-0.45,1-1,1H0v-2h15C15.55,16,16,16.45,16,17z"/>
	<path d="M32,27c0,0.55-0.45,1-1,1H0v-2h31C31.55,26,32,26.45,32,27z"/>
</g>
</svg>
