<?xml version="1.0" encoding="utf-8"?>
<!-- Generator: Adobe Illustrator 16.0.0, SVG Export Plug-In . SVG Version: 6.00 Build 0)  -->
<svg xmlns="http://www.w3.org/2000/svg" xmlns:xlink="http://www.w3.org/1999/xlink" version="1.1" id="Outlined_2_" x="0px" y="0px" width="32px" height="32px" viewBox="0 0 32 32" enable-background="new 0 0 32 32" xml:space="preserve">
<path d="M0,9v14c0,2.201,1.794,3,3,3h1.551c0.692,1.194,1.97,2.007,3.449,2.007s2.757-0.813,3.449-2.007h1.097  c0.691,1.194,1.97,2.007,3.448,2.007S18.75,27.194,19.441,26H30v-4h-2v2h-4V9c0-2.201-1.794-3-3-3H3C0.799,6,0,7.794,0,9z   M13.994,24.007c0-1.104,0.898-2.001,2-2.001s1.999,0.897,1.999,2.001s-0.897,2-1.999,2S13.994,25.11,13.994,24.007z M6,24.007  c0-1.104,0.897-2.001,2-2.001s2,0.897,2,2.001s-0.897,2-2,2S6,25.11,6,24.007z M2,18h20v6h-2.008  c-0.004-2.207-1.793-3.995-3.998-3.995c-2.198,0-3.981,1.776-3.997,3.973c-0.016-2.196-1.798-3.973-3.997-3.973  c-2.207,0-3.995,1.788-3.999,3.995H3c-0.45-0.012-1-0.194-1-1V18z M2,16V9c0.012-0.45,0.194-1,1-1h18c0.449,0.012,1,0.195,1,1v7H2z"/>
</svg>
