<?xml version="1.0" encoding="utf-8"?>
<!-- Generator: Adobe Illustrator 16.0.0, SVG Export Plug-In . SVG Version: 6.00 Build 0)  -->
<svg xmlns="http://www.w3.org/2000/svg" xmlns:xlink="http://www.w3.org/1999/xlink" version="1.1" id="Capa_1" x="0px" y="0px" width="32px" height="32px" viewBox="0 0 32 32" enable-background="new 0 0 32 32" xml:space="preserve">
<path d="M32,2V0H0v2h15.131l-2.667,4H3C0.799,6,0,7.794,0,9v14c0,2.201,1.794,3,3,3h1.555C5.248,27.19,6.523,28,8,28  s2.752-0.81,3.445-2h9.109c0.693,1.19,1.969,2,3.445,2s2.752-0.81,3.445-2H29c2.201,0,3-1.794,3-3V9c0-2.201-1.794-3-3-3H18.868  l2.667-4H32z M2,12h6v3c0,0.805-0.55,0.988-1,1H2V12z M8,26c-1.103,0-2-0.897-2-2s0.897-2,2-2s2,0.897,2,2S9.103,26,8,26z M24,26  c-1.103,0-2-0.897-2-2s0.897-2,2-2s2,0.897,2,2S25.103,26,24,26z M29,24h-1c0-2.209-1.791-4-4-4s-4,1.791-4,4h-8  c0-2.209-1.791-4-4-4s-4,1.791-4,4H3.012C2.55,23.988,2,23.806,2,23v-5h5c1.206,0,3-0.799,3-3v-3h12v3c0,2.201,1.794,3,3,3h5v4.988  C29.988,23.45,29.806,24,29,24z M30,16h-4.988C24.55,15.988,24,15.805,24,15v-3h6V16z M30,9v1H2V9.012C2.012,8.55,2.195,8,3,8  h25.988C29.45,8.012,30,8.195,30,9z M16.465,6h-1.596l2.667-4h1.597L16.465,6z"/>
</svg>
