<?xml version="1.0" encoding="utf-8"?>
<!-- Generator: Adobe Illustrator 16.0.0, SVG Export Plug-In . SVG Version: 6.00 Build 0)  -->
<svg xmlns="http://www.w3.org/2000/svg" xmlns:xlink="http://www.w3.org/1999/xlink" version="1.1" id="Outlined_2_" x="0px" y="0px" width="32px" height="32px" viewBox="0 0 32 32" enable-background="new 0 0 32 32" xml:space="preserve">
<path d="M27,4c-1.65,0-3,1.35-3,3c0,1.3,0.84,2.4,2,2.82V16h-6V9.82C21.16,9.4,22,8.3,22,7c0-1.65-1.35-3-3-3c-1.66,0-3,1.35-3,3  c0,1.3,0.84,2.4,2,2.82V16h-6V9.82C13.16,9.4,14,8.3,14,7c0-1.65-1.35-3-3-3S8,5.35,8,7c0,1.3,0.84,2.4,2,2.82V16H4V9.82  C5.16,9.4,6,8.3,6,7c0-1.65-1.35-3-3-3S0,5.35,0,7c0,1.3,0.84,2.4,2,2.82V18h8v6.19C8.84,24.6,8,25.7,8,27c0,1.66,1.35,3,3,3  s3-1.34,3-3c0-1.3-0.84-2.4-2-2.81V18h6v6.19C16.84,24.6,16,25.7,16,27c0,1.66,1.34,3,3,3c1.65,0,3-1.34,3-3c0-1.3-0.84-2.4-2-2.81  V18h8V9.82C29.16,9.4,30,8.3,30,7C30,5.35,28.66,4,27,4z M1.5,7c0-0.83,0.67-1.5,1.5-1.5S4.5,6.17,4.5,7S3.83,8.5,3,8.5  S1.5,7.83,1.5,7z M12.5,27c0,0.83-0.67,1.5-1.5,1.5S9.5,27.83,9.5,27s0.67-1.5,1.5-1.5S12.5,26.17,12.5,27z M11,8.5  c-0.83,0-1.5-0.67-1.5-1.5s0.67-1.5,1.5-1.5s1.5,0.67,1.5,1.5S11.83,8.5,11,8.5z M20.5,27c0,0.83-0.67,1.5-1.5,1.5  s-1.5-0.67-1.5-1.5s0.67-1.5,1.5-1.5S20.5,26.17,20.5,27z M19,8.5c-0.83,0-1.5-0.67-1.5-1.5s0.67-1.5,1.5-1.5s1.5,0.67,1.5,1.5  S19.83,8.5,19,8.5z M27,8.5c-0.83,0-1.5-0.67-1.5-1.5s0.67-1.5,1.5-1.5s1.5,0.67,1.5,1.5S27.83,8.5,27,8.5z"/>
</svg>
