<?xml version="1.0" encoding="utf-8"?>
<!-- Generator: Adobe Illustrator 16.0.0, SVG Export Plug-In . SVG Version: 6.00 Build 0)  -->
<svg xmlns="http://www.w3.org/2000/svg" xmlns:xlink="http://www.w3.org/1999/xlink" version="1.1" id="Outlined_2_" x="0px" y="0px" width="32px" height="32px" viewBox="0 0 32 32" enable-background="new 0 0 32 32" xml:space="preserve">
<path d="M18,4v2h-4v4h4v2h-4v4h4v2h-4v4h4v2h-4v4h4v2H8v-2h4v-4H8v-2h4v-4H8v-2h4v-4H8v-2h4V6H8V4H18z M20,30h4v-2h-4V30z M20,24h4  v-2h-4V24z M20,18h4v-2h-4V18z M20,12h4v-2h-4V12z M20,4v2h4V4H20z"/>
</svg>
