<?xml version="1.0" encoding="utf-8"?>
<!-- Generator: Adobe Illustrator 16.0.0, SVG Export Plug-In . SVG Version: 6.00 Build 0)  -->
<svg xmlns="http://www.w3.org/2000/svg" xmlns:xlink="http://www.w3.org/1999/xlink" version="1.1" id="Outlined_2_" x="0px" y="0px" width="32px" height="32px" viewBox="0 0 32 32" enable-background="new 0 0 32 32" xml:space="preserve">
<path d="M32,28H20v-9c-0.006-0.299-0.166-3-4-3c-3.955,0-4,2.878-4,3v9H0V18C0,9.178,7.178,2,16,2s16,7.178,16,16V28z M22,26h8v-8  c0-7.72-6.28-14-14-14S2,10.28,2,18v8h8v-7c0-1.729,1.254-5,6-5s6,3.271,6,5V26z"/>
</svg>
