<?xml version="1.0" encoding="utf-8"?>
<!-- Generator: Adobe Illustrator 16.0.0, SVG Export Plug-In . SVG Version: 6.00 Build 0)  -->
<svg xmlns="http://www.w3.org/2000/svg" xmlns:xlink="http://www.w3.org/1999/xlink" version="1.1" id="Capa_1" x="0px" y="0px" width="32px" height="32px" viewBox="0 0 32 32" enable-background="new 0 0 32 32" xml:space="preserve">
<path d="M26,12.151V10h1c0.553,0,1-0.448,1-1s-0.447-1-1-1h-4c-0.553,0-1,0.448-1,1s0.447,1,1,1h1v1.419  c-1.454-0.494-2.867-0.897-4-1.195V5c0-3.955-2.616-5-4-5c-1.383,0-4,1.045-4,5v5.224c-1.133,0.297-2.545,0.701-4,1.194V10h1  c0.552,0,1-0.448,1-1S9.552,8,9,8H5C4.448,8,4,8.448,4,9s0.448,1,1,1h1v2.151C2.837,13.41,0,15.076,0,17c0,2.201,1.794,3,3,3h9v4  l-2,1v7l6-2l6,2v-7l-2-1v-4h9c1.206,0,3-0.799,3-3C32,15.076,29.162,13.41,26,12.151z M29,18H18v7.23l2,1v2.989  C19.33,29,16.67,28.24,16,28c-0.67,0.24-3.33,1-4,1.22V26.23l2-1V18H3.012C2.55,17.988,2,17.806,2,17  c0-1.16,5.358-3.558,11.243-5.03l-0.004-0.018C13.672,11.843,14,11.468,14,11V5c0-2.799,1.678-2.99,2-3c0.082,0,2,0.034,2,3v6  c0,0.468,0.328,0.843,0.763,0.952l-0.005,0.018C24.642,13.441,30,15.838,30,17C30,17.806,29.45,17.988,29,18z"/>
</svg>
