<?xml version="1.0" encoding="utf-8"?>
<!-- Generator: Adobe Illustrator 16.0.0, SVG Export Plug-In . SVG Version: 6.00 Build 0)  -->
<svg xmlns="http://www.w3.org/2000/svg" xmlns:xlink="http://www.w3.org/1999/xlink" version="1.1" id="Outlined_2_" x="0px" y="0px" width="32px" height="32px" viewBox="0 0 32 32" enable-background="new 0 0 32 32" xml:space="preserve">
<path d="M31.7,24.27l-5.7-7.6V11c0-0.07-0.11-7-10-7C6.109,4,6,10.93,6,11v5.67L0.2,24.4c-0.229,0.3-0.261,0.71-0.091,1.05  C0.27,25.79,0.62,26,1,26h3v2h2v-2h4v2h2v-2h6v2h2v-2h6v2h2v-2h3c0.01,0,0.02,0,0.02,0c0.551,0,1-0.45,1-1  C32.02,24.71,31.9,24.45,31.7,24.27z M8,11.01C8,10.8,8.18,6,16,6s8,4.8,8,5v5H8V11.01z M3,24l4.5-6h17l4.5,6H3z M20,20v2h-8v-2H20z  "/>
</svg>
