<?xml version="1.0" encoding="utf-8"?>
<!-- Generator: Adobe Illustrator 16.0.0, SVG Export Plug-In . SVG Version: 6.00 Build 0)  -->
<svg xmlns="http://www.w3.org/2000/svg" xmlns:xlink="http://www.w3.org/1999/xlink" version="1.1" id="Capa_1" x="0px" y="0px" width="32px" height="32px" viewBox="0 0 32 32" enable-background="new 0 0 32 32" xml:space="preserve">
<path d="M30,18v-4c0-1.299-1.03-2-2-2h-7c-0.709,0-1.288,0.176-1.8,0.438L18.388,10H20V8H9c-3.284,0-4.558,2.253-4.897,4.008  C4.067,12.007,4.036,12,4,12H2c-1.299,0-2,1.03-2,2v9c0,2.201,1.794,3,3,3h1.555C5.248,27.19,6.523,28,8,28s2.752-0.81,3.445-2  h9.109c0.693,1.19,1.969,2,3.445,2s2.752-0.81,3.445-2H29c1.206,0,3-0.799,3-3v-3C32,19.03,31.299,18,30,18z M9,10h7.279  l1.229,3.684C16.25,14.781,14.793,16,11,16c-1.687,0-2.437-0.866-3.306-1.87c-0.475-0.549-0.991-1.131-1.661-1.551  C6.148,11.702,6.671,10,9,10z M8,26c-1.103,0-2-0.897-2-2s0.897-2,2-2s2,0.897,2,2S9.103,26,8,26z M24,26c-1.103,0-2-0.897-2-2  s0.897-2,2-2s2,0.897,2,2S25.103,26,24,26z M30,23c0,0.806-0.55,0.988-1,1h-1c0-2.209-1.791-4-4-4s-4,1.791-4,4h-8  c0-2.209-1.791-4-4-4s-4,1.791-4,4H3.012C2.55,23.988,2,23.806,2,23v-9h2c0.894,0,1.363,0.494,2.182,1.439  C7.17,16.581,8.399,18,11,18c4.605,0,6.502-1.655,7.887-2.864C19.766,14.369,20.223,14,21,14h7v4h-2v2h4V23z"/>
</svg>
