<?xml version="1.0" encoding="utf-8"?>
<!-- Generator: Adobe Illustrator 16.0.0, SVG Export Plug-In . SVG Version: 6.00 Build 0)  -->
<svg xmlns="http://www.w3.org/2000/svg" xmlns:xlink="http://www.w3.org/1999/xlink" version="1.1" id="Outlined_2_" x="0px" y="0px" width="32px" height="32px" viewBox="0 0 32 32" enable-background="new 0 0 32 32" xml:space="preserve">
<path d="M21.81,3.63c-2.13-1.08-4.42-1.64-6.8-1.64c-5.68,0-10.8,3.14-13.37,8.2c-3.76,7.37-0.82,16.42,6.55,20.17  c2.14,1.09,4.42,1.64,6.8,1.64c2.84,0,5.54-0.78,7.85-2.2c2.32-1.42,4.24-3.46,5.53-5.99C32.12,16.44,29.18,7.39,21.81,3.63z   M27.94,16H17.81c-0.029-0.1-0.069-0.2-0.109-0.29l7.17-7.17C26.67,10.64,27.73,13.27,27.94,16z M16,4.05  c1.7,0.13,3.35,0.57,4.9,1.37c0.939,0.47,1.779,1.06,2.55,1.71l-7.17,7.17c-0.09-0.04-0.181-0.08-0.28-0.12V4.05z M14,4.04v10.14  c-0.1,0.04-0.19,0.08-0.29,0.12L6.54,7.13C8.61,5.35,11.2,4.25,14,4.04z M3.42,11.1c0.47-0.94,1.05-1.79,1.71-2.56l7.17,7.17  c-0.04,0.1-0.08,0.19-0.12,0.29H2.04C2.17,14.34,2.61,12.67,3.42,11.1z M2.06,18h10.12c0.04,0.1,0.08,0.19,0.12,0.29l-7.17,7.16  C3.34,23.35,2.28,20.73,2.06,18z M14,29.95c-1.7-0.13-3.35-0.58-4.9-1.37c-0.94-0.48-1.78-1.061-2.55-1.72l7.17-7.16  c0.09,0.04,0.18,0.08,0.28,0.12V29.95z M13.5,17c0-0.83,0.67-1.5,1.5-1.5s1.5,0.67,1.5,1.5s-0.67,1.5-1.5,1.5S13.5,17.83,13.5,17z   M16,29.96V19.81c0.1-0.029,0.2-0.069,0.29-0.109l7.17,7.17C21.4,28.65,18.8,29.75,16,29.96z M26.58,22.9  c-0.47,0.93-1.05,1.779-1.71,2.55l-7.17-7.17c0.05-0.09,0.08-0.19,0.12-0.28h10.14C27.83,19.66,27.39,21.32,26.58,22.9z"/>
</svg>
