<?xml version="1.0" encoding="utf-8"?>
<!-- Generator: Adobe Illustrator 16.0.0, SVG Export Plug-In . SVG Version: 6.00 Build 0)  -->
<svg xmlns="http://www.w3.org/2000/svg" xmlns:xlink="http://www.w3.org/1999/xlink" version="1.1" id="Capa_1" x="0px" y="0px" width="32px" height="32px" viewBox="0 0 32 32" enable-background="new 0 0 32 32" xml:space="preserve">
<path d="M30,28v-8h-6v-5c0-3.955-3.271-5-5-5h-9V3c0-2.201-1.794-3-3-3H2v2h4.988C7.45,2.012,8,2.195,8,3v11.059  C3.5,14.557,0,18.367,0,23c0,4.971,4.029,9,9,9s9-4.029,9-9c0-0.338-0.022-0.671-0.059-1H22v4.185c-1.161,0.414-2,1.514-2,2.815  c0,1.654,1.346,3,3,3s3-1.346,3-3c0-1.302-0.839-2.401-2-2.815V22h4v8h4v-2H30z M23,30c-0.553,0-1-0.447-1-1s0.447-1,1-1  s1,0.447,1,1S23.553,30,23,30z M10,16.08c2.353,0.339,4.326,1.848,5.315,3.92H11c-0.805,0-0.988-0.55-1-1V16.08z M16,23  c0,3.859-3.14,7-7,7s-7-3.141-7-7c0-3.52,2.613-6.432,6-6.92V19c0,1.206,0.799,3,3,3h4.92C15.967,22.327,16,22.659,16,23z   M17.477,20c-1.129-3.191-4-5.557-7.477-5.941V12h8.994C19.496,12.006,22,12.177,22,15v5H17.477z"/>
</svg>
