<?xml version="1.0" encoding="utf-8"?>
<!-- Generator: Adobe Illustrator 16.0.0, SVG Export Plug-In . SVG Version: 6.00 Build 0)  -->
<svg xmlns="http://www.w3.org/2000/svg" xmlns:xlink="http://www.w3.org/1999/xlink" version="1.1" id="Outlined_2_" x="0px" y="0px" width="32px" height="32px" viewBox="0 0 32 32" enable-background="new 0 0 32 32" xml:space="preserve">
<path d="M27.14,8.18c-2.359-3.24-5.84-5.37-9.79-6c-0.779-0.12-1.58-0.19-2.359-0.19c-7.42,0-13.64,5.33-14.81,12.66  c-0.62,3.96,0.33,7.92,2.68,11.17c2.36,3.239,5.84,5.37,9.79,5.989C13.44,31.94,14.23,32,15.02,32c7.41,0,13.63-5.32,14.79-12.66  C30.44,15.39,29.49,11.42,27.14,8.18z M17.9,4.34c3.06,0.69,5.75,2.44,7.619,5.01c0.99,1.38,1.7,2.9,2.101,4.5l-11.21,0.52  c-0.36-0.19-0.75-0.31-1.18-0.35L17.9,4.34z M16.5,17c0,0.83-0.67,1.5-1.5,1.5s-1.5-0.67-1.5-1.5s0.67-1.5,1.5-1.5  S16.5,16.17,16.5,17z M14.99,3.99c0.3,0,0.61,0.02,0.92,0.04l-2.97,10.8c-0.3,0.29-0.55,0.63-0.71,1.02l-8.39-5.53  C6.12,6.49,10.27,3.99,14.99,3.99z M4.48,24.64C2.44,21.83,1.61,18.4,2.16,14.97c0.16-1,0.43-1.94,0.79-2.84l9.35,6.16  c0.19,0.38,0.44,0.71,0.76,0.979L5.21,25.54C4.96,25.25,4.71,24.95,4.48,24.64z M15.02,30c-0.68,0-1.37-0.06-2.05-0.16  c-2.37-0.38-4.53-1.39-6.32-2.89l8.75-6.99c0.42-0.06,0.81-0.2,1.16-0.41l3.551,9.41C18.54,29.62,16.82,30,15.02,30z M27.84,19.03  c-0.609,3.859-2.85,7.069-5.95,9L17.95,17.55C17.98,17.37,18,17.19,18,17c0-0.24-0.04-0.47-0.09-0.7l10.03-0.46  C28.03,16.89,28.01,17.96,27.84,19.03z"/>
</svg>
