<?xml version="1.0" encoding="utf-8"?>
<!-- Generator: Adobe Illustrator 16.0.0, SVG Export Plug-In . SVG Version: 6.00 Build 0)  -->
<svg xmlns="http://www.w3.org/2000/svg" xmlns:xlink="http://www.w3.org/1999/xlink" version="1.1" id="Outlined_2_" x="0px" y="0px" width="32px" height="32px" viewBox="0 0 32 32" enable-background="new 0 0 32 32" xml:space="preserve">
<path d="M29.27,12.36c-2.02-6.2-7.75-10.37-14.26-10.37c-1.58,0-3.14,0.25-4.64,0.74C2.5,5.29-1.82,13.77,0.74,21.63  C2.75,27.84,8.48,32,15,32c1.57,0,3.13-0.25,4.64-0.74c3.811-1.229,6.91-3.88,8.73-7.45C30.19,20.24,30.51,16.17,29.27,12.36z   M16,4.03c4.9,0.38,9.15,3.47,11.02,8.01l-9.649,3.14c-0.351-0.45-0.82-0.8-1.37-1V4.03z M16.5,17c0,0.83-0.67,1.5-1.5,1.5  s-1.5-0.67-1.5-1.5s0.67-1.5,1.5-1.5S16.5,16.17,16.5,17z M10.98,4.63c0.99-0.32,2-0.52,3.02-0.6v10.15c-0.55,0.2-1.02,0.55-1.37,1  L3,12.05C4.4,8.65,7.22,5.86,10.98,4.63z M2.64,21.02c-0.77-2.369-0.81-4.81-0.26-7.069l9.63,3.13c0.01,0.6,0.2,1.16,0.52,1.62  l-5.96,8.21C4.78,25.38,3.4,23.37,2.64,21.02z M19.02,29.36C17.71,29.79,16.36,30,15,30c-2.48,0-4.82-0.69-6.81-1.92l5.97-8.22  C14.43,19.94,14.71,20,15,20c0.3,0,0.58-0.06,0.85-0.14l5.959,8.199C20.94,28.59,20.01,29.04,19.02,29.36z M26.58,22.9  c-0.79,1.55-1.86,2.899-3.15,4l-5.96-8.2c0.32-0.47,0.511-1.021,0.521-1.62l9.64-3.13C28.36,16.96,28.01,20.11,26.58,22.9z"/>
</svg>
