<?xml version="1.0" encoding="utf-8"?>
<!-- Generator: Adobe Illustrator 16.0.0, SVG Export Plug-In . SVG Version: 6.00 Build 0)  -->
<svg xmlns="http://www.w3.org/2000/svg" xmlns:xlink="http://www.w3.org/1999/xlink" version="1.1" id="Capa_1" x="0px" y="0px" width="32px" height="32px" viewBox="0 0 32 32" enable-background="new 0 0 32 32" xml:space="preserve">
<path d="M32,19c0-2.2-1.79-3-3-3h-1.48L21.5,8h-4.086l-4-4H6v4.88L4.22,16H3c-1.21,0-3,0.8-3,3c0,1.373,1.373,3.982,2.563,5.993  C1.885,25.59,1.168,26,0,26v2c2.414,0,3.686-1.271,4.707-2.293C5.661,24.753,6.414,24,8,24s2.339,0.753,3.293,1.707  C12.314,26.729,13.586,28,16,28s3.686-1.271,4.707-2.293C21.661,24.753,22.414,24,24,24s2.339,0.753,3.293,1.707  C28.314,26.729,29.586,28,32,28v-2c-1.489,0-2.245-0.667-3.122-1.537C30.175,22.99,32,20.647,32,19z M8,6h4.586l2,2H8V6z M7.78,10  H20.5l1.51,2H12c-0.552,0-1,0.448-1,1s0.448,1,1,1h11.51l1.51,2H6.28L7.78,10z M19.293,24.293C18.339,25.247,17.586,26,16,26  s-2.339-0.753-3.293-1.707C11.686,23.271,10.414,22,8,22c-1.861,0-3.041,0.756-3.953,1.57C2.951,21.669,2,19.757,2,19  c0-0.81,0.55-0.99,1-1h25.99c0.46,0.01,1.01,0.19,1.01,1c0,0.774-1.212,2.533-2.614,4.105C26.555,22.49,25.497,22,24,22  C21.586,22,20.314,23.271,19.293,24.293z"/>
</svg>
