<?xml version="1.0" encoding="utf-8"?>
<!-- Generator: Adobe Illustrator 16.0.0, SVG Export Plug-In . SVG Version: 6.00 Build 0)  -->
<svg xmlns="http://www.w3.org/2000/svg" xmlns:xlink="http://www.w3.org/1999/xlink" version="1.1" id="Capa_1" x="0px" y="0px" width="32px" height="32px" viewBox="0 0 32 32" enable-background="new 0 0 32 32" xml:space="preserve">
<path d="M27,16h-1v-1c0-2.201-1.794-3-3-3h-1v-2h1c0.553,0,1-0.448,1-1s-0.447-1-1-1h-1c-1.299,0-2,1.03-2,2V4h1  c0.553,0,1-0.448,1-1s-0.447-1-1-1h-1c-1.299,0-2,1.03-2,2v4c0-0.97-0.701-2-2-2h-1c-0.552,0-1,0.448-1,1s0.448,1,1,1h1v4h-1  c-1.639,0-2.5,0.994-2.833,2H9c-1.826,0-2.542-1.014-3.301-2.087C5.065,11.016,4.346,10,3,10c-2.201,0-3,1.794-3,3v6  c0,1.206,0.799,3,3,3h1.4c0.632,1.127,2.044,3.302,3.778,3.862C8.774,27.565,10.825,30,13,30h8c2.86,0,4.108-1.765,4.935-2.933  C26.402,26.405,26.704,26,27,26c1.991,0,5,0,5-5C32,17.045,28.729,16,27,16z M8,23v0.454c-0.771-0.693-1.613-1.919-2.106-2.902  C5.725,20.214,5.378,20,5,20H3c-0.805,0-0.988-0.55-1-1v-5.988C2.012,12.55,2.195,12,3,12c0.296,0,0.598,0.406,1.066,1.068  C4.892,14.235,6.139,16,9,16h4c0.542,0,0.986-0.446,1-0.988C14.012,14.55,14.195,14,15,14h7.988C23.45,14.012,24,14.195,24,15v1h-1  c-2.201,0-3,1.794-3,2.988C19.988,19.45,19.806,20,19,20h-8C8.799,20,8,21.794,8,23z M27,24c-1.346,0-2.064,1.017-2.699,1.913  C23.542,26.986,22.825,28,21,28h-8c-1.352,0-2.947-2.375-3-3v-1.988C10.012,22.55,10.195,22,11,22h8c2.201,0,3-1.794,3-2.988  C22.012,18.55,22.194,18,23,18h3.994C27.496,18.006,30,18.177,30,21C30,24,28.997,24,27,24z"/>
</svg>
