<?xml version="1.0" encoding="utf-8"?>
<!-- Generator: Adobe Illustrator 16.0.0, SVG Export Plug-In . SVG Version: 6.00 Build 0)  -->
<!DOCTYPE svg PUBLIC "-//W3C//DTD SVG 1.1//EN" "http://www.w3.org/Graphics/SVG/1.1/DTD/svg11.dtd">
<svg xmlns="http://www.w3.org/2000/svg" xmlns:xlink="http://www.w3.org/1999/xlink" version="1.1" id="Capa_1" x="0px" y="0px" width="32px" height="32px" viewBox="0 0 32 32" enable-background="new 0 0 32 32" xml:space="preserve">
<g>
	<polygon points="16.41,17 11.71,21.71 10.29,20.29 12.59,18 0,18 0,16 12.59,16 10.29,13.71 11.71,12.29  "/>
</g>
<g>
	<polygon points="32,2 32,32 10,32 10,24 12,24 12,30 30,30 30,4 12,4 12,10 10,10 10,2  "/>
</g>
<g>
	<polygon points="28,6 28,12 14,12 14,10 26,10 26,8 14,8 14,6  "/>
</g>
<g>
	<polygon points="28,14 28,20 18,20 18,18 26,18 26,16 18,16 18,14  "/>
</g>
<g>
	<polygon points="28,22 28,28 14,28 14,26 26,26 26,24 14,24 14,22  "/>
</g>
</svg>
