<?xml version="1.0" encoding="utf-8"?>
<!-- Generator: Adobe Illustrator 16.0.0, SVG Export Plug-In . SVG Version: 6.00 Build 0)  -->
<!DOCTYPE svg PUBLIC "-//W3C//DTD SVG 1.1//EN" "http://www.w3.org/Graphics/SVG/1.1/DTD/svg11.dtd">
<svg xmlns="http://www.w3.org/2000/svg" xmlns:xlink="http://www.w3.org/1999/xlink" version="1.1" id="Capa_1" x="0px" y="0px" width="32px" height="32px" viewBox="0 0 32 32" enable-background="new 0 0 32 32" xml:space="preserve">
<g>
	<path d="M11,20l-2,3l-2-3c-7,0-7,12-7,12h18C18,32,18,20,11,20z M6.03,22.14L9,26.61l2.97-4.46c2.7,0.85,3.6,5.22,3.89,7.85H2.14   C2.43,27.37,3.31,22.99,6.03,22.14z"/>
</g>
<g>
	<path d="M9,18c-2.21,0-4-2.24-4-5s1.79-5,4-5c1.31,0,2.47,0.79,3.2,2h2.21C13.46,7.63,11.39,6,9,6c-3.31,0-6,3.13-6,7s2.69,7,6,7   c2.39,0,4.46-1.63,5.41-4H12.2C11.47,17.21,10.31,18,9,18z M19.71,8.29l-1.42,1.42l2.3,2.29H10v2h10.59l-2.3,2.29l1.42,1.42   l4.7-4.71L19.71,8.29z"/>
</g>
<g>
	<polygon points="32,0 32,23.82 30,23.82 30,2 12,2 12,4 10,4 10,0  "/>
</g>
<g>
	<polygon points="28,4 28,24 26,24 26,6 14,6 14,4  "/>
</g>
</svg>
