<?xml version="1.0" encoding="utf-8"?>
<!-- Generator: Adobe Illustrator 16.0.0, SVG Export Plug-In . SVG Version: 6.00 Build 0)  -->
<!DOCTYPE svg PUBLIC "-//W3C//DTD SVG 1.1//EN" "http://www.w3.org/Graphics/SVG/1.1/DTD/svg11.dtd">
<svg version="1.1" id="Capa_1" xmlns="http://www.w3.org/2000/svg" xmlns:xlink="http://www.w3.org/1999/xlink" x="0px" y="0px"
	 width="32px" height="32px" viewBox="0 0 32 32" enable-background="new 0 0 32 32" xml:space="preserve">
<path d="M15,32c-0.097,0-0.194-0.014-0.29-0.043C14.289,31.829,14,31.44,14,31v-7H7c-0.369,0-0.708-0.203-0.882-0.528
	c-0.174-0.325-0.155-0.72,0.05-1.026l8-12c0.245-0.367,0.702-0.532,1.122-0.402C15.711,10.17,16,10.56,16,11v7h7
	c0.369,0,0.708,0.203,0.882,0.528s0.154,0.72-0.05,1.026l-8,12C15.643,31.838,15.328,32,15,32z M8.869,22H15c0.552,0,1,0.447,1,1
	v4.697L21.132,20H15c-0.552,0-1-0.447-1-1v-4.697L8.869,22z M22,0c-4,0-5.79,2.37-7,4c-1.21-1.63-3-4-7-4S0,3,0,10
	c0,3.94,2.02,7.88,4.59,11.21l1.18-1.771C3.63,16.55,2,13.23,2,10c0-5.9,3.1-8,6-8c3.02,0,4.28,1.7,5.39,3.19L15,7.36l1.609-2.17
	C17.721,3.7,18.98,2,22,2c2.9,0,6,2.1,6,8c0,2.49-0.971,5.04-2.4,7.4l1.67,1.108C28.891,15.84,30,12.92,30,10C30,3,26,0,22,0z"/>
</svg>
