<?xml version="1.0" encoding="utf-8"?>
<!-- Generator: Adobe Illustrator 16.0.0, SVG Export Plug-In . SVG Version: 6.00 Build 0)  -->
<!DOCTYPE svg PUBLIC "-//W3C//DTD SVG 1.1//EN" "http://www.w3.org/Graphics/SVG/1.1/DTD/svg11.dtd">
<svg xmlns="http://www.w3.org/2000/svg" xmlns:xlink="http://www.w3.org/1999/xlink" version="1.1" id="Capa_1" x="0px" y="0px" width="32px" height="32px" viewBox="0 0 32 32" enable-background="new 0 0 32 32" xml:space="preserve">
<path d="M15,4c7.168,0,13,5.832,13,13c0,7.168-5.832,13-13,13C7.832,30,2,24.168,2,17C2,9.832,7.832,4,15,4 M15,2  C6.716,2,0,8.716,0,17c0,8.283,6.716,15,15,15s15-6.717,15-15C30,8.716,23.284,2,15,2L15,2z"/>
<path d="M8,16c1.103,0,2,0.897,2,2c0,1.103-0.897,2-2,2s-2-0.897-2-2C6,16.897,6.897,16,8,16 M8,14c-2.209,0-4,1.791-4,4  s1.791,4,4,4s4-1.791,4-4S10.209,14,8,14L8,14z"/>
<path d="M16,8c1.103,0,2,0.897,2,2s-0.897,2-2,2c-1.103,0-2-0.897-2-2S14.897,8,16,8 M16,6c-2.209,0-4,1.791-4,4s1.791,4,4,4  s4-1.791,4-4S18.209,6,16,6L16,6z"/>
<path d="M20,20c1.103,0,2,0.897,2,2s-0.897,2-2,2s-2-0.897-2-2S18.897,20,20,20 M20,18c-2.209,0-4,1.791-4,4s1.791,4,4,4  s4-1.791,4-4S22.209,18,20,18L20,18z"/>
</svg>
