<?xml version="1.0" encoding="utf-8"?>
<!-- Generator: Adobe Illustrator 16.0.0, SVG Export Plug-In . SVG Version: 6.00 Build 0)  -->
<!DOCTYPE svg PUBLIC "-//W3C//DTD SVG 1.1//EN" "http://www.w3.org/Graphics/SVG/1.1/DTD/svg11.dtd">
<svg xmlns="http://www.w3.org/2000/svg" xmlns:xlink="http://www.w3.org/1999/xlink" version="1.1" id="Capa_1" x="0px" y="0px" width="32px" height="32px" viewBox="0 0 32 32" enable-background="new 0 0 32 32" xml:space="preserve">
<g>
	<path d="M29,6H11c-0.27,0-1.68,0.12-2.89,2.55L4.38,16H4c-2.93,0-4,2.39-4,4v5c0,2.2,1.79,3,3,3h1.54c0.69,1.2,1.98,2,3.46,2   s2.77-0.8,3.46-2h9.08c0.69,1.2,1.979,2,3.46,2s2.77-0.8,3.46-2H29c2.2,0,3-1.79,3-3V9C32,6.8,30.21,6,29,6z M9.89,9.45   c0.58-1.16,1.08-1.41,1.19-1.45H14v2H9.62L9.89,9.45z M8.62,12H14v3c0,0.81-0.55,0.99-1,1H6.62L8.62,12z M8,28c-1.1,0-2-0.9-2-2   s0.9-2,2-2s2,0.9,2,2S9.1,28,8,28z M24,28c-1.1,0-2-0.9-2-2s0.9-2,2-2s2,0.9,2,2S25.1,28,24,28z M30,24.99   C29.99,25.45,29.81,26,29,26h-1c0-2.21-1.79-4-4-4s-4,1.79-4,4h-8c0-2.21-1.79-4-4-4s-4,1.79-4,4H3.01C2.55,25.99,2,25.81,2,25v-5   c0-0.33,0.1-2,2-2h9c1.21,0,3-0.8,3-3v-3h14V24.99z M30,10H16V8h12.99C29.45,8.01,30,8.19,30,9V10z"/>
</g>
<g>
	<polygon points="26,16 26,18 24,18 24,20 22,20 22,18 20,18 20,16 22,16 22,14 24,14 24,16  "/>
</g>
</svg>
