<?xml version="1.0" encoding="utf-8"?>
<!-- Generator: Adobe Illustrator 16.0.0, SVG Export Plug-In . SVG Version: 6.00 Build 0)  -->
<!DOCTYPE svg PUBLIC "-//W3C//DTD SVG 1.1//EN" "http://www.w3.org/Graphics/SVG/1.1/DTD/svg11.dtd">
<svg xmlns="http://www.w3.org/2000/svg" xmlns:xlink="http://www.w3.org/1999/xlink" version="1.1" id="Capa_1" x="0px" y="0px" width="32px" height="32px" viewBox="0 0 32 32" enable-background="new 0 0 32 32" xml:space="preserve">
<g>
	<path d="M28.02,3.98c-1.789-1.79-3.71-2.69-5.71-2.69c-2.88,0-4.81,1.9-4.899,1.98L3.27,17.42c-0.05,0.05-1.26,1.271-1.76,3.19   c-0.47,1.779-0.42,4.52,2.47,7.409c1.79,1.79,3.71,2.69,5.71,2.69c2.88,0,4.81-1.9,4.9-1.979L28.73,14.58   c0.05-0.05,1.26-1.27,1.76-3.19C30.96,9.61,30.91,6.87,28.02,3.98z M13.17,27.31c-0.01,0.021-1.45,1.4-3.48,1.4   c-1.45,0-2.9-0.71-4.3-2.1c-4.09-4.091-1.06-7.42-0.7-7.78l6.36-6.37l8.49,8.49L13.17,27.31z M27.31,13.17l-6.359,6.37l-8.49-8.49   l6.36-6.36c0.02-0.01,1.46-1.4,3.489-1.4c1.45,0,2.9,0.71,4.301,2.1C30.7,9.48,27.67,12.81,27.31,13.17z"/>
</g>
</svg>
