<?xml version="1.0" encoding="utf-8"?>
<!-- Generator: Adobe Illustrator 16.0.0, SVG Export Plug-In . SVG Version: 6.00 Build 0)  -->
<!DOCTYPE svg PUBLIC "-//W3C//DTD SVG 1.1//EN" "http://www.w3.org/Graphics/SVG/1.1/DTD/svg11.dtd">
<svg xmlns="http://www.w3.org/2000/svg" xmlns:xlink="http://www.w3.org/1999/xlink" version="1.1" id="Capa_1" x="0px" y="0px" width="32px" height="32px" viewBox="0 0 32 32" enable-background="new 0 0 32 32" xml:space="preserve">
<g>
	<path d="M15,2C6.72,2,0,8.72,0,17c0,8.28,6.72,15,15,15c8.28,0,15-6.72,15-15C30,8.72,23.28,2,15,2z M15,30C7.83,30,2,24.17,2,17   S7.83,4,15,4s13,5.83,13,13S22.17,30,15,30z"/>
</g>
<g>
	<path d="M10,10c-2.21,0-4,2.24-4,5s1.79,5,4,5s4-2.24,4-5S12.21,10,10,10z M10,18c-1.07,0-2-1.4-2-3s0.93-3,2-3s2,1.4,2,3   S11.07,18,10,18z"/>
</g>
<g>
	<path d="M20,10c-2.21,0-4,2.24-4,5s1.79,5,4,5s4-2.24,4-5S22.21,10,20,10z M20,18c-1.07,0-2-1.4-2-3s0.93-3,2-3s2,1.4,2,3   S21.07,18,20,18z"/>
</g>
<g>
	<path d="M23.97,21.24C23.92,21.44,22.69,26,15,26c-7.69,0-8.92-4.56-8.97-4.76c-0.13-0.53,0.19-1.08,0.73-1.21   c0.53-0.141,1.07,0.189,1.21,0.72C8.01,20.91,8.99,24,15,24c6.15,0,7.02-3.21,7.03-3.24c0.13-0.54,0.68-0.87,1.21-0.729   C23.78,20.16,24.1,20.71,23.97,21.24z"/>
</g>
</svg>
