<?xml version="1.0" encoding="utf-8"?>
<!-- Generator: Adobe Illustrator 16.0.0, SVG Export Plug-In . SVG Version: 6.00 Build 0)  -->
<!DOCTYPE svg PUBLIC "-//W3C//DTD SVG 1.1//EN" "http://www.w3.org/Graphics/SVG/1.1/DTD/svg11.dtd">
<svg xmlns="http://www.w3.org/2000/svg" xmlns:xlink="http://www.w3.org/1999/xlink" version="1.1" id="Capa_1" x="0px" y="0px" width="32px" height="32px" viewBox="0 0 32 32" enable-background="new 0 0 32 32" xml:space="preserve">
<g>
	<path d="M15,2C6.72,2,0,8.72,0,17c0,8.28,6.72,15,15,15c8.28,0,15-6.72,15-15C30,8.72,23.28,2,15,2z M2,17C2,9.83,7.83,4,15,4   c3.22,0,6.18,1.18,8.45,3.13l-3.021,3.03C19.98,10.05,19.5,10,19,10c-3.91,0-5.86,2.93-7.16,4.87c-0.22,0.33-0.84,1.27-1.18,1.59   c-0.07-0.03-0.17-0.07-0.31-0.14c-0.04-0.02-0.07-0.04-0.09-0.05c-0.16-0.72,0.54-2.55,1.25-3.62c0.9-1.38,0.52-3.25-0.86-4.15   C10.16,8.17,9.59,8,9,8C7.99,8,7.06,8.5,6.5,9.35c-0.51,0.77-3.01,4.81-2.03,8.47c0.44,1.68,1.57,3.05,3.18,3.859   c0.29,0.15,0.59,0.28,0.88,0.38l-3.4,3.4C3.18,23.19,2,20.22,2,17z M19,14c-1.77,0-2.77,1.5-3.83,3.09c-0.99,1.49-2.26,3.4-4.4,3.4   c-0.66,0-1.39-0.181-2.22-0.601C7.44,19.33,6.7,18.44,6.4,17.31C5.63,14.41,7.9,10.85,8.17,10.45C8.36,10.16,8.68,10,9,10   c0.19,0,0.38,0.05,0.55,0.17c0.46,0.3,0.59,0.92,0.29,1.38c-0.58,0.87-1.97,3.52-1.51,5.24c0.16,0.59,0.51,1.01,1.12,1.32   c0.51,0.25,0.93,0.38,1.3,0.38c0.97,0,1.65-0.84,2.76-2.51C14.69,14.21,16.16,12,19,12c2.51,0,4.32,1.84,4.52,4.57   c0.221,3.2-1.89,6.78-6.38,7.42C17.09,24,17.05,24,17,24c-0.49,0-0.92-0.36-0.99-0.86c-0.08-0.55,0.3-1.05,0.85-1.13   c3.27-0.47,4.82-3.02,4.66-5.29C21.43,15.4,20.72,14,19,14z M15,30c-3.22,0-6.19-1.18-8.46-3.13l4.39-4.39   c3.11-0.08,4.85-2.7,5.9-4.271C17.75,16.83,18.35,16,19,16c0.13,0,0.46,0,0.53,0.86c0.09,1.31-0.8,2.86-2.95,3.17   c-1.64,0.229-2.78,1.76-2.55,3.39C14.24,24.89,15.52,26,17,26c0.14,0,0.28-0.01,0.42-0.03c5.7-0.81,8.38-5.41,8.09-9.54   c-0.17-2.42-1.33-4.37-3.069-5.46l2.43-2.42C26.82,10.82,28,13.78,28,17C28,24.17,22.17,30,15,30z"/>
</g>
</svg>
