<?xml version="1.0" encoding="utf-8"?>
<!-- Generator: Adobe Illustrator 16.0.0, SVG Export Plug-In . SVG Version: 6.00 Build 0)  -->
<!DOCTYPE svg PUBLIC "-//W3C//DTD SVG 1.1//EN" "http://www.w3.org/Graphics/SVG/1.1/DTD/svg11.dtd">
<svg xmlns="http://www.w3.org/2000/svg" xmlns:xlink="http://www.w3.org/1999/xlink" version="1.1" id="Capa_1" x="0px" y="0px" width="32px" height="32px" viewBox="0 0 32 32" enable-background="new 0 0 32 32" xml:space="preserve">
<path d="M24,6v2h4v4H2V8h4V6H0v24h30V6H24z M28,28H2V14h26V28z"/>
<rect x="8" y="4" width="2" height="4"/>
<rect x="20" y="4" width="2" height="4"/>
<rect x="12" y="6" width="6" height="2"/>
<g>
	<path d="M25,22h-1.58l1.29,1.29c0.39,0.39,0.39,1.03,0,1.42C24.51,24.9,24.26,25,24,25s-0.51-0.1-0.71-0.29L22,23.42V25   c0,0.55-0.45,1-1,1s-1-0.45-1-1v-1.58l-1.29,1.29C18.51,24.9,18.26,25,18,25s-0.51-0.1-0.71-0.29c-0.39-0.39-0.39-1.03,0-1.42   L18.58,22H17c-0.55,0-1-0.45-1-1s0.45-1,1-1h1.58l-1.29-1.29c-0.39-0.39-0.39-1.03,0-1.42c0.39-0.39,1.03-0.39,1.42,0L20,18.58V17   c0-0.55,0.45-1,1-1s1,0.45,1,1v1.58l1.29-1.29c0.39-0.39,1.03-0.39,1.42,0c0.39,0.39,0.39,1.03,0,1.42L23.42,20H25   c0.55,0,1,0.45,1,1S25.55,22,25,22z"/>
</g>
</svg>
