<?xml version="1.0" encoding="utf-8"?>
<!-- Generator: Adobe Illustrator 16.0.0, SVG Export Plug-In . SVG Version: 6.00 Build 0)  -->
<!DOCTYPE svg PUBLIC "-//W3C//DTD SVG 1.1//EN" "http://www.w3.org/Graphics/SVG/1.1/DTD/svg11.dtd">
<svg xmlns="http://www.w3.org/2000/svg" xmlns:xlink="http://www.w3.org/1999/xlink" version="1.1" id="Capa_1" x="0px" y="0px" width="32px" height="32px" viewBox="0 0 32 32" enable-background="new 0 0 32 32" xml:space="preserve">
<path d="M18.37,13.43C21.01,12.37,24,11.18,24,8c0-4.16-3.51-5.63-6-5.94V1c0,0,0-1-1-1s-1,1-1,1v1.04  c-1.84,0.15-3.23,0.68-4.18,1.19c-0.38-0.2-0.82-0.3-1.29-0.3c-1.03,0-2.19,0.49-3.11,1.41C5.85,5.91,5.54,8.12,6.71,9.29  C7.19,9.77,7.84,10,8.54,10c1.04,0,2.19-0.49,3.12-1.41c1.11-1.12,1.6-2.57,1.35-3.73c0.7-0.35,1.7-0.69,2.99-0.81V10l2-1V4.09  c1.46,0.23,4,1.04,4,3.91c0,1.7-1.65,2.48-4.37,3.57C14.99,12.63,12,13.82,12,17c0,2.9,2.16,3.58,4,3.87v6.11  c-1.08,0.76-2,1.89-2,4.02c0,0.55,0.45,1,1,1s1-0.45,1-1c0-1.68,0.78-2.25,2-2.88c0.14-0.08,0.29-0.15,0.45-0.23  C20.03,27.1,22,26.12,22,23c0-2.9-2.16-3.58-4-3.87V16l-2,1v1.84c-1.54-0.27-2-0.67-2-1.84C14,15.3,15.65,14.52,18.37,13.43z   M11.06,5.68c-0.08,0.5-0.37,1.05-0.82,1.49C9.63,7.78,8.97,8,8.54,8C8.43,8,8.23,7.98,8.12,7.88c-0.1-0.11-0.14-0.35-0.1-0.63  c0.07-0.5,0.36-1.05,0.81-1.49c0.61-0.61,1.28-0.83,1.7-0.83c0.11,0,0.31,0.01,0.42,0.12C11.06,5.16,11.1,5.4,11.06,5.68z M18,21.16  c1.54,0.27,2,0.67,2,1.84c0,1.68-0.78,2.25-2,2.88V21.16z"/>
</svg>
