<?xml version="1.0" encoding="utf-8"?>
<!-- Generator: Adobe Illustrator 16.0.0, SVG Export Plug-In . SVG Version: 6.00 Build 0)  -->
<!DOCTYPE svg PUBLIC "-//W3C//DTD SVG 1.1//EN" "http://www.w3.org/Graphics/SVG/1.1/DTD/svg11.dtd">
<svg xmlns="http://www.w3.org/2000/svg" xmlns:xlink="http://www.w3.org/1999/xlink" version="1.1" id="Capa_1" x="0px" y="0px" width="32px" height="32px" viewBox="0 0 32 32" enable-background="new 0 0 32 32" xml:space="preserve">
<g>
	<g>
		<path d="M29.77,20.37C29.58,20.13,29.3,20,29,20h-7.15l0.141-0.84c0.05-0.29-0.04-0.58-0.23-0.811C21.57,18.13,21.29,18,21,18    h-5.18l-1.84-9.2c-0.1-0.53-0.61-0.88-1.14-0.79l-0.79,0.13L10.98,2.8c-0.05-0.26-0.21-0.49-0.43-0.64    c-0.23-0.14-0.51-0.2-0.77-0.14l-9,2C0.52,4.08,0.29,4.24,0.15,4.47s-0.19,0.51-0.12,0.77l1.18,4.71l-0.37,0.06    c-0.28,0.05-0.52,0.21-0.68,0.44c-0.15,0.24-0.2,0.52-0.13,0.79l4,16C4.44,28.89,6.22,32,10,32h17c0.48,0,0.89-0.34,0.98-0.8l2-10    C30.04,20.9,29.96,20.6,29.77,20.37z M9.22,4.2l0.85,4.27L3.19,9.62L2.22,5.75L9.22,4.2z M18.15,30H10c-3.15,0-4-3.11-4.03-3.24    L2.23,11.81l9.98-1.66l1.81,9.05c0.09,0.46,0.5,0.8,0.98,0.8h4.82L18.15,30z M26.18,30h-6l1.34-8h6.261L26.18,30z"/>
	</g>
</g>
</svg>
