<?xml version="1.0" encoding="utf-8"?>
<!-- Generator: Adobe Illustrator 16.0.0, SVG Export Plug-In . SVG Version: 6.00 Build 0)  -->
<!DOCTYPE svg PUBLIC "-//W3C//DTD SVG 1.1//EN" "http://www.w3.org/Graphics/SVG/1.1/DTD/svg11.dtd">
<svg xmlns="http://www.w3.org/2000/svg" xmlns:xlink="http://www.w3.org/1999/xlink" version="1.1" id="Capa_1" x="0px" y="0px" width="32px" height="32px" viewBox="0 0 32 32" enable-background="new 0 0 32 32" xml:space="preserve">
<path d="M30,16c0-2.6-2.06-4-4-4h-0.34l0.24-0.25c1.369-1.36,1.84-3.81,0.01-5.65c-1.021-1.01-2.07-1.22-2.79-1.22  c-1.58,0-2.67,1.01-2.87,1.22L20,6.34V6c0-1.94-1.4-4-4-4c-2.6,0-4,2.06-4,4v0.34L11.75,6.1c-0.2-0.21-1.29-1.22-2.87-1.22  c-0.71,0-1.77,0.21-2.77,1.22c-1.01,1-1.22,2.07-1.22,2.78c0,1.59,1.02,2.68,1.22,2.88L6.35,12H6c-1.94,0-4,1.4-4,4  c0,2.6,2.06,4,4,4h0.35l-0.24,0.25c-0.2,0.19-1.22,1.28-1.22,2.87c0,0.71,0.21,1.78,1.22,2.78c1,1,2.05,1.21,2.76,1.21  c1.59,0,2.69-1.021,2.89-1.221L12,25.65V26c0,1.94,1.4,4,4,4c2.6,0,4-2.06,4-4v-0.35l0.25,0.239c0.19,0.2,1.29,1.221,2.87,1.221  c0.72,0,1.78-0.21,2.78-1.221c1.119-1.109,1.489-2.56,1.02-3.979c-0.31-0.91-0.85-1.5-1.02-1.66L25.66,20H26C27.94,20,30,18.6,30,16  z M24.49,21.66c0,0,1.41,1.41,0,2.82c-0.471,0.47-0.95,0.63-1.37,0.63c-0.83,0-1.46-0.63-1.46-0.63l-1.59-1.591  c-0.641,0.38-1.33,0.67-2.07,0.86V26c0,0,0,2-2,2s-2-2-2-2v-2.25c-0.73-0.19-1.43-0.48-2.06-0.86l-0.18,0.181l-1.42,1.41  c0,0-0.63,0.63-1.47,0.63c-0.41,0-0.88-0.15-1.35-0.62c-1.42-1.42,0-2.83,0-2.83l1.59-1.59C8.73,19.43,8.44,18.74,8.25,18H6  c0,0-2,0-2-2s2-2,2-2h2.25c0.19-0.73,0.48-1.43,0.86-2.06l-0.18-0.18l-1.41-1.42c0,0-1.42-1.41,0-2.83  c0.47-0.47,0.94-0.63,1.36-0.63c0.83,0,1.46,0.63,1.46,0.63l1.6,1.6c0.63-0.38,1.33-0.67,2.06-0.86V6c0,0,0-2,2-2s2,2,2,2v2.25  c0.73,0.19,1.43,0.48,2.06,0.86l1.601-1.6c0,0,0.63-0.63,1.46-0.63c0.42,0,0.899,0.16,1.37,0.63c1.41,1.42,0,2.83,0,2.83l-1.601,1.6  c0.38,0.63,0.67,1.33,0.86,2.06H26c0,0,2,0,2,2s-2,2-2,2h-2.25c-0.19,0.73-0.48,1.43-0.86,2.06L24.49,21.66z"/>
<path d="M18,10c-2.21,0-4,1.79-4,4s1.79,4,4,4s4-1.79,4-4S20.21,10,18,10z M18,16c-1.1,0-2-0.9-2-2s0.9-2,2-2c1.1,0,2,0.9,2,2  S19.1,16,18,16z"/>
<circle cx="11" cy="17" r="1"/>
<circle cx="15" cy="19" r="1"/>
<circle cx="19" cy="21" r="1"/>
</svg>
