<?xml version="1.0" encoding="utf-8"?>
<!-- Generator: Adobe Illustrator 16.0.0, SVG Export Plug-In . SVG Version: 6.00 Build 0)  -->
<!DOCTYPE svg PUBLIC "-//W3C//DTD SVG 1.1//EN" "http://www.w3.org/Graphics/SVG/1.1/DTD/svg11.dtd">
<svg xmlns="http://www.w3.org/2000/svg" xmlns:xlink="http://www.w3.org/1999/xlink" version="1.1" id="Capa_1" x="0px" y="0px" width="32px" height="32px" viewBox="0 0 32 32" enable-background="new 0 0 32 32" xml:space="preserve">
<g>
	<path d="M12.25,23.32v2.16c-3.49-1.23-6-4.57-6-8.48c0-1.39,0.32-2.7,0.88-3.88l1.53,1.53c-0.27,0.73-0.41,1.52-0.41,2.35   C8.25,19.79,9.891,22.2,12.25,23.32z"/>
	<path d="M19.131,8.88L17.6,10.41C16.871,10.14,16.081,10,15.25,10c-0.82,0-1.61,0.14-2.34,0.41l-1.53-1.53   C12.55,8.31,13.871,8,15.25,8C16.641,8,17.951,8.32,19.131,8.88z"/>
	<path d="M24.25,17c0,3.91-2.51,7.25-6,8.48v-2.16c2.359-1.12,4-3.53,4-6.32c0-0.82-0.141-1.61-0.41-2.34l1.531-1.53   C23.939,14.3,24.25,15.62,24.25,17z"/>
</g>
<path d="M28.689,9.22c-1.42-1.41-2.891-1.71-4.16-1.5c0.211-1.27-0.09-2.74-1.5-4.15c-2.529-2.54-5.158-1.69-5.26-1.66  c-0.529,0.18-0.819,0.74-0.639,1.26c0.18,0.53,0.74,0.81,1.26,0.64c0.061-0.02,1.6-0.46,3.219,1.17c1.99,1.99,0.359,3.87,0,4.24  l-3.6,3.6C17.221,12.31,16.27,12,15.25,12c-1.02,0-1.97,0.31-2.76,0.82l-3.6-3.6c-0.35-0.36-2-2.25,0-4.24  c1.62-1.63,3.16-1.19,3.23-1.17c0.52,0.16,1.08-0.13,1.25-0.66c0.16-0.51-0.11-1.07-0.64-1.24c-0.1-0.03-2.73-0.88-5.26,1.65  c-1.41,1.42-1.71,2.89-1.5,4.16c-1.27-0.21-2.74,0.09-4.15,1.5c-2.54,2.53-1.69,5.16-1.66,5.26c0.18,0.53,0.74,0.82,1.26,0.64  c0.53-0.18,0.81-0.74,0.64-1.26c-0.02-0.06-0.46-1.6,1.17-3.22c1.99-1.99,3.87-0.36,4.24,0l3.6,3.6c-0.51,0.79-0.82,1.74-0.82,2.76  c0,2.42,1.72,4.439,4,4.9V27c-0.01,0.52-0.19,3-3,3c-2.3,0-3.08-1.4-3.11-1.45C7.9,28.061,7.3,27.861,6.8,28.111  c-0.49,0.238-0.69,0.84-0.44,1.34C6.411,29.55,7.67,32,11.25,32c2,0,3.25-0.83,4-1.88c0.75,1.05,2,1.88,4,1.88  c3.58,0,4.84-2.45,4.891-2.55c0.25-0.49,0.051-1.08-0.43-1.33c-0.49-0.25-1.09-0.062-1.352,0.42C22.33,28.6,21.551,30,19.25,30  c-2.82,0-2.99-2.5-3-3v-5.1c2.279-0.461,4-2.48,4-4.9c0-1.02-0.311-1.97-0.82-2.76l3.602-3.6c0.359-0.35,2.25-2,4.238,0  c1.631,1.62,1.191,3.16,1.172,3.23c-0.16,0.52,0.129,1.08,0.658,1.25c0.512,0.16,1.07-0.11,1.24-0.64  C30.371,14.38,31.221,11.75,28.689,9.22z M15.25,20c-1.66,0-3-1.34-3-3s1.34-3,3-3s3,1.34,3,3S16.911,20,15.25,20z"/>
</svg>
