<?xml version="1.0" encoding="utf-8"?>
<!-- Generator: Adobe Illustrator 16.0.0, SVG Export Plug-In . SVG Version: 6.00 Build 0)  -->
<!DOCTYPE svg PUBLIC "-//W3C//DTD SVG 1.1//EN" "http://www.w3.org/Graphics/SVG/1.1/DTD/svg11.dtd">
<svg xmlns="http://www.w3.org/2000/svg" xmlns:xlink="http://www.w3.org/1999/xlink" version="1.1" id="Capa_1" x="0px" y="0px" width="32px" height="32px" viewBox="0 0 32 32" enable-background="new 0 0 32 32" xml:space="preserve">
<g>
	<g>
		<path d="M23,0H9C5.04,0,4,3.27,4,5v20c0,2.42,1.25,7,6,7h11c2.42,0,7-1.46,7-7V5C28,1.04,24.73,0,23,0z M26,25c0,4.82-4.49,5-5,5    H10c-3.93,0-4-4.8-4-5V10h20V25z M26,8H6V5.01C6.01,4.5,6.18,2,9,2h13.99C23.5,2.01,26,2.18,26,5V8z"/>
	</g>
</g>
<g>
	<rect x="14" y="4" width="4" height="2"/>
</g>
<g>
	<path d="M16,12c0,0-6,6-6,10c0,6,6,6,6,6s6,0,6-6C22,18,16,12,16,12z M16,26c-0.67,0-4-0.19-4-4c0-1.75,2.03-4.76,4-7.05   c1.97,2.29,4,5.3,4,7.05C20,25.65,16.93,25.99,16,26z"/>
</g>
</svg>
