<?xml version="1.0" encoding="utf-8"?>
<!-- Generator: Adobe Illustrator 16.0.0, SVG Export Plug-In . SVG Version: 6.00 Build 0)  -->
<!DOCTYPE svg PUBLIC "-//W3C//DTD SVG 1.1//EN" "http://www.w3.org/Graphics/SVG/1.1/DTD/svg11.dtd">
<svg xmlns="http://www.w3.org/2000/svg" xmlns:xlink="http://www.w3.org/1999/xlink" version="1.1" id="Capa_1" x="0px" y="0px" width="32px" height="32px" viewBox="0 0 32 32" enable-background="new 0 0 32 32" xml:space="preserve">
<g>
	<g>
		<g>
			<path d="M12.91,6.15C12.4,5.64,10.55,4,7.86,4C6.09,4,4.42,4.74,3.01,6.15C0.88,8.28,0.71,10.51,0.94,12     c0.33,2.11,1.56,3.54,2.07,4.05c0.57,0.56,1.32,0.88,2.12,0.88c0.78,0,1.52-0.3,2.09-0.85c1.2-1.2,1.21-3.05,0.06-4.24     c-0.72-0.76-0.34-1.14-0.03-1.45c0.18-0.17,0.43-0.38,0.65-0.38c0.24,0,0.58,0.2,0.79,0.41L27.76,29.48L32,25.24L12.91,6.15z      M24.93,23.82L10.08,8.98C9.85,8.76,9,8.01,7.9,8.01c-0.63,0-1.34,0.24-2.06,0.97c-2,1.99-0.35,3.88,0,4.25     c0.39,0.39,0.4,1-0.01,1.41c-0.2,0.19-0.45,0.29-0.7,0.29c-0.26,0-0.51-0.1-0.71-0.3c-1.22-1.22-2.8-4.27,0-7.07     C5.58,6.41,6.77,6,7.86,6c1.56,0,2.91,0.84,3.63,1.56l14.85,14.85L24.93,23.82z M27.76,26.65l-1.41-1.41l1.41-1.41l1.41,1.41     L27.76,26.65z"/>
		</g>
	</g>
</g>
</svg>
