<?xml version="1.0" encoding="utf-8"?>
<!-- Generator: Adobe Illustrator 16.0.0, SVG Export Plug-In . SVG Version: 6.00 Build 0)  -->
<!DOCTYPE svg PUBLIC "-//W3C//DTD SVG 1.1//EN" "http://www.w3.org/Graphics/SVG/1.1/DTD/svg11.dtd">
<svg xmlns="http://www.w3.org/2000/svg" xmlns:xlink="http://www.w3.org/1999/xlink" version="1.1" id="Capa_1" x="0px" y="0px" width="32px" height="32px" viewBox="0 0 32 32" enable-background="new 0 0 32 32" xml:space="preserve">
<g>
	<g>
		<g>
			<path d="M21,3.96c-3.05,0-4.95,1.38-6,2.79c-1.05-1.41-2.95-2.79-6-2.79c-2.28,0-7,2.2-7,9c0,0.35,0.02,0.7,0.07,1.04h2.01     C4.03,13.65,4,13.31,4,12.96c0-5.29,3.37-7,5-7c4.12,0,5,3.12,5.03,3.24c0.11,0.44,0.51,0.76,0.97,0.76s0.86-0.31,0.97-0.76     c0.01-0.03,0.86-3.24,5.03-3.24c1.63,0,5,1.71,5,7c0,0.35-0.03,0.69-0.08,1.04h2.01C27.98,13.65,28,13.31,28,12.96     C28,6.16,23.28,3.96,21,3.96z M15,27.7c-2.5-1.78-5.78-4.59-8.1-7.7H4.43c3.19,4.9,8.57,8.77,10.01,9.74     c0.17,0.12,0.36,0.18,0.56,0.18s0.39-0.06,0.56-0.18c0.9-0.601,6.62-4.62,9.98-9.74h-2.43C20.78,23.11,17.5,25.92,15,27.7z"/>
		</g>
	</g>
</g>
<g>
	<path d="M15,22c-0.014,0-0.028,0-0.042-0.001c-0.394-0.017-0.741-0.262-0.887-0.628l-2.986-7.465l-1.137,3.41   C9.813,17.725,9.431,18,9,18H0v-2h8.279l1.772-5.316c0.133-0.398,0.5-0.671,0.919-0.683c0.407-0.023,0.802,0.238,0.958,0.628   l3.173,7.932l3.004-6.008c0.34-0.678,1.449-0.678,1.789,0L21.618,16H30v2h-9c-0.379,0-0.725-0.214-0.895-0.553L19,15.236   l-3.105,6.211C15.725,21.787,15.377,22,15,22z"/>
</g>
</svg>
