<?xml version="1.0" encoding="utf-8"?>
<!-- Generator: Adobe Illustrator 16.0.0, SVG Export Plug-In . SVG Version: 6.00 Build 0)  -->
<!DOCTYPE svg PUBLIC "-//W3C//DTD SVG 1.1//EN" "http://www.w3.org/Graphics/SVG/1.1/DTD/svg11.dtd">
<svg xmlns="http://www.w3.org/2000/svg" xmlns:xlink="http://www.w3.org/1999/xlink" version="1.1" id="Capa_1" x="0px" y="0px" width="32px" height="32px" viewBox="0 0 32 32" enable-background="new 0 0 32 32" xml:space="preserve">
<g>
	<path d="M29,2H15c-0.55,0-1,0.45-1,1v15.99C13.99,19.45,13.81,20,13,20H9c-0.55,0-1,0.45-1,1v1H6c-1.61,0-4,1.07-4,4s2.39,4,4,4h19   c1.73,0,5-1.04,5-5V3C30,2.45,29.55,2,29,2z M8,28H6c-0.33,0-2-0.1-2-2c0-1.83,1.54-1.99,2-2h2V28z M16,4h10l-5.6,4.2   C20.39,8.21,20.38,8.21,20.38,8.22L16,6.34V4z M16,8.52l9.84,4.22l-7.14,7.14L16,16.64V8.52z M10,28v-6h3   c1.82,0,2.68-1.22,2.92-2.33L22.86,28H10z M28,25c0,2.31-1.68,2.84-2.56,2.96l-5.45-6.53l7.84-7.84L28,13.66V25z M28,11.48   l-5.5-2.35L28,5V11.48z"/>
</g>
</svg>
