<?xml version="1.0" encoding="utf-8"?>
<!-- Generator: Adobe Illustrator 16.0.0, SVG Export Plug-In . SVG Version: 6.00 Build 0)  -->
<!DOCTYPE svg PUBLIC "-//W3C//DTD SVG 1.1//EN" "http://www.w3.org/Graphics/SVG/1.1/DTD/svg11.dtd">
<svg xmlns="http://www.w3.org/2000/svg" xmlns:xlink="http://www.w3.org/1999/xlink" version="1.1" id="Capa_1" x="0px" y="0px" width="32px" height="32px" viewBox="0 0 32 32" enable-background="new 0 0 32 32" xml:space="preserve">
<g>
	<path d="M32,17c0-1.74-1.12-2.6-2.18-2.89C29.93,13.79,30,13.42,30,13c0-2.2-1.79-3-3-3h-9V7c0-1.21-0.8-3-3-3s-3,1.79-3,3v3H5   c-2.82,0-2.99-2.5-3-3V3c0-0.55-0.45-1-1-1S0,2.45,0,3v4c0,1.55,0.84,4.35,3.88,4.9L2.12,26H1c-0.55,0-1,0.45-1,1s0.45,1,1,1h24   c1.21,0,3-0.8,3-3c0-0.42-0.07-0.79-0.18-1.11C28.88,23.6,30,22.74,30,21c0-0.42-0.07-0.79-0.18-1.11C30.88,19.6,32,18.74,32,17z    M14,7.01C14.01,6.55,14.19,6,15,6s0.99,0.55,1,1v3h-2V7.01z M13.72,12l-1.26,5.04L7.42,12H13.72z M10.22,26H4.13l1.61-12.84   l6.15,6.149L10.22,26z M18,26h-5.72l3.5-14H18V26z M29,18h-6c-0.55,0-1,0.45-1,1s0.45,1,1,1h4c0.46,0.01,1,0.21,1,1   c0,0.81-0.55,0.99-1,1h-4c-0.55,0-1,0.45-1,1s0.45,1,1,1h1.99c0.46,0.01,1.01,0.2,1.01,1s-0.55,0.99-1.01,1H20V12h6.99   c0.46,0.01,1.01,0.19,1.01,1s-0.55,0.99-1,1h-4c-0.55,0-1,0.45-1,1s0.45,1,1,1h5.99c0.46,0.01,1.01,0.19,1.01,1   C30,17.81,29.45,17.99,29,18z"/>
</g>
</svg>
