<?xml version="1.0" encoding="utf-8"?>
<!-- Generator: Adobe Illustrator 16.0.0, SVG Export Plug-In . SVG Version: 6.00 Build 0)  -->
<!DOCTYPE svg PUBLIC "-//W3C//DTD SVG 1.1//EN" "http://www.w3.org/Graphics/SVG/1.1/DTD/svg11.dtd">
<svg xmlns="http://www.w3.org/2000/svg" xmlns:xlink="http://www.w3.org/1999/xlink" version="1.1" id="Capa_1" x="0px" y="0px" width="32px" height="32px" viewBox="0 0 32 32" enable-background="new 0 0 32 32" xml:space="preserve">
<g>
	<path d="M24.01,18l-2,3l-2.04-3c-8,0-8,14-8,14h20C31.97,32,32.97,18,24.01,18z M14.09,30c0.3-3.14,1.35-8.97,4.9-9.88l3.029,4.46   l3-4.49c0.961,0.17,1.761,0.61,2.431,1.33c1.92,2.05,2.46,5.98,2.54,8.58H14.09z"/>
</g>
<g>
	<path d="M22.01,4c-3.319,0-6,3.13-6,7s2.681,7,6,7c3.311,0,6-3.13,6-7S25.32,4,22.01,4z M22.01,16c-2.21,0-4-2.24-4-5s1.79-5,4-5   c2.2,0,4,2.24,4,5S24.21,16,22.01,16z"/>
</g>
<g>
	<polygon points="10,8 10,4 6,4 6,8 2,8 2,12 6,12 6,16 10,16 10,12 14,12 14,14 12,14 12,18 4,18 4,14 0,14 0,6 4,6 4,2 12,2 12,6    14,6 14,8  "/>
</g>
</svg>
