<?xml version="1.0" encoding="utf-8"?>
<!-- Generator: Adobe Illustrator 16.0.0, SVG Export Plug-In . SVG Version: 6.00 Build 0)  -->
<!DOCTYPE svg PUBLIC "-//W3C//DTD SVG 1.1//EN" "http://www.w3.org/Graphics/SVG/1.1/DTD/svg11.dtd">
<svg xmlns="http://www.w3.org/2000/svg" xmlns:xlink="http://www.w3.org/1999/xlink" version="1.1" id="Capa_1" x="0px" y="0px" width="32px" height="32px" viewBox="0 0 32 32" enable-background="new 0 0 32 32" xml:space="preserve">
<g>
	<g>
		<path d="M18.64,17.28c0.9-1.26,1.13-2.71,0.65-4.15c-0.42-1.25-1.21-2.07-1.3-2.16l-7.78-7.78l1.41-1.41l-1.41-1.42l-9.9,9.9    l1.41,1.42l1.42-1.42l7.77,7.78c0.72,0.72,2.08,1.56,3.64,1.56c0.85,0,1.76-0.25,2.67-0.909l11.07,11.02l1.42-1.42L18.64,17.28z     M9.5,13.8L4.55,8.85L8.8,4.61l4.94,4.94L9.5,13.8z M16.57,16.62c-2,2-3.89,0.35-4.24,0l-1.42-1.41l4.25-4.24l1.41,1.41    C16.92,12.74,18.57,14.63,16.57,16.62z"/>
	</g>
</g>
</svg>
