<?xml version="1.0" encoding="utf-8"?>
<!-- Generator: Adobe Illustrator 16.0.0, SVG Export Plug-In . SVG Version: 6.00 Build 0)  -->
<!DOCTYPE svg PUBLIC "-//W3C//DTD SVG 1.1//EN" "http://www.w3.org/Graphics/SVG/1.1/DTD/svg11.dtd">
<svg xmlns="http://www.w3.org/2000/svg" xmlns:xlink="http://www.w3.org/1999/xlink" version="1.1" id="Capa_1" x="0px" y="0px" width="32px" height="32px" viewBox="0 0 32 32" enable-background="new 0 0 32 32" xml:space="preserve">
<g>
	<path d="M30,16.17V12h-4V5c0-1.21-0.8-3-3-3h-6c-1.21,0-3,0.8-3,3v3h2V5c0-0.81,0.55-0.99,1-1h6c0.81,0,0.99,0.55,1,1v7h-4v4H0v5   c0,3.11,1.88,9,9,9h20c2.2,0,3-1.79,3-3v-8C32,17.36,31.01,16.5,30,16.17z M22,14h6v2h-6V14z M2,18h14v2H2V18z M9,28   c-5.35,0-6.61-4.06-6.91-6h13.82C15.61,23.94,14.35,28,9,28z M30,26.99C29.99,27.45,29.81,28,29,28H14.96   c2.3-2.01,3.04-5.05,3.04-7v-3h10.99c0.46,0.01,1.01,0.19,1.01,1V26.99z"/>
</g>
</svg>
