<?xml version="1.0" encoding="utf-8"?>
<!-- Generator: Adobe Illustrator 16.0.0, SVG Export Plug-In . SVG Version: 6.00 Build 0)  -->
<!DOCTYPE svg PUBLIC "-//W3C//DTD SVG 1.1//EN" "http://www.w3.org/Graphics/SVG/1.1/DTD/svg11.dtd">
<svg xmlns="http://www.w3.org/2000/svg" xmlns:xlink="http://www.w3.org/1999/xlink" version="1.1" id="Capa_1" x="0px" y="0px" width="32px" height="32px" viewBox="0 0 32 32" enable-background="new 0 0 32 32" xml:space="preserve">
<g>
	<path d="M30.35,22.89L26.11,18.65c-0.28-0.28-6.78-6.71-12.16-5.94c-0.08,0.01-0.15,0.03-0.22,0.05c-0.24-1.33-0.16-2.4-0.11-2.86   c0.66-0.8,0.85-1.75,0.53-2.71c-0.24-0.71-0.68-1.18-0.77-1.27l-2.83-2.83C9.79,2.33,9.01,2.17,8.48,2.17   C7.27,2.17,6.4,3,6.31,3.09L2.07,7.33C1.22,8.19,0.94,9.24,1.3,10.3c0.23,0.72,0.68,1.19,0.77,1.28l0.71,0.7L1.36,13.7l1.41,1.41   l1.42-1.42L4.9,14.4c0.76,0.77,1.54,0.93,2.06,0.93c1.22,0,2.08-0.83,2.18-0.93l2.47-2.47c0.11,1.42,0.51,3.26,1.62,5.11   c1.67,2.78,10.37,11.82,10.76,12.21c0.08,0.09,0.89,0.87,2.06,1.33c0.57,0.22,1.13,0.33,1.67,0.33c1.101,0,2.12-0.44,2.98-1.3   C31.8,28.51,33.15,25.69,30.35,22.89z M11.97,8.75c-0.02,0.01-0.03,0.03-0.05,0.05l-4.19,4.18c-0.1,0.1-0.43,0.35-0.77,0.35   c-0.07,0-0.31,0-0.65-0.34l-2.82-2.82C3.17,9.84,2.91,9.32,3.48,8.75L7.72,4.5c0.06-0.05,0.41-0.33,0.76-0.33   c0.08,0,0.32,0,0.66,0.33l2.83,2.83c0,0,0.19,0.22,0.28,0.5C12.33,8.06,12.36,8.35,11.97,8.75z M23.33,25.66   c-3.2-3.391-7.38-7.98-8.38-9.65c-0.27-0.45-0.49-0.89-0.67-1.33c3.661-0.47,8.75,3.72,10.411,5.379l2.119,2.12L23.33,25.66z    M29.29,28.19c-1.7,1.699-3.67-0.141-3.88-0.341c-0.22-0.229-0.45-0.47-0.7-0.729L28.23,23.6l0.71,0.7   C30.93,26.29,29.58,27.9,29.29,28.19z"/>
</g>
</svg>
