<?xml version="1.0" encoding="utf-8"?>
<!-- Generator: Adobe Illustrator 16.0.0, SVG Export Plug-In . SVG Version: 6.00 Build 0)  -->
<!DOCTYPE svg PUBLIC "-//W3C//DTD SVG 1.1//EN" "http://www.w3.org/Graphics/SVG/1.1/DTD/svg11.dtd">
<svg xmlns="http://www.w3.org/2000/svg" xmlns:xlink="http://www.w3.org/1999/xlink" version="1.1" id="Capa_1" x="0px" y="0px" width="32px" height="32px" viewBox="0 0 32 32" enable-background="new 0 0 32 32" xml:space="preserve">
<g>
	<path d="M31.67,26.26l-10.38-9.47l-7.91-2.66L9.11,9.86C9.67,9.05,10,8.06,10,7c0-2.76-2.24-5-5-5S0,4.24,0,7s2.24,5,5,5   c0.97,0,1.88-0.28,2.65-0.76l4.57,4.56l1.85,6.82v0.01l0.31,1.17l7.91,7.91C22.49,31.9,22.74,32,23,32s0.51-0.1,0.71-0.29   c0.39-0.39,0.39-1.03,0-1.42l-6.58-6.58l4.16-4.11l9.04,8.141C30.52,27.92,30.76,28,31,28c0.27,0,0.55-0.11,0.74-0.33   C32.11,27.26,32.08,26.63,31.67,26.26z M5,10c-1.65,0-3-1.35-3-3s1.35-3,3-3s3,1.35,3,3S6.65,10,5,10z M15.98,22.04l-1.47-5.42   l5.19,1.74L15.98,22.04z"/>
</g>
</svg>
