<?xml version="1.0" encoding="utf-8"?>
<!-- Generator: Adobe Illustrator 16.0.0, SVG Export Plug-In . SVG Version: 6.00 Build 0)  -->
<!DOCTYPE svg PUBLIC "-//W3C//DTD SVG 1.1//EN" "http://www.w3.org/Graphics/SVG/1.1/DTD/svg11.dtd">
<svg xmlns="http://www.w3.org/2000/svg" xmlns:xlink="http://www.w3.org/1999/xlink" version="1.1" id="Capa_1" x="0px" y="0px" width="32px" height="32px" viewBox="0 0 32 32" enable-background="new 0 0 32 32" xml:space="preserve">
<g>
	<path d="M31.67,26.26l-10.38-9.47l-7.66-2.58L8.56,9.14c0.19-0.5,0.21-1.07,0.06-1.68C8.38,6.5,7.69,5.45,6.59,4.34   C5.82,3.58,5.04,3.42,4.52,3.42c-1.22,0-2.08,0.83-2.18,0.92c-0.85,0.86-1.55,2.69,0,4.25c1.42,1.41,2.73,2.13,3.89,2.13   c0.33,0,0.63-0.06,0.92-0.16l5.01,5.02l1.91,7.04v0.01l0.31,1.17l7.91,7.91C22.49,31.9,22.74,32,23,32s0.51-0.1,0.71-0.29   c0.39-0.39,0.39-1.03,0-1.42l-6.58-6.58l4.16-4.11l9.04,8.141C30.52,27.92,30.76,28,31,28c0.27,0,0.55-0.11,0.74-0.33   C32.11,27.26,32.08,26.63,31.67,26.26z M6.59,8.59C6.53,8.65,6.43,8.72,6.23,8.72c-0.28,0-1.08-0.15-2.47-1.55   C3.19,6.6,3.45,6.08,3.75,5.77c0.1-0.1,0.43-0.35,0.77-0.35c0.08,0,0.32,0,0.65,0.34c1.06,1.05,1.4,1.77,1.51,2.18   C6.79,8.39,6.64,8.54,6.59,8.59z M15.98,22.04l-1.47-5.42l5.19,1.74L15.98,22.04z"/>
</g>
</svg>
