<?xml version="1.0" encoding="utf-8"?>
<!-- Generator: Adobe Illustrator 16.0.0, SVG Export Plug-In . SVG Version: 6.00 Build 0)  -->
<!DOCTYPE svg PUBLIC "-//W3C//DTD SVG 1.1//EN" "http://www.w3.org/Graphics/SVG/1.1/DTD/svg11.dtd">
<svg xmlns="http://www.w3.org/2000/svg" xmlns:xlink="http://www.w3.org/1999/xlink" version="1.1" id="Capa_1" x="0px" y="0px" width="32px" height="32px" viewBox="0 0 32 32" enable-background="new 0 0 32 32" xml:space="preserve">
<g>
	<path d="M31.67,26.26l-10.38-9.47l-7.82-2.63l-3.05-3.05l-1.78-10C8.59,0.8,8.39,0.53,8.11,0.39c-0.29-0.14-0.62-0.14-0.9,0   L1.55,3.22C1.27,3.36,1.06,3.63,1.01,3.95C0.96,4.27,1.07,4.59,1.29,4.82L12.2,15.73l1.87,6.89v0.01l0.31,1.17l7.91,7.91   C22.49,31.9,22.74,32,23,32s0.51-0.1,0.71-0.29c0.39-0.39,0.39-1.03,0-1.42l-6.58-6.58l4.16-4.11l9.04,8.141   C30.52,27.92,30.76,28,31,28c0.27,0,0.55-0.11,0.74-0.33C32.11,27.26,32.08,26.63,31.67,26.26z M3.69,4.39l3.22-1.61l1.04,5.86   L3.69,4.39z M15.98,22.04l-1.47-5.42l5.19,1.74L15.98,22.04z"/>
</g>
</svg>
