<?xml version="1.0" encoding="utf-8"?>
<!-- Generator: Adobe Illustrator 16.0.0, SVG Export Plug-In . SVG Version: 6.00 Build 0)  -->
<!DOCTYPE svg PUBLIC "-//W3C//DTD SVG 1.1//EN" "http://www.w3.org/Graphics/SVG/1.1/DTD/svg11.dtd">
<svg xmlns="http://www.w3.org/2000/svg" xmlns:xlink="http://www.w3.org/1999/xlink" version="1.1" id="Capa_1" x="0px" y="0px" width="32px" height="32px" viewBox="0 0 32 32" enable-background="new 0 0 32 32" xml:space="preserve">
<g>
	<path d="M31.67,26.26l-10.38-9.47l-7.65-2.58c-2.66-2.67-2.44-4.37-2.21-6.17c0.21-1.67,0.45-3.57-1.72-5.75   C8.32,0.9,6.85,0.3,5.35,0.48C2.78,0.8,1.21,3.38,1.14,3.49C0.86,3.96,1.01,4.57,1.49,4.86c0.47,0.28,1.08,0.13,1.37-0.35   C2.87,4.5,4.01,2.66,5.59,2.47c0.86-0.11,1.77,0.31,2.7,1.24c1.48,1.48,1.35,2.51,1.15,4.08c-0.25,1.98-0.56,4.43,2.71,7.78   l1.92,7.05v0.01l0.31,1.17l7.91,7.91C22.49,31.9,22.74,32,23,32s0.51-0.1,0.71-0.29c0.39-0.39,0.39-1.03,0-1.42l-6.58-6.58   l4.16-4.11l9.04,8.141C30.52,27.92,30.76,28,31,28c0.27,0,0.55-0.11,0.74-0.33C32.11,27.26,32.08,26.63,31.67,26.26z M15.98,22.04   l-1.47-5.42l5.19,1.74L15.98,22.04z"/>
</g>
</svg>
