<?xml version="1.0" encoding="utf-8"?>
<!-- Generator: Adobe Illustrator 16.0.0, SVG Export Plug-In . SVG Version: 6.00 Build 0)  -->
<!DOCTYPE svg PUBLIC "-//W3C//DTD SVG 1.1//EN" "http://www.w3.org/Graphics/SVG/1.1/DTD/svg11.dtd">
<svg xmlns="http://www.w3.org/2000/svg" xmlns:xlink="http://www.w3.org/1999/xlink" version="1.1" id="Capa_1" x="0px" y="0px" width="32px" height="32px" viewBox="0 0 32 32" enable-background="new 0 0 32 32" xml:space="preserve">
<g>
	<path d="M27,10h-1.04C25.39,2.12,17.99,0,14,0C13.9,0,4,0.11,4,10c0,3.65-1.41,5.14-2.54,6.34C0.71,17.13,0,17.88,0,19   c0,1.79,1.54,2.23,2.45,2.49c0.85,0.24,1.39,0.43,1.66,0.96c0.16,0.33,0.28,1.05,0.41,1.81C4.97,26.96,5.8,32,12,32   c10.81,0,13.34-9.17,13.87-12.06C30,19.38,30,14.8,30,13C30,10.8,28.21,10,27,10z M25,18c-0.52,0-0.95,0.4-1,0.92   C23.97,19.37,22.95,30,12,30c-3.3,0-4.47-1.65-5.09-4.05c1.42-0.13,4.04-0.62,4.98-2.5c0.25-0.5,0.05-1.101-0.44-1.34   c-0.5-0.25-1.1-0.051-1.34,0.439C9.63,23.5,7.72,23.89,6.5,23.98c0-0.021-0.01-0.03-0.01-0.051c-0.16-0.949-0.29-1.77-0.6-2.38   C5.22,20.2,3.94,19.83,3,19.57C2,19.28,2,19.21,2,19c0-0.31,0.35-0.69,0.91-1.28C4.14,16.41,6,14.45,6,10c0-7.87,7.68-8,8-8   c0.41,0,10,0.1,10,9c0,0.55,0.45,1,1,1h1.99c0.46,0.01,1.01,0.19,1.01,1C28,16.09,27.5,18,25,18z"/>
	<path d="M13.89,13.45C13.84,13.55,12.59,16,10,16s-3.84-2.45-3.89-2.55c-0.25-0.5-0.05-1.1,0.44-1.34c0.5-0.25,1.09-0.05,1.34,0.44   C7.91,12.58,8.67,14,10,14c1.34,0,2.1-1.44,2.11-1.45c0.25-0.49,0.85-0.69,1.34-0.44C13.94,12.36,14.14,12.96,13.89,13.45z"/>
	<circle cx="21" cy="17" r="1"/>
	<circle cx="19" cy="21" r="1"/>
	<circle cx="17" cy="17" r="1"/>
	<circle cx="13" cy="19" r="1"/>
	<circle cx="15" cy="23" r="1"/>
</g>
</svg>
