<?xml version="1.0" encoding="utf-8"?>
<!-- Generator: Adobe Illustrator 16.0.0, SVG Export Plug-In . SVG Version: 6.00 Build 0)  -->
<!DOCTYPE svg PUBLIC "-//W3C//DTD SVG 1.1//EN" "http://www.w3.org/Graphics/SVG/1.1/DTD/svg11.dtd">
<svg xmlns="http://www.w3.org/2000/svg" xmlns:xlink="http://www.w3.org/1999/xlink" version="1.1" id="Capa_1" x="0px" y="0px" width="32px" height="32px" viewBox="0 0 32 32" enable-background="new 0 0 32 32" xml:space="preserve">
<g>
	<path d="M27,8h-4c-0.55,0-1,0.45-1,1s0.45,1,1,1h4c0.81,0,0.99,0.55,1,1v14.98c-2.7-0.08-4.17-0.5-5.73-0.94   C20.49,24.53,18.64,24,15,24c-3.64,0-5.49,0.53-7.27,1.04C6.17,25.48,4.7,25.9,2,25.98V11c0-0.81,0.55-0.99,1-1h10   c0.55,0,1-0.45,1-1s-0.45-1-1-1H3c-1.21,0-3,0.8-3,3v18c0,1.21,0.8,3,3,3h24c1.21,0,3-0.8,3-3V11C30,9.79,29.2,8,27,8z M28,29   c0,0.81-0.55,0.99-1,1H3c-0.81,0-0.99-0.55-1-1v-1.02c2.99-0.08,4.66-0.561,6.27-1.021C10.01,26.47,11.64,26,15,26   c3.36,0,4.99,0.47,6.73,0.96C23.34,27.42,25.01,27.9,28,27.98V29z"/>
</g>
<g>
	<path d="M9,0C8.45,0,8.01,0.44,8,0.99c0,0.55,0.44,1,0.99,1.01c0.33,0,7.23,0.22,8.72,10.69C17.02,12.27,16.13,12,15,12   c-3.96,0-5,3.27-5,5c0,1.73,1.04,5,5,5s5-3.27,5-5C20,0.19,9.11,0,9,0z M15,20c-2.82,0-2.99-2.5-3-2.99C12.01,16.5,12.18,14,15,14   c2.82,0,2.99,2.5,3,3C17.99,17.51,17.82,20,15,20z"/>
</g>
</svg>
