<?xml version="1.0" encoding="utf-8"?>
<!-- Generator: Adobe Illustrator 16.0.0, SVG Export Plug-In . SVG Version: 6.00 Build 0)  -->
<!DOCTYPE svg PUBLIC "-//W3C//DTD SVG 1.1//EN" "http://www.w3.org/Graphics/SVG/1.1/DTD/svg11.dtd">
<svg xmlns="http://www.w3.org/2000/svg" xmlns:xlink="http://www.w3.org/1999/xlink" version="1.1" id="Capa_1" x="0px" y="0px" width="32px" height="32px" viewBox="0 0 32 32" enable-background="new 0 0 32 32" xml:space="preserve">
<g>
	<g>
		<g>
			<polygon points="20,14 20,6 2,6 2,28 20,28 20,20 22,20 22,30 0,30 0,4 22,4 22,14    "/>
		</g>
		<g>
			<polygon points="16,10 16,24 14,24 14,18 8,18 8,24 6,24 6,10 8,10 8,16 14,16 14,10    "/>
		</g>
	</g>
</g>
<g>
	<polygon points="30.41,17 25.71,21.71 24.29,20.29 26.59,18 18,18 18,16 26.59,16 24.29,13.71 25.71,12.29  "/>
</g>
</svg>
