<?xml version="1.0" encoding="utf-8"?>
<!-- Generator: Adobe Illustrator 16.0.0, SVG Export Plug-In . SVG Version: 6.00 Build 0)  -->
<!DOCTYPE svg PUBLIC "-//W3C//DTD SVG 1.1//EN" "http://www.w3.org/Graphics/SVG/1.1/DTD/svg11.dtd">
<svg xmlns="http://www.w3.org/2000/svg" xmlns:xlink="http://www.w3.org/1999/xlink" version="1.1" id="Capa_1" x="0px" y="0px" width="32px" height="32px" viewBox="0 0 32 32" enable-background="new 0 0 32 32" xml:space="preserve">
<g>
	<path d="M18,16l-3,3l-3-3c-8,0-8,12-8,12v4h22v-4C26,28,26,16,18,16z M24,30H6v-2c0-0.09,0.09-9.12,5.23-9.94L15,21.83l3.77-3.771   C23.91,18.88,24,27.91,24,28V30z"/>
</g>
<g>
	<path d="M15,2c2.757,0,5,2.691,5,6s-2.243,6-5,6s-5-2.691-5-6S12.243,2,15,2L15,2z M15,0c-3.866,0-7,3.582-7,8s3.134,8,7,8   s7-3.582,7-8S18.866,0,15,0L15,0z"/>
</g>
<g>
	<polygon points="22,24 22,26 20,26 20,28 18,28 18,26 16,26 16,24 18,24 18,22 20,22 20,24  "/>
</g>
</svg>
