<?xml version="1.0" encoding="utf-8"?>
<!-- Generator: Adobe Illustrator 16.0.0, SVG Export Plug-In . SVG Version: 6.00 Build 0)  -->
<!DOCTYPE svg PUBLIC "-//W3C//DTD SVG 1.1//EN" "http://www.w3.org/Graphics/SVG/1.1/DTD/svg11.dtd">
<svg xmlns="http://www.w3.org/2000/svg" xmlns:xlink="http://www.w3.org/1999/xlink" version="1.1" id="Capa_1" x="0px" y="0px" width="32px" height="32px" viewBox="0 0 32 32" enable-background="new 0 0 32 32" xml:space="preserve">
<path d="M29.71,2.29c-1.08-1.08-2.29-1.62-3.601-1.62c-2.17,0-3.75,1.56-3.819,1.62L19,5.58l-1.29-1.29c-0.39-0.39-1.03-0.39-1.42,0  l-4,4c-0.39,0.39-0.39,1.03,0,1.42L13.58,11L0.29,24.29C0.11,24.48,0,24.73,0,25v6c0,0.55,0.45,1,1,1h6c0.27,0,0.52-0.109,0.71-0.29  L21,18.42l1.29,1.29C22.49,19.9,22.74,20,23,20s0.51-0.1,0.71-0.29l4-4c0.39-0.39,0.39-1.03,0-1.42L26.41,13l3.3-3.29  C30.99,8.42,32.641,5.23,29.71,2.29z M6.59,30H2v-4.59L3.41,24h9.18L6.59,30z M19.59,17.01l-5,4.99H5.41L15,12.42L19.59,17V17.01z   M23,17.59L14.41,9L17,6.42L25.59,15L23,17.59z M28.29,8.29L25,11.58L20.42,7l3.28-3.29c0.01-0.01,1.09-1.04,2.409-1.04  c0.771,0,1.479,0.34,2.181,1.04C30.5,5.91,28.52,8.06,28.29,8.29z"/>
</svg>
