<?xml version="1.0" encoding="utf-8"?>
<!-- Generator: Adobe Illustrator 16.0.0, SVG Export Plug-In . SVG Version: 6.00 Build 0)  -->
<!DOCTYPE svg PUBLIC "-//W3C//DTD SVG 1.1//EN" "http://www.w3.org/Graphics/SVG/1.1/DTD/svg11.dtd">
<svg xmlns="http://www.w3.org/2000/svg" xmlns:xlink="http://www.w3.org/1999/xlink" version="1.1" id="Capa_1" x="0px" y="0px" width="32px" height="32px" viewBox="0 0 32 32" enable-background="new 0 0 32 32" xml:space="preserve">
<g>
	<path d="M19,4h-8C0.12,4,0,22.22,0,23v4c0,0.55,0.45,1,1,1h28c0.55,0,1-0.45,1-1v-4C30,22.22,29.88,4,19,4z M11,6h8   c7.61,0,8.79,12.35,8.97,16H2.03C2.21,18.35,3.38,6,11,6z M28,26H2v-2h26V26z"/>
</g>
<g>
	<rect x="14" y="8" width="2" height="8"/>
</g>
<g>
	<rect x="14" y="18" width="2" height="2"/>
</g>
</svg>
