<?xml version="1.0" encoding="utf-8"?>
<!-- Generator: Adobe Illustrator 16.0.0, SVG Export Plug-In . SVG Version: 6.00 Build 0)  -->
<!DOCTYPE svg PUBLIC "-//W3C//DTD SVG 1.1//EN" "http://www.w3.org/Graphics/SVG/1.1/DTD/svg11.dtd">
<svg xmlns="http://www.w3.org/2000/svg" xmlns:xlink="http://www.w3.org/1999/xlink" version="1.1" id="Capa_1" x="0px" y="0px" width="32px" height="32px" viewBox="0 0 32 32" enable-background="new 0 0 32 32" xml:space="preserve">
<g>
	<path d="M4,0v32h24V0H4z M26,30H6V2h20V30z"/>
</g>
<g>
	<polygon points="14,6 14,8 20,8 20,10 14,10 14,12 20,12 20,14 12,14 12,4 20,4 20,6  "/>
</g>
<g>
	<rect x="8" y="22" width="16" height="2"/>
</g>
<g>
	<rect x="8" y="26" width="16" height="2"/>
</g>
<g>
	<polygon points="14,16 14,18 12,18 12,20 10,20 10,16  "/>
</g>
<g>
	<polygon points="22,16 22,20 20,20 20,18 18,18 18,16  "/>
</g>
</svg>
