<?xml version="1.0" encoding="utf-8"?>
<!-- Generator: Adobe Illustrator 16.0.0, SVG Export Plug-In . SVG Version: 6.00 Build 0)  -->
<!DOCTYPE svg PUBLIC "-//W3C//DTD SVG 1.1//EN" "http://www.w3.org/Graphics/SVG/1.1/DTD/svg11.dtd">
<svg xmlns="http://www.w3.org/2000/svg" xmlns:xlink="http://www.w3.org/1999/xlink" version="1.1" id="Capa_1" x="0px" y="0px" width="32px" height="32px" viewBox="0 0 32 32" enable-background="new 0 0 32 32" xml:space="preserve">
<g>
	<path d="M22,8V4H8v4H0v22h30V8H22z M10,6h10v2H10V6z M28,28H2V10h26V28z"/>
</g>
<g>
	<path d="M10.642,16.115c1.327,2.25,3.65,5.026,7.553,6.742C17.295,23.479,16.187,24,15,24c-2.757,0-5-2.243-5-5   C10,17.967,10.268,16.979,10.642,16.115 M11,12c-1.27,1.27-3,4-3,7c0,3.87,3.13,7,7,7c4,0,7-4,7-4C13,20,11,12,11,12L11,12z"/>
</g>
</svg>
