<?xml version="1.0" encoding="utf-8"?>
<!-- Generator: Adobe Illustrator 16.0.0, SVG Export Plug-In . SVG Version: 6.00 Build 0)  -->
<!DOCTYPE svg PUBLIC "-//W3C//DTD SVG 1.1//EN" "http://www.w3.org/Graphics/SVG/1.1/DTD/svg11.dtd">
<svg xmlns="http://www.w3.org/2000/svg" xmlns:xlink="http://www.w3.org/1999/xlink" version="1.1" id="Capa_1" x="0px" y="0px" width="32px" height="32px" viewBox="0 0 32 32" enable-background="new 0 0 32 32" xml:space="preserve">
<g>
	<path d="M29.85,13.02C26.24,9.41,19.23,12.05,17.7,12.69l-4.1-0.68l-1-6.02l3.25-0.47l-0.29-1.97l-3.29,0.47l-0.53-3.18L9.77,1.16   l1.75,10.5L1.02,9.91l-0.33,1.97l3.18,0.53l-0.47,3.3l1.98,0.28l0.47-3.25l6.02,1l0.68,4.1c-0.64,1.53-3.28,8.54,0.33,12.15   c0.03,0.029,0.85,0.84,1.97,1.35c0.64,0.29,1.27,0.44,1.87,0.44c0.94,0,1.799-0.36,2.52-1.08c2.24-2.24,0.52-5.141-0.7-6.37   c-1.15-1.14-3.7-2.2-5.11-2.73c0.31-1.33,0.75-2.51,1.07-3.22l0.12-0.27l-0.67-4.021l4.01,0.67l0.28-0.12   c0.71-0.32,1.88-0.76,3.22-1.07c0.53,1.41,1.59,3.96,2.73,5.11c0.79,0.79,2.29,1.79,3.85,1.79c0.86,0,1.729-0.3,2.52-1.09   C32.79,17.15,31.07,14.24,29.85,13.02z M17.12,25.75c0.09,0.08,2.09,2.15,0.71,3.53c-1.39,1.39-3.45-0.62-3.54-0.7   c-1.18-1.18-1.4-3.08-1.2-4.97C14.6,24.2,16.42,25.05,17.12,25.75z M29.14,17.97c-1.38,1.391-3.449-0.62-3.529-0.71   c-0.75-0.75-1.601-2.64-2.141-4.03c1.891-0.2,3.78,0.02,4.96,1.2C28.52,14.52,30.53,16.58,29.14,17.97z"/>
</g>
</svg>
