<?xml version="1.0" encoding="utf-8"?>
<!-- Generator: Adobe Illustrator 16.0.0, SVG Export Plug-In . SVG Version: 6.00 Build 0)  -->
<!DOCTYPE svg PUBLIC "-//W3C//DTD SVG 1.1//EN" "http://www.w3.org/Graphics/SVG/1.1/DTD/svg11.dtd">
<svg xmlns="http://www.w3.org/2000/svg" xmlns:xlink="http://www.w3.org/1999/xlink" version="1.1" id="Capa_1" x="0px" y="0px" width="32px" height="32px" viewBox="0 0 32 32" enable-background="new 0 0 32 32" xml:space="preserve">
<g>
	<g>
		<path d="M30.41,6.42c-0.82-0.82-1.95-1.24-3.08-1.17c0.07-1.1-0.32-2.23-1.16-3.08C25.41,1.42,24.41,1,23.34,1    s-2.07,0.42-2.83,1.17c-2.319,2.32-1.63,4.81-0.63,6.3l-5,4.99l1.42,1.42l5.63-5.64c0.391-0.39,0.391-1.02,0-1.41    c-0.22-0.22-2.069-2.18,0-4.24c0.75-0.76,2.07-0.76,2.82,0c0.78,0.78,0.78,2.05,0,2.83c-0.19,0.19-0.29,0.45-0.29,0.7    c0,0.26,0.1,0.51,0.29,0.71c0.39,0.39,1.03,0.39,1.42,0c0.76-0.76,2.07-0.76,2.83,0c0.78,0.78,0.78,2.05,0,2.83    c-0.65,0.65-1.31,0.96-2.02,0.96c-1.23,0-2.221-0.96-2.23-0.96c-0.18-0.19-0.44-0.29-0.7-0.29c-0.27,0-0.52,0.1-0.71,0.29    l-5.63,5.63l1.41,1.41l5.01-5c0.65,0.43,1.66,0.92,2.851,0.92c1.25,0,2.399-0.52,3.43-1.55C31.97,10.51,31.97,7.98,30.41,6.42z     M16.29,17.71l-5.68,5.68c-0.19,0.181-0.29,0.44-0.29,0.7c0,0.271,0.1,0.521,0.29,0.71c0.22,0.22,2.06,2.181,0,4.24    c-0.76,0.76-2.07,0.76-2.83,0C7.4,28.66,7.2,28.16,7.2,27.63c0-0.54,0.2-1.04,0.58-1.42c0.2-0.19,0.3-0.45,0.3-0.7    c0-0.26-0.1-0.51-0.3-0.71c-0.39-0.39-1.02-0.39-1.41,0c-0.76,0.76-2.07,0.76-2.83,0c-0.78-0.78-0.78-2.05,0-2.83    c0.65-0.649,1.31-0.96,2.02-0.96c1.22,0,2.22,0.96,2.22,0.96c0.39,0.391,1.03,0.391,1.42,0l5.68-5.67l-1.42-1.42l-5.05,5.05    c-0.65-0.43-1.66-0.92-2.85-0.92c-1.25,0-2.4,0.521-3.43,1.55c-1.56,1.561-1.56,4.091,0,5.65c0.81,0.82,1.94,1.24,3.07,1.17v0.25    c0,1.07,0.41,2.07,1.17,2.83c0.76,0.75,1.76,1.17,2.83,1.17c1.07,0,2.07-0.42,2.83-1.17c2.31-2.32,1.63-4.81,0.63-6.3l5.04-5.04    L16.29,17.71z"/>
	</g>
</g>
<g>
	<rect x="18" y="22" width="2" height="4"/>
</g>
<g>
	<rect x="22" y="18" width="4" height="2"/>
</g>
<g>
	<rect x="12" y="6" width="2" height="4"/>
</g>
<g>
	<rect x="6" y="12" width="4" height="2"/>
</g>
</svg>
