<?xml version="1.0" encoding="utf-8"?>
<!-- Generator: Adobe Illustrator 16.0.0, SVG Export Plug-In . SVG Version: 6.00 Build 0)  -->
<!DOCTYPE svg PUBLIC "-//W3C//DTD SVG 1.1//EN" "http://www.w3.org/Graphics/SVG/1.1/DTD/svg11.dtd">
<svg xmlns="http://www.w3.org/2000/svg" xmlns:xlink="http://www.w3.org/1999/xlink" version="1.1" id="Capa_1" x="0px" y="0px" width="32px" height="32px" viewBox="0 0 32 32" enable-background="new 0 0 32 32" xml:space="preserve">
<g>
	<path d="M30,13c0,0.19-0.08,4.75-6.68,6.95c-1.221,0.41-2.311,0.609-3.25,0.609c-1.051,0-1.92-0.25-2.61-0.75   c-0.79-0.569-1.19-1.38-1.35-2.04c-0.29,0.08-0.6,0.15-0.91,0.211c-5.11,1.02-8,4.949-9.56,8.25c0.39,0.27,3.72,2.47,6.91,0.88   C15.91,25.43,16,23.02,16,23c0-0.55,0.45-1,1-1s1,0.45,1,1c0,0.15-0.05,3.64-4.55,5.89c-1.17,0.591-2.32,0.801-3.39,0.801   c-2.36,0-4.33-1.04-5.2-1.58C4.22,29.86,4,31.13,3.99,31.17C3.9,31.65,3.48,32,3,32c-0.05,0-0.11,0-0.17-0.01   c-0.54-0.101-0.91-0.61-0.82-1.15C2.06,30.61,2.52,27.99,3.98,25c-0.33-1.45-1.71-8.75,2.57-10.89c1.31-0.66,1.95-1.59,1.95-2.86   c0-0.99-0.39-1.79-0.39-1.8c-0.25-0.5-0.05-1.1,0.44-1.34c0.5-0.25,1.1-0.05,1.34,0.44c0.85,1.7,1.43,5.41-2.44,7.34   c-1.98,0.99-2.08,4.12-1.87,6.379c1.49-2.14,3.56-4.159,6.42-5.39c0.02-0.93,0.33-6.66,4.55-8.77C19.96,6.4,20,3.03,20,3   c0-0.55,0.45-1,1-1s1,0.45,1,1c0,0.19-0.05,4.64-4.55,6.89c-2.61,1.31-3.24,4.74-3.4,6.31c0.24-0.07,0.49-0.13,0.75-0.18   C24.04,14.17,26,4.9,26.02,4.8c0.11-0.54,0.631-0.89,1.181-0.78c0.54,0.11,0.89,0.63,0.78,1.18c-0.021,0.09-1.841,8.73-9.961,11.95   c0.04,0.25,0.181,0.739,0.631,1.05c0.739,0.52,2.18,0.47,4.029-0.15c5.17-1.72,5.32-4.93,5.32-5.06c0.01-0.55,0.46-0.98,1-0.98   h0.01C29.56,12.01,30,12.45,30,13z"/>
</g>
</svg>
