<?xml version="1.0" encoding="utf-8"?>
<!-- Generator: Adobe Illustrator 16.0.0, SVG Export Plug-In . SVG Version: 6.00 Build 0)  -->
<!DOCTYPE svg PUBLIC "-//W3C//DTD SVG 1.1//EN" "http://www.w3.org/Graphics/SVG/1.1/DTD/svg11.dtd">
<svg xmlns="http://www.w3.org/2000/svg" xmlns:xlink="http://www.w3.org/1999/xlink" version="1.1" id="Capa_1" x="0px" y="0px" width="32px" height="32px" viewBox="0 0 32 32" enable-background="new 0 0 32 32" xml:space="preserve">
<g>
	<g>
		<path d="M28.04,10c0,0.1-0.11,8.69-8,11.29V29c0,0.57-0.47,1.04-1.04,1.04s-1.04-0.47-1.04-1.04v-7.2    c-0.9,0.16-1.89,0.24-2.96,0.24c-0.57,0-1.04-0.47-1.04-1.04s0.47-1.04,1.04-1.04c10.84,0,10.96-9.55,10.96-9.96    c0-0.32-0.19-7.96-10.96-7.96C4.23,2.04,4.04,9.68,4.04,10c0,0.23,0.24,5.96,10.96,5.96c0.57,0,1.04,0.47,1.04,1.04    c0,0.57-0.47,1.04-1.04,1.04c-0.59,0-1.15-0.021-1.68-0.05c-0.1,0.029-0.2,0.05-0.31,0.05c-0.5,0-2.97,0.17-2.97,2.96    c0,2.91,4.91,2.96,4.96,2.96c0.57,0,1.04,0.47,1.04,1.04v4c0,0.57-0.47,1.04-1.04,1.04s-1.04-0.47-1.04-1.04v-3.02    c-2.51-0.261-6-1.511-6-4.98c0-1.68,0.58-2.84,1.4-3.61c-7.3-1.88-7.4-7.32-7.4-7.39C1.96,9.9,2.11-0.04,15-0.04    C27.89-0.04,28.04,9.9,28.04,10z"/>
	</g>
</g>
</svg>
