<?xml version="1.0" encoding="utf-8"?>
<!-- Generator: Adobe Illustrator 16.0.0, SVG Export Plug-In . SVG Version: 6.00 Build 0)  -->
<!DOCTYPE svg PUBLIC "-//W3C//DTD SVG 1.1//EN" "http://www.w3.org/Graphics/SVG/1.1/DTD/svg11.dtd">
<svg xmlns="http://www.w3.org/2000/svg" xmlns:xlink="http://www.w3.org/1999/xlink" version="1.1" id="Capa_1" x="0px" y="0px" width="32px" height="32px" viewBox="0 0 32 32" enable-background="new 0 0 32 32" xml:space="preserve">
<g>
	<path d="M22.57,14.24C24.47,12.89,26,10.62,26,7c0-5.54-5.23-7-8-7c-0.39,0-3.86,0.06-5.4,2.03c-0.47,0.61-0.96,1.66-0.57,3.21   c0.49,1.95-0.33,2.42-1.69,3.19c-0.9,0.52-1.92,1.1-2.29,2.27C8.02,10.78,8,10.86,7.99,10.94C7.07,11.55,6,12.76,6,15   c0,2.76,1.59,4.11,3.14,4.66C8.47,20.42,8,21.5,8,23c0,3.38,2.38,4.64,4.16,4.93C12.06,28.24,12,28.6,12,29v2c0,0.55,0.45,1,1,1   s1-0.45,1-1v-2c0-0.8,0.55-0.99,1.01-1H19c0.55,0,1-0.45,1-1s-0.45-1-1-1h-5.99C12.5,25.99,10,25.82,10,23s2.5-2.99,3-3h6   c0.55,0,1-0.45,1-1s-0.45-1-1-1h-7.99C10.5,17.99,8,17.82,8,15c0-0.7,0.14-1.27,0.43-1.72c0.02,0.03,0.04,0.06,0.06,0.09   C9.73,15.07,12.75,16,17,16h3.99C21.5,16.01,24,16.18,24,19c0,2.82-2.5,2.99-3,3h-6c-0.55,0-1,0.45-1,1s0.45,1,1,1h3.99   C19.5,24.01,22,24.18,22,27s-2.5,2.99-3,3h-2c-0.55,0-1,0.45-1,1s0.45,1,1,1h2c1.73,0,5-1.04,5-5c0-1.5-0.47-2.58-1.14-3.34   C24.41,23.11,26,21.76,26,19C26,16.07,24.2,14.73,22.57,14.24z M17,14c-4.11,0-6.25-0.93-6.89-1.81C9.9,11.9,9.85,11.63,9.95,11.3   c0.14-0.42,0.72-0.75,1.38-1.13c1.39-0.79,3.5-1.99,2.64-5.41c-0.21-0.84,0.02-1.25,0.21-1.49C14.97,2.24,17.26,2,18,2   c0.24,0,6,0.08,6,5C24,13.88,17.28,14,17,14z"/>
</g>
</svg>
