<?xml version="1.0" encoding="utf-8"?>
<!-- Generator: Adobe Illustrator 16.0.0, SVG Export Plug-In . SVG Version: 6.00 Build 0)  -->
<!DOCTYPE svg PUBLIC "-//W3C//DTD SVG 1.1//EN" "http://www.w3.org/Graphics/SVG/1.1/DTD/svg11.dtd">
<svg xmlns="http://www.w3.org/2000/svg" xmlns:xlink="http://www.w3.org/1999/xlink" version="1.1" id="Capa_1" x="0px" y="0px" width="32px" height="32px" viewBox="0 0 32 32" enable-background="new 0 0 32 32" xml:space="preserve">
<g>
	<path d="M28.14,8.23c0.03-0.3,0.03-0.64-0.02-1c-0.22-1.52-1.22-2.65-2.8-3.18c-2.59-0.86-4.13,0.68-4.95,1.5   C20.26,5.66,20.11,5.81,20,5.91C18.92,4.8,17.32,4,15,4c-2.32,0-3.92,0.8-5,1.91c-0.11-0.1-0.26-0.25-0.37-0.36   c-0.82-0.82-2.36-2.36-4.95-1.5C3.1,4.58,2.1,5.71,1.89,7.23c-0.05,0.36-0.06,0.7-0.04,1C0.76,8.68,0,9.75,0,11c0,1.66,1.34,3,3,3   s3-1.34,3-3c0-1.36-0.9-2.5-2.14-2.87c-0.03-0.18-0.03-0.39,0-0.61c0.12-0.78,0.58-1.28,1.46-1.57c1.31-0.44,2,0.12,2.9,1.02   c0.2,0.2,0.4,0.4,0.62,0.57C8.22,8.75,8,10.04,8,11c0,2.3,0.96,3.44,1.73,4.35c1.06,1.26,1.98,2.35,0.32,7.33   c-0.52,1.57-0.11,2.65,0.32,3.28c1.29,1.86,4.26,2.03,4.59,2.04h0.08c0.33-0.01,3.3-0.18,4.59-2.04c0.43-0.63,0.84-1.71,0.32-3.28   c-1.66-4.979-0.74-6.07,0.319-7.33C21.04,14.44,22,13.3,22,11c0-0.96-0.22-2.25-0.84-3.46c0.22-0.17,0.42-0.37,0.62-0.57   c0.899-0.9,1.59-1.46,2.899-1.02c1.4,0.46,1.561,1.48,1.49,2.17C24.91,8.48,24,9.63,24,11c0,1.66,1.34,3,3,3s3-1.34,3-3   C30,9.74,29.23,8.67,28.14,8.23z M4,11c0,0.55-0.45,1-1,1s-1-0.45-1-1s0.45-1,1-1S4,10.45,4,11z M18.74,14.06   c-1.53,1.82-2.56,3.65-0.69,9.26c0.32,0.939,0.03,1.359-0.06,1.5C17.6,25.37,16.73,25.69,16,25.85v-12c1.45-0.44,2-1.84,2-2.85   c0-0.55-0.44-0.99-0.99-0.99H17c-0.54,0-0.99,0.44-1,0.98C15.99,11.45,15.81,12,15,12c-0.8,0-0.99-0.55-1-1.01   C13.99,10.44,13.55,10,13,10s-1,0.45-1,1c0,1.01,0.55,2.41,2,2.85v12c-0.73-0.159-1.6-0.479-1.99-1.029   c-0.09-0.141-0.38-0.561-0.06-1.5c1.87-5.61,0.84-7.44-0.69-9.26C10.55,13.23,10,12.57,10,11c0-0.2,0.06-5,5-5c4.82,0,5,4.49,5,5   C20,12.57,19.45,13.23,18.74,14.06z M27,12c-0.55,0-1-0.45-1-1s0.45-1,1-1s1,0.45,1,1S27.55,12,27,12z"/>
</g>
</svg>
