<?xml version="1.0" encoding="utf-8"?>
<!-- Generator: Adobe Illustrator 16.0.0, SVG Export Plug-In . SVG Version: 6.00 Build 0)  -->
<!DOCTYPE svg PUBLIC "-//W3C//DTD SVG 1.1//EN" "http://www.w3.org/Graphics/SVG/1.1/DTD/svg11.dtd">
<svg xmlns="http://www.w3.org/2000/svg" xmlns:xlink="http://www.w3.org/1999/xlink" version="1.1" id="Capa_1" x="0px" y="0px" width="32px" height="32px" viewBox="0 0 32 32" enable-background="new 0 0 32 32" xml:space="preserve">
<g>
	<path d="M27,6c1.654,0,3,1.346,3,3s-1.346,3-3,3s-3-1.346-3-3S25.346,6,27,6 M27,4c-2.762,0-5,2.239-5,5s2.238,5,5,5s5-2.239,5-5   S29.762,4,27,4L27,4z"/>
</g>
<g>
	<path d="M22,18c3.309,0,6,2.691,6,6s-2.691,6-6,6s-6-2.691-6-6S18.691,18,22,18 M22,16c-4.418,0-8,3.582-8,8s3.582,8,8,8   s8-3.582,8-8S26.418,16,22,16L22,16z"/>
</g>
<path d="M17.38,15.13l1.851-0.74C16.9,6.9,10,0,10,0S0,10,0,19s10,9,10,9s0.82,0,2-0.22V25.77c-0.99,0.2-1.76,0.23-2,0.23  c-0.33,0-8-0.08-8-7c0-6.11,5.37-13.03,8-16.04C12.08,5.35,15.89,10.18,17.38,15.13z"/>
</svg>
