<?xml version="1.0" encoding="utf-8"?>
<!-- Generator: Adobe Illustrator 16.0.0, SVG Export Plug-In . SVG Version: 6.00 Build 0)  -->
<!DOCTYPE svg PUBLIC "-//W3C//DTD SVG 1.1//EN" "http://www.w3.org/Graphics/SVG/1.1/DTD/svg11.dtd">
<svg xmlns="http://www.w3.org/2000/svg" xmlns:xlink="http://www.w3.org/1999/xlink" version="1.1" id="Capa_1" x="0px" y="0px" width="32px" height="32px" viewBox="0 0 32 32" enable-background="new 0 0 32 32" xml:space="preserve">
<g>
	<g>
		<path d="M26,0H4C2,0,2,2,2,2v28c0,2,2,2,2,2h22c2,0,2-2,2-2V2C28,2,28,0,26,0z M26,30c0,0.01-22,0-22,0C3.99,30,4,2,4,2    c0-0.01,22,0,22,0V30z"/>
	</g>
</g>
<g>
	<path d="M20,18v-2h-4v-2h-2v2h-4v6h4v2h-4v2h4v2h2v-2h4v-6h-4v-2H20z M14,20h-2v-2h2V20z M18,22v2h-2v-2H18z"/>
</g>
<g>
	<polygon points="12,6 12,8 10,8 10,10 8,10 8,8 6,8 6,6 8,6 8,4 10,4 10,6  "/>
</g>
<g>
	<rect x="18" y="4" width="6" height="2"/>
</g>
<g>
	<rect x="16" y="8" width="8" height="2"/>
</g>
</svg>
