<?xml version="1.0" encoding="utf-8"?>
<!-- Generator: Adobe Illustrator 16.0.0, SVG Export Plug-In . SVG Version: 6.00 Build 0)  -->
<!DOCTYPE svg PUBLIC "-//W3C//DTD SVG 1.1//EN" "http://www.w3.org/Graphics/SVG/1.1/DTD/svg11.dtd">
<svg xmlns="http://www.w3.org/2000/svg" xmlns:xlink="http://www.w3.org/1999/xlink" version="1.1" id="Capa_1" x="0px" y="0px" width="32px" height="32px" viewBox="0 0 32 32" enable-background="new 0 0 32 32" xml:space="preserve">
<g>
	<g>
		<path d="M15,22c-0.014,0-0.028,0-0.042-0.001c-0.394-0.017-0.741-0.262-0.887-0.628l-2.986-7.465l-1.137,3.41    C9.813,17.725,9.431,18,9,18H0v-2h8.279l1.772-5.316c0.133-0.398,0.5-0.671,0.919-0.683c0.407-0.023,0.802,0.238,0.958,0.628    l3.173,7.932l3.004-6.008c0.34-0.678,1.449-0.678,1.789,0L21.618,16H30v2h-9c-0.379,0-0.725-0.214-0.895-0.553L19,15.236    l-3.105,6.211C15.725,21.787,15.377,22,15,22z"/>
	</g>
</g>
<g>
	<polygon points="28,14 26,14 26,6 4,6 4,14 2,14 2,4 28,4  "/>
</g>
<g>
	<polygon points="28,28 2,28 2,20 4,20 4,26 26,26 26,20 28,20  "/>
</g>
</svg>
