<?xml version="1.0" encoding="utf-8"?>
<!-- Generator: Adobe Illustrator 16.0.0, SVG Export Plug-In . SVG Version: 6.00 Build 0)  -->
<!DOCTYPE svg PUBLIC "-//W3C//DTD SVG 1.1//EN" "http://www.w3.org/Graphics/SVG/1.1/DTD/svg11.dtd">
<svg xmlns="http://www.w3.org/2000/svg" xmlns:xlink="http://www.w3.org/1999/xlink" version="1.1" id="Capa_1" x="0px" y="0px" width="32px" height="32px" viewBox="0 0 32 32" enable-background="new 0 0 32 32" xml:space="preserve">
<g>
	<g>
		<g>
			<path d="M23,0H9C5.04,0,4,3.27,4,5v20c0,2.42,1.25,7,6,7h11c2.42,0,7-1.46,7-7V5C28,1.04,24.73,0,23,0z M26,25c0,4.82-4.49,5-5,5     H10c-3.93,0-4-4.8-4-5V10h20V25z M26,8H6V5.01C6.01,4.5,6.18,2,9,2h13.99C23.5,2.01,26,2.18,26,5V8z"/>
		</g>
	</g>
</g>
<g>
	<g>
		<g>
			<rect x="14" y="4" width="4" height="2"/>
		</g>
	</g>
</g>
<g>
	<path d="M8,12v10h10V12H8z M16,20h-6v-6h6V20z"/>
</g>
<g>
	<rect x="20" y="12" width="4" height="2"/>
</g>
<g>
	<rect x="20" y="16" width="4" height="2"/>
</g>
<g>
	<rect x="20" y="20" width="4" height="2"/>
</g>
<g>
	<rect x="8" y="24" width="16" height="2"/>
</g>
</svg>
