<?xml version="1.0" encoding="utf-8"?>
<!-- Generator: Adobe Illustrator 16.0.0, SVG Export Plug-In . SVG Version: 6.00 Build 0)  -->
<!DOCTYPE svg PUBLIC "-//W3C//DTD SVG 1.1//EN" "http://www.w3.org/Graphics/SVG/1.1/DTD/svg11.dtd">
<svg xmlns="http://www.w3.org/2000/svg" xmlns:xlink="http://www.w3.org/1999/xlink" version="1.1" id="Capa_1" x="0px" y="0px" width="32px" height="32px" viewBox="0 0 32 32" enable-background="new 0 0 32 32" xml:space="preserve">
<path d="M7,10c-1.66,0-3,1.34-3,3s1.34,3,3,3s3-1.34,3-3S8.66,10,7,10z M7,14c-0.55,0-1-0.45-1-1s0.45-1,1-1s1,0.45,1,1  S7.55,14,7,14z"/>
<path d="M13,14c-1.66,0-3,1.34-3,3s1.34,3,3,3s3-1.34,3-3S14.66,14,13,14z M13,18c-0.55,0-1-0.45-1-1s0.45-1,1-1s1,0.45,1,1  S13.55,18,13,18z"/>
<path d="M20,8V2h2V0H8v2h2v6H0v16h10v3c0,1.73,1.04,5,5,5s5-3.27,5-5v-3h10V8H20z M12,2h6v6h-6V2z M18,11c0,0.55-0.45,1-1,1  s-1-0.45-1-1s0.45-1,1-1S18,10.45,18,11z M3,22c-0.55,0-1-0.45-1-1s0.45-1,1-1s1,0.45,1,1S3.55,22,3,22z M18,26.99  C17.99,27.5,17.82,30,15,30c-2.82,0-2.99-2.5-3-3v-3h6V26.99z M28,22H5.82C5.94,21.69,6,21.35,6,21c0-1.66-1.34-3-3-3  c-0.35,0-0.69,0.06-1,0.18V10h12.18C14.06,10.31,14,10.65,14,11c0,1.66,1.34,3,3,3s3-1.34,3-3c0-0.35-0.06-0.69-0.18-1h4.359  C24.06,10.31,24,10.65,24,11c0,1.66,1.34,3,3,3c0.35,0,0.69-0.06,1-0.18V22z M27,12c-0.55,0-1-0.45-1-1s0.45-1,1-1s1,0.45,1,1  S27.55,12,27,12z"/>
<path d="M23,16c-1.66,0-3,1.34-3,3s1.34,3,3,3s3-1.34,3-3S24.66,16,23,16z M23,20c-0.55,0-1-0.45-1-1s0.45-1,1-1s1,0.45,1,1  S23.55,20,23,20z"/>
</svg>
