<?xml version="1.0" encoding="utf-8"?>
<!-- Generator: Adobe Illustrator 16.0.0, SVG Export Plug-In . SVG Version: 6.00 Build 0)  -->
<!DOCTYPE svg PUBLIC "-//W3C//DTD SVG 1.1//EN" "http://www.w3.org/Graphics/SVG/1.1/DTD/svg11.dtd">
<svg xmlns="http://www.w3.org/2000/svg" xmlns:xlink="http://www.w3.org/1999/xlink" version="1.1" id="Capa_1" x="0px" y="0px" width="32px" height="32px" viewBox="0 0 32 32" enable-background="new 0 0 32 32" xml:space="preserve">
<g>
	<path d="M31.8,16.4C31.61,16.15,31.31,16,31,16h-7.21c-0.93-5.92-4.61-6-4.78-6H18.6l-2.59,2.59L13.42,10h-0.41   c-0.17,0-3.85,0.08-4.78,6H1c-0.31,0-0.61,0.15-0.8,0.4c-0.19,0.25-0.25,0.57-0.16,0.87l4,14C4.16,31.7,4.55,32,5,32h22   c0.45,0,0.84-0.3,0.96-0.73l4-14C32.05,16.97,31.99,16.65,31.8,16.4z M12.67,12.08l3.34,3.33l3.33-3.33c0.63,0.22,1.9,1,2.43,3.92   H10.25C10.78,13.07,12.06,12.29,12.67,12.08z M26.25,30H5.75l-2.28-8h25.06L26.25,30z M29.1,20H2.9l-0.57-2h27.34L29.1,20z"/>
</g>
<g>
	<path d="M16,0c-2.21,0-4,2.24-4,5s1.79,5,4,5s4-2.24,4-5S18.21,0,16,0z M16,8c-1.07,0-2-1.4-2-3s0.93-3,2-3c1.07,0,2,1.4,2,3   S17.07,8,16,8z"/>
</g>
</svg>
