<?xml version="1.0" encoding="utf-8"?>
<!-- Generator: Adobe Illustrator 16.0.0, SVG Export Plug-In . SVG Version: 6.00 Build 0)  -->
<!DOCTYPE svg PUBLIC "-//W3C//DTD SVG 1.1//EN" "http://www.w3.org/Graphics/SVG/1.1/DTD/svg11.dtd">
<svg xmlns="http://www.w3.org/2000/svg" xmlns:xlink="http://www.w3.org/1999/xlink" version="1.1" id="Capa_1" x="0px" y="0px" width="32px" height="32px" viewBox="0 0 32 32" enable-background="new 0 0 32 32" xml:space="preserve">
<g>
	<path d="M28,14c0-6.62-5.38-12-12-12S4,7.38,4,14c0,2.35,0.67,4.59,1.94,6.54l-1.9,6.17L4,32h24v-5l-1.96-6.44   C27.33,18.61,28,16.35,28,14z M26,30H6v-2h20V30z M22.61,16l3.04,10H6.35l3.08-10H22.61z M10,14c0-3.31,2.69-6,6-6   c3.31,0,6,2.69,6,6H10z M25.22,17.87L24,13.84C23.92,9.5,20.36,6,16,6c-4.36,0-7.92,3.5-8,7.84l-1.23,4C6.26,16.64,6,15.34,6,14   C6,8.49,10.49,4,16,4s10,4.49,10,10C26,15.34,25.74,16.65,25.22,17.87z"/>
</g>
</svg>
