<?xml version="1.0" encoding="utf-8"?>
<!-- Generator: Adobe Illustrator 16.0.0, SVG Export Plug-In . SVG Version: 6.00 Build 0)  -->
<!DOCTYPE svg PUBLIC "-//W3C//DTD SVG 1.1//EN" "http://www.w3.org/Graphics/SVG/1.1/DTD/svg11.dtd">
<svg xmlns="http://www.w3.org/2000/svg" xmlns:xlink="http://www.w3.org/1999/xlink" version="1.1" id="Capa_1" x="0px" y="0px" width="32px" height="32px" viewBox="0 0 32 32" enable-background="new 0 0 32 32" xml:space="preserve">
<g>
	<g>
		<path d="M19.9,4C19.56,2.25,18.28,0,15,0c-3.28,0-4.56,2.25-4.9,4H2v28h26V4H19.9z M8,7c0,0,0-1,1-1h3V5.01    C12.01,4.5,12.18,2,15,2c2.82,0,2.99,2.5,3,3v1h3c0.46,0.01,1,0.2,1,1v1H8V7z M8,10h14v16H8V10z M26,30H4V6h2v22h18V6h2V30z"/>
	</g>
	<g>
		<rect x="14" y="4" width="2" height="2"/>
	</g>
</g>
<g>
	<polygon points="20,16 20,18 16,18 16,22 14,22 14,18 10,18 10,16 14,16 14,12 16,12 16,16  "/>
</g>
</svg>
