<?xml version="1.0" encoding="utf-8"?>
<!-- Generator: Adobe Illustrator 16.0.0, SVG Export Plug-In . SVG Version: 6.00 Build 0)  -->
<!DOCTYPE svg PUBLIC "-//W3C//DTD SVG 1.1//EN" "http://www.w3.org/Graphics/SVG/1.1/DTD/svg11.dtd">
<svg xmlns="http://www.w3.org/2000/svg" xmlns:xlink="http://www.w3.org/1999/xlink" version="1.1" id="Capa_1" x="0px" y="0px" width="32px" height="32px" viewBox="0 0 32 32" enable-background="new 0 0 32 32" xml:space="preserve">
<g>
	<path d="M32,22V9c0-1.73-1.25-5-6-5c-2.01,0-2.98,0.8-3.69,1.38C21.78,5.81,21.52,6,21,6c-0.45,0-0.72-0.15-1.28-0.47   C18.6,4.88,17.07,4,13,4c-1.69,0-3.05,0.54-4.37,1.07C7.44,5.55,6.31,6,5,6C4.19,6,3.56,5.48,2.95,4.98C2.37,4.5,1.77,4,1,4   C0.45,4,0,4.45,0,5v17h4v2.18C2.83,24.58,2,25.69,2,27c0,1.66,1.34,3,3,3s3-1.34,3-3c0-1.31-0.83-2.42-2-2.82V22h20v2.18   c-1.17,0.4-2,1.511-2,2.82c0,1.66,1.34,3,3,3s3-1.34,3-3c0-1.31-0.83-2.42-2-2.82V22H32z M2,6.78C2.72,7.36,3.68,8,5,8   c1.69,0,3.05-0.54,4.37-1.07C10.56,6.45,11.69,6,13,6c3.54,0,4.74,0.7,5.72,1.26C19.35,7.62,20,8,21,8c1.25,0,1.99-0.6,2.57-1.07   C24.18,6.43,24.71,6,26,6c3.83,0,3.99,2.7,4,3v3H2V6.78z M5,28c-0.55,0-1-0.45-1-1s0.45-1,1-1s1,0.45,1,1S5.55,28,5,28z M27,28   c-0.55,0-1-0.45-1-1s0.45-1,1-1s1,0.45,1,1S27.55,28,27,28z M2,20v-6h28v6H2z"/>
</g>
</svg>
