<?xml version="1.0" encoding="utf-8"?>
<!-- Generator: Adobe Illustrator 16.0.0, SVG Export Plug-In . SVG Version: 6.00 Build 0)  -->
<!DOCTYPE svg PUBLIC "-//W3C//DTD SVG 1.1//EN" "http://www.w3.org/Graphics/SVG/1.1/DTD/svg11.dtd">
<svg xmlns="http://www.w3.org/2000/svg" xmlns:xlink="http://www.w3.org/1999/xlink" version="1.1" id="Capa_1" x="0px" y="0px" width="32px" height="32px" viewBox="0 0 32 32" enable-background="new 0 0 32 32" xml:space="preserve">
<g>
	<path d="M9.97,22.11c-0.03-0.021-0.05-0.04-0.07-0.07h0.06C9.96,22.06,9.96,22.09,9.97,22.11z"/>
	<path d="M25.94,6.07c-0.36-1.78-1.801-4.11-5.561-4.11c-3.85,0-5.16,2.13-5.38,3.58c-0.22-1.45-1.53-3.58-5.38-3.58   c-3.76,0-5.2,2.33-5.56,4.11C2.28,6.46-0.04,7.99-0.04,12s2.33,5.55,4.11,5.93C4.45,19.69,5.96,22,9.9,22.04h0.06   c0,0.02,0,0.05,0.01,0.07c0,0.06,0.01,0.12,0.03,0.18l2,7c0.13,0.45,0.55,0.75,1,0.75c0.09,0,0.19-0.01,0.29-0.04   c0.55-0.16,0.87-0.73,0.71-1.29l-1.43-5.02c0.71,0.22,1.51,0.35,2.43,0.35s1.72-0.13,2.43-0.35L16,28.71   c-0.16,0.56,0.16,1.13,0.71,1.29c0.1,0.03,0.2,0.04,0.29,0.04c0.45,0,0.87-0.3,1-0.75l2-7c0.02-0.06,0.03-0.12,0.03-0.18   c0.01-0.021,0.01-0.051,0.01-0.07h0.06c3.94-0.04,5.45-2.35,5.83-4.11c1.78-0.38,4.11-1.92,4.11-5.93S27.72,6.46,25.94,6.07z    M25,15.96c-0.57,0-1.04,0.47-1.04,1.04c0,0.1-0.03,2.18-2.46,2.79c0.39-1,0.54-2.01,0.54-2.79c0-0.57-0.47-1.04-1.04-1.04   s-1.04,0.47-1.04,1.04c0,0.2-0.05,4.96-4.96,4.96c-4.78,0-4.96-4.45-4.96-4.96c0-0.57-0.47-1.04-1.04-1.04S7.96,16.43,7.96,17   c0,0.78,0.15,1.79,0.54,2.79C6.15,19.2,6.04,17.25,6.04,17c0-0.57-0.47-1.04-1.04-1.04c-0.12,0-2.96-0.04-2.96-3.96   c0-3.8,2.67-3.96,2.96-3.96c0.57,0,1.03-0.47,1.04-1.03c0.01-0.5,0.22-2.97,3.58-2.97c3.16,0,3.33,1.76,3.34,1.98   c0,0.03,0,0.06,0.01,0.09C9.81,6.63,8.82,8.29,8.7,8.51C8.44,9,8.62,9.6,9.1,9.88c0.49,0.29,1.12,0.11,1.41-0.36   C10.52,9.5,11.47,8.04,15,8.04c1.76,0,2.87,0.36,3.55,0.72c0.681,0.37,0.92,0.73,0.92,0.73c0.19,0.35,0.55,0.55,0.92,0.55   c0.16,0,0.33-0.04,0.49-0.13c0.5-0.27,0.69-0.9,0.42-1.4c-0.12-0.22-1.109-1.88-4.27-2.4c0.01-0.04,0.01-0.07,0.01-0.11   c0-0.08,0.04-1.96,3.34-1.96c3.36,0,3.57,2.47,3.58,2.96c0,0.57,0.47,1.04,1.04,1.04c0.12,0,2.96,0.04,2.96,3.96   C27.96,15.8,25.29,15.96,25,15.96z"/>
	<path d="M20.1,22.04c-0.02,0.03-0.04,0.05-0.069,0.07c0.01-0.021,0.01-0.051,0.01-0.07H20.1z"/>
</g>
</svg>
