<?xml version="1.0" encoding="utf-8"?>
<!-- Generator: Adobe Illustrator 16.0.0, SVG Export Plug-In . SVG Version: 6.00 Build 0)  -->
<!DOCTYPE svg PUBLIC "-//W3C//DTD SVG 1.1//EN" "http://www.w3.org/Graphics/SVG/1.1/DTD/svg11.dtd">
<svg xmlns="http://www.w3.org/2000/svg" xmlns:xlink="http://www.w3.org/1999/xlink" version="1.1" id="Capa_1" x="0px" y="0px" width="32px" height="32px" viewBox="0 0 32 32" enable-background="new 0 0 32 32" xml:space="preserve">
<g>
	<path d="M30,13c0,1.02-0.57,2.46-2.08,2.88c-0.26,1.49-1.2,3.39-3.479,3.95c0.119,0.54,0.159,1.2-0.03,1.92   c-0.351,1.31-1.34,2.37-2.95,3.18c-2.3,1.15-1.57,3.46-1.479,3.721c0.189,0.54-0.101,1.13-0.631,1.319   c-0.119,0.05-0.239,0.07-0.35,0.07c-0.43,0-0.82-0.271-0.98-0.69c-0.529-1.47-0.689-4.68,2.521-6.279   c1.05-0.521,1.67-1.15,1.86-1.851c0.229-0.85-0.261-1.64-0.261-1.64c-0.319-0.48-0.189-1.13,0.28-1.44   c0.25-0.159,0.53-0.21,0.8-0.149h0.03c2.58-0.141,2.74-2.51,2.75-3c0.01-0.54,0.45-0.99,1-0.99c0.81,0,0.99-0.55,1-1.01   C28,12.55,27.8,2,15,2C2.27,2,2,8.72,2,9.01C2,9.51,2.18,14,7,14c0.55,0,1,0.45,1,1c0.01,0.3,0.22,3,5,3c0.55,0,1,0.45,1,1   s-0.45,1-1,1c-0.28,0-0.56-0.01-0.82-0.03c0.26,0.88,0.95,1.99,2.82,1.99c2.31,0,2.92-0.74,2.96-1.02c0-0.57,0.47-1.011,1.04-1.011   s1.04,0.5,1.04,1.07c0,0.11-0.05,2.63-4.04,3v5c0,0.55-0.45,1-1,1s-1-0.45-1-1v-5.04c-2.79-0.44-3.8-2.729-4-4.35   c-2.62-0.78-3.53-2.54-3.84-3.65C1.31,15.53,0,11.29,0,9c0-0.37,0.17-9,15-9S30,12.87,30,13z"/>
</g>
<g>
	<path d="M22,15c0,0.55-0.45,1-1,1h-4c-3.32,0-4.59-2.3-4.91-4.06C8.88,11.48,8,8.59,8,7c0-0.55,0.45-1,1-1s1,0.45,1,1   c0.01,0.5,0.18,3,3,3c0.55,0,1,0.45,1,1c0.01,0.5,0.18,3,3,3h4C21.55,14,22,14.45,22,15z"/>
</g>
<g>
	<path d="M24,11c0,0.55-0.45,1-1,1s-1-0.45-1-1c0-2.82-2.5-2.99-3.01-3C18.44,7.99,18,7.54,18,6.99C18.01,6.44,18.45,6,19,6   C20.73,6,24,7.04,24,11z"/>
</g>
</svg>
