<?xml version="1.0" encoding="utf-8"?>
<!-- Generator: Adobe Illustrator 16.0.0, SVG Export Plug-In . SVG Version: 6.00 Build 0)  -->
<!DOCTYPE svg PUBLIC "-//W3C//DTD SVG 1.1//EN" "http://www.w3.org/Graphics/SVG/1.1/DTD/svg11.dtd">
<svg xmlns="http://www.w3.org/2000/svg" xmlns:xlink="http://www.w3.org/1999/xlink" version="1.1" id="Capa_1" x="0px" y="0px" width="32px" height="32px" viewBox="0 0 32 32" enable-background="new 0 0 32 32" xml:space="preserve">
<g>
	<path d="M25,8H5c-3.96,0-5,3.27-5,5c0,4.08,1.95,11.91,2.03,12.24L2.22,26h25.56l0.189-0.76C28.05,24.91,30,17.08,30,13   C30,9.04,26.73,8,25,8z M26.21,24H3.79c-0.12-0.49-0.28-1.18-0.46-2h23.34C26.49,22.82,26.33,23.51,26.21,24z M27.08,20H2.92   C2.45,17.61,2,14.85,2,13.01C2.01,12.5,2.18,10,5,10h19.99C25.5,10.01,28,10.18,28,13C28,14.84,27.55,17.61,27.08,20z"/>
</g>
<g>
	<polygon points="18,14 18,16 16,16 16,18 14,18 14,16 12,16 12,14 14,14 14,12 16,12 16,14  "/>
</g>
</svg>
