<?xml version="1.0" encoding="utf-8"?>
<!-- Generator: Adobe Illustrator 16.0.0, SVG Export Plug-In . SVG Version: 6.00 Build 0)  -->
<!DOCTYPE svg PUBLIC "-//W3C//DTD SVG 1.1//EN" "http://www.w3.org/Graphics/SVG/1.1/DTD/svg11.dtd">
<svg xmlns="http://www.w3.org/2000/svg" xmlns:xlink="http://www.w3.org/1999/xlink" version="1.1" id="Capa_1" x="0px" y="0px" width="32px" height="32px" viewBox="0 0 32 32" enable-background="new 0 0 32 32" xml:space="preserve">
<g>
	<path d="M15,0C6.72,0,0,10.72,0,19c0,8.28,6.72,13,15,13c8.28,0,15-4.72,15-13C30,10.72,23.28,0,15,0z M15,2   c1.64,0,3.24,0.54,4.72,1.47C19.21,4.42,17.92,6,15,6s-4.21-1.57-4.73-2.52C11.75,2.54,13.35,2,15,2z M15,30C8.53,30,2,26.6,2,19   C2,13.97,4.76,8.04,8.65,4.68C9.6,6.25,11.57,8,15,8c3.43,0,5.4-1.75,6.35-3.32C25.24,8.04,28,13.97,28,19C28,26.6,21.47,30,15,30z   "/>
</g>
<g>
	<path d="M26.04,21.05c-0.15-1.31-1.07-2.14-1.29-2.31c-0.19-0.17-0.91-0.73-2-0.73c-0.69,0-1.37,0.221-2.03,0.66   c-0.87,0.58-1.72,0.85-2.66,0.85c-0.729,0-1.45-0.159-2.149-0.31c-0.7-0.16-1.42-0.32-2.16-0.32c-0.51,0-0.99,0.08-1.44,0.25   c-0.15-1.109-0.71-2.25-1.64-3.18c-1.11-1.11-2.53-1.69-3.82-1.69c-0.97,0-1.87,0.32-2.54,0.99c-1.56,1.56-1.25,4.41,0.71,6.36   c0.98,0.99,2.2,1.56,3.37,1.67c-0.15,0.81,0.02,1.729,0.87,2.57c0.61,0.62,3.38,2.3,6.87,2.3c2.82,0,5.42-1.061,7.75-3.18   l1.16-1.11l0.08-0.09C26.01,22.69,26.11,21.7,26.04,21.05z M8.84,21.32c-0.81,0-1.71-0.42-2.41-1.11c-0.62-0.62-1.02-1.4-1.1-2.14   c-0.04-0.34-0.04-0.971,0.39-1.4c0.34-0.33,0.8-0.4,1.13-0.4c0.81,0,1.71,0.41,2.41,1.11c1.13,1.13,1.46,2.78,0.7,3.53   C9.63,21.25,9.17,21.32,8.84,21.32z M23.61,22.47l-1.101,1.05c-1.93,1.75-4.08,2.641-6.38,2.641c-3,0-5.23-1.49-5.46-1.71   c-0.57-0.57-0.31-1.09,0-1.41l1.42-1.42c0.51-0.51,1.01-0.73,1.66-0.73c0.52,0,1.11,0.13,1.73,0.271   c0.76,0.17,1.63,0.359,2.58,0.359c1.341,0,2.57-0.39,3.771-1.189c0.33-0.21,0.64-0.32,0.92-0.32c0.4,0,0.74,0.28,0.74,0.28   c0.01,0,0.499,0.42,0.56,0.979C24.09,21.64,24.172,21.906,23.61,22.47z"/>
</g>
</svg>
