<?xml version="1.0" encoding="utf-8"?>
<!-- Generator: Adobe Illustrator 16.0.0, SVG Export Plug-In . SVG Version: 6.00 Build 0)  -->
<!DOCTYPE svg PUBLIC "-//W3C//DTD SVG 1.1//EN" "http://www.w3.org/Graphics/SVG/1.1/DTD/svg11.dtd">
<svg xmlns="http://www.w3.org/2000/svg" xmlns:xlink="http://www.w3.org/1999/xlink" version="1.1" id="Capa_1" x="0px" y="0px" width="32px" height="32px" viewBox="0 0 32 32" enable-background="new 0 0 32 32" xml:space="preserve">
<path d="M14,0C6.27,0,0,6.27,0,14c0,3.71,1.45,7.08,3.81,9.59l1.7-1.12C3.34,20.3,2,17.31,2,14C2,7.38,7.38,2,14,2s12,5.38,12,12  c0,0.44-0.02,0.87-0.07,1.3l1.971,0.33C27.97,15.1,28,14.55,28,14C28,6.27,21.73,0,14,0z"/>
<g>
	<path d="M30,18l-10-1.67V13c0-1.65-1.35-3-3-3c-1.65,0-3,1.35-3,3v13l-6-2c-4,0-4,4-4,4l4.8,4h3.12l-5.78-4.82   c0.2-0.58,0.64-1.08,1.57-1.17l5.66,1.891c0.61,0.199,1.28,0.1,1.8-0.28C15.69,27.25,16,26.64,16,26V13c0-0.55,0.45-1,1-1   s1,0.45,1,1v9h2v-3.64l2,0.33V22h2v-2.97l2,0.33V22h2v-2.31l1.37,0.229C30,20.26,30,20.43,30,22v10h2V22C32,20,32,19,30,18z"/>
</g>
</svg>
