<?xml version="1.0" encoding="utf-8"?>
<!-- Generator: Adobe Illustrator 16.0.0, SVG Export Plug-In . SVG Version: 6.00 Build 0)  -->
<!DOCTYPE svg PUBLIC "-//W3C//DTD SVG 1.1//EN" "http://www.w3.org/Graphics/SVG/1.1/DTD/svg11.dtd">
<svg xmlns="http://www.w3.org/2000/svg" xmlns:xlink="http://www.w3.org/1999/xlink" version="1.1" id="Capa_1" x="0px" y="0px" width="32px" height="32px" viewBox="0 0 32 32" enable-background="new 0 0 32 32" xml:space="preserve">
<g>
	<path d="M22.87,21.45C24.82,19.18,26,16.23,26,13c0-7.18-5.82-13-13-13C5.82,0,0,5.82,0,13c0,7.18,5.82,13,13,13   c3.23,0,6.18-1.18,8.45-3.13l8.84,8.84l1.42-1.42L22.87,21.45z M13,24C6.93,24,2,19.07,2,13C2,6.93,6.93,2,13,2   c6.07,0,11,4.93,11,11C24,19.07,19.07,24,13,24z"/>
</g>
<g>
	<path d="M8,6v6h6V6H8z M12,10h-2V8h2V10z"/>
</g>
<g>
	<path d="M19,8c-1.66,0-3,1.34-3,3s1.34,3,3,3s3-1.34,3-3S20.66,8,19,8z M19,12c-0.55,0-1-0.45-1-1s0.45-1,1-1s1,0.45,1,1   S19.55,12,19,12z"/>
</g>
<g>
	<path d="M7,14c-1.66,0-3,1.34-3,3s1.34,3,3,3s3-1.34,3-3S8.66,14,7,14z M7,18c-0.55,0-1-0.45-1-1s0.45-1,1-1s1,0.45,1,1   S7.55,18,7,18z"/>
</g>
<g>
	<path d="M17,16c-1.66,0-3,1.34-3,3s1.34,3,3,3s3-1.34,3-3S18.66,16,17,16z M17,20c-0.55,0-1-0.45-1-1s0.45-1,1-1s1,0.45,1,1   S17.55,20,17,20z"/>
</g>
</svg>
