<?xml version="1.0" encoding="utf-8"?>
<!-- Generator: Adobe Illustrator 16.0.0, SVG Export Plug-In . SVG Version: 6.00 Build 0)  -->
<!DOCTYPE svg PUBLIC "-//W3C//DTD SVG 1.1//EN" "http://www.w3.org/Graphics/SVG/1.1/DTD/svg11.dtd">
<svg xmlns="http://www.w3.org/2000/svg" xmlns:xlink="http://www.w3.org/1999/xlink" version="1.1" id="Capa_1" x="0px" y="0px" width="32px" height="32px" viewBox="0 0 32 32" enable-background="new 0 0 32 32" xml:space="preserve">
<g>
	<path d="M20,0H10L6,6h4.1c0.34,1.76,1.62,4,4.9,4c3.28,0,4.56-2.24,4.9-4H24L20,0z M15,8c-1.88,0-2.58-1.11-2.84-2h5.68   C17.58,6.89,16.88,8,15,8z M9.74,4l1.33-2h7.86l1.33,2H9.74z"/>
</g>
<g>
	<path d="M21.75,12H8.25L4.04,26.73L4,32h22v-5L21.75,12z M9.75,14h10.5l3.42,12H6.33L9.75,14z M24,30H6v-2h18V30z"/>
</g>
</svg>
