<?xml version="1.0" encoding="utf-8"?>
<!-- Generator: Adobe Illustrator 16.0.0, SVG Export Plug-In . SVG Version: 6.00 Build 0)  -->
<!DOCTYPE svg PUBLIC "-//W3C//DTD SVG 1.1//EN" "http://www.w3.org/Graphics/SVG/1.1/DTD/svg11.dtd">
<svg xmlns="http://www.w3.org/2000/svg" xmlns:xlink="http://www.w3.org/1999/xlink" version="1.1" id="Capa_1" x="0px" y="0px" width="32px" height="32px" viewBox="0 0 32 32" enable-background="new 0 0 32 32" xml:space="preserve">
<g>
	<path d="M0,2v30h32V2H0z M30,30H2v-2h28V30z M30,26H2V4h28V26z"/>
</g>
<path d="M25.08,6.91C24.32,6.16,23.55,6,23.03,6c-1.221,0-2.09,0.86-2.16,0.94l-9.63,9.63L4.16,23.65l1.54,0.51  c0.88,0.29,1.77,0.43,2.65,0.43c3.27,0,5.35-2,5.44-2.09l3.81-3.81l1.57-1.58l5.91-5.95C25.93,10.3,26.63,8.47,25.08,6.91z   M12.39,21.08c-0.02,0.01-1.58,1.51-4.04,1.51c-0.1,0-0.2,0-0.3-0.01l5.31-5.3l2.12,0.71L12.39,21.08z M23.66,9.75L17.06,16.4  l-2.12-0.7l7.35-7.36C22.3,8.34,22.66,8,23.03,8c0.08,0,0.31,0,0.63,0.33C24.23,8.9,23.97,9.42,23.66,9.75z"/>
</svg>
