<?xml version="1.0" encoding="utf-8"?>
<!-- Generator: Adobe Illustrator 16.0.0, SVG Export Plug-In . SVG Version: 6.00 Build 0)  -->
<!DOCTYPE svg PUBLIC "-//W3C//DTD SVG 1.1//EN" "http://www.w3.org/Graphics/SVG/1.1/DTD/svg11.dtd">
<svg xmlns="http://www.w3.org/2000/svg" xmlns:xlink="http://www.w3.org/1999/xlink" version="1.1" id="Capa_1" x="0px" y="0px" width="32px" height="32px" viewBox="0 0 32 32" enable-background="new 0 0 32 32" xml:space="preserve">
<g>
	<path d="M29.88,16.53C29.69,16.18,25.17,8,15,8S0.31,16.18,0.12,16.53c-0.16,0.29-0.16,0.65,0,0.94C0.31,17.82,4.83,26,15,26   s14.69-8.18,14.88-8.53C30.04,17.18,30.04,16.82,29.88,16.53z M15,10c2.76,0,5,2.24,5,5s-2.24,5-5,5s-5-2.24-5-5S12.24,10,15,10z    M15,24c-7.72,0-11.76-5.33-12.83-7c0.76-1.16,3.02-4.17,6.99-5.84C8.42,12.26,8,13.58,8,15c0,3.87,3.13,7,7,7s7-3.13,7-7   c0-1.43-0.43-2.76-1.16-3.86c3.99,1.66,6.23,4.68,6.99,5.86C26.76,18.64,22.66,24,15,24z"/>
</g>
<g>
	<polygon points="18,14 18,16 16,16 16,18 14,18 14,16 12,16 12,14 14,14 14,12 16,12 16,14  "/>
</g>
</svg>
