<?xml version="1.0" encoding="utf-8"?>
<!-- Generator: Adobe Illustrator 16.0.0, SVG Export Plug-In . SVG Version: 6.00 Build 0)  -->
<!DOCTYPE svg PUBLIC "-//W3C//DTD SVG 1.1//EN" "http://www.w3.org/Graphics/SVG/1.1/DTD/svg11.dtd">
<svg xmlns="http://www.w3.org/2000/svg" xmlns:xlink="http://www.w3.org/1999/xlink" version="1.1" id="Capa_1" x="0px" y="0px" width="32px" height="32px" viewBox="0 0 32 32" enable-background="new 0 0 32 32" xml:space="preserve">
<g>
	<path d="M26.35,8.71C27.36,7.8,28,6.47,28,5c0-2.76-2.24-5-5-5s-5,2.24-5,5c0,1.47,0.64,2.8,1.65,3.71C16.84,10.1,16,13.17,16,15   v14c0,1.21,0.8,3,3,3h8c1.21,0,3-0.8,3-3V15C30,13.17,29.16,10.1,26.35,8.71z M23,2c1.65,0,3,1.35,3,3s-1.35,3-3,3s-3-1.35-3-3   S21.35,2,23,2z M23,10c3.62,0,4.62,2.53,4.9,4h-9.79C18.4,12.54,19.41,10,23,10z M28,29c0,0.8-0.55,0.99-1.01,1H19   c-0.81,0-0.99-0.55-1-1V16h10V29z"/>
</g>
<g>
	<g>
		<polygon points="10,20 10,22 14,22 14,24 8,24 8,18 12,18 12,16 8,16 8,14 14,14 14,20   "/>
	</g>
</g>
<g>
	<g>
		<polygon points="10,6 10,12 8,12 8,8 4,8 4,14 6,14 6,16 2,16 2,6   "/>
	</g>
</g>
</svg>
