<?xml version="1.0" encoding="utf-8"?>
<!-- Generator: Adobe Illustrator 16.0.0, SVG Export Plug-In . SVG Version: 6.00 Build 0)  -->
<!DOCTYPE svg PUBLIC "-//W3C//DTD SVG 1.1//EN" "http://www.w3.org/Graphics/SVG/1.1/DTD/svg11.dtd">
<svg xmlns="http://www.w3.org/2000/svg" xmlns:xlink="http://www.w3.org/1999/xlink" version="1.1" id="Capa_1" x="0px" y="0px" width="32px" height="32px" viewBox="0 0 32 32" enable-background="new 0 0 32 32" xml:space="preserve">
<g>
	<path d="M27.95,18.59l-5.76-7.66l2.149-2.15l-2.83-2.83l1.42-1.41l1.41,1.41l1.41-1.41l-4.24-4.25L20.1,1.71l1.42,1.42L20.1,4.54   l-2.83-2.83L6.54,12.43l-1.41-1.41l-1.42,1.42l9.9,9.89l1.42-1.41l-1.41-1.41l3.11-3.12l3.15,4.73L16.32,30H0v2h30.18L27.95,18.59z    M12.2,18.09l-4.24-4.24l2.83-2.83l4.24,4.24L12.2,18.09z M16.44,13.85L12.2,9.61l5.069-5.07l4.24,4.24L16.44,13.85z M18.48,30   l3.64-9.12l-3.95-5.93l2.6-2.6l5.28,7.06L27.82,30H18.48z"/>
</g>
<g>
	<path fill-rule="evenodd" clip-rule="evenodd" d="M26,26c0,1.1-0.9,2-2,2s-2-0.9-2-2s0.9-2,2-2S26,24.9,26,26z"/>
</g>
<path d="M8,20c0-2.21-1.79-4-4-4s-4,1.79-4,4s1.79,4,4,4c0,2.21,1.79,4,4,4s4-1.79,4-4S10.21,20,8,20z M4,22c-1.1,0-2-0.9-2-2  s0.9-2,2-2s2,0.9,2,2S5.1,22,4,22z M8,26c-1.1,0-2-0.9-2-2s0.9-2,2-2s2,0.9,2,2S9.1,26,8,26z"/>
</svg>
