<?xml version="1.0" encoding="utf-8"?>
<!-- Generator: Adobe Illustrator 16.0.0, SVG Export Plug-In . SVG Version: 6.00 Build 0)  -->
<!DOCTYPE svg PUBLIC "-//W3C//DTD SVG 1.1//EN" "http://www.w3.org/Graphics/SVG/1.1/DTD/svg11.dtd">
<svg xmlns="http://www.w3.org/2000/svg" xmlns:xlink="http://www.w3.org/1999/xlink" version="1.1" id="Capa_1" x="0px" y="0px" width="32px" height="32px" viewBox="0 0 32 32" enable-background="new 0 0 32 32" xml:space="preserve">
<g>
	<path d="M20,12.88V11c0-2.2-1.79-3-3-3H7c-2.2,0-3,1.79-3,3v1.87L0.04,26.73L0,32h24v-5L20,12.88z M6,11.01   C6.01,10.55,6.19,10,7,10h9.99c0.46,0.01,1.01,0.19,1.01,1v1H6V11.01z M5.75,14h12.5l3.42,12H2.33L5.75,14z M22,30H2v-2h20V30z"/>
</g>
<g>
	<polygon points="28,4 28,10 26,10 26,8 24,8 24,10 22,10 22,4 24,4 24,6 26,6 26,4  "/>
</g>
<g>
	<polygon points="32,0 32,14 22,14 22,12 30,12 30,2 20,2 20,6 18,6 18,0  "/>
</g>
</svg>
