<?xml version="1.0" encoding="utf-8"?>
<!-- Generator: Adobe Illustrator 16.0.0, SVG Export Plug-In . SVG Version: 6.00 Build 0)  -->
<!DOCTYPE svg PUBLIC "-//W3C//DTD SVG 1.1//EN" "http://www.w3.org/Graphics/SVG/1.1/DTD/svg11.dtd">
<svg xmlns="http://www.w3.org/2000/svg" xmlns:xlink="http://www.w3.org/1999/xlink" version="1.1" id="Capa_1" x="0px" y="0px" width="32px" height="32px" viewBox="0 0 32 32" enable-background="new 0 0 32 32" xml:space="preserve">
<g>
	<g>
		<path d="M15,12c-1.66,0-3,1.79-3,4s1.34,4,3,4s3-1.79,3-4S16.66,12,15,12z M15,18c-0.35,0-1-0.76-1-2s0.65-2,1-2s1,0.76,1,2    S15.35,18,15,18z"/>
	</g>
</g>
<g>
	<path d="M19.9,4C19.56,2.25,18.28,0,15,0c-3.28,0-4.56,2.25-4.9,4H2v28h26V4H19.9z M8,7c0,0,0-1,1-1h3V5.01C12.01,4.5,12.18,2,15,2   c2.82,0,2.99,2.5,3,3v1h3c0.46,0.01,1,0.2,1,1v1H8V7z M8,10h14v16h-0.33c-0.99-4.99-4.3-5.87-4.439-5.91l-0.561-0.14L15,21.86   l-1.67-1.91l-0.56,0.14c-0.14,0.03-3.46,0.92-4.44,5.91H8V10z M19.74,26h-9.49c0.58-2.45,1.81-3.48,2.49-3.87L15,24.73l2.26-2.591   C17.94,22.54,19.17,23.57,19.74,26z M26,30H4V6h2v22h18V6h2V30z"/>
	<rect x="14" y="4" width="2" height="2"/>
</g>
</svg>
