<?xml version="1.0" encoding="utf-8"?>
<!-- Generator: Adobe Illustrator 16.0.0, SVG Export Plug-In . SVG Version: 6.00 Build 0)  -->
<!DOCTYPE svg PUBLIC "-//W3C//DTD SVG 1.1//EN" "http://www.w3.org/Graphics/SVG/1.1/DTD/svg11.dtd">
<svg xmlns="http://www.w3.org/2000/svg" xmlns:xlink="http://www.w3.org/1999/xlink" version="1.1" id="Capa_1" x="0px" y="0px" width="32px" height="32px" viewBox="0 0 32 32" enable-background="new 0 0 32 32" xml:space="preserve">
<g>
	<polygon points="19.42,14 17.42,16 19.41,14  "/>
</g>
<g>
	<path d="M29,12h-9V3c0-0.55-0.45-1-1-1H9C8.73,2,8.48,2.11,8.29,2.29l-4,4C4.11,6.48,4,6.72,4,7v9.58l-3.71,3.71   C0.11,20.48,0,20.72,0,21v10c0,0.55,0.45,1,1,1h10c0.28,0,0.52-0.11,0.71-0.29L15.42,28H25c0.28,0,0.52-0.11,0.71-0.29l4-4   C29.89,23.52,30,23.27,30,23V13C30,12.45,29.55,12,29,12z M10,30H2v-8h8V30z M10.58,20H3.42l1.99-2h7.17L10.58,20z M14,26.59   l-2,1.99v-7.16l2-2V26.59z M14,16H6V8h8V16z M14.58,6H7.42l1.99-2h7.17L14.58,6z M18,5.42v7.16l-2,2V7.42L18,5.42z M24,26h-8v-8h8   V26z M24.58,16h-7.16l1.99-2h7.17L24.58,16z M28,22.59l-2,1.99v-7.16l2-2V22.59z"/>
</g>
</svg>
