<?xml version="1.0" encoding="utf-8"?>
<!-- Generator: Adobe Illustrator 16.0.0, SVG Export Plug-In . SVG Version: 6.00 Build 0)  -->
<!DOCTYPE svg PUBLIC "-//W3C//DTD SVG 1.1//EN" "http://www.w3.org/Graphics/SVG/1.1/DTD/svg11.dtd">
<svg xmlns="http://www.w3.org/2000/svg" xmlns:xlink="http://www.w3.org/1999/xlink" version="1.1" id="Capa_1" x="0px" y="0px" width="32px" height="32px" viewBox="0 0 32 32" enable-background="new 0 0 32 32" xml:space="preserve">
<g>
	<path d="M30,6c0-3.311-2.691-6-6-6c-2.109,0-3.969,1.09-5.03,2.74C17.74,2.26,16.4,2,15,2s-2.74,0.26-3.971,0.74   C9.971,1.09,8.109,0,6,0C2.689,0,0,2.689,0,6c0,2.641,1.71,4.891,4.08,5.68C4.029,12.109,4,12.55,4,13   c0,3.141,1.32,5.969,3.43,7.98C6.09,22.301,4,25.43,4,32h2c0-6.34,2.07-8.92,3.01-9.77C10.73,23.35,12.79,24,15,24   s4.27-0.65,5.99-1.77C21.92,23.08,24,25.66,24,32h2c0-6.57-2.09-9.699-3.43-11.02C24.68,18.969,26,16.141,26,13   c0-0.45-0.031-0.891-0.08-1.32C28.289,10.891,30,8.641,30,6z M2,6c0-2.21,1.79-4,4-4c1.33,0,2.5,0.641,3.221,1.641   C7,5.01,5.3,7.15,4.5,9.7C3.029,9.109,2,7.68,2,6z M15,22c-4.96,0-9-4.04-9-9s4.04-9,9-9c4.961,0,9,4.04,9,9S19.961,22,15,22z    M25.5,9.7c-0.801-2.54-2.5-4.69-4.719-6.06C21.5,2.641,22.67,2,24,2c2.211,0,4,1.79,4,4C28,7.68,26.969,9.109,25.5,9.7z"/>
</g>
<g>
	<path d="M10.5,13c0,0.824-0.676,1.5-1.5,1.5S7.5,13.824,7.5,13s0.676-1.5,1.5-1.5S10.5,12.176,10.5,13z"/>
</g>
<g>
	<path d="M22.5,13c0,0.824-0.676,1.5-1.5,1.5s-1.5-0.676-1.5-1.5s0.676-1.5,1.5-1.5S22.5,12.176,22.5,13z"/>
</g>
<g>
	<path d="M20,17c0,1.211-0.801,3-3,3c-0.88,0-1.529-0.289-2-0.711C14.529,19.711,13.88,20,13,20c-2.2,0-3-1.789-3-3   c0-0.55,0.45-1,1-1s1,0.45,1,1c0.01,0.45,0.189,1,1,1c0.8,0,0.99-0.54,1-1v-1.141c-0.6-0.17-1-0.489-1-0.859c0-0.55,0.9-1,2-1   s2,0.45,2,1c0,0.37-0.4,0.689-1,0.859V17c0.01,0.45,0.189,1,1,1c0.81,0,0.99-0.55,1-1.01c0.01-0.54,0.46-0.98,1-0.98h0.01   C19.559,16.01,20,16.45,20,17z"/>
</g>
<g>
	<path d="M20,32h-2c0-3.949-2.88-4-3-4c-0.3,0.01-3,0.17-3,4h-2c0-4.75,3.27-6,5-6S20,27.25,20,32z"/>
</g>
</svg>
