<?xml version="1.0" encoding="utf-8"?>
<!-- Generator: Adobe Illustrator 16.0.0, SVG Export Plug-In . SVG Version: 6.00 Build 0)  -->
<!DOCTYPE svg PUBLIC "-//W3C//DTD SVG 1.1//EN" "http://www.w3.org/Graphics/SVG/1.1/DTD/svg11.dtd">
<svg xmlns="http://www.w3.org/2000/svg" xmlns:xlink="http://www.w3.org/1999/xlink" version="1.1" id="Capa_1" x="0px" y="0px" width="32px" height="32px" viewBox="0 0 32 32" enable-background="new 0 0 32 32" xml:space="preserve">
<g>
	<path d="M29,16H11.7L9.29,9.57c1.16-1.92,0.9-4.46-0.75-6.11C7.59,2.52,6.34,2,5,2S2.41,2.52,1.46,3.47   c-1.94,1.94-1.94,5.12,0,7.07c0.77,0.76,1.74,1.25,2.8,1.4L5.61,16H3c-1.21,0-3,0.8-3,3c0,7.05,1.53,11.38,4.55,12.89L4.76,32   h22.48l0.21-0.11C30.47,30.38,32,26.05,32,19C32,16.8,30.21,16,29,16z M9.55,16H7.72l-1.39-4.18c0.5-0.13,0.98-0.35,1.41-0.64   L9.55,16z M5,10c-1.66,0-3-1.34-3-3s1.34-3,3-3s3,1.34,3,3S6.66,10,5,10z M26.75,30H5.25c-1.11-0.66-2.71-2.56-3.14-8h27.78   C29.46,27.44,27.86,29.34,26.75,30z M29.99,20H2.01C2,19.68,2,19.34,2,19c0-0.81,0.55-0.99,1-1h25.99c0.46,0.01,1.01,0.19,1.01,1   C30,19.34,30,19.68,29.99,20z"/>
</g>
</svg>
