<?xml version="1.0" encoding="utf-8"?>
<!-- Generator: Adobe Illustrator 16.0.0, SVG Export Plug-In . SVG Version: 6.00 Build 0)  -->
<!DOCTYPE svg PUBLIC "-//W3C//DTD SVG 1.1//EN" "http://www.w3.org/Graphics/SVG/1.1/DTD/svg11.dtd">
<svg xmlns="http://www.w3.org/2000/svg" xmlns:xlink="http://www.w3.org/1999/xlink" version="1.1" id="Capa_1" x="0px" y="0px" width="32px" height="32px" viewBox="0 0 32 32" enable-background="new 0 0 32 32" xml:space="preserve">
<g>
	<path d="M27,10c-2.76,0-5,2.24-5,5c0,0.42,0.05,0.82,0.15,1.21l-7.25,2.17l1.91-8.39C16.87,10,16.94,10,17,10c2.76,0,5-2.24,5-5   s-2.24-5-5-5s-5,2.24-5,5c0,1.99,1.16,3.71,2.85,4.51l-2.16,9.54l-9.98,2.99c-0.53,0.16-0.83,0.72-0.67,1.25   C2.17,23.72,2.57,24,3,24c0.09,0,0.19-0.01,0.29-0.04l8.89-2.67l-2.16,9.49c-0.12,0.54,0.22,1.069,0.76,1.2   C10.85,31.99,10.93,32,11,32c0.46,0,0.87-0.31,0.98-0.78l2.41-10.59l8.64-2.59C23.95,19.23,25.38,20,27,20c2.76,0,5-2.24,5-5   S29.76,10,27,10z M14,5c0-1.65,1.35-3,3-3c1.65,0,3,1.35,3,3s-1.35,3-3,3C15.35,8,14,6.65,14,5z M27,18c-1.65,0-3-1.35-3-3   s1.35-3,3-3s3,1.35,3,3S28.65,18,27,18z"/>
</g>
</svg>
