<?xml version="1.0" encoding="utf-8"?>
<!-- Generator: Adobe Illustrator 16.0.0, SVG Export Plug-In . SVG Version: 6.00 Build 0)  -->
<!DOCTYPE svg PUBLIC "-//W3C//DTD SVG 1.1//EN" "http://www.w3.org/Graphics/SVG/1.1/DTD/svg11.dtd">
<svg xmlns="http://www.w3.org/2000/svg" xmlns:xlink="http://www.w3.org/1999/xlink" version="1.1" id="Capa_1" x="0px" y="0px" width="32px" height="32px" viewBox="0 0 32 32" enable-background="new 0 0 32 32" xml:space="preserve">
<g>
	<path d="M22,8c-2.03,0-3.71,1.5-4.77,4H17c-0.81,0-0.99-0.55-1-1V3c0-0.55-0.45-1-1-1s-1,0.45-1,1v8c-0.01,0.46-0.2,1-1,1h-0.23   C11.71,9.5,10.03,8,8,8c-3.86,0-8,8.22-8,14c0,5.31,2.02,8,6,8c5.83,0,8-6.75,8-11c0-1.85-0.2-3.55-0.58-5.02   c0.67-0.08,1.19-0.34,1.58-0.69c0.39,0.35,0.91,0.61,1.58,0.69C16.2,15.45,16,17.15,16,19c0,4.25,2.17,11,8,11c3.98,0,6-2.69,6-8   C30,16.22,25.86,8,22,8z M6,28c-1.86,0-4-0.68-4-6c0-5.52,3.97-12,6-12c2.24,0,4,3.95,4,9C12,22.74,10.14,28,6,28z M24,28   c-4.14,0-6-5.26-6-9c0-5.05,1.76-9,4-9c2.03,0,6,6.48,6,12C28,27.32,25.86,28,24,28z"/>
</g>
</svg>
