<?xml version="1.0" encoding="utf-8"?>
<!-- Generator: Adobe Illustrator 16.0.0, SVG Export Plug-In . SVG Version: 6.00 Build 0)  -->
<!DOCTYPE svg PUBLIC "-//W3C//DTD SVG 1.1//EN" "http://www.w3.org/Graphics/SVG/1.1/DTD/svg11.dtd">
<svg xmlns="http://www.w3.org/2000/svg" xmlns:xlink="http://www.w3.org/1999/xlink" version="1.1" id="Capa_1" x="0px" y="0px" width="32px" height="32px" viewBox="0 0 32 32" enable-background="new 0 0 32 32" xml:space="preserve">
<g>
	<g>
		<path d="M19,0h-8C0.13,0,0,10.89,0,11v6.41L4.59,22H6v10h18V22h1.41L30,17.41V11C30,10.89,29.87,0,19,0z M22,30H8v-4h2v2h2v-2h2v2    h2v-2h2v2h2v-2h2V30z M28,16.59L24.59,20H22v4h-2v-2h-2v2h-2v-2h-2v2h-2v-2h-2v2H8v-4H5.41L2,16.59V11c0-0.37,0.1-9,9-9h8    c8.86,0,9,8.63,9,9V16.59z"/>
		<path d="M13,12H5c-0.55,0-1,0.45-1,1c0,1.73,1.04,5,5,5s5-3.27,5-5C14,12.45,13.55,12,13,12z M9,16c-1.88,0-2.58-1.11-2.85-2h5.7    C11.58,14.89,10.88,16,9,16z"/>
		<path d="M25,12h-8c-0.55,0-1,0.45-1,1c0,1.73,1.04,5,5,5s5-3.27,5-5C26,12.45,25.55,12,25,12z M21,16c-1.88,0-2.58-1.11-2.85-2    h5.699C23.58,14.89,22.88,16,21,16z"/>
	</g>
</g>
</svg>
