<?xml version="1.0" encoding="utf-8"?>
<!-- Generator: Adobe Illustrator 16.0.0, SVG Export Plug-In . SVG Version: 6.00 Build 0)  -->
<!DOCTYPE svg PUBLIC "-//W3C//DTD SVG 1.1//EN" "http://www.w3.org/Graphics/SVG/1.1/DTD/svg11.dtd">
<svg xmlns="http://www.w3.org/2000/svg" xmlns:xlink="http://www.w3.org/1999/xlink" version="1.1" id="Capa_1" x="0px" y="0px" width="32px" height="32px" viewBox="0 0 32 32" enable-background="new 0 0 32 32" xml:space="preserve">
<path d="M15,2c6.879,0,13,9.506,13,17c0,7.599-6.529,11-13,11S2,26.599,2,19C2,11.506,8.121,2,15,2 M15,0C6.716,0,0,10.716,0,19  s6.716,13,15,13s15-4.716,15-13S23.284,0,15,0L15,0z"/>
<g>
	<path d="M15,28c-0.153,0-0.307-0.035-0.447-0.105C6.097,23.667,6,17.271,6,17c0-1.729,1.045-5,5-5c1.992,0,3.246,0.83,4,1.875   C15.754,12.83,17.008,12,19,12c3.955,0,5,3.271,5,5c0,0.271-0.098,6.667-8.553,10.895C15.307,27.965,15.153,28,15,28z M11,14   c-2.823,0-2.994,2.503-3,3.006c0.003,0.205,0.148,5.236,7,8.869c6.918-3.67,7-8.822,7-8.875c-0.006-0.497-0.177-3-3-3   c-2.821,0-2.994,2.501-3,3.005C15.998,17.555,15.551,18,15,18c-0.547,0-0.992-0.439-1-0.985c0,0,0,0,0-0.001c0,0,0,0,0-0.001l0,0   c0-0.002,0-0.004,0-0.006c0-0.001,0-0.002,0-0.003v-0.001l0,0c0-0.001,0-0.002,0-0.003C13.994,16.503,13.823,14,11,14z"/>
</g>
</svg>
