<?xml version="1.0" encoding="utf-8"?>
<!-- Generator: Adobe Illustrator 16.0.0, SVG Export Plug-In . SVG Version: 6.00 Build 0)  -->
<!DOCTYPE svg PUBLIC "-//W3C//DTD SVG 1.1//EN" "http://www.w3.org/Graphics/SVG/1.1/DTD/svg11.dtd">
<svg xmlns="http://www.w3.org/2000/svg" xmlns:xlink="http://www.w3.org/1999/xlink" version="1.1" id="Capa_1" x="0px" y="0px" width="32px" height="32px" viewBox="0 0 32 32" enable-background="new 0 0 32 32" xml:space="preserve">
<g>
	<path d="M27.76,15.65l-1.52-1.3l-5.311,6.2l-6.08-6.95C16.4,12.93,18,11.32,18,8c0-4.75-3.27-6-5-6H2v2h2v16H2v2h6v-2H6v-6h6.55   l7.07,8.08l-5.38,6.27l1.52,1.301l5.19-6.051l5.3,6.061l1.5-1.32l-5.49-6.27L27.76,15.65z M6,12V4h7c0.12,0,3,0.05,3,4   c0,3.83-2.7,3.99-3,4H6z"/>
</g>
</svg>
