<?xml version="1.0" encoding="utf-8"?>
<!-- Generator: Adobe Illustrator 16.0.0, SVG Export Plug-In . SVG Version: 6.00 Build 0)  -->
<!DOCTYPE svg PUBLIC "-//W3C//DTD SVG 1.1//EN" "http://www.w3.org/Graphics/SVG/1.1/DTD/svg11.dtd">
<svg xmlns="http://www.w3.org/2000/svg" xmlns:xlink="http://www.w3.org/1999/xlink" version="1.1" id="Capa_1" x="0px" y="0px" width="32px" height="32px" viewBox="0 0 32 32" enable-background="new 0 0 32 32" xml:space="preserve">
<g>
	<path d="M29.71,28.29l-1.63-1.63c1.14-1.311,1.6-2.73,1.79-3.65C29.95,22.69,30,22.35,30,22c0-0.14-0.01-0.27-0.02-0.41   c-0.15-1.75-1.261-4.69-4.74-5.56c-1.75-0.43-3.75-1.22-5.23-2.62l1.7-1.7c0.39-0.39,0.39-1.03,0-1.42s-1.03-0.39-1.42,0   l-1.54,1.54c-0.36-0.6-0.62-1.27-0.77-2.03c-0.45-2.25-1.65-3.68-2.99-4.56l0.9-1.79c0.25-0.5,0.05-1.1-0.44-1.34   c-0.5-0.25-1.1-0.05-1.34,0.44l-0.92,1.83C12.37,4.11,11.59,4,11,4C7.52,4,5.65,5.81,4.74,7.75L3.45,7.11   c-0.5-0.25-1.1-0.05-1.34,0.44c-0.25,0.5-0.05,1.1,0.44,1.34l1.58,0.79C4.04,10.16,4,10.61,4,11c0,0.09,0.03,3.69,1.29,7.74   l-2.74,1.37c-0.49,0.239-0.69,0.84-0.44,1.34C2.28,21.8,2.63,22,3,22c0.15,0,0.3-0.03,0.45-0.11l2.52-1.25   c0.82,2.03,1.98,4.04,3.62,5.681l-1.42,2.13c-0.31,0.46-0.18,1.08,0.28,1.38C8.62,29.95,8.81,30,9,30c0.32,0,0.64-0.16,0.83-0.45   l1.29-1.93c1.8,1.3,4.05,2.18,6.88,2.35V31c0,0.55,0.45,1,1,1s1-0.45,1-1v-1.02c3.02-0.15,5.12-0.94,6.59-1.971l1.7,1.7   C28.49,29.9,28.74,30,29,30s0.51-0.1,0.71-0.29C30.1,29.32,30.1,28.68,29.71,28.29z M10,22c0-1.1,0.9-2,2-2s2,0.9,2,2s-0.9,2-2,2   S10,23.1,10,22z M19,28c-2.81,0-5.01-0.78-6.73-2.01C14.35,25.85,16,24.12,16,22c0-2.21-1.79-4-4-4c-1.81,0-3.34,1.2-3.83,2.85   C6.05,16.37,6,11.38,6,11c0-0.2,0.06-5,5-5c0.17,0,4.19,0.05,5.02,4.2c0.77,3.84,3.79,6.53,8.74,7.77   c0.141,0.03,0.271,0.07,0.4,0.12C23.35,18.48,22,20.08,22,22c0,2.19,1.76,3.97,3.95,4C24.64,27.11,22.5,28,19,28z M26,24   c-1.1,0-2-0.9-2-2s0.9-2,2-2s2,0.9,2,2S27.1,24,26,24z"/>
</g>
<g>
	<path d="M11.5,9c0.827,0,1.5,0.673,1.5,1.5S12.327,12,11.5,12S10,11.327,10,10.5S10.673,9,11.5,9L11.5,9z M11.5,7   C9.567,7,8,8.567,8,10.5S9.567,14,11.5,14s3.5-1.567,3.5-3.5S13.433,7,11.5,7L11.5,7z"/>
</g>
</svg>
