<?xml version="1.0" encoding="utf-8"?>
<!-- Generator: Adobe Illustrator 16.0.0, SVG Export Plug-In . SVG Version: 6.00 Build 0)  -->
<!DOCTYPE svg PUBLIC "-//W3C//DTD SVG 1.1//EN" "http://www.w3.org/Graphics/SVG/1.1/DTD/svg11.dtd">
<svg xmlns="http://www.w3.org/2000/svg" xmlns:xlink="http://www.w3.org/1999/xlink" version="1.1" id="Capa_1" x="0px" y="0px" width="32px" height="32px" viewBox="0 0 32 32" enable-background="new 0 0 32 32" xml:space="preserve">
<g>
	<path d="M29,2v2c-0.5,0.01-3,0.18-3,3v6c0,8.9-6.93,9-7,9h-3v8h4v2H10v-2h4v-8h-3c-2.42,0-7-1.46-7-7V7c0-2.82-2.5-2.99-3.01-3L1,2   c1.73,0,5,1.04,5,5v8c0,4.94,4.8,5,5,5h3V5c0-0.81-0.55-0.99-1.01-1H10V2h10v2h-2.99C16.55,4.01,16,4.19,16,5v15h3   c0.51-0.01,5-0.26,5-7V7C24,3.04,27.27,2,29,2z"/>
</g>
</svg>
