<?xml version="1.0" encoding="utf-8"?>
<!-- Generator: Adobe Illustrator 16.0.0, SVG Export Plug-In . SVG Version: 6.00 Build 0)  -->
<!DOCTYPE svg PUBLIC "-//W3C//DTD SVG 1.1//EN" "http://www.w3.org/Graphics/SVG/1.1/DTD/svg11.dtd">
<svg xmlns="http://www.w3.org/2000/svg" xmlns:xlink="http://www.w3.org/1999/xlink" version="1.1" id="Capa_1" x="0px" y="0px" width="32px" height="32px" viewBox="0 0 32 32" enable-background="new 0 0 32 32" xml:space="preserve">
<g>
	<g>
		<path d="M2,11v5c0,7.36,5.3,13.41,12,13.96v2C6.18,31.41,0,24.48,0,16v-5C0,10.89,0.13,0,11,0h3v2h-3C2.14,2,2,10.63,2,11z"/>
	</g>
</g>
<g>
	<path d="M25,12h-8c-0.55,0-1,0.45-1,1c0,1.73,1.04,5,5,5s5-3.27,5-5C26,12.45,25.55,12,25,12z M21,16c-1.88,0-2.58-1.11-2.85-2   h5.699C23.58,14.89,22.88,16,21,16z"/>
</g>
<g>
	<path d="M30,11v6.41L25.41,22H24v10h-8v-2h6v-4h-2v2h-2v-2h-2v-2h2v-2h2v2h2v-4h2.59L28,16.59V11c0-0.37-0.14-9-9-9h-3V0h3   C29.87,0,30,10.89,30,11z"/>
</g>
<g>
	<path d="M8,12c1.103,0,2,0.897,2,2s-0.897,2-2,2s-2-0.897-2-2S6.897,12,8,12L8,12z M8,10c-2.209,0-4,1.791-4,4s1.791,4,4,4   s4-1.791,4-4S10.209,10,8,10L8,10z"/>
</g>
<g>
	<g>
		<path d="M14,24v2h-3c-1.21,0-3-0.8-3-3c0-0.55,0.45-1,1-1s1,0.45,1,1c0,0.81,0.55,0.99,1.01,1H14z"/>
	</g>
</g>
</svg>
