<?xml version="1.0" encoding="utf-8"?>
<!-- Generator: Adobe Illustrator 16.0.0, SVG Export Plug-In . SVG Version: 6.00 Build 0)  -->
<!DOCTYPE svg PUBLIC "-//W3C//DTD SVG 1.1//EN" "http://www.w3.org/Graphics/SVG/1.1/DTD/svg11.dtd">
<svg xmlns="http://www.w3.org/2000/svg" xmlns:xlink="http://www.w3.org/1999/xlink" version="1.1" id="Capa_1" x="0px" y="0px" width="32px" height="32px" viewBox="0 0 32 32" enable-background="new 0 0 32 32" xml:space="preserve">
<g>
	<path d="M15,2C6.72,2,0,8.72,0,17c0,8.28,6.72,15,15,15c8.28,0,15-6.72,15-15C30,8.72,23.28,2,15,2z M27.96,16H19.9   c-0.131-0.64-0.381-1.23-0.721-1.76l5.69-5.69C26.62,10.59,27.75,13.17,27.96,16z M15,4c3.22,0,6.18,1.18,8.45,3.13l-5.69,5.69   C16.97,12.31,16.02,12,15,12s-1.97,0.31-2.76,0.82L6.55,7.13C8.82,5.18,11.78,4,15,4z M18,17c0,1.65-1.35,3-3,3s-3-1.35-3-3   c0-1.65,1.35-3,3-3S18,15.35,18,17z M5.13,8.55l5.69,5.69c-0.34,0.53-0.59,1.12-0.72,1.76H2.05C2.25,13.17,3.38,10.59,5.13,8.55z    M2.05,18h8.05c0.24,1.18,0.9,2.22,1.82,2.93l-3.61,7.21C4.8,26.03,2.37,22.31,2.05,18z M15,30c-1.73,0-3.39-0.34-4.91-0.96   l3.61-7.21C14.12,21.94,14.55,22,15,22s0.88-0.06,1.3-0.17l3.61,7.21C18.39,29.66,16.73,30,15,30z M21.69,28.14l-3.61-7.21   C19,20.22,19.66,19.18,19.9,18h8.06C27.63,22.31,25.2,26.03,21.69,28.14z"/>
</g>
</svg>
