<?xml version="1.0" encoding="utf-8"?>
<!-- Generator: Adobe Illustrator 16.0.0, SVG Export Plug-In . SVG Version: 6.00 Build 0)  -->
<!DOCTYPE svg PUBLIC "-//W3C//DTD SVG 1.1//EN" "http://www.w3.org/Graphics/SVG/1.1/DTD/svg11.dtd">
<svg xmlns="http://www.w3.org/2000/svg" xmlns:xlink="http://www.w3.org/1999/xlink" version="1.1" id="Capa_1" x="0px" y="0px" width="32px" height="32px" viewBox="0 0 32 32" enable-background="new 0 0 32 32" xml:space="preserve">
<g>
	<path d="M28,13c0,6.15-4.27,11.3-10,12.65v-2.07c4.61-1.3,8-5.55,8-10.58c0-6.07-4.93-11-11-11C8.93,2,4,6.93,4,13   c0,5.03,3.39,9.28,8,10.58v2.07C6.27,24.3,2,19.15,2,13C2,5.82,7.82,0,15,0C22.18,0,28,5.82,28,13z"/>
</g>
<g>
	<polygon points="20,14 14,14 14,6 16,6 16,12 20,12  "/>
</g>
<g>
	<rect x="14" y="20" width="2" height="8"/>
</g>
<g>
	<rect x="14" y="30" width="2" height="2"/>
</g>
</svg>
