<?xml version="1.0" encoding="utf-8"?>
<!-- Generator: Adobe Illustrator 16.0.0, SVG Export Plug-In . SVG Version: 6.00 Build 0)  -->
<!DOCTYPE svg PUBLIC "-//W3C//DTD SVG 1.1//EN" "http://www.w3.org/Graphics/SVG/1.1/DTD/svg11.dtd">
<svg xmlns="http://www.w3.org/2000/svg" xmlns:xlink="http://www.w3.org/1999/xlink" version="1.1" id="Capa_1" x="0px" y="0px" width="32px" height="32px" viewBox="0 0 32 32" enable-background="new 0 0 32 32" xml:space="preserve">
<g>
	<g>
		<g>
			<polygon points="20,12 20,22 18,22 18,18 14,18 14,22 12,22 12,12 14,12 14,16 18,16 18,12    "/>
		</g>
	</g>
</g>
<g>
	<polygon points="10.41,17 5.71,21.71 4.29,20.29 6.59,18 2,18 2,16 6.59,16 4.29,13.71 5.71,12.29  "/>
</g>
<g>
	<polygon points="30.41,17 25.71,21.71 24.29,20.29 26.59,18 22,18 22,16 26.59,16 24.29,13.71 25.71,12.29  "/>
</g>
<g>
	<polygon points="26,6 26,10 24,10 24,8 8,8 8,10 6,10 6,6  "/>
</g>
<g>
	<polygon points="26,24 26,28 6,28 6,24 8,24 8,26 24,26 24,24  "/>
</g>
</svg>
