<?xml version="1.0" encoding="utf-8"?>
<!-- Generator: Adobe Illustrator 16.0.0, SVG Export Plug-In . SVG Version: 6.00 Build 0)  -->
<!DOCTYPE svg PUBLIC "-//W3C//DTD SVG 1.1//EN" "http://www.w3.org/Graphics/SVG/1.1/DTD/svg11.dtd">
<svg xmlns="http://www.w3.org/2000/svg" xmlns:xlink="http://www.w3.org/1999/xlink" version="1.1" id="Capa_1" x="0px" y="0px" width="32px" height="32px" viewBox="0 0 32 32" enable-background="new 0 0 32 32" xml:space="preserve">
<g>
	<g>
		<g>
			<path d="M23.86,4.49C23.67,4.17,23.34,4,22.96,4c-0.36,0.01-0.69,0.23-0.85,0.55l-2,4c-0.25,0.5-0.051,1.1,0.439,1.34     c0.5,0.25,1.101,0.05,1.34-0.44l1.19-2.37L27.23,14H2.77l4.15-6.92l1.19,2.37c0.24,0.49,0.84,0.69,1.34,0.44     c0.49-0.24,0.69-0.84,0.44-1.34l-2-4C7.73,4.23,7.4,4.01,7.04,4c-0.39-0.02-0.71,0.17-0.9,0.49L0,14.72V25c0,1.73,1.04,5,5,5h4     c1.73,0,5-1.04,5-4.99c0.01-0.46,0.19-1.01,1-1.01s0.99,0.55,1,1c0,3.96,3.27,5,5,5h4c3.96,0,5-3.27,5-5V14.68L23.86,4.49z      M28,24.99C27.99,25.5,27.82,28,25,28h-3.99C20.5,27.99,18,27.82,18,25c0-1.21-0.8-3-3-3s-3,1.79-3,3c0,2.82-2.5,2.99-3,3H5     c-2.82,0-2.99-2.5-3-3v-5h26V24.99z M28,18H2v-2h26V18z"/>
		</g>
	</g>
</g>
</svg>
