<?xml version="1.0" encoding="utf-8"?>
<!-- Generator: Adobe Illustrator 16.0.0, SVG Export Plug-In . SVG Version: 6.00 Build 0)  -->
<!DOCTYPE svg PUBLIC "-//W3C//DTD SVG 1.1//EN" "http://www.w3.org/Graphics/SVG/1.1/DTD/svg11.dtd">
<svg xmlns="http://www.w3.org/2000/svg" xmlns:xlink="http://www.w3.org/1999/xlink" version="1.1" id="Capa_1" x="0px" y="0px" width="32px" height="32px" viewBox="0 0 32 32" enable-background="new 0 0 32 32" xml:space="preserve">
<g>
	<path d="M30.43,3.57c-0.81-0.82-1.739-1.24-2.75-1.24c-1.62,0-2.779,1.11-2.899,1.23L10.37,17.98L8.79,19.56H8.78l-8.32,8.32   L1.7,28.5c1.43,0.72,2.91,1.08,4.38,1.08c3.95,0,6.57-2.57,6.68-2.68c1.36-1.36,2.59-4.7,2.97-5.761L30.36,9.29l0.069-0.07   c0.08-0.07,0.71-0.72,1.04-1.71C31.94,6.1,31.57,4.7,30.43,3.57z M11.34,25.49c-0.02,0.02-2.13,2.09-5.26,2.09   c-0.71,0-1.44-0.11-2.16-0.33l6.99-6.98l2.68,0.891C13,22.72,12.09,24.74,11.34,25.49z M29.05,7.78L14.67,19.41l-2.18-0.73   l13.7-13.7c0,0,0.68-0.65,1.489-0.65c0.471,0,0.9,0.21,1.34,0.65C30.27,6.23,29.4,7.41,29.05,7.78z"/>
</g>
</svg>
