<?xml version="1.0" encoding="utf-8"?>
<!-- Generator: Adobe Illustrator 16.0.0, SVG Export Plug-In . SVG Version: 6.00 Build 0)  -->
<!DOCTYPE svg PUBLIC "-//W3C//DTD SVG 1.1//EN" "http://www.w3.org/Graphics/SVG/1.1/DTD/svg11.dtd">
<svg xmlns="http://www.w3.org/2000/svg" xmlns:xlink="http://www.w3.org/1999/xlink" version="1.1" id="Capa_1" x="0px" y="0px" width="32px" height="32px" viewBox="0 0 32 32" enable-background="new 0 0 32 32" xml:space="preserve">
<g>
	<polygon points="24,10 24,12 20,12 20,8 22,8 22,10  "/>
</g>
<g>
	<path d="M29,0H7C5.79,0,4,0.8,4,3v14c0,1.21,0.8,3,3,3h9v-2h-4V2h17c0.81,0,0.99,0.55,1,1v14c0,0.81-0.55,0.99-1,1h-3v2h3   c1.21,0,3-0.8,3-3V3C32,1.79,31.2,0,29,0z M10,18H7c-0.81,0-0.99-0.55-1-1V3c0-0.81,0.55-0.99,1-1h3V18z"/>
</g>
<g>
	<path d="M28,24h-5c-0.81,0-0.99-0.55-1-1v-5.08c3.4-0.479,6-3.39,6-6.92c0-3.87-3.13-7-7-7s-7,3.13-7,7c0,3.53,2.6,6.44,6,6.92V23   c0,1.21,0.8,3,3,3h5c0.33,0,2,0.1,2,2c0,1.83-1.54,1.99-2,2h-8.99C18.55,29.99,18,29.81,18,29c0-2.2-1.79-3-3-3h-1   c0-1.94-1.4-4-4-4H4c-1.94,0-4,1.4-4,4v2c0,1.94,1.4,4,4,4h6c1.94,0,4-1.4,4-4h0.99c0.46,0.01,1.01,0.19,1.01,1c0,2.2,1.79,3,3,3h9   c1.61,0,4-1.07,4-4S29.61,24,28,24z M21,16c-2.76,0-5-2.24-5-5s2.24-5,5-5s5,2.24,5,5S23.76,16,21,16z M12,28c0,2-2,2-2,2H4   c-2,0-2-2-2-2v-2c0-2,2-2,2-2h6c2,0,2,2,2,2V28z"/>
</g>
</svg>
