<?xml version="1.0" encoding="utf-8"?>
<!-- Generator: Adobe Illustrator 16.0.0, SVG Export Plug-In . SVG Version: 6.00 Build 0)  -->
<!DOCTYPE svg PUBLIC "-//W3C//DTD SVG 1.1//EN" "http://www.w3.org/Graphics/SVG/1.1/DTD/svg11.dtd">
<svg xmlns="http://www.w3.org/2000/svg" xmlns:xlink="http://www.w3.org/1999/xlink" version="1.1" id="Capa_1" x="0px" y="0px" width="32px" height="32px" viewBox="0 0 32 32" enable-background="new 0 0 32 32" xml:space="preserve">
<g>
	<path d="M26.69,22.64L22.35,18.3c1.04-1.68,2.631-5.86-2.729-11.22l-6.37-6.36l-2.83,2.82l1.42,1.42l1.41-1.42l4.95,4.95   c0.109,0.11,0.22,0.23,0.319,0.34l-7.049,7.05c-0.11-0.09-0.23-0.21-0.34-0.32l-4.95-4.94L7.59,9.2L6.18,7.79l-2.83,2.83l6.36,6.36   c2.94,2.93,5.52,3.79,7.53,3.79c1.66,0,2.93-0.579,3.689-1.06l4.34,4.34c2,2,0.351,3.891,0.011,4.24c-0.36,0.35-2.261,2-4.25,0   l-2.83-2.83c-1.22-1.22-4.28-2.79-7.07,0l-0.83,0.83C9.9,26.1,9.45,26,9.01,26c-0.77,0-1.54,0.29-2.12,0.88   c-1.18,1.17-1.18,3.07,0,4.24C7.47,31.71,8.24,32,9.01,32c0.77,0,1.53-0.29,2.12-0.88c0.92-0.92,1.12-2.3,0.59-3.42l0.82-0.82   c2-2,3.89-0.35,4.25,0l2.83,2.83c1.02,1.021,2.2,1.54,3.439,1.54c0.48,0,0.98-0.08,1.471-0.24c1.25-0.42,2.069-1.21,2.16-1.3   C27.91,28.48,29.48,25.43,26.69,22.64z M20.32,17.69C20.2,17.81,17.48,20.42,13,17.18l6.81-6.81C23,14.82,20.44,17.56,20.32,17.69z    M9,30c-0.55,0-1-0.45-1-1s0.45-1,1-1s1,0.45,1,1S9.55,30,9,30z"/>
</g>
</svg>
