<?xml version="1.0" encoding="utf-8"?>
<!-- Generator: Adobe Illustrator 16.0.0, SVG Export Plug-In . SVG Version: 6.00 Build 0)  -->
<!DOCTYPE svg PUBLIC "-//W3C//DTD SVG 1.1//EN" "http://www.w3.org/Graphics/SVG/1.1/DTD/svg11.dtd">
<svg xmlns="http://www.w3.org/2000/svg" xmlns:xlink="http://www.w3.org/1999/xlink" version="1.1" id="Capa_1" x="0px" y="0px" width="32px" height="32px" viewBox="0 0 32 32" enable-background="new 0 0 32 32" xml:space="preserve">
<g>
	<path d="M32,18V9c0-2.2-1.79-3-3-3H3C0.8,6,0,7.79,0,9v9h0.67L8,23.5v0.68C6.83,24.58,6,25.69,6,27c0,1.66,1.34,3,3,3s3-1.34,3-3   c0-1.31-0.83-2.42-2-2.82V18h10.67L28,23.5v0.68c-1.17,0.4-2,1.511-2,2.82c0,1.66,1.34,3,3,3s3-1.34,3-3c0-1.31-0.83-2.42-2-2.82   V18H32z M2,9.01C2.01,8.55,2.19,8,3,8h25.99C29.45,8.01,30,8.19,30,9v3H2V9.01z M4,18h4v3L4,18z M9,28c-0.55,0-1-0.45-1-1   s0.45-1,1-1s1,0.45,1,1S9.55,28,9,28z M24,18h4v3L24,18z M29,28c-0.55,0-1-0.45-1-1s0.45-1,1-1s1,0.45,1,1S29.55,28,29,28z M2,16   v-2h28v2H2z"/>
</g>
</svg>
