<?xml version="1.0" encoding="utf-8"?>
<!-- Generator: Adobe Illustrator 16.0.0, SVG Export Plug-In . SVG Version: 6.00 Build 0)  -->
<!DOCTYPE svg PUBLIC "-//W3C//DTD SVG 1.1//EN" "http://www.w3.org/Graphics/SVG/1.1/DTD/svg11.dtd">
<svg xmlns="http://www.w3.org/2000/svg" xmlns:xlink="http://www.w3.org/1999/xlink" version="1.1" id="Capa_1" x="0px" y="0px" width="32px" height="32px" viewBox="0 0 32 32" enable-background="new 0 0 32 32" xml:space="preserve">
<g>
	<path d="M29.99,9.08l1.41-1.41l-7.07-7.08l-1.41,1.42l2.83,2.83l-2.82,2.83l-4.25-4.25l-1.42,1.42l1.41,1.41l-9.89,9.9l-1.42,1.41   l-1.41,4.25l-1.41,1.41l1.41,1.41l-5.66,5.66l1.42,1.42l5.66-5.66l1.41,1.41l1.41-1.41l4.24-1.42l1.42-1.41l9.89-9.9l1.42,1.42   l1.42-1.42l-4.24-4.24l2.82-2.83L29.99,9.08z M8.78,24.63l-1.42-1.41l1.58-4.069l3.91,3.899L8.78,24.63z M14.44,21.81l-4.25-4.25   l1.42-1.41l1.41,1.41l1.41-1.41l-1.41-1.41l1.41-1.42l1.42,1.42l1.41-1.42l-1.41-1.41l1.41-1.42l4.25,4.25L14.44,21.81z    M22.92,13.32l-4.24-4.24l1.41-1.41l4.24,4.24L22.92,13.32z"/>
</g>
</svg>
