<?xml version="1.0" encoding="utf-8"?>
<!-- Generator: Adobe Illustrator 16.0.0, SVG Export Plug-In . SVG Version: 6.00 Build 0)  -->
<!DOCTYPE svg PUBLIC "-//W3C//DTD SVG 1.1//EN" "http://www.w3.org/Graphics/SVG/1.1/DTD/svg11.dtd">
<svg xmlns="http://www.w3.org/2000/svg" xmlns:xlink="http://www.w3.org/1999/xlink" version="1.1" id="Capa_1" x="0px" y="0px" width="32px" height="32px" viewBox="0 0 32 32" enable-background="new 0 0 32 32" xml:space="preserve">
<g>
	<path d="M29,4H3C0.8,4,0,5.79,0,7v8c0,12.85,10.89,13,11,13h10c0.11,0,11-0.15,11-13V7C32,5.79,31.2,4,29,4z M2.03,16.06   c6.38,0.63,7.66,7.18,7.91,9.84C7.65,25.53,2.46,23.83,2.03,16.06z M22.06,25.9c0.25-2.66,1.5-9.21,7.91-9.84   C29.54,23.83,24.35,25.53,22.06,25.9z M30,8h-5c-0.55,0-1,0.45-1,1s0.45,1,1,1h5v4.04c-7.3,0.58-9.66,7.51-9.96,11.96h-8.08   C11.66,21.55,9.3,14.62,2,14.04V10h5c0.55,0,1-0.45,1-1S7.55,8,7,8H2V7.01C2.01,6.55,2.19,6,3,6h26c0.81,0,0.99,0.55,1,1V8z"/>
</g>
</svg>
