<?xml version="1.0" encoding="utf-8"?>
<!-- Generator: Adobe Illustrator 16.0.0, SVG Export Plug-In . SVG Version: 6.00 Build 0)  -->
<!DOCTYPE svg PUBLIC "-//W3C//DTD SVG 1.1//EN" "http://www.w3.org/Graphics/SVG/1.1/DTD/svg11.dtd">
<svg xmlns="http://www.w3.org/2000/svg" xmlns:xlink="http://www.w3.org/1999/xlink" version="1.1" id="Capa_1" x="0px" y="0px" width="32px" height="32px" viewBox="0 0 32 32" enable-background="new 0 0 32 32" xml:space="preserve">
<g>
	<path d="M18.04,14.64c-0.82-0.82-1.75-1.24-2.75-1.24c-1.62,0-2.78,1.11-2.91,1.24l-7.07,7.07c-1.14,1.13-2.07,3.58,0,5.65   C6.13,28.18,7.06,28.6,8.06,28.6c1.63,0,2.78-1.109,2.91-1.239l7.07-7.07C19.18,19.16,20.11,16.71,18.04,14.64z M9.55,25.95   c0,0.01-0.68,0.649-1.49,0.649c-0.46,0-0.9-0.21-1.33-0.649c-1.3-1.29-0.33-2.5-0.01-2.83l2.84-2.83l2.82,2.83L9.55,25.95z    M16.62,18.88L13.8,21.7l-2.83-2.82l2.82-2.82c0.01-0.01,0.69-0.66,1.5-0.66c0.46,0,0.9,0.21,1.33,0.65   C17.92,17.34,16.95,18.54,16.62,18.88z"/>
</g>
<g>
	<path d="M10,4v2h10V4H10z M27,4h-1v2h0.99C27.45,6.01,28,6.19,28,7v3H2V7.01C2.01,6.55,2.19,6,3,6h1V4H3C0.8,4,0,5.79,0,7v22   c0,1.21,0.8,3,3,3h24c1.21,0,3-0.8,3-3V7C30,4.8,28.21,4,27,4z M28,29c0,0.8-0.55,0.99-1.01,1H3c-0.81,0-0.99-0.55-1-1V12h26V29z    M24,2h-2v6h2V2z M6,2v6h2V2H6z"/>
</g>
<g>
	<rect x="18" y="22" width="8" height="2"/>
</g>
<g>
	<rect x="14" y="26" width="12" height="2"/>
</g>
</svg>
