<?xml version="1.0" encoding="utf-8"?>
<!-- Generator: Adobe Illustrator 16.0.0, SVG Export Plug-In . SVG Version: 6.00 Build 0)  -->
<!DOCTYPE svg PUBLIC "-//W3C//DTD SVG 1.1//EN" "http://www.w3.org/Graphics/SVG/1.1/DTD/svg11.dtd">
<svg xmlns="http://www.w3.org/2000/svg" xmlns:xlink="http://www.w3.org/1999/xlink" version="1.1" id="Capa_1" x="0px" y="0px" width="32px" height="32px" viewBox="0 0 32 32" enable-background="new 0 0 32 32" xml:space="preserve">
<g>
	<path d="M24,7c0,0.55-0.45,1-1,1c-0.51,0-5,0.18-5,5v3.47c3.09,1.11,4,3.89,4,5.53c0,2.81-1.39,3.87-2.51,4.72   c-1.13,0.86-1.94,1.48-1.5,4.12c0.09,0.54-0.28,1.061-0.83,1.15C17.11,32,17.05,32,17,32c-0.48,0-0.9-0.35-0.99-0.84   c-0.63-3.82,0.97-5.04,2.26-6.03C19.28,24.37,20,23.82,20,22c0-0.4-0.19-4-5-4c-4.81,0-4.99,3.6-5,4.01   c0,1.811,0.72,2.36,1.73,3.12c1.29,0.99,2.89,2.21,2.26,6.03c-0.09,0.55-0.6,0.92-1.15,0.83c-0.55-0.09-0.92-0.61-0.83-1.15   c0.44-2.64-0.37-3.26-1.5-4.12C9.39,25.87,8,24.81,8,22c0-1.64,0.91-4.42,4-5.53V13c0-4.94-4.8-5-5-5C6.45,8,6,7.55,6,7s0.45-1,1-1   c2.42,0,7,1.46,7,7v3.04c0.32-0.02,0.65-0.04,1-0.04s0.68,0.02,1,0.04V13c0-5.54,4.58-7,7-7C23.55,6,24,6.45,24,7z"/>
</g>
<g>
	<path d="M8.96,11.51C7.51,13.97,5.1,14,5,14c-0.05,0-5-0.08-5-7s4.95-7,5-7c0.1,0,2.51,0.03,3.96,2.49   c0.28,0.48,0.13,1.09-0.35,1.37C8.14,4.14,7.52,3.98,7.24,3.51C6.38,2.04,5.01,2,5,2C4.7,2.01,2,2.22,2,7s2.7,4.99,3.01,5   c0.03,0,1.37-0.05,2.23-1.51c0.28-0.47,0.9-0.63,1.37-0.35C9.09,10.42,9.24,11.03,8.96,11.51z"/>
</g>
<g>
	<g>
		<path d="M30.1,7c0,6.92-4.949,7-5,7c-0.1,0-2.51-0.03-3.96-2.49c-0.279-0.48-0.12-1.09,0.351-1.37c0.479-0.28,1.09-0.12,1.37,0.35    C23.73,11.96,25.09,12,25.1,12c0.301-0.01,3-0.22,3-5S25.4,2.01,25.09,2c-0.03,0-1.37,0.05-2.229,1.51    c-0.28,0.47-0.891,0.63-1.37,0.35c-0.471-0.28-0.63-0.89-0.351-1.37C22.59,0.03,25,0,25.1,0C25.15,0,30.1,0.08,30.1,7z"/>
	</g>
</g>
</svg>
