<?xml version="1.0" encoding="utf-8"?>
<!-- Generator: Adobe Illustrator 16.0.0, SVG Export Plug-In . SVG Version: 6.00 Build 0)  -->
<!DOCTYPE svg PUBLIC "-//W3C//DTD SVG 1.1//EN" "http://www.w3.org/Graphics/SVG/1.1/DTD/svg11.dtd">
<svg xmlns="http://www.w3.org/2000/svg" xmlns:xlink="http://www.w3.org/1999/xlink" version="1.1" id="Capa_1" x="0px" y="0px" width="32px" height="32px" viewBox="0 0 32 32" enable-background="new 0 0 32 32" xml:space="preserve">
<g>
	<polygon points="32,16 32,30 0,30 0,16 4,16 4,18 2,18 2,28 30,28 30,18 28,18 28,16  "/>
</g>
<g>
	<path d="M4,4v2h2v16c0,1.94,1.4,4,4,4c1.31,0,2.32-0.52,3-1.29C13.68,25.48,14.69,26,16,26c1.31,0,2.32-0.52,3-1.29   C19.68,25.48,20.69,26,22,26c2.6,0,4-2.06,4-4V6h2V4H4z M12,22c0,0,0,2-2,2s-2-2-2-2v-4.47l4-2.67V22z M12,12.47l-4,2.67V6h4V12.47   z M18,22c0,0,0,2-2,2s-2-2-2-2v-4.47l4-2.67V22z M18,12.47l-4,2.67V6h4V12.47z M24,22c0,0,0,2-2,2s-2-2-2-2v-4.47l4-2.67V22z    M24,12.47l-4,2.67V6h4V12.47z"/>
</g>
</svg>
