<?xml version="1.0" encoding="utf-8"?>
<!-- Generator: Adobe Illustrator 16.0.0, SVG Export Plug-In . SVG Version: 6.00 Build 0)  -->
<!DOCTYPE svg PUBLIC "-//W3C//DTD SVG 1.1//EN" "http://www.w3.org/Graphics/SVG/1.1/DTD/svg11.dtd">
<svg xmlns="http://www.w3.org/2000/svg" xmlns:xlink="http://www.w3.org/1999/xlink" version="1.1" id="Capa_1" x="0px" y="0px" width="32px" height="32px" viewBox="0 0 32 32" enable-background="new 0 0 32 32" xml:space="preserve">
<path d="M29,16h-3.05c-0.2-2.29-1.101-4.37-2.49-6.04l2.25-2.25c0.39-0.39,0.39-1.03,0-1.42s-1.03-0.39-1.42,0l-2.25,2.25  C20.37,7.15,18.29,6.25,16,6.05V3c0-0.55-0.45-1-1-1s-1,0.45-1,1v3.05c-2.29,0.2-4.37,1.1-6.04,2.49L5.71,6.29  c-0.39-0.39-1.03-0.39-1.42,0s-0.39,1.03,0,1.42l2.25,2.25C5.15,11.63,4.25,13.71,4.05,16H1c-0.55,0-1,0.45-1,1s0.45,1,1,1h3.05  c0.2,2.29,1.1,4.37,2.49,6.04l-2.25,2.25c-0.39,0.39-0.39,1.03,0,1.42C4.49,27.9,4.74,28,5,28s0.51-0.1,0.71-0.29l2.25-2.25  c1.67,1.39,3.75,2.29,6.04,2.49V31c0,0.55,0.45,1,1,1s1-0.45,1-1v-3.05c2.29-0.2,4.37-1.101,6.04-2.49l2.25,2.25  C24.49,27.9,24.74,28,25,28s0.51-0.1,0.71-0.29c0.39-0.39,0.39-1.03,0-1.42l-2.25-2.25c1.39-1.67,2.29-3.75,2.49-6.04H29  c0.55,0,1-0.45,1-1S29.55,16,29,16z M19,10c0.55,0,1,0.45,1,1s-0.45,1-1,1s-1-0.45-1-1S18.45,10,19,10z M10,12c1.1,0,2,0.9,2,2  s-0.9,2-2,2s-2-0.9-2-2S8.9,12,10,12z M11,24c-0.55,0-1-0.45-1-1s0.45-1,1-1s1,0.45,1,1S11.55,24,11,24z M20,22c-1.1,0-2-0.9-2-2  s0.9-2,2-2s2,0.9,2,2S21.1,22,20,22z M23.82,18.81C23.31,17.18,21.8,16,20,16c-2.21,0-4,1.79-4,4s1.79,4,4,4  c0.25,0,0.5-0.02,0.73-0.07C19.18,25.22,17.17,26,15,26c-0.88,0-1.74-0.13-2.55-0.37C13.38,25.12,14,24.13,14,23c0-1.66-1.34-3-3-3  c-1.55,0-2.82,1.17-2.98,2.67C6.76,21.13,6,19.15,6,17c0-0.62,0.06-1.23,0.18-1.81C6.69,16.82,8.2,18,10,18c2.21,0,4-1.79,4-4  s-1.79-4-4-4c-0.25,0-0.5,0.02-0.73,0.07C10.82,8.78,12.83,8,15,8c0.88,0,1.74,0.13,2.55,0.37C16.62,8.88,16,9.87,16,11  c0,1.66,1.34,3,3,3c1.55,0,2.82-1.17,2.98-2.67C23.24,12.87,24,14.85,24,17C24,17.62,23.94,18.23,23.82,18.81z"/>
</svg>
