<?xml version="1.0" encoding="utf-8"?>
<!-- Generator: Adobe Illustrator 16.0.0, SVG Export Plug-In . SVG Version: 6.00 Build 0)  -->
<!DOCTYPE svg PUBLIC "-//W3C//DTD SVG 1.1//EN" "http://www.w3.org/Graphics/SVG/1.1/DTD/svg11.dtd">
<svg xmlns="http://www.w3.org/2000/svg" xmlns:xlink="http://www.w3.org/1999/xlink" version="1.1" id="Capa_1" x="0px" y="0px" width="32px" height="32px" viewBox="0 0 32 32" enable-background="new 0 0 32 32" xml:space="preserve">
<g>
	<path d="M30,14.15V9c0-2.2-1.79-3-3-3H5C2.8,6,2,7.79,2,9v5.17C0.99,14.5,0,15.36,0,17v11h32V17C32,15.99,31.45,14.59,30,14.15z    M4,9.01C4.01,8.55,4.19,8,5,8h21.99C27.45,8.01,28,8.19,28,9v5H4V9.01z M30,26H2v-2h28V26z M30,22H2v-5c0-0.81,0.55-0.99,1-1h26   c0.81,0,0.99,0.55,1,1V22z"/>
</g>
</svg>
