<?xml version="1.0" encoding="utf-8"?>
<!-- Generator: Adobe Illustrator 16.0.0, SVG Export Plug-In . SVG Version: 6.00 Build 0)  -->
<!DOCTYPE svg PUBLIC "-//W3C//DTD SVG 1.1//EN" "http://www.w3.org/Graphics/SVG/1.1/DTD/svg11.dtd">
<svg xmlns="http://www.w3.org/2000/svg" xmlns:xlink="http://www.w3.org/1999/xlink" version="1.1" id="Capa_1" x="0px" y="0px" width="32px" height="32px" viewBox="0 0 32 32" enable-background="new 0 0 32 32" xml:space="preserve">
<g>
	<g>
		<path d="M29.85,24.82L12.21,7.18c0.26-1.68-0.46-3.29-1.45-4.28c-0.57-0.57-1.32-0.88-2.12-0.88c-0.8,0-1.55,0.31-2.11,0.88    L6.47,2.95L6.45,2.97c-0.57,0.61-0.83,1.41-0.8,2.2C4.43,5.46,3.28,6.13,2.27,7.14c-2.13,2.13-2.3,4.36-2.07,5.85    c0.33,2.12,1.56,3.54,2.07,4.05c0.57,0.56,1.32,0.88,2.12,0.88c0.78,0,1.53-0.3,2.09-0.85c1.2-1.2,1.22-3.05,0.07-4.24    c-0.73-0.75-0.34-1.14-0.04-1.45C6.69,11.21,6.94,11,7.16,11c0.24,0,0.58,0.21,0.8,0.41L25.61,29.06l1.409,1.41l1.41-1.41    l1.42-1.409l1.41-1.42L29.85,24.82z M9.34,9.97C9.11,9.75,8.27,9,7.16,9C6.54,9,5.83,9.24,5.1,9.97    c-1.99,1.99-0.35,3.88,0.01,4.25c0.38,0.39,0.39,1-0.02,1.41c-0.19,0.19-0.45,0.29-0.7,0.29s-0.51-0.1-0.7-0.3    c-1.23-1.22-2.8-4.27,0-7.07C4.83,7.41,6.02,6.99,7.1,6.99c0.3,0,0.59,0.04,0.87,0.09c0.52-0.54,0.26-1.04-0.05-1.36    C7.55,5.33,7.55,4.7,7.94,4.32V4.31c0.2-0.19,0.45-0.29,0.7-0.29c0.26,0,0.51,0.1,0.7,0.29c0.73,0.73,1.35,2.17,0.55,3.54    c0.34,0.23,0.63,0.47,0.87,0.7l14.62,14.63l-1.42,1.41L9.34,9.97z M27.02,27.65l-1.64-1.641l1.42-1.42l1.63,1.641L27.02,27.65z"/>
	</g>
</g>
</svg>
