<?xml version="1.0" encoding="utf-8"?>
<!-- Generator: Adobe Illustrator 16.0.0, SVG Export Plug-In . SVG Version: 6.00 Build 0)  -->
<!DOCTYPE svg PUBLIC "-//W3C//DTD SVG 1.1//EN" "http://www.w3.org/Graphics/SVG/1.1/DTD/svg11.dtd">
<svg xmlns="http://www.w3.org/2000/svg" xmlns:xlink="http://www.w3.org/1999/xlink" version="1.1" id="Capa_1" x="0px" y="0px" width="32px" height="32px" viewBox="0 0 32 32" enable-background="new 0 0 32 32" xml:space="preserve">
<g>
	<path d="M24,16.25V3c0-0.81,0.55-0.99,1-1h4V0h-4c-1.01,0-2.41,0.55-2.85,2H21c-1.21,0-3,0.8-3,3v7h-7c-1.21,0-3,0.8-3,3v3H7   c-1.21,0-3,0.8-3,3v3c-2.21,0-4,1.79-4,4s1.79,4,4,4s4-1.79,4-4c0-1.48-0.8-2.77-2-3.46V21c0-0.81,0.55-0.99,1-1h1v4h6   c0,4.42,3.58,8,8,8s8-3.58,8-8C30,20.27,27.45,17.14,24,16.25z M4,30c-1.1,0-2-0.9-2-2s0.9-2,2-2s2,0.9,2,2S5.1,30,4,30z M20,5   c0-0.81,0.55-0.99,1-1h1v8h-2V5z M10,15c0-0.81,0.55-0.99,1-1h11v2c-2.03,0-3.88,0.76-5.29,2H10V15z M14.25,22H10v-2h5.08   C14.71,20.62,14.44,21.29,14.25,22z M22,30c-3.31,0-6-2.69-6-6s2.69-6,6-6s6,2.69,6,6S25.31,30,22,30z"/>
</g>
</svg>
