<?xml version="1.0" encoding="utf-8"?>
<!-- Generator: Adobe Illustrator 16.0.0, SVG Export Plug-In . SVG Version: 6.00 Build 0)  -->
<!DOCTYPE svg PUBLIC "-//W3C//DTD SVG 1.1//EN" "http://www.w3.org/Graphics/SVG/1.1/DTD/svg11.dtd">
<svg xmlns="http://www.w3.org/2000/svg" xmlns:xlink="http://www.w3.org/1999/xlink" version="1.1" id="Capa_1" x="0px" y="0px" width="32px" height="32px" viewBox="0 0 32 32" enable-background="new 0 0 32 32" xml:space="preserve">
<g>
	<path d="M31.79,22.73c-2.38-7.15-6.54-10.78-12.36-10.78c-2.55,0-4.88,0.71-6.59,1.22c-0.93,0.28-1.75,0.43-2.42,0.43   c-0.6,0-1.05-0.12-1.34-0.34c-0.79-0.6-1.1-2.38-1.08-3.16C8.06,7.91,6.32,6.07,4.12,6H3.98C1.81,6,0.07,7.7,0,9.88   c-0.02,0.65-0.07,6.45,4.21,9.73C5.93,20.93,8.01,21.6,10.4,21.6c1.47,0,3.07-0.26,4.76-0.77c1.72-0.521,3.109-0.87,4.27-0.87   c1.45,0,3.141,0.41,4.78,5.3C24.75,26.9,26.28,28,28,28c0.43,0,0.86-0.07,1.27-0.21C31.36,27.1,32.49,24.83,31.79,22.73z M2,9.94   C2.03,8.86,2.87,8,3.98,8h0.08C5.16,8.03,6.03,8.95,6,10.05c-0.02,0.71,0.16,2.43,0.95,3.75l-2.18,3.65   C1.89,14.64,1.99,10.15,2,9.94z M14,19.09c-1.29,0.34-2.49,0.51-3.6,0.51c-1.51,0-2.85-0.319-4.02-0.96L8.45,15.2   c0.55,0.27,1.21,0.4,1.97,0.4c0.87,0,1.87-0.17,3-0.51c0.19-0.06,0.38-0.11,0.58-0.17V19.09z M23.19,19.39   c-1.11-1.04-2.36-1.43-3.761-1.43c-1.06,0-2.189,0.22-3.43,0.55v-4.13c1.07-0.25,2.23-0.43,3.43-0.43c2.21,0,4.53,0.62,6.58,2.63   L23.19,19.39z M28.63,25.9C28.42,25.97,28.21,26,28,26c-0.84,0-1.62-0.53-1.9-1.37c-0.51-1.51-1.05-2.72-1.649-3.66l2.87-2.87   c0.97,1.33,1.84,3.051,2.58,5.271C30.25,24.42,29.68,25.55,28.63,25.9z"/>
</g>
</svg>
