<?xml version="1.0" encoding="utf-8"?>
<!-- Generator: Adobe Illustrator 16.0.0, SVG Export Plug-In . SVG Version: 6.00 Build 0)  -->
<!DOCTYPE svg PUBLIC "-//W3C//DTD SVG 1.1//EN" "http://www.w3.org/Graphics/SVG/1.1/DTD/svg11.dtd">
<svg xmlns="http://www.w3.org/2000/svg" xmlns:xlink="http://www.w3.org/1999/xlink" version="1.1" id="Capa_1" x="0px" y="0px" width="32px" height="32px" viewBox="0 0 32 32" enable-background="new 0 0 32 32" xml:space="preserve">
<g>
	<path d="M24.282,20.684c0.261,0,0.518,0.022,0.771,0.067c1.789,0.316,2.688,1.626,2.784,1.774c0.302,0.463,0.171,1.082-0.292,1.384   c-0.168,0.109-0.357,0.161-0.545,0.161c-0.326,0-0.646-0.159-0.839-0.453c-0.015-0.021-0.52-0.743-1.484-0.901   c-0.125-0.02-0.252-0.03-0.383-0.03c-0.796,0-1.703,0.371-2.695,1.114c-1.36,1.021-2.677,1.534-3.925,1.534   c-0.254,0-0.504-0.021-0.751-0.063c-1.768-0.303-2.66-1.572-2.755-1.716c-0.306-0.46-0.182-1.08,0.277-1.387   C14.615,22.055,14.808,22,14.999,22c0.32,0,0.634,0.153,0.828,0.437c0.031,0.044,0.526,0.72,1.464,0.868   c0.124,0.02,0.251,0.029,0.381,0.029c0.808,0,1.725-0.38,2.729-1.134C21.744,21.191,23.046,20.684,24.282,20.684 M24.282,18.684   c-1.678,0-3.388,0.646-5.083,1.917c-0.906,0.681-1.399,0.733-1.528,0.733c-0.023,0-0.047-0.001-0.068-0.005   c-0.084-0.013-0.149-0.068-0.176-0.094C16.885,20.472,15.974,20,14.999,20c-0.595,0-1.17,0.175-1.665,0.506   c-1.373,0.916-1.746,2.781-0.831,4.157c0.237,0.355,1.543,2.144,4.083,2.579c0.351,0.061,0.719,0.092,1.089,0.092   c1.689,0,3.414-0.65,5.125-1.935c0.884-0.662,1.368-0.714,1.495-0.714c0.022,0,0.045,0.002,0.066,0.005   c0.083,0.014,0.154,0.077,0.185,0.107c0.539,0.786,1.46,1.272,2.455,1.272c0.58,0,1.145-0.167,1.632-0.482   c0.677-0.44,1.138-1.113,1.303-1.897c0.166-0.784,0.016-1.586-0.422-2.257c-0.236-0.363-1.547-2.198-4.111-2.652   C25.034,18.717,24.658,18.684,24.282,18.684L24.282,18.684z"/>
</g>
<g>
	<path d="M14.285,4.684c0.259,0,0.516,0.022,0.769,0.067c1.789,0.316,2.688,1.626,2.784,1.774c0.302,0.463,0.171,1.083-0.292,1.384   c-0.169,0.11-0.358,0.162-0.545,0.162c-0.328,0-0.647-0.16-0.839-0.454c-0.015-0.021-0.52-0.743-1.484-0.901   c-0.128-0.021-0.259-0.032-0.393-0.032c-0.797,0-1.697,0.375-2.685,1.116C10.24,8.82,8.923,9.334,7.674,9.334   c-0.253,0-0.503-0.021-0.751-0.063c-1.768-0.303-2.66-1.573-2.755-1.716C3.862,7.095,3.986,6.474,4.445,6.168   C4.615,6.054,4.808,6,4.999,6c0.32,0,0.634,0.153,0.828,0.437c0.031,0.043,0.526,0.72,1.464,0.868   c0.124,0.02,0.251,0.029,0.381,0.029c0.809,0,1.723-0.38,2.728-1.133C11.745,5.191,13.047,4.684,14.285,4.684 M14.285,2.684   c-1.679,0-3.39,0.645-5.085,1.916C8.292,5.281,7.801,5.333,7.672,5.333c-0.024,0-0.047-0.001-0.07-0.005   C7.515,5.315,7.448,5.256,7.424,5.232C6.86,4.458,5.96,4,4.999,4C4.403,4,3.827,4.175,3.332,4.506   C2.669,4.948,2.215,5.625,2.058,6.412C1.901,7.197,2.06,7.997,2.503,8.664c0.236,0.354,1.542,2.143,4.082,2.579   c0.362,0.062,0.727,0.092,1.089,0.092c1.69,0,3.415-0.651,5.126-1.935c0.886-0.664,1.361-0.716,1.485-0.716   c0.023,0,0.045,0.001,0.066,0.005c0.093,0.016,0.17,0.084,0.198,0.113c0.562,0.797,1.47,1.27,2.452,1.27   c0.581,0,1.146-0.168,1.636-0.485c0.672-0.438,1.133-1.111,1.299-1.895c0.165-0.784,0.016-1.586-0.422-2.258   c-0.239-0.365-1.552-2.199-4.112-2.651C15.034,2.717,14.659,2.684,14.285,2.684L14.285,2.684z"/>
</g>
<g>
	<path d="M6.999,14c0.323,0,0.641,0.157,0.833,0.446c0.304,0.457,0.184,1.072-0.268,1.381c-0.041,0.029-0.72,0.524-0.869,1.465   c-0.142,0.896,0.23,1.942,1.104,3.108c1.228,1.637,1.722,3.21,1.471,4.677c-0.303,1.769-1.573,2.66-1.716,2.756   C7.384,27.945,7.191,28,7.001,28c-0.323,0-0.64-0.156-0.833-0.445c-0.306-0.46-0.182-1.08,0.277-1.387   c0.019-0.014,0.709-0.51,0.859-1.458c0.142-0.897-0.229-1.943-1.104-3.11c-1.228-1.636-1.723-3.209-1.471-4.676   c0.303-1.769,1.573-2.66,1.716-2.756C6.615,14.054,6.808,14,6.999,14 M6.999,12c-0.595,0-1.172,0.175-1.667,0.507   c-0.35,0.234-2.14,1.541-2.574,4.08C2.41,18.616,3.03,20.707,4.601,22.8c0.598,0.798,0.766,1.359,0.728,1.598   c-0.013,0.084-0.068,0.149-0.093,0.177c-1.292,0.939-1.625,2.747-0.732,4.089C5.062,29.501,5.996,30,7.001,30   c0.592,0,1.167-0.174,1.661-0.502c0.356-0.238,2.145-1.544,2.58-4.084c0.348-2.03-0.272-4.121-1.842-6.215   c-0.599-0.798-0.767-1.357-0.729-1.595c0.013-0.086,0.068-0.151,0.093-0.177c1.287-0.92,1.627-2.748,0.732-4.091   C8.939,12.5,8.005,12,6.999,12L6.999,12z"/>
</g>
<g>
	<path d="M27,6c0.553,0,1,0.448,1,1c0,0.548-0.441,0.994-0.988,1c-0.239,0.007-2.271,0.161-3.042,3.243   C22.794,15.946,19.154,16,19,16c-0.553,0-1-0.448-1-1s0.447-1,1-1c0.217-0.006,2.258-0.153,3.03-3.243C23.206,6.054,26.846,6,27,6    M27,4c-1.984,0-5.672,1.321-6.91,6.272c-0.377,1.508-1.051,1.705-1.184,1.729C17.295,12.051,16,13.377,16,15c0,1.654,1.346,3,3,3   c1.984,0,5.672-1.321,6.91-6.272c0.382-1.527,1.069-1.709,1.193-1.729C28.707,9.943,30,8.612,30,7C30,5.346,28.654,4,27,4L27,4z"/>
</g>
</svg>
