<?xml version="1.0" encoding="utf-8"?>
<!-- Generator: Adobe Illustrator 16.0.0, SVG Export Plug-In . SVG Version: 6.00 Build 0)  -->
<!DOCTYPE svg PUBLIC "-//W3C//DTD SVG 1.1//EN" "http://www.w3.org/Graphics/SVG/1.1/DTD/svg11.dtd">
<svg xmlns="http://www.w3.org/2000/svg" xmlns:xlink="http://www.w3.org/1999/xlink" version="1.1" id="Capa_1" x="0px" y="0px" width="32px" height="32px" viewBox="0 0 32 32" enable-background="new 0 0 32 32" xml:space="preserve">
<g>
	<path d="M25,22c-1.81,0-3.35,0.22-4.62,0.67C19.44,23,18.65,23.44,18,24v-2h1c5.54,0,7-5.89,7-9c0-0.55-0.44-1-1-1   c-1.81,0-3.35,0.22-4.62,0.67C19.44,13,18.65,13.44,18,14v-2.42c1.21-0.73,4-2.72,4-5.58c0-3.58-4.37-5.8-4.55-5.89   c-0.28-0.15-0.62-0.15-0.9,0C16.37,0.2,12,2.42,12,6c0,2.86,2.79,4.85,4,5.58V14c-0.65-0.56-1.44-1-2.38-1.33   C12.35,12.22,10.81,12,9,12c-0.56,0-1,0.45-1,1c0,3.11,1.46,9,7,9h1v2c-0.65-0.56-1.44-1-2.38-1.33C12.35,22.22,10.81,22,9,22   c-0.56,0-1,0.45-1,1c0,3.11,1.46,9,7,9h1h2h1c5.54,0,7-5.89,7-9C26,22.45,25.56,22,25,22z M16,30h-1c-3.81,0-4.72-4.02-4.93-5.97   c2.37,0.13,4.07,0.77,5.04,1.899c0.6,0.7,0.82,1.46,0.89,2.03V30z M16,20h-1c-3.81,0-4.72-4.02-4.93-5.97   c2.37,0.13,4.07,0.77,5.04,1.9c0.6,0.7,0.82,1.459,0.89,2.03V20z M18.89,15.93c0.971-1.13,2.67-1.77,5.04-1.9   C23.72,15.98,22.81,20,19,20h-1v-2.04C18.07,17.39,18.29,16.63,18.89,15.93z M17.01,9.85C16.08,9.28,14,7.81,14,6   c0-1.68,1.87-3.17,2.99-3.85C17.92,2.72,20,4.19,20,6C20,7.68,18.13,9.17,17.01,9.85z M19,30h-1v-2.04   c0.07-0.57,0.29-1.33,0.89-2.03c0.971-1.13,2.67-1.77,5.04-1.899C23.72,25.98,22.81,30,19,30z"/>
</g>
</svg>
