<?xml version="1.0" encoding="utf-8"?>
<!-- Generator: Adobe Illustrator 16.0.0, SVG Export Plug-In . SVG Version: 6.00 Build 0)  -->
<!DOCTYPE svg PUBLIC "-//W3C//DTD SVG 1.1//EN" "http://www.w3.org/Graphics/SVG/1.1/DTD/svg11.dtd">
<svg xmlns="http://www.w3.org/2000/svg" xmlns:xlink="http://www.w3.org/1999/xlink" version="1.1" id="Capa_1" x="0px" y="0px" width="32px" height="32px" viewBox="0 0 32 32" enable-background="new 0 0 32 32" xml:space="preserve">
<g>
	<path d="M25,4H7c-5.54,0-7,4.58-7,7v12c0,5.54,4.58,7,7,7h18c2.42,0,7-1.46,7-7V11C32,8.58,30.54,4,25,4z M30,23c0,4.82-4.48,5-5,5   H7c-0.2,0-5-0.06-5-5V11c0-0.2,0.06-5,5-5h18c4.82,0,5,4.49,5,5V23z"/>
</g>
<g>
	<path d="M23,8H9c-3.96,0-5,3.27-5,5v8c0,1.73,1.04,5,5,5h14c1.73,0,5-1.04,5-5v-8C28,9.04,24.73,8,23,8z M13.38,10h5.24   c0.21,0.24,0.61,0.86,0.93,2.21C18.43,12.08,17.24,12,16,12s-2.43,0.08-3.55,0.21C12.77,10.86,13.17,10.24,13.38,10z M6,15.71   c0.78-0.27,2.23-0.73,4.09-1.09C10.03,15.33,10,16.12,10,17s0.03,1.67,0.08,2.38c-1.85-0.37-3.3-0.82-4.08-1.09V15.71z M9,24   c-2.82,0-2.99-2.5-3-3v-0.59c1.01,0.31,2.52,0.74,4.35,1.07c0.2,1.079,0.46,1.899,0.73,2.52H9z M10.35,12.52   C8.52,12.85,7.01,13.28,6,13.59v-0.58C6.01,12.5,6.18,10,9,10h2.08C10.81,10.62,10.55,11.44,10.35,12.52z M18.65,24H13.38   c-0.21-0.24-0.61-0.86-0.93-2.21C13.57,21.92,14.76,22,16,22s2.43-0.08,3.55-0.21C19.23,23.16,18.83,23.77,18.65,24z M19.88,19.72   C18.67,19.89,17.36,20,16,20c-1.36,0-2.67-0.11-3.88-0.28C12.05,18.95,12,18.05,12,17s0.05-1.96,0.12-2.73   C13.33,14.11,14.64,14,16,14c1.36,0,2.67,0.11,3.88,0.28C19.95,15.05,20,15.95,20,17S19.95,18.95,19.88,19.72z M26,21   c0,2.82-2.5,2.99-3,3h-2.08c0.271-0.62,0.53-1.44,0.73-2.52c1.83-0.33,3.34-0.761,4.35-1.07V21z M26,18.29   c-0.78,0.27-2.23,0.729-4.09,1.09C21.97,18.67,22,17.88,22,17s-0.03-1.67-0.08-2.38c1.85,0.37,3.3,0.82,4.08,1.09V18.29z M26,13.59   c-1.01-0.31-2.52-0.74-4.35-1.07c-0.2-1.08-0.46-1.9-0.73-2.52h2.07C23.5,10.01,26,10.18,26,13V13.59z"/>
</g>
</svg>
