<?xml version="1.0" encoding="utf-8"?>
<!-- Generator: Adobe Illustrator 16.0.0, SVG Export Plug-In . SVG Version: 6.00 Build 0)  -->
<!DOCTYPE svg PUBLIC "-//W3C//DTD SVG 1.1//EN" "http://www.w3.org/Graphics/SVG/1.1/DTD/svg11.dtd">
<svg xmlns="http://www.w3.org/2000/svg" xmlns:xlink="http://www.w3.org/1999/xlink" version="1.1" id="Capa_1" x="0px" y="0px" width="32px" height="32px" viewBox="0 0 32 32" enable-background="new 0 0 32 32" xml:space="preserve">
<g>
	<path d="M21,14h-0.99c-0.45-0.01-0.979-0.19-1.01-0.94c1.84-1.24,3-3.55,3-6.06c0-3.86-2.69-7-6-7c-3.31,0-6,3.14-6,7   c0,2.51,1.16,4.82,3,6.06c-0.03,0.75-0.56,0.93-1,0.94h-1c-6.92,0-7,4.95-7,5v2c0,0.55,0.45,1,1,1h4c0.81,0,0.99,0.55,1,1v1H7   c-0.32,0-0.62,0.15-0.81,0.42c-0.19,0.26-0.24,0.59-0.14,0.9l2,6c0.18,0.52,0.74,0.8,1.27,0.63c0.52-0.181,0.8-0.74,0.63-1.271   L8.39,26h15.22l-1.561,4.68c-0.17,0.53,0.11,1.09,0.63,1.271C22.79,31.98,22.9,32,23,32c0.42,0,0.81-0.26,0.95-0.68l2-6   c0.1-0.311,0.05-0.641-0.141-0.9C25.62,24.15,25.32,24,25,24h-3v-0.99c0.01-0.46,0.19-1.01,1-1.01h4c0.55,0,1-0.45,1-1v-2   C28,18.95,27.92,14,21,14z M26,20h-3c-2.2,0-3,1.79-3,3v1h-8v-1c0-1.21-0.8-3-3-3H6v-0.99C6.01,18.7,6.22,16,11,16h1   c1.21,0,3-0.8,3-3v-0.5c0-0.37-0.21-0.71-0.53-0.88C12.97,10.82,12,9.01,12,7c0-2.76,1.79-5,4-5s4,2.24,4,5   c0,2.01-0.97,3.82-2.47,4.62C17.21,11.79,17,12.13,17,12.5V13c0,2.2,1.79,3,3,3h1c4.78,0,4.99,2.7,5,3V20z"/>
</g>
</svg>
