<?xml version="1.0" encoding="utf-8"?>
<!-- Generator: Adobe Illustrator 16.0.0, SVG Export Plug-In . SVG Version: 6.00 Build 0)  -->
<!DOCTYPE svg PUBLIC "-//W3C//DTD SVG 1.1//EN" "http://www.w3.org/Graphics/SVG/1.1/DTD/svg11.dtd">
<svg xmlns="http://www.w3.org/2000/svg" xmlns:xlink="http://www.w3.org/1999/xlink" version="1.1" id="Capa_1" x="0px" y="0px" width="32px" height="32px" viewBox="0 0 32 32" enable-background="new 0 0 32 32" xml:space="preserve">
<g>
	<g>
		<g>
			<path d="M19,30c-2.17,0-4.414,0-5.707-1.293c-2.457-2.456-0.387-4.627,0.982-6.063C15.123,21.754,16,20.834,16,20     c0-1.392-0.942-1.886-1.75-1.886C13.131,18.114,12,19.007,12,21c0,3.955-3.271,5-5,5c-4.943,0-5-8.633-5-9C2,7.047,7.047,2,17,2     c3.373,0,13,2.389,13,13C30,27.397,24.019,30,19,30z M14.25,16.115c1.863,0,3.75,1.334,3.75,3.885     c0,1.634-1.21,2.903-2.277,4.023c-1.779,1.865-1.931,2.354-1.016,3.27C15.414,28,17.237,28,19,28c5.972,0,9-4.374,9-13     c0-8.979-8.146-11-11-11C11.42,4,4,5.348,4,17c0.002,1.815,0.559,7,3,7c0.496-0.006,3-0.177,3-3     C10,17.793,12.139,16.115,14.25,16.115z"/>
		</g>
	</g>
	<g>
		<circle cx="19" cy="11" r="3"/>
	</g>
	<g>
		<circle cx="23" cy="19" r="3"/>
	</g>
	<g>
		<circle cx="11" cy="11" r="3"/>
	</g>
</g>
</svg>
