<?xml version="1.0" encoding="utf-8"?>
<!-- Generator: Adobe Illustrator 16.0.0, SVG Export Plug-In . SVG Version: 6.00 Build 0)  -->
<!DOCTYPE svg PUBLIC "-//W3C//DTD SVG 1.1//EN" "http://www.w3.org/Graphics/SVG/1.1/DTD/svg11.dtd">
<svg xmlns="http://www.w3.org/2000/svg" xmlns:xlink="http://www.w3.org/1999/xlink" version="1.1" id="Capa_1" x="0px" y="0px" width="32px" height="32px" viewBox="0 0 32 32" enable-background="new 0 0 32 32" xml:space="preserve">
<path d="M15.242,20.07l2.344,2.344L19,23.828l1.414-1.414l2.343-2.344c3.716,0.722,4.802,6.724,5.116,9.93H10.124  C10.434,26.793,11.511,20.788,15.242,20.07 M22,18l-3,3l-3-3c-8,0-8,14-8,14h22C30,32,30,18,22,18L22,18z"/>
<path d="M19,4c2.757,0,5,2.691,5,6s-2.243,6-5,6s-5-2.691-5-6S16.243,4,19,4 M19,2c-3.866,0-7,3.582-7,8s3.134,8,7,8s7-3.582,7-8  S22.866,2,19,2L19,2z"/>
<g>
	<polygon points="5,10.414 2.293,7.707 3.707,6.293 5,7.586 10.293,2.293 11.707,3.707  "/>
</g>
<g>
	<g>
		<path d="M14,2V0H0v14h10v-2H2V2H14z"/>
	</g>
</g>
</svg>
