<?xml version="1.0" encoding="utf-8"?>
<!-- Generator: Adobe Illustrator 16.0.0, SVG Export Plug-In . SVG Version: 6.00 Build 0)  -->
<!DOCTYPE svg PUBLIC "-//W3C//DTD SVG 1.1//EN" "http://www.w3.org/Graphics/SVG/1.1/DTD/svg11.dtd">
<svg xmlns="http://www.w3.org/2000/svg" xmlns:xlink="http://www.w3.org/1999/xlink" version="1.1" id="Capa_1" x="0px" y="0px" width="32px" height="32px" viewBox="0 0 32 32" enable-background="new 0 0 32 32" xml:space="preserve">
<g>
	<path d="M25,32H7c-2.201,0-3-1.794-3-3V3c0-2.201,1.794-3,3-3h18c2.088,0,2.914,1.615,2.993,2.81H28V4h-2V3   c-0.012-0.45-0.194-1-1-1H7C6.55,2.012,6,2.195,6,3v26c0.012,0.45,0.195,1,1,1h18c0.45-0.012,1-0.194,1-1v-5h2v5   C28,31.201,26.206,32,25,32z"/>
</g>
<g>
	<polygon points="21,14.414 18.293,11.707 19.707,10.293 21,11.586 26.293,6.293 27.707,7.707  "/>
</g>
<g>
	<polygon points="21,20.414 18.293,17.707 19.707,16.293 21,17.586 26.293,12.293 27.707,13.707  "/>
</g>
<g>
	<polygon points="21,26.414 18.293,23.707 19.707,22.293 21,23.586 26.293,18.293 27.707,19.707  "/>
</g>
<g>
	<rect x="8" y="6" width="10" height="2"/>
</g>
<g>
	<rect x="8" y="12" width="8" height="2"/>
</g>
<g>
	<rect x="8" y="18" width="8" height="2"/>
</g>
<g>
	<rect x="8" y="24" width="8" height="2"/>
</g>
</svg>
