<?xml version="1.0" encoding="utf-8"?>
<!-- Generator: Adobe Illustrator 16.0.0, SVG Export Plug-In . SVG Version: 6.00 Build 0)  -->
<!DOCTYPE svg PUBLIC "-//W3C//DTD SVG 1.1//EN" "http://www.w3.org/Graphics/SVG/1.1/DTD/svg11.dtd">
<svg xmlns="http://www.w3.org/2000/svg" xmlns:xlink="http://www.w3.org/1999/xlink" version="1.1" id="Capa_1" x="0px" y="0px" width="32px" height="32px" viewBox="0 0 32 32" enable-background="new 0 0 32 32" xml:space="preserve">
<g>
	<path d="M23.89,4.55L23.62,4H22V2h-2v2h-8V2h-2v2H8.38L8.11,4.55C7.94,4.89,4,12.86,4,21c0,7.12,7.85,9,12,9c4.15,0,12-1.88,12-9   C28,12.86,24.06,4.89,23.89,4.55z M22,6c0,0.33-0.09,8-6,8s-6-7.67-6-8H22z M16,28c-0.42,0-10-0.11-10-7   c0-4.42,1.28-8.89,2.38-11.9C9.16,12.38,11.29,16,16,16s6.84-3.62,7.62-6.9c1.1,3,2.38,7.47,2.38,11.9C26,27.89,16.42,28,16,28z"/>
</g>
<g>
	<rect x="14" y="10" width="4" height="2"/>
</g>
</svg>
