<?xml version="1.0" encoding="utf-8"?>
<!-- Generator: Adobe Illustrator 16.0.0, SVG Export Plug-In . SVG Version: 6.00 Build 0)  -->
<!DOCTYPE svg PUBLIC "-//W3C//DTD SVG 1.1//EN" "http://www.w3.org/Graphics/SVG/1.1/DTD/svg11.dtd">
<svg xmlns="http://www.w3.org/2000/svg" xmlns:xlink="http://www.w3.org/1999/xlink" version="1.1" id="Capa_1" x="0px" y="0px" width="32px" height="32px" viewBox="0 0 32 32" enable-background="new 0 0 32 32" xml:space="preserve">
<g>
	<path d="M15,2C6.72,2,0,8.72,0,17c0,8.28,6.72,15,15,15c8.28,0,15-6.72,15-15C30,8.72,23.28,2,15,2z M14.26,4.03   c0.22,1.21,0.14,4.16-3.97,8.26c-4.1,4.11-7.04,4.19-8.26,3.97C2.39,9.68,7.68,4.39,14.26,4.03z M13.73,29.93   C7.58,29.34,2.67,24.43,2.07,18.28c0.22,0.029,0.46,0.04,0.72,0.04c1.97,0,5.11-0.811,8.92-4.61c4.31-4.31,4.76-7.77,4.56-9.64   c6.16,0.59,11.07,5.5,11.66,11.66c-1.87-0.2-5.33,0.25-9.64,4.56C13.98,24.6,13.53,28.06,13.73,29.93z M15.74,29.97   c-0.22-1.21-0.14-4.16,3.97-8.26c4.11-4.12,7.07-4.19,8.271-3.979C27.61,24.32,22.32,29.61,15.74,29.97z"/>
</g>
</svg>
