<?xml version="1.0" encoding="utf-8"?>
<!-- Generator: Adobe Illustrator 16.0.0, SVG Export Plug-In . SVG Version: 6.00 Build 0)  -->
<!DOCTYPE svg PUBLIC "-//W3C//DTD SVG 1.1//EN" "http://www.w3.org/Graphics/SVG/1.1/DTD/svg11.dtd">
<svg xmlns="http://www.w3.org/2000/svg" xmlns:xlink="http://www.w3.org/1999/xlink" version="1.1" id="Capa_1" x="0px" y="0px" width="32px" height="32px" viewBox="0 0 32 32" enable-background="new 0 0 32 32" xml:space="preserve">
<path d="M15,2C6.72,2,0,8.72,0,17c0,8.28,6.72,15,15,15c8.28,0,15-6.72,15-15C30,8.72,23.28,2,15,2z M15,30C7.83,30,2,24.17,2,17  S7.83,4,15,4s13,5.83,13,13S22.17,30,15,30z"/>
<path d="M15,8c-4.96,0-9,4.04-9,9s4.04,9,9,9s9-4.04,9-9S19.96,8,15,8z M15,24c-3.87,0-7-3.13-7-7s3.13-7,7-7s7,3.13,7,7  S18.87,24,15,24z"/>
<path d="M18,15c0-1.65-1.35-3-3-3s-3,1.35-3,3c0,0.76,0.29,1.47,0.77,2C12.29,17.53,12,18.24,12,19c0,1.65,1.35,3,3,3s3-1.35,3-3  c0-0.76-0.29-1.47-0.77-2C17.71,16.47,18,15.76,18,15z M15,20c-0.55,0-1-0.45-1-1s0.45-1,1-1s1,0.45,1,1S15.55,20,15,20z M15,16  c-0.55,0-1-0.45-1-1s0.45-1,1-1s1,0.45,1,1S15.55,16,15,16z"/>
</svg>
