<?xml version="1.0" encoding="utf-8"?>
<!-- Generator: Adobe Illustrator 16.0.0, SVG Export Plug-In . SVG Version: 6.00 Build 0)  -->
<!DOCTYPE svg PUBLIC "-//W3C//DTD SVG 1.1//EN" "http://www.w3.org/Graphics/SVG/1.1/DTD/svg11.dtd">
<svg xmlns="http://www.w3.org/2000/svg" xmlns:xlink="http://www.w3.org/1999/xlink" version="1.1" id="Capa_1" x="0px" y="0px" width="32px" height="32px" viewBox="0 0 32 32" enable-background="new 0 0 32 32" xml:space="preserve">
<g>
	<path d="M4.394,6.394c-5.855,5.855-5.855,15.358,0,21.213c5.854,5.854,15.357,5.854,21.213,0c5.855-5.855,5.854-15.358,0-21.213   C19.752,0.539,10.249,0.539,4.394,6.394z M2.018,17.637c1.464-0.445,4.999-0.996,8.712,2.221L5.136,25.45   C3.19,23.209,2.159,20.438,2.018,17.637z M6.55,26.864l5.594-5.593c3.231,3.711,2.68,7.231,2.234,8.711   C11.571,29.848,8.792,28.809,6.55,26.864z M23.457,26.871c-2.03,1.746-4.482,2.758-7.001,3.041   c0.495-2.137,0.657-6.061-2.892-10.063L15,18.414L23.457,26.871z M13.586,17l-1.436,1.436c-4.003-3.548-7.927-3.387-10.063-2.892   c0.282-2.518,1.294-4.971,3.048-6.994L13.586,17z M6.55,7.136c2.022-1.753,4.477-2.765,6.993-3.047   c-0.494,2.135-0.657,6.06,2.893,10.062L15,15.586L6.55,7.136z M24.871,25.457L16.414,17l1.436-1.436   c4.002,3.551,7.928,3.387,10.063,2.893C27.63,20.975,26.617,23.428,24.871,25.457z M27.982,16.364   c-1.465,0.444-5,0.997-8.713-2.221l5.602-5.601C26.811,10.792,27.841,13.564,27.982,16.364z M17.855,12.729   c-3.23-3.713-2.68-7.233-2.233-8.712c2.808,0.134,5.586,1.173,7.835,3.111L17.855,12.729z"/>
</g>
</svg>
