<?xml version="1.0" encoding="utf-8"?>
<!-- Generator: Adobe Illustrator 16.0.0, SVG Export Plug-In . SVG Version: 6.00 Build 0)  -->
<!DOCTYPE svg PUBLIC "-//W3C//DTD SVG 1.1//EN" "http://www.w3.org/Graphics/SVG/1.1/DTD/svg11.dtd">
<svg xmlns="http://www.w3.org/2000/svg" xmlns:xlink="http://www.w3.org/1999/xlink" version="1.1" id="Capa_1" x="0px" y="0px" width="32px" height="32px" viewBox="0 0 32 32" enable-background="new 0 0 32 32" xml:space="preserve">
<g>
	<path d="M15.5,2.01C15.34,2,15.17,2,15,2C8.14,2,2.35,6.62,0.57,12.91C0.2,14.21,0,15.58,0,17c0,8.28,6.72,15,15,15   c1.75,0,3.43-0.3,4.99-0.86c3.89-1.37,7.04-4.3,8.71-8.029C29.54,21.24,30,19.18,30,17C30,8.89,23.55,2.27,15.5,2.01z M17.06,4.16   C18.08,4.33,19.07,4.61,20,5c0,3.04-0.57,5.27-1.35,6.9c-1.33,2.84-3.26,3.85-3.82,4.09c-0.6-0.01-2.6-0.09-4.86-0.54   C9.94,13.99,10.38,8.85,17.06,4.16z M13.95,4.05c-5.07,4.34-5.89,8.82-5.97,10.9C6.01,14.37,4.11,13.44,3,11.99   C4.84,7.61,9.01,4.44,13.95,4.05z M2,17c0-0.97,0.11-1.91,0.31-2.82C6,17.57,13,17.95,14.66,17.99h0.01   c0.57,0.47,2.07,1.89,2.99,4.5c-2.43,0.92-9.35,2.8-15.34-2.62v-0.01C2.11,18.94,2,17.98,2,17z M18.22,29.6   C17.19,29.86,16.11,30,15,30c-4.87,0-9.12-2.69-11.35-6.66c2.79,1.65,5.63,2.18,8.13,2.18c2.73,0,5.04-0.63,6.39-1.109   C18.44,25.87,18.51,27.59,18.22,29.6z M20.32,28.86c0.6-6.32-1.971-10.011-3.57-11.66c0.87-0.57,1.98-1.53,2.96-3.07   c1.5,0.38,4.91,2.06,6.31,9.07l0.101,0.51C24.77,25.96,22.74,27.77,20.32,28.86z M27.46,20.7c-1.72-5.82-4.94-7.74-6.8-8.38   c0.7-1.61,1.21-3.67,1.31-6.28C25.59,8.34,28,12.39,28,17C28,18.29,27.81,19.53,27.46,20.7z"/>
</g>
</svg>
