<?xml version="1.0" encoding="utf-8"?>
<!-- Generator: Adobe Illustrator 16.0.0, SVG Export Plug-In . SVG Version: 6.00 Build 0)  -->
<!DOCTYPE svg PUBLIC "-//W3C//DTD SVG 1.1//EN" "http://www.w3.org/Graphics/SVG/1.1/DTD/svg11.dtd">
<svg xmlns="http://www.w3.org/2000/svg" xmlns:xlink="http://www.w3.org/1999/xlink" version="1.1" id="Capa_1" x="0px" y="0px" width="32px" height="32px" viewBox="0 0 32 32" enable-background="new 0 0 32 32" xml:space="preserve">
<g>
	<path d="M15,2C6.72,2,0,8.72,0,17c0,8.28,6.72,15,15,15c8.28,0,15-6.72,15-15C30,8.72,23.28,2,15,2z M27.96,16H19.9   c-0.16-0.81-0.53-1.55-1.03-2.17l4.21-7.01C25.83,9.01,27.68,12.29,27.96,16z M15,4c2.33,0,4.52,0.62,6.41,1.7l-4.11,6.86   C16.61,12.2,15.83,12,15,12s-1.61,0.2-2.3,0.56L8.58,5.7C10.47,4.62,12.67,4,15,4z M18,17c0,1.65-1.35,3-3,3s-3-1.35-3-3   c0-1.65,1.35-3,3-3S18,15.35,18,17z M6.93,6.82l4.21,7v0.01c-0.51,0.62-0.88,1.36-1.04,2.17H2.05C2.32,12.28,4.17,9,6.93,6.82z    M2.05,18h8.05c0.16,0.81,0.53,1.55,1.03,2.17l-4.21,7.01C4.17,24.99,2.32,21.71,2.05,18z M15,30c-2.33,0-4.52-0.62-6.41-1.7   l4.11-6.859C13.39,21.8,14.17,22,15,22s1.61-0.2,2.3-0.56l4.12,6.859C19.53,29.38,17.33,30,15,30z M23.08,27.18l-4.21-7.01   c0.5-0.62,0.87-1.36,1.03-2.17h8.06C27.68,21.71,25.83,24.99,23.08,27.18z"/>
</g>
</svg>
