<?xml version="1.0" encoding="utf-8"?>
<!-- Generator: Adobe Illustrator 16.0.0, SVG Export Plug-In . SVG Version: 6.00 Build 0)  -->
<!DOCTYPE svg PUBLIC "-//W3C//DTD SVG 1.1//EN" "http://www.w3.org/Graphics/SVG/1.1/DTD/svg11.dtd">
<svg xmlns="http://www.w3.org/2000/svg" xmlns:xlink="http://www.w3.org/1999/xlink" version="1.1" id="Capa_1" x="0px" y="0px" width="32px" height="32px" viewBox="0 0 32 32" enable-background="new 0 0 32 32" xml:space="preserve">
<g>
	<path d="M0,2v28h32V2H0z M30,28H2V4h28V28z"/>
</g>
<g>
	<path d="M22,12.22V6h-6v2.95l-2-1.09L2.52,14.12l0.96,1.76L6,14.51V22h16v-7.49l2.52,1.37l0.961-1.76L22,12.22z M20,20H8v-2h12V20z    M20,16H8v-2.59l6-3.27l6,3.27V16z M20,11.13l-2-1.09V8h2V11.13z"/>
</g>
<g>
	<polygon points="28,6 28,26 4,26 4,24 26,24 26,6  "/>
</g>
</svg>
