<?xml version="1.0" encoding="utf-8"?>
<!-- Generator: Adobe Illustrator 16.0.0, SVG Export Plug-In . SVG Version: 6.00 Build 0)  -->
<!DOCTYPE svg PUBLIC "-//W3C//DTD SVG 1.1//EN" "http://www.w3.org/Graphics/SVG/1.1/DTD/svg11.dtd">
<svg xmlns="http://www.w3.org/2000/svg" xmlns:xlink="http://www.w3.org/1999/xlink" version="1.1" id="Capa_1" x="0px" y="0px" width="32px" height="32px" viewBox="0 0 32 32" enable-background="new 0 0 32 32" xml:space="preserve">
<rect x="4" y="6" width="18" height="2"/>
<rect x="4" y="10" width="12" height="2"/>
<rect x="4" y="14" width="8" height="2"/>
<g>
	<path d="M27,2H5C1.04,2,0,5.27,0,7v14c0,3.96,3.27,5,5,5h9.58l-0.56,2.8c-0.08,0.4,0.09,0.812,0.42,1.03   c0.34,0.229,0.78,0.229,1.11,0L21,26.2l5.45,3.63C26.609,29.939,26.811,30,27,30s0.391-0.061,0.561-0.17   c0.33-0.221,0.5-0.63,0.42-1.03l-0.569-2.819C31.029,25.77,32,22.67,32,21V7C32,3.04,28.73,2,27,2z M21.55,24.17   c-0.329-0.229-0.771-0.229-1.1,0l-4,2.66l1.229-6.1C18.57,21.52,19.73,22,21,22s2.43-0.48,3.32-1.27l1.229,6.1L21.55,24.17z M18,17   c0-1.65,1.35-3,3-3s3,1.35,3,3c0,1.65-1.35,3-3,3S18,18.65,18,17z M30,20.99c-0.01,0.51-0.18,3-2.98,3.01l-1.17-5.811   C25.95,17.811,26,17.41,26,17c0-2.76-2.24-5-5-5s-5,2.24-5,5c0,0.41,0.05,0.811,0.15,1.189L14.98,24H5.01C4.5,23.99,2,23.82,2,21   V7.01C2.01,6.5,2.18,4,5,4h21.99C27.5,4.01,30,4.18,30,7V20.99z"/>
</g>
</svg>
