<?xml version="1.0" encoding="utf-8"?>
<!-- Generator: Adobe Illustrator 16.0.0, SVG Export Plug-In . SVG Version: 6.00 Build 0)  -->
<!DOCTYPE svg PUBLIC "-//W3C//DTD SVG 1.1//EN" "http://www.w3.org/Graphics/SVG/1.1/DTD/svg11.dtd">
<svg xmlns="http://www.w3.org/2000/svg" xmlns:xlink="http://www.w3.org/1999/xlink" version="1.1" id="Capa_1" x="0px" y="0px" width="32px" height="32px" viewBox="0 0 32 32" enable-background="new 0 0 32 32" xml:space="preserve">
<g>
	<path d="M30.2,28l1.63-2.45c0.21-0.3,0.229-0.7,0.05-1.02C31.71,24.2,31.37,24,31,24h-5v-3c0-0.55-0.45-1-1-1H7c-0.55,0-1,0.45-1,1   v3H1c-0.37,0-0.71,0.2-0.88,0.53c-0.18,0.319-0.16,0.72,0.05,1.02L1.8,28l-1.63,2.45c-0.21,0.3-0.23,0.7-0.05,1.02   C0.29,31.8,0.63,32,1,32h8c0.55,0,1-0.45,1-1v-3h12v3c0,0.55,0.45,1,1,1h8c0.37,0,0.71-0.2,0.88-0.53   c0.18-0.319,0.16-0.72-0.05-1.02L30.2,28z M8,30H2.87l0.96-1.45c0.23-0.33,0.23-0.77,0-1.1L2.87,26H6v1c0,0.55,0.45,1,1,1h1V30z    M8,26v-4h16v4H8z M28.17,28.55L29.13,30H24v-2h1c0.55,0,1-0.45,1-1v-1h3.13l-0.96,1.45C27.94,27.78,27.94,28.22,28.17,28.55z"/>
</g>
<path d="M16,2C8.27,2,2,8.27,2,16c0,1.391,0.2,2.73,0.58,4h2.11C4.24,18.75,4,17.4,4,16C4,9.38,9.38,4,16,4s12,5.38,12,12  c0,1.4-0.24,2.75-0.69,4h2.11C29.8,18.73,30,17.391,30,16C30,8.27,23.73,2,16,2z"/>
<path d="M16,6C10.48,6,6,10.48,6,16c0,0.68,0.07,1.35,0.2,2h2.06C8.09,17.36,8,16.69,8,16c0-4.41,3.59-8,8-8s8,3.59,8,8  c0,0.69-0.09,1.36-0.26,2h2.06c0.13-0.65,0.2-1.32,0.2-2C26,10.48,21.52,6,16,6z"/>
</svg>
