<?xml version="1.0" encoding="utf-8"?>
<!-- Generator: Adobe Illustrator 16.0.0, SVG Export Plug-In . SVG Version: 6.00 Build 0)  -->
<!DOCTYPE svg PUBLIC "-//W3C//DTD SVG 1.1//EN" "http://www.w3.org/Graphics/SVG/1.1/DTD/svg11.dtd">
<svg xmlns="http://www.w3.org/2000/svg" xmlns:xlink="http://www.w3.org/1999/xlink" version="1.1" id="Capa_1" x="0px" y="0px" width="32px" height="32px" viewBox="0 0 32 32" enable-background="new 0 0 32 32" xml:space="preserve">
<g>
	<path d="M30,16H2V3c0-1.206,0.799-3,3-3h22c1.206,0,3,0.799,3,3V16z M4,14h24V3c0-0.805-0.55-0.988-1.012-1H5   C4.195,2,4.012,2.55,4,3.012V14z"/>
</g>
<g>
	<path d="M4,18c-3.16,0-4,1.96-4,3v11h2v-4h4v4h2V21C8,19.96,7.16,18,4,18z M6,26H2v-4.97C2.01,20.86,2.16,20,4,20s1.99,0.86,2,1V26   z"/>
</g>
<g>
	<path d="M16,18c-3.16,0-4,1.96-4,3v11h2v-4h4v4h2V21C20,19.96,19.16,18,16,18z M18,26h-4v-4.97c0.01-0.17,0.16-1.03,2-1.03   s1.99,0.86,2,1V26z"/>
</g>
<g>
	<path d="M28,18c-3.16,0-4,1.96-4,3v11h2v-4h4v4h2V21C32,19.96,31.16,18,28,18z M30,26h-4v-4.97c0.01-0.17,0.16-1.03,2-1.03   s1.99,0.86,2,1V26z"/>
</g>
<g>
	<rect x="6" y="4" width="6" height="2"/>
</g>
<g>
	<rect x="6" y="8" width="12" height="2"/>
</g>
</svg>
