<?xml version="1.0" encoding="utf-8"?>
<!-- Generator: Adobe Illustrator 16.0.0, SVG Export Plug-In . SVG Version: 6.00 Build 0)  -->
<!DOCTYPE svg PUBLIC "-//W3C//DTD SVG 1.1//EN" "http://www.w3.org/Graphics/SVG/1.1/DTD/svg11.dtd">
<svg xmlns="http://www.w3.org/2000/svg" xmlns:xlink="http://www.w3.org/1999/xlink" version="1.1" id="Capa_1" x="0px" y="0px" width="32px" height="32px" viewBox="0 0 32 32" enable-background="new 0 0 32 32" xml:space="preserve">
<g>
	<path d="M24,8V4H8v4H0v18h32V8H24z M8,24H2V10h6V24z M18,24h-4v-4.99c0.01-0.46,0.19-1.01,1-1.01h1.99c0.46,0.01,1.01,0.19,1.01,1   V24z M22,24h-2v-5c0-2.2-1.79-3-3-3h-2c-2.2,0-3,1.79-3,3v5h-2V6h12V24z M30,24h-6V10h6V24z"/>
</g>
<g>
	<rect x="4" y="12" width="2" height="2"/>
</g>
<g>
	<rect x="4" y="16" width="2" height="2"/>
</g>
<g>
	<rect x="4" y="20" width="2" height="2"/>
</g>
<g>
	<rect x="26" y="12" width="2" height="2"/>
</g>
<g>
	<rect x="26" y="16" width="2" height="2"/>
</g>
<g>
	<rect x="26" y="20" width="2" height="2"/>
</g>
<g>
	<rect x="12" y="12" width="8" height="2"/>
</g>
<g>
	<rect x="12" y="8" width="8" height="2"/>
</g>
<g>
	<rect y="28" width="32" height="2"/>
</g>
</svg>
