<?xml version="1.0" encoding="utf-8"?>
<!-- Generator: Adobe Illustrator 16.0.0, SVG Export Plug-In . SVG Version: 6.00 Build 0)  -->
<!DOCTYPE svg PUBLIC "-//W3C//DTD SVG 1.1//EN" "http://www.w3.org/Graphics/SVG/1.1/DTD/svg11.dtd">
<svg xmlns="http://www.w3.org/2000/svg" xmlns:xlink="http://www.w3.org/1999/xlink" version="1.1" id="Capa_1" x="0px" y="0px" width="32px" height="32px" viewBox="0 0 32 32" enable-background="new 0 0 32 32" xml:space="preserve">
<g>
	<g>
		<path d="M30,24V4H0v20h14v2h-4v2h10v-2h-4v-2H30z M2,6h26v12H2V6z M2,22v-2h26v2H2z"/>
	</g>
</g>
<g>
	<polygon points="10.4,15.8 5.333,12 10.4,8.2 11.6,9.8 8.667,12 11.6,14.2  "/>
</g>
<g>
	<polygon points="19.6,15.8 18.4,14.2 21.333,12 18.4,9.8 19.6,8.2 24.667,12  "/>
</g>
<g>
	<rect x="14" y="8.394" transform="matrix(0.8321 0.5547 -0.5547 0.8321 9.1756 -6.3051)" width="2" height="7.211"/>
</g>
</svg>
