<?xml version="1.0" encoding="utf-8"?>
<!-- Generator: Adobe Illustrator 16.0.0, SVG Export Plug-In . SVG Version: 6.00 Build 0)  -->
<!DOCTYPE svg PUBLIC "-//W3C//DTD SVG 1.1//EN" "http://www.w3.org/Graphics/SVG/1.1/DTD/svg11.dtd">
<svg xmlns="http://www.w3.org/2000/svg" xmlns:xlink="http://www.w3.org/1999/xlink" version="1.1" id="Capa_1" x="0px" y="0px" width="32px" height="32px" viewBox="0 0 32 32" enable-background="new 0 0 32 32" xml:space="preserve">
<g>
	<g>
		<path d="M13.46,0H4v20h6v-2H6V2h6v5c0,1.21,0.8,3,3,3h5V7.63L13.46,0z M15,8c-0.81,0-0.99-0.55-1-1V3.7L17.68,8H15z"/>
	</g>
</g>
<g>
	<path d="M21.46,12H12v20h16V19.63L21.46,12z M22,15.7l3.68,4.3H23c-0.81,0-0.99-0.55-1-1V15.7z M26,30H14V14h6v5c0,1.21,0.8,3,3,3   h3V30z"/>
</g>
</svg>
