<?xml version="1.0" encoding="utf-8"?>
<!-- Generator: Adobe Illustrator 16.0.0, SVG Export Plug-In . SVG Version: 6.00 Build 0)  -->
<!DOCTYPE svg PUBLIC "-//W3C//DTD SVG 1.1//EN" "http://www.w3.org/Graphics/SVG/1.1/DTD/svg11.dtd">
<svg xmlns="http://www.w3.org/2000/svg" xmlns:xlink="http://www.w3.org/1999/xlink" version="1.1" id="Capa_1" x="0px" y="0px" width="32px" height="32px" viewBox="0 0 32 32" enable-background="new 0 0 32 32" xml:space="preserve">
<g>
	<path d="M29.71,6.29l-4-4c-0.12-0.12-1.229-1.18-2.78-1.18c-0.949,0-1.859,0.41-2.64,1.18l-16,16c-0.09,0.1-0.17,0.21-0.22,0.34   l-4,10C0.02,28.75,0,28.87,0,29c0,2.2,1.79,3,3,3c0.13,0,0.25-0.02,0.37-0.07l10-4c0.13-0.05,0.24-0.13,0.34-0.22l16-16   C31.69,9.72,30.79,7.38,29.71,6.29z M2.84,29.99c-0.38-0.05-0.77-0.25-0.83-0.82l3.35-8.39l5.86,5.859L2.84,29.99z M13,25.58   L6.42,19L19,6.42L25.58,13L13,25.58z M28.29,10.29L27,11.58L20.42,5l1.29-1.29c0.4-0.4,0.8-0.6,1.22-0.6c0.74,0,1.36,0.6,1.36,0.6   l4,3.99C28.59,8.01,29.47,9.11,28.29,10.29z"/>
</g>
</svg>
