<?xml version="1.0" encoding="utf-8"?>
<!-- Generator: Adobe Illustrator 16.0.0, SVG Export Plug-In . SVG Version: 6.00 Build 0)  -->
<!DOCTYPE svg PUBLIC "-//W3C//DTD SVG 1.1//EN" "http://www.w3.org/Graphics/SVG/1.1/DTD/svg11.dtd">
<svg xmlns="http://www.w3.org/2000/svg" xmlns:xlink="http://www.w3.org/1999/xlink" version="1.1" id="Capa_1" x="0px" y="0px" width="32px" height="32px" viewBox="0 0 32 32" enable-background="new 0 0 32 32" xml:space="preserve">
<g>
	<path d="M29.76,18.35C29.57,18.13,29.29,18,29,18h-0.77c0.42-2.31,0.8-7.23-2.631-9.8c-3.18-2.38-4.77-3.43-5.619-3.88   C20,4.21,20,4.11,20,4c0-2.21-1.79-4-4-4s-4,1.79-4,4c0,0.11,0,0.21,0.02,0.32C11.17,4.77,9.58,5.82,6.4,8.2   c-3.43,2.57-3.05,7.49-2.63,9.8H3c-0.29,0-0.57,0.13-0.76,0.35c-0.19,0.23-0.27,0.521-0.23,0.811C2.37,21.31,4.39,32,9,32h14   c4.61,0,6.63-10.69,6.99-12.84C30.04,18.87,29.95,18.58,29.76,18.35z M16,2c1.1,0,2,0.9,2,2s-0.9,2-2,2c-1.1,0-2-0.9-2-2   S14.9,2,16,2z M7.6,9.8c2.99-2.24,4.42-3.18,5.08-3.57C13.4,7.3,14.62,8,16,8s2.6-0.7,3.32-1.77c0.66,0.39,2.09,1.33,5.08,3.57   c2.71,2.03,2.149,6.46,1.81,8.2H5.79C5.44,16.26,4.88,11.84,7.6,9.8z M9,30c-1.97,0-3.91-5.6-4.8-10h5.95l1.67,10H9z M18.15,30   h-4.3l-1.67-10h7.64L18.15,30z M23,30h-2.82l1.67-10h5.95C26.91,24.4,24.97,30,23,30z"/>
</g>
</svg>
