<?xml version="1.0" encoding="utf-8"?>
<!-- Generator: Adobe Illustrator 16.0.0, SVG Export Plug-In . SVG Version: 6.00 Build 0)  -->
<!DOCTYPE svg PUBLIC "-//W3C//DTD SVG 1.1//EN" "http://www.w3.org/Graphics/SVG/1.1/DTD/svg11.dtd">
<svg xmlns="http://www.w3.org/2000/svg" xmlns:xlink="http://www.w3.org/1999/xlink" version="1.1" id="Capa_1" x="0px" y="0px" width="32px" height="32px" viewBox="0 0 32 32" enable-background="new 0 0 32 32" xml:space="preserve">
<g>
	<path d="M15,14H3c-2.2,0-3,1.79-3,3v12c0,2.2,1.79,3,3,3h12c2.2,0,3-1.79,3-3V17C18,14.8,16.21,14,15,14z M16,28.99   C15.99,29.45,15.81,30,15,30H3.01C2.55,29.99,2,29.81,2,29V17.01C2.01,16.55,2.19,16,3,16h11.99c0.46,0.01,1.01,0.19,1.01,1V28.99z   "/>
</g>
<g>
	<path d="M9.93,18H8.07L4,28h2.08l0.83-2h4.18l0.83,2H14L9.93,18z M7.75,24L9,21l1.25,3H7.75z"/>
</g>
<g>
	<path d="M32,11v12c0,1.21-0.8,3-3,3h-9v-2h9c0.81,0,0.99-0.55,1-1.01V11c0-0.81-0.55-0.99-1.01-1H17c-0.81,0-0.99,0.55-1,1.01V12   h-2v-1c0-1.21,0.8-3,3-3h3V3c0-0.81-0.55-0.99-1.01-1H7C6.19,2,6.01,2.55,6,3.01V12H4V3c0-1.21,0.8-3,3-3h12c1.21,0,3,0.8,3,3v5h7   C30.21,8,32,8.8,32,11z"/>
</g>
<g>
	<path d="M25.82,16.11C25.93,15.79,26,15.42,26,15c0-2.2-1.79-3-3-3h-3v10h5c1.21,0,3-0.8,3-3C28,17.26,26.88,16.4,25.82,16.11z    M22,14h0.99c0.46,0.01,1.01,0.19,1.01,1s-0.55,0.99-1,1h-1V14z M24.99,20H22v-2h2.99c0.46,0.01,1.01,0.19,1.01,1   C26,19.8,25.45,19.99,24.99,20z"/>
</g>
<g>
	<path d="M17.37,6c0,0-2.36,0.4-2.43,0.4C14.5,6.16,13.88,6,13,6c-2.82,0-2.99,2.5-3,3.01c0.01,0.42,0.14,2.35,2,2.86V12H8.92   C8.24,11,8,9.82,8,9c0-1.73,1.04-5,5-5C15.38,4,16.7,4.94,17.37,6z"/>
</g>
</svg>
