<?xml version="1.0" encoding="utf-8"?>
<!-- Generator: Adobe Illustrator 16.0.0, SVG Export Plug-In . SVG Version: 6.00 Build 0)  -->
<!DOCTYPE svg PUBLIC "-//W3C//DTD SVG 1.1//EN" "http://www.w3.org/Graphics/SVG/1.1/DTD/svg11.dtd">
<svg xmlns="http://www.w3.org/2000/svg" xmlns:xlink="http://www.w3.org/1999/xlink" version="1.1" id="Capa_1" x="0px" y="0px" width="32px" height="32px" viewBox="0 0 32 32" enable-background="new 0 0 32 32" xml:space="preserve">
<g>
	<path d="M23,32h-4c-1.206,0-3-0.799-3-3v-6c-0.006-0.496-0.177-3-3-3h-2c-1.729,0-5-1.045-5-5V3c0-1.206,0.799-3,3-3h14   c1.206,0,3,0.799,3,3v26C26,30.206,25.201,32,23,32z M13,18c3.955,0,5,3.271,5,5v6c0,0.806,0.55,0.988,1.012,1H23   c0.806,0,0.988-0.55,1-1.012V3c0-0.805-0.55-0.988-1.012-1H9C8.195,2,8.012,2.55,8,3.012V15c0,2.823,2.503,2.994,3.005,3H13z"/>
</g>
<g>
	<circle fill-rule="evenodd" clip-rule="evenodd" cx="21" cy="27" r="1"/>
</g>
</svg>
