<?xml version="1.0" encoding="utf-8"?>
<!-- Generator: Adobe Illustrator 16.0.0, SVG Export Plug-In . SVG Version: 6.00 Build 0)  -->
<!DOCTYPE svg PUBLIC "-//W3C//DTD SVG 1.1//EN" "http://www.w3.org/Graphics/SVG/1.1/DTD/svg11.dtd">
<svg xmlns="http://www.w3.org/2000/svg" xmlns:xlink="http://www.w3.org/1999/xlink" version="1.1" id="Capa_1" x="0px" y="0px" width="32px" height="32px" viewBox="0 0 32 32" enable-background="new 0 0 32 32" xml:space="preserve">
<g>
	<path d="M27.45,8.11L27.24,8H2.76L2.55,8.11C2.29,8.24,0,9.51,0,14s2.29,5.76,2.55,5.89L2.76,20H10v7.41l5-5l5,5V20h7.24l0.21-0.11   C27.71,19.76,30,18.49,30,14S27.71,8.24,27.45,8.11z M10,18H3.31C2.93,17.68,2,16.62,2,14c0-2.64,0.94-3.69,1.3-4H10V18z M18,22.59   l-3-3l-3,3V14h6V22.59z M18,12h-6v-2h6V12z M26.7,18H20v-8h6.69c0.38,0.32,1.31,1.38,1.31,4C28,16.64,27.06,17.69,26.7,18z"/>
</g>
</svg>
