<?xml version="1.0" encoding="utf-8"?>
<!-- Generator: Adobe Illustrator 16.0.0, SVG Export Plug-In . SVG Version: 6.00 Build 0)  -->
<!DOCTYPE svg PUBLIC "-//W3C//DTD SVG 1.1//EN" "http://www.w3.org/Graphics/SVG/1.1/DTD/svg11.dtd">
<svg xmlns="http://www.w3.org/2000/svg" xmlns:xlink="http://www.w3.org/1999/xlink" version="1.1" id="Capa_1" x="0px" y="0px" width="32px" height="32px" viewBox="0 0 32 32" enable-background="new 0 0 32 32" xml:space="preserve">
<g>
	<path d="M17,0C8.72,0,2,6.72,2,15c0,0.34,0.01,0.67,0.04,1h2C4.01,15.67,4,15.34,4,15C4,7.83,9.83,2,17,2s13,5.83,13,13   c0,4.6-2.39,8.64-6,10.93v2.33c4.75-2.51,8-7.51,8-13.26C32,6.72,25.28,0,17,0z"/>
</g>
<g>
	<polygon points="26,8 26,14 24,14 24,11.42 19,16.41 14.97,12.38 10.99,16 8.02,16 15.03,9.62 19,13.59 22.58,10 20,10 20,8  "/>
</g>
<g>
	<path d="M0,18v14h22V18H0z M20,30H2V20h18V30z"/>
</g>
<g>
	<path d="M11,22c1.654,0,3,1.346,3,3s-1.346,3-3,3s-3-1.346-3-3S9.346,22,11,22L11,22z M11,20c-2.761,0-5,2.238-5,5s2.239,5,5,5   s5-2.238,5-5S13.761,20,11,20L11,20z"/>
</g>
</svg>
