<?xml version="1.0" encoding="utf-8"?>
<!-- Generator: Adobe Illustrator 16.0.0, SVG Export Plug-In . SVG Version: 6.00 Build 0)  -->
<!DOCTYPE svg PUBLIC "-//W3C//DTD SVG 1.1//EN" "http://www.w3.org/Graphics/SVG/1.1/DTD/svg11.dtd">
<svg xmlns="http://www.w3.org/2000/svg" xmlns:xlink="http://www.w3.org/1999/xlink" version="1.1" id="Capa_1" x="0px" y="0px" width="32px" height="32px" viewBox="0 0 32 32" enable-background="new 0 0 32 32" xml:space="preserve">
<g>
	<g>
		<path d="M14,30c-2.35,0-3.78-0.89-4.66-1.99C8.07,26.41,8,24.36,8,24c0-0.61,0.21-6,6-6c4.96,0,5.86,2.01,6,5l0,0    c-0.01,0.52-0.19,3-3,3h-3c-0.23,0-0.44-0.03-0.62-0.07l4.07-2.04C17.79,23.72,18,23.38,18,23c0-1.04-0.84-3-4-3    c-2.93,0-4,2.39-4,4s1.07,4,4,4h3c0.05,0,0.11,0,0.16-0.01C20.99,27.91,22,24.71,22,23V10l4-2L14,2L2,8l4,2v14c0,2.77,1.67,8,8,8    h16v-2H14z M12,24c0-0.33,0.1-2,2-2c1,0,1.5,0.25,1.75,0.51l-3.72,1.86C12.01,24.22,12,24.09,12,24z M20,17.75    C18.82,16.68,16.96,16,14,16c-2.86,0-4.77,1.07-6,2.5V11l6,3l6-3V17.75z M14,4.24L21.53,8L14,11.76L6.47,8L14,4.24z"/>
	</g>
</g>
<g>
	<path d="M17,28h0.16v-0.01C17.11,28,17.05,28,17,28z"/>
</g>
</svg>
