<?xml version="1.0" encoding="utf-8"?>
<!-- Generator: Adobe Illustrator 16.0.0, SVG Export Plug-In . SVG Version: 6.00 Build 0)  -->
<!DOCTYPE svg PUBLIC "-//W3C//DTD SVG 1.1//EN" "http://www.w3.org/Graphics/SVG/1.1/DTD/svg11.dtd">
<svg xmlns="http://www.w3.org/2000/svg" xmlns:xlink="http://www.w3.org/1999/xlink" version="1.1" id="Capa_1" x="0px" y="0px" width="32px" height="32px" viewBox="0 0 32 32" enable-background="new 0 0 32 32" xml:space="preserve">
<g>
	<path d="M14,30c-5.79,0-6-5.39-6-6s0.21-6,6-6c5.5,0,5.97,2.47,6,6c0,0,0,1,0,0.99S20,26,19,26s-1-1-1-1v-5h-2v0.54   C15.41,20.2,14.73,20,14,20c-2.21,0-4,1.79-4,4s1.79,4,4,4c1.03,0,1.98-0.4,2.69-1.04C17.16,27.56,17.91,28,19,28c2.2,0,3-1.79,3-3   V10l4-2L14,2L2,8l4,2v14c0,2.77,1.67,8,8,8h16v-2H14z M14,26c-1.1,0-2-0.9-2-2s0.9-2,2-2s2,0.9,2,2S15.1,26,14,26z M20,17.75   C18.82,16.68,16.96,16,14,16c-2.86,0-4.77,1.07-6,2.5V11l6,3l6-3V17.75z M14,4.24L21.53,8L14,11.76L6.47,8L14,4.24z"/>
</g>
</svg>
