<?xml version="1.0" encoding="utf-8"?>
<!-- Generator: Adobe Illustrator 16.0.0, SVG Export Plug-In . SVG Version: 6.00 Build 0)  -->
<!DOCTYPE svg PUBLIC "-//W3C//DTD SVG 1.1//EN" "http://www.w3.org/Graphics/SVG/1.1/DTD/svg11.dtd">
<svg xmlns="http://www.w3.org/2000/svg" xmlns:xlink="http://www.w3.org/1999/xlink" version="1.1" id="Capa_1" x="0px" y="0px" width="32px" height="32px" viewBox="0 0 32 32" enable-background="new 0 0 32 32" xml:space="preserve">
<g>
	<path d="M32,8V6h-2V4h-4V2h-2v2h-2V2h-2v2h-2V2h-2v2h-2V2h-2v2h-2V2H8v2H4v2H2v2h2v2H2v2h2v2H2v2h2v2h4v2h2v-2h2v2h2v-2h2v2h2v-2h2   v2h2v-2h2v2h2v-2h4v-2h2v-2h-2v-2h2v-2h-2V8H32z M28,16H6V6h22V16z"/>
</g>
<g>
	<path d="M29,26c-1.3,0-2.41,0.84-2.82,2H18v-4H7.82C7.41,22.84,6.3,22,5,22c-1.65,0-3,1.35-3,3s1.35,3,3,3c1.3,0,2.41-0.84,2.82-2   H16v4h10.18c0.41,1.16,1.521,2,2.82,2c1.65,0,3-1.35,3-3S30.65,26,29,26z M5,26c-0.55,0-1-0.45-1-1s0.45-1,1-1s1,0.45,1,1   S5.55,26,5,26z M29,30c-0.55,0-1-0.45-1-1s0.45-1,1-1s1,0.45,1,1S29.55,30,29,30z"/>
</g>
</svg>
