<?xml version="1.0" encoding="utf-8"?>
<!-- Generator: Adobe Illustrator 16.0.0, SVG Export Plug-In . SVG Version: 6.00 Build 0)  -->
<!DOCTYPE svg PUBLIC "-//W3C//DTD SVG 1.1//EN" "http://www.w3.org/Graphics/SVG/1.1/DTD/svg11.dtd">
<svg xmlns="http://www.w3.org/2000/svg" xmlns:xlink="http://www.w3.org/1999/xlink" version="1.1" id="Capa_1" x="0px" y="0px" width="32px" height="32px" viewBox="0 0 32 32" enable-background="new 0 0 32 32" xml:space="preserve">
<g>
	<path d="M28,8c-2.99,0-6.49,3.12-7.48,4.06C19.42,10.8,17.8,10,16,10s-3.42,0.8-4.52,2.06C10.49,11.12,6.99,8,4,8   c-3.16,0-4,3.27-4,5v6c0,1.73,0.84,5,4,5c3.3,0,7.43-3.07,7.6-3.2l0.42-0.319C13.07,21.43,14.47,22,16,22   c1.53,0,2.93-0.57,3.98-1.52L20.4,20.8c0.17,0.13,4.3,3.2,7.6,3.2c3.16,0,4-3.27,4-5v-6C32,11.27,31.16,8,28,8z M10.4,19.2   C9.36,19.98,6.19,22,4,22c-1.96,0-2-2.88-2-3v-6c0-0.12,0.04-3,2-3c2.11,0,5.26,2.68,6.29,3.71l0.12,0.12   C10.14,14.5,10,15.23,10,16c0,1.07,0.28,2.07,0.76,2.93L10.4,19.2z M16,20c-2.21,0-4-1.79-4-4s1.79-4,4-4s4,1.79,4,4   S18.21,20,16,20z M30,19c0,0.12-0.04,3-2,3c-2.18,0-5.36-2.02-6.4-2.8L21.24,18.93C21.72,18.07,22,17.07,22,16   c0-0.77-0.14-1.5-0.41-2.17l0.12-0.12C22.74,12.68,25.88,10,28,10c1.96,0,2,2.88,2,3V19z"/>
</g>
</svg>
