<?xml version="1.0" encoding="utf-8"?>
<!-- Generator: Adobe Illustrator 16.0.0, SVG Export Plug-In . SVG Version: 6.00 Build 0)  -->
<!DOCTYPE svg PUBLIC "-//W3C//DTD SVG 1.1//EN" "http://www.w3.org/Graphics/SVG/1.1/DTD/svg11.dtd">
<svg xmlns="http://www.w3.org/2000/svg" xmlns:xlink="http://www.w3.org/1999/xlink" version="1.1" id="Capa_1" x="0px" y="0px" width="32px" height="32px" viewBox="0 0 32 32" enable-background="new 0 0 32 32" xml:space="preserve">
<g>
	<path d="M25,0H7C4.8,0,4,1.79,4,3l0.02,25.98c0,2.18,1.79,3,3.01,3.02H25c2.2,0,3-1.79,3-3V3C28,0.8,26.21,0,25,0z M26,28.99   C25.99,29.45,25.81,30,25,30H7.05c-0.24,0-1.03-0.09-1.03-1.02L6,3.01C6.01,2.55,6.19,2,7,2h17.99C25.45,2.01,26,2.19,26,3V28.99z"/>
</g>
<g>
	<rect x="8" y="4" width="8" height="2"/>
</g>
<g>
	<rect x="8" y="10" width="2" height="2"/>
</g>
<g>
	<rect x="12" y="10" width="12" height="2"/>
</g>
<g>
	<rect x="8" y="22" width="2" height="2"/>
</g>
<g>
	<rect x="12" y="22" width="12" height="2"/>
</g>
<g>
	<rect x="10" y="14" width="10" height="2"/>
</g>
<g>
	<rect x="10" y="18" width="10" height="2"/>
</g>
<g>
	<rect x="10" y="26" width="10" height="2"/>
</g>
</svg>
