<?xml version="1.0" encoding="utf-8"?>
<!-- Generator: Adobe Illustrator 16.0.0, SVG Export Plug-In . SVG Version: 6.00 Build 0)  -->
<!DOCTYPE svg PUBLIC "-//W3C//DTD SVG 1.1//EN" "http://www.w3.org/Graphics/SVG/1.1/DTD/svg11.dtd">
<svg xmlns="http://www.w3.org/2000/svg" xmlns:xlink="http://www.w3.org/1999/xlink" version="1.1" id="Capa_1" x="0px" y="0px" width="32px" height="32px" viewBox="0 0 32 32" enable-background="new 0 0 32 32" xml:space="preserve">
<g>
	<path d="M11,2C4.93,2,0,6.04,0,11c0,2.29,1.03,4.44,2.88,6.08l-0.77,2.28C1.83,20.17,2.1,21.06,2.78,21.59C3.14,21.86,3.57,22,4,22   c0.39,0,0.77-0.11,1.11-0.33L8,19.75v-2.42L4,20l1.23-3.63C3.26,15.09,2,13.16,2,11c0-3.87,4.03-7,9-7c4.53,0,8.36,2.61,8.98,6H22   C21.391,5.5,16.66,2,11,2z"/>
</g>
<g>
	<path d="M29.12,27.08C30.97,25.44,32,23.29,32,21c0-4.96-4.93-9-11-9c-6.07,0-11,4.04-11,9s4.93,9,11,9c0.99,0,1.97-0.11,2.91-0.32   l2.979,1.99C27.23,31.89,27.62,32,28,32c0.43,0,0.86-0.14,1.22-0.41c0.681-0.53,0.95-1.42,0.67-2.229L29.12,27.08z M28,30   l-3.73-2.48C23.26,27.83,22.15,28,21,28c-4.97,0-9-3.13-9-7s4.03-7,9-7c4.97,0,9,3.13,9,7c0,2.16-1.26,4.09-3.23,5.37L28,30z"/>
</g>
<g>
	<polygon points="26,22 23.42,22 25.71,24.29 24.29,25.71 22,23.42 22,26 20,26 20,23.42 17.71,25.71 16.29,24.29 18.58,22 16,22    16,20 18.58,20 16.29,17.71 17.71,16.29 20,18.58 20,16 22,16 22,18.58 24.29,16.29 25.71,17.71 23.42,20 26,20  "/>
</g>
</svg>
