<?xml version="1.0" encoding="utf-8"?>
<!-- Generator: Adobe Illustrator 16.0.0, SVG Export Plug-In . SVG Version: 6.00 Build 0)  -->
<!DOCTYPE svg PUBLIC "-//W3C//DTD SVG 1.1//EN" "http://www.w3.org/Graphics/SVG/1.1/DTD/svg11.dtd">
<svg xmlns="http://www.w3.org/2000/svg" xmlns:xlink="http://www.w3.org/1999/xlink" version="1.1" id="Capa_1" x="0px" y="0px" width="32px" height="32px" viewBox="0 0 32 32" enable-background="new 0 0 32 32" xml:space="preserve">
<g>
	<path d="M17,0C9.06,0,2.55,6.18,2.04,14H0v18h18v-2.04c7.82-0.51,14-7.02,14-14.96C32,6.72,25.28,0,17,0z M10.35,3.84   C10.03,4.56,9.76,5.29,9.53,6h-1.9C8.43,5.16,9.35,4.43,10.35,3.84z M6.05,8h2.91c-0.64,2.55-0.85,4.77-0.92,6H4.05   C4.21,11.81,4.92,9.76,6.05,8z M16,30H2V16h14V30z M16,14h-5.96c0.08-1.23,0.32-3.48,1-6H16V14z M16,6h-4.34   c0.4-1.15,0.91-2.32,1.55-3.43C14.1,2.29,15.04,2.11,16,2.05V6z M27.95,8c1.13,1.76,1.84,3.81,2.01,6h-3.99   c-0.069-1.22-0.29-3.45-0.92-6H27.95z M26.37,6h-1.9c-0.229-0.71-0.5-1.44-0.81-2.16C24.66,4.44,25.57,5.16,26.37,6z M18,2.05   c0.96,0.06,1.89,0.24,2.78,0.52C21.43,3.68,21.94,4.85,22.33,6H18V2.05z M18,8h4.96c0.68,2.52,0.92,4.77,1,6H18V8z M20.78,27.43   c-0.891,0.28-1.82,0.46-2.78,0.53V24h4.34C21.94,25.15,21.43,26.32,20.78,27.43z M18,22v-6h5.96c-0.08,1.23-0.32,3.48-1,6H18z    M23.66,26.16c0.31-0.72,0.58-1.45,0.81-2.16h1.9C25.57,24.84,24.66,25.56,23.66,26.16z M27.95,22h-2.9   c0.63-2.55,0.851-4.78,0.92-6h3.99C29.79,18.19,29.08,20.24,27.95,22z"/>
</g>
<g>
	<path d="M11,28c-1.639,0-2.5-0.994-2.833-2H7c-1.206,0-3-0.799-3-3v-2c0-1.206,0.799-3,3-3h4c1.206,0,3,0.799,3,3v4   C14,26.206,13.201,28,11,28z M9,24c0.552,0,1,0.447,1,1c0.012,0.45,0.195,1,1,1s0.988-0.55,1-1.012V21c0-0.806-0.55-0.988-1.012-1   H7c-0.805,0-0.988,0.55-1,1.012V23c0,0.806,0.55,0.988,1.012,1H9z"/>
</g>
</svg>
