<?xml version="1.0" encoding="utf-8"?>
<!-- Generator: Adobe Illustrator 16.0.0, SVG Export Plug-In . SVG Version: 6.00 Build 0)  -->
<!DOCTYPE svg PUBLIC "-//W3C//DTD SVG 1.1//EN" "http://www.w3.org/Graphics/SVG/1.1/DTD/svg11.dtd">
<svg xmlns="http://www.w3.org/2000/svg" xmlns:xlink="http://www.w3.org/1999/xlink" version="1.1" id="Capa_1" x="0px" y="0px" width="32px" height="32px" viewBox="0 0 32 32" enable-background="new 0 0 32 32" xml:space="preserve">
<g>
	<path d="M20,20h-4.42l-1.56-7.02C15.22,12.07,16,10.63,16,9c0-2.42-1.72-4.44-4-4.9V2h-2v2.1C7.72,4.56,6,6.58,6,9   c0,1.63,0.78,3.07,1.98,3.98L6.42,20H4v-2H2v2H0v2h2v2h2v-2h1.97l-1.95,8.78l1.96,0.439L8.03,22h5.94l2.05,9.22l1.96-0.439   L16.03,22H20V20z M8.47,20l1.37-6.14C10.21,13.95,10.6,14,11,14s0.79-0.05,1.16-0.14L13.53,20H8.47z M11,12c-1.65,0-3-1.35-3-3   s1.35-3,3-3s3,1.35,3,3S12.65,12,11,12z"/>
</g>
<g>
	<path d="M20.88,0c-2.5,0-4.8,0.83-6.64,2.24l1.43,1.43C17.14,2.62,18.94,2,20.88,2c4.96,0,9,4.04,9,9c0,4.58-3.45,8.38-7.88,8.93   v2.011c5.54-0.551,9.88-5.24,9.88-10.94C31.88,4.92,26.95,0,20.88,0z"/>
</g>
</svg>
