<?xml version="1.0" encoding="utf-8"?>
<!-- Generator: Adobe Illustrator 16.0.0, SVG Export Plug-In . SVG Version: 6.00 Build 0)  -->
<!DOCTYPE svg PUBLIC "-//W3C//DTD SVG 1.1//EN" "http://www.w3.org/Graphics/SVG/1.1/DTD/svg11.dtd">
<svg xmlns="http://www.w3.org/2000/svg" xmlns:xlink="http://www.w3.org/1999/xlink" version="1.1" id="Capa_1" x="0px" y="0px" width="32px" height="32px" viewBox="0 0 32 32" enable-background="new 0 0 32 32" xml:space="preserve">
<g>
	<g>
		<path d="M16,2L0,11.04l6,3.36V25c0,0.2,0.11,5,10,5c9.89,0,10-4.8,10-5V14.38l2-1.13V26h2V12.13L32,11L16,2z M24,24.97    C24,25,23.71,28,16,28s-8-3-8-3v-9.48L16,20l8-4.5V24.97z M16,17.71L4.08,11.03L16,4.3L27.92,11L16,17.71z"/>
	</g>
</g>
<g>
	<g>
		<path stroke="#DD19D3" stroke-width="2" stroke-miterlimit="10" d="M16,11"/>
	</g>
</g>
</svg>
