<?xml version="1.0" encoding="utf-8"?>
<!-- Generator: Adobe Illustrator 16.0.0, SVG Export Plug-In . SVG Version: 6.00 Build 0)  -->
<!DOCTYPE svg PUBLIC "-//W3C//DTD SVG 1.1//EN" "http://www.w3.org/Graphics/SVG/1.1/DTD/svg11.dtd">
<svg xmlns="http://www.w3.org/2000/svg" xmlns:xlink="http://www.w3.org/1999/xlink" version="1.1" id="Capa_1" x="0px" y="0px" width="32px" height="32px" viewBox="0 0 32 32" enable-background="new 0 0 32 32" xml:space="preserve">
<g>
	<path d="M15,0L4,5l4,1.82V12c0,4.42,3.13,8,7,8s7-3.58,7-8V6.82L26,5L15,0z M19.92,13c-0.39,2.84-2.439,5-4.92,5   c-2.48,0-4.53-2.16-4.92-5C10.02,12.68,10,12.34,10,12h10C20,12.34,19.98,12.68,19.92,13z M20,10H10V7.73L15,10l5-2.27V10z M15,7.8   L8.83,5L15,2.2L21.17,5L15,7.8z"/>
</g>
<g>
	<path d="M16.41,24.41l-0.29,0.3L23.41,32h-2.82l-9.81-9.81c-1.16,0.38-2.04,1.3-2.7,2.47L15.41,32h-2.83l-5.37-5.37   c-0.64,1.86-0.95,3.9-1.09,5.37H4.1c0.35-3.86,1.8-12,7.9-12l3,3l3-3c6.1,0,7.55,8.14,7.9,12h-2.03c-0.311-3.21-1.4-9.21-5.11-9.93   L16.41,24.41z"/>
</g>
</svg>
