<?xml version="1.0" encoding="utf-8"?>
<!-- Generator: Adobe Illustrator 16.0.0, SVG Export Plug-In . SVG Version: 6.00 Build 0)  -->
<!DOCTYPE svg PUBLIC "-//W3C//DTD SVG 1.1//EN" "http://www.w3.org/Graphics/SVG/1.1/DTD/svg11.dtd">
<svg xmlns="http://www.w3.org/2000/svg" xmlns:xlink="http://www.w3.org/1999/xlink" version="1.1" id="Capa_1" x="0px" y="0px" width="32px" height="32px" viewBox="0 0 32 32" enable-background="new 0 0 32 32" xml:space="preserve">
<g>
	<path d="M17,6c-0.03,0-0.06,0-0.09,0.01c0.1,0,0.2,0.01,0.29,0.01C17.14,6.01,17.07,6,17,6z"/>
</g>
<g>
	<circle cx="9" cy="9" r="1"/>
</g>
<g>
	<path d="M18,7c0,0.55-0.45,1-1,1s-1-0.45-1-1c0-0.52,0.4-0.94,0.9-0.99c0-0.01,0-0.01,0.01,0C16.94,6,16.97,6,17,6   c0.07,0,0.14,0.01,0.2,0.02C17.66,6.11,18,6.52,18,7z"/>
</g>
<g>
	<circle cx="21" cy="9" r="1"/>
</g>
<g>
	<path d="M28.73,13.48C29.44,13.02,30,12.23,30,11c0-2.81-3.73-7-14-7C5.73,4,2,8.19,2,11c0,0.81,0.36,1.88,1.26,2.49   C2.56,14.37,2,15.77,2,18c0,2.24,0.57,3.64,1.27,4.52C2.56,22.98,2,23.77,2,25c0,2.2,1.79,3,3,3h22c1.21,0,3-0.8,3-3   c0-1.23-0.56-2.02-1.27-2.48C29.43,21.64,30,20.24,30,18S29.43,14.36,28.73,13.48z M16,6c0.31,0,0.61,0,0.9,0.01   c0-0.01,0-0.01,0.01,0C16.94,6,16.97,6,17,6c0.07,0,0.14,0.01,0.2,0.02C26.13,6.32,28,9.98,28,11c0,0.8-0.55,0.99-1.01,1H5   c-0.81,0-0.99-0.55-1-1C4,9.94,6.04,6,16,6z M22,14v2c0,0,0,2-2,2s-2-2-2-2v-2H22z M26.99,26H5.01C4.55,25.99,4,25.81,4,25   s0.55-0.99,1-1h21.99c0.46,0.01,1.01,0.19,1.01,1C28,25.8,27.45,25.99,26.99,26z M25.98,22H6.02C5.82,21.99,4,21.79,4,18   s1.82-3.99,2-4h10v2c0,1.94,1.4,4,4,4s4-2.06,4-4v-2h1.98C26.18,14.01,28,14.21,28,18C28,21.76,26.22,21.99,25.98,22z"/>
</g>
</svg>
