<?xml version="1.0" encoding="utf-8"?>
<!-- Generator: Adobe Illustrator 16.0.0, SVG Export Plug-In . SVG Version: 6.00 Build 0)  -->
<!DOCTYPE svg PUBLIC "-//W3C//DTD SVG 1.1//EN" "http://www.w3.org/Graphics/SVG/1.1/DTD/svg11.dtd">
<svg xmlns="http://www.w3.org/2000/svg" xmlns:xlink="http://www.w3.org/1999/xlink" version="1.1" id="Capa_1" x="0px" y="0px" width="32px" height="32px" viewBox="0 0 32 32" enable-background="new 0 0 32 32" xml:space="preserve">
<g>
	<g>
		<path d="M25,4c-0.39,0-0.77,0.08-1.11,0.22C23.55,2.94,22.38,2,21,2c-0.39,0-0.77,0.08-1.11,0.22C19.55,0.94,18.38,0,17,0    s-2.55,0.94-2.89,2.22C13.77,2.08,13.39,2,13,2c-1.65,0-3,1.35-3,3v12.58c-0.48-0.41-1.21-1.1-2.26-2.25    c-2.15-2.37-4.42-1.78-5.32-1.14c-0.11,0.08-1.11,0.82-1.3,2.19c-0.14,1.061,0.22,2.15,1.1,3.25c1.77,2.2,8,9.99,8,9.99    C10.41,29.86,10.7,30,11,30h17V7C28,5.35,26.65,4,25,4z M26,27.99C25.98,28,25.97,28,25.96,28H11.48    c-1.26-1.58-6.16-7.71-7.7-9.63c-0.35-0.43-0.75-1.08-0.68-1.69c0.07-0.53,0.46-0.84,0.46-0.85c0.21-0.14,1.29-0.71,2.7,0.84    c2.91,3.2,4.02,3.69,4.88,3.43c0.45-0.13,0.78-0.5,0.85-0.939C12,19.11,12,19.05,12,19V5c0-0.55,0.45-1,1-1s1,0.45,1,1v9h2V3    c0-0.55,0.45-1,1-1s1,0.45,1,1v11h2V5c0-0.55,0.45-1,1-1s1,0.45,1,1v9h2V7c0-0.55,0.45-1,1-1s1,0.45,1,1V27.99z"/>
	</g>
</g>
</svg>
