<?xml version="1.0" encoding="utf-8"?>
<!-- Generator: Adobe Illustrator 16.0.0, SVG Export Plug-In . SVG Version: 6.00 Build 0)  -->
<!DOCTYPE svg PUBLIC "-//W3C//DTD SVG 1.1//EN" "http://www.w3.org/Graphics/SVG/1.1/DTD/svg11.dtd">
<svg xmlns="http://www.w3.org/2000/svg" xmlns:xlink="http://www.w3.org/1999/xlink" version="1.1" id="Capa_1" x="0px" y="0px" width="32px" height="32px" viewBox="0 0 32 32" enable-background="new 0 0 32 32" xml:space="preserve">
<g>
	<path d="M28,32H14.586L13,30.414L11.414,32H4v-5.414L5.586,25L4,23.414v-10.83L5.585,11L4,9.414V0h24v5.414L26.414,7L28,8.586   v10.828L26.414,21L28,22.586V32z M15.414,30H26v-6.586L23.586,21L26,18.586V9.414L23.586,7L26,4.586V2H6v6.586L8.415,11L6,13.414   v9.172L8.414,25L6,27.414V30h4.586L13,27.586L15.414,30z"/>
</g>
<g>
	<rect x="10" y="4" width="8" height="2"/>
</g>
<g>
	<rect x="10" y="10" width="12" height="2"/>
</g>
<g>
	<rect x="10" y="14" width="8" height="2"/>
</g>
<g>
	<rect x="10" y="18" width="12" height="2"/>
</g>
<g>
	<rect x="10" y="22" width="10" height="2"/>
</g>
</svg>
