<?xml version="1.0" encoding="utf-8"?>
<!-- Generator: Adobe Illustrator 16.0.0, SVG Export Plug-In . SVG Version: 6.00 Build 0)  -->
<!DOCTYPE svg PUBLIC "-//W3C//DTD SVG 1.1//EN" "http://www.w3.org/Graphics/SVG/1.1/DTD/svg11.dtd">
<svg xmlns="http://www.w3.org/2000/svg" xmlns:xlink="http://www.w3.org/1999/xlink" version="1.1" id="Capa_1" x="0px" y="0px" width="32px" height="32px" viewBox="0 0 32 32" enable-background="new 0 0 32 32" xml:space="preserve">
<g>
	<g>
		<path d="M25,0H10C8,0,8,2,8,2v10h2V2.04c0-0.01,0-0.02,0.01-0.04H22v5c0,1.21,0.8,3,3,3h5v19.96c0,0.01,0,0.021-0.01,0.04H26v2h4    c2,0,2-2,2-2V7L25,0z M30,8h-5c-0.81,0-0.99-0.55-1-1V2h0.17L30,7.83V8z"/>
	</g>
</g>
<g>
	<path d="M24.55,21.89l0.9-1.779L13,13.88L0.55,20.11l0.9,1.779L4,20.62V30H2v2h22v-2h-2v-9.38L24.55,21.89z M14,30h-2v-4h2V30z    M20,30h-4v-6h-6v6H6V19.62l7-3.5l7,3.5V30z"/>
</g>
</svg>
