<?xml version="1.0" encoding="utf-8"?>
<!-- Generator: Adobe Illustrator 16.0.0, SVG Export Plug-In . SVG Version: 6.00 Build 0)  -->
<!DOCTYPE svg PUBLIC "-//W3C//DTD SVG 1.1//EN" "http://www.w3.org/Graphics/SVG/1.1/DTD/svg11.dtd">
<svg xmlns="http://www.w3.org/2000/svg" xmlns:xlink="http://www.w3.org/1999/xlink" version="1.1" id="Capa_1" x="0px" y="0px" width="32px" height="32px" viewBox="0 0 32 32" enable-background="new 0 0 32 32" xml:space="preserve">
<g>
	<path d="M15,4C4.77,4,0,7.5,0,15c0,4.65,1.63,9.22,2,10.19V27c0,1.21,0.8,3,3,3h20c1.21,0,3-0.8,3-3v-1.81   c0.37-0.971,2-5.54,2-10.19C30,7.5,25.23,4,15,4z M26,27c0,0.81-0.55,0.99-1,1H5c-0.81,0-0.99-0.55-1-1v-1h22V27z M26.3,24H3.7   C3.19,22.54,2,18.74,2,15c0-4.45,1.54-9,13-9s13,4.55,13,9C28,18.74,26.81,22.54,26.3,24z"/>
	<path d="M15,8c-3.87,0-7,3.13-7,7s3.13,7,7,7s7-3.13,7-7S18.87,8,15,8z M15,20c-2.76,0-5-2.24-5-5s2.24-5,5-5s5,2.24,5,5   S17.76,20,15,20z"/>
	<polygon points="18,14 18,16 16,16 16,18 14,18 14,16 12,16 12,14 14,14 14,12 16,12 16,14  "/>
</g>
</svg>
