<?xml version="1.0" encoding="utf-8"?>
<!-- Generator: Adobe Illustrator 16.0.0, SVG Export Plug-In . SVG Version: 6.00 Build 0)  -->
<!DOCTYPE svg PUBLIC "-//W3C//DTD SVG 1.1//EN" "http://www.w3.org/Graphics/SVG/1.1/DTD/svg11.dtd">
<svg xmlns="http://www.w3.org/2000/svg" xmlns:xlink="http://www.w3.org/1999/xlink" version="1.1" id="Capa_1" x="0px" y="0px" width="32px" height="32px" viewBox="0 0 32 32" enable-background="new 0 0 32 32" xml:space="preserve">
<g>
	<path d="M10,5.95V6h1L10,5.95z"/>
</g>
<g>
	<path d="M25.45,10.11C23.88,9.32,23.02,8.57,22.55,8H24V3c0-1.21-0.8-3-3-3H11C9.79,0,8,0.8,8,3v5h1.44   c-0.46,0.57-1.32,1.33-2.89,2.11C2.05,12.36,2,15.85,2,16v13c0,2.2,1.79,3,3,3h22c1.21,0,3-0.8,3-3V16   C30,15.85,29.95,12.36,25.45,10.11z M10,3c0-0.81,0.55-0.99,1-1h10c0.81,0,0.99,0.55,1,1v3H10V3z M28,29c0,0.8-0.55,0.99-1.01,1   H5.01C4.55,29.99,4,29.81,4,29v-3h24V29z M28,24H4v-6h24V24z M4,16c0-0.02,0.09-2.43,3.45-4.11c2.84-1.42,3.91-2.92,4.31-3.89h8.48   c0.399,0.97,1.47,2.47,4.31,3.89C27.89,13.57,28,15.91,28,16H4z"/>
</g>
</svg>
