<?xml version="1.0" encoding="utf-8"?>
<!-- Generator: Adobe Illustrator 16.0.0, SVG Export Plug-In . SVG Version: 6.00 Build 0)  -->
<!DOCTYPE svg PUBLIC "-//W3C//DTD SVG 1.1//EN" "http://www.w3.org/Graphics/SVG/1.1/DTD/svg11.dtd">
<svg xmlns="http://www.w3.org/2000/svg" xmlns:xlink="http://www.w3.org/1999/xlink" version="1.1" id="Capa_1" x="0px" y="0px" width="32px" height="32px" viewBox="0 0 32 32" enable-background="new 0 0 32 32" xml:space="preserve">
<g>
	<g>
		<path d="M16,8V5.82c1.17-0.4,2-1.51,2-2.82c0-1.66-1.34-3-3-3s-3,1.34-3,3c0,1.31,0.83,2.42,2,2.82V8H4v2h6v15    c0,0.2,0.06,0.39,0.17,0.55l4,6C14.35,31.83,14.67,32,15,32s0.65-0.17,0.83-0.45l4-6C19.94,25.39,20,25.2,20,25V10h6V8H16z M15,2    c0.55,0,1,0.45,1,1s-0.45,1-1,1s-1-0.45-1-1S14.45,2,15,2z M18,24.7l-3,4.5l-3-4.5V10h6V24.7z"/>
	</g>
</g>
<g>
	<path d="M0,14v2c0,1.94,1.4,4,4,4s4-2.06,4-4v-2H0z M4,18c-2,0-2-2-2-2h4C6,16,6,18,4,18z"/>
</g>
<g>
	<path d="M22,14v2c0,1.94,1.4,4,4,4s4-2.06,4-4v-2H22z M26,18c-2,0-2-2-2-2h4C28,16,28,18,26,18z"/>
</g>
</svg>
