<?xml version="1.0" encoding="utf-8"?>
<!-- Generator: Adobe Illustrator 16.0.0, SVG Export Plug-In . SVG Version: 6.00 Build 0)  -->
<!DOCTYPE svg PUBLIC "-//W3C//DTD SVG 1.1//EN" "http://www.w3.org/Graphics/SVG/1.1/DTD/svg11.dtd">
<svg xmlns="http://www.w3.org/2000/svg" xmlns:xlink="http://www.w3.org/1999/xlink" version="1.1" id="Capa_1" x="0px" y="0px" width="32px" height="32px" viewBox="0 0 32 32" enable-background="new 0 0 32 32" xml:space="preserve">
<g>
	<g>
		<path d="M28,13.32V6h-6v2.52l-6-4.8L0.38,16.22l1.24,1.56L4,15.88V30h24V15.88l2.38,1.9l1.24-1.56L28,13.32z M26,28H6V14.28l10-8    l10,8V28z M26,11.72l-2-1.6V8h2V11.72z"/>
	</g>
</g>
<g>
	<path d="M14,18c0,1.1-0.9,2-2,2s-2-0.9-2-2c0-1.1,0.9-2,2-2S14,16.9,14,18z"/>
</g>
<g>
	<path d="M22,18c0,1.1-0.9,2-2,2s-2-0.9-2-2c0-1.1,0.9-2,2-2S22,16.9,22,18z"/>
</g>
<g>
	<path d="M21.89,23.45C21.76,23.71,20.49,26,16,26s-5.76-2.29-5.89-2.55c-0.25-0.5-0.05-1.101,0.44-1.34   c0.49-0.25,1.08-0.061,1.33,0.42C11.94,22.63,12.8,24,16,24c3.24,0,4.08-1.41,4.12-1.47c0.27-0.471,0.87-0.65,1.34-0.4   C21.94,22.39,22.14,22.96,21.89,23.45z"/>
</g>
</svg>
