<?xml version="1.0" encoding="utf-8"?>
<!-- Generator: Adobe Illustrator 16.0.0, SVG Export Plug-In . SVG Version: 6.00 Build 0)  -->
<!DOCTYPE svg PUBLIC "-//W3C//DTD SVG 1.1//EN" "http://www.w3.org/Graphics/SVG/1.1/DTD/svg11.dtd">
<svg xmlns="http://www.w3.org/2000/svg" xmlns:xlink="http://www.w3.org/1999/xlink" version="1.1" id="Capa_1" x="0px" y="0px" width="32px" height="32px" viewBox="0 0 32 32" enable-background="new 0 0 32 32" xml:space="preserve">
<g>
	<g>
		<g>
			<path d="M16,2C8.28,2,2,7.38,2,14c0,2.85,1.16,5.57,3.29,7.73L3.5,28.87l7.38-3.7C12.5,25.72,14.22,26,16,26     c7.72,0,14-5.38,14-12S23.72,2,16,2z M16,24c-1.7,0-3.33-0.29-4.84-0.85L10.75,23L6.5,25.13l1.01-4.05l-0.43-0.4     C5.09,18.84,4,16.47,4,14C4,8.49,9.38,4,16,4s12,4.49,12,10S22.62,24,16,24z"/>
		</g>
	</g>
</g>
<g>
	<path d="M16,10c-6,0-8,0-8,0s0,10,8,10s8-10,8-10S22,10,16,10z M16,18c-1.04,0-1.89-0.24-2.6-0.63C14.08,16.65,14.99,16,16,16   c1,0,1.91,0.64,2.61,1.37C17.9,17.76,17.04,18,16,18z M20.13,16.07C18.85,14.71,17.44,14,16,14c-1.43,0-2.84,0.71-4.12,2.06   c-0.98-1.23-1.44-2.82-1.67-4.06H21.8C21.58,13.25,21.12,14.84,20.13,16.07z"/>
</g>
</svg>
