<?xml version="1.0" encoding="utf-8"?>
<!-- Generator: Adobe Illustrator 16.0.0, SVG Export Plug-In . SVG Version: 6.00 Build 0)  -->
<!DOCTYPE svg PUBLIC "-//W3C//DTD SVG 1.1//EN" "http://www.w3.org/Graphics/SVG/1.1/DTD/svg11.dtd">
<svg xmlns="http://www.w3.org/2000/svg" xmlns:xlink="http://www.w3.org/1999/xlink" version="1.1" id="Capa_1" x="0px" y="0px" width="32px" height="32px" viewBox="0 0 32 32" enable-background="new 0 0 32 32" xml:space="preserve">
<g>
	<path d="M31.83,30.36L27.53,24H22l5-5l-5.79-5.79L29.41,5L25,0.59L16.8,8.8L11,3L1,13l11,11H4.47l-4.3,6.36   c-0.31,0.449-0.19,1.08,0.27,1.39c0.17,0.11,0.37,0.17,0.56,0.17c0.32,0,0.64-0.16,0.83-0.439L5.53,26H14l3,3l3-3h6.47l3.7,5.48   c0.2,0.279,0.51,0.439,0.83,0.439c0.19,0,0.39-0.06,0.56-0.17C32.02,31.44,32.14,30.81,31.83,30.36z M25,3.41L26.59,5l-6.8,6.79   l-1.58-1.58L25,3.41z M3.83,13L11,5.83l1.88,1.88l-7.17,7.17L3.83,13z M13.71,22.88L7.13,16.3l7.17-7.17l6.58,6.58L13.71,22.88z    M17,26.17l-1.87-1.87l7.17-7.17L24.17,19L17,26.17z"/>
</g>
</svg>
