<?xml version="1.0" encoding="utf-8"?>
<!-- Generator: Adobe Illustrator 16.0.0, SVG Export Plug-In . SVG Version: 6.00 Build 0)  -->
<!DOCTYPE svg PUBLIC "-//W3C//DTD SVG 1.1//EN" "http://www.w3.org/Graphics/SVG/1.1/DTD/svg11.dtd">
<svg xmlns="http://www.w3.org/2000/svg" xmlns:xlink="http://www.w3.org/1999/xlink" version="1.1" id="Capa_1" x="0px" y="0px" width="32px" height="32px" viewBox="0 0 32 32" enable-background="new 0 0 32 32" xml:space="preserve">
<g>
	<path d="M29,8h-5V5c0-2.2-1.79-3-3-3H11C8.8,2,8,3.79,8,5v3H3c-2.2,0-3,1.79-3,3v16c0,2.2,1.79,3,3,3h26c2.2,0,3-1.79,3-3V11   C32,8.8,30.21,8,29,8z M10,5.01C10.01,4.55,10.19,4,11,4h9.99C21.45,4.01,22,4.19,22,5v3H10V5.01z M30,26.99   C29.99,27.45,29.81,28,29,28H3.01C2.55,27.99,2,27.81,2,27v-9h8v4h12v-4h8V26.99z M12,20v-2h8v2H12z M30,16H2v-4.99   C2.01,10.55,2.19,10,3,10h25.99c0.46,0.01,1.01,0.19,1.01,1V16z"/>
</g>
</svg>
