<?xml version="1.0" encoding="utf-8"?>
<!-- Generator: Adobe Illustrator 16.0.0, SVG Export Plug-In . SVG Version: 6.00 Build 0)  -->
<!DOCTYPE svg PUBLIC "-//W3C//DTD SVG 1.1//EN" "http://www.w3.org/Graphics/SVG/1.1/DTD/svg11.dtd">
<svg xmlns="http://www.w3.org/2000/svg" xmlns:xlink="http://www.w3.org/1999/xlink" version="1.1" id="Capa_1" x="0px" y="0px" width="32px" height="32px" viewBox="0 0 32 32" enable-background="new 0 0 32 32" xml:space="preserve">
<path d="M20,0v19.99C19.98,21.47,19.44,24,16,24c-3.44,0-3.98-2.52-4-4.02V0H4v20c0,4.82,3.2,12,12,12s12-7.18,12-12V0H20z M6,2h4v4  H6V2z M26,20c0,3.46-2.09,10-10,10S6,23.46,6,20V8h4v12c0.01,0.99,0.35,6,6,6c5.65,0,5.99-5.01,6-6.01V8h4V20z M26,6h-4V2h4V6z"/>
</svg>
