<?xml version="1.0" encoding="utf-8"?>
<!-- Generator: Adobe Illustrator 16.0.0, SVG Export Plug-In . SVG Version: 6.00 Build 0)  -->
<!DOCTYPE svg PUBLIC "-//W3C//DTD SVG 1.1//EN" "http://www.w3.org/Graphics/SVG/1.1/DTD/svg11.dtd">
<svg xmlns="http://www.w3.org/2000/svg" xmlns:xlink="http://www.w3.org/1999/xlink" version="1.1" id="Capa_1" x="0px" y="0px" width="32px" height="32px" viewBox="0 0 32 32" enable-background="new 0 0 32 32" xml:space="preserve">
<g>
	<path d="M31.71,8.29l-8-8c-0.39-0.39-1.03-0.39-1.42,0l-18,18c-0.11,0.11-0.19,0.25-0.24,0.39l-1.92,5.78l-1.84,1.83   C0.11,26.48,0,26.73,0,27v4c0,0.55,0.45,1,1,1h3.98c0.27,0,0.52-0.1,0.71-0.29l1.84-1.83l5.79-1.93c0.14-0.05,0.28-0.13,0.39-0.24   l18-18C32.1,9.32,32.1,8.68,31.71,8.29z M4.57,30H2v-2.59l1-0.99L5.58,29L4.57,30z M12.46,26.13l-5.18,1.73L4.14,24.72l1.73-5.18   L6,19.42l6.59,6.59L12.46,26.13z M14.01,24.59L7.42,18L20,5.42l6.59,6.59L14.01,24.59z M28.01,10.59L21.42,4L23,2.41L29.59,9   L28.01,10.59z"/>
</g>
</svg>
