<?xml version="1.0" encoding="utf-8"?>
<!-- Generator: Adobe Illustrator 16.0.0, SVG Export Plug-In . SVG Version: 6.00 Build 0)  -->
<!DOCTYPE svg PUBLIC "-//W3C//DTD SVG 1.1//EN" "http://www.w3.org/Graphics/SVG/1.1/DTD/svg11.dtd">
<svg xmlns="http://www.w3.org/2000/svg" xmlns:xlink="http://www.w3.org/1999/xlink" version="1.1" id="Capa_1" x="0px" y="0px" width="32px" height="32px" viewBox="0 0 32 32" enable-background="new 0 0 32 32" xml:space="preserve">
<g>
	<path d="M0,4v26h32V4H0z M30,28H2v-2h28V28z M30,24H2V6h28V24z"/>
</g>
<g>
	<path d="M28,8v2H15.72l-3.77,11.32c-0.13,0.38-0.48,0.649-0.88,0.68H11c-0.38,0-0.72-0.21-0.89-0.55L6.38,14H4v-2h3   c0.38,0,0.73,0.21,0.89,0.55l2.92,5.84l3.24-9.709C14.19,8.28,14.57,8,15,8H28z"/>
</g>
<g>
	<polygon points="23.25,17 25.8,20.4 24.2,21.6 22,18.67 19.8,21.6 18.2,20.4 20.75,17 18.2,13.6 19.8,12.4 22,15.33 24.2,12.4    25.8,13.6  "/>
</g>
</svg>
