<?xml version="1.0" encoding="utf-8"?>
<!-- Generator: Adobe Illustrator 16.0.0, SVG Export Plug-In . SVG Version: 6.00 Build 0)  -->
<!DOCTYPE svg PUBLIC "-//W3C//DTD SVG 1.1//EN" "http://www.w3.org/Graphics/SVG/1.1/DTD/svg11.dtd">
<svg xmlns="http://www.w3.org/2000/svg" xmlns:xlink="http://www.w3.org/1999/xlink" version="1.1" id="Capa_1" x="0px" y="0px" width="32px" height="32px" viewBox="0 0 32 32" enable-background="new 0 0 32 32" xml:space="preserve">
<g>
	<path d="M15,2C6.72,2,0,8.72,0,17c0,8.29,6.72,15,15,15c8.29,0,15-6.71,15-15C30,8.72,23.29,2,15,2z M15,30C7.83,30,2,24.17,2,17   S7.83,4,15,4s13,5.83,13,13S22.17,30,15,30z"/>
</g>
<g>
	<path d="M22,16.18V9c0-0.55-0.45-1-1-1s-1,0.45-1,1v7.18c-1.17,0.4-2,1.51-2,2.82c0,1.66,1.34,3,3,3s3-1.34,3-3   C24,17.69,23.17,16.58,22,16.18z M21,20c-0.55,0-1-0.45-1-1s0.45-1,1-1s1,0.45,1,1S21.55,20,21,20z"/>
</g>
<g>
	<path d="M13,20c-0.46,0-0.9,0.11-1.29,0.3l-5-5.01c-0.39-0.39-1.03-0.39-1.42,0s-0.39,1.03,0,1.42l5.01,5   C10.11,22.1,10,22.54,10,23c0,1.66,1.34,3,3,3s3-1.34,3-3S14.66,20,13,20z M13,24c-0.55,0-1-0.45-1-1s0.45-1,1-1s1,0.45,1,1   S13.55,24,13,24z"/>
</g>
</svg>
