<?xml version="1.0" encoding="utf-8"?>
<!-- Generator: Adobe Illustrator 16.0.0, SVG Export Plug-In . SVG Version: 6.00 Build 0)  -->
<!DOCTYPE svg PUBLIC "-//W3C//DTD SVG 1.1//EN" "http://www.w3.org/Graphics/SVG/1.1/DTD/svg11.dtd">
<svg xmlns="http://www.w3.org/2000/svg" xmlns:xlink="http://www.w3.org/1999/xlink" version="1.1" id="Capa_1" x="0px" y="0px" width="32px" height="32px" viewBox="0 0 32 32" enable-background="new 0 0 32 32" xml:space="preserve">
<g>
	<g>
		<path d="M0,14v18h30V14H0z M28,30H2v-2h26V30z M28,26H2v-6h26V26z M28,18H2v-2h26V18z"/>
	</g>
</g>
<g>
	<path d="M23,6c-0.75,0-1.43,0.27-1.95,0.73l-4.03-2.3l4.48-2.56c0.48-0.28,0.64-0.89,0.37-1.37c-0.28-0.48-0.89-0.64-1.37-0.37   L15,3.27L9.5,0.13C9.02-0.14,8.41,0.02,8.13,0.5C7.86,0.98,8.02,1.59,8.5,1.87l4.48,2.56l-4.03,2.3C8.43,6.27,7.75,6,7,6   C5.34,6,4,7.34,4,9s1.34,3,3,3s3-1.34,3-3c0-0.18-0.02-0.36-0.05-0.54L15,5.58l5.05,2.89C20.02,8.64,20,8.82,20,9   c0,1.66,1.34,3,3,3s3-1.34,3-3S24.66,6,23,6z M7,10c-0.55,0-1-0.45-1-1s0.45-1,1-1s1,0.45,1,1S7.55,10,7,10z M23,10   c-0.55,0-1-0.45-1-1s0.45-1,1-1s1,0.45,1,1S23.55,10,23,10z"/>
</g>
</svg>
