<?xml version="1.0" encoding="utf-8"?>
<!-- Generator: Adobe Illustrator 16.0.0, SVG Export Plug-In . SVG Version: 6.00 Build 0)  -->
<!DOCTYPE svg PUBLIC "-//W3C//DTD SVG 1.1//EN" "http://www.w3.org/Graphics/SVG/1.1/DTD/svg11.dtd">
<svg xmlns="http://www.w3.org/2000/svg" xmlns:xlink="http://www.w3.org/1999/xlink" version="1.1" id="Capa_1" x="0px" y="0px" width="32px" height="32px" viewBox="0 0 32 32" enable-background="new 0 0 32 32" xml:space="preserve">
<g>
	<path d="M10,6v14H8c-2.21,0-4,1.79-4,4s1.79,4,4,4s4-1.79,4-4V11.87l12-1.72V18h-2c-2.21,0-4,1.79-4,4s1.79,4,4,4s4-1.79,4-4V4   L10,6z M10,24c0,1.1-0.9,2-2,2s-2-0.9-2-2s0.9-2,2-2h2V24z M24,22c0,1.1-0.9,2-2,2s-2-0.9-2-2s0.9-2,2-2h2V22z M24,8.13L12,9.85   V7.87l12-1.72V8.13z"/>
</g>
</svg>
