<?xml version="1.0" encoding="utf-8"?>
<!-- Generator: Adobe Illustrator 16.0.0, SVG Export Plug-In . SVG Version: 6.00 Build 0)  -->
<!DOCTYPE svg PUBLIC "-//W3C//DTD SVG 1.1//EN" "http://www.w3.org/Graphics/SVG/1.1/DTD/svg11.dtd">
<svg xmlns="http://www.w3.org/2000/svg" xmlns:xlink="http://www.w3.org/1999/xlink" version="1.1" id="Capa_1" x="0px" y="0px" width="32px" height="32px" viewBox="0 0 32 32" enable-background="new 0 0 32 32" xml:space="preserve">
<g>
	<path d="M31.71,4.29l-4-4c-0.229-0.23-0.56-0.33-0.89-0.27c-0.21,0.03-5.21,0.96-7.53,3.27C17.33,5.26,17.04,8.41,17,9.58l-14,14   l-1.29-1.29l-1.42,1.42l8,8l1.42-1.42L8.42,29l13.95-13.98c1.189-0.04,4.37-0.35,6.34-2.31c2.31-2.32,3.24-7.32,3.271-7.53   C32.04,4.85,31.94,4.52,31.71,4.29z M27.29,11.29c-1.68,1.69-4.89,1.74-5.31,1.74c-0.011,0-0.011,0-0.011,0   c-0.27,0.01-0.54,0.1-0.729,0.29L7,27.58L4.42,25L7,22.42l1.29,1.29l1.42-1.42L8.42,21L11,18.42l1.29,1.29l1.42-1.42L12.42,17   L15,14.42l1.29,1.29l1.42-1.42L16.42,13l2.29-2.29c0.19-0.2,0.3-0.47,0.29-0.74c-0.03-0.96,0.22-3.77,1.71-5.26   c1.38-1.38,4.41-2.28,5.96-2.62l3.24,3.24C29.57,6.88,28.68,9.91,27.29,11.29z"/>
</g>
<g>
	<rect x="22.996" y="5.172" transform="matrix(0.7071 -0.7071 0.7071 0.7071 1.3726 19.3137)" width="2.008" height="5.657"/>
</g>
</svg>
