<?xml version="1.0" encoding="utf-8"?>
<!-- Generator: Adobe Illustrator 16.0.0, SVG Export Plug-In . SVG Version: 6.00 Build 0)  -->
<!DOCTYPE svg PUBLIC "-//W3C//DTD SVG 1.1//EN" "http://www.w3.org/Graphics/SVG/1.1/DTD/svg11.dtd">
<svg xmlns="http://www.w3.org/2000/svg" xmlns:xlink="http://www.w3.org/1999/xlink" version="1.1" id="Capa_1" x="0px" y="0px" width="32px" height="32px" viewBox="0 0 32 32" enable-background="new 0 0 32 32" xml:space="preserve">
<g>
	<path d="M16,10c-2.21,0-4,2.24-4,5c0,1.9,0.85,3.55,2.1,4.4c0.56,0.38,1.21,0.6,1.9,0.6c2.21,0,4-2.24,4-5S18.21,10,16,10z M16,18   c-1.07,0-2-1.4-2-3s0.93-3,2-3c1.07,0,2,1.4,2,3S17.07,18,16,18z"/>
</g>
<g>
	<path d="M30,6V4h-2v2h-2V4h-2v2h-2V4h-2v2h-4l-2-2H2c0,0-2,0-2,2v22c0,0,0,2,2,2h28c0,0,2,0,2-2V8C32,8,32,6,30,6z M10.02,28   c0.22-4.6,1.91-5.67,2.64-5.92L16,25.41l3.33-3.33c0.76,0.26,2.43,1.34,2.65,5.92H10.02z M30,27.99C29.98,28,29.97,28,29.96,28   H23.98c-0.351-7.91-4.79-8-4.98-8h-0.41L16,22.59L13.41,20H13c-0.19,0-4.63,0.09-4.98,8H2.01C2,27.98,2,27.97,2,27.96V6.01   C2.02,6,2.03,6,2.04,6h11.13l2,2h14.82C30,8.02,30,8.03,30,8.04V27.99z"/>
</g>
</svg>
