<?xml version="1.0" encoding="utf-8"?>
<!-- Generator: Adobe Illustrator 16.0.0, SVG Export Plug-In . SVG Version: 6.00 Build 0)  -->
<!DOCTYPE svg PUBLIC "-//W3C//DTD SVG 1.1//EN" "http://www.w3.org/Graphics/SVG/1.1/DTD/svg11.dtd">
<svg xmlns="http://www.w3.org/2000/svg" xmlns:xlink="http://www.w3.org/1999/xlink" version="1.1" id="Capa_1" x="0px" y="0px" width="32px" height="32px" viewBox="0 0 32 32" enable-background="new 0 0 32 32" xml:space="preserve">
<g>
	<path d="M29,6h-3.59l-4-4H10.59l-4,4H6V4H4v2H3C1.79,6,0,6.8,0,9v18c0,1.21,0.8,3,3,3h26c1.21,0,3-0.8,3-3V9C32,7.79,31.2,6,29,6z    M30,27c0,0.8-0.55,0.99-1.01,1H3c-0.81,0-0.99-0.55-1-1v-7h6.25c0.89,3.45,4.02,6,7.75,6c3.73,0,6.86-2.55,7.75-6H30V27z M10,18   c0-3.31,2.69-6,6-6c3.31,0,6,2.69,6,6c0,3.31-2.69,6-6,6C12.69,24,10,21.31,10,18z M30,18h-6c0-4.42-3.58-8-8-8s-8,3.58-8,8H2V9   c0-0.81,0.55-0.99,1-1h4.41l4-4h9.18l4,4H29c0.81,0,0.99,0.55,1,1V18z"/>
</g>
<g>
	<rect x="24" y="12" width="4" height="2"/>
</g>
</svg>
