<?xml version="1.0" encoding="utf-8"?>
<!-- Generator: Adobe Illustrator 16.0.0, SVG Export Plug-In . SVG Version: 6.00 Build 0)  -->
<!DOCTYPE svg PUBLIC "-//W3C//DTD SVG 1.1//EN" "http://www.w3.org/Graphics/SVG/1.1/DTD/svg11.dtd">
<svg xmlns="http://www.w3.org/2000/svg" xmlns:xlink="http://www.w3.org/1999/xlink" version="1.1" id="Capa_1" x="0px" y="0px" width="32px" height="32px" viewBox="0 0 32 32" enable-background="new 0 0 32 32" xml:space="preserve">
<g>
	<path d="M25,16c-0.45,0-0.88,0.06-1.3,0.17l-7.8-15.6l-0.01-0.02c-0.08-0.16-0.2-0.3-0.35-0.39c-0.03-0.02-0.05-0.04-0.08-0.04   c0,0,0-0.01-0.01-0.01c-0.04-0.03-0.1-0.05-0.15-0.06c-0.01-0.01-0.02-0.01-0.04-0.01C15.18,0.01,15.1,0,15.01,0   c-0.15,0-0.31,0.04-0.46,0.11c-0.01,0.01-0.02,0.01-0.03,0.02c-0.04,0.02-0.08,0.04-0.12,0.08c-0.07,0.04-0.13,0.1-0.18,0.17   c-0.03,0.04-0.07,0.08-0.1,0.14c0,0.01-0.01,0.02-0.01,0.03L6.29,16.17C5.88,16.06,5.45,16,5,16c-2.76,0-5,2.24-5,5s2.24,5,5,5   s5-2.24,5-5c0-1.6-0.75-3.02-1.92-3.93L14,5.24V22.1c-2.28,0.46-4,2.48-4,4.9c0,2.76,2.24,5,5,5s5-2.24,5-5c0-2.42-1.72-4.44-4-4.9   V5.23l5.91,11.84C20.75,17.99,20,19.41,20,21c0,2.76,2.24,5,5,5s5-2.24,5-5S27.76,16,25,16z M5,24c-1.65,0-3-1.35-3-3s1.35-3,3-3   s3,1.35,3,3S6.65,24,5,24z M18,27c0,1.65-1.35,3-3,3s-3-1.35-3-3s1.35-3,3-3S18,25.35,18,27z M25,24c-1.65,0-3-1.35-3-3s1.35-3,3-3   s3,1.35,3,3S26.65,24,25,24z"/>
</g>
</svg>
