<?xml version="1.0" encoding="utf-8"?>
<!-- Generator: Adobe Illustrator 16.0.0, SVG Export Plug-In . SVG Version: 6.00 Build 0)  -->
<!DOCTYPE svg PUBLIC "-//W3C//DTD SVG 1.1//EN" "http://www.w3.org/Graphics/SVG/1.1/DTD/svg11.dtd">
<svg xmlns="http://www.w3.org/2000/svg" xmlns:xlink="http://www.w3.org/1999/xlink" version="1.1" id="Capa_1" x="0px" y="0px" width="32px" height="32px" viewBox="0 0 32 32" enable-background="new 0 0 32 32" xml:space="preserve">
<g>
	<g>
		<path d="M19.981,4c2.211,0,4,1.79,4,4s-1.789,4-4,4c-0.1,0-0.211,0-0.311-0.02l-0.689,1.59l2.221,2.21l3.35-1.67    c0.146-0.073,0.302-0.108,0.453-0.108c0.367,0,0.717,0.202,0.887,0.548c0.25,0.5,0.051,1.1-0.439,1.34l-4,2    c-0.15,0.08-0.301,0.11-0.451,0.11c-0.26,0-0.51-0.1-0.709-0.29l-2.15-2.16l-2.15,5.021l3.721,3.72    c0.07,0.08,0.139,0.17,0.18,0.26l2,4c0.25,0.5,0.051,1.101-0.439,1.34c-0.15,0.08-0.301,0.11-0.451,0.11    c-0.369,0-0.719-0.2-0.889-0.55l-1.932-3.86l-3.039-3.03l-1.221,2.83c-0.049,0.12-0.119,0.23-0.209,0.32l-4,4    C9.511,29.9,9.261,30,9.001,30s-0.51-0.1-0.71-0.29c-0.39-0.39-0.39-1.03,0-1.42l3.87-3.86l4.05-9.45l-2.5,0.84l-1.82,3.63    c-0.17,0.35-0.52,0.55-0.89,0.55c-0.15,0-0.3-0.03-0.45-0.11c-0.49-0.239-0.69-0.84-0.44-1.34l2-4c0.11-0.23,0.32-0.41,0.57-0.5    l4.579-1.52l0.51-1.2c-1.08-0.71-1.789-1.94-1.789-3.33C15.981,5.79,17.771,4,19.981,4 M19.981,2c-3.309,0-6,2.691-6,6    c0,1.156,0.328,2.262,0.924,3.205l-2.854,0.947l-0.025,0.008l-0.025,0.009c-0.743,0.269-1.36,0.821-1.694,1.516l-1.986,3.971    c-0.362,0.725-0.419,1.546-0.16,2.311c0.253,0.748,0.778,1.353,1.48,1.705C10.063,21.89,10.521,22,11.001,22    c0.008,0,0.017,0,0.026,0l-0.552,1.286l-3.597,3.588c-0.568,0.567-0.88,1.322-0.88,2.126s0.312,1.559,0.879,2.125    C7.483,31.701,8.225,32,9.001,32s1.519-0.299,2.088-0.841l4.036-4.035c0.278-0.278,0.496-0.608,0.648-0.981l0.039-0.09    l0.726,0.724l1.785,3.568C18.815,31.358,19.846,32,21.001,32c0.481,0,0.938-0.11,1.359-0.328c0.702-0.354,1.228-0.957,1.48-1.705    c0.26-0.765,0.202-1.586-0.16-2.312l-1.99-3.979c-0.115-0.242-0.271-0.474-0.476-0.706l-0.043-0.049l-0.046-0.046l-2.764-2.763    l0.451-1.054l0.062,0.062C19.479,19.7,20.223,20,21.001,20c0.482,0,0.94-0.111,1.362-0.33l3.983-1.991    c0.703-0.344,1.239-0.956,1.495-1.714c0.258-0.765,0.201-1.585-0.161-2.31c-0.498-1.015-1.525-1.653-2.676-1.653    c-0.206,0-0.413,0.022-0.615,0.064c0.987-1.07,1.592-2.499,1.592-4.066C25.981,4.691,23.29,2,19.981,2L19.981,2z"/>
	</g>
</g>
</svg>
