<?xml version="1.0" encoding="utf-8"?>
<!-- Generator: Adobe Illustrator 16.0.0, SVG Export Plug-In . SVG Version: 6.00 Build 0)  -->
<!DOCTYPE svg PUBLIC "-//W3C//DTD SVG 1.1//EN" "http://www.w3.org/Graphics/SVG/1.1/DTD/svg11.dtd">
<svg xmlns="http://www.w3.org/2000/svg" xmlns:xlink="http://www.w3.org/1999/xlink" version="1.1" id="Capa_1" x="0px" y="0px" width="32px" height="32px" viewBox="0 0 32 32" enable-background="new 0 0 32 32" xml:space="preserve">
<g>
	<path d="M16,14c1.103,0,2,0.897,2,2c0,1.103-0.897,2-2,2c-1.103,0-2-0.897-2-2C14,14.897,14.897,14,16,14L16,14z M16,12   c-2.209,0-4,1.791-4,4s1.791,4,4,4s4-1.791,4-4S18.209,12,16,12L16,12z"/>
</g>
<g>
	<path d="M29.86,8c-1.33-2.29-3.5-3.5-6.29-3.5c-0.33,0-0.65,0.02-0.971,0.05C21.43,2.05,19.38,0,16,0s-5.43,2.05-6.6,4.55   C9.08,4.52,8.76,4.5,8.44,4.5c-2.8,0-4.97,1.21-6.3,3.5c-1.48,2.57-1.26,5.32,0.64,8c-1.9,2.68-2.12,5.43-0.64,8   c1.32,2.29,3.5,3.5,6.29,3.5c0,0,0,0,0.01,0c0.32,0,0.64-0.02,0.96-0.05C10.57,29.95,12.62,32,16,32s5.43-2.05,6.6-4.55   c0.32,0.03,0.641,0.05,0.971,0.05c2.79,0,4.97-1.21,6.29-3.5c1.689-2.93,0.93-5.73-0.63-8C30.79,13.73,31.55,10.93,29.86,8z    M8.44,25.5H8.43c-2.09,0-3.58-0.82-4.55-2.5c-1.15-1.98-0.73-3.86,0.21-5.42c1.69,1.74,3.5,2.8,3.58,2.85L8,20.62V21   c0,1.25,0.18,2.88,0.66,4.49C8.59,25.5,8.51,25.5,8.44,25.5z M5.31,16c0.96-1.03,2.02-1.82,2.69-2.28v4.56   C7.33,17.82,6.27,17.03,5.31,16z M8,11v0.38l-0.33,0.19c-0.08,0.05-1.89,1.11-3.58,2.85C3.15,12.86,2.73,10.98,3.88,9   c0.97-1.68,2.46-2.5,4.56-2.5c0.07,0,0.15,0,0.22,0.01C8.18,8.12,8,9.75,8,11z M21.35,6.77c0.41,1.33,0.561,2.63,0.61,3.43   l-3.92-2.26C18.76,7.6,19.98,7.08,21.35,6.77z M16,2c2.29,0,3.71,1.29,4.58,2.9c-2.34,0.58-4.14,1.61-4.25,1.67L16,6.76l-0.33-0.19   c-0.11-0.06-1.89-1.08-4.21-1.66C12.33,3.3,13.74,2,16,2z M10.68,6.78c1.35,0.31,2.56,0.82,3.28,1.16l-3.91,2.26   C10.1,9.4,10.27,8.1,10.68,6.78z M10.65,25.23c-0.41-1.33-0.56-2.631-0.61-3.431l3.92,2.26C13.24,24.4,12.02,24.92,10.65,25.23z    M16,30c-2.29,0-3.71-1.29-4.58-2.9c2.34-0.58,4.14-1.609,4.25-1.67L16,25.24l0.33,0.189c0.11,0.061,1.89,1.08,4.21,1.66   C19.67,28.7,18.26,30,16,30z M21.32,25.22H21.31c-1.35-0.31-2.55-0.819-3.27-1.16l3.91-2.26C21.9,22.6,21.73,23.9,21.32,25.22z    M22,19.47l-6,3.46l-6-3.46v-6.94l6.01-3.46L22,12.53V19.47z M28.12,23c-0.48,0.84-1.101,1.46-1.86,1.88   c-0.75,0.42-1.64,0.62-2.689,0.62c-0.08,0-0.15,0-0.23-0.01C23.82,23.88,24,22.25,24,21v-0.38l0.33-0.19   c1.09-0.63,2.41-1.609,3.59-2.83C28.86,19.16,29.26,21.03,28.12,23z M24,18.28v-4.56c0.67,0.46,1.73,1.25,2.69,2.28   C25.73,17.03,24.67,17.82,24,18.28z M27.92,14.4c-1.18-1.22-2.5-2.2-3.59-2.83L24,11.38V11c0-1.25-0.18-2.88-0.66-4.49   c0.08-0.01,0.15-0.01,0.23-0.01c2.09,0,3.58,0.82,4.55,2.5C29.26,10.97,28.86,12.84,27.92,14.4z"/>
</g>
</svg>
