<?xml version="1.0" encoding="utf-8"?>
<!-- Generator: Adobe Illustrator 16.0.0, SVG Export Plug-In . SVG Version: 6.00 Build 0)  -->
<!DOCTYPE svg PUBLIC "-//W3C//DTD SVG 1.1//EN" "http://www.w3.org/Graphics/SVG/1.1/DTD/svg11.dtd">
<svg xmlns="http://www.w3.org/2000/svg" xmlns:xlink="http://www.w3.org/1999/xlink" version="1.1" id="Capa_1" x="0px" y="0px" width="32px" height="32px" viewBox="0 0 32 32" enable-background="new 0 0 32 32" xml:space="preserve">
<g>
	<path d="M31,30H2.32c0.46-1.51,1.45-4.27,3.23-7.48c1.27,0.66,2.74,0.99,4.38,0.99C19.16,23.51,32,12.67,32,2   c0-1.72-4.12-1.98-6.58-1.98c-3.26,0-11.47,0.61-17.13,6.27c-7.43,7.43-5.14,13.35-4.34,14.88c-2.89,5.12-3.85,9.25-3.93,9.61   c-0.06,0.3,0.01,0.609,0.2,0.85C0.41,31.86,0.7,32,1,32h30c0.55,0,1-0.45,1-1S31.55,30,31,30z M9.71,7.71   c5.13-5.13,12.69-5.69,15.71-5.69c2.23,0,3.87,0.28,4.57,0.5c-0.42,9.27-11.92,18.99-20.06,18.99c-1.27,0-2.39-0.24-3.36-0.71   c3.21-5.21,8.49-11.17,16.84-14.89c0.5-0.22,0.729-0.81,0.5-1.32c-0.22-0.5-0.811-0.73-1.32-0.5C14.1,7.86,8.66,13.73,5.25,19.02   C4.69,16.96,4.58,12.83,9.71,7.71z"/>
</g>
<g>
	<path d="M28,27c0,0.55-0.45,1-1,1H7c-0.55,0-1-0.45-1-1s0.45-1,1-1h20C27.55,26,28,26.45,28,27z"/>
</g>
</svg>
