<?xml version="1.0" encoding="utf-8"?>
<!-- Generator: Adobe Illustrator 16.0.0, SVG Export Plug-In . SVG Version: 6.00 Build 0)  -->
<!DOCTYPE svg PUBLIC "-//W3C//DTD SVG 1.1//EN" "http://www.w3.org/Graphics/SVG/1.1/DTD/svg11.dtd">
<svg xmlns="http://www.w3.org/2000/svg" xmlns:xlink="http://www.w3.org/1999/xlink" version="1.1" id="Capa_1" x="0px" y="0px" width="32px" height="32px" viewBox="0 0 32 32" enable-background="new 0 0 32 32" xml:space="preserve">
<g>
	<path d="M0,4v24h32V4H0z M20,6h4v4h-4V6z M20,12h4v2h-4V12z M20,16h4v2h-4V16z M20,20h4v2h-4V20z M6,26H2v-2h4V26z M6,22H2v-2h4V22   z M6,18H2v-2h4V18z M6,14H2v-2h4V14z M6,10H2V6h4V10z M12,26H8v-2h4V26z M12,22H8v-2h4V22z M12,18H8v-2h4V18z M12,14H8v-2h4V14z    M12,10H8V6h4V10z M18,26h-4v-2h4V26z M18,22h-4v-2h4V22z M18,18h-4v-2h4V18z M18,14h-4v-2h4V14z M18,10h-4V6h4V10z M20,26v-2h4v2   H20z M30,26h-4v-2h4V26z M30,22h-4v-2h4V22z M30,18h-4v-2h4V18z M30,14h-4v-2h4V14z M30,10h-4V6h4V10z"/>
</g>
</svg>
