<?xml version="1.0" encoding="utf-8"?>
<!-- Generator: Adobe Illustrator 16.0.0, SVG Export Plug-In . SVG Version: 6.00 Build 0)  -->
<!DOCTYPE svg PUBLIC "-//W3C//DTD SVG 1.1//EN" "http://www.w3.org/Graphics/SVG/1.1/DTD/svg11.dtd">
<svg xmlns="http://www.w3.org/2000/svg" xmlns:xlink="http://www.w3.org/1999/xlink" version="1.1" id="Capa_1" x="0px" y="0px" width="32px" height="32px" viewBox="0 0 32 32" enable-background="new 0 0 32 32" xml:space="preserve">
<g>
	<path d="M16,22v6h10v-6H16z M24,26h-6v-2h6V26z"/>
</g>
<g>
	<path d="M24,12h-4V7.64l1.36,1.13l1.279-1.54L16,1.7L9.36,7.23l1.28,1.54L12,7.64V12H8l-8,6v2h2v12h28V20h2v-2L24,12z M14,5.97   l2-1.67l2,1.67V12h-4V5.97z M12,30H8v-6h4V30z M28,30H14v-8H6v8H4V20h24V30z M3.33,18l5.34-4h14.66l5.34,4H3.33z"/>
</g>
</svg>
