<?xml version="1.0" encoding="utf-8"?>
<!-- Generator: Adobe Illustrator 16.0.0, SVG Export Plug-In . SVG Version: 6.00 Build 0)  -->
<!DOCTYPE svg PUBLIC "-//W3C//DTD SVG 1.1//EN" "http://www.w3.org/Graphics/SVG/1.1/DTD/svg11.dtd">
<svg xmlns="http://www.w3.org/2000/svg" xmlns:xlink="http://www.w3.org/1999/xlink" version="1.1" id="Capa_1" x="0px" y="0px" width="32px" height="32px" viewBox="0 0 32 32" enable-background="new 0 0 32 32" xml:space="preserve">
<g>
	<g>
		<g>
			<path d="M22,19c0,0.55-0.45,1-1,1H11c-0.55,0-1-0.45-1-1s0.45-1,1-1h10C21.55,18,22,18.45,22,19z"/>
		</g>
	</g>
</g>
<g>
	<path d="M29,6H8c-1.61,0-4,1.07-4,4v4.09C0.86,14.58,0,17.43,0,19v4c0,2.2,1.79,3,3,3h1.54c0.69,1.2,1.98,2,3.46,2s2.77-0.8,3.46-2   h9.08c0.69,1.2,1.979,2,3.46,2s2.77-0.8,3.46-2H29c2.2,0,3-1.79,3-3V9C32,6.8,30.21,6,29,6z M6,12h6v2H6V12z M8,26   c-1.1,0-2-0.9-2-2s0.9-2,2-2s2,0.9,2,2S9.1,26,8,26z M24,26c-1.1,0-2-0.9-2-2s0.9-2,2-2s2,0.9,2,2S25.1,26,24,26z M30,18h-2v2h2   v2.99C29.99,23.45,29.81,24,29,24h-1c0-2.21-1.79-4-4-4s-4,1.79-4,4h-8c0-2.21-1.79-4-4-4s-4,1.79-4,4H3.01   C2.55,23.99,2,23.81,2,23v-3.99C2.01,18.5,2.18,16,5,16h23v-6H6c0-1.83,1.54-1.99,2-2h20.99C29.45,8.01,30,8.19,30,9V18z M14,14v-2   h4v2H14z M20,14v-2h6v2H20z"/>
</g>
</svg>
