<?xml version="1.0" encoding="utf-8"?>
<!-- Generator: Adobe Illustrator 16.0.0, SVG Export Plug-In . SVG Version: 6.00 Build 0)  -->
<!DOCTYPE svg PUBLIC "-//W3C//DTD SVG 1.1//EN" "http://www.w3.org/Graphics/SVG/1.1/DTD/svg11.dtd">
<svg xmlns="http://www.w3.org/2000/svg" xmlns:xlink="http://www.w3.org/1999/xlink" version="1.1" id="Capa_1" x="0px" y="0px" width="32px" height="32px" viewBox="0 0 32 32" enable-background="new 0 0 32 32" xml:space="preserve">
<g>
	<path d="M29.74,26.3L26,20.7v-7.65c0.01-0.14,0.16-3.63-2.33-6.26C22.7,5.77,21.471,5.02,20,4.56V4c0-4-4-4-4-4s-4,0-4,4v0.56   c-1.47,0.46-2.7,1.21-3.67,2.23C5.84,9.42,5.99,12.91,6,13v7.7l-3.83,5.75c-0.21,0.3-0.23,0.7-0.05,1.02C2.29,27.8,2.63,28,3,28h9   c0,4,4,4,4,4s4,0,4-4h9c0.01,0,0.01,0,0.02,0c0.551,0,1-0.45,1-1C30.02,26.73,29.91,26.48,29.74,26.3z M16,2c0.92,0.03,2,0.4,2,2   h-4C14,2.4,15.08,2.03,16,2z M9.8,8.15C11.16,6.72,13.25,6,16,6s4.84,0.72,6.2,2.15c1.909,2,1.8,4.77,1.8,4.85v7H8v-7.05   C8,12.92,7.89,10.15,9.8,8.15z M16.02,30C15.1,29.98,14,29.609,14,28h4C18,29.609,16.9,29.98,16.02,30z M4.87,26l2.66-4h16.941   l2.659,4H4.87z"/>
</g>
</svg>
