<?xml version="1.0" encoding="utf-8"?>
<!-- Generator: Adobe Illustrator 16.0.0, SVG Export Plug-In . SVG Version: 6.00 Build 0)  -->
<!DOCTYPE svg PUBLIC "-//W3C//DTD SVG 1.1//EN" "http://www.w3.org/Graphics/SVG/1.1/DTD/svg11.dtd">
<svg xmlns="http://www.w3.org/2000/svg" xmlns:xlink="http://www.w3.org/1999/xlink" version="1.1" id="Capa_1" x="0px" y="0px" width="32px" height="32px" viewBox="0 0 32 32" enable-background="new 0 0 32 32" xml:space="preserve">
<path d="M27.47,6.12c-0.319-0.18-0.72-0.16-1.02,0.05L23.93,7.85C23.37,3.43,19.58,0,15,0S6.63,3.43,6.07,7.85L3.55,6.17  c-0.3-0.21-0.7-0.23-1.02-0.05C2.2,6.29,2,6.63,2,7v16c0,0.33,0.17,0.65,0.45,0.83l12,8C14.61,31.94,14.81,32,15,32  c0.16,0,0.32-0.04,0.47-0.12c0.02-0.01,0.04-0.02,0.06-0.04c0.01,0,0.01-0.01,0.02-0.01l12-8C27.83,23.65,28,23.33,28,23V7  C28,6.63,27.8,6.29,27.47,6.12z M14,29.13L4,22.46V8.87l10,6.67V29.13z M15,13.8L8,9.14V9c0-3.86,3.14-7,7-7c3.86,0,7,3.14,7,7v0.14  L15,13.8z M26,22.46l-10,6.67V15.54l10-6.67V22.46z"/>
</svg>
