<?xml version="1.0" encoding="utf-8"?>
<!-- Generator: Adobe Illustrator 16.0.0, SVG Export Plug-In . SVG Version: 6.00 Build 0)  -->
<!DOCTYPE svg PUBLIC "-//W3C//DTD SVG 1.1//EN" "http://www.w3.org/Graphics/SVG/1.1/DTD/svg11.dtd">
<svg xmlns="http://www.w3.org/2000/svg" xmlns:xlink="http://www.w3.org/1999/xlink" version="1.1" id="Capa_1" x="0px" y="0px" width="32px" height="32px" viewBox="0 0 32 32" enable-background="new 0 0 32 32" xml:space="preserve">
<path d="M11.242,20.07L15,23.828l3.757-3.758c3.716,0.722,4.802,6.724,5.116,9.93H6.124C6.434,26.793,7.511,20.788,11.242,20.07   M18,18l-3,3l-3-3c-8,0-8,14-8,14h22C26,32,26,18,18,18L18,18z"/>
<path d="M15,4c2.757,0,5,2.691,5,6s-2.243,6-5,6s-5-2.691-5-6S12.243,4,15,4 M15,2c-3.866,0-7,3.582-7,8s3.134,8,7,8s7-3.582,7-8  S18.866,2,15,2L15,2z"/>
</svg>
