<?xml version="1.0" encoding="utf-8"?>
<!-- Generator: Adobe Illustrator 16.0.0, SVG Export Plug-In . SVG Version: 6.00 Build 0)  -->
<!DOCTYPE svg PUBLIC "-//W3C//DTD SVG 1.1//EN" "http://www.w3.org/Graphics/SVG/1.1/DTD/svg11.dtd">
<svg xmlns="http://www.w3.org/2000/svg" xmlns:xlink="http://www.w3.org/1999/xlink" version="1.1" id="Capa_1" x="0px" y="0px" width="32px" height="32px" viewBox="0 0 32 32" enable-background="new 0 0 32 32" xml:space="preserve">
<g>
	<g>
		<path d="M6,2v6h2V4h22v14H14v2h18V2H6z"/>
	</g>
</g>
<g>
	<path d="M8,12c1.065,0,2,1.402,2,3s-0.935,3-2,3s-2-1.402-2-3S6.935,12,8,12 M8,10c-2.209,0-4,2.238-4,5s1.791,5,4,5s4-2.238,4-5   S10.209,10,8,10L8,10z"/>
</g>
<g>
	<path d="M16,30H0v-1c0-8.897,4.796-9,5-9h0.414L8,22.586L10.586,20H11c0.204,0,5,0.103,5,9V30z M2.022,28h11.955   c-0.214-4.576-1.891-5.663-2.643-5.921L8,25.414l-3.338-3.338C3.926,22.327,2.237,23.404,2.022,28z"/>
</g>
<g>
	<rect x="10" y="6" width="10" height="2"/>
</g>
<g>
	<rect x="14" y="10" width="14" height="2"/>
</g>
<g>
	<rect x="14" y="14" width="10" height="2"/>
</g>
</svg>
