<?xml version="1.0" encoding="utf-8"?>
<!-- Generator: Adobe Illustrator 16.0.0, SVG Export Plug-In . SVG Version: 6.00 Build 0)  -->
<!DOCTYPE svg PUBLIC "-//W3C//DTD SVG 1.1//EN" "http://www.w3.org/Graphics/SVG/1.1/DTD/svg11.dtd">
<svg xmlns="http://www.w3.org/2000/svg" xmlns:xlink="http://www.w3.org/1999/xlink" version="1.1" id="Capa_1" x="0px" y="0px" width="32px" height="32px" viewBox="0 0 32 32" enable-background="new 0 0 32 32" xml:space="preserve">
<g>
	<path d="M23,6c0,0-2,2-4,2s-3-2-3-2s1-2,3-2S23,6,23,6z"/>
</g>
<path d="M21,8c-2.25,0-3.88,0.76-5,1.73V5c0-1.21-0.8-3-3-3h-2c-1,0-1,1-1,1c0,1,1,1,1,1h2c0.81,0,0.99,0.55,1,1v4.73  C12.88,8.76,11.25,8,9,8c-5.54,0-7,5.89-7,9c0,0.15,0.15,15,13,15c12.85,0,13-14.85,13-15C28,13.89,26.54,8,21,8z M15,30  C4.15,30,4,17.53,4,17c0-0.28,0.08-7,5-7c4.12,0,5,3.12,5.03,3.24C14.14,13.69,14.54,14,15,14s0.86-0.31,0.97-0.76  C15.98,13.21,16.83,10,21,10c4.92,0,5,6.72,5,7C26,17.53,25.85,30,15,30z"/>
</svg>
