<?xml version="1.0" encoding="utf-8"?>
<!-- Generator: Adobe Illustrator 16.0.0, SVG Export Plug-In . SVG Version: 6.00 Build 0)  -->
<!DOCTYPE svg PUBLIC "-//W3C//DTD SVG 1.1//EN" "http://www.w3.org/Graphics/SVG/1.1/DTD/svg11.dtd">
<svg xmlns="http://www.w3.org/2000/svg" xmlns:xlink="http://www.w3.org/1999/xlink" version="1.1" id="Capa_1" x="0px" y="0px" width="32px" height="32px" viewBox="0 0 32 32" enable-background="new 0 0 32 32" xml:space="preserve">
<g>
	<g>
		<path d="M27,2H5C1.04,2,0,5.27,0,7v16c0,3.96,3.27,5,5,5h11.58l-0.56,2.8c-0.08,0.4,0.09,0.811,0.42,1.03    c0.34,0.229,0.78,0.229,1.11,0L23,28.2l5.45,3.63C28.61,31.94,28.81,32,29,32s0.39-0.06,0.56-0.17c0.33-0.22,0.5-0.63,0.421-1.03    l-0.66-3.28C31.38,26.55,32,24.32,32,23V7C32,3.04,28.73,2,27,2z M16.98,26H5.01c-0.44-0.01-2.37-0.14-2.88-2h15.25L16.98,26z     M23.55,26.17c-0.33-0.229-0.77-0.229-1.1,0l-4,2.66l0.96-4.75l0.27-1.35C20.57,23.52,21.73,24,23,24s2.43-0.48,3.32-1.27    l1.229,6.1L23.55,26.17z M20,19c0-1.65,1.35-3,3-3s3,1.35,3,3s-1.35,3-3,3S20,20.65,20,19z M28.91,25.44L28.62,24h1.229    C29.71,24.49,29.43,25.04,28.91,25.44z M30,22h-1.78l-0.37-1.81C27.95,19.81,28,19.41,28,19c0-2.76-2.24-5-5-5s-5,2.24-5,5    c0,0.41,0.05,0.81,0.15,1.19L17.79,22H2V7.01C2.01,6.5,2.18,4,5,4h21.99C27.5,4.01,30,4.18,30,7V22z"/>
	</g>
</g>
<g>
	<g>
		<path d="M14,10V8h-4V6H8v2H4v6h4v2H4v2h4v2h2v-2h4v-6h-4v-2H14z M8,12H6v-2h2V12z M12,14v2h-2v-2H12z"/>
	</g>
</g>
<g>
	<g>
		<rect x="18" y="8" width="10" height="2"/>
	</g>
</g>
</svg>
