<?xml version="1.0" encoding="utf-8"?>
<!-- Generator: Adobe Illustrator 16.0.0, SVG Export Plug-In . SVG Version: 6.00 Build 0)  -->
<!DOCTYPE svg PUBLIC "-//W3C//DTD SVG 1.1//EN" "http://www.w3.org/Graphics/SVG/1.1/DTD/svg11.dtd">
<svg xmlns="http://www.w3.org/2000/svg" xmlns:xlink="http://www.w3.org/1999/xlink" version="1.1" id="Capa_1" x="0px" y="0px" width="32px" height="32px" viewBox="0 0 32 32" enable-background="new 0 0 32 32" xml:space="preserve">
<g>
	<g>
		<path d="M0,4v14h2v-4h28v14H2v-4H0v6h32V4H0z M30,12H2V6h28V12z"/>
	</g>
</g>
<g>
	<g>
		<rect x="26" y="8" width="2" height="2"/>
	</g>
</g>
<g>
	<g>
		<rect x="22" y="8" width="2" height="2"/>
	</g>
</g>
<g>
	<g>
		<rect x="18" y="8" width="2" height="2"/>
	</g>
</g>
<g>
	<polygon points="14.41,21 9.71,25.71 8.29,24.29 10.59,22 0,22 0,20 10.59,20 8.29,17.71 9.71,16.29  "/>
</g>
<g>
	<polygon points="20.41,21 15.71,25.71 14.29,24.29 17.59,21 14.29,17.71 15.71,16.29  "/>
</g>
<g>
	<polygon points="26.41,21 21.71,25.71 20.29,24.29 23.59,21 20.29,17.71 21.71,16.29  "/>
</g>
</svg>
