<?xml version="1.0" encoding="utf-8"?>
<!-- Generator: Adobe Illustrator 16.0.0, SVG Export Plug-In . SVG Version: 6.00 Build 0)  -->
<!DOCTYPE svg PUBLIC "-//W3C//DTD SVG 1.1//EN" "http://www.w3.org/Graphics/SVG/1.1/DTD/svg11.dtd">
<svg xmlns="http://www.w3.org/2000/svg" xmlns:xlink="http://www.w3.org/1999/xlink" version="1.1" id="Capa_1" x="0px" y="0px" width="32px" height="32px" viewBox="0 0 32 32" enable-background="new 0 0 32 32" xml:space="preserve">
<g>
	<path d="M26,6v2h-2V5c0-0.36-0.19-0.69-0.5-0.87l-7-4c-0.31-0.17-0.69-0.17-1,0l-7,4C8.19,4.31,8,4.64,8,5v3H6V6H0v20h32V6H26z    M8,24H2V8h2v2h4V24z M18,24h-4v-4.99c0.01-0.46,0.19-1.01,1-1.01h1.99c0.46,0.01,1.01,0.19,1.01,1V24z M22,24h-2v-5   c0-2.2-1.79-3-3-3h-2c-2.2,0-3,1.79-3,3v5h-2V5.58l6-3.43l6,3.43V24z M30,24h-6V10h4V8h2V24z"/>
</g>
<g>
	<rect x="4" y="12" width="2" height="2"/>
</g>
<g>
	<rect x="4" y="16" width="2" height="2"/>
</g>
<g>
	<rect x="4" y="20" width="2" height="2"/>
</g>
<g>
	<rect x="26" y="12" width="2" height="2"/>
</g>
<g>
	<rect x="26" y="16" width="2" height="2"/>
</g>
<g>
	<rect x="26" y="20" width="2" height="2"/>
</g>
<g>
	<rect x="12" y="12" width="8" height="2"/>
</g>
<g>
	<rect y="28" width="32" height="2"/>
</g>
<g>
	<path d="M18,8c0,1.1-0.9,2-2,2c-1.1,0-2-0.9-2-2s0.9-2,2-2C17.1,6,18,6.9,18,8z"/>
</g>
</svg>
