<?xml version="1.0" encoding="utf-8"?>
<!-- Generator: Adobe Illustrator 16.0.0, SVG Export Plug-In . SVG Version: 6.00 Build 0)  -->
<!DOCTYPE svg PUBLIC "-//W3C//DTD SVG 1.1//EN" "http://www.w3.org/Graphics/SVG/1.1/DTD/svg11.dtd">
<svg xmlns="http://www.w3.org/2000/svg" xmlns:xlink="http://www.w3.org/1999/xlink" version="1.1" id="Capa_1" x="0px" y="0px" width="32px" height="32px" viewBox="0 0 32 32" enable-background="new 0 0 32 32" xml:space="preserve">
<g>
	<g>
		<g>
			<path d="M25.51,10.32c-0.46-0.3-1.06-0.58-1.8-0.7C24.82,7.16,26,4.25,26,3c0-2.2-1.79-3-3-3H7C5.79,0,4,0.8,4,3     c0,1.25,1.18,4.16,2.29,6.62c-0.74,0.12-1.34,0.4-1.8,0.7C0.19,13.15,0,22.9,0,23c0,1.73,1.04,5,5,5h1     c0.07,0,0.13-0.01,0.19-0.02H6.2c0.13,0.229,0.29,0.46,0.46,0.68C8.4,30.88,11.2,32,15,32s6.6-1.12,8.34-3.34     c0.17-0.22,0.33-0.45,0.46-0.68h0.01C23.87,27.99,23.93,28,24,28h1c3.96,0,5-3.27,5-5C30,22.9,29.81,13.15,25.51,10.32z M6,3     c0-0.81,0.55-0.99,1-1h15.99C23.45,2.01,24,2.19,24,3c0,0.9-3.59,8.95-3.62,9H9.62C9.59,11.95,6,3.9,6,3z M25,26h-0.28     c1.03-3.23,0.41-6.97-0.149-9.22c-0.13-0.54-0.67-0.86-1.21-0.73c-0.54,0.13-0.86,0.68-0.73,1.21     c0.64,2.561,1.38,7.28-0.87,10.17C20.43,29.13,18.15,30,15,30c-3.15,0-5.43-0.87-6.76-2.57c-2.25-2.88-1.51-7.609-0.87-10.17     c0.13-0.53-0.2-1.08-0.73-1.21c-0.53-0.13-1.08,0.19-1.21,0.73C4.87,19.03,4.25,22.77,5.28,26H5c-2.82,0-2.99-2.5-3-3     c0-2.31,0.85-9.2,3.59-11.01c0.48-0.32,1.01-0.46,1.6-0.43c0.41,0.86,0.75,1.55,0.92,1.89C8.27,13.79,8.62,14,9,14h12     c0.38,0,0.72-0.21,0.89-0.55c0.17-0.34,0.511-1.03,0.92-1.89c0.591-0.03,1.12,0.11,1.601,0.43c2.74,1.81,3.59,8.7,3.59,11     C27.99,23.5,27.82,26,25,26z"/>
		</g>
	</g>
	<g>
		<g>
			<circle cx="10" cy="18" r="2"/>
		</g>
	</g>
	<g>
		<g>
			<circle cx="20" cy="18" r="2"/>
		</g>
	</g>
	<g>
		<g>
			<path d="M21.89,25.45C20.63,27.97,17.15,28,17,28h-4c-0.15,0-3.63-0.03-4.89-2.55c-0.25-0.5-0.05-1.101,0.44-1.34     c0.5-0.25,1.1-0.051,1.34,0.439C10.6,25.96,12.98,26,13,26h1v-2h-1c-0.55,0-1-0.45-1-1s0.45-1,1-1h4c0.55,0,1,0.45,1,1     s-0.45,1-1,1h-1v2h1c0.02,0,2.41-0.05,3.11-1.45c0.239-0.49,0.84-0.689,1.34-0.439C21.94,24.35,22.14,24.95,21.89,25.45z"/>
		</g>
	</g>
</g>
<g>
	<polygon points="18,6 18,8 16,8 16,10 14,10 14,8 12,8 12,6 14,6 14,4.03 16,4.03 16,6  "/>
</g>
</svg>
