<?xml version="1.0" encoding="utf-8"?>
<!-- Generator: Adobe Illustrator 16.0.0, SVG Export Plug-In . SVG Version: 6.00 Build 0)  -->
<!DOCTYPE svg PUBLIC "-//W3C//DTD SVG 1.1//EN" "http://www.w3.org/Graphics/SVG/1.1/DTD/svg11.dtd">
<svg xmlns="http://www.w3.org/2000/svg" xmlns:xlink="http://www.w3.org/1999/xlink" version="1.1" id="Capa_1" x="0px" y="0px" width="32px" height="32px" viewBox="0 0 32 32" enable-background="new 0 0 32 32" xml:space="preserve">
<g>
	<path d="M21,6H5C4.67,6,4.35,6.17,4.17,6.45l-4,6C0.06,12.61,0,12.81,0,13v4c0,0.55,0.45,1,1,1h9.05c0.5,5.6,5.22,10,10.95,10   c6.07,0,11-4.93,11-11C32,10.93,27.07,6,21,6z M21,8c0.2,0,0.4,0.01,0.6,0.02L20.28,12h-3.89l1.33-4H21z M10.05,16H2v-2h8.42   C10.23,14.65,10.11,15.32,10.05,16z M21,26c-4.96,0-9-4.04-9-9c0-1.25,0.25-2.46,0.75-3.6c0.14-0.3,0.11-0.66-0.07-0.95   c-0.19-0.28-0.5-0.45-0.84-0.45H2.87l2.67-4h10.07l-1.56,4.68c-0.1,0.31-0.05,0.64,0.14,0.9C14.38,13.85,14.68,14,15,14h6   c0.43,0,0.81-0.28,0.95-0.68l1.64-4.93C27.29,9.5,30,12.94,30,17C30,21.96,25.96,26,21,26z"/>
</g>
</svg>
