<?xml version="1.0" encoding="utf-8"?>
<!-- Generator: Adobe Illustrator 16.0.0, SVG Export Plug-In . SVG Version: 6.00 Build 0)  -->
<!DOCTYPE svg PUBLIC "-//W3C//DTD SVG 1.1//EN" "http://www.w3.org/Graphics/SVG/1.1/DTD/svg11.dtd">
<svg xmlns="http://www.w3.org/2000/svg" xmlns:xlink="http://www.w3.org/1999/xlink" version="1.1" id="Capa_1" x="0px" y="0px" width="32px" height="32px" viewBox="0 0 32 32" style="enable-background:new 0 0 32 32;" xml:space="preserve">
<path d="M22,4c-2.25,0-4.33,0.3-6,0.8V3c0-0.31-0.15-0.61-0.4-0.8c-0.25-0.19-0.57-0.25-0.87-0.16l-14,4C0.3,6.16,0,6.55,0,7v20  c0,0.45,0.3,0.84,0.73,0.96l14,4L15,32c0.21,0,0.43-0.07,0.6-0.2C15.85,31.61,16,31.31,16,31v-1.8c1.67,0.5,3.75,0.8,6,0.8  c5.52,0,10-1.79,10-4V8C32,5.79,27.52,4,22,4z M14,29.67L2,26.25V7.75l12-3.42V29.67z M16,6.91C17.36,6.42,19.37,6,22,6  c4.69,0,7.43,1.35,7.95,2c-0.521,0.65-3.26,2-7.95,2c-2.63,0-4.64-0.42-6-0.91V6.91z M30,26c-0.52,0.65-3.31,2-8,2  c-2.61,0-4.64-0.42-6-0.91V23.19C17.67,23.7,19.75,24,22,24c2.53,0,4.85-0.38,6.61-1c0.51-0.18,0.979-0.38,1.39-0.6V26z M30,20  c-0.52,0.65-3.31,2-8,2c-2.61,0-4.64-0.42-6-0.91V17.19C17.67,17.7,19.75,18,22,18c2.53,0,4.85-0.38,6.61-1  c0.51-0.18,0.979-0.38,1.39-0.6V20z M30,14c-0.52,0.65-3.31,2-8,2c-2.61,0-4.64-0.42-6-0.91v-3.9C17.67,11.7,19.75,12,22,12  c2.53,0,4.85-0.38,6.61-1c0.51-0.18,0.979-0.38,1.39-0.6V14z M8.97,10H7.03l-3,12.76l1.94,0.48L6.77,20h2.46l0.8,3.24l1.94-0.48  L8.97,10z M7.26,18L8,15l0.74,3H7.26z"/>
</svg>
