<?xml version="1.0" encoding="utf-8"?>
<!-- Generator: Adobe Illustrator 16.0.0, SVG Export Plug-In . SVG Version: 6.00 Build 0)  -->
<!DOCTYPE svg PUBLIC "-//W3C//DTD SVG 1.1//EN" "http://www.w3.org/Graphics/SVG/1.1/DTD/svg11.dtd">
<svg xmlns="http://www.w3.org/2000/svg" xmlns:xlink="http://www.w3.org/1999/xlink" version="1.1" id="Capa_1" x="0px" y="0px" width="32px" height="32px" viewBox="0 0 32 32" style="enable-background:new 0 0 32 32;" xml:space="preserve">
<path d="M25,0H9C4.03,0,0,4.03,0,9c0,4.63,3.5,8.45,8,8.94V30c0,2,2,2,2,2h20c2,0,2-2,2-2V7L25,0z M9,16c-3.86,0-7-3.14-7-7  s3.14-7,7-7s7,3.14,7,7S12.86,16,9,16z M30,29.96L29.99,30H10.04L10,29.99V17.94c4.5-0.49,8-4.311,8-8.94c0-2.83-1.31-5.36-3.36-7  H22v5c0,1.21,0.8,3,3,3h5V29.96z M30,8h-5c-0.81,0-0.99-0.55-1-1V2h0.17L30,7.83V8z M12.29,4.29L7,9.59l-1.29-1.3L4.29,9.71L7,12.41  l6.71-6.7L12.29,4.29z"/>
</svg>
