<?xml version="1.0" encoding="utf-8"?>
<!-- Generator: Adobe Illustrator 16.0.0, SVG Export Plug-In . SVG Version: 6.00 Build 0)  -->
<!DOCTYPE svg PUBLIC "-//W3C//DTD SVG 1.1//EN" "http://www.w3.org/Graphics/SVG/1.1/DTD/svg11.dtd">
<svg xmlns="http://www.w3.org/2000/svg" xmlns:xlink="http://www.w3.org/1999/xlink" version="1.1" id="Capa_1" x="0px" y="0px" width="32px" height="32px" viewBox="0 0 32 32" style="enable-background:new 0 0 32 32;" xml:space="preserve">
<path d="M5,32c-0.36,0-3.548-0.061-4.533-2.163c-0.678-1.447-0.101-3.238,1.765-5.478l1.536,1.281  c-1.244,1.493-1.788,2.714-1.49,3.349C2.632,29.745,4.295,30,5,30c2.415,0,4.76-2.728,6.779-6.398  c-2.885,0.996-4.057,2.091-4.078,2.111l-1.408-1.42c0.115-0.115,1.99-1.929,6.735-3.161c1.009-2.159,1.906-4.481,2.651-6.686  c-2.11-4.621-3.498-8.738-3.628-9.13c-0.074-0.252-0.601-2.192,0.35-3.708c0.355-0.566,1.066-1.289,2.434-1.517  c0.13-0.017,2.175-0.253,3.678,1.075C19.5,2.039,20,3.329,20,5c0,1.194-0.766,4.945-2.153,9.287c0.949,2.01,1.984,4.001,3.046,5.755  C21.567,20.015,22.27,20,23,20c8.747,0,9,3.591,9,4c0,1.384-1.045,4-5,4c-2.489,0-4.982-2.527-7.199-5.896  c-2.09,0.141-3.863,0.413-5.355,0.748C11.949,27.889,8.723,32,5,32z M22.168,22.007C23.843,24.395,25.527,26,27,26  c2.966,0,3-1.918,3-2c-0.08-0.511-1.5-2-7-2C22.718,22,22.44,22.002,22.168,22.007z M16.912,17.024  c-0.434,1.191-0.908,2.396-1.422,3.576c0.955-0.167,1.996-0.308,3.128-0.41C18.021,19.165,17.45,18.097,16.912,17.024z   M15.352,2.062c-0.144,0-0.232,0.009-0.235,0.009c-0.469,0.08-0.818,0.278-1.021,0.601c-0.409,0.651-0.23,1.723-0.135,2.047  c0.608,1.824,1.53,4.25,2.64,6.812C17.489,8.5,18,6.014,18,5c0-1.067-0.27-1.849-0.801-2.326  C16.596,2.134,15.755,2.062,15.352,2.062z"/>
</svg>
