<?xml version="1.0" encoding="utf-8"?>
<!-- Generator: Adobe Illustrator 16.0.0, SVG Export Plug-In . SVG Version: 6.00 Build 0)  -->
<!DOCTYPE svg PUBLIC "-//W3C//DTD SVG 1.1//EN" "http://www.w3.org/Graphics/SVG/1.1/DTD/svg11.dtd">
<svg xmlns="http://www.w3.org/2000/svg" xmlns:xlink="http://www.w3.org/1999/xlink" version="1.1" id="Capa_1" x="0px" y="0px" width="32px" height="32px" viewBox="0 0 32 32" style="enable-background:new 0 0 32 32;" xml:space="preserve">
<path d="M8,24v2H0V0h6v2H2v22H8z M24,0v2h4v22h-6v2h8V0H24z M22,0v14h-2v18H10V14H8V0H22z M18,14h-6v16h6V14z M20,2H10v10h10V2z   M16,6V4h-2v2h-2v2h2v2h2V8h2V6H16z"/>
</svg>
