<?xml version="1.0" encoding="utf-8"?>
<!-- Generator: Adobe Illustrator 16.0.0, SVG Export Plug-In . SVG Version: 6.00 Build 0)  -->
<!DOCTYPE svg PUBLIC "-//W3C//DTD SVG 1.1//EN" "http://www.w3.org/Graphics/SVG/1.1/DTD/svg11.dtd">
<svg xmlns="http://www.w3.org/2000/svg" xmlns:xlink="http://www.w3.org/1999/xlink" version="1.1" id="Capa_1" x="0px" y="0px" width="32px" height="32px" viewBox="0 0 32 32" style="enable-background:new 0 0 32 32;" xml:space="preserve">
<path d="M18.86,10.93C21.95,9.22,22,6.04,22,6c0-2.08-1.46-6-7-6S8,3.92,8,6v25c0,0,0,1,1,1s1-1,1-1v-7.16  c1.77,1.63,4.33,2.16,6,2.16c2.77,0,8-1.67,8-8C24,14.13,21.55,12,18.86,10.93z M16,24c-0.24,0-6-0.08-6-5V6.01  C10.01,5.6,10.19,2,15,2c4.81,0,5,3.6,5,4c0,0.16-0.07,4-6,4h-1c0,0-1,0-1,1s1,1,1,1h1c0.33,0,8,0.09,8,6C22,23.79,16.61,24,16,24z"/>
</svg>
