<?xml version="1.0" encoding="utf-8"?>
<!-- Generator: Adobe Illustrator 16.0.0, SVG Export Plug-In . SVG Version: 6.00 Build 0)  -->
<!DOCTYPE svg PUBLIC "-//W3C//DTD SVG 1.1//EN" "http://www.w3.org/Graphics/SVG/1.1/DTD/svg11.dtd">
<svg xmlns="http://www.w3.org/2000/svg" xmlns:xlink="http://www.w3.org/1999/xlink" version="1.1" id="Capa_1" x="0px" y="0px" width="32px" height="32px" viewBox="0 0 32 32" style="enable-background:new 0 0 32 32;" xml:space="preserve">
<path d="M25,14c-2.42,0-5,1.31-5,5c0,3.19,3.6,4.35,6.25,4.76C25.7,23.97,25.2,24,25,24c0,0-14,0-17,0s-4-2-4-4  c0-1.88,1.76-3.75,1.98-3.98C5.67,16.17,2,18.12,2,21c0,5,5,5,5,5h18c1.73,0,5-1.04,5-5C30,17.74,29.43,14,25,14z M27.89,21.95  C25.64,21.77,22,21.05,22,19c0-2.48,1.63-3,3-3c1.58,0,3,0.38,3,5C28,21.36,27.96,21.67,27.89,21.95z M26,6l-2,2l2,2l2-2L26,6z"/>
</svg>
