<?xml version="1.0" encoding="utf-8"?>
<!-- Generator: Adobe Illustrator 16.0.0, SVG Export Plug-In . SVG Version: 6.00 Build 0)  -->
<!DOCTYPE svg PUBLIC "-//W3C//DTD SVG 1.1//EN" "http://www.w3.org/Graphics/SVG/1.1/DTD/svg11.dtd">
<svg xmlns="http://www.w3.org/2000/svg" xmlns:xlink="http://www.w3.org/1999/xlink" version="1.1" id="Capa_1" x="0px" y="0px" width="32px" height="32px" viewBox="0 0 32 32" style="enable-background:new 0 0 32 32;" xml:space="preserve">
<path d="M30,22c0,0,0,6-6,6H9c-3,0-6,3-6,3s0-7,8-7h9c0,0,2-2,2-8c0-4-4-4-4-4s0,0-4,0C1,12,8,2,8,2s-2,6,5,6h7c0,0,6,0,6,6v1  c0,4.45-1.59,8.11-1.93,8.86C25.79,23.66,28.24,23.17,30,22z"/>
</svg>
