<?xml version="1.0" encoding="utf-8"?>
<!-- Generator: Adobe Illustrator 16.0.0, SVG Export Plug-In . SVG Version: 6.00 Build 0)  -->
<!DOCTYPE svg PUBLIC "-//W3C//DTD SVG 1.1//EN" "http://www.w3.org/Graphics/SVG/1.1/DTD/svg11.dtd">
<svg xmlns="http://www.w3.org/2000/svg" xmlns:xlink="http://www.w3.org/1999/xlink" version="1.1" id="Capa_1" x="0px" y="0px" width="32px" height="32px" viewBox="0 0 32 32" style="enable-background:new 0 0 32 32;" xml:space="preserve">
<path d="M30,30v2h-1c-1.73,0-5-1.04-5-5c0-3.55-2.69-9-6-9h-2v14h-2V18h-2c-3.31,0-6,5.45-6,9c0,3.96-3.27,5-5,5H0v-2h1  c0.5-0.01,3-0.18,3-3c0-4.01,2.75-9.78,6.72-10.83C2.12,11.17,2,2.11,2,2h2c0,0.4,0.17,9.54,10,13.56V2h2v13.56  C25.83,11.54,26,2.4,26,2h2c0,0.11-0.12,9.17-8.72,14.17C23.25,17.22,26,22.99,26,27c0,2.82,2.5,2.99,3.01,3H30z"/>
</svg>
