<?xml version="1.0" encoding="utf-8"?>
<!-- Generator: Adobe Illustrator 16.0.0, SVG Export Plug-In . SVG Version: 6.00 Build 0)  -->
<!DOCTYPE svg PUBLIC "-//W3C//DTD SVG 1.1//EN" "http://www.w3.org/Graphics/SVG/1.1/DTD/svg11.dtd">
<svg xmlns="http://www.w3.org/2000/svg" xmlns:xlink="http://www.w3.org/1999/xlink" version="1.1" id="Capa_1" x="0px" y="0px" width="32px" height="32px" viewBox="0 0 32 32" style="enable-background:new 0 0 32 32;" xml:space="preserve">
<path d="M25.64,12.06C25.87,10.79,26,9.43,26,8h-2c0,1.07-0.08,2.09-0.22,3.07C21.32,10.03,19.05,10,19,10  c-0.46,0-2.6,0.04-5.07,0.57c0.01-0.48,0.02-0.94,0.03-1.38c0.01-0.42,0.02-0.82,0.03-1.2c9.58-0.25,13.55-4.12,13.72-4.28  L26.3,2.29c-0.04,0.04-3.609,3.43-12.21,3.69c0.35-2.3,1.72-4.4,1.74-4.43l-1.66-1.1c-0.08,0.12-1.76,2.66-2.1,5.54  c-6.53-0.14-8.36-1.7-8.38-1.72l-1.4,1.44c0.23,0.22,2.34,2.12,9.7,2.28c-0.01,0.37-0.02,0.75-0.03,1.15  c-0.01,0.62-0.03,1.27-0.03,1.96C9.7,11.81,7.49,13,6.18,14.98c-1.49,2.26-1.52,5.09-0.1,8.41c1.14,2.65,3.79,3.83,7.1,3.15  c0.4-0.08,0.81-0.2,1.23-0.35c0.47,1.119,1.05,2.239,1.74,3.34l1.7-1.061c-0.63-1.01-1.16-2.029-1.609-3.069  c3.55-1.841,7.27-5.66,8.899-11.25C26.73,15.47,28,17.59,28,21c0,8.82-5.76,9-6.01,9L22,32c0.08,0,8-0.13,8-11  C30,16.29,27.96,13.6,25.64,12.06z M12.77,24.58c-1.37,0.29-3.83,0.4-4.85-1.97c-1.14-2.67-1.17-4.86-0.07-6.53  c0.87-1.33,2.38-2.25,4.08-2.89c0.05,3.35,0.4,7.24,1.76,11.15C13.38,24.44,13.07,24.52,12.77,24.58z M15.53,23.54  c-1.3-3.82-1.58-7.67-1.6-10.94C15.78,12.16,17.65,12,19,12c0.18,0,2.26,0.02,4.38,1.04C22.04,18.27,18.72,21.83,15.53,23.54z"/>
</svg>
