<?xml version="1.0" encoding="utf-8"?>
<!-- Generator: Adobe Illustrator 16.0.0, SVG Export Plug-In . SVG Version: 6.00 Build 0)  -->
<!DOCTYPE svg PUBLIC "-//W3C//DTD SVG 1.1//EN" "http://www.w3.org/Graphics/SVG/1.1/DTD/svg11.dtd">
<svg xmlns="http://www.w3.org/2000/svg" xmlns:xlink="http://www.w3.org/1999/xlink" version="1.1" id="Capa_1" x="0px" y="0px" width="32px" height="32px" viewBox="0 0 32 32" style="enable-background:new 0 0 32 32;" xml:space="preserve">
<path d="M23,8c-3.35,0-5.29,2.3-7,4.82V4h12V2H2v2h12v6.25C11.21,8.03,7.21,8,7,8c-2.42,0-7,1.46-7,7s4.58,7,7,7  c3.17,0,5.32-1.32,7-3.09V30l2,2V16.4c0.33-0.47,0.65-0.94,0.96-1.41C18.73,12.31,20.26,10,23,10c4.82,0,5,4.49,5,5  c0,4.04-4.86,4.96-5.16,5.01h-0.01L23,21l0.16,0.99C25.53,21.59,30,19.62,30,15C30,12.58,28.54,8,23,8z M14,15.78  C12.3,18.13,10.37,20,7,20c-0.2,0-5-0.06-5-5c0-4.82,4.49-5,5-5c0.05,0,5.19,0.04,7,3.25V15.78z"/>
</svg>
