<?xml version="1.0" encoding="utf-8"?>
<!-- Generator: Adobe Illustrator 16.0.0, SVG Export Plug-In . SVG Version: 6.00 Build 0)  -->
<!DOCTYPE svg PUBLIC "-//W3C//DTD SVG 1.1//EN" "http://www.w3.org/Graphics/SVG/1.1/DTD/svg11.dtd">
<svg xmlns="http://www.w3.org/2000/svg" xmlns:xlink="http://www.w3.org/1999/xlink" version="1.1" id="Capa_1" x="0px" y="0px" width="32px" height="32px" viewBox="0 0 32 32" style="enable-background:new 0 0 32 32;" xml:space="preserve">
<path d="M29,2H3C0.8,2,0,3.79,0,5v27h32V5C32,2.8,30.21,2,29,2z M12,4h8v16h-8V4z M12,22h8v4h-8V22z M2,5.01C2.01,4.55,2.19,4,3,4h7  v16H2V5.01z M2,22h8v4H2V22z M30,30H2v-2h28V30z M30,26h-8v-4h8V26z M30,20h-8V4h6.99C29.45,4.01,30,4.19,30,5V20z"/>
</svg>
