<?xml version="1.0" encoding="utf-8"?>
<!-- Generator: Adobe Illustrator 16.0.0, SVG Export Plug-In . SVG Version: 6.00 Build 0)  -->
<!DOCTYPE svg PUBLIC "-//W3C//DTD SVG 1.1//EN" "http://www.w3.org/Graphics/SVG/1.1/DTD/svg11.dtd">
<svg xmlns="http://www.w3.org/2000/svg" xmlns:xlink="http://www.w3.org/1999/xlink" version="1.1" id="Capa_1" x="0px" y="0px" width="32px" height="32px" viewBox="0 0 32 32" style="enable-background:new 0 0 32 32;" xml:space="preserve">
<path d="M6,4c1.103,0,2,0.897,2,2S7.103,8,6,8S4,7.103,4,6S4.897,4,6,4 M6,2C3.791,2,2,3.791,2,6s1.791,4,4,4s4-1.791,4-4  S8.209,2,6,2z M30,8H12v2h18V8z M6,14c1.103,0,2,0.897,2,2c0,1.103-0.897,2-2,2s-2-0.897-2-2C4,14.897,4.897,14,6,14 M6,12  c-2.209,0-4,1.791-4,4s1.791,4,4,4s4-1.791,4-4S8.209,12,6,12z M30,18H12v2h18V18z M6,24c1.103,0,2,0.897,2,2s-0.897,2-2,2  s-2-0.897-2-2S4.897,24,6,24 M6,22c-2.209,0-4,1.791-4,4s1.791,4,4,4s4-1.791,4-4S8.209,22,6,22z M30,28H12v2h18V28z"/>
</svg>
