<?xml version="1.0" encoding="utf-8"?>
<!-- Generator: Adobe Illustrator 16.0.0, SVG Export Plug-In . SVG Version: 6.00 Build 0)  -->
<!DOCTYPE svg PUBLIC "-//W3C//DTD SVG 1.1//EN" "http://www.w3.org/Graphics/SVG/1.1/DTD/svg11.dtd">
<svg xmlns="http://www.w3.org/2000/svg" xmlns:xlink="http://www.w3.org/1999/xlink" version="1.1" id="Capa_1" x="0px" y="0px" width="32px" height="32px" viewBox="0 0 32 32" style="enable-background:new 0 0 32 32;" xml:space="preserve">
<g>
	<path d="M30,6v20H2V6H30 M32,4H0v24h32V4L32,4z"/>
</g>
<path d="M26,10v1c-0.83-0.63-1.87-1-3-1c-2.76,0-5,2.24-5,5s2.24,5,5,5c1.13,0,2.17-0.37,3-1v1h2V10H26z M23,18c-1.65,0-3-1.35-3-3  s1.35-3,3-3s3,1.35,3,3S24.65,18,23,18z M12.7,8H9.3L3.94,23h2.12l1.79-5h6.3l1.79,5h2.14L12.7,8z M8.56,16l2.14-6h0.6l2.14,6H8.56z  "/>
</svg>
