<?xml version="1.0" encoding="utf-8"?>
<!-- Generator: Adobe Illustrator 16.0.0, SVG Export Plug-In . SVG Version: 6.00 Build 0)  -->
<!DOCTYPE svg PUBLIC "-//W3C//DTD SVG 1.1//EN" "http://www.w3.org/Graphics/SVG/1.1/DTD/svg11.dtd">
<svg xmlns="http://www.w3.org/2000/svg" xmlns:xlink="http://www.w3.org/1999/xlink" version="1.1" id="Capa_1" x="0px" y="0px" width="32px" height="32px" viewBox="0 0 32 32" style="enable-background:new 0 0 32 32;" xml:space="preserve">
<path d="M0,4v24h32V4H0z M30,26H2V6h28V26z M16,10v2.11c-1.26-1.3-3.04-2.11-5-2.11c-3.87,0-7,3.13-7,7s3.13,7,7,7  c1.96,0,3.74-0.81,5-2.11V24h2V10H16z M11,22c-2.76,0-5-2.24-5-5s2.24-5,5-5s5,2.24,5,5S13.76,22,11,22z M24.96,10h-1.92l-3.1,12  h2.09l0.439-2h3.061l0.439,2h2.061L24.96,10z M22.91,18L24,13l1.09,5H22.91z"/>
</svg>
