<?xml version="1.0" encoding="utf-8"?>
<!-- Generator: Adobe Illustrator 16.0.0, SVG Export Plug-In . SVG Version: 6.00 Build 0)  -->
<!DOCTYPE svg PUBLIC "-//W3C//DTD SVG 1.1//EN" "http://www.w3.org/Graphics/SVG/1.1/DTD/svg11.dtd">
<svg xmlns="http://www.w3.org/2000/svg" xmlns:xlink="http://www.w3.org/1999/xlink" version="1.1" id="Capa_1" x="0px" y="0px" width="32px" height="32px" viewBox="0 0 32 32" style="enable-background:new 0 0 32 32;" xml:space="preserve">
<path d="M29.93,20.63l-4-10c-0.1-0.26-0.3-0.46-0.56-0.56l-10-4c-0.24-0.09-0.5-0.09-0.74,0l-10,4c-0.26,0.1-0.46,0.3-0.56,0.56  l-4,10c-0.18,0.46,0,0.99,0.43,1.24l14,8C14.66,29.96,14.83,30,15,30s0.34-0.04,0.5-0.13l14-8C29.93,21.62,30.11,21.09,29.93,20.63z   M14,27.28L2.25,20.56l3.31-8.26L14,15.68V27.28z M15,13.92L7.7,11L15,8.08L22.3,11L15,13.92z M16,27.28v-11.6l8.44-3.38l3.31,8.26  L16,27.28z M23.71,18.29l-2-2c-0.39-0.39-1.03-0.39-1.42,0s-0.39,1.03,0,1.42l1.02,1.021l-2.76,1.38  c-0.49,0.239-0.689,0.84-0.439,1.34C18.28,21.8,18.63,22,19,22c0.15,0,0.3-0.03,0.45-0.11l4-2c0.28-0.14,0.49-0.409,0.54-0.729  S23.93,18.52,23.71,18.29z M11.95,22.68l-2-6c-0.05-0.14-0.13-0.28-0.24-0.39l-2-2c-0.39-0.39-1.03-0.39-1.42,0s-0.39,1.03,0,1.42  l1.5,1.49l-1.68,3.35c-0.25,0.5-0.05,1.101,0.44,1.34C6.7,21.97,6.85,22,7,22c0.37,0,0.72-0.2,0.89-0.55L8.81,19.6l1.24,3.721  C10.19,23.74,10.58,24,11,24c0.1,0,0.21-0.02,0.32-0.05C11.84,23.77,12.12,23.21,11.95,22.68z"/>
</svg>
