<?xml version="1.0" encoding="utf-8"?>
<!-- Generator: Adobe Illustrator 16.0.0, SVG Export Plug-In . SVG Version: 6.00 Build 0)  -->
<!DOCTYPE svg PUBLIC "-//W3C//DTD SVG 1.1//EN" "http://www.w3.org/Graphics/SVG/1.1/DTD/svg11.dtd">
<svg xmlns="http://www.w3.org/2000/svg" xmlns:xlink="http://www.w3.org/1999/xlink" version="1.1" id="Capa_1" x="0px" y="0px" width="32px" height="32px" viewBox="0 0 32 32" style="enable-background:new 0 0 32 32;" xml:space="preserve">
<path d="M24,8v20H2V8H24 M26,6H0v24h26V6z M30,2H4v2h24v22h2V2z M17,12c4,0,4,4,3,6c-2,4-7,6-7,6s-5-2-7-6c-1-2-1-6,3-6s4,4,4,4  S13,12,17,12 M17,10c-1.752,0-3.06,0.57-4,1.407C12.06,10.57,10.752,10,9,10c-2.089,0-3.765,0.85-4.719,2.394  c-1.268,2.051-0.948,4.743-0.07,6.5c2.313,4.627,7.813,6.869,8.046,6.963L13,26.154l0.743-0.297  c0.233-0.094,5.733-2.336,8.046-6.963c0.879-1.758,1.198-4.45-0.069-6.5C20.766,10.85,19.089,10,17,10z"/>
</svg>
