<?xml version="1.0" encoding="utf-8"?>
<!-- Generator: Adobe Illustrator 16.0.0, SVG Export Plug-In . SVG Version: 6.00 Build 0)  -->
<!DOCTYPE svg PUBLIC "-//W3C//DTD SVG 1.1//EN" "http://www.w3.org/Graphics/SVG/1.1/DTD/svg11.dtd">
<svg xmlns="http://www.w3.org/2000/svg" xmlns:xlink="http://www.w3.org/1999/xlink" version="1.1" id="Capa_1" x="0px" y="0px" width="32px" height="32px" viewBox="0 0 32 32" style="enable-background:new 0 0 32 32;" xml:space="preserve">
<path d="M14,6H2V4h12V6z M30,4H18v2h12V4z M14,10H2v2h12V10z M30,10H18v2h12V10z M14,16H2v2h12V16z M30,16H18v2h12V16z M14,22H2v2  h12V22z M30,22H18v2h12V22z M14,28H2v2h12V28z M30,28H18v2h12V28z"/>
</svg>
