<?xml version="1.0" encoding="utf-8"?>
<!-- Generator: Adobe Illustrator 16.0.0, SVG Export Plug-In . SVG Version: 6.00 Build 0)  -->
<!DOCTYPE svg PUBLIC "-//W3C//DTD SVG 1.1//EN" "http://www.w3.org/Graphics/SVG/1.1/DTD/svg11.dtd">
<svg xmlns="http://www.w3.org/2000/svg" xmlns:xlink="http://www.w3.org/1999/xlink" version="1.1" id="Capa_1" x="0px" y="0px" width="32px" height="32px" viewBox="0 0 32 32" style="enable-background:new 0 0 32 32;" xml:space="preserve">
<path d="M32,8v24H0V18h2v12h28V10H18V8H32z M16,8h-4.58l3.29-3.29l-1.42-1.42L10,6.58V2H8v4.58L4.71,3.29L3.29,4.71L6.58,8H2v2h4.58  l-3.29,3.29l1.42,1.42L8,11.42V16h2v-4.58l3.29,3.29l1.42-1.42L11.42,10H16V8z M26,14h-8v2h8V14z M26,18H6v2h20V18z M26,22H6v2h20  V22z M26,26H6v2h20V26z"/>
</svg>
