<?xml version="1.0" encoding="utf-8"?>
<!-- Generator: Adobe Illustrator 16.0.0, SVG Export Plug-In . SVG Version: 6.00 Build 0)  -->
<!DOCTYPE svg PUBLIC "-//W3C//DTD SVG 1.1//EN" "http://www.w3.org/Graphics/SVG/1.1/DTD/svg11.dtd">
<svg xmlns="http://www.w3.org/2000/svg" xmlns:xlink="http://www.w3.org/1999/xlink" version="1.1" id="Capa_1" x="0px" y="0px" width="32px" height="32px" viewBox="0 0 32 32" style="enable-background:new 0 0 32 32;" xml:space="preserve">
<path d="M18.6,19.18C19.49,18.01,20,16.57,20,15c0-3.87-3.13-7-7-7s-7,3.13-7,7s3.13,7,7,7c1.57,0,3.01-0.51,4.18-1.4l5.11,5.11  l1.42-1.42L18.6,19.18z M13,20c-2.76,0-5-2.24-5-5s2.24-5,5-5s5,2.24,5,5S15.76,20,13,20z M15,0H3C0.8,0,0,1.79,0,3v16  c0,2.2,1.79,3,3,3h3v-2H3.01C2.55,19.99,2,19.81,2,19V3.01C2.01,2.55,2.19,2,3,2h11.99C15.45,2.01,16,2.19,16,3v3h2V3  C18,0.8,16.21,0,15,0z M29,10h-7v2h7c0.81,0,0.99,0.55,1,1v16c0,0.81-0.55,0.99-1,1H17.01C16.55,29.99,16,29.81,16,29v-5h-2v5  c0,2.2,1.79,3,3,3h12c1.21,0,3-0.8,3-3V13C32,11.79,31.2,10,29,10z"/>
</svg>
