<?xml version="1.0" encoding="utf-8"?>
<!-- Generator: Adobe Illustrator 16.0.0, SVG Export Plug-In . SVG Version: 6.00 Build 0)  -->
<!DOCTYPE svg PUBLIC "-//W3C//DTD SVG 1.1//EN" "http://www.w3.org/Graphics/SVG/1.1/DTD/svg11.dtd">
<svg xmlns="http://www.w3.org/2000/svg" xmlns:xlink="http://www.w3.org/1999/xlink" version="1.1" id="Capa_1" x="0px" y="0px" width="32px" height="32px" viewBox="0 0 32 32" style="enable-background:new 0 0 32 32;" xml:space="preserve">
<path d="M30,12v18H16V12H30z M30,10H16c-1.104,0-2,0.896-2,2v18c0,1.104,0.896,2,2,2h14c1.104,0,2-0.896,2-2V12  C32,10.896,31.104,10,30,10z M0,0v18h12v-2H8v-4h4v-2H8V6h4v2h2V6h4v2h2V0H0z M6,16H2v-4h4V16z M6,10H2V6h4V10z M18,4H2V2h16V4z   M28,14H18v2h10V14z M28,18H18v2h10V18z M28,22H18v2h10V22z M28,26H18v2h10V26z"/>
</svg>
