<?xml version="1.0" encoding="utf-8"?>
<!-- Generator: Adobe Illustrator 16.0.0, SVG Export Plug-In . SVG Version: 6.00 Build 0)  -->
<!DOCTYPE svg PUBLIC "-//W3C//DTD SVG 1.1//EN" "http://www.w3.org/Graphics/SVG/1.1/DTD/svg11.dtd">
<svg xmlns="http://www.w3.org/2000/svg" xmlns:xlink="http://www.w3.org/1999/xlink" version="1.1" id="Capa_1" x="0px" y="0px" width="32px" height="32px" viewBox="0 0 32 32" style="enable-background:new 0 0 32 32;" xml:space="preserve">
<path d="M22,4H4C2,4,2,6,2,6v24c0,2,2,2,2,2h18c2,0,2-2,2-2V6C24,4,22,4,22,4z M22,29.96L21.99,30H4.04L4,29.99V6.04L4.01,6h17.95  L22,6.01V29.96z M6,12v2h14v-2H6z M8,8v2h10V8H8z M6,26v2h14v-2H6z M27,0H6v2h20v26h2V1C28,0.45,27.55,0,27,0z"/>
</svg>
