<?xml version="1.0" encoding="utf-8"?>
<!-- Generator: Adobe Illustrator 16.0.0, SVG Export Plug-In . SVG Version: 6.00 Build 0)  -->
<!DOCTYPE svg PUBLIC "-//W3C//DTD SVG 1.1//EN" "http://www.w3.org/Graphics/SVG/1.1/DTD/svg11.dtd">
<svg xmlns="http://www.w3.org/2000/svg" xmlns:xlink="http://www.w3.org/1999/xlink" version="1.1" id="Capa_1" x="0px" y="0px" width="32px" height="32px" viewBox="0 0 32 32" style="enable-background:new 0 0 32 32;" xml:space="preserve">
<path d="M24,24h2v8H0v-6h2v4h22V24z M0,8h2V4h22v6h2V2H0V8z M0,10h14v2h18v10H14v2H0V10z M14,14v6h16v-6H14z M2,12v10h10V12H2z   M5.71,14.29l-1.42,1.42L5.58,17l-1.29,1.29l1.42,1.42L7,18.42l1.29,1.29l1.42-1.42L8.42,17l1.29-1.29l-1.42-1.42L7,15.58  L5.71,14.29z"/>
</svg>
