<?xml version="1.0" encoding="utf-8"?>
<!-- Generator: Adobe Illustrator 16.0.0, SVG Export Plug-In . SVG Version: 6.00 Build 0)  -->
<!DOCTYPE svg PUBLIC "-//W3C//DTD SVG 1.1//EN" "http://www.w3.org/Graphics/SVG/1.1/DTD/svg11.dtd">
<svg xmlns="http://www.w3.org/2000/svg" xmlns:xlink="http://www.w3.org/1999/xlink" version="1.1" id="Capa_1" x="0px" y="0px" width="32px" height="32px" viewBox="0 0 32 32" style="enable-background:new 0 0 32 32;" xml:space="preserve">
<path d="M25.41,12H20V6.59L13.41,0H3C0.8,0,0,1.79,0,3v18c0,2.2,1.79,3,3,3h5v5c0,1.21,0.8,3,3,3h18c1.21,0,3-0.8,3-3V18.59  L25.41,12z M12,2h0.59L18,7.41V8h-5c-0.81,0-0.99-0.55-1-1V2z M8,15v7H3.01C2.55,21.99,2,21.81,2,21V3.01C2.01,2.55,2.19,2,3,2h7v5  c0,1.21,0.8,3,3,3h5v2h-7C9.79,12,8,12.8,8,15z M30,29c0,0.8-0.55,0.99-1.01,1H11c-0.81,0-0.99-0.55-1-1V15c0-0.81,0.55-0.99,1-1h11  v5c0,2.2,1.79,3,3,3h5V29z M30,20h-4.99C24.55,19.99,24,19.81,24,19v-5h0.59L30,19.41V20z"/>
</svg>
