<?xml version="1.0" encoding="utf-8"?>
<!-- Generator: Adobe Illustrator 16.0.0, SVG Export Plug-In . SVG Version: 6.00 Build 0)  -->
<!DOCTYPE svg PUBLIC "-//W3C//DTD SVG 1.1//EN" "http://www.w3.org/Graphics/SVG/1.1/DTD/svg11.dtd">
<svg xmlns="http://www.w3.org/2000/svg" xmlns:xlink="http://www.w3.org/1999/xlink" version="1.1" id="Capa_1" x="0px" y="0px" width="32px" height="32px" viewBox="0 0 32 32" style="enable-background:new 0 0 32 32;" xml:space="preserve">
<path d="M25,4H2c0,0-2,0-2,2v20c0,0,0,2,2,2h28c0,0,2,0,2-2V11L25,4z M22,6v5c0,2.2,1.79,3,3,3h5v11.99L29.96,26H2.01L2,25.96V6.01  L2.04,6H22z M24.17,6L30,11.83V12h-5c-0.45-0.01-1-0.19-1-1V6H24.17z M20,12H4v2h16V12z M28,16H4v2h24V16z M28,20H4v2h24V20z"/>
</svg>
