<?xml version="1.0" encoding="utf-8"?>
<!-- Generator: Adobe Illustrator 16.0.0, SVG Export Plug-In . SVG Version: 6.00 Build 0)  -->
<!DOCTYPE svg PUBLIC "-//W3C//DTD SVG 1.1//EN" "http://www.w3.org/Graphics/SVG/1.1/DTD/svg11.dtd">
<svg xmlns="http://www.w3.org/2000/svg" xmlns:xlink="http://www.w3.org/1999/xlink" version="1.1" id="Capa_1" x="0px" y="0px" width="32px" height="32px" viewBox="0 0 32 32" style="enable-background:new 0 0 32 32;" xml:space="preserve">
<path d="M32,10V0H0v32h17c0.27,0,0.52-0.11,0.71-0.29l11.04-11.04c1.19-1.35,2.72-4.61-0.04-7.38c-1.03-1.03-2.22-1.55-3.52-1.55  c-2.141,0-3.79,1.45-3.9,1.55l-11,11C10.11,24.48,10,24.73,10,25v5H2V2h28v8H32z M22.67,14.75c0.01-0.01,1.16-1.01,2.521-1.01  c0.77,0,1.449,0.32,2.1,0.97c2.08,2.08,0.18,4.37,0,4.58L26,20.58L21.42,16L22.67,14.75z M20,17.42L24.58,22L18,28.58L13.42,24  L20,17.42z M12,25.42L16.58,30H12V25.42z M4,4v24h4v-2H6V6h20v4h2V4H4z"/>
</svg>
