<?xml version="1.0" encoding="utf-8"?>
<!-- Generator: Adobe Illustrator 16.0.0, SVG Export Plug-In . SVG Version: 6.00 Build 0)  -->
<!DOCTYPE svg PUBLIC "-//W3C//DTD SVG 1.1//EN" "http://www.w3.org/Graphics/SVG/1.1/DTD/svg11.dtd">
<svg xmlns="http://www.w3.org/2000/svg" xmlns:xlink="http://www.w3.org/1999/xlink" version="1.1" id="Capa_1" x="0px" y="0px" width="32px" height="32px" viewBox="0 0 32 32" style="enable-background:new 0 0 32 32;" xml:space="preserve">
<path d="M28.71,13.29c-0.81-0.81-1.72-1.31-2.71-1.47V7l-7-7H4C2,0,2,2,2,2v28c0,2,2,2,2,2h13c0.27,0,0.52-0.11,0.71-0.29  l11.04-11.04C29.94,19.32,31.47,16.06,28.71,13.29z M18,2h0.17L24,7.83V8h-5c-0.81,0-0.99-0.55-1-1V2z M10,25v5H4.04L4,29.99V2.04  L4.01,2H16v5c0,1.21,0.8,3,3,3h5v1.88c-1.53,0.37-2.62,1.33-2.71,1.41l-11,11C10.11,24.48,10,24.73,10,25z M12,30v-4.58L16.58,30H12  z M18,28.58L13.42,24L20,17.42L24.58,22L18,28.58z M27.29,19.29L26,20.58L21.42,16l1.25-1.25c0.01-0.01,1.16-1.01,2.521-1.01  c0.77,0,1.449,0.32,2.1,0.97C29.37,16.79,27.47,19.08,27.29,19.29z"/>
</svg>
