<?xml version="1.0" encoding="utf-8"?>
<!-- Generator: Adobe Illustrator 16.0.0, SVG Export Plug-In . SVG Version: 6.00 Build 0)  -->
<!DOCTYPE svg PUBLIC "-//W3C//DTD SVG 1.1//EN" "http://www.w3.org/Graphics/SVG/1.1/DTD/svg11.dtd">
<svg xmlns="http://www.w3.org/2000/svg" xmlns:xlink="http://www.w3.org/1999/xlink" version="1.1" id="Capa_1" x="0px" y="0px" width="32px" height="32px" viewBox="0 0 32 32" style="enable-background:new 0 0 32 32;" xml:space="preserve">
<path d="M30,4H2C0.9,4,0,4.9,0,6v20c0,1.1,0.9,2,2,2h28c1.1,0,2-0.9,2-2V6C32,4.9,31.1,4,30,4z M30,26H2V6h28V26z M18,8v6h10V8H18z   M26,12h-6v-2h6V12z M4,8v2h6V8H4z M4,12v2h6v-2H4z M8,18v2h16v-2H8z M6,22v2h20v-2H6z"/>
</svg>
