<?xml version="1.0" encoding="utf-8"?>
<!-- Generator: Adobe Illustrator 16.0.0, SVG Export Plug-In . SVG Version: 6.00 Build 0)  -->
<!DOCTYPE svg PUBLIC "-//W3C//DTD SVG 1.1//EN" "http://www.w3.org/Graphics/SVG/1.1/DTD/svg11.dtd">
<svg xmlns="http://www.w3.org/2000/svg" xmlns:xlink="http://www.w3.org/1999/xlink" version="1.1" id="Capa_1" x="0px" y="0px" width="32px" height="32px" viewBox="0 0 32 32" style="enable-background:new 0 0 32 32;" xml:space="preserve">
<path d="M30,23c0,1.73-1.04,5-5,5s-5-3.27-5-5V8H10v13c0,2.36-0.72,4.17-2.14,5.4C6.24,27.81,4.12,28.05,2.88,28.05  c-0.59,0-0.97-0.05-1.02-0.06l0.28-1.98c0.03,0,2.73,0.351,4.42-1.12C7.52,24.05,8,22.74,8,21V8H4V6h22v2h-4v15c0.01,0.5,0.18,3,3,3  s2.99-2.5,3-3.01L30,23z"/>
</svg>
