<?xml version="1.0" encoding="utf-8"?>
<!-- Generator: Adobe Illustrator 16.0.0, SVG Export Plug-In . SVG Version: 6.00 Build 0)  -->
<!DOCTYPE svg PUBLIC "-//W3C//DTD SVG 1.1//EN" "http://www.w3.org/Graphics/SVG/1.1/DTD/svg11.dtd">
<svg xmlns="http://www.w3.org/2000/svg" xmlns:xlink="http://www.w3.org/1999/xlink" version="1.1" id="Capa_1" x="0px" y="0px" width="32px" height="32px" viewBox="0 0 32 32" style="enable-background:new 0 0 32 32;" xml:space="preserve">
<path d="M24,14V7l-7-7H2C0,0,0,2,0,2v28c0,2,2,2,2,2h20c2,0,2-2,2-2V20h-2v9.96L21.99,30H2.04L2,29.99V2.04L2.01,2H14v5  c0,1.21,0.8,3,3,3h5v4H24z M17,8c-0.81,0-0.99-0.55-1-1V2h0.17L22,7.83V8H17z M27.71,12.29l-1.42,1.42l2.3,2.29H18v-2h-2v6h2v-2  h10.59l-2.3,2.29l1.42,1.42L32,17l0,0L27.71,12.29z"/>
</svg>
