<?xml version="1.0" encoding="utf-8"?>
<!-- Generator: Adobe Illustrator 16.0.0, SVG Export Plug-In . SVG Version: 6.00 Build 0)  -->
<!DOCTYPE svg PUBLIC "-//W3C//DTD SVG 1.1//EN" "http://www.w3.org/Graphics/SVG/1.1/DTD/svg11.dtd">
<svg xmlns="http://www.w3.org/2000/svg" xmlns:xlink="http://www.w3.org/1999/xlink" version="1.1" id="Capa_1" x="0px" y="0px" width="32px" height="32px" viewBox="0 0 32 32" style="enable-background:new 0 0 32 32;" xml:space="preserve">
<path d="M21.45,20.04C23.04,18.13,24,15.67,24,13c0-6.06-4.94-11-11-11C6.94,2,2,6.94,2,13c0,6.06,4.94,11,11,11  c2.67,0,5.13-0.96,7.04-2.55l7.25,7.26l1.42-1.42L21.45,20.04z M13,22c-4.96,0-9-4.04-9-9s4.04-9,9-9s9,4.04,9,9S17.96,22,13,22z   M15.707,16.293L12.414,13l3.293-3.293l-1.414-1.414L9.586,13l4.707,4.707L15.707,16.293z"/>
</svg>
