<?xml version="1.0" encoding="utf-8"?>
<!-- Generator: Adobe Illustrator 16.0.0, SVG Export Plug-In . SVG Version: 6.00 Build 0)  -->
<!DOCTYPE svg PUBLIC "-//W3C//DTD SVG 1.1//EN" "http://www.w3.org/Graphics/SVG/1.1/DTD/svg11.dtd">
<svg xmlns="http://www.w3.org/2000/svg" xmlns:xlink="http://www.w3.org/1999/xlink" version="1.1" id="Capa_1" x="0px" y="0px" width="32px" height="32px" viewBox="0 0 32 32" style="enable-background:new 0 0 32 32;" xml:space="preserve">
<path d="M28.71,27.29l-1.42,1.42l-7.25-7.26C18.13,23.04,15.67,24,13,24C6.94,24,2,19.06,2,13C2,6.94,6.94,2,13,2  c5.02,0,9.27,3.39,10.58,8h-2.1C20.25,6.51,16.91,4,13,4c-4.96,0-9,4.04-9,9s4.04,9,9,9c3.91,0,7.25-2.51,8.48-6h2.1  c-0.42,1.5-1.16,2.87-2.13,4.04L28.71,27.29z M24,12H11.41l2.3-2.29l-1.42-1.42L7.59,13l4.7,4.71l1.42-1.42L11.41,14H24V12z"/>
</svg>
