<?xml version="1.0" encoding="utf-8"?>
<!-- Generator: Adobe Illustrator 16.0.0, SVG Export Plug-In . SVG Version: 6.00 Build 0)  -->
<!DOCTYPE svg PUBLIC "-//W3C//DTD SVG 1.1//EN" "http://www.w3.org/Graphics/SVG/1.1/DTD/svg11.dtd">
<svg xmlns="http://www.w3.org/2000/svg" xmlns:xlink="http://www.w3.org/1999/xlink" version="1.1" id="Capa_1" x="0px" y="0px" width="32px" height="32px" viewBox="0 0 32 32" style="enable-background:new 0 0 32 32;" xml:space="preserve">
<path d="M28.71,27.29l-1.42,1.42l-7.25-7.26C18.13,23.04,15.67,24,13,24c-5.02,0-9.27-3.39-10.58-8h2.1c1.23,3.49,4.57,6,8.48,6  c4.96,0,9-4.04,9-9s-4.04-9-9-9c-3.91,0-7.25,2.51-8.48,6h-2.1C3.73,5.39,7.98,2,13,2c6.06,0,11,4.94,11,11  c0,2.67-0.96,5.13-2.55,7.04L28.71,27.29z M13.71,8.29l-1.42,1.42l2.3,2.29H2v2h12.59l-2.3,2.29l1.42,1.42l4.7-4.71L13.71,8.29z"/>
</svg>
