<?xml version="1.0" encoding="utf-8"?>
<!-- Generator: Adobe Illustrator 16.0.0, SVG Export Plug-In . SVG Version: 6.00 Build 0)  -->
<!DOCTYPE svg PUBLIC "-//W3C//DTD SVG 1.1//EN" "http://www.w3.org/Graphics/SVG/1.1/DTD/svg11.dtd">
<svg xmlns="http://www.w3.org/2000/svg" xmlns:xlink="http://www.w3.org/1999/xlink" version="1.1" id="Capa_1" x="0px" y="0px" width="32px" height="32px" viewBox="0 0 32 32" style="enable-background:new 0 0 32 32;" xml:space="preserve">
<path d="M25,16H7c-3.87,0-7,3.13-7,7s3.13,7,7,7c2.8,0,5.2-1.63,6.32-4h5.36c1.12,2.37,3.521,4,6.32,4c3.87,0,7-3.13,7-7  S28.87,16,25,16z M7,28c-2.76,0-5-2.24-5-5s2.24-5,5-5s5,2.24,5,5S9.76,28,7,28z M18.08,24h-4.16c0.06-0.32,0.08-0.66,0.08-1  s-0.02-0.68-0.08-1h4.16C18.02,22.32,18,22.66,18,23S18.02,23.68,18.08,24z M18.68,20h-5.36c-0.35-0.75-0.84-1.43-1.43-2h8.22  C19.52,18.57,19.03,19.25,18.68,20z M25,28c-2.76,0-5-2.24-5-5s2.24-5,5-5s5,2.24,5,5S27.76,28,25,28z M23.71,0.29l-1.42,1.42  L26.59,6H2v2h24.59l-4.3,4.29l1.42,1.42L30.41,7L23.71,0.29z"/>
</svg>
