<?xml version="1.0" encoding="utf-8"?>
<!-- Generator: Adobe Illustrator 16.0.0, SVG Export Plug-In . SVG Version: 6.00 Build 0)  -->
<!DOCTYPE svg PUBLIC "-//W3C//DTD SVG 1.1//EN" "http://www.w3.org/Graphics/SVG/1.1/DTD/svg11.dtd">
<svg xmlns="http://www.w3.org/2000/svg" xmlns:xlink="http://www.w3.org/1999/xlink" version="1.1" id="Capa_1" x="0px" y="0px" width="32px" height="32px" viewBox="0 0 32 32" style="enable-background:new 0 0 32 32;" xml:space="preserve">
<path d="M21,0H6C4,0,4,2,4,2v28c0,2,2,2,2,2h20c2,0,2-2,2-2V7L21,0z M26,29.96L25.99,30H6.04L6,29.99V2.04L6.01,2H18v5  c0,1.21,0.8,3,3,3h5V29.96z M26,8h-5c-0.81,0-0.99-0.55-1-1V2h0.17L26,7.83V8z M20.1,21.78C21.29,20.53,22,18.85,22,17  c0-3.87-3.13-7-7-7s-7,3.13-7,7s3.13,7,7,7c1.3,0,2.51-0.35,3.55-0.97l3.67,4.59l1.561-1.24L20.1,21.78z M10,17c0-2.76,2.24-5,5-5  s5,2.24,5,5s-2.24,5-5,5S10,19.76,10,17z"/>
</svg>
