<?xml version="1.0" encoding="utf-8"?>
<!-- Generator: Adobe Illustrator 16.0.0, SVG Export Plug-In . SVG Version: 6.00 Build 0)  -->
<!DOCTYPE svg PUBLIC "-//W3C//DTD SVG 1.1//EN" "http://www.w3.org/Graphics/SVG/1.1/DTD/svg11.dtd">
<svg xmlns="http://www.w3.org/2000/svg" xmlns:xlink="http://www.w3.org/1999/xlink" version="1.1" id="Capa_1" x="0px" y="0px" width="32px" height="32px" viewBox="0 0 32 32" style="enable-background:new 0 0 32 32;" xml:space="preserve">
<path d="M30,26v2H0v-2H30z M22,17c0-3.721-3.551-4.904-6.684-5.949C12.008,9.949,10,9.126,10,7c0-4.824,4.492-4.996,5-5  c4.824,0,4.996,4.492,5,5.003V7h2c0-2.421-1.463-7-7-7c-2.421,0-7,1.463-7,7c0,3.721,3.551,4.904,6.684,5.949  C17.991,14.051,20,14.874,20,17c0,4.824-4.492,4.996-5,5c-0.204,0-5-0.057-5-5H8c0,5.537,4.579,7,7,7C17.421,24,22,22.537,22,17z"/>
</svg>
