<?xml version="1.0" encoding="utf-8"?>
<!-- Generator: Adobe Illustrator 16.0.0, SVG Export Plug-In . SVG Version: 6.00 Build 0)  -->
<!DOCTYPE svg PUBLIC "-//W3C//DTD SVG 1.1//EN" "http://www.w3.org/Graphics/SVG/1.1/DTD/svg11.dtd">
<svg xmlns="http://www.w3.org/2000/svg" xmlns:xlink="http://www.w3.org/1999/xlink" version="1.1" id="Capa_1" x="0px" y="0px" width="32px" height="32px" viewBox="0 0 32 32" style="enable-background:new 0 0 32 32;" xml:space="preserve">
<path d="M22.55,15.08C23.41,13.89,24,12.24,24,10c0-6.56-5.05-8-7-8H6v28h13c1.95,0,7-1.44,7-8C26,18.24,24.34,16.16,22.55,15.08z   M10,6h6.97C17.68,6.02,20,6.37,20,10s-2.32,3.98-3,4h-7V6z M19,26h-9v-8h8.97c0.71,0.02,3.03,0.37,3.03,4S19.68,25.98,19,26z"/>
</svg>
