<?xml version="1.0" encoding="utf-8"?>
<!-- Generator: Adobe Illustrator 16.0.0, SVG Export Plug-In . SVG Version: 6.00 Build 0)  -->
<!DOCTYPE svg PUBLIC "-//W3C//DTD SVG 1.1//EN" "http://www.w3.org/Graphics/SVG/1.1/DTD/svg11.dtd">
<svg xmlns="http://www.w3.org/2000/svg" xmlns:xlink="http://www.w3.org/1999/xlink" version="1.1" id="Capa_1" x="0px" y="0px" width="32px" height="32px" viewBox="0 0 32 32" style="enable-background:new 0 0 32 32;" xml:space="preserve">
<path d="M28,18h-8.44c2.46,1.35,4.44,3.05,4.44,6c0,6.33-5.23,8-8,8c-0.08,0-8-0.1-8-9v-1h2v1c0,6.92,5.75,7,6,7c0.61,0,6-0.21,6-6  c0-2.74-2.81-4.05-6.07-5.56C15.62,18.3,15.3,18.15,14.99,18H4v-2h7.4C9.45,14.62,8,12.8,8,10c0-6.33,5.23-8,8-8c0.08,0,8,0.1,8,9v1  h-2v-1c0-6.92-5.75-7-6-7c-0.61,0-6,0.21-6,6c0,3.04,2.5,4.59,5.44,6H28V18z"/>
</svg>
