<?xml version="1.0" encoding="utf-8"?>
<!-- Generator: Adobe Illustrator 16.0.0, SVG Export Plug-In . SVG Version: 6.00 Build 0)  -->
<!DOCTYPE svg PUBLIC "-//W3C//DTD SVG 1.1//EN" "http://www.w3.org/Graphics/SVG/1.1/DTD/svg11.dtd">
<svg xmlns="http://www.w3.org/2000/svg" xmlns:xlink="http://www.w3.org/1999/xlink" version="1.1" id="Capa_1" x="0px" y="0px" width="32px" height="32px" viewBox="0 0 32 32" style="enable-background:new 0 0 32 32;" xml:space="preserve">
<path d="M32,28v-2H19.42l3.33-3.33c0.82-0.92,1.48-2.85-0.04-4.38l-2.02-2.02l6.76-3.38l0.09-0.05c1.65-1.07,2.52-2.36,2.59-3.84  c0.14-2.62-2.39-4.69-2.479-4.76c-0.17-0.15-1.73-1.43-3.631-1.43c-1.14,0-2.75,0.47-3.909,2.74l-3.38,6.76l-2.06-2.06  c-0.11-0.09-1.03-0.88-2.26-0.88c-0.78,0-1.51,0.32-2.12,0.92l-8.04,8.04c-0.82,0.92-1.48,2.85,0.04,4.38L11.58,32  c0.1,0.09-0.15,0,1.09,0H32v-2H15.42l2-2H32z M21.89,6.46c0.851-1.65,1.811-1.65,2.13-1.65c1.181,0,2.32,0.94,2.351,0.97  c0.52,0.42,1.84,1.8,1.77,3.12c-0.05,0.79-0.6,1.54-1.64,2.23l-7.3,3.65l-0.98-0.98L21.89,6.46z M11.71,11.71  c0.3-0.3,0.54-0.34,0.7-0.34c0.4,0,0.81,0.28,0.88,0.34l8,8c0.66,0.66,0.19,1.36,0,1.58L19,23.58L9.42,14L11.71,11.71z M13.29,29.29  c-0.3,0.3-0.54,0.34-0.7,0.34c-0.4,0-0.81-0.28-0.88-0.34l-8-8c-0.66-0.66-0.19-1.36,0-1.58L8,15.42L17.58,25L13.29,29.29z M5.93,0  H4.07L0.31,10h2.17l0.8-2h3.44l0.8,2h2.17L5.93,0z M4.08,6L5,3l0.92,3H4.08z"/>
</svg>
