<?xml version="1.0" encoding="utf-8"?>
<!-- Generator: Adobe Illustrator 16.0.0, SVG Export Plug-In . SVG Version: 6.00 Build 0)  -->
<!DOCTYPE svg PUBLIC "-//W3C//DTD SVG 1.1//EN" "http://www.w3.org/Graphics/SVG/1.1/DTD/svg11.dtd">
<svg xmlns="http://www.w3.org/2000/svg" xmlns:xlink="http://www.w3.org/1999/xlink" version="1.1" id="Capa_1" x="0px" y="0px" width="32px" height="32px" viewBox="0 0 32 32" style="enable-background:new 0 0 32 32;" xml:space="preserve">
<path d="M0,4v22h30V4H0z M14,24H2V6h12V24z M28,24H16V6h12V24z M12,10H4v2h8V10z M12,14H4v2h8V14z M12,18H4v2h8V18z M26,10h-8v2h8  V10z M26,14h-8v2h8V14z M26,18h-8v2h8V18z M30,28H0v2h30V28z"/>
</svg>
