<?xml version="1.0" encoding="utf-8"?>
<!-- Generator: Adobe Illustrator 16.0.0, SVG Export Plug-In . SVG Version: 6.00 Build 0)  -->
<!DOCTYPE svg PUBLIC "-//W3C//DTD SVG 1.1//EN" "http://www.w3.org/Graphics/SVG/1.1/DTD/svg11.dtd">
<svg xmlns="http://www.w3.org/2000/svg" xmlns:xlink="http://www.w3.org/1999/xlink" version="1.1" id="Capa_1" x="0px" y="0px" width="32px" height="32px" viewBox="0 0 32 32" style="enable-background:new 0 0 32 32;" xml:space="preserve">
<path d="M4,0v32h24V0H4z M20.58,2l-4,4h-5.16l4-4H20.58z M6,2h6.58l-4,4H6V2z M6,30v-4h6.58l-4,4H6z M11.42,30l4-4h5.16l-4,4H11.42z   M26,30h-6.58l4-4H26V30z M26,24H6V8h20V24z M26,6h-6.58l4-4H26V6z"/>
</svg>
