<?xml version="1.0" encoding="utf-8"?>
<!-- Generator: Adobe Illustrator 16.0.0, SVG Export Plug-In . SVG Version: 6.00 Build 0)  -->
<!DOCTYPE svg PUBLIC "-//W3C//DTD SVG 1.1//EN" "http://www.w3.org/Graphics/SVG/1.1/DTD/svg11.dtd">
<svg xmlns="http://www.w3.org/2000/svg" xmlns:xlink="http://www.w3.org/1999/xlink" version="1.1" id="Capa_1" x="0px" y="0px" width="32px" height="32px" viewBox="0 0 32 32" style="enable-background:new 0 0 32 32;" xml:space="preserve">
<path d="M32,32H4v-2h28V32z M32,26H14v2h18V26z M31.71,15.71l-6,6C25.51,21.9,25.26,22,25,22s-0.51-0.1-0.71-0.29L23,20.42  l-3.29,3.29C19.52,23.89,19.27,24,19,24h-5.58l-3.71,3.71C9.52,27.89,9.27,28,9,28H1c-0.36,0-0.69-0.19-0.87-0.51  c-0.18-0.311-0.17-0.7,0.01-1L6,16.72V11c0-0.27,0.11-0.52,0.29-0.71L9.58,7L8.29,5.71c-0.39-0.39-0.39-1.03,0-1.42l4-4l1.42,1.42  L10.41,5L25,19.59l5.29-5.3L31.71,15.71z M11.59,23L7.2,18.61L2.77,26h5.82L11.59,23z M21.59,19L11,8.42l-3,2.99v5.17L13.42,22h5.17  l3-2.99V19z"/>
</svg>
