<?xml version="1.0" encoding="utf-8"?>
<!-- Generator: Adobe Illustrator 16.0.0, SVG Export Plug-In . SVG Version: 6.00 Build 0)  -->
<!DOCTYPE svg PUBLIC "-//W3C//DTD SVG 1.1//EN" "http://www.w3.org/Graphics/SVG/1.1/DTD/svg11.dtd">
<svg xmlns="http://www.w3.org/2000/svg" xmlns:xlink="http://www.w3.org/1999/xlink" version="1.1" id="Capa_1" x="0px" y="0px" width="32px" height="32px" viewBox="0 0 32 32" style="enable-background:new 0 0 32 32;" xml:space="preserve">
<path d="M12,28h8l-4,4L12,28z M17.29,15.29l-3.96,3.96c-0.1,0.09-2.49,2.18-4.62,0.04c-2.08-2.08-0.18-4.37,0-4.58l4-4l-1.42-1.42  l-4.04,4.04c-1.19,1.35-2.72,4.61,0.04,7.38c1.15,1.14,2.37,1.55,3.52,1.55c1.63,0,3.09-0.83,3.9-1.55l4-4L17.29,15.29z M24.71,3.29  c-2.77-2.76-6.03-1.23-7.42,0l-4,4l1.42,1.42l3.96-3.96c0.1-0.09,2.49-2.18,4.62-0.04c2.08,2.08,0.18,4.37,0,4.58l-4,4l1.42,1.42  l4.04-4.04C25.94,9.32,27.47,6.06,24.71,3.29z M19.29,7.29l-8,8l1.42,1.42l8-8L19.29,7.29z"/>
</svg>
