<?xml version="1.0" encoding="utf-8"?>
<!-- Generator: Adobe Illustrator 16.0.0, SVG Export Plug-In . SVG Version: 6.00 Build 0)  -->
<!DOCTYPE svg PUBLIC "-//W3C//DTD SVG 1.1//EN" "http://www.w3.org/Graphics/SVG/1.1/DTD/svg11.dtd">
<svg xmlns="http://www.w3.org/2000/svg" xmlns:xlink="http://www.w3.org/1999/xlink" version="1.1" id="Capa_1" x="0px" y="0px" width="32px" height="32px" viewBox="0 0 32 32" style="enable-background:new 0 0 32 32;" xml:space="preserve">
<path d="M12,28h8l-4,4L12,28z M20,21.9c2.35-0.4,8-2.24,8-10.9c0-8.7-7.85-11-12-11C11.85,0,4,2.3,4,11c0,8.66,5.65,10.5,8,10.9V24  H4v2h10v-6h-1c-0.29,0-7-0.1-7-9c0-8.87,9.59-9,10-9s10,0.1,10,9c0,8.84-6.72,9-7,9h-1v6h10v-2h-8V21.9z"/>
</svg>
