<?xml version="1.0" encoding="utf-8"?>
<!-- Generator: Adobe Illustrator 16.0.0, SVG Export Plug-In . SVG Version: 6.00 Build 0)  -->
<!DOCTYPE svg PUBLIC "-//W3C//DTD SVG 1.1//EN" "http://www.w3.org/Graphics/SVG/1.1/DTD/svg11.dtd">
<svg xmlns="http://www.w3.org/2000/svg" xmlns:xlink="http://www.w3.org/1999/xlink" version="1.1" id="Capa_1" x="0px" y="0px" width="32px" height="32px" viewBox="0 0 32 32" style="enable-background:new 0 0 32 32;" xml:space="preserve">
<path d="M12,28h8l-4,4L12,28z M32,0v26H0V0H32z M30,19.42l-7-7.01l-8,8l-6.09-6.09L2,19.5V24h28V19.42z M30,2H2v15l7.09-5.32  L15,17.59l8-8l7,6.99V2z M6,7c0,0.552,0.448,1,1,1s1-0.448,1-1S7.552,6,7,6S6,6.448,6,7z M10,7c0,1.654-1.346,3-3,3S4,8.654,4,7  s1.346-3,3-3S10,5.346,10,7z"/>
</svg>
