<?xml version="1.0" encoding="utf-8"?>
<!-- Generator: Adobe Illustrator 16.0.0, SVG Export Plug-In . SVG Version: 6.00 Build 0)  -->
<!DOCTYPE svg PUBLIC "-//W3C//DTD SVG 1.1//EN" "http://www.w3.org/Graphics/SVG/1.1/DTD/svg11.dtd">
<svg xmlns="http://www.w3.org/2000/svg" xmlns:xlink="http://www.w3.org/1999/xlink" version="1.1" id="Capa_1" x="0px" y="0px" width="32px" height="32px" viewBox="0 0 32 32" style="enable-background:new 0 0 32 32;" xml:space="preserve">
<path d="M12,28h8l-4,4L12,28z M12,16c-2.206,0-4,1.794-4,4s1.794,4,4,4s4-1.794,4-4S14.206,16,12,16 M18,20c0,3.313-2.686,6-6,6  s-6-2.687-6-6c0-3.314,2.686-6,6-6S18,16.686,18,20z M28,12H16v2h10v8h-6v2h8V12z M14,10H8.92l5.032-7.189l4.2,6.719l1.695-1.06  l-5-8C14.67,0.186,14.361,0.009,14.026,0c-0.321-0.028-0.653,0.151-0.845,0.426l-7,10c-0.214,0.305-0.24,0.704-0.068,1.035  C6.285,11.792,6.627,12,7,12h7V10z"/>
</svg>
