<?xml version="1.0" encoding="utf-8"?>
<!-- Generator: Adobe Illustrator 16.0.0, SVG Export Plug-In . SVG Version: 6.00 Build 0)  -->
<!DOCTYPE svg PUBLIC "-//W3C//DTD SVG 1.1//EN" "http://www.w3.org/Graphics/SVG/1.1/DTD/svg11.dtd">
<svg xmlns="http://www.w3.org/2000/svg" xmlns:xlink="http://www.w3.org/1999/xlink" version="1.1" id="Capa_1" x="0px" y="0px" width="32px" height="32px" viewBox="0 0 32 32" style="enable-background:new 0 0 32 32;" xml:space="preserve">
<path d="M28.41,5l-4.7,4.71l-1.42-1.42L24.59,6H4V4h20.59l-2.3-2.29l1.42-1.42L28.41,5z M28,26H7.41l2.3-2.29l-1.42-1.42L3.59,27  l4.7,4.71l1.42-1.42L7.41,28H28V26z M18,10l-7,12L4,10H18z M11,18.03L14.52,12H7.48L11,18.03z M28,22H14l7-12L28,22z M17.48,20  h7.039L21,13.97L17.48,20z"/>
</svg>
