<?xml version="1.0" encoding="utf-8"?>
<!-- Generator: Adobe Illustrator 16.0.0, SVG Export Plug-In . SVG Version: 6.00 Build 0)  -->
<!DOCTYPE svg PUBLIC "-//W3C//DTD SVG 1.1//EN" "http://www.w3.org/Graphics/SVG/1.1/DTD/svg11.dtd">
<svg xmlns="http://www.w3.org/2000/svg" xmlns:xlink="http://www.w3.org/1999/xlink" version="1.1" id="Capa_1" x="0px" y="0px" width="32px" height="32px" viewBox="0 0 32 32" style="enable-background:new 0 0 32 32;" xml:space="preserve">
<path d="M26,0H6C4.9,0,4,0.9,4,2v28c0,1.1,0.9,2,2,2h20c1.1,0,2-0.9,2-2V2C28,0.9,27.1,0,26,0z M8,30H6v-2h2V30z M8,26H6V6h2V26z   M8,4H6V2h2V4z M22,30H10v-2h12V30z M22,26H10V6h12V26z M22,4H10V2h12V4z M26,30h-2v-2h2V30z M26,26h-2V6h2V26z M26,4h-2V2h2V4z"/>
</svg>
