<?xml version="1.0" encoding="utf-8"?>
<!-- Generator: Adobe Illustrator 16.0.0, SVG Export Plug-In . SVG Version: 6.00 Build 0)  -->
<!DOCTYPE svg PUBLIC "-//W3C//DTD SVG 1.1//EN" "http://www.w3.org/Graphics/SVG/1.1/DTD/svg11.dtd">
<svg xmlns="http://www.w3.org/2000/svg" xmlns:xlink="http://www.w3.org/1999/xlink" version="1.1" id="Capa_1" x="0px" y="0px" width="32px" height="32px" viewBox="0 0 32 32" style="enable-background:new 0 0 32 32;" xml:space="preserve">
<path d="M2,18v-8l4,4L2,18z M30,18v-8l-4,4L30,18z M14.446,22.853c1.492-0.335,3.265-0.607,5.355-0.748  C22.018,25.473,24.511,28,27,28c3.955,0,5-2.616,5-4c0-0.409-0.253-4-9-4c-0.73,0-1.433,0.015-2.107,0.042  c-1.062-1.754-2.097-3.745-3.046-5.755C19.234,9.945,20,6.194,20,5c0-1.671-0.5-2.961-1.486-3.833  c-1.503-1.328-3.548-1.092-3.678-1.075c-1.368,0.228-2.079,0.951-2.434,1.517c-0.951,1.515-0.424,3.456-0.35,3.708  c0.13,0.392,1.518,4.509,3.628,9.13c-0.745,2.205-1.642,4.526-2.651,6.686c-4.745,1.232-6.62,3.046-6.735,3.161l1.408,1.42  c0.021-0.021,1.193-1.115,4.078-2.111C9.76,27.272,7.415,30,5,30c-0.705,0-2.368-0.255-2.722-1.011  c-0.297-0.635,0.246-1.855,1.49-3.349l-1.536-1.281c-1.866,2.239-2.443,4.03-1.765,5.478C1.452,31.939,4.64,32,5,32  C8.723,32,11.949,27.889,14.446,22.853z M23,22c5.5,0,6.92,1.489,7,2c0,0.082-0.034,2-3,2c-1.473,0-3.157-1.605-4.832-3.993  C22.44,22.002,22.718,22,23,22z M18.618,20.19c-1.132,0.103-2.173,0.243-3.128,0.41c0.514-1.181,0.988-2.385,1.422-3.576  C17.45,18.097,18.021,19.165,18.618,20.19z M17.199,2.674C17.73,3.151,18,3.933,18,5c0,1.014-0.511,3.5-1.4,6.531  c-1.11-2.561-2.032-4.988-2.64-6.812c-0.095-0.325-0.273-1.396,0.135-2.047c0.203-0.323,0.552-0.521,1.021-0.601  c0.003,0,0.092-0.009,0.235-0.009C15.755,2.062,16.596,2.134,17.199,2.674z"/>
</svg>
