<?xml version="1.0" encoding="utf-8"?>
<!-- Generator: Adobe Illustrator 16.0.0, SVG Export Plug-In . SVG Version: 6.00 Build 0)  -->
<!DOCTYPE svg PUBLIC "-//W3C//DTD SVG 1.1//EN" "http://www.w3.org/Graphics/SVG/1.1/DTD/svg11.dtd">
<svg xmlns="http://www.w3.org/2000/svg" xmlns:xlink="http://www.w3.org/1999/xlink" version="1.1" id="Capa_1" x="0px" y="0px" width="32px" height="32px" viewBox="0 0 32 32" style="enable-background:new 0 0 32 32;" xml:space="preserve">
<path d="M0,4v26h32V4H0z M10,28H2v-4h8V28z M10,22H2v-4h8V22z M10,16H2v-4h8V16z M10,10H2V6h8V10z M20,28h-8V6h8V28z M30,28h-8v-4h8  V28z M30,22h-8v-4h8V22z M30,16h-8v-4h8V16z M30,10h-8V6h8V10z"/>
</svg>
