<?xml version="1.0" encoding="utf-8"?>
<!-- Generator: Adobe Illustrator 16.0.0, SVG Export Plug-In . SVG Version: 6.00 Build 0)  -->
<!DOCTYPE svg PUBLIC "-//W3C//DTD SVG 1.1//EN" "http://www.w3.org/Graphics/SVG/1.1/DTD/svg11.dtd">
<svg xmlns="http://www.w3.org/2000/svg" xmlns:xlink="http://www.w3.org/1999/xlink" version="1.1" id="Capa_1" x="0px" y="0px" width="32px" height="32px" viewBox="0 0 32 32" style="enable-background:new 0 0 32 32;" xml:space="preserve">
<path d="M30,8v2H12V8H30z M16,18v2h14v-2H16z M20,28v2h10v-2H20z M14,12v8h-2v-0.54C11.41,19.8,10.73,20,10,20c-2.21,0-4-1.79-4-4  s1.79-4,4-4c0.73,0,1.41,0.2,2,0.54V12H14z M12,16c0-1.1-0.9-2-2-2s-2,0.9-2,2c0,1.1,0.9,2,2,2S12,17.1,12,16z M16,26v4h2v-4H16z   M16,22v2h2v-2H16z M8,8V2H4v2h2v4H4v2h6V8H8z"/>
</svg>
