<?xml version="1.0" encoding="utf-8"?>
<!-- Generator: Adobe Illustrator 16.0.0, SVG Export Plug-In . SVG Version: 6.00 Build 0)  -->
<!DOCTYPE svg PUBLIC "-//W3C//DTD SVG 1.1//EN" "http://www.w3.org/Graphics/SVG/1.1/DTD/svg11.dtd">
<svg xmlns="http://www.w3.org/2000/svg" xmlns:xlink="http://www.w3.org/1999/xlink" version="1.1" id="Capa_1" x="0px" y="0px" width="32px" height="32px" viewBox="0 0 32 32" style="enable-background:new 0 0 32 32;" xml:space="preserve">
<path d="M14,10H9.42l3.29,3.29l-1.42,1.42L8,11.42V16H6v-4.58l-3.29,3.29l-1.42-1.42L4.58,10H0V8h4.58L1.29,4.71l1.42-1.42L6,6.58V2  h2v4.58l3.29-3.29l1.42,1.42L9.42,8H14V10z M16,8v2h14v6H14v2h16v12H2V16H0v16h32V8H16z M26,14h2v-2h-2V14z M22,14h2v-2h-2V14z   M18,14h2v-2h-2V14z"/>
</svg>
