<?xml version="1.0" encoding="utf-8"?>
<!-- Generator: Adobe Illustrator 16.0.0, SVG Export Plug-In . SVG Version: 6.00 Build 0)  -->
<!DOCTYPE svg PUBLIC "-//W3C//DTD SVG 1.1//EN" "http://www.w3.org/Graphics/SVG/1.1/DTD/svg11.dtd">
<svg xmlns="http://www.w3.org/2000/svg" xmlns:xlink="http://www.w3.org/1999/xlink" version="1.1" id="Capa_1" x="0px" y="0px" width="32px" height="32px" viewBox="0 0 32 32" style="enable-background:new 0 0 32 32;" xml:space="preserve">
<path d="M30,8v2H12V8H30z M12,18v2h18v-2H12z M12,28v2h18v-2H12z M8,8V2H4v2h2v4H4v2h6V8H8z M10,13.31V12H4v2h3.14L4,18.7V20h6v-2  H6.87L10,13.31z M10,22H4v2h2.59l-1.28,1.27L8,26.62V28H4v2h6v-4.62L8.69,24.73L10,23.42V22z"/>
</svg>
