<?xml version="1.0" encoding="utf-8"?>
<!-- Generator: Adobe Illustrator 16.0.0, SVG Export Plug-In . SVG Version: 6.00 Build 0)  -->
<!DOCTYPE svg PUBLIC "-//W3C//DTD SVG 1.1//EN" "http://www.w3.org/Graphics/SVG/1.1/DTD/svg11.dtd">
<svg xmlns="http://www.w3.org/2000/svg" xmlns:xlink="http://www.w3.org/1999/xlink" version="1.1" id="Capa_1" x="0px" y="0px" width="32px" height="32px" viewBox="0 0 32 32" style="enable-background:new 0 0 32 32;" xml:space="preserve">
<path d="M29,6H16V3c0-0.31-0.15-0.61-0.4-0.8c-0.25-0.19-0.57-0.25-0.87-0.16l-14,4C0.3,6.16,0,6.55,0,7v20  c0,0.45,0.3,0.84,0.73,0.96l14,4L15,32c0.21,0,0.43-0.07,0.6-0.2C15.85,31.61,16,31.31,16,31v-3h13c2.2,0,3-1.79,3-3V9  C32,6.8,30.21,6,29,6z M14,29.67L2,26.25V7.75l12-3.42V29.67z M16,8h12.24L19,15.7l-3-2.51V8z M30,24.99C29.99,25.45,29.81,26,29,26  H16V15.8l2.36,1.97C18.54,17.92,18.77,18,19,18s0.46-0.08,0.64-0.23L30,9.14V24.99z M8,12c1.475,0,2,2.583,2,5s-0.525,5-2,5  s-2-2.583-2-5S6.525,12,8,12z M8,10c-2.209,0-4,2-4,7s1.791,7,4,7s4-2,4-7S10.209,10,8,10z"/>
</svg>
