<?xml version="1.0" encoding="utf-8"?>
<!-- Generator: Adobe Illustrator 16.0.0, SVG Export Plug-In . SVG Version: 6.00 Build 0)  -->
<!DOCTYPE svg PUBLIC "-//W3C//DTD SVG 1.1//EN" "http://www.w3.org/Graphics/SVG/1.1/DTD/svg11.dtd">
<svg xmlns="http://www.w3.org/2000/svg" xmlns:xlink="http://www.w3.org/1999/xlink" version="1.1" id="Capa_1" x="0px" y="0px" width="32px" height="32px" viewBox="0 0 32 32" style="enable-background:new 0 0 32 32;" xml:space="preserve">
<path d="M9,2c3.86,0,7,3.14,7,7s-3.14,7-7,7s-7-3.14-7-7S5.14,2,9,2 M9,0C4.029,0,0,4.029,0,9s4.029,9,9,9s9-4.029,9-9S13.971,0,9,0  z M9,6c0.248,0,1,0,1,3s-0.752,3-1,3s-1,0-1-3S8.752,6,9,6 M9,4C7.343,4,6,5,6,9s1.343,5,3,5s3-1,3-5S10.657,4,9,4z M20,10v2h8.3  L17,21.68L12.7,18L4,28.24V20H2v12h30V10H20z M5.14,30l7.7-9.25L17,24.32l4.16-3.57l7.7,9.25H5.14z M30,28.24l-7.32-8.79L30,13.17  V28.24z"/>
</svg>
