<?xml version="1.0" encoding="utf-8"?>
<!-- Generator: Adobe Illustrator 16.0.0, SVG Export Plug-In . SVG Version: 6.00 Build 0)  -->
<!DOCTYPE svg PUBLIC "-//W3C//DTD SVG 1.1//EN" "http://www.w3.org/Graphics/SVG/1.1/DTD/svg11.dtd">
<svg xmlns="http://www.w3.org/2000/svg" xmlns:xlink="http://www.w3.org/1999/xlink" version="1.1" id="Capa_1" x="0px" y="0px" width="32px" height="32px" viewBox="0 0 32 32" style="enable-background:new 0 0 32 32;" xml:space="preserve">
<path d="M25,0H7C4.8,0,4,1.79,4,3v26c0,2.2,1.79,3,3,3h18c2.2,0,3-1.79,3-3V3C28,0.8,26.21,0,25,0z M26,28.99  C25.99,29.45,25.81,30,25,30H7.01C6.55,29.99,6,29.81,6,29V3.01C6.01,2.55,6.19,2,7,2h17.99C25.45,2.01,26,2.19,26,3V28.99z   M21.71,12.29l-6-6c-0.39-0.39-1.03-0.39-1.42,0l-6,6c-0.39,0.39-0.39,1.03,0,1.42l6,6C14.49,19.9,14.74,20,15,20  s0.51-0.1,0.71-0.29l6-6C22.1,13.32,22.1,12.68,21.71,12.29z M15,17.59L10.41,13L12,11.42l4.59,4.59L15,17.59z M18.01,14.59  L13.42,10L15,8.41L19.59,13L18.01,14.59z M21.71,16.29c-0.39-0.39-1.03-0.39-1.42,0C20.06,16.53,18,18.65,18,21c0,2.2,1.79,3,3,3  s3-0.8,3-3C24,18.65,21.94,16.53,21.71,16.29z M21,22c-0.46-0.01-1-0.2-1-1c0-0.83,0.51-1.76,1-2.44c0.49,0.681,1,1.61,1,2.44  C22,21.8,21.46,21.99,21,22z"/>
</svg>
