<?xml version="1.0" encoding="utf-8"?>
<!-- Generator: Adobe Illustrator 16.0.0, SVG Export Plug-In . SVG Version: 6.00 Build 0)  -->
<!DOCTYPE svg PUBLIC "-//W3C//DTD SVG 1.1//EN" "http://www.w3.org/Graphics/SVG/1.1/DTD/svg11.dtd">
<svg xmlns="http://www.w3.org/2000/svg" xmlns:xlink="http://www.w3.org/1999/xlink" version="1.1" id="Capa_1" x="0px" y="0px" width="32px" height="32px" viewBox="0 0 32 32" style="enable-background:new 0 0 32 32;" xml:space="preserve">
<path d="M32,19v1h-2c0,6.63-5.37,12-12,12S6,26.63,6,20c0-0.14,0-0.27,0.01-0.41c0.64,0.18,1.31,0.3,1.99,0.36V20  c0,5.51,4.49,10,10,10s10-4.49,10-10H18v-6h2v4h9.93C29.65,15.38,28.12,8.55,20,8.03V6.05C31.85,6.68,32,18.87,32,19z M18,9  c0,4.97-4.03,9-9,9s-9-4.03-9-9s4.03-9,9-9S18,4.03,18,9z M16,9c0-3.86-3.14-7-7-7S2,5.14,2,9s3.14,7,7,7S16,12.86,16,9z M12,7  c0,2.2-1.79,3-3,3H8v4H6V4h3C10.21,4,12,4.8,12,7z M10,7c0-0.81-0.55-0.99-1.01-1H8v2h1C9.45,7.99,10,7.81,10,7z"/>
</svg>
