<?xml version="1.0" encoding="utf-8"?>
<!-- Generator: Adobe Illustrator 16.0.0, SVG Export Plug-In . SVG Version: 6.00 Build 0)  -->
<!DOCTYPE svg PUBLIC "-//W3C//DTD SVG 1.1//EN" "http://www.w3.org/Graphics/SVG/1.1/DTD/svg11.dtd">
<svg xmlns="http://www.w3.org/2000/svg" xmlns:xlink="http://www.w3.org/1999/xlink" version="1.1" id="Capa_1" x="0px" y="0px" width="32px" height="32px" viewBox="0 0 32 32" style="enable-background:new 0 0 32 32;" xml:space="preserve">
<path d="M6,24H4V10h4c1.608,0,4,1.065,4,4s-2.392,4-4,4H6V24z M6,16h2c0.463-0.007,2-0.173,2-2c0-1.904-1.666-2-2-2H6V16z M29,4H16  V3c0-0.31-0.15-0.61-0.4-0.8c-0.25-0.19-0.57-0.25-0.87-0.16l-14,4C0.3,6.16,0,6.55,0,7v20c0,0.45,0.3,0.84,0.73,0.96l14,4L15,32  c0.21,0,0.43-0.07,0.6-0.2C15.85,31.61,16,31.31,16,31v-1h13c2.2,0,3-1.79,3-3V7C32,4.8,30.21,4,29,4z M14,29.67L2,26.25V7.75  l12-3.42V29.67z M24,16c0,2.21-1.79,4-4,4s-4-1.79-4-4s1.79-4,4-4v4H24z M22,14v-3.7c1.34,0.46,3.4,1.51,3.89,3.7H22z M30,26.99  C29.99,27.45,29.81,28,29,28H16v-2h10v-2H16v-3.54c1.06,0.96,2.46,1.54,4,1.54c3.31,0,6-2.69,6-6h2v-1c0-4.62-4.47-6.59-6.84-6.99  L20,7.82V10c-1.54,0-2.94,0.58-4,1.54V6h12.99C29.45,6.01,30,6.19,30,7V26.99z"/>
</svg>
