<?xml version="1.0" encoding="utf-8"?>
<!-- Generator: Adobe Illustrator 16.0.0, SVG Export Plug-In . SVG Version: 6.00 Build 0)  -->
<!DOCTYPE svg PUBLIC "-//W3C//DTD SVG 1.1//EN" "http://www.w3.org/Graphics/SVG/1.1/DTD/svg11.dtd">
<svg xmlns="http://www.w3.org/2000/svg" xmlns:xlink="http://www.w3.org/1999/xlink" version="1.1" id="Capa_1" x="0px" y="0px" width="32px" height="32px" viewBox="0 0 32 32" style="enable-background:new 0 0 32 32;" xml:space="preserve">
<path d="M26,0H6C4.9,0,4,0.9,4,2v28c0,1.1,0.9,2,2,2h20c1.1,0,2-0.9,2-2V2C28,0.9,27.1,0,26,0z M26,30H6V2h20V30z M8,4v4h2V6h2V4H8z   M20,4v2h2v2h2V4H20z M10,26v-2H8v4h4v-2H10z M22,24v2h-2v2h4v-4H22z M10,18v2h12v-2H10z M10,14v2h12v-2H10z M10,10v2h12v-2H10z"/>
</svg>
