<?xml version="1.0" encoding="utf-8"?>
<!-- Generator: Adobe Illustrator 16.0.0, SVG Export Plug-In . SVG Version: 6.00 Build 0)  -->
<!DOCTYPE svg PUBLIC "-//W3C//DTD SVG 1.1//EN" "http://www.w3.org/Graphics/SVG/1.1/DTD/svg11.dtd">
<svg xmlns="http://www.w3.org/2000/svg" xmlns:xlink="http://www.w3.org/1999/xlink" version="1.1" id="Capa_1" x="0px" y="0px" width="32px" height="32px" viewBox="0 0 32 32" style="enable-background:new 0 0 32 32;" xml:space="preserve">
<path d="M4,2v30h24V2H4z M26,30H6V4h20V30z M8,6v6h16V6H8z M22,10H10V8h12V10z M8,14v2h8v-2H8z M18,14v10h6V14H18z M22,22h-2v-2h2  V22z M22,18h-2v-2h2V18z M8,26v2h16v-2H8z M8,18v6h8v-6H8z M14,22h-4v-2h4V22z"/>
</svg>
