<?xml version="1.0" encoding="utf-8"?>
<!-- Generator: Adobe Illustrator 16.0.0, SVG Export Plug-In . SVG Version: 6.00 Build 0)  -->
<!DOCTYPE svg PUBLIC "-//W3C//DTD SVG 1.1//EN" "http://www.w3.org/Graphics/SVG/1.1/DTD/svg11.dtd">
<svg xmlns="http://www.w3.org/2000/svg" xmlns:xlink="http://www.w3.org/1999/xlink" version="1.1" id="Capa_1" x="0px" y="0px" width="32px" height="32px" viewBox="0 0 32 32" style="enable-background:new 0 0 32 32;" xml:space="preserve">
<path d="M26,16V7l-7-7H4C2,0,2,2,2,2v28c0,2,2,2,2,2h20c2,0,2-2,2-2v-2h-2v1.96L23.99,30H4.04L4,29.99V2.04L4.01,2H16v5  c0,1.21,0.8,3,3,3h5v6H26z M19,8c-0.81,0-0.99-0.55-1-1V2h0.17L24,7.83V8H19z M28.22,16.38l-7.3,9.12l-3.21-3.21l-1.42,1.42  l4.79,4.79l8.7-10.88L28.22,16.38z M6,12v2h12v-2H6z M6,16v2h12v-2H6z M6,20v2h8v-2H6z"/>
</svg>
