<?xml version="1.0" encoding="utf-8"?>
<!-- Generator: Adobe Illustrator 16.0.0, SVG Export Plug-In . SVG Version: 6.00 Build 0)  -->
<!DOCTYPE svg PUBLIC "-//W3C//DTD SVG 1.1//EN" "http://www.w3.org/Graphics/SVG/1.1/DTD/svg11.dtd">
<svg xmlns="http://www.w3.org/2000/svg" xmlns:xlink="http://www.w3.org/1999/xlink" version="1.1" id="Capa_1" x="0px" y="0px" width="32px" height="32px" viewBox="0 0 32 32" style="enable-background:new 0 0 32 32;" xml:space="preserve">
<path d="M0,4v26h30V4H0z M14,28H2V6h12V28z M28,28H16V6h12V28z M4,8v2h8V8H4z M18,8v2h8V8H18z M4,12v2h8v-2H4z M4,16v2h8v-2H4z   M4,20v2h8v-2H4z M4,24v2h8v-2H4z M18,12v2h8v-2H18z M18,16v2h8v-2H18z M18,20v2h8v-2H18z M18,24v2h8v-2H18z"/>
</svg>
