<?xml version="1.0" encoding="utf-8"?>
<!-- Generator: Adobe Illustrator 16.0.0, SVG Export Plug-In . SVG Version: 6.00 Build 0)  -->
<!DOCTYPE svg PUBLIC "-//W3C//DTD SVG 1.1//EN" "http://www.w3.org/Graphics/SVG/1.1/DTD/svg11.dtd">
<svg xmlns="http://www.w3.org/2000/svg" xmlns:xlink="http://www.w3.org/1999/xlink" version="1.1" id="Capa_1" x="0px" y="0px" width="32px" height="32px" viewBox="0 0 32 32" style="enable-background:new 0 0 32 32;" xml:space="preserve">
<path d="M20,0v10h-2V2H2v16h8v2H0V0H20z M28.61,28h-2.23l-1.95-4H19.57l-1.95,4h-2.23l5.72-12h1.779L28.61,28z M23.46,22L22,19  l-1.46,3H23.46z M15.43,10H6v4h4v2H4V4h7c1.21,0,3,0.8,3,3c0,0.62-0.14,1.13-0.38,1.55C14.33,8.86,14.99,9.33,15.43,10z M12,7  c0-0.81-0.55-0.99-1.01-1H6v2h5C11.45,7.99,12,7.81,12,7z M30,14H14v16h16V14 M32,32H12V12h20V32z"/>
</svg>
