<?xml version="1.0" encoding="utf-8"?>
<!-- Generator: Adobe Illustrator 16.0.0, SVG Export Plug-In . SVG Version: 6.00 Build 0)  -->
<!DOCTYPE svg PUBLIC "-//W3C//DTD SVG 1.1//EN" "http://www.w3.org/Graphics/SVG/1.1/DTD/svg11.dtd">
<svg xmlns="http://www.w3.org/2000/svg" xmlns:xlink="http://www.w3.org/1999/xlink" version="1.1" id="Capa_1" x="0px" y="0px" width="32px" height="32px" viewBox="0 0 32 32" style="enable-background:new 0 0 32 32;" xml:space="preserve">
<path d="M28,2V0H9C5.04,0,4,3.27,4,5v22c0,1.73,1.04,5,5,5h19V8h-2V2H28z M6,5c0.01-0.52,0.19-3,3-3h15v6H9C6.18,8,6.01,5.5,6,5.01  V5z M26,30H9c-2.82,0-2.99-2.5-3-3V9.12C6.73,9.65,7.71,10,9,10h17V30z M20.41,22.05C21.4,20.99,22,19.57,22,18c0-3.31-2.69-6-6-6  c-3.31,0-6,2.69-6,6c0,3.31,2.69,6,6,6c1.03,0,2-0.26,2.84-0.71l3.37,4.32l1.58-1.221L20.41,22.05z M12,18c0-2.21,1.79-4,4-4  s4,1.79,4,4s-1.79,4-4,4S12,20.21,12,18z"/>
</svg>
