<?xml version="1.0" encoding="utf-8"?>
<!-- Generator: Adobe Illustrator 16.0.0, SVG Export Plug-In . SVG Version: 6.00 Build 0)  -->
<!DOCTYPE svg PUBLIC "-//W3C//DTD SVG 1.1//EN" "http://www.w3.org/Graphics/SVG/1.1/DTD/svg11.dtd">
<svg xmlns="http://www.w3.org/2000/svg" xmlns:xlink="http://www.w3.org/1999/xlink" version="1.1" id="Capa_1" x="0px" y="0px" width="32px" height="32px" viewBox="0 0 32 32" style="enable-background:new 0 0 32 32;" xml:space="preserve">
<path d="M28,19c0,7.18-5.82,13-13,13C7.82,32,2,26.18,2,19C2,11.95,7.6,6.22,14.6,6.01l-2.31-2.3l1.42-1.42L18.41,7l-4.7,4.71  l-1.42-1.42l2.29-2.28C8.71,8.23,4,13.07,4,19c0,6.07,4.93,11,11,11c6.07,0,11-4.93,11-11c0-4.07-2.21-7.62-5.49-9.51l1.461-1.46  C25.59,10.33,28,14.38,28,19z M15,16c-1.654,0-3,1.346-3,3s1.346,3,3,3c1.654,0,3-1.346,3-3S16.654,16,15,16 M20,19  c0,2.762-2.238,5-5,5c-2.761,0-5-2.238-5-5c0-2.761,2.239-5,5-5C17.762,14,20,16.239,20,19z"/>
</svg>
