<?xml version="1.0" encoding="utf-8"?>
<!-- Generator: Adobe Illustrator 16.0.0, SVG Export Plug-In . SVG Version: 6.00 Build 0)  -->
<!DOCTYPE svg PUBLIC "-//W3C//DTD SVG 1.1//EN" "http://www.w3.org/Graphics/SVG/1.1/DTD/svg11.dtd">
<svg xmlns="http://www.w3.org/2000/svg" xmlns:xlink="http://www.w3.org/1999/xlink" version="1.1" id="Capa_1" x="0px" y="0px" width="32px" height="32px" viewBox="0 0 32 32" style="enable-background:new 0 0 32 32;" xml:space="preserve">
<path d="M27.293,28.707l-7.258-7.257C18.127,23.042,15.674,24,13,24C6.935,24,2,19.065,2,13S6.935,2,13,2s11,4.935,11,11  c0,2.674-0.958,5.127-2.55,7.035l7.257,7.258L27.293,28.707z M13,4c-4.962,0-9,4.038-9,9c0,4.963,4.038,9,9,9c4.963,0,9-4.037,9-9  C22,8.038,17.963,4,13,4z M13.93,6h-1.86L7.55,18H9.7l1.58-4h3.44l1.6,4h2.13L13.93,6z M12.08,12L13,9l0.92,3H12.08z"/>
</svg>
