<?xml version="1.0" encoding="utf-8"?>
<!-- Generator: Adobe Illustrator 16.0.0, SVG Export Plug-In . SVG Version: 6.00 Build 0)  -->
<!DOCTYPE svg PUBLIC "-//W3C//DTD SVG 1.1//EN" "http://www.w3.org/Graphics/SVG/1.1/DTD/svg11.dtd">
<svg xmlns="http://www.w3.org/2000/svg" xmlns:xlink="http://www.w3.org/1999/xlink" version="1.1" id="Capa_1" x="0px" y="0px" width="32px" height="32px" viewBox="0 0 32 32" style="enable-background:new 0 0 32 32;" xml:space="preserve">
<path d="M26.31,18.9C27.37,17.54,28,15.84,28,14c0-2.95-1.61-5.54-4-6.92V5c0-2.2-1.79-3-3-3H5C2.8,2,2,3.79,2,5v22  c0,2.2,1.79,3,3,3h16c2.2,0,3-1.79,3-3v-6.08c0.31-0.18,0.62-0.39,0.9-0.61l4.39,4.4l1.42-1.42L26.31,18.9z M22,26.99  C21.99,27.45,21.81,28,21,28H5.01C4.55,27.99,4,27.81,4,27V5.01C4.01,4.55,4.19,4,5,4h15.99C21.45,4.01,22,4.19,22,5v1.25  C21.36,6.09,20.69,6,20,6c-4.41,0-8,3.59-8,8s3.59,8,8,8c0.69,0,1.36-0.09,2-0.25V26.99z M24,18.46c-0.57,0.53-1.25,0.94-2,1.19  C21.37,19.88,20.7,20,20,20c-3.31,0-6-2.69-6-6c0-3.31,2.69-6,6-6c0.7,0,1.37,0.12,2,0.35c0.75,0.25,1.43,0.66,2,1.19  c1.23,1.09,2,2.69,2,4.46S25.23,17.37,24,18.46z"/>
</svg>
