<?xml version="1.0" encoding="utf-8"?>
<!-- Generator: Adobe Illustrator 16.0.0, SVG Export Plug-In . SVG Version: 6.00 Build 0)  -->
<!DOCTYPE svg PUBLIC "-//W3C//DTD SVG 1.1//EN" "http://www.w3.org/Graphics/SVG/1.1/DTD/svg11.dtd">
<svg xmlns="http://www.w3.org/2000/svg" xmlns:xlink="http://www.w3.org/1999/xlink" version="1.1" id="Capa_1" x="0px" y="0px" width="32px" height="32px" viewBox="0 0 32 32" style="enable-background:new 0 0 32 32;" xml:space="preserve">
<path d="M28,4v6h-4v2h4v6h-6v2h4v6h-2v4H4V4H28 M30,2H2v28v2h24v-2v-2h2v-2v-6h2V2z M26,6H6v2h20V6z M22,10H6v2h16V10z M26,14H6v2  h20V14z M20,18H6v2h14V18z M24,22H6v2h18V22z M22,26H6v2h16V26z"/>
</svg>
