<?xml version="1.0" encoding="utf-8"?>
<!-- Generator: Adobe Illustrator 16.0.0, SVG Export Plug-In . SVG Version: 6.00 Build 0)  -->
<!DOCTYPE svg PUBLIC "-//W3C//DTD SVG 1.1//EN" "http://www.w3.org/Graphics/SVG/1.1/DTD/svg11.dtd">
<svg xmlns="http://www.w3.org/2000/svg" xmlns:xlink="http://www.w3.org/1999/xlink" version="1.1" id="Capa_1" x="0px" y="0px" width="32px" height="32px" viewBox="0 0 32 32" style="enable-background:new 0 0 32 32;" xml:space="preserve">
<path d="M30,10v14h-8v-2h6V12H18v4h-2v-6H30z M20,25c0,3.87-3.13,7-7,7s-7-3.13-7-7s3.13-7,7-7S20,21.13,20,25z M18,25  c0-2.76-2.24-5-5-5s-5,2.24-5,5s2.24,5,5,5S18,27.76,18,25z M14,14H4.723l6.371-11.148l4.092,5.729l1.628-1.162l-5-7  c-0.198-0.277-0.523-0.434-0.864-0.417c-0.341,0.017-0.649,0.207-0.818,0.502l-8,14c-0.177,0.31-0.176,0.69,0.003,0.998  C2.314,15.81,2.644,16,3,16h11V14z"/>
</svg>
