<?xml version="1.0" encoding="utf-8"?>
<!-- Generator: Adobe Illustrator 16.0.0, SVG Export Plug-In . SVG Version: 6.00 Build 0)  -->
<!DOCTYPE svg PUBLIC "-//W3C//DTD SVG 1.1//EN" "http://www.w3.org/Graphics/SVG/1.1/DTD/svg11.dtd">
<svg xmlns="http://www.w3.org/2000/svg" xmlns:xlink="http://www.w3.org/1999/xlink" version="1.1" id="Capa_1" x="0px" y="0px" width="32px" height="32px" viewBox="0 0 32 32" style="enable-background:new 0 0 32 32;" xml:space="preserve">
<path d="M16,20c-0.73,0-1.41,0.2-2,0.54V16h-2v12h2v-0.54C14.59,27.8,15.27,28,16,28c2.21,0,4-1.79,4-4S18.21,20,16,20z M16,26  c-1.1,0-2-0.9-2-2s0.9-2,2-2c1.1,0,2,0.9,2,2S17.1,26,16,26z M26,26c-1.1,0-2-0.9-2-2s0.9-2,2-2c0.74,0,1.38,0.4,1.73,1h2.14  c-0.44-1.73-2.01-3-3.87-3c-2.21,0-4,1.79-4,4s1.79,4,4,4c1.86,0,3.43-1.27,3.87-3h-2.14C27.38,25.6,26.74,26,26,26z M6.96,16H5.04  L1.78,28h1.97l0.56-2h3.4l0.57,2h2.04L6.96,16z M4.88,24L6,20l1.14,4H4.88z M31.707,5.707l-1.414-1.414L21,13.586l-3.293-3.293  l-1.414,1.414L21,16.414L31.707,5.707z"/>
</svg>
