<?xml version="1.0" encoding="utf-8"?>
<!-- Generator: Adobe Illustrator 16.0.0, SVG Export Plug-In . SVG Version: 6.00 Build 0)  -->
<!DOCTYPE svg PUBLIC "-//W3C//DTD SVG 1.1//EN" "http://www.w3.org/Graphics/SVG/1.1/DTD/svg11.dtd">
<svg xmlns="http://www.w3.org/2000/svg" xmlns:xlink="http://www.w3.org/1999/xlink" version="1.1" id="Capa_1" x="0px" y="0px" width="32px" height="32px" viewBox="0 0 32 32" style="enable-background:new 0 0 32 32;" xml:space="preserve">
<path d="M0,2v16h2v-2h8v2h2v-2h8v2h2v-2h8v2h2V2H0z M10,14H2v-4h8V14z M20,14h-8v-4h8V14z M30,14h-8v-4h8V14z M30,8H2V4h28V8z   M30,22v2h-8v-2h-2v2h-8v-2h-2v2H2v-2H0v10h32V22H30z M10,30H2v-4h8V30z M20,30h-8v-4h8V30z M30,30h-8v-4h8V30z"/>
</svg>
