<?xml version="1.0" encoding="utf-8"?>
<!-- Generator: Adobe Illustrator 16.0.0, SVG Export Plug-In . SVG Version: 6.00 Build 0)  -->
<!DOCTYPE svg PUBLIC "-//W3C//DTD SVG 1.1//EN" "http://www.w3.org/Graphics/SVG/1.1/DTD/svg11.dtd">
<svg xmlns="http://www.w3.org/2000/svg" xmlns:xlink="http://www.w3.org/1999/xlink" version="1.1" id="Capa_1" x="0px" y="0px" width="32px" height="32px" viewBox="0 0 32 32" style="enable-background:new 0 0 32 32;" xml:space="preserve">
<path d="M29.96,16C29.48,9.63,24.37,4.52,18,4.05C17.67,4.01,17.34,4,17,4s-0.67,0.01-1,0.05c-3.59,0.26-6.78,2-8.97,4.61L5.39,7.48  C4.98,8,4.59,8.54,4.24,9.11C2.82,11.4,2,14.11,2,17c0,7.95,6.17,14.45,14,14.96c0.33,0.03,0.66,0.04,1,0.04s0.67-0.01,1-0.04v-2  C24.37,29.48,29.48,24.37,29.96,18c0.03-0.33,0.04-0.66,0.04-1S29.99,16.33,29.96,16z M16,29.96C9.3,29.45,4,23.83,4,17  c0-2.46,0.68-4.76,1.88-6.72l1.63,1.16L16,17.51V29.96z M16,15.06L8.67,9.82c1.81-2.1,4.41-3.51,7.33-3.77V15.06z M18,27.95V18h9.95  C27.48,23.27,23.27,27.48,18,27.95z M18,16V6.05c5.27,0.47,9.48,4.68,9.95,9.95H18z"/>
</svg>
