<?xml version="1.0" encoding="utf-8"?>
<!-- Generator: Adobe Illustrator 16.0.0, SVG Export Plug-In . SVG Version: 6.00 Build 0)  -->
<!DOCTYPE svg PUBLIC "-//W3C//DTD SVG 1.1//EN" "http://www.w3.org/Graphics/SVG/1.1/DTD/svg11.dtd">
<svg xmlns="http://www.w3.org/2000/svg" xmlns:xlink="http://www.w3.org/1999/xlink" version="1.1" id="Capa_1" x="0px" y="0px" width="32px" height="32px" viewBox="0 0 32 32" style="enable-background:new 0 0 32 32;" xml:space="preserve">
<path d="M28,20c0,0.61-0.21,6-6,6V14H0v18h22v-4c6.33,0,8-5.23,8-8H28z M20,30H2v-8h18V30z M20,20H2v-4h18V20z M10,0v4  c-6.33,0-8,5.23-8,8h2c0-0.61,0.21-6,6-6v6h2V8h18v8h-6v2h8V0H10z M30,6H12V2h18V6z"/>
</svg>
