<?xml version="1.0" encoding="utf-8"?>
<!-- Generator: Adobe Illustrator 16.0.0, SVG Export Plug-In . SVG Version: 6.00 Build 0)  -->
<!DOCTYPE svg PUBLIC "-//W3C//DTD SVG 1.1//EN" "http://www.w3.org/Graphics/SVG/1.1/DTD/svg11.dtd">
<svg xmlns="http://www.w3.org/2000/svg" xmlns:xlink="http://www.w3.org/1999/xlink" version="1.1" id="Capa_1" x="0px" y="0px" width="32px" height="32px" viewBox="0 0 32 32" style="enable-background:new 0 0 32 32;" xml:space="preserve">
<path d="M30,32H18v-7.816l0.802-0.164C19.178,23.943,28,22.039,28,13C28,2.154,15.53,2.001,14.999,2C14.47,2.001,2,2.154,2,13  c0,9.076,8.821,10.944,9.196,11.02L12,24.181V32H0v-2h10v-4.235C7.495,24.998,0,21.954,0,13C0,0.148,14.85,0,15,0s15,0.148,15,13  c0,8.954-7.495,11.998-10,12.765V30h10V32z"/>
</svg>
