<?xml version="1.0" encoding="utf-8"?>
<!-- Generator: Adobe Illustrator 16.0.0, SVG Export Plug-In . SVG Version: 6.00 Build 0)  -->
<!DOCTYPE svg PUBLIC "-//W3C//DTD SVG 1.1//EN" "http://www.w3.org/Graphics/SVG/1.1/DTD/svg11.dtd">
<svg xmlns="http://www.w3.org/2000/svg" xmlns:xlink="http://www.w3.org/1999/xlink" version="1.1" id="Capa_1" x="0px" y="0px" width="32px" height="32px" viewBox="0 0 32 32" style="enable-background:new 0 0 32 32;" xml:space="preserve">
<path d="M6,30H0v-6h2v4h4V30z M30,24h-2v4h-4v2h6V24z M2,6h4V4H0v6h2V6z M30,4h-6v2h4v4h2V4z M20,28H10v2h10V28z M20,4H10v2h10V4z   M2,14H0v6h2V14z M30,14h-2v6h2V14z M26,10H4v2h22V10z M26,16H4v2h22V16z M26,22H4v2h22V22z"/>
</svg>
