<?xml version="1.0" encoding="utf-8"?>
<!-- Generator: Adobe Illustrator 16.0.0, SVG Export Plug-In . SVG Version: 6.00 Build 0)  -->
<!DOCTYPE svg PUBLIC "-//W3C//DTD SVG 1.1//EN" "http://www.w3.org/Graphics/SVG/1.1/DTD/svg11.dtd">
<svg xmlns="http://www.w3.org/2000/svg" xmlns:xlink="http://www.w3.org/1999/xlink" version="1.1" id="Capa_1" x="0px" y="0px" width="32px" height="32px" viewBox="0 0 32 32" style="enable-background:new 0 0 32 32;" xml:space="preserve">
<path d="M26.71,5.29c-1.03-1.03-2.22-1.55-3.52-1.55c-2.141,0-3.79,1.45-3.9,1.55l-15,15C4.11,20.48,4,20.73,4,21v7h7  c0.27,0,0.52-0.11,0.71-0.29l15.04-15.04C27.94,11.32,29.47,8.06,26.71,5.29z M6,26v-4.58L10.58,26H6z M12,24.58L7.42,20L19.01,8.42  L23.59,13L12,24.58z M25.29,11.29L25,11.59l-4.58-4.58l0.25-0.26c0.01-0.01,1.16-1.01,2.521-1.01c0.77,0,1.449,0.32,2.1,0.97  C27.37,8.79,25.47,11.08,25.29,11.29z M28,26H16v2h12V26z M28,22h-8v2h8V22z M28,18h-4v2h4V18z M16,4H4v2h12V4z M12,8H4v2h8V8z   M8,12H4v2h4V12z M30,2v28H2V2H30 M32,0H0v32h32V0z"/>
</svg>
