<?xml version="1.0" encoding="utf-8"?>
<!-- Generator: Adobe Illustrator 16.0.0, SVG Export Plug-In . SVG Version: 6.00 Build 0)  -->
<!DOCTYPE svg PUBLIC "-//W3C//DTD SVG 1.1//EN" "http://www.w3.org/Graphics/SVG/1.1/DTD/svg11.dtd">
<svg xmlns="http://www.w3.org/2000/svg" xmlns:xlink="http://www.w3.org/1999/xlink" version="1.1" id="Capa_1" x="0px" y="0px" width="32px" height="32px" viewBox="0 0 32 32" style="enable-background:new 0 0 32 32;" xml:space="preserve">
<path d="M29,4H16V3c0-0.31-0.15-0.61-0.4-0.8c-0.25-0.19-0.57-0.25-0.87-0.16l-14,4C0.3,6.16,0,6.55,0,7v20  c0,0.45,0.3,0.84,0.73,0.96l14,4L15,32c0.21,0,0.43-0.07,0.6-0.2C15.85,31.61,16,31.31,16,31v-1h13c2.2,0,3-1.79,3-3V7  C32,4.8,30.21,4,29,4z M14,29.67L2,26.25V7.75l12-3.42V29.67z M16,14h2.59L22,17.41V21h-2v-3h-4V14z M20.41,13L23,10.41L25.59,13  L23,15.59L20.41,13z M16,20h2v4h-2V20z M30,26.99C29.99,27.45,29.81,28,29,28H16v-2h4v-3h4v-5.59L28.41,13L23,7.59L18.59,12H16V6  h12.99C29.45,6.01,30,6.19,30,7V26.99z M10.17,10L8,19l-2.21-9H3.73l3.3,14h1.94l3.28-14H10.17z"/>
</svg>
