<?xml version="1.0" encoding="utf-8"?>
<!-- Generator: Adobe Illustrator 16.0.0, SVG Export Plug-In . SVG Version: 6.00 Build 0)  -->
<!DOCTYPE svg PUBLIC "-//W3C//DTD SVG 1.1//EN" "http://www.w3.org/Graphics/SVG/1.1/DTD/svg11.dtd">
<svg xmlns="http://www.w3.org/2000/svg" xmlns:xlink="http://www.w3.org/1999/xlink" version="1.1" id="Capa_1" x="0px" y="0px" width="32px" height="32px" viewBox="0 0 32 32" style="enable-background:new 0 0 32 32;" xml:space="preserve">
<path d="M21,0H6C4,0,4,2,4,2v28c0,2,2,2,2,2h20c2,0,2-2,2-2V7L21,0z M20,2h0.17L26,7.83V8h-5c-0.811,0-0.99-0.55-1-1V2z M26,29.96  L25.99,30H6.04L6,29.99V2.04L6.01,2H18v5c0,1.21,0.8,3,3,3h5V29.96z M16,28c-2.075,0-6-1.254-6-6c0-4.271,4.975-11.285,5.186-11.581  c0.376-0.526,1.252-0.526,1.628,0C17.025,10.715,22,17.729,22,22C22,26.746,18.075,28,16,28z M16,12.783  c-1.579,2.433-4,6.701-4,9.217c0,3.934,3.797,3.999,3.997,4C16.414,25.996,20,25.849,20,22C20,19.484,17.579,15.216,16,12.783z"/>
</svg>
