<?xml version="1.0" encoding="utf-8"?>
<!-- Generator: Adobe Illustrator 16.0.0, SVG Export Plug-In . SVG Version: 6.00 Build 0)  -->
<!DOCTYPE svg PUBLIC "-//W3C//DTD SVG 1.1//EN" "http://www.w3.org/Graphics/SVG/1.1/DTD/svg11.dtd">
<svg xmlns="http://www.w3.org/2000/svg" xmlns:xlink="http://www.w3.org/1999/xlink" version="1.1" id="Capa_1" x="0px" y="0px" width="32px" height="32px" viewBox="0 0 32 32" style="enable-background:new 0 0 32 32;" xml:space="preserve">
<path d="M17,0C9.75,0,3.69,5.15,2.3,12h2.06c0.33-1.44,0.91-2.79,1.69-4h2.91c-0.37,1.49-0.6,2.87-0.74,4h2.02  c0.15-1.14,0.4-2.52,0.8-4H16v4h2V8h4.96c0.68,2.52,0.92,4.77,1,6H22v2h1.96c-0.08,1.23-0.32,3.48-1,6l-0.62,2  c-0.109,0.3-0.22,0.61-0.34,0.91v4.229C27.82,27.09,32,21.53,32,15C32,6.72,25.28,0,17,0z M9.53,6h-1.9  c0.8-0.84,1.72-1.57,2.72-2.16C10.03,4.56,9.76,5.29,9.53,6z M16,6h-4.34c0.4-1.15,0.91-2.32,1.55-3.43  C14.1,2.29,15.04,2.11,16,2.05V6z M18,6V2.05c0.96,0.06,1.89,0.24,2.78,0.52C21.43,3.68,21.94,4.85,22.33,6H18z M27.95,8  c1.13,1.76,1.84,3.81,2.01,6h-3.99c-0.069-1.22-0.29-3.45-0.92-6H27.95z M23.66,3.84c1,0.6,1.91,1.32,2.71,2.16h-1.9  C24.24,5.29,23.97,4.56,23.66,3.84z M23.66,26.16c0.31-0.72,0.58-1.45,0.81-2.16h1.9C25.57,24.84,24.66,25.56,23.66,26.16z   M27.95,22h-2.9c0.63-2.55,0.851-4.78,0.92-6h3.99C29.79,18.19,29.08,20.24,27.95,22z M0,14v18h20V14H0z M18,30H2V16h16V30z M4,18v4  h2v-2h2v-2H4z M12,18v2h2v2h2v-4H12z M6,26v-2H4v4h4v-2H6z M14,24v2h-2v2h4v-4H14z"/>
</svg>
