<?xml version="1.0" encoding="utf-8"?>
<!-- Generator: Adobe Illustrator 16.0.0, SVG Export Plug-In . SVG Version: 6.00 Build 0)  -->
<!DOCTYPE svg PUBLIC "-//W3C//DTD SVG 1.1//EN" "http://www.w3.org/Graphics/SVG/1.1/DTD/svg11.dtd">
<svg xmlns="http://www.w3.org/2000/svg" xmlns:xlink="http://www.w3.org/1999/xlink" version="1.1" id="Capa_1" x="0px" y="0px" width="32px" height="32px" viewBox="0 0 32 32" style="enable-background:new 0 0 32 32;" xml:space="preserve">
<path d="M14,26v2H8v-2h2v-4H8v-2h4v6H14z M22,21.311V20h-6v2h3.141L16,26.7V28h6v-2h-3.13L22,21.311z M30,20h-6v2h2.59l-1.279,1.27  L28,24.62V26h-4v2h6v-4.62l-1.311-0.649L30,21.42V20z M12.45,16h-2.13l-1.6-4H5.28L3.7,16H1.55L6.07,4h1.86L12.45,16z M7.92,10L7,7  l-0.92,3H7.92z"/>
</svg>
