<?xml version="1.0" encoding="utf-8"?>
<!-- Generator: Adobe Illustrator 16.0.0, SVG Export Plug-In . SVG Version: 6.00 Build 0)  -->
<!DOCTYPE svg PUBLIC "-//W3C//DTD SVG 1.1//EN" "http://www.w3.org/Graphics/SVG/1.1/DTD/svg11.dtd">
<svg xmlns="http://www.w3.org/2000/svg" xmlns:xlink="http://www.w3.org/1999/xlink" version="1.1" id="Capa_1" x="0px" y="0px" width="32px" height="32px" viewBox="0 0 32 32" style="enable-background:new 0 0 32 32;" xml:space="preserve">
<path d="M10.051,21.316L9,18.162l-1.051,3.154L6.03,21.242l-2.243-8.97l1.94-0.485l1.41,5.639l0.914-2.742h1.897l0.914,2.742  l1.41-5.639l1.94,0.485l-2.243,8.97L10.051,21.316z M32,7v20c0,1.21-0.8,3-3,3H18c0,0.63-0.29,1.22-0.8,1.6  C16.85,31.86,16.43,32,16,32c-0.18,0-0.37-0.03-0.55-0.08l-14-4C0.59,27.68,0,26.89,0,26V8c0-0.89,0.59-1.68,1.45-1.92l14-4  C15.63,2.03,15.82,2,16,2c0.43,0,0.85,0.14,1.2,0.4C17.71,2.78,18,3.37,18,4h11C30.21,4,32,4.8,32,7z M16,4L2,8v18l14,4V4z M30,7  c0-0.81-0.55-0.99-1.01-1H18v2h10v2H18v2h10v2H18v2h10v2H18v2h10v2H18v2h10v2H18v2h11c0.81,0,0.99-0.55,1-1.01V7z"/>
</svg>
